<?xml version="1.0" encoding="utf-8"?>
<!-- Generator: Adobe Illustrator 26.3.1, SVG Export Plug-In . SVG Version: 6.00 Build 0)  -->
<svg version="1.1" id="Layer_1" xmlns="http://www.w3.org/2000/svg" xmlns:xlink="http://www.w3.org/1999/xlink" x="0px" y="0px"
	 viewBox="0 0 405.6 413.8" style="enable-background:new 0 0 405.6 413.8;" xml:space="preserve">
<style type="text/css">
	.st0{opacity:0.1;}
	.st1{fill:#FFFFFF;}
	.st2{fill:#FAFAFA;}
	.st3{fill:#F5F5F5;}
	.st4{fill:#F0F0F0;}
	.st5{fill:#EBEBEB;}
	.st6{fill:#E6E6E6;}
	.st7{fill:#E1E1E1;}
	.st8{fill:#DCDCDC;}
	.st9{fill:#D7D7D7;}
	.st10{fill:#D2D2D2;}
	.st11{fill:#CDCDCD;}
	.st12{fill:#C8C8C8;}
	.st13{fill:#C3C3C3;}
	.st14{fill:#BEBEBE;}
	.st15{fill:#B9B9B9;}
	.st16{fill:#B4B4B4;}
	.st17{fill:#AFAFAF;}
	.st18{fill:#AAAAAA;}
	.st19{fill:#A5A5A5;}
	.st20{fill:#A0A0A0;}
	.st21{fill:#9B9B9B;}
	.st22{fill:#969696;}
	.st23{fill:#919191;}
	.st24{fill:#8C8C8C;}
	.st25{fill:#878787;}
	.st26{fill:#828282;}
	.st27{fill:#7D7D7D;}
	.st28{fill:#787878;}
	.st29{fill:#737373;}
	.st30{fill:#6E6E6E;}
	.st31{fill:#696969;}
	.st32{fill:#646464;}
	.st33{fill:#5F5F5F;}
	.st34{fill:#5A5A5A;}
	.st35{fill:#555555;}
	.st36{fill:#505050;}
	.st37{fill:#4B4B4B;}
	.st38{fill:#464646;}
	.st39{fill:#414141;}
	.st40{fill:#3C3C3C;}
	.st41{fill:#373737;}
	.st42{fill:#323232;}
	.st43{fill:#2D2D2D;}
	.st44{fill:#282828;}
	.st45{fill:#232323;}
	.st46{fill:#1E1E1E;}
	.st47{fill:#191919;}
	.st48{fill:#141414;}
	.st49{fill:#0F0F0F;}
	.st50{fill:#0A0A0A;}
	.st51{fill:#050505;}
	.st52{fill:#065381;}
	.st53{fill:#34B2E4;}
	.st54{fill:#72D4DF;}
	.st55{fill:#595550;}
	.st56{fill-rule:evenodd;clip-rule:evenodd;fill:#FFFFFF;}
</style>
<g id="Shadow" class="st0">
	<g>
		<path class="st1" d="M280.8,270c-16.1,22.1-42.1,35.5-69.7,35.5c-29.4,0-57-15.2-72.8-40l-62.9-0.4l-30.9,54.5
			c35.1,58.2,98.7,94.2,166.7,94.2c66.1,0,127.8-33.9,163.5-89.1l-62.4,0.4L280.8,270z"/>
		<path class="st1" d="M381.4,313.4c15.9-28.7,24.3-61.2,24.3-94.1C405.6,115.2,323.5,30,220.7,25l31.6,53.8l-32.1,54.7
			c43.3,4.6,77.2,41.3,77.2,85.8c0,13.9-3.4,27.6-9.8,39.9l31.1,54.7L381.4,313.4z"/>
		<path class="st1" d="M239.2,78.8l-31.7-54C102,26.7,16.6,113.3,16.6,219.3c0,31,7.4,61.5,21.5,88.9l30.8-54.3l63.4,0.4
			c-4.9-11-7.4-22.9-7.4-35c0-46.2,36.7-84.2,82.5-86.2L239.2,78.8z"/>
	</g>
	<g>
		<path class="st2" d="M280.5,269.6c-16.1,22.1-42.1,35.5-69.7,35.5c-29.4,0-57-15.2-72.8-40l-62.9-0.4l-30.9,54.5
			c35.1,58.2,98.7,94.2,166.7,94.2c66.1,0,127.8-33.9,163.5-89.1l-62.4,0.4L280.5,269.6z"/>
		<path class="st2" d="M381,312.9c15.9-28.7,24.3-61.2,24.3-94.1c0-104.1-82.1-189.3-184.9-194.3L252,78.4L219.9,133
			c43.3,4.6,77.2,41.3,77.2,85.8c0,13.9-3.4,27.6-9.8,39.9l31.1,54.7L381,312.9z"/>
		<path class="st2" d="M238.9,78.4l-31.7-54C101.6,26.2,16.3,112.8,16.3,218.8c0,31,7.4,61.5,21.5,88.9l30.8-54.3l63.4,0.4
			c-4.9-11-7.4-22.9-7.4-35c0-46.2,36.7-84.2,82.5-86.2L238.9,78.4z"/>
	</g>
	<g>
		<path class="st3" d="M280.2,269.1c-16.1,22.1-42.1,35.5-69.7,35.5c-29.4,0-57-15.2-72.8-40l-62.9-0.4l-30.9,54.5
			c35.1,58.2,98.7,94.2,166.7,94.2c66.1,0,127.8-33.9,163.5-89.1l-62.4,0.4L280.2,269.1z"/>
		<path class="st3" d="M380.7,312.5c15.9-28.7,24.3-61.2,24.3-94.1C405,114.3,322.9,29,220,24l31.6,53.8l-32.1,54.7
			c43.3,4.6,77.2,41.3,77.2,85.8c0,13.9-3.4,27.6-9.8,39.9l31.1,54.7L380.7,312.5z"/>
		<path class="st3" d="M238.6,77.9l-31.7-54C101.3,25.8,15.9,112.3,15.9,218.3c0,31,7.4,61.5,21.5,88.9l30.8-54.3l63.4,0.4
			c-4.9-11-7.4-22.9-7.4-35c0-46.2,36.7-84.2,82.5-86.2L238.6,77.9z"/>
	</g>
	<g>
		<path class="st4" d="M279.9,268.6c-16.1,22.1-42.1,35.5-69.7,35.5c-29.4,0-57-15.2-72.8-40l-62.9-0.4l-30.9,54.5
			c35.1,58.2,98.7,94.2,166.7,94.2c66.1,0,127.8-33.9,163.5-89.1l-62.4,0.4L279.9,268.6z"/>
		<path class="st4" d="M380.4,312c15.9-28.7,24.3-61.2,24.3-94.1c0-104.1-82.1-189.3-184.9-194.3l31.6,53.8L219.2,132
			c43.3,4.6,77.2,41.3,77.2,85.8c0,13.9-3.4,27.6-9.8,39.9l31.1,54.7L380.4,312z"/>
		<path class="st4" d="M238.3,77.4l-31.7-54C101,25.3,15.6,111.8,15.6,217.8c0,31,7.4,61.5,21.5,88.9l30.8-54.3l63.4,0.4
			c-4.9-11-7.4-22.9-7.4-35c0-46.2,36.7-84.2,82.5-86.2L238.3,77.4z"/>
	</g>
	<g>
		<path class="st5" d="M279.5,268.1c-16.1,22.1-42.1,35.5-69.7,35.5c-29.4,0-57-15.2-72.8-40l-62.9-0.4l-30.9,54.5
			c35.1,58.2,98.7,94.2,166.7,94.2c66.1,0,127.8-33.9,163.5-89.1l-62.4,0.4L279.5,268.1z"/>
		<path class="st5" d="M380.1,311.5c15.9-28.7,24.3-61.2,24.3-94.1c0-104.1-82.1-189.3-184.9-194.3L251,76.9l-32.1,54.7
			c43.3,4.6,77.2,41.3,77.2,85.8c0,13.9-3.4,27.6-9.8,39.9l31.1,54.7L380.1,311.5z"/>
		<path class="st5" d="M237.9,76.9l-31.7-54C100.7,24.8,15.3,111.4,15.3,217.3c0,31,7.4,61.5,21.5,88.9l30.8-54.3l63.4,0.4
			c-4.9-11-7.4-22.9-7.4-35c0-46.2,36.7-84.2,82.5-86.2L237.9,76.9z"/>
	</g>
	<g>
		<path class="st6" d="M279.2,267.6c-16.1,22.1-42.1,35.5-69.7,35.5c-29.4,0-57-15.2-72.8-40l-62.9-0.4l-30.9,54.5
			c35.1,58.2,98.7,94.2,166.7,94.2c66.1,0,127.8-33.9,163.5-89.1l-62.4,0.4L279.2,267.6z"/>
		<path class="st6" d="M379.7,311c15.9-28.7,24.3-61.2,24.3-94.1c0-104.1-82.1-189.3-184.9-194.3l31.6,53.8l-32.1,54.7
			c43.3,4.6,77.2,41.3,77.2,85.8c0,13.9-3.4,27.6-9.8,39.9l31.1,54.7L379.7,311z"/>
		<path class="st6" d="M237.6,76.4l-31.7-54C100.3,24.3,15,110.9,15,216.9c0,31,7.4,61.5,21.5,88.9l30.8-54.3l63.4,0.4
			c-4.9-11-7.4-22.9-7.4-35c0-46.2,36.7-84.2,82.5-86.2L237.6,76.4z"/>
	</g>
	<g>
		<path class="st7" d="M278.9,267.1c-16.1,22.1-42.1,35.5-69.7,35.5c-29.4,0-57-15.2-72.8-40l-62.9-0.4l-30.9,54.5
			c35.1,58.2,98.7,94.2,166.7,94.2c66.1,0,127.8-33.9,163.5-89.1l-62.4,0.4L278.9,267.1z"/>
		<path class="st7" d="M379.4,310.5c15.9-28.7,24.3-61.2,24.3-94.1c0-104.1-82.1-189.3-184.9-194.3l31.6,53.8l-32.1,54.7
			c43.3,4.6,77.2,41.3,77.2,85.8c0,13.9-3.4,27.6-9.8,39.9l31.1,54.7L379.4,310.5z"/>
		<path class="st7" d="M237.3,75.9l-31.7-54C100,23.8,14.6,110.4,14.6,216.4c0,31,7.4,61.5,21.5,88.9l30.8-54.3l63.4,0.4
			c-4.9-11-7.4-22.9-7.4-35c0-46.2,36.7-84.2,82.5-86.2L237.3,75.9z"/>
	</g>
	<g>
		<path class="st8" d="M278.6,266.6c-16.1,22.1-42.1,35.5-69.7,35.5c-29.4,0-57-15.2-72.8-40l-62.9-0.4l-30.9,54.5
			c35.1,58.2,98.7,94.2,166.7,94.2c66.1,0,127.8-33.9,163.5-89.1l-62.4,0.4L278.6,266.6z"/>
		<path class="st8" d="M379.1,310c15.9-28.7,24.3-61.2,24.3-94.1c0-104.1-82.1-189.3-184.9-194.3L250,75.4l-32.1,54.7
			c43.3,4.6,77.2,41.3,77.2,85.8c0,13.9-3.4,27.6-9.8,39.9l31.1,54.7L379.1,310z"/>
		<path class="st8" d="M237,75.4l-31.7-54C99.7,23.3,14.3,109.9,14.3,215.9c0,31,7.4,61.5,21.5,88.9l30.8-54.3l63.4,0.4
			c-4.9-11-7.4-22.9-7.4-35c0-46.2,36.7-84.2,82.5-86.2L237,75.4z"/>
	</g>
	<g>
		<path class="st9" d="M278.2,266.1c-16.1,22.1-42.1,35.5-69.7,35.5c-29.4,0-57-15.2-72.8-40l-62.9-0.4l-30.9,54.5
			c35.1,58.2,98.7,94.2,166.7,94.2c66.1,0,127.8-33.9,163.5-89.1l-62.4,0.4L278.2,266.1z"/>
		<path class="st9" d="M378.8,309.5c15.9-28.7,24.3-61.2,24.3-94.1c0-104.1-82.1-189.3-184.9-194.3l31.6,53.8l-32.1,54.7
			c43.3,4.6,77.2,41.3,77.2,85.8c0,13.9-3.4,27.6-9.8,39.9l31.1,54.7L378.8,309.5z"/>
		<path class="st9" d="M236.6,74.9l-31.7-54C99.3,22.8,14,109.4,14,215.4c0,31,7.4,61.5,21.5,88.9L66.3,250l63.4,0.4
			c-4.9-11-7.4-22.9-7.4-35c0-46.2,36.7-84.2,82.5-86.2L236.6,74.9z"/>
	</g>
	<g>
		<path class="st10" d="M277.9,265.7c-16.1,22.1-42.1,35.5-69.7,35.5c-29.4,0-57-15.2-72.8-40l-62.9-0.4l-30.9,54.5
			c35.1,58.2,98.7,94.2,166.7,94.2c66.1,0,127.8-33.9,163.5-89.1l-62.4,0.4L277.9,265.7z"/>
		<path class="st10" d="M378.4,309.1c15.9-28.7,24.3-61.2,24.3-94.1c0-104.1-82.1-189.3-184.9-194.3l31.6,53.8l-32.1,54.7
			c43.3,4.6,77.2,41.3,77.2,85.8c0,13.9-3.4,27.6-9.8,39.9l31.1,54.7L378.4,309.1z"/>
		<path class="st10" d="M236.3,74.5l-31.7-54C99,22.3,13.7,108.9,13.7,214.9c0,31,7.4,61.5,21.5,88.9L66,249.5l63.4,0.4
			c-4.9-11-7.4-22.9-7.4-35c0-46.2,36.7-84.2,82.5-86.2L236.3,74.5z"/>
	</g>
	<g>
		<path class="st11" d="M277.6,265.2c-16.1,22.1-42.1,35.5-69.7,35.5c-29.4,0-57-15.2-72.8-40l-62.9-0.4l-30.9,54.5
			c35.1,58.2,98.7,94.2,166.7,94.2c66.1,0,127.8-33.9,163.5-89.1l-62.4,0.4L277.6,265.2z"/>
		<path class="st11" d="M378.1,308.6c15.9-28.7,24.3-61.2,24.3-94.1c0-104.1-82.1-189.3-184.9-194.3L249,74l-32.1,54.7
			c43.3,4.6,77.2,41.3,77.2,85.8c0,13.9-3.4,27.6-9.8,39.9l31.1,54.7L378.1,308.6z"/>
		<path class="st11" d="M236,74l-31.7-54C98.7,21.9,13.3,108.4,13.3,214.4c0,31,7.4,61.5,21.5,88.9L65.6,249l63.4,0.4
			c-4.9-11-7.4-22.9-7.4-35c0-46.2,36.7-84.2,82.5-86.2L236,74z"/>
	</g>
	<g>
		<path class="st12" d="M277.3,264.7c-16.1,22.1-42.1,35.5-69.7,35.5c-29.4,0-57-15.2-72.8-40l-62.9-0.4l-30.9,54.5
			c35.1,58.2,98.7,94.2,166.7,94.2c66.1,0,127.8-33.9,163.5-89.1l-62.4,0.4L277.3,264.7z"/>
		<path class="st12" d="M377.8,308.1c15.9-28.7,24.3-61.2,24.3-94.1c0-104.1-82.1-189.3-184.9-194.3l31.6,53.8l-32.1,54.7
			c43.3,4.6,77.2,41.3,77.2,85.8c0,13.9-3.4,27.6-9.8,39.9l31.1,54.7L377.8,308.1z"/>
		<path class="st12" d="M235.7,73.5l-31.7-54C98.4,21.4,13,108,13,213.9c0,31,7.4,61.5,21.5,88.9l30.8-54.3l63.4,0.4
			c-4.9-11-7.4-22.9-7.4-35c0-46.2,36.7-84.2,82.5-86.2L235.7,73.5z"/>
	</g>
	<g>
		<path class="st13" d="M276.9,264.2c-16.1,22.1-42.1,35.5-69.7,35.5c-29.4,0-57-15.2-72.8-40l-62.9-0.4l-30.9,54.5
			C75.7,372,139.2,408,207.2,408c66.1,0,127.8-33.9,163.5-89.1l-62.4,0.4L276.9,264.2z"/>
		<path class="st13" d="M377.5,307.6c15.9-28.7,24.3-61.2,24.3-94.1c0-104.1-82.1-189.3-184.9-194.3L248.4,73l-32.1,54.7
			c43.3,4.6,77.2,41.3,77.2,85.8c0,13.9-3.4,27.6-9.8,39.9l31.1,54.7L377.5,307.6z"/>
		<path class="st13" d="M235.3,73l-31.7-54C98,20.9,12.7,107.5,12.7,213.5c0,31,7.4,61.5,21.5,88.9L65,248l63.4,0.4
			c-4.9-11-7.4-22.9-7.4-35c0-46.2,36.7-84.2,82.5-86.2L235.3,73z"/>
	</g>
	<g>
		<path class="st14" d="M276.6,263.7c-16.1,22.1-42.1,35.5-69.7,35.5c-29.4,0-57-15.2-72.8-40l-62.9-0.4l-30.9,54.5
			c35.1,58.2,98.7,94.2,166.7,94.2c66.1,0,127.8-33.9,163.5-89.1l-62.4,0.4L276.6,263.7z"/>
		<path class="st14" d="M377.1,307.1c15.9-28.7,24.3-61.2,24.3-94.1c0-104.1-82.1-189.3-184.9-194.3l31.6,53.8L216,127.2
			c43.3,4.6,77.2,41.3,77.2,85.8c0,13.9-3.4,27.6-9.8,39.9l31.1,54.7L377.1,307.1z"/>
		<path class="st14" d="M235,72.5l-31.7-54C97.7,20.4,12.4,107,12.4,213c0,31,7.4,61.5,21.5,88.9l30.8-54.3l63.4,0.4
			c-4.9-11-7.4-22.9-7.4-35c0-46.2,36.7-84.2,82.5-86.2L235,72.5z"/>
	</g>
	<g>
		<path class="st15" d="M276.3,263.2c-16.1,22.1-42.1,35.5-69.7,35.5c-29.4,0-57-15.2-72.8-40l-62.9-0.4l-30.9,54.5
			C75,371,138.6,407,206.6,407c66.1,0,127.8-33.9,163.5-89.1l-62.4,0.4L276.3,263.2z"/>
		<path class="st15" d="M376.8,306.6c15.9-28.7,24.3-61.2,24.3-94.1c0-104.1-82.1-189.3-184.9-194.3L247.7,72l-32.1,54.7
			c43.3,4.6,77.2,41.3,77.2,85.8c0,13.9-3.4,27.6-9.8,39.9l31.1,54.7L376.8,306.6z"/>
		<path class="st15" d="M234.7,72L203,18C97.4,19.9,12,106.5,12,212.5c0,31,7.4,61.5,21.5,88.9l30.8-54.3l63.4,0.4
			c-4.9-11-7.4-22.9-7.4-35c0-46.2,36.7-84.2,82.5-86.2L234.7,72z"/>
	</g>
	<g>
		<path class="st16" d="M276,262.7c-16.1,22.1-42.1,35.5-69.7,35.5c-29.4,0-57-15.2-72.8-40l-62.9-0.4l-30.9,54.5
			c35.1,58.2,98.7,94.2,166.7,94.2c66.1,0,127.8-33.9,163.5-89.1l-62.4,0.4L276,262.7z"/>
		<path class="st16" d="M376.5,306.1c15.9-28.7,24.3-61.2,24.3-94.1c0-104.1-82.1-189.3-184.9-194.3l31.6,53.8l-32.1,54.7
			c43.3,4.6,77.2,41.3,77.2,85.8c0,13.9-3.4,27.6-9.8,39.9l31.1,54.7L376.5,306.1z"/>
		<path class="st16" d="M234.4,71.5l-31.7-54C97.1,19.4,11.7,106,11.7,212c0,31,7.4,61.5,21.5,88.9L64,246.6l63.4,0.4
			c-4.9-11-7.4-22.9-7.4-35c0-46.2,36.7-84.2,82.5-86.2L234.4,71.5z"/>
	</g>
	<g>
		<path class="st17" d="M275.6,262.3c-16.1,22.1-42.1,35.5-69.7,35.5c-29.4,0-57-15.2-72.8-40l-62.9-0.4l-30.9,54.5
			C74.4,370,137.9,406,205.9,406c66.1,0,127.8-33.9,163.5-89.1l-62.4,0.4L275.6,262.3z"/>
		<path class="st17" d="M376.2,305.7c15.9-28.7,24.3-61.2,24.3-94.1c0-104.1-82.1-189.3-184.9-194.3l31.6,53.8L215,125.7
			c43.3,4.6,77.2,41.3,77.2,85.8c0,13.9-3.4,27.6-9.8,39.9l31.1,54.7L376.2,305.7z"/>
		<path class="st17" d="M234,71.1l-31.7-54C96.7,18.9,11.4,105.5,11.4,211.5c0,31,7.4,61.5,21.5,88.9l30.8-54.3l63.4,0.4
			c-4.9-11-7.4-22.9-7.4-35c0-46.2,36.7-84.2,82.5-86.2L234,71.1z"/>
	</g>
	<g>
		<path class="st18" d="M275.3,261.8c-16.1,22.1-42.1,35.5-69.7,35.5c-29.4,0-57-15.2-72.8-40l-62.9-0.4l-30.9,54.5
			c35.1,58.2,98.7,94.2,166.7,94.2c66.1,0,127.8-33.9,163.5-89.1l-62.4,0.4L275.3,261.8z"/>
		<path class="st18" d="M375.8,305.2c15.9-28.7,24.3-61.2,24.3-94.1C400.1,107,318,21.7,215.2,16.7l31.6,53.8l-32.1,54.7
			c43.3,4.6,77.2,41.3,77.2,85.8c0,13.9-3.4,27.6-9.8,39.9l31.1,54.7L375.8,305.2z"/>
		<path class="st18" d="M233.7,70.6l-31.7-54C96.4,18.5,11.1,105,11.1,211c0,31,7.4,61.5,21.5,88.9l30.8-54.3l63.4,0.4
			c-4.9-11-7.4-22.9-7.4-35c0-46.2,36.7-84.2,82.5-86.2L233.7,70.6z"/>
	</g>
	<g>
		<path class="st19" d="M275,261.3c-16.1,22.1-42.1,35.5-69.7,35.5c-29.4,0-57-15.2-72.8-40l-62.9-0.4l-30.9,54.5
			c35.1,58.2,98.7,94.2,166.7,94.2c66.1,0,127.8-33.9,163.5-89.1l-62.4,0.4L275,261.3z"/>
		<path class="st19" d="M375.5,304.7c15.9-28.7,24.3-61.2,24.3-94.1c0-104.1-82.1-189.3-184.9-194.3l31.6,53.8l-32.1,54.7
			c43.3,4.6,77.2,41.3,77.2,85.8c0,13.9-3.4,27.6-9.8,39.9l31.1,54.7L375.5,304.7z"/>
		<path class="st19" d="M233.4,70.1l-31.7-54C96.1,18,10.7,104.6,10.7,210.5c0,31,7.4,61.5,21.5,88.9L63,245.1l63.4,0.4
			c-4.9-11-7.4-22.9-7.4-35c0-46.2,36.7-84.2,82.5-86.2L233.4,70.1z"/>
	</g>
	<g>
		<path class="st20" d="M274.7,260.8c-16.1,22.1-42.1,35.5-69.7,35.5c-29.4,0-57-15.2-72.8-40l-62.9-0.4l-30.9,54.5
			c35.1,58.2,98.7,94.2,166.7,94.2c66.1,0,127.8-33.9,163.5-89.1l-62.4,0.4L274.7,260.8z"/>
		<path class="st20" d="M375.2,304.2c15.9-28.7,24.3-61.2,24.3-94.1c0-104.1-82.1-189.3-184.9-194.3l31.6,53.8L214,124.3
			c43.3,4.6,77.2,41.3,77.2,85.8c0,13.9-3.4,27.6-9.8,39.9l31.1,54.7L375.2,304.2z"/>
		<path class="st20" d="M233.1,69.6l-31.7-54C95.8,17.5,10.4,104.1,10.4,210c0,31,7.4,61.5,21.5,88.9l30.8-54.3l63.4,0.4
			c-4.9-11-7.4-22.9-7.4-35c0-46.2,36.7-84.2,82.5-86.2L233.1,69.6z"/>
	</g>
	<g>
		<path class="st21" d="M274.3,260.3c-16.1,22.1-42.1,35.5-69.7,35.5c-29.4,0-57-15.2-72.8-40l-62.9-0.4L38,309.9
			c35.1,58.2,98.7,94.2,166.7,94.2c66.1,0,127.8-33.9,163.5-89.1l-62.4,0.4L274.3,260.3z"/>
		<path class="st21" d="M374.9,303.7c15.9-28.7,24.3-61.2,24.3-94.1c0-104.1-82.1-189.3-184.9-194.3l31.6,53.8l-32.1,54.7
			c43.3,4.6,77.2,41.3,77.2,85.8c0,13.9-3.4,27.6-9.8,39.9l31.1,54.7L374.9,303.7z"/>
		<path class="st21" d="M232.7,69.1l-31.7-54C95.4,17,10.1,103.6,10.1,209.6c0,31,7.4,61.5,21.5,88.9l30.8-54.3l63.4,0.4
			c-4.9-11-7.4-22.9-7.4-35c0-46.2,36.7-84.2,82.5-86.2L232.7,69.1z"/>
	</g>
	<g>
		<path class="st22" d="M274,259.8c-16.1,22.1-42.1,35.5-69.7,35.5c-29.4,0-57-15.2-72.8-40l-62.9-0.4l-30.9,54.5
			c35.1,58.2,98.7,94.2,166.7,94.2c66.1,0,127.8-33.9,163.5-89.1l-62.4,0.4L274,259.8z"/>
		<path class="st22" d="M374.5,303.2c15.9-28.7,24.3-61.2,24.3-94.1c0-104.1-82.1-189.3-184.9-194.3l31.6,53.8l-32.1,54.7
			c43.3,4.6,77.2,41.3,77.2,85.8c0,13.9-3.4,27.6-9.8,39.9l31.1,54.7L374.5,303.2z"/>
		<path class="st22" d="M232.4,68.6l-31.7-54C95.1,16.5,9.8,103.1,9.8,209.1c0,31,7.4,61.5,21.5,88.9l30.8-54.3l63.4,0.4
			c-4.9-11-7.4-22.9-7.4-35c0-46.2,36.7-84.2,82.5-86.2L232.4,68.6z"/>
	</g>
	<g>
		<path class="st23" d="M273.7,259.3c-16.1,22.1-42.1,35.5-69.7,35.5c-29.4,0-57-15.2-72.8-40l-62.9-0.4L37.3,309
			c35.1,58.2,98.7,94.2,166.7,94.2c66.1,0,127.8-33.9,163.5-89.1l-62.4,0.4L273.7,259.3z"/>
		<path class="st23" d="M374.2,302.7c15.9-28.7,24.3-61.2,24.3-94.1c0-104.1-82.1-189.3-184.9-194.3l31.6,53.8L213,122.8
			c43.3,4.6,77.2,41.3,77.2,85.8c0,13.9-3.4,27.6-9.8,39.9l31.1,54.7L374.2,302.7z"/>
		<path class="st23" d="M232.1,68.1l-31.7-54C94.8,16,9.4,102.6,9.4,208.6c0,31,7.4,61.5,21.5,88.9l30.8-54.3l63.4,0.4
			c-4.9-11-7.4-22.9-7.4-35c0-46.2,36.7-84.2,82.5-86.2L232.1,68.1z"/>
	</g>
	<g>
		<path class="st24" d="M273.4,258.8c-16.1,22.1-42.1,35.5-69.7,35.5c-29.4,0-57-15.2-72.8-40L67.9,254L37,308.5
			c35.1,58.2,98.7,94.2,166.7,94.2c66.1,0,127.8-33.9,163.5-89.1l-62.4,0.4L273.4,258.8z"/>
		<path class="st24" d="M373.9,302.2c15.9-28.7,24.3-61.2,24.3-94.1c0-104.1-82.1-189.3-184.9-194.3l31.6,53.8l-32.1,54.7
			c43.3,4.6,77.2,41.3,77.2,85.8c0,13.9-3.4,27.6-9.8,39.9l31.1,54.7L373.9,302.2z"/>
		<path class="st24" d="M231.8,67.7l-31.7-54C94.5,15.5,9.1,102.1,9.1,208.1c0,31,7.4,61.5,21.5,88.9l30.8-54.3l63.4,0.4
			c-4.9-11-7.4-22.9-7.4-35c0-46.2,36.7-84.2,82.5-86.2L231.8,67.7z"/>
	</g>
	<g>
		<path class="st25" d="M273,258.4c-16.1,22.1-42.1,35.5-69.7,35.5c-29.4,0-57-15.2-72.8-40l-62.9-0.4L36.7,308
			c35.1,58.2,98.7,94.2,166.7,94.2c66.1,0,127.8-33.9,163.5-89.1l-62.4,0.4L273,258.4z"/>
		<path class="st25" d="M373.6,301.8c15.9-28.7,24.3-61.2,24.3-94.1c0-104.1-82.1-189.3-184.9-194.3l31.6,53.8l-32.1,54.7
			c43.3,4.6,77.2,41.3,77.2,85.8c0,13.9-3.4,27.6-9.8,39.9l31.1,54.7L373.6,301.8z"/>
		<path class="st25" d="M231.4,67.2l-31.7-54C94.1,15,8.8,101.6,8.8,207.6c0,31,7.4,61.5,21.5,88.9l30.8-54.3l63.4,0.4
			c-4.9-11-7.4-22.9-7.4-35c0-46.2,36.7-84.2,82.5-86.2L231.4,67.2z"/>
	</g>
	<g>
		<path class="st26" d="M272.7,257.9c-16.1,22.1-42.1,35.5-69.7,35.5c-29.4,0-57-15.2-72.8-40L67.3,253l-30.9,54.5
			c35.1,58.2,98.7,94.2,166.7,94.2c66.1,0,127.8-33.9,163.5-89.1L304,313L272.7,257.9z"/>
		<path class="st26" d="M373.2,301.3c15.9-28.7,24.3-61.2,24.3-94.1c0-104.1-82.1-189.3-184.9-194.3l31.6,53.8l-32.1,54.7
			c43.3,4.6,77.2,41.3,77.2,85.8c0,13.9-3.4,27.6-9.8,39.9l31.1,54.7L373.2,301.3z"/>
		<path class="st26" d="M231.1,66.7l-31.7-54C93.8,14.6,8.5,101.1,8.5,207.1c0,31,7.4,61.5,21.5,88.9l30.8-54.3l63.4,0.4
			c-4.9-11-7.4-22.9-7.4-35c0-46.2,36.7-84.2,82.5-86.2L231.1,66.7z"/>
	</g>
	<g>
		<path class="st27" d="M272.4,257.4c-16.1,22.1-42.1,35.5-69.7,35.5c-29.4,0-57-15.2-72.8-40l-62.9-0.4L36,307
			c35.1,58.2,98.7,94.2,166.7,94.2c66.1,0,127.8-33.9,163.5-89.1l-62.4,0.4L272.4,257.4z"/>
		<path class="st27" d="M372.9,300.8c15.9-28.7,24.3-61.2,24.3-94.1c0-104.1-82.1-189.3-184.9-194.3l31.6,53.8l-32.1,54.7
			c43.3,4.6,77.2,41.3,77.2,85.8c0,13.9-3.4,27.6-9.8,39.9l31.1,54.7L372.9,300.8z"/>
		<path class="st27" d="M230.8,66.2l-31.7-54C93.5,14.1,8.1,100.7,8.1,206.6c0,31,7.4,61.5,21.5,88.9l30.8-54.3l63.4,0.4
			c-4.9-11-7.4-22.9-7.4-35c0-46.2,36.7-84.2,82.5-86.2L230.8,66.2z"/>
	</g>
	<g>
		<path class="st28" d="M272.1,256.9c-16.1,22.1-42.1,35.5-69.7,35.5c-29.4,0-57-15.2-72.8-40L66.6,252l-30.9,54.5
			c35.1,58.2,98.7,94.2,166.7,94.2c66.1,0,127.8-33.9,163.5-89.1l-62.4,0.4L272.1,256.9z"/>
		<path class="st28" d="M372.6,300.3c15.9-28.7,24.3-61.2,24.3-94.1c0-104.1-82.1-189.3-184.9-194.3l31.6,53.8l-32.1,54.7
			c43.3,4.6,77.2,41.3,77.2,85.8c0,13.9-3.4,27.6-9.8,39.9l31.1,54.7L372.6,300.3z"/>
		<path class="st28" d="M230.5,65.7l-31.7-54C93.2,13.6,7.8,100.2,7.8,206.2c0,31,7.4,61.5,21.5,88.9l30.8-54.3l63.4,0.4
			c-4.9-11-7.4-22.9-7.4-35c0-46.2,36.7-84.2,82.5-86.2L230.5,65.7z"/>
	</g>
	<g>
		<path class="st29" d="M271.7,256.4c-16.1,22.1-42.1,35.5-69.7,35.5c-29.4,0-57-15.2-72.8-40l-62.9-0.4L35.3,306
			c35.1,58.2,98.7,94.2,166.7,94.2c66.1,0,127.8-33.9,163.5-89.1l-62.4,0.4L271.7,256.4z"/>
		<path class="st29" d="M372.3,299.8c15.9-28.7,24.3-61.2,24.3-94.1c0-104.1-82.1-189.3-184.9-194.3l31.6,53.8l-32.1,54.7
			c43.3,4.6,77.2,41.3,77.2,85.8c0,13.9-3.4,27.6-9.8,39.9l31.1,54.7L372.3,299.8z"/>
		<path class="st29" d="M230.1,65.2l-31.7-54C92.8,13.1,7.5,99.7,7.5,205.7c0,31,7.4,61.5,21.5,88.9l30.8-54.3l63.4,0.4
			c-4.9-11-7.4-22.9-7.4-35c0-46.2,36.7-84.2,82.5-86.2L230.1,65.2z"/>
	</g>
	<g>
		<path class="st30" d="M271.4,255.9c-16.1,22.1-42.1,35.5-69.7,35.5c-29.4,0-57-15.2-72.8-40L66,251L35,305.5
			c35.1,58.2,98.7,94.2,166.7,94.2c66.1,0,127.8-33.9,163.5-89.1l-62.4,0.4L271.4,255.9z"/>
		<path class="st30" d="M371.9,299.3c15.9-28.7,24.3-61.2,24.3-94.1c0-104.1-82.1-189.3-184.9-194.3l31.6,53.8l-32.1,54.7
			c43.3,4.6,77.2,41.3,77.2,85.8c0,13.9-3.4,27.6-9.8,39.9l31.1,54.7L371.9,299.3z"/>
		<path class="st30" d="M229.8,64.7l-31.7-54C92.5,12.6,7.2,99.2,7.2,205.2c0,31,7.4,61.5,21.5,88.9l30.8-54.3l63.4,0.4
			c-4.9-11-7.4-22.9-7.4-35c0-46.2,36.7-84.2,82.5-86.2L229.8,64.7z"/>
	</g>
	<g>
		<path class="st31" d="M271.1,255.4C255,277.6,229,291,201.3,291c-29.4,0-57-15.2-72.8-40l-62.9-0.4l-30.9,54.5
			c35.1,58.2,98.7,94.2,166.7,94.2c66.1,0,127.8-33.9,163.5-89.1l-62.4,0.4L271.1,255.4z"/>
		<path class="st31" d="M371.6,298.8c15.9-28.7,24.3-61.2,24.3-94.1c0-104.1-82.1-189.3-184.9-194.3l31.6,53.8l-32.1,54.7
			c43.3,4.6,77.2,41.3,77.2,85.8c0,13.9-3.4,27.6-9.8,39.9l31.1,54.7L371.6,298.8z"/>
		<path class="st31" d="M229.5,64.2l-31.7-54C92.2,12.1,6.8,98.7,6.8,204.7c0,31,7.4,61.5,21.5,88.9l30.8-54.3l63.4,0.4
			c-4.9-11-7.4-22.9-7.4-35c0-46.2,36.7-84.2,82.5-86.2L229.5,64.2z"/>
	</g>
	<g>
		<path class="st32" d="M270.8,255c-16.1,22.1-42.1,35.5-69.7,35.5c-29.4,0-57-15.2-72.8-40l-62.9-0.4l-30.9,54.5
			c35.1,58.2,98.7,94.2,166.7,94.2c66.1,0,127.8-33.9,163.5-89.1l-62.4,0.4L270.8,255z"/>
		<path class="st32" d="M371.3,298.4c15.9-28.7,24.3-61.2,24.3-94.1c0-104.1-82.1-189.3-184.9-194.3l31.6,53.8l-32.1,54.7
			c43.3,4.6,77.2,41.3,77.2,85.8c0,13.9-3.4,27.6-9.8,39.9l31.1,54.7L371.3,298.4z"/>
		<path class="st32" d="M229.2,63.8l-31.7-54C91.9,11.6,6.5,98.2,6.5,204.2c0,31,7.4,61.5,21.5,88.9l30.8-54.3l63.4,0.4
			c-4.9-11-7.4-22.9-7.4-35c0-46.2,36.7-84.2,82.5-86.2L229.2,63.8z"/>
	</g>
	<g>
		<path class="st33" d="M270.4,254.5c-16.1,22.1-42.1,35.5-69.7,35.5c-29.4,0-57-15.2-72.8-40L65,249.6L34,304.1
			c35.1,58.2,98.7,94.2,166.7,94.2c66.1,0,127.8-33.9,163.5-89.1l-62.4,0.4L270.4,254.5z"/>
		<path class="st33" d="M371,297.9c15.9-28.7,24.3-61.2,24.3-94.1c0-104.1-82.1-189.3-184.9-194.3l31.6,53.8l-32.1,54.7
			c43.3,4.6,77.2,41.3,77.2,85.8c0,13.9-3.4,27.6-9.8,39.9l31.1,54.7L371,297.9z"/>
		<path class="st33" d="M228.8,63.3l-31.7-54C91.5,11.2,6.2,97.7,6.2,203.7c0,31,7.4,61.5,21.5,88.9l30.8-54.3l63.4,0.4
			c-4.9-11-7.4-22.9-7.4-35c0-46.2,36.7-84.2,82.5-86.2L228.8,63.3z"/>
	</g>
	<g>
		<path class="st34" d="M270.1,254c-16.1,22.1-42.1,35.5-69.7,35.5c-29.4,0-57-15.2-72.8-40l-62.9-0.4l-30.9,54.5
			c35.1,58.2,98.7,94.2,166.7,94.2c66.1,0,127.8-33.9,163.5-89.1l-62.4,0.4L270.1,254z"/>
		<path class="st34" d="M370.6,297.4c15.9-28.7,24.3-61.2,24.3-94.1C394.9,99.2,312.8,14,210,9l31.6,53.8l-32.1,54.7
			c43.3,4.6,77.2,41.3,77.2,85.8c0,13.9-3.4,27.6-9.8,39.9l31.1,54.7L370.6,297.4z"/>
		<path class="st34" d="M228.5,62.8l-31.7-54C91.2,10.7,5.9,97.3,5.9,203.2c0,31,7.4,61.5,21.5,88.9l30.8-54.3l63.4,0.4
			c-4.9-11-7.4-22.9-7.4-35c0-46.2,36.7-84.2,82.5-86.2L228.5,62.8z"/>
	</g>
	<g>
		<path class="st35" d="M269.8,253.5C253.7,275.6,227.7,289,200,289c-29.4,0-57-15.2-72.8-40l-62.9-0.4l-30.9,54.5
			c35.1,58.2,98.7,94.2,166.7,94.2c66.1,0,127.8-33.9,163.5-89.1l-62.4,0.4L269.8,253.5z"/>
		<path class="st35" d="M370.3,296.9c15.9-28.7,24.3-61.2,24.3-94.1c0-104.1-82.1-189.3-184.9-194.3l31.6,53.8L209.1,117
			c43.3,4.6,77.2,41.3,77.2,85.8c0,13.9-3.4,27.6-9.8,39.9l31.1,54.7L370.3,296.9z"/>
		<path class="st35" d="M228.2,62.3l-31.7-54C90.9,10.2,5.5,96.8,5.5,202.8c0,31,7.4,61.5,21.5,88.9l30.8-54.3l63.4,0.4
			c-4.9-11-7.4-22.9-7.4-35c0-46.2,36.7-84.2,82.5-86.2L228.2,62.3z"/>
	</g>
	<g>
		<path class="st36" d="M269.5,253c-16.1,22.1-42.1,35.5-69.7,35.5c-29.4,0-57-15.2-72.8-40L64,248.1l-30.9,54.5
			c35.1,58.2,98.7,94.2,166.7,94.2c66.1,0,127.8-33.9,163.5-89.1l-62.4,0.4L269.5,253z"/>
		<path class="st36" d="M370,296.4c15.9-28.7,24.3-61.2,24.3-94.1C394.2,98.2,312.1,13,209.3,8l31.6,53.8l-32.1,54.7
			c43.3,4.6,77.2,41.3,77.2,85.8c0,13.9-3.4,27.6-9.8,39.9l31.1,54.7L370,296.4z"/>
		<path class="st36" d="M227.9,61.8l-31.7-54C90.6,9.7,5.2,96.3,5.2,202.3c0,31,7.4,61.5,21.5,88.9l30.8-54.3l63.4,0.4
			c-4.9-11-7.4-22.9-7.4-35c0-46.2,36.7-84.2,82.5-86.2L227.9,61.8z"/>
	</g>
	<g>
		<path class="st37" d="M269.1,252.5C253,274.6,227.1,288,199.4,288c-29.4,0-57-15.2-72.8-40l-62.9-0.4l-30.9,54.5
			c35.1,58.2,98.7,94.2,166.7,94.2c66.1,0,127.8-33.9,163.5-89.1l-62.4,0.4L269.1,252.5z"/>
		<path class="st37" d="M369.7,295.9c15.9-28.7,24.3-61.2,24.3-94.1C393.9,97.7,311.8,12.5,209,7.5l31.6,53.8L208.5,116
			c43.3,4.6,77.2,41.3,77.2,85.8c0,13.9-3.4,27.6-9.8,39.9l31.1,54.7L369.7,295.9z"/>
		<path class="st37" d="M227.5,61.3l-31.7-54C90.2,9.2,4.9,95.8,4.9,201.8c0,31,7.4,61.5,21.5,88.9l30.8-54.3l63.4,0.4
			c-4.9-11-7.4-22.9-7.4-35c0-46.2,36.7-84.2,82.5-86.2L227.5,61.3z"/>
	</g>
	<g>
		<path class="st38" d="M268.8,252c-16.1,22.1-42.1,35.5-69.7,35.5c-29.4,0-57-15.2-72.8-40l-62.9-0.4l-30.9,54.5
			c35.1,58.2,98.7,94.2,166.7,94.2c66.1,0,127.8-33.9,163.5-89.1l-62.4,0.4L268.8,252z"/>
		<path class="st38" d="M369.3,295.4c15.9-28.7,24.3-61.2,24.3-94.1C393.6,97.2,311.5,12,208.6,7l31.6,53.8l-32.1,54.7
			c43.3,4.6,77.2,41.3,77.2,85.8c0,13.9-3.4,27.6-9.8,39.9l31.1,54.7L369.3,295.4z"/>
		<path class="st38" d="M227.2,60.8l-31.7-54C89.9,8.7,4.6,95.3,4.6,201.3c0,31,7.4,61.5,21.5,88.9l30.8-54.3l63.4,0.4
			c-4.9-11-7.4-22.9-7.4-35c0-46.2,36.7-84.2,82.5-86.2L227.2,60.8z"/>
	</g>
	<g>
		<path class="st39" d="M268.5,251.6c-16.1,22.1-42.1,35.5-69.7,35.5c-29.4,0-57-15.2-72.8-40L63,246.7l-30.9,54.5
			c35.1,58.2,98.7,94.2,166.7,94.2c66.1,0,127.8-33.9,163.5-89.1l-62.4,0.4L268.5,251.6z"/>
		<path class="st39" d="M369,294.9c15.9-28.7,24.3-61.2,24.3-94.1c0-104.1-82.1-189.3-184.9-194.3l31.6,53.8L207.8,115
			c43.3,4.6,77.2,41.3,77.2,85.8c0,13.9-3.4,27.6-9.8,39.9l31.1,54.7L369,294.9z"/>
		<path class="st39" d="M226.9,60.4l-31.7-54C89.6,8.2,4.2,94.8,4.2,200.8c0,31,7.4,61.5,21.5,88.9l30.8-54.3l63.4,0.4
			c-4.9-11-7.4-22.9-7.4-35c0-46.2,36.7-84.2,82.5-86.2L226.9,60.4z"/>
	</g>
	<g>
		<path class="st40" d="M268.2,251.1c-16.1,22.1-42.1,35.5-69.7,35.5c-29.4,0-57-15.2-72.8-40l-62.9-0.4l-30.9,54.5
			c35.1,58.2,98.7,94.2,166.7,94.2c66.1,0,127.8-33.9,163.5-89.1l-62.4,0.4L268.2,251.1z"/>
		<path class="st40" d="M368.7,294.5c15.9-28.7,24.3-61.2,24.3-94.1C392.9,96.3,310.8,11,208,6l31.6,53.8l-32.1,54.7
			c43.3,4.6,77.2,41.3,77.2,85.8c0,13.9-3.4,27.6-9.8,39.9l31.1,54.7L368.7,294.5z"/>
		<path class="st40" d="M226.6,59.9l-31.7-54C89.3,7.8,3.9,94.3,3.9,200.3c0,31,7.4,61.5,21.5,88.9l30.8-54.3l63.4,0.4
			c-4.9-11-7.4-22.9-7.4-35c0-46.2,36.7-84.2,82.5-86.2L226.6,59.9z"/>
	</g>
	<g>
		<path class="st41" d="M267.8,250.6c-16.1,22.1-42.1,35.5-69.7,35.5c-29.4,0-57-15.2-72.8-40l-62.9-0.4l-30.9,54.5
			c35.1,58.2,98.7,94.2,166.7,94.2c66.1,0,127.8-33.9,163.5-89.1l-62.4,0.4L267.8,250.6z"/>
		<path class="st41" d="M368.4,294c15.9-28.7,24.3-61.2,24.3-94.1c0-104.1-82.1-189.3-184.9-194.3l31.6,53.8L207.2,114
			c43.3,4.6,77.2,41.3,77.2,85.8c0,13.9-3.4,27.6-9.8,39.9l31.1,54.7L368.4,294z"/>
		<path class="st41" d="M226.2,59.4l-31.7-54C88.9,7.3,3.6,93.8,3.6,199.8c0,31,7.4,61.5,21.5,88.9l30.8-54.3l63.4,0.4
			c-4.9-11-7.4-22.9-7.4-35c0-46.2,36.7-84.2,82.5-86.2L226.2,59.4z"/>
	</g>
	<g>
		<path class="st42" d="M267.5,250.1c-16.1,22.1-42.1,35.5-69.7,35.5c-29.4,0-57-15.2-72.8-40l-62.9-0.4l-30.9,54.5
			c35.1,58.2,98.7,94.2,166.7,94.2c66.1,0,127.8-33.9,163.5-89.1l-62.4,0.4L267.5,250.1z"/>
		<path class="st42" d="M368,293.5c15.9-28.7,24.3-61.2,24.3-94.1c0-104.1-82.1-189.3-184.9-194.3l31.6,53.8l-32.1,54.7
			c43.3,4.6,77.2,41.3,77.2,85.8c0,13.9-3.4,27.6-9.8,39.9l31.1,54.7L368,293.5z"/>
		<path class="st42" d="M225.9,58.9l-31.7-54C88.6,6.8,3.3,93.4,3.3,199.3c0,31,7.4,61.5,21.5,88.9l30.8-54.3l63.4,0.4
			c-4.9-11-7.4-22.9-7.4-35c0-46.2,36.7-84.2,82.5-86.2L225.9,58.9z"/>
	</g>
	<g>
		<path class="st43" d="M267.2,249.6c-16.1,22.1-42.1,35.5-69.7,35.5c-29.4,0-57-15.2-72.8-40l-62.9-0.4l-30.9,54.5
			c35.1,58.2,98.7,94.2,166.7,94.2c66.1,0,127.8-33.9,163.5-89.1l-62.4,0.4L267.2,249.6z"/>
		<path class="st43" d="M367.7,293c15.9-28.7,24.3-61.2,24.3-94.1C392,94.8,309.9,9.6,207,4.6l31.6,53.8l-32.1,54.7
			c43.3,4.6,77.2,41.3,77.2,85.8c0,13.9-3.4,27.6-9.8,39.9l31.1,54.7L367.7,293z"/>
		<path class="st43" d="M225.6,58.4l-31.7-54C88.3,6.3,2.9,92.9,2.9,198.9c0,31,7.4,61.5,21.5,88.9l30.8-54.3l63.4,0.4
			c-4.9-11-7.4-22.9-7.4-35c0-46.2,36.7-84.2,82.5-86.2L225.6,58.4z"/>
	</g>
	<g>
		<path class="st44" d="M266.9,249.1c-16.1,22.1-42.1,35.5-69.7,35.5c-29.4,0-57-15.2-72.8-40l-62.9-0.4l-30.9,54.5
			c35.1,58.2,98.7,94.2,166.7,94.2c66.1,0,127.8-33.9,163.5-89.1l-62.4,0.4L266.9,249.1z"/>
		<path class="st44" d="M367.4,292.5c15.9-28.7,24.3-61.2,24.3-94.1c0-104.1-82.1-189.3-184.9-194.3l31.6,53.8l-32.1,54.7
			c43.3,4.6,77.2,41.3,77.2,85.8c0,13.9-3.4,27.6-9.8,39.9l31.1,54.7L367.4,292.5z"/>
		<path class="st44" d="M225.3,57.9l-31.7-54C88,5.8,2.6,92.4,2.6,198.4c0,31,7.4,61.5,21.5,88.9l30.8-54.3l63.4,0.4
			c-4.9-11-7.4-22.9-7.4-35c0-46.2,36.7-84.2,82.5-86.2L225.3,57.9z"/>
	</g>
	<g>
		<path class="st45" d="M266.5,248.6c-16.1,22.1-42.1,35.5-69.7,35.5c-29.4,0-57-15.2-72.8-40l-62.9-0.4l-30.9,54.5
			c35.1,58.2,98.7,94.2,166.7,94.2c66.1,0,127.8-33.9,163.5-89.1l-62.4,0.4L266.5,248.6z"/>
		<path class="st45" d="M367.1,292c15.9-28.7,24.3-61.2,24.3-94.1c0-104.1-82.1-189.3-184.9-194.3L238,57.4l-32.1,54.7
			c43.3,4.6,77.2,41.3,77.2,85.8c0,13.9-3.4,27.6-9.8,39.9l31.1,54.7L367.1,292z"/>
		<path class="st45" d="M224.9,57.4l-31.7-54C87.6,5.3,2.3,91.9,2.3,197.9c0,31,7.4,61.5,21.5,88.9l30.8-54.3l63.4,0.4
			c-4.9-11-7.4-22.9-7.4-35c0-46.2,36.7-84.2,82.5-86.2L224.9,57.4z"/>
	</g>
	<g>
		<path class="st46" d="M266.2,248.1c-16.1,22.1-42.1,35.5-69.7,35.5c-29.4,0-57-15.2-72.8-40l-62.9-0.4l-30.9,54.5
			c35.1,58.2,98.7,94.2,166.7,94.2c66.1,0,127.8-33.9,163.5-89.1l-62.4,0.4L266.2,248.1z"/>
		<path class="st46" d="M366.7,291.5c15.9-28.7,24.3-61.2,24.3-94.1C391,93.4,308.9,8.1,206,3.1l31.6,53.8l-32.1,54.7
			c43.3,4.6,77.2,41.3,77.2,85.8c0,13.9-3.4,27.6-9.8,39.9L304,292L366.7,291.5z"/>
		<path class="st46" d="M224.6,56.9l-31.7-54C87.3,4.8,2,91.4,2,197.4c0,31,7.4,61.5,21.5,88.9L54.2,232l63.4,0.4
			c-4.9-11-7.4-22.9-7.4-35c0-46.2,36.7-84.2,82.5-86.2L224.6,56.9z"/>
	</g>
	<g>
		<path class="st47" d="M265.9,247.7c-16.1,22.1-42.1,35.5-69.7,35.5c-29.4,0-57-15.2-72.8-40l-62.9-0.4l-30.9,54.5
			c35.1,58.2,98.7,94.2,166.7,94.2c66.1,0,127.8-33.9,163.5-89.1l-62.4,0.4L265.9,247.7z"/>
		<path class="st47" d="M366.4,291.1c15.9-28.7,24.3-61.2,24.3-94.1c0-104.1-82.1-189.3-184.9-194.3l31.6,53.8l-32.1,54.7
			c43.3,4.6,77.2,41.3,77.2,85.8c0,13.9-3.4,27.6-9.8,39.9l31.1,54.7L366.4,291.1z"/>
		<path class="st47" d="M224.3,56.5l-31.7-54C87,4.3,1.6,90.9,1.6,196.9c0,31,7.4,61.5,21.5,88.9l30.8-54.3l63.4,0.4
			c-4.9-11-7.4-22.9-7.4-35c0-46.2,36.7-84.2,82.5-86.2L224.3,56.5z"/>
	</g>
	<g>
		<path class="st48" d="M265.6,247.2c-16.1,22.1-42.1,35.5-69.7,35.5c-29.4,0-57-15.2-72.8-40l-62.9-0.4l-30.9,54.5
			c35.1,58.2,98.7,94.2,166.7,94.2c66.1,0,127.8-33.9,163.5-89.1l-62.4,0.4L265.6,247.2z"/>
		<path class="st48" d="M366.1,290.6c15.9-28.7,24.3-61.2,24.3-94.1c0-104.1-82.1-189.3-184.9-194.3L237,56l-32.1,54.7
			c43.3,4.6,77.2,41.3,77.2,85.8c0,13.9-3.4,27.6-9.8,39.9l31.1,54.7L366.1,290.6z"/>
		<path class="st48" d="M224,56l-31.7-54C86.7,3.9,1.3,90.4,1.3,196.4c0,31,7.4,61.5,21.5,88.9L53.6,231l63.4,0.4
			c-4.9-11-7.4-22.9-7.4-35c0-46.2,36.7-84.2,82.5-86.2L224,56z"/>
	</g>
	<g>
		<path class="st49" d="M265.2,246.7c-16.1,22.1-42.1,35.5-69.7,35.5c-29.4,0-57-15.2-72.8-40l-62.9-0.4l-30.9,54.5
			c35.1,58.2,98.7,94.2,166.7,94.2c66.1,0,127.8-33.9,163.5-89.1l-62.4,0.4L265.2,246.7z"/>
		<path class="st49" d="M365.8,290.1c15.9-28.7,24.3-61.2,24.3-94.1C390,91.9,307.9,6.7,205.1,1.7l31.6,53.8l-32.1,54.7
			c43.3,4.6,77.2,41.3,77.2,85.8c0,13.9-3.4,27.6-9.8,39.9l31.1,54.7L365.8,290.1z"/>
		<path class="st49" d="M223.6,55.5l-31.7-54C86.3,3.4,1,90,1,195.9c0,31,7.4,61.5,21.5,88.9l30.8-54.3l63.4,0.4
			c-4.9-11-7.4-22.9-7.4-35c0-46.2,36.7-84.2,82.5-86.2L223.6,55.5z"/>
	</g>
	<g>
		<path class="st50" d="M264.9,246.2c-16.1,22.1-42.1,35.5-69.7,35.5c-29.4,0-57-15.2-72.8-40l-62.9-0.4l-30.9,54.5
			C63.6,354,127.2,390,195.2,390c66.1,0,127.8-33.9,163.5-89.1l-62.4,0.4L264.9,246.2z"/>
		<path class="st50" d="M365.4,289.6c15.9-28.7,24.3-61.2,24.3-94.1c0-104.1-82.1-189.3-184.9-194.3L236.3,55l-32.1,54.7
			c43.3,4.6,77.2,41.3,77.2,85.8c0,13.9-3.4,27.6-9.8,39.9l31.1,54.7L365.4,289.6z"/>
		<path class="st50" d="M223.3,55L191.6,1C86,2.9,0.7,89.5,0.7,195.5c0,31,7.4,61.5,21.5,88.9L52.9,230l63.4,0.4
			c-4.9-11-7.4-22.9-7.4-35c0-46.2,36.7-84.2,82.5-86.2L223.3,55z"/>
	</g>
	<g>
		<path class="st51" d="M264.6,245.7c-16.1,22.1-42.1,35.5-69.7,35.5c-29.4,0-57-15.2-72.8-40l-62.9-0.4l-30.9,54.5
			c35.1,58.2,98.7,94.2,166.7,94.2c66.1,0,127.8-33.9,163.5-89.1l-62.4,0.4L264.6,245.7z"/>
		<path class="st51" d="M365.1,289.1c15.9-28.7,24.3-61.2,24.3-94.1c0-104.1-82.1-189.3-184.9-194.3L236,54.5l-32.1,54.7
			c43.3,4.6,77.2,41.3,77.2,85.8c0,13.9-3.4,27.6-9.8,39.9l31.1,54.7L365.1,289.1z"/>
		<path class="st51" d="M223,54.5l-31.7-54C85.7,2.4,0.3,89,0.3,195c0,31,7.4,61.5,21.5,88.9l30.8-54.3L116,230
			c-4.9-11-7.4-22.9-7.4-35c0-46.2,36.7-84.2,82.5-86.2L223,54.5z"/>
	</g>
	<g>
		<path d="M264.3,245.2c-16.1,22.1-42.1,35.5-69.7,35.5c-29.4,0-57-15.2-72.8-40l-62.9-0.4l-30.9,54.5C63,353,126.5,389,194.5,389
			c66.1,0,127.8-33.9,163.5-89.1l-62.4,0.4L264.3,245.2z"/>
		<path d="M364.8,288.6c15.9-28.7,24.3-61.2,24.3-94.1C389,90.4,306.9,5.2,204.1,0.2L235.7,54l-32.1,54.7
			c43.3,4.6,77.2,41.3,77.2,85.8c0,13.9-3.4,27.6-9.8,39.9l31.1,54.7L364.8,288.6z"/>
		<path d="M222.7,54L190.9,0C85.4,1.9,0,88.5,0,194.5c0,31,7.4,61.5,21.5,88.9l30.8-54.3l63.4,0.4c-4.9-11-7.4-22.9-7.4-35
			c0-46.2,36.7-84.2,82.5-86.2L222.7,54z"/>
	</g>
</g>
<g id="Arrows">
	<g>
		<path class="st52" d="M264.3,245.2c-16.1,22.1-42.1,35.5-69.7,35.5c-29.4,0-57-15.2-72.8-40l-62.9-0.4l-30.9,54.5
			C63,353,126.5,389,194.5,389c66.1,0,127.8-33.9,163.5-89.1l-62.4,0.4L264.3,245.2z"/>
	</g>
	<g>
		<path class="st53" d="M364.8,288.6c15.9-28.7,24.3-61.2,24.3-94.1C389,90.4,306.9,5.2,204.1,0.2L235.7,54l-32.1,54.7
			c43.3,4.6,77.2,41.3,77.2,85.8c0,13.9-3.4,27.6-9.8,39.9l31.1,54.7L364.8,288.6z"/>
	</g>
	<g>
		<path class="st54" d="M222.7,54L190.9,0C85.4,1.9,0,88.5,0,194.5c0,31,7.4,61.5,21.5,88.9l30.8-54.3l63.4,0.4
			c-4.9-11-7.4-22.9-7.4-35c0-46.2,36.7-84.2,82.5-86.2L222.7,54z"/>
	</g>
</g>
<g>
	<path class="st1" d="M46.4,135.3v3.1h-27v-3.1h11.8c-0.2-0.7-0.5-1.5-0.7-2.1l3.8-0.9c0.3,0.9,0.8,2.1,1.2,3.1H46.4z M45.7,157.7
		c0,1.6-0.4,2.2-1.6,2.7c-1.1,0.4-2.8,0.4-4.9,0.4c-0.2-0.8-0.7-1.8-1.1-2.6h-8.7v1.3h-3.4v-8.1h13.3v6.8H39c1.1,0,2.1,0,2.4,0
		c0.4,0,0.6-0.1,0.6-0.5v-7.4H23.8V161h-3.5v-13.7h25.4V157.7z M42.8,146H23.5v-6.5h19.3V146z M38.9,142H27.1v1.7h11.8V142z
		 M36.2,153.9h-6.7v1.7h6.7V153.9z"/>
	<path class="st1" d="M76.9,146.4c-1,3.9-2.8,6.8-5.1,9.2c1.7,1,3.8,1.7,6,2.3c-0.8,0.8-1.8,2.2-2.3,3.1c-2.5-0.7-4.7-1.7-6.6-3.1
		c-2,1.3-4.2,2.2-6.7,2.9c-0.3-0.9-1.2-2.3-1.8-3c-0.1,1.1-0.4,1.8-1.1,2.3c-0.9,0.6-2.1,0.7-3.9,0.7c-0.1-0.9-0.5-2.5-0.9-3.4
		c0.9,0,1.9,0,2.2,0c0.3,0,0.5-0.1,0.5-0.5v-6.1c-0.8,0.5-1.6,1-2.4,1.5l-0.9-2.2c-0.2,3.8-0.7,7.9-1.9,10.9
		c-0.6-0.6-2.1-1.3-2.9-1.7c1.6-4.2,1.7-10.3,1.7-14.7v-11.1h9.6v9.1c3.3-1.7,3.7-3.9,3.7-5.8v-3.3h10.3v6.7c0,0.9,0.1,1.2,0.4,1.2
		H76c0.4,0,1.1-0.1,1.5-0.2c0.1,0.9,0.2,2.1,0.3,2.9c-0.5,0.2-1.1,0.2-1.7,0.2h-1.6c-2.9,0-3.5-1.2-3.5-4.2v-3.3h-3.6
		c0,2.9-0.9,6.3-4.9,8.3c-0.4-0.6-1.4-1.7-2.1-2.3v14c0,0.2,0,0.5,0,0.7c2.1-0.5,4-1.2,5.7-2.2c-1.6-1.7-2.9-3.7-3.9-6l1.5-0.5h-2.2
		v-3.4h12.4l0.7-0.2L76.9,146.4z M54.1,144.6c0,1.3,0,2.7-0.1,4.2c0.9-0.3,2-0.7,3.2-1.2v-3.3l-1.2,1c-0.4-0.6-1.1-1.5-1.9-2.3
		V144.6z M54.1,136.8v3.8L55,140c0.7,0.7,1.6,1.5,2.2,2.3v-5.5H54.1z M65.6,149c0.8,1.6,2,3.1,3.3,4.3c1.3-1.2,2.5-2.7,3.3-4.3H65.6
		z"/>
	<path class="st1" d="M89.6,146.5c1.5,1.1,4.5,3.7,5.3,4.4l-2.1,3.1c-0.7-0.9-2-2.3-3.2-3.6v10.5H86V150c-1.4,2.8-3,5.4-4.7,7.2
		c-0.4-1.1-1.3-2.6-1.8-3.5c2.2-2.1,4.4-5.6,5.8-8.8h-5.1v-3.3H86v-3.8c-1.7,0.3-3.5,0.6-5.1,0.8c-0.2-0.8-0.6-2.1-1-2.8
		c4.4-0.6,9.3-1.8,12.3-3.1l2.6,2.8c-1.5,0.6-3.3,1.1-5.2,1.6v4.6h5.3v3.3h-5.3V146.5z M99.8,153.2h-3.5v-17.1h3.5V153.2z
		 M107.1,133v23.5c0,2.1-0.4,3.1-1.7,3.7c-1.3,0.6-3.3,0.7-6.1,0.7c-0.2-1-0.7-2.7-1.3-3.8c2,0.1,3.9,0.1,4.6,0.1
		c0.6,0,0.8-0.2,0.8-0.8V133H107.1z"/>
</g>
<g>
	<path class="st1" d="M312,138.4v3.1h-27v-3.1h11.8c-0.2-0.7-0.5-1.5-0.7-2.1l3.8-0.9c0.3,0.9,0.8,2.1,1.2,3.1H312z M311.3,160.8
		c0,1.6-0.4,2.2-1.6,2.7c-1.1,0.4-2.8,0.4-4.9,0.4c-0.2-0.8-0.7-1.8-1.1-2.6H295v1.3h-3.4v-8.1H305v6.8h-0.4c1.1,0,2.1,0,2.4,0
		c0.4,0,0.6-0.1,0.6-0.5v-7.4h-18.2v10.7h-3.5v-13.7h25.4V160.8z M308.3,149.2H289v-6.5h19.3V149.2z M304.5,145.1h-11.8v1.7h11.8
		V145.1z M301.8,157H295v1.7h6.7V157z"/>
	<path class="st1" d="M324.5,136.6c-0.7,1.9-1.6,3.8-2.6,5.7v21.8h-3.5v-16.2c-0.7,0.9-1.5,1.8-2.2,2.6c-0.3-0.9-1.3-2.8-1.9-3.7
		c2.7-2.7,5.3-6.9,6.9-11.1L324.5,136.6z M332.7,160.1c-1.8,1.6-4.7,3.1-7,4.1c-0.6-0.7-2-1.9-2.9-2.5c2.4-0.7,4.9-1.8,6.4-2.9
		L332.7,160.1z M331.5,139.3h-6.7V137h6.7v-1.5h3.7v1.5h7v2.3h-7v1h6.3v2.1h-6.3v1h8v2.4h-19.7v-2.4h8v-1h-6.1v-2.1h6.1V139.3z
		 M337.8,158.7c2,1.2,4.3,2.7,5.5,3.8l-3.3,1.9c-1.2-1.2-3.6-3-5.6-4.2l3.2-1.4h-12.1v-11.8h15.7v11.8H337.8z M337.6,149.1h-8.6v1.2
		h8.6V149.1z M337.6,152.2h-8.6v1.2h8.6V152.2z M337.6,155.2h-8.6v1.2h8.6V155.2z"/>
	<path class="st1" d="M345.4,161c1.1-1.7,2.2-4.3,2.9-6.4l3.2,1.3c-0.8,2.1-1.8,4.9-2.8,6.7L345.4,161z M358.7,153.2H350v-15h7
		c0.3-1,0.6-2.1,0.8-3l4.4,0.6c-0.4,0.9-0.9,1.7-1.3,2.4h8.4v15h-8.8c1.3,1.3,2.6,2.8,3.2,4l-3,1.7c-0.6-1.3-2.2-3.4-3.6-4.8
		L358.7,153.2z M363,160.3c1.5,0,1.7-0.4,1.9-3.3c0.8,0.6,2.3,1.1,3.3,1.3c-0.4,4.3-1.5,5.3-4.9,5.3h-5.8c-4.3,0-5.4-1-5.4-4.3v-4.2
		h3.7v4.2c0,0.9,0.3,1,2,1H363z M353.5,142.5h12.1V141h-12.1V142.5z M353.5,146.5h12.1v-1.4h-12.1V146.5z M353.5,150.5h12.1v-1.4
		h-12.1V150.5z M370.2,154c1.4,2,2.9,4.7,3.4,6.5l-3.5,1.5c-0.4-1.8-1.8-4.6-3.1-6.7L370.2,154z"/>
</g>
<g>
	<path class="st1" d="M153.9,325.6c-1.2-0.9-3.7-2.3-5.5-3.3l1.9-2.7c1.7,0.8,4.2,2.2,5.6,3L153.9,325.6z M157.6,329.4
		c-1.5,3.2-3.4,6.7-5.2,9.6l-2.9-2.4c1.6-2.3,3.8-6.1,5.6-9.6L157.6,329.4z M155.6,317.3c-1.2-0.9-3.7-2.4-5.4-3.4l2-2.6
		c1.7,0.9,4.2,2.2,5.5,3.1L155.6,317.3z M165.9,334.1c0,0.9,0.2,2.3,0.5,3.1c-6.4,1.4-7.5,1.9-8.2,2.4c-0.2-0.9-0.6-2.6-1.1-3.4
		c0.6-0.2,1.1-0.5,1.1-1.6v-10.1h3.6v3.1h4.3v3.1h-4.3v4.3L165.9,334.1z M174.6,323.6h-16.7v-11.4h16.7V323.6z M170.8,314.9h-9.3
		v1.7h9.3V314.9z M170.8,319.2h-9.3v1.7h9.3V319.2z M173.2,336.2c0.7,0,0.8-0.5,0.9-3.2c0.7,0.5,2.1,1.1,3.1,1.3
		c-0.4,3.9-1.3,5-3.6,5h-2.9c-3,0-3.7-1-3.7-4.2v-10.8h3.5v3.3h5.7v3.1h-5.7v4.4c0,1,0.1,1.1,0.8,1.1H173.2z"/>
	<path class="st1" d="M196.7,312.4c-0.3,0.5-0.7,0.9-1,1.3c3.9,3.6,8,5.7,12.1,7.2c-0.9,0.9-2,2.2-2.5,3.3c-1.5-0.7-3-1.4-4.4-2.3v2
		h-15.3v-1.5c-1.3,0.8-2.7,1.6-4.1,2.2c-0.6-1-1.7-2.4-2.7-3.3c5.6-2.2,11.4-5.9,14.6-10.7L196.7,312.4z M183.6,326.7h19.7v12.6
		h-3.9v-1.2h-12.1v1.3h-3.7V326.7z M187.3,329.9v4.8h12.1v-4.8H187.3z M198.8,320.7c-1.7-1.2-3.5-2.6-5.3-4.4
		c-1.6,1.6-3.2,3.1-5,4.4H198.8z"/>
	<path class="st1" d="M228.9,316.3c1.7,1.6,4.9,2.4,9,2.6c-0.7,0.7-1.6,2-2,2.9c-3.4-0.4-6.1-1.4-8-3.1c-1.2,1.3-3.7,2.5-8.8,3.1
		c-0.2-0.6-0.7-1.3-1.2-2h-8.1v-2.8h9.2v1.9c5.8-0.6,6.6-2,6.6-3.1v-0.5h-1.8c-0.6,1-1.4,1.9-2.1,2.6c-0.6-0.5-1.9-1.4-2.7-1.9
		c1.6-1.3,2.9-3.4,3.6-5.4l3.2,0.7c-0.2,0.5-0.3,0.9-0.5,1.3h8.7l0.6-0.2l2.5,0.8c-0.8,1.7-1.8,3.6-2.8,4.8l-2.8-1
		c0.3-0.5,0.7-1.1,1.1-1.8h-3.4v0.6V316.3z M229.7,334.3c2.8,1,5.8,2.3,7.6,3.1l-3.3,2c-1.7-1-4.9-2.5-7.9-3.6l1.9-1.5h-8.6l2.7,1.2
		c-2.5,1.6-6.4,3.1-9.5,4c-0.6-0.7-1.9-2-2.7-2.7c2.9-0.6,6.2-1.5,8.3-2.5h-4.4v-12.4h20.4v12.4H229.7z M218.3,315h-7.8v-2.7h7.8
		V315z M217.3,325.4h13.2v-1.3h-13.2V325.4z M217.3,328.7h13.2v-1.3h-13.2V328.7z M217.3,332.2h13.2v-1.4h-13.2V332.2z"/>
	<path class="st1" d="M268.6,335.8v2.9h-22.5v-2.9h9.3V334h-6.5v-2.2c-0.5,0.7-1.2,1.3-1.7,1.9c-0.2-0.6-0.9-2.2-1.4-3.1
		c-0.4,3.2-1.3,6.7-3.3,9.2c-0.5-0.7-2-2-2.8-2.4c2.5-3.1,2.7-7.4,2.7-10.5v-5.4h4.1c-0.5-0.5-1.1-1.1-1.5-1.4
		c2.2-0.3,4.6-0.8,7-1.3c-1.9-0.5-3.9-0.9-5.7-1.3l1.7-1.3h-5.3v-2.8h10.6c-0.4-0.6-0.8-1.1-1.2-1.6l2.4-1.2c0.7,0.8,1.5,1.9,2,2.8
		h10.6v2.8h-4.4l1.5,0.9c-1.1,0.5-2.4,1-3.8,1.5c1.8,0.5,3.5,1,4.8,1.4l-1.7,1.4h4.5v2.9h-22.2v2.6c0,1,0,2-0.2,3.2
		c1.5-1.4,2.7-3.4,3.5-5.5l3.1,0.9c-0.2,0.4-0.3,0.8-0.5,1.2h3.5v-1.9h3.6v1.9h7.5v2.8H259v1.6h6.7v2.8H259v1.8H268.6z M255.4,331.2
		v-1.6h-5c-0.3,0.5-0.7,1.1-1,1.6H255.4z M261.6,321.5c-1.5-0.5-3.3-1-5.3-1.6c-2.2,0.6-4.4,1.1-6.6,1.6H261.6z M250.6,316.2
		c1.9,0.4,3.9,0.9,6,1.4c1.5-0.4,2.9-0.9,4-1.4H250.6z"/>
</g>
<g>
	<path class="st55" d="M143.6,180.3c-2.5,6.1-8.4,8.6-15.5,9.5c-0.2-0.7-0.7-1.7-1-2.3c3-0.3,5.7-0.9,8.1-2c-0.8-0.7-2-1.5-3-2.2
		c-0.9,0.5-1.9,0.9-3,1.2c-0.3-0.6-1-1.5-1.5-1.9c4-1.2,6.8-3,8.4-4.8c-2.8,1.8-6.2,3-9.6,3.7c-0.2-0.6-0.7-1.6-1.1-2.1
		c2.4-0.4,4.8-1.1,7-2c-0.8-0.6-1.8-1.3-2.8-1.8c-0.7,0.4-1.5,0.7-2.4,1.1c-0.4-0.6-1.1-1.4-1.7-1.8c3.7-1.2,6.2-2.9,7.6-4.6
		l2.7,0.6c-0.3,0.4-0.6,0.7-1,1.1h4.1l0.4-0.1l1.6,0.9c-1,1.9-2.5,3.4-4.3,4.7l2.5,0.6c-0.4,0.5-0.8,0.9-1.3,1.4h3.7l0.4-0.1
		L143.6,180.3z M132.4,174.1c-0.2,0.2-0.5,0.4-0.8,0.5c1,0.5,2.2,1.2,2.8,1.8c1.1-0.7,2.1-1.5,2.8-2.3H132.4z M135.4,181.6
		c-0.4,0.2-0.7,0.5-1.1,0.7c1.1,0.6,2.4,1.4,3.1,2.1c1.2-0.8,2.1-1.7,2.8-2.8H135.4z"/>
	<path class="st55" d="M161.6,187.2c0.7,0,0.8-0.5,0.9-3.5c0.5,0.4,1.6,0.9,2.3,1c-0.2,3.7-0.9,4.8-3,4.8h-2.5
		c-2.3,0-2.9-0.8-2.9-3.2V180h-3.1c-0.4,4.3-1.3,7.8-6.3,9.8c-0.3-0.6-1-1.5-1.5-2c4.3-1.6,4.9-4.4,5.1-7.8H146v-2.4h18.4v2.4H159
		v6.3c0,0.8,0.1,0.9,0.8,0.9H161.6z M162.5,174.4h-14.7V172h14.7V174.4z"/>
	<path class="st55" d="M184.2,176.7c-0.5,3.1-1.3,5.6-2.6,7.8c1.1,1.4,2.4,2.5,3.9,3.3c-0.5,0.4-1.3,1.4-1.7,2
		c-1.4-0.8-2.6-1.9-3.7-3.2c-1.1,1.4-2.5,2.5-4.1,3.4c-0.3-0.5-1.1-1.5-1.6-2c1.8-0.9,3.2-2,4.3-3.5c-0.8-1.3-1.4-2.9-2-4.5
		c-0.3,0.5-0.7,1-1.1,1.5c-0.3-0.5-0.9-1.4-1.5-1.9v10.4h-2.4v-5.3c-3.3,1.2-4,1.5-4.4,1.9c-0.2-0.6-0.6-1.7-0.9-2.3
		c0.4-0.2,0.8-0.6,0.8-1.5v-10h2.4v10.1l2.2-0.7v-11.3h2.4v8.1c1.6-2,2.6-5.1,3.1-8.5l2.5,0.4c-0.2,1.2-0.4,2.3-0.7,3.4h6.3v2.3
		H184.2z M178.4,176.7c-0.1,0.2-0.1,0.4-0.2,0.6c0.5,1.8,1.1,3.5,2,5c0.8-1.6,1.3-3.4,1.6-5.5H178.4z"/>
	<path class="st55" d="M205.9,187v2.2h-18.8V187h2.4v-5.8c-0.3,0.1-0.6,0.2-0.8,0.4c-0.3-0.6-0.9-1.5-1.4-2c1.9-0.6,4.6-1.8,6-2.8
		l1.7,1.2c-1.3,1-3.4,2.1-5.2,3h13.8v6H205.9z M205.6,176.6h-18.3v-2.2h4.9c-0.4-0.9-1.2-2.1-1.8-3l2.1-0.9c0.9,1,1.8,2.4,2.1,3.3
		l-1.1,0.6h6l-1.1-0.4c0.6-1,1.5-2.4,1.9-3.5l2.5,0.7c-0.7,1.1-1.5,2.3-2.1,3.1h5V176.6z M191.6,187h1.7v-3.9h-1.7V187z
		 M195.6,183.1v3.9h1.7v-3.9H195.6z M199.4,176.8c2,0.7,4.9,1.8,6.4,2.6l-1.4,1.9c-1.4-0.8-4.3-2-6.3-2.8L199.4,176.8z M199.5,183.1
		v3.9h1.8v-3.9H199.5z"/>
	<path class="st55" d="M209.6,183.1c1.6-0.5,2.5-1.4,2.7-2.5c-0.1,0-0.1,0-0.2,0c-1,0-2-0.7-2-1.8c0-1.2,0.9-1.9,2-1.9
		c1.5,0,2.2,1.1,2.2,2.8c0,2.3-1.5,4.3-4.1,5L209.6,183.1z"/>
	<path class="st55" d="M129.4,206.9v4.8c0,1.1-0.2,1.7-0.8,2.1c-0.6,0.4-1.5,0.5-2.8,0.5c-0.1-0.6-0.3-1.6-0.6-2.3
		c0.8,0,1.5,0,1.7,0c0.2,0,0.4-0.1,0.4-0.4v-4.1c-0.7,0.2-1.3,0.4-1.9,0.5l-0.6-2.4c0.7-0.1,1.5-0.4,2.5-0.6v-3.7H125v-2.3h2.2v-3.9
		h2.2v3.9h2.1v2.3h-2.1v3.1l1.9-0.5l0.3,2.2L129.4,206.9z M138.8,212.1c0.5,0,0.9,0.1,1.4,0.1c0.7,0,3.3,0,4.1,0
		c-0.3,0.5-0.6,1.5-0.7,2.1h-3.6c-2.7,0-4.8-0.5-6.2-3c-0.5,1.3-1.3,2.4-2.1,3.2c-0.4-0.4-1.3-1.2-1.8-1.5c1.7-1.4,2.6-3.7,2.9-6.5
		l2.2,0.3c-0.1,0.7-0.2,1.4-0.4,2.1c0.5,1.2,1.1,1.9,1.8,2.4V206h-4.9v-2h12.2v2h-5v1.8h3.9v1.9h-3.9V212.1z M142.8,203.1h-10.2V196
		h10.2V203.1z M140.5,197.7h-5.6v1h5.6V197.7z M140.5,200.3h-5.6v1.1h5.6V200.3z"/>
	<path class="st55" d="M164.7,205.8h-4.2v8.8h-2.5v-8.8h-5.3c-0.2,3.3-1.2,6.6-5.3,8.8c-0.4-0.6-1.2-1.5-1.8-1.9
		c3.4-1.8,4.4-4.4,4.6-6.9h-4.4v-2.4h4.5v-3.7c-1.2,0.3-2.4,0.6-3.5,0.9c-0.1-0.6-0.5-1.5-0.8-2c3.2-0.7,6.6-1.9,8.8-3.2l1.8,2.1
		c-1.2,0.6-2.5,1.1-3.8,1.5v4.4h5.2v-7.8h2.5v7.8h4.2V205.8z"/>
	<path class="st55" d="M166.2,212.5c0.7-1.2,1.5-2.9,2-4.3l2.2,0.9c-0.5,1.4-1.2,3.3-1.9,4.5L166.2,212.5z M175.2,207.3h-5.9v-10.1
		h4.7c0.2-0.7,0.4-1.4,0.5-2l3,0.4c-0.3,0.6-0.6,1.2-0.9,1.7h5.7v10.1h-5.9c0.9,0.8,1.7,1.9,2.2,2.7l-2,1.2
		c-0.4-0.9-1.5-2.3-2.5-3.3L175.2,207.3z M178.1,212c1,0,1.2-0.3,1.3-2.2c0.5,0.4,1.6,0.7,2.2,0.9c-0.3,2.9-1,3.6-3.3,3.6h-3.9
		c-2.9,0-3.7-0.7-3.7-2.9v-2.8h2.5v2.8c0,0.6,0.2,0.7,1.4,0.7H178.1z M171.7,200h8.2v-1h-8.2V200z M171.7,202.7h8.2v-1h-8.2V202.7z
		 M171.7,205.4h8.2v-1h-8.2V205.4z M183,207.8c0.9,1.4,1.9,3.2,2.3,4.4l-2.4,1c-0.3-1.2-1.2-3.1-2.1-4.5L183,207.8z"/>
	<path class="st55" d="M204.9,201.5c-0.5,3.1-1.3,5.6-2.6,7.8c1.1,1.4,2.4,2.5,3.9,3.3c-0.5,0.4-1.3,1.4-1.7,2
		c-1.4-0.8-2.6-1.9-3.7-3.2c-1.1,1.4-2.5,2.5-4.1,3.4c-0.3-0.5-1.1-1.5-1.6-2c1.8-0.9,3.2-2,4.3-3.5c-0.8-1.3-1.4-2.8-2-4.5
		c-0.3,0.5-0.7,1-1.1,1.5c-0.3-0.5-1-1.4-1.5-1.9v10.4h-2.4v-5.3c-3.3,1.2-4,1.5-4.4,1.9c-0.2-0.6-0.6-1.7-0.9-2.3
		c0.4-0.2,0.8-0.6,0.8-1.5v-10h2.4v10.1l2.2-0.7v-11.3h2.4v8.1c1.6-2,2.6-5.1,3.1-8.5l2.5,0.4c-0.2,1.2-0.4,2.3-0.7,3.4h6.3v2.3
		H204.9z M199.1,201.5c-0.1,0.2-0.1,0.4-0.2,0.6c0.5,1.8,1.1,3.5,2,5c0.8-1.6,1.3-3.4,1.6-5.5H199.1z"/>
	<path class="st55" d="M213.2,208.8c-0.2-0.5-0.6-1.4-1.1-2.1v8h-2.1v-7.3c-0.6,1.6-1.2,3.1-1.9,4.1c-0.2-0.8-0.7-1.8-1-2.5
		c1-1.3,2-3.6,2.6-5.5h-2.2v-2.3h2.5v-2.5c-0.6,0.1-1.2,0.2-1.8,0.3c-0.1-0.6-0.4-1.4-0.6-1.9c1.8-0.4,3.9-1,5.3-1.7l1.2,2
		c-0.6,0.3-1.3,0.5-2,0.7v3h1.9v2.3h-1.9v0.6c0.5,0.6,1.9,2.3,2.2,2.7L213.2,208.8z M213.4,213.5c0.6-0.9,1.2-2.3,1.5-3.4l1.8,0.7
		c-0.4,1.2-0.8,2.6-1.4,3.5L213.4,213.5z M216.6,198.1c-0.5,0-1.1,0-1.6,0c-0.1-0.5-0.3-1.2-0.5-1.6c3.8-0.1,8.2-0.5,10.7-1.1
		l1.4,1.5c-0.8,0.2-1.7,0.4-2.7,0.5l1.6,0.5c-0.3,0.5-0.6,1.2-0.9,1.7h1.3v1.5h-4.2v0.8h5.1v1.5h-12.1v-1.5h4.7v-0.8h-4.1v-1.5h1
		c-0.2-0.4-0.5-0.8-0.7-1.1L216.6,198.1z M225.8,209.5h-5c0.6,0.5,1.1,1,1.5,1.3L221,212c-0.6-0.6-1.6-1.6-2.3-2.2l0.4-0.4H215v-1.4
		h8.6v-0.8h-9.1V206h9.1v-0.6h-8.6V204h10.8v2h1v1.3h-1V209.5z M225,214.3c-0.2-0.6-0.6-1.3-1-2c-0.2,1.7-0.8,2.2-2.2,2.2h-2.5
		c-2.1,0-2.6-0.6-2.6-2.3v-2.1h2.1v2.1c0,0.5,0.1,0.5,0.7,0.5h1.9c0.5,0,0.6-0.2,0.6-1.1c0.4,0.3,1.3,0.6,1.8,0.7
		c-0.3-0.5-0.6-1.1-0.8-1.5l1.8-0.7c0.7,1.1,1.5,2.5,1.9,3.4L225,214.3z M220.2,197.9c-0.9,0.1-1.8,0.1-2.7,0.2
		c0.3,0.4,0.6,0.8,0.8,1.1l-1.1,0.5h2.5c-0.2-0.4-0.5-0.9-0.7-1.3L220.2,197.9z M222.4,199.6c0.5-0.6,0.9-1.4,1.3-2.2
		c-0.9,0.1-1.8,0.3-2.8,0.4c0.3,0.5,0.6,1,0.8,1.4l-1.1,0.4H222.4z"/>
	<path class="st55" d="M239.1,211.7c0.8,0.1,1.6,0.1,2.4,0.1c1.1,0,4.5,0,5.9,0c-0.4,0.6-0.8,1.8-0.9,2.5h-5.1
		c-3.9,0-6.7-0.6-8.6-3.6c-0.7,1.6-1.6,3-2.8,4c-0.4-0.4-1.4-1.3-2-1.6c2.2-1.7,3.3-4.5,3.6-8.1l2.5,0.2c-0.1,0.9-0.3,1.7-0.4,2.5
		c0.6,1.7,1.6,2.7,2.8,3.3v-7h-4.4v-2.4h11.4v2.4h-4.4v2.4h5.7v2.3h-5.7V211.7z M231.4,202.7H229v-5.2h7.7c-0.2-0.6-0.5-1.2-0.7-1.7
		l2.5-0.7c0.4,0.7,0.8,1.7,1.1,2.4h7.2v5.2h-2.5v-2.8h-12.7V202.7z"/>
	<path class="st55" d="M252.9,202.6c0,3.5-0.3,8.6-2,12c-0.5-0.4-1.6-0.9-2.3-1.1c1.7-3.2,1.8-7.8,1.8-10.9v-5.5h7.7
		c-0.1-0.5-0.3-1-0.5-1.4l2.5-0.6c0.3,0.6,0.6,1.3,0.8,1.9h6.8v2.3h-14.9V202.6z M266.5,207.9c-0.9,1.6-2.1,2.8-3.6,3.8
		c1.6,0.4,3.3,0.6,5.2,0.7c-0.5,0.5-1.1,1.5-1.4,2.1c-2.5-0.2-4.7-0.7-6.7-1.5c-2,0.7-4.2,1.1-6.5,1.4c-0.2-0.6-0.6-1.5-1-2
		c1.7-0.1,3.4-0.4,4.9-0.7c-1-0.6-1.8-1.4-2.5-2.3l0.8-0.3h-2.2v-1.9h11.1l0.4-0.1L266.5,207.9z M256.1,206.4v-3.2h-2.8v-1.9h2.8
		v-1.4h2.3v1.4h3.8v-1.4h2.4v1.4h3v1.9h-3v3.2H256.1z M257.4,209.1c0.7,0.7,1.7,1.2,2.7,1.7c1.1-0.5,2-1,2.7-1.7H257.4z
		 M258.4,203.1v1.4h3.8v-1.4H258.4z"/>
</g>
<g>
	<path class="st1" d="M73.2,78c1-1.3,2.9-1.5,4.2-0.5c1.3,1,1.5,2.9,0.5,4.2L63.5,100c-2.1-0.8-4.6-1.1-6.6-1.2L73.2,78L73.2,78z
		 M77.5,94.8c-1,1-1,2.7,0,3.7c1,1,2.7,1,3.7,0c1-1,1-2.7,0-3.7C80.2,93.8,78.5,93.8,77.5,94.8L77.5,94.8z M60.4,79.4
		c3.3,3.3,3.3,8.8,0,12.1c-3.3,3.3-8.8,3.3-12.1,0c-3.3-3.3-3.3-8.8,0-12.1C51.6,76,57.1,76,60.4,79.4L60.4,79.4z M56.2,83.6
		c-1-1-2.7-1-3.7,0c-1,1-1,2.7,0,3.7c1,1,2.7,1,3.7,0C57.2,86.3,57.2,84.6,56.2,83.6L56.2,83.6z M73.3,90.6c3.3-3.3,8.8-3.3,12.1,0
		c3.3,3.3,3.3,8.8,0,12.1c-0.7,0.7-1.5,1.2-2.3,1.7c-1.7-0.2-3.3-0.3-4.3-0.3c-0.8,0-2.1,0-3.4,0.2c-0.8-0.4-1.5-0.9-2.1-1.5
		C69.9,99.4,69.9,93.9,73.3,90.6L73.3,90.6z"/>
	<path class="st56" d="M78.8,108.6c-3.9,0-7,0.4-7,0.9c0,0.5,3.1,0.9,7,0.9c3.9,0,7-0.4,7-0.9C85.8,109,82.6,108.6,78.8,108.6
		L78.8,108.6z M73.9,115.9c1.4,0.2,3.1,0.4,4.8,0.4c2.4,0,4.7-0.3,6.5-0.7c1.4,0.2,2.2,0.3,2.2,0.7c0,0.4-3.1,0.9-7,0.9
		c-3.9,0-7-0.6-7-0.9C73.4,116,73.6,116.1,73.9,115.9L73.9,115.9z M68.5,113.2c0,0.8,0.9,1.5,2.3,2c-0.4,0.4-0.7,0.7-0.7,1.1v3.7
		c0,1.8,4.6,3.2,10.3,3.2c5.7,0,10.3-1.4,10.3-3.2c0-1.2,0-2.4,0-3.7c0-0.8-0.9-1.5-2.3-2c0.4-0.4,0.7-0.7,0.7-1.1
		c0-1.2,0-2.4,0-3.7c0-1.8-4.6-3.2-10.3-3.2c-5.7,0-10.3,1.4-10.3,3.2V113.2L68.5,113.2z M54.9,103.2c3.9,0,7,0.4,7,0.9
		c0,0.5-3.1,0.9-7,0.9c-3.9,0-7-0.4-7-0.9C47.8,103.6,51,103.2,54.9,103.2L54.9,103.2z M59.7,110.6c0.3,0.1,0.5,0.2,0.5,0.3
		c0,0.5-3.1,0.9-7,0.9c-3.9,0-7-0.4-7-0.9c0-0.3,0.9-0.5,2.2-0.7c1.8,0.4,4,0.7,6.5,0.7C56.6,111,58.3,110.9,59.7,110.6L59.7,110.6z
		 M59.7,117.1c1.4,0.2,2.2,0.4,2.2,0.7c0,0.5-3.1,0.9-7,0.9c-3.9,0-7-0.4-7-0.9c0-0.1,0.2-0.2,0.5-0.3c1.4,0.2,3.1,0.4,4.8,0.4
		C55.7,117.8,57.9,117.6,59.7,117.1L59.7,117.1z M65.1,121.5c0,1.8-4.6,3.2-10.3,3.2c-5.7,0-10.3-1.4-10.3-3.2c0-1.2,0-2.4,0-3.7
		c0-0.4,0.2-0.8,0.7-1.1c-1.5-0.5-2.3-1.2-2.3-2c0-1.2,0-2.4,0-3.7c0-0.8,0.9-1.5,2.3-2c-0.4-0.4-0.7-0.7-0.7-1.1c0-1.2,0-2.4,0-3.7
		c0-1.8,4.6-3.2,10.3-3.2c5.7,0,10.3,1.4,10.3,3.2v3.7c0,0.8-0.9,1.5-2.3,2c0.4,0.4,0.7,0.7,0.7,1.1v3.7c0,0.4-0.2,0.8-0.7,1.1
		c1.5,0.5,2.3,1.2,2.3,2V121.5L65.1,121.5z"/>
</g>
<g>
	<path class="st56" d="M315.3,89.6L315.3,89.6c0,1.9-5,3.5-11.2,3.5c-6.2,0-11.2-1.6-11.2-3.5v0v-4.2l0,0c0-1.9,5-3.5,11.2-3.5
		c6.2,0,11.2,1.6,11.2,3.5l0,0V89.6L315.3,89.6z M304,84.4c3.6,0,6.5,0.5,6.5,1c0,0.6-2.9,1-6.5,1c-3.6,0-6.5-0.5-6.5-1
		C297.6,84.9,300.5,84.4,304,84.4L304,84.4z"/>
	<path class="st56" d="M318.7,96.6L318.7,96.6c0,0.2-0.1,0.4-0.2,0.6c-4.7,1.4-8.5,5-10.2,9.5c-1.3,0.2-2.8,0.3-4.3,0.3
		c-0.5,0-1,0-1.4,0c1.2,0.2,2.9,0.4,4.9,0.4c0.2,0,0.4,0,0.6,0c-0.5,1.6-0.8,3.3-0.8,5.1c0,0.5,0,1,0.1,1.5c-3.5,0-6.6-0.5-8.7-1.3
		c-0.7,0.2-1.2,0.4-1.2,0.6c0,0.6,2.9,1,6.5,1c1.2,0,2.4-0.1,3.3-0.1c0.2,2.3,1,4.4,2.1,6.3c-1.6,0.3-3.5,0.4-5.4,0.4
		c-6.2,0-11.2-1.6-11.2-3.5v0v-4.2l0,0c0-1,1.3-1.9,3.5-2.5c0-0.1,0-0.2,0-0.2l0,0v-4.2l0,0c0-0.1,0-0.2,0-0.2
		c-2.1-0.6-3.5-1.5-3.5-2.5v0v-4.2l0,0c0-1,1.3-1.9,3.5-2.5c0-0.1,0-0.2,0-0.2v0v-4.2v0c0-1.9,5-3.5,11.2-3.5s11.2,1.6,11.2,3.5v0
		V96.6L318.7,96.6z M308.9,100c-0.5,0-0.9,0-1.4,0c-3.6,0-6.7-0.5-8.8-1.3c-0.7,0.2-1.2,0.4-1.2,0.6c0,0.6,2.9,1,6.5,1
		C306,100.4,307.7,100.2,308.9,100L308.9,100z M307.5,91.4c3.6,0,6.5,0.5,6.5,1c0,0.6-2.9,1-6.5,1c-3.6,0-6.5-0.5-6.5-1
		C301,91.8,303.9,91.4,307.5,91.4L307.5,91.4z"/>
	<path class="st1" d="M322.4,113.3c-2-0.7-3.4-1.6-3.4-3.5c0-1.6,1-2.8,2.8-3.3c0.2-0.1,0.3-0.3,0.3-0.5v-0.9c0-0.3,0.3-0.5,0.5-0.5
		l0.9,0c0.3,0,0.5,0.3,0.5,0.5v0.7c0,0.2,0.2,0.5,0.4,0.5c0.8,0.1,1.4,0.2,1.9,0.4c0.2,0.1,0.3,0.3,0.3,0.6l-0.3,1.2
		c0,0.1-0.1,0.2-0.2,0.3c-0.1,0.1-0.3,0.1-0.4,0c-0.5-0.2-1.2-0.4-2.2-0.4c-1.2,0-1.6,0.6-1.6,1.1c0,0.6,0.7,1,2.3,1.6
		c2.2,0.8,3.1,1.8,3.1,3.6c0,1.6-1,3-2.9,3.4c-0.2,0.1-0.3,0.3-0.3,0.5v1c0,0.3-0.3,0.5-0.5,0.5l-0.9,0c-0.3,0-0.5-0.3-0.5-0.5v-0.9
		c0-0.2-0.2-0.4-0.5-0.5c-0.9-0.1-1.8-0.3-2.4-0.6c-0.2-0.1-0.3-0.3-0.3-0.6l0.3-1.3c0-0.1,0.1-0.2,0.3-0.3c0.1-0.1,0.3-0.1,0.4,0
		c0.7,0.3,1.6,0.6,2.6,0.6c1.1,0,1.8-0.4,1.8-1.2C324.4,114.2,323.8,113.8,322.4,113.3L322.4,113.3z M323.2,98.5
		c7.6,0,13.8,6.2,13.8,13.8c0,7.6-6.2,13.8-13.8,13.8c-7.6,0-13.8-6.2-13.8-13.8C309.4,104.7,315.6,98.5,323.2,98.5L323.2,98.5z
		 M330,105.5c-1.7-1.7-4.2-2.8-6.8-2.8c-2.7,0-5.1,1.1-6.8,2.8c-1.7,1.7-2.8,4.2-2.8,6.8s1.1,5.1,2.8,6.8c1.7,1.7,4.2,2.8,6.8,2.8
		c2.7,0,5.1-1.1,6.8-2.8c1.7-1.8,2.8-4.2,2.8-6.8S331.8,107.3,330,105.5L330,105.5z"/>
</g>
<g>
	<path class="st1" d="M138.6,331.9c-2.5,0-3.8,3.1-2,4.8c1.8,1.8,4.8,0.5,4.8-2C141.5,333.2,140.2,331.9,138.6,331.9L138.6,331.9z
		 M121.6,331.9c-2.5,0-3.8,3.1-2,4.8c1.8,1.8,4.8,0.5,4.8-2C124.4,333.2,123.2,331.9,121.6,331.9L121.6,331.9z M117.6,330.7
		c0.7-0.7,1.6-1.2,2.6-1.5v-4.8H112c-2.9,0-5.3,2-5.9,4.8c4.2,1.2,5.6,6.4,2.5,9.5c-2.2,2.2-5.8,2.2-8,0c-3.1-3.1-1.6-8.5,2.7-9.5
		c0.6-4.3,4.3-7.6,8.8-7.6h8.2v-3.3c0.5,0.1,0.9,0.1,1.4,0.1c0.5,0,1,0,1.4-0.1v3.3l8.2,0c4.4,0,8.2,3.3,8.8,7.6
		c4.3,1,5.8,6.4,2.7,9.5c-2.2,2.2-5.8,2.2-8,0c-3.1-3.1-1.7-8.3,2.5-9.5c-0.6-2.8-3-4.8-5.9-4.8H123v4.8c4.2,1.1,5.7,6.4,2.6,9.5
		c-2.2,2.2-5.8,2.2-8,0C115.4,336.5,115.4,332.9,117.6,330.7L117.6,330.7z M106.6,332.7c-1.8-1.8-4.8-0.5-4.8,2s3.1,3.8,4.8,2
		C107.7,335.6,107.7,333.8,106.6,332.7L106.6,332.7z"/>
	<path class="st56" d="M121.6,295c5.9,0,10.6,4.8,10.6,10.6c0,5.9-4.8,10.6-10.6,10.6c-5.9,0-10.6-4.8-10.6-10.6
		C111,299.7,115.7,295,121.6,295L121.6,295z M121,306.6c-2.1-0.7-3.5-1.7-3.5-3.6c0-1.6,1-2.9,2.9-3.4c0.2-0.1,0.3-0.3,0.3-0.5v-0.4
		c0-0.3,0.3-0.5,0.5-0.5l0.9,0c0.3,0,0.5,0.3,0.5,0.5v0.2c0,0.3,0.2,0.5,0.5,0.5c0.8,0.1,1.4,0.2,2,0.4c0.2,0.1,0.4,0.3,0.3,0.6
		l-0.3,1.2c0,0.1-0.1,0.2-0.3,0.3c-0.1,0.1-0.3,0.1-0.4,0c-0.5-0.2-1.3-0.5-2.3-0.5c-1.3,0-1.7,0.6-1.7,1.1c0,0.6,0.7,1.1,2.3,1.7
		c2.3,0.8,3.2,1.9,3.2,3.7c0,1.6-1,3.1-3,3.5c-0.2,0.1-0.3,0.3-0.3,0.5v0.5c0,0.3-0.3,0.5-0.5,0.5l-0.9,0c-0.3,0-0.5-0.3-0.5-0.5
		v-0.4c0-0.3-0.2-0.4-0.5-0.5c-0.9-0.1-1.8-0.3-2.5-0.6c-0.2-0.1-0.3-0.3-0.3-0.6l0.3-1.3c0-0.1,0.1-0.3,0.3-0.3
		c0.1-0.1,0.3-0.1,0.4,0c0.7,0.3,1.7,0.6,2.7,0.6c1.1,0,1.9-0.4,1.9-1.2C123.1,307.5,122.4,307,121,306.6L121,306.6z"/>
</g>
<g id="Shadow_00000038393043649814157190000015201755378539186872_" class="st0">
	<g>
		<path class="st1" d="M280.8,809c-16.1,22.1-42.1,35.5-69.7,35.5c-29.4,0-57-15.2-72.8-40l-62.9-0.4l-30.9,54.5
			c35.1,58.2,98.7,94.2,166.7,94.2c66.1,0,127.8-33.9,163.5-89.1l-62.4,0.4L280.8,809z"/>
		<path class="st1" d="M381.4,852.4c15.9-28.7,24.3-61.2,24.3-94.1c0-104.1-82.1-189.3-184.9-194.3l31.6,53.8l-32.1,54.7
			c43.3,4.6,77.2,41.3,77.2,85.8c0,13.9-3.4,27.6-9.8,39.9l31.1,54.7L381.4,852.4z"/>
		<path class="st1" d="M239.2,617.8l-31.7-54C102,565.7,16.6,652.3,16.6,758.3c0,31,7.4,61.5,21.5,88.9l30.8-54.3l63.4,0.4
			c-4.9-11-7.4-22.9-7.4-35c0-46.2,36.7-84.2,82.5-86.2L239.2,617.8z"/>
	</g>
	<g>
		<path class="st2" d="M280.5,808.6c-16.1,22.1-42.1,35.5-69.7,35.5c-29.4,0-57-15.2-72.8-40l-62.9-0.4l-30.9,54.5
			c35.1,58.2,98.7,94.2,166.7,94.2c66.1,0,127.8-33.9,163.5-89.1l-62.4,0.4L280.5,808.6z"/>
		<path class="st2" d="M381,851.9c15.9-28.7,24.3-61.2,24.3-94.1c0-104.1-82.1-189.3-184.9-194.3l31.6,53.8L219.9,672
			c43.3,4.6,77.2,41.3,77.2,85.8c0,13.9-3.4,27.6-9.8,39.9l31.1,54.7L381,851.9z"/>
		<path class="st2" d="M238.9,617.4l-31.7-54c-105.6,1.9-190.9,88.5-190.9,194.5c0,31,7.4,61.5,21.5,88.9l30.8-54.3l63.4,0.4
			c-4.9-11-7.4-22.9-7.4-35c0-46.2,36.7-84.2,82.5-86.2L238.9,617.4z"/>
	</g>
	<g>
		<path class="st3" d="M280.2,808.1c-16.1,22.1-42.1,35.5-69.7,35.5c-29.4,0-57-15.2-72.8-40l-62.9-0.4l-30.9,54.5
			c35.1,58.2,98.7,94.2,166.7,94.2c66.1,0,127.8-33.9,163.5-89.1l-62.4,0.4L280.2,808.1z"/>
		<path class="st3" d="M380.7,851.5c15.9-28.7,24.3-61.2,24.3-94.1C405,653.3,322.9,568,220,563l31.6,53.8l-32.1,54.7
			c43.3,4.6,77.2,41.3,77.2,85.8c0,13.9-3.4,27.6-9.8,39.9l31.1,54.7L380.7,851.5z"/>
		<path class="st3" d="M238.6,616.9l-31.7-54c-105.6,1.9-190.9,88.5-190.9,194.5c0,31,7.4,61.5,21.5,88.9l30.8-54.3l63.4,0.4
			c-4.9-11-7.4-22.9-7.4-35c0-46.2,36.7-84.2,82.5-86.2L238.6,616.9z"/>
	</g>
	<g>
		<path class="st4" d="M279.9,807.6c-16.1,22.1-42.1,35.5-69.7,35.5c-29.4,0-57-15.2-72.8-40l-62.9-0.4l-30.9,54.5
			c35.1,58.2,98.7,94.2,166.7,94.2c66.1,0,127.8-33.9,163.5-89.1l-62.4,0.4L279.9,807.6z"/>
		<path class="st4" d="M380.4,851c15.9-28.7,24.3-61.2,24.3-94.1c0-104.1-82.1-189.3-184.9-194.3l31.6,53.8L219.2,671
			c43.3,4.6,77.2,41.3,77.2,85.8c0,13.9-3.4,27.6-9.8,39.9l31.1,54.7L380.4,851z"/>
		<path class="st4" d="M238.3,616.4l-31.7-54C101,564.3,15.6,650.8,15.6,756.8c0,31,7.4,61.5,21.5,88.9l30.8-54.3l63.4,0.4
			c-4.9-11-7.4-22.9-7.4-35c0-46.2,36.7-84.2,82.5-86.2L238.3,616.4z"/>
	</g>
	<g>
		<path class="st5" d="M279.5,807.1c-16.1,22.1-42.1,35.5-69.7,35.5c-29.4,0-57-15.2-72.8-40l-62.9-0.4l-30.9,54.5
			c35.1,58.2,98.7,94.2,166.7,94.2c66.1,0,127.8-33.9,163.5-89.1l-62.4,0.4L279.5,807.1z"/>
		<path class="st5" d="M380.1,850.5c15.9-28.7,24.3-61.2,24.3-94.1c0-104.1-82.1-189.3-184.9-194.3l31.6,53.8l-32.1,54.7
			c43.3,4.6,77.2,41.3,77.2,85.8c0,13.9-3.4,27.6-9.8,39.9l31.1,54.7L380.1,850.5z"/>
		<path class="st5" d="M237.9,615.9l-31.7-54c-105.6,1.9-190.9,88.5-190.9,194.5c0,31,7.4,61.5,21.5,88.9l30.8-54.3l63.4,0.4
			c-4.9-11-7.4-22.9-7.4-35c0-46.2,36.7-84.2,82.5-86.2L237.9,615.9z"/>
	</g>
	<g>
		<path class="st6" d="M279.2,806.6c-16.1,22.1-42.1,35.5-69.7,35.5c-29.4,0-57-15.2-72.8-40l-62.9-0.4l-30.9,54.5
			c35.1,58.2,98.7,94.2,166.7,94.2c66.1,0,127.8-33.9,163.5-89.1l-62.4,0.4L279.2,806.6z"/>
		<path class="st6" d="M379.7,850c15.9-28.7,24.3-61.2,24.3-94.1c0-104.1-82.1-189.3-184.9-194.3l31.6,53.8l-32.1,54.7
			c43.3,4.6,77.2,41.3,77.2,85.8c0,13.9-3.4,27.6-9.8,39.9l31.1,54.7L379.7,850z"/>
		<path class="st6" d="M237.6,615.4l-31.7-54C100.3,563.3,15,649.9,15,755.9c0,31,7.4,61.5,21.5,88.9l30.8-54.3l63.4,0.4
			c-4.9-11-7.4-22.9-7.4-35c0-46.2,36.7-84.2,82.5-86.2L237.6,615.4z"/>
	</g>
	<g>
		<path class="st7" d="M278.9,806.1c-16.1,22.1-42.1,35.5-69.7,35.5c-29.4,0-57-15.2-72.8-40l-62.9-0.4l-30.9,54.5
			c35.1,58.2,98.7,94.2,166.7,94.2c66.1,0,127.8-33.9,163.5-89.1l-62.4,0.4L278.9,806.1z"/>
		<path class="st7" d="M379.4,849.5c15.9-28.7,24.3-61.2,24.3-94.1c0-104.1-82.1-189.3-184.9-194.3l31.6,53.8l-32.1,54.7
			c43.3,4.6,77.2,41.3,77.2,85.8c0,13.9-3.4,27.6-9.8,39.9l31.1,54.7L379.4,849.5z"/>
		<path class="st7" d="M237.3,614.9l-31.7-54C100,562.8,14.6,649.4,14.6,755.4c0,31,7.4,61.5,21.5,88.9l30.8-54.3l63.4,0.4
			c-4.9-11-7.4-22.9-7.4-35c0-46.2,36.7-84.2,82.5-86.2L237.3,614.9z"/>
	</g>
	<g>
		<path class="st8" d="M278.6,805.6c-16.1,22.1-42.1,35.5-69.7,35.5c-29.4,0-57-15.2-72.8-40l-62.9-0.4l-30.9,54.5
			c35.1,58.2,98.7,94.2,166.7,94.2c66.1,0,127.8-33.9,163.5-89.1l-62.4,0.4L278.6,805.6z"/>
		<path class="st8" d="M379.1,849c15.9-28.7,24.3-61.2,24.3-94.1c0-104.1-82.1-189.3-184.9-194.3l31.6,53.8l-32.1,54.7
			c43.3,4.6,77.2,41.3,77.2,85.8c0,13.9-3.4,27.6-9.8,39.9l31.1,54.7L379.1,849z"/>
		<path class="st8" d="M237,614.4l-31.7-54C99.7,562.3,14.3,648.9,14.3,754.9c0,31,7.4,61.5,21.5,88.9l30.8-54.3l63.4,0.4
			c-4.9-11-7.4-22.9-7.4-35c0-46.2,36.7-84.2,82.5-86.2L237,614.4z"/>
	</g>
	<g>
		<path class="st9" d="M278.2,805.1c-16.1,22.1-42.1,35.5-69.7,35.5c-29.4,0-57-15.2-72.8-40l-62.9-0.4l-30.9,54.5
			c35.1,58.2,98.7,94.2,166.7,94.2c66.1,0,127.8-33.9,163.5-89.1l-62.4,0.4L278.2,805.1z"/>
		<path class="st9" d="M378.8,848.5c15.9-28.7,24.3-61.2,24.3-94.1c0-104.1-82.1-189.3-184.9-194.3l31.6,53.8l-32.1,54.7
			c43.3,4.6,77.2,41.3,77.2,85.8c0,13.9-3.4,27.6-9.8,39.9l31.1,54.7L378.8,848.5z"/>
		<path class="st9" d="M236.6,613.9l-31.7-54C99.3,561.8,14,648.4,14,754.4c0,31,7.4,61.5,21.5,88.9L66.3,789l63.4,0.4
			c-4.9-11-7.4-22.9-7.4-35c0-46.2,36.7-84.2,82.5-86.2L236.6,613.9z"/>
	</g>
	<g>
		<path class="st10" d="M277.9,804.7c-16.1,22.1-42.1,35.5-69.7,35.5c-29.4,0-57-15.2-72.8-40l-62.9-0.4l-30.9,54.5
			c35.1,58.2,98.7,94.2,166.7,94.2c66.1,0,127.8-33.9,163.5-89.1l-62.4,0.4L277.9,804.7z"/>
		<path class="st10" d="M378.4,848.1c15.9-28.7,24.3-61.2,24.3-94.1c0-104.1-82.1-189.3-184.9-194.3l31.6,53.8l-32.1,54.7
			c43.3,4.6,77.2,41.3,77.2,85.8c0,13.9-3.4,27.6-9.8,39.9l31.1,54.7L378.4,848.1z"/>
		<path class="st10" d="M236.3,613.5l-31.7-54C99,561.3,13.7,647.9,13.7,753.9c0,31,7.4,61.5,21.5,88.9L66,788.5l63.4,0.4
			c-4.9-11-7.4-22.9-7.4-35c0-46.2,36.7-84.2,82.5-86.2L236.3,613.5z"/>
	</g>
	<g>
		<path class="st11" d="M277.6,804.2c-16.1,22.1-42.1,35.5-69.7,35.5c-29.4,0-57-15.2-72.8-40l-62.9-0.4l-30.9,54.5
			c35.1,58.2,98.7,94.2,166.7,94.2c66.1,0,127.8-33.9,163.5-89.1l-62.4,0.4L277.6,804.2z"/>
		<path class="st11" d="M378.1,847.6c15.9-28.7,24.3-61.2,24.3-94.1c0-104.1-82.1-189.3-184.9-194.3L249,613l-32.1,54.7
			c43.3,4.6,77.2,41.3,77.2,85.8c0,13.9-3.4,27.6-9.8,39.9l31.1,54.7L378.1,847.6z"/>
		<path class="st11" d="M236,613l-31.7-54C98.7,560.9,13.3,647.4,13.3,753.4c0,31,7.4,61.5,21.5,88.9L65.6,788l63.4,0.4
			c-4.9-11-7.4-22.9-7.4-35c0-46.2,36.7-84.2,82.5-86.2L236,613z"/>
	</g>
	<g>
		<path class="st12" d="M277.3,803.7c-16.1,22.1-42.1,35.5-69.7,35.5c-29.4,0-57-15.2-72.8-40l-62.9-0.4l-30.9,54.5
			c35.1,58.2,98.7,94.2,166.7,94.2c66.1,0,127.8-33.9,163.5-89.1l-62.4,0.4L277.3,803.7z"/>
		<path class="st12" d="M377.8,847.1c15.9-28.7,24.3-61.2,24.3-94.1c0-104.1-82.1-189.3-184.9-194.3l31.6,53.8l-32.1,54.7
			c43.3,4.6,77.2,41.3,77.2,85.8c0,13.9-3.4,27.6-9.8,39.9l31.1,54.7L377.8,847.1z"/>
		<path class="st12" d="M235.7,612.5l-31.7-54C98.4,560.4,13,647,13,752.9c0,31,7.4,61.5,21.5,88.9l30.8-54.3l63.4,0.4
			c-4.9-11-7.4-22.9-7.4-35c0-46.2,36.7-84.2,82.5-86.2L235.7,612.5z"/>
	</g>
	<g>
		<path class="st13" d="M276.9,803.2c-16.1,22.1-42.1,35.5-69.7,35.5c-29.4,0-57-15.2-72.8-40l-62.9-0.4l-30.9,54.5
			C75.7,911,139.2,947,207.2,947c66.1,0,127.8-33.9,163.5-89.1l-62.4,0.4L276.9,803.2z"/>
		<path class="st13" d="M377.5,846.6c15.9-28.7,24.3-61.2,24.3-94.1c0-104.1-82.1-189.3-184.9-194.3l31.6,53.8l-32.1,54.7
			c43.3,4.6,77.2,41.3,77.2,85.8c0,13.9-3.4,27.6-9.8,39.9l31.1,54.7L377.5,846.6z"/>
		<path class="st13" d="M235.3,612l-31.7-54C98,559.9,12.7,646.5,12.7,752.5c0,31,7.4,61.5,21.5,88.9L65,787l63.4,0.4
			c-4.9-11-7.4-22.9-7.4-35c0-46.2,36.7-84.2,82.5-86.2L235.3,612z"/>
	</g>
	<g>
		<path class="st14" d="M276.6,802.7c-16.1,22.1-42.1,35.5-69.7,35.5c-29.4,0-57-15.2-72.8-40l-62.9-0.4l-30.9,54.5
			c35.1,58.2,98.7,94.2,166.7,94.2c66.1,0,127.8-33.9,163.5-89.1l-62.4,0.4L276.6,802.7z"/>
		<path class="st14" d="M377.1,846.1c15.9-28.7,24.3-61.2,24.3-94.1c0-104.1-82.1-189.3-184.9-194.3l31.6,53.8L216,666.2
			c43.3,4.6,77.2,41.3,77.2,85.8c0,13.9-3.4,27.6-9.8,39.9l31.1,54.7L377.1,846.1z"/>
		<path class="st14" d="M235,611.5l-31.7-54C97.7,559.4,12.4,646,12.4,752c0,31,7.4,61.5,21.5,88.9l30.8-54.3l63.4,0.4
			c-4.9-11-7.4-22.9-7.4-35c0-46.2,36.7-84.2,82.5-86.2L235,611.5z"/>
	</g>
	<g>
		<path class="st15" d="M276.3,802.2c-16.1,22.1-42.1,35.5-69.7,35.5c-29.4,0-57-15.2-72.8-40l-62.9-0.4l-30.9,54.5
			C75,910,138.6,946,206.6,946c66.1,0,127.8-33.9,163.5-89.1l-62.4,0.4L276.3,802.2z"/>
		<path class="st15" d="M376.8,845.6c15.9-28.7,24.3-61.2,24.3-94.1c0-104.1-82.1-189.3-184.9-194.3l31.6,53.8l-32.1,54.7
			c43.3,4.6,77.2,41.3,77.2,85.8c0,13.9-3.4,27.6-9.8,39.9l31.1,54.7L376.8,845.6z"/>
		<path class="st15" d="M234.7,611L203,557C97.4,558.9,12,645.5,12,751.5c0,31,7.4,61.5,21.5,88.9l30.8-54.3l63.4,0.4
			c-4.9-11-7.4-22.9-7.4-35c0-46.2,36.7-84.2,82.5-86.2L234.7,611z"/>
	</g>
	<g>
		<path class="st16" d="M276,801.7c-16.1,22.1-42.1,35.5-69.7,35.5c-29.4,0-57-15.2-72.8-40l-62.9-0.4l-30.9,54.5
			c35.1,58.2,98.7,94.2,166.7,94.2c66.1,0,127.8-33.9,163.5-89.1l-62.4,0.4L276,801.7z"/>
		<path class="st16" d="M376.5,845.1c15.9-28.7,24.3-61.2,24.3-94.1c0-104.1-82.1-189.3-184.9-194.3l31.6,53.8l-32.1,54.7
			c43.3,4.6,77.2,41.3,77.2,85.8c0,13.9-3.4,27.6-9.8,39.9l31.1,54.7L376.5,845.1z"/>
		<path class="st16" d="M234.4,610.5l-31.7-54C97.1,558.4,11.7,645,11.7,751c0,31,7.4,61.5,21.5,88.9L64,785.6l63.4,0.4
			c-4.9-11-7.4-22.9-7.4-35c0-46.2,36.7-84.2,82.5-86.2L234.4,610.5z"/>
	</g>
	<g>
		<path class="st17" d="M275.6,801.3c-16.1,22.1-42.1,35.5-69.7,35.5c-29.4,0-57-15.2-72.8-40l-62.9-0.4l-30.9,54.5
			C74.4,909,137.9,945,205.9,945c66.1,0,127.8-33.9,163.5-89.1l-62.4,0.4L275.6,801.3z"/>
		<path class="st17" d="M376.2,844.7c15.9-28.7,24.3-61.2,24.3-94.1c0-104.1-82.1-189.3-184.9-194.3l31.6,53.8L215,664.7
			c43.3,4.6,77.2,41.3,77.2,85.8c0,13.9-3.4,27.6-9.8,39.9l31.1,54.7L376.2,844.7z"/>
		<path class="st17" d="M234,610.1l-31.7-54C96.7,557.9,11.4,644.5,11.4,750.5c0,31,7.4,61.5,21.5,88.9l30.8-54.3l63.4,0.4
			c-4.9-11-7.4-22.9-7.4-35c0-46.2,36.7-84.2,82.5-86.2L234,610.1z"/>
	</g>
	<g>
		<path class="st18" d="M275.3,800.8c-16.1,22.1-42.1,35.5-69.7,35.5c-29.4,0-57-15.2-72.8-40l-62.9-0.4l-30.9,54.5
			c35.1,58.2,98.7,94.2,166.7,94.2c66.1,0,127.8-33.9,163.5-89.1l-62.4,0.4L275.3,800.8z"/>
		<path class="st18" d="M375.8,844.2c15.9-28.7,24.3-61.2,24.3-94.1c0-104.1-82.1-189.3-184.9-194.3l31.6,53.8l-32.1,54.7
			c43.3,4.6,77.2,41.3,77.2,85.8c0,13.9-3.4,27.6-9.8,39.9l31.1,54.7L375.8,844.2z"/>
		<path class="st18" d="M233.7,609.6l-31.7-54C96.4,557.5,11.1,644,11.1,750c0,31,7.4,61.5,21.5,88.9l30.8-54.3l63.4,0.4
			c-4.9-11-7.4-22.9-7.4-35c0-46.2,36.7-84.2,82.5-86.2L233.7,609.6z"/>
	</g>
	<g>
		<path class="st19" d="M275,800.3c-16.1,22.1-42.1,35.5-69.7,35.5c-29.4,0-57-15.2-72.8-40l-62.9-0.4l-30.9,54.5
			c35.1,58.2,98.7,94.2,166.7,94.2c66.1,0,127.8-33.9,163.5-89.1l-62.4,0.4L275,800.3z"/>
		<path class="st19" d="M375.5,843.7c15.9-28.7,24.3-61.2,24.3-94.1c0-104.1-82.1-189.3-184.9-194.3l31.6,53.8l-32.1,54.7
			c43.3,4.6,77.2,41.3,77.2,85.8c0,13.9-3.4,27.6-9.8,39.9l31.1,54.7L375.5,843.7z"/>
		<path class="st19" d="M233.4,609.1l-31.7-54C96.1,557,10.7,643.6,10.7,749.5c0,31,7.4,61.5,21.5,88.9L63,784.1l63.4,0.4
			c-4.9-11-7.4-22.9-7.4-35c0-46.2,36.7-84.2,82.5-86.2L233.4,609.1z"/>
	</g>
	<g>
		<path class="st20" d="M274.7,799.8c-16.1,22.1-42.1,35.5-69.7,35.5c-29.4,0-57-15.2-72.8-40l-62.9-0.4l-30.9,54.5
			c35.1,58.2,98.7,94.2,166.7,94.2c66.1,0,127.8-33.9,163.5-89.1l-62.4,0.4L274.7,799.8z"/>
		<path class="st20" d="M375.2,843.2c15.9-28.7,24.3-61.2,24.3-94.1c0-104.1-82.1-189.3-184.9-194.3l31.6,53.8L214,663.3
			c43.3,4.6,77.2,41.3,77.2,85.8c0,13.9-3.4,27.6-9.8,39.9l31.1,54.7L375.2,843.2z"/>
		<path class="st20" d="M233.1,608.6l-31.7-54C95.8,556.5,10.4,643.1,10.4,749c0,31,7.4,61.5,21.5,88.9l30.8-54.3l63.4,0.4
			c-4.9-11-7.4-22.9-7.4-35c0-46.2,36.7-84.2,82.5-86.2L233.1,608.6z"/>
	</g>
	<g>
		<path class="st21" d="M274.3,799.3c-16.1,22.1-42.1,35.5-69.7,35.5c-29.4,0-57-15.2-72.8-40l-62.9-0.4L38,848.9
			c35.1,58.2,98.7,94.2,166.7,94.2c66.1,0,127.8-33.9,163.5-89.1l-62.4,0.4L274.3,799.3z"/>
		<path class="st21" d="M374.9,842.7c15.9-28.7,24.3-61.2,24.3-94.1c0-104.1-82.1-189.3-184.9-194.3l31.6,53.8l-32.1,54.7
			c43.3,4.6,77.2,41.3,77.2,85.8c0,13.9-3.4,27.6-9.8,39.9l31.1,54.7L374.9,842.7z"/>
		<path class="st21" d="M232.7,608.1l-31.7-54C95.4,556,10.1,642.6,10.1,748.6c0,31,7.4,61.5,21.5,88.9l30.8-54.3l63.4,0.4
			c-4.9-11-7.4-22.9-7.4-35c0-46.2,36.7-84.2,82.5-86.2L232.7,608.1z"/>
	</g>
	<g>
		<path class="st22" d="M274,798.8c-16.1,22.1-42.1,35.5-69.7,35.5c-29.4,0-57-15.2-72.8-40l-62.9-0.4l-30.9,54.5
			c35.1,58.2,98.7,94.2,166.7,94.2c66.1,0,127.8-33.9,163.5-89.1l-62.4,0.4L274,798.8z"/>
		<path class="st22" d="M374.5,842.2c15.9-28.7,24.3-61.2,24.3-94.1c0-104.1-82.1-189.3-184.9-194.3l31.6,53.8l-32.1,54.7
			c43.3,4.6,77.2,41.3,77.2,85.8c0,13.9-3.4,27.6-9.8,39.9l31.1,54.7L374.5,842.2z"/>
		<path class="st22" d="M232.4,607.6l-31.7-54C95.1,555.5,9.8,642.1,9.8,748.1c0,31,7.4,61.5,21.5,88.9l30.8-54.3l63.4,0.4
			c-4.9-11-7.4-22.9-7.4-35c0-46.2,36.7-84.2,82.5-86.2L232.4,607.6z"/>
	</g>
	<g>
		<path class="st23" d="M273.7,798.3c-16.1,22.1-42.1,35.5-69.7,35.5c-29.4,0-57-15.2-72.8-40l-62.9-0.4L37.3,848
			c35.1,58.2,98.7,94.2,166.7,94.2c66.1,0,127.8-33.9,163.5-89.1l-62.4,0.4L273.7,798.3z"/>
		<path class="st23" d="M374.2,841.7c15.9-28.7,24.3-61.2,24.3-94.1c0-104.1-82.1-189.3-184.9-194.3l31.6,53.8L213,661.8
			c43.3,4.6,77.2,41.3,77.2,85.8c0,13.9-3.4,27.6-9.8,39.9l31.1,54.7L374.2,841.7z"/>
		<path class="st23" d="M232.1,607.1l-31.7-54C94.8,555,9.4,641.6,9.4,747.6c0,31,7.4,61.5,21.5,88.9l30.8-54.3l63.4,0.4
			c-4.9-11-7.4-22.9-7.4-35c0-46.2,36.7-84.2,82.5-86.2L232.1,607.1z"/>
	</g>
	<g>
		<path class="st24" d="M273.4,797.8c-16.1,22.1-42.1,35.5-69.7,35.5c-29.4,0-57-15.2-72.8-40L67.9,793L37,847.5
			c35.1,58.2,98.7,94.2,166.7,94.2c66.1,0,127.8-33.9,163.5-89.1l-62.4,0.4L273.4,797.8z"/>
		<path class="st24" d="M373.9,841.2c15.9-28.7,24.3-61.2,24.3-94.1c0-104.1-82.1-189.3-184.9-194.3l31.6,53.8l-32.1,54.7
			c43.3,4.6,77.2,41.3,77.2,85.8c0,13.9-3.4,27.6-9.8,39.9l31.1,54.7L373.9,841.2z"/>
		<path class="st24" d="M231.8,606.7l-31.7-54C94.5,554.5,9.1,641.1,9.1,747.1c0,31,7.4,61.5,21.5,88.9l30.8-54.3l63.4,0.4
			c-4.9-11-7.4-22.9-7.4-35c0-46.2,36.7-84.2,82.5-86.2L231.8,606.7z"/>
	</g>
	<g>
		<path class="st25" d="M273,797.4c-16.1,22.1-42.1,35.5-69.7,35.5c-29.4,0-57-15.2-72.8-40l-62.9-0.4L36.7,847
			c35.1,58.2,98.7,94.2,166.7,94.2c66.1,0,127.8-33.9,163.5-89.1l-62.4,0.4L273,797.4z"/>
		<path class="st25" d="M373.6,840.8c15.9-28.7,24.3-61.2,24.3-94.1c0-104.1-82.1-189.3-184.9-194.3l31.6,53.8l-32.1,54.7
			c43.3,4.6,77.2,41.3,77.2,85.8c0,13.9-3.4,27.6-9.8,39.9l31.1,54.7L373.6,840.8z"/>
		<path class="st25" d="M231.4,606.2l-31.7-54C94.1,554,8.8,640.6,8.8,746.6c0,31,7.4,61.5,21.5,88.9l30.8-54.3l63.4,0.4
			c-4.9-11-7.4-22.9-7.4-35c0-46.2,36.7-84.2,82.5-86.2L231.4,606.2z"/>
	</g>
	<g>
		<path class="st26" d="M272.7,796.9c-16.1,22.1-42.1,35.5-69.7,35.5c-29.4,0-57-15.2-72.8-40L67.3,792l-30.9,54.5
			c35.1,58.2,98.7,94.2,166.7,94.2c66.1,0,127.8-33.9,163.5-89.1L304,852L272.7,796.9z"/>
		<path class="st26" d="M373.2,840.3c15.9-28.7,24.3-61.2,24.3-94.1c0-104.1-82.1-189.3-184.9-194.3l31.6,53.8l-32.1,54.7
			c43.3,4.6,77.2,41.3,77.2,85.8c0,13.9-3.4,27.6-9.8,39.9l31.1,54.7L373.2,840.3z"/>
		<path class="st26" d="M231.1,605.7l-31.7-54C93.8,553.6,8.5,640.1,8.5,746.1c0,31,7.4,61.5,21.5,88.9l30.8-54.3l63.4,0.4
			c-4.9-11-7.4-22.9-7.4-35c0-46.2,36.7-84.2,82.5-86.2L231.1,605.7z"/>
	</g>
	<g>
		<path class="st27" d="M272.4,796.4c-16.1,22.1-42.1,35.5-69.7,35.5c-29.4,0-57-15.2-72.8-40l-62.9-0.4L36,846
			c35.1,58.2,98.7,94.2,166.7,94.2c66.1,0,127.8-33.9,163.5-89.1l-62.4,0.4L272.4,796.4z"/>
		<path class="st27" d="M372.9,839.8c15.9-28.7,24.3-61.2,24.3-94.1c0-104.1-82.1-189.3-184.9-194.3l31.6,53.8l-32.1,54.7
			c43.3,4.6,77.2,41.3,77.2,85.8c0,13.9-3.4,27.6-9.8,39.9l31.1,54.7L372.9,839.8z"/>
		<path class="st27" d="M230.8,605.2l-31.7-54C93.5,553.1,8.1,639.7,8.1,745.6c0,31,7.4,61.5,21.5,88.9l30.8-54.3l63.4,0.4
			c-4.9-11-7.4-22.9-7.4-35c0-46.2,36.7-84.2,82.5-86.2L230.8,605.2z"/>
	</g>
	<g>
		<path class="st28" d="M272.1,795.9c-16.1,22.1-42.1,35.5-69.7,35.5c-29.4,0-57-15.2-72.8-40L66.6,791l-30.9,54.5
			c35.1,58.2,98.7,94.2,166.7,94.2c66.1,0,127.8-33.9,163.5-89.1l-62.4,0.4L272.1,795.9z"/>
		<path class="st28" d="M372.6,839.3c15.9-28.7,24.3-61.2,24.3-94.1c0-104.1-82.1-189.3-184.9-194.3l31.6,53.8l-32.1,54.7
			c43.3,4.6,77.2,41.3,77.2,85.8c0,13.9-3.4,27.6-9.8,39.9l31.1,54.7L372.6,839.3z"/>
		<path class="st28" d="M230.5,604.7l-31.7-54C93.2,552.6,7.8,639.2,7.8,745.2c0,31,7.4,61.5,21.5,88.9l30.8-54.3l63.4,0.4
			c-4.9-11-7.4-22.9-7.4-35c0-46.2,36.7-84.2,82.5-86.2L230.5,604.7z"/>
	</g>
	<g>
		<path class="st29" d="M271.7,795.4c-16.1,22.1-42.1,35.5-69.7,35.5c-29.4,0-57-15.2-72.8-40l-62.9-0.4L35.3,845
			c35.1,58.2,98.7,94.2,166.7,94.2c66.1,0,127.8-33.9,163.5-89.1l-62.4,0.4L271.7,795.4z"/>
		<path class="st29" d="M372.3,838.8c15.9-28.7,24.3-61.2,24.3-94.1c0-104.1-82.1-189.3-184.9-194.3l31.6,53.8l-32.1,54.7
			c43.3,4.6,77.2,41.3,77.2,85.8c0,13.9-3.4,27.6-9.8,39.9l31.1,54.7L372.3,838.8z"/>
		<path class="st29" d="M230.1,604.2l-31.7-54C92.8,552.1,7.5,638.7,7.5,744.7c0,31,7.4,61.5,21.5,88.9l30.8-54.3l63.4,0.4
			c-4.9-11-7.4-22.9-7.4-35c0-46.2,36.7-84.2,82.5-86.2L230.1,604.2z"/>
	</g>
	<g>
		<path class="st30" d="M271.4,794.9c-16.1,22.1-42.1,35.5-69.7,35.5c-29.4,0-57-15.2-72.8-40L66,790L35,844.5
			c35.1,58.2,98.7,94.2,166.7,94.2c66.1,0,127.8-33.9,163.5-89.1l-62.4,0.4L271.4,794.9z"/>
		<path class="st30" d="M371.9,838.3c15.9-28.7,24.3-61.2,24.3-94.1c0-104.1-82.1-189.3-184.9-194.3l31.6,53.8l-32.1,54.7
			c43.3,4.6,77.2,41.3,77.2,85.8c0,13.9-3.4,27.6-9.8,39.9l31.1,54.7L371.9,838.3z"/>
		<path class="st30" d="M229.8,603.7l-31.7-54C92.5,551.6,7.2,638.2,7.2,744.2c0,31,7.4,61.5,21.5,88.9l30.8-54.3l63.4,0.4
			c-4.9-11-7.4-22.9-7.4-35c0-46.2,36.7-84.2,82.5-86.2L229.8,603.7z"/>
	</g>
	<g>
		<path class="st31" d="M271.1,794.4C255,816.6,229,830,201.3,830c-29.4,0-57-15.2-72.8-40l-62.9-0.4l-30.9,54.5
			c35.1,58.2,98.7,94.2,166.7,94.2c66.1,0,127.8-33.9,163.5-89.1l-62.4,0.4L271.1,794.4z"/>
		<path class="st31" d="M371.6,837.8c15.9-28.7,24.3-61.2,24.3-94.1c0-104.1-82.1-189.3-184.9-194.3l31.6,53.8l-32.1,54.7
			c43.3,4.6,77.2,41.3,77.2,85.8c0,13.9-3.4,27.6-9.8,39.9l31.1,54.7L371.6,837.8z"/>
		<path class="st31" d="M229.5,603.2l-31.7-54C92.2,551.1,6.8,637.7,6.8,743.7c0,31,7.4,61.5,21.5,88.9l30.8-54.3l63.4,0.4
			c-4.9-11-7.4-22.9-7.4-35c0-46.2,36.7-84.2,82.5-86.2L229.5,603.2z"/>
	</g>
	<g>
		<path class="st32" d="M270.8,794c-16.1,22.1-42.1,35.5-69.7,35.5c-29.4,0-57-15.2-72.8-40l-62.9-0.4l-30.9,54.5
			c35.1,58.2,98.7,94.2,166.7,94.2c66.1,0,127.8-33.9,163.5-89.1l-62.4,0.4L270.8,794z"/>
		<path class="st32" d="M371.3,837.4c15.9-28.7,24.3-61.2,24.3-94.1c0-104.1-82.1-189.3-184.9-194.3l31.6,53.8l-32.1,54.7
			c43.3,4.6,77.2,41.3,77.2,85.8c0,13.9-3.4,27.6-9.8,39.9l31.1,54.7L371.3,837.4z"/>
		<path class="st32" d="M229.2,602.8l-31.7-54C91.9,550.6,6.5,637.2,6.5,743.2c0,31,7.4,61.5,21.5,88.9l30.8-54.3l63.4,0.4
			c-4.9-11-7.4-22.9-7.4-35c0-46.2,36.7-84.2,82.5-86.2L229.2,602.8z"/>
	</g>
	<g>
		<path class="st33" d="M270.4,793.5c-16.1,22.1-42.1,35.5-69.7,35.5c-29.4,0-57-15.2-72.8-40L65,788.6L34,843.1
			c35.1,58.2,98.7,94.2,166.7,94.2c66.1,0,127.8-33.9,163.5-89.1l-62.4,0.4L270.4,793.5z"/>
		<path class="st33" d="M371,836.9c15.9-28.7,24.3-61.2,24.3-94.1c0-104.1-82.1-189.3-184.9-194.3l31.6,53.8l-32.1,54.7
			c43.3,4.6,77.2,41.3,77.2,85.8c0,13.9-3.4,27.6-9.8,39.9l31.1,54.7L371,836.9z"/>
		<path class="st33" d="M228.8,602.3l-31.7-54C91.5,550.2,6.2,636.7,6.2,742.7c0,31,7.4,61.5,21.5,88.9l30.8-54.3l63.4,0.4
			c-4.9-11-7.4-22.9-7.4-35c0-46.2,36.7-84.2,82.5-86.2L228.8,602.3z"/>
	</g>
	<g>
		<path class="st34" d="M270.1,793c-16.1,22.1-42.1,35.5-69.7,35.5c-29.4,0-57-15.2-72.8-40l-62.9-0.4l-30.9,54.5
			c35.1,58.2,98.7,94.2,166.7,94.2c66.1,0,127.8-33.9,163.5-89.1l-62.4,0.4L270.1,793z"/>
		<path class="st34" d="M370.6,836.4c15.9-28.7,24.3-61.2,24.3-94.1C394.9,638.2,312.8,553,210,548l31.6,53.8l-32.1,54.7
			c43.3,4.6,77.2,41.3,77.2,85.8c0,13.9-3.4,27.6-9.8,39.9l31.1,54.7L370.6,836.4z"/>
		<path class="st34" d="M228.5,601.8l-31.7-54C91.2,549.7,5.9,636.3,5.9,742.2c0,31,7.4,61.5,21.5,88.9l30.8-54.3l63.4,0.4
			c-4.9-11-7.4-22.9-7.4-35c0-46.2,36.7-84.2,82.5-86.2L228.5,601.8z"/>
	</g>
	<g>
		<path class="st35" d="M269.8,792.5C253.7,814.6,227.7,828,200,828c-29.4,0-57-15.2-72.8-40l-62.9-0.4l-30.9,54.5
			c35.1,58.2,98.7,94.2,166.7,94.2c66.1,0,127.8-33.9,163.5-89.1l-62.4,0.4L269.8,792.5z"/>
		<path class="st35" d="M370.3,835.9c15.9-28.7,24.3-61.2,24.3-94.1c0-104.1-82.1-189.3-184.9-194.3l31.6,53.8L209.1,656
			c43.3,4.6,77.2,41.3,77.2,85.8c0,13.9-3.4,27.6-9.8,39.9l31.1,54.7L370.3,835.9z"/>
		<path class="st35" d="M228.2,601.3l-31.7-54C90.9,549.2,5.5,635.8,5.5,741.8c0,31,7.4,61.5,21.5,88.9l30.8-54.3l63.4,0.4
			c-4.9-11-7.4-22.9-7.4-35c0-46.2,36.7-84.2,82.5-86.2L228.2,601.3z"/>
	</g>
	<g>
		<path class="st36" d="M269.5,792c-16.1,22.1-42.1,35.5-69.7,35.5c-29.4,0-57-15.2-72.8-40L64,787.1l-30.9,54.5
			c35.1,58.2,98.7,94.2,166.7,94.2c66.1,0,127.8-33.9,163.5-89.1l-62.4,0.4L269.5,792z"/>
		<path class="st36" d="M370,835.4c15.9-28.7,24.3-61.2,24.3-94.1c0-104.1-82.1-189.3-184.9-194.3l31.6,53.8l-32.1,54.7
			c43.3,4.6,77.2,41.3,77.2,85.8c0,13.9-3.4,27.6-9.8,39.9l31.1,54.7L370,835.4z"/>
		<path class="st36" d="M227.9,600.8l-31.7-54C90.6,548.7,5.2,635.3,5.2,741.3c0,31,7.4,61.5,21.5,88.9l30.8-54.3l63.4,0.4
			c-4.9-11-7.4-22.9-7.4-35c0-46.2,36.7-84.2,82.5-86.2L227.9,600.8z"/>
	</g>
	<g>
		<path class="st37" d="M269.1,791.5C253,813.6,227.1,827,199.4,827c-29.4,0-57-15.2-72.8-40l-62.9-0.4l-30.9,54.5
			c35.1,58.2,98.7,94.2,166.7,94.2c66.1,0,127.8-33.9,163.5-89.1l-62.4,0.4L269.1,791.5z"/>
		<path class="st37" d="M369.7,834.9c15.9-28.7,24.3-61.2,24.3-94.1c0-104.1-82.1-189.3-184.9-194.3l31.6,53.8L208.5,655
			c43.3,4.6,77.2,41.3,77.2,85.8c0,13.9-3.4,27.6-9.8,39.9l31.1,54.7L369.7,834.9z"/>
		<path class="st37" d="M227.5,600.3l-31.7-54C90.2,548.2,4.9,634.8,4.9,740.8c0,31,7.4,61.5,21.5,88.9l30.8-54.3l63.4,0.4
			c-4.9-11-7.4-22.9-7.4-35c0-46.2,36.7-84.2,82.5-86.2L227.5,600.3z"/>
	</g>
	<g>
		<path class="st38" d="M268.8,791c-16.1,22.1-42.1,35.5-69.7,35.5c-29.4,0-57-15.2-72.8-40l-62.9-0.4l-30.9,54.5
			c35.1,58.2,98.7,94.2,166.7,94.2c66.1,0,127.8-33.9,163.5-89.1l-62.4,0.4L268.8,791z"/>
		<path class="st38" d="M369.3,834.4c15.9-28.7,24.3-61.2,24.3-94.1c0-104.1-82.1-189.3-184.9-194.3l31.6,53.8l-32.1,54.7
			c43.3,4.6,77.2,41.3,77.2,85.8c0,13.9-3.4,27.6-9.8,39.9l31.1,54.7L369.3,834.4z"/>
		<path class="st38" d="M227.2,599.8l-31.7-54C89.9,547.7,4.6,634.3,4.6,740.3c0,31,7.4,61.5,21.5,88.9l30.8-54.3l63.4,0.4
			c-4.9-11-7.4-22.9-7.4-35c0-46.2,36.7-84.2,82.5-86.2L227.2,599.8z"/>
	</g>
	<g>
		<path class="st39" d="M268.5,790.6c-16.1,22.1-42.1,35.5-69.7,35.5c-29.4,0-57-15.2-72.8-40L63,785.7l-30.9,54.5
			c35.1,58.2,98.7,94.2,166.7,94.2c66.1,0,127.8-33.9,163.5-89.1l-62.4,0.4L268.5,790.6z"/>
		<path class="st39" d="M369,833.9c15.9-28.7,24.3-61.2,24.3-94.1c0-104.1-82.1-189.3-184.9-194.3l31.6,53.8L207.8,654
			c43.3,4.6,77.2,41.3,77.2,85.8c0,13.9-3.4,27.6-9.8,39.9l31.1,54.7L369,833.9z"/>
		<path class="st39" d="M226.9,599.4l-31.7-54C89.6,547.2,4.2,633.8,4.2,739.8c0,31,7.4,61.5,21.5,88.9l30.8-54.3l63.4,0.4
			c-4.9-11-7.4-22.9-7.4-35c0-46.2,36.7-84.2,82.5-86.2L226.9,599.4z"/>
	</g>
	<g>
		<path class="st40" d="M268.2,790.1c-16.1,22.1-42.1,35.5-69.7,35.5c-29.4,0-57-15.2-72.8-40l-62.9-0.4l-30.9,54.5
			c35.1,58.2,98.7,94.2,166.7,94.2c66.1,0,127.8-33.9,163.5-89.1l-62.4,0.4L268.2,790.1z"/>
		<path class="st40" d="M368.7,833.5c15.9-28.7,24.3-61.2,24.3-94.1C392.9,635.3,310.8,550,208,545l31.6,53.8l-32.1,54.7
			c43.3,4.6,77.2,41.3,77.2,85.8c0,13.9-3.4,27.6-9.8,39.9l31.1,54.7L368.7,833.5z"/>
		<path class="st40" d="M226.6,598.9l-31.7-54C89.3,546.8,3.9,633.3,3.9,739.3c0,31,7.4,61.5,21.5,88.9l30.8-54.3l63.4,0.4
			c-4.9-11-7.4-22.9-7.4-35c0-46.2,36.7-84.2,82.5-86.2L226.6,598.9z"/>
	</g>
	<g>
		<path class="st41" d="M267.8,789.6c-16.1,22.1-42.1,35.5-69.7,35.5c-29.4,0-57-15.2-72.8-40l-62.9-0.4l-30.9,54.5
			c35.1,58.2,98.7,94.2,166.7,94.2c66.1,0,127.8-33.9,163.5-89.1l-62.4,0.4L267.8,789.6z"/>
		<path class="st41" d="M368.4,833c15.9-28.7,24.3-61.2,24.3-94.1c0-104.1-82.1-189.3-184.9-194.3l31.6,53.8L207.2,653
			c43.3,4.6,77.2,41.3,77.2,85.8c0,13.9-3.4,27.6-9.8,39.9l31.1,54.7L368.4,833z"/>
		<path class="st41" d="M226.2,598.4l-31.7-54C88.9,546.3,3.6,632.8,3.6,738.8c0,31,7.4,61.5,21.5,88.9l30.8-54.3l63.4,0.4
			c-4.9-11-7.4-22.9-7.4-35c0-46.2,36.7-84.2,82.5-86.2L226.2,598.4z"/>
	</g>
	<g>
		<path class="st42" d="M267.5,789.1c-16.1,22.1-42.1,35.5-69.7,35.5c-29.4,0-57-15.2-72.8-40l-62.9-0.4l-30.9,54.5
			c35.1,58.2,98.7,94.2,166.7,94.2c66.1,0,127.8-33.9,163.5-89.1l-62.4,0.4L267.5,789.1z"/>
		<path class="st42" d="M368,832.5c15.9-28.7,24.3-61.2,24.3-94.1c0-104.1-82.1-189.3-184.9-194.3l31.6,53.8l-32.1,54.7
			c43.3,4.6,77.2,41.3,77.2,85.8c0,13.9-3.4,27.6-9.8,39.9l31.1,54.7L368,832.5z"/>
		<path class="st42" d="M225.9,597.9l-31.7-54C88.6,545.8,3.3,632.4,3.3,738.3c0,31,7.4,61.5,21.5,88.9l30.8-54.3l63.4,0.4
			c-4.9-11-7.4-22.9-7.4-35c0-46.2,36.7-84.2,82.5-86.2L225.9,597.9z"/>
	</g>
	<g>
		<path class="st43" d="M267.2,788.6c-16.1,22.1-42.1,35.5-69.7,35.5c-29.4,0-57-15.2-72.8-40l-62.9-0.4l-30.9,54.5
			c35.1,58.2,98.7,94.2,166.7,94.2c66.1,0,127.8-33.9,163.5-89.1l-62.4,0.4L267.2,788.6z"/>
		<path class="st43" d="M367.7,832c15.9-28.7,24.3-61.2,24.3-94.1c0-104.1-82.1-189.3-184.9-194.3l31.6,53.8l-32.1,54.7
			c43.3,4.6,77.2,41.3,77.2,85.8c0,13.9-3.4,27.6-9.8,39.9l31.1,54.7L367.7,832z"/>
		<path class="st43" d="M225.6,597.4l-31.7-54C88.3,545.3,2.9,631.9,2.9,737.9c0,31,7.4,61.5,21.5,88.9l30.8-54.3l63.4,0.4
			c-4.9-11-7.4-22.9-7.4-35c0-46.2,36.7-84.2,82.5-86.2L225.6,597.4z"/>
	</g>
	<g>
		<path class="st44" d="M266.9,788.1c-16.1,22.1-42.1,35.5-69.7,35.5c-29.4,0-57-15.2-72.8-40l-62.9-0.4l-30.9,54.5
			c35.1,58.2,98.7,94.2,166.7,94.2c66.1,0,127.8-33.9,163.5-89.1l-62.4,0.4L266.9,788.1z"/>
		<path class="st44" d="M367.4,831.5c15.9-28.7,24.3-61.2,24.3-94.1c0-104.1-82.1-189.3-184.9-194.3l31.6,53.8l-32.1,54.7
			c43.3,4.6,77.2,41.3,77.2,85.8c0,13.9-3.4,27.6-9.8,39.9l31.1,54.7L367.4,831.5z"/>
		<path class="st44" d="M225.3,596.9l-31.7-54C88,544.8,2.6,631.4,2.6,737.4c0,31,7.4,61.5,21.5,88.9l30.8-54.3l63.4,0.4
			c-4.9-11-7.4-22.9-7.4-35c0-46.2,36.7-84.2,82.5-86.2L225.3,596.9z"/>
	</g>
	<g>
		<path class="st45" d="M266.5,787.6c-16.1,22.1-42.1,35.5-69.7,35.5c-29.4,0-57-15.2-72.8-40l-62.9-0.4l-30.9,54.5
			c35.1,58.2,98.7,94.2,166.7,94.2c66.1,0,127.8-33.9,163.5-89.1l-62.4,0.4L266.5,787.6z"/>
		<path class="st45" d="M367.1,831c15.9-28.7,24.3-61.2,24.3-94.1c0-104.1-82.1-189.3-184.9-194.3l31.6,53.8l-32.1,54.7
			c43.3,4.6,77.2,41.3,77.2,85.8c0,13.9-3.4,27.6-9.8,39.9l31.1,54.7L367.1,831z"/>
		<path class="st45" d="M224.9,596.4l-31.7-54C87.6,544.3,2.3,630.9,2.3,736.9c0,31,7.4,61.5,21.5,88.9l30.8-54.3l63.4,0.4
			c-4.9-11-7.4-22.9-7.4-35c0-46.2,36.7-84.2,82.5-86.2L224.9,596.4z"/>
	</g>
	<g>
		<path class="st46" d="M266.2,787.1c-16.1,22.1-42.1,35.5-69.7,35.5c-29.4,0-57-15.2-72.8-40l-62.9-0.4l-30.9,54.5
			c35.1,58.2,98.7,94.2,166.7,94.2c66.1,0,127.8-33.9,163.5-89.1l-62.4,0.4L266.2,787.1z"/>
		<path class="st46" d="M366.7,830.5c15.9-28.7,24.3-61.2,24.3-94.1c0-104.1-82.1-189.3-184.9-194.3l31.6,53.8l-32.1,54.7
			c43.3,4.6,77.2,41.3,77.2,85.8c0,13.9-3.4,27.6-9.8,39.9L304,831L366.7,830.5z"/>
		<path class="st46" d="M224.6,595.9l-31.7-54C87.3,543.8,2,630.4,2,736.4c0,31,7.4,61.5,21.5,88.9L54.2,771l63.4,0.4
			c-4.9-11-7.4-22.9-7.4-35c0-46.2,36.7-84.2,82.5-86.2L224.6,595.9z"/>
	</g>
	<g>
		<path class="st47" d="M265.9,786.7c-16.1,22.1-42.1,35.5-69.7,35.5c-29.4,0-57-15.2-72.8-40l-62.9-0.4l-30.9,54.5
			c35.1,58.2,98.7,94.2,166.7,94.2c66.1,0,127.8-33.9,163.5-89.1l-62.4,0.4L265.9,786.7z"/>
		<path class="st47" d="M366.4,830.1c15.9-28.7,24.3-61.2,24.3-94.1c0-104.1-82.1-189.3-184.9-194.3l31.6,53.8l-32.1,54.7
			c43.3,4.6,77.2,41.3,77.2,85.8c0,13.9-3.4,27.6-9.8,39.9l31.1,54.7L366.4,830.1z"/>
		<path class="st47" d="M224.3,595.5l-31.7-54C87,543.3,1.6,629.9,1.6,735.9c0,31,7.4,61.5,21.5,88.9l30.8-54.3l63.4,0.4
			c-4.9-11-7.4-22.9-7.4-35c0-46.2,36.7-84.2,82.5-86.2L224.3,595.5z"/>
	</g>
	<g>
		<path class="st48" d="M265.6,786.2c-16.1,22.1-42.1,35.5-69.7,35.5c-29.4,0-57-15.2-72.8-40l-62.9-0.4l-30.9,54.5
			c35.1,58.2,98.7,94.2,166.7,94.2c66.1,0,127.8-33.9,163.5-89.1l-62.4,0.4L265.6,786.2z"/>
		<path class="st48" d="M366.1,829.6c15.9-28.7,24.3-61.2,24.3-94.1c0-104.1-82.1-189.3-184.9-194.3L237,595l-32.1,54.7
			c43.3,4.6,77.2,41.3,77.2,85.8c0,13.9-3.4,27.6-9.8,39.9l31.1,54.7L366.1,829.6z"/>
		<path class="st48" d="M224,595l-31.7-54C86.7,542.9,1.3,629.4,1.3,735.4c0,31,7.4,61.5,21.5,88.9L53.6,770l63.4,0.4
			c-4.9-11-7.4-22.9-7.4-35c0-46.2,36.7-84.2,82.5-86.2L224,595z"/>
	</g>
	<g>
		<path class="st49" d="M265.2,785.7c-16.1,22.1-42.1,35.5-69.7,35.5c-29.4,0-57-15.2-72.8-40l-62.9-0.4l-30.9,54.5
			c35.1,58.2,98.7,94.2,166.7,94.2c66.1,0,127.8-33.9,163.5-89.1l-62.4,0.4L265.2,785.7z"/>
		<path class="st49" d="M365.8,829.1c15.9-28.7,24.3-61.2,24.3-94.1c0-104.1-82.1-189.3-184.9-194.3l31.6,53.8l-32.1,54.7
			c43.3,4.6,77.2,41.3,77.2,85.8c0,13.9-3.4,27.6-9.8,39.9l31.1,54.7L365.8,829.1z"/>
		<path class="st49" d="M223.6,594.5l-31.7-54C86.3,542.4,1,629,1,734.9c0,31,7.4,61.5,21.5,88.9l30.8-54.3l63.4,0.4
			c-4.9-11-7.4-22.9-7.4-35c0-46.2,36.7-84.2,82.5-86.2L223.6,594.5z"/>
	</g>
	<g>
		<path class="st50" d="M264.9,785.2c-16.1,22.1-42.1,35.5-69.7,35.5c-29.4,0-57-15.2-72.8-40l-62.9-0.4l-30.9,54.5
			C63.6,893,127.2,929,195.2,929c66.1,0,127.8-33.9,163.5-89.1l-62.4,0.4L264.9,785.2z"/>
		<path class="st50" d="M365.4,828.6c15.9-28.7,24.3-61.2,24.3-94.1c0-104.1-82.1-189.3-184.9-194.3l31.6,53.8l-32.1,54.7
			c43.3,4.6,77.2,41.3,77.2,85.8c0,13.9-3.4,27.6-9.8,39.9l31.1,54.7L365.4,828.6z"/>
		<path class="st50" d="M223.3,594l-31.7-54C86,541.9,0.7,628.5,0.7,734.5c0,31,7.4,61.5,21.5,88.9L52.9,769l63.4,0.4
			c-4.9-11-7.4-22.9-7.4-35c0-46.2,36.7-84.2,82.5-86.2L223.3,594z"/>
	</g>
	<g>
		<path class="st51" d="M264.6,784.7c-16.1,22.1-42.1,35.5-69.7,35.5c-29.4,0-57-15.2-72.8-40l-62.9-0.4l-30.9,54.5
			c35.1,58.2,98.7,94.2,166.7,94.2c66.1,0,127.8-33.9,163.5-89.1l-62.4,0.4L264.6,784.7z"/>
		<path class="st51" d="M365.1,828.1c15.9-28.7,24.3-61.2,24.3-94.1c0-104.1-82.1-189.3-184.9-194.3l31.6,53.8l-32.1,54.7
			c43.3,4.6,77.2,41.3,77.2,85.8c0,13.9-3.4,27.6-9.8,39.9l31.1,54.7L365.1,828.1z"/>
		<path class="st51" d="M223,593.5l-31.7-54C85.7,541.4,0.3,628,0.3,734c0,31,7.4,61.5,21.5,88.9l30.8-54.3L116,769
			c-4.9-11-7.4-22.9-7.4-35c0-46.2,36.7-84.2,82.5-86.2L223,593.5z"/>
	</g>
	<g>
		<path d="M264.3,784.2c-16.1,22.1-42.1,35.5-69.7,35.5c-29.4,0-57-15.2-72.8-40l-62.9-0.4l-30.9,54.5C63,892,126.5,928,194.5,928
			c66.1,0,127.8-33.9,163.5-89.1l-62.4,0.4L264.3,784.2z"/>
		<path d="M364.8,827.6c15.9-28.7,24.3-61.2,24.3-94.1c0-104.1-82.1-189.3-184.9-194.3l31.6,53.8l-32.1,54.7
			c43.3,4.6,77.2,41.3,77.2,85.8c0,13.9-3.4,27.6-9.8,39.9l31.1,54.7L364.8,827.6z"/>
		<path d="M222.7,593l-31.7-54C85.4,540.9,0,627.5,0,733.5c0,31,7.4,61.5,21.5,88.9l30.8-54.3l63.4,0.4c-4.9-11-7.4-22.9-7.4-35
			c0-46.2,36.7-84.2,82.5-86.2L222.7,593z"/>
	</g>
</g>
<g id="Arrows_00000060024650012922951940000011918639922429832631_">
	<g>
		<path class="st52" d="M264.3,784.2c-16.1,22.1-42.1,35.5-69.7,35.5c-29.4,0-57-15.2-72.8-40l-62.9-0.4l-30.9,54.5
			C63,892,126.5,928,194.5,928c66.1,0,127.8-33.9,163.5-89.1l-62.4,0.4L264.3,784.2z"/>
	</g>
	<g>
		<path class="st53" d="M364.8,827.6c15.9-28.7,24.3-61.2,24.3-94.1c0-104.1-82.1-189.3-184.9-194.3l31.6,53.8l-32.1,54.7
			c43.3,4.6,77.2,41.3,77.2,85.8c0,13.9-3.4,27.6-9.8,39.9l31.1,54.7L364.8,827.6z"/>
	</g>
	<g>
		<path class="st54" d="M222.7,593l-31.7-54C85.4,540.9,0,627.5,0,733.5c0,31,7.4,61.5,21.5,88.9l30.8-54.3l63.4,0.4
			c-4.9-11-7.4-22.9-7.4-35c0-46.2,36.7-84.2,82.5-86.2L222.7,593z"/>
	</g>
</g>
<text transform="matrix(1 0 0 1 17.6738 697.3348)" class="st1" style="font-family:'SourceHanSansTC-Bold-B5pc-H'; font-size:30.5635px;"></text>
<text transform="matrix(1 0 0 1 283.239 700.4652)" class="st1" style="font-family:'SourceHanSansTC-Bold-B5pc-H'; font-size:30.5635px;"></text>
<text transform="matrix(1 0 0 1 147.326 875.7696)" class="st1" style="font-family:'SourceHanSansTC-Bold-B5pc-H'; font-size:30.5635px;"></text>
<text transform="matrix(1 0 0 1 124.2319 727.0297)"><tspan x="0" y="0" class="st55" style="font-family:'SourceHanSansTC-Bold-B5pc-H'; font-size:20.6463px;"></tspan><tspan x="0" y="24.8" class="st55" style="font-family:'SourceHanSansTC-Bold-B5pc-H'; font-size:20.6463px;"></tspan></text>
<g>
	<path class="st1" d="M73.2,617c1-1.3,2.9-1.5,4.2-0.5c1.3,1,1.5,2.9,0.5,4.2L63.5,639c-2.1-0.8-4.6-1.1-6.6-1.2L73.2,617L73.2,617z
		 M77.5,633.8c-1,1-1,2.7,0,3.7c1,1,2.7,1,3.7,0s1-2.7,0-3.7C80.2,632.8,78.5,632.8,77.5,633.8L77.5,633.8z M60.4,618.4
		c3.3,3.3,3.3,8.8,0,12.1c-3.3,3.3-8.8,3.3-12.1,0c-3.3-3.3-3.3-8.8,0-12.1C51.6,615,57.1,615,60.4,618.4L60.4,618.4z M56.2,622.6
		c-1-1-2.7-1-3.7,0c-1,1-1,2.7,0,3.7c1,1,2.7,1,3.7,0C57.2,625.3,57.2,623.6,56.2,622.6L56.2,622.6z M73.3,629.6
		c3.3-3.3,8.8-3.3,12.1,0c3.3,3.3,3.3,8.8,0,12.1c-0.7,0.7-1.5,1.2-2.3,1.7c-1.7-0.2-3.3-0.3-4.3-0.3c-0.8,0-2.1,0-3.4,0.2
		c-0.8-0.4-1.5-0.9-2.1-1.5C69.9,638.4,69.9,632.9,73.3,629.6L73.3,629.6z"/>
	<path class="st56" d="M78.8,647.6c-3.9,0-7,0.4-7,0.9c0,0.5,3.1,0.9,7,0.9c3.9,0,7-0.4,7-0.9C85.8,648,82.6,647.6,78.8,647.6
		L78.8,647.6z M73.9,654.9c1.4,0.2,3.1,0.4,4.8,0.4c2.4,0,4.7-0.3,6.5-0.7c1.4,0.2,2.2,0.3,2.2,0.7c0,0.4-3.1,0.9-7,0.9
		c-3.9,0-7-0.6-7-0.9C73.4,655,73.6,655.1,73.9,654.9L73.9,654.9z M68.5,652.2c0,0.8,0.9,1.5,2.3,2c-0.4,0.4-0.7,0.7-0.7,1.1v3.7
		c0,1.8,4.6,3.2,10.3,3.2c5.7,0,10.3-1.4,10.3-3.2c0-1.2,0-2.4,0-3.7c0-0.8-0.9-1.5-2.3-2c0.4-0.4,0.7-0.7,0.7-1.1
		c0-1.2,0-2.4,0-3.7c0-1.8-4.6-3.2-10.3-3.2c-5.7,0-10.3,1.4-10.3,3.2V652.2L68.5,652.2z M54.9,642.2c3.9,0,7,0.4,7,0.9
		c0,0.5-3.1,0.9-7,0.9c-3.9,0-7-0.4-7-0.9C47.8,642.6,51,642.2,54.9,642.2L54.9,642.2z M59.7,649.6c0.3,0.1,0.5,0.2,0.5,0.3
		c0,0.5-3.1,0.9-7,0.9c-3.9,0-7-0.4-7-0.9c0-0.3,0.9-0.5,2.2-0.7c1.8,0.4,4,0.7,6.5,0.7C56.6,650,58.3,649.9,59.7,649.6L59.7,649.6z
		 M59.7,656.1c1.4,0.2,2.2,0.4,2.2,0.7c0,0.5-3.1,0.9-7,0.9c-3.9,0-7-0.4-7-0.9c0-0.1,0.2-0.2,0.5-0.3c1.4,0.2,3.1,0.4,4.8,0.4
		C55.7,656.8,57.9,656.6,59.7,656.1L59.7,656.1z M65.1,660.5c0,1.8-4.6,3.2-10.3,3.2c-5.7,0-10.3-1.4-10.3-3.2c0-1.2,0-2.4,0-3.7
		c0-0.4,0.2-0.8,0.7-1.1c-1.5-0.5-2.3-1.2-2.3-2c0-1.2,0-2.4,0-3.7c0-0.8,0.9-1.5,2.3-2c-0.4-0.4-0.7-0.7-0.7-1.1c0-1.2,0-2.4,0-3.7
		c0-1.8,4.6-3.2,10.3-3.2c5.7,0,10.3,1.4,10.3,3.2v3.7c0,0.8-0.9,1.5-2.3,2c0.4,0.4,0.7,0.7,0.7,1.1v3.7c0,0.4-0.2,0.8-0.7,1.1
		c1.5,0.5,2.3,1.2,2.3,2V660.5L65.1,660.5z"/>
</g>
<g>
	<path class="st56" d="M315.3,628.6L315.3,628.6c0,1.9-5,3.5-11.2,3.5c-6.2,0-11.2-1.6-11.2-3.5v0v-4.2l0,0c0-1.9,5-3.5,11.2-3.5
		c6.2,0,11.2,1.6,11.2,3.5l0,0V628.6L315.3,628.6z M304,623.4c3.6,0,6.5,0.5,6.5,1c0,0.6-2.9,1-6.5,1c-3.6,0-6.5-0.5-6.5-1
		C297.6,623.9,300.5,623.4,304,623.4L304,623.4z"/>
	<path class="st56" d="M318.7,635.6L318.7,635.6c0,0.2-0.1,0.4-0.2,0.6c-4.7,1.4-8.5,5-10.2,9.5c-1.3,0.2-2.8,0.3-4.3,0.3
		c-0.5,0-1,0-1.4,0c1.2,0.2,2.9,0.4,4.9,0.4c0.2,0,0.4,0,0.6,0c-0.5,1.6-0.8,3.3-0.8,5.1c0,0.5,0,1,0.1,1.5c-3.5,0-6.6-0.5-8.7-1.3
		c-0.7,0.2-1.2,0.4-1.2,0.6c0,0.6,2.9,1,6.5,1c1.2,0,2.4-0.1,3.3-0.1c0.2,2.3,1,4.4,2.1,6.3c-1.6,0.3-3.5,0.4-5.4,0.4
		c-6.2,0-11.2-1.6-11.2-3.5v0v-4.2l0,0c0-1,1.3-1.9,3.5-2.5c0-0.1,0-0.2,0-0.2l0,0v-4.2l0,0c0-0.1,0-0.2,0-0.2
		c-2.1-0.6-3.5-1.5-3.5-2.5v0v-4.2l0,0c0-1,1.3-1.9,3.5-2.5c0-0.1,0-0.2,0-0.2v0v-4.2v0c0-1.9,5-3.5,11.2-3.5s11.2,1.6,11.2,3.5v0
		V635.6L318.7,635.6z M308.9,639c-0.5,0-0.9,0-1.4,0c-3.6,0-6.7-0.5-8.8-1.3c-0.7,0.2-1.2,0.4-1.2,0.6c0,0.6,2.9,1,6.5,1
		C306,639.4,307.7,639.2,308.9,639L308.9,639z M307.5,630.4c3.6,0,6.5,0.5,6.5,1s-2.9,1-6.5,1c-3.6,0-6.5-0.5-6.5-1
		S303.9,630.4,307.5,630.4L307.5,630.4z"/>
	<path class="st1" d="M322.4,652.3c-2-0.7-3.4-1.6-3.4-3.5c0-1.6,1-2.8,2.8-3.3c0.2-0.1,0.3-0.3,0.3-0.5v-0.9c0-0.3,0.3-0.5,0.5-0.5
		l0.9,0c0.3,0,0.5,0.3,0.5,0.5v0.7c0,0.2,0.2,0.5,0.4,0.5c0.8,0.1,1.4,0.2,1.9,0.4c0.2,0.1,0.3,0.3,0.3,0.6l-0.3,1.2
		c0,0.1-0.1,0.2-0.2,0.3c-0.1,0.1-0.3,0.1-0.4,0c-0.5-0.2-1.2-0.4-2.2-0.4c-1.2,0-1.6,0.6-1.6,1.1c0,0.6,0.7,1,2.3,1.6
		c2.2,0.8,3.1,1.8,3.1,3.6c0,1.6-1,3-2.9,3.4c-0.2,0.1-0.3,0.3-0.3,0.5v1c0,0.3-0.3,0.5-0.5,0.5l-0.9,0c-0.3,0-0.5-0.3-0.5-0.5v-0.9
		c0-0.2-0.2-0.4-0.5-0.5c-0.9-0.1-1.8-0.3-2.4-0.6c-0.2-0.1-0.3-0.3-0.3-0.6l0.3-1.3c0-0.1,0.1-0.2,0.3-0.3c0.1-0.1,0.3-0.1,0.4,0
		c0.7,0.3,1.6,0.6,2.6,0.6c1.1,0,1.8-0.4,1.8-1.2C324.4,653.2,323.8,652.8,322.4,652.3L322.4,652.3z M323.2,637.5
		c7.6,0,13.8,6.2,13.8,13.8c0,7.6-6.2,13.8-13.8,13.8c-7.6,0-13.8-6.2-13.8-13.8C309.4,643.7,315.6,637.5,323.2,637.5L323.2,637.5z
		 M330,644.5c-1.7-1.8-4.2-2.8-6.8-2.8c-2.7,0-5.1,1.1-6.8,2.8c-1.7,1.8-2.8,4.2-2.8,6.8c0,2.7,1.1,5.1,2.8,6.8
		c1.7,1.8,4.2,2.8,6.8,2.8c2.7,0,5.1-1.1,6.8-2.8c1.7-1.8,2.8-4.2,2.8-6.8C332.9,648.7,331.8,646.3,330,644.5L330,644.5z"/>
</g>
<g>
	<path class="st1" d="M138.6,870.9c-2.5,0-3.8,3.1-2,4.8c1.8,1.8,4.8,0.5,4.8-2C141.5,872.2,140.2,870.9,138.6,870.9L138.6,870.9z
		 M121.6,870.9c-2.5,0-3.8,3.1-2,4.8c1.8,1.8,4.8,0.5,4.8-2C124.4,872.2,123.2,870.9,121.6,870.9L121.6,870.9z M117.6,869.7
		c0.7-0.7,1.6-1.2,2.6-1.5v-4.8H112c-2.9,0-5.3,2-5.9,4.8c4.2,1.2,5.6,6.4,2.5,9.5c-2.2,2.2-5.8,2.2-8,0c-3.1-3.1-1.6-8.5,2.7-9.5
		c0.6-4.3,4.3-7.6,8.8-7.6h8.2v-3.3c0.5,0.1,0.9,0.1,1.4,0.1c0.5,0,1,0,1.4-0.1v3.3l8.2,0c4.4,0,8.2,3.3,8.8,7.6
		c4.3,1,5.8,6.4,2.7,9.5c-2.2,2.2-5.8,2.2-8,0c-3.1-3.1-1.7-8.3,2.5-9.5c-0.6-2.8-3-4.8-5.9-4.8H123v4.8c4.2,1.1,5.7,6.4,2.6,9.5
		c-2.2,2.2-5.8,2.2-8,0C115.4,875.5,115.4,871.9,117.6,869.7L117.6,869.7z M106.6,871.7c-1.8-1.8-4.8-0.5-4.8,2c0,2.5,3.1,3.8,4.8,2
		C107.7,874.6,107.7,872.8,106.6,871.7L106.6,871.7z"/>
	<path class="st56" d="M121.6,834c5.9,0,10.6,4.8,10.6,10.6c0,5.9-4.8,10.6-10.6,10.6c-5.9,0-10.6-4.8-10.6-10.6
		C111,838.7,115.7,834,121.6,834L121.6,834z M121,845.6c-2.1-0.7-3.5-1.7-3.5-3.6c0-1.6,1-2.9,2.9-3.4c0.2-0.1,0.3-0.3,0.3-0.5v-0.4
		c0-0.3,0.3-0.5,0.5-0.5l0.9,0c0.3,0,0.5,0.3,0.5,0.5v0.2c0,0.3,0.2,0.5,0.5,0.5c0.8,0.1,1.4,0.2,2,0.4c0.2,0.1,0.4,0.3,0.3,0.6
		l-0.3,1.2c0,0.1-0.1,0.2-0.3,0.3c-0.1,0.1-0.3,0.1-0.4,0c-0.5-0.2-1.3-0.5-2.3-0.5c-1.3,0-1.7,0.6-1.7,1.1c0,0.6,0.7,1.1,2.3,1.7
		c2.3,0.8,3.2,1.9,3.2,3.7c0,1.6-1,3.1-3,3.5c-0.2,0.1-0.3,0.3-0.3,0.5v0.5c0,0.3-0.3,0.5-0.5,0.5l-0.9,0c-0.3,0-0.5-0.3-0.5-0.5
		v-0.4c0-0.3-0.2-0.4-0.5-0.5c-0.9-0.1-1.8-0.3-2.5-0.6c-0.2-0.1-0.3-0.3-0.3-0.6l0.3-1.3c0-0.1,0.1-0.3,0.3-0.3
		c0.1-0.1,0.3-0.1,0.4,0c0.7,0.3,1.7,0.6,2.7,0.6c1.1,0,1.9-0.4,1.9-1.2C123.1,846.5,122.4,846,121,845.6L121,845.6z"/>
</g>
</svg>
