<?xml version="1.0" encoding="UTF-8"?>
<svg id="Layer_1" data-name="Layer 1" xmlns="http://www.w3.org/2000/svg" viewBox="0 0 632.62 387.74">
  <defs>
    <style>
      .cls-1 {
        fill: #f4a800;
      }

      .cls-2 {
        fill: #38e0b4;
      }

      .cls-3 {
        fill: #fff;
      }

      .cls-4 {
        fill: #ef0050;
      }

      .cls-5 {
        isolation: isolate;
      }

      .cls-6 {
        fill: #46bf00;
      }

      .cls-7 {
        fill: #3add65;
      }

      .cls-8 {
        fill: #f24400;
      }

      .cls-9 {
        fill: #34b2e4;
      }

      .cls-10 {
        fill: #a304a8;
      }

      .cls-11 {
        fill: #065381;
      }
    </style>
  </defs>
  <g>
    <g class="cls-5">
      <path d="m456.93,58.89h-5.15v-1.08h5.15v1.08Zm1.42,9.29c-1.44.86-3.71,1.71-5.49,2.2-.23-.27-.68-.77-.99-1.01,1.84-.38,4-1.03,5.28-1.73l1.21.54Zm-1.87-12.12h-4.3v-1.04h4.3v1.04Zm-2.34,4.23h11.65v7.22h-11.65v-7.22Zm1.3,2.13h9.02v-1.22h-9.02v1.22Zm0,2.09h9.02v-1.22h-9.02v1.22Zm0,2.12h9.02v-1.26h-9.02v1.26Zm4.32-10.42c-.4.68-.86,1.31-1.35,1.8-.22-.2-.72-.54-1.01-.68.94-.85,1.67-2.11,2.07-3.42l1.21.27c-.11.34-.25.67-.38.99h6.03l.22-.05.9.31c-.45.92-1.03,1.96-1.51,2.59l-1.06-.38c.27-.38.59-.9.85-1.42h-2.86v.23c0,.18-.02.38-.05.59.95,1.08,2.92,1.78,5.28,1.98-.25.25-.59.74-.76,1.06-2.05-.29-3.78-1.01-4.9-2.11-.59.88-2.02,1.71-5.19,2.2-.14-.29-.49-.77-.72-.99,4.66-.63,5.1-1.85,5.1-2.79v-.18h-1.85Zm2.7,11.42c1.93.59,4.03,1.37,5.29,1.95l-1.17.77c-1.15-.58-3.1-1.35-5.04-2l.92-.72Z"/>
      <path d="m476.23,58.1h-6.46v-1.1h6.46v1.1Zm-.67,11.2h-4.03v.85h-1.06v-6.05h5.09v5.2Zm-5.08-8.88v-1.06h5.06v1.06h-5.06Zm0,1.28h5.1v1.06h-5.1v-1.06Zm1.04,3.51v2.97h2.94v-2.97h-2.94Zm1.41-8.41c-.25-.65-.81-1.66-1.26-2.39l.95-.54c.49.74,1.03,1.69,1.31,2.32l-1.01.61Zm11.31-1.84c-.11,7.27-.14,13.52.86,13.77.11.04.23-1.12.31-2.41.22.34.58.79.77.97-.2,2.52-.77,3.1-1.6,2.75-1.76-.54-1.71-6.43-1.69-13.81h-2.99v5.31h2.38v1.24h-2.38v7.56h-1.26v-7.56h-2.43v-1.24h2.43v-5.31h-2.23v-1.28h7.83Z"/>
      <path d="m493.58,63.03c-.72.22-1.46.43-2.16.65v5.1c0,.76-.2,1.12-.67,1.33-.45.22-1.21.25-2.45.23-.04-.34-.23-.86-.41-1.22.86.02,1.64.02,1.85,0,.25,0,.36-.09.36-.34v-4.7l-2.16.63-.38-1.31c.72-.16,1.58-.38,2.54-.65v-3.93h-2.3v-1.26h2.3v-3.6h1.31v3.6h1.98v1.26h-1.98v3.57c.65-.18,1.33-.38,1.98-.58l.18,1.22Zm9.58-2.02c-.76,2.47-2.04,4.43-3.66,5.92,1.3,1.06,2.84,1.84,4.65,2.32-.29.27-.67.79-.86,1.15-1.87-.58-3.48-1.44-4.81-2.61-1.53,1.17-3.28,2-5.11,2.57-.14-.36-.47-.92-.72-1.21,1.75-.47,3.42-1.22,4.88-2.29-1.26-1.35-2.25-3.01-2.95-4.93l.05-.02h-.59v-1.24h3.85v-2.68h-4.21v-1.24h4.21v-2.83h1.31v2.83h4.3v1.24h-4.3v2.68h2.86l.22-.05.88.38Zm-7.27.92c.61,1.57,1.51,2.99,2.65,4.14,1.24-1.12,2.25-2.5,2.9-4.14h-5.55Z"/>
      <path d="m510.37,57.95c-.43.92-.96,1.84-1.55,2.7v9.76h-1.24v-8.12c-.5.59-1.03,1.13-1.55,1.6-.14-.27-.56-.9-.79-1.17,1.51-1.26,3.01-3.19,3.92-5.17l1.21.4Zm-.45-3.56c-.85,1.49-2.29,3.15-3.64,4.2-.14-.27-.5-.74-.72-.99,1.21-.92,2.5-2.41,3.13-3.62l1.22.41Zm2.09,6.34c-.04,3.47-.25,5.82-1.62,7.2-.14-.23-.49-.61-.72-.79,1.15-1.22,1.3-3.24,1.33-6.41h1.01Zm2.16-1.19v10.8h-1.19v-10.8h-2.67v-1.24h2.67v-4.2h1.19v4.2h2.97v1.24h-2.97Zm2.23-1.69c-.29-.67-.99-1.67-1.6-2.41l.85-.49c.63.72,1.35,1.71,1.64,2.36l-.88.54Zm.65,8.5c.18,0,.41,0,.58-.05.02.27.07.72.09.97-.16.05-.4.07-.67.07h-.65c-1.03,0-1.22-.4-1.22-1.58v-5.02h1.03v5.04c0,.47.02.58.18.58h.67Zm4.99-5.56h-1.6v7.83c0,.76-.14,1.12-.63,1.35-.52.22-1.33.23-2.59.23-.05-.38-.22-.92-.4-1.3.94.02,1.76.02,2.02.02.25-.02.32-.07.32-.31v-7.83h-2.05v-1.21h4.93v1.21Zm-.23-4.18h-4.27v-1.21h4.27v1.21Z"/>
      <path d="m462.03,94.52v.81h4.29v6.01h-1.26v-.7h-10.33v.7h-1.22v-6.01h4.5v-.81h-6.34v-.94h16.35v.94h-5.98Zm-9.33-8.17h-.56v-.86h7.9v.86h-6.28v4.88c0,.65.18.87.83.87h3.8c.45,0,1.26-.02,1.6-.09.04.29.07.65.13.88-.31.09-.99.11-1.66.11h-3.92c-1.4,0-1.84-.49-1.84-1.8v-4.84Zm4.65,3.38l-.02.04c.83.45,1.75,1.1,2.25,1.53l-.58.63c-.45-.41-1.24-.99-1.98-1.46-.36.56-1.01,1.13-2.16,1.57-.13-.23-.4-.5-.59-.68,1.33-.41,1.87-1.03,2.11-1.62h-2.23v-.77h2.39v-.97h-1.1c-.22.31-.43.58-.68.81-.16-.13-.52-.34-.74-.43.58-.56,1.04-1.24,1.31-1.96l.85.22c-.07.2-.16.4-.27.61h3.58v.76h-2.03v.97h2.36v.77h-2.47Zm7.71,10.1v-2.04h-2.5c-1.28,0-1.6-.2-1.6-1.13v-.52h-1.93c-.2.88-1.04,1.58-3.6,2-.13-.23-.38-.61-.59-.79,2.09-.23,2.84-.7,3.08-1.21h-3.19v3.69h10.33Zm-8.79-1.44h7.49v.77h-7.49v-.77Zm4.68-3.87h-1.89v.81h1.89v-.81Zm-.4-5.56c-.14-.25-.52-.68-.74-.83,1.35-.54,1.6-1.15,1.6-1.78v-.92h4.29v1.67c0,.34.04.43.25.43h.79c.22,0,.54-.02.74-.05.02.25.05.65.09.9-.2.05-.5.07-.79.07h-.99c-.97,0-1.17-.38-1.17-1.37v-.68h-2.13c0,.83-.34,1.75-1.64,2.41h4.9l.22-.05.67.31c-.43.97-1.08,1.76-1.85,2.41.86.4,1.67.81,2.25,1.13l-.52.81c-.63-.38-1.57-.86-2.58-1.35-.99.61-2.09,1.04-3.22,1.33-.13-.25-.38-.63-.58-.85.94-.22,1.87-.54,2.72-.97-.74-.36-1.49-.7-2.16-.97l.49-.7c.79.31,1.69.7,2.59,1.1.52-.38,1.01-.83,1.37-1.33h-4.52v-.76l-.07.04Zm1.48,7.18v.52c0,.36.09.41.63.41h2.05c.16,0,.27,0,.34-.02v-.92h-3.02Z"/>
      <path d="m473.44,87.76v4.61c0,2.74-.36,6.55-2.58,9.04-.18-.27-.67-.74-.92-.9,1.37-1.57,1.91-3.56,2.11-5.51-.72.47-1.46.9-2.16,1.3l-.45-1.19c.7-.32,1.67-.85,2.72-1.39.02-.47.02-.9.02-1.35v-5.78h6.32c-.14-.45-.32-.97-.47-1.39l1.3-.29c.22.5.47,1.15.61,1.67h6.12v1.17h-12.62Zm-2.61,4.32c-.2-.9-.7-2.4-1.12-3.55l1.01-.38c.45,1.13.97,2.61,1.17,3.44l-1.06.49Zm14.67-.9c-.45.47-1.01.92-1.49,1.28.68.52,1.46.95,2.21,1.22-.25.23-.61.65-.79.96-.5-.23-1.03-.5-1.51-.86v3.58h-3.44v2.74c0,.65-.13.94-.63,1.13-.49.18-1.22.18-2.4.18-.07-.34-.25-.79-.43-1.1.88.04,1.64.02,1.85,0,.25,0,.31-.05.31-.25v-2.7h-3.35v-3.55c-.47.32-.99.61-1.53.9-.18-.31-.54-.7-.83-.88.85-.4,1.6-.86,2.25-1.37-.41-.4-.95-.81-1.4-1.13l.72-.61c.45.29,1.03.7,1.44,1.08.45-.43.86-.88,1.17-1.35h-3.4v-1.06h4.07c.27-.5.49-1.04.61-1.55l1.26.18c-.14.45-.34.92-.54,1.37h6.19v1.06h-3.85c.34.52.81,1.01,1.31,1.46.49-.41,1.04-.94,1.37-1.31l.83.59Zm-8.14,6.93c-.81.99-1.93,2.16-2.84,2.9-.23-.2-.72-.59-1.03-.79.94-.67,1.98-1.64,2.7-2.5l1.17.4Zm5.35-4.72h-5.73v1.1h5.73v-1.1Zm0,1.95h-5.73v1.13h5.73v-1.13Zm-.34-2.83c-.63-.63-1.19-1.33-1.62-2.07h-1.69c-.43.72-.97,1.42-1.66,2.07h4.97Zm.52,5.19c.92.85,2.16,2.02,2.79,2.74l-1.01.67c-.59-.72-1.8-1.96-2.74-2.84l.95-.56Z"/>
      <path d="m493.11,85.37c-.52,1.31-1.17,2.63-1.89,3.84v12.13h-1.28v-10.19c-.59.83-1.24,1.58-1.87,2.23-.14-.29-.52-.99-.76-1.3,1.78-1.71,3.51-4.38,4.54-7.09l1.26.38Zm3.22,10.73c-.85,1.51-2.04,3.26-3.04,4.41-.23-.22-.76-.59-1.04-.77,1.03-1.04,2.14-2.63,2.9-4.01l1.19.38Zm2.59-1.26v6.55h-1.33v-6.55h-5.2v-1.22h5.2v-2.14h-3.89v-5.69h9.27v5.69h-4.05v2.14h5.1v1.22h-5.1Zm-3.96-4.55h6.68v-3.29h-6.68v3.29Zm6,5.42c1.15,1.28,2.47,2.95,3.12,4.03l-1.08.67c-.61-1.1-1.93-2.86-3.06-4.14l1.03-.56Z"/>
      <path d="m509.94,85.3c-.34,1.19-.77,2.39-1.24,3.53v12.53h-1.19v-10.1c-.43.76-.86,1.44-1.33,2.05-.09-.32-.45-1.04-.67-1.37,1.37-1.71,2.52-4.32,3.22-6.95l1.21.31Zm3.83,6.34c-.23,2.56-.68,4.59-1.37,6.18,1.67,1.8,3.96,2.16,6.41,2.18.56,0,2.57,0,3.29-.02-.18.29-.4.83-.45,1.17h-2.88c-2.7,0-5.1-.41-6.88-2.23-.58,1.04-1.3,1.85-2.09,2.47-.2-.25-.65-.68-.9-.85.88-.63,1.6-1.48,2.18-2.61-.59-.88-1.13-2-1.53-3.4l.97-.34c.27,1.03.65,1.87,1.06,2.58.45-1.15.74-2.54.94-4.18h-1.98c-.25.14-.5.29-.5.43-.11-.23-.36-.76-.54-.99.31-.07.74-.54,1.08-1.1.29-.45,1.1-1.91,1.73-3.49h-2.34v-1.17h2.79l.38-.18.81.52c-.74,1.78-1.58,3.53-2.43,4.9h1.31l.23-.02.7.16Zm2.95-4.2h-2.25v-.99h2.25v-1.42h1.15v1.42h2.93v2.38h1.28v1.04h-1.28v2.47h-2.93v1.35h3.22v1.06h-3.22v1.39h3.8v1.1h-3.8v2.18h-1.15v-2.18h-3.01v-1.1h3.01v-1.39h-2.54v-1.06h2.54v-1.35h-2.25v-1.01h2.25v-1.46h-3.08v-1.04h3.08v-1.39Zm1.15,0v1.39h1.87v-1.39h-1.87Zm1.87,2.43h-1.87v1.46h1.87v-1.46Z"/>
      <path d="m456.93,125.48c-.25-.56-.81-1.6-1.3-2.49v9.38h-1.28v-8.59c-.58,1.94-1.35,3.8-2.16,4.95-.13-.4-.45-.97-.7-1.3,1.12-1.49,2.25-4.34,2.79-6.79h-2.32v-1.26h2.4v-3.46h1.28v3.46h2.03v1.26h-2.03v.7c.49.67,1.8,2.68,2.11,3.19l-.81.94Zm10.7-.65c-.74,1.3-1.69,2.47-2.83,3.53,1.19.95,2.61,2.14,3.33,2.93l-1.01.9c-.7-.79-2.07-2.04-3.26-3.03-1.67,1.35-3.69,2.45-5.94,3.22-.16-.31-.54-.83-.79-1.1,4.18-1.35,7.58-3.92,9.13-6.95l1.37.49Zm-1.42-3.24c-1.53,2.74-4.25,5.29-7.42,6.81-.14-.29-.5-.76-.76-1.01,1.8-.83,3.47-2.05,4.81-3.38-3.22.22-3.75.32-4.09.43-.04-.31-.25-.97-.36-1.26.34-.07.85-.2,1.15-.52.34-.36,1.35-1.98,1.96-3.02h-3.42v-1.24h4.7c-.2-.65-.54-1.48-.9-2.14l1.24-.38c.45.76.9,1.78,1.04,2.45l-.18.07h4.03v1.24h-5.08c-.61,1.01-1.48,2.38-2.12,3.37l3.06-.18c.41-.54.79-1.12,1.06-1.67l1.26.45Z"/>
      <path d="m472.63,122.53c-.29,2.11-.85,5.15-1.58,7.06l-1.33-.56c.77-1.84,1.37-4.65,1.62-6.75l1.3.25Zm2.92-1.6v8.88c0,.83.22.99,1.24.99h3.44c1.12,0,1.28-.63,1.42-3.73.32.25.88.49,1.26.59-.2,3.4-.61,4.39-2.61,4.39h-3.62c-1.95,0-2.49-.49-2.49-2.27v-8.86h1.35Zm.38-4.36c1.67,1.15,3.82,2.84,4.84,3.98l-.95.99c-.99-1.12-3.08-2.88-4.77-4.09l.88-.88Zm7.83,5.24c1.04,2.14,2.04,4.9,2.41,6.75l-1.31.52c-.36-1.85-1.33-4.68-2.34-6.79l1.24-.49Z"/>
      <path d="m490.86,123.98c-.72-.5-2.21-1.37-3.29-1.94l.72-.97c1.06.52,2.56,1.31,3.31,1.82l-.74,1.1Zm-2.7,7.26c.95-1.37,2.38-3.73,3.4-5.76l.97.88c-.95,1.89-2.2,4.12-3.26,5.78l-1.12-.9Zm1.15-15.05c1.06.59,2.52,1.44,3.28,1.96l-.81,1.06c-.72-.54-2.16-1.46-3.24-2.11l.77-.92Zm13.67,14.51c0,.76-.16,1.15-.7,1.37s-1.44.22-2.81.22c-.04-.36-.23-.9-.41-1.28,1.03.05,1.96.05,2.23.04.29-.02.38-.09.38-.36v-3.37c-2.14.56-4.38,1.1-6.07,1.5l-.45-1.15c1.66-.34,4.12-.88,6.52-1.46v-3.92h-6.75v3.73c0,1.98-.18,4.65-1.24,6.46-.22-.23-.74-.65-1.03-.79.92-1.64,1.01-3.89,1.01-5.67v-4.95h4.05v-5.11h1.31v5.11h3.96v9.65Zm-7.99-10.28c-.27-.92-1.04-2.34-1.8-3.37l1.12-.52c.79,1.01,1.6,2.38,1.89,3.29l-1.21.59Zm.99,3.04c1.6.31,3.6.95,4.66,1.49l-.52.97c-1.04-.58-3.04-1.26-4.66-1.6l.52-.86Zm7.63-6.5c-.61,1.17-1.39,2.48-2.04,3.37l-1.15-.49c.65-.92,1.48-2.36,1.91-3.4l1.28.52Z"/>
      <path d="m512.39,130.29c-1.48.83-3.75,1.64-5.56,2.11-.2-.27-.67-.77-.95-1.01,1.84-.34,4.03-.97,5.31-1.64l1.21.54Zm4.32-.56c1.87.54,3.83,1.22,5.06,1.75l-1.01.83c-1.21-.56-3.24-1.31-5.29-1.93l.67-.65h-7.98v-5.71c-.47.14-1.01.27-1.6.4-.13-.31-.41-.79-.63-1.04,2.27-.41,3.58-.99,4.34-1.67h-3.06c.16-.79.34-1.91.45-2.84h3.58v-1.03h-4.39v-.88h4.39v-.99h1.22v.99h2.77v-.99h1.26v.99h4.02v2.79h-4.02v1.08h5.13s-.02.27-.04.43c-.11.97-.22,1.49-.47,1.73-.23.22-.5.31-.86.32-.13,0-.29.02-.47.02v6.41h-3.08Zm-8-9.99c-.05.38-.11.74-.16,1.08h2.38c.16-.34.23-.7.27-1.08h-2.49Zm9.74,4.11h-9v1.12h9v-1.12Zm0,1.94h-9v1.1h9v-1.1Zm-9,3.08h9v-1.13h-9v1.13Zm2.43-7.17c-.27.47-.68.9-1.28,1.28h8.03c-.04-.2-.13-.41-.22-.58.56.05,1.04.07,1.24.07s.32-.02.41-.13c.09-.09.16-.27.22-.65h-3.8v1.24h-1.26v-1.24h-3.35Zm3.35-1.96h-2.81c-.02.38-.07.74-.18,1.08h2.99v-1.08Zm-2.77-.88h2.77v-1.03h-2.77v1.03Zm4.03-1.03v1.03h2.79v-1.03h-2.79Z"/>
      <path d="m467.9,160.67v1.33h-16.06v-1.33h7.24v-10.34h-6.3v-1.37h14.22v1.37h-6.46v10.34h7.36Z"/>
      <path d="m476.3,160.49c-1.3.97-3.65,1.89-5.53,2.32-.18-.32-.54-.76-.81-1.01,1.85-.31,4.14-1.01,5.33-1.78l1.01.47Zm9.4-2.5v1.13h-7.22v4.27h-1.31v-4.27h-7.11v-1.13h7.11v-1.35h-5.42v-1.03h5.42v-1.3h-6.34v-1.08h3.89c-.18-.5-.54-1.21-.92-1.73l.95-.25h-4.65v-1.12h2.9c-.27-.72-.88-1.8-1.44-2.61l1.13-.4c.63.81,1.28,1.93,1.53,2.65l-.9.36h2.2v-3.19h1.26v3.19h2.14v-3.19h1.28v3.19h2.18l-.72-.23c.5-.74,1.08-1.93,1.39-2.74l1.37.38c-.5.92-1.1,1.91-1.57,2.59h2.77v1.12h-4.68l1.17.32c-.41.59-.85,1.21-1.24,1.66h4.12v1.08h-6.52v1.3h5.64v1.03h-5.64v1.35h7.22Zm-10.61-6.73c.41.56.79,1.3.95,1.78l-.74.2h4.97l-.63-.2c.36-.5.81-1.26,1.06-1.78h-5.62Zm5.35,8.68c1.69.56,3.98,1.42,5.22,2l-.83.85c-1.19-.58-3.48-1.5-5.19-2.13l.79-.72Z"/>
      <path d="m454.01,189.69c-.31,1.51-.77,3.2-1.22,4.3-.27-.14-.83-.32-1.15-.41.5-1.1.9-2.72,1.17-4.14l1.21.25Zm4.02-1.12c-.05-.29-.13-.61-.22-.97-4.65.7-5.28.85-5.64,1.06-.07-.27-.29-.92-.43-1.28.4-.05.85-.49,1.48-1.12.32-.32,1.01-1.12,1.82-2.12-2.25.27-2.68.36-2.95.49-.07-.27-.27-.88-.43-1.22.34-.09.7-.45,1.12-.99.45-.52,1.91-2.54,2.81-4.52l1.24.54c-.94,1.69-2.07,3.4-3.22,4.74l2.34-.22c.49-.7,1.01-1.44,1.42-2.18l1.15.72c-1.33,2-2.9,3.96-4.45,5.53l3.4-.5c-.18-.56-.4-1.15-.59-1.67l1.06-.27c.52,1.17,1.06,2.74,1.24,3.66l-1.15.34Zm-1.98.74c.25,1.28.52,2.86.59,3.94l-1.13.29c-.07-1.06-.31-2.72-.54-3.96l1.08-.27Zm2.11-.38c.47,1.08.97,2.5,1.19,3.42l-1.08.38c-.2-.94-.67-2.38-1.12-3.47l1.01-.32Zm9.31-6.97c-.25,7.99-.45,10.7-1.12,11.56-.4.5-.79.67-1.44.74-.59.05-1.66.04-2.65-.02-.02-.4-.18-.95-.43-1.33,1.13.09,2.14.09,2.58.09.34,0,.54-.04.72-.27.54-.58.79-3.26.99-10.21h-5.15c-.45.99-.95,1.87-1.48,2.61-.25-.22-.81-.58-1.15-.76,1.26-1.57,2.23-4,2.83-6.43l1.3.25c-.25,1.04-.59,2.09-.99,3.06h6v.7Zm-3.98,7.6c-.56-1.12-1.91-2.77-3.11-3.96l.94-.68c1.21,1.15,2.59,2.77,3.17,3.87l-.99.77Z"/>
      <path d="m485.46,180.69v3.69h-1.3v-2.54h-12.5v2.54h-1.28v-3.69h2.86c-.34-.61-.88-1.44-1.37-2.04l1.15-.49c.61.68,1.26,1.6,1.58,2.21l-.67.31h3.19v-2.75h1.33v2.75h3.03l-.5-.2c.54-.65,1.22-1.67,1.6-2.39l1.35.47c-.5.74-1.12,1.53-1.64,2.13h3.15Zm-13.85,7.26h12.75v6.43h-1.31v-.47h-10.14v.5h-1.3v-6.46Zm1.3,1.03v1.44h4.32v-1.44h-4.32Zm4.32,3.89v-1.48h-4.32v1.48h4.32Zm5.37-9.7v3.75h-9.33v-3.75h9.33Zm-1.31,1.01h-6.77v1.71h6.77v-1.71Zm1.76,4.81h-4.54v1.44h4.54v-1.44Zm0,3.89v-1.48h-4.54v1.48h4.54Z"/>
      <path d="m494.21,189.68c-2.25.67-4.65,1.37-6.39,1.89l-.36-1.28c.79-.2,1.76-.45,2.83-.76v-4.36h-2.27v-1.24h2.27v-3.84h-2.49v-1.22h6.14v1.22h-2.38v3.84h2.21v1.24h-2.21v4.01l2.48-.7.16,1.19Zm8.44,3.42c.41,0,.49-.27.54-2.12.25.23.79.43,1.12.52-.09,2.2-.43,2.75-1.51,2.75h-1.75c-1.28,0-1.6-.38-1.6-1.67v-4h-1.76c-.36,2.86-1.33,4.83-4.83,5.91-.13-.31-.49-.85-.76-1.1,3.17-.86,3.98-2.48,4.27-4.81h-1.6v-9.85h8.41v9.85h-2.45v4c0,.45.07.52.52.52h1.4Zm-6.63-11.43h5.83v-1.8h-5.83v1.8Zm0,2.86h5.83v-1.8h-5.83v1.8Zm0,2.92h5.83v-1.84h-5.83v1.84Z"/>
      <path d="m514.5,184.54v2.45h6.28v1.22h-6.28v4.39h7.09v1.24h-15.47v-1.24h6.99v-4.39h-6.18v-1.22h6.18v-2.45h-3.89v-.99c-.92.5-1.89.96-2.86,1.3-.2-.36-.56-.88-.9-1.21,3.35-1.1,6.66-3.2,8.37-5.87l1.22.58c-.13.2-.29.43-.45.65,1.78,1.91,4.95,3.78,7.69,4.64-.32.27-.74.81-.94,1.15-.94-.34-1.93-.81-2.9-1.37v1.12h-3.96Zm-4.93,4.07c.68,1.01,1.42,2.36,1.71,3.22l-1.17.49c-.25-.83-.97-2.25-1.66-3.26l1.12-.45Zm8.68-5.31c-1.62-.95-3.21-2.16-4.38-3.38-1.19,1.3-2.63,2.45-4.21,3.38h8.59Zm-2.11,8.63c.63-.88,1.44-2.3,1.87-3.31l1.28.49c-.67,1.13-1.49,2.41-2.14,3.26l-1.01-.43Z"/>
      <path d="m531.99,181.68c-.41,1.04-.9,2.27-1.35,3.21h2.54v1.22h-9.34v-1.22h5.51c.49-1.01,1.03-2.49,1.31-3.49l1.33.29Zm.79-.4h-8.43v-1.22h3.73c-.2-.59-.49-1.3-.74-1.85l1.17-.34c.38.7.74,1.58.95,2.2h3.31v1.22Zm-7.92,6.46h7.49v6.37h-1.31v-.72h-4.92v.86h-1.26v-6.52Zm1.71-2.93c-.16-.83-.63-2.11-1.12-3.08l1.13-.29c.54.94,1.03,2.2,1.19,3.04l-1.21.32Zm-.45,4.14v3.26h4.92v-3.26h-4.92Zm13.74-9.51c-.65,1.64-1.48,3.69-2.23,5.35,1.6,1.69,2,3.08,2,4.34,0,1.03-.23,1.91-.81,2.29-.31.22-.7.34-1.12.38-.45.05-1.03.05-1.53.04-.02-.36-.14-.9-.36-1.28.52.05,1.03.05,1.39.04.27-.02.52-.07.72-.18.36-.23.49-.79.47-1.4,0-1.13-.45-2.43-2.05-4.07.67-1.51,1.37-3.42,1.85-4.81h-2.86v14.22h-1.21v-15.45h4.61l.22-.07.92.61Z"/>
      <path d="m547.29,178.39c-.49,1.31-1.12,2.59-1.82,3.82v12.15h-1.33v-10.07c-.56.81-1.17,1.53-1.78,2.18-.13-.32-.5-1.01-.76-1.31,1.76-1.73,3.44-4.41,4.43-7.15l1.26.38Zm10.66,13.97v1.3h-11.2v-1.3h6.28c.65-2.41,1.37-6.23,1.71-8.91l1.39.25c-.47,2.75-1.21,6.27-1.85,8.66h3.67Zm-.74-9.87h-9.71v-1.3h9.71v1.3Zm-7.31,9.04c-.14-1.87-.67-5.17-1.22-7.67l1.21-.27c.59,2.5,1.13,5.73,1.33,7.56l-1.31.38Zm2.04-10.53c-.14-.76-.5-1.96-.85-2.86l1.26-.32c.32.9.74,2.05.9,2.79l-1.31.4Z"/>
      <path d="m457.16,209.04h1.31v8.35c0,2.52-.68,6.19-5.01,8.19-.23-.32-.63-.74-.95-1.01,2.23-.92,3.42-2.43,4.03-3.94-1.58.31-3.19.61-4.43.85l-.29-1.33c1.33-.18,3.19-.5,5.11-.83.16-.72.22-1.39.22-1.93v-.49h-4.59v-1.22h4.59v-2.75h-4.84v-1.26h4.84v-2.63Zm10.86,11.99h-5.46v4.36h-1.33v-16.35h1.33v2.63h5.15v1.26h-5.15v2.75h4.79v1.24h-4.79v2.84h5.46v1.26Z"/>
      <path d="m474.93,218.48c-.25-.56-.81-1.6-1.3-2.49v9.38h-1.28v-8.59c-.58,1.94-1.35,3.8-2.16,4.95-.13-.4-.45-.97-.7-1.3,1.12-1.49,2.25-4.34,2.79-6.79h-2.32v-1.26h2.4v-3.46h1.28v3.46h2.03v1.26h-2.03v.7c.49.67,1.8,2.68,2.11,3.19l-.81.94Zm10.7-.65c-.74,1.3-1.69,2.47-2.83,3.53,1.19.95,2.61,2.14,3.33,2.93l-1.01.9c-.7-.79-2.07-2.04-3.26-3.03-1.67,1.35-3.69,2.45-5.94,3.22-.16-.31-.54-.83-.79-1.1,4.18-1.35,7.58-3.92,9.13-6.95l1.37.49Zm-1.42-3.24c-1.53,2.74-4.25,5.29-7.42,6.81-.14-.29-.5-.76-.76-1.01,1.8-.83,3.47-2.05,4.81-3.38-3.22.22-3.75.32-4.09.43-.04-.31-.25-.97-.36-1.26.34-.07.85-.2,1.15-.52.34-.36,1.35-1.98,1.96-3.02h-3.42v-1.24h4.7c-.2-.65-.54-1.48-.9-2.14l1.24-.38c.45.76.9,1.78,1.04,2.45l-.18.07h4.03v1.24h-5.08c-.61,1.01-1.48,2.38-2.12,3.37l3.06-.18c.41-.54.79-1.12,1.06-1.67l1.26.45Z"/>
      <path d="m490.63,215.53c-.29,2.11-.85,5.15-1.58,7.06l-1.33-.56c.77-1.84,1.37-4.65,1.62-6.75l1.3.25Zm2.92-1.6v8.88c0,.83.22.99,1.24.99h3.44c1.12,0,1.28-.63,1.42-3.73.32.25.88.49,1.26.59-.2,3.4-.61,4.39-2.61,4.39h-3.62c-1.95,0-2.49-.49-2.49-2.27v-8.86h1.35Zm.38-4.36c1.67,1.15,3.82,2.84,4.84,3.98l-.95.99c-.99-1.12-3.08-2.88-4.77-4.09l.88-.88Zm7.83,5.24c1.04,2.14,2.04,4.9,2.41,6.75l-1.31.52c-.36-1.85-1.33-4.68-2.34-6.79l1.24-.49Z"/>
      <path d="m508.86,216.98c-.72-.5-2.21-1.37-3.29-1.94l.72-.97c1.06.52,2.56,1.31,3.31,1.82l-.74,1.1Zm-2.7,7.26c.95-1.37,2.38-3.73,3.4-5.76l.97.88c-.95,1.89-2.2,4.12-3.26,5.78l-1.12-.9Zm1.15-15.05c1.06.59,2.52,1.44,3.28,1.96l-.81,1.06c-.72-.54-2.16-1.46-3.24-2.11l.77-.92Zm13.67,14.51c0,.76-.16,1.15-.7,1.37s-1.44.22-2.81.22c-.04-.36-.23-.9-.41-1.28,1.03.05,1.96.05,2.23.04.29-.02.38-.09.38-.36v-3.37c-2.14.56-4.38,1.1-6.07,1.5l-.45-1.15c1.66-.34,4.12-.88,6.52-1.46v-3.92h-6.75v3.73c0,1.98-.18,4.65-1.24,6.46-.22-.23-.74-.65-1.03-.79.92-1.64,1.01-3.89,1.01-5.67v-4.95h4.05v-5.11h1.31v5.11h3.96v9.65Zm-7.99-10.28c-.27-.92-1.04-2.34-1.8-3.37l1.12-.52c.79,1.01,1.6,2.38,1.89,3.29l-1.21.59Zm.99,3.04c1.6.31,3.6.95,4.66,1.49l-.52.97c-1.04-.58-3.04-1.26-4.66-1.6l.52-.86Zm7.63-6.5c-.61,1.17-1.39,2.48-2.04,3.37l-1.15-.49c.65-.92,1.48-2.36,1.91-3.4l1.28.52Z"/>
      <path d="m530.39,223.29c-1.48.83-3.75,1.64-5.56,2.11-.2-.27-.67-.77-.95-1.01,1.84-.34,4.03-.97,5.31-1.64l1.21.54Zm4.32-.56c1.87.54,3.83,1.22,5.06,1.75l-1.01.83c-1.21-.56-3.24-1.31-5.29-1.93l.67-.65h-7.98v-5.71c-.47.14-1.01.27-1.6.4-.13-.31-.41-.79-.63-1.04,2.27-.41,3.58-.99,4.34-1.67h-3.06c.16-.79.34-1.91.45-2.84h3.58v-1.03h-4.39v-.88h4.39v-.99h1.22v.99h2.77v-.99h1.26v.99h4.02v2.79h-4.02v1.08h5.13s-.02.27-.04.43c-.11.97-.22,1.49-.47,1.73-.23.22-.5.31-.86.32-.13,0-.29.02-.47.02v6.41h-3.08Zm-8-9.99c-.05.38-.11.74-.16,1.08h2.38c.16-.34.23-.7.27-1.08h-2.49Zm9.74,4.11h-9v1.12h9v-1.12Zm0,1.94h-9v1.1h9v-1.1Zm-9,3.08h9v-1.13h-9v1.13Zm2.43-7.17c-.27.47-.68.9-1.28,1.28h8.03c-.04-.2-.13-.41-.22-.58.56.05,1.04.07,1.24.07s.32-.02.41-.13c.09-.09.16-.27.22-.65h-3.8v1.24h-1.26v-1.24h-3.35Zm3.35-1.96h-2.81c-.02.38-.07.74-.18,1.08h2.99v-1.08Zm-2.77-.88h2.77v-1.03h-2.77v1.03Zm4.03-1.03v1.03h2.79v-1.03h-2.79Z"/>
      <path d="m456.41,248.74c-.25,1.57-.65,2.92-1.19,4.05,1.21,1.87,3.46,2.14,6.72,2.14,1.87,0,4.48-.09,6.32-.23-.2.29-.38.9-.43,1.28-1.69.09-3.93.14-5.89.14-3.6,0-5.83-.38-7.24-2.32-.67,1.13-1.46,2-2.38,2.63-.2-.27-.65-.74-.88-.92,1.71-1.1,3.01-3.08,3.6-5.89h-1.96c-.47,0-.94.11-1.06.25-.09-.32-.36-.94-.49-1.22.25-.07.54-.18.86-.52.41-.41,1.48-1.84,2.25-2.93h-2.88v-1.1h3.73l.23-.09.88.41c-.76,1.04-2.12,2.9-3.15,4.1h2.05l.23-.04.67.25Zm-1.73-5.31c-.47-.74-1.46-1.98-2.25-2.86l.99-.59c.81.86,1.78,2.02,2.29,2.74l-1.03.72Zm3.91,10.21h-1.21v-9.2h5.17c-1.06-.52-2.36-1.1-3.44-1.49l.85-.76c.77.27,1.67.63,2.52.99.86-.4,1.76-.92,2.48-1.44h-7.54v-1.04h8.79l.27-.07.81.63c-.96.9-2.3,1.8-3.64,2.47.54.27,1.03.49,1.4.72h2.23v7.96c0,.65-.14.94-.61,1.13-.45.18-1.21.2-2.39.2-.04-.32-.22-.76-.36-1.06.88.02,1.62.02,1.84.02.23-.02.31-.07.31-.31v-1.67h-3.22v2.94h-1.17v-2.94h-3.08v2.94Zm0-8.17v1.58h3.08v-1.58h-3.08Zm3.08,4.21v-1.64h-3.08v1.64h3.08Zm4.39-4.21h-3.22v1.58h3.22v-1.58Zm0,4.21v-1.64h-3.22v1.64h3.22Z"/>
      <path d="m476.23,244.1h-6.46v-1.1h6.46v1.1Zm-.67,11.2h-4.03v.85h-1.06v-6.05h5.09v5.2Zm-5.08-8.88v-1.06h5.06v1.06h-5.06Zm0,1.28h5.1v1.06h-5.1v-1.06Zm1.04,3.51v2.97h2.94v-2.97h-2.94Zm1.41-8.41c-.25-.65-.81-1.66-1.26-2.39l.95-.54c.49.74,1.03,1.69,1.31,2.32l-1.01.61Zm11.31-1.84c-.11,7.27-.14,13.52.86,13.77.11.04.23-1.12.31-2.41.22.34.58.79.77.97-.2,2.52-.77,3.1-1.6,2.75-1.76-.54-1.71-6.43-1.69-13.81h-2.99v5.31h2.38v1.24h-2.38v7.56h-1.26v-7.56h-2.43v-1.24h2.43v-5.31h-2.23v-1.28h7.83Z"/>
      <path d="m494.03,254.79c0,.72-.14,1.12-.61,1.35-.45.23-1.17.25-2.39.25-.02-.34-.2-.94-.38-1.28.83.02,1.58.02,1.8,0,.25-.02.34-.09.34-.34v-4.43h-2.83c-.16,2.12-.54,4.38-1.35,6.07-.23-.22-.77-.52-1.1-.65,1.24-2.52,1.33-6.09,1.33-8.73v-6.43h5.19v14.19Zm-1.24-5.73v-3.03h-2.72v.99c0,.61-.02,1.31-.04,2.04h2.75Zm-2.72-7.22v2.95h2.72v-2.95h-2.72Zm13.65,5.11c-.47,2.45-1.33,4.47-2.47,6.07.86.99,1.87,1.8,3.01,2.36-.31.25-.67.7-.86,1.03-1.08-.61-2.05-1.42-2.92-2.43-.81.95-1.73,1.73-2.72,2.3-.18-.31-.52-.76-.79-.99.99-.54,1.93-1.31,2.75-2.29-1.01-1.46-1.8-3.19-2.39-5.04h-.45v8.43h-1.26v-15.74h7.6v3.46c0,.68-.16,1.03-.7,1.22-.58.18-1.48.18-2.83.18-.05-.36-.25-.81-.43-1.13,1.1.02,2.03.02,2.3,0,.29,0,.36-.07.36-.29v-2.2h-5.04v4.83h5.83l.23-.04.77.27Zm-5.22,1.01c.49,1.48,1.13,2.84,1.96,4.03.77-1.15,1.39-2.5,1.8-4.03h-3.76Z"/>
      <path d="m510.91,250.31c.34-.74.7-1.85.97-2.9h-1.73v7.42c0,.68-.14,1.04-.59,1.28-.47.18-1.17.2-2.25.2-.05-.32-.23-.88-.41-1.22.77.02,1.48.02,1.71.02.22-.02.29-.07.29-.27v-5.78c-.7,1.73-1.64,3.42-2.63,4.43-.14-.38-.47-.9-.7-1.24,1.12-1.06,2.23-2.99,2.9-4.83h-2.72v-1.17h4.83c-.94-.79-2.59-1.8-4-2.41l.83-.86c.56.23,1.17.52,1.75.83.67-.5,1.35-1.15,1.89-1.78h-5.1v-1.17h6.05l.23-.05.86.54c-.7,1.08-1.85,2.23-2.94,3.06.59.36,1.13.74,1.51,1.08l-.68.77h1.33l.2-.07.81.29c-.09.31-.18.63-.27.95,1.21-.34,2.3-.79,3.22-1.39-.72-.65-1.35-1.39-1.85-2.2-.43.47-.86.92-1.3,1.28-.25-.22-.77-.59-1.1-.77,1.4-1.04,2.7-2.68,3.42-4.39l1.28.34c-.23.52-.52,1.04-.83,1.55h5.98v1.13h-1.39c-.5,1.22-1.24,2.23-2.16,3.06,1.13.72,2.47,1.26,3.91,1.57-.27.29-.67.79-.85,1.15-1.51-.41-2.9-1.06-4.09-1.91-1.13.79-2.47,1.39-3.92,1.84-.09-.18-.29-.45-.49-.7-.31,1.04-.67,2.07-1.06,2.81l-.92-.47Zm10.57-.32s-.02.36-.04.58c-.32,3.35-.67,4.72-1.19,5.24-.31.32-.65.41-1.12.47-.43.02-1.19.04-2-.02-.04-.36-.16-.9-.36-1.24.77.07,1.5.09,1.78.09s.43-.02.61-.18c.34-.34.61-1.35.88-3.82h-3.03c-.63,2.29-1.89,4.16-4.77,5.28-.16-.31-.52-.79-.79-1.03,2.49-.9,3.62-2.41,4.18-4.25h-2.81v-1.12h3.1c.11-.58.18-1.17.23-1.78h1.35c-.05.61-.14,1.21-.25,1.78h4.21Zm-6.23-7.02c.49.86,1.19,1.66,2.04,2.32.74-.65,1.33-1.4,1.75-2.32h-3.78Z"/>
      <path d="m458.03,271.93c-1.3,2.95-3.28,5.82-5.28,7.65-.25-.27-.83-.83-1.19-1.08,2.02-1.67,3.89-4.3,5-7.02l1.46.45Zm5.06,8.55c1.46,1.93,3.17,4.45,4.03,6.05l-1.33.74c-.25-.5-.59-1.08-.97-1.73-9.33.65-10.32.7-11.02.95-.07-.29-.32-1.01-.52-1.42.49-.11,1.01-.7,1.67-1.55.76-.83,3.06-4.05,4.56-7.09l1.49.63c-1.55,2.79-3.4,5.58-5.28,7.72l8.32-.47c-.7-1.12-1.51-2.29-2.23-3.24l1.28-.59Zm.38-9.08c.86,2.84,2.67,5.55,4.77,6.93-.32.27-.79.86-1.04,1.24-2.03-1.51-3.76-4.11-4.74-6.82h-3.35v-1.35h4.36Z"/>
      <path d="m484.76,285.58c0,.86-.23,1.26-.81,1.49-.61.22-1.66.23-3.35.22-.05-.36-.27-.94-.45-1.3,1.26.05,2.48.04,2.81.04.36-.02.49-.13.49-.47v-3.66h-4.84v5.31h-1.33v-5.31h-4.5c-.27,2-.88,4.05-2.25,5.58-.2-.27-.74-.72-1.03-.88,1.98-2.23,2.16-5.4,2.16-7.9v-6.48h13.11v13.36Zm-7.49-4.95v-2.99h-4.3v1.06c0,.59-.02,1.26-.07,1.93h4.38Zm-4.3-7.13v2.88h4.3v-2.88h-4.3Zm10.48,0h-4.84v2.88h4.84v-2.88Zm0,7.13v-2.99h-4.84v2.99h4.84Z"/>
      <path d="m503.97,282.28h-1.85v3.19h-1.33v-.81h-4.32v1.24c0,.83-.25,1.13-.79,1.33-.56.2-1.5.22-2.99.22-.07-.34-.29-.83-.47-1.13,1.08.04,2.16.02,2.47.02.34-.02.45-.13.45-.43v-1.24h-5.82v-1.03h5.82v-1.35h-7.36v-1.06h7.36v-1.26h-5.65v-.99h5.65v-1.26h-5.15v-3.17h5.15v-1.04h-7.02v-1.1h7.02v-1.44h1.33v1.44h7.17v1.1h-7.17v1.04h5.37v3.17h-5.37v1.26h5.65v2.25h1.85v1.06Zm-8.84-5.51v-1.3h-3.87v1.3h3.87Zm1.33-1.3v1.3h4.03v-1.3h-4.03Zm0,5.74h4.32v-1.26h-4.32v1.26Zm4.32,1.06h-4.32v1.35h4.32v-1.35Z"/>
      <path d="m512.3,284.49c-1.3.97-3.65,1.89-5.53,2.32-.18-.32-.54-.76-.81-1.01,1.85-.31,4.14-1.01,5.33-1.78l1.01.47Zm9.4-2.5v1.13h-7.22v4.27h-1.31v-4.27h-7.11v-1.13h7.11v-1.35h-5.42v-1.03h5.42v-1.3h-6.34v-1.08h3.89c-.18-.5-.54-1.21-.92-1.73l.95-.25h-4.65v-1.12h2.9c-.27-.72-.88-1.8-1.44-2.61l1.13-.4c.63.81,1.28,1.93,1.53,2.65l-.9.36h2.2v-3.19h1.26v3.19h2.14v-3.19h1.28v3.19h2.18l-.72-.23c.5-.74,1.08-1.93,1.39-2.74l1.37.38c-.5.92-1.1,1.91-1.57,2.59h2.77v1.12h-4.68l1.17.32c-.41.59-.85,1.21-1.24,1.66h4.12v1.08h-6.52v1.3h5.64v1.03h-5.64v1.35h7.22Zm-10.61-6.73c.41.56.79,1.3.95,1.78l-.74.2h4.97l-.63-.2c.36-.5.81-1.26,1.06-1.78h-5.62Zm5.35,8.68c1.69.56,3.98,1.42,5.22,2l-.83.85c-1.19-.58-3.48-1.5-5.19-2.13l.79-.72Z"/>
      <path d="m459.13,316.93c0,.68-.14.99-.63,1.19-.45.2-1.24.22-2.36.22-.07-.34-.25-.79-.43-1.12.86.04,1.6.02,1.84.02.25,0,.31-.07.31-.31v-2.77c-1.19.7-2.41,1.4-3.42,1.98l-.47-1.08c-.18,1.19-.54,2.43-1.3,3.37-.18-.29-.65-.76-.92-.94,1.03-1.37,1.13-3.26,1.13-4.79v-4.39h6.25v8.62Zm-1.15-13.68c.88,1.22,1.91,2.92,2.36,3.98l-1.15.52c-.14-.36-.34-.77-.58-1.22-4.88.4-5.51.47-5.92.67-.07-.27-.27-.94-.43-1.26.29-.05.59-.32.96-.7.34-.38,1.53-1.84,2.29-3.29l1.33.45c-.76,1.17-1.62,2.38-2.5,3.31l3.69-.25c-.36-.61-.74-1.22-1.12-1.78l1.08-.41Zm-3.85,9.47c0,.68-.04,1.48-.14,2.27,1.01-.45,2.43-1.17,3.87-1.89v-3.64h-3.73v3.26Zm.85-2.23c.96.56,2.21,1.37,2.86,1.87l-.72.74c-.63-.52-1.87-1.35-2.84-1.94l.7-.67Zm7.81-.79c-1.58,0-2.02-.56-2.02-2.07v-5.67h1.31v2.49h4.84v1.19h-4.84v2.03c0,.65.14.86.72.86h3.31c.43,0,1.15-.02,1.5-.11.04.36.09.86.14,1.17-.31.07-.95.11-1.6.11h-3.37Zm3.26,7.35c.76,0,.88-.34.97-2.27.31.22.83.41,1.19.5-.16,2.34-.56,2.95-2.05,2.95h-3.19c-1.75,0-2.2-.41-2.2-1.89v-6.05h1.31v2.14h5.04v1.21h-5.04v2.7c0,.59.16.7,1.01.7h2.95Z"/>
      <path d="m472.61,309.82c-.68-.52-2.02-1.37-3.03-1.93l.77-.94c.97.54,2.34,1.3,3.04,1.78l-.79,1.08Zm1.13,2.54c-.74,1.89-1.75,4.11-2.59,5.76l-1.19-.74c.79-1.39,1.91-3.75,2.74-5.76l1.04.74Zm-.29-7.24c-.68-.54-2.02-1.42-2.99-2.05l.77-.92c.97.56,2.32,1.39,3.01,1.91l-.79,1.06Zm2.81,2.61c0,3.13-.31,7.58-2.43,10.59-.22-.23-.79-.58-1.1-.7,2.03-2.88,2.21-6.93,2.21-9.88v-4.92h10.95v1.22h-9.63v3.69Zm2.86,5.89c-.59,1.31-1.49,2.75-2.27,3.69-.25-.2-.76-.5-1.08-.68.83-.86,1.62-2.14,2.14-3.33l1.21.32Zm2.67-1.33v4.7c0,.67-.11,1.01-.61,1.21-.49.2-1.24.2-2.45.18-.05-.34-.22-.81-.38-1.15.86.04,1.66.02,1.85.02.23-.02.31-.07.31-.27v-4.68h-3.22v-6.18h2.72c.2-.58.42-1.31.52-1.82l1.49.31c-.25.52-.5,1.04-.74,1.51h3.92v6.18h-3.42Zm-3.29-3.58h5.47v-1.57h-5.47v1.57Zm0,2.56h5.47v-1.58h-5.47v1.58Zm5.65,1.89c.7,1.1,1.6,2.58,2.05,3.44l-1.22.54c-.4-.9-1.28-2.39-1.98-3.53l1.15-.45Z"/>
    </g>
    <g class="cls-5">
      <path d="m572.58,68.03c3.87-3.85,6.05-6.16,6.05-8.26,0-1.46-.79-2.5-2.43-2.5-1.08,0-2.02.68-2.74,1.53l-.95-.92c1.08-1.17,2.21-1.95,3.89-1.95,2.36,0,3.83,1.5,3.83,3.76,0,2.41-2.2,4.81-5.24,8.01.68-.05,1.48-.13,2.16-.13h3.73v1.42h-8.3v-.97Z"/>
      <path d="m582.66,62.54c0-4.3,1.57-6.61,4.12-6.61s4.11,2.32,4.11,6.61-1.55,6.7-4.11,6.7-4.12-2.39-4.12-6.7Zm6.63,0c0-3.76-1.01-5.29-2.5-5.29s-2.52,1.53-2.52,5.29,1.01,5.38,2.52,5.38,2.5-1.62,2.5-5.38Z"/>
      <path d="m593.08,68c0-.76.54-1.28,1.19-1.28s1.19.52,1.19,1.28-.54,1.24-1.19,1.24-1.19-.5-1.19-1.24Z"/>
      <path d="m597.81,67.89l.92-1.03c.5.63,1.3,1.01,2.11,1.01,1.8,0,3.33-1.4,3.4-5.51-.83,1.03-1.96,1.66-3.01,1.66-2.23,0-3.67-1.35-3.67-3.98,0-2.45,1.73-4.11,3.78-4.11,2.54,0,4.43,2.05,4.43,6.18,0,5.15-2.32,7.13-4.88,7.13-1.37,0-2.38-.58-3.08-1.35Zm3.69-5.1c.83,0,1.87-.52,2.7-1.75-.22-2.49-1.22-3.82-2.86-3.82-1.26,0-2.23,1.12-2.23,2.81s.79,2.75,2.39,2.75Z"/>
      <path d="m607.8,67.89l.92-1.03c.5.63,1.3,1.01,2.11,1.01,1.8,0,3.33-1.4,3.4-5.51-.83,1.03-1.96,1.66-3.01,1.66-2.23,0-3.67-1.35-3.67-3.98,0-2.45,1.73-4.11,3.78-4.11,2.54,0,4.43,2.05,4.43,6.18,0,5.15-2.32,7.13-4.88,7.13-1.37,0-2.38-.58-3.08-1.35Zm3.69-5.1c.83,0,1.87-.52,2.7-1.75-.22-2.49-1.22-3.82-2.86-3.82-1.26,0-2.23,1.12-2.23,2.81s.79,2.75,2.39,2.75Z"/>
      <path d="m617.45,59.7c0-2.65,1.19-4.14,2.99-4.14s3.01,1.5,3.01,4.14-1.19,4.2-3.01,4.2-2.99-1.53-2.99-4.2Zm4.75,0c0-2.11-.72-3.13-1.76-3.13s-1.75,1.03-1.75,3.13.72,3.17,1.75,3.17,1.76-1.06,1.76-3.17Zm5.91-4.14h1.12l-7.29,13.68h-1.1l7.27-13.68Zm-1.48,9.51c0-2.65,1.21-4.14,3.01-4.14s2.99,1.49,2.99,4.14-1.19,4.18-2.99,4.18-3.01-1.51-3.01-4.18Zm4.75,0c0-2.11-.72-3.13-1.75-3.13s-1.75,1.03-1.75,3.13.7,3.17,1.75,3.17,1.75-1.06,1.75-3.17Z"/>
      <path d="m573.37,98.64h2.93v-9.47h-2.34v-1.06c1.17-.2,2.02-.5,2.74-.94h1.26v11.47h2.65v1.37h-7.24v-1.37Z"/>
      <path d="m582.82,98.89l.92-1.03c.5.63,1.3,1.01,2.11,1.01,1.8,0,3.33-1.4,3.4-5.51-.83,1.03-1.96,1.66-3.01,1.66-2.23,0-3.67-1.35-3.67-3.98,0-2.45,1.73-4.11,3.78-4.11,2.54,0,4.43,2.05,4.43,6.18,0,5.15-2.32,7.13-4.88,7.13-1.37,0-2.38-.58-3.08-1.35Zm3.69-5.1c.83,0,1.87-.52,2.7-1.75-.22-2.49-1.22-3.82-2.86-3.82-1.26,0-2.23,1.12-2.23,2.81s.79,2.75,2.39,2.75Z"/>
      <path d="m593.08,99c0-.76.54-1.28,1.19-1.28s1.19.52,1.19,1.28-.54,1.24-1.19,1.24-1.19-.5-1.19-1.24Z"/>
      <path d="m604.04,88.57h-6.39v-1.4h8.26v1.01c-3.03,3.89-3.67,6.82-3.87,11.83h-1.71c.22-4.84,1.19-7.9,3.71-11.43Z"/>
      <path d="m607.73,94.08c0-5.17,2.32-7.15,4.9-7.15,1.37,0,2.36.58,3.08,1.35l-.92,1.03c-.52-.63-1.31-1.01-2.11-1.01-1.82,0-3.33,1.39-3.4,5.47.83-.99,1.96-1.6,3.01-1.6,2.21,0,3.65,1.33,3.65,3.94,0,2.47-1.73,4.12-3.78,4.12-2.54,0-4.43-2.05-4.43-6.16Zm1.58,1.03c.22,2.5,1.21,3.85,2.83,3.85,1.28,0,2.25-1.13,2.25-2.84s-.79-2.72-2.38-2.72c-.83,0-1.84.45-2.7,1.71Z"/>
      <path d="m617.45,90.7c0-2.65,1.19-4.14,2.99-4.14s3.01,1.5,3.01,4.14-1.19,4.2-3.01,4.2-2.99-1.53-2.99-4.2Zm4.75,0c0-2.11-.72-3.13-1.76-3.13s-1.75,1.03-1.75,3.13.72,3.17,1.75,3.17,1.76-1.06,1.76-3.17Zm5.91-4.14h1.12l-7.29,13.68h-1.1l7.27-13.68Zm-1.48,9.51c0-2.65,1.21-4.14,3.01-4.14s2.99,1.49,2.99,4.14-1.19,4.18-2.99,4.18-3.01-1.51-3.01-4.18Zm4.75,0c0-2.11-.72-3.13-1.75-3.13s-1.75,1.03-1.75,3.13.7,3.17,1.75,3.17,1.75-1.06,1.75-3.17Z"/>
      <path d="m573.37,129.64h2.93v-9.47h-2.34v-1.06c1.17-.2,2.02-.5,2.74-.94h1.26v11.47h2.65v1.37h-7.24v-1.37Z"/>
      <path d="m582.82,129.89l.92-1.03c.5.63,1.3,1.01,2.11,1.01,1.8,0,3.33-1.4,3.4-5.51-.83,1.03-1.96,1.66-3.01,1.66-2.23,0-3.67-1.35-3.67-3.98,0-2.45,1.73-4.11,3.78-4.11,2.54,0,4.43,2.05,4.43,6.18,0,5.15-2.32,7.13-4.88,7.13-1.37,0-2.38-.58-3.08-1.35Zm3.69-5.1c.83,0,1.87-.52,2.7-1.75-.22-2.49-1.22-3.82-2.86-3.82-1.26,0-2.23,1.12-2.23,2.81s.79,2.75,2.39,2.75Z"/>
      <path d="m593.08,130c0-.76.54-1.28,1.19-1.28s1.19.52,1.19,1.28-.54,1.24-1.19,1.24-1.19-.5-1.19-1.24Z"/>
      <path d="m597.29,129.44l.83-1.08c.77.81,1.78,1.51,3.28,1.51s2.68-.92,2.68-2.36c0-1.53-1.06-2.54-4.1-2.54v-1.26c2.72,0,3.65-1.06,3.65-2.41,0-1.24-.86-2.03-2.23-2.03-1.06,0-2,.54-2.74,1.3l-.88-1.03c.99-.94,2.16-1.6,3.69-1.6,2.21,0,3.83,1.17,3.83,3.26,0,1.55-.95,2.54-2.34,3.04v.07c1.55.38,2.79,1.51,2.79,3.28,0,2.29-1.89,3.66-4.23,3.66-2.07,0-3.37-.86-4.23-1.8Z"/>
      <path d="m614.03,119.57h-6.39v-1.4h8.26v1.01c-3.02,3.89-3.67,6.82-3.87,11.83h-1.71c.22-4.84,1.19-7.9,3.71-11.43Z"/>
      <path d="m617.45,121.7c0-2.65,1.19-4.14,2.99-4.14s3.01,1.5,3.01,4.14-1.19,4.2-3.01,4.2-2.99-1.53-2.99-4.2Zm4.75,0c0-2.11-.72-3.13-1.76-3.13s-1.75,1.03-1.75,3.13.72,3.17,1.75,3.17,1.76-1.06,1.76-3.17Zm5.91-4.14h1.12l-7.29,13.68h-1.1l7.27-13.68Zm-1.48,9.51c0-2.65,1.21-4.14,3.01-4.14s2.99,1.49,2.99,4.14-1.19,4.18-2.99,4.18-3.01-1.51-3.01-4.18Zm4.75,0c0-2.11-.72-3.13-1.75-3.13s-1.75,1.03-1.75,3.13.7,3.17,1.75,3.17,1.75-1.06,1.75-3.17Z"/>
      <path d="m573.37,160.64h2.93v-9.47h-2.34v-1.06c1.17-.2,2.02-.5,2.74-.94h1.26v11.47h2.65v1.37h-7.24v-1.37Z"/>
      <path d="m582.75,156.08c0-5.17,2.32-7.15,4.9-7.15,1.37,0,2.36.58,3.08,1.35l-.92,1.03c-.52-.63-1.31-1.01-2.11-1.01-1.82,0-3.33,1.39-3.4,5.47.83-.99,1.96-1.6,3.01-1.6,2.21,0,3.66,1.33,3.66,3.94,0,2.47-1.73,4.12-3.78,4.12-2.54,0-4.43-2.05-4.43-6.16Zm1.58,1.03c.22,2.5,1.21,3.85,2.83,3.85,1.28,0,2.25-1.13,2.25-2.84s-.79-2.72-2.38-2.72c-.83,0-1.84.45-2.7,1.71Z"/>
      <path d="m593.08,161c0-.76.54-1.28,1.19-1.28s1.19.52,1.19,1.28-.54,1.24-1.19,1.24-1.19-.5-1.19-1.24Z"/>
      <path d="m597.65,155.54c0-4.3,1.57-6.61,4.12-6.61s4.11,2.32,4.11,6.61-1.55,6.7-4.11,6.7-4.12-2.39-4.12-6.7Zm6.63,0c0-3.76-1.01-5.29-2.5-5.29s-2.52,1.53-2.52,5.29,1.01,5.38,2.52,5.38,2.5-1.62,2.5-5.38Z"/>
      <path d="m614.03,150.57h-6.39v-1.4h8.26v1.01c-3.02,3.89-3.67,6.82-3.87,11.83h-1.71c.22-4.84,1.19-7.9,3.71-11.43Z"/>
      <path d="m617.45,152.7c0-2.65,1.19-4.14,2.99-4.14s3.01,1.5,3.01,4.14-1.19,4.2-3.01,4.2-2.99-1.53-2.99-4.2Zm4.75,0c0-2.11-.72-3.13-1.76-3.13s-1.75,1.03-1.75,3.13.72,3.17,1.75,3.17,1.76-1.06,1.76-3.17Zm5.91-4.14h1.12l-7.29,13.68h-1.1l7.27-13.68Zm-1.48,9.51c0-2.65,1.21-4.14,3.01-4.14s2.99,1.49,2.99,4.14-1.19,4.18-2.99,4.18-3.01-1.51-3.01-4.18Zm4.75,0c0-2.11-.72-3.13-1.75-3.13s-1.75,1.03-1.75,3.13.7,3.17,1.75,3.17,1.75-1.06,1.75-3.17Z"/>
      <path d="m573.37,191.64h2.93v-9.47h-2.34v-1.06c1.17-.2,2.02-.5,2.74-.94h1.26v11.47h2.65v1.37h-7.24v-1.37Z"/>
      <path d="m582.66,186.54c0-4.3,1.57-6.61,4.12-6.61s4.11,2.32,4.11,6.61-1.55,6.7-4.11,6.7-4.12-2.39-4.12-6.7Zm6.63,0c0-3.76-1.01-5.29-2.5-5.29s-2.52,1.53-2.52,5.29,1.01,5.38,2.52,5.38,2.5-1.62,2.5-5.38Z"/>
      <path d="m593.08,192c0-.76.54-1.28,1.19-1.28s1.19.52,1.19,1.28-.54,1.24-1.19,1.24-1.19-.5-1.19-1.24Z"/>
      <path d="m597.56,192.03c3.87-3.85,6.05-6.16,6.05-8.26,0-1.46-.79-2.5-2.43-2.5-1.08,0-2.02.68-2.74,1.53l-.95-.92c1.08-1.17,2.21-1.95,3.89-1.95,2.36,0,3.83,1.5,3.83,3.76,0,2.41-2.2,4.81-5.24,8.01.68-.05,1.48-.13,2.16-.13h3.73v1.42h-8.3v-.97Z"/>
      <path d="m608.34,191.64h2.93v-9.47h-2.34v-1.06c1.17-.2,2.02-.5,2.74-.94h1.26v11.47h2.65v1.37h-7.24v-1.37Z"/>
      <path d="m617.45,183.7c0-2.65,1.19-4.14,2.99-4.14s3.01,1.5,3.01,4.14-1.19,4.2-3.01,4.2-2.99-1.53-2.99-4.2Zm4.75,0c0-2.11-.72-3.13-1.76-3.13s-1.75,1.03-1.75,3.13.72,3.17,1.75,3.17,1.76-1.06,1.76-3.17Zm5.91-4.14h1.12l-7.29,13.68h-1.1l7.27-13.68Zm-1.48,9.51c0-2.65,1.21-4.14,3.01-4.14s2.99,1.49,2.99,4.14-1.19,4.18-2.99,4.18-3.01-1.51-3.01-4.18Zm4.75,0c0-2.11-.72-3.13-1.75-3.13s-1.75,1.03-1.75,3.13.7,3.17,1.75,3.17,1.75-1.06,1.75-3.17Z"/>
      <path d="m572.29,222.49l.81-1.08c.76.76,1.71,1.46,3.24,1.46s2.81-1.13,2.81-2.92-1.08-2.85-2.74-2.85c-.88,0-1.44.29-2.2.79l-.88-.56.41-6.18h6.43v1.4h-4.99l-.32,3.83c.59-.32,1.17-.54,1.96-.54,2.2,0,3.98,1.26,3.98,4.03s-2.09,4.34-4.32,4.34c-2.05,0-3.31-.86-4.2-1.75Z"/>
      <path d="m583.09,223c0-.76.54-1.28,1.19-1.28s1.19.52,1.19,1.28-.54,1.24-1.19,1.24-1.19-.5-1.19-1.24Z"/>
      <path d="m587.57,223.03c3.87-3.85,6.05-6.16,6.05-8.26,0-1.46-.79-2.5-2.43-2.5-1.08,0-2.02.68-2.74,1.53l-.95-.92c1.08-1.17,2.21-1.95,3.89-1.95,2.36,0,3.83,1.5,3.83,3.76,0,2.41-2.2,4.81-5.24,8.01.68-.05,1.48-.13,2.16-.13h3.73v1.42h-8.3v-.97Z"/>
      <path d="m597.29,222.44l.83-1.08c.77.81,1.78,1.51,3.28,1.51s2.68-.92,2.68-2.36c0-1.53-1.06-2.54-4.1-2.54v-1.26c2.72,0,3.65-1.06,3.65-2.41,0-1.24-.86-2.03-2.23-2.03-1.06,0-2,.54-2.74,1.3l-.88-1.03c.99-.94,2.16-1.6,3.69-1.6,2.21,0,3.83,1.17,3.83,3.26,0,1.55-.95,2.54-2.34,3.04v.07c1.55.38,2.79,1.51,2.79,3.28,0,2.29-1.89,3.66-4.23,3.66-2.07,0-3.37-.86-4.23-1.8Z"/>
      <path d="m607.46,214.7c0-2.65,1.19-4.14,2.99-4.14s3.01,1.5,3.01,4.14-1.19,4.2-3.01,4.2-2.99-1.53-2.99-4.2Zm4.75,0c0-2.11-.72-3.13-1.76-3.13s-1.75,1.03-1.75,3.13.72,3.17,1.75,3.17,1.76-1.06,1.76-3.17Zm5.91-4.14h1.12l-7.29,13.68h-1.1l7.27-13.68Zm-1.48,9.51c0-2.65,1.21-4.14,3.01-4.14s2.99,1.49,2.99,4.14-1.19,4.18-2.99,4.18-3.01-1.51-3.01-4.18Zm4.75,0c0-2.11-.72-3.13-1.75-3.13s-1.75,1.03-1.75,3.13.7,3.17,1.75,3.17,1.75-1.06,1.75-3.17Z"/>
      <path d="m577.91,251.46h-5.76v-1.08l5.49-8.21h1.82v7.98h1.75v1.31h-1.75v3.55h-1.55v-3.55Zm0-1.31v-3.76c0-.67.05-1.76.09-2.45h-.07c-.32.61-.68,1.17-1.06,1.8l-3.01,4.41h4.05Z"/>
      <path d="m583.09,254c0-.76.54-1.28,1.19-1.28s1.19.52,1.19,1.28-.54,1.24-1.19,1.24-1.19-.5-1.19-1.24Z"/>
      <path d="m594.05,243.57h-6.39v-1.4h8.26v1.01c-3.03,3.89-3.67,6.82-3.87,11.83h-1.71c.22-4.84,1.19-7.9,3.71-11.43Z"/>
      <path d="m597.58,251.73c0-1.67,1.22-2.83,2.43-3.47v-.07c-.95-.65-1.78-1.6-1.78-2.97,0-1.96,1.57-3.28,3.62-3.28,2.25,0,3.62,1.4,3.62,3.4,0,1.35-.99,2.5-1.76,3.1v.09c1.13.68,2.23,1.58,2.23,3.3,0,1.93-1.66,3.42-4.14,3.42s-4.21-1.48-4.21-3.51Zm6.79.05c0-1.67-1.62-2.27-3.49-3.01-1.04.67-1.8,1.62-1.8,2.81,0,1.4,1.17,2.43,2.75,2.43s2.54-.92,2.54-2.23Zm-.31-6.36c0-1.26-.81-2.27-2.23-2.27-1.22,0-2.11.81-2.11,2.05,0,1.55,1.42,2.2,2.97,2.81.88-.79,1.37-1.64,1.37-2.59Z"/>
      <path d="m607.46,245.7c0-2.65,1.19-4.14,2.99-4.14s3.01,1.5,3.01,4.14-1.19,4.2-3.01,4.2-2.99-1.53-2.99-4.2Zm4.75,0c0-2.11-.72-3.13-1.76-3.13s-1.75,1.03-1.75,3.13.72,3.17,1.75,3.17,1.76-1.06,1.76-3.17Zm5.91-4.14h1.12l-7.29,13.68h-1.1l7.27-13.68Zm-1.48,9.51c0-2.65,1.21-4.14,3.01-4.14s2.99,1.49,2.99,4.14-1.19,4.18-2.99,4.18-3.01-1.51-3.01-4.18Zm4.75,0c0-2.11-.72-3.13-1.75-3.13s-1.75,1.03-1.75,3.13.7,3.17,1.75,3.17,1.75-1.06,1.75-3.17Z"/>
      <path d="m573.37,284.64h2.93v-9.47h-2.34v-1.06c1.17-.2,2.02-.5,2.74-.94h1.26v11.47h2.65v1.37h-7.24v-1.37Z"/>
      <path d="m583.09,285c0-.76.54-1.28,1.19-1.28s1.19.52,1.19,1.28-.54,1.24-1.19,1.24-1.19-.5-1.19-1.24Z"/>
      <path d="m587.82,284.89l.92-1.03c.5.63,1.3,1.01,2.11,1.01,1.8,0,3.33-1.4,3.4-5.51-.83,1.03-1.96,1.66-3.01,1.66-2.23,0-3.67-1.35-3.67-3.98,0-2.45,1.73-4.11,3.78-4.11,2.54,0,4.43,2.05,4.43,6.18,0,5.15-2.32,7.13-4.88,7.13-1.37,0-2.38-.58-3.08-1.35Zm3.69-5.1c.83,0,1.87-.52,2.7-1.75-.22-2.49-1.22-3.82-2.86-3.82-1.26,0-2.23,1.12-2.23,2.81s.79,2.75,2.39,2.75Z"/>
      <path d="m597.56,285.03c3.87-3.85,6.05-6.16,6.05-8.26,0-1.46-.79-2.5-2.43-2.5-1.08,0-2.02.68-2.74,1.53l-.95-.92c1.08-1.17,2.21-1.95,3.89-1.95,2.36,0,3.83,1.5,3.83,3.76,0,2.41-2.2,4.81-5.24,8.01.68-.05,1.48-.13,2.16-.13h3.73v1.42h-8.3v-.97Z"/>
      <path d="m607.46,276.7c0-2.65,1.19-4.14,2.99-4.14s3.01,1.5,3.01,4.14-1.19,4.2-3.01,4.2-2.99-1.53-2.99-4.2Zm4.75,0c0-2.11-.72-3.13-1.76-3.13s-1.75,1.03-1.75,3.13.72,3.17,1.75,3.17,1.76-1.06,1.76-3.17Zm5.91-4.14h1.12l-7.29,13.68h-1.1l7.27-13.68Zm-1.48,9.51c0-2.65,1.21-4.14,3.01-4.14s2.99,1.49,2.99,4.14-1.19,4.18-2.99,4.18-3.01-1.51-3.01-4.18Zm4.75,0c0-2.11-.72-3.13-1.75-3.13s-1.75,1.03-1.75,3.13.7,3.17,1.75,3.17,1.75-1.06,1.75-3.17Z"/>
      <path d="m573.37,315.64h2.93v-9.47h-2.34v-1.06c1.17-.2,2.02-.5,2.74-.94h1.26v11.47h2.65v1.37h-7.24v-1.37Z"/>
      <path d="m583.09,316c0-.76.54-1.28,1.19-1.28s1.19.52,1.19,1.28-.54,1.24-1.19,1.24-1.19-.5-1.19-1.24Z"/>
      <path d="m587.75,311.08c0-5.17,2.32-7.15,4.9-7.15,1.37,0,2.36.58,3.08,1.35l-.92,1.03c-.52-.63-1.31-1.01-2.11-1.01-1.82,0-3.33,1.39-3.4,5.47.83-.99,1.96-1.6,3.01-1.6,2.21,0,3.66,1.33,3.66,3.94,0,2.47-1.73,4.12-3.78,4.12-2.54,0-4.43-2.05-4.43-6.16Zm1.58,1.03c.22,2.5,1.21,3.85,2.83,3.85,1.28,0,2.25-1.13,2.25-2.84s-.79-2.72-2.38-2.72c-.83,0-1.84.45-2.7,1.71Z"/>
      <path d="m604.04,305.57h-6.39v-1.4h8.26v1.01c-3.03,3.89-3.67,6.82-3.87,11.83h-1.71c.22-4.84,1.19-7.9,3.71-11.43Z"/>
      <path d="m607.46,307.7c0-2.65,1.19-4.14,2.99-4.14s3.01,1.5,3.01,4.14-1.19,4.2-3.01,4.2-2.99-1.53-2.99-4.2Zm4.75,0c0-2.11-.72-3.13-1.76-3.13s-1.75,1.03-1.75,3.13.72,3.17,1.75,3.17,1.76-1.06,1.76-3.17Zm5.91-4.14h1.12l-7.29,13.68h-1.1l7.27-13.68Zm-1.48,9.51c0-2.65,1.21-4.14,3.01-4.14s2.99,1.49,2.99,4.14-1.19,4.18-2.99,4.18-3.01-1.51-3.01-4.18Zm4.75,0c0-2.11-.72-3.13-1.75-3.13s-1.75,1.03-1.75,3.13.7,3.17,1.75,3.17,1.75-1.06,1.75-3.17Z"/>
    </g>
    <rect class="cls-11" x="420.09" y="51.87" width="19.25" height="19.25"/>
    <rect class="cls-9" x="420.09" y="83.21" width="19.25" height="19.25"/>
    <rect class="cls-2" x="420.09" y="114.54" width="19.25" height="19.25"/>
    <rect class="cls-7" x="420.09" y="145.88" width="19.25" height="19.25"/>
    <rect class="cls-6" x="420.09" y="177.21" width="19.25" height="19.25"/>
    <rect class="cls-1" x="420.09" y="208.55" width="19.25" height="19.25"/>
    <rect class="cls-8" x="420.09" y="239.89" width="19.25" height="19.25"/>
    <rect class="cls-4" x="420.09" y="271.22" width="19.25" height="19.25"/>
    <rect class="cls-10" x="420.09" y="302.56" width="19.25" height="19.25"/>
  </g>
  <g>
    <g>
      <path class="cls-10" d="m194.32,193.58L170.73,1.44c7-.86,16.54-1.44,23.59-1.44v193.58Z"/>
      <path class="cls-4" d="m194.32,193.58L150.78,4.96c7.92-1.83,11.89-2.53,19.95-3.52l23.59,192.13Z"/>
      <path class="cls-8" d="m194.32,193.58L94.62,27.65c17.5-10.52,36.26-18.09,56.15-22.69l43.55,188.62Z"/>
      <path class="cls-1" d="m194.32,193.58L48.23,66.58c14.66-16.86,27.24-27.42,46.39-38.93l99.7,165.93Z"/>
      <path class="cls-6" d="m194.32,193.58L1.22,180.07c3.04-43.51,18.39-80.57,47.01-113.49l146.09,127Z"/>
      <path class="cls-7" d="m194.32,193.58l-113.78,156.61C25.01,309.84-3.57,248.54,1.22,180.07l193.11,13.5Z"/>
      <path class="cls-2" d="m194.32,193.58l108.25,160.48c-68.6,46.27-155.08,44.76-222.03-3.88l113.78-156.61Z"/>
      <path class="cls-9" d="m194.32,193.58l186.98-50.1c21.86,81.58-8.71,163.36-78.73,210.58l-108.25-160.48Z"/>
      <path class="cls-11" d="m194.32,193.58V0c89.7,0,163.77,56.83,186.98,143.48l-186.98,50.1Z"/>
    </g>
    <circle class="cls-3" cx="194.48" cy="193.76" r="133.03"/>
    <g class="cls-5">
      <path d="m135.55,194.89v5.57c0,1.36-.26,2.04-1.05,2.43-.77.45-1.9.52-3.54.52-.09-.73-.44-1.83-.79-2.53.94.02,1.9.02,2.2.02.33,0,.44-.12.44-.45v-4.84l-2.36.61-.73-2.67c.89-.19,1.94-.42,3.09-.68v-4.12h-2.79v-2.57h2.79v-4.45h2.74v4.45h2.46v2.57h-2.46v3.44l1.71-.42.35,2.55-2.06.56Zm14.82-2.39c-.87,2.86-2.22,5.06-4.03,6.76,1.57.8,3.37,1.4,5.41,1.78-.58.63-1.38,1.8-1.76,2.57-2.32-.56-4.33-1.4-6.04-2.53-1.9,1.12-4.03,1.94-6.39,2.5-.26-.77-.87-1.92-1.33-2.55,1.99-.35,3.82-.96,5.41-1.78-1.29-1.29-2.39-2.79-3.25-4.52l.87-.3h-1.33v-2.6h10.16l.49-.12,1.8.77Zm-11.7-.96c-.33-.51-1.33-1.61-1.85-1.99,2.76-1.26,3.11-2.95,3.11-4.56v-2.5h8.24v5.1c0,.68.05.96.42.96h1.24c.4,0,.98-.07,1.31-.16.05.7.12,1.66.21,2.29-.35.16-.94.19-1.47.19h-1.57c-2.29,0-2.79-.98-2.79-3.32v-2.48l-3.02.02c0,2.34-.68,4.94-3.84,6.46Zm2.46,2.9c.7,1.24,1.66,2.34,2.86,3.28,1.1-.91,2.01-2.01,2.71-3.28h-5.57Z"/>
      <path d="m168.14,185.9c1.26,1.24,3.75,1.83,6.91,1.99-.56.54-1.22,1.54-1.54,2.22-2.62-.33-4.66-1.08-6.13-2.36-.89,1.03-2.83,1.94-6.76,2.39-.19-.44-.56-1.03-.94-1.52h-6.2v-2.13h7.07v1.43c4.47-.47,5.06-1.52,5.06-2.39v-.35h-1.4c-.49.77-1.05,1.47-1.64,2.01-.45-.42-1.47-1.1-2.06-1.43,1.24-1.03,2.2-2.57,2.74-4.17l2.43.54c-.12.35-.26.7-.4,1.03h6.65l.42-.12,1.9.58c-.61,1.29-1.4,2.76-2.15,3.7l-2.15-.8c.26-.37.56-.87.82-1.36h-2.6v.73Zm.63,13.76c2.15.79,4.45,1.73,5.83,2.41l-2.5,1.5c-1.33-.77-3.77-1.92-6.09-2.76l1.43-1.15h-6.6l2.04.94c-1.92,1.22-4.94,2.39-7.3,3.04-.47-.54-1.45-1.57-2.06-2.04,2.25-.42,4.75-1.12,6.39-1.94h-3.37v-9.5h15.66v9.5h-3.42Zm-8.78-14.75h-5.99v-2.04h5.99v2.04Zm-.77,7.91h10.13v-1.01h-10.13v1.01Zm0,2.57h10.13v-1.01h-10.13v1.01Zm0,2.62h10.13v-1.05h-10.13v1.05Z"/>
      <path d="m198.55,200.79v2.25h-17.2v-2.25h7.09v-1.36h-4.96v-1.69c-.42.54-.89,1.03-1.33,1.45-.16-.49-.7-1.69-1.1-2.34-.28,2.43-.96,5.13-2.5,7.02-.42-.51-1.57-1.5-2.15-1.8,1.9-2.34,2.08-5.66,2.08-8.08v-4.17h3.16c-.37-.4-.84-.82-1.17-1.08,1.69-.26,3.53-.58,5.34-1.01-1.47-.37-3-.7-4.38-.96l1.31-1.01h-4.03v-2.18h8.15c-.28-.44-.61-.87-.89-1.22l1.87-.91c.54.61,1.17,1.43,1.57,2.13h8.1v2.18h-3.39l1.12.7c-.84.4-1.83.8-2.88,1.17,1.38.37,2.65.75,3.7,1.1l-1.31,1.08h3.44v2.22h-16.99v1.97c0,.75-.02,1.57-.12,2.46,1.12-1.1,2.08-2.6,2.67-4.21l2.36.7c-.12.3-.23.61-.37.94h2.71v-1.43h2.74v1.43h5.78v2.18h-5.78v1.22h5.1v2.13h-5.1v1.36h7.37Zm-10.11-3.49v-1.22h-3.82c-.26.42-.51.82-.8,1.22h4.61Zm4.78-7.47c-1.15-.4-2.55-.8-4.03-1.19-1.68.45-3.39.84-5.03,1.19h9.06Zm-8.43-4.05c1.47.33,3.02.68,4.56,1.05,1.12-.3,2.2-.68,3.07-1.05h-7.63Z"/>
      <path d="m209.04,199.95c-1.59,1.33-4.4,2.55-6.81,3.11-.35-.58-1.08-1.5-1.64-2.01,2.34-.33,5.06-1.12,6.48-1.99l1.97.89Zm12.41-3.96v2.29h-9.08v5.34h-2.76v-5.34h-8.92v-2.29h8.92v-1.03h-6.74v-2.01h6.74v-1.05h-7.91v-2.11h4.31c-.21-.54-.56-1.19-.87-1.71l1.57-.35h-5.97v-2.18h3.18c-.35-.89-.96-2.01-1.5-2.9l2.39-.8c.7.98,1.47,2.39,1.78,3.28l-1.12.42h2.15v-3.82h2.57v3.82h1.76v-3.82h2.62v3.82h2.08l-.84-.26c.54-.94,1.17-2.36,1.5-3.37l2.93.68c-.66,1.08-1.29,2.13-1.87,2.95h3.02v2.18h-6.18l2.2.56c-.51.56-1.01,1.08-1.43,1.5h4.52v2.11h-8.12v1.05h7.02v2.01h-7.02v1.03h9.08Zm-13.51-8.26c.38.59.75,1.26.94,1.76l-1.26.3h6.39l-.84-.26c.37-.54.87-1.24,1.19-1.8h-6.41Zm7.3,11.19c1.9.7,4.66,1.87,6.16,2.62l-1.97,1.52c-1.36-.77-4.1-2.01-6.06-2.83l1.87-1.31Z"/>
      <path d="m224.7,194.16c0-4.66,1.29-8.5,3.49-12.1l2.15.91c-1.97,3.42-2.86,7.37-2.86,11.19s.89,7.79,2.86,11.21l-2.15.91c-2.2-3.63-3.49-7.42-3.49-12.13Z"/>
      <path d="m232.31,189.37c0-3.46,1.73-5.45,4.21-5.45s4.24,1.99,4.24,5.45-1.76,5.52-4.24,5.52-4.21-2.04-4.21-5.52Zm6.02,0c0-2.55-.8-3.51-1.8-3.51s-1.78.96-1.78,3.51.77,3.58,1.78,3.58,1.8-1.03,1.8-3.58Zm8.19-5.45h2.04l-9.41,17.98h-2.04l9.41-17.98Zm-1.62,12.45c0-3.49,1.76-5.48,4.21-5.48s4.24,1.99,4.24,5.48-1.78,5.52-4.24,5.52-4.21-2.06-4.21-5.52Zm6.02,0c0-2.55-.8-3.53-1.8-3.53s-1.78.98-1.78,3.53.77,3.56,1.78,3.56,1.8-1.01,1.8-3.56Z"/>
      <path d="m255.32,205.38c1.97-3.42,2.86-7.35,2.86-11.21s-.89-7.77-2.86-11.19l2.13-.91c2.22,3.6,3.51,7.44,3.51,12.1s-1.29,8.5-3.51,12.13l-2.13-.91Z"/>
    </g>
  </g>
</svg>