<?xml version="1.0" encoding="UTF-8"?>
<svg id="_圖層_1" data-name="圖層 1" xmlns="http://www.w3.org/2000/svg" xmlns:xlink="http://www.w3.org/1999/xlink" viewBox="0 0 385.8 448">
  <defs>
    <style>
      .cls-1 {
        fill: #1bccaa;
      }

      .cls-2, .cls-3 {
        fill: #fff;
      }

      .cls-4 {
        fill: #4c9600;
      }

      .cls-5 {
        fill: #a7a9ac;
      }

      .cls-3 {
        fill-rule: evenodd;
      }

      .cls-6 {
        isolation: isolate;
      }

      .cls-7 {
        fill: #6bcc17;
      }

      .cls-8 {
        fill: url(#_未命名漸層_7);
      }

      .cls-9 {
        fill: #062e1a;
      }

      .cls-10 {
        fill: #7cce17;
      }

      .cls-11 {
        fill: #19cc55;
      }

      .cls-12 {
        fill: url(#_未命名漸層_6);
      }
    </style>
    <linearGradient id="_未命名漸層_6" data-name="未命名漸層 6" x1="151.15" y1="101.82" x2="151.15" y2="1.32" gradientTransform="translate(0 447.89) scale(1 -1)" gradientUnits="userSpaceOnUse">
      <stop offset=".2" stop-color="#6bcc17"/>
      <stop offset=".8" stop-color="#633d23"/>
    </linearGradient>
    <linearGradient id="_未命名漸層_7" data-name="未命名漸層 7" x1="234.65" y1="101.82" x2="234.65" y2="1.32" gradientTransform="translate(0 447.89) scale(1 -1)" gradientUnits="userSpaceOnUse">
      <stop offset=".2" stop-color="#19cc55"/>
      <stop offset=".8" stop-color="#633d23"/>
    </linearGradient>
  </defs>
  <path class="cls-11" d="m382.3,236.05c-3.4-12.6-9.1-24.3-16.9-34.7-8.1-10.7-18.2-19.6-30-26.4-11.8-6.8-24.5-11.1-37.9-12.7-3.4-.4-6.7-.7-10.1-.7-3.9,6.2-8.4,12-13.4,17.4,3.7-.5,7.5-.8,11.2-.8,14.5,0,28.9,3.8,41.8,11.3,19.4,11.2,33.3,29.3,39.1,51,1.9,7.2,2.9,14.5,2.9,21.7,0,14.6-3.8,29-11.3,42s-18.1,23.5-30.7,30.8c-6.3,3.6-13.1,6.4-20.3,8.4-7.2,1.9-14.6,2.9-21.9,2.9-14.5,0-28.9-3.8-41.8-11.3-16.2-9.4-28.6-23.6-35.6-40.7-2.1,7.1-4.9,13.9-8.3,20.3,1.7,2.9,3.6,5.6,5.7,8.3,8.1,10.7,18.2,19.6,30,26.4,11.8,6.8,24.5,11.1,37.9,12.7,4.1.5,8.3.8,12.4.8,8.8,0,17.5-1.2,26.1-3.4,8.6-2.3,16.7-5.7,24.3-10,3.6-2.1,7-4.4,10.4-6.9,10.7-8.1,19.6-18.2,26.4-30s11.1-24.5,12.7-37.9c.5-4.1.8-8.3.8-12.4,0-8.8-1.2-17.5-3.5-26.1Z"/>
  <path class="cls-1" d="m285.6,63.05c-5.1-12-12.3-22.7-21.6-32-6.3-6.3-13.2-11.6-20.8-16-3.6-2.1-7.3-3.9-11.1-5.6-12.4-5.2-25.6-7.9-39.2-7.9s-26.7,2.7-39.2,7.9c-3.8,1.6-7.6,3.5-11.1,5.6-7.6,4.4-14.6,9.7-20.8,16-9.2,9.2-16.5,20-21.6,32-5.2,12.4-7.9,25.6-7.9,39.2s2.7,26.7,7.9,39.2c1.3,3.1,2.8,6.1,4.4,9.1,7.3.3,14.6,1.3,21.7,3-11.3-14.6-17.4-32.4-17.4-51.2,0-22.4,8.7-43.5,24.6-59.4,5.3-5.3,11.1-9.7,17.4-13.4,12.6-7.3,27-11.2,42-11.2s29.4,3.9,42,11.2c6.3,3.6,12.1,8.1,17.4,13.4,15.9,15.9,24.6,36.9,24.6,59.4,0,18.8-6.1,36.6-17.4,51.2-2,2.6-4.3,5.2-6.6,7.6-.2.2-.4.4-.6.6-5.3,5.3-11.1,9.7-17.4,13.4-1.6.9-3.2,1.8-4.9,2.6-1.7.8-3.4,1.6-5.1,2.3-10,4.1-20.8,6.3-32,6.3s-22-2.2-32-6.3l-.4.6-8,13.9c.4.2.8.4,1.2.5,12.4,5.2,25.6,7.9,39.2,7.9s26.7-2.7,39.2-7.9c.4-.2.8-.4,1.2-.5,1.7-.7,3.4-1.5,5-2.4,1.7-.8,3.3-1.7,4.9-2.6h0c7.6-4.4,14.6-9.7,20.8-16,3.5-3.5,6.7-7.3,9.7-11.2,1.4-1.9,2.8-3.9,4.1-5.9,1.2-1.9,2.3-3.8,3.4-5.7,1.6-2.9,3.1-6,4.4-9.1,5.2-12.4,7.9-25.6,7.9-39.2,0-13.8-2.7-27-7.9-39.4Z"/>
  <path class="cls-7" d="m201.2,262.05h-16.6v.1c0,7.2-1,14.5-2.9,21.7-.1.3-.1.5-.2.8-.9,3.3-2,6.4-3.3,9.5-7,17.1-19.4,31.3-35.6,40.7-12.9,7.5-27.3,11.3-41.8,11.3-7.3,0-14.6-1-21.9-2.9-7.2-1.9-14-4.7-20.3-8.4-12.6-7.3-23.2-17.8-30.7-30.8s-11.3-27.4-11.3-42c0-7.2,1-14.5,2.9-21.7,5.8-21.7,19.7-39.8,39.1-51,12.9-7.5,27.3-11.3,41.8-11.3,3.7,0,7.5.3,11.2.8,3.3.4,6.6,1.1,9.9,1.9.3.1.5.1.8.2,7.2,1.9,14,4.7,20.3,8.4h0l8.3-14.4c-7.6-4.4-15.7-7.7-24.3-10-4.8-1.3-9.7-2.2-14.5-2.8-2.4-.3-4.8-.5-7.2-.6-1.4-.1-2.9-.1-4.3-.1h-2.3c-3.4.1-6.7.3-10.1.7-13.4,1.7-26.1,5.9-37.9,12.7s-21.8,15.7-30,26.4c-7.8,10.4-13.5,22-16.9,34.7-2.3,8.6-3.4,17.3-3.4,26,0,4.1.3,8.3.8,12.4,1.7,13.4,5.9,26.1,12.7,37.9,6.8,11.8,15.7,21.8,26.4,30,3.3,2.5,6.8,4.8,10.4,6.9,7.6,4.4,15.7,7.7,24.3,10,8.6,2.3,17.3,3.4,26.1,3.4,4.1,0,8.3-.3,12.4-.8,13.4-1.7,26.1-5.9,37.9-12.7,11.8-6.8,21.8-15.7,30-26.4,2-2.7,3.9-5.5,5.7-8.3,1.2-1.9,2.2-3.8,3.3-5.8,1.1-2.1,2.1-4.3,3.1-6.5,2-4.5,3.6-9.2,4.9-14,2.1-8.5,3.2-17.2,3.2-26q0,.1,0,0Z"/>
  <path class="cls-12" d="m200.6,434.25c-1.7-13.4-5.9-26.1-12.7-37.9-6.8-11.8-15.7-21.8-26.4-30-2.7-2-5.5-3.9-8.3-5.7-1.9-1.2-3.8-2.2-5.8-3.3-2.1-1.1-4.3-2.1-6.5-3.1-4.5-2-9.2-3.6-14-4.9-8.5-2.3-17.2-3.4-26-3.4h-.1v16.6h.1c7.2,0,14.5,1,21.7,2.9.3.1.5.1.8.2,3.3.9,6.4,2,9.5,3.3,17.1,7,31.3,19.4,40.7,35.6,7.5,12.9,11.3,27.3,11.3,41.8l16.6.1c-.1-3.9-.4-8.1-.9-12.2Z"/>
  <path class="cls-8" d="m185.2,434.25c1.7-13.4,5.9-26.1,12.7-37.9,6.8-11.8,15.7-21.8,26.4-30,2.7-2,5.5-3.9,8.3-5.7,1.9-1.2,3.8-2.2,5.8-3.3,2.1-1.1,4.3-2.1,6.5-3.1,4.5-2,9.2-3.6,14-4.9,8.5-2.3,17.2-3.4,26-3.4h.1v16.6h-.1c-7.2,0-14.5,1-21.7,2.9-.3.1-.5.1-.8.2-3.3.9-6.4,2-9.5,3.3-17.1,7-31.3,19.4-40.7,35.6-7.5,12.9-11.3,27.3-11.3,41.8l-16.6.1c.1-3.9.4-8.1.9-12.2Z"/>
  <g class="cls-6">
    <path d="m239.41,272.28c1.96.92,4.01,1.94,5.27,2.73l-1.96,1.85c-1.32-.92-3.67-2.28-5.83-3.26l1.1-1.32h-5.99l1.68,1.28c-1.56,1.21-4.05,2.54-6.05,3.3-.42-.53-1.2-1.34-1.74-1.83,1.8-.64,3.93-1.75,5.25-2.75h-4.93v-2.28h3.13v-12.09h12.04v12.09h3.03v2.28h-4.99Zm-7.77-12.36v1.17h7.31v-1.17h-7.31Zm7.31,2.96h-7.31v1.13h7.31v-1.13Zm-7.31,2.92v1.17h7.31v-1.17h-7.31Zm0,4.2h7.31v-1.24h-7.31v1.24Z"/>
    <path d="m255.93,264.65c-.22.38-.44.77-.7,1.13h8.52v8.8c0,1-.18,1.49-.78,1.83-.58.32-1.38.34-2.42.34-.08-.58-.38-1.41-.64-1.92.5.02,1.12.02,1.32,0,.2,0,.28-.06.28-.28v-.83h-2.24v2.67h-2.14v-2.67h-2.52c-.24,1.21-.68,2.34-1.38,3.26-.42-.41-1.44-1.19-1.96-1.45,1.26-1.6,1.38-3.82,1.38-5.61v-1.15c-.38.34-.76.64-1.12.92-.24-.47-.86-1.43-1.24-1.96v9.06h-2.3v-10.53c-.36.6-.74,1.13-1.1,1.6-.2-.6-.78-2.07-1.16-2.73,1.56-2,3-5.09,3.85-8.21l2.2.68c-.42,1.39-.9,2.77-1.48,4.14v5.8c1.14-.72,2.24-1.75,3.09-2.9h-2.26v-2.34h3.45v-1.32h-2.84v-2.32h2.84v-1.64h2.28v1.64h2.42v-1.64h2.28v1.64h2.44v2.32h-2.44v1.32h2.91v2.34h-8.5Zm1.18,7.29v-1.22h-2.2c0,.41-.02.81-.06,1.22h2.26Zm-2.18-3.03h2.18v-1.11h-2.18v1.11Zm1.88-6.61h2.42v-1.32h-2.42v1.32Zm4.69,5.5h-2.24v1.11h2.24v-1.11Zm0,4.14v-1.22h-2.24v1.22h2.24Z"/>
    <path d="m282.4,270.39h2.28v1.85h-2.28v2.41c0,1.09-.16,1.62-.92,1.94-.74.3-1.7.32-3.11.32-.06-.62-.34-1.41-.58-1.98l-.8.53c-.32-.75-1-1.83-1.72-2.6l.98-.62h-1.88v1.24h-3.08v3.37h-2.1v-3.37h-3.23v-2.22h3.23v-1.28h-2.56v-7.7h2.56v-1.11h-2.95v-2.2h2.95v-2.03h2.1v2.03h2.84v2.2h-2.84v1.11h2.66v7.7h-2.66v1.28h3.08v-.87h5.87v-.83h2.16v.83Zm-14.08-5.07h1.14v-1.26h-1.14v1.26Zm0,2.92h1.14v-1.26h-1.14v1.26Zm3.91-4.18h-1.22v1.26h1.22v-1.26Zm0,2.92h-1.22v1.26h1.22v-1.26Zm2.12.75c1.1,0,2.48-.02,4.01-.06v-.94h-3.49v-5.71h3.49v-.79h-3.83v-1.85h3.83v-1.41h2.02v1.41h4.03v1.85h-4.03v.79h3.67v5.71h-.84c.66.81,1.26,1.75,1.6,2.45l-1.66.87c-.1-.21-.22-.47-.38-.75-3,.11-6.09.19-8.29.23l-.12-1.81Zm2.38-4.52h1.62v-.83h-1.62v.83Zm1.62,2.15v-.85h-1.62v.85h1.62Zm1.88,6.88h-3c.62.66,1.18,1.47,1.46,2.07l-.82.55c.8.04,1.72.04,1.98.04.28-.02.38-.09.38-.32v-2.34Zm.14-9.87v.83h1.7v-.83h-1.7Zm1.7,2.13h-1.7v.85h1.7v-.85Zm-1.7,3.11l1.28-.02c-.16-.21-.32-.41-.48-.6l.56-.28h-1.36v.89Z"/>
    <path d="m304.38,273.82v2.35h-18.05v-2.35h7.83v-1.71h-5.81v-2.3h5.81v-1.34h-1.5v-4.09h-1.84c-.32,1.75-1.16,3.5-3.15,4.67-.3-.47-1.14-1.43-1.56-1.77,1.48-.81,2.14-1.83,2.44-2.9h-2.02v-2.24h2.26v-2.24h-1.58v-2.22h9.1v2.22h-1.42v2.24h1.88v2.24h-1.88v3.73h1.72v1.71h5.79v2.3h-5.79v1.71h7.77Zm-11.72-11.68v-2.24h-1.68v2.24h1.68Zm7.13,3.22h-2.18v-7.21h2.18v7.21Zm3.73.92c0,1.17-.2,1.77-.96,2.13-.72.34-1.74.41-3.15.41-.1-.66-.42-1.62-.7-2.24.9.04,1.86.04,2.16.02.28-.02.38-.09.38-.36v-9.06h2.26v9.1Z"/>
    <path d="m312.34,267.3s0,.64-.02.96c-.22,4.69-.46,6.67-1.02,7.4-.4.55-.8.75-1.44.83-.52.08-1.4.11-2.34.08-.04-.79-.32-1.79-.68-2.47.82.09,1.64.11,2.02.11.28,0,.46-.06.68-.28.26-.34.46-1.56.62-4.46h-3.63c.16-1.83.26-4.71.26-6.99h3.35v-2.37h-3.65v-2.26h5.83v6.89h-3.59c-.04.87-.06,1.75-.08,2.56h3.69Zm12.44,6.74h-5.13v2.83h-2.16v-2.83h-4.89v-2.09h4.89v-.98h-3.97v-7.57h10.26v7.57h-4.13v.98h5.13v2.09Zm-6.61-11.43h-4.99v-4.84h4.99v4.84Zm-1.94-3.13h-1.22v1.45h1.22v-1.45Zm-.64,6.84h1.9v-1.09h-1.9v1.09Zm1.9,2.79v-1.09h-1.9v1.09h1.9Zm6.51-6.5h-5.09v-4.84h5.09v4.84Zm-2.36,2.62h-1.98v1.09h1.98v-1.09Zm0,2.79h-1.98v1.09h1.98v-1.09Zm.42-8.55h-1.32v1.45h1.32v-1.45Z"/>
    <path d="m344.73,273.75v2.41h-12.46v-2.41h5.35v-4.26h-3.87v-2.37h3.87v-3.5h-2.2c-.3,1.11-.7,2.13-1.12,2.94-.48-.32-1.56-.9-2.12-1.15.2-.38.4-.79.6-1.24l-1.14.55c-.12-.64-.42-1.58-.76-2.45v14.56h-2.38v-15.24c-.12,1.79-.44,4.14-.9,5.65l-1.76-.68c.48-1.41.84-3.79.98-5.54l1.68.26v-4.35h2.38v4.03l1.16-.51c.4.83.82,1.85,1.1,2.69.5-1.56.86-3.39,1.06-5.2l2.32.34c-.14,1-.3,2-.5,2.96h1.6v-4.18h2.38v4.18h4.09v2.39h-4.09v3.5h3.67v2.37h-3.67v4.26h4.73Z"/>
  </g>
  <g class="cls-6">
    <path class="cls-5" d="m236.07,295.52c0-1.73.24-3.41.71-5.02.47-1.61,1.22-3.07,2.23-4.36h1.66c-.94,1.34-1.64,2.81-2.11,4.41-.47,1.61-.71,3.25-.71,4.94s.24,3.26.71,4.85c.47,1.58,1.17,3.04,2.09,4.38h-1.64c-1.01-1.25-1.76-2.67-2.23-4.25s-.71-3.24-.71-4.96Z"/>
    <path class="cls-5" d="m247.17,286.14c1.78,0,3.09.36,3.94,1.08.85.72,1.27,1.8,1.27,3.25,0,.81-.14,1.49-.42,2.03-.28.54-.64.97-1.07,1.3-.43.33-.89.58-1.37.75l3.93,6.82h-2.1l-3.47-6.29h-2.85v6.29h-1.8v-15.22h3.95Zm-.1,1.66h-2.04v5.65h2.14c1.16,0,2.01-.25,2.55-.74.53-.49.8-1.21.8-2.16s-.28-1.7-.84-2.12c-.56-.42-1.43-.63-2.61-.63Z"/>
    <path class="cls-5" d="m259.6,289.72c.91,0,1.7.21,2.37.64.67.43,1.18,1.03,1.53,1.8.35.78.53,1.68.53,2.72v1.13h-7.36c.03,1.29.34,2.28.93,2.95.59.67,1.43,1.01,2.5,1.01.68,0,1.29-.07,1.81-.2.53-.13,1.07-.33,1.63-.59v1.64c-.55.26-1.09.44-1.62.57-.53.12-1.17.18-1.9.18-1.03,0-1.93-.22-2.71-.66s-1.38-1.09-1.81-1.96c-.43-.87-.65-1.94-.65-3.22s.2-2.32.59-3.22c.39-.89.95-1.58,1.66-2.07.71-.48,1.55-.72,2.49-.72Zm-.02,1.54c-.84,0-1.51.29-1.99.86-.49.58-.78,1.37-.87,2.4h5.47c-.01-.97-.23-1.75-.64-2.36-.41-.6-1.07-.91-1.96-.91Z"/>
    <path class="cls-5" d="m273.75,298.21c0,1.11-.39,1.95-1.16,2.51-.77.57-1.82.85-3.13.85-.75,0-1.39-.06-1.93-.19s-1.02-.31-1.43-.53v-1.71c.43.23.95.44,1.55.63.61.19,1.23.29,1.85.29.9,0,1.54-.15,1.94-.46.4-.3.6-.71.6-1.23,0-.28-.07-.54-.22-.77-.15-.23-.41-.46-.79-.68-.38-.23-.92-.48-1.63-.77-.69-.28-1.29-.57-1.78-.85s-.88-.63-1.14-1.02c-.27-.4-.4-.91-.4-1.53,0-.97.37-1.71,1.11-2.24.74-.53,1.71-.79,2.92-.79.66,0,1.27.07,1.83.21.57.14,1.1.33,1.59.55l-.6,1.49c-.45-.2-.93-.37-1.42-.51-.49-.14-1-.21-1.52-.21-.72,0-1.27.12-1.65.37-.38.25-.57.59-.57,1.01,0,.33.09.6.26.81s.46.43.87.64c.41.21.95.45,1.63.72.68.27,1.26.55,1.74.83.48.28.85.63,1.1,1.03.25.41.38.91.38,1.52Z"/>
    <path class="cls-5" d="m277.25,285.65c.27,0,.5.1.71.29.21.19.31.49.31.91s-.1.71-.31.91c-.21.19-.44.29-.71.29-.29,0-.54-.1-.74-.29-.2-.19-.3-.49-.3-.91s.1-.71.3-.91c.2-.19.45-.29.74-.29Zm.86,4.28v11.42h-1.76v-11.42h1.76Z"/>
    <path class="cls-5" d="m283.28,301.36h-1.76v-16.2h1.76v16.2Z"/>
    <path class="cls-5" d="m287.59,285.65c.27,0,.5.1.71.29.21.19.31.49.31.91s-.1.71-.31.91c-.21.19-.44.29-.71.29-.29,0-.54-.1-.74-.29-.2-.19-.3-.49-.3-.91s.1-.71.3-.91c.2-.19.45-.29.74-.29Zm.86,4.28v11.42h-1.76v-11.42h1.76Z"/>
    <path class="cls-5" d="m296.01,289.72c.91,0,1.7.21,2.36.64.67.43,1.18,1.03,1.53,1.8.35.78.53,1.68.53,2.72v1.13h-7.36c.03,1.29.34,2.28.93,2.95.59.67,1.43,1.01,2.5,1.01.68,0,1.29-.07,1.81-.2.53-.13,1.07-.33,1.63-.59v1.64c-.55.26-1.09.44-1.62.57-.53.12-1.17.18-1.9.18-1.03,0-1.93-.22-2.71-.66-.78-.44-1.38-1.09-1.81-1.96-.43-.87-.65-1.94-.65-3.22s.2-2.32.59-3.22c.39-.89.95-1.58,1.66-2.07.71-.48,1.55-.72,2.5-.72Zm-.02,1.54c-.84,0-1.51.29-1.99.86-.49.58-.78,1.37-.87,2.4h5.47c-.01-.97-.23-1.75-.64-2.36-.41-.6-1.07-.91-1.96-.91Z"/>
    <path class="cls-5" d="m308.34,289.72c1.28,0,2.25.33,2.91,1,.65.67.98,1.73.98,3.2v7.44h-1.74v-7.31c0-1.83-.8-2.75-2.41-2.75-1.19,0-2.01.36-2.46,1.07-.45.71-.68,1.73-.68,3.07v5.92h-1.76v-11.42h1.42l.26,1.56h.1c.35-.6.83-1.04,1.44-1.33.61-.29,1.26-.44,1.94-.44Z"/>
    <path class="cls-5" d="m319.14,300.04c.27,0,.54-.02.82-.06.28-.04.51-.1.68-.17v1.43c-.19.1-.45.18-.8.25-.35.06-.68.1-1,.1-.56,0-1.08-.1-1.55-.31-.47-.21-.86-.57-1.15-1.08-.29-.51-.44-1.23-.44-2.15v-6.65h-1.52v-.9l1.54-.75.7-2.43h1.04v2.62h3.11v1.45h-3.11v6.61c0,.7.16,1.21.47,1.54.31.33.72.5,1.21.5Z"/>
    <path class="cls-5" d="m326.29,295.52c0,1.72-.24,3.37-.71,4.96s-1.22,3-2.23,4.25h-1.64c.92-1.33,1.62-2.79,2.09-4.38.47-1.58.71-3.2.71-4.85s-.24-3.34-.71-4.94c-.47-1.61-1.18-3.08-2.11-4.41h1.66c1.02,1.29,1.76,2.75,2.23,4.36.47,1.61.71,3.29.71,5.02Z"/>
  </g>
  <g class="cls-6">
    <path d="m136.95,115.44v4.97c0,1.17-.18,1.79-.78,2.17-.6.43-1.48.51-2.77.49-.06-.62-.32-1.66-.62-2.32.74.02,1.42.02,1.66,0,.24,0,.34-.08.34-.36v-4.26c-.66.19-1.26.38-1.84.55l-.54-2.45c.68-.15,1.48-.38,2.38-.62v-3.77h-2.16v-2.34h2.16v-4.03h2.16v4.03h2v2.34h-2v3.16l1.8-.51.32,2.28-2.12.68Zm9.12,5.37c.46.04.9.06,1.4.06.68,0,3.17,0,4.03-.02-.28.51-.56,1.58-.64,2.22h-3.49c-2.62,0-4.65-.51-6.01-3.09-.5,1.34-1.22,2.47-2.08,3.35-.38-.4-1.28-1.19-1.76-1.51,1.66-1.41,2.48-3.77,2.78-6.67l2.16.28c-.1.77-.22,1.49-.38,2.15.44,1.24,1.02,2,1.74,2.49v-5.56h-4.71v-2.05h11.84v2.05h-4.89v1.88h3.83v1.98h-3.83v2.45Zm3.89-9.34h-9.88v-7.35h9.88v7.35Zm-2.28-5.56h-5.41v1.07h5.41v-1.07Zm0,2.69h-5.41v1.09h5.41v-1.09Z"/>
    <path d="m159.07,104.25c-.52,1.47-1.18,2.98-1.9,4.43v14.67h-2.34v-10.81c-.42.58-.84,1.09-1.26,1.58-.22-.64-.86-2.03-1.28-2.64,1.8-1.92,3.57-4.92,4.57-7.97l2.22.75Zm4.67,14.11c-1,1.85-2.6,3.73-3.99,4.95-.44-.47-1.34-1.26-1.86-1.6,1.4-1,2.81-2.56,3.63-4.07l2.22.72Zm7.55-4.07v2.47h-13v-2.47h2.68v-4.24h-2.18v-2.43h2.18v-3.99h2.32v3.99h2.9v-4.01h2.32v4.01h2.6v2.43h-2.6v4.24h2.76Zm-7.99,0h2.9v-4.24h-2.9v4.24Zm4.49,3.33c1.3,1.34,2.68,3.16,3.41,4.39l-2,1.34c-.64-1.28-2.04-3.24-3.31-4.63l1.9-1.11Z"/>
    <path d="m191.39,119.77h-3.41v3.52h-2.26v-3.52h-3.71v-2.17h3.71v-1.92h-1.66c-.24.62-.5,1.17-.8,1.64-.34-.26-1.06-.66-1.56-.9v4.5c0,1-.16,1.64-.76,2-.62.36-1.44.43-2.66.43-.06-.62-.38-1.58-.68-2.15.8.04,1.58.04,1.82.04s.34-.08.34-.36v-3.07h-3.99c-.2,2-.66,4.07-1.58,5.61-.34-.34-1.2-.92-1.64-1.13,1.34-2.2,1.44-5.37,1.44-7.76v-3.15c-.4-.43-1.14-1.07-1.56-1.36,1.36-1.56,2.42-4.05,2.96-6.54l2.1.47c-.12.51-.26,1.02-.42,1.51h1.82l.3-.11,1.36.9c-.28.83-.68,1.81-1.1,2.69h2.24v1.3c1.66-.81,2.26-2.05,2.54-3.6h-2.24v-2.07h8.9s-.02.53-.04.81c-.1,3.39-.28,4.86-.7,5.42-.34.45-.72.62-1.22.7-.44.06-1.22.08-2.02.06-.04-.66-.24-1.51-.54-2.05.62.06,1.16.08,1.44.08.24,0,.4-.04.54-.23.18-.23.28-.96.36-2.73h-2.32c-.34,2.22-1.1,3.99-3.15,5.18l1.78.38c-.08.45-.16.92-.28,1.36h.98v-1.92h2.26v1.92h3.01v2.13h-3.01v1.92h3.41v2.17Zm-14.99-12.41c-.22.53-.44,1.07-.68,1.56h1.72c.2-.47.38-1.02.56-1.56h-1.6Zm-.5,7.16c0,.45,0,.92-.02,1.41h1.14v-1.77h-1.12v.36Zm0-2.15h1.12v-1.6h-1.12v1.6Zm2.7,0h1.14v-1.6h-1.14v1.6Zm1.14,3.56v-1.77h-1.14v1.77h1.14Zm1.94.13c.66-1.11,1.14-2.64,1.38-4.16-.14.06-.28.15-.42.21-.18-.43-.58-1.02-.96-1.45v5.39Z"/>
    <path d="m196.49,113.74c-.76-.75-2.44-1.73-3.73-2.3l1.22-1.92c1.3.51,2.99,1.39,3.85,2.11l-1.34,2.11Zm2.52,2.69c-1.08,2.2-2.34,4.63-3.53,6.69l-2.02-1.71c1.06-1.6,2.58-4.24,3.79-6.71l1.76,1.73Zm-1.34-8.5c-.78-.75-2.42-1.77-3.75-2.34l1.32-1.9c1.26.51,2.96,1.43,3.81,2.17l-1.38,2.07Zm7.25,7.44c-.54,3.07-1.92,5.95-5.41,8.04-.44-.55-1.38-1.43-1.98-1.81,3.01-1.68,4.33-3.86,4.91-6.22h-4.09v-2.39h4.45c.04-.7.06-1.41.06-2.13v-1.73h-3.51v-2.39h3.51v-3.24h2.38v3.24h4.63v6.25h1.5v2.39h-6.45Zm.32-4.52c0,.7-.02,1.41-.06,2.13h2.36v-3.86h-2.3v1.73Zm2.12,4.58c1.34,2.07,3.27,4.95,4.15,6.65l-2.12,1.3c-.82-1.75-2.64-4.71-3.99-6.88l1.96-1.07Z"/>
    <path d="m220.88,109.34c-.06.85-.1,1.71-.2,2.58h8.6s-.02.77-.08,1.11c-.36,5.78-.78,8.14-1.6,9.06-.6.7-1.24.92-2.14,1-.78.09-2.1.09-3.47.02-.04-.75-.38-1.81-.84-2.49,1.36.13,2.77.15,3.37.15.44,0,.7-.04.98-.28.52-.49.88-2.3,1.16-6.12h-6.31c-.68,3.56-2.16,6.88-5.77,9.08-.36-.68-1.1-1.56-1.74-2.09,4.81-2.73,5.19-7.52,5.39-12.02h-5.05v-2.47h8.45c-.32-.83-.8-1.9-1.2-2.75l2.34-.94c.54.96,1.14,2.24,1.44,3.05l-1.38.64h8.21v2.47h-10.16Z"/>
    <path d="m251.24,118.6h-4.63c1.56.83,3.47,2,4.51,2.9l-1.86,1.77c-1.06-1.02-3.31-2.49-5.05-3.45l1.36-1.21h-2.3v4.77h-2.38v-4.77h-3.37l2.34.83c-1.16,1.45-3.13,2.77-4.83,3.58-.48-.49-1.44-1.28-2-1.68,1.7-.6,3.49-1.62,4.41-2.73h-4.37v-2.09h7.81v-1.47h2.38v1.47h7.97v2.09Zm-2.46-2.6c-1.42-.62-3.41-1.24-5.69-1.83-2.24.98-5.23,1.43-9.18,1.66-.18-.77-.48-1.56-.82-2.09,2.3-.06,4.25-.23,5.89-.53-1.12-.23-2.24-.45-3.43-.64.52-.49,1.1-1.09,1.66-1.75h-3.99v-1.98h5.63c.48-.64.9-1.26,1.26-1.85h-4.35v1.17h-2.2v-3.26h7.11c-.14-.32-.28-.62-.42-.9l2.52-.53c.26.4.54.94.78,1.43h7.15v3.26h-2.3v-1.17h-7.35l1.44.47c-.32.45-.64.92-1.02,1.39h3.87c.18-.4.34-.85.48-1.3l2.32.49c-.08.28-.18.55-.28.81h3.14v1.98h-4.09c-.44.72-.96,1.34-1.52,1.83,2.16.55,4.13,1.15,5.63,1.71l-2.26,1.64Zm-9.04-5.18c-.16.19-.32.36-.5.53,1.1.19,2.22.43,3.29.66.58-.34,1.1-.73,1.54-1.19h-4.33Z"/>
  </g>
  <g class="cls-6">
    <path class="cls-5" d="m137.97,142.05c0-1.73.24-3.41.71-5.02.47-1.61,1.22-3.07,2.23-4.36h1.66c-.94,1.34-1.64,2.81-2.11,4.41-.47,1.61-.71,3.25-.71,4.94s.24,3.26.71,4.85c.47,1.58,1.17,3.04,2.09,4.38h-1.64c-1.02-1.25-1.76-2.67-2.23-4.25-.47-1.58-.71-3.24-.71-4.96Z"/>
    <path class="cls-5" d="m153.24,143.81c0,1.35-.46,2.4-1.38,3.16-.92.75-2.16,1.13-3.73,1.13-.8,0-1.54-.06-2.22-.19-.68-.13-1.25-.31-1.7-.53v-1.83c.48.23,1.08.43,1.79.62.71.18,1.45.28,2.21.28,1.06,0,1.86-.22,2.41-.66.55-.44.82-1.04.82-1.79,0-.5-.1-.92-.3-1.26-.2-.34-.55-.65-1.04-.94s-1.17-.6-2.02-.94c-1.23-.47-2.15-1.04-2.77-1.73-.61-.68-.92-1.61-.92-2.79,0-.8.19-1.49.58-2.07.39-.58.92-1.03,1.6-1.34.68-.31,1.48-.47,2.38-.47.77,0,1.49.08,2.14.24.65.16,1.26.36,1.8.62l-.56,1.64c-.49-.23-1.04-.42-1.62-.58-.59-.16-1.19-.23-1.8-.23-.9,0-1.57.2-2.02.61-.45.4-.68.94-.68,1.61,0,.51.1.94.3,1.28.2.34.53.65.98.93.45.28,1.07.57,1.84.86.84.33,1.55.68,2.13,1.06.58.38,1.02.83,1.32,1.35.3.53.45,1.19.45,1.98Z"/>
    <path class="cls-5" d="m165.23,142.15c0,1.89-.45,3.35-1.35,4.39s-2.12,1.56-3.66,1.56c-.95,0-1.79-.23-2.54-.69-.74-.46-1.33-1.14-1.75-2.02-.43-.89-.64-1.96-.64-3.23,0-1.89.44-3.35,1.33-4.37.89-1.02,2.11-1.54,3.66-1.54.96,0,1.82.23,2.56.69s1.33,1.13,1.75,2,.63,1.94.63,3.21Zm-8.12,0c0,1.35.25,2.42.75,3.21.5.79,1.3,1.18,2.4,1.18s1.88-.39,2.38-1.18c.51-.79.76-1.86.76-3.21s-.25-2.41-.76-3.18c-.51-.77-1.31-1.15-2.4-1.15s-1.89.38-2.39,1.15-.74,1.83-.74,3.18Z"/>
    <path class="cls-5" d="m169.78,147.89h-1.76v-16.2h1.76v16.2Z"/>
    <path class="cls-5" d="m182.16,136.46v11.42h-1.44l-.26-1.51h-.08c-.35.6-.83,1.03-1.44,1.31-.61.28-1.27.42-1.96.42-1.3,0-2.27-.33-2.93-.99-.65-.66-.98-1.72-.98-3.17v-7.48h1.78v7.35c0,1.82.79,2.73,2.38,2.73,1.19,0,2.01-.36,2.48-1.07.46-.71.69-1.73.69-3.07v-5.95h1.76Z"/>
    <path class="cls-5" d="m189.16,146.56c.27,0,.54-.02.82-.06.28-.04.51-.1.68-.17v1.43c-.19.1-.45.18-.8.25-.35.06-.68.1-1,.1-.56,0-1.08-.1-1.55-.31s-.86-.57-1.15-1.08c-.29-.51-.44-1.23-.44-2.15v-6.65h-1.52v-.9l1.54-.75.7-2.43h1.04v2.62h3.11v1.45h-3.11v6.61c0,.7.16,1.21.47,1.54.31.33.72.5,1.21.5Z"/>
    <path class="cls-5" d="m193.71,132.18c.27,0,.5.1.71.29.21.19.31.49.31.91s-.1.71-.31.91c-.21.19-.44.29-.71.29-.29,0-.54-.1-.74-.29-.2-.19-.3-.49-.3-.91s.1-.71.3-.91c.2-.19.45-.29.74-.29Zm.86,4.28v11.42h-1.76v-11.42h1.76Z"/>
    <path class="cls-5" d="m207.31,142.15c0,1.89-.45,3.35-1.35,4.39-.9,1.04-2.12,1.56-3.66,1.56-.95,0-1.79-.23-2.54-.69-.74-.46-1.33-1.14-1.75-2.02-.43-.89-.64-1.96-.64-3.23,0-1.89.44-3.35,1.33-4.37.89-1.02,2.11-1.54,3.66-1.54.96,0,1.82.23,2.56.69s1.33,1.13,1.75,2c.42.87.63,1.94.63,3.21Zm-8.12,0c0,1.35.25,2.42.75,3.21.5.79,1.3,1.18,2.4,1.18s1.88-.39,2.38-1.18c.51-.79.76-1.86.76-3.21s-.25-2.41-.76-3.18c-.51-.77-1.31-1.15-2.41-1.15s-1.89.38-2.39,1.15-.74,1.83-.74,3.18Z"/>
    <path class="cls-5" d="m215.27,136.25c1.28,0,2.25.33,2.91,1s.98,1.73.98,3.2v7.44h-1.74v-7.31c0-1.83-.8-2.75-2.4-2.75-1.19,0-2.01.36-2.47,1.07-.45.71-.68,1.73-.68,3.07v5.92h-1.76v-11.42h1.42l.26,1.56h.1c.35-.6.83-1.04,1.44-1.33.61-.29,1.26-.44,1.94-.44Z"/>
    <path class="cls-5" d="m229.48,144.73c0,1.11-.39,1.95-1.16,2.51-.78.57-1.82.85-3.13.85-.75,0-1.39-.06-1.93-.19s-1.02-.31-1.43-.53v-1.71c.43.23.95.44,1.55.63s1.23.29,1.85.29c.89,0,1.54-.15,1.94-.46.4-.3.6-.71.6-1.23,0-.28-.07-.54-.22-.77s-.41-.46-.79-.68c-.38-.23-.93-.48-1.63-.77-.69-.28-1.29-.57-1.78-.85s-.88-.63-1.14-1.02c-.27-.4-.4-.91-.4-1.53,0-.97.37-1.71,1.11-2.24s1.71-.79,2.92-.79c.66,0,1.27.07,1.83.21.57.14,1.1.33,1.59.55l-.6,1.49c-.45-.2-.93-.37-1.42-.51-.49-.14-1-.21-1.52-.21-.72,0-1.27.12-1.65.37-.38.25-.57.59-.57,1.01,0,.33.09.6.26.81.17.21.46.43.87.64.41.21.95.45,1.63.72.68.27,1.26.55,1.74.83.48.28.85.63,1.1,1.03.25.41.38.91.38,1.52Z"/>
    <path class="cls-5" d="m235.59,142.05c0,1.72-.24,3.37-.71,4.96-.47,1.58-1.22,3-2.24,4.25h-1.64c.92-1.33,1.62-2.79,2.09-4.38.47-1.58.71-3.2.71-4.85s-.24-3.34-.71-4.94c-.47-1.61-1.18-3.08-2.11-4.41h1.66c1.02,1.29,1.76,2.75,2.24,4.36.47,1.61.71,3.29.71,5.02Z"/>
  </g>
  <g class="cls-6">
    <path d="m54.97,257.77c-.52,1.45-1.14,2.92-1.86,4.31v14.73h-2.4v-10.74c-.42.55-.84,1.09-1.26,1.58-.22-.64-.88-2.02-1.28-2.64,1.8-1.92,3.55-4.95,4.57-7.97l2.24.75Zm11.66,15.8v2.45h-12.56v-2.45h6.97c.68-2.77,1.36-6.91,1.64-9.98l2.48.41c-.5,3.2-1.24,6.91-1.94,9.57h3.41Zm-7.15-13.05c-.14-.92-.54-2.28-.88-3.28l2.26-.6c.4,1.02.8,2.37,1.02,3.24l-2.1.64h6.17v2.45h-11.16v-2.45h4.69Zm-2.32,12.45c-.16-2.22-.64-5.95-1.18-8.8l2.16-.51c.6,2.79,1.16,6.46,1.36,8.61l-2.34.7Z"/>
    <path d="m76.47,264.91s0,.7-.02,1c-.12,6.4-.26,8.8-.78,9.55-.36.6-.76.79-1.3.92-.5.08-1.22.11-2.02.08-.04-.7-.28-1.66-.6-2.28.58.04,1.08.06,1.38.06.24,0,.4-.08.56-.32.26-.43.4-2.11.48-6.71h-1.8c-.26,3.99-.88,7.27-2.6,9.59-.38-.6-1.12-1.49-1.72-1.9,1.96-2.71,2.1-6.93,2.14-12.32h-1.56v-2.34h3.53c-.28-.79-.8-1.79-1.28-2.56l2.12-.85c.6.87,1.26,2.07,1.52,2.86l-1.28.55h3.77v2.34h-4.49c0,.81-.02,1.56-.04,2.32h4.01Zm6.73-7.42c-.14.51-.3,1-.46,1.47.96,2.05,2.7,4.16,4.51,5.24-.56.47-1.3,1.41-1.7,2.03-1.44-1.09-2.8-2.88-3.87-4.82-1.02,2.03-2.36,3.69-4.05,4.97-.34-.62-1.04-1.49-1.64-2,2.32-1.54,4.11-4.22,5.01-7.55l2.2.66Zm-3.73,13.24c1.86,1,4.49,2.64,5.77,3.77l-1.66,2.17c-1.16-1.19-3.73-2.94-5.61-4.07l1.5-1.88Zm3.25-.87c-.7-.87-2.24-2.17-3.41-3.09l1.52-1.64c1.16.83,2.74,2.05,3.53,2.92l-1.64,1.81Z"/>
    <path d="m104.66,270.39h2.28v1.85h-2.28v2.41c0,1.09-.16,1.62-.92,1.94-.74.3-1.7.32-3.11.32-.06-.62-.34-1.41-.58-1.98l-.8.53c-.32-.75-1-1.83-1.72-2.6l.98-.62h-1.88v1.24h-3.09v3.37h-2.1v-3.37h-3.23v-2.22h3.23v-1.28h-2.56v-7.7h2.56v-1.11h-2.95v-2.2h2.95v-2.03h2.1v2.03h2.85v2.2h-2.85v1.11h2.66v7.7h-2.66v1.28h3.09v-.87h5.87v-.83h2.16v.83Zm-14.08-5.07h1.14v-1.26h-1.14v1.26Zm0,2.92h1.14v-1.26h-1.14v1.26Zm3.91-4.18h-1.22v1.26h1.22v-1.26Zm0,2.92h-1.22v1.26h1.22v-1.26Zm2.12.75c1.1,0,2.48-.02,4.01-.06v-.94h-3.49v-5.71h3.49v-.79h-3.83v-1.85h3.83v-1.41h2.02v1.41h4.03v1.85h-4.03v.79h3.67v5.71h-.84c.66.81,1.26,1.75,1.6,2.45l-1.66.87c-.1-.21-.22-.47-.38-.75-3,.11-6.09.19-8.29.23l-.12-1.81Zm2.38-4.52h1.62v-.83h-1.62v.83Zm1.62,2.15v-.85h-1.62v.85h1.62Zm1.88,6.88h-3c.62.66,1.18,1.47,1.46,2.07l-.82.55c.8.04,1.72.04,1.98.04.28-.02.38-.09.38-.32v-2.34Zm.14-9.87v.83h1.7v-.83h-1.7Zm1.7,2.13h-1.7v.85h1.7v-.85Zm-1.7,3.11l1.28-.02c-.16-.21-.32-.41-.48-.6l.56-.28h-1.36v.89Z"/>
    <path d="m126.65,273.82v2.35h-18.05v-2.35h7.83v-1.71h-5.81v-2.3h5.81v-1.34h-1.5v-4.09h-1.84c-.32,1.75-1.16,3.5-3.15,4.67-.3-.47-1.14-1.43-1.56-1.77,1.48-.81,2.14-1.83,2.44-2.9h-2.02v-2.24h2.26v-2.24h-1.58v-2.22h9.1v2.22h-1.42v2.24h1.88v2.24h-1.88v3.73h1.72v1.71h5.79v2.3h-5.79v1.71h7.77Zm-11.72-11.68v-2.24h-1.68v2.24h1.68Zm7.13,3.22h-2.18v-7.21h2.18v7.21Zm3.73.92c0,1.17-.2,1.77-.96,2.13-.72.34-1.74.41-3.15.41-.1-.66-.42-1.62-.7-2.24.9.04,1.86.04,2.16.02.28-.02.38-.09.38-.36v-9.06h2.26v9.1Z"/>
    <path d="m133.05,272.65c-.7,1.56-1.88,3.22-2.96,4.26-.44-.45-1.36-1.17-1.9-1.51,1.04-.83,2.08-2.17,2.64-3.45l2.22.7Zm5.13-.85h-9.84v-2.22h1.8v-7.91h-1.56v-2.22h1.56v-2.26h2.14v2.26h2.48v-2.26h2.18v2.26h1.36v2.22h-1.36v7.91h1.22v2.22Zm-5.89-10.13v1.24h2.48v-1.24h-2.48Zm0,4.52h2.48v-1.34h-2.48v1.34Zm0,3.39h2.48v-1.45h-2.48v1.45Zm14.12,4.46c0,1.26-.22,1.92-.92,2.32s-1.72.47-3.21.45c-.08-.66-.38-1.77-.68-2.41.86.06,1.82.04,2.1.04.3,0,.4-.11.4-.45v-4.2h-3.05c-.22,2.52-.72,5.18-1.8,7.1-.38-.45-1.36-1.21-1.88-1.43.06-.13.14-.23.2-.36l-1.66,1c-.4-.83-1.36-2.24-2.14-3.22l1.8-1.04c.72.85,1.66,2.03,2.16,2.9,1.16-2.66,1.26-6.27,1.26-9.04v-7.82h7.41v16.16Zm-2.3-6.5v-2.62h-2.89v.79c0,.55,0,1.17-.02,1.83h2.91Zm-2.89-7.35v2.49h2.89v-2.49h-2.89Z"/>
  </g>
  <g class="cls-6">
    <path class="cls-5" d="m31.88,295.52c0-1.73.24-3.41.71-5.02.47-1.61,1.22-3.07,2.23-4.36h1.66c-.94,1.34-1.64,2.81-2.11,4.41-.47,1.61-.71,3.25-.71,4.94s.24,3.26.71,4.85c.47,1.58,1.17,3.04,2.09,4.38h-1.64c-1.02-1.25-1.76-2.67-2.23-4.25-.47-1.58-.71-3.24-.71-4.96Z"/>
    <path class="cls-5" d="m43.56,301.36h-1.8v-13.53h-4.47v-1.68h10.72v1.68h-4.45v13.53Z"/>
    <path class="cls-5" d="m53.95,289.72c.2,0,.41.01.64.03s.43.05.62.1l-.22,1.73c-.17-.04-.37-.08-.58-.11-.21-.03-.41-.04-.58-.04-.55,0-1.06.16-1.54.48-.48.32-.87.77-1.15,1.34-.29.58-.43,1.25-.43,2.01v6.1h-1.76v-11.42h1.44l.2,2.09h.08c.33-.63.78-1.17,1.33-1.62.55-.46,1.21-.68,1.95-.68Z"/>
    <path class="cls-5" d="m60.88,289.74c1.31,0,2.28.31,2.91.92.63.61.94,1.58.94,2.92v7.78h-1.28l-.34-1.62h-.08c-.47.63-.96,1.09-1.48,1.39-.52.3-1.23.45-2.12.45-.98,0-1.78-.27-2.43-.82-.64-.55-.96-1.4-.96-2.57s.42-2.01,1.26-2.63,2.14-.96,3.89-1.01l1.82-.06v-.68c0-.95-.19-1.61-.58-1.98-.39-.37-.94-.55-1.64-.55-.56,0-1.1.09-1.6.27s-.98.38-1.42.61l-.54-1.41c.47-.27,1.02-.5,1.66-.69.64-.19,1.31-.29,2-.29Zm2.1,6.03l-1.58.06c-1.34.06-2.26.28-2.78.68-.51.4-.77.96-.77,1.68,0,.64.18,1.11.55,1.41.37.3.84.45,1.41.45.89,0,1.65-.27,2.25-.8.61-.53.91-1.35.91-2.46v-1.02Z"/>
    <path class="cls-5" d="m73.22,289.72c1.28,0,2.25.33,2.91,1,.65.67.98,1.73.98,3.2v7.44h-1.74v-7.31c0-1.83-.8-2.75-2.4-2.75-1.19,0-2.01.36-2.47,1.07-.45.71-.68,1.73-.68,3.07v5.92h-1.76v-11.42h1.42l.26,1.56h.1c.35-.6.83-1.04,1.44-1.33.61-.29,1.26-.44,1.94-.44Z"/>
    <path class="cls-5" d="m87.43,298.21c0,1.11-.39,1.95-1.16,2.51-.77.57-1.82.85-3.13.85-.75,0-1.39-.06-1.93-.19s-1.02-.31-1.43-.53v-1.71c.43.23.95.44,1.55.63s1.23.29,1.85.29c.9,0,1.54-.15,1.94-.46.4-.3.6-.71.6-1.23,0-.28-.07-.54-.22-.77s-.41-.46-.79-.68c-.38-.23-.93-.48-1.63-.77-.69-.28-1.29-.57-1.78-.85-.49-.28-.88-.63-1.14-1.02-.27-.4-.4-.91-.4-1.53,0-.97.37-1.71,1.11-2.24.74-.53,1.71-.79,2.92-.79.65,0,1.27.07,1.83.21.57.14,1.1.33,1.59.55l-.6,1.49c-.45-.2-.93-.37-1.42-.51-.49-.14-1-.21-1.52-.21-.72,0-1.27.12-1.65.37-.38.25-.57.59-.57,1.01,0,.33.09.6.26.81.17.21.46.43.87.64.41.21.95.45,1.63.72.68.27,1.26.55,1.74.83s.85.63,1.1,1.03c.25.41.38.91.38,1.52Z"/>
    <path class="cls-5" d="m90.94,285.65c.27,0,.5.1.71.29.21.19.31.49.31.91s-.1.71-.31.91c-.21.19-.44.29-.71.29-.29,0-.54-.1-.74-.29-.2-.19-.3-.49-.3-.91s.1-.71.3-.91c.2-.19.45-.29.74-.29Zm.86,4.28v11.42h-1.76v-11.42h1.76Z"/>
    <path class="cls-5" d="m98.8,300.04c.27,0,.54-.02.82-.06.28-.04.51-.1.68-.17v1.43c-.19.1-.45.18-.8.25-.35.06-.68.1-1,.1-.56,0-1.08-.1-1.55-.31s-.86-.57-1.15-1.08c-.29-.51-.44-1.23-.44-2.15v-6.65h-1.52v-.9l1.54-.75.7-2.43h1.04v2.62h3.11v1.45h-3.11v6.61c0,.7.16,1.21.47,1.54.31.33.72.5,1.21.5Z"/>
    <path class="cls-5" d="m103.35,285.65c.27,0,.5.1.71.29.21.19.31.49.31.91s-.1.71-.31.91c-.21.19-.44.29-.71.29-.29,0-.54-.1-.74-.29-.2-.19-.3-.49-.3-.91s.1-.71.3-.91c.2-.19.45-.29.74-.29Zm.86,4.28v11.42h-1.76v-11.42h1.76Z"/>
    <path class="cls-5" d="m116.95,295.63c0,1.89-.45,3.35-1.35,4.39s-2.12,1.56-3.66,1.56c-.95,0-1.79-.23-2.54-.69-.74-.46-1.33-1.14-1.75-2.02-.43-.89-.64-1.96-.64-3.23,0-1.89.44-3.35,1.33-4.37.89-1.02,2.11-1.54,3.66-1.54.96,0,1.82.23,2.56.69s1.33,1.13,1.75,2,.63,1.94.63,3.21Zm-8.12,0c0,1.35.25,2.42.75,3.21.5.79,1.3,1.18,2.4,1.18s1.88-.39,2.38-1.18c.51-.79.76-1.86.76-3.21s-.25-2.41-.76-3.18c-.51-.77-1.31-1.15-2.4-1.15s-1.89.38-2.39,1.15-.74,1.83-.74,3.18Z"/>
    <path class="cls-5" d="m124.91,289.72c1.28,0,2.25.33,2.91,1,.65.67.98,1.73.98,3.2v7.44h-1.74v-7.31c0-1.83-.8-2.75-2.4-2.75-1.19,0-2.01.36-2.47,1.07-.45.71-.68,1.73-.68,3.07v5.92h-1.76v-11.42h1.42l.26,1.56h.1c.35-.6.83-1.04,1.44-1.33.61-.29,1.26-.44,1.94-.44Z"/>
    <path class="cls-5" d="m133.03,285.65c.27,0,.5.1.71.29.21.19.31.49.31.91s-.1.71-.31.91c-.21.19-.44.29-.71.29-.29,0-.54-.1-.74-.29-.2-.19-.3-.49-.3-.91s.1-.71.3-.91c.2-.19.45-.29.74-.29Zm.86,4.28v11.42h-1.76v-11.42h1.76Z"/>
    <path class="cls-5" d="m142.47,289.72c1.28,0,2.25.33,2.91,1,.65.67.98,1.73.98,3.2v7.44h-1.74v-7.31c0-1.83-.8-2.75-2.4-2.75-1.19,0-2.01.36-2.47,1.07-.45.71-.68,1.73-.68,3.07v5.92h-1.76v-11.42h1.42l.26,1.56h.1c.35-.6.83-1.04,1.44-1.33.61-.29,1.26-.44,1.94-.44Z"/>
    <path class="cls-5" d="m153.49,289.72c.71,0,1.35.14,1.91.43s1.05.72,1.45,1.3h.1l.24-1.51h1.4v11.62c0,1.63-.39,2.86-1.17,3.69-.78.82-1.99,1.24-3.64,1.24s-2.87-.24-3.87-.72v-1.73c1.06.6,2.38.9,3.97.9.92,0,1.65-.29,2.17-.86.53-.58.79-1.36.79-2.36v-.45c0-.17,0-.42.02-.74.01-.32.03-.54.04-.67h-.08c-.72,1.15-1.83,1.73-3.33,1.73-1.39,0-2.48-.52-3.26-1.56-.78-1.04-1.17-2.49-1.17-4.35s.39-3.26,1.17-4.34c.78-1.07,1.86-1.61,3.24-1.61Zm.24,1.58c-.9,0-1.59.38-2.08,1.14-.49.76-.74,1.84-.74,3.25s.24,2.48.72,3.23,1.2,1.12,2.14,1.12c1.08,0,1.87-.31,2.36-.93s.74-1.62.74-2.99v-.45c0-1.55-.25-2.67-.76-3.35s-1.3-1.02-2.38-1.02Z"/>
    <path class="cls-5" d="m165.51,295.52c0,1.72-.24,3.37-.71,4.96-.47,1.58-1.22,3-2.23,4.25h-1.64c.92-1.33,1.62-2.79,2.09-4.38.47-1.58.71-3.2.71-4.85s-.24-3.34-.71-4.94c-.47-1.61-1.18-3.08-2.11-4.41h1.66c1.02,1.29,1.76,2.75,2.23,4.36.47,1.61.71,3.29.71,5.02Z"/>
  </g>
  <g>
    <g>
      <path class="cls-9" d="m207.8,61.75c0,8.6-7,15.5-15.5,15.5s-15.5-6.9-15.5-15.5,6.9-15.5,15.5-15.5,15.5,6.9,15.5,15.5Z"/>
      <g>
        <path class="cls-3" d="m179.9,62.95c.2-.2.4-.4.6-.5.2-.2.6-.1.8.1.1.1.2.2.3.2.4,0,.6.1.8.4.1.2.3.3.5.3.2.1.4.3.5.4,0,0,0,.1-.1.2,0,.1-.1.2-.1.2.1.1.2.2.3.2h.9c.2,0,.3.1.5.2.1.1.2.2.3.3s.1.4,0,.6c-.2.2-.3.5-.3.7,0,.1-.1.2-.1.3-.1.2-.2.3-.2.4,0,.2-.2.4-.4.4-.3,0-.6.3-.7.6-.1.2-.2.4-.4.6-.1.2-.3.3-.4.4-.2.2-.3.4-.7.4-.2,0-.6.4-.6.6,0,.1-.1.2-.2.3-.1.1-.1.3-.1.4s-.1.3-.1.5c0,.1.1.2.1.2,0,.1.1.1.1.1-.1,0-.1.1-.2.1-.3.1-.5-.1-.6-.4,0-.2-.2-.3-.2-.4s-.1-.2-.1-.3v-.8c0-.1.1-.2.2-.3.2-.2.2-.4.2-.7s0-.6.2-.8c.1-.1.1-.3.1-.4v-.8c0-.2-.1-.3-.2-.4-.2-.2-.4-.4-.6-.7q-.1-.1-.1-.2c0-.2-.1-.3-.2-.5-.1-.1-.1-.2-.1-.3v-.8c0-.1.1-.2.1-.3.4.1.4-.2.2-.5h0Z"/>
        <path class="cls-3" d="m181.9,53.65h-.2c-.2,0-.3,0-.3-.2q-.1-.2-.3-.1c-.1.1-.2.1-.3,0s0-.2.1-.3.2-.2.3-.2c.2,0,.4-.1.5-.3l.1-.1c.2,0,.4-.1.5-.3.1-.1.4-.1.6,0,.1.1.3.1.4,0,.1-.1.2-.2.4-.4l.1-.1c.2,0,.4-.1.5-.2.1-.1.2-.1.3-.1h.8c.1,0,.2.1.3.1.2.2.3.3.6.2.1,0,.2,0,.3.2,0,.1.1.2.2.3.1.1.2.1.4,0s.2-.1.4,0c.1.1.1.2,0,.3s-.2.2-.3.4c-.1.1-.2.3-.2.5,0,.1,0,.3-.2.3,0,0-.1,0-.1.1-.1.3-.4.4-.7.5-.2.1-.5.2-.8.4-.1.1-.2,0-.4,0s-.3.1-.4.3c0,.2-.1.3-.3.3s-.4.1-.5-.1c-.2-.2-.5-.5-.7-.7-.1-.1-.1-.2-.1-.3.1-.5-.2-.8-.6-.9-.2.4-.3.4-.4.4h0Z"/>
        <path class="cls-3" d="m205.2,63.65c0,.2,0,.4-.2.6,0,0,0,.1-.1.1-.1.2-.2.3-.5.2-.1,0-.1-.1-.1-.1-.1-.1-.2-.3-.3-.4-.1-.1,0-.3.2-.4h.1c.3,0,.5-.2.6-.4q.1-.1.2-.1c0,.1.1.1.1.2.1.1,0,.2,0,.3Z"/>
        <path class="cls-3" d="m203.7,64.45v.3c0,.1-.1.2-.2.1-.3-.2-.5-.4-.6-.7,0-.1-.1-.1-.2-.2-.1-.1-.2-.3-.3-.5-.1-.1.1-.2.2-.1.1.1.3.2.4.4.2.2.4.4.6.6,0,0,.1,0,.1.1h0Z"/>
        <path class="cls-3" d="m196.4,66.65c0,.2,0,.3-.3.4l-.1.1c-.1.1-.2,0-.2-.1v-.4c0-.1.1-.1.1-.2l.1-.1c.1,0,.2-.1.2-.1.1,0,.1.1.1.2.1,0,.1.1.1.2Z"/>
        <path class="cls-3" d="m202.9,62.95c.1,0,.1.1.2.2.1.1.3.3.4.4v.2c-.1.1-.1,0-.2,0-.2-.2-.3-.3-.5-.5,0-.1-.1-.2.1-.3q-.1.1,0,0Z"/>
        <path class="cls-3" d="m187.3,55.45c-.2,0-.3-.1-.4-.2v-.2h.2c.1.1.2.2.4.2l.1.1q0,.1-.1.1c0-.1-.1-.1-.2,0Z"/>
        <path class="cls-3" d="m205.9,61.95v.1c0,.1-.1.1-.1.1,0,0-.1,0-.1-.1q-.1-.1-.1-.2c0-.1-.1-.2-.1-.2.1,0,.2-.1.3-.1,0,0,.1.1.1.2q0,.1,0,.2h0Z"/>
        <path class="cls-3" d="m205.6,64.65h-.2l-.1-.1s0-.1.1-.1q.1-.1.2-.1c.1,0,.2-.1.2,0,.1.1.1.2.1.3s-.1.1-.1.2q-.1-.2-.2-.2Z"/>
        <path class="cls-3" d="m198.4,53.65h-.3s-.1,0-.1-.1c0,0,0-.1.1-.1h.6l.1.1-.1.1h-.3Z"/>
        <path class="cls-3" d="m204.4,65.05h.2c.1,0,.1.1.1.1l-.1.1h-.4c-.1,0-.1-.1-.1-.1.1,0,.1-.1.2-.1,0-.1.1,0,.1,0h0Z"/>
        <path class="cls-3" d="m180.9,61.25s.1,0,.2.1l.1.1-.1.1h-.4l-.1-.1s0-.1.1-.1c0-.1.1-.1.2-.1Z"/>
        <path class="cls-3" d="m179.8,61.25c-.1,0-.3-.1-.2-.1,0-.2.2-.1.3-.1h.2c.1,0,.1.1.1.1-.1,0-.1.1-.1.1-.2,0-.2-.1-.3,0h0Z"/>
        <path class="cls-3" d="m206,62.95c.1.1.2.1.2.2s-.1.1-.2.1-.1-.1-.2-.1c.1-.1.1-.2.2-.2Z"/>
        <path class="cls-3" d="m179.1,53.85c.1.1.1.2-.1.3h-.1c-.1-.1.1-.3.2-.3Z"/>
        <path class="cls-3" d="m207.1,65.75c-.1,0-.2.1-.3.1-.2.1-.3.2-.5.2q-.1,0-.2.1c-.3.2-.5.6-.9.6h0c-.2.1-.3.2-.5.3,0,0-.1,0-.1.1,0,.2-.1.5.1.7.1.2.3.3.2.6v.2c0,.2.1.3.2.4.1.1.2,0,.3-.1s.2-.2.3-.2c.3,0,.4-.2.6-.4.4-.8.7-1.6.9-2.5.1-.1,0-.1-.1-.1Z"/>
        <path class="cls-3" d="m207.5,64.35q-.1-.1-.2-.1h-.2l-.1.1c0,.2.1.3.3.3h.1l.1-.1h0c.1-.1,0-.2,0-.2Z"/>
        <path class="cls-3" d="m206.9,59.65c.2-.2.3-.2.5-.2.1,0,.2,0,.2-.1v-.2h0s-.1,0-.2.1c-.1,0-.1.1-.2.1-.1.1-.3.1-.4.2v.2c0-.1.1-.1.1-.1Z"/>
        <path class="cls-3" d="m203.7,62.85c.1-.1.3-.2.4-.3.1-.1.2-.3.1-.4-.2-.2-.3-.5-.3-.7l.1-.1c.2.1.3,0,.4-.1,0,0,.1-.1.2-.1.2,0,.4-.2.4-.4s.1-.3.3-.3.4-.2.4-.4v-.9c0-.2-.1-.3-.1-.5.1-.1.3,0,.4.1l.1.1c.3,0,.4.2.4.4l.1.1.1-.1c0-.1,0-.3.1-.4,0-.3.2-.6.5-.7.1,0,.2-.1.2-.1-.3-1-.6-2-1.1-2.9h0c-.1-.3-.3-.5-.4-.8-.1-.1-.2-.1-.4-.1h-.1c-.2,0-.4,0-.5-.2-.1-.1-.2-.1-.3-.2-.1-.1-.2-.1-.3-.1-.1-.1-.3-.2-.4-.2h-.4c-.1,0-.2.1-.3.1-.2.2-.4.2-.7.2h-1.1c-.1,0-.2,0-.2.1-.2.2-.4.3-.7.3-.1,0-.2,0-.3.1-.2.2-.4.4-.6.5h-.1v-.1s0-.1.1-.1c.2-.1.1-.3.1-.5s-.3-.4-.4-.3c-.1.1-.2.2-.2.3-.1.1-.1.3-.2.4-.2.3-.4.3-.6.1-.1-.1-.2-.1-.3-.2-.4-.1-.4-.2-.2-.5.1-.1,0-.2-.1-.2h-.3c-.2,0-.3.2-.3.4s.1.2.3.2c.1,0,.2.2.1.2-.2.2-.8.3-1,.1h0c-.1,0-.2-.1-.2-.1-.1,0-.1.1-.1.2,0,.2-.1.3-.3.3s-.4,0-.4.2h0q-.1.1-.2,0t0-.2c.1-.1.1-.2.1-.3s-.4-.4-.6-.4h-1.6c-.2.2-.5.3-.8.4-.1.1-.2.2-.4.2-.4.1-.5.3-.8.6v.2c.1.1.2.2.3.2h.3c.2,0,.2.1.3.2.1.2.3.2.4.1.1-.1.2-.1.2-.2q.2-.2,0-.4-.1-.1,0-.2c.1-.1.3-.3.4-.4.1-.1.2-.1.3,0s0,.1,0,.2-.1.2,0,.3c0,.1.1.1.2.1h.2c.1.1.2.1.3.2-.1.1-.2.1-.3.2h-.5c-.2,0-.3.1-.3.2-.2.3-.4.5-.8.5-.2,0-.3-.1-.5-.2-.1-.1-.2-.1-.3,0-.2.2-.5.2-.7.3,0,0-.1,0-.2-.1-.1-.1-.1-.2-.2-.2-.1-.1-.2-.4-.4-.5-.3-.1-.4-.1-.6.1-.1.1-.1.3-.3.3v.2s0,.1.1.1q.1.3.4.2h0c.1,0,.1-.1.1-.2l-.1-.1c0-.1-.1-.1,0-.2.1-.1.2-.1.3,0s0,.2-.1.3c-.1.2-.1.3.1.3h.1c.2,0,.3,0,.3.2l-.1.1c-.1.1-.2.2-.1.4,0,.1,0,.2-.1.2-.1.2-.3.2-.6.2-.1,0-.2.1-.2.1,0,.2-.1.5.1.7.1.1.1.2.1.3-.1.1-.1.3-.2.5,0,.1-.1.1-.1.2-.2.2-.5.5-.7.7-.1.1-.2.3-.2.5v.8c0,.2.1.4.2.5q.1.1.1.2c.1.2.3.3.4.5h.1c.3,0,.5.1.7.2.1,0,.2.1.2,0,.2-.1.4-.3.6-.5.1-.1.2-.1.3,0,.1.2.2.2.4.2s.3.1.3.3v.6c0,.1.1.2.1.3.1.1.2.3.2.4s.1.2.1.3c.1.1.1.3,0,.4-.1.1-.1.3-.1.4v.4c0,.2,0,.3.2.3.1.1.2.2.2.3v.5c0,.1.1.2.1.3.1.1.2.3.2.4.1.2.2.4.5.4h.6c.3,0,.5-.1.5-.5,0-.1.1-.2.1-.2.1-.1.2-.2.2-.3,0-.2.1-.4.3-.5,0,0,.1-.1.1-.2-.1-.2,0-.3.1-.4.1-.1.2-.2.2-.4,0-.1.1-.2.1-.3.1-.2.2-.3.2-.5s-.1-.3-.2-.4c-.1-.1-.1-.3,0-.4.1-.1.2-.2.3-.3.2-.2.5-.4.7-.7.1-.1.2-.3.3-.4.1-.1.1-.2.1-.4.1-.1,0-.2-.1-.2h-.3c-.4,0-.7-.3-.8-.7v-.1c-.1-.1-.3-.2-.4-.4-.1-.1-.1-.3-.2-.4,0-.1-.1-.2-.2-.3,0-.1-.1-.2-.2-.3v-.1c.1-.1.2-.1.2-.1q.1.1.2.2c0,.1,0,.2.1.3s.2.3.2.5q0,.1.1.2c.3.3.5.5.8.8.1.1.5.1.6,0s.3-.3.5-.2c0,0,.1,0,.1-.1.1-.1.3-.3.4-.4.2-.2.2-.4.1-.6-.1-.2,0-.3.2-.3h.6c.2,0,.3.1.3.3s.2.4.4.4.3.2.3.4v.3c-.1.4.1.6.4.8,0,0,.2.1.2,0,.2-.1.3-.3.4-.5,0-.1.1-.2.1-.3.1-.1.1-.3.2-.4.1-.1.1-.2.2-.2.1-.1.3-.1.4-.2.2-.1.4-.1.4.2,0,.1.1.1.1.2.1.1.2.3.2.4s.1.2.1.2c.1,0,.2,0,.2-.1.1-.1.2-.1.2,0,.1.1.2.2.3.3,0,0,.1.1.1.2v.2c.4.4.5.5.7.4Zm-9.2-3.1c-.3.3-.6.3-.9,0-.1-.1-.3-.2-.5-.2s-.5,0-.6.1-.2,0-.3,0c-.1-.1-.3-.1-.4-.1-.2,0-.3-.1-.2-.3,0-.1-.1-.3-.3-.4-.2,0-.3,0-.5.1-.2.2-.5.2-.8.2h-.4c-.1,0-.1-.1-.2-.1,0,0,0-.1.1-.2.2-.1.3-.2.4-.4h.1c.3,0,.4-.2.6-.3.1,0,.2-.1.3-.1.2,0,.4.1.5.2.1.1.2.1.3.1s.2.1.3.1h.2v-.2c-.1-.1-.2-.2-.3-.2s-.2,0-.2-.1c0,0-.1-.1-.1-.2s.1-.2.3-.1c.1,0,.1.1.2.1.2.2.3.3.5.5.1.1.1.2.1.2v.1l.1.1c0-.1.1-.1.1-.2v-.1c0-.1.1-.1.2-.2,0,0,.1,0,.2.1.2.3.4.4.7.5.1.1.3,0,.5,0,.1,0,.2,0,.3.1,0,.6-.2.7-.3.9Zm2.6.8c-.2.1-.3.1-.4-.1-.1-.1-.2-.3-.4-.3-.1,0-.2-.1-.2-.2l.1-.2h.2c.2.1.3.3.6.3.1,0,.2.1.3.2-.1.2-.2.3-.2.3Z"/>
        <path class="cls-3" d="m181.3,54.45c-.1,0-.3-.1-.4-.1-.1-.1-.3-.2-.5-.2h-1c-.3,0-.4.1-.5.4,0,.2-.1.2-.3.2-.1,0-.2,0-.3.1v.1c-.1.1-.1.3-.2.5l.1.1c.1,0,.3,0,.4-.1.1-.1.2-.1.4-.1h.1c.1-.2.3-.3.4-.6,0-.2.2-.3.3-.2.2.1.5.4.5.6s.1.4.3.4h.5c.3,0,.5-.2.7-.3,0,0,.1-.1,0-.2-.1-.3-.3-.5-.5-.6Z"/>
        <path class="cls-3" d="m182.7,56.75s0-.1-.1-.1c-.3-.3-.5-.5-.8-.8-.1-.1-.2-.1-.3,0s-.2.1-.4,0c-.1,0-.1-.1-.2-.1-.2,0-.4-.1-.5-.3-.1-.1-.2-.1-.3,0,0,0-.1.1-.1.2s0,.3.1.4c0,.1.1.3-.1.3-.1,0-.1.1-.1.1-.1.1-.3.1-.4.1-.2-.1-.4-.1-.6-.1-.1,0-.2,0-.3-.1-.2-.1-.3-.3-.5-.3-.1,0-.2,0-.2.1-.1,0-.1.1-.1.2h0c-.6,1.5-.9,3.1-.9,4.8h0c0,.2.1.4.3.5.1.1.3.1.5.1s.3,0,.5.2c.1.1.2.2.3.2.2,0,.3.1.5.3s.4.5.8.4c.1,0,.1-.1.2-.1-.1,0-.1-.1-.2-.1-.3-.1-.4-.1-.4-.4,0-.2,0-.3-.3-.3h-.1c-.2,0-.3-.2-.2-.4l.1-.1c.1-.1,0-.2-.1-.2-.2,0-.4,0-.5.1s-.3.1-.4,0c-.1-.1-.2-.2-.3-.3s-.2-.3-.2-.4c.1-.3.3-.4.6-.5.1,0,.2-.1.3-.1.3-.3.8-.2,1,0,.1.1.2.2.3.3,0,0,.1.1.1,0l.1-.1v-.4c0-.1.1-.2.2-.3.1,0,.1-.1.2-.2.1-.3.4-.5.6-.7.2-.2.4-.4.6-.6.1-.1.3-.2.4,0,.1.1.3.1.5.1.1,0,.1-.1.2-.1,0,0-.1-.1-.1-.2-.1-.1-.2-.2-.3-.3s-.1-.3.1-.4c.2,0,.4,0,.5.1s.1.1.2.2h.2v-.2c-.3-.2-.4-.3-.4-.5Z"/>
      </g>
    </g>
    <g>
      <g>
        <path class="cls-4" d="m173.7,72.45c-4.6-7.9-3.5-17.5,1.9-24.2l1.2,2,8.1-14.3-16.4-.2,1.9,3.3c-10.2,9.8-12.7,25.7-5.4,38.4,2.6,4.5,6.2,8.2,10.4,10.8l-5.3-9.4,9.3-.1c-2.3-1.6-4.2-3.7-5.7-6.3Z"/>
        <path class="cls-10" d="m184.9,35.95l-16.4-.2,1.9,3.3c-10.1,9.8-12.7,25.6-5.4,38.4-.6-1.1-7.7-15.2,10.7-29.2l1.2,2,8-14.3Z"/>
      </g>
      <g>
        <path class="cls-4" d="m218.4,72.45l-4.8-8c-.8,6.4-4.5,12.4-10.6,15.9-4.4,2.5-9.4,3.3-14.1,2.6l1.2-2-16.5.2,8.1,14.3,1.9-3.3c7.9,2.2,16.7,1.4,24.4-3,9.7-5.6,15.3-15.5,15.8-25.9l-5.4,9.2Z"/>
        <path class="cls-10" d="m189,82.95l1.2-2-16.5.2,8.1,14.3,1.9-3.3c13.6,3.9,28.5-1.8,35.9-14.5-.6,1-9.3,14.2-30.6,5.3Z"/>
      </g>
      <g>
        <path class="cls-4" d="m222.9,54.05c-.7-2.8-1.8-5.5-3.3-8.1-8.5-14.7-27-20-41.9-12.2l10.8.1-4.6,8.1c9.8-4.2,21.4-.4,26.9,9,.6,1,1,2,1.4,3h-2.3l8.4,14.2,8.4-14.2h-3.8v.1Z"/>
        <path class="cls-10" d="m222.9,54.05c-3.4-13.7-15.8-23.8-30.5-23.8,1.3,0,17,.9,20,23.8h-2.4l8.4,14.2,8.4-14.2h-3.9Z"/>
      </g>
    </g>
  </g>
  <g>
    <g>
      <polygon class="cls-9" points="69.6 237.05 69.6 243.15 72.3 242.25 72.3 236.25 69.6 237.05"/>
      <polygon class="cls-10" points="67.6 236.85 67.6 242.95 69.6 243.15 69.6 237.05 67.6 236.85"/>
      <polygon class="cls-2" points="70.3 236.15 67.6 236.85 67.6 236.85 69.6 237.05 69.6 237.05 69.6 237.05 72.3 236.25 70.3 236.15"/>
    </g>
    <g>
      <polygon class="cls-9" points="74.6 234.05 74.6 243.85 78.9 242.45 78.9 232.85 74.6 234.05"/>
      <polygon class="cls-10" points="71.5 233.95 71.5 243.45 74.6 243.85 74.6 234.05 71.5 233.95"/>
      <polygon class="cls-2" points="75.8 232.65 71.5 233.95 74.6 234.05 78.9 232.85 75.8 232.65"/>
    </g>
    <g>
      <polygon class="cls-10" points="76.7 230.15 76.7 244.25 81.3 244.75 81.3 230.45 76.7 230.15"/>
      <polygon class="cls-9" points="81.3 230.45 81.3 244.75 87.5 242.65 87.5 228.65 81.3 230.45"/>
      <polygon class="cls-2" points="83 228.35 76.7 230.15 81.3 230.45 87.5 228.65 83 228.35"/>
    </g>
    <g>
      <polygon class="cls-9" points="90.1 225.55 90.1 245.75 98.9 242.85 98.9 223.05 90.1 225.55"/>
      <polygon class="cls-10" points="83.7 225.25 83.7 244.95 90.1 245.75 90.1 225.55 83.7 225.25"/>
      <polygon class="cls-2" points="92.6 222.65 83.7 225.25 90.1 225.55 98.9 223.05 92.6 222.65"/>
    </g>
    <g>
      <polygon class="cls-9" points="101.2 219.95 101.2 246.95 113 243.05 113 216.55 101.2 219.95"/>
      <polygon class="cls-10" points="92.6 219.45 92.6 245.95 101.2 246.95 101.2 219.95 92.6 219.45"/>
      <polygon class="cls-2" points="104.5 216.05 92.6 219.45 101.2 219.95 101.2 219.95 101.2 219.95 113 216.55 104.5 216.05"/>
    </g>
    <g>
      <polygon class="cls-9" points="115 214.15 115 248.75 130.1 243.75 130.1 209.85 115 214.15"/>
      <polygon class="cls-10" points="104 213.55 104 247.45 115 248.75 115 214.15 104 213.55"/>
      <polygon class="cls-2" points="119.1 209.15 104 213.55 115 214.15 115 214.15 115 214.15 130.1 209.85 119.1 209.15"/>
    </g>
  </g>
  <g>
    <path class="cls-9" d="m91.7,205.95c-2.2.7-4.5,1.6-7,2.9h0c-6.6,6.4-7,15.2-6.4,20.9l4.7-1.3h.6v-3.2l5.9-1.7c-4.5-7.5-.9-14,2.2-17.6Z"/>
    <path class="cls-10" d="m117.9,198.65c-17.1-7.1-33.2,10.2-33.2,10.2,13-7.1,23.7-3,23.7-3l-6.3,4.9,16.6-4.9,4.8-11.6-5.6,4.4Z"/>
  </g>
  <g>
    <polygon class="cls-9" points="298.3 237.85 292.8 241.05 294.7 244.35 292.2 244.35 292.2 242.85 292.2 242.85 289.5 247.55 292.2 252.25 292.2 250.75 298.4 250.75 298.4 250.75 302.1 244.35 302.1 244.35 302.1 244.35 298.3 237.85"/>
    <polygon class="cls-9" points="285.5 242.15 286.8 242.85 284.1 238.15 278.7 238.15 279.9 238.95 276.8 244.35 276.8 244.35 278.4 247.05 280.5 250.75 280.5 250.75 288 250.75 288 244.35 284.2 244.35 285.5 242.15"/>
    <path class="cls-9" d="m306,218.65c1.1-.7,2.4-2,2.6-4.2.3-2.4.1-3.3,1.2-4.9,0,0-1.5.6-2,3.6-.6,3-3.2,4.1-5.1,4.5q-.1,0-.2.1c-3.3-.8-5.5-.6-7.1,0,1.5-1.2,4.2-3.9,3.8-8.7-.1-.8-.1-1.5-.1-2.2.1,0,2.5-2.8,4.9-2.5,1.9.2,3.2-.5,3.2-.5-1.3.3-2.1-.1-4.1-.4-1.9-.3-3.1.3-3.8.8.2-1.9.8-3.5,1.7-5.1,0,0-2.6,1.7-3.4,7.9-.5,3.8-2.3,6.3-4.5,7.8-1.2-1.4-1.2-3.8,0-5.2.3-.3.5-.7.5-1.2,0-.3-.1-.4-.3-.9-.7-1.4-.4-4.7,1.9-6.7,2.9-2.6,2.5-4.9,2.5-4.9-.6,2.1-2,3.3-4.3,5q-.1.1-.2.2c-.1-.3-.3-.6-.4-.9-1.7-3-2.1-4.3-1.9-6.2,0,0-1.1,2.4.3,5.5.5,1.1.6,2.2.5,3.2-.2.2-.3.5-.4.7-.3-.7-1-1.1-1.8-1.1s-1.5.5-1.8,1.1c-.1-.2-.3-.5-.4-.7-.1-1,0-2.1.5-3.2,1.4-3.1.3-5.5.3-5.5.2,2-.2,3.2-1.9,6.2-.2.3-.3.6-.4.9q-.1-.1-.2-.2c-2.3-1.7-3.7-3-4.3-5,0,0-.4,2.3,2.5,4.9,2.3,2,2.6,5.3,1.9,6.7-.2.5-.3.5-.3.9,0,.5.2.9.5,1.2,1.2,1.4,1.2,3.8,0,5.2-2.1-1.5-4-4.1-4.5-7.8-.8-6.2-3.4-7.9-3.4-7.9.9,1.6,1.4,3.2,1.7,5.1-.7-.5-2-1.1-3.8-.8-2,.3-2.8.7-4.1.4,0,0,1.3.7,3.2.5,2.4-.2,4.8,2.5,4.9,2.5,0,.7,0,1.5-.1,2.2-.4,4.8,2.3,7.5,3.8,8.7-1.6-.6-3.8-.8-7.1,0q-.1,0-.2-.1c-1.9-.3-4.5-1.5-5.1-4.5s-2-3.6-2-3.6c1.1,1.6.9,2.5,1.2,4.9.2,2.2,1.5,3.5,2.6,4.2-6.2,1.5-9.1-1-9.1-1,1.9,3.9,10.9,3,11.5,2.9,11.7-1.1,12,5.3,10.3,8.3l-3.7,6.5,5.5,3.2,1.9-3.3,1.3,2.2-1.3.8h5.4l2.7-4.7-1.3.8-3.1-5.4h0c-1.7-3-1.4-9.5,10.3-8.3.6.1,9.6.9,11.5-2.9.2-.1-2.7,2.4-8.9.9Z"/>
  </g>
  <g>
    <path class="cls-10" d="m315.7,216.65s.1,1.8-2.7,3.4c1.4,1,3.7-.6,4.8-3,1.1-2.5.4-6.3.4-6.3,0,0-.4,1.8-3.1,2.7-2.4.8-3.2,2.6-2.9,4.8,1.5.1,3.5-1.6,3.5-1.6Z"/>
    <path class="cls-10" d="m301.6,198.25s-1.5,0-2.7,2.4c-.9-1.1.4-3.1,2.2-4.1,2-1,5.2-.6,5.2-.6,0,0-1.4.4-2.1,2.7-.6,2-2,2.8-3.8,2.7-.1-1.3,1.2-3.1,1.2-3.1Z"/>
    <path class="cls-10" d="m297.6,195.25s.7.8,0,2.5c1,0,1.5-1.6,1.1-3-.4-1.5-2-3-2-3,0,0,.5.9-.4,2.3-.8,1.2-.5,2.3.4,3.2.6-.5.9-2,.9-2Z"/>
    <path class="cls-10" d="m291.1,193.35s-.8.4-.8,1.8c-.7-.3-.5-1.6.2-2.5.8-1,2.5-1.6,2.5-1.6,0,0-.7.5-.5,1.8.2,1.1-.4,1.8-1.4,2.2-.3-.6,0-1.7,0-1.7Z"/>
    <path class="cls-10" d="m310.5,208.95s-1.7.2-2.9,3c-1.2-1.2.1-3.7,2.2-5,2.2-1.4,6-1.2,6-1.2,0,0-1.7.6-2.2,3.4-.5,2.4-2.1,3.4-4.2,3.4-.3-1.4,1.1-3.6,1.1-3.6Z"/>
    <path class="cls-10" d="m307.9,203.35s-.6,1.2-3,1.2c.5,1.2,2.7,1,4.3-.2,1.6-1.2,2.6-4,2.6-4,0,0-.9,1-3.1.6-1.9-.4-3.1.5-3.7,2.1.9.6,2.9.3,2.9.3Z"/>
    <path class="cls-10" d="m263.2,216.65s-.1,1.8,2.7,3.4c-1.4,1-3.7-.6-4.8-3-1.1-2.5-.4-6.3-.4-6.3,0,0,.4,1.8,3.1,2.7,2.4.8,3.2,2.6,2.9,4.8-1.5.1-3.5-1.6-3.5-1.6Z"/>
    <path class="cls-10" d="m277.3,198.25s1.5,0,2.7,2.4c.9-1.1-.3-3.1-2.2-4.1-2-1-5.2-.6-5.2-.6,0,0,1.4.4,2.1,2.7.6,2,2,2.8,3.8,2.7.1-1.3-1.2-3.1-1.2-3.1Z"/>
    <path class="cls-10" d="m281.3,195.25s-.7.8,0,2.5c-1,0-1.5-1.6-1.1-3,.4-1.5,2-3,2-3,0,0-.5.9.4,2.3.8,1.2.5,2.3-.4,3.2-.6-.5-.9-2-.9-2Z"/>
    <path class="cls-10" d="m287.9,193.35s.8.4.8,1.8c.7-.3.5-1.6-.2-2.5-.8-1-2.5-1.6-2.5-1.6,0,0,.7.5.5,1.8-.2,1.1.4,1.8,1.4,2.2.2-.6,0-1.7,0-1.7Z"/>
    <path class="cls-10" d="m268.4,208.95s1.7.2,2.9,3c1.2-1.2-.1-3.7-2.2-5-2.2-1.4-6-1.2-6-1.2,0,0,1.7.6,2.2,3.4.5,2.4,2.1,3.4,4.2,3.4.3-1.4-1.1-3.6-1.1-3.6Z"/>
    <path class="cls-10" d="m271.1,203.35s.6,1.2,3,1.2c-.5,1.2-2.7,1-4.3-.2-1.6-1.2-2.6-4-2.6-4,0,0,.9,1,3.1.6,1.9-.4,3.1.5,3.7,2.1-1,.6-2.9.3-2.9.3Z"/>
  </g>
</svg>