<?xml version="1.0" encoding="UTF-8"?>
<svg id="fundInfo_0426-1" xmlns="http://www.w3.org/2000/svg" viewBox="0 0 489.8 387.75">
  <defs>
    <style>
      .cls-1 {
        fill: #38e0b4;
      }

      .cls-2 {
        fill: #fff;
      }

      .cls-3 {
        isolation: isolate;
      }

      .cls-4 {
        fill: #3add65;
      }

      .cls-5 {
        fill: #34b2e4;
      }

      .cls-6 {
        fill: #065381;
      }
    </style>
  </defs>
  <g>
    <path class="cls-4" d="m295.95,193.85l-187.24-50.17C131.79,57.54,206.77,0,295.95,0v193.85Z"/>
    <path class="cls-1" d="m295.95,193.85H102.1c0-16.92,2.23-33.83,6.61-50.17l187.24,50.17Z"/>
    <path class="cls-5" d="m295.95,193.85l69.47,180.97c-99.95,38.37-212.08-11.56-250.44-111.5-8.94-23.29-12.88-44.52-12.88-69.47h193.85Z"/>
    <path class="cls-6" d="m295.95,193.85V0C403.01,0,489.8,86.79,489.8,193.85c0,82.97-46.92,151.24-124.38,180.97l-69.47-180.97Z"/>
  </g>
  <g class="cls-3">
    <path class="cls-2" d="m335.44,164.92h-6.52v-2.08l5.7-9.1h3.65v8.86h1.8v2.33h-1.8v3.7h-2.83v-3.7Zm0-2.33v-2.97c0-.89.06-2.29.1-3.18h-.08c-.37.81-.79,1.57-1.22,2.39l-2.37,3.76h3.57Z"/>
    <path class="cls-2" d="m341.53,166.86c3.98-3.8,6.61-6.4,6.61-8.61,0-1.51-.83-2.42-2.29-2.42-1.11,0-2.02.74-2.81,1.59l-1.65-1.65c1.4-1.51,2.77-2.33,4.85-2.33,2.89,0,4.81,1.84,4.81,4.64,0,2.6-2.4,5.29-5.12,8.13.76-.08,1.78-.17,2.5-.17h3.34v2.56h-10.24v-1.75Z"/>
    <path class="cls-2" d="m354.27,166.92c0-1.13.8-1.98,1.88-1.98s1.9.85,1.9,1.98-.8,1.98-1.9,1.98-1.88-.87-1.88-1.98Z"/>
    <path class="cls-2" d="m360.52,161.58c0-5.68,2.83-8.13,5.92-8.13,1.86,0,3.22.78,4.13,1.73l-1.61,1.82c-.54-.6-1.47-1.09-2.35-1.09-1.75,0-3.2,1.3-3.32,5.14.85-1.05,2.15-1.67,3.14-1.67,2.56,0,4.4,1.47,4.4,4.58s-2.19,4.96-4.81,4.96c-2.89,0-5.49-2.23-5.49-7.33Zm2.85,1.57c.29,2.52,1.32,3.47,2.58,3.47,1.16,0,2.08-.89,2.08-2.66,0-1.67-.87-2.44-2.19-2.44-.78,0-1.71.43-2.48,1.63Z"/>
    <path class="cls-2" d="m372.33,157.86c0-3.06,1.53-4.81,3.72-4.81s3.74,1.75,3.74,4.81-1.55,4.87-3.74,4.87-3.72-1.8-3.72-4.87Zm5.31,0c0-2.25-.7-3.1-1.59-3.1s-1.57.85-1.57,3.1.68,3.16,1.57,3.16,1.59-.91,1.59-3.16Zm7.23-4.81h1.8l-8.3,15.86h-1.8l8.3-15.86Zm-1.42,10.98c0-3.08,1.55-4.83,3.72-4.83s3.74,1.75,3.74,4.83-1.57,4.87-3.74,4.87-3.72-1.82-3.72-4.87Zm5.31,0c0-2.25-.7-3.12-1.59-3.12s-1.57.87-1.57,3.12.68,3.14,1.57,3.14,1.59-.89,1.59-3.14Z"/>
    <path class="cls-2" d="m334.2,187.51v4.91c0,1.2-.23,1.8-.93,2.15-.68.39-1.67.45-3.12.45-.08-.64-.39-1.61-.7-2.23.83.02,1.67.02,1.94.02.29,0,.39-.1.39-.39v-4.27l-2.08.54-.64-2.35c.79-.17,1.71-.37,2.73-.6v-3.63h-2.46v-2.27h2.46v-3.92h2.42v3.92h2.17v2.27h-2.17v3.04l1.51-.37.31,2.25-1.82.5Zm13.07-2.11c-.76,2.52-1.96,4.46-3.55,5.97,1.38.7,2.97,1.24,4.77,1.57-.52.56-1.22,1.59-1.55,2.27-2.04-.5-3.82-1.24-5.33-2.23-1.67.99-3.55,1.71-5.64,2.21-.23-.68-.76-1.69-1.18-2.25,1.75-.31,3.37-.85,4.77-1.57-1.14-1.14-2.11-2.46-2.87-3.98l.76-.27h-1.18v-2.29h8.96l.43-.1,1.59.68Zm-10.32-.85c-.29-.45-1.18-1.42-1.63-1.75,2.44-1.12,2.75-2.6,2.75-4.03v-2.21h7.27v4.5c0,.6.04.85.37.85h1.09c.35,0,.87-.06,1.16-.14.04.62.1,1.47.19,2.02-.31.14-.83.17-1.3.17h-1.38c-2.02,0-2.46-.87-2.46-2.93v-2.19l-2.66.02c0,2.06-.6,4.36-3.39,5.7Zm2.17,2.56c.62,1.09,1.47,2.06,2.52,2.89.97-.81,1.78-1.78,2.39-2.89h-4.91Z"/>
    <path class="cls-2" d="m362.94,179.58c1.12,1.09,3.3,1.61,6.09,1.75-.5.47-1.07,1.36-1.36,1.96-2.31-.29-4.11-.95-5.41-2.08-.79.91-2.5,1.71-5.97,2.11-.17-.39-.5-.91-.83-1.34h-5.47v-1.88h6.24v1.26c3.94-.41,4.46-1.34,4.46-2.11v-.31h-1.24c-.43.68-.93,1.3-1.45,1.78-.39-.37-1.3-.97-1.82-1.26,1.09-.91,1.94-2.27,2.42-3.67l2.15.47c-.1.31-.23.62-.35.91h5.86l.37-.1,1.67.52c-.54,1.14-1.24,2.44-1.9,3.26l-1.9-.7c.23-.33.5-.76.72-1.2h-2.29v.64Zm.56,12.14c1.9.7,3.92,1.53,5.14,2.13l-2.21,1.32c-1.18-.68-3.32-1.69-5.37-2.44l1.26-1.01h-5.82l1.8.83c-1.69,1.07-4.36,2.11-6.44,2.68-.41-.48-1.28-1.38-1.82-1.8,1.98-.37,4.19-.99,5.64-1.71h-2.97v-8.38h13.81v8.38h-3.01Zm-7.74-13.01h-5.29v-1.8h5.29v1.8Zm-.68,6.98h8.94v-.89h-8.94v.89Zm0,2.27h8.94v-.89h-8.94v.89Zm0,2.31h8.94v-.93h-8.94v.93Z"/>
    <path class="cls-2" d="m373.28,189.78c-.14,1.82-.48,3.78-.91,5.04-.41-.23-1.32-.52-1.84-.64.5-1.22.72-3.05.85-4.71l1.9.31Zm-2.73-7.89c.41-.12.76-.5,1.2-1.12.41-.56,1.71-2.83,2.46-4.98l2.25.91c-.74,1.67-1.73,3.43-2.79,4.87l1.45-.1c.54-.87,1.07-1.8,1.49-2.73l2.04,1.3c-1.18,2.11-2.7,4.23-4.29,6.01l2.17-.31c-.19-.5-.37-.97-.58-1.38l1.65-.62c.66,1.3,1.3,2.99,1.49,4.11l-1.8.72c-.04-.29-.1-.64-.21-1.01-4.38.79-5.14.95-5.6,1.22-.12-.43-.5-1.57-.78-2.17.56-.14,1.01-.6,1.67-1.36.27-.29.76-.87,1.34-1.67-1.61.19-2.09.31-2.4.47-.12-.47-.5-1.55-.76-2.17Zm4.87,7.43c.25,1.32.48,3.01.54,4.11l-1.78.45c-.02-1.11-.23-2.85-.43-4.15l1.67-.41Zm13.96-6.32c-.52,3.1-1.45,5.7-2.75,7.76.89.97,1.94,1.73,3.16,2.27-.54.45-1.26,1.38-1.63,2.04-1.16-.6-2.15-1.38-2.99-2.35-.89.99-1.86,1.8-2.95,2.48-.37-.58-1.01-1.4-1.55-1.84,1.12-.62,2.15-1.51,3.04-2.62-.62-1.05-1.16-2.27-1.61-3.55-.41,3.14-1.16,5.8-2.54,7.89-.37-.39-1.53-1.22-2.11-1.53.33-.43.62-.93.87-1.45l-1.42.52c-.17-.87-.58-2.27-.95-3.32l1.63-.54c.35.93.72,2.07.95,2.93,1.38-3.16,1.67-7.58,1.69-12.63h-1.71v-2.29h7.02l.35-.1,1.71.23c-.21,1.78-.58,3.86-.93,5.66h.76l.39-.08,1.57.54Zm-6.79-3.94c-.02,1.2-.06,2.38-.1,3.49h1.88c.23-1.11.43-2.37.6-3.49h-2.37Zm.89,5.68c.37,1.4.91,2.75,1.61,3.92.64-1.18,1.16-2.5,1.53-3.92h-3.14Z"/>
    <path class="cls-2" d="m397.62,176.63c-.5,1.26-1.09,2.56-1.78,3.82v14.7h-2.4v-10.96c-.5.64-.99,1.24-1.51,1.75-.21-.58-.87-1.92-1.26-2.52,1.84-1.8,3.61-4.67,4.67-7.51l2.27.72Zm5.55,15.83c-1.22,1.09-3.16,2.13-4.73,2.77-.43-.5-1.36-1.3-1.94-1.69,1.61-.45,3.32-1.2,4.32-1.94l2.35.87Zm-.83-14.04h-4.52v-1.53h4.52v-1.01h2.48v1.01h4.71v1.53h-4.71v.68h4.27v1.45h-4.27v.7h5.41v1.63h-13.3v-1.63h5.41v-.7h-4.09v-1.45h4.09v-.68Zm4.29,13.09c1.34.79,2.89,1.8,3.74,2.56l-2.21,1.28c-.79-.8-2.42-2.04-3.78-2.87l2.17-.97h-8.18v-7.95h10.61v7.95h-2.35Zm-.12-6.44h-5.78v.81h5.78v-.81Zm0,2.04h-5.78v.83h5.78v-.83Zm0,2.06h-5.78v.83h5.78v-.83Z"/>
    <path class="cls-2" d="m336.94,202.43c-.56,1.82-1.28,4.11-1.9,5.74,1.32,1.63,1.57,3.06,1.57,4.25,0,1.36-.29,2.21-.97,2.7-.31.25-.72.39-1.2.45-.39.06-.91.06-1.38.06-.02-.64-.21-1.59-.56-2.21.37.04.68.04.91.02.23,0,.43-.04.62-.17.25-.19.35-.6.35-1.2,0-.95-.29-2.27-1.49-3.67.45-1.32.91-3.22,1.24-4.67h-1.82v16.21h-2.29v-18.39h4.89l.35-.1,1.67.97Zm4.62,3.82c-.04.85-.06,1.65-.12,2.46h5.68s-.02.72-.02,1.03c-.21,6.01-.41,8.38-1.03,9.17-.47.62-.95.83-1.63.93-.6.1-1.61.1-2.66.06-.04-.72-.33-1.73-.74-2.44.93.1,1.75.12,2.17.12.33,0,.54-.08.7-.31.37-.41.58-2.11.7-6.34h-3.37c-.52,3.88-1.8,6.96-5.41,8.96-.31-.6-1.01-1.45-1.57-1.9,4.44-2.33,4.75-6.4,4.87-11.75h-2.64v-2.27h5.02c-.17-.78-.52-1.96-.83-2.87l2.25-.54c.37.91.8,2.17.97,2.91l-1.69.5h6.03v2.27h-6.67Z"/>
    <path class="cls-2" d="m355.05,201.77c-1.24,1.36-3.1,2.87-4.63,3.74-.17-.41-.6-1.26-.89-1.67,1.3-.72,2.89-1.9,3.7-2.89l1.82.83Zm-3.22,6.83c-.5.33-.99.64-1.45.89-.12-.5-.5-1.51-.74-2,1.34-.68,2.99-1.88,3.8-2.85l1.71.74v-1.09h2.93v-1.12h-1.09c-.17.25-.31.47-.45.66-.37-.25-1.16-.56-1.61-.72.58-.7,1.05-1.61,1.3-2.5l1.75.41c-.06.19-.12.37-.21.56h4.44v1.59h-2.25v1.12h2.62v1.55h-2.62v.91h2.35v1.32h-2.35v.95l2.52-.17c-.04.5-.06,1.2-.04,1.57-5.82.45-6.65.58-7.16.76-.08-.41-.35-1.16-.58-1.53.33-.08.7-.31.7-1.03v-2.15h1.63v2.73l1.05-.08v-3.28h-2.93v-.1c-.39.43-.83.87-1.3,1.3v3.98h-2.02v-2.42Zm17.18,7.14h-5.1c1.63.68,3.78,1.67,4.93,2.37l-1.3,1.75c-1.14-.81-3.55-2-5.33-2.77l1.09-1.36h-2.48v4.11h-2.52v-4.11h-3.59l1.63.62c-1.16,1.3-2.99,2.64-4.56,3.47-.31-.47-1.01-1.42-1.47-1.88,1.32-.54,2.79-1.34,3.74-2.21h-4.13v-1.69h19.08v1.69Zm-16.5-4.11h13.73v1.65h-13.73v-1.65Zm12.51-.62h-1.88v-9.54h5.29v6.46c0,.76-.1,1.24-.6,1.51-.48.31-1.09.33-1.94.33-.06-.52-.33-1.2-.56-1.65.43.02.85.02,1.01.02.17-.02.21-.06.21-.25v-4.71h-1.53v7.82Z"/>
    <path class="cls-2" d="m384.62,214.76c1.36,1.2,3.24,2.27,5.08,2.87-.56.45-1.26,1.36-1.63,1.98-1.73-.74-3.45-1.96-4.83-3.41v3.74h-2.35v-5.18h-1.88v5.18h-2.35v-3.53c-1.3,1.36-2.95,2.52-4.56,3.24-.35-.56-1.05-1.42-1.57-1.86,1.73-.64,3.53-1.78,4.81-3.03h-2.77v-1.86h4.09v-1.24h-5.84v-2.04h5.84v-1.14h-3.88v-1.86h3.88v-1.2h-5.51v-2.02h4.11c-.45-.6-1.05-1.26-1.63-1.78l2.25-1.03c.85.7,1.82,1.73,2.25,2.46l-.74.35h4.83c.72-.83,1.53-1.92,2-2.77l2.64.83c-.56.68-1.12,1.34-1.67,1.94h3.92v2.02h-5.86v1.2h4.23v2.99h2.02v2.04h-2.02v3.1h-2.85Zm-5.62-8.13h1.88v-1.2h-1.88v1.2Zm0,2.99h1.88v-1.14h-1.88v1.14Zm1.88,3.28v-1.24h-1.88v1.24h1.88Zm2.35-4.42v1.14h1.84v-1.14h-1.84Zm1.84,3.18h-1.84v1.24h1.84v-1.24Z"/>
    <path class="cls-2" d="m401.38,218.13c.93-.6,1.86-1.49,2.35-2.15l1.92,1.16c-.85,1.03-2.25,2.23-3.45,2.85-.29-.31-.78-.78-1.22-1.16h-4.63v.95h-1.78v-5.41c-.12.14-.25.29-.37.43-.08-.14-.21-.37-.37-.62-.19,2.02-.54,3.98-1.16,5.57-.39-.31-1.3-.81-1.82-.99,1.16-2.99,1.24-7.33,1.24-10.34v-6.26c2.6-.21,5.53-.66,7.27-1.2l1.78,1.63c-1.98.58-4.63.97-7.04,1.2v.62h6.94v4.77h-5.41l1.36.37c-.12.41-.27.81-.41,1.22h1.07c-.14-.39-.31-.81-.47-1.16l1.61-.41c.27.47.54,1.07.7,1.57h1.71v1.53h-1.92v.72h1.71v1.34h-1.71v.74h1.73v1.38h-1.73v.74h2.08v.89Zm-7.27-8.94c-.02.89-.04,1.86-.1,2.87.56-.85.99-1.86,1.28-2.87h-1.18Zm0-2.95v1.13h4.75v-1.13h-4.75Zm3.59,6.07h-1.34v.72h1.34v-.72Zm0,2.06h-1.34v.74h1.34v-.74Zm-1.34,2.87h1.34v-.74h-1.34v.74Zm8.11-12.35c.06-.43.1-.89.14-1.32h-3.05v-2.06h8.57v2.06h-3.08c-.12.45-.25.91-.37,1.32h2.93v10.82h-7.62v-10.82h2.48Zm3.08,1.84h-3.55v1.24h3.55v-1.24Zm0,2.93h-3.55v1.28h3.55v-1.28Zm0,2.99h-3.55v1.22h3.55v-1.22Zm.41,3.37c.87.74,1.96,1.84,2.5,2.58l-1.86,1.24c-.48-.76-1.53-1.92-2.4-2.75l1.75-1.07Z"/>
    <path class="cls-2" d="m429.79,206.83c-.54,3.06-1.34,5.64-2.56,7.76,1.09,1.38,2.4,2.5,3.94,3.28-.54.43-1.3,1.36-1.67,2.02-1.42-.83-2.64-1.92-3.7-3.24-1.09,1.36-2.46,2.48-4.09,3.39-.29-.52-1.07-1.55-1.57-2,1.78-.87,3.16-2,4.27-3.47-.78-1.34-1.45-2.85-1.96-4.5-.33.54-.7,1.03-1.07,1.49-.29-.47-.95-1.38-1.49-1.92v10.36h-2.44v-5.33c-3.28,1.16-3.96,1.53-4.42,1.9-.17-.6-.58-1.71-.95-2.25.39-.23.76-.62.76-1.47v-9.95h2.42v10.08l2.19-.66v-11.31h2.44v8.13c1.59-2,2.56-5.14,3.06-8.46l2.5.41c-.21,1.16-.43,2.31-.72,3.41h6.3v2.33h-1.24Zm-5.8,0c-.06.19-.14.37-.21.56.47,1.78,1.14,3.47,1.96,4.95.76-1.57,1.28-3.41,1.61-5.51h-3.37Z"/>
    <path class="cls-2" d="m451.43,217.15v2.17h-18.81v-2.17h2.38v-5.82c-.29.12-.56.25-.83.37-.31-.6-.89-1.51-1.4-2.02,1.94-.58,4.65-1.78,6.01-2.77l1.71,1.22c-1.3.97-3.37,2.15-5.16,3.03h13.81v5.99h2.29Zm-.25-10.43h-18.29v-2.17h4.87c-.43-.91-1.18-2.06-1.82-2.97l2.08-.91c.87,1.01,1.75,2.39,2.15,3.3l-1.12.58h6.01l-1.14-.39c.64-.95,1.47-2.42,1.9-3.49l2.5.74c-.7,1.14-1.47,2.29-2.11,3.14h4.96v2.17Zm-14.02,10.43h1.71v-3.92h-1.71v3.92Zm3.96-3.92v3.92h1.71v-3.92h-1.71Zm3.82-6.34c1.98.68,4.91,1.82,6.42,2.6l-1.36,1.94c-1.42-.8-4.29-2.04-6.34-2.83l1.28-1.71Zm.14,6.34v3.92h1.75v-3.92h-1.75Z"/>
  </g>
  <g class="cls-3">
    <path class="cls-2" d="m174.55,243c3.98-3.8,6.61-6.4,6.61-8.61,0-1.51-.83-2.42-2.29-2.42-1.11,0-2.02.74-2.81,1.59l-1.65-1.65c1.4-1.51,2.77-2.33,4.85-2.33,2.89,0,4.81,1.84,4.81,4.64,0,2.6-2.4,5.29-5.12,8.13.76-.08,1.78-.17,2.5-.17h3.34v2.56h-10.24v-1.75Z"/>
    <path class="cls-2" d="m186.9,243.31l1.61-1.84c.54.62,1.47,1.09,2.35,1.09,1.75,0,3.2-1.28,3.32-5.12-.85,1.05-2.15,1.67-3.14,1.67-2.56,0-4.4-1.49-4.4-4.6s2.19-4.93,4.81-4.93c2.89,0,5.49,2.21,5.49,7.33,0,5.68-2.83,8.13-5.9,8.13-1.88,0-3.26-.81-4.15-1.73Zm4.73-6.36c.81,0,1.78-.47,2.48-1.63-.31-2.5-1.34-3.45-2.6-3.45-1.14,0-2.06.87-2.06,2.64,0,1.67.85,2.44,2.19,2.44Z"/>
    <path class="cls-2" d="m199.45,243.06c0-1.13.81-1.98,1.88-1.98s1.9.85,1.9,1.98-.81,1.98-1.9,1.98-1.88-.87-1.88-1.98Z"/>
    <path class="cls-2" d="m205.71,237.71c0-5.68,2.83-8.13,5.92-8.13,1.86,0,3.22.78,4.13,1.73l-1.61,1.82c-.54-.6-1.47-1.09-2.35-1.09-1.75,0-3.2,1.3-3.32,5.14.85-1.05,2.15-1.67,3.14-1.67,2.56,0,4.4,1.47,4.4,4.58s-2.19,4.96-4.81,4.96c-2.89,0-5.49-2.23-5.49-7.33Zm2.85,1.57c.29,2.52,1.32,3.47,2.58,3.47,1.16,0,2.08-.89,2.08-2.66,0-1.67-.87-2.44-2.19-2.44-.79,0-1.71.43-2.48,1.63Z"/>
    <path class="cls-2" d="m217.52,234c0-3.06,1.53-4.81,3.72-4.81s3.74,1.75,3.74,4.81-1.55,4.87-3.74,4.87-3.72-1.8-3.72-4.87Zm5.31,0c0-2.25-.7-3.1-1.59-3.1s-1.57.85-1.57,3.1.68,3.16,1.57,3.16,1.59-.91,1.59-3.16Zm7.23-4.81h1.8l-8.3,15.86h-1.8l8.3-15.86Zm-1.42,10.98c0-3.08,1.55-4.83,3.72-4.83s3.74,1.75,3.74,4.83-1.57,4.87-3.74,4.87-3.72-1.82-3.72-4.87Zm5.31,0c0-2.25-.7-3.12-1.59-3.12s-1.57.87-1.57,3.12.68,3.14,1.57,3.14,1.59-.89,1.59-3.14Z"/>
    <path class="cls-2" d="m180.27,252.14h2.44v9.62c0,3.37-1.01,7.45-6.01,9.85-.39-.6-1.18-1.38-1.75-1.86,2.09-.81,3.39-2.15,4.19-3.57l-4.31.74-.45-2.46c1.47-.17,3.53-.41,5.68-.7.17-.72.23-1.4.23-1.98v-.02h-4.91v-2.23h4.91v-2.46h-5.14v-2.29h5.14v-2.64Zm13.3,14.45h-5.95v4.75h-2.46v-19.2h2.46v2.64h5.57v2.29h-5.57v2.46h5.12v2.23h-5.12v2.54h5.95v2.29Z"/>
    <path class="cls-2" d="m200.03,263.64v4.91c0,1.2-.23,1.8-.93,2.15-.68.39-1.67.45-3.12.45-.08-.64-.39-1.61-.7-2.23.83.02,1.67.02,1.94.02.29,0,.39-.1.39-.39v-4.27l-2.08.54-.64-2.35c.78-.17,1.71-.37,2.73-.6v-3.63h-2.46v-2.27h2.46v-3.92h2.42v3.92h2.17v2.27h-2.17v3.04l1.51-.37.31,2.25-1.82.5Zm13.07-2.11c-.76,2.52-1.96,4.46-3.55,5.97,1.38.7,2.97,1.24,4.77,1.57-.52.56-1.22,1.59-1.55,2.27-2.04-.5-3.82-1.24-5.33-2.23-1.67.99-3.55,1.71-5.64,2.21-.23-.68-.76-1.69-1.18-2.25,1.75-.31,3.37-.85,4.77-1.57-1.13-1.14-2.11-2.46-2.87-3.98l.76-.27h-1.18v-2.29h8.96l.43-.1,1.59.68Zm-10.32-.85c-.29-.45-1.18-1.42-1.63-1.75,2.44-1.12,2.75-2.6,2.75-4.03v-2.21h7.27v4.5c0,.6.04.85.37.85h1.09c.35,0,.87-.06,1.16-.14.04.62.1,1.47.19,2.02-.31.14-.83.17-1.3.17h-1.38c-2.02,0-2.46-.87-2.46-2.93v-2.19l-2.66.02c0,2.06-.6,4.36-3.39,5.7Zm2.17,2.56c.62,1.09,1.46,2.06,2.52,2.89.97-.81,1.78-1.78,2.4-2.89h-4.91Z"/>
    <path class="cls-2" d="m228.77,255.72c1.12,1.09,3.3,1.61,6.09,1.75-.5.47-1.07,1.36-1.36,1.96-2.31-.29-4.11-.95-5.41-2.08-.78.91-2.5,1.71-5.97,2.11-.17-.39-.5-.91-.83-1.34h-5.47v-1.88h6.23v1.26c3.94-.41,4.46-1.34,4.46-2.11v-.31h-1.24c-.43.68-.93,1.3-1.45,1.78-.39-.37-1.3-.97-1.82-1.26,1.09-.91,1.94-2.27,2.42-3.67l2.15.47c-.1.31-.23.62-.35.91h5.86l.37-.1,1.67.52c-.54,1.14-1.24,2.44-1.9,3.26l-1.9-.7c.23-.33.49-.76.72-1.2h-2.29v.64Zm.56,12.14c1.9.7,3.92,1.53,5.14,2.13l-2.21,1.32c-1.18-.68-3.32-1.69-5.37-2.44l1.26-1.01h-5.82l1.8.83c-1.69,1.07-4.36,2.11-6.44,2.68-.41-.48-1.28-1.38-1.82-1.8,1.98-.37,4.19-.99,5.64-1.71h-2.97v-8.38h13.81v8.38h-3.01Zm-7.74-13.01h-5.29v-1.8h5.29v1.8Zm-.68,6.98h8.94v-.89h-8.94v.89Zm0,2.27h8.94v-.89h-8.94v.89Zm0,2.31h8.94v-.93h-8.94v.93Z"/>
    <path class="cls-2" d="m239.11,265.91c-.14,1.82-.48,3.78-.91,5.04-.41-.23-1.32-.52-1.84-.64.5-1.22.72-3.05.85-4.71l1.9.31Zm-2.73-7.89c.41-.12.76-.5,1.2-1.12.41-.56,1.71-2.83,2.46-4.98l2.25.91c-.74,1.67-1.73,3.43-2.79,4.87l1.45-.1c.54-.87,1.07-1.8,1.49-2.73l2.04,1.3c-1.18,2.11-2.71,4.23-4.29,6.01l2.17-.31c-.19-.5-.37-.97-.58-1.38l1.65-.62c.66,1.3,1.3,2.99,1.49,4.11l-1.8.72c-.04-.29-.1-.64-.21-1.01-4.38.79-5.14.95-5.6,1.22-.12-.43-.5-1.57-.78-2.17.56-.14,1.01-.6,1.67-1.36.27-.29.76-.87,1.34-1.67-1.61.19-2.09.31-2.4.47-.12-.47-.5-1.55-.76-2.17Zm4.87,7.43c.25,1.32.47,3.01.54,4.11l-1.78.45c-.02-1.11-.23-2.85-.43-4.15l1.67-.41Zm13.96-6.32c-.52,3.1-1.45,5.7-2.75,7.76.89.97,1.94,1.73,3.16,2.27-.54.45-1.26,1.38-1.63,2.04-1.16-.6-2.15-1.38-2.99-2.35-.89.99-1.86,1.8-2.95,2.48-.37-.58-1.01-1.4-1.55-1.84,1.12-.62,2.15-1.51,3.04-2.62-.62-1.05-1.16-2.27-1.61-3.55-.41,3.14-1.16,5.8-2.54,7.89-.37-.39-1.53-1.22-2.11-1.53.33-.43.62-.93.87-1.45l-1.42.52c-.17-.87-.58-2.27-.95-3.32l1.63-.54c.35.93.72,2.07.95,2.93,1.38-3.16,1.67-7.58,1.69-12.63h-1.71v-2.29h7.02l.35-.1,1.71.23c-.21,1.78-.58,3.86-.93,5.66h.76l.39-.08,1.57.54Zm-6.79-3.94c-.02,1.2-.06,2.38-.1,3.49h1.88c.23-1.11.43-2.37.6-3.49h-2.37Zm.89,5.68c.37,1.4.91,2.75,1.61,3.92.64-1.18,1.16-2.5,1.53-3.92h-3.14Z"/>
    <path class="cls-2" d="m263.45,252.76c-.5,1.26-1.09,2.56-1.78,3.82v14.7h-2.4v-10.96c-.49.64-.99,1.24-1.51,1.75-.21-.58-.87-1.92-1.26-2.52,1.84-1.8,3.61-4.67,4.67-7.51l2.27.72Zm5.55,15.83c-1.22,1.09-3.16,2.13-4.73,2.77-.43-.5-1.36-1.3-1.94-1.69,1.61-.45,3.32-1.2,4.31-1.94l2.35.87Zm-.83-14.04h-4.52v-1.53h4.52v-1.01h2.48v1.01h4.71v1.53h-4.71v.68h4.27v1.45h-4.27v.7h5.41v1.63h-13.29v-1.63h5.41v-.7h-4.09v-1.45h4.09v-.68Zm4.29,13.09c1.34.79,2.89,1.8,3.74,2.56l-2.21,1.28c-.79-.8-2.42-2.04-3.78-2.87l2.17-.97h-8.17v-7.95h10.61v7.95h-2.35Zm-.13-6.44h-5.78v.81h5.78v-.81Zm0,2.04h-5.78v.83h5.78v-.83Zm0,2.06h-5.78v.83h5.78v-.83Z"/>
    <path class="cls-2" d="m181.47,287.86c-.76.21-1.53.43-2.31.64v4.98c0,1.16-.21,1.73-.85,2.13-.64.37-1.53.45-2.81.45-.08-.62-.37-1.61-.68-2.25.66.04,1.34.04,1.57.02.25,0,.35-.08.35-.33v-4.38c-.7.19-1.34.35-1.96.52l-.6-2.35c.74-.14,1.61-.35,2.56-.56v-3.76h-2.21v-2.27h2.21v-3.88h2.42v3.88h1.9v2.27h-1.9v3.14l2-.52.31,2.27Zm8.46,5.43c1.14,0,1.36-.54,1.55-2.85.6.41,1.65.83,2.37.99-.33,3.1-1.14,4.23-3.72,4.23h-4.5c-2.83,0-3.74-.76-3.74-3.84v-14.04h10.96v11.52h-2.58v-1.3h-5.82v3.84c0,1.26.19,1.45,1.47,1.45h4.01Zm-5.47-13.09v5.47h1.75v-5.47h-1.75Zm5.82,0h-1.8v5.47h1.8v-5.47Z"/>
    <path class="cls-2" d="m199.31,288.46v4.77c0,1.13-.19,1.78-.81,2.15-.62.39-1.51.5-2.81.5-.04-.64-.33-1.65-.62-2.31.7.02,1.36.02,1.61,0,.25,0,.33-.08.33-.33v-4.09l-1.67.47-.54-2.35c.64-.14,1.38-.33,2.21-.54v-3.74h-1.88v-2.27h1.88v-3.9h2.29v3.9h1.92v2.27h-1.92v3.14c.6-.17,1.18-.33,1.78-.5l.31,2.21-2.08.62Zm15.01,5.35v1.92h-11.4v-1.92h4.6v-1.55h-3.43v-1.84h3.43v-1.22c-1.82.14-2.29.25-2.66.39v-.08s-.02.06-.02.08c-.12-.43-.5-1.42-.76-1.98.33-.08.7-.33,1.03-.68.21-.23.74-.83,1.26-1.57h-2.21c-.12,3.47-.64,7.78-2.42,10.78-.45-.37-1.51-.99-2.06-1.2,1.98-3.32,2.15-8.13,2.15-11.48v-5.88h11.77v5.02h-9.39v.91h9.64v1.86h-2.13c.93,1.03,1.9,2.44,2.29,3.39l-1.92.83c-.08-.21-.19-.45-.31-.7l-1.86.14v1.4h3.59v1.84h-3.59v1.55h4.4Zm-10.12-14.33v1.22h6.92v-1.22h-6.92Zm4.89,5.88c-.49.68-1.07,1.36-1.67,1.98l3.28-.19c-.25-.37-.52-.74-.81-1.07l1.75-.72h-2.56Z"/>
    <path class="cls-2" d="m234.36,278.74v2.06h-18.23v-2.06h7.95c-.17-.5-.33-1.01-.5-1.45l2.54-.62c.23.64.56,1.4.81,2.06h7.43Zm-.47,15.11c0,1.07-.27,1.51-1.05,1.82-.74.25-1.86.27-3.28.25-.12-.54-.45-1.24-.72-1.73h-5.9v.87h-2.27v-5.45h8.98v4.58h-.29c.72.02,1.45.02,1.65,0,.29,0,.41-.08.41-.35v-5h-12.32v7.25h-2.38v-9.23h17.18v7Zm-1.98-7.85h-13.03v-4.42h13.03v4.42Zm-2.58-2.77h-7.99v1.13h7.99v-1.13Zm-1.86,8.07h-4.54v1.18h4.54v-1.18Z"/>
    <path class="cls-2" d="m236.28,294.01c.72-1.18,1.51-2.91,1.96-4.34l2.19.91c-.52,1.42-1.22,3.3-1.88,4.52l-2.27-1.09Zm9.02-5.26h-5.93v-10.12h4.75c.21-.68.43-1.42.54-2.02l2.97.37c-.29.62-.62,1.16-.89,1.65h5.66v10.12h-5.95c.87.85,1.73,1.92,2.17,2.73l-2.02,1.18c-.41-.91-1.51-2.29-2.46-3.26l1.16-.64Zm2.91,4.77c.99,0,1.16-.27,1.28-2.23.52.39,1.57.74,2.23.87-.29,2.89-1.01,3.59-3.32,3.59h-3.92c-2.89,0-3.65-.68-3.65-2.89v-2.85h2.5v2.83c0,.62.21.68,1.38.68h3.51Zm-6.46-12.06h8.15v-.95h-8.15v.95Zm0,2.7h8.15v-.95h-8.15v.95Zm0,2.73h8.15v-.97h-8.15v.97Zm11.31,2.39c.95,1.36,1.94,3.16,2.29,4.42l-2.35.99c-.29-1.2-1.2-3.08-2.11-4.5l2.17-.91Z"/>
    <path class="cls-2" d="m261.95,288.5c-.17-.52-.5-1.26-.85-2v9.58h-2.11v-7.93c-.41,1.42-.91,2.75-1.4,3.65-.19-.68-.64-1.8-.97-2.42.97-1.47,1.8-4.13,2.25-6.46h-1.69v-2.27h1.82v-3.84h2.11v3.84h1.4v2.27h-1.4v.91c.45.62,1.63,2.54,1.92,3.03l-1.07,1.63Zm13.05,1.42c-.58,1.14-1.34,2.15-2.25,3.04.37.43.81.68,1.28.74.39.04.64-.7.78-2.15.35.48,1.16,1.07,1.55,1.3-.54,2.56-1.36,3.28-2.25,3.22-1.22-.1-2.23-.72-3.04-1.75-.97.68-2.08,1.26-3.26,1.71-.27-.43-.85-1.18-1.26-1.57,1.32-.45,2.52-1.09,3.55-1.86-.43-.95-.76-2.04-1.05-3.3h-2.81c-.02.14-.02.31-.04.45.85.68,2.02,1.63,2.62,2.21l-1.49,1.47c-.35-.41-.95-.95-1.55-1.51-.45,1.49-1.3,2.97-2.81,4.15-.31-.39-1.18-1.16-1.63-1.4,2.19-1.61,2.75-3.72,2.81-5.37h-1.22v-1.88h5.76c-.35-2.11-.56-4.54-.7-7.23-.8,1.51-1.82,3.08-2.81,4.29l1.16-.12c-.08-.33-.19-.66-.27-.93l1.42-.37c.35.95.68,2.21.81,2.97l-1.51.45c-.02-.21-.06-.43-.12-.7-2.48.35-2.95.5-3.24.64-.08-.33-.37-1.22-.56-1.67.33-.08.66-.41,1.01-.93.19-.23.56-.76.99-1.49-1.09.14-1.45.25-1.65.35-.1-.37-.37-1.2-.58-1.65.25-.08.52-.33.74-.74.23-.37.99-1.86,1.36-3.3l1.78.47c-.47,1.18-1.14,2.44-1.78,3.43l.93-.06c.21-.43.41-.87.58-1.28l1.71.56c-.04-.99-.08-2.06-.12-3.14h2.02c.08,4.05.35,7.64.87,10.45h1.9c-.35-.31-.74-.62-1.07-.89l.93-.76c-.97.17-1.28.27-1.46.37-.08-.35-.37-1.24-.56-1.69.33-.1.64-.43,1.01-.95.19-.21.56-.76.95-1.47-1.07.14-1.4.25-1.61.35-.1-.37-.39-1.18-.58-1.65.25-.06.47-.33.7-.7.19-.35.89-1.75,1.24-3.12l1.75.47c-.41,1.11-1.01,2.25-1.61,3.18l.93-.06c.19-.41.37-.87.54-1.28l1.78.58c-.76,1.55-1.78,3.14-2.77,4.38l1.16-.14c-.1-.29-.19-.6-.29-.85l1.4-.39c.37.95.78,2.25.95,2.99l-1.47.5c-.04-.23-.1-.52-.19-.83-.52.08-.95.14-1.3.21.56.41,1.22.91,1.57,1.26l-.54.5h1.65v1.88h-2.4l1.63.62Zm-3.86-.62c.16.68.35,1.26.56,1.8.47-.56.89-1.16,1.22-1.8h-1.78Z"/>
    <path class="cls-2" d="m288.97,277.43c-.1.12-.21.25-.31.37,1.9,1.67,5.29,3.05,8.57,3.74-.52.41-1.22,1.28-1.55,1.86-.41-.1-.85-.25-1.28-.37v5.33h-14.35v-5.2c-.43.14-.87.29-1.28.41-.25-.47-.91-1.47-1.32-1.88,3.8-.93,7.49-2.64,9.35-5.04l2.17.78Zm4.69,5.33c-.97-.35-1.9-.78-2.81-1.26v.54h-7.25v-.41c-.81.41-1.63.8-2.5,1.13h12.55Zm-12.45,6.28h12.14v6.98h-2.52v-.5h-7.21v.56h-2.42v-7.04Zm2.33-2.17c-.1-.64-.37-1.49-.7-2.15l1.59-.45h-2.33v2.6h1.45Zm.08,3.78v.83h7.21v-.83h-7.21Zm7.21,3.26v-.83h-7.21v.83h7.21Zm-4.69-9.64h-1.61c.37.7.7,1.59.83,2.19l-1.32.41h2.11v-2.6Zm2.97-3.82c-.62-.43-1.22-.89-1.73-1.34-.54.46-1.13.91-1.75,1.34h3.49Zm-.99,3.82v2.6h1.92l-1.24-.35c.29-.62.62-1.57.81-2.25h-1.49Zm4.09,0h-2.15l1.61.39c-.41.83-.81,1.63-1.14,2.21h1.67v-2.6Z"/>
  </g>
  <g class="cls-3">
    <path class="cls-2" d="m188.33,73.44c3.98-3.8,6.61-6.4,6.61-8.61,0-1.51-.83-2.42-2.29-2.42-1.11,0-2.02.74-2.81,1.59l-1.65-1.65c1.4-1.51,2.77-2.33,4.85-2.33,2.89,0,4.81,1.84,4.81,4.64,0,2.6-2.4,5.29-5.12,8.13.76-.08,1.78-.17,2.5-.17h3.34v2.56h-10.24v-1.75Z"/>
    <path class="cls-2" d="m200.51,67.68c0-5.04,2.04-7.66,5.18-7.66s5.16,2.64,5.16,7.66-2.02,7.8-5.16,7.8-5.18-2.75-5.18-7.8Zm7.47,0c0-4.13-.97-5.29-2.29-5.29s-2.31,1.16-2.31,5.29.99,5.43,2.31,5.43,2.29-1.28,2.29-5.43Z"/>
    <path class="cls-2" d="m213.23,73.5c0-1.13.8-1.98,1.88-1.98s1.9.85,1.9,1.98-.8,1.98-1.9,1.98-1.88-.87-1.88-1.98Z"/>
    <path class="cls-2" d="m219.38,67.68c0-5.04,2.04-7.66,5.18-7.66s5.16,2.64,5.16,7.66-2.02,7.8-5.16,7.8-5.18-2.75-5.18-7.8Zm7.47,0c0-4.13-.97-5.29-2.29-5.29s-2.31,1.16-2.31,5.29.99,5.43,2.31,5.43,2.29-1.28,2.29-5.43Z"/>
    <path class="cls-2" d="m231.29,64.44c0-3.06,1.53-4.81,3.72-4.81s3.74,1.75,3.74,4.81-1.55,4.87-3.74,4.87-3.72-1.8-3.72-4.87Zm5.31,0c0-2.25-.7-3.1-1.59-3.1s-1.57.85-1.57,3.1.68,3.16,1.57,3.16,1.59-.91,1.59-3.16Zm7.23-4.81h1.8l-8.3,15.86h-1.8l8.3-15.86Zm-1.42,10.98c0-3.08,1.55-4.83,3.72-4.83s3.74,1.75,3.74,4.83-1.57,4.87-3.74,4.87-3.72-1.82-3.72-4.87Zm5.31,0c0-2.25-.7-3.12-1.59-3.12s-1.57.87-1.57,3.12.68,3.14,1.57,3.14,1.59-.89,1.59-3.14Z"/>
    <path class="cls-2" d="m199.81,96.66c2.48.87,5.74,2.13,7.45,3.03l-1.16,2.11c-1.82-1.03-5.59-2.62-8.26-3.59l.93-1.55h-.74c-.99,2.54-3.2,4.17-8.71,5.08-.17-.66-.74-1.69-1.22-2.21,4.15-.56,6.09-1.49,7.06-2.87h-6.15v-2.09h6.96c.06-.33.12-.7.17-1.07h-7.6v-2.13h7.93v-1.09h-6.11v-2.06h6.11v-1.05h-7.29v-2.17h3.92c-.31-.62-.74-1.28-1.16-1.82l2.19-.87c.64.72,1.28,1.71,1.55,2.42l-.6.27h4.54c.52-.8,1.14-1.88,1.47-2.68l2.64.68c-.45.72-.93,1.4-1.38,2h3.96v2.17h-7.31v1.05h6.32v2.06h-6.32v1.09h8.22v2.13h-8.49c-.04.37-.1.72-.17,1.07h8.05v2.09h-6.81Z"/>
    <path class="cls-2" d="m227.21,83.37v18.46h-2.44v-.87h-12.84v.87h-2.33v-18.46h17.61Zm-2.44,15.4v-13.19h-2.52c.64.33,1.32.78,1.69,1.18l-.83.87h.99v1.73h-3.7c.1,1.16.23,2.23.39,3.16.41-.78.72-1.65.97-2.58l1.88.37c-.5,1.8-1.24,3.39-2.17,4.73.27.64.58,1.03.93,1.12.25.06.41-.74.5-1.94.37.37,1.12.93,1.53,1.16-.33,2.54-1.4,3.32-2.77,2.7-.62-.21-1.14-.68-1.55-1.36-.66.66-1.36,1.26-2.15,1.75-.27-.37-.93-1.16-1.34-1.49.23-.12.46-.27.68-.41-1.65.25-3.28.47-4.65.7l-.23-1.8c1.51-.14,3.65-.41,5.8-.7l.04,1.05c.37-.33.7-.68,1.03-1.05-.43-1.49-.7-3.37-.89-5.41h-5.74v-1.73h5.59c-.04-.58-.06-1.16-.1-1.75h2.02c.02.6.04,1.18.08,1.75h2.23c-.43-.37-1.05-.81-1.59-1.09l.95-.95h-9.95v13.19h12.84Zm-6.96-4.6h-4.6v-3.92h4.6v3.92Zm-1.65-2.62h-1.38v1.32h1.38v-1.32Z"/>
    <path class="cls-2" d="m237.59,83.82c-1.51,3.39-3.92,6.9-6.15,9.04-.47-.54-1.57-1.61-2.19-2.11,2.19-1.84,4.36-4.83,5.59-7.82l2.75.89Zm5.78,9.48c1.67,2.27,3.57,5.2,4.58,7.12l-2.54,1.34c-.27-.58-.64-1.28-1.07-2.02-9.97.79-11.38.91-12.39,1.3-.17-.54-.64-1.9-1.01-2.64.7-.19,1.24-.74,2.04-1.65.89-.89,3.47-4.42,5.1-7.82l2.87,1.22c-1.59,2.79-3.57,5.53-5.57,7.76l7.58-.5c-.66-1.03-1.34-2.11-1.98-3.01l2.39-1.09Zm.39-10.32c.89,2.89,2.79,5.8,5.31,7.35-.56.54-1.45,1.71-1.86,2.48-2.35-1.8-4.19-4.56-5.35-7.29h-3.3v-2.54h5.2Z"/>
    <path class="cls-2" d="m256.59,83.2c-.5,1.26-1.09,2.56-1.78,3.82v14.7h-2.4v-10.96c-.5.64-.99,1.24-1.51,1.75-.21-.58-.87-1.92-1.26-2.52,1.84-1.8,3.61-4.67,4.67-7.51l2.27.72Zm5.55,15.83c-1.22,1.09-3.16,2.13-4.73,2.77-.43-.5-1.36-1.3-1.94-1.69,1.61-.45,3.32-1.2,4.32-1.94l2.35.87Zm-.83-14.04h-4.52v-1.53h4.52v-1.01h2.48v1.01h4.71v1.53h-4.71v.68h4.27v1.45h-4.27v.7h5.41v1.63h-13.3v-1.63h5.41v-.7h-4.09v-1.45h4.09v-.68Zm4.29,13.09c1.34.79,2.89,1.8,3.74,2.56l-2.21,1.28c-.79-.8-2.42-2.04-3.78-2.87l2.17-.97h-8.18v-7.95h10.61v7.95h-2.35Zm-.12-6.44h-5.78v.81h5.78v-.81Zm0,2.04h-5.78v.83h5.78v-.83Zm0,2.06h-5.78v.83h5.78v-.83Z"/>
    <path class="cls-2" d="m195.91,109.01c-.56,1.82-1.28,4.11-1.9,5.74,1.32,1.63,1.57,3.06,1.57,4.25,0,1.36-.29,2.21-.97,2.7-.31.25-.72.39-1.2.45-.39.06-.91.06-1.38.06-.02-.64-.21-1.59-.56-2.21.37.04.68.04.91.02.23,0,.43-.04.62-.17.25-.19.35-.6.35-1.2,0-.95-.29-2.27-1.49-3.67.45-1.32.91-3.22,1.24-4.67h-1.82v16.21h-2.29v-18.39h4.89l.35-.1,1.67.97Zm4.62,3.82c-.04.85-.06,1.65-.12,2.46h5.68s-.02.72-.02,1.03c-.21,6.01-.41,8.38-1.03,9.17-.47.62-.95.83-1.63.93-.6.1-1.61.1-2.66.06-.04-.72-.33-1.73-.74-2.44.93.1,1.75.12,2.17.12.33,0,.54-.08.7-.31.37-.41.58-2.11.7-6.34h-3.37c-.52,3.88-1.8,6.96-5.41,8.96-.31-.6-1.01-1.45-1.57-1.9,4.44-2.33,4.75-6.4,4.87-11.75h-2.64v-2.27h5.02c-.17-.78-.52-1.96-.83-2.87l2.25-.54c.37.91.81,2.17.97,2.91l-1.69.5h6.03v2.27h-6.67Z"/>
    <path class="cls-2" d="m214.01,108.35c-1.24,1.36-3.1,2.87-4.63,3.74-.17-.41-.6-1.26-.89-1.67,1.3-.72,2.89-1.9,3.7-2.89l1.82.83Zm-3.22,6.83c-.5.33-.99.64-1.45.89-.12-.5-.5-1.51-.74-2,1.34-.68,2.99-1.88,3.8-2.85l1.71.74v-1.09h2.93v-1.12h-1.09c-.17.25-.31.47-.45.66-.37-.25-1.16-.56-1.61-.72.58-.7,1.05-1.61,1.3-2.5l1.75.41c-.06.19-.12.37-.21.56h4.44v1.59h-2.25v1.12h2.62v1.55h-2.62v.91h2.35v1.32h-2.35v.95l2.52-.17c-.04.5-.06,1.2-.04,1.57-5.82.45-6.65.58-7.16.76-.08-.41-.35-1.16-.58-1.53.33-.08.7-.31.7-1.03v-2.15h1.63v2.73l1.05-.08v-3.28h-2.93v-.1c-.39.43-.83.87-1.3,1.3v3.98h-2.02v-2.42Zm17.18,7.14h-5.1c1.63.68,3.78,1.67,4.93,2.37l-1.3,1.75c-1.14-.81-3.55-2-5.33-2.77l1.09-1.36h-2.48v4.11h-2.52v-4.11h-3.59l1.63.62c-1.16,1.3-2.99,2.64-4.56,3.47-.31-.47-1.01-1.42-1.47-1.88,1.32-.54,2.79-1.34,3.74-2.21h-4.13v-1.69h19.08v1.69Zm-16.5-4.11h13.73v1.65h-13.73v-1.65Zm12.51-.62h-1.88v-9.54h5.29v6.46c0,.76-.1,1.24-.6,1.51-.48.31-1.09.33-1.94.33-.06-.52-.33-1.2-.56-1.65.43.02.85.02,1.01.02.17-.02.21-.06.21-.25v-4.71h-1.53v7.82Z"/>
    <path class="cls-2" d="m247.85,120.32c-1.07.76-2.21,1.53-3.24,2.11,1.18.76,2.56,1.32,4.19,1.65-.52.47-1.18,1.44-1.51,2.11-4.15-1.07-6.65-3.37-8.15-7h-.17c-.7.72-1.51,1.38-2.39,2v2.35l4.21-.79c0,.64.06,1.55.14,2.04-5.2,1.12-6.07,1.34-6.63,1.65-.12-.48-.56-1.4-.89-1.82.37-.19.8-.58.8-1.4v-.68c-1.11.54-2.29,1.01-3.47,1.34-.33-.58-.99-1.47-1.47-1.9,2.35-.58,4.71-1.59,6.5-2.81h-2.95v-2.7h-2.79v-2.02h2.79v-2.66h12.55v2.66h2.85v2.02h-2.85v2.7h-3.78c.39.76.91,1.45,1.53,2.06.99-.7,2.08-1.59,2.77-2.31l1.94,1.38Zm.04-9.52h-17.82v-1.92h7.64c-.23-.43-.5-.87-.72-1.2l2.5-.64c.41.58.83,1.26,1.16,1.84h7.25v1.92Zm-12.72,2.81v1.01h7.74v-1.01h-7.74Zm0,3.74h7.74v-1.03h-7.74v1.03Z"/>
    <path class="cls-2" d="m256.32,117.43c-.27,1.75-.7,3.26-1.28,4.54,1.26,1.84,3.49,2.08,6.67,2.11,2.21,0,5.55-.12,7.89-.35-.35.5-.64,1.61-.76,2.27-2.15.14-4.77.19-7.16.19-3.67,0-6.03-.39-7.6-2.37-.79,1.18-1.71,2.08-2.77,2.75-.31-.47-1.09-1.34-1.57-1.65,1.98-1.14,3.41-3.14,4.13-5.97h-1.78c-.5,0-1.09.14-1.28.31-.14-.54-.56-1.61-.8-2.09.37-.1.68-.25,1.09-.66.39-.37,1.24-1.45,1.98-2.5h-2.75v-1.96h4.23l.39-.14,1.61.7c-.83,1.16-2.17,3.06-3.3,4.44h1.49l.37-.06,1.2.45Zm-2.6-5.74c-.56-.89-1.73-2.33-2.7-3.34l1.82-1.13c.99.97,2.15,2.27,2.77,3.1l-1.88,1.38Zm13.09,11.54c-.78-1.03-2.17-2.4-3.63-3.65,0,.62.08,1.53.19,2.02-4.4,1.16-5.16,1.44-5.68,1.75-.12-.5-.54-1.36-.87-1.73.37-.21.81-.64.81-1.55v-12.06h9.39v8.03l.19-.17,1.86,1.55c-.99.66-2.06,1.32-3.01,1.86,1.05.87,1.98,1.75,2.58,2.48l-1.82,1.47Zm-6.92-13.23v1.2h4.83v-1.2h-4.83Zm4.83,4.15v-1.22h-4.83v1.22h4.83Zm-2.29,2.29c.66.48,1.36,1.01,2.06,1.55.83-.54,1.75-1.26,2.44-1.86h-7.04v4.17l3.26-.74c-.79-.68-1.59-1.34-2.33-1.88l1.61-1.24Z"/>
  </g>
  <g class="cls-3">
    <path class="cls-1" d="m.54,114.66l1.42-1.92c.91.89,2.02,1.57,3.41,1.57,1.55,0,2.6-.74,2.6-2.02,0-1.45-.89-2.33-4.21-2.33v-2.19c2.81,0,3.72-.93,3.72-2.21,0-1.16-.74-1.84-2.04-1.84-1.09,0-1.98.52-2.89,1.36l-1.55-1.86c1.32-1.16,2.79-1.9,4.58-1.9,2.95,0,4.95,1.44,4.95,4,0,1.61-.95,2.72-2.54,3.37v.1c1.71.45,3.03,1.71,3.03,3.67,0,2.72-2.46,4.31-5.37,4.31-2.42,0-4.05-.91-5.12-2.13Z"/>
    <path class="cls-1" d="m13.63,114.81c0-1.13.81-1.98,1.88-1.98s1.9.85,1.9,1.98-.81,1.98-1.9,1.98-1.88-.87-1.88-1.98Z"/>
    <path class="cls-1" d="m19.84,112.7c0-1.84,1.22-3.01,2.62-3.76v-.08c-1.16-.85-2.02-1.94-2.02-3.51,0-2.46,1.96-4.03,4.6-4.03s4.44,1.61,4.44,4.05c0,1.47-.99,2.66-1.96,3.34v.1c1.38.78,2.56,1.88,2.56,3.88,0,2.31-2.04,4.09-5.14,4.09-2.91,0-5.1-1.69-5.1-4.09Zm7.41-.1c0-1.49-1.42-2.02-3.39-2.83-.81.64-1.4,1.55-1.4,2.6,0,1.38,1.14,2.27,2.56,2.27,1.3,0,2.23-.72,2.23-2.04Zm-.25-7.02c0-1.24-.74-2.11-2.02-2.11-1.03,0-1.86.66-1.86,1.88,0,1.36,1.2,2,2.79,2.62.7-.74,1.09-1.55,1.09-2.39Z"/>
    <path class="cls-1" d="m31.69,105.74c0-3.06,1.53-4.81,3.72-4.81s3.74,1.75,3.74,4.81-1.55,4.87-3.74,4.87-3.72-1.8-3.72-4.87Zm5.31,0c0-2.25-.7-3.1-1.59-3.1s-1.57.85-1.57,3.1.68,3.16,1.57,3.16,1.59-.91,1.59-3.16Zm7.23-4.81h1.8l-8.3,15.86h-1.8l8.3-15.86Zm-1.42,10.98c0-3.08,1.55-4.83,3.72-4.83s3.74,1.75,3.74,4.83-1.57,4.87-3.74,4.87-3.72-1.82-3.72-4.87Zm5.31,0c0-2.25-.7-3.12-1.59-3.12s-1.57.87-1.57,3.12.68,3.14,1.57,3.14,1.59-.89,1.59-3.14Z"/>
    <path class="cls-1" d="m4.29,137.27c-.52,1.49-1.36,3.18-2.08,4.23-.37-.31-1.16-.85-1.61-1.12.7-.97,1.38-2.37,1.82-3.65l1.88.54Zm2.89-1.2v6.85h-2.37v-6.85H.97v-2.07h3.84v-1.59H.85v-2.02h2c-.1-.62-.35-1.51-.6-2.15l1.69-.41H1.16v-2h3.53c-.19-.56-.41-1.14-.62-1.63l2.46-.6c.31.68.68,1.53.93,2.23h2.95v2h-2.58l1.67.33c-.31.78-.62,1.59-.93,2.23h2.15v2.02h-3.53v1.59h3.2v2.07h-3.2Zm-2.97-8.24c.31.68.58,1.57.68,2.15l-1.49.41h2.97c.31-.74.68-1.8.89-2.56h-3.06Zm15.71,5.02h-1.92v10.14h-2.39v-10.14h-1.92v.25c0,3.04-.27,7.29-2.02,9.93-.41-.43-1.38-1.22-1.9-1.47.39-.6.7-1.28.93-2l-1.47.91c-.33-.83-1.03-2.15-1.61-3.1l1.61-.87c.56.83,1.2,1.92,1.55,2.7.58-1.98.64-4.21.64-6.11v-7.35c2.25-.41,4.75-1.05,6.26-1.75l1.88,1.8c-1.69.68-3.84,1.18-5.86,1.55v3.24h6.23v2.27Z"/>
    <path class="cls-1" d="m40.34,138.28h-5.8c1.98.93,4.09,2.02,5.37,2.81l-1.63,1.88c-1.32-.91-3.59-2.25-5.66-3.22l1.16-1.47h-6.3l1.84,1.49c-1.8,1.18-4.36,2.46-6.38,3.28-.33-.52-.95-1.32-1.38-1.84,1.86-.7,4.29-1.92,5.66-2.93h-5.66v-2.25h1.49l-.29-10.82c1.16-.33,2.5-.85,3.43-1.3l1.03,2v-1.16h7.49v11.27h2.08c.04-.58.06-1.18.1-1.82h-1.73v-1.94h1.82c.02-.58.04-1.18.04-1.78h-1.69v-1.96h1.75c0-.66.02-1.28.02-1.92h-1.84v-1.98h3.98c-.04,3.61-.19,8.15-.37,11.4h1.47v2.25Zm-15.24-2.25h2.11v-10.01c-.78.23-1.57.45-2.35.64l.06,1.86h1.8v1.96h-1.75l.04,1.75h1.73v1.96h-1.67l.04,1.84Zm3.82-9.43v9.43h4v-9.43h-4Zm3.53,2.56h-3.06v-1.51h3.06v1.51Zm-2.97,1.01h2.97v4.65h-2.97v-4.65Zm1.01,3.24h.93v-1.84h-.93v1.84Z"/>
    <path class="cls-1" d="m52.83,128.97v2.31h6.65v6.96c0,1.22-.25,1.9-1.11,2.27-.85.39-2.04.41-3.63.41-.1-.72-.47-1.75-.83-2.42,1.03.06,2.25.06,2.56.04.35,0,.45-.08.45-.35v-4.52h-4.09v9.29h-2.56v-9.29h-3.82v7.25h-2.48v-9.64h6.3v-2.31h-8.03v-2.39h8.28c-.31-.74-.7-1.59-1.05-2.27l2.44-.76c.52.95,1.2,2.19,1.55,3.04h7.62v2.39h-8.24Z"/>
    <path class="cls-1" d="m73.69,134.13c-.17.33-.37.66-.58.99h8.38s-.02.56-.04.85c-.29,4.03-.62,5.68-1.18,6.28-.39.47-.85.64-1.36.7-.47.06-1.26.08-2.08.04-.04-.58-.25-1.4-.56-1.92.66.06,1.2.06,1.47.06.29,0,.45-.04.62-.23.29-.31.54-1.36.76-3.86h-.81c-.85,2.31-2.46,4.81-4.13,6.11-.41-.47-1.11-1.03-1.73-1.36,1.57-.99,2.95-2.83,3.84-4.75h-1.22c-1.11,1.98-3.03,4.05-4.83,5.18-.39-.47-1.03-1.09-1.61-1.44,1.53-.76,3.12-2.21,4.21-3.74h-1.22c-.76.81-1.57,1.49-2.42,2.02-.31-.39-1.09-1.12-1.61-1.45-1.49.74-2.97,1.49-4.23,2.11l-.91-2.48c.7-.27,1.57-.62,2.54-1.01v-5.82h-2.06v-2.31h2.06v-4.07h2.27v4.07h1.94v2.31h-1.94v4.87l1.65-.72.43,1.75c.74-.64,1.38-1.38,1.9-2.19h-2.33v-2.06h12.99v2.06h-8.22Zm6.81-2.85h-9.77v-6.98h9.77v6.98Zm-2.27-5.29h-5.33v.99h5.33v-.99Zm0,2.6h-5.33v.99h5.33v-.99Z"/>
    <path class="cls-1" d="m89.79,124.51c-.5,1.26-1.09,2.56-1.78,3.82v14.7h-2.4v-10.96c-.5.64-.99,1.24-1.51,1.75-.21-.58-.87-1.92-1.26-2.52,1.84-1.8,3.61-4.67,4.67-7.51l2.27.72Zm5.55,15.83c-1.22,1.09-3.16,2.13-4.73,2.77-.43-.5-1.36-1.3-1.94-1.69,1.61-.45,3.32-1.2,4.31-1.94l2.35.87Zm-.83-14.04h-4.52v-1.53h4.52v-1.01h2.48v1.01h4.71v1.53h-4.71v.68h4.27v1.45h-4.27v.7h5.41v1.63h-13.3v-1.63h5.41v-.7h-4.09v-1.45h4.09v-.68Zm4.29,13.09c1.34.79,2.89,1.8,3.74,2.56l-2.21,1.28c-.78-.8-2.42-2.04-3.78-2.87l2.17-.97h-8.18v-7.95h10.61v7.95h-2.35Zm-.12-6.44h-5.78v.81h5.78v-.81Zm0,2.04h-5.78v.83h5.78v-.83Zm0,2.06h-5.78v.83h5.78v-.83Z"/>
    <path class="cls-1" d="m19.98,159.82h-2.42v3.39h-6.07v1.88c0,1.36-.29,1.98-1.26,2.35-.95.35-2.29.41-4.19.41-.12-.7-.54-1.75-.91-2.42,1.32.06,2.85.06,3.28.06.43-.02.56-.1.56-.47v-1.82H2.83v-1.92h6.15v-1.47H.68v-1.96h8.3v-1.36H3.22v-1.98h1.8c-.25-.7-.76-1.61-1.2-2.31l1.92-.6c-1.09.04-2.15.06-3.2.08-.04-.58-.37-1.4-.66-1.92,5.26-.14,11.33-.56,15.09-1.24l1.47,1.92c-.83.14-1.73.27-2.68.39l2.27.68c-.74,1.03-1.55,2.13-2.25,2.99h1.8v3.34h2.42v1.96Zm-6.85-5.41c.76-.95,1.69-2.42,2.25-3.53-2.85.35-6.07.58-9.19.7.54.72,1.09,1.67,1.34,2.31l-1.78.62h3.82c-.17-.72-.58-1.78-.95-2.58l2.25-.6c.48.8.93,1.86,1.09,2.58l-2.08.6h3.55l-.31-.1Zm-1.63,3.45h3.57v-1.36h-3.57v1.36Zm3.57,1.96h-3.57v1.47h3.57v-1.47Z"/>
    <path class="cls-1" d="m40.16,151.52c-.43,4.5-1.42,8.05-2.97,10.82,1.01,1.38,2.25,2.54,3.74,3.34-.56.46-1.32,1.38-1.69,2.02-1.4-.85-2.56-1.9-3.55-3.16-1.05,1.28-2.27,2.31-3.67,3.16-.31-.54-.87-1.3-1.36-1.8v1.94h-2.37v-3.3c-2.37.41-4.79.78-6.69,1.07l-.48-2.46c.56-.06,1.2-.12,1.9-.21v-10.96h-1.4v-2.27h10.36v1.47h6.17l.41-.06,1.61.39Zm-14.82.47v1.96h2.93v-1.96h-2.93Zm0,6.24h2.93v-2.06h-2.93v2.06Zm0,4.44c.95-.12,1.94-.27,2.93-.39v-1.86h-2.93v2.25Zm5.31,2.91c1.36-.76,2.56-1.88,3.57-3.28-1.26-2.29-2.15-5.06-2.79-8.17l2.35-.48c.41,2.21,1.03,4.29,1.9,6.11.81-1.78,1.42-3.84,1.78-6.15h-6.09v-1.61h-.72v13.58Z"/>
    <path class="cls-1" d="m60.02,154.72c-.54,3.06-1.34,5.64-2.56,7.76,1.09,1.38,2.4,2.5,3.94,3.28-.54.43-1.3,1.36-1.67,2.02-1.42-.83-2.64-1.92-3.7-3.24-1.09,1.36-2.46,2.48-4.09,3.39-.29-.52-1.07-1.55-1.57-2,1.78-.87,3.16-2,4.27-3.47-.78-1.34-1.45-2.85-1.96-4.5-.33.54-.7,1.03-1.07,1.49-.29-.47-.95-1.38-1.49-1.92v10.36h-2.44v-5.33c-3.28,1.16-3.96,1.53-4.42,1.9-.17-.6-.58-1.71-.95-2.25.39-.23.76-.62.76-1.47v-9.95h2.42v10.08l2.19-.66v-11.31h2.44v8.13c1.59-2,2.56-5.14,3.06-8.46l2.5.41c-.21,1.16-.43,2.31-.72,3.41h6.3v2.33h-1.24Zm-5.8,0c-.06.19-.14.37-.21.56.48,1.78,1.14,3.47,1.96,4.95.76-1.57,1.28-3.41,1.61-5.51h-3.37Z"/>
    <path class="cls-1" d="m81.66,165.04v2.17h-18.81v-2.17h2.37v-5.82c-.29.12-.56.25-.83.37-.31-.6-.89-1.51-1.4-2.02,1.94-.58,4.65-1.78,6.01-2.77l1.71,1.22c-1.3.97-3.37,2.15-5.16,3.03h13.81v5.99h2.29Zm-.25-10.43h-18.29v-2.17h4.87c-.43-.91-1.18-2.06-1.82-2.97l2.08-.91c.87,1.01,1.75,2.39,2.15,3.3l-1.11.58h6.01l-1.14-.39c.64-.95,1.47-2.42,1.9-3.49l2.5.74c-.7,1.14-1.47,2.29-2.11,3.14h4.95v2.17Zm-14.02,10.43h1.71v-3.92h-1.71v3.92Zm3.96-3.92v3.92h1.71v-3.92h-1.71Zm3.82-6.34c1.98.68,4.91,1.82,6.42,2.6l-1.36,1.94c-1.42-.8-4.29-2.04-6.34-2.83l1.28-1.71Zm.14,6.34v3.92h1.75v-3.92h-1.75Z"/>
  </g>
</svg>