<?xml version="1.0" encoding="utf-8"?>
<!-- Generator: Adobe Illustrator 23.0.6, SVG Export Plug-In . SVG Version: 6.00 Build 0)  -->
<svg version="1.1" id="圖層_1" xmlns="http://www.w3.org/2000/svg" xmlns:xlink="http://www.w3.org/1999/xlink" x="0px" y="0px"
	 viewBox="0 0 372.41 174.06" style="enable-background:new 0 0 372.41 174.06;" xml:space="preserve">
<style type="text/css">
	.st0{fill:none;stroke:#8C8B8B;stroke-miterlimit:10;}
	.st1{fill:#14A7B2;}
	.st2{fill:#634156;}
	.st3{fill:#CF5F61;}
	.st4{fill:none;stroke:#14A7B2;stroke-width:2;stroke-linecap:round;stroke-linejoin:round;stroke-miterlimit:10;}
	.st5{fill:none;stroke:#CF5F61;stroke-width:2;stroke-linecap:round;stroke-linejoin:round;stroke-miterlimit:10;}
	.st6{fill:none;stroke:#634156;stroke-width:2;stroke-linecap:round;stroke-linejoin:round;stroke-miterlimit:10;}
	.st7{fill:none;stroke:#8C8C8C;stroke-miterlimit:10;}
	.st8{fill:none;stroke:#8C8C8C;stroke-miterlimit:10;stroke-dasharray:4.0766,4.0766;}
	.st9{fill:#AC1A4A;}
	.st10{fill:none;stroke:#14A7B2;stroke-miterlimit:10;}
	.st11{fill:none;stroke:#634156;stroke-miterlimit:10;}
	.st12{fill:none;stroke:#CF5F61;stroke-miterlimit:10;}
	.st13{fill:#FFFFFF;}
</style>
<g>
	<polyline class="st0" points="51.94,17.23 51.94,139.35 341.35,139.35 	"/>
	<g>
		<path d="M21.02,40.38h1.96v-6.56h-1.56v-0.7c0.78-0.14,1.34-0.35,1.82-0.62h0.84v7.88h1.76v0.91h-4.82V40.38z"/>
		<path d="M27.21,36.87c0-3.06,1.07-4.53,2.75-4.53c1.67,0,2.73,1.49,2.73,4.53c0,3.06-1.07,4.58-2.73,4.58
			C28.28,41.45,27.21,39.93,27.21,36.87z M31.62,36.87c0-2.57-0.67-3.65-1.67-3.65c-1.01,0-1.68,1.08-1.68,3.65
			c0,2.59,0.67,3.71,1.68,3.71C30.95,40.58,31.62,39.46,31.62,36.87z"/>
		<path d="M33.87,36.87c0-3.06,1.07-4.53,2.75-4.53c1.67,0,2.73,1.49,2.73,4.53c0,3.06-1.07,4.58-2.73,4.58
			C34.94,41.45,33.87,39.93,33.87,36.87z M38.28,36.87c0-2.57-0.67-3.65-1.67-3.65c-1.01,0-1.68,1.08-1.68,3.65
			c0,2.59,0.67,3.71,1.68,3.71C37.61,40.58,38.28,39.46,38.28,36.87z"/>
	</g>
	<g>
		<path d="M21.02,20.12h1.96v-6.56h-1.56v-0.7c0.78-0.14,1.34-0.35,1.82-0.62h0.84v7.88h1.76v0.91h-4.82V20.12z"/>
		<path d="M27.15,20.38c2.76-2.41,4.03-4.16,4.03-5.67c0-1.01-0.53-1.74-1.62-1.74c-0.72,0-1.34,0.44-1.82,1.02l-0.64-0.62
			c0.72-0.78,1.48-1.3,2.59-1.3c1.57,0,2.55,1.03,2.55,2.6c0,1.75-1.38,3.54-3.44,5.49c0.46-0.04,1-0.08,1.44-0.08h2.43v0.95h-5.53
			V20.38z"/>
		<path d="M33.87,16.6c0-3.06,1.07-4.53,2.75-4.53c1.67,0,2.73,1.49,2.73,4.53c0,3.06-1.07,4.58-2.73,4.58
			C34.94,21.18,33.87,19.66,33.87,16.6z M38.28,16.6c0-2.57-0.67-3.65-1.67-3.65c-1.01,0-1.68,1.08-1.68,3.65
			c0,2.59,0.67,3.71,1.68,3.71C37.61,20.31,38.28,19.19,38.28,16.6z"/>
	</g>
	<g>
		<path d="M33.87,138.22c0-3.06,1.07-4.53,2.75-4.53c1.67,0,2.73,1.49,2.73,4.53c0,3.06-1.07,4.58-2.73,4.58
			C34.94,142.8,33.87,141.28,33.87,138.22z M38.28,138.22c0-2.57-0.67-3.65-1.67-3.65c-1.01,0-1.68,1.08-1.68,3.65
			c0,2.59,0.67,3.71,1.68,3.71C37.61,141.92,38.28,140.81,38.28,138.22z"/>
	</g>
	<g>
		<path d="M27.15,121.73c2.76-2.41,4.03-4.16,4.03-5.67c0-1.01-0.53-1.74-1.62-1.74c-0.72,0-1.34,0.44-1.82,1.02l-0.64-0.62
			c0.72-0.78,1.48-1.29,2.59-1.29c1.57,0,2.55,1.03,2.55,2.6c0,1.75-1.38,3.54-3.44,5.49c0.46-0.04,1-0.08,1.44-0.08h2.43v0.95
			h-5.53V121.73z"/>
		<path d="M33.87,117.95c0-3.06,1.07-4.53,2.75-4.53c1.67,0,2.73,1.49,2.73,4.53c0,3.06-1.07,4.58-2.73,4.58
			C34.94,122.53,33.87,121.01,33.87,117.95z M38.28,117.95c0-2.57-0.67-3.65-1.67-3.65c-1.01,0-1.68,1.08-1.68,3.65
			c0,2.59,0.67,3.71,1.68,3.71C37.61,121.66,38.28,120.54,38.28,117.95z"/>
	</g>
	<g>
		<path d="M32.89,99.68h-1.16v2.42h-1.04v-2.42h-3.83v-0.72l3.66-5.65h1.21v5.49h1.16V99.68z M30.69,98.81v-2.7
			c0-0.43,0.05-1.14,0.07-1.59h-0.05c-0.22,0.43-0.46,0.86-0.71,1.29l-2,3H30.69z"/>
		<path d="M33.87,97.68c0-3.06,1.07-4.53,2.75-4.53c1.67,0,2.73,1.49,2.73,4.53c0,3.06-1.07,4.58-2.73,4.58
			C34.94,102.26,33.87,100.74,33.87,97.68z M38.28,97.68c0-2.57-0.67-3.65-1.67-3.65c-1.01,0-1.68,1.08-1.68,3.65
			c0,2.59,0.67,3.71,1.68,3.71C37.61,101.39,38.28,100.27,38.28,97.68z"/>
	</g>
	<g>
		<path d="M31.99,74.46c-0.35-0.42-0.88-0.67-1.42-0.67c-1.2,0-2.22,0.92-2.27,3.66c0.54-0.66,1.31-1.07,2-1.07
			c1.49,0,2.43,0.92,2.43,2.76c0,1.7-1.15,2.85-2.52,2.85c-1.69,0-2.94-1.45-2.94-4.35c0-3.44,1.55-4.76,3.25-4.76
			c0.91,0,1.57,0.38,2.05,0.9L31.99,74.46z M31.72,79.14c0-1.19-0.52-1.94-1.58-1.94c-0.55,0-1.22,0.31-1.8,1.13
			c0.13,1.82,0.79,2.82,1.9,2.82C31.07,81.14,31.72,80.34,31.72,79.14z"/>
		<path d="M33.87,77.41c0-3.06,1.07-4.53,2.75-4.53c1.67,0,2.73,1.49,2.73,4.53c0,3.06-1.07,4.58-2.73,4.58
			C34.94,81.99,33.87,80.47,33.87,77.41z M38.28,77.41c0-2.57-0.67-3.65-1.67-3.65c-1.01,0-1.68,1.08-1.68,3.65
			c0,2.59,0.67,3.71,1.68,3.71C37.61,81.12,38.28,80,38.28,77.41z"/>
	</g>
	<g>
		<path d="M27.16,59.38c0-1.18,0.82-1.99,1.62-2.42V56.9c-0.65-0.44-1.19-1.1-1.19-2.03c0-1.34,1.03-2.23,2.41-2.23
			c1.5,0,2.41,0.96,2.41,2.31c0,0.92-0.65,1.71-1.18,2.12v0.06c0.77,0.44,1.49,1.1,1.49,2.3c0,1.28-1.1,2.28-2.76,2.28
			C28.35,61.72,27.16,60.74,27.16,59.38z M31.68,59.42c0-1.17-1.08-1.62-2.33-2.12c-0.71,0.46-1.2,1.15-1.2,1.99
			c0,0.94,0.78,1.62,1.83,1.62C31,60.91,31.68,60.29,31.68,59.42z M31.48,55.02c0-0.86-0.55-1.57-1.5-1.57
			c-0.8,0-1.39,0.58-1.39,1.43c0,1.06,0.95,1.51,1.98,1.92C31.17,56.26,31.48,55.67,31.48,55.02z"/>
		<path d="M33.87,57.14c0-3.06,1.07-4.53,2.75-4.53c1.67,0,2.73,1.49,2.73,4.53c0,3.06-1.07,4.58-2.73,4.58
			C34.94,61.72,33.87,60.2,33.87,57.14z M38.28,57.14c0-2.57-0.67-3.65-1.67-3.65c-1.01,0-1.68,1.08-1.68,3.65
			c0,2.59,0.67,3.71,1.68,3.71C37.61,60.85,38.28,59.73,38.28,57.14z"/>
	</g>
	<g>
		<path d="M42.24,151.62h1.95v-6.56h-1.56v-0.7c0.78-0.14,1.34-0.35,1.82-0.62h0.84v7.88h1.76v0.91h-4.82V151.62z"/>
		<path d="M49.14,151.1c0.37,0.42,0.91,0.67,1.48,0.67c1.14,0,2.12-0.94,2.21-3.67c-0.53,0.66-1.28,1.09-2.03,1.09
			c-1.46,0-2.42-0.95-2.42-2.77c0-1.7,1.15-2.85,2.52-2.85c1.69,0,2.95,1.39,2.95,4.19c0,3.56-1.54,4.93-3.19,4.93
			c-0.95,0-1.62-0.38-2.11-0.9L49.14,151.1z M52.81,147.2c-0.12-1.81-0.79-2.77-1.92-2.77c-0.84,0-1.49,0.79-1.49,1.99
			c0,1.19,0.53,1.96,1.57,1.96C51.56,148.38,52.22,148.04,52.81,147.2z"/>
		<path d="M59.35,144.67h-4.26v-0.94h5.5v0.66c-2.06,2.65-2.45,4.69-2.58,8.13h-1.14C57.02,149.19,57.63,147.07,59.35,144.67z"/>
		<path d="M61.5,151.52l0.54-0.72c0.5,0.5,1.14,0.97,2.16,0.97c1.03,0,1.87-0.79,1.87-2.08c0-1.26-0.72-2-1.82-2
			c-0.59,0-0.96,0.18-1.46,0.52l-0.59-0.36l0.28-4.11h4.28v0.94h-3.32l-0.22,2.54c0.38-0.22,0.78-0.35,1.31-0.35
			c1.46,0,2.65,0.86,2.65,2.79s-1.39,3.02-2.88,3.02C62.93,152.68,62.09,152.11,61.5,151.52z"/>
	</g>
	<g>
		<path d="M104.12,151.62h1.95v-6.56h-1.56v-0.7c0.78-0.14,1.34-0.35,1.82-0.62h0.84v7.88h1.76v0.91h-4.82V151.62z"/>
		<path d="M111.02,151.1c0.37,0.42,0.91,0.67,1.48,0.67c1.14,0,2.12-0.94,2.21-3.67c-0.53,0.66-1.28,1.09-2.03,1.09
			c-1.46,0-2.42-0.95-2.42-2.77c0-1.7,1.15-2.85,2.52-2.85c1.69,0,2.95,1.39,2.95,4.19c0,3.56-1.54,4.93-3.19,4.93
			c-0.95,0-1.62-0.38-2.11-0.9L111.02,151.1z M114.69,147.2c-0.12-1.81-0.79-2.77-1.92-2.77c-0.84,0-1.49,0.79-1.49,1.99
			c0,1.19,0.53,1.96,1.57,1.96C113.44,148.38,114.1,148.04,114.69,147.2z"/>
		<path d="M117.68,151.1c0.37,0.42,0.91,0.67,1.48,0.67c1.14,0,2.12-0.94,2.21-3.67c-0.53,0.66-1.28,1.09-2.03,1.09
			c-1.46,0-2.42-0.95-2.42-2.77c0-1.7,1.15-2.85,2.52-2.85c1.69,0,2.95,1.39,2.95,4.19c0,3.56-1.54,4.93-3.19,4.93
			c-0.95,0-1.62-0.38-2.11-0.9L117.68,151.1z M121.35,147.2c-0.12-1.81-0.79-2.77-1.92-2.77c-0.84,0-1.49,0.79-1.49,1.99
			c0,1.19,0.53,1.96,1.57,1.96C120.1,148.38,120.76,148.04,121.35,147.2z"/>
		<path d="M123.38,151.52l0.54-0.72c0.5,0.5,1.14,0.97,2.16,0.97c1.03,0,1.87-0.79,1.87-2.08c0-1.26-0.72-2-1.82-2
			c-0.59,0-0.96,0.18-1.46,0.52l-0.59-0.36l0.28-4.11h4.28v0.94h-3.32l-0.22,2.54c0.38-0.22,0.78-0.35,1.31-0.35
			c1.46,0,2.65,0.86,2.65,2.79s-1.39,3.02-2.88,3.02C124.81,152.68,123.97,152.11,123.38,151.52z"/>
	</g>
	<g>
		<path d="M165.48,151.88c2.76-2.41,4.03-4.16,4.03-5.67c0-1.01-0.53-1.74-1.62-1.74c-0.72,0-1.34,0.44-1.82,1.02l-0.64-0.62
			c0.72-0.78,1.48-1.3,2.59-1.3c1.57,0,2.55,1.03,2.55,2.6c0,1.75-1.38,3.54-3.44,5.49c0.46-0.04,1-0.08,1.44-0.08h2.43v0.95h-5.53
			V151.88z"/>
		<path d="M172.2,148.1c0-3.06,1.07-4.53,2.75-4.53c1.67,0,2.73,1.49,2.73,4.53c0,3.06-1.07,4.58-2.73,4.58
			C173.26,152.68,172.2,151.16,172.2,148.1z M176.61,148.1c0-2.57-0.67-3.65-1.67-3.65c-1.01,0-1.68,1.08-1.68,3.65
			c0,2.59,0.67,3.71,1.68,3.71C175.94,151.81,176.61,150.69,176.61,148.1z"/>
		<path d="M179.32,151.62h1.95v-6.56h-1.56v-0.7c0.78-0.14,1.34-0.35,1.82-0.62h0.84v7.88h1.76v0.91h-4.82V151.62z"/>
		<path d="M185.27,151.52l0.54-0.72c0.5,0.5,1.14,0.97,2.16,0.97c1.03,0,1.87-0.79,1.87-2.08c0-1.26-0.72-2-1.82-2
			c-0.59,0-0.96,0.18-1.46,0.52l-0.59-0.36l0.28-4.11h4.28v0.94h-3.32l-0.22,2.54c0.38-0.22,0.78-0.35,1.31-0.35
			c1.46,0,2.65,0.86,2.65,2.79s-1.39,3.02-2.88,3.02C186.69,152.68,185.85,152.11,185.27,151.52z"/>
	</g>
	<g>
		<path d="M229.95,151.88c2.76-2.41,4.03-4.16,4.03-5.67c0-1.01-0.53-1.74-1.62-1.74c-0.72,0-1.34,0.44-1.82,1.02l-0.64-0.62
			c0.72-0.78,1.48-1.3,2.59-1.3c1.57,0,2.55,1.03,2.55,2.6c0,1.75-1.38,3.54-3.44,5.49c0.46-0.04,1-0.08,1.44-0.08h2.43v0.95h-5.53
			V151.88z"/>
		<path d="M236.67,148.1c0-3.06,1.07-4.53,2.75-4.53c1.67,0,2.73,1.49,2.73,4.53c0,3.06-1.07,4.58-2.73,4.58
			C237.73,152.68,236.67,151.16,236.67,148.1z M241.08,148.1c0-2.57-0.67-3.65-1.67-3.65c-1.01,0-1.68,1.08-1.68,3.65
			c0,2.59,0.67,3.71,1.68,3.71C240.41,151.81,241.08,150.69,241.08,148.1z"/>
		<path d="M243.09,151.48l0.55-0.72c0.52,0.54,1.19,1.01,2.18,1.01c1.04,0,1.79-0.62,1.79-1.63c0-1.05-0.71-1.76-2.73-1.76v-0.84
			c1.81,0,2.43-0.73,2.43-1.68c0-0.85-0.58-1.39-1.49-1.42c-0.71,0.02-1.33,0.38-1.82,0.88l-0.59-0.7c0.66-0.61,1.44-1.06,2.46-1.06
			c1.48,0,2.55,0.79,2.55,2.21c0,1.07-0.64,1.78-1.57,2.12v0.05c1.04,0.24,1.87,1.03,1.87,2.23c0,1.57-1.26,2.51-2.82,2.51
			C244.53,152.68,243.66,152.11,243.09,151.48z"/>
		<path d="M249.74,151.52l0.54-0.72c0.5,0.5,1.14,0.97,2.16,0.97c1.03,0,1.87-0.79,1.87-2.08c0-1.26-0.72-2-1.82-2
			c-0.59,0-0.96,0.18-1.46,0.52l-0.59-0.36l0.28-4.11h4.28v0.94h-3.32l-0.22,2.54c0.38-0.22,0.78-0.35,1.31-0.35
			c1.46,0,2.65,0.86,2.65,2.79s-1.39,3.02-2.88,3.02C251.16,152.68,250.32,152.11,249.74,151.52z"/>
	</g>
	<g>
		<path d="M292.77,151.88c2.76-2.41,4.03-4.16,4.03-5.67c0-1.01-0.53-1.74-1.62-1.74c-0.72,0-1.34,0.44-1.82,1.02l-0.64-0.62
			c0.72-0.78,1.48-1.3,2.59-1.3c1.57,0,2.55,1.03,2.55,2.6c0,1.75-1.38,3.54-3.44,5.49c0.46-0.04,1-0.08,1.44-0.08h2.43v0.95h-5.53
			V151.88z"/>
		<path d="M299.49,148.1c0-3.06,1.07-4.53,2.75-4.53c1.67,0,2.73,1.49,2.73,4.53c0,3.06-1.07,4.58-2.73,4.58
			C300.56,152.68,299.49,151.16,299.49,148.1z M303.9,148.1c0-2.57-0.67-3.65-1.67-3.65c-1.01,0-1.68,1.08-1.68,3.65
			c0,2.59,0.67,3.71,1.68,3.71C303.23,151.81,303.9,150.69,303.9,148.1z"/>
		<path d="M305.9,151.52l0.54-0.72c0.5,0.5,1.14,0.97,2.16,0.97c1.03,0,1.87-0.79,1.87-2.08c0-1.26-0.72-2-1.82-2
			c-0.59,0-0.96,0.18-1.46,0.52l-0.59-0.36l0.28-4.11h4.28v0.94h-3.32l-0.22,2.54c0.38-0.22,0.78-0.35,1.31-0.35
			c1.46,0,2.65,0.86,2.65,2.79s-1.39,3.02-2.88,3.02C307.33,152.68,306.49,152.11,305.9,151.52z"/>
		<path d="M312.56,151.52l0.54-0.72c0.5,0.5,1.14,0.97,2.16,0.97c1.03,0,1.87-0.79,1.87-2.08c0-1.26-0.72-2-1.82-2
			c-0.59,0-0.96,0.18-1.46,0.52l-0.59-0.36l0.28-4.11h4.28v0.94h-3.32l-0.22,2.54c0.38-0.22,0.78-0.35,1.31-0.35
			c1.46,0,2.65,0.86,2.65,2.79s-1.39,3.02-2.88,3.02C313.99,152.68,313.15,152.11,312.56,151.52z"/>
	</g>
	<g>
		<path d="M324.77,151.88c2.76-2.41,4.03-4.16,4.03-5.67c0-1.01-0.53-1.74-1.62-1.74c-0.72,0-1.34,0.44-1.82,1.02l-0.64-0.62
			c0.72-0.78,1.48-1.3,2.59-1.3c1.57,0,2.55,1.03,2.55,2.6c0,1.75-1.38,3.54-3.44,5.49c0.46-0.04,1-0.08,1.44-0.08h2.43v0.95h-5.53
			V151.88z"/>
		<path d="M331.49,148.1c0-3.06,1.07-4.53,2.75-4.53c1.67,0,2.73,1.49,2.73,4.53c0,3.06-1.07,4.58-2.73,4.58
			C332.56,152.68,331.49,151.16,331.49,148.1z M335.9,148.1c0-2.57-0.67-3.65-1.67-3.65c-1.01,0-1.68,1.08-1.68,3.65
			c0,2.59,0.67,3.71,1.68,3.71C335.23,151.81,335.9,150.69,335.9,148.1z"/>
		<path d="M342.94,145.15c-0.35-0.42-0.88-0.67-1.42-0.67c-1.2,0-2.22,0.92-2.27,3.66c0.54-0.66,1.31-1.07,2-1.07
			c1.49,0,2.43,0.92,2.43,2.76c0,1.7-1.15,2.85-2.52,2.85c-1.69,0-2.94-1.45-2.94-4.35c0-3.44,1.55-4.76,3.25-4.76
			c0.91,0,1.57,0.38,2.05,0.9L342.94,145.15z M342.66,149.83c0-1.19-0.52-1.94-1.58-1.94c-0.55,0-1.22,0.31-1.8,1.13
			c0.13,1.82,0.79,2.82,1.9,2.82C342.01,151.83,342.66,151.03,342.66,149.83z"/>
		<path d="M344.56,151.52l0.54-0.72c0.5,0.5,1.14,0.97,2.16,0.97c1.03,0,1.87-0.79,1.87-2.08c0-1.26-0.72-2-1.82-2
			c-0.59,0-0.96,0.18-1.46,0.52l-0.59-0.36l0.28-4.11h4.28v0.94h-3.32l-0.22,2.54c0.38-0.22,0.78-0.35,1.31-0.35
			c1.46,0,2.65,0.86,2.65,2.79s-1.39,3.02-2.88,3.02C345.99,152.68,345.15,152.11,344.56,151.52z"/>
	</g>
	<g>
		<path d="M363.14,151.16h-3.26v2.06h-0.68v-2.06h-4.16v-0.65h1.48v-2.41h2.68v-1.37h-2.19c-0.41,0.69-0.88,1.31-1.37,1.77
			c-0.13-0.11-0.41-0.33-0.58-0.42c0.85-0.74,1.6-1.9,2.03-3.11l0.68,0.16c-0.13,0.31-0.27,0.64-0.41,0.95h5.37v0.65h-2.85v1.37
			h2.64v0.63h-2.64v1.78h3.26V151.16z M359.21,150.51v-1.78h-2.02v1.78H359.21z"/>
	</g>
	<g>
		<path class="st1" d="M59.43,66.33c-0.35-0.42-0.88-0.67-1.42-0.67c-1.2,0-2.22,0.92-2.27,3.66c0.54-0.66,1.31-1.07,2-1.07
			c1.49,0,2.43,0.92,2.43,2.76c0,1.7-1.15,2.85-2.52,2.85c-1.69,0-2.94-1.45-2.94-4.35c0-3.44,1.55-4.76,3.25-4.76
			c0.91,0,1.57,0.38,2.05,0.9L59.43,66.33z M59.16,71c0-1.19-0.52-1.94-1.58-1.94c-0.55,0-1.22,0.31-1.8,1.13
			c0.13,1.82,0.79,2.82,1.9,2.82C58.51,73.01,59.16,72.2,59.16,71z"/>
		<path class="st1" d="M61.07,72.66l0.55-0.72c0.52,0.54,1.19,1.01,2.18,1.01c1.04,0,1.79-0.62,1.79-1.63
			c0-1.06-0.71-1.76-2.73-1.76v-0.84c1.81,0,2.43-0.73,2.43-1.68c0-0.85-0.58-1.39-1.49-1.42c-0.71,0.02-1.33,0.38-1.82,0.88
			l-0.59-0.7c0.66-0.61,1.44-1.05,2.46-1.05c1.48,0,2.55,0.79,2.55,2.21c0,1.07-0.64,1.78-1.57,2.12v0.05
			c1.04,0.24,1.87,1.03,1.87,2.23c0,1.57-1.26,2.51-2.82,2.51C62.51,73.86,61.64,73.28,61.07,72.66z"/>
		<path class="st1" d="M68.25,73.03c0-0.49,0.36-0.85,0.79-0.85s0.79,0.36,0.79,0.85s-0.36,0.83-0.79,0.83S68.25,73.52,68.25,73.03z
			"/>
		<path class="st1" d="M76.09,66.33c-0.35-0.42-0.88-0.67-1.42-0.67c-1.2,0-2.22,0.92-2.27,3.66c0.54-0.66,1.31-1.07,2-1.07
			c1.49,0,2.43,0.92,2.43,2.76c0,1.7-1.15,2.85-2.52,2.85c-1.69,0-2.94-1.45-2.94-4.35c0-3.44,1.55-4.76,3.25-4.76
			c0.91,0,1.57,0.38,2.05,0.9L76.09,66.33z M75.81,71c0-1.19-0.52-1.94-1.58-1.94c-0.55,0-1.22,0.31-1.8,1.13
			c0.13,1.82,0.79,2.82,1.9,2.82C75.17,73.01,75.81,72.2,75.81,71z"/>
	</g>
	<g>
		<path class="st1" d="M344,38.97h1.95v-6.56h-1.56v-0.7c0.78-0.14,1.34-0.35,1.82-0.62h0.84v7.88h1.76v0.91H344V38.97z"/>
		<path class="st1" d="M350.19,35.45c0-3.06,1.07-4.53,2.75-4.53c1.67,0,2.73,1.49,2.73,4.53c0,3.06-1.07,4.58-2.73,4.58
			C351.26,40.04,350.19,38.51,350.19,35.45z M354.6,35.45c0-2.57-0.67-3.65-1.67-3.65c-1.01,0-1.68,1.08-1.68,3.65
			c0,2.59,0.67,3.71,1.68,3.71C353.93,39.16,354.6,38.04,354.6,35.45z"/>
		<path class="st1" d="M357.32,38.97h1.95v-6.56h-1.56v-0.7c0.78-0.14,1.34-0.35,1.82-0.62h0.84v7.88h1.76v0.91h-4.82V38.97z"/>
		<path class="st1" d="M363.8,39.21c0-0.49,0.36-0.85,0.79-0.85s0.79,0.36,0.79,0.85s-0.36,0.83-0.79,0.83S363.8,39.7,363.8,39.21z"
			/>
		<path class="st1" d="M372.53,37.46h-1.16v2.42h-1.04v-2.42h-3.83v-0.72l3.66-5.65h1.21v5.49h1.16V37.46z M370.32,36.58v-2.7
			c0-0.43,0.05-1.14,0.07-1.59h-0.05c-0.22,0.43-0.46,0.86-0.71,1.29l-2,3H370.32z"/>
	</g>
	<g>
		<path class="st2" d="M343.48,57.93c0-1.18,0.82-1.99,1.62-2.42v-0.06c-0.65-0.44-1.19-1.1-1.19-2.03c0-1.34,1.03-2.23,2.41-2.23
			c1.5,0,2.41,0.96,2.41,2.31c0,0.92-0.65,1.71-1.18,2.12v0.06c0.77,0.44,1.49,1.1,1.49,2.3c0,1.28-1.1,2.28-2.76,2.28
			C344.67,60.27,343.48,59.29,343.48,57.93z M348,57.97c0-1.17-1.08-1.62-2.33-2.12c-0.71,0.46-1.2,1.15-1.2,1.99
			c0,0.94,0.78,1.62,1.83,1.62C347.32,59.46,348,58.84,348,57.97z M347.8,53.57c0-0.86-0.55-1.57-1.5-1.57
			c-0.8,0-1.39,0.58-1.39,1.43c0,1.06,0.95,1.51,1.98,1.92C347.49,54.81,347.8,54.21,347.8,53.57z"/>
		<path class="st2" d="M350.13,59.47c2.76-2.41,4.03-4.16,4.03-5.67c0-1.01-0.53-1.74-1.62-1.74c-0.72,0-1.34,0.44-1.82,1.02
			l-0.64-0.62c0.72-0.78,1.48-1.29,2.59-1.29c1.57,0,2.55,1.03,2.55,2.6c0,1.75-1.38,3.54-3.44,5.49c0.46-0.04,1-0.08,1.44-0.08
			h2.43v0.95h-5.53V59.47z"/>
		<path class="st2" d="M357.14,59.44c0-0.49,0.36-0.85,0.79-0.85s0.79,0.36,0.79,0.85s-0.36,0.83-0.79,0.83
			S357.14,59.94,357.14,59.44z"/>
		<path class="st2" d="M360.89,58.69c0.37,0.42,0.91,0.67,1.48,0.67c1.14,0,2.12-0.94,2.21-3.67c-0.53,0.66-1.28,1.09-2.03,1.09
			c-1.46,0-2.42-0.95-2.42-2.77c0-1.7,1.15-2.85,2.52-2.85c1.69,0,2.95,1.39,2.95,4.19c0,3.56-1.54,4.93-3.19,4.93
			c-0.95,0-1.62-0.38-2.11-0.9L360.89,58.69z M364.56,54.79c-0.12-1.81-0.79-2.77-1.92-2.77c-0.84,0-1.49,0.79-1.49,1.99
			c0,1.19,0.53,1.95,1.57,1.95C363.32,55.96,363.98,55.63,364.56,54.79z"/>
	</g>
	<g>
		<path class="st3" d="M344,123.91h1.95v-6.56h-1.56v-0.7c0.78-0.14,1.34-0.35,1.82-0.62h0.84v7.88h1.76v0.91H344V123.91z"/>
		<path class="st3" d="M350.14,122.64c0-1.18,0.82-1.99,1.62-2.42v-0.06c-0.65-0.44-1.19-1.1-1.19-2.03c0-1.34,1.03-2.23,2.41-2.23
			c1.5,0,2.41,0.96,2.41,2.31c0,0.92-0.65,1.71-1.18,2.12v0.06c0.77,0.44,1.49,1.1,1.49,2.3c0,1.28-1.1,2.28-2.76,2.28
			C351.33,124.98,350.14,123.99,350.14,122.64z M354.66,122.67c0-1.18-1.08-1.62-2.33-2.12c-0.71,0.46-1.2,1.15-1.2,1.99
			c0,0.94,0.78,1.62,1.83,1.62C353.98,124.16,354.66,123.55,354.66,122.67z M354.46,118.27c0-0.86-0.55-1.57-1.5-1.57
			c-0.8,0-1.39,0.58-1.39,1.43c0,1.06,0.95,1.51,1.98,1.92C354.15,119.52,354.46,118.92,354.46,118.27z"/>
		<path class="st3" d="M357.14,124.15c0-0.49,0.36-0.85,0.79-0.85s0.79,0.36,0.79,0.85c0,0.49-0.36,0.83-0.79,0.83
			S357.14,124.64,357.14,124.15z"/>
		<path class="st3" d="M365.87,122.4h-1.16v2.42h-1.04v-2.42h-3.83v-0.72l3.66-5.65h1.21v5.49h1.16V122.4z M363.66,121.52v-2.7
			c0-0.43,0.05-1.14,0.07-1.6h-0.05c-0.22,0.43-0.46,0.86-0.71,1.3l-2,3H363.66z"/>
	</g>
	<g>
		<path class="st1" d="M70.07,169.93c-0.02-0.18-0.07-0.38-0.12-0.61c-2.3,0.47-2.69,0.59-2.95,0.73c-0.07-0.23-0.26-0.84-0.42-1.15
			c0.3-0.07,0.55-0.36,0.92-0.82c0.14-0.17,0.43-0.55,0.77-1.07c-0.92,0.11-1.19,0.18-1.37,0.26c-0.07-0.25-0.28-0.85-0.41-1.18
			c0.22-0.07,0.42-0.3,0.66-0.66c0.24-0.34,0.96-1.67,1.37-2.94l1.24,0.52c-0.42,1.02-1.01,2.09-1.62,2.94l0.84-0.06
			c0.29-0.53,0.59-1.08,0.83-1.63l1.13,0.61c-0.67,1.27-1.55,2.58-2.43,3.66l1.2-0.22c-0.07-0.28-0.16-0.55-0.24-0.78l0.95-0.28
			c0.28,0.74,0.56,1.73,0.67,2.33L70.07,169.93z M68.16,170.59c-0.11,1.06-0.34,2.17-0.6,2.89c-0.23-0.12-0.72-0.26-0.97-0.34
			c0.31-0.71,0.48-1.75,0.58-2.72L68.16,170.59z M69.27,170.34c0.14,0.8,0.26,1.82,0.31,2.51l-0.97,0.24
			c-0.01-0.7-0.14-1.73-0.28-2.52L69.27,170.34z M70.39,170.06c0.17,0.6,0.37,1.34,0.44,1.87c0.2-0.55,0.36-1.16,0.46-1.7l0.98,0.34
			c-0.19,0.88-0.44,2.01-0.83,2.76l-1.01-0.48c0.13-0.24,0.26-0.53,0.37-0.84l-0.9,0.28c-0.06-0.53-0.25-1.33-0.42-1.96
			L70.39,170.06z M76.83,173.12c-0.11-0.36-0.26-0.82-0.44-1.28c-0.12,1.32-0.43,1.68-1.3,1.68h-1.36c-1.14,0-1.42-0.32-1.42-1.32
			v-1.93h1.18v1.92c0,0.3,0.06,0.34,0.41,0.34h1.06c0.3,0,0.37-0.14,0.41-1.07l-0.67,0.35c-0.22-0.48-0.7-1.3-1.06-1.88l0.82-0.38
			h-3.17v-5.89h1.82c0.14-0.4,0.29-0.85,0.35-1.2l1.45,0.23c-0.17,0.35-0.35,0.67-0.5,0.97h2.84v5.89H74.6
			c0.35,0.58,0.84,1.32,1.07,1.77l-0.28,0.13c0.24,0.17,0.7,0.32,1,0.4c-0.17-0.46-0.36-0.92-0.5-1.32l0.95-0.38
			c0.35,0.82,0.77,1.85,1,2.54L76.83,173.12z M72.51,164.78v1.68c0.29-0.17,0.54-0.34,0.76-0.53c-0.18-0.19-0.37-0.38-0.56-0.55
			l0.71-0.44c0.16,0.13,0.31,0.28,0.47,0.42c0.14-0.17,0.26-0.34,0.36-0.5l0.85,0.16c-0.18,0.31-0.4,0.61-0.65,0.9
			c0.1,0.11,0.19,0.22,0.29,0.31c0.19-0.22,0.35-0.43,0.47-0.64l0.76,0.13v-0.94H72.51z M72.51,168.39h3.44v-2.51
			c-0.2,0.32-0.43,0.64-0.7,0.92c0.26,0.35,0.52,0.67,0.68,0.95l-0.76,0.54c-0.14-0.25-0.35-0.54-0.59-0.84
			c-0.38,0.32-0.83,0.62-1.34,0.91c-0.11-0.2-0.34-0.49-0.52-0.61c0.52-0.28,0.98-0.59,1.37-0.92c-0.08-0.11-0.18-0.22-0.29-0.31
			c-0.26,0.22-0.55,0.42-0.88,0.61c-0.08-0.16-0.26-0.37-0.43-0.53V168.39z"/>
		<path class="st1" d="M81.52,169.3v2.84c0,0.7-0.13,1.04-0.53,1.25c-0.4,0.23-0.97,0.26-1.8,0.26c-0.04-0.37-0.22-0.94-0.4-1.29
			c0.47,0.01,0.95,0.01,1.1,0.01s0.22-0.06,0.22-0.23v-2.48l-1.32,0.34l-0.23-1.39c0.44-0.1,0.97-0.2,1.55-0.34v-2.12H78.7v-1.32
			h1.42v-2.27h1.4v2.27h1.3v1.32h-1.3v1.78l1.1-0.28l0.17,1.31L81.52,169.3z M87.16,169.12c0.52,1.47,1.4,2.71,2.7,3.35
			c-0.34,0.29-0.78,0.83-0.98,1.22c-1.22-0.72-2.06-1.91-2.65-3.38c-0.52,1.31-1.4,2.53-2.96,3.48c-0.2-0.34-0.71-0.9-1.02-1.15
			c1.6-0.95,2.41-2.21,2.82-3.51h-2.05v-1.36h2.36c0.08-0.62,0.11-1.25,0.11-1.82h-2.05v-1.36h2.05v-2.03h1.44v2.03h2.28v1.36h-2.28
			c0,0.58-0.02,1.2-0.08,1.82h2.73v1.36H87.16z"/>
		<path class="st1" d="M99.12,167.14c0.72,0.71,1.7,1.27,2.75,1.6c-0.31,0.28-0.71,0.78-0.91,1.12c-0.53-0.19-1.02-0.47-1.49-0.79
			v2.42c0.32-0.19,0.61-0.38,0.85-0.56l0.92,0.73c-0.47,0.25-1,0.5-1.49,0.73c0.56,0.18,1.07,0.35,1.46,0.49l-0.6,0.96
			c-1.06-0.42-3.14-1.1-4.69-1.54c0.02,0.25,0.05,0.49,0.08,0.66c-2.71,0.56-3.13,0.68-3.41,0.85c-0.1-0.32-0.37-0.9-0.59-1.14
			c0.25-0.14,0.53-0.43,0.53-0.97v-2.33c-0.37,0.25-0.74,0.47-1.13,0.66c-0.2-0.28-0.67-0.79-0.98-1.04
			c1.04-0.41,2.04-1.07,2.72-1.85h-2.28v-0.95h4.53v-0.41h-3.35v-0.85h3.35v-0.4h-3.91v-0.92h1.92c-0.13-0.23-0.28-0.47-0.41-0.66
			l1.28-0.4c0.25,0.32,0.52,0.74,0.68,1.06h2.47c0.19-0.35,0.41-0.77,0.52-1.08l1.58,0.31c-0.2,0.28-0.4,0.54-0.59,0.77h1.87v0.92
			h-3.95v0.4h3.38v0.85h-3.38v0.41h4.58v0.95H99.12z M98.87,168.58c-0.35-0.32-0.67-0.66-0.96-1.02v0.61h-3.48v-0.54
			c-0.26,0.34-0.58,0.66-0.89,0.95H98.87z M94.11,169.7h3.92v-0.37h-3.92V169.7z M94.11,170.74h3.92v-0.38h-3.92V170.74z
			 M95.92,172.09l0.43-0.6h-2.24v0.73l1.81-0.32V172.09z M94.81,167.14c-0.08,0.12-0.17,0.24-0.25,0.35h3.3
			c-0.08-0.12-0.18-0.24-0.25-0.35H94.81z M96.68,171.49c0.56,0.14,1.2,0.32,1.85,0.52c0.3-0.16,0.61-0.33,0.91-0.52H96.68z"/>
		<path class="st1" d="M107.97,170.96c0,0.42,0.06,1.01,0.11,1.34c-3.35,0.82-3.9,1-4.27,1.22c-0.11-0.34-0.44-0.92-0.66-1.17
			c0.25-0.17,0.6-0.53,0.6-1.1v-8.68h1.49v3.54h2.66v1.4h-2.66v4.07L107.97,170.96z M111.88,172.16c0.44,0,0.53-0.43,0.6-2.05
			c0.35,0.26,0.94,0.53,1.34,0.62c-0.16,2.04-0.53,2.81-1.81,2.81h-1.63c-1.39,0-1.79-0.49-1.79-2.18v-8.81h1.48v3.56h2.93v1.4
			h-2.93v3.87c0,0.68,0.06,0.78,0.52,0.78H111.88z"/>
	</g>
	<g>
		<path class="st3" d="M54.4,99.52l0.54-0.72c0.5,0.5,1.14,0.97,2.16,0.97c1.03,0,1.87-0.79,1.87-2.08c0-1.26-0.72-2-1.82-2
			c-0.59,0-0.96,0.18-1.46,0.52l-0.59-0.36l0.28-4.11h4.28v0.94h-3.32l-0.22,2.54c0.38-0.22,0.78-0.35,1.31-0.35
			c1.46,0,2.65,0.86,2.65,2.79s-1.39,3.02-2.88,3.02C55.82,100.68,54.98,100.11,54.4,99.52z"/>
		<path class="st3" d="M65.56,92.67h-4.26v-0.94h5.5v0.66c-2.06,2.65-2.45,4.69-2.58,8.13h-1.14
			C63.24,97.19,63.85,95.07,65.56,92.67z"/>
		<path class="st3" d="M68.25,99.85c0-0.49,0.36-0.85,0.79-0.85s0.79,0.36,0.79,0.85c0,0.49-0.36,0.83-0.79,0.83
			S68.25,100.35,68.25,99.85z"/>
		<path class="st3" d="M72.01,99.1c0.37,0.42,0.91,0.67,1.48,0.67c1.14,0,2.12-0.94,2.21-3.67c-0.53,0.66-1.28,1.09-2.03,1.09
			c-1.46,0-2.42-0.95-2.42-2.77c0-1.7,1.15-2.85,2.52-2.85c1.69,0,2.95,1.39,2.95,4.19c0,3.56-1.54,4.93-3.19,4.93
			c-0.95,0-1.62-0.38-2.11-0.9L72.01,99.1z M75.68,95.2c-0.12-1.81-0.79-2.77-1.92-2.77c-0.84,0-1.49,0.79-1.49,1.99
			c0,1.19,0.53,1.96,1.57,1.96C74.43,96.38,75.09,96.04,75.68,95.2z"/>
	</g>
	<g>
		<path class="st2" d="M54.4,128.46l0.54-0.72c0.5,0.5,1.14,0.97,2.16,0.97c1.03,0,1.87-0.79,1.87-2.08c0-1.26-0.72-2-1.82-2
			c-0.59,0-0.96,0.18-1.46,0.52l-0.59-0.36l0.28-4.11h4.28v0.94h-3.32l-0.22,2.54c0.38-0.22,0.78-0.35,1.31-0.35
			c1.46,0,2.65,0.86,2.65,2.79c0,1.93-1.39,3.02-2.88,3.02C55.82,129.62,54.98,129.05,54.4,128.46z"/>
		<path class="st2" d="M61.59,128.8c0-0.49,0.36-0.85,0.79-0.85s0.79,0.36,0.79,0.85s-0.36,0.83-0.79,0.83S61.59,129.29,61.59,128.8
			z"/>
		<path class="st2" d="M68.9,121.61h-4.26v-0.94h5.5v0.66c-2.06,2.65-2.45,4.69-2.58,8.13h-1.14
			C66.57,126.13,67.19,124.01,68.9,121.61z"/>
	</g>
	<g>
		<g>
			<path d="M77.93,27.74c-0.34,1.15-0.88,2.09-1.56,2.84c0.6,0.38,1.3,0.67,2.07,0.86c-0.29,0.26-0.66,0.78-0.84,1.12
				c-0.85-0.25-1.58-0.61-2.22-1.09c-0.61,0.44-1.3,0.8-2.03,1.07c-0.14-0.29-0.42-0.7-0.66-0.97v1.01h-1.37v-1.01
				c-1.38,0.14-2.75,0.29-3.8,0.4l-0.13-1.21c0.32-0.02,0.68-0.05,1.07-0.07V27h-0.94v-1.13h10.7V27H72.7v4.39
				c0.62-0.2,1.2-0.48,1.71-0.84c-0.44-0.53-0.82-1.13-1.1-1.8l0.79-0.22h-1.15v-1.09h3.86l0.24-0.05L77.93,27.74z M70.08,25.59
				h-1.37v-3.86h8.37v3.86h-1.44v-2.87h-5.56V25.59z M69.76,27v0.47h1.57V27H69.76z M69.76,28.96h1.57v-0.49h-1.57V28.96z
				 M69.76,30.58c0.5-0.05,1.03-0.08,1.57-0.13v-0.5h-1.57V30.58z M75.25,24.03h-4.77v-0.84h4.77V24.03z M70.48,24.5h4.74v0.89
				h-4.74V24.5z M74.5,28.54c0.22,0.44,0.5,0.85,0.85,1.21c0.34-0.36,0.62-0.77,0.85-1.21H74.5z"/>
			<path d="M83.1,21.84c-0.31,0.84-0.71,1.68-1.14,2.49v8.23H80.6v-6.1c-0.26,0.34-0.53,0.65-0.79,0.94
				c-0.13-0.36-0.52-1.14-0.77-1.49c1.08-1.08,2.13-2.78,2.73-4.49L83.1,21.84z M88.3,27.13c0.26,2.18,0.65,3.69,1.02,3.71
				c0.17,0,0.29-0.53,0.35-1.49c0.22,0.26,0.73,0.62,0.95,0.73c-0.28,1.9-0.82,2.36-1.3,2.36c-1.25-0.01-1.94-2.12-2.3-5.31h-2.36
				v2.52l1.93-0.46c-0.04,0.37-0.02,0.91,0.02,1.21c-2.6,0.7-3.06,0.86-3.36,1.06c-0.07-0.32-0.3-0.88-0.49-1.13
				c0.25-0.12,0.56-0.36,0.56-0.85V22.6c2.03-0.29,4.27-0.78,5.65-1.29l1.07,1.07c-0.61,0.22-1.31,0.42-2.03,0.58
				c0.02,1.01,0.08,1.97,0.16,2.85h2.14v1.32H88.3z M84.45,31.13h3.21v1.15h-3.21V31.13z M86.88,25.81
				c-0.07-0.8-0.12-1.68-0.16-2.58c-0.68,0.14-1.39,0.26-2.07,0.36v2.22H86.88z"/>
			<path d="M91.19,31.98c0.34-0.55,0.62-1.45,0.76-2.16l0.95,0.35c-0.16,0.73-0.37,1.64-0.71,2.22L91.19,31.98z M96.92,29.54h-5.43
				v-1.08h2.09v-0.6h-1.85v-1.08h1.85v-0.52H91.7v-4.52h5.07v4.52h-1.94v0.52h1.92v1.08h-1.92v0.6h2.09V29.54z M92.77,25.3h1.01
				v-2.6h-1.01v0.5l0.56-0.17c0.18,0.54,0.34,1.26,0.37,1.71l-0.62,0.2c-0.02-0.47-0.14-1.14-0.31-1.67V25.3z M93.98,30.08
				c0.12,0.66,0.18,1.51,0.17,2.09l-0.91,0.11c0.02-0.58-0.02-1.44-0.12-2.1L93.98,30.08z M95.18,29.99
				c0.22,0.62,0.43,1.44,0.49,1.98l-0.88,0.18c-0.05-0.54-0.25-1.37-0.47-2L95.18,29.99z M95.67,22.7h-1.03v1.97
				c0.17-0.47,0.37-1.17,0.46-1.64l0.58,0.2V22.7z M95.67,25.3v-1.69c-0.19,0.49-0.37,1.02-0.53,1.35l-0.5-0.19v0.53H95.67z
				 M100.15,25.17V27h1.92v5.52h-1.37V32.1h-2.22v0.46h-1.3v-0.84l-0.88,0.35c-0.12-0.54-0.46-1.34-0.79-1.94l0.84-0.3
				c0.35,0.54,0.68,1.27,0.83,1.79V27h1.57v-5.61h1.39v2.46h2.33v1.32H100.15z M100.71,28.3h-2.22v2.51h2.22V28.3z"/>
			<path d="M103.4,30.51c2.31-2.21,3.84-3.72,3.84-5c0-0.88-0.48-1.4-1.33-1.4c-0.65,0-1.18,0.43-1.63,0.92l-0.96-0.96
				c0.82-0.88,1.61-1.35,2.82-1.35c1.68,0,2.79,1.07,2.79,2.7c0,1.51-1.39,3.07-2.97,4.73c0.44-0.05,1.03-0.1,1.45-0.1h1.94v1.49
				h-5.95V30.51z"/>
			<path d="M110.48,27.16c0-2.93,1.19-4.45,3.01-4.45c1.82,0,3,1.54,3,4.45c0,2.94-1.18,4.53-3,4.53
				C111.67,31.69,110.48,30.1,110.48,27.16z M114.82,27.16c0-2.4-0.56-3.07-1.33-3.07s-1.34,0.67-1.34,3.07
				c0,2.41,0.58,3.15,1.34,3.15S114.82,29.57,114.82,27.16z"/>
			<path d="M118,30.1h1.91v-5.39h-1.61v-1.09c0.89-0.17,1.5-0.4,2.06-0.74h1.31v7.22h1.67v1.43H118V30.1z"/>
			<path d="M124.6,30.51c2.31-2.21,3.84-3.72,3.84-5c0-0.88-0.48-1.4-1.33-1.4c-0.65,0-1.18,0.43-1.63,0.92l-0.96-0.96
				c0.82-0.88,1.61-1.35,2.82-1.35c1.68,0,2.79,1.07,2.79,2.7c0,1.51-1.39,3.07-2.97,4.73c0.44-0.05,1.03-0.1,1.45-0.1h1.94v1.49
				h-5.95V30.51z"/>
			<path d="M142.64,30.02h-4.1v2.57h-1.48v-2.57h-5.4v-1.37h1.9v-3.15h3.5v-1.43h-2.57c-0.49,0.85-1.07,1.62-1.63,2.18
				c-0.28-0.24-0.89-0.72-1.24-0.92c1.08-0.91,2-2.45,2.52-3.99l1.45,0.37c-0.11,0.34-0.24,0.66-0.4,0.98h6.78v1.38h-3.44v1.43h3.17
				v1.33h-3.17v1.82h4.1V30.02z M137.07,28.65v-1.82h-2.07v1.82H137.07z"/>
			<path d="M143.47,30.46l0.83-1.12c0.53,0.52,1.18,0.91,1.98,0.91c0.9,0,1.51-0.43,1.51-1.17c0-0.84-0.52-1.36-2.45-1.36v-1.27
				c1.63,0,2.16-0.54,2.16-1.28c0-0.67-0.43-1.07-1.19-1.07c-0.64,0-1.15,0.3-1.68,0.79l-0.9-1.08c0.77-0.67,1.62-1.1,2.66-1.1
				c1.71,0,2.88,0.84,2.88,2.33c0,0.94-0.55,1.58-1.48,1.96v0.06c1,0.26,1.76,1,1.76,2.13c0,1.58-1.43,2.51-3.12,2.51
				C145.04,31.69,144.09,31.17,143.47,30.46z"/>
			<path d="M154.26,29.38h-3.79v-1.21l3.31-5.29h2.12v5.15h1.04v1.36h-1.04v2.15h-1.64V29.38z M154.26,28.02V26.3
				c0-0.52,0.04-1.33,0.06-1.85h-0.05c-0.22,0.47-0.46,0.91-0.71,1.39l-1.38,2.18H154.26z"/>
			<path d="M158.14,30.54c0-0.66,0.47-1.15,1.09-1.15c0.64,0,1.1,0.49,1.1,1.15c0,0.65-0.47,1.15-1.1,1.15
				C158.61,31.69,158.14,31.19,158.14,30.54z"/>
			<path d="M165.78,24.35h-3.99v-1.48h5.9v1.08c-2.02,2.46-2.34,4.2-2.48,7.57h-1.79C163.58,28.54,164.13,26.66,165.78,24.35z"/>
			<path d="M168.64,25.28c0-1.78,0.89-2.79,2.16-2.79c1.27,0,2.17,1.02,2.17,2.79c0,1.79-0.9,2.83-2.17,2.83
				C169.53,28.11,168.64,27.07,168.64,25.28z M171.72,25.28c0-1.31-0.41-1.8-0.92-1.8s-0.91,0.49-0.91,1.8
				c0,1.31,0.4,1.83,0.91,1.83S171.72,26.58,171.72,25.28z M175.92,22.48h1.04l-4.82,9.21h-1.04L175.92,22.48z M175.09,28.86
				c0-1.79,0.9-2.81,2.16-2.81s2.17,1.02,2.17,2.81c0,1.77-0.91,2.83-2.17,2.83S175.09,30.64,175.09,28.86z M178.18,28.86
				c0-1.31-0.41-1.81-0.92-1.81s-0.91,0.5-0.91,1.81c0,1.31,0.4,1.82,0.91,1.82S178.18,30.17,178.18,28.86z"/>
		</g>
	</g>
	<polyline class="st4" points="54.06,74.94 73.29,82.53 79.29,83.59 94.47,87.47 102.76,89.23 114.94,91.88 129.94,96.29 
		139.12,96.29 161.35,101.41 166.65,103.53 180.94,103.53 190.12,100.7 266.18,67.7 288.24,55.17 302,50.94 332,38.59 338,37 	"/>
	<polyline class="st5" points="54.06,80.41 70.47,88.7 79.12,90.64 89,94 98.53,97.35 107.71,100.88 110.35,100.88 120.06,105.11 
		131,108.64 141.76,110.06 167.18,118.17 175.65,119.94 189.94,121 303.41,122.06 338,120.29 	"/>
	<polyline class="st6" points="54.06,133.53 103.12,130 129.76,127.35 153.24,124.53 175.82,123.82 190.47,118.88 246.94,93.47 
		261.59,87.11 290,71.76 329,57.82 334.65,56.59 338,55.7 	"/>
	<rect x="52.12" y="162.41" class="st1" width="10.24" height="10.24"/>
	<g>
		<path class="st2" d="M165.05,169.3v2.84c0,0.7-0.13,1.04-0.53,1.25c-0.4,0.23-0.97,0.26-1.8,0.26c-0.04-0.37-0.22-0.94-0.4-1.29
			c0.47,0.01,0.95,0.01,1.1,0.01s0.22-0.06,0.22-0.23v-2.48l-1.32,0.34l-0.23-1.39c0.44-0.1,0.97-0.2,1.55-0.34v-2.12h-1.42v-1.32
			h1.42v-2.27h1.4v2.27h1.3v1.32h-1.3v1.78l1.1-0.28l0.17,1.31L165.05,169.3z M170.69,169.12c0.52,1.47,1.4,2.71,2.7,3.35
			c-0.34,0.29-0.78,0.83-0.98,1.22c-1.22-0.72-2.06-1.91-2.65-3.38c-0.52,1.31-1.4,2.53-2.96,3.48c-0.2-0.34-0.71-0.9-1.02-1.15
			c1.6-0.95,2.41-2.21,2.82-3.51h-2.05v-1.36h2.36c0.08-0.62,0.11-1.25,0.11-1.82h-2.05v-1.36h2.05v-2.03h1.44v2.03h2.28v1.36h-2.28
			c0,0.58-0.02,1.2-0.08,1.82h2.73v1.36H170.69z"/>
		<path class="st2" d="M182.83,172.16c0.8,0,0.95-0.2,1.04-1.39c0.34,0.23,0.96,0.44,1.38,0.52c-0.2,1.74-0.67,2.18-2.33,2.18h-3.03
			c-2,0-2.57-0.41-2.57-1.83V170c-0.77,0.41-1.56,0.77-2.35,1.08c-0.22-0.32-0.73-0.96-1.03-1.26c1.52-0.52,2.97-1.21,4.32-2.04
			h-3.99v-1.32h3.79v-1.19h-2.71v-1.3h2.71v-1.45h1.44v1.45h2.61v0.65c0.48-0.52,0.9-1.05,1.28-1.62l1.37,0.67
			c-0.7,1-1.52,1.94-2.41,2.78h2.79v1.32h-4.34c-0.62,0.49-1.28,0.94-1.96,1.36h4.88v1.27h-4.89v1.21c0,0.47,0.16,0.54,1.13,0.54
			H182.83z M180.13,166.47c0.48-0.38,0.94-0.77,1.35-1.19h-2.11v1.19H180.13z"/>
		<path class="st2" d="M191.5,170.96c0,0.42,0.06,1.01,0.11,1.34c-3.35,0.82-3.9,1-4.27,1.22c-0.11-0.34-0.44-0.92-0.66-1.17
			c0.25-0.17,0.6-0.53,0.6-1.1v-8.68h1.49v3.54h2.66v1.4h-2.66v4.07L191.5,170.96z M195.41,172.16c0.44,0,0.53-0.43,0.6-2.05
			c0.35,0.26,0.94,0.53,1.34,0.62c-0.16,2.04-0.53,2.81-1.81,2.81h-1.63c-1.39,0-1.79-0.49-1.79-2.18v-8.81h1.48v3.56h2.93v1.4
			h-2.93v3.87c0,0.68,0.06,0.78,0.52,0.78H195.41z"/>
	</g>
	<g>
		<path d="M205.29,2.99v5.99h-1.5v-0.6h-2.71v3.74h-1.51V8.38h-2.7v0.66h-1.44V2.99h4.14V0.92h1.51v2.07H205.29z M199.57,6.97V4.39
			h-2.7v2.58H199.57z M203.79,6.97V4.39h-2.71v2.58H203.79z"/>
		<path d="M217.9,11.39h-4.98v0.74h-1.37V5.69c-0.25,0.34-0.5,0.66-0.77,0.95c-0.07-0.08-0.17-0.19-0.26-0.31l0.13,0.95
			c-0.37,0.12-0.77,0.24-1.16,0.35v2.87c0,0.68-0.12,1.06-0.5,1.29c-0.37,0.24-0.9,0.29-1.68,0.29c-0.04-0.38-0.2-0.98-0.38-1.39
			c0.42,0.01,0.84,0.01,0.98,0c0.14,0,0.2-0.04,0.2-0.2V8.03l-1.15,0.31l-0.32-1.36c0.42-0.1,0.92-0.22,1.48-0.36V4.44h-1.33V3.13
			h1.33V0.93h1.38v2.21h1.19v1.31h-1.19v1.81l0.78-0.2c-0.18-0.18-0.36-0.36-0.5-0.48c1.09-1.08,2.06-2.82,2.6-4.58l1.34,0.36
			c-0.19,0.55-0.41,1.09-0.64,1.63h1.63c-0.16-0.46-0.42-1.02-0.68-1.48l1.24-0.48c0.32,0.49,0.66,1.19,0.82,1.64l-0.72,0.31h2.28
			v1.31h-1.92v1.07h1.79v1.26h-1.79v1.08h1.78v1.26h-1.78v1.13h2.18V11.39z M214.39,4.29h-1.46v1.07h1.46V4.29z M214.39,6.61h-1.46
			v1.08h1.46V6.61z M212.93,10.08h1.46V8.95h-1.46V10.08z"/>
		<path d="M222.61,1.4c-0.31,0.85-0.72,1.71-1.18,2.55v8.16h-1.37V6.06c-0.25,0.31-0.5,0.61-0.74,0.88
			c-0.13-0.36-0.53-1.14-0.78-1.49c1.09-1.08,2.13-2.77,2.73-4.49L222.61,1.4z M226.78,4.74v2.08h2.51v5.26h-1.48v-0.47h-3.55v0.52
			h-1.42V6.82h2.43V4.74h-2.97V3.36h2.97V0.92h1.5v2.45h3.17v1.38H226.78z M227.82,8.16h-3.55v2.11h3.55V8.16z"/>
		<path d="M234.51,1.38c-0.31,0.88-0.72,1.76-1.16,2.61v8.11h-1.32V6.12c-0.22,0.29-0.43,0.55-0.65,0.8
			c-0.13-0.35-0.52-1.13-0.76-1.49c1.03-1.09,2.01-2.78,2.59-4.49L234.51,1.38z M241.93,10.69v1.2h-8.07v-1.2h1.03V4.05h2.07
			c0.05-0.25,0.1-0.53,0.14-0.82h-2.72V2.01h2.89c0.04-0.38,0.07-0.73,0.1-1.07l1.51,0.05c-0.05,0.34-0.12,0.67-0.18,1.02h2.95v1.22
			h-3.2c-0.07,0.3-0.13,0.56-0.2,0.82h2.77v6.64H241.93z M236.15,5.09v0.66h3.55V5.09H236.15z M239.7,6.73h-3.55v0.66h3.55V6.73z
			 M236.15,8.35v0.68h3.55V8.35H236.15z M236.15,10.69h3.55v-0.67h-3.55V10.69z"/>
	</g>
	<rect x="147.65" y="162.41" class="st2" width="10.24" height="10.24"/>
	<g>
		<path class="st3" d="M254.23,169.3v2.84c0,0.7-0.13,1.04-0.53,1.25c-0.4,0.23-0.97,0.26-1.8,0.26c-0.04-0.37-0.22-0.94-0.4-1.29
			c0.47,0.01,0.95,0.01,1.1,0.01s0.22-0.06,0.22-0.23v-2.48l-1.32,0.34l-0.23-1.39c0.44-0.1,0.97-0.2,1.55-0.34v-2.12h-1.42v-1.32
			h1.42v-2.27h1.4v2.27h1.3v1.32h-1.3v1.78l1.1-0.28l0.17,1.31L254.23,169.3z M259.87,169.12c0.52,1.47,1.4,2.71,2.7,3.35
			c-0.34,0.29-0.78,0.83-0.98,1.22c-1.22-0.72-2.06-1.91-2.65-3.38c-0.52,1.31-1.4,2.53-2.96,3.48c-0.2-0.34-0.71-0.9-1.02-1.15
			c1.6-0.95,2.41-2.21,2.82-3.51h-2.05v-1.36h2.36c0.08-0.62,0.11-1.25,0.11-1.82h-2.05v-1.36h2.05v-2.03h1.44v2.03h2.28v1.36h-2.28
			c0,0.58-0.02,1.2-0.08,1.82h2.73v1.36H259.87z"/>
		<path class="st3" d="M274.1,165.18c0,0-0.01,0.46-0.01,0.62c-0.05,4.87-0.1,6.58-0.43,7.1c-0.24,0.4-0.52,0.53-0.89,0.6
			c-0.36,0.06-0.89,0.06-1.45,0.05c-0.02-0.4-0.18-0.96-0.4-1.34c0.48,0.04,0.91,0.04,1.14,0.04c0.16,0.01,0.26-0.04,0.37-0.2
			c0.22-0.31,0.25-1.7,0.3-5.54h-1.21c-0.13,3.32-0.6,5.76-2.4,7.33c-0.2-0.34-0.68-0.85-0.98-1.07c0.22-0.18,0.4-0.37,0.56-0.59
			l-0.78,0.36c-0.02-0.14-0.05-0.31-0.1-0.47c-3.02,0.5-3.55,0.65-3.91,0.83c-0.07-0.29-0.31-0.97-0.49-1.34
			c0.35-0.11,0.64-0.46,1.09-1.06c0.3-0.35,0.92-1.33,1.58-2.53c-1.58,0.16-1.96,0.24-2.21,0.34v-0.02
			c-0.01,0.02-0.01,0.04-0.01,0.06c-0.07-0.3-0.3-1.01-0.47-1.38c0.24-0.08,0.44-0.35,0.7-0.8c0.24-0.41,0.98-2.09,1.34-3.63
			l1.48,0.55c-0.42,1.26-1.02,2.58-1.66,3.67l1.5-0.1c0.2-0.43,0.4-0.86,0.55-1.3l1.38,0.61c-0.84,1.83-1.92,3.62-3.01,5.1
			l1.74-0.26c-0.17-0.47-0.36-0.95-0.56-1.36l1.13-0.49c0.44,0.84,0.89,1.89,1.09,2.71c0.78-1.28,1.01-2.97,1.07-5.16h-1.43v-1.32
			h1.45c0-0.82,0-1.7,0-2.64h1.39c0,0.92,0,1.81-0.01,2.64H274.1z"/>
		<path class="st3" d="M280.68,170.96c0,0.42,0.06,1.01,0.11,1.34c-3.35,0.82-3.9,1-4.27,1.22c-0.11-0.34-0.44-0.92-0.66-1.17
			c0.25-0.17,0.6-0.53,0.6-1.1v-8.68h1.49v3.54h2.66v1.4h-2.66v4.07L280.68,170.96z M284.58,172.16c0.44,0,0.53-0.43,0.6-2.05
			c0.35,0.26,0.94,0.53,1.34,0.62c-0.16,2.04-0.53,2.81-1.81,2.81h-1.63c-1.39,0-1.79-0.49-1.79-2.18v-8.81h1.48v3.56h2.93v1.4
			h-2.93v3.87c0,0.68,0.06,0.78,0.52,0.78H284.58z"/>
	</g>
	<rect x="236.82" y="162.41" class="st3" width="10.24" height="10.24"/>
	<g>
		<line class="st7" x1="338" y1="135.11" x2="338" y2="139.35"/>
		<line class="st7" x1="306.53" y1="135.11" x2="306.53" y2="139.35"/>
		<line class="st7" x1="242.53" y1="135.11" x2="242.53" y2="139.35"/>
		<line class="st7" x1="179.24" y1="135.11" x2="179.24" y2="139.35"/>
		<line class="st7" x1="115.71" y1="135.11" x2="115.71" y2="139.35"/>
	</g>
	<g>
		<g>
			<path d="M0.59,55.19c0-2.35,0.66-4.29,1.76-6.08l0.68,0.31c-1.04,1.71-1.54,3.73-1.54,5.77s0.49,4.07,1.54,5.77l-0.68,0.32
				C1.25,59.48,0.59,57.55,0.59,55.19z"/>
			<path d="M4.01,52.72c0-1.76,0.79-2.76,1.99-2.76c1.21,0,2,1,2,2.76c0,1.78-0.79,2.79-2,2.79C4.8,55.51,4.01,54.5,4.01,52.72z
				 M7.17,52.72c0-1.4-0.48-2.09-1.18-2.09c-0.68,0-1.16,0.68-1.16,2.09S5.31,54.83,6,54.83C6.69,54.83,7.17,54.12,7.17,52.72z
				 M11.11,49.96h0.74l-4.86,9.11H6.26L11.11,49.96z M10.12,56.29c0-1.76,0.8-2.76,2-2.76s1.99,1,1.99,2.76
				c0,1.78-0.79,2.78-1.99,2.78S10.12,58.07,10.12,56.29z M13.29,56.29c0-1.4-0.48-2.09-1.16-2.09c-0.7,0-1.18,0.68-1.18,2.09
				s0.48,2.11,1.18,2.11C12.81,58.41,13.29,57.7,13.29,56.29z"/>
			<path d="M15.11,60.96c1.03-1.7,1.54-3.73,1.54-5.77s-0.5-4.05-1.54-5.77l0.67-0.31c1.12,1.79,1.77,3.73,1.77,6.08
				c0,2.36-0.66,4.29-1.77,6.09L15.11,60.96z"/>
		</g>
		<g>
			<path d="M6.54,18.11v3.31c0,0.5-0.11,0.74-0.42,0.88c-0.3,0.14-0.77,0.17-1.55,0.17c-0.04-0.23-0.16-0.59-0.28-0.83
				c0.52,0.02,1.02,0.01,1.15,0.01c0.17,0,0.23-0.06,0.23-0.23v-3.07l-1.46,0.43L4.03,17.9c0.47-0.11,1.03-0.26,1.64-0.43v-2.63
				h-1.5v-0.84h1.5v-2.4h0.86v2.4h1.39v0.84H6.54v2.4l1.32-0.38l0.11,0.82L6.54,18.11z M12.03,17.84c0.55,1.76,1.55,3.23,2.99,3.93
				c-0.2,0.18-0.48,0.52-0.61,0.76c-1.39-0.79-2.36-2.22-2.97-3.98c-0.47,1.49-1.4,2.9-3.3,4.04c-0.12-0.22-0.42-0.54-0.62-0.71
				c1.91-1.12,2.78-2.57,3.17-4.04H8.3v-0.85h2.54c0.11-0.68,0.13-1.36,0.13-1.99v-0.29H8.76v-0.85h2.22v-2.25h0.89v2.25h2.51v0.85
				h-2.51V15c0,0.64-0.02,1.32-0.11,1.99h3v0.85H12.03z"/>
			<path d="M11.9,27.95c0.77,0.85,1.94,1.57,3.12,1.93c-0.19,0.17-0.43,0.49-0.56,0.7c-1.35-0.49-2.66-1.49-3.48-2.63H8.04
				c-0.43,0.59-0.97,1.12-1.56,1.58h6.06v2.78H7.16v1.14l2.03-0.47c0,0.22,0.02,0.52,0.04,0.68c-2.51,0.65-2.85,0.75-3.07,0.9
				c-0.06-0.2-0.23-0.58-0.38-0.76c0.19-0.08,0.46-0.29,0.46-0.77v-3.31c-0.55,0.4-1.13,0.73-1.71,1.02
				c-0.12-0.17-0.42-0.49-0.61-0.65c1.18-0.49,2.33-1.25,3.09-2.16H4.21V27.3H9v-0.64H5.55v-0.6H9v-0.59H4.9v-0.63h2.23
				c-0.18-0.31-0.42-0.68-0.64-0.96l0.78-0.28c0.32,0.38,0.67,0.91,0.84,1.24h2.76c0.24-0.36,0.55-0.89,0.71-1.26l0.94,0.24
				c-0.23,0.36-0.48,0.72-0.71,1.02h2.23v0.63H9.9v0.59h3.49v0.6H9.9v0.64h4.83v0.65H11.9z M7.16,30.1v0.56h4.5V30.1H7.16z
				 M11.66,31.75v-0.59h-4.5v0.59H11.66z M7.74,28.99v-0.53h3.45v0.53H7.74z M14.23,32.34c-0.56,0.32-1.27,0.66-1.91,0.91
				c0.73,0.26,1.4,0.52,1.88,0.71l-0.36,0.64c-1.07-0.46-3.17-1.21-4.71-1.7l0.36-0.54c0.61,0.18,1.32,0.4,2.03,0.64
				c0.73-0.34,1.6-0.78,2.14-1.13L14.23,32.34z"/>
			<path d="M9.22,44.1c0,0.25,0.05,0.62,0.08,0.83c-3.43,0.92-3.87,1.07-4.16,1.26c-0.07-0.22-0.28-0.59-0.42-0.76
				c0.18-0.13,0.47-0.4,0.47-0.9v-8.92H6.1v3.68h3.05v0.88H6.1v4.7L9.22,44.1z M13.43,45.43c0.56,0,0.64-0.44,0.72-2.16
				c0.22,0.18,0.58,0.34,0.83,0.38c-0.12,1.96-0.36,2.63-1.49,2.63h-2.02c-1.16,0-1.48-0.35-1.48-1.64v-9.04h0.9v3.69h3.23v0.88
				h-3.23v4.49c0,0.66,0.11,0.78,0.67,0.78H13.43z"/>
		</g>
	</g>
	<g>
		<g>
			<line class="st7" x1="190.06" y1="0" x2="190.06" y2="2"/>
			<line class="st8" x1="190.06" y1="6.08" x2="190.06" y2="134.49"/>
			<line class="st7" x1="190.06" y1="136.53" x2="190.06" y2="138.53"/>
		</g>
	</g>
	<polygon class="st9" points="61.52,23.03 62.75,27.28 63.98,31.53 61.52,31.53 59.07,31.53 60.29,27.28 	"/>
	<polygon class="st9" points="171.59,103.53 172.97,107.78 174.35,112.03 171.59,112.03 168.83,112.03 170.21,107.78 	"/>
	<circle class="st10" cx="190.06" cy="100.53" r="4.29"/>
	<circle class="st11" cx="190.06" cy="119.29" r="4.29"/>
	<circle class="st12" cx="190.06" cy="121.11" r="4.29"/>
	<g>
		<path class="st1" d="M225.94,81.47h-27.18c-1.57,0-2.83-1.27-2.83-2.83v-9.86c0-1.57,1.27-2.83,2.83-2.83h27.18
			c1.57,0,2.83,1.27,2.83,2.83v9.86C228.77,80.2,227.5,81.47,225.94,81.47z"/>
		<g>
			<path class="st13" d="M201.04,77.23l0.55-0.72c0.52,0.54,1.19,1.01,2.18,1.01c1.04,0,1.79-0.62,1.79-1.63
				c0-1.05-0.71-1.76-2.73-1.76v-0.84c1.81,0,2.43-0.73,2.43-1.68c0-0.85-0.58-1.39-1.49-1.42c-0.71,0.02-1.33,0.38-1.82,0.88
				l-0.59-0.7c0.66-0.61,1.44-1.05,2.46-1.05c1.48,0,2.55,0.79,2.55,2.21c0,1.07-0.64,1.78-1.57,2.12v0.05
				c1.04,0.24,1.87,1.03,1.87,2.23c0,1.57-1.26,2.51-2.82,2.51C202.48,78.43,201.61,77.85,201.04,77.23z"/>
			<path class="st13" d="M212.19,70.42h-4.26v-0.94h5.5v0.66c-2.06,2.65-2.45,4.69-2.58,8.13h-1.14
				C209.87,74.94,210.48,72.82,212.19,70.42z"/>
			<path class="st13" d="M214.88,77.6c0-0.49,0.36-0.85,0.79-0.85s0.79,0.36,0.79,0.85s-0.36,0.83-0.79,0.83
				S214.88,78.09,214.88,77.6z"/>
			<path class="st13" d="M218.64,76.84c0.37,0.42,0.91,0.67,1.48,0.67c1.14,0,2.12-0.94,2.21-3.67c-0.53,0.66-1.28,1.09-2.03,1.09
				c-1.46,0-2.42-0.95-2.42-2.77c0-1.7,1.15-2.85,2.52-2.85c1.69,0,2.95,1.39,2.95,4.19c0,3.56-1.54,4.93-3.19,4.93
				c-0.95,0-1.62-0.38-2.11-0.9L218.64,76.84z M222.31,72.95c-0.12-1.81-0.79-2.77-1.92-2.77c-0.84,0-1.49,0.79-1.49,1.99
				c0,1.19,0.53,1.95,1.57,1.95C221.06,74.12,221.72,73.79,222.31,72.95z"/>
		</g>
		<polygon class="st1" points="198.18,79.35 191.59,96.52 202.06,80.41 		"/>
	</g>
	<g>
		<path class="st2" d="M261.28,117.63H234.1c-1.57,0-2.83-1.27-2.83-2.83v-9.86c0-1.57,1.27-2.83,2.83-2.83h27.18
			c1.57,0,2.83,1.27,2.83,2.83v9.86C264.12,116.37,262.85,117.63,261.28,117.63z"/>
		<g>
			<path class="st13" d="M236.56,113.79c2.76-2.41,4.03-4.16,4.03-5.67c0-1.01-0.53-1.74-1.62-1.74c-0.72,0-1.34,0.44-1.82,1.02
				l-0.64-0.62c0.72-0.78,1.48-1.29,2.59-1.29c1.57,0,2.55,1.03,2.55,2.6c0,1.75-1.38,3.54-3.44,5.49c0.46-0.04,1-0.08,1.44-0.08
				h2.43v0.95h-5.53V113.79z"/>
			<path class="st13" d="M243.28,110.01c0-3.06,1.07-4.53,2.75-4.53c1.67,0,2.73,1.49,2.73,4.53c0,3.06-1.07,4.58-2.73,4.58
				C244.35,114.59,243.28,113.07,243.28,110.01z M247.69,110.01c0-2.57-0.67-3.65-1.67-3.65c-1.01,0-1.68,1.08-1.68,3.65
				c0,2.59,0.67,3.71,1.68,3.71C247.02,113.72,247.69,112.6,247.69,110.01z"/>
			<path class="st13" d="M250.23,113.77c0-0.49,0.36-0.85,0.79-0.85s0.79,0.36,0.79,0.85s-0.36,0.83-0.79,0.83
				S250.23,114.26,250.23,113.77z"/>
			<path class="st13" d="M253.75,113.53h1.95v-6.56h-1.56v-0.7c0.78-0.14,1.34-0.35,1.82-0.62h0.84v7.88h1.76v0.91h-4.82V113.53z"/>
		</g>
		<polygon class="st2" points="232.53,111.72 194.35,118.44 233.59,114.44 		"/>
	</g>
	<g>
		<path class="st3" d="M234.11,140.89h-27.18c-1.57,0-2.83-1.27-2.83-2.83v-9.86c0-1.57,1.27-2.83,2.83-2.83h27.18
			c1.57,0,2.83,1.27,2.83,2.83v9.86C236.94,139.62,235.67,140.89,234.11,140.89z"/>
		<g>
			<path class="st13" d="M209.91,136.78h1.96v-6.56h-1.56v-0.7c0.78-0.14,1.34-0.35,1.82-0.62h0.84v7.88h1.76v0.91h-4.82V136.78z"/>
			<path class="st13" d="M220.36,129.84h-4.26v-0.94h5.5v0.66c-2.06,2.65-2.45,4.69-2.58,8.13h-1.14
				C218.04,134.36,218.65,132.23,220.36,129.84z"/>
			<path class="st13" d="M223.05,137.02c0-0.49,0.36-0.85,0.79-0.85s0.79,0.36,0.79,0.85c0,0.49-0.36,0.83-0.79,0.83
				S223.05,137.51,223.05,137.02z"/>
			<path class="st13" d="M226.05,135.51c0-1.18,0.82-1.99,1.62-2.42v-0.06c-0.65-0.44-1.19-1.1-1.19-2.03
				c0-1.34,1.03-2.23,2.41-2.23c1.5,0,2.41,0.96,2.41,2.31c0,0.92-0.65,1.71-1.18,2.12v0.06c0.77,0.44,1.49,1.1,1.49,2.3
				c0,1.28-1.1,2.28-2.76,2.28C227.24,137.85,226.05,136.86,226.05,135.51z M230.57,135.54c0-1.17-1.08-1.62-2.33-2.12
				c-0.71,0.46-1.2,1.15-1.2,1.99c0,0.94,0.78,1.62,1.83,1.62C229.89,137.03,230.57,136.42,230.57,135.54z M230.37,131.14
				c0-0.86-0.55-1.57-1.5-1.57c-0.8,0-1.39,0.58-1.39,1.43c0,1.06,0.95,1.51,1.98,1.92C230.06,132.39,230.37,131.79,230.37,131.14z"
				/>
		</g>
		<polygon class="st3" points="205.35,132.64 193.57,123.59 206.41,137.69 		"/>
	</g>
</g>
<g>
	<polyline class="st0" points="51.94,233.78 51.94,355.9 341.35,355.9 	"/>
	<text transform="matrix(1 0 0 1 19.9618 257.8439)" style="font-family:'SourceHanSansTW-Regular-B5pc-H'; font-size:12px;">100</text>
	<text transform="matrix(1 0 0 1 19.9618 237.5746)" style="font-family:'SourceHanSansTW-Regular-B5pc-H'; font-size:12px;">120</text>
	<text transform="matrix(1 0 0 1 33.2811 359.1921)" style="font-family:'SourceHanSansTW-Regular-B5pc-H'; font-size:12px;">0</text>
	<text transform="matrix(1 0 0 1 26.6215 338.9225)" style="font-family:'SourceHanSansTW-Regular-B5pc-H'; font-size:12px;">20</text>
	<text transform="matrix(1 0 0 1 26.6215 318.653)" style="font-family:'SourceHanSansTW-Regular-B5pc-H'; font-size:12px;">40</text>
	<text transform="matrix(1 0 0 1 26.6215 298.3835)" style="font-family:'SourceHanSansTW-Regular-B5pc-H'; font-size:12px;">60</text>
	<text transform="matrix(1 0 0 1 26.6215 278.114)" style="font-family:'SourceHanSansTW-Regular-B5pc-H'; font-size:12px;">80</text>
	<text transform="matrix(1 0 0 1 41.1839 369.0744)" style="font-family:'SourceHanSansTW-Regular-B5pc-H'; font-size:12px;">1975</text>
	<text transform="matrix(1 0 0 1 103.0662 369.0744)" style="font-family:'SourceHanSansTW-Regular-B5pc-H'; font-size:12px;">1995</text>
	<text transform="matrix(1 0 0 1 164.9486 369.0744)" style="font-family:'SourceHanSansTW-Regular-B5pc-H'; font-size:12px;">2015</text>
	<text transform="matrix(1 0 0 1 229.4192 369.0744)" style="font-family:'SourceHanSansTW-Regular-B5pc-H'; font-size:12px;">2035</text>
	<text transform="matrix(1 0 0 1 292.2427 369.0744)" style="font-family:'SourceHanSansTW-Regular-B5pc-H'; font-size:12px;">2055</text>
	<text transform="matrix(1 0 0 1 324.2427 369.0744)" style="font-family:'SourceHanSansTW-Regular-B5pc-H'; font-size:12px;">2065</text>
	<text transform="matrix(1 0 0 1 354.5882 369.0746)" style="font-family:'SourceHanSansTW-Regular-B5pc-H'; font-size:9px;">年</text>
	
		<text transform="matrix(1 0 0 1 54.059 290.2509)" class="st1" style="font-family:'SourceHanSansTW-Regular-B5pc-H'; font-size:12px;">63.6</text>
	
		<text transform="matrix(1 0 0 1 342.9413 256.4274)" class="st1" style="font-family:'SourceHanSansTW-Regular-B5pc-H'; font-size:12px;">101.4</text>
	
		<text transform="matrix(1 0 0 1 342.9413 276.6627)" class="st2" style="font-family:'SourceHanSansTW-Regular-B5pc-H'; font-size:12px;">82.9</text>
	
		<text transform="matrix(1 0 0 1 342.9413 341.3686)" class="st3" style="font-family:'SourceHanSansTW-Regular-B5pc-H'; font-size:12px;">18.4</text>
	
		<text transform="matrix(1 0 0 1 66.1766 389.2509)" class="st1" style="font-family:'SourceHanSansTW-Bold-B5pc-H'; font-size:12px;">總扶養比</text>
	
		<text transform="matrix(1 0 0 1 54.059 317.0743)" class="st3" style="font-family:'SourceHanSansTW-Regular-B5pc-H'; font-size:12px;">57.9</text>
	
		<text transform="matrix(1 0 0 1 54.059 346.0155)" class="st2" style="font-family:'SourceHanSansTW-Regular-B5pc-H'; font-size:12px;">5.7</text>
	<g>
		<text transform="matrix(1 0 0 1 66.8825 248.0744)" style="font-family:'SourceHanSansTW-Bold-B5pc-H'; font-size:12px;">最低點2012年34.7%</text>
	</g>
	<polyline class="st4" points="54.06,291.49 73.29,299.07 79.29,300.13 94.47,304.02 102.76,305.78 114.94,308.43 129.94,312.84 
		139.12,312.84 161.35,317.96 166.65,320.07 180.94,320.07 190.12,317.25 266.18,284.25 288.24,271.72 302,267.49 332,255.13 
		338,253.54 	"/>
	<polyline class="st5" points="54.06,296.96 70.47,305.25 79.12,307.19 89,310.54 98.53,313.9 107.71,317.43 110.35,317.43 
		120.06,321.66 131,325.19 141.76,326.6 167.18,334.72 175.65,336.49 189.94,337.54 303.41,338.6 338,336.84 	"/>
	<polyline class="st6" points="54.06,350.07 103.12,346.54 129.76,343.9 153.24,341.07 175.82,340.37 190.47,335.43 246.94,310.02 
		261.59,303.66 290,288.31 329,274.37 334.65,273.13 338,272.25 	"/>
	<rect x="52.12" y="378.96" class="st1" width="10.24" height="10.24"/>
	
		<text transform="matrix(1 0 0 1 161.7061 389.2509)" class="st2" style="font-family:'SourceHanSansTW-Bold-B5pc-H'; font-size:12px;">扶老比</text>
	<text transform="matrix(1 0 0 1 194.3531 227.6216)" style="font-family:'SourceHanSansTW-Bold-B5pc-H'; font-size:12px;">中推估值</text>
	<rect x="147.65" y="378.96" class="st2" width="10.24" height="10.24"/>
	
		<text transform="matrix(1 0 0 1 250.8825 389.2509)" class="st3" style="font-family:'SourceHanSansTW-Bold-B5pc-H'; font-size:12px;">扶幼比</text>
	<rect x="236.82" y="378.96" class="st3" width="10.24" height="10.24"/>
	<g>
		<line class="st7" x1="338" y1="351.66" x2="338" y2="355.9"/>
		<line class="st7" x1="306.53" y1="351.66" x2="306.53" y2="355.9"/>
		<line class="st7" x1="242.53" y1="351.66" x2="242.53" y2="355.9"/>
		<line class="st7" x1="179.24" y1="351.66" x2="179.24" y2="355.9"/>
		<line class="st7" x1="115.71" y1="351.66" x2="115.71" y2="355.9"/>
	</g>
	<g>
		<text transform="matrix(1 0 0 1 -0.5169 275.4687)" style="font-family:'SourceHanSansTW-Regular-B5pc-H'; font-size:12px;">(%)</text>
		
			<text transform="matrix(1 0 0 1 9.4705 227.6215)" style="font-family:'SourceHanSansTW-Regular-B5pc-H'; font-size:12px;glyph-orientation-vertical:0;writing-mode:tb;">扶養比</text>
	</g>
	<g>
		<g>
			<line class="st7" x1="190.06" y1="216.55" x2="190.06" y2="218.55"/>
			<line class="st8" x1="190.06" y1="222.62" x2="190.06" y2="351.04"/>
			<line class="st7" x1="190.06" y1="353.07" x2="190.06" y2="355.07"/>
		</g>
	</g>
	<polygon class="st9" points="61.52,239.57 62.75,243.82 63.98,248.07 61.52,248.07 59.07,248.07 60.29,243.82 	"/>
	<polygon class="st9" points="171.59,320.07 172.97,324.32 174.35,328.57 171.59,328.57 168.83,328.57 170.21,324.32 	"/>
	<circle class="st10" cx="190.06" cy="317.07" r="4.29"/>
	<circle class="st11" cx="190.06" cy="335.84" r="4.29"/>
	<circle class="st12" cx="190.06" cy="337.66" r="4.29"/>
	<g>
		<path class="st1" d="M225.94,298.02h-27.18c-1.57,0-2.83-1.27-2.83-2.83v-9.86c0-1.57,1.27-2.83,2.83-2.83h27.18
			c1.57,0,2.83,1.27,2.83,2.83v9.86C228.77,296.75,227.5,298.02,225.94,298.02z"/>
		
			<text transform="matrix(1 0 0 1 200.6878 294.8203)" class="st13" style="font-family:'SourceHanSansTW-Regular-B5pc-H'; font-size:12px;">37.9</text>
		<polygon class="st1" points="198.18,295.9 191.59,313.07 202.06,296.96 		"/>
	</g>
	<g>
		<path class="st2" d="M261.28,334.18H234.1c-1.57,0-2.83-1.27-2.83-2.83v-9.86c0-1.57,1.27-2.83,2.83-2.83h27.18
			c1.57,0,2.83,1.27,2.83,2.83v9.86C264.12,332.91,262.85,334.18,261.28,334.18z"/>
		
			<text transform="matrix(1 0 0 1 236.0335 330.9871)" class="st13" style="font-family:'SourceHanSansTW-Regular-B5pc-H'; font-size:12px;">20.1</text>
		<polygon class="st2" points="232.53,328.27 194.35,334.99 233.59,330.99 		"/>
	</g>
	<g>
		<path class="st3" d="M234.11,357.43h-27.18c-1.57,0-2.83-1.27-2.83-2.83v-9.86c0-1.57,1.27-2.83,2.83-2.83h27.18
			c1.57,0,2.83,1.27,2.83,2.83v9.86C236.94,356.17,235.67,357.43,234.11,357.43z"/>
		
			<text transform="matrix(1 0 0 1 208.8569 354.2393)" class="st13" style="font-family:'SourceHanSansTW-Regular-B5pc-H'; font-size:12px;">17.8</text>
		<polygon class="st3" points="205.35,349.19 193.57,340.13 206.41,354.24 		"/>
	</g>
</g>
</svg>
