<?xml version="1.0" encoding="utf-8"?>
<!-- Generator: Adobe Illustrator 23.0.2, SVG Export Plug-In . SVG Version: 6.00 Build 0)  -->
<svg version="1.1" id="圖層_3" xmlns="http://www.w3.org/2000/svg" xmlns:xlink="http://www.w3.org/1999/xlink" x="0px" y="0px"
	 viewBox="0 0 192.13 262.1" style="enable-background:new 0 0 192.13 262.1;" xml:space="preserve">
<style type="text/css">
	.st0{opacity:0.3;}
	.st1{fill:#6A3906;}
	.st2{fill:#452A24;}
	.st3{fill:url(#SVGID_1_);}
	.st4{fill:url(#SVGID_2_);}
	.st5{fill:#001AB3;}
	.st6{fill:#231815;}
	.st7{fill:#003CBE;}
	.st8{fill:#000040;}
	.st9{fill:#D2D2CB;}
	.st10{fill:#995C1F;}
	.st11{opacity:0.51;fill:#5E2A01;}
	.st12{fill:#211613;}
	.st13{fill:#FFFFFF;}
	.st14{fill:#40210F;}
	.st15{fill:#5E2A01;}
	.st16{fill:#9E9E9F;}
	.st17{fill:url(#SVGID_3_);}
	.st18{opacity:0.8;fill:#3E3A39;}
	.st19{fill:#003C69;}
	.st20{fill:#717071;}
	.st21{fill:url(#SVGID_4_);}
	.st22{fill:#7393DB;}
	.st23{fill:#A85E00;}
	.st24{fill:#ECAE32;}
	.st25{fill:#FFCEA1;}
	.st26{fill:#B4B4B5;}
	.st27{opacity:0.36;fill:#717071;}
	.st28{fill:#FFDCBC;}
	.st29{fill:#EEEEEF;}
	.st30{fill:#C89B6C;}
	.st31{opacity:0.49;fill:#FFCEA1;}
	.st32{fill:#815934;}
	.st33{fill:#603620;}
	.st34{fill:#B28146;}
	.st35{opacity:0.27;fill:#C8BB9B;}
	.st36{fill:#3E3A39;}
	.st37{fill:#C8C9CA;}
	.st38{opacity:0.83;fill:#717071;}
	.st39{opacity:0.36;fill:#5D5C5D;}
	.st40{fill:#5B5A5B;}
	.st41{fill:#4D4B4B;}
	.st42{fill:#DBDCDC;}
	.st43{fill:#1B1716;}
	.st44{opacity:0.4;fill:url(#SVGID_5_);}
	.st45{opacity:0.4;fill:url(#SVGID_6_);}
	.st46{opacity:0.4;fill:url(#SVGID_7_);}
	.st47{opacity:0.75;fill:url(#SVGID_8_);}
	.st48{opacity:0.75;fill:url(#SVGID_9_);}
	.st49{fill:url(#SVGID_10_);}
	.st50{fill:#FFCB43;}
	.st51{fill:#2A170F;}
	.st52{fill:#523B35;}
	.st53{opacity:0.22;fill:#FFFFFF;}
	.st54{fill:#F1CCA7;}
	.st55{fill:url(#SVGID_11_);}
	.st56{fill:#E68F87;}
</style>
<path class="st0" d="M48.13,225.61C71.69,227,33.35,233,41.67,239s31.41,5.54,41.57,5.54s30.02-0.46,30.02-0.46l17.5,1.23l0.98,3.39
	l-28.17,12.47l10.62,0.92l73.89-31.87v-25.86l-4.16-4.16c0,0-8.78-5.08-12.01-4.62c-3.23,0.46-26.79,3.23-31.87,3.23
	S48.13,225.61,48.13,225.61z"/>
<path class="st1" d="M36.85,229.29c0,0,0-159.43,0-163.51S32.99,0,114.47,0s77.63,65.79,77.63,65.79v163.51
	C192.1,229.29,36.85,228.78,36.85,229.29z"/>
<path class="st2" d="M114.11,6.93C39.79,7.08,43.43,65.37,43.44,69.36c0.01,3.91,0.33,154.39,0.34,159.8
	c26.39-0.25,113.8-0.2,141.6-0.17l-0.34-159.92C185.04,69.06,188.42,6.77,114.11,6.93z"/>
<radialGradient id="SVGID_1_" cx="111.7834" cy="118.1962" r="92.2712" gradientUnits="userSpaceOnUse">
	<stop  offset="5.319149e-03" style="stop-color:#FCF2E1"/>
	<stop  offset="0.1939" style="stop-color:#FCF0DE"/>
	<stop  offset="0.3436" style="stop-color:#FAEBD4"/>
	<stop  offset="0.4799" style="stop-color:#F8E2C3"/>
	<stop  offset="0.6083" style="stop-color:#F5D5AC"/>
	<stop  offset="0.7311" style="stop-color:#F0C58D"/>
	<stop  offset="0.8498" style="stop-color:#EBB168"/>
	<stop  offset="0.963" style="stop-color:#E59A3C"/>
	<stop  offset="1" style="stop-color:#E3912C"/>
</radialGradient>
<path class="st3" d="M111.5,7.25C39.59,7.4,43.12,65.61,43.12,69.59c0.01,3.91,0.33,154.16,0.34,159.56
	c25.54-0.25,110.11-0.19,137.01-0.16L180.14,69.3C180.14,69.3,183.41,7.1,111.5,7.25z"/>
<radialGradient id="SVGID_2_" cx="117.2726" cy="45.0068" r="92.2712" gradientTransform="matrix(1 0 0 1.5638 0 -25.3747)" gradientUnits="userSpaceOnUse">
	<stop  offset="5.319149e-03" style="stop-color:#FFCA4C"/>
	<stop  offset="0.2792" style="stop-color:#FEC74B"/>
	<stop  offset="0.4964" style="stop-color:#FABD46"/>
	<stop  offset="0.6941" style="stop-color:#F4AC3F"/>
	<stop  offset="0.8792" style="stop-color:#EB9535"/>
	<stop  offset="1" style="stop-color:#E3812C"/>
</radialGradient>
<path class="st4" d="M111.5,7.25C39.59,7.4,43.12,65.61,43.12,69.59c0.01,3.91,0.33,154.16,0.34,159.56
	c25.54-0.25,110.11-0.19,137.01-0.16L180.14,69.3C180.14,69.3,183.41,7.1,111.5,7.25z"/>
<rect x="43.4" y="223.66" class="st2" width="141.65" height="5.34"/>
<path class="st5" d="M43.5,164.15c0,0,0.6,1.17,0.47,2.18c-0.13,1.01-0.4,1.93-0.4,1.93s1.18-1.06,1.37-1.96
	c0.2-0.9,0.23-2.1,0.23-2.1l1.29,0.9l-1.15-1.49l-1.15-2.77l-1.08,1.49L43.5,164.15z"/>
<path class="st6" d="M126.33,208.66c-0.04-0.82-0.62-1.52-1.42-1.7l-1.41-0.32c-0.25-0.2-0.58-0.39-0.97-0.48l-0.14-0.03
	c-0.07-0.04-0.15-0.09-0.23-0.14c-0.14-0.08-0.29-0.17-0.47-0.26c-0.69-0.37-1.39-0.67-2.08-0.9c-0.77-0.26-1.51-0.41-2.2-0.47
	c-0.71-0.05-1.38-0.23-1.95-0.52c-0.03-0.02-0.13-0.07-0.16-0.09c-0.21-0.11-0.42-0.24-0.64-0.39c-0.67-0.47-1.21-1.04-1.63-1.59
	c0.01-0.01,0.01-0.02,0.02-0.03c0.45-0.42,0.66-1.04,0.55-1.64l-1.01-5.93c-0.01-0.08-0.03-0.15-0.05-0.22l-0.06-0.21
	c2.66-0.52,4.55-1.07,5.72-1.68c0.07-0.03,0.13-0.07,0.2-0.11c0.31-0.17,0.57-0.35,0.82-0.56c0.03-0.03,0.06-0.06,0.09-0.09
	c0.71-0.5,2.16-1.63,1.84-3.36c-0.01-0.36-0.03-1.17-0.12-2.33c0-0.04,0-0.08,0-0.12c0-0.14-0.02-0.27-0.05-0.41
	c-0.02-0.19-0.03-0.38-0.05-0.58l-0.7-5.36c1.98-3.08,6.18-10.54,1.31-19.01c-10.03-17.44-20.2-22.33-27.02-23.35
	c-1.66-0.49-2.89-0.63-2.95-0.63c-0.52-0.06-1.04,0.11-1.42,0.46c-0.32,0.02-0.63,0.05-0.93,0.09l-0.66-1.89
	c-0.24-0.68-0.84-1.15-1.55-1.22l-8.95-0.85c-0.33-0.03-0.66,0.03-0.96,0.17c-0.3,0.14-7.25,3.46-12.9,7.38l-3.08-0.06
	c-0.15-0.01-0.3-0.02-0.47-0.01l-2.92-0.06c-0.63-0.02-1.22,0.3-1.56,0.82l-1.09,1.65c-1.29,0.81-2.29,1.53-2.33,1.56
	c-0.27,0.2-0.48,0.46-0.61,0.77L52,145.26c-2.29,1.7-3.99,4.79-5.65,7.78c-0.77,1.4-1.51,2.73-2.23,3.79
	c-3.08,4.49-3.37,8.56-3.39,9.58c-0.46,2.35-2.11,12.06,1.17,16.06c0.9,1.1,2.1,1.72,3.49,1.81c0.31,6.34,1.48,11.66,3.48,15.83
	c0.22,0.45,0.61,0.8,1.09,0.95c3.46,1.1,6.85,1.16,7,1.16c0.01,0,0.02,0,0.03,0c0.17,0,0.33-0.02,0.48-0.06
	c0.22-0.03,0.41-0.09,0.58-0.16l1.02,4.85c0.1,0.46,0.36,0.86,0.75,1.13l5.36,3.73l0.08,0.19c0.07,0.17,0.16,0.33,0.27,0.48
	c0.14,0.17,0.49,0.74,0.54,1.1c0.25,1.86,0.83,5.28,2.07,8.79c-0.68,0.33-1.3,0.61-1.84,0.84c-0.08,0.02-0.16,0.05-0.24,0.08
	l-1.02,0.44c-0.35-0.02-1.03-0.15-1.69-0.28c-1.32-0.26-2.97-0.57-4.61-0.57c-1.58,0-2.85,0.29-3.91,0.9
	c-1.67,0.96-2.83,2.56-3.34,4.62c-0.19,0.65-0.46,1.94-0.21,3.47c0.1,0.79,0.29,1.52,0.56,2.09l0.37,0.81
	c-0.04,0.1-0.07,0.2-0.09,0.31c-0.1,0.45-0.15,1.34,0.63,2.29c1.19,1.43,6.47,1.76,8.23,1.76c0.82,0,1.64-0.04,2.42-0.11
	c4.5-0.43,12.79-2.31,14.22-2.91c0.54-0.23,1.45-0.6,2.25-0.93l0.5,1.06c0.33,0.7,1.06,1.12,1.83,1.05l11.37-1.07
	c0.89-0.08,1.59-0.8,1.65-1.69l0.19-2.62l0.09-0.89c0.01-0.13,0.01-0.26,0-0.39l-0.06-0.5c-0.03-0.44-0.08-1.08-0.15-1.82
	l-0.07-0.69c-0.05-0.48-0.11-0.98-0.19-1.52c-0.03-0.24-0.07-0.48-0.13-0.8c-0.08-0.48-0.17-0.95-0.27-1.36l-0.03-0.11
	c-0.05-0.22-0.11-0.43-0.19-0.69c-0.06-0.2-0.13-0.38-0.18-0.53c-0.01-0.02-0.03-0.09-0.04-0.11c-0.09-0.21-0.18-0.4-0.27-0.56
	c-0.01-0.02-0.06-0.1-0.07-0.12c-0.05-0.08-0.11-0.17-0.19-0.27c-0.07-0.16-0.13-0.32-0.19-0.48l-0.08-0.23
	c-0.06-0.17-0.11-0.34-0.16-0.52l-0.07-0.29c-0.04-0.18-0.08-0.37-0.12-0.55l-0.05-0.28c-0.04-0.24-0.07-0.48-0.1-0.72l-0.02-0.14
	c-0.03-0.3-0.05-0.59-0.07-0.89l-0.01-0.26c-0.01-0.22-0.02-0.44-0.02-0.65l0-0.3l1.95,0.3c0.1,0.02,0.21,0.03,0.31,0.02
	c1.54,0.9,4.19,2.42,6.45,3.57c1.06,0.54,2.42,1.01,3.45,1.33c-0.2,0.84-0.62,2.19-1.53,4.17c-1.46,3.16-1.56,6.53-0.29,9.25
	c1.11,2.36,3.15,4.03,5.92,4.84c0.07,0.03,0.14,0.05,0.21,0.07c0,0,0.01,0,0.01,0c0.15,0.04,0.3,0.08,0.46,0.12
	c0.18,0.04,0.35,0.08,0.55,0.12l0.27,0.05c0.1,0.01,0.2,0.03,0.31,0.04c0.04,0,0.08,0.01,0.12,0.01c0.59,0.59,1.43,0.89,2.21,0.92
	c0.09,0.01,0.23,0.02,0.43,0.02h0c0.64,0,1.72-0.09,3.2-0.52c3.7-1.06,6.42-4.16,7.29-8.29c0.72-3.45,0.78-6.56,0.19-9.78
	c-0.21-1.16-0.4-2.23-0.55-3.1l0.46-0.51c0.02-0.03,0.05-0.05,0.07-0.08c0.09-0.11,0.86-1.1,1.51-3.02
	c0.01-0.04,0.03-0.08,0.04-0.13C126.51,212.87,126.33,208.83,126.33,208.66z M121.6,207.8L121.6,207.8L121.6,207.8L121.6,207.8z"/>
<path class="st7" d="M42.56,166.6c0,0-4.07,20.17,6.12,15.05c8.82-4.43,15.63-10.76,11.59-18.44c-1.98-3.77-1.3-16.6-3.39-17.25
	c-5.12-1.58-8.05,7.25-11.24,11.9C42.43,162.51,42.56,166.6,42.56,166.6z"/>
<path class="st8" d="M51.76,196.33c0,0,60.65-1.61,66.21-6.3c5.56-4.69-21.51-29.07-21.51-29.07l-3.26-11.69l-40.66,20.51
	l-1.16,26.52"/>
<path class="st8" d="M51.76,196.33c0,0,60.65-1.61,66.21-6.3c5.56-4.69-21.51-29.07-21.51-29.07l-3.26-11.69l-42.23,12.96
	l0.41,34.07"/>
<path class="st9" d="M76.92,205.39c0,0,0.66,3.35-0.08,4.47c-0.7,1.06-2.41,0.99-5.61,0.73c-1.88-0.15-3.98-0.81-3.98-0.81
	l-1.71-2.18l1.42,3.64c0,0,2.61,1.02,3.66,1.3c1.05,0.28,6.96,0.23,7.35,0.2c0.39-0.03,2.29-0.56,2.51-0.53
	c0.22,0.03,0.55,0.03,0.64-0.25c0.08-0.28-2.46-4.1-2.46-4.1L76.92,205.39z"/>
<path class="st10" d="M66.96,211.25c0,0,0.79,0.98,0.92,2c0.29,2.15,0.99,6.11,2.54,9.9c-1.94,1.09-3.77,1.8-4.89,2.26
	c-1.12,0.46-6.75-1.88-9.8-0.13c-3.04,1.74-3.07,6.04-2.24,7.83c0.84,1.8,0.84,1.8,0.84,1.8s6.12,2.86,18.22-0.36
	c12.1-3.22,16.46-3.39,18.78-3.58c2.32-0.19,2.32-0.19,2.32-0.19s-0.4-7.25-1.56-8.32c-2.32-4.71-0.49-12.79-0.49-12.79
	s-6.39,2.62-16.26,2.39C69.46,212.14,66.96,211.25,66.96,211.25z"/>
<path class="st11" d="M65.36,225.5c0,0,2.92,0.88,4.83,0.98c-3.45-0.93-3.41-1.59-3.41-1.59L65.36,225.5z"/>
<path class="st11" d="M93.41,228.42l0.05-0.02c-0.22-2.22-0.65-5.27-1.37-5.93c-1.88-3.81-1.04-9.83-0.65-11.99l-0.1-0.01
	c0,0-6.22,1.6-10.11,2.05c-3.9,0.46-10.94,0.3-10.94,0.3s8.04,0.99,9.62,1.67c1.58,0.68,1.74,4.18,1.08,6.61
	c-0.66,2.43-0.66,2.81-3.23,2.89c-2.57,0.08-5.72,0.15-5.72,0.15s0,0,1.91,0.46c1.91,0.46,2.94-0.57,4.23,0.46
	c2.49,1.97-2.24,4.86-4.73,6.55c-6.31,4.29-16.5,2.94-17.9,2.48c-1.4-0.46-2.55-2.26-2.17-5.62c0,0-0.9,2.06,0.11,4.51
	c1.01,2.45,0.85,1.95,0.85,1.95s3.38,1.97,12.3,0.44c8.92-1.52,8.02-1.26,9.39-1.82c1.37-0.56,3.73-2.32,7.26-2.64
	c3.53-0.32,7.49-0.29,8.52-0.53c1.03-0.24,1.69-1.2,1.69-1.2L93.41,228.42z"/>
<path class="st12" d="M54.33,234.92c0,0,3.68,1.38,8.94,0.89c5.26-0.49,11-1.71,13.14-2.65c2.2-0.97,3.97-2.45,7.26-2.6
	c8.41-0.39,9.82-1.4,9.82-1.4l0.18,1.58l-0.09,0.89l-0.19,2.67l-11.37,1.07l-1.23-2.64c0,0-2.75,1.12-3.88,1.6
	c-1.13,0.47-9.17,2.35-13.68,2.78c-4.52,0.43-8.73-0.59-9.06-0.99C53.48,235.29,54.33,234.92,54.33,234.92z"/>
<path class="st13" d="M109.51,190.33l1.01-8.08c-1.51-10.16-7.31-10.39-7.31-10.39l-25.71,2.08c-11.6,0.46-15.38,1.62-15.38,1.62
	l-6.05,3l3.29,9.47l-2.28,0.46l3.78,18.01l5.85,4.06c0,0,6.25,1.94,11.8,2.17c2.23,0.09,4.62-0.15,7.48-0.77
	c2.52,1.85,3.11,1.77,5.46,2.16l3.53,0.54l16.81-14.24l-1.01-5.93L109.51,190.33z"/>
<polygon points="122.81,217.56 120.29,220.35 119.8,218.35 120.82,216.66 121.61,216.84 "/>
<path class="st12" d="M121.6,207.86c0,0,0.27,0.02,0.51,0.08c0.24,0.05,0.46,0.36,0.46,0.36l1.93,0.44c0,0,0.18,3.9-0.47,6.34
	c-0.57,1.67-1.21,2.47-1.21,2.47l-1.28-0.23c0,0,0.38,2.36,0.93,5.39c0.62,3.42,0.38,6.35-0.18,9.08c-0.57,2.72-2.4,5.88-6,6.91
	c-1.96,0.57-3.01,0.44-3.01,0.44s-1.13,0-1.23-0.79c-0.1-0.79,8.07-26.49,8.07-26.49l1.67-2.33l-0.08-1.61"/>
<path class="st14" d="M121.98,207.92c-0.2-0.04-0.38-0.05-0.38-0.05l0.09,0.06l0.08,1.61l-1.67,2.33c0,0-8.17,25.7-8.07,26.49
	c0,0.01,0.01,0.03,0.01,0.04c0.08,0.05,0.13,0.09,0.13,0.09s1.6,0.44,2.86,0.11c1.57-0.41,2.41-0.68,3.95-2.1
	c1.13-1.04,3.83-4.51,3.24-9.89c-0.59-5.38-0.67-6.65-0.89-7.35c-0.18-0.56-0.27-1.27-0.25-2.08l0,0l0,0
	c0.01-0.19,0.01-0.39,0.03-0.59c0.11-1.07,0.89-2.54,0.97-3.2c0.08-0.66,0.56-2.6,0.38-3.67c-0.18-1.07-0.34-1.75-0.34-1.75
	S122.1,207.98,121.98,207.92z"/>
<path class="st10" d="M110,200.07c0,0-0.32-0.28-0.52,0.1c-0.74,1.41-3.57,3.89-6.58,6.68c-2.93,2.71-6.72,6.04-7.96,6.78
	c-0.39,0.23-0.2,0.56-0.2,0.56s4.23,2.53,7.56,4.22c1.78,0.91,4.61,1.63,4.61,1.63s0.28,1.62-1.86,6.27
	c-2.16,4.69-1.04,10.6,5.52,11.83c2.05,0.38,11.75,0.89,11.03-12.65c-0.4-7.35-1.68-8.06-0.46-11.06c1.22-3,0.6-6.56,0.6-6.56
	s-2.25-1.53-4.48-1.7C111.89,205.78,110,200.07,110,200.07z"/>
<path class="st15" d="M117.25,206.19c-5.36-0.41-7.25-6.12-7.25-6.12s-0.33,0.21-1.02,0.85c-0.58,0.74-1.48,1.65-2.57,2.68
	c-0.56,0.64-1.18,1.38-1.88,2.26c-0.08,0.33-0.4,0.71-0.4,0.71s2.06-1.11,3.88-0.57c1.18,0.35,1.33-0.63,3.39,1.31
	c1.26,1.19,0.27,2.04,0.27,2.04s-1.49,0.46-3.62,3.09c4.32-2.9,6.78-2.95,6.78-2.95l-6.76,8.67c0,0,6.62-7.07,8.07-6.92
	c0.8,0.08,1.44,1.72,0.1,4.42c-1.44,0.29-3.43,1.28-4.53,2.77c1.32-0.66,2.89-1.79,4.3-0.77c1.41,1.02,2.2,3.54,2.15,5.09
	c-0.05,1.55,1.06,4.82,0.25,7.99c-0.69,2.7-2.56,4.01-3.76,5.19c-1.1,1.09-3.48,2.31-4.98,2.02c0,0,0.01,0,0.01,0
	c0.13,0.04,0.27,0.07,0.4,0.1c0.15,0.04,0.3,0.07,0.46,0.1c2.05,0.38,11.75,0.89,11.03-12.65c-0.4-7.35-1.68-8.06-0.46-11.06
	c1.22-3,0.6-6.56,0.6-6.56S119.48,206.36,117.25,206.19z"/>
<path class="st15" d="M109.41,237.87c-0.02,0-0.03-0.01-0.05-0.01C109.38,237.86,109.4,237.86,109.41,237.87z"/>
<path class="st9" d="M85.98,211.96c2.52,1.85,3.11,1.77,5.46,2.16l3.53,0.54l16.55-13.93l-0.76-6.23l-1.26-4.16l1.01-8.08
	c-0.05-0.35-0.11-0.69-0.17-1.02c0-0.02-0.01-0.03-0.01-0.04c-0.06-0.32-0.13-0.63-0.2-0.93c-0.17,1.11-0.31,2.27-0.38,3.38
	c-0.25,4.16-5.04,6.23-5.04,6.23s0.92,11.62-0.59,11.85c-1.51,0.23-7.49,9.8-12.53,7.95c-5.04-1.85-8.98-3.87-8.98-3.87l-3.7-3.54
	l1.68,4l-1.95,1.6c0,0-2.42,1.63-6.46,1.63c-2.95,0-7.51-1.23-9.76-1.9l4.26,2.96c0,0,6.25,1.94,11.8,2.17
	C80.74,212.82,83.13,212.57,85.98,211.96z"/>
<path class="st16" d="M85.98,211.96l-3.53-4.62l1.51,3.85l-3.7,1.54C80.27,212.73,83.46,212.73,85.98,211.96z"/>
<path class="st7" d="M86.92,139.12c0,0,16.44-6.88,33.02,21.94c7.17,12.47-6.95,22.35-6.48,25.29c0.47,2.95-1.53,1.44-1.53,1.44
	L86.92,139.12z"/>
<path class="st6" d="M52.95,167.23c0,0,1.83,15.96,4.9,24.39c0.23,0.64,2.41,0.93,2.41,0.93s4.86,2.18,7.02,1.61
	c2.17-0.57,3.04-5.84,3.04-5.84l6.01,2.69c0,0,2.55-1.05,7.19-2.94c5.74-2.34,14.76-5.75,14.76-5.75l1.68-9.06l-12.98-37.26
	l-8.95-0.85c0,0-14.85,7.05-18.56,12.56C55.76,153.23,52.95,167.23,52.95,167.23z"/>
<linearGradient id="SVGID_3_" gradientUnits="userSpaceOnUse" x1="-2184.4551" y1="1875.1592" x2="-2139.2295" y2="1875.1592" gradientTransform="matrix(-0.9689 0.2474 0.2474 0.9689 -2484.4124 -1118.3533)">
	<stop  offset="0" style="stop-color:#201D1C"/>
	<stop  offset="0.6606" style="stop-color:#494645"/>
	<stop  offset="0.7455" style="stop-color:#3D3A39"/>
	<stop  offset="0.8749" style="stop-color:#312D2C"/>
	<stop  offset="1" style="stop-color:#2D2928"/>
</linearGradient>
<path class="st17" d="M52.79,166.64c0,0,2.11,15.62,5.18,24.05c0.23,0.64,2.13,1.26,2.13,1.26s4.86,2.18,7.02,1.61
	c2.17-0.56,3.04-5.84,3.04-5.84l6.01,2.7c0,0,2.55-1.05,7.18-2.94c5.74-2.33,14.76-5.75,14.76-5.75l1.68-9.06l-12.98-37.26
	l-8.95-0.85c0,0-14.85,7.05-18.56,12.56C55.61,152.64,52.79,166.64,52.79,166.64z"/>
<path class="st18" d="M85.54,165.44c0,0-0.5,6.73,2.91,13.29c3.41,6.55,10.19,18.88,10.19,18.88s9.67-5.44,12.77-6.22
	c-0.77-1.47-0.31-1.63-0.31-1.63l-3.69-20.69l-5.4-6.22l-2.24-8.76l-13.95,2.64L85.54,165.44z"/>
<path class="st7" d="M85.86,144.44c0,0,1.23,22.08,3.22,28.79c1.99,6.71,10.48,22.31,10.48,22.31s22.45-10.64,18.4-5.5
	c1.56-1.4,1.32-1.87,1.32-1.87s-0.05-27.13-19.37-46.32c-3.34-3.32-8.56-3.86-8.56-3.86L85.86,144.44z"/>
<path class="st19" d="M107.23,192.14c0,0,11.36-5.06,11.91-4.29c0.8,1.12-0.93,1.91-1.73,2.56c0.57-0.74,1.34-1.14,0.63-1.65
	C117.5,188.37,110.34,190.48,107.23,192.14z"/>
<path class="st16" d="M48.17,163.75c0.97,4.38,5.3,7.14,9.67,6.18c1.87-0.41,3.44-1.44,4.55-2.82c1.62,3.26,5.3,5.14,9.01,4.32
	c2.58-0.57,4.59-2.31,5.61-4.54c1.87,1.59,4.43,2.32,7.01,1.75c3.72-0.82,6.26-4.07,6.36-7.71c1.59,0.78,3.45,1.05,5.32,0.64
	c4.38-0.97,7.14-5.3,6.18-9.68c-0.37-1.66-1.23-3.09-2.39-4.18c0,0-14.03-8.23-15.84-9.05c-10.73,9.63-24.51,5.41-24.51,5.41
	l-10.56,14.89C48.45,159.27,47.89,162.44,48.17,163.75z"/>
<path class="st13" d="M47.51,162.11c1.14,4.34,5.58,6.92,9.92,5.78c1.85-0.49,3.38-1.58,4.44-3c1.75,3.19,5.49,4.92,9.18,3.95
	c2.55-0.67,4.49-2.49,5.42-4.76c1.93,1.51,4.52,2.14,7.07,1.47c3.68-0.97,6.09-4.32,6.04-7.96c1.62,0.72,3.49,0.91,5.34,0.43
	c4.33-1.14,6.92-5.58,5.78-9.92c-0.43-1.65-1.35-3.04-2.55-4.08c0,0-14.35-7.66-16.2-8.41c-10.33,10.05-24.27,6.4-24.27,6.4
	l-9.95,15.3C47.61,157.62,47.17,160.81,47.51,162.11z"/>
<path class="st20" d="M61.75,162.65l0.12,2.24c0,0-2.15,3.25-6.29,3.32c-3.89,0.07-8.44-3.03-8.18-8.1
	C49.61,165.1,54.79,168.62,61.75,162.65z"/>
<path class="st20" d="M75.88,161.83l0.59,2.25c0,0-0.92,3.37-5.58,4.9c-2.51,0.82-7.03,0.05-9.02-4.09
	c-0.06-0.18-0.05-0.56-0.09-0.81C65.57,167.3,72.75,167.18,75.88,161.83z"/>
<path class="st20" d="M88.32,155.74l1.26,1.84c0,0,0.52,4.65-4.23,7.28c-3.66,2.04-7.21,0.6-8.88-0.79
	c-0.03-0.14-0.31-0.83-0.3-1.14C81.27,163.74,88.3,162.37,88.32,155.74z"/>
<path class="st20" d="M98.79,144.68c0,0,2.21,3.92,0.32,7.38c-1.89,3.45-7.99,4.48-10.29,4.52c0.47,0.89,0.77,1.01,0.77,1.01
	s4.28,2.18,8.4-1.02C102.1,153.35,101.73,147.5,98.79,144.68z"/>
<path class="st20" d="M61.86,164.43l0.17-6.66c0,0-0.08,4.53-1.17,5.73C59.77,164.7,61.86,164.43,61.86,164.43z"/>
<path class="st20" d="M76.44,163.44l-3.73-11.31c0,0,3.07,9.28,2.46,10.78C74.56,164.41,76.44,163.44,76.44,163.44z"/>
<path class="st20" d="M89.57,157.47l-6.24-9.55c0,0,5.18,7.7,4.9,9.29C87.93,158.81,89.57,157.47,89.57,157.47z"/>
<path class="st18" d="M97.64,143.69c0,0-9.82,3.01-12.82,6.65c-4.86,0.96-7.59,1.84-11.29,4.26c-3.45-0.91-8.59,1-11.49,2.17
	c-1.92-1.77-6-5.64-11.38-3.98c1.34-2.2,7.01-10.79,7.01-10.79l11.16,0.22l13.11-6.61L97.64,143.69z"/>
<path class="st18" d="M57.72,194.32c0.23,0.63,5.23,0.74,5.23,0.74s4.22,0.98,6.38,0.42c2.17-0.56,1.79-5.43,1.79-5.43l6,3.35
	c0,0,3.05-2.6,7.58-4.75c4.66-2.22,12.79-4.45,12.79-4.45l4.52-9.6l-0.12-0.32l-45.32,14.85C56.56,189.13,56.83,191.07,57.72,194.32
	z"/>
<path class="st6" d="M52.95,167.23c0,0,0.32,15.77,3.38,24.2c0.23,0.64,3.92,1.11,3.92,1.11s4.86,2.18,7.02,1.61
	c2.17-0.57,3.04-5.84,3.04-5.84l6.01,2.69c0,0,2.55-1.05,7.19-2.94c5.74-2.34,14.76-5.75,14.76-5.75l1.68-9.06l-12.98-37.26
	l-8.95-0.85c0,0-14.85,7.05-18.56,12.56C55.76,153.23,52.95,167.23,52.95,167.23z"/>
<linearGradient id="SVGID_4_" gradientUnits="userSpaceOnUse" x1="-2184.4551" y1="1875.1592" x2="-2137.4807" y2="1875.1592" gradientTransform="matrix(-0.9689 0.2474 0.2474 0.9689 -2484.4124 -1118.3533)">
	<stop  offset="0" style="stop-color:#201D1C"/>
	<stop  offset="0.6606" style="stop-color:#494645"/>
	<stop  offset="0.7455" style="stop-color:#3D3A39"/>
	<stop  offset="0.8749" style="stop-color:#312D2C"/>
	<stop  offset="1" style="stop-color:#2D2928"/>
</linearGradient>
<path class="st21" d="M52.79,166.64c0,0,0.12,15.33,3.19,23.76c0.23,0.64,4.12,1.56,4.12,1.56s4.86,2.18,7.02,1.61
	c2.17-0.56,3.04-5.84,3.04-5.84l6.01,2.7c0,0,2.55-1.05,7.18-2.94c5.74-2.33,14.76-5.75,14.76-5.75l1.68-9.06l-12.98-37.26
	l-8.95-0.85c0,0-14.85,7.05-18.56,12.56C55.61,152.64,52.79,166.64,52.79,166.64z"/>
<path class="st22" d="M51.97,165.03c0,0-8.07,10.74-0.17,34.18c5.45,1.59,5.58,1.09,5.58,1.09s-10.6-34.94,0.49-50.16
	c11.09-15.23-0.67-4.01-0.67-4.01l-4.44,8.05L51.97,165.03z"/>
<path class="st7" d="M49.9,158.07c0,0-6.63,26.18,0.62,41.26c3.24,1.03,6.47,1.08,6.47,1.08s-10.6-34.93,0.49-50.16
	c11.09-15.23-3.68-4.55-3.68-4.55l-3.74,8.84L49.9,158.07z"/>
<path class="st7" d="M49.9,158.07c0,0-6.63,26.18,0.62,41.26c3.24,1.03,6.47,1.08,6.47,1.08s-10.6-34.93,0.49-50.16
	c11.09-15.23-3.68-4.55-3.68-4.55l-3.74,8.84L49.9,158.07z"/>
<path class="st16" d="M65.58,170.3c-0.04,0.01-0.07,0.03-0.11,0.04c-0.04,0.01-0.08,0.01-0.11,0.02c-1.2,0.31-1.93,1.53-1.62,2.73
	c0.01,0.04,0.03,0.07,0.04,0.11c0.01,0.04,0.01,0.07,0.02,0.11c0.34,1.33,1.69,2.12,3.01,1.79c1.32-0.34,2.12-1.68,1.78-3.01
	C68.25,170.77,66.9,169.97,65.58,170.3z"/>
<path class="st23" d="M68.18,171.78c0.34,1.32-0.46,2.67-1.78,3.01c-1.32,0.34-2.67-0.46-3.01-1.79c-0.34-1.32,0.46-2.67,1.78-3.01
	C66.49,169.66,67.84,170.46,68.18,171.78z"/>
<path class="st24" d="M67.68,171.68c0.31,1.2-0.42,2.43-1.62,2.73c-1.2,0.31-2.43-0.42-2.73-1.62c-0.31-1.2,0.42-2.42,1.62-2.73
	C66.15,169.75,67.37,170.47,67.68,171.68z"/>
<path class="st16" d="M67.91,179.42c-0.04,0.01-0.07,0.03-0.11,0.04c-0.04,0.01-0.08,0.01-0.11,0.02c-1.2,0.31-1.93,1.53-1.62,2.73
	c0.01,0.04,0.03,0.07,0.04,0.1c0.01,0.04,0.01,0.08,0.02,0.12c0.34,1.33,1.69,2.12,3.01,1.78c1.32-0.34,2.12-1.68,1.78-3.01
	C70.58,179.88,69.23,179.08,67.91,179.42z"/>
<path class="st23" d="M70.5,180.9c0.34,1.32-0.46,2.67-1.78,3.01c-1.32,0.34-2.67-0.46-3.01-1.79c-0.34-1.32,0.46-2.67,1.78-3.01
	C68.82,178.77,70.16,179.57,70.5,180.9z"/>
<path class="st24" d="M70,180.79c0.31,1.2-0.42,2.42-1.62,2.73c-1.2,0.31-2.43-0.42-2.73-1.62c-0.31-1.2,0.42-2.43,1.62-2.73
	C68.47,178.86,69.7,179.59,70,180.79z"/>
<path class="st7" d="M85.86,144.44c0,0,1.23,22.08,3.22,28.79c1.99,6.71,10.48,22.31,10.48,22.31s22.45-10.64,18.4-5.5
	c1.56-1.4,1.32-1.87,1.32-1.87s-0.05-27.13-19.37-46.32c-3.34-3.32-8.56-3.86-8.56-3.86L85.86,144.44z"/>
<path class="st19" d="M107.23,192.14c0,0,11.36-5.06,11.91-4.29c0.8,1.12-0.93,1.91-1.73,2.56c0.57-0.74,1.34-1.14,0.63-1.65
	C117.5,188.37,110.34,190.48,107.23,192.14z"/>
<path class="st16" d="M48.17,163.75c0.97,4.38,5.3,7.14,9.67,6.18c1.87-0.41,3.44-1.44,4.55-2.82c1.62,3.26,5.3,5.14,9.01,4.32
	c2.58-0.57,4.59-2.31,5.61-4.54c1.87,1.59,4.43,2.32,7.01,1.75c3.72-0.82,6.26-4.07,6.36-7.71c1.59,0.78,3.45,1.05,5.32,0.64
	c4.38-0.97,7.14-5.3,6.18-9.68c-0.37-1.66-1.23-3.09-2.39-4.18c0,0-14.03-8.23-15.84-9.05c-10.73,9.63-24.51,5.41-24.51,5.41
	l-10.56,14.89C48.45,159.27,47.89,162.44,48.17,163.75z"/>
<path class="st13" d="M47.51,162.11c1.14,4.34,5.58,6.92,9.92,5.78c1.85-0.49,3.38-1.58,4.44-3c1.75,3.19,5.49,4.92,9.18,3.95
	c2.55-0.67,4.49-2.49,5.42-4.76c1.93,1.51,4.52,2.14,7.07,1.47c3.68-0.97,6.09-4.32,6.04-7.96c1.62,0.72,3.49,0.91,5.34,0.43
	c4.33-1.14,6.92-5.58,5.78-9.92c-0.43-1.65-1.35-3.04-2.55-4.08c0,0-14.35-7.66-16.2-8.41c-10.33,10.05-24.27,6.4-24.27,6.4
	l-9.95,15.3C47.61,157.62,47.17,160.81,47.51,162.11z"/>
<path class="st20" d="M61.75,162.65l0.12,2.24c0,0-2.15,3.25-6.29,3.32c-3.89,0.07-8.44-3.03-8.18-8.1
	C49.61,165.1,54.79,168.62,61.75,162.65z"/>
<path class="st20" d="M75.88,161.83l0.59,2.25c0,0-0.92,3.37-5.58,4.9c-2.51,0.82-7.03,0.05-9.02-4.09
	c-0.06-0.18-0.05-0.56-0.09-0.81C65.57,167.3,72.75,167.18,75.88,161.83z"/>
<path class="st20" d="M88.32,155.74l1.26,1.84c0,0,0.52,4.65-4.23,7.28c-3.66,2.04-7.21,0.6-8.88-0.79
	c-0.03-0.14-0.31-0.83-0.3-1.14C81.27,163.74,88.3,162.37,88.32,155.74z"/>
<path class="st20" d="M98.79,144.68c0,0,2.21,3.92,0.32,7.38c-1.89,3.45-7.99,4.48-10.29,4.52c0.47,0.89,0.77,1.01,0.77,1.01
	s4.28,2.18,8.4-1.02C102.1,153.35,101.73,147.5,98.79,144.68z"/>
<path class="st20" d="M61.86,164.43l0.17-6.66c0,0-0.08,4.53-1.17,5.73C59.77,164.7,61.86,164.43,61.86,164.43z"/>
<path class="st20" d="M76.44,163.44l-3.73-11.31c0,0,3.07,9.28,2.46,10.78C74.56,164.41,76.44,163.44,76.44,163.44z"/>
<path class="st20" d="M89.57,157.47l-6.24-9.55c0,0,5.18,7.7,4.9,9.29C87.93,158.81,89.57,157.47,89.57,157.47z"/>
<path class="st18" d="M97.64,143.69c0,0-9.82,3.01-12.82,6.65c-4.86,0.96-7.59,1.84-11.29,4.26c-3.45-0.91-8.59,1-11.49,2.17
	c-1.92-1.77-6-5.64-11.38-3.98c1.34-2.2,7.01-10.79,7.01-10.79l11.16,0.22l13.11-6.61L97.64,143.69z"/>
<path class="st16" d="M104.92,169.58c-0.23-0.89-1.33-4.59-2.2-6.11c-0.87-1.53-1.73-3.05-1.73-3.05l-1.24-1.75l2.81,1.67
	c0,0,1.73-5.05,1.58-4.38c-0.15,0.67-0.38,5.34,0.3,8.03s1.62,10.07,1.62,10.07L104.92,169.58z"/>
<path class="st18" d="M110.48,185.36c0,0-18.01-10.33-18.24-9.78c-0.09,0.22-0.8,1.09-1.36,2.41c1.66,3.87,3.94,8.46,5.75,11.97
	c3.81,1.69,7.92,1.13,10.05,0.89c3-0.33,8.2-2.86,9.58-3.85c0.51-0.36,1.66-0.93,2.9-1.51c-0.16-2.01-0.5-5.05-1.24-8.71
	C115.48,179.4,112.43,183.99,110.48,185.36z"/>
<path class="st25" d="M116.16,170.22c0.11-0.87,0.16-1.8,0.16-2.76c0-4.97-1.52-9.04-3.46-9.45c-3.05-1.78-15.24-8.04-23.29,0.43
	v0.01c-1.22,1.02-2.17,3.56-2.48,6.74c-0.26,0.07-0.57,0.22-0.92,0.54c-1.75,1.55-1.41,2.99-1.31,7.96
	c0.07,3.27,1.74,5.27,3.04,6.71c0.17,0.52,0.37,1.04,0.6,1.55c3.38,7.45,12.18,10.52,19.66,6.86
	C115.13,185.4,118.49,177.33,116.16,170.22z"/>
<path d="M101.58,192.21c-1.87,0-3.73-0.32-5.53-0.97c-4.13-1.48-7.41-4.51-9.23-8.53c-0.2-0.44-0.38-0.89-0.55-1.37
	c-1.23-1.39-3.18-3.82-3.25-7.62c-0.01-0.69-0.03-1.32-0.05-1.88c-0.11-3.61-0.17-5.6,1.99-7.5c0.14-0.12,0.28-0.24,0.42-0.34
	c0.44-3.11,1.45-5.54,2.85-6.82l0.01-0.01c7.01-7.37,17.64-5.3,25.35-0.88c3.17,0.99,4.59,6.25,4.59,11.17
	c0,0.87-0.04,1.74-0.13,2.58c2.39,7.98-1.45,16.7-9.07,20.43C106.61,191.63,104.09,192.21,101.58,192.21z M87.56,166.99
	c0.01,0-0.05,0.04-0.16,0.13c-0.78,0.69-0.85,1.08-0.74,4.62c0.02,0.58,0.04,1.21,0.05,1.92c0.05,2.5,1.24,4.04,2.57,5.52l0.26,0.29
	l0.12,0.37c0.15,0.48,0.33,0.93,0.52,1.36c1.41,3.1,3.93,5.43,7.12,6.58c3.27,1.17,6.85,0.96,10.05-0.61
	c6.1-2.98,9.13-10.02,7.06-16.36l-0.13-0.39l0.05-0.41c0.1-0.82,0.15-1.67,0.15-2.54c0-4.77-1.44-7.4-2.02-7.65l-0.29-0.06
	l-0.23-0.14c-3.08-1.8-13.48-7.02-20.51-0.39v0.1l-0.66,0.57c-0.68,0.56-1.53,2.52-1.82,5.5l-0.13,1.3L87.56,166.99z"/>
<path class="st22" d="M115.57,168.7c-3.38-7.45-12.18-10.52-19.66-6.86c-7.48,3.66-10.8,12.66-7.42,20.11
	c3.38,7.45,12.18,10.52,19.66,6.86C115.64,185.15,118.96,176.15,115.57,168.7z"/>
<path class="st8" d="M114.27,169.19c-2.99-6.57-10.88-9.22-17.64-5.92c-6.76,3.31-9.81,11.32-6.83,17.89
	c2.99,6.58,10.88,9.23,17.64,5.92C114.2,183.78,117.25,175.77,114.27,169.19z"/>
<path class="st26" d="M89.58,158.45v0.01c-1.5,1.25-2.59,4.81-2.59,9c0,4.2,1.09,7.75,2.59,9v0.05c8.32,8.08,24.01,0,24.01,0v-18.06
	C113.58,158.45,98.84,148.7,89.58,158.45z"/>
<path class="st27" d="M113.58,176.51v-0.28l-3.96-5.55c0,0-5.23,1.9-13.15,1.58c-4.59-0.18-7.59-1.11-9.29-1.86
	c0.37,2.85,1.27,5.1,2.4,6.05v0.05C97.89,184.59,113.58,176.51,113.58,176.51z"/>
<ellipse class="st28" cx="112.55" cy="167.46" rx="3.78" ry="9.49"/>
<path class="st29" d="M90.61,159.83c0,0,2.22-3.09,7.05-3.33c4.83-0.24,10.7,1.11,10.7,1.11s-0.95,0.48-1.27,1.43
	C104.79,158.25,95.83,155.95,90.61,159.83z"/>
<path class="st16" d="M103.84,159.79c0,0,1.46-0.18,1.97,0.11c0.51,0.29,1.35,0.22,1.53,2.19c0.18,1.97-0.4,3.36-0.33,5.33
	c0.07,1.97,0.18,4.53,1.31,6.79c1.13,2.26,3.61,3.1,3.61,3.1l-2.37,1.9c0,0-1.53-0.33-1.97-0.44c-0.44-0.11-2.23-0.66-2.59-0.88
	s-1.68-1.39-1.86-1.64c-0.18-0.26-0.77-2.08-0.69-2.45c0.07-0.36,1.17-13.54,1.17-13.54L103.84,159.79z"/>
<path class="st28" d="M112.05,177.3c-0.15,1.72-0.04,1.8-0.66,2.97c-0.26,0.48-0.64,0.88-1.1,1.17c-6.85,4.23-11.34,3.49-11.34,3.49
	s-2.83-0.46-6.79-1.68c-1.42-0.44-3.38-1.86-3.87-2.41c-1.31-1.48-3.36-3.54-3.43-7.15c-0.1-4.96-0.44-6.41,1.31-7.96
	c1.24-1.09,1.88-0.35,2.34-0.04c0.58-6.31,2.83-8.85,6.11-6.31c0,0,0.67-1.93,1.15-2.21c2.28-1.31,3.89-0.09,4.64,0.86
	c0.43,0.55-0.34-1.36,0.67,1.52c0.5-1.41,2.14-1.7,3.02-1.29c2.63,1.22,2.51,4.92,1.78,7.84c-0.42,1.7,0.36,7.52,0.36,7.52
	S108.15,177.34,112.05,177.3z"/>
<path class="st30" d="M100.56,173.33c-0.15-0.58-0.66-5.47-0.66-6.72c0-1.24,0.7-5.25,0.85-5.47l0.22-1.09
	c-0.08,0.13,0.17-0.65,0.11-0.5c-0.37-1.07-0.5-1.48-0.54-1.6c0,0,0,0,0,0c0.02,0.08,0.04,0.22-0.04,0.16
	c-0.39,1.48-1.51,5.94-1.7,8.05c-0.22,2.55,2.19,9.27,2.19,9.27S100.7,173.91,100.56,173.33z"/>
<path class="st30" d="M92.67,171.43c0.08,0.67,2.85,5.55,2.85,5.55s-1.02-3.07-1.53-4.16c-0.51-1.09-0.37-4.38-0.37-5.77
	s0.94-6.97,0.94-6.97l0.15-0.92c-0.05,0.14-0.08,0.23-0.08,0.23c-0.17-0.13-0.34-0.25-0.5-0.35c-0.48,2.21-1.6,7.16-1.67,7.35
	C92.29,166.84,92.64,171.2,92.67,171.43z"/>
<path class="st30" d="M88.51,173.71c-0.04-0.23-0.07-5.05-0.07-5.05l0.02-1.41l0.11-1.01c-0.06,0.4-0.01-0.98-0.05-0.54
	c-0.22-0.16-0.49-0.41-0.85-0.5c0.01,0.15,0.03,0.33,0.05,0.54c0.07,0.66,0.11,7.59,0.23,8.08c0.16,0.71,2.47,4.18,2.47,4.18
	S88.59,174.2,88.51,173.71z"/>
<path class="st31" d="M106.25,173.62c0,0-0.79-5.82-0.37-7.52c0.45-1.8,0.67-3.9,0.15-5.53c0.08,0.83,0.06,2.33-0.15,3.05
	c-0.29,1.02-1.46,5.18-1.17,5.99c0.29,0.8,0.22,5.04,0.51,5.47s0.44,2.55,0.44,2.92s-0.95,2.23-4.01,3.87
	c-1.94,1.04-6.17,1.24-7.55,1.09c-1.39-0.15-4.12-1.24-6.02-2.55c-0.14-0.1-0.27-0.18-0.4-0.26c0.22,0.25,0.43,0.48,0.62,0.69
	c0.49,0.55,2.45,1.97,3.87,2.41c3.96,1.22,6.79,1.68,6.79,1.68s4.48,0.74,11.34-3.49c0.46-0.29,0.85-0.69,1.1-1.17
	c0.63-1.17,0.51-1.25,0.66-2.97C108.15,177.34,106.25,173.62,106.25,173.62z"/>
<path class="st32" d="M185.7,69.49c0,0,7.48-42.38-19.84-44.06c0.01-0.01,4.87,5.41,4.88,5.39c-0.66-0.04,6.24-6.11,5.55-6.1
	c0.01,0.02-6.15-5.54-16.31-4.92c-6.99,0.42-19.08,3.69-19.08,3.69c-42.41,17.17-37.28,66.46-37.28,78.12
	c0,3.81,0.27,153.07,0.27,153.07l11.37,1.46c0,0,56.99-25.58,70.71-30.88L185.7,69.49z"/>
<path class="st33" d="M153.32,23.77C113,40.63,115,96.62,115,100.5c0.01,3.81,0.24,150.39,0.25,155.65
	c14.32-6.18,61.74-25.77,76.83-32l-0.25-155.78C191.83,68.38,193.64,6.91,153.32,23.77z"/>
<path class="st34" d="M153.57,24.36c-39.8,16.64-37.82,72.29-37.82,76.15L116,252.16c0,1.68,0.76,2.73,1.69,2.33
	c15.27-6.53,56.63-23.63,72.45-30.16c0.93-0.38,1.68-2.06,1.68-3.74l-0.24-151.71c0-0.04,0-0.09,0-0.13
	C191.63,66.65,192.65,8.02,153.57,24.36z"/>
<path class="st33" d="M141.92,244.31c-0.2-0.01-0.44-0.34-0.65-0.73l-0.34-211.72c0.07-0.28,0.17-0.58,0.28-0.86
	c-0.49,0.39-0.97,0.8-1.44,1.21c0.08,0.07,0.14,0.17,0.15,0.29c0.02,0.22,0.1,0.57,0.19,0.94l0.34,210.68
	c-0.12,0.3-0.29,0.64-0.52,1.02C140.59,244.87,141.25,244.59,141.92,244.31C141.92,244.31,141.92,244.31,141.92,244.31z"/>
<path class="st33" d="M127.07,48.14l0,0.24c-0.32,0.56-0.63,1.11-0.91,1.57c-0.26,0.43,0.43,0.08,0.92,0.19l0.32,197.81
	c-0.09,0.87-0.31,1.88-0.85,2.45c-0.17,0.18-0.35,0.38-0.53,0.58c1.18-0.5,2.42-1.02,3.7-1.55c-0.56-0.16-1.15-0.5-1.5-1.23
	l-0.32-199.39c0.26-1.09,1.03-3.63,1.2-4c0.11-0.24-0.46,0.81-1.2,2.13l0-0.22C127.61,47.18,127.33,47.65,127.07,48.14z"/>
<path class="st33" d="M179.23,228.82c0,0.01,0,0.01-0.01,0.02c0.55-0.23,1.08-0.45,1.61-0.67c-0.13-0.37-0.28-0.84-0.4-1.5
	l-0.32-198.91c0.08-0.26,0.19-0.51,0.31-0.7c-0.56-0.6-1.15-1.17-1.76-1.7c0.22,0.55,0.46,1.2,0.63,1.81l0.32,197.65l-0.06,0.27
	c0,0,0.04,0.31,0.07,0.77l0,1.15C179.58,227.66,179.48,228.32,179.23,228.82z"/>
<path class="st33" d="M155.57,238.37c0,0-0.87-0.43-1.25-1.65l-0.34-212.19c0.1-0.37,0.23-0.79,0.37-1.18
	c-0.26,0.1-0.52,0.21-0.78,0.32c-0.29,0.12-0.57,0.24-0.85,0.37c0.11,0.22,0.19,0.43,0.21,0.6c0.02,0.2,0.12,0.6,0.24,1.04
	l0.34,212.24c-0.07,0.58-0.18,1.18-0.34,1.73c0.83-0.34,1.66-0.69,2.48-1.03L155.57,238.37z"/>
<path class="st33" d="M165.84,234.38c0.74-0.3,1.47-0.61,2.19-0.91c-0.23-0.31-0.47-0.81-0.65-1.64l-0.34-209.55
	c0.19-0.58,0.4-1.05,0.59-1.44c-0.62-0.04-1.25-0.06-1.89-0.05c0.04,0.12,0.07,0.26,0.08,0.4c0.07,0.64,0.26,1.49,0.41,2.22
	l0.33,207.16c-0.01,0.18-0.02,0.31-0.02,0.31s0.01,0.04,0.02,0.1l0,1.49C166.47,233.03,166.26,233.69,165.84,234.38z"/>
<path class="st35" d="M190.14,224.33c0.93-0.38,1.68-2.06,1.68-3.74l-0.22-135.23c-0.6,6.49-6.21,62.55-23.44,103.04
	c-11.23,26.39-28.31,37.07-39.85,41.38c-0.37,0.14-0.74,0.27-1.11,0.4c-6.68,2.34-11.24,2.5-11.24,2.5s-0.01,0.01-0.02,0.01
	l0.03,19.45c0,1.68,0.76,2.73,1.69,2.33C132.95,247.96,174.32,230.87,190.14,224.33z"/>
<path class="st33" d="M115.33,255.9l0.19-0.9c0,0-0.8-3.07-1.2-2.18c-0.4,0.89-1.2,0.98-1.99,1.6c-0.8,0.62-3.79,0.02-6.58-0.6
	c-0.86-0.19-1.4-3.41-1.73-3.81c0,0.78,0,4.67,0,4.67l10.34,1.46C114.37,256.15,114.7,256.06,115.33,255.9z"/>
<ellipse class="st36" cx="129.52" cy="167.5" rx="9.22" ry="19.39"/>
<ellipse class="st16" cx="130.13" cy="166.27" rx="8.62" ry="18.15"/>
<ellipse class="st37" cx="131.8" cy="166.3" rx="7.83" ry="16.5"/>
<path class="st38" d="M128.71,165.56l-1.81,11.17l-2.15,2.15l-0.62,3.69c0,0,1.38,4.31,3.38,4.77c2,0.46,5.54,0,6.15-1.38
	s0.77-3.69,0.77-3.69l1.23-2.92l0.46-4.62c0,0-0.92-3.85-1.23-4.77C134.59,169.04,128.71,165.56,128.71,165.56z"/>
<ellipse class="st36" cx="132.76" cy="167.1" rx="4.05" ry="10.06"/>
<path class="st26" d="M132.8,157.97c-1.88,0.41-3.35,4.35-3.35,9.17c0,4.82,1.47,8.77,3.35,9.17c3.14,1.44,15.55,6.46,22.57-0.35
	c0-8.08,0-11.08,0-17.54C147.59,150.24,135.84,156.21,132.8,157.97z"/>
<path class="st29" d="M132.06,159.63c0.17-0.12,10.44-5.08,19.27-1.96c-0.58,0.63-1.15,1.73-1.15,1.73s-9.4-2.37-18.52,1.21
	C131.89,160.15,132.06,159.63,132.06,159.63z"/>
<path class="st39" d="M155.37,175.96c0-1.1,0-2.11,0-3.04c-0.05-0.04-0.09-0.06-0.12-0.08c-1-0.46-0.35-3.69-0.35-3.69
	s-6.06,1.96-11.88,1.73c-4.25-0.17-10.44-1.58-13.53-2.36c0.25,4.17,1.61,7.42,3.31,7.79C135.94,177.75,148.36,182.78,155.37,175.96
	z"/>
<ellipse class="st20" cx="154.22" cy="167.17" rx="3.67" ry="9.21"/>
<ellipse class="st20" cx="154.22" cy="167.17" rx="3.67" ry="9.21"/>
<path class="st40" d="M154.85,167.54c0-3.67-1.19-6.65-2.65-6.65c-0.26,0-0.52,0.1-0.76,0.28c-0.55,1.61-0.89,3.71-0.89,6
	c0,2.77,0.49,5.25,1.26,6.94c0.13,0.05,0.25,0.08,0.39,0.08C153.66,174.19,154.85,171.21,154.85,167.54z"/>
<path class="st41" d="M150.95,163.13c-0.01,0-0.01,0-0.02,0.01c-0.24,1.22-0.38,2.59-0.38,4.04c0,1.69,0.18,3.27,0.5,4.63h3.4v-8.69
	h-3.5V163.13z"/>
<ellipse class="st26" cx="154.4" cy="167.46" rx="1.73" ry="4.34"/>
<path class="st42" d="M154.22,157.96c-2.03,0-3.67,4.12-3.67,9.21c0,5.09,1.64,9.21,3.67,9.21c2.03,0,3.67-4.12,3.67-9.21
	C157.89,162.08,156.24,157.96,154.22,157.96z M154.32,175.88c-1.86,0-3.37-3.88-3.37-8.67c0-4.79,1.51-8.67,3.37-8.67
	s3.37,3.88,3.37,8.67C157.69,172,156.18,175.88,154.32,175.88z"/>
<path class="st6" d="M43.44,162.91l-1.65-2.32c-0.12-0.17-0.27-0.32-0.43-0.43l-2.31-3.3c-0.41-0.74-1.2-1.19-2.15-1.19
	c-0.4,0-0.97,0.07-1.91,0.44c-0.1-0.58-0.22-1.07-0.3-1.38c-0.61-2.32-1.34-5.74-1.34-5.74c-0.17-0.87-0.55-3.47-0.28-5
	c0.71-4.08,0.1-8.58-2.85-9.45c-1.81-0.53-4.1,0.85-5.35,3.2c-0.01,0.02-0.04,0.08-0.06,0.11c-0.16,0.31-0.31,0.64-0.46,1.06
	l-0.04,0.12c-0.12,0.36-0.22,0.73-0.3,1.11L24,140.19c-1.09-2.49-2.31-5.25-2.63-5.95c-0.74-1.62-2.48-2.71-4.34-2.71
	c-0.92,0-1.77,0.27-2.46,0.76c-0.33,0.12-0.64,0.33-0.87,0.63c-0.38,0.47-0.75,1.16-0.88,2.12c-0.25-0.39-0.46-0.7-0.59-0.88
	c-0.78-1.09-1.93-1.71-3.15-1.71c-1.6,0-3,1.03-3.64,2.65c-0.01,0.03-0.03,0.06-0.04,0.09c-0.21,0.48-0.32,0.98-0.35,1.48
	c-0.04,0.82,0.02,1.67,0.19,2.6c0.01,0.04,0.02,0.08,0.03,0.12c0.06,0.25,0.14,0.5,0.23,0.76c-0.57-0.27-1.17-0.43-1.78-0.43
	c-1.02,0-1.93,0.45-2.58,1.26c-0.33,0.21-0.6,0.51-0.76,0.89c-0.17,0.4-0.28,0.86-0.33,1.39c-0.01,0.08-0.01,0.15-0.01,0.23
	c0.05,1.79,1.07,3.57,2.74,6.32c-1.11,0.22-2.03,0.88-2.48,1.83c-0.02,0.04-0.07,0.14-0.08,0.18c-0.06,0.14-0.1,0.28-0.14,0.42
	c-0.02,0.09-0.04,0.19-0.06,0.31C0.02,152.66,0,152.78,0,152.91c0,0.2,0.01,0.41,0.05,0.66c0.01,0.08,0.03,0.15,0.05,0.22
	c0.03,0.14,0.07,0.29,0.13,0.45c0.03,0.08,0.06,0.15,0.09,0.23c0.06,0.14,0.13,0.28,0.22,0.45c0.01,0.03,0.08,0.14,0.09,0.16
	c0.12,0.19,0.25,0.38,0.4,0.58c0.27,0.35,0.54,0.67,0.81,0.95c1.03,1.14,1.99,1.86,2.83,2.5c0.49,0.37,0.96,0.73,1.38,1.12L6.85,161
	c0,0,0.12,0.11,0.12,0.11l0.49,0.47c0,0,0.13,0.12,0.13,0.12l0.76,0.71c0.28,0.25,0.53,0.48,0.81,0.72
	c0.31,0.27,0.63,0.57,1.05,0.94c0.22,0.2,0.44,0.44,0.68,0.7c0.64,0.68,1.43,1.53,2.63,2.36c0.01,0.01,0.02,0.01,0.02,0.02
	c0.23,0.16,0.48,0.32,0.83,0.53c0.24,0.14,0.5,0.28,0.8,0.43l0.13,0.06c0.25,0.12,0.52,0.24,0.87,0.39l0.17,0.07
	c0.26,0.1,0.54,0.2,0.91,0.33l0.24,0.08c0.27,0.09,0.56,0.17,0.85,0.25l0.11,0.03c0.1,0.03,0.2,0.06,0.31,0.09
	c0.2,0.05,0.42,0.1,0.64,0.15c-0.63,1.23-0.58,1.97-0.39,2.53c0.12,0.36,0.32,0.68,0.59,0.93c1.76,2.64,4.86,7.2,8.67,10.55
	c5.23,5.9,7.31,6.8,11.67,6.8c0,0,0,0,0,0c0.29,0,0.59,0,0.91-0.01c2.17-0.03,4.36-0.34,6.49-0.93c0.19-0.05-0.38-3.04-0.19-3.09
	c0.85-0.26-6.83-16.43-6.85-17.32C40.23,167.66,43.44,162.91,43.44,162.91z"/>
<path class="st7" d="M48.42,170.14l-6.42-5.9l-1.81-2.36l-2.88-4.12c0,0-3.07,9-16.3,13.89c4.51,6.75,13.8,20.26,25.19,12.36
	c0.4-0.28,0.77-0.62,1.1-0.99C47.4,178.34,47.87,173.85,48.42,170.14z"/>
<path class="st22" d="M27.68,163.31c7.01-5.82,11.19-7.11,9.24-4.26c-1.95,2.85-2.7,5.06-8.34,9.15c-5.63,4.09-6.72,3.66-7.57,3.45
	C20.16,171.44,22.32,167.76,27.68,163.31z"/>
<path class="st8" d="M28.2,163.83c3.71-3.2,8.29-6.16,7.59-4.82c-0.71,1.34-1.93,3.66-6.03,6.84c-4.1,3.18-7.39,5-7.2,4.2
	C22.74,169.26,25.16,166.45,28.2,163.83z"/>
<path class="st24" d="M36.34,170.14c-6.61,6.32-10.6,7.28-10.84,7.33l-0.53-0.59l-0.5-0.63l-0.78-1c0.07-0.01,7.74-2.3,16.5-13.54
	l1.57,2.23C39.72,166.56,38.14,168.42,36.34,170.14z"/>
<path class="st5" d="M42.95,165.12l0.43,1.88c0,0,0.64,1.25,0.5,2.33c-0.13,1.08-0.43,2.06-0.43,2.06s1.26-1.14,1.47-2.1
	c0.18-0.81,0.23-1.83,0.24-2.14L42.95,165.12z"/>
<path class="st5" d="M44.48,182.18c-2.92,4.26-6.98,3.35-9.59,2.41c-4.42-1.59-5.31-2.44-5.41-2.56c5.61,6.37,6.96,6.44,11.33,6.39
	c2.3-0.03,4.48-0.4,6.51-1.01c-0.21-6.21,0.39-12.37,1.09-17.22C48.61,168.83,47.26,178.14,44.48,182.18z"/>
<path class="st5" d="M29.48,182.03c0-0.01-0.01-0.01-0.01-0.01C29.47,182.01,29.47,182.02,29.48,182.03z"/>
<path class="st28" d="M34.46,161.91c-1.75-1.81-1.33-2.81-1.33-2.81c0.22-1.1-0.02-2.72-0.33-3.89c-0.63-2.4-1.37-5.87-1.37-5.87
	s-0.67-3.47-0.29-5.71c0.61-3.49,0.05-6.79-1.47-7.23c-1.21-0.36-3.74,1.74-3.88,5.23c-0.14,3.49,0.57,6.65,0.57,6.65
	s-2.2-2.68-2.35-3.12c-0.15-0.45-3.66-8.43-4.43-10.11c-1.08-2.38-5.89-2.42-4.56,2.49c1.33,4.91,3.53,10.49,3.53,10.49
	s-6.76-11.12-7.92-12.73c-1.26-1.75-3.47-0.8-3.59,1.56c-0.13,2.36,1.69,5.55,3.13,8.59c1.74,3.68,3.07,6.26,3.07,6.26
	s-4.18-5.28-5.55-7.05c-1.37-1.77-3.84-4.14-5.1-2.37c-1.02,1.42,0.18,3.47,2.12,6.67c2.62,4.31,2.59,4.27,4.01,6.22
	c-1.17-1.66-1.96-1.9-3.61-3.04c-1.66-1.14-4.42-0.08-2.54,2.33c1.88,2.41,3.5,3.05,5,4.52c2.05,2.02,2.46,2.31,3.93,3.65
	c1.7,1.55,3.28,4.8,12.05,5.63c0.22,0.02,0.44,0.03,0.65,0.03l0.6,0.99C24.81,169.28,31.39,166.88,34.46,161.91z"/>
<path class="st30" d="M13.49,152.09c0,0-0.26-3.08-1.18-4.83c-0.92-1.75-3.24-5.17-3.9-6.41c-0.5-0.92-0.98-3.61-1.2-4.91
	c-0.11,0.25-0.18,0.52-0.19,0.81c-0.04,0.71,0.03,1.42,0.16,2.13c0.42,1.65,1.89,4.18,2.86,6.23c1.74,3.68,3.07,6.26,3.07,6.26l0,0
	c0.09,0.14,0.14,0.22,0.14,0.22s-0.03-0.02-0.08-0.06C13.37,151.88,13.49,152.09,13.49,152.09z"/>
<path class="st30" d="M26.12,168.72c-0.36-0.32-0.47-0.69-0.86-1.2c-0.4-0.5,1.31-1.99,1.31-1.99s-1.63,0.64-3.51,1.14
	c-1.88,0.49-5.97-0.65-8.04-1.99c-2.07-1.34-2.99-3.35-4.1-3.98c-1.11-0.63-4.57-3.61-7.07-5.8c-1.48-1.29-1.73-2.07-1.68-2.59
	c-0.33,0.48-0.3,1.21,0.43,2.14c1.88,2.41,3.5,3.05,5,4.52c1.21,1.19,1.85,1.78,2.47,2.34c0.43,0.38,0.82,0.73,1.39,1.25
	c0.82,0.73,1.63,1.88,3.19,2.98c1.7,1.18,4.31,2.28,8.92,2.72c0.22,0.02,0.44,0.03,0.65,0.03l0.04,0.07c0.01,0,0.01,0,0.02,0
	l0.56,0.91C24.88,169.26,25.37,169.07,26.12,168.72z"/>
<path class="st30" d="M2.18,142.63c-0.1,0.24-0.15,0.51-0.18,0.79c0.04,1.32,1.05,3.04,2.48,5.4c1.96,3.23,2.27,3.46,3.09,4.82
	c0.21,0.3,0.44,0.62,0.72,1.01c0.47,0.78,1.21,0.67,1.38,0.95c-1.01-1.64-2.26-4.58-5.71-8.8C2.24,144.68,2.12,143.37,2.18,142.63z"
	/>
<path class="st30" d="M18.7,148.63c0,0-0.33-3.14-0.39-3.47c-0.06-0.34-0.58-2.05-1.61-4.73c-0.71-1.84-1.37-4.56-1.46-6.29
	c-0.51,0.64-0.71,1.7-0.29,3.27c1.33,4.91,3.53,10.49,3.53,10.49s-0.22-0.32-0.59-0.84C18.34,147.93,18.7,148.63,18.7,148.63z"/>
<path class="st30" d="M25.42,152.4c1.1-2.5,1.92-3.69,1.92-3.69s-0.48-2.33-0.65-3.4c-0.17-1.08-0.28-1.96-0.42-4
	c-0.09-1.44,0.4-2.66,0.75-3.32c-0.65,0.9-1.16,2.15-1.22,3.66c-0.13,3.13,0.43,5.98,0.55,6.54l-0.13-0.06
	c-0.07-0.08-0.16-0.18-0.27-0.3c0.02,0.25,0.04,0.41,0.04,0.41l0.03,0.01c-0.4,0.67-1.91,3.33-1.96,5.68
	c-0.06,2.71,1.12,4.64,1.12,4.64S24.32,154.9,25.42,152.4z"/>
<path class="st43" d="M13.4,79.4c-0.52-5.68-2.8-21.59-3.28-25.29c-0.48-3.71,1.98-8.41,9.82-12.01s36.93-10.26,48.74-11.35
	c13.34-1.23,17.97,3.73,21.33,8.2c3.37,4.47,10.55,39.46,10.49,40.76c-0.05,1.3-83.4,6.33-83.4,6.33L13.4,79.4z"/>
<path d="M16.48,87.18l-4.14-7.45l-0.02-0.23c-0.39-4.21-1.73-13.95-2.62-20.4c-0.3-2.17-0.54-3.91-0.66-4.85
	c-0.31-2.37,0.1-8.39,10.44-13.14c8.33-3.82,37.61-10.39,49.09-11.44c13.64-1.26,18.66,3.8,22.3,8.63
	c3.46,4.59,10.78,39.75,10.71,41.46c-0.05,1.22-0.05,1.41-14.05,2.58c-6.93,0.58-16.58,1.29-28.68,2.12
	c-20.61,1.41-41.48,2.67-41.69,2.68L16.48,87.18z M14.46,79.07l3.25,5.85c30.39-1.84,75.21-4.83,81.61-5.97
	C98.49,73.37,92,43.41,89.13,39.61c-3.44-4.56-7.83-8.93-20.36-7.77c-12,1.1-40.94,7.83-48.38,11.25c-6.27,2.88-9.7,6.94-9.19,10.88
	c0.12,0.94,0.36,2.68,0.66,4.84C12.73,65.15,14.05,74.7,14.46,79.07z"/>
<path class="st28" d="M105.15,113.25c1.22,0,3.34,0.8,4.6,0.5c5.04-1.18,8.44-7.62,7.59-14.38c-0.85-6.76-5.61-11.27-10.65-10.09
	c-1.22,0.29-3.22,1.63-4.21,2.46"/>
<path d="M109.11,114.92c-0.76,0-1.59,0.05-2.39-0.11c-0.59-0.12-1.33-0.48-1.71-0.48l0.24-1.83c0.61,0,1.25,0.3,1.99,0.36
	c1.38,0.12,1.73-0.04,2.25-0.16c4.5-1.06,7.53-6.97,6.76-13.18c-0.44-3.5-2.07-6.54-4.37-8.14c-1.54-1.07-3.25-1.42-4.95-1.02
	c-0.9,0.21-4.1,2.19-5.16,3.07l0.86-1.63c0.65-1.63,2.32-3.23,3.8-3.58c2.29-0.54,4.67-0.06,6.7,1.36c2.84,1.97,4.77,5.5,5.29,9.66
	c0.91,7.29-2.87,14.28-8.43,15.58C109.71,114.89,109.42,114.92,109.11,114.92z"/>
<radialGradient id="SVGID_5_" cx="-1529.3087" cy="-1849.1575" r="6.923" gradientTransform="matrix(0.8862 -0.2733 0.1987 0.9295 1831.5884 1401.7809)" gradientUnits="userSpaceOnUse">
	<stop  offset="0" style="stop-color:#E39E6E"/>
	<stop  offset="0.0368" style="stop-color:#E4A071"/>
	<stop  offset="0.4249" style="stop-color:#E9B48F"/>
	<stop  offset="0.7594" style="stop-color:#EDC0A1"/>
	<stop  offset="1" style="stop-color:#EEC4A7"/>
</radialGradient>
<path class="st44" d="M105.39,109.26c-0.09,0.89,1.82,0.16,2.76-0.08c3.77-0.96,6.27-5.16,5.58-9.37c-0.7-4.21-4.32-6.85-8.09-5.89
	c-0.94,0.24-1.8,0.68-2.55,1.27C103.09,95.19,106.25,101.19,105.39,109.26z"/>
<path class="st28" d="M29.64,115.84c2.22,6.42-0.05,12.65-5.07,13.91c-5.02,1.26-10.89-2.93-13.11-9.35
	c-2.22-6.43,0.05-12.65,5.07-13.91C21.55,105.23,27.42,109.41,29.64,115.84z"/>
<path d="M22.77,131.13c-5.03,0-10.3-4.24-12.41-10.36c-1.37-3.97-1.2-8.01,0.46-11.09c1.2-2.21,3.13-3.75,5.42-4.33
	c5.58-1.4,12.09,3.13,14.5,10.11c1.37,3.97,1.21,8.01-0.46,11.09c-1.2,2.21-3.13,3.75-5.43,4.33
	C24.17,131.05,23.47,131.13,22.77,131.13z M18.38,107.42c-0.53,0-1.06,0.06-1.57,0.19c-1.68,0.42-3.04,1.52-3.94,3.18
	c-1.34,2.47-1.45,5.92-0.31,9.22c2.02,5.86,7.29,9.71,11.73,8.6c1.68-0.42,3.05-1.52,3.94-3.18c1.34-2.47,1.45-5.92,0.31-9.22l0,0
	C26.75,111.04,22.43,107.42,18.38,107.42z"/>
<radialGradient id="SVGID_6_" cx="-7012.2832" cy="-1326.8835" r="7.8092" gradientTransform="matrix(-0.9089 0.2242 0.256 0.9941 -6011.9761 3008.9968)" gradientUnits="userSpaceOnUse">
	<stop  offset="0" style="stop-color:#E39E6E"/>
	<stop  offset="0.0368" style="stop-color:#E4A071"/>
	<stop  offset="0.4249" style="stop-color:#E9B48F"/>
	<stop  offset="0.7594" style="stop-color:#EDC0A1"/>
	<stop  offset="1" style="stop-color:#EEC4A7"/>
</radialGradient>
<path class="st45" d="M28.51,115.74c1.34,4.4-0.63,8.89-4.41,10.03c-3.77,1.15-7.93-1.48-9.27-5.88c-1.5-4.92,2.14-9.17,2.86-9.39
	C21.46,109.36,27.17,111.35,28.51,115.74z"/>
<radialGradient id="SVGID_7_" cx="-172.8957" cy="-1507.9601" r="34.7437" gradientTransform="matrix(1 -3.167033e-03 3.167033e-03 1 250.2361 1622.8889)" gradientUnits="userSpaceOnUse">
	<stop  offset="0" style="stop-color:#E39E6E"/>
	<stop  offset="0.0368" style="stop-color:#E4A071"/>
	<stop  offset="0.4249" style="stop-color:#E9B48F"/>
	<stop  offset="0.7594" style="stop-color:#EDC0A1"/>
	<stop  offset="1" style="stop-color:#EEC4A7"/>
</radialGradient>
<path class="st46" d="M105.59,91.24c-0.34-1.65-0.86-3.89-1.58-6.24c-0.26,1.09-12.89-5.7-11.77-4.47
	c10.04,11.05,12.23,47.26-7.3,59.51c-14.88,9.34-36.5,8.51-46.72,3.87c8.83,6.01,20.18,8.34,33.8,5.42
	C99.81,143.37,111.16,118.42,105.59,91.24z"/>
<path class="st28" d="M105.59,91.24c5.57,27.19-5.78,52.13-33.57,58.08c-29.55,6.32-48.41-11.98-53.98-39.17
	c-1.98-9.67-6.53-26.91,7.11-29.57c38.34-12.31,51.33-10.03,69.92-7.85C101.28,73.46,104.45,85.68,105.59,91.24z"/>
<path d="M60.63,151.75c-8.33,0-15.85-2.16-22.44-6.47c-10.53-6.88-18.09-19.27-21.29-34.89c-0.12-0.58-0.25-1.19-0.38-1.82
	c-1.58-7.51-3.75-17.8,0.44-24.13c1.73-2.61,4.38-4.28,7.9-4.98C61.8,67.6,75.53,69.23,92.91,71.3l2.29,0.27
	c6.73,0.79,10.11,12.51,11.53,19.43v0c6.11,29.84-7.74,53.73-34.46,59.46C68.23,151.32,64.35,151.75,60.63,151.75z M74.01,72.18
	c-11.44,0-25.34,2.07-48.51,9.51l-0.13,0.03c-2.95,0.58-5.07,1.88-6.47,3.99c-3.66,5.52-1.6,15.25-0.1,22.36
	c0.13,0.64,0.26,1.25,0.38,1.83c3.07,15,10.28,26.87,20.28,33.41c9,5.88,19.87,7.51,32.32,4.85c25.38-5.43,38.5-28.22,32.67-56.71v0
	c-2.17-10.56-5.72-17.14-9.52-17.58l-2.3-0.27C86.38,72.87,80.6,72.18,74.01,72.18z"/>
<radialGradient id="SVGID_8_" cx="613.8368" cy="-2239.634" r="18.1991" gradientTransform="matrix(1.0193 -0.246 0.156 0.6754 -190.3043 1785.3722)" gradientUnits="userSpaceOnUse">
	<stop  offset="0" style="stop-color:#FF999E"/>
	<stop  offset="1" style="stop-color:#FF999E;stop-opacity:0"/>
</radialGradient>
<path class="st47" d="M104.47,117.2c1.57,6.79-5.46,14.3-15.71,16.77c-10.24,2.47-19.82-1.03-21.39-7.82
	c-1.57-6.79,5.46-14.3,15.71-16.77C93.33,106.92,102.9,110.41,104.47,117.2z"/>
<radialGradient id="SVGID_9_" cx="39.8726" cy="519.5046" r="18.1995" gradientTransform="matrix(1.0321 -0.1852 0.1157 0.6834 -56.7251 -217.4573)" gradientUnits="userSpaceOnUse">
	<stop  offset="0" style="stop-color:#FF999E"/>
	<stop  offset="1" style="stop-color:#FF999E;stop-opacity:0"/>
</radialGradient>
<path class="st48" d="M63.33,126.84c1.16,6.87-6.3,13.95-16.68,15.81c-10.37,1.86-19.72-2.2-20.89-9.07
	c-1.16-6.87,6.3-13.95,16.68-15.81C52.82,115.91,62.17,119.96,63.33,126.84z"/>
<path class="st1" d="M15.09,105.41c0,0,3.93,8.66,3.93,7.58c0-1.08-2.89-22.54-2.89-22.54l-4.11,1.75L15.09,105.41z"/>
<path d="M18.83,114.22c-0.75,0-1.42-1-4.76-8.36l-0.07-0.21l-3.29-14.13l6.32-2.68l0.19,1.45c0.48,3.59,2.9,21.58,2.9,22.68l0,0.9
	l-0.91,0.29C19.08,114.2,18.95,114.22,18.83,114.22z M16.15,105.05c0.35,0.78,0.73,1.58,1.09,2.36c-0.55-4.33-1.36-10.4-2.02-15.36
	l-1.91,0.81L16.15,105.05z"/>
<path class="st1" d="M105.3,86.16c0,0,1,9.69,0.56,8.7c-0.45-0.99-8.75-21.9-8.75-21.9l5.63-0.89L105.3,86.16z"/>
<path d="M105.29,96.25l-0.45-0.93c-0.45-1-8.43-21.09-8.77-21.94l-0.51-1.29l8.08-1.28l2.77,15.24c1,9.63,0.89,9.67-0.2,9.96
	L105.29,96.25z M98.66,73.84c1.5,3.77,3.91,9.82,5.73,14.39c-0.06-0.64-0.13-1.29-0.19-1.92l-2.36-12.97L98.66,73.84z"/>
<path class="st43" d="M14.43,104.02c0.34,0.76,13.04,5.31,45.51-0.91c33.07-6.33,45.71-17.3,45.71-17.3s-0.89-12.5-3.72-17.43
	S87.16,52.1,70.04,54.42S27.52,60.5,17.37,72.07C12.65,77.45,8.54,90.64,14.43,104.02z"/>
<path d="M30.28,107.44c-11.22,0-16.39-1.96-16.84-2.98l0,0C7.12,90.12,12,76.55,16.55,71.36c9.91-11.29,32.73-15.21,53.34-18.01
	c17.3-2.35,29.69,8.75,32.99,14.48c2.92,5.09,3.83,17.38,3.86,17.9l0.04,0.54l-0.41,0.36c-0.53,0.46-13.25,11.23-46.22,17.54
	C47.4,106.61,37.57,107.44,30.28,107.44z M15.33,103.35c1.9,1.05,15.09,4.31,44.42-1.31c29.18-5.59,42.36-14.85,44.79-16.72
	c-0.21-2.46-1.19-12.32-3.53-16.41C98.06,63.8,86.23,53.32,70.19,55.5c-14.61,1.98-41.8,5.67-52,17.29
	C14.01,77.55,9.57,90.02,15.33,103.35z M15.43,103.58C15.43,103.58,15.43,103.58,15.43,103.58L15.43,103.58
	C15.43,103.58,15.43,103.58,15.43,103.58z"/>
<path d="M12.01,93.29c-0.01,0-0.02,0-0.02,0l0.06-2.19c0,0,0.01,0,0.01,0c1.19,0,24.89-1.71,45.38-6.16
	c20.17-4.38,45.87-13.23,46.13-13.32l0.72,2.07c-0.26,0.09-26.07,8.98-46.38,13.39C37.28,91.56,13.27,93.29,12.01,93.29z"/>
<radialGradient id="SVGID_10_" cx="124.8145" cy="-2123.647" r="11.7657" gradientTransform="matrix(0.8868 -0.2064 0.2266 0.9739 426.7663 2179.4409)" gradientUnits="userSpaceOnUse">
	<stop  offset="0" style="stop-color:#FAE7C8"/>
	<stop  offset="0.1179" style="stop-color:#FAE5C2"/>
	<stop  offset="0.2794" style="stop-color:#FADFB0"/>
	<stop  offset="0.466" style="stop-color:#F9D693"/>
	<stop  offset="0.6699" style="stop-color:#F8C96B"/>
	<stop  offset="0.7576" style="stop-color:#F8C358"/>
	<stop  offset="1" style="stop-color:#E3912C"/>
</radialGradient>
<path class="st49" d="M63.35,92.65L53,95.06c-4.07,0.95-8.17-1.61-9.11-5.67l-0.51-2.19c-0.95-4.07,1.61-8.17,5.67-9.11l10.36-2.41
	c4.07-0.95,8.17,1.61,9.11,5.67l0.51,2.19C69.97,87.6,67.42,91.7,63.35,92.65z"/>
<path d="M51.28,97.35c-4.4,0-8.39-3.02-9.43-7.49l-0.51-2.19c-1.21-5.2,2.04-10.42,7.24-11.63l10.35-2.41
	c5.2-1.21,10.42,2.04,11.63,7.24l0.51,2.19c1.21,5.2-2.04,10.42-7.24,11.63l-10.36,2.41C52.74,97.27,52,97.35,51.28,97.35z
	 M61.12,77.57c-0.41,0-0.83,0.05-1.25,0.14l-10.35,2.41c-2.95,0.69-4.79,3.65-4.11,6.6l0.51,2.19c0.69,2.95,3.65,4.79,6.6,4.11
	l10.36-2.41c2.95-0.69,4.79-3.65,4.11-6.6l-0.51-2.19C65.89,79.28,63.62,77.57,61.12,77.57z"/>
<path class="st14" d="M58.74,79.53l-11.06,2.5c-0.1,0.02-0.16,0.08-0.14,0.14l0.86,3.83l-1.71,0.38l-1.08-4.8
	c-0.03-0.15,0.05-0.25,0.27-0.29l8.22-1.86l-0.18-0.8l1.77-0.4l0.18,0.8l2.61-0.59 M50.83,93.64l-1.73,0.39l-1.17-5.18
	c-0.06-0.26,0.1-0.42,0.48-0.51l16.28-3.68c0.4-0.09,0.62-0.02,0.68,0.27l1.17,5.16l-1.71,0.39l-0.13-0.59L50.7,93.06L50.83,93.64z
	 M55.99,87.77l-5.96,1.35c-0.17,0.04-0.22,0.11-0.17,0.21l0.16,0.71l6.17-1.4L55.99,87.77z M56.44,89.73l-6.17,1.39l0.19,0.84
	l6.17-1.39L56.44,89.73z M62.38,79.46l0.23,1.03l-13.94,3.15l-0.23-1.03L62.38,79.46z M63.24,84.29l-13.5,3.05
	c-0.15,0.03-0.24-0.01-0.27-0.13l-0.6-2.65c-0.02-0.1,0.05-0.17,0.2-0.2l13.5-3.05c0.17-0.04,0.26-0.01,0.29,0.09l0.6,2.65
	C63.48,84.17,63.41,84.25,63.24,84.29z M50.83,85.03c-0.06,0.01-0.08,0.03-0.05,0.06l0.18,0.83l0.08,0.05l10.43-2.36l0.05-0.08
	l-0.19-0.82l-0.07-0.03L50.83,85.03z M57.92,88.25l6.11-1.38l-0.16-0.71c-0.02-0.1-0.12-0.14-0.29-0.1l-5.86,1.32L57.92,88.25z
	 M58.35,90.18l6.11-1.38l-0.19-0.84l-6.11,1.38L58.35,90.18z"/>
<path d="M47.53,96.54l-1.63-7.22c-0.05-0.2-0.07-0.41-0.06-0.61l-0.72,0.16l-1.55-6.83c-0.14-0.61-0.03-1.23,0.3-1.74
	c0.24-0.38,0.71-0.87,1.56-1.06l6.16-1.39l-0.18-0.8l5.85-1.33l0.18,0.8L58,76.4l0.25,1.09l0.03-0.01l0.16,0.72l5.52-1.25l1.31,5.6
	c1.16,0.12,1.94,0.96,2.16,1.91l1.63,7.2l-5.8,1.31l-0.13-0.59l-9.92,2.24l0.13,0.59L47.53,96.54z"/>
<path class="st14" d="M55.79,79.05l8.22-1.86c0.21-0.05,0.33,0.01,0.36,0.15l1.08,4.8l-1.71,0.39l-0.86-3.82
	c-0.01-0.06-0.09-0.09-0.19-0.06l-6.66,1.5L55.79,79.05z"/>
<path d="M62.17,85.02l-0.89-3.93l-6.82,1.54l-1.17-5.17l10.26-2.32c1.35-0.3,2.58,0.45,2.87,1.73l1.54,6.84L62.17,85.02z"/>
<path class="st50" d="M63.35,92.65L53,95.06c-4.07,0.95-8.17-1.61-9.11-5.67l-0.51-2.19c-0.95-4.07,1.61-8.17,5.67-9.11l10.36-2.41
	c4.07-0.95,8.17,1.61,9.11,5.67l0.51,2.19C69.97,87.6,67.42,91.7,63.35,92.65z"/>
<path class="st1" d="M51.28,96c-3.79,0-7.22-2.6-8.11-6.45l-0.51-2.19c-1.04-4.47,1.75-8.96,6.23-10l10.35-2.41
	c4.47-1.04,8.96,1.75,10,6.23l0.51,2.19c1.04,4.47-1.75,8.96-6.23,10l-10.36,2.41C52.53,95.93,51.9,96,51.28,96z M61.12,76.22
	c-0.51,0-1.03,0.06-1.55,0.18L49.22,78.8c-3.68,0.86-5.97,4.54-5.12,8.22l0.51,2.19c0.86,3.68,4.54,5.97,8.22,5.12l10.36-2.41
	c3.68-0.86,5.97-4.54,5.12-8.22l-0.51-2.19C67.06,78.36,64.24,76.22,61.12,76.22z"/>
<path class="st51" d="M58.74,79.53l-11.06,2.5c-0.1,0.02-0.16,0.08-0.14,0.14l0.86,3.83l-1.71,0.38l-1.08-4.8
	c-0.03-0.15,0.05-0.25,0.27-0.29l8.22-1.86l-0.18-0.8l1.77-0.4l0.18,0.8l2.61-0.59 M50.83,93.64l-1.73,0.39l-1.17-5.18
	c-0.06-0.26,0.1-0.42,0.48-0.51l16.28-3.68c0.4-0.09,0.62-0.02,0.68,0.27l1.17,5.16l-1.71,0.39l-0.13-0.59L50.7,93.06L50.83,93.64z
	 M55.99,87.77l-5.96,1.35c-0.17,0.04-0.22,0.11-0.17,0.21l0.16,0.71l6.17-1.4L55.99,87.77z M56.44,89.73l-6.17,1.39l0.19,0.84
	l6.17-1.39L56.44,89.73z M62.38,79.46l0.23,1.03l-13.94,3.15l-0.23-1.03L62.38,79.46z M63.24,84.29l-13.5,3.05
	c-0.15,0.03-0.24-0.01-0.27-0.13l-0.6-2.65c-0.02-0.1,0.05-0.17,0.2-0.2l13.5-3.05c0.17-0.04,0.26-0.01,0.29,0.09l0.6,2.65
	C63.48,84.17,63.41,84.25,63.24,84.29z M50.83,85.03c-0.06,0.01-0.08,0.03-0.05,0.06l0.18,0.83l0.08,0.05l10.43-2.36l0.05-0.08
	l-0.19-0.82l-0.07-0.03L50.83,85.03z M57.92,88.25l6.11-1.38l-0.16-0.71c-0.02-0.1-0.12-0.14-0.29-0.1l-5.86,1.32L57.92,88.25z
	 M58.35,90.18l6.11-1.38l-0.19-0.84l-6.11,1.38L58.35,90.18z"/>
<path class="st51" d="M55.79,79.05l8.22-1.86c0.21-0.05,0.33,0.01,0.36,0.15l1.08,4.8l-1.71,0.39l-0.86-3.82
	c-0.01-0.06-0.09-0.09-0.19-0.06l-6.66,1.5L55.79,79.05z"/>
<path class="st13" d="M50.93,118.22c1.08,5.6-1.49,9.23-5.38,9.99c-3.89,0.75-7.63-1.67-8.72-7.26c-1.08-5.6,0.91-12.25,4.8-13.01
	C45.52,107.18,49.85,112.62,50.93,118.22z"/>
<path d="M50.85,117.76c1.02,5.3-1.34,8.72-4.93,9.42c-3.59,0.69-7.06-1.61-8.09-6.91c-1.02-5.3,0.79-11.58,4.38-12.28
	C45.81,107.3,49.83,112.46,50.85,117.76z"/>
<path class="st52" d="M50.14,117.8c0.92,4.76-1.2,7.84-4.43,8.47c-3.23,0.63-6.35-1.45-7.27-6.21c-0.92-4.76,0.71-10.41,3.94-11.04
	C45.61,108.4,49.22,113.04,50.14,117.8z"/>
<path d="M46.14,115.69c0.58,2.99-0.41,5.69-2.22,6.04c-1.8,0.35-3.73-1.79-4.31-4.78c-0.58-2.99,0.42-5.69,2.22-6.04
	C43.63,110.57,45.56,112.71,46.14,115.69z"/>
<path class="st53" d="M48.08,123.29c0.16,0.85-0.49,1.68-1.45,1.87c-0.97,0.19-1.88-0.35-2.04-1.19c-0.16-0.84,0.49-1.68,1.45-1.87
	C47,121.91,47.92,122.44,48.08,123.29z"/>
<path class="st13" d="M46.35,111.72c0.26,1.32-0.76,2.63-2.27,2.93c-1.51,0.29-2.94-0.54-3.2-1.87c-0.26-1.32,0.76-2.63,2.27-2.93
	C44.66,109.55,46.09,110.39,46.35,111.72z"/>
<path class="st13" d="M88.78,111.31c1.07,5.56-1.48,9.18-5.35,9.93c-3.87,0.75-7.59-1.66-8.67-7.22c-1.07-5.56,0.9-12.18,4.77-12.93
	C83.41,100.34,87.71,105.74,88.78,111.31z"/>
<path d="M89.11,111.04c1.02,5.3-1.34,8.72-4.93,9.42c-3.59,0.69-7.06-1.61-8.09-6.91c-1.02-5.3,0.79-11.58,4.38-12.28
	C84.07,100.59,88.09,105.74,89.11,111.04z"/>
<path class="st52" d="M88.4,111.08c0.92,4.76-1.2,7.84-4.43,8.47c-3.23,0.63-6.35-1.45-7.27-6.21c-0.92-4.76,0.71-10.41,3.94-11.04
	C83.87,101.68,87.48,106.32,88.4,111.08z"/>
<path d="M84.39,108.97c0.58,2.99-0.41,5.69-2.22,6.04c-1.8,0.35-3.73-1.79-4.31-4.78c-0.58-2.99,0.42-5.69,2.22-6.04
	C81.89,103.85,83.82,105.99,84.39,108.97z"/>
<path class="st53" d="M86.34,116.57c0.16,0.85-0.49,1.68-1.45,1.87c-0.97,0.19-1.88-0.35-2.04-1.19c-0.16-0.84,0.49-1.68,1.45-1.87
	C85.26,115.19,86.17,115.72,86.34,116.57z"/>
<path class="st13" d="M84.6,105c0.26,1.32-0.76,2.63-2.27,2.93c-1.51,0.29-2.94-0.54-3.2-1.87c-0.26-1.32,0.76-2.63,2.27-2.93
	C82.91,102.83,84.35,103.67,84.6,105z"/>
<path class="st6" d="M32.36,109.44c0,0,3.47-3.59,7.49-4.14c3.69-0.51,8.59,1.58,8.59,1.58l0.83-1.86
	C49.27,105.02,38.51,98.95,32.36,109.44z"/>
<path class="st6" d="M86.39,93.86c0,0-4.6-1.92-8.52-0.84c-3.59,0.99-7.26,4.85-7.26,4.85l-1.5-1.38
	C69.11,96.49,76.59,86.66,86.39,93.86z"/>
<path class="st54" d="M78.33,124l-23.34,5.75c0,0,5.91,17.16,16.4,14.58C81.88,141.75,78.33,124,78.33,124z"/>
<linearGradient id="SVGID_11_" gradientUnits="userSpaceOnUse" x1="-14267.3125" y1="233.2432" x2="-14252.7725" y2="212.7563" gradientTransform="matrix(-0.9705 0.2423 0.2885 0.8367 -13833.4189 3401.1313)">
	<stop  offset="0" style="stop-color:#8A2608"/>
	<stop  offset="0.3174" style="stop-color:#A43019"/>
	<stop  offset="0.7523" style="stop-color:#C13C2D"/>
	<stop  offset="1" style="stop-color:#CC4135"/>
</linearGradient>
<path class="st55" d="M78.49,124.45l-22.68,5.59c0,0,5.76,16.72,15.95,14.21C81.95,141.73,78.49,124.45,78.49,124.45z"/>
<path class="st56" d="M60.21,138.41c1.95-1.47,4.49-2.68,7.43-3.4c4.01-0.99,7.97-0.88,11.1,0.08c-0.66,4.09-2.5,8.05-6.98,9.15
	C66.82,145.46,62.92,142.14,60.21,138.41z"/>
</svg>
