<?xml version="1.0" encoding="utf-8"?>
<!-- Generator: Adobe Illustrator 23.0.2, SVG Export Plug-In . SVG Version: 6.00 Build 0)  -->
<svg version="1.1" id="栝鍣_1" xmlns="http://www.w3.org/2000/svg" xmlns:xlink="http://www.w3.org/1999/xlink" x="0px" y="0px"
	 viewBox="0 0 719.9 1227.21" style="enable-background:new 0 0 719.9 1227.21;" xml:space="preserve">
<style type="text/css">
	.st0{fill:#FFD345;}
	.st1{fill:#872730;}
	.st2{fill:#EC4452;}
	.st3{opacity:0.2;}
</style>
<path class="st0" d="M453.12,1227.21H266.77c-47.22,0-85.5-38.28-85.5-85.5v-684.3h357.36v684.3
	C538.63,1188.93,500.35,1227.21,453.12,1227.21z"/>
<g>
	<path d="M305.16,912.09c0.96-1.29,1.55-2.61,2.57-3.31c0.92-0.63,2.58-1.17,3.43-0.76c8.84,4.25,18.02,5.6,27.71,4.1
		c7.08-1.09,14.21-1.85,21.28-3.01c3.43-0.57,3.88-1.72,3.12-5.48c-0.41-2.02-3.01-3.99-5.03-3.72c-2.3,0.31-4.6,0.63-6.87,1.1
		c-6.06,1.26-11.96,2.17-17.86-1.12c-3.94-2.19-8.35-0.76-12.51-0.15c-7.59,1.12-14.87-0.44-22.11-2.27
		c-1.09-0.28-1.96-1.43-2.94-2.18c1.2-0.69,2.36-1.89,3.6-1.98c15-1.09,30.03-1.91,45.03-3.08c3.78-0.29,7.55-1.35,11.19-2.5
		c3.07-0.97,3.76-2.95,1.55-5.26c-2.66-2.79-5.95-5.03-9.17-7.22c-2.41-1.65-2.97-3.09-0.7-4.87c2-1.57,4.44-3.32,6.81-3.53
		c10.21-0.93,20.2,0.11,29.11,5.87c1.6,1.03,3.27,2.22,4.33,3.74c1.51,2.16,3.29,2.5,5.68,2.32c6.65-0.51,13.32-1.23,19.96-1.09
		c3.35,0.07,6.76,1.58,9.95,2.93c2.07,0.88,2.04,3.43,0.21,5.34c-3.75,3.92-8.56,5.46-13.79,6.2c-6.48,0.92-12.99,1.81-19.38,3.21
		c-3.31,0.73-4.43,4.07-5.75,6.91c1.77,2.28,3.46,2.45,6.28,1.73c11.12-2.84,22.38-5.17,33.61-7.57c2.95-0.63,6.01-0.78,8.99-1.31
		c3.56-0.62,6.76,0.29,9.25,2.69c3.61,3.49,7.27,7.06,10.12,11.15c1.11,1.59,0.75,5.02-0.17,7.05c-2.91,6.38-7.77,11.66-13.54,15.19
		c-4.68,2.86-10.78,2.32-16.13,0.27c-2.28-0.87-2.85-2.93-1.38-5.26c2.76-4.35,5.56-8.68,8.06-13.17c0.73-1.31,0.48-3.17,0.69-4.78
		c-1.41-0.09-2.91-0.55-4.21-0.21c-12,3.15-23.97,6.42-35.93,9.71c-1.02,0.28-2.27,0.7-2.82,1.47c-0.6,0.84-0.91,2.32-0.58,3.25
		c0.23,0.65,1.74,1.18,2.68,1.19c4.73,0.05,9.46-0.11,14.2-0.12c0.78,0,1.75,0.12,2.31,0.57c1.25,1.01,2.95,2.14,3.22,3.47
		c0.23,1.16-0.95,3.04-2.05,3.92c-1.61,1.29-3.63,2.19-5.61,2.87c-2.85,0.97-5.79,1.99-8.76,2.27c-3.92,0.38-5.29,2.97-6.25,6.01
		c-1.19,3.76,0.94,5.89,4.88,5.29c16.96-2.58,33.9-5.3,50.89-7.58c8.21-1.1,16.57-1.53,24.23,2.78c1.75,0.98,3.5,2.08,4.95,3.44
		c6.1,5.7,6.63,13.12,0.26,18.38c-7.27,6.01-15.01,11.7-23.28,16.2c-15.05,8.19-30.64,15.38-45.98,23.04
		c-0.95,0.48-1.65,1.45-2.47,2.19c1.2,0.92,2.33,2.51,3.6,2.63c2.99,0.28,6.05-0.33,9.07-0.25c8.67,0.22,17.33,0.61,25.99,0.93
		c0.2,0.01,0.42,0,0.6,0.08c1.65,0.72,4.14,0.49,4.27,3.08c0.14,2.77-2.29,2.99-4.15,3.54c-7.84,2.32-15.84,1.29-23.79,0.86
		c-5.2-0.28-10.03,0.92-14.65,3.02c-1.23,0.56-2.01,2.1-3,3.19c1.72,0.98,3.43,2.72,5.18,2.77c3.8,0.1,7.63-0.99,11.44-1
		c4.81,0,9.63,0.56,14.44,0.98c0.87,0.08,1.73,0.56,2.53,0.98c3.22,1.7,3.63,4.45,0.5,6.28c-4.06,2.37-8.4,4.4-12.83,5.99
		c-6.63,2.37-13.45,4.23-20.19,6.3c-0.09,3.1,0.68,3.85,3.57,3.27c7.22-1.44,14.41-3.06,21.66-4.39c7.6-1.39,15.09-0.31,22.47,1.65
		c0.9,0.24,1.59,1.31,2.38,1.99c-0.81,0.8-1.5,2.1-2.44,2.32c-5.39,1.27-10.8,2.57-16.27,3.33c-11.3,1.56-22.66,2.59-33.94,4.26
		c-2.89,0.43-5.55,2.45-8.33,3.7c-0.63,0.28-1.32,0.43-1.99,0.63c-1.84,0.54-3.74,0.92-5.5,1.64c-3.83,1.55-4.26,3.59-0.68,5.61
		c7.53,4.25,15.38,7.95,23.12,11.82c0.48,0.24,1.22,0.25,1.75,0.08c6.36-2.04,12.18-4.92,16.06-10.69c1.34-2,1.89-3.92,0.14-6.07
		c-0.5-0.61-0.78-2.15-0.39-2.59c0.92-1.04,2.4-2.46,3.48-2.33c3.87,0.46,7.79,1.17,11.48,2.42c3.89,1.32,4.88,4.11,2.34,7.33
		c-2.84,3.6-6.36,6.69-9.82,9.74c-2.1,1.85-4.68,3.17-6.97,4.82c-0.83,0.6-1.47,1.48-2.19,2.24c0.86,0.76,1.6,1.8,2.6,2.23
		c2.96,1.27,5.96,2.52,9.06,3.39c10.93,3.04,19.17,10.11,26.9,17.88c5.89,5.92,9.62,13.18,12.05,21.09c0.4,1.29,0.18,3.12-0.46,4.31
		c-1.04,1.92-3.04,1.75-4.78,0.86c-8.79-4.52-17.65-8.91-26.29-13.71c-9.44-5.24-18.59-10.99-28.01-16.28
		c-2.95-1.66-6.27-2.88-9.57-3.63c-1.32-0.3-3.5,0.85-4.49,2.02c-1.16,1.37-1.59,3.43-2.08,5.26
		c-3.62,13.34-10.12,25.05-20.17,34.55c-7.23,6.84-17.29,7.87-24.53,3.03c-5.42-3.62-7.35-9.29-8.1-15.29
		c-0.4-3.19-0.1-6.64,0.68-9.77c1.93-7.72,4.36-15.32,6.49-23c0.28-1.02,0-2.19-0.03-3.29c-1.28,0.31-2.84,0.25-3.81,0.98
		c-6.96,5.2-13.67,10.72-20.69,15.83c-12.28,8.92-25.1,16.96-39.35,22.41c-1.82,0.7-4.29,1.34-5.89,0.66
		c-3.41-1.44-6.79-3.62-7.75-7.54c-0.35-1.42,0.56-3.53,1.55-4.81c4.69-6.1,10.93-10.46,17.43-14.37c3.77-2.26,7.82-4.06,11.78-6
		c0.46-0.22,1.12-0.03,1.98-0.03c-0.32,1.32-0.59,2.43-1.03,4.24c1.64-0.25,3-0.19,4.14-0.67c16.43-6.95,29.26-18.47,40.33-32.14
		c1.26-1.55,4.18-2.82,2.36-5.73c-1.47-2.35-4.74-3.34-8.13-2.67c-6.53,1.29-13.04,2.88-19.63,3.68
		c-6.16,0.75-12.41,0.75-18.63,0.83c-1.52,0.02-3.15-0.75-4.56-1.49c-0.87-0.46-1.95-1.54-1.95-2.34c0-0.73,1.23-1.93,2.09-2.11
		c5.31-1.15,10.63-2.44,16.02-2.98c7.52-0.75,14.7-2.58,21.6-5.52c1.92-0.82,4.91-1.27,4.34-4.48c-0.6-3.37-4.19-6.36-7.23-6.28
		c-7.27,0.19-14.55,0.31-21.81,0.72c-2.36,0.13-3.6-0.68-4.52-3.15c1.28-0.62,2.53-1.42,3.89-1.84c7.14-2.16,14.33-4.16,21.45-6.36
		c2.68-0.83,5.36-1.84,7.79-3.22c0.93-0.52,1.69-2.36,1.54-3.45c-0.12-0.88-1.65-1.9-2.74-2.21c-1.18-0.33-2.59-0.04-3.86,0.21
		c-4.66,0.9-9.26,2.36-13.95,2.69c-3.68,0.26-7.48-0.7-11.17-1.4c-0.82-0.16-1.96-1.48-1.96-2.27c0-0.73,1.2-1.88,2.08-2.13
		c4.17-1.18,8.44-2,12.6-3.18c2.4-0.68,4.74-1.7,6.99-2.8c1.67-0.81,2.03-2.09,0.54-3.62c-0.97-1.01-1.85-2.15-2.56-3.36
		c-2.86-4.85-2.51-7.97,1.55-11.77c4.19-3.94,8.55-7.7,12.83-11.54c-1.41-4.02-1.98-4.3-5.82-2.89c-1.51,0.56-3.05,1.06-4.56,1.62
		c-7.21,2.65-14.04-0.84-16.36-8.22c-0.3-0.95-1.39-2.13-2.3-2.32c-3.14-0.64-6.36-1.05-9.57-1.22c-2.16-0.11-4.88,3.44-4.5,5.54
		c0.31,1.68,1.07,2.67,2.88,1.35c0.9-0.65,1.79-1.35,2.78-1.82c2.47-1.16,4.86,0.18,5.35,2.9c0.02,0.1,0.04,0.2,0.03,0.3
		c-1,7.83,3.69,13.07,8.34,18.34c3.09,3.5,2.74,7.67,1.83,11.74c-0.45,2.02-2.31,2.89-4.34,2.16c-4.98-1.78-9.7-4.05-13.39-7.99
		c-2.8-2.99-4.29-6.53-4.43-10.66c-0.09-2.82-0.34-5.63-1.24-9.1c-0.94,0.85-2.27,1.52-2.74,2.58c-1.29,2.95-2.32,6.02-3.26,9.1
		c-0.82,2.69-2.6,3.64-5.22,3.51c-5.86-0.3-14.18-7.4-15.23-13.19c-0.18-0.97,0.28-2.2,0.8-3.11c3.59-6.32,7.14-12.66,10.98-18.82
		c1.55-2.49,1.91-4.86,0.86-7.43c-1.87-4.57-3.88-9.08-5.84-13.61c-0.43-0.99-0.88-1.98-0.89-3.66c1.07,0.43,2.28,0.68,3.19,1.33
		c7.57,5.37,15.14,10.75,22.6,16.28c1.72,1.27,3.14,1.61,5.24,1.05c16.63-4.4,33.56-7.08,50.66-8.75c1.92-0.19,4.21,0.12,5.21-2.25
		c0.54-1.29,1.67-3.08,1.21-3.89c-0.91-1.6-2.28-3.05-4.8-2.99c-8.57,0.2-17.14,0.04-25.72,0.1c-1.39,0.01-2.78,0.42-4.15,0.75
		c-5.32,1.28-9.25,0.11-11.85-4.71c-2.07-3.84-3.5-8.14-4.52-12.4c-1.48-6.24-2.97-7.77-9.37-9.05c-3.21-0.64-6.33-1.97-9.34-3.33
		c-0.98-0.44-1.46-1.97-2.17-3c1.33-0.41,2.72-1.29,3.97-1.13C299.19,910.55,302.11,911.41,305.16,912.09z M416.74,957.22
		c-1.4,0-2.82-0.2-4.18,0.03c-6.95,1.18-14.05,1.9-20.78,3.85c-8.82,2.55-17.44,4.77-26.58,1.95c-1.34-0.41-2.8-0.38-4.17-0.71
		c-2.02-0.49-3.07,0.23-3.26,1.94c2.59,2.45,5.05,4.68,7.38,7.03c1.91,1.94,3.81,2.49,6.26,0.93c1.94-1.23,4.06-2.17,6.05-3.21
		c2.16,2.22,2.74,3.73,3.39,8.65c0.86,6.53,5.33,11.34,11.75,12.92c2.35,0.58,4.36,0.38,6.22-1.2c3.85-3.26,7.78-6.44,11.51-9.82
		c0.95-0.86,2.08-2.7,1.75-3.53c-0.78-1.96-2.71-0.93-4.23-0.56c-1.07,0.26-2.18,0.5-3.18,0.95c-5.33,2.39-10.07,0.68-14.58-2.15
		c-1.19-0.74-1.99-2.11-2.97-3.19c1.1-0.91,2.05-2.23,3.31-2.65c8.03-2.65,16.12-5.16,24.23-7.56
		C416.72,960.28,417.74,959.52,416.74,957.22z M377.36,1089.77c-1.88,0.32-3.31,0.36-4.54,0.88c-0.53,0.22-1.08,1.61-0.86,2.16
		c0.8,1.98-0.06,3.14-1.34,4.46c-0.88,0.91-1.66,2.13-1.99,3.34c-2.18,8.21-4.3,16.44-6.18,24.72c-0.19,0.85,1.19,2.3,2.17,3.07
		c0.52,0.41,1.83,0.17,2.59-0.19c1.17-0.55,2.28-1.34,3.21-2.24c7.8-7.57,15.57-15.18,23.31-22.81c0.3-0.3,0.54-0.87,0.49-1.28
		c-0.24-1.97-3.54-3.93-5.55-3.96c-2.95-0.03-6.04-0.07-8.79-0.96C376.78,1095.97,376.11,1093.75,377.36,1089.77z M328.07,923.97
		c-0.85,0.26-2.84,0.34-3.14,1.09c-0.39,0.99,0.26,2.7,0.97,3.76c1.5,2.24,3.23,4.36,5.07,6.33c0.66,0.71,1.98,1.36,2.86,1.21
		c8.81-1.52,17.62-3.12,26.37-4.97c1.29-0.27,3.21-1.97,3.18-2.95c-0.04-1.37-1.47-2.9-2.67-3.95c-0.68-0.6-2.09-0.5-3.17-0.5
		C347.89,923.96,338.23,923.97,328.07,923.97z M364.29,987.44c-0.43,0.1-0.86,0.2-1.28,0.3c2.55,6.72-2.54,9.45-5.98,13.03
		c-0.7,0.73-1.7,1.3-2.08,2.16c-0.44,0.98-0.87,2.73-0.38,3.21c1.92,1.91,3.71,4.1,7.12,3.69c4.29-0.52,8.66-0.75,12.97-0.56
		c3.68,0.17,5.35-1.9,7.12-4.68C375.87,998.81,370.08,993.12,364.29,987.44z M440.08,963.69c0.95-0.26,1.71-0.23,2.07-0.6
		c2.86-2.95,5.85-5.83,8.36-9.06c1.22-1.57-0.64-4.9-2.29-4.55c-5.1,1.1-10.21,2.27-15.19,3.84c-2.42,0.76-2.37,3.64-0.29,5.14
		c1.64,1.17,3.16,2.5,4.79,3.68C438.39,962.77,439.35,963.25,440.08,963.69z M363.33,1031.18c4.29-1.02,7.94-1.69,11.45-2.8
		c1.88-0.59,3.35-2.21,2.72-4.45c-0.66-2.36-2.42-3.7-4.95-3.66c-1.3,0.02-2.62,0.2-3.9,0.49c-3.82,0.86-7.71,1.53-11.39,2.8
		c-2.81,0.96-3.16,3-0.79,4.72C358.5,1029.76,361.19,1030.32,363.33,1031.18z M352.25,962.65c-0.3-0.26-0.61-0.53-0.91-0.79
		c-11.04,1.27-20.56,6.61-30.16,11.69c-0.42,0.22-0.77,1.28-0.6,1.75c0.16,0.45,1.06,0.9,1.61,0.88c1.51-0.06,3.12-0.09,4.48-0.63
		c8.04-3.22,16.04-6.53,23.98-9.99C351.45,965.2,351.73,963.65,352.25,962.65z M372.58,1043.51c-1.71-0.49-3.33-1.55-4.53-1.19
		c-2.85,0.86-5.57,2.26-8.2,3.72c-0.85,0.47-1.92,2.28-1.69,2.61c0.73,1.01,1.98,2.12,3.14,2.27
		C366.04,1051.52,370.3,1048.75,372.58,1043.51z"/>
	<g>
		<path d="M336.54,629.2c-12.31,8.68-16.39,22.53-23.77,34.08c-4.5,7.04-8.21,14.59-12.11,21.99c-0.65,1.24-1.16,3.48-0.52,4.3
			c1.24,1.58,3.19,2.45,5.65,1.9c9.06-2.04,18.16-3.86,27.25-5.76c3.95-0.83,7.95-1.48,11.84-2.53c4.88-1.32,7.3,1.93,9.68,5.01
			c2.52,3.24,2.77,6.89,0.33,9.79c-2.24,2.66-5,4.96-7.85,6.98c-2.01,1.43-3.28,3.31-2.49,5.23c0.81,1.96,2.54,3.83,5.47,3.36
			c2.57-0.41,5.27-0.8,7.8-0.43c5.95,0.87,8.2,5.74,4.36,10.31c-4.13,4.9-9.07,9.16-13.94,13.36c-2.09,1.8-3.84,3.52-4.16,6.3
			c-0.12,1-0.3,2.59,0.22,2.94c1.02,0.7,2.51,1.04,3.78,0.97c3.8-0.21,7.6-1.04,11.38-0.91c1.86,0.06,4.17,1.29,5.38,2.73
			c3.54,4.23,5.01,9.03,2.78,14.6c-3.52,8.82-8.9,16.5-14.34,24.15c-1.93,2.71-3.89,5.43-6.04,7.97c-1.78,2.11-0.9,3.45,1.12,4.08
			c2.48,0.78,5.11,1.44,7.68,1.44c3.48,0,6.49,0.95,9.45,2.62c3.04,1.72,4.61,1.23,5.29-2.19c1.49-7.51,2.63-15.1,3.75-22.67
			c0.71-4.79,0.85-9.68,1.78-14.42c1.17-5.93,0.1-11.67-0.71-17.44c-0.32-2.31,0.4-2.79,2.52-2.73c8.65,0.24,15.59,8.62,14.28,17.23
			c-0.13,0.87,0.31,2.31,0.95,2.68c0.83,0.47,2.46,0.59,3.18,0.07c8.73-6.35,17.36-12.83,26.01-19.29c1.65-1.23,2.45-2.79,2.09-4.97
			c-0.59-3.47-0.86-6.99-1.5-10.45c-0.55-2.98-2.57-4.37-5.61-4.49c-1.9-0.08-3.84-0.3-5.68-0.75c-4.75-1.18-7.72-3.98-8.4-9.12
			c-0.22-1.69-1.2-3.48-2.32-4.81c-5.75-6.76-11.69-13.36-17.49-20.08c-1.21-1.4-1.95-3.22-3.2-4.59c-2.42-2.66-4.96-5.21-7.61-7.64
			c-1.25-1.14-2.91-1.81-4.29-2.83c-0.55-0.41-0.82-1.19-1.22-1.8c0.71-0.44,1.38-1.05,2.15-1.25c0.62-0.16,1.37,0.2,2.06,0.33
			c11.19,2.15,22.36,4.43,33.59,6.4c8.64,1.52,17.1-0.56,25.52-2.12c6.34-1.18,12.59-2.86,18.91-4.17c2.29-0.48,3.58-1.65,3.96-3.91
			c0.59-3.48,1.34-6.94,1.74-10.43c0.43-3.74-1.35-5.01-5.04-4.03c-8.48,2.25-16.89,4.96-25.5,6.5c-8.8,1.57-17.79,2.33-26.73,2.75
			c-6.06,0.28-11.42-2.14-15.51-7.81c2.94-2.78,5.99-5.38,8.72-8.3c5.82-6.23,10.56-13.23,14.08-21.02
			c1.33-2.93-0.02-5.25-1.83-7.45c-2.09-2.53-2.3-4.61,0.01-6.88c1.98-1.94,4.34-3.67,6.84-4.84c3.36-1.56,7.05-2.41,10.54-3.72
			c3.49-1.3,6.39-0.44,8.78,2.19c6.71,7.39,7.69,7.61,2.72,16.21c-5.02,8.7-11.35,16.66-17.12,24.92c-0.8,1.14-1.73,2.2-2.53,3.21
			c0.99,2.71,2.46,1.45,3.88,0.82c11.87-5.3,23.68-10.73,35.64-15.82c9.57-4.07,19.33-3.44,28.94,0.12
			c1.77,0.65,3.49,1.62,5.01,2.75c2.57,1.92,3.55,4.56,2.76,7.77c-2.81,11.35-7.69,21.85-13.16,32.11c-0.9,1.69-1.98,3.3-2.7,5.07
			c-3.51,8.59-2.88,11.23,3.96,17.36c0.6,0.54,1.2,1.08,1.83,1.59c1.96,1.58,1.98,3.53,0.06,4.75c-3.37,2.13-7.04,3.78-10.58,5.66
			c-1.83,0.97-3.74,1.83-5.43,3.02c-2.06,1.45-3.93,3.17-5.87,4.78c-2.66,2.22-5.44,3.67-9.11,2.46c-2.61-0.87-4.39,0.52-4.99,3.03
			c-0.55,2.34-0.78,4.76-1,7.16c-0.25,2.69,1.17,3.56,3.73,3.31c5.81-0.58,11.63-1.32,17.46-1.46c5.79-0.14,11.13,1.86,15.82,5.27
			c4.9,3.57,7.24,8.68,7.61,14.57c0.98,15.83,1.99,31.66,2.52,47.51c0.25,7.47-0.93,14.92-3.7,21.98
			c-4.79,12.2-15.48,14.62-27.04,10.58c-3.54-1.24-6.68-3.69-9.89-5.78c-2.79-1.82-3.58-1.8-4.27,1.54c-1,4.82-1.89,9.72-2.2,14.63
			c-0.56,8.92-1.4,17.72-5.54,25.83c-1.6,3.14-3.29,6.24-5.07,9.28c-0.39,0.66-1.5,1.48-2.03,1.34c-0.77-0.21-1.74-1.17-1.88-1.94
			c-0.95-5.36-2.19-10.73-2.42-16.14c-0.65-14.83-1.01-29.68-1.18-44.52c-0.19-16.88-0.04-33.76-0.05-50.64
			c0-1.21,0.07-2.48-0.26-3.61c-0.5-1.72-1.72-2.99-3.62-1.98c-10.05,5.34-19.65,11.29-26.51,20.69c-4.27,5.85-6.01,12.29-5.2,19.67
			c0.51,4.64,0.03,9.47-0.63,14.13c-0.31,2.23-1.75,4.53-3.26,6.31c-2.03,2.39-4.38,2.29-6.9,0.38c-2.01-1.52-4.01-3.05-6.07-4.62
			c-8.98,7.11-19.16,11.77-29.58,15.9c-6.74,2.67-11.83,7.27-16.39,12.6c-5.91,6.91-11.48,14.2-19.32,19.07
			c-4.24,2.63-8.8,4.87-13.47,6.63c-3.87,1.45-5.56,0.63-7.41-3.09c-2.7-5.4-5.29-10.91-7.25-16.61c-0.66-1.93,0.08-5.05,1.33-6.81
			c4.13-5.81,8.62-11.39,13.27-16.81c8.15-9.51,16.54-18.81,24.74-28.27c0.59-0.68,0.98-2.33,0.57-2.9
			c-0.52-0.74-2.05-1.35-2.95-1.15c-10.71,2.33-20.84-0.26-30.83-3.62c-2.59-0.87-4.94-2.47-7.39-3.74
			c0.02-0.34,0.05-0.68,0.07-1.01c1.18-0.6,2.29-1.43,3.54-1.76c3.5-0.94,7.02-1.99,10.6-2.43c4.95-0.62,9.41-2.18,13.24-5.36
			c4.88-4.04,9.82-8.03,14.47-12.33c1.35-1.25,3.2-3.35,0.98-5.47c-0.64-0.61-2.31-1.03-2.94-0.64c-9.73,6.14-19.75,5.57-29.81,1.28
			c-4.13-1.76-8.14-3.95-11.86-6.45c-2.62-1.76-2.17-3.27,0.94-4.29c2.39-0.79,4.85-1.66,7.33-1.82c8.6-0.56,15.51-4.81,22.11-9.75
			c5.17-3.87,10.23-7.91,15.26-11.97c3.57-2.88,3.77-4.12,1.85-8.28c-4.45-9.64-10.88-17.43-20.65-22.11
			c-4.54-2.18-5.37-2.2-8.39,1.89c-7.02,9.5-13.43,19.47-20.8,28.69c-11.87,14.86-24.84,28.76-40.38,39.93
			c-2.65,1.9-5.87,3.09-8.96,4.24c-0.94,0.35-2.33-0.54-3.52-0.87c0.33-1.03,0.4-2.27,1.03-3.06c17.2-21.57,33.84-43.56,48.41-67.02
			c14.79-23.82,26.89-48.96,36.13-75.45c0.82-2.34,0.56-4.33-0.87-6.23c-1.88-2.5-3.88-4.91-5.65-7.49
			c-0.6-0.87-1.21-2.64-0.81-3.08c0.69-0.75,2.32-1.29,3.29-1.01c3.88,1.13,7.49,0.76,11.15-0.86c2.39-1.06,5.01-1.59,7.4-2.65
			c4.78-2.12,9.78-2.28,14.85-2.02c5.57,0.28,8.95,6.71,6.14,11.55c-1.82,3.14-3.55,6.34-5.34,9.5
			C334.44,625.64,334,627.39,336.54,629.2z M442.5,783.39c0,8.39-0.22,15.76,0.09,23.11c0.17,4.1,0.64,8.78,4.35,11.18
			c3.89,2.52,8.46,4.09,12.88,5.65c1.08,0.38,3.45-0.47,4-1.45c1.71-3.03,3.38-6.27,4.09-9.63c3.74-17.74,2.99-35.52-0.29-53.24
			c-0.75-4.05-1.9-8.03-3.13-11.97c-0.6-1.93-1.86-4.04-4.34-3.34c-6.6,1.88-13.13,4.08-18.46,8.65c-0.85,0.73-1.49,2.29-1.41,3.41
			C440.94,765.31,441.79,774.83,442.5,783.39z M445.05,690.18c-4.34,0.98-8.2,1.96-12.11,2.71c-6.96,1.35-7.58,3.13-2.87,8.8
			c0.63,0.76,1.41,1.46,2.25,1.97c0.64,0.39,1.59,0.77,2.24,0.59c4.28-1.25,8.48-2.78,11.29-6.5
			C448.31,694.5,447.83,692.16,445.05,690.18z"/>
		<path d="M326.8,664.31c6.8-5.52,13.56-11.1,20.41-16.56c7.46-5.94,4.38-7.69-1.16-11.03c-1.89-1.14-3.96-1.99-5.88-3.1
			c-0.69-0.4-1.18-1.16-1.76-1.76c0.66-0.54,1.25-1.38,1.99-1.56c6.36-1.52,12.73-3.09,19.15-4.33c9.68-1.87,20.03,5.43,21.99,15.18
			c0.82,4.06,0,7.7-3.53,9.85c-4.43,2.71-9.01,5.58-13.92,7.01c-10.62,3.09-21.48,5.38-32.28,7.81c-1.62,0.36-3.46-0.26-5.19-0.43
			C326.68,665.04,326.74,664.68,326.8,664.31z"/>
	</g>
</g>
<path class="st1" d="M87.1,11.24c0,0,6.5-3.31,27.4,0s70.74,10.8,124.17,18.7s122.03,24.04,178.44,14.21s86.52-26.78,125.82-21.13
	c39.3,5.65,144.95-31.67,142.95-21.13c-2,10.54-40.82,28.05-40.82,28.05l-98.12,58.72l-194.45,31.01l-207.2-31.01
	C145.29,88.66,64.92,27,87.1,11.24z"/>
<path class="st2" d="M64.99,138.82c-27.22,31.47-30.62,76.55-27.22,94.41c-16.16,28.07-27.83,56.13-21.15,88.45
	c6.69,32.32,15.43,113.12,0,135.23C1.2,479.03-3.05,484.14,2.05,486.69c20.41-5.95,52.73-19.56,67.19-8.51
	c14.46,11.06,312.99,146.29,562.2,27.22c48.48-0.85,76.55-14.46,88.45-32.32c-13.61-20.41-2.55-28.92-10.21-50.18
	c-7.65-21.26,20.41-93.56-5.95-119.07c16.16-77.4,1.7-147.99-19.56-172.66c-21.26-24.67-221.14,0.85-224.54,0.85
	s-148.84,0.85-148.84,0.85S102.41,105.65,87.96,106.5C73.5,107.35,64.99,138.82,64.99,138.82z"/>
<path class="st3" d="M716.28,476.27c0.84-1.05,1.62-2.11,2.34-3.19c-1.24-1.86-2.22-3.6-3.08-5.28
	C715.54,470.56,715.7,473.33,716.28,476.27z"/>
<path class="st3" d="M20.84,475.23c15.4-22.11,6.67-102.91,0-135.23c-6.67-32.32,4.98-60.39,21.11-88.45
	c-3.4-17.86,0-62.94,27.17-94.41c0,0,8.49-31.47,22.92-32.32c14.43-0.85,222.44,26.37,222.44,26.37s145.18-0.85,148.57-0.85
	c3.4,0,202.91-25.52,224.13-0.85c6.93,8.06,13.13,21.05,17.79,37.55c-4.69-25.28-12.7-45.01-22.03-55.86
	c-21.22-24.67-220.74,0.85-224.13,0.85c-3.4,0-148.57,0.85-148.57,0.85s-208-27.22-222.44-26.37
	c-14.43,0.85-22.92,32.32-22.92,32.32c-27.17,31.47-30.56,76.55-27.17,94.41C21.58,261.3,9.93,289.37,16.6,321.69
	c6.67,32.32,15.4,113.12,0,135.23C1.2,479.03-3.04,484.14,2.05,486.69c4.19-1.23,8.9-2.78,13.84-4.37
	C17.4,480.17,19.04,477.83,20.84,475.23z"/>
<path class="st3" d="M706.71,322.14c2.96,2.86,5.2,6.34,6.92,10.24c-0.64-7.46-2.16-14.31-5.04-20.06
	C708.01,315.58,707.4,318.85,706.71,322.14z"/>
<path class="st3" d="M709.69,422.9c-7.65-21.26,20.41-93.56-5.95-119.07c16.16-77.4,1.7-147.99-19.56-172.66
	c-2.32-2.69-6.76-4.78-12.83-6.37c17.33,30.52,27.21,93.99,12.83,162.87c26.37,25.52-1.7,97.81,5.95,119.07
	c7.65,21.26-3.4,29.77,10.21,50.18c-11.91,17.86-39.97,31.47-88.46,32.32c-249.2,119.07-547.74-16.16-562.2-27.22
	c-8.1-6.2-21.81-4.64-35.9-1.04C0.7,479.67-2.72,484.3,2.05,486.69c20.41-5.95,52.73-19.56,67.19-8.51
	c14.46,11.06,312.99,146.29,562.2,27.22c48.48-0.85,76.55-14.46,88.45-32.32C706.29,452.67,717.34,444.16,709.69,422.9z"/>
<path class="st3" d="M282.73,132.87c0,0,10.94-0.06,26.87-0.16c-16.82-2.19-207.81-27.02-221.64-26.21
	c-1.89,0.11-3.68,0.76-5.36,1.78C139.99,114.23,282.73,132.87,282.73,132.87z"/>
<path class="st3" d="M2.33,477.94c-3.03,5.2-3.04,7.36-0.27,8.75c10.12-2.95,23.18-7.78,35.53-10.56
	C28.68,472.19,15.52,474.33,2.33,477.94z"/>
<path class="st3" d="M709.69,422.9c-7.65-21.26,20.41-93.56-5.95-119.07c16.16-77.4,1.7-147.99-19.56-172.66
	c-7.97-9.25-41.07-11.44-79.5-10.57c25.63,0.71,45.5,3.68,51.43,10.57c21.26,24.67,48.87,96.41,32.71,173.81
	c26.37,25.52-14.85,96.66-7.19,117.92c7.65,21.26,13.71,24.12,27.32,44.53c-11.91,17.86-26.5,28.92-74.98,29.77
	c-70.49,33.68-175.5,55.21-246.33,56.76c79.03,1.62,163.95-10.4,243.82-48.56c48.48-0.85,76.55-14.46,88.45-32.32
	C706.29,452.67,717.34,444.16,709.69,422.9z"/>
<path class="st3" d="M692.79,144.45c-3.19-6.98-4.87-8.94-8.61-13.28c-21.26-24.67-221.14,0.85-224.54,0.85
	c-3.4,0-148.84,0.85-148.84,0.85S102.41,105.65,87.96,106.5c-14.46,0.85-22.96,32.32-22.96,32.32c-3.38,3.91-0.87,0.1-3.55,4.35
	c24.19,13.81,68.07,41.4,112.63,43.7c49.33,2.55,70.77-13.04,115.85,3.97c45.08,17.01,204.8,28.35,289,1.98
	c90.16-7.65,71.62-27.13,92.88-40.74C673.99,150.69,690.95,146.07,692.79,144.45z"/>
<path class="st3" d="M692.79,144.45c-3.19-6.98-4.87-8.94-8.61-13.28c-21.26-24.67-221.14,0.85-224.54,0.85
	c-3.4,0-148.84,0.85-148.84,0.85S102.41,105.65,87.96,106.5c-14.46,0.85-22.96,32.32-22.96,32.32c-3.38,3.91-0.87,0.1-3.55,4.35
	c24.19,13.81,60.06,24.69,104.62,26.99c49.33,2.55,51.56-8.42,96.64,8.59c45.08,17.01,229.64,26.37,313.84,0
	c90.16-7.65,74-13.06,95.26-26.67C673.99,150.69,690.95,146.07,692.79,144.45z"/>
<path class="st3" d="M439.67,128.38c34.27,18,92.22,118.32,13.09,197.45c-79.13,79.13-71.03,90.35-50.47,122.13
	c-2.49-28.66,37.05-70.04,71.03-104.06C523.23,293.94,522.68,175.04,439.67,128.38z"/>
<path class="st3" d="M439.43,125.96c0,0,103.14,63.52,93.8,145.14c-9.35,81.63-61.69,100.94-23.68,127.11
	c38.01,26.17,61.65-99.73,48.6-142.07S537.54,180.83,439.43,125.96z"/>
<g>
	<path class="st0" d="M422,112.39c34.27,18,92.22,118.32,13.09,197.45c-79.13,79.13-71.03,90.35-50.47,122.13
		c-2.49-28.66,37.05-70.04,71.03-104.06C497.98,285.55,538.52,177.89,422,112.39z"/>
	<path class="st0" d="M424.47,112.39c0,0,103.14,63.52,93.8,145.14c-9.35,81.63-61.69,100.94-23.68,127.11
		c38.01,26.17,61.65-99.73,48.6-142.07C530.14,200.24,522.59,167.27,424.47,112.39z"/>
	<path class="st3" d="M457.93,146.41c21.5,34.11,47.26,96.27-4.18,154.22C478.49,280.07,520.23,227.02,457.93,146.41z"/>
	<path class="st3" d="M483.03,158.8c20.57,16.9,68.56,72.83,42.21,123.28C563.44,234.36,512.53,180.61,483.03,158.8z"/>
</g>
<path class="st2" d="M87.1,11.24c-16.16,1.7-6.8,28.07-16.16,31.47c-12.76,1.7-20.41,22.96-20.41,22.96s-11.91-5.1-13.61,7.65
	c-1.7,12.76-12.76,38.27,7.65,51.88c20.41,13.61,75.7,37.42,125.03,39.97c49.33,2.55,66.34-4.25,111.42,12.76
	c45.08,17.01,209.23,19.56,293.43-6.8c90.16-7.65,88.45-26.37,109.72-39.97c21.26-13.61,25.52-39.12,24.67-49.33
	c-17.86-3.4-27.22-35.72-27.22-35.72s24.67-27.22,4.25-44.23c-11.91,12.76-86.75,24.67-108.87,44.23
	c-22.11,19.56-93.56,5.95-108.87,16.16c-15.31,10.21-133.53,22.96-215.18-3.4c-81.65-26.37-110.57-20.41-130.98-27.22
	C101.56,24.85,87.1,11.24,87.1,11.24z"/>
<path class="st3" d="M539.4,56.96c-25.59,1.85-55.18-0.68-67.87,3.71C491.53,59.84,519.36,61.42,539.4,56.96z"/>
<path class="st3" d="M555.63,173.69c-15.39,4.82-33.46,8.67-52.97,11.64c25.22-3.02,48.79-7.35,68.37-13.16
	C566.21,172.72,561.1,173.23,555.63,173.69z"/>
<path class="st3" d="M103.15,34.21c20.41,6.8,49.33,0.85,130.98,27.22c63.06,20.36,147.91,17.39,190.35,10.28
	c-45.58,4.94-116.77,4.85-171.52-12.83c-81.65-26.37-110.57-20.41-130.98-27.22c-20.41-6.8-34.87-20.41-34.87-20.41
	c-6.03,0.63-8.5,4.7-9.73,9.72C83.58,25.31,92.55,30.67,103.15,34.21z"/>
<path class="st3" d="M708.84,81.84c-17.86-3.4-27.22-35.72-27.22-35.72s24.67-27.22,4.25-44.23c-2.42,2.59-7.47,5.15-14.11,7.74
	c11.15,16.83-8.97,39.04-8.97,39.04s9.36,32.32,27.22,35.72c0.85,10.21-3.4,35.72-24.67,49.33c-18.12,11.6-19.61,26.9-75.46,35.91
	c74.59-8.4,74.32-25.68,94.29-38.46C705.44,117.56,709.69,92.04,708.84,81.84z"/>
<path class="st3" d="M93.66,186.75c-31.89,115.46-54.05,264.93,81.01,306.19C73.25,463.6,20.3,408.1,93.66,186.75z"/>
<path class="st3" d="M704.97,187.03c5.52,40.52,19.99,122.98-99.08,150.23c86.75-6.77,91-31.21,99.08-24.94
	c8.08,6.27,12.98,66.14-5.31,81.11c-18.3,14.97-32.85,50.71-31.89,49.44c18.5-24.24,34.9-39.27,38.95-47.52
	c4.05-8.26,15.78-53.54,1.88-83.03C694.68,282.83,721.13,262.57,704.97,187.03z"/>
<path class="st3" d="M311.74,464.72c2.06-2.65,4.03-5.4,5.82-8.35C315.37,459.24,313.44,462.02,311.74,464.72z"/>
<path class="st3" d="M419.62,506.95c-71.53,35.33-144.6,15.97-107.88-42.23c-41.93,54.1-137.73,49.12-220.6,24.39
	c69.84,30.66,290.86,106.63,493.59,35.55c0,0,0,0,0.01-0.01C497.99,548.27,404.31,528.66,419.62,506.95z"/>
<path class="st3" d="M309.59,233.89c-79.1,29.84-120.77-46.48-168.4-13c-47.63,33.48-19.56,67.53-19.56,67.53s-49.34-73.8,1.7-84.44
	C174.36,193.33,268.77,249.98,309.59,233.89z"/>
<path class="st3" d="M540.82,85.76c64.14-4.75,115.77-6.5,148.31-21.97c-4.96-8.89-7.51-17.67-7.51-17.67s20.95-23.15,8.2-40.09
	C677.74,41.9,679.54,61.75,540.82,85.76z"/>
<path class="st3" d="M183.6,134.02C109.33,104.13,73.66,75.96,57.08,53.15c-4.22,6.08-6.55,12.52-6.55,12.52s-2.36-1-5.12-1
	C62.36,98.14,105.04,125.79,183.6,134.02z"/>
<path class="st3" d="M274.18,103.83c-60.62-35.8,56.13,55.5,176.06,24.88C373.69,158.68,355.2,151.67,274.18,103.83z"/>
<path class="st3" d="M719.9,473.08c-13.61-20.41-2.55-28.92-10.21-50.18c-7.65-21.26,20.41-93.56-5.95-119.07
	c16.16-77.4,1.7-147.99-19.56-172.66l0,0l0,0c0,0-6.36,78.84-88.49,114.36c-82.13,35.52,62.09,101.13-14.46,147.9
	c-76.55,46.78-143.74-2.55-177.76,57.84c-17.77,31.54-32.03,70.95-37.5,101.91c85.01,4.4,178.26-6.1,265.48-47.78
	C679.92,504.55,707.99,490.94,719.9,473.08z"/>
<path class="st3" d="M631.4,373.87c-4.25,37.42-43.38,112.9-138.64,135.55C635.66,516.76,631.4,373.87,631.4,373.87z"/>
</svg>
