<?xml version="1.0" encoding="utf-8"?>
<!-- Generator: Adobe Illustrator 23.0.2, SVG Export Plug-In . SVG Version: 6.00 Build 0)  -->
<svg version="1.1" id="栝鍣_1" xmlns="http://www.w3.org/2000/svg" xmlns:xlink="http://www.w3.org/1999/xlink" x="0px" y="0px"
	 viewBox="0 0 603.26 771.53" style="enable-background:new 0 0 603.26 771.53;" xml:space="preserve">
<style type="text/css">
	.st0{fill:#B83642;}
	.st1{opacity:0.1;}
	.st2{fill:#EC4452;}
	.st3{opacity:0.2;}
	.st4{opacity:0.15;}
	.st5{opacity:0.1;fill:#FFFFFF;}
	.st6{opacity:0.2;fill:#FFFFFF;}
	.st7{fill:#FFD345;}
	.st8{fill:#FFD354;}
	.st9{opacity:0.18;}
</style>
<path class="st0" d="M150.18,37.24c12.23-27.54,38.38-2.98,62.3-13.82c23.92-10.84,51.35-25.2,78.14-12.12
	c26.79,13.08,91.03-31.28,126.37,5.09C401.3,64.88,282.8,125.27,282.8,125.27l-53.95-7.65L150.18,37.24z"/>
<path class="st1" d="M333.92,21.59c31.74-0.64,30.46-13.4,34.45-9.41c3.99,3.99,18.82,67.62-9.41,77.82
	C330.57,100.21,351.62,41.52,333.92,21.59z"/>
<path class="st1" d="M416.76,17.7c-0.09-0.7-0.22-1.38-0.34-2.05c-9.12-8.97-20.09-12.77-31.8-13.67
	c-7.15,11.22-5.64,36.78-16.27,51.32c-16.16,22.11-38.67,3.24-51.43-26.6c-1.53-3.58-9.41-7.81-20.73-7.81
	c-11.32,0-68.11,21.71-87.02,34.71c-19.66,13.52-30.65-20.88-44.46-29.4c-5.72,1.25-10.63,4.81-14.29,13.05l78.67,80.37l53.95,7.65
	C283.03,125.27,399.41,65.96,416.76,17.7z"/>
<g>
	<path class="st2" d="M371.72,183.13c138.92,96.51,254.26,260.66,196.85,452.03c19.14,67.62,37,67.62,34.45,84.2
		c-2.55,16.59-116.69,26.83-152.41,37.67c-95.68,21.69-280.08,22.71-354.08-22.58c-68.89,10.84-87.39,5.1-94.41-0.64
		c31.89-42.74,20.2-68.04,20.2-68.04s-113.9-307.06,172.87-482.25C215.61,172.48,316.9,145.05,371.72,183.13z"/>
	<path class="st2" d="M195.19,183.53c0,0-72.29-125.88-44.23-146.29c28.07-20.41,34.02,39.12,61.24,20.41
		c27.22-18.71,93.56-54.57,106.32-24.74s39.12,53.65,55.28,31.54s4.25-69.74,37.42-53.58c33.17,16.16-12.76,115.67-48.48,191.37
		C254.73,216.7,195.19,183.53,195.19,183.53z"/>
</g>
<path class="st1" d="M150.96,82.51c9.93-43.32,9.35-17.22,22.78-10.84c13.43,6.38,21.09,92.49,47.88,82.93
	c26.79-9.57,28.99-95.05,61.06-88.67c32.07,6.38-32.36,85.68,15.48,89.41c47.84,3.72,69.89-74.49,95.05-82.39
	c25.16-7.9-24.88,68.89-10.21,86.12c-63.15,37-118.01,32.53-118.01,32.53l-83.14-29.98C181.86,161.61,148.77,92.08,150.96,82.51z"/>
<path class="st1" d="M213.72,173.1c-30.37-9.26-43.52-48.49-39.98-52.31c3.55-3.83,37.04,64.75,57.77,46.89
	c20.73-17.86,25.52-56.13,32.85-50.07c7.34,6.06,6.6,53.69,37.27,48.38c30.67-5.32,57.78-41.36,69.26-51.25
	c11.48-9.89-0.98,49.41-2.88,52.45c-1.9,3.04-81.64,21.62-83.07,21.1c-1.44-0.52-43.86-2.13-48.32-2.76
	C232.15,184.89,213.72,173.1,213.72,173.1z"/>
<path class="st3" d="M371.72,183.13c-55.47-4.09-147.97,0.16-176.53,0.4c-6.44,3.93-12.66,7.93-18.7,11.99
	c-19.94,14.17-58.47,60.71-28.69,62.41c29.8,1.7,77.86-39.89,109.75-31.22c31.89,8.68-0.83,92.11,40.83,93.31
	c41.65,1.19,40.19-96.25,65.49-103.29c25.15-7,68.59,14.78,69.1,15.04C413.45,214.09,392.86,197.82,371.72,183.13z"/>
<path class="st1" d="M195.39,180.82c13.48,5.99-30.54,23.53-29.26,40.11c1.28,16.59,30.17-36.1,88.28-24.43
	c58.11,11.67,34.81,104.19,50.78,73.55c15.97-30.64-4.15-75.57,34.13-77.49c38.27-1.93,32.98-18.47,32.98-18.47L195.39,180.82z"/>
<path class="st3" d="M583.5,525.45c-0.81,29.64-5.55,60.18-14.93,91.46c0.89,3.14,1.77,6.09,2.66,8.95
	C580.61,591.4,584.39,557.85,583.5,525.45z"/>
<path class="st3" d="M23.59,670.11c2.43-14.59-1.27-22.58-1.27-22.58S1.64,591.76,0.09,514.2c-1.76,86.91,22.23,151.58,22.23,151.58
	S23,667.27,23.59,670.11z"/>
<path class="st4" d="M450.61,738.78c-95.68,21.69-279.8,34.78-353.8-10.51c-49.92,7.86-73.65-5.06-85.46-8.31
	c-2.58,4.39-5.61,9.01-9.23,13.86c7.02,5.74,25.52,11.48,94.41,0.64c74,45.29,258.39,44.26,354.08,22.58
	c35.72-10.84,149.86-21.09,152.41-37.67c0.83-5.41-0.52-9.06-3.36-13.86C580.25,719.57,483.07,728.93,450.61,738.78z"/>
<path class="st1" d="M568.57,635.16c57.41-191.37-57.94-355.52-196.85-452.03c-105.12,16.75-156.12-10.66-176.53,0.4
	c-48.73,29.77-85.88,63.35-114,98.58c23.08-22.81,59.82-54.56,92.59-74.58c20.41-11.06,112.5-28.49,167.32,9.6
	c138.92,96.51,268.15,238.97,210.74,430.34c11.11,39.26,31.79,53.48,14.4,87.55c20.72-4.62,35.87-9.74,36.78-15.66
	C605.57,702.78,587.71,702.78,568.57,635.16z"/>
<path class="st3" d="M568.57,635.16c57.41-191.37-57.94-355.52-196.85-452.03c-8.1-5.63-17.24-9.8-26.96-12.83
	c138.42,96.61,273.27,268.87,216.01,459.73c19.14,67.62,16.73,59.13,14.18,75.72c-2.55,16.59-104.55,35.93-140.27,46.78
	c-95.68,21.69-266.19,26.1-340.19-19.19c-27.91,4.39-73.85,6.56-87.54-6.38c-1.49,2.24-3.09,4.51-4.84,6.86
	c7.02,5.74,25.52,11.48,94.41,0.64c74,45.29,258.39,44.26,354.08,22.58c35.72-10.84,149.86-21.09,152.41-37.67
	C605.57,702.78,587.71,702.78,568.57,635.16z"/>
<path class="st3" d="M359.45,175.71c23.39,12.29,62.94,80.75,8.93,134.76s-48.48,61.66-34.45,83.35
	c-1.7-19.56,25.28-47.8,48.48-71.02C411.3,293.88,438.97,220.41,359.45,175.71z"/>
<path class="st3" d="M365.92,180.82c0,0,70.4,43.35,64.02,99.06c-6.38,55.71-42.1,68.89-16.16,86.75
	c25.94,17.86,42.08-68.06,33.17-96.96S432.88,218.27,365.92,180.82z"/>
<path class="st3" d="M476.21,380.83c31.47,56.99,91.86,253.46-25.52,324.9C514.48,692.97,579.93,555.41,476.21,380.83z"/>
<path class="st3" d="M74.27,396.99c-40.83,89.31-31.72,305.93,181.16,321.5C96.53,734.46-20.67,593.47,74.27,396.99z"/>
<path class="st3" d="M533.98,707.2c-25.52-10.21-130.19,36.02-247.5,39.97c140.34,0.85,191.37-22.54,210.72-27.64
	C516.55,714.43,514.42,705.5,533.98,707.2z"/>
<path class="st5" d="M333.26,334.48c37.02-57.32-15.38-147.95-125.67-107.8C97.31,266.82,60.88,435.26,69.17,495.86
	c8.29,60.6,184.99,86.75,167.13,0.64C218.44,410.39,313.48,365.1,333.26,334.48z"/>
<path class="st6" d="M194.83,284.76c-48.48,19.73-104.61,90.54-91.22,156.24C107.44,392.53,194.83,284.76,194.83,284.76z"/>
<path class="st3" d="M187.48,159.83c0.74,0.51,1.76,1.08,3,1.68c-0.36-0.21-0.72-0.42-1-0.61c-0.59-1.78-1.8-3.37-3.55-4.4
	c-0.45-0.27-0.92-0.48-1.4-0.64C185.94,156.87,186.96,158.26,187.48,159.83z"/>
<path class="st1" d="M466.55,264.78c-8.87,23.25-11.9,70.54-8.69,148.25c10.16,245.7-98.82,333.37-182.33,358.17
	c64.15,1.77,129.62-3.86,175.08-14.16c35.72-10.84,149.86-21.09,152.41-37.67c2.55-16.59-15.31-16.59-34.45-84.2
	C612.05,490.23,556.44,360.93,466.55,264.78z"/>
<g>
	<path class="st7" d="M353.18,171.56c23.39,12.29,62.94,80.75,8.93,134.76s-48.48,61.66-34.45,83.35
		c-1.7-19.56,25.28-47.8,48.48-71.02C405.04,289.74,432.71,216.26,353.18,171.56z"/>
	<path class="st7" d="M354.87,171.56c0,0,70.4,43.35,64.02,99.06c-6.38,55.71-42.1,68.89-16.16,86.75
		c25.94,17.86,42.08-68.07,33.17-96.96C426.99,231.52,421.83,209.01,354.87,171.56z"/>
	<path class="st8" d="M273.74,206.43c-9.04,0-17.29-0.51-24.6-1.29c-34.65-3.67-61.61-14.63-69.38-23.08
		c-5.17-5.62-2.84-10.72-2-12.15c2.23-3.81,7.13-5.09,10.94-2.85c1.95,1.15,3.24,2.99,3.73,5.03c11.61,9.56,91.65,38.63,183.28-5.34
		c3.97-1.91,8.75-0.23,10.66,3.75c1.91,3.98,0.23,8.75-3.75,10.66C341.44,200.94,303.35,206.43,273.74,206.43z M191.56,178
		C191.56,178,191.56,178.01,191.56,178C191.56,178.01,191.56,178,191.56,178z"/>
	<path class="st3" d="M386.38,170.51c-0.01-0.02-0.02-0.03-0.03-0.05c0.19,3.15-1.5,6.24-4.51,7.69
		c-41.19,19.77-79.29,25.26-108.89,25.26c-9.04,0-17.29-0.51-24.6-1.29c-34.65-3.67-61.6-14.63-69.38-23.08
		c-1.15-1.25-1.91-2.46-2.42-3.62c0.17,1.96,1.01,4.26,3.21,6.65c7.77,8.45,34.73,19.4,69.38,23.08c7.3,0.77,15.56,1.29,24.6,1.29
		c29.6,0,67.7-5.49,108.89-25.26C386.62,179.26,388.29,174.49,386.38,170.51z"/>
	<path class="st7" d="M304.64,200.54c-32.42,0-62.13-5.61-83.66-9.68c-13.56-2.56-28.94-5.47-32.53-4.07
		c-3.84,2.17-8.64,0.78-10.82-3.06c-2.17-3.84-0.74-8.76,3.1-10.93c7.69-4.35,20.31-1.97,43.22,2.35
		c38.83,7.34,97.51,18.42,152.34-2.85c4.12-1.6,8.75,0.44,10.34,4.56c1.6,4.12-0.44,8.75-4.56,10.34
		C356.33,197.2,329.67,200.54,304.64,200.54z"/>
	<path class="st3" d="M386.63,176.87c-0.18-0.47-0.41-0.9-0.66-1.31c1.4,4.04-0.62,8.5-4.64,10.06
		c-25.74,9.99-52.4,13.33-77.43,13.33c-32.42,0-62.13-5.61-83.66-9.68c-13.56-2.56-28.94-5.47-32.53-4.07
		c-3.78,2.13-8.47,0.82-10.69-2.88c0.16,0.48,0.36,0.96,0.62,1.42c2.17,3.84,6.98,5.23,10.82,3.06c3.59-1.4,18.97,1.51,32.53,4.07
		c21.53,4.07,51.24,9.68,83.66,9.68c25.03,0,51.69-3.35,77.43-13.33C386.18,185.61,388.22,180.98,386.63,176.87z"/>
	<path class="st7" d="M269.99,192.56c-50.01,0-86.95-13.82-94.15-21.64c-3.83-4.16-3.39-8.7-1.71-11.57
		c2.23-3.81,7.13-5.09,10.94-2.85c1.75,1.03,2.96,2.61,3.55,4.4c12.81,8.75,100.47,34.53,192.29-9.54
		c3.98-1.91,8.75-0.23,10.67,3.75c1.91,3.98,0.23,8.76-3.75,10.67C345.98,185.86,304.81,192.56,269.99,192.56z M187.94,167.43
		C187.93,167.43,187.93,167.44,187.94,167.43C187.93,167.44,187.93,167.43,187.94,167.43z"/>
	<path class="st3" d="M186.63,159.83c0.74,0.51,1.76,1.08,3,1.68c-0.36-0.21-0.72-0.42-1-0.61c-0.59-1.78-1.8-3.37-3.55-4.4
		c-0.45-0.27-0.92-0.48-1.4-0.64C185.1,156.87,186.12,158.26,186.63,159.83z"/>
	<path class="st9" d="M391.58,155.1c-0.96-2-2.64-3.41-4.58-4.09c1.07,0.76,1.98,1.76,2.59,3.02c1.91,3.98,0.23,8.76-3.75,10.67
		c-41.86,20.09-83.02,26.79-117.84,26.79c-40.06,0-71.71-8.86-86.43-16.41c13.71,7.75,46.46,17.48,88.42,17.48
		c34.82,0,75.98-6.7,117.84-26.79C391.82,163.85,393.49,159.08,391.58,155.1z"/>
	<path class="st3" d="M377.7,194.78c14.67,23.28,32.25,65.7-2.85,105.25C391.74,286,420.22,249.79,377.7,194.78z"/>
	<path class="st3" d="M387.4,195.03c16.77,13.78,55.91,59.39,34.43,100.54C452.97,256.65,411.45,212.82,387.4,195.03z"/>
</g>
<path class="st7" d="M438.01,670.11h-73.06c-10.96,0-19.85-8.89-19.85-19.85V472.07c0-10.96,8.89-19.85,19.85-19.85h73.06
	c10.96,0,19.85,8.89,19.85,19.85v178.19C457.86,661.22,448.97,670.11,438.01,670.11z"/>
<g>
	<path d="M381.79,569.43c0.29-0.39,0.46-0.78,0.77-0.99c0.27-0.19,0.77-0.35,1.03-0.23c2.64,1.27,5.39,1.67,8.28,1.23
		c2.11-0.33,4.25-0.55,6.36-0.9c1.02-0.17,1.16-0.51,0.93-1.64c-0.12-0.6-0.9-1.19-1.5-1.11c-0.69,0.09-1.38,0.19-2.05,0.33
		c-1.81,0.38-3.57,0.65-5.34-0.33c-1.18-0.65-2.5-0.23-3.74-0.04c-2.27,0.33-4.44-0.13-6.61-0.68c-0.33-0.08-0.59-0.43-0.88-0.65
		c0.36-0.2,0.71-0.56,1.08-0.59c4.48-0.33,8.97-0.57,13.45-0.92c1.13-0.09,2.26-0.4,3.34-0.75c0.92-0.29,1.12-0.88,0.46-1.57
		c-0.8-0.83-1.78-1.5-2.74-2.16c-0.72-0.49-0.89-0.92-0.21-1.46c0.6-0.47,1.33-0.99,2.04-1.06c3.05-0.28,6.03,0.03,8.7,1.75
		c0.48,0.31,0.98,0.66,1.29,1.12c0.45,0.65,0.98,0.75,1.7,0.69c1.99-0.15,3.98-0.37,5.96-0.32c1,0.02,2.02,0.47,2.97,0.87
		c0.62,0.26,0.61,1.02,0.06,1.59c-1.12,1.17-2.56,1.63-4.12,1.85c-1.94,0.27-3.88,0.54-5.79,0.96c-0.99,0.22-1.32,1.22-1.72,2.07
		c0.53,0.68,1.03,0.73,1.88,0.52c3.32-0.85,6.69-1.54,10.04-2.26c0.88-0.19,1.8-0.23,2.69-0.39c1.06-0.19,2.02,0.09,2.76,0.8
		c1.08,1.04,2.17,2.11,3.02,3.33c0.33,0.48,0.23,1.5-0.05,2.11c-0.87,1.91-2.32,3.48-4.05,4.54c-1.4,0.85-3.22,0.69-4.82,0.08
		c-0.68-0.26-0.85-0.88-0.41-1.57c0.82-1.3,1.66-2.59,2.41-3.94c0.22-0.39,0.14-0.95,0.2-1.43c-0.42-0.03-0.87-0.16-1.26-0.06
		c-3.58,0.94-7.16,1.92-10.73,2.9c-0.31,0.08-0.68,0.21-0.84,0.44c-0.18,0.25-0.27,0.69-0.17,0.97c0.07,0.19,0.52,0.35,0.8,0.36
		c1.41,0.02,2.83-0.03,4.24-0.04c0.23,0,0.52,0.03,0.69,0.17c0.37,0.3,0.88,0.64,0.96,1.04c0.07,0.35-0.28,0.91-0.61,1.17
		c-0.48,0.39-1.09,0.65-1.68,0.86c-0.85,0.29-1.73,0.59-2.62,0.68c-1.17,0.11-1.58,0.89-1.87,1.8c-0.35,1.12,0.28,1.76,1.46,1.58
		c5.07-0.77,10.13-1.58,15.21-2.27c2.45-0.33,4.95-0.46,7.24,0.83c0.52,0.29,1.04,0.62,1.48,1.03c1.82,1.7,1.98,3.92,0.08,5.49
		c-2.17,1.8-4.49,3.5-6.95,4.84c-4.5,2.45-9.15,4.6-13.74,6.89c-0.28,0.14-0.49,0.43-0.74,0.65c0.36,0.28,0.7,0.75,1.08,0.79
		c0.89,0.08,1.81-0.1,2.71-0.08c2.59,0.07,5.18,0.18,7.77,0.28c0.06,0,0.13,0,0.18,0.02c0.49,0.21,1.24,0.15,1.27,0.92
		c0.04,0.83-0.68,0.89-1.24,1.06c-2.34,0.69-4.73,0.39-7.11,0.26c-1.55-0.08-3,0.27-4.38,0.9c-0.37,0.17-0.6,0.63-0.9,0.95
		c0.52,0.29,1.02,0.81,1.55,0.83c1.14,0.03,2.28-0.3,3.42-0.3c1.44,0,2.88,0.17,4.31,0.29c0.26,0.02,0.52,0.17,0.76,0.29
		c0.96,0.51,1.09,1.33,0.15,1.88c-1.21,0.71-2.51,1.32-3.83,1.79c-1.98,0.71-4.02,1.26-6.03,1.88c-0.03,0.93,0.2,1.15,1.07,0.98
		c2.16-0.43,4.31-0.92,6.47-1.31c2.27-0.42,4.51-0.09,6.71,0.49c0.27,0.07,0.47,0.39,0.71,0.59c-0.24,0.24-0.45,0.63-0.73,0.69
		c-1.61,0.38-3.23,0.77-4.86,0.99c-3.37,0.46-6.77,0.77-10.14,1.27c-0.86,0.13-1.66,0.73-2.49,1.11c-0.19,0.08-0.39,0.13-0.59,0.19
		c-0.55,0.16-1.12,0.28-1.64,0.49c-1.14,0.46-1.27,1.07-0.2,1.68c2.25,1.27,4.59,2.37,6.91,3.53c0.14,0.07,0.36,0.07,0.52,0.02
		c1.9-0.61,3.64-1.47,4.8-3.19c0.4-0.6,0.56-1.17,0.04-1.81c-0.15-0.18-0.23-0.64-0.12-0.77c0.28-0.31,0.72-0.73,1.04-0.7
		c1.16,0.14,2.33,0.35,3.43,0.72c1.16,0.39,1.46,1.23,0.7,2.19c-0.85,1.08-1.9,2-2.93,2.91c-0.63,0.55-1.4,0.95-2.08,1.44
		c-0.25,0.18-0.44,0.44-0.65,0.67c0.26,0.23,0.48,0.54,0.78,0.67c0.88,0.38,1.78,0.75,2.71,1.01c3.27,0.91,5.73,3.02,8.04,5.34
		c1.76,1.77,2.87,3.94,3.6,6.3c0.12,0.39,0.05,0.93-0.14,1.29c-0.31,0.57-0.91,0.52-1.43,0.26c-2.63-1.35-5.27-2.66-7.85-4.09
		c-2.82-1.57-5.56-3.28-8.37-4.87c-0.88-0.5-1.87-0.86-2.86-1.08c-0.39-0.09-1.05,0.25-1.34,0.6c-0.35,0.41-0.47,1.03-0.62,1.57
		c-1.08,3.99-3.02,7.48-6.03,10.32c-2.16,2.04-5.17,2.35-7.33,0.91c-1.62-1.08-2.2-2.78-2.42-4.57c-0.12-0.95-0.03-1.98,0.2-2.92
		c0.58-2.31,1.3-4.58,1.94-6.87c0.08-0.3,0-0.65-0.01-0.98c-0.38,0.09-0.85,0.07-1.14,0.29c-2.08,1.55-4.08,3.2-6.18,4.73
		c-3.67,2.67-7.5,5.07-11.76,6.7c-0.54,0.21-1.28,0.4-1.76,0.2c-1.02-0.43-2.03-1.08-2.32-2.25c-0.1-0.42,0.17-1.05,0.46-1.44
		c1.4-1.82,3.26-3.12,5.21-4.29c1.13-0.68,2.34-1.21,3.52-1.79c0.14-0.07,0.33-0.01,0.59-0.01c-0.1,0.4-0.18,0.73-0.31,1.27
		c0.49-0.07,0.9-0.06,1.24-0.2c4.91-2.08,8.74-5.52,12.05-9.6c0.38-0.46,1.25-0.84,0.7-1.71c-0.44-0.7-1.42-1-2.43-0.8
		c-1.95,0.38-3.89,0.86-5.87,1.1c-1.84,0.22-3.71,0.22-5.57,0.25c-0.46,0.01-0.94-0.22-1.36-0.45c-0.26-0.14-0.58-0.46-0.58-0.7
		c0-0.22,0.37-0.58,0.62-0.63c1.59-0.34,3.18-0.73,4.79-0.89c2.25-0.23,4.39-0.77,6.45-1.65c0.57-0.24,1.47-0.38,1.3-1.34
		c-0.18-1.01-1.25-1.9-2.16-1.88c-2.17,0.06-4.35,0.09-6.52,0.22c-0.71,0.04-1.08-0.2-1.35-0.94c0.38-0.18,0.75-0.43,1.16-0.55
		c2.13-0.65,4.28-1.24,6.41-1.9c0.8-0.25,1.6-0.55,2.33-0.96c0.28-0.16,0.51-0.7,0.46-1.03c-0.04-0.26-0.49-0.57-0.82-0.66
		c-0.35-0.1-0.77-0.01-1.15,0.06c-1.39,0.27-2.77,0.7-4.17,0.8c-1.1,0.08-2.23-0.21-3.34-0.42c-0.24-0.05-0.59-0.44-0.59-0.68
		c0-0.22,0.36-0.56,0.62-0.64c1.25-0.35,2.52-0.6,3.77-0.95c0.72-0.2,1.42-0.51,2.09-0.84c0.5-0.24,0.61-0.62,0.16-1.08
		c-0.29-0.3-0.55-0.64-0.76-1c-0.85-1.45-0.75-2.38,0.46-3.52c1.25-1.18,2.55-2.3,3.83-3.45c-0.42-1.2-0.59-1.28-1.74-0.86
		c-0.45,0.17-0.91,0.32-1.36,0.48c-2.15,0.79-4.19-0.25-4.89-2.46c-0.09-0.28-0.42-0.64-0.69-0.69c-0.94-0.19-1.9-0.31-2.86-0.36
		c-0.65-0.03-1.46,1.03-1.34,1.66c0.09,0.5,0.32,0.8,0.86,0.4c0.27-0.19,0.53-0.4,0.83-0.54c0.74-0.35,1.45,0.05,1.6,0.87
		c0.01,0.03,0.01,0.06,0.01,0.09c-0.3,2.34,1.1,3.9,2.49,5.48c0.92,1.05,0.82,2.29,0.55,3.51c-0.13,0.6-0.69,0.86-1.3,0.65
		c-1.49-0.53-2.9-1.21-4-2.39c-0.84-0.89-1.28-1.95-1.32-3.18c-0.03-0.84-0.1-1.68-0.37-2.72c-0.28,0.25-0.68,0.46-0.82,0.77
		c-0.39,0.88-0.69,1.8-0.97,2.72c-0.24,0.8-0.78,1.09-1.56,1.05c-1.75-0.09-4.24-2.21-4.55-3.94c-0.05-0.29,0.08-0.66,0.24-0.93
		c1.07-1.89,2.13-3.78,3.28-5.62c0.46-0.74,0.57-1.45,0.26-2.22c-0.56-1.37-1.16-2.71-1.75-4.07c-0.13-0.3-0.26-0.59-0.26-1.09
		c0.32,0.13,0.68,0.2,0.95,0.4c2.26,1.6,4.52,3.21,6.75,4.86c0.51,0.38,0.94,0.48,1.57,0.32c4.97-1.31,10.03-2.12,15.14-2.61
		c0.57-0.06,1.26,0.04,1.56-0.67c0.16-0.39,0.5-0.92,0.36-1.16c-0.27-0.48-0.68-0.91-1.43-0.89c-2.56,0.06-5.12,0.01-7.68,0.03
		c-0.41,0-0.83,0.12-1.24,0.22c-1.59,0.38-2.76,0.03-3.54-1.41c-0.62-1.15-1.05-2.43-1.35-3.71c-0.44-1.87-0.89-2.32-2.8-2.7
		c-0.96-0.19-1.89-0.59-2.79-1c-0.29-0.13-0.44-0.59-0.65-0.9c0.4-0.12,0.81-0.38,1.19-0.34C380,568.97,380.88,569.23,381.79,569.43
		z M415.13,582.91c-0.42,0-0.84-0.06-1.25,0.01c-2.08,0.35-4.2,0.57-6.21,1.15c-2.63,0.76-5.21,1.43-7.94,0.58
		c-0.4-0.12-0.84-0.11-1.25-0.21c-0.6-0.15-0.92,0.07-0.97,0.58c0.77,0.73,1.51,1.4,2.21,2.1c0.57,0.58,1.14,0.74,1.87,0.28
		c0.58-0.37,1.21-0.65,1.81-0.96c0.65,0.66,0.82,1.12,1.01,2.58c0.26,1.95,1.59,3.39,3.51,3.86c0.7,0.17,1.3,0.11,1.86-0.36
		c1.15-0.98,2.32-1.92,3.44-2.93c0.28-0.26,0.62-0.81,0.52-1.06c-0.23-0.59-0.81-0.28-1.26-0.17c-0.32,0.08-0.65,0.15-0.95,0.28
		c-1.59,0.71-3.01,0.2-4.36-0.64c-0.36-0.22-0.59-0.63-0.89-0.95c0.33-0.27,0.61-0.67,0.99-0.79c2.4-0.79,4.82-1.54,7.24-2.26
		C415.12,583.83,415.42,583.6,415.13,582.91z M403.36,622.52c-0.56,0.1-0.99,0.11-1.36,0.26c-0.16,0.07-0.32,0.48-0.26,0.65
		c0.24,0.59-0.02,0.94-0.4,1.33c-0.26,0.27-0.5,0.64-0.59,1c-0.65,2.45-1.29,4.91-1.85,7.39c-0.06,0.25,0.36,0.69,0.65,0.92
		c0.15,0.12,0.55,0.05,0.77-0.06c0.35-0.17,0.68-0.4,0.96-0.67c2.33-2.26,4.65-4.54,6.97-6.81c0.09-0.09,0.16-0.26,0.15-0.38
		c-0.07-0.59-1.06-1.18-1.66-1.18c-0.88-0.01-1.81-0.02-2.63-0.29C403.18,624.37,402.99,623.71,403.36,622.52z M388.63,572.98
		c-0.25,0.08-0.85,0.1-0.94,0.33c-0.12,0.3,0.08,0.81,0.29,1.12c0.45,0.67,0.96,1.3,1.51,1.89c0.2,0.21,0.59,0.41,0.86,0.36
		c2.63-0.46,5.26-0.93,7.88-1.49c0.38-0.08,0.96-0.59,0.95-0.88c-0.01-0.41-0.44-0.87-0.8-1.18c-0.2-0.18-0.62-0.15-0.95-0.15
		C394.55,572.98,391.67,572.98,388.63,572.98z M399.45,591.94c-0.13,0.03-0.26,0.06-0.38,0.09c0.76,2.01-0.76,2.82-1.79,3.89
		c-0.21,0.22-0.51,0.39-0.62,0.65c-0.13,0.29-0.26,0.81-0.11,0.96c0.57,0.57,1.11,1.22,2.13,1.1c1.28-0.15,2.59-0.23,3.87-0.17
		c1.1,0.05,1.6-0.57,2.13-1.4C402.91,595.34,401.18,593.64,399.45,591.94z M422.1,584.85c0.28-0.08,0.51-0.07,0.62-0.18
		c0.85-0.88,1.75-1.74,2.5-2.71c0.36-0.47-0.19-1.46-0.68-1.36c-1.52,0.33-3.05,0.68-4.54,1.15c-0.72,0.23-0.71,1.09-0.09,1.54
		c0.49,0.35,0.94,0.75,1.43,1.1C421.59,584.57,421.88,584.71,422.1,584.85z M399.17,605.01c1.28-0.3,2.37-0.51,3.42-0.84
		c0.56-0.18,1-0.66,0.81-1.33c-0.2-0.7-0.72-1.11-1.48-1.09c-0.39,0.01-0.78,0.06-1.16,0.15c-1.14,0.26-2.3,0.46-3.4,0.84
		c-0.84,0.29-0.95,0.9-0.24,1.41C397.72,604.59,398.53,604.75,399.17,605.01z M395.86,584.54c-0.09-0.08-0.18-0.16-0.27-0.24
		c-3.3,0.38-6.14,1.97-9.01,3.49c-0.13,0.07-0.23,0.38-0.18,0.52c0.05,0.13,0.32,0.27,0.48,0.26c0.45-0.02,0.93-0.03,1.34-0.19
		c2.4-0.96,4.79-1.95,7.16-2.99C395.62,585.3,395.7,584.83,395.86,584.54z M401.93,608.69c-0.51-0.15-1-0.46-1.35-0.36
		c-0.85,0.26-1.67,0.68-2.45,1.11c-0.25,0.14-0.58,0.68-0.5,0.78c0.22,0.3,0.59,0.63,0.94,0.68
		C399.98,611.09,401.25,610.26,401.93,608.69z"/>
	<g>
		<path d="M391.16,484.91c-3.68,2.59-4.9,6.73-7.1,10.18c-1.34,2.1-2.45,4.36-3.62,6.57c-0.2,0.37-0.35,1.04-0.16,1.28
			c0.37,0.47,0.95,0.73,1.69,0.57c2.71-0.61,5.43-1.15,8.14-1.72c1.18-0.25,2.37-0.44,3.54-0.76c1.46-0.39,2.18,0.58,2.89,1.5
			c0.75,0.97,0.83,2.06,0.1,2.92c-0.67,0.79-1.49,1.48-2.35,2.09c-0.6,0.43-0.98,0.99-0.74,1.56c0.24,0.59,0.76,1.14,1.64,1
			c0.77-0.12,1.57-0.24,2.33-0.13c1.78,0.26,2.45,1.72,1.3,3.08c-1.23,1.46-2.71,2.74-4.16,3.99c-0.62,0.54-1.15,1.05-1.24,1.88
			c-0.03,0.3-0.09,0.77,0.07,0.88c0.3,0.21,0.75,0.31,1.13,0.29c1.14-0.06,2.27-0.31,3.4-0.27c0.55,0.02,1.25,0.38,1.61,0.82
			c1.06,1.26,1.5,2.7,0.83,4.36c-1.05,2.64-2.66,4.93-4.29,7.22c-0.58,0.81-1.16,1.62-1.8,2.38c-0.53,0.63-0.27,1.03,0.33,1.22
			c0.74,0.23,1.53,0.43,2.29,0.43c1.04,0,1.94,0.28,2.82,0.78c0.91,0.51,1.38,0.37,1.58-0.66c0.44-2.24,0.78-4.51,1.12-6.77
			c0.21-1.43,0.25-2.89,0.53-4.31c0.35-1.77,0.03-3.49-0.21-5.21c-0.1-0.69,0.12-0.83,0.75-0.82c2.59,0.07,4.66,2.58,4.27,5.15
			c-0.04,0.26,0.09,0.69,0.28,0.8c0.25,0.14,0.74,0.17,0.95,0.02c2.61-1.9,5.19-3.83,7.77-5.76c0.49-0.37,0.73-0.83,0.62-1.49
			c-0.17-1.04-0.26-2.09-0.45-3.12c-0.16-0.89-0.77-1.31-1.68-1.34c-0.57-0.02-1.15-0.09-1.7-0.23c-1.42-0.35-2.31-1.19-2.51-2.72
			c-0.07-0.5-0.36-1.04-0.69-1.44c-1.72-2.02-3.49-3.99-5.23-6c-0.36-0.42-0.58-0.96-0.96-1.37c-0.72-0.79-1.48-1.56-2.28-2.28
			c-0.37-0.34-0.87-0.54-1.28-0.85c-0.16-0.12-0.25-0.35-0.36-0.54c0.21-0.13,0.41-0.31,0.64-0.37c0.18-0.05,0.41,0.06,0.61,0.1
			c3.34,0.64,6.68,1.32,10.04,1.91c2.58,0.45,5.11-0.17,7.62-0.63c1.9-0.35,3.76-0.85,5.65-1.25c0.68-0.14,1.07-0.49,1.18-1.17
			c0.18-1.04,0.4-2.07,0.52-3.12c0.13-1.12-0.4-1.5-1.51-1.21c-2.53,0.67-5.05,1.48-7.62,1.94c-2.63,0.47-5.32,0.7-7.99,0.82
			c-1.81,0.08-3.41-0.64-4.63-2.33c0.88-0.83,1.79-1.61,2.6-2.48c1.74-1.86,3.15-3.95,4.21-6.28c0.4-0.88-0.01-1.57-0.55-2.23
			c-0.62-0.76-0.69-1.38,0-2.05c0.59-0.58,1.3-1.1,2.04-1.45c1-0.47,2.11-0.72,3.15-1.11c1.04-0.39,1.91-0.13,2.62,0.65
			c2.01,2.21,2.3,2.27,0.81,4.84c-1.5,2.6-3.39,4.98-5.12,7.45c-0.24,0.34-0.52,0.66-0.75,0.96c0.3,0.81,0.74,0.43,1.16,0.24
			c3.55-1.58,7.08-3.21,10.65-4.73c2.86-1.22,5.77-1.03,8.65,0.04c0.53,0.2,1.04,0.48,1.5,0.82c0.77,0.57,1.06,1.36,0.82,2.32
			c-0.84,3.39-2.3,6.53-3.93,9.59c-0.27,0.5-0.59,0.99-0.81,1.51c-1.05,2.57-0.86,3.36,1.18,5.19c0.18,0.16,0.36,0.32,0.55,0.48
			c0.59,0.47,0.59,1.05,0.02,1.42c-1.01,0.64-2.1,1.13-3.16,1.69c-0.55,0.29-1.12,0.55-1.62,0.9c-0.62,0.43-1.17,0.95-1.75,1.43
			c-0.79,0.66-1.62,1.1-2.72,0.73c-0.78-0.26-1.31,0.16-1.49,0.91c-0.17,0.7-0.23,1.42-0.3,2.14c-0.07,0.8,0.35,1.06,1.11,0.99
			c1.74-0.17,3.48-0.39,5.22-0.44c1.73-0.04,3.33,0.55,4.73,1.58c1.47,1.07,2.16,2.59,2.27,4.35c0.29,4.73,0.59,9.46,0.75,14.2
			c0.07,2.23-0.28,4.46-1.11,6.57c-1.43,3.64-4.62,4.37-8.08,3.16c-1.06-0.37-2-1.1-2.95-1.73c-0.83-0.54-1.07-0.54-1.28,0.46
			c-0.3,1.44-0.56,2.91-0.66,4.37c-0.17,2.66-0.42,5.29-1.65,7.72c-0.48,0.94-0.98,1.86-1.52,2.77c-0.12,0.2-0.45,0.44-0.61,0.4
			c-0.23-0.06-0.52-0.35-0.56-0.58c-0.28-1.6-0.65-3.21-0.72-4.82c-0.19-4.43-0.3-8.87-0.35-13.3c-0.06-5.04-0.01-10.09-0.02-15.13
			c0-0.36,0.02-0.74-0.08-1.08c-0.15-0.51-0.51-0.89-1.08-0.59c-3,1.59-5.87,3.37-7.92,6.18c-1.28,1.75-1.8,3.67-1.55,5.88
			c0.15,1.39,0.01,2.83-0.19,4.22c-0.09,0.67-0.52,1.35-0.97,1.88c-0.61,0.71-1.31,0.68-2.06,0.11c-0.6-0.45-1.2-0.91-1.81-1.38
			c-2.68,2.13-5.73,3.52-8.84,4.75c-2.01,0.8-3.53,2.17-4.9,3.77c-1.77,2.06-3.43,4.24-5.77,5.7c-1.27,0.79-2.63,1.46-4.03,1.98
			c-1.15,0.43-1.66,0.19-2.21-0.92c-0.81-1.61-1.58-3.26-2.16-4.96c-0.2-0.58,0.02-1.51,0.4-2.04c1.23-1.74,2.58-3.4,3.96-5.02
			c2.44-2.84,4.94-5.62,7.39-8.45c0.18-0.2,0.29-0.7,0.17-0.87c-0.16-0.22-0.61-0.4-0.88-0.34c-3.2,0.7-6.23-0.08-9.21-1.08
			c-0.77-0.26-1.47-0.74-2.21-1.12c0.01-0.1,0.01-0.2,0.02-0.3c0.35-0.18,0.69-0.43,1.06-0.53c1.05-0.28,2.1-0.59,3.17-0.73
			c1.48-0.18,2.81-0.65,3.96-1.6c1.46-1.21,2.93-2.4,4.32-3.68c0.4-0.37,0.96-1,0.29-1.63c-0.19-0.18-0.69-0.31-0.88-0.19
			c-2.91,1.83-5.9,1.67-8.91,0.38c-1.23-0.53-2.43-1.18-3.54-1.93c-0.78-0.53-0.65-0.98,0.28-1.28c0.71-0.23,1.45-0.5,2.19-0.54
			c2.57-0.17,4.63-1.44,6.6-2.91c1.55-1.16,3.06-2.36,4.56-3.58c1.07-0.86,1.13-1.23,0.55-2.47c-1.33-2.88-3.25-5.21-6.17-6.61
			c-1.36-0.65-1.6-0.66-2.51,0.56c-2.1,2.84-4.01,5.82-6.21,8.57c-3.55,4.44-7.42,8.59-12.06,11.93c-0.79,0.57-1.75,0.92-2.68,1.27
			c-0.28,0.1-0.7-0.16-1.05-0.26c0.1-0.31,0.12-0.68,0.31-0.91c5.14-6.44,10.11-13.01,14.46-20.02c4.42-7.12,8.03-14.63,10.8-22.54
			c0.24-0.7,0.17-1.29-0.26-1.86c-0.56-0.75-1.16-1.47-1.69-2.24c-0.18-0.26-0.36-0.79-0.24-0.92c0.21-0.22,0.69-0.39,0.98-0.3
			c1.16,0.34,2.24,0.23,3.33-0.26c0.71-0.32,1.5-0.48,2.21-0.79c1.43-0.63,2.92-0.68,4.44-0.6c1.66,0.08,2.67,2.01,1.83,3.45
			c-0.54,0.94-1.06,1.89-1.59,2.84C390.53,483.84,390.4,484.37,391.16,484.91z M422.82,530.98c0,2.51-0.07,4.71,0.03,6.91
			c0.05,1.22,0.19,2.62,1.3,3.34c1.16,0.75,2.53,1.22,3.85,1.69c0.32,0.11,1.03-0.14,1.19-0.43c0.51-0.9,1.01-1.87,1.22-2.88
			c1.12-5.3,0.89-10.61-0.09-15.91c-0.22-1.21-0.57-2.4-0.93-3.58c-0.18-0.58-0.56-1.21-1.3-1c-1.97,0.56-3.92,1.22-5.51,2.58
			c-0.25,0.22-0.45,0.68-0.42,1.02C422.35,525.57,422.61,528.42,422.82,530.98z M423.58,503.13c-1.3,0.29-2.45,0.58-3.62,0.81
			c-2.08,0.4-2.27,0.94-0.86,2.63c0.19,0.23,0.42,0.44,0.67,0.59c0.19,0.12,0.48,0.23,0.67,0.17c1.28-0.37,2.53-0.83,3.37-1.94
			C424.56,504.42,424.41,503.72,423.58,503.13z"/>
		<path d="M388.25,495.4c2.03-1.65,4.05-3.32,6.1-4.95c2.23-1.78,1.31-2.3-0.35-3.3c-0.57-0.34-1.18-0.59-1.76-0.92
			c-0.21-0.12-0.35-0.35-0.53-0.53c0.2-0.16,0.37-0.41,0.59-0.47c1.9-0.46,3.8-0.92,5.72-1.29c2.89-0.56,5.98,1.62,6.57,4.53
			c0.24,1.21,0,2.3-1.06,2.94c-1.32,0.81-2.69,1.67-4.16,2.1c-3.17,0.92-6.42,1.61-9.64,2.33c-0.48,0.11-1.03-0.08-1.55-0.13
			C388.22,495.62,388.23,495.51,388.25,495.4z"/>
	</g>
</g>
</svg>
