<?xml version="1.0" encoding="utf-8"?>
<!-- Generator: Adobe Illustrator 23.0.2, SVG Export Plug-In . SVG Version: 6.00 Build 0)  -->
<svg version="1.1" id="圖層_1" xmlns="http://www.w3.org/2000/svg" xmlns:xlink="http://www.w3.org/1999/xlink" x="0px" y="0px"
	 viewBox="0 0 536.78 187.58" style="enable-background:new 0 0 536.78 187.58;" xml:space="preserve">
<style type="text/css">
	.st0{fill:#464646;}
	.st1{fill:#005598;}
	.st2{fill:#267CB5;}
</style>
<path class="st0" d="M21.94,120.62l-3.8,25.79c-0.57,3.85-1.85,5.69-4.38,6.7c-2.46,1.1-6.34,1.28-12.58,1.28
	c-0.02-1.74-0.62-4.5-1.18-6.33c4.38,0.18,8.34,0.09,9.44,0.09c1.28,0,1.81-0.46,2-1.74l3.49-23.68l-12.06,3.4l-1.05-6.61
	c3.9-0.92,8.77-2.2,14.12-3.67l2.91-19.73H6.37l0.95-6.42H19.8l2.7-18.36h6.7L26.5,89.7h11.38l-0.95,6.42H25.55l-2.64,17.9l8.9-2.48
	v6.24L21.94,120.62z M80.57,113.28c-5.29,11.01-12.9,19.64-21.76,26.25c6.25,4.31,14.04,7.53,22.93,9.45
	c-1.78,1.47-4.03,4.31-5.23,6.24c-9.47-2.39-17.62-6.24-24.01-11.47c-8.78,5.42-18.59,9.09-28.59,11.56
	c-0.36-1.93-1.41-4.77-2.48-6.24c9.1-1.93,18.1-5.14,26.21-9.73c-5.39-5.78-9.4-12.85-11.87-21.02l0.97-0.37h-3.58l0.95-6.42h41.03
	l1.33-0.28L80.57,113.28z M53.37,84.83c-1.2,8.17-5.13,17.99-17.38,24.51c-0.62-1.38-2.63-3.95-3.66-5.05
	c10.92-5.6,13.68-13.13,14.64-19.64l1.49-10.1h28.91l-3.12,21.2c-0.38,2.57-0.24,3.49,1.23,3.49h7.07c1.38,0,3.42-0.18,4.66-0.46
	c-0.17,1.74-0.36,4.31-0.31,5.87c-1.25,0.37-3.19,0.46-5.02,0.46h-7.71c-6.33,0-7.41-2.66-6.41-9.45l2.16-14.69H53.95L53.37,84.83z
	 M42.43,117.96c2.23,6.7,6.22,12.57,11.37,17.53c6.67-4.77,12.57-10.56,16.9-17.53C70.7,117.96,42.43,117.96,42.43,117.96z"/>
<path class="st0" d="M120.31,143.85c-7.99,4.41-20.19,8.72-29.64,11.2c-0.99-1.38-2.91-3.95-4.29-5.14
	c9.65-1.93,21.15-5.23,28.19-8.81L120.31,143.85z M120.03,96.49H93.78l0.81-5.51h26.25L120.03,96.49z M119.86,82.08H97.92l0.78-5.32
	h21.94L119.86,82.08z M104.75,103.65h59.38l-5.42,36.81H99.33L104.75,103.65z M106.6,135.95h45.98l0.95-6.42h-45.98L106.6,135.95z
	 M108.2,125.12h45.98l0.92-6.24h-45.98L108.2,125.12z M109.76,114.48h45.98l0.92-6.24h-45.98L109.76,114.48z M136.46,82.81
	c-2.53,3.49-5.39,6.7-8.24,9.18c-0.95-1.01-3.27-2.75-4.63-3.49c5.41-4.31,10.12-10.74,13.12-17.44l5.95,1.38
	c-0.81,1.74-1.79,3.4-2.67,5.05h30.75l1.14-0.28l4.36,1.56c-2.98,4.68-6.7,10-9.66,13.22l-5.13-1.93c1.66-1.93,3.71-4.59,5.38-7.25
	h-14.59L152.06,84c-0.13,0.92-0.38,1.93-0.72,3.03c4.05,5.51,13.53,9.09,25.41,10.1c-1.47,1.29-3.58,3.76-4.65,5.42
	c-10.25-1.47-18.52-5.14-23.38-10.74c-3.69,4.5-11.56,8.72-28.08,11.2c-0.52-1.47-1.9-3.95-2.93-5.05
	c24.24-3.21,27.37-9.45,28.07-14.23l0.13-0.92H136.46z M141.65,141c9.37,3.03,19.53,6.98,25.52,9.91l-6.55,3.95
	c-5.44-2.94-14.77-6.88-24.2-10.19L141.65,141z"/>
<path class="st0" d="M262.16,108.6l-1.1,7.43h-83.34l1.09-7.43H262.16z"/>
<path class="st0" d="M342.26,77.58l-11.21,76.09h-7.16l0.82-5.6h-45.52l-0.88,5.97h-6.88l11.26-76.46
	C282.69,77.58,342.26,77.58,342.26,77.58z M325.71,141.37l3.77-25.61h-45.52l-3.77,25.61H325.71z M288.59,84.28l-3.65,24.78h45.52
	l3.65-24.78H288.59z"/>
<path class="st1" d="M348.94,133.7l15.73-17.88c6.2,6.71,13.79,11.5,23.06,11.5c11.02,0,18.86-4.47,20.08-12.77
	c1.43-9.74-3.15-15.49-28.06-15.49l2.96-20.12c20.28,0,27.56-6.07,28.83-14.69c1.15-7.82-3-12.13-11.79-12.13
	c-7.98,0-14.59,3.67-22.72,10.06l-11.81-17.4c12.36-9.1,25.02-14.85,39.07-14.85c24.59,0,39,11.65,35.99,32.09
	c-1.72,11.65-9.53,20.28-22.76,25.54l-0.12,0.8c12.53,3.83,20.88,13.25,18.69,28.1c-3.2,21.71-25.26,33.85-48.89,33.85
	C368.36,150.3,356.08,143.76,348.94,133.7z"/>
<path class="st0" d="M511.33,90.89c-8.26,8.08-20.14,13.95-33.33,18.17h35.61l-6.7,45.52h-6.7l0.57-3.85h-41.21l-0.62,4.22h-6.61
	l6-40.75c-4.54,0.92-9.07,1.74-13.57,2.39c-0.61-1.47-2.27-4.5-3.34-5.97c13.92-1.65,28-4.41,40.21-8.81h-0.92l4.49-30.47h6.7
	l-4.11,27.9c6.96-3.03,13.02-6.79,17.63-11.29L511.33,90.89z M473.72,78.31c-5.65,9.09-14.08,17.71-21.62,23.4
	c-1.11-1.19-3.66-3.21-5.28-4.04c7.82-5.14,15.5-13.03,20.47-21.2L473.72,78.31z M501.56,145.41l1.05-7.16H461.4l-1.05,7.16H501.56z
	 M462.14,133.2h41.21l1.04-7.07h-41.21L462.14,133.2z M506.11,114.48H464.9l-0.99,6.7h41.21L506.11,114.48z M509.13,75.93
	c6.5,5.69,14.13,13.77,17.4,19.55l-6.35,3.85c-3.02-5.69-10.4-14.13-16.97-20.01L509.13,75.93z"/>
<polygon class="st1" points="442.71,26.67 451.38,0 461.38,7.33 "/>
<polygon class="st2" points="464.38,19.33 469.04,30 452.04,35 "/>
<polygon class="st1" points="513.89,177.33 170.64,177.33 172.28,169.58 515.53,169.58 "/>
<polygon class="st2" points="535.73,187.58 192.88,187.58 193.93,182.58 536.78,182.58 "/>
</svg>
