<?xml version="1.0" encoding="utf-8"?>
<!-- Generator: Adobe Illustrator 23.0.2, SVG Export Plug-In . SVG Version: 6.00 Build 0)  -->
<svg version="1.1" id="圖層_1" xmlns="http://www.w3.org/2000/svg" xmlns:xlink="http://www.w3.org/1999/xlink" x="0px" y="0px"
	 viewBox="0 0 459.14 123.43" style="enable-background:new 0 0 459.14 123.43;" xml:space="preserve">
<style type="text/css">
	.st0{fill:#CCCCCC;}
</style>
<path class="st0" d="M0,0v123.43h459.14V0H0z M451.06,116.47H8.08V6.96h442.98V116.47z"/>
<path class="st0" d="M436.16,111.57H22.99v-9.34h-9.98V21.46h9.98v-9.34h413.17v9.34h9.98v80.78h-9.98V111.57z M26.98,107.58h405.19
	v-5.35h-12.46V86h16.45v12.24h5.99v-72.8h-5.99v12.24h-16.45V21.46h12.46v-5.35H26.98v5.35h12.46V37.7H22.99V25.45H17v72.8h5.99V86
	h16.45v16.24H26.98V107.58z M423.7,98.24h8.47v-8.25h-8.47V98.24z M26.98,98.24h8.47v-8.25h-8.47V98.24z M423.7,33.7h8.47v-8.25
	h-8.47V33.7z M26.98,33.7h8.47v-8.25h-8.47V33.7z"/>
<path class="st0" d="M101.13,64.54c-2.14,3.28-5.2,7.27-7.63,9.76c-1.43-1.14-4.35-2.92-6.06-3.85c2.49-2.28,5.06-5.35,6.77-8.13
	L101.13,64.54z M87.88,88.2c2.78-3.28,5.27-8.27,6.7-12.69l8.2,3.35c-1.64,4.7-3.85,10.26-6.7,13.97L87.88,88.2z M148.1,60.48
	c2.85,2.35,6.49,5.77,8.13,8.27l-5.99,4.28c-1.5-2.42-4.85-5.99-7.7-8.55V75.1h-8.34V60.41c-5.7,0.5-7.27,0.86-8.41,1.28
	c-0.36-1.43-1.43-4.99-2.21-6.98c1.85-0.21,3.63-1.07,6.06-2.42c0.86-0.43,2.35-1.28,4.13-2.42c-5.92,0.5-7.41,0.86-8.41,1.28
	c-0.36-1.43-1.43-4.7-2.21-6.56c1.21-0.21,2.49-0.71,3.92-1.64c1.07-0.64,3.78-2.42,6.49-4.63c-3.56,1.21-7.13,2.35-10.48,3.35
	c-0.36-1.28-1.21-3.28-2-4.7v17.82H123v6.41h-12.69v13.4h-7.91V61.2H89.94v-6.41h2.71v-24.8h28.44v6.06
	c7.7-2.49,16.25-6.13,21.38-9.27l5.84,5.35c-2.99,1.57-6.41,2.99-9.98,4.42l4.63,2.28c-2.28,2-4.99,3.99-7.63,5.63l6.63-0.36
	c1.5-1.21,3.06-2.49,4.42-3.78l6.56,4.06c-4.56,3.64-9.62,7.06-14.68,9.91l7.48-0.43c-0.71-0.71-1.43-1.43-2.14-2.07l5.2-2.99
	c3.14,2.49,6.7,6.27,8.27,8.98l-5.49,3.28c-0.36-0.57-0.78-1.28-1.28-1.92l-7.77,0.57v4.63L148.1,60.48z M100.42,36.03v1.64h12.47
	v-1.64H100.42z M112.89,41.66h-12.47v1.71h12.47V41.66z M112.89,47.29h-12.47v2h12.47V47.29z M112.89,54.77v-1.85h-12.47v1.85
	H112.89z M128.64,85.64c3.06,0,3.56-1.14,3.99-8.13c2.07,1.5,6.2,2.92,8.84,3.49c-1.07,10.41-3.71,13.04-11.97,13.04h-11.48
	c-10.41,0-13.11-2.64-13.11-10.62v-7.84h10.26v7.7c0,2.14,0.57,2.35,4.13,2.35h9.34V85.64z M133.35,64.4
	c-2,2.92-5.06,6.63-7.41,8.84c-0.93-1-2.85-2.71-4.35-3.99l-4.63,3.71c-1.21-1.92-3.99-4.85-6.2-6.91l4.99-3.71
	c1.78,1.5,3.92,3.56,5.42,5.27c1.92-1.64,3.92-3.78,5.2-5.63L133.35,64.4z M123.23,71.74c2.49,2.35,5.49,5.84,6.84,8.27l-7.7,4.49
	c-1.14-2.42-3.92-6.06-6.34-8.7L123.23,71.74z M149.88,74.95c2.49,4.06,5.27,9.48,6.27,13.19l-9.76,3.21
	c-0.78-3.56-3.28-9.27-5.63-13.54L149.88,74.95z"/>
<path class="st0" d="M225.58,33.75v8.62H162v-8.62h26.51c-0.43-1.43-1-2.92-1.43-4.21l10.83-2.64c0.85,2.07,2,4.63,2.85,6.84
	L225.58,33.75L225.58,33.75z M224.37,86.21c0,4.35-1.07,6.2-4.21,7.41c-3.06,1.07-7.27,1.14-12.54,1.07c-0.36-1.64-1.14-3.63-2-5.42
	h-18.46v2.57h-9.55V72.59h31.72v14.9c1.43,0,2.64-0.07,3.06-0.07c1.07,0,1.5-0.28,1.5-1.28V70.88h-40.2v24.38h-10.05V62.54h60.73
	V86.21z M218.02,60.33h-47.25V44.37h47.25V60.33z M207.05,51.14H181.1v2.42h25.94L207.05,51.14L207.05,51.14z M200.28,79.58h-13.11
	v2.71h13.11V79.58z"/>
<path class="st0" d="M290.65,87.06c0.21,0,0.43-0.07,0.64-0.21s0.36-0.5,0.5-1.43c0.14-0.85,0.21-2.78,0.21-5.27
	c1.71,1.57,5.42,3.42,7.98,4.28c-0.29,2.71-0.64,5.49-1.21,6.77c-0.64,1.43-1.64,2.35-3.07,2.99c-1.07,0.57-2.92,0.78-4.21,0.78
	h-4.21c-1.85,0-4.21-0.64-5.56-2.07c-1.35-1.35-2-3.14-2-7.77v-8.77h-3.07c-1,9.05-3.99,15.4-16.75,19.1
	c-0.57-1.64-1.92-3.92-3.35-5.77c-7.84,1.64-15.89,3.14-22.31,4.42l-1.92-9.34c2.78-0.36,6.2-0.86,9.84-1.43V66.46h-8.84v-8.7h8.84
	v-3.85h-5.77v-2.35c-0.86,0.86-1.64,1.57-2.49,2.28c-0.5-2.35-2.35-8.2-3.49-10.76c4.99-3.71,10.48-9.76,13.61-16.04l7.48,3.49
	c-0.36,0.78-0.71,1.5-1.14,2.28c4.56,2.57,8.91,5.49,11.62,7.84l-2.28,3.71h7.41c-0.36-1.43-0.86-2.92-1.35-4.21l5.06-1h-10.26v-7.7
	h13.19c-0.36-0.86-0.71-1.71-1.07-2.49l9.12-2.14c0.78,1.35,1.57,3.06,2.14,4.63h13.54v7.7h-9.55l4.92,0.78l-2.28,4.42h8.05v7.91
	h-39.84v-6.34l-1.5,2.42v5.56h-6.27v3.85h8.34v8.7h-8.34v11.9c0.86-3.06,1.71-7.34,2.07-10.41l7.27,1.71
	c-1.28,3.92-2.42,8.05-3.35,10.83l-5.99-1.57v2.92c2.99-0.5,6.06-1.07,9.05-1.57l0.43,5.35c4.63-2.21,5.92-5.2,6.49-9.27h-4.78
	V53.99h33.85v22.38h-6.77v8.84c0,0.78,0,1.28,0.07,1.5c0.14,0.21,0.29,0.36,0.57,0.36h0.73V87.06z M239.84,68.46
	c1.07,3.78,2,8.55,2.35,11.76l-6.77,1.85c-0.14-3.28-1.07-8.2-2-11.97L239.84,68.46z M253.02,45.37c-2.21-1.71-4.7-3.42-7.2-4.99
	c-1.21,1.71-2.42,3.42-3.71,4.99C242.11,45.37,253.02,45.37,253.02,45.37z M270.84,62.33h16.18v-2.21h-16.18V62.33z M270.84,70.24
	h16.18v-2.21h-16.18V70.24z M274.33,39.17c0.78,1.64,1.5,3.71,1.78,5.2h5.63c0.57-1.64,1.21-3.63,1.64-5.2H274.33z"/>
<path class="st0" d="M314.82,75.66v5.92h-9.55v-50.4h25.94v44.48H314.82z M314.82,40.52v8.13h6.84v-8.13H314.82z M321.66,66.25
	v-8.41h-6.84v8.41H321.66z M368.49,83.93c0,5.06-1,7.77-4.06,9.41c-3.14,1.64-7.34,1.92-13.26,1.92c-0.43-2.85-2.07-7.41-3.56-9.98
	c3.42,0.21,7.7,0.14,8.91,0.14c1.28,0,1.71-0.43,1.71-1.64V72.95h-14.4c-1.85,8.62-5.84,17.18-13.83,22.88
	c-1.57-2-5.63-5.56-7.84-6.91c12.04-8.55,13.04-21.81,13.04-32.57V30.33h33.28L368.49,83.93L368.49,83.93z M358.22,63.68v-7.27
	h-12.83c0,2.28-0.07,4.7-0.28,7.27H358.22z M345.39,39.88v7.27h12.83v-7.27H345.39z"/>
</svg>
