<?xml version="1.0" encoding="utf-8"?>
<!-- Generator: Adobe Illustrator 23.0.2, SVG Export Plug-In . SVG Version: 6.00 Build 0)  -->
<svg version="1.1" id="圖層_1" xmlns="http://www.w3.org/2000/svg" xmlns:xlink="http://www.w3.org/1999/xlink" x="0px" y="0px"
	 viewBox="0 0 576.6 330.9" style="enable-background:new 0 0 576.6 330.9;" xml:space="preserve">
<style type="text/css">
	.st0{fill:#464646;}
	.st1{fill:#005598;}
	.st2{fill:#603813;}
</style>
<g>
	<g>
		<path class="st0" d="M156.6,0l-17.4,118.3h-18.7l0.8-5.1H45l-0.8,5.1H26.5L43.9,0H156.6z M123.8,96.4l11.7-79.5h-9.9
			c2.7,1.8,5.3,3.9,6.5,5.8l-5.4,4.8h4.4l-1.9,13h-21c-0.3,4.8-0.5,9.3-0.6,13.5c2.1-3.5,3.9-7.4,5.6-11.3l13.8,2.8
			c-4.7,10.8-10.7,20.5-17.7,28.8c0.7,2.2,1.7,3.5,2.8,3.9c1.2,0.5,2.7-4.4,4.3-11.5c2.3,2.8,7.3,7.4,10.1,9.1
			c-4.6,17-13.6,21.9-22.4,17.1c-2.8-1.2-5.1-3.4-6.7-6.5c-4.2,3.5-8.4,6.6-12.9,9.2c-1.3-2.5-4.8-7.3-7.3-10.1
			c-9,1.2-17.7,2.2-25.4,3.1l0.6-13.5c9.3-0.7,22.5-1.8,35.7-3.1l-0.6,5.2c2-1.6,4-3.2,5.8-5.1c-1.2-8.8-1-19.7-0.1-31.6H59.1
			l1.9-13h33.2c0.2-3.1,0.5-6.2,0.9-9.5h15.4c-0.3,3.2-0.8,6.4-1.1,9.5h9.5c-2-1.7-4.2-3.5-6.2-4.8l6.8-5.8H59.2L47.5,96.4
			L123.8,96.4L123.8,96.4z M86.7,69.1H57.5l3.6-24.5h29.2L86.7,69.1z M76.5,54.1h-5.2l-0.8,5.6h5.2L76.5,54.1z"/>
		<path class="st0" d="M232.6,74.4c2.9,13.6,8,23.2,12.9,23.2c2.7,0,4.8-5.6,7.5-18.2c3.6,3.8,10,7.5,14.9,9.1
			c-6,23.2-13.2,27.8-26.1,27.8c-15.7,0-26.1-17.6-29.6-41.9h-30.7l-2.9,20l31.6-6.1c-0.6,5.3-1,13.6-0.7,17.9
			c-41,8.7-48.4,10-53.3,12.4c-0.6-4.8-3.4-13-5.9-16.6c3.7-2.1,8.2-6.1,9.1-12.2l13.2-89.8h96.4l-6.6,45h-31.6
			c-0.2,4-0.3,7.9-0.1,11.8h38.9l-2.6,17.5L232.6,74.4L232.6,74.4z M210.7,56.9c-0.1-3.9,0-7.8,0.3-11.8h-25.4l-1.7,11.8H210.7z
			 M189.7,17.5l-1.5,10.2h57.3l1.5-10.2H189.7z"/>
	</g>
	<g>
		<path class="st0" d="M48.7,278.1l-4,27.1H23.1l4-27.1H0l3.4-22.9h27.1l1.3-8.5H10.1l10-67.6h21.4l1.1-7.6H18.4l3.3-22.5h24.2
			l2.4-16h21.4l-2.4,16h24.9L89,171.4H64.1l-1.1,7.6H86l-10,67.6H53.3l-1.3,8.5h26.7l-3.4,22.9L48.7,278.1L48.7,278.1z M30.5,228.7
			h6.4l1.1-7.4h-6.4L30.5,228.7z M34.1,204.3h6.4l1.1-7.3h-6.4L34.1,204.3z M61.1,221.2h-6.5l-1.1,7.4H60L61.1,221.2z M64.6,197.1
			h-6.5l-1.1,7.3h6.5L64.6,197.1z M173.4,279l-3.2,22H71.9l3.2-22h35.8l3.3-22.7H85.9l3.2-22h85.2l-3.2,22h-30.4l-3.4,22.7H173.4z
			 M97.9,233.8c-1.6-10-6.5-24-12.5-37.1c7.5-11.3,15.5-24.9,19.9-34.2l20.4,4.4c-6.1,10.5-12.5,20.7-18.4,29.6
			c5.2,10.2,9.9,21.6,11.8,29.4L97.9,233.8z M187.7,161.2H95.2l3.2-22h92.5L187.7,161.2z M154.9,166.9c-6.3,10.5-12.8,20.4-19,29.3
			c5.8,9.8,11.1,21.1,13.4,28.9l-21.2,8c-2.2-9.8-7.6-23.6-14.6-36.7c8-11.3,16.3-24.5,21-33.8L154.9,166.9z M158.6,233.8
			c-2.5-10-8.6-24-16.2-37.1c8.6-11.3,17.5-24.9,22.7-34.2l20.8,4.5c-6.7,10.7-13.9,20.5-20.5,29.4c6.2,9.8,11.9,21.3,14.4,29.1
			L158.6,233.8z"/>
		<path class="st0" d="M229.7,253.6c5.4,3.8,16.8,12.9,19.7,15.6l-16.2,17.3c-1.6-2.7-4.1-6.5-6.8-10.4l-4.2,28.7h-23.3l3.9-26.2
			c-5.7,6.5-11.8,12.4-17.7,16.7c-2.9-5.3-8.8-13.3-13.1-17.5c10.7-6,22.4-16,31.4-26.5h-22l2.9-19.6h25.4l1.8-12h23.3l-1.8,12h20.2
			l-2.4,16.5c9.2-8,17.5-18.5,22.7-29.4l20.9,5.3c-8.7,17.1-21.9,33.6-35.2,43.8c-3.1-4-10.3-11.5-14.7-14.7
			c0.8-0.6,1.6-1.3,2.4-1.8H230L229.7,253.6z M260.4,222.7c-1.1-2.2-2.8-4.7-4.5-7.6c-49.6,3.3-56.7,3.6-62.2,5.4
			c-0.4-3.1-1.9-10.4-3-14.4c2.4-0.5,4.8-1.8,7.6-3.6c1.4-0.7,3.8-2.4,6.8-4.4h-16.4l2-13.8h13.4l7-47.4h73.1l-2,13.8H233l-0.5,3.6
			h43.2l-1.7,11.3h-43.2l-0.5,3.6h43.2l-1.7,11.3h-43.2l-0.6,3.8h52.9l-2,13.8h-12.5c4.4,5.8,9.6,12.5,12.4,17.1L260.4,222.7z
			 M245.8,200.7l6.7-2.5h-24.9c-3.1,2.2-6.1,4.4-9.3,6.5l29.5-1.4L245.8,200.7z M322.5,262.3c5.5,10.7,13.5,25.4,17.3,34.5
			l-21.7,9.1c-0.7-2.4-1.8-5.1-3.2-8.2c-46.5,3.3-55.3,4.2-61.4,6.4c-0.6-4.4-2.9-14.7-4.8-20.4c4.1-0.9,7.8-3.6,12.2-7.8
			c4.8-4.2,19.5-20,28.8-35.4l20.4,11.1c-7.1,9.1-16,18.7-25.3,27.3l21.2-0.9l-3.8-7.8L322.5,262.3z M354.7,189.4
			c-16.4,14.9-40.8,23.1-68.3,28.2c-1.7-5.4-6-12.5-10-17.1c22.8-2.7,46-8.7,58.3-18.4L354.7,189.4z M353.5,166.7
			c-15.2,11.6-37.1,19.6-57.7,24.4c-2.4-4.7-7.1-11.3-11.5-15.4c17.7-3.1,39.2-9.4,50.3-17.1L353.5,166.7z M352.5,144.4
			c-15.6,9.6-36.9,17.6-53.6,22.4c-3-4.5-8-10.7-12.9-14.7c15.1-3.6,36.8-10.5,48-17.3L352.5,144.4z M326.9,215.6
			c3.7,12.9,13.3,25.4,25.4,32.3c-5.4,4.4-14.2,13.5-18.5,19.3c-10.4-8.4-19-20-24.4-32H294l2.9-19.6H326.9z"/>
		<path class="st1" d="M532.7,181.2c-2.1-5.7-5.8-12.4-10.2-19.4c-16,14.3-35.6,25.7-56.8,35h66.7L516,307.3h-31l0.9-5.9h-77.4l-1,7
			H378l13.1-88.8c-6.9,1.3-13.7,2.7-20.6,3.8c-2.8-7-10.1-20.2-14.9-26.6c32-3.8,63.3-10.1,90.1-20.2l10.1-68.5h30.4l-7.8,53.2
			c7.7-4.9,14.6-10.1,20.5-15.8l18.3,8.9c-5.9-8.4-12.7-16.7-19.3-23.6l26.6-14.8c14.2,13.9,30.9,33.8,37.5,48.7L532.7,181.2z
			 M441.5,126.3c-12,21.1-29.9,42.8-45.4,56.1c-5.3-5.3-17-13.7-23.8-17.7c15.3-11,30.6-29.1,40-46.6L441.5,126.3z M489.2,279.2
			l1-6.8h-77.4l-1,6.8H489.2z M415.8,252.2h77.4l1-6.8h-77.4L415.8,252.2z M498,219.3h-77.4l-0.9,5.9h77.4L498,219.3z"/>
	</g>
	<polygon class="st1" points="499.4,100.9 487.6,84.6 502.2,91.8 501.1,62.3 514.2,83.3 531.1,69.4 532.7,85.8 558.1,77.6 
		546.9,94.9 568.6,101.9 553.1,104.6 576.6,114.6 562.2,118.1 568.2,113.8 546.1,105.6 556.2,100.4 538.4,96.4 552.4,81.4 
		530.2,91.4 529.4,74.4 514.6,88.1 503.9,69.8 506.4,96.6 493.7,89.3 	"/>
	<path class="st2" d="M386.6,314.9h115.7c7.5,0,13.7,6.1,13.7,13.7l0,0c0,1.3-1.1,2.4-2.4,2.4H375.3c-1.3,0-2.4-1.1-2.4-2.4l0,0
		C372.9,321,379,314.9,386.6,314.9z"/>
</g>
</svg>
