<?xml version="1.0" encoding="utf-8"?>
<!-- Generator: Adobe Illustrator 23.0.2, SVG Export Plug-In . SVG Version: 6.00 Build 0)  -->
<svg version="1.1" id="圖層_1" xmlns="http://www.w3.org/2000/svg" xmlns:xlink="http://www.w3.org/1999/xlink" x="0px" y="0px"
	 viewBox="0 0 576.57 330.94" style="enable-background:new 0 0 576.57 330.94;" xml:space="preserve">
<style type="text/css">
	.st0{fill:#464646;}
	.st1{fill:#005598;}
	.st2{fill:#603813;}
	.st3{fill:#A67C52;}
	.st4{fill:#FFBC40;}
</style>
<g>
	<g>
		<path class="st0" d="M156.62,0L139.2,118.28h-18.68l0.75-5.06H45l-0.75,5.06H26.49L43.91,0H156.62z M123.75,96.36l11.71-79.5
			h-9.86c2.72,1.82,5.26,3.89,6.53,5.84l-5.38,4.8h4.41l-1.91,12.97h-21.01c-0.32,4.8-0.47,9.34-0.56,13.49
			c2.07-3.5,3.94-7.39,5.55-11.28l13.85,2.85c-4.7,10.76-10.67,20.49-17.73,28.79c0.71,2.2,1.69,3.5,2.8,3.89
			c1.22,0.52,2.72-4.41,4.29-11.54c2.3,2.85,7.34,7.39,10.08,9.08c-4.58,16.99-13.6,21.92-22.37,17.12
			c-2.81-1.17-5.08-3.37-6.7-6.48c-4.15,3.5-8.37,6.61-12.9,9.21c-1.32-2.46-4.77-7.26-7.33-10.12c-8.99,1.17-17.7,2.21-25.36,3.11
			l0.56-13.49c9.3-0.65,22.45-1.82,35.74-3.11l-0.63,5.19c2.04-1.56,3.98-3.24,5.8-5.06c-1.17-8.82-0.99-19.71-0.14-31.64H59.09
			L61,27.49h33.2c0.2-3.11,0.53-6.23,0.88-9.47h15.43c-0.35,3.24-0.81,6.35-1.13,9.47h9.47c-1.96-1.69-4.15-3.5-6.17-4.8l6.83-5.84
			H59.2l-11.71,79.5H123.75z M86.65,69.12H57.46l3.61-24.51h29.18L86.65,69.12z M76.54,54.08h-5.19l-0.82,5.58h5.19L76.54,54.08z"/>
		<path class="st0" d="M232.55,74.44c2.92,13.62,7.99,23.21,12.92,23.21c2.72,0,4.84-5.58,7.47-18.16
			c3.6,3.76,10.05,7.52,14.88,9.08c-6.01,23.21-13.17,27.75-26.14,27.75c-15.69,0-26.07-17.64-29.63-41.89h-30.74l-2.94,19.97
			l31.64-6.1c-0.65,5.32-0.97,13.62-0.69,17.9c-40.97,8.69-48.42,9.99-53.32,12.45c-0.59-4.8-3.41-12.97-5.86-16.6
			c3.68-2.07,8.16-6.1,9.06-12.19l13.22-89.75h96.37l-6.63,45h-31.65c-0.2,4.02-0.26,7.91-0.05,11.8h38.91l-2.58,17.51H232.55z
			 M210.74,56.93c-0.08-3.89-0.02-7.78,0.31-11.8h-25.42l-1.74,11.8H210.74z M189.7,17.51l-1.51,10.25h57.33l1.51-10.25H189.7z"/>
	</g>
	<g>
		<path class="st0" d="M48.7,278.1l-3.99,27.08H23.09l3.99-27.08H0l3.37-22.9h27.08l1.26-8.54H10.08l9.96-67.6h21.44l1.12-7.63
			H18.44l3.32-22.53h24.17l2.36-15.99h21.44l-2.36,15.99h24.9l-3.32,22.53h-24.9l-1.12,7.63h23.08l-9.96,67.6H53.33l-1.26,8.54
			h26.71l-3.37,22.9H48.7z M30.54,228.67h6.36l1.1-7.45h-6.36L30.54,228.67z M34.13,204.32h6.36l1.07-7.27H35.2L34.13,204.32z
			 M61.08,221.22h-6.54l-1.1,7.45h6.54L61.08,221.22z M64.64,197.05H58.1l-1.07,7.27h6.54L64.64,197.05z M173.42,279.01l-3.24,21.99
			H71.87l3.24-21.99h35.8l3.35-22.72H85.9l3.24-21.99h85.23l-3.24,21.99h-30.35l-3.35,22.72H173.42z M97.94,233.76
			c-1.62-10-6.46-23.99-12.53-37.07c7.47-11.27,15.48-24.9,19.93-34.16l20.44,4.36c-6.1,10.54-12.5,20.72-18.36,29.62
			c5.23,10.18,9.9,21.63,11.84,29.44L97.94,233.76z M187.67,161.25h-92.5l3.24-21.99h92.5L187.67,161.25z M154.86,166.88
			c-6.28,10.54-12.81,20.35-19.03,29.26c5.82,9.81,11.07,21.08,13.37,28.89l-21.17,8c-2.19-9.81-7.61-23.62-14.58-36.71
			c8.02-11.27,16.33-24.53,20.97-33.8L154.86,166.88z M158.64,233.76c-2.53-10-8.64-23.99-16.17-37.07
			c8.56-11.27,17.48-24.9,22.66-34.16l20.77,4.54c-6.67,10.72-13.93,20.53-20.51,29.44c6.19,9.81,11.95,21.26,14.44,29.08
			L158.64,233.76z"/>
		<path class="st0" d="M229.69,253.56c5.43,3.82,16.82,12.9,19.69,15.63l-16.17,17.26c-1.6-2.73-4.13-6.54-6.83-10.36l-4.23,28.71
			h-23.26l3.85-26.17c-5.69,6.54-11.82,12.36-17.73,16.72c-2.86-5.27-8.77-13.27-13.06-17.45c10.7-6,22.35-15.99,31.35-26.53H181.3
			l2.89-19.63h25.44l1.77-11.99h23.26l-1.77,11.99h20.17l-2.44,16.54c9.17-8,17.45-18.54,22.69-29.44l20.85,5.27
			c-8.69,17.08-21.85,33.62-35.16,43.8c-3.05-4-10.31-11.45-14.73-14.72c0.81-0.55,1.64-1.27,2.45-1.82h-16.72L229.69,253.56z
			 M260.41,222.67c-1.13-2.18-2.76-4.72-4.51-7.63c-49.55,3.27-56.69,3.63-62.23,5.45c-0.45-3.09-1.93-10.36-2.97-14.36
			c2.44-0.54,4.81-1.82,7.62-3.63c1.38-0.73,3.8-2.36,6.82-4.36h-16.36l2.03-13.81h13.45l6.99-47.43h73.06l-2.03,13.81h-49.25
			l-0.54,3.63h43.25l-1.66,11.27h-43.25l-0.54,3.63h43.25l-1.66,11.27h-43.25l-0.56,3.82h52.88l-2.03,13.81h-12.54
			c4.41,5.82,9.6,12.54,12.39,17.08L260.41,222.67z M245.83,200.68l6.74-2.54h-24.9c-3.05,2.18-6.09,4.36-9.32,6.54l29.47-1.45
			L245.83,200.68z M322.54,262.29c5.51,10.72,13.52,25.44,17.27,34.53l-21.69,9.09c-0.74-2.36-1.79-5.09-3.16-8.18
			c-46.46,3.27-55.32,4.18-61.45,6.36c-0.63-4.36-2.92-14.72-4.82-20.35c4.13-0.91,7.8-3.63,12.24-7.81
			c4.79-4.18,19.48-19.99,28.84-35.44l20.36,11.08c-7.15,9.09-16.02,18.72-25.28,27.26l21.21-0.91l-3.76-7.81L322.54,262.29z
			 M354.72,189.42c-16.37,14.9-40.84,23.08-68.3,28.17c-1.74-5.45-5.97-12.54-10.02-17.08c22.75-2.73,45.99-8.72,58.31-18.35
			L354.72,189.42z M353.52,166.7c-15.16,11.63-37.06,19.63-57.74,24.35c-2.39-4.73-7.06-11.27-11.54-15.45
			c17.72-3.09,39.19-9.45,50.31-17.08L353.52,166.7z M352.45,144.35c-15.59,9.63-36.94,17.63-53.63,22.35
			c-2.97-4.54-8.05-10.72-12.92-14.72c15.07-3.63,36.81-10.54,47.98-17.26L352.45,144.35z M326.87,215.58
			c3.73,12.9,13.34,25.44,25.4,32.35c-5.37,4.36-14.16,13.45-18.47,19.26c-10.4-8.36-19.05-19.99-24.37-31.98H294l2.89-19.63H326.87
			z"/>
		<path class="st1" d="M532.73,181.16c-2.11-5.69-5.76-12.44-10.22-19.4c-16.03,14.34-35.64,25.73-56.83,35.01h66.65l-16.28,110.51
			h-31l0.87-5.91h-77.4l-1.02,6.96h-29.53l13.08-88.79c-6.94,1.27-13.69,2.74-20.6,3.8c-2.77-6.96-10.09-20.25-14.86-26.57
			c31.98-3.8,63.29-10.12,90.09-20.25l10.09-68.54h30.37l-7.83,53.15c7.67-4.85,14.57-10.12,20.47-15.82l18.31,8.86
			c-5.93-8.44-12.73-16.66-19.3-23.62l26.64-14.76c14.19,13.92,30.88,33.75,37.54,48.72L532.73,181.16z M441.47,126.33
			c-11.96,21.09-29.93,42.81-45.38,56.1c-5.34-5.27-16.96-13.71-23.75-17.72c15.32-10.97,30.65-29.1,39.98-46.61L441.47,126.33z
			 M489.18,279.23l0.99-6.75h-77.4l-0.99,6.75H489.18z M415.75,252.24h77.4l0.99-6.75h-77.4L415.75,252.24z M498,219.34h-77.4
			l-0.87,5.91h77.4L498,219.34z"/>
	</g>
	<polygon class="st1" points="488.47,57.93 476.64,41.6 491.3,48.77 490.14,19.27 503.3,40.27 520.14,26.43 521.8,42.77 
		547.14,34.6 535.97,51.93 557.64,58.93 542.14,61.6 565.64,71.6 551.3,75.1 557.3,70.77 535.14,62.6 545.3,57.43 527.47,53.43 
		541.47,38.43 519.3,48.43 518.47,31.43 503.64,45.1 492.97,26.77 495.47,53.6 482.8,46.27 	"/>
	<g>
		
			<rect x="491.29" y="70.43" transform="matrix(0.4206 -0.9072 0.9072 0.4206 223.53 506.4509)" class="st2" width="33.96" height="15.59"/>
		<path class="st2" d="M576.23,109.53L576.23,109.53c-0.85,1.84-3.03,2.63-4.86,1.78l-58.11-26.94l3.08-6.65l58.11,26.94
			C576.28,105.52,577.08,107.7,576.23,109.53z"/>
		<path class="st3" d="M490.79,90.5L490.79,90.5c-0.62,1.34-0.04,2.93,1.3,3.55l14.56,6.75c1.34,0.62,2.93,0.04,3.55-1.3l0,0
			c0.62-1.34,0.04-2.93-1.3-3.55l-14.56-6.75C493,88.57,491.41,89.16,490.79,90.5z"/>
		<path class="st3" d="M506.71,56.15L506.71,56.15c-0.62,1.34-0.04,2.93,1.3,3.55l14.56,6.75c1.34,0.62,2.93,0.04,3.55-1.3v0
			c0.62-1.34,0.04-2.93-1.3-3.55l-14.56-6.75C508.92,54.23,507.33,54.81,506.71,56.15z"/>
		
			<rect x="503.47" y="70.21" transform="matrix(0.4206 -0.9072 0.9072 0.4206 223.7175 506.4315)" class="st4" width="9.77" height="15.7"/>
	</g>
	<path class="st2" d="M386.59,314.91h115.68c7.54,0,13.66,6.12,13.66,13.66l0,0c0,1.31-1.06,2.37-2.37,2.37H375.29
		c-1.31,0-2.37-1.06-2.37-2.37v0C372.93,321.03,379.04,314.91,386.59,314.91z"/>
</g>
</svg>
