<?xml version="1.0" encoding="utf-8"?>
<!-- Generator: Adobe Illustrator 23.0.2, SVG Export Plug-In . SVG Version: 6.00 Build 0)  -->
<svg version="1.1" id="圖層_1" xmlns="http://www.w3.org/2000/svg" xmlns:xlink="http://www.w3.org/1999/xlink" x="0px" y="0px"
	 viewBox="0 0 537.21 344.76" style="enable-background:new 0 0 537.21 344.76;" xml:space="preserve">
<style type="text/css">
	.st0{fill:#4D4D4D;}
	.st1{fill:#808080;}
	.st2{fill:#8C6239;}
	.st3{opacity:0.18;enable-background:new    ;}
	.st4{opacity:0.43;enable-background:new    ;}
	.st5{fill:#A67C52;}
	.st6{fill:#73502F;}
	.st7{fill:#603813;}
	.st8{fill:#FFBC40;}
	.st9{opacity:0.74;fill:#E3F2FF;enable-background:new    ;}
	.st10{opacity:0.51;fill:#A5C5F9;enable-background:new    ;}
	.st11{opacity:0.25;fill:#070707;enable-background:new    ;}
	.st12{opacity:0.46;fill:#FFFFFF;enable-background:new    ;}
	.st13{fill:#8E1C1C;}
	.st14{fill:#3A3A3A;}
	.st15{fill:#F2EBBF;}
	.st16{fill:#B72C2C;}
	.st17{opacity:0.28;fill:#3A3A3A;enable-background:new    ;}
	.st18{fill:#B4B4B5;}
	.st19{fill:#003756;}
	.st20{fill:#F9BF3A;}
	.st21{fill:#004062;}
	.st22{fill:#F6BA7C;}
	.st23{fill:#9E9E9F;}
	.st24{fill:#002E4B;}
	.st25{fill:#687382;}
	.st26{fill:#161616;}
	.st27{fill:#8B93A0;}
	.st28{fill:#888888;}
	.st29{fill:#F7B52C;}
	.st30{fill:#002F4D;}
	.st31{fill:#00466C;}
	.st32{fill:#003559;}
	.st33{fill:#FFFFFF;}
</style>
<path class="st0" d="M283.64,24.01v104.5h15.04c-1.18-2.9-1.83-6.07-1.83-9.39V33.07c0-9.48-7.71-17.24-17.12-17.24h-79.95v0.36
	h76.05C280.15,16.2,283.64,19.69,283.64,24.01z"/>
<path class="st1" d="M199.78,16.2h-2.8c1.02,0.32,1.97,0.85,2.8,1.55V16.2z"/>
<path class="st1" d="M203.35,25.81v87.36c0,5.55,1.22,10.78,3.37,15.33h76.92V24.01c0-4.31-3.5-7.81-7.81-7.81h-76.05v1.55
	C201.94,19.56,203.35,22.49,203.35,25.81z"/>
<path class="st0" d="M186.57,16.2h10.41c-0.72-0.23-1.48-0.36-2.27-0.36h-7.47c-1.42,0-2.57,1.33-2.57,2.97v109.71h1.89V16.2H186.57
	z"/>
<path class="st0" d="M186.57,128.51h13.21V17.75c-0.83-0.7-1.78-1.23-2.8-1.55h-10.41V128.51z"/>
<path class="st0" d="M203.35,113.18V25.81c0-3.32-1.41-6.25-3.57-8.07V128.5h6.94C204.57,123.95,203.35,118.73,203.35,113.18z"/>
<rect x="10.48" y="138.66" class="st2" width="513.87" height="206.09"/>
<rect x="10.48" y="138.4" class="st3" width="513.87" height="17.13"/>
<rect x="10.48" y="138.66" class="st4" width="124.47" height="206.09"/>
<rect y="127.91" class="st5" width="537.21" height="16.04"/>
<rect y="127.91" class="st3" width="128.76" height="16.04"/>
<path class="st6" d="M250.87,328.17h-97.11v-160.3h97.11V328.17z M162.32,319.6h79.97V176.44h-79.97V319.6z"/>
<rect x="177.32" y="194.68" class="st6" width="49.98" height="106.68"/>
<path class="st6" d="M501.07,328l-97.11,0.34l-0.57-160.31l97.11-0.34L501.07,328z M412.5,319.75l79.97-0.28l-0.51-143.17
	l-79.97,0.28L412.5,319.75z"/>
<rect x="427.24" y="194.68" transform="matrix(1 -3.537097e-03 3.537097e-03 1 -0.8744 1.6011)" class="st6" width="49.98" height="106.68"/>
<path class="st6" d="M375.83,328.17h-97.11v-160.3h97.11L375.83,328.17L375.83,328.17z M287.28,319.6h79.97V176.44h-79.97V319.6z"/>
<rect x="302.28" y="194.68" class="st6" width="49.98" height="106.68"/>
<path class="st7" d="M414.25,116.29h49.99c0.75,0,1.36,0.61,1.36,1.36v10.25h-52.72v-10.25C412.89,116.9,413.5,116.29,414.25,116.29
	z"/>
<rect x="425.9" y="78.39" transform="matrix(0.9072 -0.4206 0.4206 0.9072 0.3708 191.0746)" class="st7" width="14.97" height="32.61"/>
<path class="st7" d="M368.14,124.74L368.14,124.74c0.82,1.76,2.91,2.53,4.67,1.71l55.8-25.87l-2.96-6.38l-55.8,25.87
	C368.09,120.89,367.33,122.98,368.14,124.74z"/>
<path class="st5" d="M450.2,106.46L450.2,106.46c0.6,1.29,0.04,2.81-1.25,3.41l-13.98,6.48c-1.29,0.6-2.81,0.04-3.41-1.25l0,0
	c-0.6-1.29-0.04-2.81,1.25-3.41l13.98-6.48C448.07,104.62,449.6,105.18,450.2,106.46z"/>
<path class="st5" d="M434.9,73.48L434.9,73.48c0.6,1.29,0.04,2.81-1.25,3.41l-13.98,6.48c-1.29,0.6-2.81,0.04-3.41-1.25l0,0
	c-0.6-1.29-0.04-2.81,1.25-3.41l13.98-6.48C432.78,71.63,434.31,72.19,434.9,73.48z"/>
<rect x="425.76" y="89.86" transform="matrix(0.9072 -0.4206 0.4206 0.9072 0.4232 191.0262)" class="st8" width="15.08" height="9.38"/>
<path class="st9" d="M160.69,106.1l-11.55,0.04c-0.19,0-0.33,0.16-0.32,0.34l0.85,20.13c0.03,0.7,0.61,1.25,1.31,1.25l8.19-0.03
	c0.7,0,1.28-0.56,1.3-1.27l0.56-20.12C161.02,106.25,160.87,106.1,160.69,106.1z"/>
<path class="st10" d="M149.63,111.12l0.6,15.05c0.03,0.67,0.54,1.19,1.16,1.19l7.29-0.02c0.63,0,1.14-0.54,1.16-1.21l0.39-15.04
	L149.63,111.12z"/>
<path class="st11" d="M160.69,106.1l-2.68,0.01c0.18,0,0.33,0.15,0.33,0.34l-0.56,20.12c-0.02,0.7-0.59,1.26-1.3,1.27l2.68-0.01
	c0.7,0,1.28-0.56,1.3-1.27l0.56-20.12C161.02,106.25,160.87,106.1,160.69,106.1z"/>
<path class="st12" d="M150.4,106.13l2.68-0.01c-0.18,0-0.33,0.15-0.33,0.34l0.68,20.12c0.02,0.7,0.6,1.26,1.31,1.26l-2.68,0.01
	c-0.7,0-1.28-0.55-1.31-1.26l-0.68-20.12C150.06,106.28,150.21,106.13,150.4,106.13z"/>
<path class="st13" d="M170.34,128.54h22.73V116.7h-22.73c-3.27,0-5.92,2.65-5.92,5.92l0,0
	C164.42,125.89,167.07,128.54,170.34,128.54z"/>
<path class="st14" d="M192.87,118.58l0.79,9.43c0,0-4.07-1.99-3.97-4.76C189.79,120.47,192.87,118.58,192.87,118.58z"/>
<path class="st15" d="M192.47,119.08c0,0,1.64,2.38,0.2,8.34h36.13c0,0-2.88-2.38-0.4-8.34H192.47z"/>
<path class="st16" d="M228.81,128.61h-35.74c-0.66,0-1.19-0.53-1.19-1.19c0-0.66,0.53-1.19,1.19-1.19h35.74
	c0.66,0,1.19,0.53,1.19,1.19C230,128.07,229.47,128.61,228.81,128.61z"/>
<path class="st16" d="M228.81,119.08h-35.74c-0.66,0-1.19-0.53-1.19-1.19s0.53-1.19,1.19-1.19h35.74c0.66,0,1.19,0.53,1.19,1.19
	C230,118.54,229.47,119.08,228.81,119.08z"/>
<path class="st16" d="M192.08,128.51c-0.27,0-0.53-0.09-0.76-0.27c-1.72-1.42-2.64-3.08-2.73-4.93c-0.15-3.22,2.34-5.76,2.45-5.87
	c0.47-0.47,1.22-0.47,1.68,0c0.46,0.46,0.47,1.22,0,1.68c-0.03,0.03-1.86,1.92-1.75,4.08c0.06,1.15,0.69,2.22,1.86,3.19
	c0.51,0.42,0.58,1.17,0.16,1.68C192.76,128.36,192.42,128.51,192.08,128.51z"/>
<path class="st17" d="M193.15,125.03c-0.33,0-0.59-0.34-0.6-0.67c0-0.33,0.26-0.52,0.59-0.52h12.88l0,0c0.33,0,0.59,0.35,0.6,0.68
	c0,0.33-0.26,0.52-0.59,0.52L193.15,125.03L193.15,125.03z"/>
<path class="st17" d="M193.05,122.65c-0.28,0-0.5-0.34-0.5-0.67s0.22-0.52,0.5-0.52h10.87l0,0c0.28,0,0.5,0.35,0.5,0.68
	s-0.22,0.52-0.5,0.52L193.05,122.65L193.05,122.65z"/>
<path class="st17" d="M212.11,122.65c-0.28,0-0.5-0.34-0.5-0.67s0.22-0.52,0.5-0.52h10.87l0,0c0.28,0,0.5,0.35,0.5,0.68
	s-0.22,0.52-0.5,0.52L212.11,122.65L212.11,122.65z"/>
<path class="st18" d="M37.74,137.84c-1.53-1.89-7.01-9.22-5.74-15.17c1.48-6.9,11.29-7.58,21.44-4.28
	c10.16,3.31,11.61,4.04,22.52-1.73c10.92-5.77,34.87-0.95,42.84,2.71c7.98,3.66,10.17,0.04,15.26-0.67s3.98,2.92,2.87,9.09
	c-0.99,5.55-5.82,12.53-6.78,13.89c-5.2,0.45-8.75,1.26-17.96-2.73c-10.15-4.4-25.05-3-43.57-1.99
	C55.85,137.68,43.79,135.61,37.74,137.84z"/>
<path class="st19" d="M130.15,141.69c0.52-0.04,1.08-0.08,1.64-0.11c6.18-0.34-0.4,9.08-2.6,15.24c-2.2,6.16-2.61,16.33-2.61,16.33
	l-0.13,0.22c-2.99-1.9-6.21-3.34-9.66-4.25c-10.03-2.12-12.8-3.22-14.31,0.45c-0.19-0.3-0.39-0.59-0.58-0.87
	c-3.54-5-11.3-4.17-20.37,0.55c-9.4,4.9-20.2,13.99-29.12,25.05c-6.45,8.01-9.32,17.31-10.11,26.49l-0.16-0.01
	c-4.33-7.64-5.39-15.27-4.99-23.26c0.39-7.99,4.09-25.4,4.86-34.48c0.76-9.08-7.6-8.02-8.28-18.92c-0.22-3.38,1.28-5.25,4-6.26
	c6.05-2.23,18.12-0.16,30.89-0.87c18.52-1.02,33.42-2.41,43.57,1.99C121.4,142.94,124.95,142.13,130.15,141.69z"/>
<path class="st20" d="M109.48,279.81c-1.6-2.16-2.53-7.19-2.78-8.86c1.42,0.02,5.14-1.33,5.71-1.29l19.49-4.97
	c0.72,1.4,0.53,6.17,1.06,6.95c2.4,3.49-12.7,7.2-8.6,7.3v0.23c-0.33,2.9-2.66,3.8-3.18,3.95
	C117.45,281.63,113.51,280.54,109.48,279.81z"/>
<path class="st20" d="M67.24,286.83c-0.42-0.48-1.13-1.3-2.04-2.39c15.26-12.42,33.48-13.63,41.23-13.48
	c-1.35,4.32-4.47,7.14-5.4,7.92c-1.56-0.08-3.11-0.1-4.63-0.05c-3.07,0.04-6.05,0.34-8.86,0.84
	C80.35,280.95,72.97,282.74,67.24,286.83z"/>
<path class="st18" d="M57.86,274.98l0.06-0.04c6.19-7.11,14.39-10.98,22.2-13.07c11.68-3.12,22.47-2.23,24.4-2.03
	c1.83,4.35,3.69,8.37,5.22,11.26c-0.57-0.04-1.61-0.12-3.04-0.14h-0.02c-0.06-0.35-0.08-0.55-0.08-0.55l-0.16,0.55
	c-7.76-0.15-25.98,1.06-41.23,13.48C63.34,282.21,60.62,278.84,57.86,274.98z"/>
<path class="st18" d="M102.49,169.57c1.51-3.67,4.28-2.57,14.31-0.45c25.67,30.61,2.62,72.64,2.62,72.64
	c-1.06,0.68-2.18,0.98-3.27,1.02c-4.13,0.17-7.98-3.24-7.98-3.24C117.47,213.78,109.58,180.73,102.49,169.57z"/>
<path class="st18" d="M102.49,169.57c7.09,11.15,14.98,44.21,5.68,69.97c-1.53,1.26-2.89,2.52-5.65,2.67
	c-1.21,0.07-2.67-0.08-4.53-0.53c0,0-1.03-0.56-2.67-1.09l0.13-0.38c0,0,14.96-48.59-13.92-70.97c9.07-4.71,16.83-5.54,20.37-0.55
	C102.1,168.98,102.3,169.27,102.49,169.57z"/>
<path class="st19" d="M116.15,242.84v-0.06c1.09-0.04,2.21-0.34,3.27-1.02c0,0,10.51,4.4,3.95,12l-0.15,0.09
	C119.49,247.82,116.15,242.84,116.15,242.84z"/>
<path class="st19" d="M78.32,259.03c-3.63-0.38-5.04-10.19,2.61-16.33c5.13-4.12,11.05-3.17,14.4-2.11
	c1.64,0.53,2.67,1.09,2.67,1.09c0.5,1.86,1.16,3.94,1.91,6.12c-11.21-7.68-16.98,8.39-20.61,10.9
	C78.94,258.95,78.62,259.06,78.32,259.03z"/>
<path class="st21" d="M80.12,261.86l-0.83-3.16c-2.11-19.02,27.02-22.31,38.23-14.63c1.32,3.87,7.03,5.83,8.68,9.77
	C124.27,253.65,91.8,258.74,80.12,261.86z"/>
<path class="st21" d="M123.23,253.85l0.15-0.09c6.57-7.6-3.95-12-3.95-12s23.04-42.04-2.62-72.64c3.45,0.92,6.67,2.35,9.66,4.25
	c13.98,8.87,22.82,27.85,25.72,50c3.53,26.89-19.07,48.23-19.07,48.23l-0.15,0.06C131.5,267.57,127.14,260.14,123.23,253.85z"/>
<path class="st21" d="M48.9,259.65c-3.18-7.81-7.93-23.16-6.59-38.87c0.79-9.18,3.66-18.48,10.11-26.49
	c8.92-11.06,19.72-20.14,29.12-25.05c28.88,22.38,13.92,70.97,13.92,70.97l-0.13,0.38c-3.35-1.06-9.28-2.01-14.4,2.11
	c-7.65,6.14-6.24,15.95-2.61,16.33c0.3,0.03,0.62-0.08,0.97-0.33l0.83,3.16c-7.81,2.09-16.02,5.96-22.2,13.07l-0.06,0.04
	C54.44,270.2,50.94,264.68,48.9,259.65z"/>
<path class="st22" d="M101.03,278.88c0.93-0.78,4.05-3.6,5.4-7.92h0.25h0.02c0.25,1.67,1.18,6.7,2.78,8.86
	C106.68,279.32,103.84,279.01,101.03,278.88z"/>
<path class="st23" d="M108.17,239.54c0,0,0.25,0.22,0.7,0.55c1.79-2.35,4.06-6.56,4.92-13.49c1.5-12.1,1.57-30.5-2.26-41.65
	c-3.83-11.15-0.43-14.05,2.95-12.09c2.81,1.62,12.61,10.97,14.39,28.8c-0.37-10.79-3.49-22.31-12.08-32.55
	c-10.03-2.12-12.8-3.22-14.31,0.45C109.58,180.73,117.47,213.78,108.17,239.54z"/>
<path class="st23" d="M93.8,262.85c8.72,0.03,9.18,4.88,2.89,5.34c-4.03,0.29-11.22,4.25-16.15,7.38
	c10.65-4.17,20.66-4.71,25.9-4.61l0.16-0.55c0,0,0.03,0.2,0.08,0.55h0.02c1.42,0.02,24.63-6.3,25.2-6.25
	c-1.53-2.9-2.15-6.5-3.97-10.85c-1.93-0.2-36.13,4.89-47.8,8.01c-7.81,2.09-16.01,5.96-22.2,13.07
	C72.41,263.1,85.09,262.81,93.8,262.85z"/>
<path class="st24" d="M102.49,169.57l-0.12-0.18L102.49,169.57z"/>
<path class="st24" d="M33.73,144.1c0.68,10.9,9.04,9.84,8.28,18.92c-0.76,9.08-4.46,26.49-4.86,34.48
	c-0.39,7.99,0.67,15.62,4.99,23.26l0.16,0.01c0.79-9.18,3.66-18.48,10.11-26.49c8.92-11.06,19.72-20.14,29.12-25.05
	c8.4-4.37,15.67-5.39,19.51-1.55c-3.13-3.64-11.27-10.73-22.85-3.69c-15.04,9.14-24.78,21.21-25.24,15.88s4.91-16.93,0.57-22.76
	c-4.34-5.83-4.78-16,7.33-17.4c7.77-0.9,16.95-2.99,26.49-3.71c-5.73,0.17-11.98,0.59-18.73,0.96c-12.77,0.71-24.83-1.36-30.89,0.87
	C35.02,138.85,33.51,140.72,33.73,144.1z"/>
<path class="st24" d="M111.61,164.62c-10.63-5.37-9.12,4.95-9.12,4.95c1.51-3.67,4.28-2.57,14.31-0.45
	c3.45,0.92,6.67,2.35,9.66,4.25l0.13-0.22c0,0,0.24-5.95,1.34-11.52C124.92,164.42,118.95,168.32,111.61,164.62z"/>
<path class="st19" d="M48.9,259.65c2.04,5.03,5.54,10.55,8.96,15.33l0.06-0.04v-0.01c-22.6-38.23-3.59-73.73,13.89-87.22
	c10.57-8.16,20.36,2.1,26.45,11.48c-1.88-11.06-6.61-22.11-16.72-29.95c-9.4,4.9-20.2,13.99-29.12,25.05
	c-6.45,8.01-9.32,17.31-10.11,26.49C40.97,236.49,45.72,251.83,48.9,259.65z"/>
<path class="st19" d="M132.96,271.65l0.15-0.06c0,0,0.28-0.27,0.75-0.75C133.56,271.12,133.27,271.38,132.96,271.65z"/>
<path class="st19" d="M152.11,235.44c0.53-3.85,0.62-7.89,0.07-12.07c-2.91-22.15-11.74-41.13-25.72-50
	c-2.99-1.9-6.21-3.34-9.66-4.25c7.13,8.5,10.49,17.88,11.64,27C135.88,202.06,151.49,216.73,152.11,235.44z"/>
<path class="st23" d="M37.74,137.84c6.05-2.23,18.12-0.16,30.89-0.87c18.52-1.02,33.42-2.41,43.57,1.99
	c2.22,0.96,4.11,1.64,5.77,2.11c-3.94-4.08-11.36-9.76-22.69-10.41c-17.91-1.04-36.34,6.64-44.55,0.31
	c-8.21-6.33-1.41-9.69,9.23-7.71s12.59-0.92,17.93-3.32c0,0,16.5-8.65,41.15,3.07c7.53,2.96,19.43-2.2,15.71,10.99
	c0.99-2.04,1.84-4.21,2.19-6.2c1.11-6.17,2.22-9.8-2.87-9.09c-5.09,0.71-7.28,4.33-15.26,0.67c-7.97-3.66-31.93-8.48-42.84-2.71
	c-10.92,5.77-12.37,5.04-22.52,1.73c-10.16-3.31-19.96-2.62-21.44,4.28C30.73,128.62,36.2,135.95,37.74,137.84z"/>
<path class="st25" d="M325.84,122.2c-0.1-0.87-2.41-11.7-4.02-19.12L300.07,89l1.55-2.4l22.75,14.72l0.12,0.58
	c4.2,19.43,4.2,20,4.2,20.19h-2.86h1.43L325.84,122.2z"/>
<path class="st26" d="M292.15,79.08l-2.8,4.29c-0.31,0.47-0.17,1.1,0.3,1.41l9.59,6.26c0.47,0.31,1.1,0.17,1.41-0.3l2.8-4.29
	c0.31-0.47,0.17-1.1-0.3-1.41l-9.59-6.26C293.08,78.48,292.45,78.61,292.15,79.08z"/>
<path class="st27" d="M330.49,120.78h-6.57c-3.94,0-7.13,3.19-7.13,7.13l0,0h20.83l0,0C337.62,123.97,334.43,120.78,330.49,120.78z"
	/>
<polygon class="st27" points="305.62,88.86 303.62,91.58 299.69,90.44 302.88,85.87 "/>
<path class="st18" d="M208.47,13.47c2.39-0.52,6.41,3.31,6.41,3.31c4.72,4.02-2.17,8.14-4.68,9.49c-2.5,1.34-4.75-4.56-5.66-7.22
	C203.64,16.4,206.07,14,208.47,13.47z M211.79,17.51c0,0-1.6-1.77-2.51-1.39c-0.92,0.39-2.82,1.48-1.96,3.19
	c0.86,1.72,2.87,4.82,4.25,3.67C212.95,21.83,215.36,20.4,211.79,17.51z"/>
<path class="st28" d="M204.54,19.06c-0.32-0.95-0.21-1.87,0.17-2.68c-0.02,0.42,0.03,0.86,0.18,1.31c0.9,2.66,3.15,8.56,5.66,7.22
	c1.57-0.84,4.87-2.78,5.95-5.1c-0.09,2.91-4.42,5.47-6.3,6.48C207.69,27.62,205.44,21.72,204.54,19.06z"/>
<path class="st29" d="M207.31,19.32c0.86,1.72,2.87,4.82,4.25,3.67c1.39-1.15,3.79-2.59,0.22-5.47c0,0-1.6-1.77-2.51-1.39
	C208.36,16.52,206.45,17.6,207.31,19.32z"/>
<path class="st30" d="M173.08,64.47c0.23,9.85,6.29,14.16,8.85,11.66c2.56-2.5,2.64-3.12,1.81-8.62c-0.66-4.38,0.3-10.33,0.72-12.59
	c-2.44-5.24-3.92-11.44-3.92-11.44c-0.83-0.33-1.43-0.87-1.8-1.69l-0.03,0.02C178.72,41.81,172.85,54.62,173.08,64.47z"/>
<path class="st30" d="M178.86,3.82c-13.78,10.46-10.68,24.82-0.14,37.98l0.03-0.02c-0.24-0.53-0.38-1.17-0.4-1.94
	c-0.21-5.41,0.46-12.6,6.89-20.27c0,0,7.44-9.39,17.2-11.68l-0.05-0.22C202.4,7.68,192.64-6.64,178.86,3.82z"/>
<path class="st21" d="M193.28,41.9c-5.9,1.63-10.29,2.55-12.73,1.58c-0.83-0.33-1.43-0.87-1.8-1.69c-0.24-0.53-0.38-1.17-0.4-1.94
	c-0.21-5.41,0.46-12.6,6.89-20.27c0,0,7.44-9.39,17.2-11.68c1.52-0.37,3.12-0.56,4.74-0.51c7.88,0.25,14.7,3.22,15.76,7.75
	c0.09,0.38,0.13,0.77,0.15,1.16c0.02,2.09-1.11,4.45-3.84,7c-7.41,6.94-13.52,12.89-20.27,16.35
	C197.15,40.6,195.26,41.36,193.28,41.9z M214.88,16.79c0,0-4.02-3.83-6.41-3.31s-4.83,2.93-3.93,5.59c0.9,2.66,3.15,8.56,5.66,7.22
	C212.7,24.93,219.6,20.81,214.88,16.79z"/>
<path class="st31" d="M202.45,7.9c1.21-0.3,2.46-0.47,3.74-0.5C205.03,7.48,203.79,7.64,202.45,7.9z"/>
<path class="st31" d="M178.75,41.79c-0.24-0.53-0.38-1.17-0.4-1.94c-0.21-5.41,0.46-12.6,6.89-20.27c0,0,1.4-1.77,3.78-3.95
	c-1.87,3.3-4.02,8.59-2.97,14.2c1.74,9.26,15.93,7.41,26.34-2.72c7.47-7.26,8.43-15.77,1.7-18.73c4.66,1.26,8.12,3.64,8.85,6.76
	c0.09,0.38,0.13,0.77,0.15,1.16c0.02,2.09-1.11,4.45-3.84,7c-7.41,6.94-13.52,12.89-20.27,16.35c-1.84,0.95-3.74,1.71-5.72,2.26
	c-5.9,1.63-10.29,2.55-12.73,1.58C179.72,43.16,179.12,42.61,178.75,41.79z"/>
<path class="st32" d="M178.86,3.82c3.26-2.47,6.29-3.55,9.03-3.77c-3.33,1.19-8.18,3.6-10.55,7.99c-3.81,7.06-0.47,13.68,3.45,18.5
	c-2.29,5-2.57,9.58-2.43,13.31c0.02,0.76,0.16,1.4,0.4,1.94l-0.03,0.02C168.17,28.65,165.07,14.29,178.86,3.82z"/>
<path class="st31" d="M173.08,64.47c-0.23-9.85,5.64-22.66,5.64-22.66l0.03-0.02c0.19,0.43,0.45,0.77,0.77,1.06
	c-1.38,3.45-5.19,13.6-4.5,19.03c0.82,6.44,4.04,15,8.78,11.97c-0.35,0.73-0.95,1.38-1.87,2.28
	C179.38,78.63,173.32,74.32,173.08,64.47z"/>
<path class="st33" d="M211.76,19.52c0,0-0.79-2.75-2-2.39s-0.79,1.16,0.01,2.22C210.58,20.42,212.42,20.88,211.76,19.52z"/>
</svg>
