<?xml version="1.0" encoding="utf-8"?>
<!-- Generator: Adobe Illustrator 23.0.2, SVG Export Plug-In . SVG Version: 6.00 Build 0)  -->
<svg version="1.1" id="分離模式" xmlns="http://www.w3.org/2000/svg" xmlns:xlink="http://www.w3.org/1999/xlink" x="0px"
	 y="0px" viewBox="0 0 22.74 12.93" style="enable-background:new 0 0 22.74 12.93;" xml:space="preserve">
<style type="text/css">
	.st0{fill:#603813;}
	.st1{fill:#A67C52;}
	.st2{fill:#FFBC40;}
</style>
<path class="st0" d="M10.83,10.24H1.36C0.61,10.24,0,10.85,0,11.61l0,1.32h12.19v-1.32C12.19,10.85,11.58,10.24,10.83,10.24z"/>
<rect x="3.68" y="3.51" transform="matrix(0.4206 -0.9072 0.9072 0.4206 -0.4439 9.795)" class="st0" width="7.54" height="3.46"/>
<path class="st0" d="M22.54,12.2L22.54,12.2c-0.19,0.41-0.67,0.58-1.08,0.4L8.55,6.61l0.68-1.48l12.9,5.98
	C22.55,11.31,22.73,11.79,22.54,12.2z"/>
<path class="st1" d="M3.56,7.97L3.56,7.97c-0.14,0.3-0.01,0.65,0.29,0.79l3.23,1.5c0.3,0.14,0.65,0.01,0.79-0.29l0,0
	c0.14-0.3,0.01-0.65-0.29-0.79l-3.23-1.5C4.05,7.54,3.7,7.67,3.56,7.97z"/>
<path class="st1" d="M7.1,0.34L7.1,0.34C6.96,0.64,7.09,1,7.39,1.13l3.23,1.5c0.3,0.14,0.65,0.01,0.79-0.29v0
	c0.14-0.3,0.01-0.65-0.29-0.79l-3.23-1.5C7.59-0.08,7.24,0.05,7.1,0.34z"/>
<rect x="6.38" y="3.47" transform="matrix(0.4206 -0.9072 0.9072 0.4206 -0.4025 9.7906)" class="st2" width="2.17" height="3.49"/>
</svg>
