<?xml version="1.0" encoding="utf-8"?>
<!-- Generator: Adobe Illustrator 23.0.2, SVG Export Plug-In . SVG Version: 6.00 Build 0)  -->
<svg version="1.1" id="圖層_1" xmlns="http://www.w3.org/2000/svg" xmlns:xlink="http://www.w3.org/1999/xlink" x="0px" y="0px"
	 viewBox="0 0 263.61 291.51" style="enable-background:new 0 0 263.61 291.51;" xml:space="preserve">
<style type="text/css">
	.st0{fill:#FFFFFF;}
	.st1{fill:#D40000;}
	.st2{fill:#BA3F3F;}
	.st3{opacity:0.85;}
</style>
<rect x="2.5" y="2.5" class="st0" width="210.29" height="210.29"/>
<path class="st1" d="M210.29,5v205.29H5V5H210.29 M215.29,0H0v215.29h215.29V0L215.29,0z"/>
<rect x="2.94" y="70.47" class="st2" width="212.35" height="2.12"/>
<rect x="70.71" y="2.94" class="st2" width="2.12" height="212.35"/>
<rect x="143.06" y="2.94" class="st2" width="2.12" height="212.35"/>
<rect x="2.94" y="141.76" class="st2" width="212.35" height="2.12"/>
<path d="M63.29,257.81H59c0.71,0.84,1.37,1.64,1.81,2.26l-3.41,2.08c-0.4-0.66-1.06-1.55-1.77-2.43c-0.62,1.28-1.81,1.73-3.94,1.73
	h-3.01c-0.27,0.35-0.58,0.66-0.89,1.02h7.83l1.02-0.22l3.81,2.08c-1.28,1.99-3.14,3.72-5.49,5.18c2.57,0.49,5.35,0.8,8.32,0.97
	c-1.06,1.11-2.35,3.23-3.01,4.6c-4.56-0.44-8.67-1.24-12.21-2.43c-3.63,1.19-7.88,2.08-12.61,2.7c-0.58-1.37-1.86-3.32-2.96-4.56
	c3.27-0.31,6.24-0.71,8.89-1.24c-0.49-0.31-0.93-0.62-1.37-0.93c-1.02,0.58-2.12,1.15-3.32,1.68c-0.71-1.15-2.3-2.88-3.41-3.63
	c1.11-0.4,2.17-0.84,3.1-1.28c-0.49-0.58-1.02-1.19-1.46-1.81l4.6-1.55c0.27,0.35,0.58,0.66,0.88,1.02c1.02-0.75,1.9-1.55,2.66-2.35
	c-0.58-0.35-0.88-0.84-1.11-1.5c-0.8,1.06-1.77,2.08-2.79,2.88l-3.5-2.7c0.66-0.4,1.33-0.93,1.95-1.55h-4.29v-6.5h3.85V240.4h7.13
	l0.26-1.15h-9.82V235c-0.8,2.52-1.81,5.13-2.92,7.66v32.44h-6.11v-21.2c-0.71,1.02-1.46,1.99-2.21,2.88
	c-0.49-1.59-2.04-5.35-3.01-7.08c3.41-4.03,6.55-10.31,8.36-16.59l5.88,1.77v-0.09h27.52v4.47H51.12l-0.53,1.15h9.16v10.93h3.54
	V257.81z M41.74,256.21v-0.75h4.65l-0.13-0.13l1.15-0.58h-8.67v1.86c0.4-0.49,0.75-0.97,1.06-1.42L41.74,256.21z M42.89,243.34v0.97
	h10.89v-0.97H42.89z M53.78,246.7H42.89v1.11h10.89V246.7z M42.89,251.3h10.89v-1.11H42.89V251.3z M44.53,266.13
	c1.11,0.58,2.26,1.11,3.5,1.55c1.28-0.49,2.39-0.97,3.36-1.55H44.53z M46.74,257.1c0,0.97,0.22,1.06,1.24,1.06h0.88
	c-0.58-0.66-1.37-1.59-2.12-2.34C46.74,255.82,46.74,257.1,46.74,257.1z M56.48,255.06c0.35,0.35,0.71,0.75,1.11,1.15v-1.46H50.9
	c0.71,0.66,1.37,1.37,1.81,1.86l-2.92,1.55h1.24c0.75,0,0.97-0.22,1.15-1.24c0.4,0.22,1.02,0.44,1.64,0.66l-0.58-0.66L56.48,255.06z
	"/>
<path d="M65.5,270.73c1.68-1.99,3.23-5.04,4.07-7.79l5.58,2.3c-0.97,2.92-2.35,6.33-4.07,8.67L65.5,270.73z M82.72,239.8H67.01
	v-4.96h15.71v-1.77h6.64v1.77h16.33v4.96H89.35v1.42h13.28v13.63h-3.27c2.57,1.59,5.09,3.54,6.59,5.04l-4.51,3.32
	c-0.44-0.49-1.02-1.06-1.64-1.64c-3.58,0.09-7.26,0.18-10.89,0.22c1.64,1.24,3.19,2.61,4.07,3.72l-4.47,3.67
	c-1.15-1.68-3.89-4.12-6.15-5.71l2.04-1.59c-6.33,0.09-12.26,0.13-16.86,0.18l-0.27-5.31c4.2,0,9.6,0.04,15.44,0.04v-1.95H69.4
	v-13.63h13.32V239.8z M75.46,246.3h7.26v-1.46h-7.26V246.3z M82.72,251.17v-1.46h-7.26v1.46H82.72z M100.95,274.05
	c-0.22-1.42-0.88-3.32-1.77-5.18c-0.8,4.34-2.66,5.49-7.26,5.49H84c-6.81,0-8.54-1.55-8.54-6.46v-4.38h6.37v4.29
	c0,1.28,0.44,1.42,2.88,1.42h6.64c1.86,0,2.26-0.49,2.48-3.54c1.11,0.75,3.1,1.46,4.69,1.86c-0.44-0.89-0.93-1.73-1.46-2.52
	l5.58-1.73c1.99,2.7,3.81,6.24,4.29,8.89L100.95,274.05z M89.35,244.84v1.46h6.9v-1.46H89.35z M96.26,249.71h-6.9v1.46h6.9V249.71z
	 M93.29,256.79c-0.4-0.22-0.75-0.44-1.15-0.66l1.99-1.28h-4.78v1.95h3.94V256.79z"/>
<path d="M127.1,247.32c-0.13,4.29-0.75,9.47-2.74,14.51c2.12,1.99,4.07,3.85,5.35,5.4l-4.25,5.35c-1.06-1.37-2.57-3.01-4.25-4.78
	c-1.77,2.7-4.12,5.22-7.13,7.43c-0.93-1.37-3.1-3.54-4.51-4.56c3.14-2.17,5.4-4.74,7.08-7.43c-2.21-2.12-4.43-4.25-6.33-6.11
	c0.62-2.48,1.28-5.53,1.81-8.85l-1.95,0.13l-0.58-6.06l3.36-0.13c0.4-3.1,0.66-6.2,0.8-9.07l6.37,0.31
	c-0.22,2.7-0.53,5.58-0.88,8.45l1.9-0.09v-2.52h5.97v2.21l2.26-0.13l-0.04,5.75L127.1,247.32z M119.4,257.36
	c1.11-3.36,1.55-6.73,1.68-9.65l-2.7,0.18c-0.44,2.57-0.89,5.04-1.37,7.35L119.4,257.36z M151.79,257.1h-8.36v11.28
	c0,3.14-0.62,4.73-2.7,5.71c-2.08,0.93-4.78,1.06-8.28,1.06c-0.31-1.81-1.24-4.47-2.12-6.15c1.99,0.09,4.69,0.09,5.4,0.09
	c0.75,0,1.02-0.18,1.02-0.84V257.1h-8.89v-6.11h8.89v-3.67c1.73-1.59,3.45-3.85,4.82-6.06h-12.08v-5.8h16.2l1.5-0.31l4.29,3.1
	c-2.12,3.23-4.91,6.99-8.05,10v2.74h8.36V257.1z"/>
<path d="M167.15,262.94c-0.62-1.06-1.42-2.3-2.3-3.58v15.71h-5.8v-14.51c-0.97,0.97-1.95,1.81-2.92,2.57
	c-0.35-1.9-1.59-5.53-2.3-6.81c3.41-2.21,6.59-6.02,8.67-10.18h-7.7v-5.75h5.31c-0.75-1.37-1.73-2.92-2.66-4.16l4.78-3.01
	c1.46,1.68,2.96,3.98,3.72,5.62l-2.26,1.55h1.9l1.06-0.22l3.27,2.35c-1.06,3.32-2.52,6.55-4.29,9.51c0.97,0.93,2.35,2.35,3.45,3.5
	v-4.12h26.33v4.47H169.4c0.75,0.75,1.33,1.42,1.64,1.73L167.15,262.94z M195.91,269.8v4.65h-27.13v-4.65h6.33
	c-0.31-0.97-0.66-1.95-1.02-2.79l2.3-0.71h-4.47v-9.29h20.75v9.29h-4.56l3.1,0.84c-0.62,0.93-1.28,1.81-1.86,2.65h6.56V269.8z
	 M194.05,250.2h-23.5v-13.81h5.93v-3.32h4.87v3.32h1.73v-3.32h4.91v3.32h6.06L194.05,250.2L194.05,250.2z M175.64,241.57h1.77v-1.55
	h-1.77V241.57z M175.64,246.52h1.77v-1.55h-1.77V246.52z M177.15,262.59h10.09v-1.9h-10.09V262.59z M179.23,266.3
	c0.49,1.15,0.97,2.48,1.33,3.5h3.5c0.44-1.11,0.93-2.39,1.28-3.5H179.23z M183.08,241.57v-1.55h-1.73v1.55H183.08z M181.35,244.97
	v1.55h1.73v-1.55H181.35z M188.74,240.02h-1.73v1.55h1.73V240.02z M188.74,244.97h-1.73v1.55h1.73V244.97z"/>
<path d="M249.06,4.69c-5.12,0-9.32,2.22-11.67,4.95h-0.13v-7.8h23.59v7.8h-0.13C258.38,6.91,254.18,4.69,249.06,4.69z"/>
<path d="M244.56,12.02c-0.47,1.5-1.02,3.05-1.7,4.55v17.92h-2.82V21.92c-0.53,0.77-1.05,1.5-1.58,2.12c-0.22-0.7-0.97-2.4-1.42-3.2
	c1.95-2.35,3.75-5.97,4.8-9.65L244.56,12.02z M260.7,24.92h-2.27c0.45,0.47,0.82,0.95,1.07,1.3l-1.6,1
	c-0.3-0.47-0.83-1.12-1.38-1.75c-0.25,1.05-0.85,1.37-2.15,1.37h-2.2c-0.2,0.25-0.42,0.5-0.65,0.75h5.07l0.5-0.1l1.77,1
	c-0.8,1.2-1.97,2.25-3.52,3.1c1.65,0.35,3.42,0.58,5.32,0.73c-0.53,0.55-1.1,1.52-1.42,2.17c-2.62-0.27-5-0.75-7.1-1.47
	c-2.1,0.7-4.52,1.22-7.27,1.6c-0.28-0.65-0.9-1.55-1.42-2.15c2.05-0.2,3.95-0.5,5.57-0.88c-0.5-0.3-0.97-0.6-1.42-0.92
	c-0.65,0.38-1.35,0.75-2.12,1.1c-0.35-0.55-1.08-1.32-1.6-1.67c0.75-0.27,1.4-0.6,2.05-0.92c-0.33-0.35-0.63-0.67-0.88-1.05
	l2.15-0.75c0.17,0.22,0.38,0.45,0.58,0.67c0.67-0.5,1.25-1,1.7-1.5c-0.47-0.25-0.7-0.67-0.75-1.37c-0.55,0.75-1.2,1.47-1.95,2
	l-1.65-1.27c0.42-0.25,0.82-0.6,1.2-0.97h-2.35v-3.55h2.27v-6.2h4.12c0.08-0.27,0.13-0.57,0.17-0.88h-5.82v-2.12h15.47v2.12h-6.57
	l-0.38,0.88h5.35v6.2h2.1v3.53H260.7z M256.9,23.39c0.38,0.35,0.78,0.7,1.15,1.12v-1.47h-4.8c0.52,0.42,1.05,0.88,1.35,1.22
	l-1.65,0.98c-0.43-0.5-1.23-1.3-1.9-1.8l0.75-0.4h-5.3v1.7c0.4-0.42,0.78-0.85,1.05-1.27l1.15,0.6v-0.5h2.32v1.12
	c0,0.5,0.15,0.58,0.82,0.58h2.2c0.5,0,0.62-0.13,0.7-0.85c0.28,0.15,0.72,0.3,1.17,0.42c-0.17-0.2-0.38-0.38-0.55-0.55L256.9,23.39z
	 M248.91,16.62v0.75h6.92v-0.75H248.91z M255.83,18.57h-6.92v0.8h6.92V18.57z M248.91,21.37h6.92v-0.8h-6.92V21.37z M252.16,30.64
	c1-0.35,1.85-0.8,2.52-1.27l-5.15,0.03C250.28,29.89,251.18,30.31,252.16,30.64z"/>
<path d="M237.39,36.04c2.35,2.72,6.55,4.95,11.67,4.95s9.32-2.22,11.67-4.95h0.13v7.8h-23.59v-7.8H237.39z"/>
<path d="M258.6,71.24v3.27h-19.2v-3.27H258.6z"/>
<path d="M258.65,89.92c-1.27,4.07-3.27,7.55-5.8,10.45c2.4,2.17,4.52,4.35,5.87,6.17l-2.63,2.32c-1.22-1.8-3.2-3.97-5.47-6.2
	c-2.97,2.75-6.47,4.85-10.25,6.3c-0.4-0.85-1.22-2.15-1.9-2.77c3.57-1.2,6.95-3.17,9.8-5.72c-1.9-1.7-3.87-3.35-5.7-4.77l2.27-1.9
	c1.77,1.33,3.7,2.85,5.6,4.47c1.63-1.87,3-3.97,4.02-6.27h-14.12v-3h15.57l0.53-0.15L258.65,89.92z"/>
<path d="M247.06,126.87c-0.67,1.87-1.5,3.7-2.42,5.47v16.77h-1.82v-13.75c-0.67,1-1.4,1.92-2.1,2.75c-0.2-0.45-0.75-1.4-1.05-1.82
	c2.27-2.42,4.37-6.15,5.65-9.92L247.06,126.87z M262.45,146.39v1.8h-16.47v-1.8h7.4v-4.17h-5.9v-1.75h5.9v-2.87h1.85v2.87h6.02v1.75
	h-6.02v4.17H262.45z M253.38,131.29h-5.37v-1.75h5.37v-3.27h1.85v3.27h5.6v1.75h-5.6v3.55h6.72v1.77h-15.17v-1.77h6.6L253.38,131.29
	L253.38,131.29z"/>
<path d="M246.61,151.59c-0.42,1.22-0.88,2.6-1.3,3.67h4.15v16.22h-6.95v1.97h-1.7v-18.2h2.8c0.38-1.2,0.83-2.87,1-4.05
	L246.61,151.59z M247.76,156.94h-5.25v5.22h5.25V156.94z M247.76,169.81v-6h-5.25v6H247.76z M261.68,156.14
	c-0.4,11.4-0.72,15.25-1.72,16.47c-0.55,0.7-1.12,0.92-1.97,1c-0.87,0.1-2.3,0.05-3.7-0.02c-0.05-0.55-0.27-1.3-0.62-1.82
	c1.62,0.15,3.12,0.15,3.7,0.15c0.5,0,0.78-0.05,1.03-0.38c0.82-0.87,1.2-4.67,1.52-14.62h-6.35c-0.7,1.67-1.47,3.2-2.35,4.37
	c-0.32-0.3-1.12-0.8-1.52-1.05c1.67-2.2,3.02-5.65,3.82-9.07l1.77,0.42c-0.3,1.22-0.65,2.42-1.07,3.6h7.47L261.68,156.14
	L261.68,156.14z M256.15,167.41c-0.75-1.5-2.42-3.97-3.8-5.77l1.45-0.85c1.4,1.77,3.12,4.17,3.92,5.65L256.15,167.41z"/>
<path d="M254.68,189.89l-1.7,1.42c-1.63-1.97-3.75-4.1-5.52-5.55l1.63-1.42C250.86,185.79,253.13,188.04,254.68,189.89z"/>
<path d="M262.2,212.16v1.65h-10.42c-0.08,0.68-0.17,1.33-0.3,1.92h10.32v1.63h-10.77c-1.17,3.42-3.85,5.55-10.4,6.67
	c-0.15-0.47-0.63-1.25-0.97-1.67c5.77-0.82,8.22-2.42,9.35-5h-8.4v-1.63h8.92c0.15-0.6,0.25-1.25,0.32-1.92h-9.8v-1.65h10.02v-2.1
	h-7.77v-1.62h7.77v-2.02h-9.15v-1.67h5.27c-0.4-0.88-1.17-2.02-1.92-2.9l1.6-0.65c0.92,0.95,1.8,2.25,2.2,3.15l-0.9,0.4h6.57
	c0.75-1.02,1.63-2.5,2.15-3.55l1.9,0.57c-0.6,1.02-1.35,2.1-2,2.97h5.32v1.67h-9.2v2.02h8v1.62h-8v2.1L262.2,212.16L262.2,212.16z
	 M251.98,217.64c3.42,1.3,7.92,3.45,10.2,4.95l-0.88,1.6c-2.2-1.55-6.67-3.8-10.12-5.17L251.98,217.64z"/>
<path d="M248.68,233.29c-0.07,2.8-0.45,6.17-2.1,9.47c1.25,1.1,2.37,2.15,3.12,3.02l-1.2,1.55c-0.7-0.85-1.72-1.88-2.87-2.95
	c-1.1,1.67-2.62,3.3-4.65,4.77c-0.28-0.4-0.92-1-1.3-1.27c2.05-1.45,3.52-3.07,4.57-4.72c-1.32-1.17-2.75-2.32-4.02-3.3
	c0.5-1.62,1.02-3.85,1.52-6.17l-1.97,0.1l-0.2-1.77c0.73-0.03,1.58-0.08,2.5-0.1c0.35-1.9,0.63-3.87,0.8-5.57l1.82,0.1
	c-0.2,1.67-0.5,3.55-0.83,5.4l3.05-0.18v-1.82h1.75v1.72l1.45-0.07l-0.03,1.7L248.68,233.29z M243.56,233.59
	c-0.4,2.02-0.88,4.02-1.3,5.65c0.95,0.73,1.95,1.5,2.9,2.32c1.37-2.85,1.7-5.75,1.75-8.17L243.56,233.59z M262.45,238.59h-5.5v8.3
	c0,1.1-0.28,1.63-1.05,1.92c-0.77,0.27-1.97,0.32-3.92,0.3c-0.1-0.52-0.4-1.25-0.67-1.77c1.47,0.05,2.85,0.05,3.22,0.02
	c0.4,0,0.55-0.13,0.55-0.48v-8.3h-5.77v-1.77h5.77v-2.85c1.28-1.05,2.63-2.67,3.65-4.12h-8.32v-1.72h9.6l0.43-0.1l1.27,0.92
	c-1.22,1.85-3,3.95-4.75,5.47v2.4h5.5L262.45,238.59L262.45,238.59z"/>
<path d="M246.61,251.59c-0.42,1.22-0.88,2.6-1.3,3.67h4.15v16.22h-6.95v1.97h-1.7v-18.2h2.8c0.38-1.2,0.83-2.87,1-4.05
	L246.61,251.59z M247.76,256.94h-5.25v5.22h5.25V256.94z M247.76,269.81v-6h-5.25v6H247.76z M261.68,256.14
	c-0.4,11.4-0.72,15.25-1.72,16.47c-0.55,0.7-1.12,0.92-1.97,1c-0.87,0.1-2.3,0.05-3.7-0.02c-0.05-0.55-0.27-1.3-0.62-1.82
	c1.62,0.15,3.12,0.15,3.7,0.15c0.5,0,0.78-0.05,1.03-0.38c0.82-0.87,1.2-4.67,1.52-14.62h-6.35c-0.7,1.67-1.47,3.2-2.35,4.37
	c-0.32-0.3-1.12-0.8-1.52-1.05c1.67-2.2,3.02-5.65,3.82-9.07l1.77,0.42c-0.3,1.22-0.65,2.42-1.07,3.6h7.47L261.68,256.14
	L261.68,256.14z M256.15,267.41c-0.75-1.5-2.42-3.97-3.8-5.77l1.45-0.85c1.4,1.77,3.12,4.17,3.92,5.65L256.15,267.41z"/>
<path d="M251.13,283.92c2.1,0,3.8,1.7,3.8,3.8s-1.7,3.8-3.8,3.8c-2.08,0-3.8-1.7-3.8-3.8S249.06,283.92,251.13,283.92z
	 M251.13,290.24c1.4,0,2.52-1.12,2.52-2.52s-1.13-2.52-2.52-2.52c-1.38,0-2.52,1.13-2.52,2.52S249.76,290.24,251.13,290.24z"/>
<path d="M113.03,83.73c-5.99,4.71-12.25,9.15-17.92,14.23c-4.87,4.36-7.66,10.04-8.38,16.79c-0.36,3.35-2.42,6.51-2.82,9.87
	c-0.41,3.45-1.27,5.89-5.09,5.9c-5.91,0.01-8.39-2.04-9.3-7.07c-0.24-1.3-0.68-2.91-1.61-3.68c-1.9-1.58-1.84-3.31-2.21-5.54
	c-0.66-4,1.46-6.53,3.42-8.84c3.3-3.89,2.38-8.32,2.83-12.61c0.17-1.65,0.03-3.32,0.03-5.13c6.22,0.57,11.98,0.83,11.38,9.32
	c1.76-1.17,3.06-2.04,4.89-3.26c-3.16-2.75-1.54-5.57-0.99-8.62c1.53-8.49,2.67-17.05,3.68-25.62c0.4-3.42,0.07-6.93,0.07-10.8
	c6.24,0.16,6.82-6.4,10.92-10.29c-2.77-0.31-4.8-0.37-6.77-0.78c-4.13-0.86-5.4-4.75-7.15-7.73c-1.32-2.25-4.08-5.23-1.77-7.74
	c0.97-1.06,4.61,0.75,6.94,0.46c6.37-0.79,12.74-1.77,19.01-3.12c4.59-0.99,8.97-2.88,13.53-4.04c5.26-1.34,10.08-0.22,14.99,2.34
	c3.4,1.78,4.02,3.96,3.8,6.74c-1.62,0.16-3.15,0.26-4.65,0.55c-0.11,0.02,0.07,1.49,0.08,1.65c-1.77,1.16-3.44,2.26-5.11,3.35
	c-0.48,0.31-0.99,0.89-1.45,0.87c-6.47-0.34-12.06,2.87-17.76,5.01c-3.3,1.24-5.6,5.14-8.35,7.84c0.23,0.3,0.45,0.61,0.68,0.91
	c7.38-3.78,14.63-7.84,22.2-11.18c2.49-1.1,5.82-0.64,8.72-0.37c2.06,0.19,3.31,1.81,3.34,4.06c0.01,0.45,0.21,1,0.02,1.33
	c-3.73,6.32-2.65,13.43-3.25,20.24c-0.37,4.12-0.15,8.3-0.22,12.45c-0.03,1.7,0.27,2.7,2.47,2.74c6.44,0.12,12.86,0.63,19.3,0.85
	c3.36,0.12,6.74-0.19,10.09,0.02c1.37,0.08,3,0.7,3.97,1.63c2.88,2.76,5.45,5.84,8.21,8.73c3.13,3.27,4.23,8.55,1.8,11.98
	c-2.59,3.66-7.73,7.3-12.04,5.12c-2.93-1.47-6.36-2.95-8.16-5.44c-3.53-4.88-7.81-4.36-12.54-3.4c-4.05,0.82-8.1,1.67-12.29,1.68
	c4.6-3.29,9.21-6.57,13.81-9.86c-0.05-0.34-0.1-0.69-0.16-1.03c-4.39-1.02-8.79-2.03-13.56-3.14c-0.54,4.58-1.01,8.66-1.49,12.7
	c-6.07-0.82-12.26-7.81-14.38-16.57c0.78,0.67,1.21,1.08,1.69,1.43c0.42,0.3,0.89,0.53,1.79,0.36c-1.09-1.59-2.18-3.18-3.26-4.77
	c1.64,0.61,3.4,1.26,6.05,2.25c0.4-12.46,0.79-24.33,1.2-37.02c-11.89,3.07-20.35,11.09-31.03,14.4c0,1.71,0,3.5,0,5.77
	c7.29-2.72,12.91-8.74,21.41-8.56c-0.6,0.99-0.98,1.61-1.45,2.39c0.9,0.63,1.8,1.27,2.71,1.91c-4.48,2.02-9,3.66-13.11,6.03
	c-3.82,2.2-8.86,3.65-9.19,9.83c6.18-1.88,11.29-6.04,17.4-5.72c0.7,1.54,1.25,2.75,2.04,4.48c-4.3,1.5-8.9,3.06-13.47,4.7
	c-6.87,2.47-8.02,4.34-7.56,12.52c4.96-1.9,9.79-3.75,14.63-5.61c0.07,0.16,0.13,0.31,0.2,0.47c-5.2,2.74-10.39,5.48-15.59,8.22
	c0.13,0.25,0.27,0.5,0.4,0.75C103.46,88.6,108.29,86.14,113.03,83.73z"/>
<path d="M187.32,150.84c-2.91,3.56-5.77,7.06-8.63,10.56c0.06,0.14,0.12,0.27,0.19,0.41c1.93-1.33,3.87-2.65,5.8-3.98
	c-4.34,6.95-4.81,14.54-4.75,22.35c4.99-0.03,6.96,3.17,4.61,7.45c-2.37,4.31-5.02,8.55-8.13,12.35c-3.9,4.78-13.63,5.37-20,2.76
	c-7.41-3.03-12.91-8.28-18.44-13.67c-3.05-2.98-6.04-6.03-9.16-8.93c-2.7-2.5-5.55-4.84-8.17-7.11c-6.17,4.7-12.2,9.3-18.24,13.92
	c-3.35-4.56,0.09-6.24,2.04-8.21c3.48-3.5,7.19-6.78,11.19-10.51c-4.67-4.97-9.11-9.7-13.83-14.72c-4.64,5.21-9.06,10.14-13.44,15.1
	c-1.68,1.9-3.19,3.96-4.98,5.74c-0.97,0.96-2.37,1.49-3.9,2.4c-0.49-5.01-0.02-8.79,2.98-12.54c4.13-5.16,7.43-10.99,10.91-16.64
	c0.47-0.76-0.04-2.18-0.22-3.28c-0.22-1.34-0.56-2.65-0.85-3.96c0.16-0.17,0.34-0.47,0.44-0.45c4.65,1.11,6.64-1.6,7.78-5.44
	c0.93-3.16,1.76-6.35,2.77-10.03c6.5-1.32,8.52,3.32,7.46,8.19c-0.6,2.76-1.49,5.46-2.43,8.86c2.03-0.87,3.63-1.62,5.28-2.24
	c4.2-1.57,8.49-2.94,12.62-4.68c2.13-0.9,3.94-2.53,6.01-3.6c1.26-0.66,2.81-1.41,4.12-1.25c5.21,0.66,10.29,2.05,13.28,6.84
	c0.65,1.04-0.08,3.09-0.49,4.59c-0.17,0.62-1.33,0.89-1.76,1.52c-4.16,6.14-8.25,12.33-12.51,18.73c4.78,3.39,10.37,6.09,17.44,3.87
	c8.46-2.65,16.88-5.24,24.51-10.02C180,153.24,183.79,152.28,187.32,150.84z M133.58,143.4c-0.32-0.42-0.64-0.84-0.97-1.26
	c-6.06,1.98-12.11,3.97-19.21,6.29c4.5,2.97,8.06,5.32,11.93,7.88C128.25,151.74,130.91,147.57,133.58,143.4z"/>
<path d="M41.44,159.08c4.13-1.24,3.89-5.66,4.27-8.65c2.06-16.46,3.63-32.98,5.01-49.52c0.44-5.27-0.26-10.61-3.2-15.75
	c-9.06,6.04-18.1,12.07-27.39,18.26c-0.68-0.51-1.72-1.28-2.59-1.94c7.73-9.52,15.58-19.01,23.22-28.67
	c4.29-5.42,8.42-11,12.25-16.75c3.5-5.26,9.17-10.23,3.72-17.42c4.2-1.63,9.73,0.05,12.72,3.55c3.6,4.21,4.15,7.23,1.29,11.59
	c-5.62,8.57-11.5,16.95-17.39,25.58c8.61,5.94,7.65,15.65,8.06,24.54c0.54,11.62,0.13,23.28,0.58,35.03
	c0.4-2.73,0.79-5.46,1.19-8.19c0.41,0.05,0.82,0.11,1.23,0.16c-0.7,8.7-1.46,17.4-2.07,26.11c-0.18,2.5,0.2,5.04,0.07,7.55
	c-0.05,0.96-1,1.84-1.19,2.83c-0.28,1.48-0.51,3.06-0.31,4.53c0.3,2.12,0.4,3.76-2.47,3.61c-0.4-0.02-0.87,0.24-1.22,0.48
	c-4.9,3.41-12.11,0.42-13.22-5.42C43.27,166.79,42.32,163,41.44,159.08z"/>
<path d="M104.56,104.92c5.18,5.88,9.11,12.02,16.5,13.61c3.12,0.67,6.3,1.04,10.61,1.73c-0.74-5.39-1.38-10.04-2.17-15.76
	c2.04,2.69,3.93,4.47,4.95,6.66c1.65,3.55,4.29,5.54,7.85,6.67c2.4,0.76,4.7,1.75,4.39,4.87c-0.31,3.16-2.62,4.57-5.36,5.03
	c-9.07,1.52-17.82,0.21-26.05-3.86C108.6,120.55,104.21,112.27,104.56,104.92z"/>
<path d="M102.25,110.6c-0.25,3.36-0.18,6.64-0.83,9.76c-0.47,2.27-1.65,4.5-2.95,6.45c-0.7,1.04-2.56,2.21-3.5,1.94
	c-1.07-0.31-1.86-2.07-2.48-3.35c-0.43-0.89-0.65-2.06-0.5-3.04c1.1-7,2.24-14.01,3.61-20.96c0.2-1,2.01-2.61,2.54-2.42
	c1.32,0.48,3.05,1.65,3.32,2.84C102.12,104.7,102.04,107.75,102.25,110.6z"/>
<path d="M135.65,100.27c0.86-0.09,1.73-0.35,2.56-0.24c3.88,0.47,7.74,1.14,11.63,1.56c3.86,0.41,5.79,3.1,7.33,6.11
	c0.34,0.66-0.22,2.24-0.88,2.86c-2.46,2.3-5.95,2.67-8.91,0.54c-4.25-3.06-8.2-6.53-12.27-9.83
	C135.3,100.93,135.47,100.6,135.65,100.27z"/>
<path d="M122.56,110.62c-2.49-1.98-4.54-3.03-5.72-4.69c-2.11-2.97-3.79-6.27-5.46-9.52c-0.4-0.79-0.5-2.36-0.02-2.82
	c0.63-0.6,2.31-0.95,2.95-0.53c5.02,3.38,9.32,7.48,10.51,13.75C124.98,107.65,123.72,108.75,122.56,110.62z"/>
<g class="st3">
	<path class="st1" d="M185.83,183.58c-0.07-0.13-0.14-0.25-0.21-0.38l-0.1-0.19c-0.03-0.06-0.07-0.13-0.11-0.19
		c-0.15-0.25-0.3-0.5-0.45-0.75c0.11,0.28,0.19,0.57,0.23,0.9c0.03,0.09,0.07,0.17,0.11,0.23s0.09,0.11,0.15,0.16
		C185.55,183.43,185.69,183.49,185.83,183.58z"/>
	<path class="st1" d="M184.07,180.71c-0.06-0.09-0.12-0.17-0.18-0.25c-0.08-0.06-0.15-0.12-0.22-0.16c0.07,0.07,0.14,0.14,0.21,0.2
		C183.94,180.57,184,180.63,184.07,180.71z"/>
	<path class="st1" d="M181.96,178.51c0.17,0.21,0.33,0.41,0.51,0.6c0.17,0.19,0.35,0.37,0.54,0.54c-0.12-0.19-0.26-0.37-0.43-0.57
		C182.4,178.89,182.21,178.69,181.96,178.51z"/>
	<path class="st1" d="M183.36,180.47c-0.02-0.22,0.02-0.37,0.29-0.19l0.01,0.01c-0.22-0.21-0.43-0.43-0.65-0.65
		C183.18,179.93,183.29,180.21,183.36,180.47z"/>
	<path class="st1" d="M183.36,180.47c0.02,0.21,0.1,0.5,0.11,0.62C183.46,180.89,183.42,180.69,183.36,180.47z"/>
	<path class="st1" d="M180.66,181.71c-0.24-0.15,0.42-0.62-0.08-0.92c-0.13-0.1-0.25-0.2-0.38-0.3c-0.13-0.09-0.26-0.18-0.39-0.26
		c-0.13-0.09-0.25-0.17-0.38-0.25s-0.24-0.17-0.37-0.24c-0.25-0.16-0.5-0.31-0.73-0.48c-0.06-0.04-0.12-0.09-0.17-0.13
		c-0.06-0.04-0.12-0.08-0.18-0.13c-0.12-0.09-0.23-0.18-0.34-0.27c-0.13-0.05-0.23-0.17-0.32-0.32c-0.09-0.15-0.17-0.32-0.25-0.5
		s-0.16-0.36-0.26-0.51c-0.05-0.07-0.1-0.14-0.16-0.19s-0.12-0.09-0.19-0.11c-0.15-0.07-0.33-0.15-0.53-0.22
		c-0.1-0.04-0.2-0.08-0.31-0.12c-0.03-0.01-0.05-0.02-0.08-0.03s-0.06-0.02-0.08-0.03c-0.06-0.02-0.11-0.03-0.17-0.05
		c-0.23-0.07-0.46-0.13-0.68-0.18c-0.11-0.03-0.22-0.05-0.32-0.07c-0.11-0.02-0.21-0.03-0.31-0.05c-0.77-0.1-1.17-0.02-0.36,0.41
		c0.08,0.04,0.15,0.08,0.23,0.12c0.07,0.04,0.15,0.07,0.22,0.12c0.14,0.08,0.29,0.16,0.42,0.24c0.14,0.08,0.28,0.15,0.41,0.23
		c0.03,0.02,0.07,0.04,0.1,0.06s0.06,0.04,0.1,0.06c0.06,0.04,0.13,0.08,0.19,0.12c0.25,0.16,0.51,0.31,0.75,0.46
		c0.24,0.16,0.47,0.32,0.71,0.47c0.06,0.04,0.12,0.08,0.18,0.12s0.11,0.08,0.17,0.12l0.34,0.25c0.22,0.17,0.46,0.33,0.67,0.51
		c0.22,0.18,0.45,0.37,0.68,0.55c0.22,0.2,0.44,0.41,0.68,0.62c0.21,0.15,0.41,0.33,0.61,0.49c0.1,0.08,0.2,0.17,0.3,0.25
		s0.2,0.16,0.3,0.25c0.19,0.17,0.39,0.35,0.58,0.52l0.15,0.13c0.05,0.04,0.1,0.09,0.14,0.13l0.28,0.28
		c0.18,0.19,0.38,0.37,0.56,0.56c0.18,0.2,0.35,0.4,0.53,0.6c0.09,0.1,0.18,0.2,0.27,0.3c0.08,0.11,0.17,0.21,0.25,0.32
		c0.17,0.21,0.34,0.43,0.51,0.65c0.31,0.53,0.53,1.06,0.71,1.62c-0.05-0.18-0.1-0.37-0.15-0.56c-0.06-0.18-0.12-0.37-0.18-0.56
		s-0.13-0.38-0.19-0.58c-0.07-0.2-0.15-0.39-0.23-0.59c-0.05-0.14-0.11-0.27-0.19-0.4c-0.04-0.06-0.08-0.13-0.13-0.19
		s-0.11-0.12-0.16-0.17c-0.23-0.23-0.51-0.45-0.8-0.67c-0.31-0.21-0.64-0.43-0.96-0.67c-0.08-0.06-0.17-0.12-0.25-0.18
		s-0.17-0.12-0.25-0.19C180.97,182.01,180.81,181.87,180.66,181.71z"/>
	<path class="st1" d="M188.93,195.84c-0.11-0.29-0.34-0.87-0.34-0.87c0.03-0.09,0.06-0.17,0.08-0.26s0.05-0.17,0.06-0.26
		c0.03-0.17,0.05-0.34,0.05-0.52c0.01-0.17,0-0.35-0.01-0.52c-0.01-0.09-0.01-0.17-0.02-0.26c-0.01-0.09-0.03-0.17-0.04-0.26
		c-0.07-0.34-0.16-0.68-0.27-1.01c-0.02-0.08-0.06-0.17-0.09-0.25l-0.1-0.25l-0.2-0.49c-0.09,0.23-0.17,0.46-0.26,0.69
		c0.12,0.38,0.21,0.58,0.3,0.6c0.04,0.01,0.09-0.03,0.12-0.12s0.06-0.22,0.06-0.4c-0.09,0.85-0.09,1.63-0.08,2.41
		c0,0.19,0.02,0.38,0.03,0.58c0.01,0.19,0.01,0.38,0.03,0.57c0.01,0.19,0.03,0.38,0.05,0.57l0.01,0.14l0.01,0.14
		c0.01,0.1,0.01,0.19,0.02,0.29c0.11-0.05,0.23-0.08,0.33-0.14C188.79,196.17,188.89,196.06,188.93,195.84z"/>
	<path class="st1" d="M188.44,197.29c-0.03-0.3-0.06-0.61-0.09-0.9c-0.02,0.01-0.05,0.02-0.07,0.03c0.05,0.3,0.1,0.61,0.14,0.9
		C188.43,197.31,188.44,197.3,188.44,197.29z"/>
	<path class="st1" d="M176.68,174.96c-3.28-2.15-6.76-3.54-10.3-4.24c-0.15,0.05-0.28,0.12-0.42,0.15
		c-0.07,0.02-0.14,0.02-0.21,0.02c-0.07-0.01-0.15-0.02-0.24-0.06c-0.26-0.18-0.53-0.3-0.8-0.4c-0.26-0.05-0.52-0.07-0.79-0.09
		c-0.26-0.03-0.52-0.05-0.79-0.08c-0.09,0-0.18,0.01-0.28,0.02c-0.09,0.01-0.19,0.02-0.28,0.03c0,0-0.01,0-0.02,0
		c-0.3,0.09-0.21,0.21-0.04,0.34c0.2,0.09,0.38,0.2,0.53,0.31c-0.1-0.08-0.36-0.19-0.53-0.31c-0.24-0.11-0.52-0.2-0.84-0.25
		c-0.24,0.03-0.48,0.06-0.73,0.07c-0.12,0.01-0.25,0.01-0.38,0.01c-0.06,0-0.13,0-0.19,0s-0.13-0.01-0.19-0.01
		c0.07-0.02,0.14-0.03,0.21-0.04s0.14-0.02,0.2-0.03c0.13-0.02,0.26-0.03,0.39-0.03c0.25-0.01,0.48,0,0.69,0.03
		c0.3-0.03,0.6-0.06,0.89-0.09c0.09-0.02,0.17-0.04,0.26-0.07c-0.3-0.02-0.6-0.03-0.9-0.05l-0.23-0.01c-0.08-0.01-0.15,0-0.23,0
		h-0.45h-0.45c-0.15,0-0.3-0.01-0.45,0l-0.9,0.04c-0.14,0.02-0.27,0.04-0.4,0.06c-0.13,0.03-0.24,0.05-0.35,0.08
		c-0.21,0.05-0.43,0.11-0.63,0.16c-0.1,0.02-0.21,0.04-0.31,0.06c-0.1,0.02-0.2,0.04-0.3,0.06c-0.39,0.06-0.75,0.05-1.05-0.1
		c-0.21,0.04-0.43,0.08-0.64,0.12c0.05,0.02,0.09,0.03,0.14,0.04c-0.1,0-0.18-0.01-0.26-0.02c-0.22,0.04-0.45,0.08-0.68,0.13
		c-0.22,0.05-0.45,0.11-0.67,0.16l-0.34,0.08c-0.11,0.03-0.23,0.05-0.34,0.09c-0.22,0.07-0.44,0.13-0.67,0.2
		c-0.13,0.08-0.26,0.17-0.39,0.26l-0.1,0.07l-0.09,0.07c-0.06,0.05-0.13,0.09-0.19,0.14c-0.25,0.19-0.51,0.37-0.77,0.54
		c0,0-0.03-0.01-0.08-0.02c-0.05-0.01-0.12-0.02-0.19-0.03c-0.15-0.03-0.33-0.06-0.45-0.08c-0.07,0.15-0.18,0.28-0.3,0.42
		c-0.06,0.07-0.13,0.13-0.21,0.19s-0.15,0.13-0.24,0.19c0.27-0.01,0.54,0.02,0.79,0.04c0.25,0.02,0.49,0.03,0.71,0.02
		c0.09,0.02,0.17,0.01,0.24-0.02c0.08-0.02,0.15-0.06,0.21-0.11c0.13-0.1,0.26-0.25,0.39-0.39s0.27-0.27,0.44-0.33
		s0.36-0.05,0.59,0.07c-0.23-0.13-0.42-0.13-0.59-0.07s-0.31,0.2-0.44,0.33c-0.13,0.14-0.26,0.29-0.39,0.39
		c-0.07,0.05-0.14,0.09-0.21,0.11c-0.08,0.02-0.15,0.03-0.24,0.02c-0.22,0.01-0.46-0.01-0.71-0.02c-0.25-0.02-0.52-0.04-0.79-0.04
		c-0.18,0.13-0.37,0.25-0.58,0.36c-0.11,0.05-0.22,0.11-0.33,0.16s-0.22,0.1-0.34,0.15c-0.23,0.09-0.47,0.17-0.72,0.24
		c-0.13,0.03-0.25,0.06-0.37,0.09s-0.24,0.05-0.37,0.07c0.1-0.11,0.2-0.22,0.3-0.31c0.03-0.02,0.05-0.05,0.08-0.07
		s0.05-0.04,0.08-0.06c0.05-0.04,0.11-0.08,0.16-0.11c0.22-0.14,0.45-0.25,0.68-0.33c0.06-0.02,0.12-0.04,0.17-0.06
		c0.03-0.01,0.06-0.02,0.09-0.02c0.03-0.01,0.06-0.01,0.09-0.02c0.12-0.02,0.24-0.04,0.36-0.06c0.24-0.03,0.47-0.04,0.7-0.04
		c0.08-0.06,0.16-0.13,0.24-0.19s0.15-0.13,0.21-0.19c0.13-0.13,0.23-0.27,0.3-0.42c0.12,0.02,0.3,0.05,0.45,0.08
		c0.08,0.01,0.14,0.02,0.19,0.03s0.08,0.02,0.08,0.02c0.26-0.17,0.51-0.35,0.77-0.54c0.06-0.05,0.13-0.09,0.19-0.14l0.09-0.07
		l0.1-0.07c0.13-0.09,0.26-0.17,0.39-0.26c-1.73,0.52-3.44,1.22-5.1,2.11c-1.34,0.71-2.6,1.54-3.79,2.45
		c-0.29,0.24-0.58,0.47-0.87,0.71c-0.07,0.06-0.14,0.12-0.21,0.18l-0.21,0.19l-0.42,0.37l-0.21,0.19c-0.07,0.06-0.13,0.13-0.2,0.2
		l-0.4,0.39l-0.4,0.4l-0.38,0.41c-0.51,0.54-0.98,1.12-1.44,1.7c-0.22,0.3-0.44,0.6-0.66,0.9c-0.03,0.04-0.06,0.07-0.08,0.11
		l-0.08,0.12l-0.15,0.23l-0.31,0.46c-0.81,1.25-1.52,2.56-2.13,3.92c-0.6,1.37-1.09,2.79-1.47,4.25c-0.39,1.46-0.64,2.96-0.78,4.49
		c-0.03,0.38-0.08,0.76-0.09,1.15c-0.01,0.19-0.02,0.38-0.03,0.58l-0.01,0.29c0,0.1-0.01,0.19-0.01,0.29c0,0.39,0,0.78,0.01,1.17
		c0,0.19,0.01,0.39,0.02,0.58c0.01,0.2,0.02,0.39,0.03,0.59c0.1,1.57,0.32,3.15,0.67,4.72c0.77,3.42,2.13,6.66,3.97,9.56
		c0.92,1.45,1.96,2.82,3.1,4.1c0.15,0.16,0.29,0.31,0.44,0.47l0.22,0.24c0.07,0.08,0.14,0.16,0.22,0.23c0.31,0.3,0.61,0.6,0.92,0.9
		c0.32,0.29,0.64,0.57,0.95,0.86l0.12,0.11l0.12,0.1l0.25,0.2c0.17,0.14,0.33,0.27,0.5,0.41c1.34,1.07,2.78,1.99,4.28,2.76
		c0.19,0.09,0.38,0.19,0.57,0.28l0.28,0.14c0.1,0.04,0.19,0.08,0.29,0.13c0.19,0.08,0.39,0.17,0.58,0.25l0.29,0.12
		c0.1,0.04,0.19,0.08,0.29,0.12c0.39,0.15,0.79,0.29,1.18,0.43c0.1,0.04,0.2,0.07,0.3,0.1l0.3,0.09c0.2,0.06,0.4,0.12,0.6,0.18
		c1.61,0.46,3.26,0.78,4.91,0.96c0.41,0.04,0.83,0.07,1.24,0.11c0.1,0.01,0.21,0.01,0.31,0.02l0.31,0.01l0.62,0.02
		c0.42,0.02,0.83,0.01,1.25,0.01l0.62-0.01c0.1,0,0.21-0.01,0.31-0.01l0.31-0.02l0.62-0.04l0.31-0.02c0.1-0.01,0.21-0.02,0.31-0.03
		c0.42-0.04,0.83-0.09,1.25-0.13c0.41-0.06,0.83-0.13,1.24-0.19c0.1-0.02,0.21-0.03,0.31-0.05l0.31-0.06l0.62-0.12
		c1.65-0.34,3.28-0.8,4.9-1.37c0.4-0.15,0.8-0.3,1.21-0.46c0.1-0.04,0.2-0.08,0.3-0.12l0.3-0.13c0.2-0.08,0.4-0.17,0.6-0.25
		c0.1-0.04,0.2-0.08,0.3-0.13l0.3-0.14c0.2-0.09,0.4-0.19,0.59-0.28c0.4-0.18,0.79-0.39,1.18-0.59c1.57-0.81,3.12-1.74,4.64-2.8
		c0.29-0.21,0.58-0.44,0.89-0.68c0.04-0.03,0.08-0.06,0.12-0.09s0.07-0.06,0.11-0.1c0.07-0.07,0.15-0.13,0.23-0.2
		c0.15-0.14,0.31-0.27,0.46-0.42c0.32-0.28,0.62-0.6,0.93-0.92c0.15-0.16,0.31-0.33,0.47-0.5c0.15-0.18,0.3-0.35,0.45-0.53
		c1.22-1.43,2.35-3.14,3.28-4.94s1.66-3.7,2.16-5.49c0.12-0.45,0.23-0.89,0.34-1.32c0.09-0.43,0.18-0.85,0.26-1.26
		c0.02-0.1,0.04-0.2,0.06-0.3s0.03-0.2,0.05-0.3c0.03-0.2,0.06-0.39,0.09-0.58c0.06-0.38,0.12-0.73,0.15-1.07
		c-0.03-0.47-0.07-0.89-0.12-1.27c-0.07-0.38-0.15-0.72-0.24-1.02c-0.17-0.6-0.42-1.05-0.68-1.37c-0.51-0.65-1.08-0.83-1.62-0.8
		c-0.54,0.04-1.05,0.28-1.43,0.52c-0.39,0.24-0.65,0.49-0.7,0.56c-0.1,0.11-0.19,0.23-0.28,0.34s-0.18,0.22-0.27,0.33
		c-0.17,0.22-0.32,0.43-0.46,0.64l-0.1,0.16l-0.05,0.08l-0.05,0.08c-0.07,0.1-0.13,0.21-0.19,0.31c-0.12,0.21-0.23,0.41-0.33,0.62
		c-0.09,0.21-0.2,0.41-0.3,0.63c-0.09,0.21-0.18,0.43-0.26,0.64c-0.04,0.11-0.09,0.22-0.13,0.33c-0.04,0.11-0.09,0.22-0.13,0.34
		c-0.04,0.11-0.08,0.23-0.12,0.35c-0.04,0.12-0.07,0.24-0.12,0.35c-0.09,0.24-0.18,0.48-0.27,0.73c-0.02,0.06-0.05,0.13-0.07,0.19
		s-0.04,0.13-0.07,0.19c-0.05,0.13-0.11,0.26-0.16,0.39c-0.06,0.13-0.11,0.26-0.17,0.4s-0.11,0.27-0.19,0.41
		c-0.14,0.27-0.28,0.55-0.43,0.84c-0.04,0.07-0.08,0.14-0.12,0.22c-0.04,0.07-0.09,0.14-0.13,0.22c-0.09,0.15-0.18,0.29-0.27,0.44
		c-0.05,0.07-0.09,0.15-0.14,0.22s-0.11,0.15-0.16,0.22c-0.11,0.15-0.22,0.3-0.33,0.45c-0.06,0.08-0.11,0.15-0.17,0.23
		s-0.13,0.15-0.19,0.22c-0.13,0.15-0.26,0.3-0.4,0.45c-0.07,0.08-0.14,0.15-0.21,0.23s-0.15,0.15-0.23,0.22
		c-0.15,0.15-0.31,0.3-0.47,0.45c0.42-0.42,0.74-0.68,0.94-0.81c0.21-0.13,0.33-0.12,0.37,0.01c0.02,0.06,0.02,0.15,0,0.27
		c-0.01,0.06-0.02,0.12-0.04,0.19c-0.02,0.07-0.05,0.14-0.08,0.22c-0.06,0.16-0.14,0.34-0.24,0.54c-0.05,0.1-0.1,0.2-0.16,0.31
		s-0.13,0.21-0.2,0.32c-0.14,0.22-0.3,0.45-0.47,0.69c-0.18,0.23-0.38,0.47-0.58,0.71c-0.2,0.25-0.44,0.47-0.68,0.71
		c-0.12,0.12-0.24,0.23-0.37,0.35c-0.13,0.11-0.26,0.22-0.4,0.32c-1.06,0.86-2.31,1.53-3.5,1.78c-1.73,0.34-3.35,0.86-5.03,1.39
		c-0.21,0.06-0.42,0.13-0.63,0.21c-0.1,0.04-0.21,0.07-0.32,0.1s-0.21,0.07-0.32,0.1s-0.21,0.07-0.32,0.1l-0.16,0.05l-0.16,0.05
		c-0.22,0.06-0.43,0.13-0.65,0.2c-0.21,0.07-0.44,0.13-0.66,0.19c-0.11,0.03-0.22,0.06-0.33,0.09l-0.17,0.05
		c-0.06,0.02-0.11,0.03-0.17,0.05c-0.22,0.05-0.45,0.11-0.67,0.17c-0.11,0.03-0.22,0.06-0.34,0.09c-0.11,0.02-0.23,0.05-0.34,0.07
		c-0.23,0.05-0.46,0.1-0.69,0.15c-0.23,0.04-0.47,0.08-0.7,0.12c-0.12,0.02-0.23,0.04-0.35,0.06c-0.12,0.02-0.24,0.03-0.35,0.05
		c-0.24,0.03-0.47,0.06-0.71,0.09c-0.12,0.02-0.24,0.02-0.36,0.03l-0.36,0.03l-0.36,0.03c-0.06,0-0.12,0.01-0.18,0.01h-0.18
		l-0.73,0.02h-0.18c-0.06,0-0.12,0-0.18,0l-0.36-0.01l-0.36-0.01c-0.12-0.01-0.24-0.01-0.36-0.02c-0.24-0.03-0.48-0.05-0.72-0.08
		l-0.18-0.02c-0.06-0.01-0.12-0.01-0.18-0.02c-0.12-0.02-0.24-0.04-0.35-0.06c-0.23-0.04-0.47-0.08-0.7-0.13
		c-0.23-0.06-0.46-0.12-0.69-0.18c-0.11-0.03-0.23-0.06-0.34-0.09c-0.11-0.04-0.22-0.08-0.33-0.11c-0.22-0.08-0.44-0.16-0.66-0.24
		c-0.21-0.09-0.42-0.19-0.63-0.28c-0.1-0.05-0.21-0.1-0.31-0.14l-0.08-0.03l-0.08-0.04c-0.05-0.03-0.1-0.05-0.16-0.08
		c-0.21-0.1-0.42-0.2-0.64-0.29c-0.11-0.04-0.21-0.1-0.32-0.15c-0.11-0.05-0.22-0.1-0.32-0.15c-0.11-0.05-0.22-0.1-0.33-0.15
		l-0.08-0.04c-0.03-0.01-0.05-0.03-0.08-0.04c-0.05-0.03-0.11-0.06-0.16-0.08c-0.22-0.11-0.44-0.22-0.67-0.34
		c-0.22-0.12-0.44-0.25-0.67-0.38c-0.11-0.06-0.23-0.13-0.34-0.2c-0.11-0.07-0.22-0.14-0.33-0.22c-0.11-0.07-0.22-0.15-0.33-0.22
		c-0.06-0.04-0.11-0.07-0.17-0.11c-0.05-0.04-0.11-0.08-0.16-0.12c-2.17-1.82-4.01-3.88-5.49-6.14c-0.74-1.13-1.39-2.32-1.93-3.55
		s-0.98-2.51-1.3-3.83s-0.53-2.68-0.6-4.07c-0.07-1.39-0.02-2.79,0.18-4.19c0.2-1.4,0.55-2.79,1.06-4.14s1.17-2.67,2-3.9
		c0.84-1.33,1.62-2.6,2.45-3.81c0.83-1.21,1.72-2.34,2.75-3.32c0.1-0.08,0.2-0.16,0.3-0.24c0.05-0.04,0.1-0.08,0.16-0.11l0.16-0.11
		c0.22-0.14,0.44-0.28,0.66-0.41c0.23-0.12,0.46-0.24,0.69-0.35c0.12-0.06,0.23-0.11,0.34-0.17c0.12-0.05,0.23-0.1,0.35-0.15
		c0.23-0.09,0.46-0.19,0.69-0.28c0.23-0.08,0.46-0.16,0.68-0.24c0.11-0.04,0.22-0.08,0.32-0.12c0.11-0.04,0.21-0.07,0.32-0.11
		c0.21-0.07,0.41-0.14,0.6-0.22c1.21-0.45,2.34-0.84,3.45-1.19c0.28-0.08,0.55-0.16,0.83-0.24c0.07-0.02,0.14-0.04,0.2-0.06
		c0.07-0.02,0.14-0.04,0.21-0.05c0.14-0.04,0.27-0.07,0.41-0.11c0.54-0.16,1.08-0.27,1.62-0.41c-0.3,0.04-0.6,0.09-0.88,0.13
		c-0.07,0.01-0.14,0.02-0.21,0.03s-0.14,0.03-0.21,0.04c-0.14,0.03-0.27,0.06-0.41,0.09c-0.54,0.1-1.06,0.26-1.58,0.39
		c-1.04,0.31-2.09,0.67-3.32,1.18c-0.41,0.18-0.56,0.17-0.55,0.06c0.01-0.06,0.05-0.14,0.13-0.24c0.04-0.05,0.09-0.11,0.14-0.17
		c0.06-0.06,0.12-0.13,0.19-0.19c0.14-0.13,0.3-0.26,0.48-0.4c0.09-0.07,0.18-0.14,0.27-0.21c0.05-0.03,0.09-0.07,0.14-0.1
		l0.14-0.09c0.19-0.12,0.38-0.24,0.56-0.35c0.18-0.1,0.35-0.2,0.49-0.26c0.24-0.15,0.62-0.05,0.98,0.05
		c0.09,0.02,0.18,0.05,0.27,0.08c0.09,0.03,0.18,0.05,0.26,0.06c0.17,0.03,0.32,0.02,0.44-0.04c0.14-0.02,0.28-0.06,0.41-0.09
		c0.14-0.03,0.27-0.06,0.41-0.1c0.13-0.04,0.27-0.08,0.4-0.12l0.2-0.07l0.1-0.03l0.1-0.03c0.55-0.16,1.11-0.37,1.73-0.49
		c0.27-0.1,0.39,0.06,0.47,0.23c0.09,0.17,0.13,0.35,0.27,0.31c0.21-0.02,0.41-0.05,0.61-0.09c0.1-0.02,0.2-0.04,0.29-0.07
		c0.05-0.01,0.1-0.03,0.15-0.04c0.05-0.01,0.1-0.03,0.14-0.04c0.38-0.09,0.75-0.21,1.1-0.31c0.09-0.03,0.17-0.05,0.26-0.07
		s0.17-0.04,0.25-0.05c0.17-0.03,0.33-0.06,0.49-0.07c0.08-0.01,0.16-0.01,0.23-0.01c0.08,0,0.15,0,0.22,0.01
		c0.14,0.02,0.28,0.05,0.41,0.1c0.2,0.07,0.4,0.13,0.59,0.2c0.05,0.02,0.1,0.03,0.14,0.05c0.05,0.02,0.09,0.04,0.14,0.06
		c0.09,0.04,0.18,0.07,0.27,0.11c0.36,0.15,0.71,0.28,1.04,0.45c0.22,0.08,0.43,0.17,0.65,0.24c0.06,0.02,0.11,0.04,0.17,0.05
		c0.05,0.02,0.11,0.04,0.17,0.06c0.11,0.04,0.23,0.07,0.34,0.1c0.15,0.02,0.31,0.03,0.47,0.05c0.08,0.01,0.16,0.01,0.24,0.03
		c0.08,0.01,0.16,0.03,0.24,0.04c-0.07-0.16-0.1-0.33-0.11-0.49s0-0.32,0.01-0.48c0.05,0.02,0.11,0.05,0.17,0.08s0.11,0.07,0.17,0.1
		c0.12,0.07,0.24,0.15,0.36,0.23s0.24,0.16,0.36,0.23c0.06,0.04,0.12,0.07,0.17,0.1s0.11,0.07,0.16,0.1
		c-0.05-0.03-0.1-0.06-0.16-0.1c-0.05-0.03-0.11-0.07-0.17-0.1c-0.12-0.07-0.24-0.15-0.36-0.23s-0.24-0.16-0.36-0.23
		c-0.06-0.04-0.12-0.07-0.17-0.1c-0.06-0.03-0.11-0.06-0.17-0.08c-0.01,0.16-0.02,0.32-0.01,0.48c0.01,0.16,0.04,0.32,0.11,0.49
		c0.28,0.05,0.57,0.1,0.87,0.15c0.29,0.06,0.59,0.14,0.89,0.21c0.08,0.02,0.15,0.04,0.23,0.06s0.15,0.04,0.23,0.06
		c0.15,0.05,0.3,0.09,0.45,0.14s0.3,0.09,0.46,0.14c0.08,0.02,0.15,0.05,0.23,0.07l0.23,0.08c0.3,0.11,0.61,0.23,0.91,0.34
		c0.3,0.13,0.6,0.26,0.89,0.39l0.22,0.1l0.22,0.11c0.15,0.07,0.29,0.15,0.43,0.22s0.29,0.15,0.43,0.22
		c0.14,0.08,0.28,0.16,0.42,0.24c0.01-0.02,0.01-0.05,0.02-0.08c-0.08-0.05-0.15-0.11-0.23-0.16l-0.11-0.08l-0.12-0.08
		c-0.15-0.1-0.31-0.21-0.46-0.32c-0.15-0.11-0.3-0.22-0.44-0.33c-0.15-0.11-0.3-0.22-0.45-0.33c-0.15-0.12-0.29-0.24-0.44-0.36
		c-0.04-0.03-0.07-0.06-0.11-0.09l-0.11-0.09c-0.07-0.06-0.15-0.12-0.22-0.19c-0.15-0.13-0.29-0.26-0.43-0.4
		c-0.07-0.07-0.14-0.14-0.22-0.21c-0.07-0.07-0.15-0.14-0.22-0.21c0.13,0.12,0.22,0.21,0.26,0.29c0.04,0.08,0.05,0.13,0.01,0.16
		c-0.04,0.03-0.1,0.03-0.21,0.01s-0.25-0.07-0.43-0.14c-0.11-0.21-0.23-0.43-0.34-0.64c0.33,0.1,0.66,0.21,0.98,0.32
		c0.08,0.03,0.16,0.06,0.24,0.09s0.16,0.07,0.23,0.1c0.15,0.07,0.31,0.15,0.45,0.23c0.07,0.04,0.15,0.08,0.22,0.13l0.11,0.07
		l0.1,0.07c0.13,0.1,0.26,0.21,0.39,0.32c0.25,0.23,0.47,0.48,0.64,0.79c0,0,0.58,0.19,0.87,0.28c0.07,0.08,0.11,0.17,0.13,0.24
		s0.02,0.14,0.01,0.2c-0.02,0.12-0.08,0.23-0.11,0.34c0.24,0.17,0.49,0.33,0.73,0.5c-0.05-0.18-0.18-0.41-0.33-0.66
		c-0.08-0.13-0.16-0.26-0.24-0.39c-0.04-0.07-0.09-0.13-0.13-0.2c-0.05-0.06-0.09-0.12-0.14-0.18c-0.18-0.24-0.36-0.46-0.49-0.63
		c-0.07-0.08-0.12-0.15-0.16-0.19C176.7,174.98,176.68,174.96,176.68,174.96z"/>
	<path class="st1" d="M161.65,170.36c0.21-0.02,0.47-0.03,0.75-0.05l-0.75-0.05c-0.25,0-0.5-0.01-0.76-0.01h-0.38
		c-0.13,0-0.25-0.01-0.38,0c-0.25,0.01-0.51,0.02-0.76,0.03c0.14,0.09,0.3,0.14,0.47,0.18c0.09,0.02,0.18,0.02,0.27,0.03
		c0.09,0,0.19,0,0.28,0C160.78,170.49,161.21,170.43,161.65,170.36z"/>
</g>
</svg>
