<?xml version="1.0" encoding="utf-8"?>
<!-- Generator: Adobe Illustrator 23.0.2, SVG Export Plug-In . SVG Version: 6.00 Build 0)  -->
<svg version="1.1" id="圖層_1" xmlns="http://www.w3.org/2000/svg" xmlns:xlink="http://www.w3.org/1999/xlink" x="0px" y="0px"
	 viewBox="0 0 323.11 362.05" style="enable-background:new 0 0 323.11 362.05;" xml:space="preserve">
<style type="text/css">
	.st0{fill:#FFFFFF;}
	.st1{fill:#D40000;}
	.st2{opacity:0.52;}
	.st3{fill:#BA3F3F;}
	.st4{opacity:0.85;}
</style>
<g>
	<rect x="50.31" y="73.58" class="st0" width="210.29" height="210.29"/>
	<path class="st1" d="M258.1,76.08v205.29H52.81V76.08H258.1 M263.1,71.08H47.81v215.29H263.1V71.08L263.1,71.08z"/>
</g>
<g class="st2">
	<rect x="50.75" y="141.55" class="st3" width="212.35" height="2.12"/>
</g>
<g class="st2">
	<rect x="118.51" y="74.02" class="st3" width="2.12" height="212.35"/>
</g>
<g class="st2">
	<rect x="190.87" y="74.02" class="st3" width="2.12" height="212.35"/>
</g>
<g class="st2">
	<rect x="50.75" y="212.84" class="st3" width="212.35" height="2.12"/>
</g>
<path d="M62.69,32.55v9.56c0,2.92-0.49,4.47-2.17,5.4c-1.68,0.97-3.98,1.15-7.17,1.15c-0.18-1.64-0.97-4.2-1.73-5.8
	c1.55,0.04,3.36,0.04,3.94,0.04c0.62,0,0.84-0.22,0.84-0.84v-7.92l-3.85,0.93l-1.59-6.15c1.59-0.31,3.45-0.66,5.44-1.11v-6.77h-4.87
	v-5.93h4.87V6.97h6.28v8.14h4.2v4.65c3.01-1.99,3.36-4.38,3.36-6.73V8.3h16.59v9.38c0,1.28,0.09,1.86,0.75,1.86h1.81
	c0.75,0,1.95-0.13,2.61-0.35c0.09,1.59,0.22,3.81,0.44,5.27c-0.75,0.35-1.9,0.4-2.96,0.4h-2.57c-5.13,0-6.15-2.21-6.15-7.26v-3.36
	h-4.56c-0.22,4.34-1.81,8.89-7.7,11.55c-0.75-1.24-3.05-3.76-4.25-4.69l0.09-0.04h-1.68v5.35l2.74-0.62l0.8,5.89L62.69,32.55z
	 M90.96,27.46c-1.5,5.44-3.89,9.65-7.08,12.88c2.79,1.24,5.93,2.17,9.43,2.79c-1.37,1.42-3.19,4.2-4.03,5.97
	c-4.25-0.97-7.88-2.48-11.02-4.43c-3.32,1.9-7.17,3.27-11.51,4.29c-0.58-1.73-1.95-4.42-3.1-5.84c3.45-0.58,6.55-1.46,9.25-2.74
	c-2.12-2.17-3.94-4.69-5.49-7.57l2.43-0.84h-3.14V26H85.7l1.11-0.22L90.96,27.46z M73.71,31.97c1.19,1.86,2.74,3.54,4.6,5
	c1.64-1.42,3.05-3.1,4.16-5H73.71z"/>
<path d="M135.57,10.55c-1.11,2.57-2.7,5.35-4.16,7.21c1.68,0.27,3.58,0.4,5.66,0.44c-1.24,1.19-2.74,3.54-3.45,5.13
	c-4.87-0.58-8.63-1.86-11.37-4.12c-1.77,1.73-5.27,3.23-11.95,3.94h21.51v18.14h-5.31c3.63,1.46,7.39,3.14,9.74,4.34l-5.75,3.36
	c-2.43-1.5-6.86-3.81-11.02-5.49l2.83-2.21h-11.73l4.03,1.81c-3.67,2.48-9.47,4.78-14.03,6.06c-1.15-1.28-3.36-3.58-4.78-4.69
	c3.94-0.66,8.23-1.86,11.24-3.19h-5.44V23.17h7.74c-0.31-0.75-0.89-1.73-1.55-2.66H95.83v-4.82h13.76v2.57
	c7.39-0.62,8.5-2.08,8.5-3.41v-0.8h-1.59c-0.93,1.33-1.95,2.48-2.96,3.41c-1.06-0.93-3.41-2.48-4.73-3.23
	c2.39-1.81,4.25-4.69,5.22-7.61l5.58,1.28c-0.18,0.53-0.4,1.06-0.62,1.59h11.24l0.93-0.27L135.57,10.55z M108.57,13.52H96.8v-4.6
	h11.77V13.52z M125.3,26.88h-17.52v1.24h17.52V26.88z M107.78,32.86h17.52v-1.24h-17.52V32.86z M107.78,37.64h17.52v-1.28h-17.52
	V37.64z M123.93,14.05v0.93c1.5,1.33,3.81,2.17,6.77,2.7l-4.34-1.64c0.35-0.58,0.8-1.24,1.19-1.99H123.93z"/>
<path d="M181.28,24.05v7.04h-41.24v-7.04H181.28z"/>
<path d="M220.92,9.45v39.03h-6.95v-2.92h-18.36v2.92h-6.64V9.45H220.92z M195.61,15.95v8.1h18.36v-8.1H195.61z M213.98,39.05v-8.63
	h-18.36v8.63H213.98z"/>
<path d="M228.44,39.36l4.96-6.78c2.72,2.54,5.87,4.36,9.38,4.36c4.18,0,6.9-1.7,6.9-4.84c0-3.69-2.06-5.87-11.5-5.87v-7.63
	c7.69,0,10.11-2.3,10.11-5.57c0-2.97-1.82-4.6-5.15-4.6c-3.03,0-5.33,1.39-8.05,3.81l-5.45-6.6C233.83,2.18,238.31,0,243.64,0
	c9.32,0,15.44,4.42,15.44,12.17c0,4.42-2.48,7.69-7.21,9.69v0.3c4.96,1.45,8.66,5.03,8.66,10.66c0,8.23-7.69,12.84-16.65,12.84
	C236.73,45.65,231.71,43.17,228.44,39.36z"/>
<g>
	<path d="M11.92,76.19c-5.12,0-9.32,2.22-11.67,4.95H0.13v-7.8h23.59v7.8h-0.13C21.24,78.42,17.05,76.19,11.92,76.19z"/>
	<path d="M20.77,90.97c-0.4-0.72-1.05-1.57-1.82-2.45c-1.77,1.92-4.2,3.42-6.95,4.57h8.42v12.82H17.4v-0.82H7.52v0.95H4.65V95.32
		c-0.95,0.2-1.87,0.38-2.82,0.52C1.45,95.17,0.57,93.89,0,93.27c3.67-0.45,7.3-1.2,10.3-2.35V82.7h2.95v6.8
		c1.15-0.67,2.17-1.45,2.95-2.35l2.58,1.15c-0.98-1.1-2.13-2.2-3.15-3.12l2.35-1.42c1.95,1.6,4.3,3.9,5.4,5.6L20.77,90.97z
		 M8.42,84.77C7.3,87.24,5.5,89.74,3.8,91.29c-0.58-0.5-1.82-1.35-2.55-1.72C3,88.24,4.57,86.1,5.47,84L8.42,84.77z M17.4,95.32
		H7.52v1.1h9.87V95.32z M7.52,99.67h9.87v-1.22H7.52V99.67z M17.4,102.89v-1.22H7.52v1.22H17.4z"/>
	<path d="M0.25,107.55c2.35,2.72,6.55,4.95,11.67,4.95s9.32-2.22,11.67-4.95h0.13v7.8H0.13v-7.8H0.25z"/>
	<path d="M21.47,144.74H7.12c0,3.1-0.6,8.1-4.62,11.12c-0.55-0.55-1.75-1.5-2.5-1.9c3.57-2.65,4-6.82,4-9.32v-2.82h14.42v-4.32H3.05
		v-2.9h18.42V144.74z"/>
	<path d="M21.97,175.57c-0.08,0.82,0.05,2.25,0.15,2.9c-15.6,0.65-17.65,0.5-19.04,0.92c-0.17-0.6-0.8-2.2-1.25-3.05
		c0.85-0.25,1.52-1.22,2.6-2.9c1.17-1.65,4.65-8.2,6.62-14.4l3.37,0.97c-2.22,6-5.22,11.65-8.12,16.02L21.97,175.57z"/>
	<path d="M38.87,155.08L31.8,165.6l-7.12-10.55h3.77l3.32,5.4l3.15-5.37H38.87z"/>
	<path d="M6.67,225.28c-0.85,1.4-1.83,2.7-2.88,3.67c-0.22-0.4-0.85-1.22-1.22-1.57c1.55-1.37,3-3.5,3.82-5.67l1.77,0.5
		c-0.2,0.5-0.4,0.97-0.63,1.47h6.32v1.6H6.67z M10.77,237.82c1.35,1.7,2.92,3.92,3.7,5.32l-1.55,0.82c-0.3-0.55-0.72-1.27-1.22-2.02
		c-6.2,1.52-6.97,1.72-7.47,2.05c-0.15-0.42-0.57-1.15-0.87-1.52c0.38-0.2,0.95-0.77,0.95-1.82v-11.67h9.2v8.35H6.02v4.27l4.75-1.05
		c-0.5-0.72-1-1.42-1.47-2.02L10.77,237.82z M6.02,230.45v2.05h5.72v-2.05H6.02z M11.75,235.85v-1.92H6.02v1.92H11.75z M8.87,225.4
		c0.75,0.7,1.63,1.67,2.02,2.32l-1.35,1.12c-0.4-0.67-1.25-1.72-1.95-2.47L8.87,225.4z M25.22,223.68v1.6h-8.35
		c-0.65,1.5-1.5,2.87-2.4,3.9c-0.33-0.35-1.05-1-1.47-1.32c1.42-1.47,2.52-3.75,3.15-6.12l1.85,0.45c-0.15,0.5-0.3,1-0.48,1.5H25.22
		z M24.17,239.52c0,1.02-0.2,1.55-0.95,1.85c-0.78,0.3-2.02,0.32-3.97,0.32c-0.07-0.52-0.32-1.25-0.57-1.75
		c1.47,0.05,2.82,0.05,3.2,0.03c0.4,0,0.52-0.13,0.52-0.45v-8.85h-5.27v13.95h-1.75v-15.65h8.8V239.52z M20.34,228.75
		c-0.42-0.67-1.32-1.72-2.1-2.45l1.27-1c0.77,0.7,1.72,1.7,2.15,2.35L20.34,228.75z"/>
	<path d="M5.82,263.12c-0.42,2.1-1.07,4.45-1.7,5.97c-0.38-0.2-1.15-0.45-1.6-0.57c0.7-1.52,1.25-3.77,1.63-5.75L5.82,263.12z
		 M11.4,261.57c-0.08-0.4-0.17-0.85-0.3-1.35c-6.45,0.97-7.32,1.17-7.82,1.47c-0.1-0.38-0.4-1.27-0.6-1.77
		c0.55-0.07,1.17-0.67,2.05-1.55c0.45-0.45,1.4-1.55,2.52-2.95c-3.12,0.38-3.72,0.5-4.1,0.68c-0.1-0.38-0.38-1.22-0.6-1.7
		c0.47-0.13,0.97-0.62,1.55-1.35c0.62-0.75,2.65-3.55,3.9-6.3l1.72,0.75c-1.3,2.35-2.87,4.72-4.47,6.57l3.25-0.3
		c0.67-0.97,1.4-2,1.97-3.02l1.6,1c-1.85,2.77-4.02,5.5-6.17,7.67l4.72-0.7c-0.25-0.77-0.55-1.6-0.82-2.32l1.47-0.37
		c0.72,1.62,1.47,3.8,1.72,5.07L11.4,261.57z M8.65,262.6c0.35,1.77,0.72,3.97,0.82,5.47l-1.57,0.4c-0.1-1.47-0.42-3.77-0.75-5.5
		L8.65,262.6z M11.57,262.07c0.65,1.5,1.33,3.47,1.63,4.75l-1.47,0.52c-0.28-1.3-0.92-3.3-1.55-4.82L11.57,262.07z M24.49,252.4
		c-0.35,11.1-0.63,14.85-1.55,16.05c-0.55,0.7-1.1,0.92-2,1.02c-0.83,0.07-2.3,0.05-3.67-0.02c-0.02-0.55-0.25-1.32-0.6-1.85
		c1.58,0.13,2.97,0.13,3.57,0.13c0.47,0,0.75-0.05,1-0.38c0.75-0.8,1.1-4.52,1.38-14.17h-7.15c-0.63,1.37-1.33,2.6-2.05,3.62
		c-0.35-0.3-1.13-0.8-1.6-1.05c1.75-2.17,3.1-5.55,3.92-8.92l1.8,0.35c-0.35,1.45-0.83,2.9-1.38,4.25h8.32V252.4z M18.97,262.95
		c-0.78-1.52-2.65-3.85-4.32-5.5l1.3-0.95c1.67,1.6,3.6,3.85,4.4,5.37L18.97,262.95z"/>
	<path d="M14,279.45c2.1,0,3.8,1.7,3.8,3.8c0,2.1-1.7,3.8-3.8,3.8c-2.08,0-3.8-1.7-3.8-3.8C10.2,281.15,11.92,279.45,14,279.45z
		 M14,285.78c1.4,0,2.52-1.12,2.52-2.52s-1.13-2.52-2.52-2.52c-1.38,0-2.52,1.12-2.52,2.52S12.62,285.78,14,285.78z"/>
</g>
<g>
	<path d="M296.16,76.19c-5.12,0-9.32,2.22-11.67,4.95h-0.13v-7.8h23.59v7.8h-0.13C305.48,78.42,301.28,76.19,296.16,76.19z"/>
	<path d="M305,90.97c-0.4-0.72-1.05-1.57-1.82-2.45c-1.77,1.92-4.2,3.42-6.95,4.57h8.42v12.82h-3.02v-0.82h-9.87v0.95h-2.87V95.32
		c-0.95,0.2-1.87,0.38-2.82,0.52c-0.38-0.67-1.25-1.95-1.82-2.57c3.67-0.45,7.3-1.2,10.3-2.35V82.7h2.95v6.8
		c1.15-0.67,2.17-1.45,2.95-2.35l2.58,1.15c-0.98-1.1-2.13-2.2-3.15-3.12l2.35-1.42c1.95,1.6,4.3,3.9,5.4,5.6L305,90.97z
		 M292.66,84.77c-1.13,2.47-2.92,4.97-4.62,6.52c-0.58-0.5-1.82-1.35-2.55-1.72c1.75-1.32,3.32-3.47,4.22-5.57L292.66,84.77z
		 M301.63,95.32h-9.87v1.1h9.87V95.32z M291.76,99.67h9.87v-1.22h-9.87V99.67z M301.63,102.89v-1.22h-9.87v1.22H301.63z"/>
	<path d="M284.49,107.55c2.35,2.72,6.55,4.95,11.67,4.95s9.32-2.22,11.67-4.95h0.13v7.8h-23.59v-7.8H284.49z"/>
	<path d="M306.53,138.04h-8.72v17h-3.27v-17h-8.72v-2.95h20.72V138.04z"/>
	<path d="M305.71,167.74v3.27h-19.2v-3.27H305.71z"/>
	<path d="M306.21,200.57c-0.08,0.82,0.05,2.25,0.15,2.9c-15.6,0.65-17.65,0.5-19.04,0.92c-0.17-0.6-0.8-2.2-1.25-3.05
		c0.85-0.25,1.52-1.22,2.6-2.9c1.17-1.65,4.65-8.2,6.62-14.4l3.37,0.97c-2.22,6-5.22,11.65-8.12,16.02L306.21,200.57z"/>
	<path d="M323.11,175.31l-7.07,10.52l-7.12-10.55h3.77l3.32,5.4l3.15-5.37H323.11z"/>
	<path d="M306.83,230.1c-1.1,4-3.05,7.07-5.55,9.42c2.15,1.6,4.77,2.77,7.92,3.45c-0.47,0.4-0.97,1.17-1.25,1.7
		c-3.27-0.8-5.95-2.1-8.17-3.87c-2.27,1.75-4.9,3-7.67,3.82c-0.22-0.5-0.7-1.3-1.07-1.67c2.62-0.67,5.12-1.82,7.3-3.42
		c-2.12-2.15-3.72-4.82-4.87-8.07h-1.65c-0.08,4.1-0.67,9.42-3.22,13.12c-0.32-0.32-1.1-0.87-1.57-1.1c2.72-3.87,3-9.37,3-13.32
		v-6.75h18.2v1.8h-16.37v4.47h13.35l0.38-0.1L306.83,230.1z M295.41,231.45c1,2.7,2.45,5,4.4,6.85c1.97-1.82,3.57-4.1,4.57-6.85
		H295.41z"/>
	<path d="M286.96,267.47c1.22-1.55,2.17-4,2.72-5.95l1.65,0.57c-0.6,2.05-1.47,4.65-2.7,6.25L286.96,267.47z M306.75,259.1h-17.4
		v-11.2h17.4V259.1z M291.11,252.7h6.07v-3.15h-6.07V252.7z M291.11,257.45h6.07v-3.17h-6.07V257.45z M301.16,267.4
		c1.22,0,1.42-0.4,1.55-3.2c0.42,0.3,1.2,0.57,1.72,0.7c-0.25,3.37-0.85,4.22-3.12,4.22h-5.02c-2.67,0-3.37-0.55-3.37-2.52v-4.95
		h1.85v4.92c0,0.7,0.25,0.82,1.65,0.82H301.16z M300.38,264.37c-1.08-1.12-3.32-2.65-5.17-3.65l1.22-1.12
		c1.85,0.9,4.1,2.4,5.22,3.52L300.38,264.37z M304.93,249.55h-5.92v3.15h5.92V249.55z M304.93,254.28h-5.92v3.17h5.92V254.28z
		 M305.8,261.25c1.45,1.87,2.95,4.4,3.52,6.1l-1.8,0.8c-0.5-1.67-1.95-4.27-3.38-6.22L305.8,261.25z"/>
	<path d="M301.78,285.43l-1.7,1.42c-1.63-1.97-3.75-4.1-5.52-5.55l1.63-1.42C297.96,281.33,300.23,283.58,301.78,285.43z"/>
	<path d="M293.33,310.5c-0.3-0.77-1.05-2.22-1.67-3.42v12.55h-1.52v-12.4c-0.7,2.75-1.65,5.4-2.6,7.05
		c-0.18-0.52-0.55-1.35-0.83-1.82c1.27-2,2.55-5.8,3.17-9.1h-2.72v-1.75h2.97v-4.8h1.52v4.8h2.28v1.32c2.95-1.57,5.62-4,6.97-6.27
		l1.8,0.57c-0.17,0.27-0.35,0.57-0.55,0.85c1.87,1.7,5,3.4,7.55,4.3c-0.3,0.45-0.67,1.2-0.82,1.67c-2.58-1.1-5.57-2.95-7.67-4.8
		c-0.97,1.15-2.12,2.22-3.4,3.17h7.37v1.5h-7.45v-1.45c-0.85,0.65-1.75,1.22-2.67,1.75c-0.22-0.32-0.75-0.85-1.12-1.17v0.3h-2.28
		v1.62c0.63,0.9,2.2,3.47,2.58,4.12L293.33,310.5z M298.93,312.62c-0.2,0.65-0.42,1.25-0.7,1.85c1.02,0.65,2.2,1.55,2.82,2.17
		l-1,1.25c-0.52-0.6-1.55-1.42-2.55-2.15c-0.97,1.62-2.27,2.97-3.72,3.97c-0.28-0.32-0.88-0.92-1.27-1.22
		c2.27-1.35,3.97-3.5,4.77-6.2L298.93,312.62z M295.16,305.73h5.57v6h-5.57V305.73z M296.58,310.38h2.67v-3.27h-2.67V310.38z
		 M305.93,312.5c-0.18,0.77-0.38,1.5-0.65,2.2c1.58,1,3.37,2.35,4.32,3.3l-1.13,1.27c-0.85-0.87-2.4-2.15-3.85-3.15
		c-0.75,1.42-1.78,2.62-3.05,3.52c-0.22-0.32-0.88-0.92-1.25-1.22c2.02-1.32,3.37-3.45,3.9-6.15L305.93,312.5z M302.28,305.73H308v6
		h-5.72V305.73z M303.73,310.38h2.75v-3.27h-2.75V310.38z"/>
	<path d="M286.93,326.05h9.45v1.52h-9.45V326.05z M295.46,343.12h-5.87v1.17h-1.62v-8.4h7.5V343.12z M287.98,329.33h7.47v1.47h-7.47
		V329.33z M287.98,332.58h7.47v1.47h-7.47V332.58z M289.58,337.45v4.12h4.22v-4.12H289.58z M291.56,325.78
		c-0.35-0.9-1.15-2.3-1.85-3.32l1.45-0.72c0.72,1.02,1.52,2.32,1.92,3.2L291.56,325.78z M309.43,329.38h-3.05v12.75
		c0,1.27-0.33,1.85-1.1,2.12c-0.77,0.35-2.12,0.4-4.4,0.4c-0.1-0.52-0.4-1.37-0.65-1.92c1.7,0.07,3.22,0.07,3.67,0.05
		c0.48-0.03,0.65-0.15,0.65-0.65v-12.75h-8v-1.82h8v-5.65h1.82v5.65h3.05V329.38z M300.66,338.3c-0.4-1.6-1.6-4.05-2.82-5.87
		l1.55-0.62c1.27,1.8,2.47,4.17,2.97,5.75L300.66,338.3z"/>
	<path d="M298.23,354.45c2.1,0,3.8,1.7,3.8,3.8c0,2.1-1.7,3.8-3.8,3.8c-2.08,0-3.8-1.7-3.8-3.8
		C294.43,356.15,296.16,354.45,298.23,354.45z M298.23,360.78c1.4,0,2.52-1.12,2.52-2.52s-1.13-2.52-2.52-2.52
		c-1.38,0-2.52,1.12-2.52,2.52S296.86,360.78,298.23,360.78z"/>
</g>
<path d="M131.29,242.72c0.47-8.31,0.95-16.62,1.4-24.93c0.06-1.12,0.16-2.27-0.02-3.36c-0.13-0.81-0.51-1.82-1.12-2.23
	c-0.35-0.24-1.49,0.39-2.09,0.87c-7.02,5.56-13.41,11.79-18.93,18.85c-5.42,6.95-11.99,12.55-19.37,17.28
	c-4.7,3.01-12.34,1.63-14.8-2.7c-3.12-5.49-1.23-13.43,4.12-15.86c5.16-2.34,9.4-5.78,13.49-9.57c2.46-2.28,5.06-4.58,7.99-6.14
	c3.74-1.99,6.68-4.72,9.52-7.72c5.72-6.05,11.53-12.01,17.27-18.05c2.45-2.58,2.58-4.34,0.72-7.44c-1.47-2.45-1.31-3.25,0.77-5.24
	c3.13-3,6.97-4.07,11.14-3.94c2.21,0.07,3.99-0.54,5.46-2.04c3.42-3.47,6.91-6.89,10.12-10.54c2.72-3.1,2.04-7.74-1.3-11.44
	c-3.12-3.47-6.41-3.98-10.2-1.65c-8.29,5.1-16.6,10.16-24.88,15.28c-1.21,0.75-2.32,1.66-3.45,2.52
	c-4.49,3.43-11.79,3.81-16.41,0.65c-0.8-0.54-1.33-1.77-1.57-2.78c-0.8-3.42-1.74-6.86-1.98-10.33c-0.18-2.51,0.22-5.27,1.16-7.6
	c1.58-3.92,4.37-7.26,5.01-11.69c0.18-1.26,2.01-2.61,3.4-3.29c2.39-1.18,4.11-2.85,5.59-4.99c2.41-3.5,6.14-5.01,10.12-5.49
	c3.95-0.48,7.46,2.81,7.63,7.15c0.27,7.03,5.3,9.16,10.26,9.15c6.99,0,10.88-3.63,11.08-10.02c0.2-6.29,0.14-12.58,0.45-18.86
	c0.26-5.08,0.93-10.15,1.37-15.22c0.08-0.88,0.08-1.84-0.19-2.66c-1.62-5,0.88-6.19,5.44-5.49c8.51,1.32,13.53,6.82,16.31,14.66
	c2.19,6.18,2.23,12.29-0.42,18.4c-0.7,1.61-1.14,3.5-1.07,5.23c0.06,1.42,0.73,3.13,1.72,4.12c2.3,2.3,2.59,2.38,0.23,4.76
	c-2.04,2.06-2.62,4.43-2.67,7.13c-0.07,3.69,1.65,4.81,4.94,3.15c0.73-0.37,1.44-0.81,2.09-1.31c3.99-3.04,7.99-6.08,11.94-9.16
	c5.37-4.18,8.62-9.25,7.31-16.49c-0.58-3.22,0.74-5.19,3.65-6.72c8.46-4.47,17.1-2.03,23.8,3.56c1.98,1.65,2.9,4.2,2.83,6.87
	c-0.11,3.95-2.93,6.45-7.47,6.38c-14.35-0.23-23.25,7.93-30.12,19.31c-0.27,0.44-0.54,0.94-0.6,1.44
	c-0.65,5.23-3.62,9.06-7.33,12.53c-3.83,3.59-7.56,7.29-11.21,11.06c-0.71,0.74-0.87,2.01-1.29,3.03c1.17,0.15,2.43,0.67,3.48,0.39
	c6.5-1.74,12.87-4.07,19.45-5.38c3.93-0.78,8.17-0.2,12.26,0.03c2.09,0.12,3.52,1.6,4.29,3.55c1.45,3.69,2.53,7.29,1.73,11.51
	c-0.7,3.68-0.4,7.63-0.09,11.42c1.49,18.08,3.08,36.15,4.76,54.22c0.61,6.56,1.63,13.09,2.4,19.64c0.45,3.78-0.69,5.97-3.44,7
	c-2.81,1.05-5.44,0.11-7.49-2.93c-2.82-4.2-5.87-8.14-10.04-11.11c-3.82-2.73-7.76-3.18-12.34-1.97c-4.97,1.32-10.17,1.8-15.24,2.79
	c-6.76,1.32-13.55,2.54-20.21,4.24c-10.09,2.59-18.39-3.06-19.13-13.47c-0.2-2.76-0.03-5.54-0.03-8.32
	C131.44,242.72,131.37,242.72,131.29,242.72z M204.04,200.36c-0.06,0-0.11,0-0.17,0c-0.23-7.19-0.7-14.39-0.62-21.58
	c0.07-5.7-4.83-7.59-9.35-5.72c-1.52,0.63-2.96,1.51-4.53,1.95c-9.51,2.66-17.93,7.46-25.95,13.06c-0.9,0.63-1.78,1.42-2.4,2.32
	c-1.41,2.08-0.14,4.74,2.37,5.01c1.02,0.11,2.12,0.01,3.11-0.25c4.27-1.11,8.5-2.38,12.77-3.48c3.1-0.79,6.24-1.52,9.4-2.04
	c1.49-0.25,2.96,0.45,3.2,2.15c0.37,2.66,0.11,5.21-2.25,7.1c-4.84,3.87-10.2,6.85-16.01,8.94c-1.97,0.71-4.2,0.68-6.31,0.99
	c-2.27,0.34-4.65,0.37-6.78,1.11c-2.71,0.94-4.36,4.5-3.72,7c0.48,1.87,2.56,2.92,5.79,2.87c5.05-0.09,9.82-1.5,14.13-3.98
	c4.15-2.38,8.45-3.28,13.13-2.97c1.41,0.09,3.04-0.21,3.57,1.58c0.55,1.84,0.7,3.61-1.19,5.03c-4.08,3.05-8.08,6.2-12.08,9.35
	c-2.66,2.1-5.46,2.36-8.64,1.22c-6.42-2.29-14.16,1.82-16.04,8.35c-0.89,3.09-1.64,6.22-2.65,9.26c-0.97,2.91,0.02,4.41,3.06,4.16
	c0.74-0.06,1.47-0.27,2.18-0.48c10.49-3.05,20.96-6.17,31.46-9.15c4.75-1.35,5.64-0.83,7.88,3.66c1.71,3.43,5.09,3.78,7.29,0.65
	c0.64-0.92,1.08-2.17,1.12-3.28c0.09-2.39-0.09-4.79-0.26-7.18c-0.48-6.94-1.14-13.87-1.47-20.82
	C203.85,210.26,204.04,205.31,204.04,200.36z"/>
<g class="st4">
	<path class="st1" d="M233.49,255c-0.07-0.13-0.14-0.25-0.21-0.38l-0.1-0.19c-0.03-0.06-0.07-0.13-0.11-0.19
		c-0.15-0.25-0.3-0.5-0.45-0.75c0.11,0.28,0.19,0.57,0.23,0.9c0.03,0.09,0.07,0.17,0.11,0.23c0.04,0.06,0.09,0.11,0.15,0.16
		C233.21,254.86,233.35,254.92,233.49,255z"/>
	<path class="st1" d="M231.73,252.14c-0.06-0.09-0.12-0.17-0.18-0.25c-0.08-0.06-0.15-0.12-0.22-0.16c0.07,0.07,0.14,0.14,0.21,0.2
		C231.6,251.99,231.67,252.06,231.73,252.14z"/>
	<path class="st1" d="M229.62,249.94c0.17,0.21,0.33,0.41,0.51,0.6c0.17,0.19,0.35,0.37,0.54,0.54c-0.12-0.19-0.26-0.37-0.43-0.57
		C230.06,250.31,229.87,250.11,229.62,249.94z"/>
	<path class="st1" d="M231.02,251.9c-0.02-0.22,0.02-0.37,0.29-0.19c0,0,0.01,0.01,0.01,0.01c-0.22-0.21-0.43-0.43-0.65-0.65
		C230.84,251.35,230.95,251.64,231.02,251.9z"/>
	<path class="st1" d="M231.02,251.9c0.02,0.21,0.1,0.5,0.11,0.62C231.12,252.32,231.08,252.12,231.02,251.9z"/>
	<path class="st1" d="M228.32,253.14c-0.24-0.15,0.42-0.62-0.08-0.92c-0.13-0.1-0.25-0.2-0.38-0.3c-0.13-0.09-0.26-0.18-0.39-0.26
		c-0.13-0.09-0.25-0.17-0.38-0.25c-0.13-0.08-0.24-0.17-0.37-0.24c-0.25-0.16-0.5-0.31-0.73-0.48c-0.06-0.04-0.12-0.09-0.17-0.13
		c-0.06-0.04-0.12-0.08-0.18-0.13c-0.12-0.09-0.23-0.18-0.34-0.27c-0.13-0.05-0.23-0.17-0.32-0.32c-0.09-0.15-0.17-0.32-0.25-0.5
		c-0.08-0.18-0.16-0.36-0.26-0.51c-0.05-0.07-0.1-0.14-0.16-0.19c-0.06-0.05-0.12-0.09-0.19-0.11c-0.15-0.07-0.33-0.15-0.53-0.22
		c-0.1-0.04-0.2-0.08-0.31-0.12c-0.03-0.01-0.05-0.02-0.08-0.03c-0.03-0.01-0.06-0.02-0.08-0.03c-0.06-0.02-0.11-0.03-0.17-0.05
		c-0.23-0.07-0.46-0.13-0.68-0.18c-0.11-0.03-0.22-0.05-0.32-0.07c-0.11-0.02-0.21-0.03-0.31-0.05c-0.77-0.1-1.17-0.02-0.36,0.41
		c0.08,0.04,0.15,0.08,0.23,0.12c0.08,0.04,0.15,0.07,0.22,0.12c0.14,0.08,0.29,0.16,0.42,0.24c0.14,0.08,0.28,0.15,0.41,0.23
		c0.03,0.02,0.07,0.04,0.1,0.06c0.03,0.02,0.06,0.04,0.1,0.06c0.06,0.04,0.13,0.08,0.19,0.12c0.25,0.16,0.51,0.31,0.75,0.46
		c0.24,0.16,0.47,0.32,0.71,0.47c0.06,0.04,0.12,0.08,0.18,0.12c0.06,0.04,0.11,0.08,0.17,0.12l0.34,0.25
		c0.22,0.17,0.46,0.33,0.67,0.51c0.22,0.18,0.45,0.37,0.68,0.55c0.22,0.2,0.44,0.41,0.68,0.62c0.21,0.15,0.41,0.33,0.61,0.49
		c0.1,0.08,0.2,0.17,0.3,0.25c0.1,0.08,0.2,0.16,0.3,0.25c0.19,0.17,0.39,0.35,0.58,0.52l0.15,0.13c0.05,0.04,0.1,0.09,0.14,0.13
		l0.28,0.28c0.18,0.19,0.38,0.37,0.56,0.56c0.18,0.2,0.35,0.4,0.53,0.6c0.09,0.1,0.18,0.2,0.27,0.3c0.08,0.11,0.17,0.21,0.25,0.32
		c0.17,0.21,0.34,0.43,0.51,0.65c0.31,0.53,0.53,1.06,0.71,1.62c-0.05-0.18-0.1-0.37-0.15-0.56c-0.06-0.18-0.12-0.37-0.18-0.56
		c-0.06-0.19-0.13-0.38-0.19-0.58c-0.07-0.2-0.15-0.39-0.23-0.59c-0.05-0.14-0.11-0.27-0.19-0.4c-0.04-0.06-0.08-0.13-0.13-0.19
		c-0.05-0.06-0.11-0.12-0.16-0.17c-0.23-0.23-0.51-0.45-0.8-0.67c-0.31-0.21-0.64-0.43-0.96-0.67c-0.08-0.06-0.17-0.12-0.25-0.18
		c-0.08-0.06-0.17-0.12-0.25-0.19C228.63,253.44,228.47,253.29,228.32,253.14z"/>
	<path class="st1" d="M236.59,267.27c-0.11-0.29-0.34-0.87-0.34-0.87c0.03-0.09,0.06-0.17,0.08-0.26c0.02-0.09,0.05-0.17,0.06-0.26
		c0.03-0.17,0.05-0.34,0.05-0.52c0.01-0.17,0-0.35-0.01-0.52c-0.01-0.09-0.01-0.17-0.02-0.26c-0.01-0.09-0.03-0.17-0.04-0.26
		c-0.07-0.34-0.16-0.68-0.27-1.01c-0.02-0.08-0.06-0.17-0.09-0.25l-0.1-0.25l-0.2-0.49c-0.09,0.23-0.17,0.46-0.26,0.69
		c0.12,0.38,0.21,0.58,0.3,0.6c0.04,0.01,0.09-0.03,0.12-0.12c0.03-0.09,0.06-0.22,0.06-0.4c-0.09,0.85-0.09,1.63-0.08,2.41
		c0,0.19,0.02,0.38,0.03,0.58c0.01,0.19,0.01,0.38,0.03,0.57c0.01,0.19,0.03,0.38,0.05,0.57l0.01,0.14l0.01,0.14
		c0.01,0.1,0.01,0.19,0.02,0.29c0.11-0.05,0.23-0.08,0.33-0.14C236.45,267.6,236.55,267.49,236.59,267.27z"/>
	<path class="st1" d="M236.11,268.71c-0.03-0.3-0.06-0.61-0.09-0.9c-0.02,0.01-0.05,0.02-0.07,0.03c0.05,0.3,0.1,0.61,0.14,0.9
		C236.09,268.73,236.1,268.72,236.11,268.71z"/>
	<path class="st1" d="M224.34,246.39c-3.28-2.15-6.76-3.54-10.3-4.24c-0.15,0.05-0.28,0.12-0.42,0.15
		c-0.07,0.02-0.14,0.02-0.21,0.02c-0.07-0.01-0.15-0.02-0.24-0.06c-0.26-0.18-0.53-0.3-0.8-0.4c-0.26-0.05-0.52-0.07-0.79-0.09
		c-0.26-0.03-0.52-0.05-0.79-0.08c-0.09,0-0.18,0.01-0.28,0.02c-0.09,0.01-0.19,0.02-0.28,0.03c0,0-0.01,0-0.02,0
		c-0.3,0.09-0.21,0.21-0.04,0.34c0.2,0.09,0.38,0.2,0.53,0.31c-0.1-0.08-0.36-0.19-0.53-0.31c-0.24-0.11-0.52-0.2-0.84-0.25
		c-0.24,0.03-0.48,0.06-0.73,0.07c-0.12,0.01-0.25,0.01-0.38,0.01c-0.06,0-0.13,0-0.19,0c-0.06,0-0.13-0.01-0.19-0.01
		c0.07-0.02,0.14-0.03,0.21-0.04c0.07-0.01,0.14-0.02,0.2-0.03c0.13-0.02,0.26-0.03,0.39-0.03c0.25-0.01,0.48,0,0.69,0.03
		c0.3-0.03,0.6-0.06,0.89-0.09c0.09-0.02,0.17-0.04,0.26-0.07c-0.3-0.02-0.6-0.03-0.9-0.05l-0.23-0.01c-0.08-0.01-0.15,0-0.23,0
		l-0.45,0l-0.45,0c-0.15,0-0.3-0.01-0.45,0l-0.9,0.04c-0.14,0.02-0.27,0.04-0.4,0.06c-0.13,0.03-0.24,0.05-0.35,0.08
		c-0.21,0.05-0.43,0.11-0.63,0.16c-0.1,0.02-0.21,0.04-0.31,0.06c-0.1,0.02-0.2,0.04-0.3,0.06c-0.39,0.06-0.75,0.05-1.05-0.1
		c-0.21,0.04-0.43,0.08-0.64,0.12c0.05,0.02,0.09,0.03,0.14,0.04c-0.1,0-0.18-0.01-0.26-0.02c-0.22,0.04-0.45,0.08-0.68,0.13
		c-0.22,0.05-0.45,0.11-0.67,0.16l-0.34,0.08c-0.11,0.03-0.23,0.05-0.34,0.09c-0.22,0.07-0.44,0.13-0.67,0.2
		c-0.13,0.08-0.26,0.17-0.39,0.26l-0.1,0.07l-0.09,0.07c-0.06,0.05-0.13,0.09-0.19,0.14c-0.25,0.19-0.51,0.37-0.77,0.54
		c0,0-0.03-0.01-0.08-0.02c-0.05-0.01-0.12-0.02-0.19-0.03c-0.15-0.03-0.33-0.06-0.45-0.08c-0.07,0.15-0.18,0.28-0.3,0.42
		c-0.06,0.07-0.13,0.13-0.21,0.19c-0.08,0.06-0.15,0.13-0.24,0.19c0.27-0.01,0.54,0.02,0.79,0.04c0.25,0.02,0.49,0.03,0.71,0.02
		c0.09,0.02,0.17,0.01,0.24-0.02c0.08-0.02,0.15-0.06,0.21-0.11c0.13-0.1,0.26-0.25,0.39-0.39c0.13-0.14,0.27-0.27,0.44-0.33
		c0.17-0.06,0.36-0.05,0.59,0.07c-0.23-0.13-0.42-0.13-0.59-0.07c-0.17,0.06-0.31,0.2-0.44,0.33c-0.13,0.14-0.26,0.29-0.39,0.39
		c-0.07,0.05-0.14,0.09-0.21,0.11c-0.08,0.02-0.15,0.03-0.24,0.02c-0.22,0.01-0.46-0.01-0.71-0.02c-0.25-0.02-0.52-0.04-0.79-0.04
		c-0.18,0.13-0.37,0.25-0.58,0.36c-0.11,0.05-0.22,0.11-0.33,0.16c-0.11,0.05-0.22,0.1-0.34,0.15c-0.23,0.09-0.47,0.17-0.72,0.24
		c-0.13,0.03-0.25,0.06-0.37,0.09c-0.12,0.03-0.24,0.05-0.37,0.07c0.1-0.11,0.2-0.22,0.3-0.31c0.03-0.02,0.05-0.05,0.08-0.07
		c0.03-0.02,0.05-0.04,0.08-0.06c0.05-0.04,0.11-0.08,0.16-0.11c0.22-0.14,0.45-0.25,0.68-0.33c0.06-0.02,0.12-0.04,0.17-0.06
		c0.03-0.01,0.06-0.02,0.09-0.02c0.03-0.01,0.06-0.01,0.09-0.02c0.12-0.02,0.24-0.04,0.36-0.06c0.24-0.03,0.47-0.04,0.7-0.04
		c0.08-0.06,0.16-0.13,0.24-0.19c0.08-0.06,0.15-0.13,0.21-0.19c0.13-0.13,0.23-0.27,0.3-0.42c0.12,0.02,0.3,0.05,0.45,0.08
		c0.08,0.01,0.14,0.02,0.19,0.03c0.05,0.01,0.08,0.02,0.08,0.02c0.26-0.17,0.51-0.35,0.77-0.54c0.06-0.05,0.13-0.09,0.19-0.14
		l0.09-0.07l0.1-0.07c0.13-0.09,0.26-0.17,0.39-0.26c-1.73,0.52-3.44,1.22-5.1,2.11c-1.34,0.71-2.6,1.54-3.79,2.45
		c-0.29,0.24-0.58,0.47-0.87,0.71c-0.07,0.06-0.14,0.12-0.21,0.18l-0.21,0.19l-0.42,0.37l-0.21,0.19c-0.07,0.06-0.13,0.13-0.2,0.2
		l-0.4,0.39l-0.4,0.4l-0.38,0.41c-0.51,0.54-0.98,1.12-1.44,1.7c-0.22,0.3-0.44,0.6-0.66,0.9c-0.03,0.04-0.06,0.07-0.08,0.11
		l-0.08,0.12l-0.15,0.23l-0.31,0.46c-0.81,1.25-1.52,2.56-2.13,3.92c-0.6,1.37-1.09,2.79-1.47,4.25c-0.39,1.46-0.64,2.96-0.78,4.49
		c-0.03,0.38-0.08,0.76-0.09,1.15c-0.01,0.19-0.02,0.39-0.03,0.58l-0.01,0.29c0,0.1-0.01,0.19-0.01,0.29c0,0.39,0,0.78,0.01,1.17
		c0,0.19,0.01,0.39,0.02,0.58c0.01,0.2,0.02,0.39,0.03,0.59c0.1,1.57,0.32,3.15,0.67,4.72c0.77,3.42,2.13,6.66,3.97,9.56
		c0.92,1.45,1.96,2.82,3.1,4.1c0.15,0.16,0.29,0.31,0.44,0.47l0.22,0.24c0.07,0.08,0.14,0.16,0.22,0.23c0.31,0.3,0.61,0.6,0.92,0.9
		c0.32,0.29,0.64,0.57,0.95,0.86l0.12,0.11l0.12,0.1l0.25,0.2c0.17,0.14,0.33,0.27,0.5,0.41c1.34,1.07,2.78,1.99,4.28,2.76
		c0.19,0.09,0.38,0.19,0.57,0.28l0.28,0.14c0.1,0.04,0.19,0.08,0.29,0.13c0.19,0.08,0.39,0.17,0.58,0.25l0.29,0.12
		c0.1,0.04,0.19,0.08,0.29,0.12c0.39,0.15,0.79,0.29,1.18,0.43c0.1,0.04,0.2,0.07,0.3,0.1l0.3,0.09c0.2,0.06,0.4,0.12,0.6,0.18
		c1.61,0.46,3.26,0.78,4.91,0.96c0.41,0.04,0.83,0.07,1.24,0.11c0.1,0.01,0.21,0.01,0.31,0.02l0.31,0.01l0.62,0.02
		c0.42,0.02,0.83,0.01,1.25,0.01l0.62-0.01c0.1,0,0.21-0.01,0.31-0.01l0.31-0.02l0.62-0.04l0.31-0.02c0.1-0.01,0.21-0.02,0.31-0.03
		c0.42-0.04,0.83-0.09,1.25-0.13c0.41-0.06,0.83-0.13,1.24-0.19c0.1-0.02,0.21-0.03,0.31-0.05l0.31-0.06l0.62-0.12
		c1.65-0.34,3.28-0.8,4.9-1.37c0.4-0.15,0.8-0.3,1.21-0.46c0.1-0.04,0.2-0.08,0.3-0.12l0.3-0.13c0.2-0.08,0.4-0.17,0.6-0.25
		c0.1-0.04,0.2-0.08,0.3-0.13l0.3-0.14c0.2-0.09,0.4-0.19,0.59-0.28c0.4-0.18,0.79-0.39,1.18-0.59c1.57-0.81,3.12-1.74,4.64-2.8
		c0.29-0.21,0.58-0.44,0.89-0.68c0.04-0.03,0.08-0.06,0.12-0.09c0.04-0.03,0.07-0.06,0.11-0.1c0.07-0.07,0.15-0.13,0.23-0.2
		c0.15-0.14,0.31-0.27,0.46-0.42c0.32-0.28,0.62-0.6,0.93-0.92c0.15-0.16,0.31-0.33,0.47-0.5c0.15-0.17,0.3-0.35,0.45-0.53
		c1.22-1.43,2.35-3.14,3.28-4.94c0.93-1.8,1.66-3.7,2.16-5.49c0.12-0.45,0.23-0.89,0.34-1.32c0.09-0.43,0.18-0.85,0.26-1.26
		c0.02-0.1,0.04-0.2,0.06-0.3c0.02-0.1,0.03-0.2,0.05-0.3c0.03-0.2,0.06-0.39,0.09-0.58c0.06-0.38,0.12-0.73,0.15-1.07
		c-0.03-0.47-0.07-0.89-0.12-1.27c-0.07-0.38-0.15-0.72-0.24-1.02c-0.17-0.6-0.42-1.05-0.68-1.37c-0.51-0.65-1.08-0.83-1.62-0.8
		c-0.54,0.04-1.05,0.28-1.43,0.52c-0.39,0.24-0.65,0.49-0.7,0.56c-0.1,0.11-0.19,0.23-0.28,0.34c-0.09,0.11-0.18,0.22-0.27,0.33
		c-0.17,0.22-0.32,0.43-0.46,0.64l-0.1,0.16l-0.05,0.08l-0.05,0.08c-0.07,0.1-0.13,0.21-0.19,0.31c-0.12,0.21-0.23,0.41-0.33,0.62
		c-0.09,0.21-0.2,0.41-0.3,0.63c-0.09,0.21-0.18,0.43-0.26,0.64c-0.04,0.11-0.09,0.22-0.13,0.33c-0.04,0.11-0.09,0.22-0.13,0.34
		c-0.04,0.11-0.08,0.23-0.12,0.35c-0.04,0.12-0.07,0.24-0.12,0.35c-0.09,0.24-0.18,0.48-0.27,0.73c-0.02,0.06-0.05,0.13-0.07,0.19
		c-0.02,0.06-0.04,0.13-0.07,0.19c-0.05,0.13-0.11,0.26-0.16,0.39c-0.06,0.13-0.11,0.26-0.17,0.4c-0.06,0.14-0.11,0.27-0.19,0.41
		c-0.14,0.27-0.28,0.55-0.43,0.84c-0.04,0.07-0.08,0.14-0.12,0.22c-0.04,0.07-0.09,0.14-0.13,0.22c-0.09,0.15-0.18,0.29-0.27,0.44
		c-0.05,0.07-0.09,0.15-0.14,0.22c-0.05,0.07-0.11,0.15-0.16,0.22c-0.11,0.15-0.22,0.3-0.33,0.45c-0.06,0.08-0.11,0.15-0.17,0.23
		c-0.06,0.08-0.13,0.15-0.19,0.22c-0.13,0.15-0.26,0.3-0.4,0.45c-0.07,0.08-0.14,0.15-0.21,0.23c-0.07,0.08-0.15,0.15-0.23,0.22
		c-0.15,0.15-0.31,0.3-0.47,0.45c0.42-0.42,0.74-0.68,0.94-0.81c0.21-0.13,0.33-0.12,0.37,0.01c0.02,0.06,0.02,0.15,0,0.27
		c-0.01,0.06-0.02,0.12-0.04,0.19c-0.02,0.07-0.05,0.14-0.08,0.22c-0.06,0.16-0.14,0.34-0.24,0.54c-0.05,0.1-0.1,0.2-0.16,0.31
		c-0.06,0.11-0.13,0.21-0.2,0.32c-0.14,0.22-0.3,0.45-0.47,0.69c-0.18,0.23-0.38,0.47-0.58,0.71c-0.2,0.25-0.44,0.47-0.68,0.71
		c-0.12,0.12-0.24,0.23-0.37,0.35c-0.13,0.11-0.26,0.22-0.4,0.32c-1.06,0.86-2.31,1.53-3.5,1.78c-1.73,0.34-3.35,0.86-5.03,1.39
		c-0.21,0.06-0.42,0.13-0.63,0.21c-0.1,0.04-0.21,0.07-0.32,0.1c-0.11,0.03-0.21,0.07-0.32,0.1c-0.11,0.03-0.21,0.07-0.32,0.1
		l-0.16,0.05l-0.16,0.05c-0.22,0.06-0.43,0.13-0.65,0.2c-0.21,0.07-0.44,0.13-0.66,0.19c-0.11,0.03-0.22,0.06-0.33,0.09l-0.17,0.05
		c-0.06,0.02-0.11,0.03-0.17,0.05c-0.22,0.05-0.45,0.11-0.67,0.17c-0.11,0.03-0.22,0.06-0.34,0.09c-0.11,0.02-0.23,0.05-0.34,0.07
		c-0.23,0.05-0.46,0.1-0.69,0.15c-0.23,0.04-0.47,0.08-0.7,0.12c-0.12,0.02-0.23,0.04-0.35,0.06c-0.12,0.02-0.24,0.03-0.35,0.05
		c-0.24,0.03-0.47,0.06-0.71,0.09c-0.12,0.02-0.24,0.02-0.36,0.03l-0.36,0.03l-0.36,0.03c-0.06,0-0.12,0.01-0.18,0.01l-0.18,0
		l-0.73,0.02l-0.18,0c-0.06,0-0.12,0-0.18,0l-0.36-0.01l-0.36-0.01c-0.12-0.01-0.24-0.01-0.36-0.02c-0.24-0.03-0.48-0.05-0.72-0.08
		l-0.18-0.02c-0.06-0.01-0.12-0.01-0.18-0.02c-0.12-0.02-0.24-0.04-0.35-0.06c-0.23-0.04-0.47-0.08-0.7-0.13
		c-0.23-0.06-0.46-0.12-0.69-0.18c-0.11-0.03-0.23-0.06-0.34-0.09c-0.11-0.04-0.22-0.08-0.33-0.11c-0.22-0.08-0.44-0.16-0.66-0.24
		c-0.21-0.09-0.42-0.19-0.63-0.28c-0.1-0.05-0.21-0.1-0.31-0.14l-0.08-0.03l-0.08-0.04c-0.05-0.03-0.1-0.05-0.16-0.08
		c-0.21-0.1-0.42-0.2-0.64-0.29c-0.11-0.04-0.21-0.1-0.32-0.15c-0.11-0.05-0.22-0.1-0.32-0.15c-0.11-0.05-0.22-0.1-0.33-0.15
		l-0.08-0.04c-0.03-0.01-0.05-0.03-0.08-0.04c-0.05-0.03-0.11-0.06-0.16-0.08c-0.22-0.11-0.44-0.22-0.67-0.34
		c-0.22-0.12-0.44-0.25-0.67-0.38c-0.11-0.06-0.23-0.13-0.34-0.2c-0.11-0.07-0.22-0.14-0.33-0.22c-0.11-0.07-0.22-0.15-0.33-0.22
		c-0.06-0.04-0.11-0.07-0.17-0.11c-0.05-0.04-0.11-0.08-0.16-0.12c-2.17-1.82-4.01-3.88-5.49-6.14c-0.74-1.13-1.39-2.32-1.93-3.55
		c-0.54-1.23-0.98-2.51-1.3-3.83c-0.32-1.32-0.53-2.68-0.6-4.07c-0.08-1.39-0.02-2.79,0.18-4.19c0.2-1.4,0.55-2.79,1.06-4.14
		c0.51-1.35,1.17-2.67,2-3.9c0.84-1.33,1.62-2.6,2.45-3.81c0.83-1.21,1.72-2.34,2.75-3.32c0.1-0.08,0.2-0.16,0.3-0.24
		c0.05-0.04,0.1-0.08,0.16-0.11l0.16-0.11c0.22-0.14,0.44-0.28,0.66-0.41c0.23-0.12,0.46-0.24,0.69-0.35
		c0.12-0.06,0.23-0.11,0.34-0.17c0.12-0.05,0.23-0.1,0.35-0.15c0.23-0.09,0.46-0.19,0.69-0.28c0.23-0.08,0.46-0.16,0.68-0.24
		c0.11-0.04,0.22-0.08,0.32-0.12c0.11-0.04,0.21-0.07,0.32-0.11c0.21-0.07,0.41-0.14,0.6-0.22c1.21-0.45,2.34-0.84,3.45-1.19
		c0.28-0.08,0.55-0.16,0.83-0.24c0.07-0.02,0.14-0.04,0.2-0.06c0.07-0.02,0.14-0.04,0.21-0.05c0.14-0.04,0.27-0.07,0.41-0.11
		c0.54-0.16,1.08-0.27,1.62-0.41c-0.3,0.04-0.6,0.09-0.88,0.13c-0.07,0.01-0.14,0.02-0.21,0.03c-0.07,0.01-0.14,0.03-0.21,0.04
		c-0.14,0.03-0.27,0.06-0.41,0.09c-0.54,0.1-1.06,0.26-1.58,0.39c-1.04,0.31-2.09,0.67-3.32,1.18c-0.41,0.18-0.56,0.17-0.55,0.06
		c0.01-0.06,0.05-0.14,0.13-0.24c0.04-0.05,0.09-0.11,0.14-0.17c0.06-0.06,0.12-0.13,0.19-0.19c0.14-0.13,0.3-0.26,0.48-0.4
		c0.09-0.07,0.18-0.14,0.27-0.21c0.05-0.03,0.09-0.07,0.14-0.1l0.14-0.09c0.19-0.12,0.38-0.24,0.56-0.35
		c0.18-0.1,0.35-0.2,0.49-0.26c0.24-0.15,0.62-0.05,0.98,0.05c0.09,0.02,0.18,0.05,0.27,0.08c0.09,0.03,0.18,0.05,0.26,0.06
		c0.17,0.03,0.32,0.02,0.44-0.04c0.14-0.02,0.28-0.06,0.41-0.09c0.14-0.03,0.27-0.06,0.41-0.1c0.13-0.04,0.27-0.08,0.4-0.12
		l0.2-0.07l0.1-0.03l0.1-0.03c0.55-0.16,1.11-0.37,1.73-0.49c0.27-0.1,0.39,0.06,0.47,0.23c0.09,0.17,0.13,0.35,0.27,0.31
		c0.21-0.02,0.41-0.05,0.61-0.09c0.1-0.02,0.2-0.04,0.29-0.07c0.05-0.01,0.1-0.03,0.15-0.04c0.05-0.01,0.1-0.03,0.14-0.04
		c0.38-0.09,0.75-0.21,1.1-0.31c0.09-0.03,0.17-0.05,0.26-0.07c0.09-0.02,0.17-0.04,0.25-0.05c0.17-0.03,0.33-0.06,0.49-0.07
		c0.08-0.01,0.16-0.01,0.23-0.01c0.08,0,0.15,0,0.22,0.01c0.14,0.02,0.28,0.05,0.41,0.1c0.2,0.07,0.4,0.13,0.59,0.2
		c0.05,0.02,0.1,0.03,0.14,0.05c0.05,0.02,0.09,0.04,0.14,0.06c0.09,0.04,0.18,0.07,0.27,0.11c0.36,0.15,0.71,0.28,1.04,0.45
		c0.22,0.08,0.43,0.17,0.65,0.24c0.06,0.02,0.11,0.04,0.17,0.05c0.05,0.02,0.11,0.04,0.17,0.06c0.11,0.04,0.23,0.07,0.34,0.1
		c0.15,0.02,0.31,0.03,0.47,0.05c0.08,0.01,0.16,0.02,0.24,0.03c0.08,0.01,0.16,0.03,0.24,0.04c-0.07-0.16-0.1-0.33-0.11-0.49
		c-0.01-0.16,0-0.32,0.01-0.48c0.05,0.02,0.11,0.05,0.17,0.08c0.06,0.03,0.11,0.07,0.17,0.1c0.12,0.07,0.24,0.15,0.36,0.23
		c0.12,0.08,0.24,0.16,0.36,0.23c0.06,0.04,0.12,0.07,0.17,0.1c0.05,0.03,0.11,0.07,0.16,0.1c-0.05-0.03-0.1-0.06-0.16-0.1
		c-0.05-0.03-0.11-0.07-0.17-0.1c-0.12-0.07-0.24-0.15-0.36-0.23c-0.12-0.08-0.24-0.16-0.36-0.23c-0.06-0.04-0.12-0.07-0.17-0.1
		c-0.06-0.03-0.11-0.06-0.17-0.08c-0.01,0.16-0.02,0.32-0.01,0.48c0.01,0.16,0.04,0.32,0.11,0.49c0.28,0.05,0.57,0.1,0.87,0.15
		c0.29,0.06,0.59,0.14,0.89,0.21c0.08,0.02,0.15,0.04,0.23,0.06c0.08,0.02,0.15,0.04,0.23,0.06c0.15,0.05,0.3,0.09,0.45,0.14
		c0.15,0.05,0.3,0.09,0.46,0.14c0.08,0.02,0.15,0.05,0.23,0.07l0.23,0.08c0.3,0.11,0.61,0.23,0.91,0.34c0.3,0.13,0.6,0.26,0.89,0.39
		l0.22,0.1l0.22,0.11c0.15,0.07,0.29,0.15,0.43,0.22c0.14,0.07,0.29,0.15,0.43,0.22c0.14,0.08,0.28,0.16,0.42,0.24
		c0.01-0.02,0.01-0.05,0.02-0.08c-0.08-0.05-0.15-0.11-0.23-0.16l-0.11-0.08l-0.12-0.08c-0.15-0.1-0.31-0.21-0.46-0.32
		c-0.15-0.11-0.3-0.22-0.44-0.33c-0.15-0.11-0.3-0.22-0.45-0.33c-0.15-0.12-0.29-0.24-0.44-0.36c-0.04-0.03-0.07-0.06-0.11-0.09
		l-0.11-0.09c-0.07-0.06-0.15-0.12-0.22-0.19c-0.15-0.13-0.29-0.26-0.43-0.4c-0.07-0.07-0.14-0.14-0.22-0.21
		c-0.07-0.07-0.15-0.14-0.22-0.21c0.13,0.12,0.22,0.21,0.26,0.29c0.04,0.08,0.05,0.13,0.01,0.16c-0.04,0.03-0.1,0.03-0.21,0.01
		c-0.11-0.02-0.25-0.07-0.43-0.14c-0.11-0.21-0.23-0.43-0.34-0.64c0.33,0.1,0.66,0.21,0.98,0.32c0.08,0.03,0.16,0.06,0.24,0.09
		c0.08,0.03,0.16,0.07,0.23,0.1c0.15,0.07,0.31,0.15,0.45,0.23c0.07,0.04,0.15,0.08,0.22,0.13l0.11,0.07l0.1,0.07
		c0.13,0.1,0.26,0.21,0.39,0.32c0.25,0.23,0.47,0.48,0.64,0.79c0,0,0.58,0.19,0.87,0.28c0.07,0.08,0.11,0.17,0.13,0.24
		c0.02,0.07,0.02,0.14,0.01,0.2c-0.02,0.12-0.08,0.23-0.11,0.34c0.24,0.17,0.49,0.33,0.73,0.5c-0.05-0.18-0.18-0.41-0.33-0.66
		c-0.08-0.13-0.16-0.26-0.24-0.39c-0.04-0.07-0.09-0.13-0.13-0.2c-0.05-0.06-0.09-0.12-0.14-0.18c-0.18-0.24-0.36-0.46-0.49-0.63
		c-0.07-0.08-0.12-0.15-0.16-0.19C224.36,246.41,224.34,246.39,224.34,246.39z"/>
	<path class="st1" d="M209.31,241.79c0.21-0.02,0.47-0.03,0.75-0.05l-0.75-0.05c-0.25,0-0.5-0.01-0.76-0.01l-0.38,0
		c-0.13,0-0.25-0.01-0.38,0c-0.25,0.01-0.51,0.02-0.76,0.03c0.14,0.09,0.3,0.14,0.47,0.18c0.09,0.02,0.18,0.02,0.27,0.03
		c0.09,0,0.19,0,0.28,0C208.44,241.92,208.87,241.86,209.31,241.79z"/>
</g>
</svg>
