<?xml version="1.0" encoding="utf-8"?>
<!-- Generator: Adobe Illustrator 23.0.2, SVG Export Plug-In . SVG Version: 6.00 Build 0)  -->
<svg version="1.1" id="分離模式" xmlns="http://www.w3.org/2000/svg" xmlns:xlink="http://www.w3.org/1999/xlink" x="0px"
	 y="0px" viewBox="0 0 17.42 17.47" style="enable-background:new 0 0 17.42 17.47;" xml:space="preserve">
<style type="text/css">
	.st0{fill:#603813;}
	.st1{fill:#A67C52;}
	.st2{fill:#FFBC40;}
</style>
<rect x="1.02" y="3.29" transform="matrix(0.706 -0.7082 0.7082 0.706 -2.1479 4.9872)" class="st0" width="7.82" height="3.59"/>
<path class="st0" d="M17.17,17.22L17.17,17.22c-0.33,0.33-0.86,0.33-1.19,0L5.53,6.81l1.19-1.2l10.45,10.42
	C17.5,16.36,17.5,16.89,17.17,17.22z"/>
<path class="st1" d="M0.18,6.36L0.18,6.36c-0.24,0.24-0.24,0.63,0,0.87L2.8,9.84c0.24,0.24,0.63,0.24,0.87,0l0,0
	c0.24-0.24,0.24-0.63,0-0.87L1.05,6.36C0.81,6.12,0.42,6.12,0.18,6.36z"/>
<path class="st1" d="M6.34,0.18L6.34,0.18c-0.24,0.24-0.24,0.63,0,0.87l2.62,2.61c0.24,0.24,0.63,0.24,0.87,0l0,0
	c0.24-0.24,0.24-0.63,0-0.87L7.21,0.18C6.97-0.06,6.58-0.06,6.34,0.18z"/>
<rect x="3.84" y="3.24" transform="matrix(0.706 -0.7082 0.7082 0.706 -2.1198 4.9998)" class="st2" width="2.25" height="3.62"/>
</svg>
