<?xml version="1.0" encoding="utf-8"?>
<!-- Generator: Adobe Illustrator 24.0.0, SVG Export Plug-In . SVG Version: 6.00 Build 0)  -->
<svg version="1.1" id="圖層_1" xmlns="http://www.w3.org/2000/svg" xmlns:xlink="http://www.w3.org/1999/xlink" x="0px" y="0px"
	 viewBox="0 0 423.06 262.59" style="enable-background:new 0 0 423.06 262.59;" xml:space="preserve">
<style type="text/css">
	.st0{fill:none;stroke:#AFAFAF;stroke-miterlimit:10;}
	.st1{fill:#6D6D6D;}
	.st2{fill:#0A338C;}
</style>
<g>
	<line class="st0" x1="60.24" y1="10.41" x2="416.47" y2="10.41"/>
	<line class="st0" x1="60.24" y1="45.57" x2="416.47" y2="45.57"/>
	<line class="st0" x1="60.24" y1="80.73" x2="416.47" y2="80.73"/>
	<line class="st0" x1="60.24" y1="115.88" x2="416.47" y2="115.88"/>
	<line class="st0" x1="60.24" y1="151.04" x2="416.47" y2="151.04"/>
	<line class="st0" x1="60.24" y1="186.2" x2="416.47" y2="186.2"/>
	<line class="st0" x1="60.24" y1="221.35" x2="416.47" y2="221.35"/>
	<g>
		<path d="M1.21,222.48h4.81v1.22H1.21V222.48z"/>
		<path d="M16.68,224.51h-1.9v3.88h-1.46v-3.88h-6.1v-1.01l5.91-9.02h1.65v8.8h1.9V224.51z M13.32,223.28v-4.52
			c0-0.68,0.06-1.79,0.11-2.47h-0.1c-0.34,0.67-0.72,1.35-1.1,2.01l-3.36,4.98H13.32z"/>
		<path d="M18.68,227.42c0-0.76,0.53-1.25,1.16-1.25c0.65,0,1.18,0.49,1.18,1.25c0,0.72-0.53,1.22-1.18,1.22
			C19.21,228.64,18.68,228.14,18.68,227.42z"/>
		<path d="M23.37,221.38c0-4.83,1.65-7.14,4.27-7.14c2.6,0,4.24,2.34,4.24,7.14c0,4.86-1.63,7.26-4.24,7.26
			C25.02,228.64,23.37,226.24,23.37,221.38z M30.38,221.38c0-4.07-1.1-5.89-2.74-5.89c-1.65,0-2.77,1.82-2.77,5.89
			c0,4.14,1.12,6,2.77,6C29.28,227.38,30.38,225.52,30.38,221.38z"/>
		<path d="M33.8,221.38c0-4.83,1.65-7.14,4.27-7.14c2.6,0,4.24,2.34,4.24,7.14c0,4.86-1.63,7.26-4.24,7.26
			C35.45,228.64,33.8,226.24,33.8,221.38z M40.81,221.38c0-4.07-1.1-5.89-2.74-5.89c-1.65,0-2.77,1.82-2.77,5.89
			c0,4.14,1.12,6,2.77,6C39.71,227.38,40.81,225.52,40.81,221.38z"/>
	</g>
	<g>
		<path d="M1.21,187.03h4.81v1.22H1.21V187.03z"/>
		<path d="M7.43,191.28l0.8-1.01c0.82,0.84,1.86,1.61,3.51,1.61c1.69,0,2.91-1.04,2.91-2.7c0-1.73-1.18-2.89-4.41-2.89v-1.22
			c2.91,0,3.91-1.2,3.91-2.75c0-1.39-0.93-2.3-2.43-2.32c-1.14,0.02-2.15,0.61-2.93,1.41l-0.85-1.01c1.03-0.93,2.24-1.63,3.84-1.65
			c2.28,0.02,3.95,1.25,3.95,3.46c0,1.73-1.01,2.85-2.49,3.38v0.08c1.63,0.38,2.96,1.63,2.96,3.55c0,2.47-1.94,3.95-4.37,3.95
			C9.67,193.18,8.32,192.25,7.43,191.28z"/>
		<path d="M18.68,191.97c0-0.76,0.53-1.25,1.16-1.25c0.65,0,1.18,0.49,1.18,1.25c0,0.72-0.53,1.22-1.18,1.22
			C19.21,193.18,18.68,192.69,18.68,191.97z"/>
		<path d="M23.37,185.93c0-4.83,1.65-7.14,4.27-7.14c2.6,0,4.24,2.34,4.24,7.14c0,4.86-1.63,7.26-4.24,7.26
			C25.02,193.18,23.37,190.79,23.37,185.93z M30.38,185.93c0-4.07-1.1-5.89-2.74-5.89c-1.65,0-2.77,1.82-2.77,5.89
			c0,4.14,1.12,6,2.77,6C29.28,191.93,30.38,190.07,30.38,185.93z"/>
		<path d="M33.8,185.93c0-4.83,1.65-7.14,4.27-7.14c2.6,0,4.24,2.34,4.24,7.14c0,4.86-1.63,7.26-4.24,7.26
			C35.45,193.18,33.8,190.79,33.8,185.93z M40.81,185.93c0-4.07-1.1-5.89-2.74-5.89c-1.65,0-2.77,1.82-2.77,5.89
			c0,4.14,1.12,6,2.77,6C39.71,191.93,40.81,190.07,40.81,185.93z"/>
	</g>
	<g>
		<path d="M1.21,151.58h4.81v1.22H1.21V151.58z"/>
		<path d="M7.71,156.56c4.45-3.88,6.42-6.69,6.42-9.1c0-1.63-0.85-2.87-2.64-2.87c-1.16,0-2.17,0.72-2.96,1.65l-0.91-0.87
			c1.12-1.22,2.32-2.03,4.05-2.03c2.47,0,3.99,1.6,3.99,4.07c0,2.81-2.2,5.68-5.6,8.87c0.74-0.08,1.58-0.11,2.28-0.11h3.99v1.33
			H7.71V156.56z"/>
		<path d="M18.68,156.52c0-0.76,0.53-1.25,1.16-1.25c0.65,0,1.18,0.49,1.18,1.25c0,0.72-0.53,1.22-1.18,1.22
			C19.21,157.73,18.68,157.24,18.68,156.52z"/>
		<path d="M23.37,150.48c0-4.83,1.65-7.14,4.27-7.14c2.6,0,4.24,2.34,4.24,7.14c0,4.86-1.63,7.26-4.24,7.26
			C25.02,157.73,23.37,155.34,23.37,150.48z M30.38,150.48c0-4.07-1.1-5.89-2.74-5.89c-1.65,0-2.77,1.82-2.77,5.89
			c0,4.14,1.12,6,2.77,6C29.28,156.48,30.38,154.62,30.38,150.48z"/>
		<path d="M33.8,150.48c0-4.83,1.65-7.14,4.27-7.14c2.6,0,4.24,2.34,4.24,7.14c0,4.86-1.63,7.26-4.24,7.26
			C35.45,157.73,33.8,155.34,33.8,150.48z M40.81,150.48c0-4.07-1.1-5.89-2.74-5.89c-1.65,0-2.77,1.82-2.77,5.89
			c0,4.14,1.12,6,2.77,6C39.71,156.48,40.81,154.62,40.81,150.48z"/>
	</g>
	<g>
		<path d="M1.21,116.13h4.81v1.22H1.21V116.13z"/>
		<path d="M8.55,120.74h3.12v-10.66H9.21v-1.01c1.2-0.21,2.09-0.51,2.81-0.95h1.18v12.61h2.83v1.29H8.55V120.74z"/>
		<path d="M18.68,121.07c0-0.76,0.53-1.25,1.16-1.25c0.65,0,1.18,0.49,1.18,1.25c0,0.72-0.53,1.22-1.18,1.22
			C19.21,122.28,18.68,121.79,18.68,121.07z"/>
		<path d="M23.37,115.02c0-4.83,1.65-7.14,4.27-7.14c2.6,0,4.24,2.34,4.24,7.14c0,4.86-1.63,7.26-4.24,7.26
			C25.02,122.28,23.37,119.89,23.37,115.02z M30.38,115.02c0-4.07-1.1-5.89-2.74-5.89c-1.65,0-2.77,1.82-2.77,5.89
			c0,4.14,1.12,6,2.77,6C29.28,121.03,30.38,119.17,30.38,115.02z"/>
		<path d="M33.8,115.02c0-4.83,1.65-7.14,4.27-7.14c2.6,0,4.24,2.34,4.24,7.14c0,4.86-1.63,7.26-4.24,7.26
			C35.45,122.28,33.8,119.89,33.8,115.02z M40.81,115.02c0-4.07-1.1-5.89-2.74-5.89c-1.65,0-2.77,1.82-2.77,5.89
			c0,4.14,1.12,6,2.77,6C39.71,121.03,40.81,119.17,40.81,115.02z"/>
	</g>
	<g>
		<path d="M7.81,79.57c0-4.83,1.65-7.14,4.27-7.14c2.6,0,4.24,2.34,4.24,7.14c0,4.86-1.63,7.26-4.24,7.26
			C9.46,86.83,7.81,84.44,7.81,79.57z M14.82,79.57c0-4.07-1.1-5.89-2.74-5.89c-1.65,0-2.77,1.82-2.77,5.89c0,4.14,1.12,6,2.77,6
			C13.72,85.58,14.82,83.72,14.82,79.57z"/>
		<path d="M18.68,85.62c0-0.76,0.53-1.25,1.16-1.25c0.65,0,1.18,0.49,1.18,1.25c0,0.72-0.53,1.22-1.18,1.22
			C19.21,86.83,18.68,86.34,18.68,85.62z"/>
		<path d="M23.37,79.57c0-4.83,1.65-7.14,4.27-7.14c2.6,0,4.24,2.34,4.24,7.14c0,4.86-1.63,7.26-4.24,7.26
			C25.02,86.83,23.37,84.44,23.37,79.57z M30.38,79.57c0-4.07-1.1-5.89-2.74-5.89c-1.65,0-2.77,1.82-2.77,5.89c0,4.14,1.12,6,2.77,6
			C29.28,85.58,30.38,83.72,30.38,79.57z"/>
		<path d="M33.8,79.57c0-4.83,1.65-7.14,4.27-7.14c2.6,0,4.24,2.34,4.24,7.14c0,4.86-1.63,7.26-4.24,7.26
			C35.45,86.83,33.8,84.44,33.8,79.57z M40.81,79.57c0-4.07-1.1-5.89-2.74-5.89c-1.65,0-2.77,1.82-2.77,5.89c0,4.14,1.12,6,2.77,6
			C39.71,85.58,40.81,83.72,40.81,79.57z"/>
	</g>
	<g>
		<path d="M8.55,49.84h3.12V39.18H9.21v-1.01c1.2-0.21,2.09-0.51,2.81-0.95h1.18v12.61h2.83v1.29H8.55V49.84z"/>
		<path d="M18.68,50.16c0-0.76,0.53-1.25,1.16-1.25c0.65,0,1.18,0.49,1.18,1.25c0,0.72-0.53,1.22-1.18,1.22
			C19.21,51.38,18.68,50.89,18.68,50.16z"/>
		<path d="M23.37,44.12c0-4.83,1.65-7.14,4.27-7.14c2.6,0,4.24,2.34,4.24,7.14c0,4.86-1.63,7.26-4.24,7.26
			C25.02,51.38,23.37,48.99,23.37,44.12z M30.38,44.12c0-4.07-1.1-5.89-2.74-5.89c-1.65,0-2.77,1.82-2.77,5.89c0,4.14,1.12,6,2.77,6
			C29.28,50.13,30.38,48.27,30.38,44.12z"/>
		<path d="M33.8,44.12c0-4.83,1.65-7.14,4.27-7.14c2.6,0,4.24,2.34,4.24,7.14c0,4.86-1.63,7.26-4.24,7.26
			C35.45,51.38,33.8,48.99,33.8,44.12z M40.81,44.12c0-4.07-1.1-5.89-2.74-5.89c-1.65,0-2.77,1.82-2.77,5.89c0,4.14,1.12,6,2.77,6
			C39.71,50.13,40.81,48.27,40.81,44.12z"/>
	</g>
	<g>
		<path d="M7.71,14.75c4.45-3.88,6.42-6.69,6.42-9.1c0-1.63-0.85-2.87-2.64-2.87c-1.16,0-2.17,0.72-2.96,1.65L7.62,3.56
			c1.12-1.22,2.32-2.03,4.05-2.03c2.47,0,3.99,1.6,3.99,4.07c0,2.81-2.2,5.68-5.6,8.87c0.74-0.08,1.58-0.11,2.28-0.11h3.99v1.33
			H7.71V14.75z"/>
		<path d="M18.68,14.71c0-0.76,0.53-1.25,1.16-1.25c0.65,0,1.18,0.49,1.18,1.25c0,0.72-0.53,1.22-1.18,1.22
			C19.21,15.93,18.68,15.44,18.68,14.71z"/>
		<path d="M23.37,8.67c0-4.83,1.65-7.14,4.27-7.14c2.6,0,4.24,2.34,4.24,7.14c0,4.86-1.63,7.26-4.24,7.26
			C25.02,15.93,23.37,13.54,23.37,8.67z M30.38,8.67c0-4.07-1.1-5.89-2.74-5.89c-1.65,0-2.77,1.82-2.77,5.89c0,4.14,1.12,6,2.77,6
			C29.28,14.68,30.38,12.81,30.38,8.67z"/>
		<path d="M33.8,8.67c0-4.83,1.65-7.14,4.27-7.14c2.6,0,4.24,2.34,4.24,7.14c0,4.86-1.63,7.26-4.24,7.26
			C35.45,15.93,33.8,13.54,33.8,8.67z M40.81,8.67c0-4.07-1.1-5.89-2.74-5.89c-1.65,0-2.77,1.82-2.77,5.89c0,4.14,1.12,6,2.77,6
			C39.71,14.68,40.81,12.81,40.81,8.67z"/>
	</g>
	<g>
		<path d="M310.77,33.51h3.12V22.85h-2.45v-1.01c1.2-0.21,2.09-0.51,2.81-0.95h1.18v12.61h2.83v1.29h-7.48V33.51z"/>
		<path d="M320.9,33.83c0-0.76,0.53-1.25,1.16-1.25c0.65,0,1.18,0.49,1.18,1.25c0,0.72-0.53,1.22-1.18,1.22
			C321.43,35.05,320.9,34.55,320.9,33.83z"/>
		<path d="M325.59,27.79c0-4.83,1.65-7.14,4.27-7.14c2.6,0,4.24,2.34,4.24,7.14c0,4.86-1.63,7.26-4.24,7.26
			C327.25,35.05,325.59,32.65,325.59,27.79z M332.6,27.79c0-4.07-1.1-5.89-2.74-5.89c-1.65,0-2.77,1.82-2.77,5.89
			c0,4.14,1.12,6,2.77,6C331.5,33.79,332.6,31.93,332.6,27.79z"/>
		<path d="M335.61,33.2l0.78-1.03c0.8,0.82,1.82,1.58,3.48,1.58c1.67,0,3.06-1.33,3.06-3.42c0-2.05-1.18-3.29-2.98-3.29
			c-0.95,0-1.56,0.3-2.36,0.84l-0.85-0.53l0.44-6.46h6.65v1.33h-5.28l-0.38,4.22c0.65-0.36,1.29-0.59,2.17-0.59
			c2.3,0,4.16,1.37,4.16,4.45c0,3.02-2.19,4.75-4.48,4.75C337.83,35.05,336.54,34.14,335.61,33.2z"/>
	</g>
	<g>
		<path d="M118.46,211.48h4.81v1.22h-4.81V211.48z"/>
		<path d="M124.68,215.74l0.8-1.01c0.82,0.84,1.86,1.61,3.51,1.61c1.69,0,2.91-1.04,2.91-2.7c0-1.73-1.18-2.89-4.41-2.89v-1.22
			c2.91,0,3.91-1.2,3.91-2.75c0-1.39-0.93-2.3-2.43-2.32c-1.14,0.02-2.15,0.61-2.93,1.41l-0.85-1.01c1.03-0.93,2.24-1.63,3.84-1.65
			c2.28,0.02,3.95,1.25,3.95,3.46c0,1.73-1.01,2.85-2.49,3.38v0.08c1.63,0.38,2.96,1.63,2.96,3.55c0,2.47-1.94,3.95-4.37,3.95
			C126.92,217.64,125.57,216.7,124.68,215.74z"/>
		<path d="M135.92,216.42c0-0.76,0.53-1.25,1.16-1.25c0.65,0,1.18,0.49,1.18,1.25c0,0.72-0.53,1.22-1.18,1.22
			C136.46,217.64,135.92,217.14,135.92,216.42z"/>
		<path d="M140.24,215.74l0.8-1.01c0.82,0.84,1.86,1.61,3.51,1.61c1.69,0,2.91-1.04,2.91-2.7c0-1.73-1.18-2.89-4.41-2.89v-1.22
			c2.91,0,3.91-1.2,3.91-2.75c0-1.39-0.93-2.3-2.43-2.32c-1.14,0.02-2.15,0.61-2.93,1.41l-0.85-1.01c1.03-0.93,2.24-1.63,3.84-1.65
			c2.28,0.02,3.95,1.25,3.95,3.46c0,1.73-1.01,2.85-2.49,3.38v0.08c1.63,0.38,2.96,1.63,2.96,3.55c0,2.47-1.94,3.95-4.37,3.95
			C142.48,217.64,141.13,216.7,140.24,215.74z"/>
		<path d="M150.67,215.74l0.8-1.01c0.82,0.84,1.86,1.61,3.51,1.61c1.69,0,2.91-1.04,2.91-2.7c0-1.73-1.18-2.89-4.41-2.89v-1.22
			c2.91,0,3.91-1.2,3.91-2.75c0-1.39-0.93-2.3-2.43-2.32c-1.14,0.02-2.15,0.61-2.93,1.41l-0.85-1.01c1.03-0.93,2.24-1.63,3.84-1.65
			c2.28,0.02,3.95,1.25,3.95,3.46c0,1.73-1.01,2.85-2.49,3.38v0.08c1.63,0.38,2.96,1.63,2.96,3.55c0,2.47-1.94,3.95-4.37,3.95
			C152.91,217.64,151.56,216.7,150.67,215.74z"/>
	</g>
	<g>
		<path d="M82.68,252.45c-0.11,1.77-0.53,3.44-1.88,4.86c2.38,1.35,5.62,1.79,9.95,2c-0.25,0.3-0.49,0.84-0.59,1.27
			c-4.45-0.29-7.83-0.85-10.33-2.39c-1.27,0.95-3.06,1.77-5.62,2.39c-0.15-0.3-0.49-0.82-0.74-1.12c2.41-0.53,4.1-1.22,5.28-2.03
			c-1.18-0.95-2.11-2.2-2.87-3.84l1.1-0.44c0.72,1.48,1.61,2.62,2.75,3.48c1.23-1.22,1.56-2.66,1.65-4.18h-6.42v-6.12h6.46v-2.98
			h1.29v2.98h6.54v6.12H82.68z M81.43,251.23v-0.04v-3.65h-5.22v3.69H81.43z M82.72,247.55v3.65v0.04h5.26v-3.69H82.72z"/>
		<path d="M98.7,255.66c-2.07,0.84-4.27,1.71-5.97,2.37l-0.42-1.29c0.72-0.25,1.63-0.55,2.64-0.91v-6.73h-2.37v-1.2h2.37v-4.41h1.22
			v4.41h2.32v1.2h-2.32v6.29c0.74-0.29,1.54-0.57,2.3-0.87L98.7,255.66z M109.55,258.62v1.2H98.23v-1.2H109.55z M108.33,256.08
			h-8.81v-11.42h8.81V256.08z M107.04,245.84h-6.29v3.91h6.29V245.84z M107.04,250.91h-6.29v3.99h6.29V250.91z"/>
		<path d="M128.53,250.51v1.06h-16.91v-1.06h5.93v-3.82h-4.84v-1.06h3.65c-0.27-0.57-0.74-1.39-1.27-1.92l1.06-0.44
			c0.61,0.59,1.16,1.39,1.41,1.98l-0.82,0.38h5.66c0.47-0.68,1.04-1.67,1.37-2.36l1.23,0.42c-0.4,0.65-0.84,1.37-1.25,1.94h3.84
			v1.06h-5.07v3.82H128.53z M114.62,246.99c0.7,0.84,1.33,2,1.58,2.79l-1.12,0.46c-0.23-0.82-0.84-1.99-1.48-2.85L114.62,246.99z
			 M114.24,252.81h11.74v7.66h-1.27v-0.57h-9.23v0.65h-1.23V252.81z M115.48,253.83v2h9.23v-2H115.48z M124.71,258.85v-2.03h-9.23
			v2.03H124.71z M118.75,250.51h2.56v-3.82h-2.56V250.51z M123.72,249.92c0.55-0.8,1.27-2.11,1.65-3l1.14,0.4
			c-0.55,1.04-1.25,2.2-1.82,2.96L123.72,249.92z"/>
		<path d="M147.47,258.28v1.25H130.7v-1.25h4.67c0.38-1.77,0.8-4.07,1.18-6.4h-3.59v-1.23h3.8c0.23-1.46,0.46-2.94,0.63-4.26h-5.47
			v-1.25h14.17v1.25h-7.35c-0.19,1.33-0.42,2.79-0.65,4.26h5.02l0.21-0.06l0.95,0.09c-0.11,2.07-0.4,5.13-0.7,7.6H147.47z
			 M137.88,251.88c-0.38,2.36-0.8,4.65-1.14,6.4h5.53c0.23-2.07,0.48-4.62,0.61-6.4H137.88z"/>
		<path d="M158.65,245.55c-0.27,0.99-0.51,2.09-0.78,2.96h6.5v12.12h-1.31v-1.25h-9.76v1.25h-1.27v-12.12h4.58
			c0.21-0.87,0.44-1.99,0.59-2.96h-7.37v-1.24h16.49v1.24H158.65z M163.05,249.69h-9.76v3.61h9.76V249.69z M163.05,258.18v-3.72
			h-9.76v3.72H163.05z"/>
		<path d="M174.89,252.66l-2.41,0.74v5.64c0,0.74-0.19,1.08-0.65,1.29c-0.48,0.21-1.22,0.25-2.47,0.23
			c-0.06-0.3-0.25-0.82-0.42-1.16c0.87,0.02,1.69,0.02,1.92,0c0.25,0,0.36-0.08,0.36-0.36v-5.24l-2.66,0.82l-0.4-1.25
			c0.84-0.23,1.9-0.51,3.06-0.86v-4.14h-2.75v-1.22h2.75v-3.84h1.25v3.84h2.2v1.22h-2.2v3.76c0.74-0.19,1.5-0.44,2.24-0.67
			L174.89,252.66z M178.27,250.66c-1.75,0-2.3-0.55-2.3-2.13v-5.19h1.23v2.34h7.69v1.12h-7.69v1.77c0,0.72,0.21,0.99,1.04,0.99h5.11
			c0.63,0,1.61-0.04,2.03-0.11c0.06,0.34,0.11,0.82,0.17,1.1c-0.34,0.09-1.25,0.11-2.13,0.11H178.27z M175.97,252.35h8.85v8.15
			h-1.25v-0.8h-6.4v0.87h-1.2V252.35z M177.17,253.45v2.01h6.4v-2.01H177.17z M183.57,258.64v-2.13h-6.4v2.13H183.57z"/>
		<path d="M195.75,255.7c-0.17,0.83-0.61,1.71-1.67,2.54c0.85,0.38,1.63,0.78,2.22,1.1l-0.87,0.78c-0.61-0.4-1.42-0.82-2.34-1.25
			c-1.2,0.65-2.91,1.25-5.32,1.69c-0.11-0.27-0.34-0.63-0.53-0.84c2.09-0.38,3.59-0.84,4.69-1.35c-1.01-0.42-2.05-0.82-3.02-1.08
			c0.32-0.38,0.65-0.8,0.97-1.27l-2.3,0.13l-0.13-0.97c0.87-0.04,1.92-0.08,3.1-0.13c0.32-0.53,0.63-1.04,0.91-1.56h-3.15v-3.02
			h3.61v-0.84h-3.08v-2.07h-1.25v-0.99h1.25v-1.94h3.08v-1.37h1.03v1.37h3.27v1.94h1.29v0.99h-1.29v2.07h-3.27v0.84h3.74v3.02h-4.05
			c-0.25,0.49-0.53,0.99-0.84,1.5l3-0.15c0-0.09,0-0.19,0-0.29v-0.67h1.04v0.7v0.19l1.03-0.06l-0.02,0.89L195.75,255.7z
			 M189.39,252.62h2.53v-1.27h-2.53V252.62z M189.92,245.53v1.08h2v-1.08H189.92z M191.92,248.72v-1.22h-2v1.22H191.92z
			 M191.18,255.96c-0.23,0.3-0.44,0.61-0.65,0.87c0.82,0.27,1.67,0.59,2.49,0.93c0.97-0.65,1.41-1.37,1.61-2.01L191.18,255.96z
			 M192.94,245.53v1.08h2.13v-1.08H192.94z M195.07,248.72v-1.22h-2.13v1.22H195.07z M192.94,251.35v1.27h2.6v-1.27H192.94z
			 M203.28,248.08c-0.36,2.85-0.85,5.26-1.71,7.33c0.82,1.77,1.86,3.19,3.23,4.07c-0.27,0.21-0.61,0.59-0.78,0.89
			c-1.25-0.87-2.26-2.17-3.04-3.72c-0.84,1.62-1.96,2.96-3.46,4.05c-0.1-0.23-0.46-0.74-0.7-0.95c1.61-1.1,2.75-2.58,3.59-4.41
			c-0.63-1.56-1.08-3.32-1.44-5.26c-0.32,0.86-0.67,1.62-1.06,2.28c-0.19-0.19-0.63-0.61-0.89-0.78c1.25-1.98,2.01-5.03,2.47-8.13
			l1.08,0.17c-0.15,1.12-0.38,2.24-0.65,3.33h4.67v1.14H203.28z M199.61,248.08c0.3,2.09,0.74,4.08,1.35,5.83
			c0.57-1.69,0.93-3.65,1.18-5.83H199.61z"/>
	</g>
	<g>
		<path d="M243.56,258.66c-3.59,0.57-7.41,1.16-10.01,1.56l-0.21-1.22c1.56-0.19,3.67-0.49,5.95-0.84c0.38-0.93,0.84-2.32,1.06-3.25
			l1.23,0.25c-0.34,0.93-0.72,1.98-1.06,2.81l3-0.44L243.56,258.66z M237.8,246.03h-4.39v-1.04h4.39v-1.67h1.2v1.67h4.39v1.04H239
			v1.9h3.89v1.04h-8.85v-1.04h3.76V246.03z M242.52,254.71h-8.13v-4.24h8.13V254.71z M236.3,258.22c-0.11-0.8-0.49-2.03-0.97-2.98
			l1.03-0.27c0.49,0.91,0.91,2.13,1.06,2.95L236.3,258.22z M241.32,251.46h-5.79v2.26h5.79V251.46z M250.49,254.73
			c-1.48,2.43-4.03,4.58-6.73,5.87c-0.21-0.3-0.59-0.74-0.89-0.99c2.58-1.14,5.11-3.15,6.46-5.36L250.49,254.73z M249.58,244.13
			c-1.25,1.65-3.21,3.3-4.92,4.31c-0.23-0.27-0.61-0.65-0.93-0.89c1.65-0.89,3.61-2.45,4.67-3.91L249.58,244.13z M250.08,249.29
			c-1.37,1.75-3.5,3.48-5.4,4.56c-0.23-0.27-0.61-0.65-0.91-0.87c1.8-0.97,3.95-2.6,5.15-4.18L250.08,249.29z"/>
		<path d="M255.76,249.5v11.08h-1.23V249.5h-2.37v-1.18h2.37v-5.03h1.23v5.03h2.09v1.18H255.76z M269.44,256.17h-2.81v3.04
			c0,0.68-0.15,0.99-0.66,1.18c-0.53,0.19-1.41,0.19-2.77,0.19c-0.06-0.32-0.23-0.76-0.38-1.08c1.1,0.02,2.03,0.02,2.3,0
			c0.3,0,0.36-0.08,0.36-0.3v-3.02h-5.36c0.95,0.67,2.24,1.61,2.89,2.18l-0.8,0.85c-0.67-0.59-1.92-1.61-2.87-2.32l0.74-0.72h-2.68
			v-1.06h8.07v-1.03h1.16v1.03h2.81V256.17z M263,246.41h-5.02v-1.04H263v-2.07h1.18v2.07h3.51c-0.7-0.4-1.75-0.93-2.56-1.33
			l0.61-0.72c0.93,0.42,2.18,1.03,2.87,1.41l-0.46,0.65h1.08v1.04h-5.05v1.03h4.27v5.47c0,0.57-0.11,0.76-0.51,0.91
			c-0.4,0.17-1.01,0.17-1.98,0.17c-0.06-0.29-0.25-0.61-0.38-0.86c0.7,0.02,1.31,0.02,1.48,0c0.21,0,0.27-0.06,0.27-0.25v-0.66
			h-3.15v1.42H263v-1.42h-3.02v1.75h-1.12v-6.54H263V246.41z M259.98,248.34v1.14H263v-1.14H259.98z M263,251.38v-1.06h-3.02v1.06
			H263z M264.17,248.34v1.14h3.15v-1.14H264.17z M267.33,251.38v-1.06h-3.15v1.06H267.33z"/>
		<path d="M284.37,258.96c1.96,0,2.3-0.65,2.56-3.29c0.32,0.23,0.89,0.44,1.27,0.51c-0.32,3-0.93,4.01-3.84,4.01h-7.64
			c-3,0-3.93-0.61-3.93-3.1v-12.73h13.73v8.95h-1.29v-1.01h-11.15v4.83c0,1.44,0.42,1.82,2.51,1.82H284.37z M274.09,245.61v5.49
			h4.96v-5.49H274.09z M285.25,245.61h-4.94v5.49h4.94V245.61z"/>
		<path d="M305.25,259.21c0.8,0,0.93-0.38,1.01-2.83c0.29,0.23,0.82,0.44,1.18,0.53c-0.15,2.81-0.53,3.5-2.09,3.5h-3.1
			c-1.69,0-2.15-0.4-2.15-1.84v-4.45h-2.94c-0.46,3.31-1.67,5.43-6.19,6.52c-0.13-0.34-0.49-0.87-0.74-1.16
			c4.18-0.86,5.22-2.62,5.59-5.36h-3.02v-5.51h5.32v-2.22h-7.45v-1.16h7.45v-1.96h1.27v1.96h7.6v1.16h-7.6v2.22h5.51v5.51h-3.51
			v4.45c0,0.55,0.15,0.65,0.99,0.65H305.25z M294.01,252.98h9.61v-3.23h-9.61V252.98z"/>
		<path d="M318.38,252.69c1.58,2.89,4.65,5.26,8.19,6.25c-0.29,0.27-0.68,0.76-0.85,1.1c-2.93-0.97-5.57-2.91-7.33-5.38v5.93h-1.25
			v-5.96c-1.8,2.49-4.43,4.48-7.24,5.53c-0.17-0.34-0.55-0.8-0.85-1.08c3.42-1.08,6.52-3.59,8.09-6.52v-2.85h-7.48v-1.14h7.48v-1.79
			h1.25v1.79h7.58v1.14h-7.58V252.69z M313.06,245.99h-3.55v-1.16h3.55v-1.54h1.23v1.54h3.1v1.16h-3.1v1.54h-1.23V245.99z
			 M313.97,250.41c-0.15,0.55-0.32,1.04-0.53,1.54c0.78,0.72,1.67,1.67,2.13,2.28l-0.91,0.63c-0.36-0.51-1.03-1.27-1.71-1.94
			c-0.59,1.08-1.35,2.03-2.2,2.75c-0.19-0.19-0.68-0.57-0.95-0.74c1.44-1.06,2.51-2.77,3-4.75L313.97,250.41z M321.19,245.99h-3
			v-1.16h3v-1.52h1.25v1.52h3.72v1.16h-3.72v1.54h-1.25V245.99z M323.23,250.38c-0.11,0.53-0.27,1.04-0.44,1.54
			c1.04,0.86,2.3,1.98,2.96,2.74l-0.93,0.78c-0.53-0.67-1.56-1.65-2.51-2.49c-0.42,0.78-0.91,1.46-1.48,2.01
			c-0.23-0.15-0.76-0.46-1.08-0.57c1.12-1.01,1.94-2.49,2.3-4.2L323.23,250.38z"/>
		<path d="M345.27,251.59v1.12h-7.96c-0.06,0.53-0.15,1.06-0.25,1.54H345v1.12h-8.26c-0.89,2.66-2.93,4.29-7.92,5.15
			c-0.09-0.3-0.42-0.86-0.65-1.12c4.48-0.67,6.34-1.94,7.2-4.03h-6.5v-1.12h6.86c0.11-0.47,0.21-0.99,0.27-1.54h-7.56v-1.12h7.69
			v-1.73h-5.96v-1.1h5.96v-1.63h-6.97v-1.16h4.05c-0.32-0.68-0.95-1.6-1.52-2.3l1.1-0.46c0.68,0.74,1.37,1.75,1.67,2.43l-0.67,0.32
			h5.13c0.59-0.8,1.29-1.94,1.71-2.75l1.25,0.44c-0.48,0.8-1.04,1.63-1.56,2.32h4.12v1.16h-7.05v1.63h6.12v1.1h-6.12v1.73H345.27z
			 M337.46,255.68c2.64,1.03,6.04,2.7,7.79,3.89l-0.61,1.08c-1.67-1.24-5.07-2.96-7.75-4.07L337.46,255.68z"/>
		<path d="M363.66,244.16v16.47h-1.25v-0.89h-13.26v0.89h-1.2v-16.47H363.66z M362.4,258.58v-13.26h-13.26v13.26H362.4z
			 M355.87,255.58c-1.99,0.4-4.05,0.82-5.6,1.12l-0.21-0.97c1.48-0.25,3.61-0.65,5.78-1.04L355.87,255.58z M360.54,250.05
			c-0.48,1.8-1.2,3.38-2.13,4.71c0.44,1.1,0.99,1.8,1.67,1.9c0.29,0.04,0.49-0.76,0.61-2c0.21,0.19,0.61,0.46,0.84,0.55
			c-0.25,2.03-0.82,2.77-1.77,2.45c-0.87-0.17-1.56-0.87-2.09-1.96c-0.76,0.89-1.63,1.65-2.6,2.28c-0.15-0.21-0.53-0.61-0.76-0.8
			c1.14-0.67,2.13-1.52,2.93-2.56c-0.51-1.54-0.85-3.53-1.06-5.74h-5.93v-0.97h5.83c-0.06-0.68-0.11-1.39-0.15-2.11h1.1
			c0.04,0.7,0.08,1.42,0.13,2.11h4.24v0.97h-4.16c0.17,1.75,0.42,3.34,0.78,4.64c0.65-1.08,1.16-2.32,1.5-3.69L360.54,250.05z
			 M355.17,250.17v3.69h-4.22v-3.69H355.17z M354.22,250.98h-2.36v2.03h2.36V250.98z M360.26,247.62c-0.44-0.42-1.33-1.01-2.09-1.35
			l0.61-0.63c0.74,0.32,1.63,0.84,2.09,1.29L360.26,247.62z"/>
		<path d="M371.75,255.24c-0.3-0.53-1.08-1.62-1.71-2.45v7.77h-1.18v-7.66c-0.76,0.97-1.56,1.82-2.34,2.53
			c-0.11-0.34-0.48-0.95-0.68-1.18c1.77-1.48,3.7-3.99,4.79-6.42h-4.43v-1.16h5.05l0.23-0.06l0.72,0.49
			c-0.53,1.42-1.29,2.85-2.17,4.16v0.06c0.17,0.19,0.42,0.48,0.68,0.78c0.49-0.57,1.06-1.33,1.41-1.84l0.82,0.74
			c-0.55,0.61-1.14,1.27-1.65,1.77c0.51,0.65,1.03,1.25,1.22,1.5L371.75,255.24z M369.49,246.42c-0.27-0.68-0.87-1.79-1.37-2.6
			l0.99-0.46c0.53,0.8,1.14,1.84,1.42,2.51L369.49,246.42z M382.32,254.59c-0.76,1.44-1.92,2.6-3.32,3.53
			c1.35,0.63,2.85,1.12,4.5,1.39c-0.28,0.27-0.63,0.76-0.78,1.08c-1.82-0.36-3.48-0.97-4.92-1.79c-1.69,0.87-3.63,1.48-5.55,1.84
			c-0.11-0.32-0.42-0.78-0.63-1.04c1.73-0.27,3.51-0.78,5.07-1.48c-0.76-0.55-1.44-1.14-2.07-1.81c-0.59,0.49-1.22,0.97-1.82,1.33
			c-0.17-0.19-0.61-0.65-0.89-0.85c0.68-0.36,1.37-0.84,2-1.35c-0.36-0.48-0.67-0.97-0.95-1.5l1.04-0.36
			c0.21,0.38,0.44,0.76,0.7,1.12c0.55-0.53,1.01-1.12,1.39-1.75h-2.3v-4.75c-0.23,0.3-0.48,0.59-0.68,0.84
			c-0.25-0.21-0.78-0.57-1.1-0.74c1.27-1.25,2.37-3.15,3.08-5.05l1.22,0.32c-0.19,0.55-0.44,1.1-0.7,1.63h7.56v1.08h-8.11
			c-0.27,0.46-0.53,0.87-0.8,1.29h7.85v5.38h-4.67c-0.25,0.44-0.49,0.84-0.82,1.25h4.69l0.21-0.06L382.32,254.59z M374.98,249.83
			h5.87v-1.33h-5.87V249.83z M374.98,252.07h5.87v-1.37h-5.87V252.07z M375.78,255.2c-0.11,0.13-0.23,0.25-0.36,0.38
			c0.7,0.72,1.52,1.37,2.45,1.94c1.06-0.65,1.99-1.41,2.66-2.32H375.78z"/>
		<path d="M395.24,243.8c-0.17,0.3-0.38,0.57-0.61,0.85c2.18,2.36,4.88,3.95,7.98,5.32c-0.32,0.27-0.68,0.74-0.87,1.1
			c-3-1.44-5.58-3.08-7.83-5.51c-1.29,1.48-2.87,2.81-4.58,3.91h9.25v1.18h-9.54v-0.99c-0.97,0.59-1.98,1.12-3,1.56
			c-0.21-0.3-0.55-0.78-0.89-1.08c3.61-1.41,7.09-3.97,8.99-6.9L395.24,243.8z M388.09,253.04h11.65v7.45h-1.33v-1.03h-9.04v1.1
			h-1.27V253.04z M389.37,254.18v4.08h9.04v-4.08H389.37z"/>
		<path d="M409.6,243.67c-0.53,1.35-1.18,2.7-1.9,3.95v12.92h-1.22v-11.02c-0.66,0.95-1.37,1.8-2.09,2.53
			c-0.11-0.27-0.48-0.91-0.7-1.18c1.88-1.84,3.67-4.67,4.75-7.54L409.6,243.67z M414.29,258.09c-1.12,0.99-2.96,1.92-4.5,2.47
			c-0.21-0.23-0.7-0.67-1.01-0.89c1.58-0.46,3.31-1.2,4.31-2.03L414.29,258.09z M421.44,248.23v0.95h-12.4v-0.95h5.6v-1.08h-4.27
			v-0.87h4.27v-1.03h-4.77v-0.89h4.77v-1.04h1.25v1.04h4.96v0.89h-4.96v1.03h4.46v0.87h-4.46v1.08H421.44z M420.18,257.29h-9.63
			v-7.12h9.63V257.29z M418.93,251.06h-7.16v1.22h7.16V251.06z M418.93,253.07h-7.16v1.25h7.16V253.07z M418.93,255.11h-7.16v1.27
			h7.16V255.11z M417.66,257.58c1.35,0.72,2.93,1.73,3.76,2.39l-1.12,0.72c-0.82-0.7-2.43-1.84-3.76-2.56L417.66,257.58z"/>
	</g>
	<rect x="110.94" y="80.73" class="st1" width="56" height="117.39"/>
	<rect x="299.29" y="42.82" class="st2" width="56" height="37.9"/>
</g>
<g>
	<line class="st0" x1="60.24" y1="331.24" x2="416.47" y2="331.24"/>
	<line class="st0" x1="60.24" y1="366.39" x2="416.47" y2="366.39"/>
	<line class="st0" x1="60.24" y1="401.55" x2="416.47" y2="401.55"/>
	<line class="st0" x1="60.24" y1="436.71" x2="416.47" y2="436.71"/>
	<line class="st0" x1="60.24" y1="471.86" x2="416.47" y2="471.86"/>
	<line class="st0" x1="60.24" y1="507.02" x2="416.47" y2="507.02"/>
	<line class="st0" x1="60.24" y1="542.18" x2="416.47" y2="542.18"/>
	<text transform="matrix(1 0 0 1 0.3409 549.2118)" style="font-family:'SourceHanSansTW-Normal-B5pc-H'; font-size:19px;">-4.00</text>
	<text transform="matrix(1 0 0 1 0.3409 513.7606)" style="font-family:'SourceHanSansTW-Normal-B5pc-H'; font-size:19px;">-3.00</text>
	<text transform="matrix(1 0 0 1 0.3409 478.31)" style="font-family:'SourceHanSansTW-Normal-B5pc-H'; font-size:19px;">-2.00</text>
	<text transform="matrix(1 0 0 1 0.3409 442.8585)" style="font-family:'SourceHanSansTW-Normal-B5pc-H'; font-size:19px;">-1.00</text>
	<text transform="matrix(1 0 0 1 6.858 407.408)" style="font-family:'SourceHanSansTW-Normal-B5pc-H'; font-size:19px;">0.00</text>
	<text transform="matrix(1 0 0 1 6.858 371.9565)" style="font-family:'SourceHanSansTW-Normal-B5pc-H'; font-size:19px;">1.00</text>
	<text transform="matrix(1 0 0 1 6.858 336.5059)" style="font-family:'SourceHanSansTW-Normal-B5pc-H'; font-size:19px;">2.00</text>
	<text transform="matrix(1 0 0 1 309.0828 355.6236)" style="font-family:'SourceHanSansTW-Normal-B5pc-H'; font-size:19px;">1.05</text>
	<text transform="matrix(1 0 0 1 117.5892 538.2115)" style="font-family:'SourceHanSansTW-Normal-B5pc-H'; font-size:19px;">-3.33</text>
	<text transform="matrix(1 0 0 1 72.5589 579.9762)" style="font-family:'SourceHanSansTW-Normal-B5pc-H'; font-size:19px;">史坦普五百指數</text>
	<text transform="matrix(1 0 0 1 232.2944 579.9762)" style="font-family:'SourceHanSansTW-Normal-B5pc-H'; font-size:19px;">彭博巴克萊美國複合債</text>
	<rect x="110.94" y="401.55" class="st1" width="56" height="117.39"/>
	<rect x="299.29" y="363.65" class="st2" width="56" height="37.9"/>
</g>
</svg>
