<?xml version="1.0" encoding="utf-8"?>
<!-- Generator: Adobe Illustrator 24.0.0, SVG Export Plug-In . SVG Version: 6.00 Build 0)  -->
<svg version="1.1" id="圖層_1" xmlns="http://www.w3.org/2000/svg" xmlns:xlink="http://www.w3.org/1999/xlink" x="0px" y="0px"
	 viewBox="0 0 368.5 244.59" style="enable-background:new 0 0 368.5 244.59;" xml:space="preserve">
<style type="text/css">
	.st0{fill:none;stroke:#AFAFAF;stroke-miterlimit:10;}
	.st1{fill:#0F347F;}
	.st2{fill:#F4DC24;}
</style>
<g>
	<line class="st0" x1="35.08" y1="8.11" x2="35.08" y2="209.71"/>
	<line class="st0" x1="28.96" y1="204.53" x2="365.9" y2="204.53"/>
	<line class="st0" x1="28.96" y1="8.11" x2="35.08" y2="8.11"/>
	<line class="st0" x1="28.96" y1="48" x2="35.08" y2="48"/>
	<line class="st0" x1="28.96" y1="86.89" x2="35.08" y2="86.89"/>
	<line class="st0" x1="28.96" y1="127.26" x2="35.08" y2="127.26"/>
	<line class="st0" x1="28.96" y1="165.9" x2="35.08" y2="165.9"/>
	<line class="st0" x1="200.25" y1="204.53" x2="200.25" y2="209.71"/>
	<line class="st0" x1="365.9" y1="204.53" x2="365.9" y2="209.71"/>
	<rect x="84.49" y="22.59" class="st1" width="64.94" height="181.94"/>
	<rect x="251.08" y="116.91" class="st2" width="64.94" height="87.62"/>
	<g>
		<path d="M99.89,11.18h-1.9v3.88h-1.46v-3.88h-6.1v-1.01l5.91-9.02h1.65v8.8h1.9V11.18z M96.52,9.95V5.43
			c0-0.68,0.06-1.79,0.11-2.47h-0.1c-0.34,0.67-0.72,1.35-1.1,2.01l-3.36,4.98H96.52z"/>
		<path d="M101.88,14.09c0-0.76,0.53-1.25,1.16-1.25c0.65,0,1.18,0.49,1.18,1.25c0,0.72-0.53,1.22-1.18,1.22
			C102.41,15.31,101.88,14.81,101.88,14.09z"/>
		<path d="M114.1,3.26c-0.57-0.67-1.41-1.06-2.24-1.06c-1.96,0-3.61,1.5-3.69,5.95c0.87-1.04,2.09-1.69,3.21-1.69
			c2.36,0,3.84,1.46,3.84,4.37c0,2.66-1.8,4.48-3.91,4.48c-2.68,0-4.6-2.32-4.6-6.86c0-5.49,2.43-7.54,5.09-7.54
			c1.39,0,2.41,0.59,3.17,1.39L114.1,3.26z M113.74,10.82c0-1.94-0.82-3.21-2.6-3.21c-0.89,0-1.98,0.51-2.93,1.84
			c0.19,2.95,1.25,4.62,3.1,4.62C112.69,14.07,113.74,12.74,113.74,10.82z"/>
		<path d="M116.91,11.6c0-1.88,1.31-3.17,2.58-3.88V7.65c-1.01-0.68-1.88-1.73-1.88-3.19c0-2.09,1.61-3.51,3.74-3.51
			c2.36,0,3.78,1.54,3.78,3.67c0,1.46-1.06,2.74-1.88,3.38v0.1c1.22,0.7,2.36,1.75,2.36,3.65c0,1.99-1.73,3.57-4.29,3.57
			C118.77,15.31,116.91,13.75,116.91,11.6z M124.13,11.7c0-1.94-1.79-2.66-3.8-3.48c-1.18,0.74-2.01,1.88-2.01,3.27
			c0,1.52,1.29,2.66,3.02,2.66C123.01,14.15,124.13,13.1,124.13,11.7z M123.79,4.69c0-1.41-0.89-2.57-2.47-2.57
			c-1.31,0-2.28,0.95-2.28,2.34c0,1.73,1.58,2.47,3.23,3.12C123.26,6.74,123.79,5.75,123.79,4.69z"/>
		<path d="M127.25,5.26c0-2.79,1.22-4.35,3.12-4.35s3.12,1.56,3.12,4.35c0,2.81-1.22,4.41-3.12,4.41S127.25,8.07,127.25,5.26z
			 M132.28,5.26c0-2.24-0.78-3.38-1.92-3.38c-1.14,0-1.92,1.14-1.92,3.38c0,2.24,0.78,3.42,1.92,3.42
			C131.5,8.68,132.28,7.5,132.28,5.26z M138.46,0.91h1.08l-7.69,14.4h-1.08L138.46,0.91z M136.86,10.9c0-2.77,1.22-4.35,3.12-4.35
			c1.86,0,3.12,1.58,3.12,4.35c0,2.83-1.25,4.41-3.12,4.41C138.08,15.31,136.86,13.73,136.86,10.9z M141.89,10.9
			c0-2.24-0.78-3.36-1.92-3.36c-1.16,0-1.92,1.12-1.92,3.36c0,2.26,0.76,3.44,1.92,3.44C141.12,14.34,141.89,13.16,141.89,10.9z"/>
	</g>
	<g>
		<path d="M257.51,101.53c4.45-3.88,6.42-6.69,6.42-9.1c0-1.63-0.85-2.87-2.64-2.87c-1.16,0-2.17,0.72-2.96,1.65l-0.91-0.87
			c1.12-1.22,2.32-2.03,4.05-2.03c2.47,0,3.99,1.6,3.99,4.07c0,2.81-2.2,5.68-5.6,8.87c0.74-0.08,1.58-0.11,2.28-0.11h3.99v1.33
			h-8.61V101.53z"/>
		<path d="M268.47,101.49c0-0.76,0.53-1.25,1.16-1.25c0.65,0,1.18,0.49,1.18,1.25c0,0.72-0.53,1.22-1.18,1.22
			C269,102.71,268.47,102.22,268.47,101.49z"/>
		<path d="M273.07,101.53c4.45-3.88,6.42-6.69,6.42-9.1c0-1.63-0.85-2.87-2.64-2.87c-1.16,0-2.17,0.72-2.96,1.65l-0.91-0.87
			c1.12-1.22,2.32-2.03,4.05-2.03c2.47,0,3.99,1.6,3.99,4.07c0,2.81-2.2,5.68-5.6,8.87c0.74-0.08,1.58-0.11,2.28-0.11h3.99v1.33
			h-8.61V101.53z"/>
		<path d="M290.4,89.89h-6.82v-1.33h8.61v0.93c-3.29,4.24-3.89,7.54-4.12,12.97h-1.61C286.67,97.11,287.66,93.69,290.4,89.89z"/>
		<path d="M293.84,92.66c0-2.79,1.22-4.35,3.12-4.35s3.12,1.56,3.12,4.35c0,2.81-1.22,4.41-3.12,4.41S293.84,95.47,293.84,92.66z
			 M298.87,92.66c0-2.24-0.78-3.38-1.92-3.38c-1.14,0-1.92,1.14-1.92,3.38c0,2.24,0.78,3.42,1.92,3.42
			C298.09,96.08,298.87,94.9,298.87,92.66z M305.04,88.31h1.08l-7.69,14.4h-1.08L305.04,88.31z M303.45,98.3
			c0-2.77,1.22-4.35,3.12-4.35c1.86,0,3.12,1.58,3.12,4.35c0,2.83-1.25,4.41-3.12,4.41C304.66,102.71,303.45,101.13,303.45,98.3z
			 M308.48,98.3c0-2.24-0.78-3.36-1.92-3.36c-1.16,0-1.92,1.12-1.92,3.36c0,2.26,0.76,3.44,1.92,3.44
			C307.7,101.74,308.48,100.56,308.48,98.3z"/>
	</g>
	<g>
		<path d="M271.88,236.67l-2.41,0.74v5.64c0,0.74-0.19,1.08-0.65,1.29c-0.48,0.21-1.22,0.25-2.47,0.23
			c-0.06-0.3-0.25-0.82-0.42-1.16c0.87,0.02,1.69,0.02,1.92,0c0.25,0,0.36-0.08,0.36-0.36v-5.24l-2.66,0.82l-0.4-1.25
			c0.84-0.23,1.9-0.51,3.06-0.86v-4.14h-2.75v-1.22h2.75v-3.84h1.25v3.84h2.2v1.22h-2.2v3.76c0.74-0.19,1.5-0.44,2.24-0.67
			L271.88,236.67z M275.26,234.68c-1.75,0-2.3-0.55-2.3-2.13v-5.19h1.23v2.34h7.69v1.12h-7.69v1.77c0,0.72,0.21,0.99,1.04,0.99h5.11
			c0.63,0,1.61-0.04,2.03-0.11c0.06,0.34,0.11,0.82,0.17,1.1c-0.34,0.09-1.25,0.11-2.13,0.11H275.26z M272.96,236.37h8.85v8.15
			h-1.25v-0.8h-6.4v0.87h-1.2V236.37z M274.16,237.47v2.01h6.4v-2.01H274.16z M280.56,242.66v-2.13h-6.4v2.13H280.56z"/>
		<path d="M292.74,239.71c-0.17,0.83-0.61,1.71-1.67,2.54c0.85,0.38,1.63,0.78,2.22,1.1l-0.87,0.78c-0.61-0.4-1.42-0.82-2.34-1.25
			c-1.2,0.65-2.91,1.25-5.32,1.69c-0.11-0.27-0.34-0.63-0.53-0.84c2.09-0.38,3.59-0.84,4.69-1.35c-1.01-0.42-2.05-0.82-3.02-1.08
			c0.32-0.38,0.65-0.8,0.97-1.27l-2.3,0.13l-0.13-0.97c0.87-0.04,1.92-0.08,3.1-0.13c0.32-0.53,0.63-1.04,0.91-1.56h-3.15v-3.02
			h3.61v-0.84h-3.08v-2.07h-1.25v-0.99h1.25v-1.94h3.08v-1.37h1.03v1.37h3.27v1.94h1.29v0.99h-1.29v2.07h-3.27v0.84h3.74v3.02h-4.05
			c-0.25,0.49-0.53,0.99-0.84,1.5l3-0.15c0-0.09,0-0.19,0-0.29v-0.67h1.04v0.7v0.19l1.03-0.06l-0.02,0.89L292.74,239.71z
			 M286.38,236.63h2.53v-1.27h-2.53V236.63z M286.91,229.55v1.08h2v-1.08H286.91z M288.9,232.74v-1.22h-2v1.22H288.9z
			 M288.16,239.98c-0.23,0.3-0.44,0.61-0.65,0.87c0.82,0.27,1.67,0.59,2.49,0.93c0.97-0.65,1.41-1.37,1.61-2.01L288.16,239.98z
			 M289.93,229.55v1.08h2.13v-1.08H289.93z M292.06,232.74v-1.22h-2.13v1.22H292.06z M289.93,235.36v1.27h2.6v-1.27H289.93z
			 M300.26,232.09c-0.36,2.85-0.85,5.26-1.71,7.33c0.82,1.77,1.86,3.19,3.23,4.07c-0.27,0.21-0.61,0.59-0.78,0.89
			c-1.25-0.87-2.26-2.17-3.04-3.72c-0.84,1.62-1.96,2.96-3.46,4.05c-0.1-0.23-0.46-0.74-0.7-0.95c1.61-1.1,2.75-2.58,3.59-4.41
			c-0.63-1.56-1.08-3.32-1.44-5.26c-0.32,0.86-0.67,1.62-1.06,2.28c-0.19-0.19-0.63-0.61-0.89-0.78c1.25-1.98,2.01-5.03,2.47-8.13
			l1.08,0.17c-0.15,1.12-0.38,2.24-0.65,3.33h4.67v1.14H300.26z M296.6,232.09c0.3,2.09,0.74,4.08,1.35,5.83
			c0.57-1.69,0.93-3.65,1.18-5.83H296.6z"/>
	</g>
	<g>
		<path d="M111.86,237.49c1.08,1.33,2.74,2.49,4.37,3.08c-0.27,0.23-0.65,0.67-0.82,0.97c-1.84-0.8-3.74-2.34-4.86-4.05h-6.06
			c-1.16,1.77-3.12,3.42-4.94,4.29c-0.17-0.3-0.53-0.72-0.82-0.97c1.6-0.65,3.29-1.92,4.41-3.32h-4.22v-1.08h3.78v-6.14h-2.93v-1.06
			h2.93v-1.9h1.25v1.9h7.05v-1.9h1.27v1.9h2.91v1.06h-2.91v6.14h3.72v1.08H111.86z M108.06,243h6.57v1.08h-14.27V243h6.42v-2.13
			h-3.97v-1.06h3.97v-1.67h1.27v1.67h4.05v1.06h-4.05V243z M103.96,230.27v1.37h7.05v-1.37H103.96z M103.96,233.99h7.05v-1.39h-7.05
			V233.99z M103.96,236.41h7.05v-1.44h-7.05V236.41z"/>
		<path d="M127.65,227.67c-0.13,0.23-0.3,0.44-0.46,0.67c1.88,2.09,5.26,4.14,8.13,5.05c-0.3,0.27-0.66,0.76-0.89,1.1
			c-2.72-1.03-5.91-3.1-7.96-5.28c-1.29,1.48-2.93,2.77-4.71,3.8h9.54v1.18h-4.22v2.68h6.74v1.16h-6.74v4.83h7.56v1.18h-16.32v-1.18
			h7.43v-4.83h-6.59v-1.16h6.59v-2.68h-4.14v-1.1c-1.01,0.57-2.07,1.06-3.13,1.46c-0.19-0.36-0.53-0.85-0.85-1.14
			c3.55-1.18,7.05-3.46,8.85-6.27L127.65,227.67z M121.86,238.55c0.74,1.08,1.52,2.53,1.82,3.46l-1.1,0.46
			c-0.28-0.91-1.03-2.41-1.77-3.5L121.86,238.55z M128.91,242.09c0.67-0.95,1.54-2.49,2.03-3.55l1.2,0.48
			c-0.72,1.2-1.58,2.6-2.28,3.5L128.91,242.09z"/>
	</g>
	<g>
		<path d="M1.57,13.88l0.57-0.76c0.59,0.6,1.34,1.16,2.56,1.16c1.23,0,2.26-0.98,2.26-2.52c0-1.51-0.87-2.42-2.2-2.42
			c-0.7,0-1.15,0.22-1.74,0.62L2.4,9.57L2.72,4.8h4.9v0.98H3.73L3.45,8.9c0.48-0.27,0.95-0.43,1.6-0.43c1.69,0,3.07,1.01,3.07,3.28
			c0,2.23-1.61,3.5-3.31,3.5C3.21,15.24,2.26,14.57,1.57,13.88z"/>
		<path d="M9.43,7.83c0-2.06,0.9-3.21,2.3-3.21c1.4,0,2.3,1.15,2.3,3.21c0,2.07-0.9,3.25-2.3,3.25C10.32,11.08,9.43,9.9,9.43,7.83z
			 M13.14,7.83c0-1.65-0.57-2.49-1.42-2.49c-0.84,0-1.41,0.84-1.41,2.49c0,1.65,0.57,2.52,1.41,2.52
			C12.57,10.35,13.14,9.48,13.14,7.83z M17.69,4.62h0.8l-5.67,10.62h-0.8L17.69,4.62z M16.52,11.99c0-2.04,0.9-3.21,2.3-3.21
			c1.37,0,2.3,1.16,2.3,3.21c0,2.09-0.92,3.25-2.3,3.25C17.41,15.24,16.52,14.08,16.52,11.99z M20.23,11.99
			c0-1.65-0.57-2.48-1.42-2.48c-0.85,0-1.41,0.83-1.41,2.48c0,1.67,0.56,2.54,1.41,2.54C19.65,14.53,20.23,13.66,20.23,11.99z"/>
	</g>
	<g>
		<path d="M8.42,49.38h-1.4v2.86H5.94v-2.86h-4.5v-0.74l4.36-6.65h1.22v6.49h1.4V49.38z M5.94,48.47v-3.33
			c0-0.5,0.04-1.32,0.08-1.82H5.96c-0.25,0.49-0.53,0.99-0.81,1.48l-2.48,3.67H5.94z"/>
		<path d="M9.43,45.01c0-2.06,0.9-3.21,2.3-3.21c1.4,0,2.3,1.15,2.3,3.21c0,2.07-0.9,3.25-2.3,3.25
			C10.32,48.26,9.43,47.08,9.43,45.01z M13.14,45.01c0-1.65-0.57-2.49-1.42-2.49c-0.84,0-1.41,0.84-1.41,2.49
			c0,1.65,0.57,2.52,1.41,2.52C12.57,47.53,13.14,46.66,13.14,45.01z M17.69,41.8h0.8l-5.67,10.62h-0.8L17.69,41.8z M16.52,49.17
			c0-2.04,0.9-3.21,2.3-3.21c1.37,0,2.3,1.16,2.3,3.21c0,2.09-0.92,3.25-2.3,3.25C17.41,52.42,16.52,51.26,16.52,49.17z
			 M20.23,49.17c0-1.65-0.57-2.48-1.42-2.48c-0.85,0-1.41,0.83-1.41,2.48c0,1.67,0.56,2.54,1.41,2.54
			C19.65,51.7,20.23,50.84,20.23,49.17z"/>
	</g>
	<g>
		<path d="M1.6,89.85l0.59-0.74c0.6,0.62,1.37,1.19,2.59,1.19c1.25,0,2.14-0.77,2.14-1.99c0-1.27-0.87-2.13-3.25-2.13v-0.9
			c2.14,0,2.89-0.88,2.89-2.03c0-1.02-0.69-1.69-1.79-1.71c-0.84,0.01-1.58,0.45-2.16,1.04l-0.63-0.74c0.76-0.69,1.65-1.2,2.83-1.22
			c1.68,0.01,2.91,0.92,2.91,2.55c0,1.27-0.74,2.1-1.83,2.49v0.06c1.2,0.28,2.19,1.2,2.19,2.62c0,1.82-1.43,2.91-3.22,2.91
			C3.26,91.25,2.26,90.56,1.6,89.85z"/>
		<path d="M9.43,83.84c0-2.06,0.9-3.21,2.3-3.21c1.4,0,2.3,1.15,2.3,3.21c0,2.07-0.9,3.25-2.3,3.25
			C10.32,87.09,9.43,85.91,9.43,83.84z M13.14,83.84c0-1.65-0.57-2.49-1.42-2.49c-0.84,0-1.41,0.84-1.41,2.49
			c0,1.65,0.57,2.52,1.41,2.52C12.57,86.36,13.14,85.49,13.14,83.84z M17.69,80.63h0.8l-5.67,10.62h-0.8L17.69,80.63z M16.52,88
			c0-2.04,0.9-3.21,2.3-3.21c1.37,0,2.3,1.16,2.3,3.21c0,2.09-0.92,3.25-2.3,3.25C17.41,91.25,16.52,90.09,16.52,88z M20.23,88
			c0-1.65-0.57-2.48-1.42-2.48c-0.85,0-1.41,0.83-1.41,2.48c0,1.67,0.56,2.54,1.41,2.54C19.65,90.53,20.23,89.67,20.23,88z"/>
	</g>
	<g>
		<path d="M1.81,130.33c3.28-2.86,4.73-4.93,4.73-6.71c0-1.21-0.63-2.12-1.95-2.12c-0.85,0-1.6,0.53-2.19,1.22l-0.67-0.64
			c0.83-0.9,1.71-1.5,2.98-1.5c1.82,0,2.94,1.18,2.94,3c0,2.07-1.62,4.19-4.13,6.54c0.55-0.06,1.16-0.08,1.68-0.08h2.94v0.98H1.81
			V130.33z"/>
		<path d="M9.43,123.79c0-2.06,0.9-3.21,2.3-3.21c1.4,0,2.3,1.15,2.3,3.21c0,2.07-0.9,3.25-2.3,3.25
			C10.32,127.04,9.43,125.86,9.43,123.79z M13.14,123.79c0-1.65-0.57-2.49-1.42-2.49c-0.84,0-1.41,0.84-1.41,2.49
			c0,1.65,0.57,2.52,1.41,2.52C12.57,126.31,13.14,125.44,13.14,123.79z M17.69,120.58h0.8l-5.67,10.62h-0.8L17.69,120.58z
			 M16.52,127.95c0-2.04,0.9-3.21,2.3-3.21c1.37,0,2.3,1.16,2.3,3.21c0,2.09-0.92,3.25-2.3,3.25
			C17.41,131.2,16.52,130.03,16.52,127.95z M20.23,127.95c0-1.65-0.57-2.48-1.42-2.48c-0.85,0-1.41,0.83-1.41,2.48
			c0,1.67,0.56,2.54,1.41,2.54C19.65,130.48,20.23,129.61,20.23,127.95z"/>
	</g>
	<g>
		<path d="M2.43,170.06h2.3v-7.86H2.92v-0.74c0.88-0.15,1.54-0.38,2.07-0.7h0.87v9.3h2.09v0.95H2.43V170.06z"/>
		<path d="M9.43,163.79c0-2.06,0.9-3.21,2.3-3.21c1.4,0,2.3,1.15,2.3,3.21c0,2.07-0.9,3.25-2.3,3.25
			C10.32,167.04,9.43,165.86,9.43,163.79z M13.14,163.79c0-1.65-0.57-2.49-1.42-2.49c-0.84,0-1.41,0.84-1.41,2.49
			c0,1.65,0.57,2.52,1.41,2.52C12.57,166.31,13.14,165.44,13.14,163.79z M17.69,160.58h0.8l-5.67,10.62h-0.8L17.69,160.58z
			 M16.52,167.95c0-2.04,0.9-3.21,2.3-3.21c1.37,0,2.3,1.16,2.3,3.21c0,2.09-0.92,3.25-2.3,3.25
			C17.41,171.2,16.52,170.03,16.52,167.95z M20.23,167.95c0-1.65-0.57-2.48-1.42-2.48c-0.85,0-1.41,0.83-1.41,2.48
			c0,1.67,0.56,2.54,1.41,2.54C19.65,170.48,20.23,169.61,20.23,167.95z"/>
	</g>
	<g>
		<path d="M1.88,203.44c0-3.56,1.22-5.27,3.15-5.27c1.92,0,3.12,1.72,3.12,5.27c0,3.59-1.2,5.35-3.12,5.35
			C3.1,208.79,1.88,207.03,1.88,203.44z M7.05,203.44c0-3-0.81-4.34-2.02-4.34c-1.22,0-2.04,1.34-2.04,4.34
			c0,3.05,0.83,4.43,2.04,4.43C6.24,207.87,7.05,206.5,7.05,203.44z"/>
		<path d="M9.43,201.38c0-2.06,0.9-3.21,2.3-3.21c1.4,0,2.3,1.15,2.3,3.21c0,2.07-0.9,3.25-2.3,3.25
			C10.32,204.63,9.43,203.46,9.43,201.38z M13.14,201.38c0-1.65-0.57-2.49-1.42-2.49c-0.84,0-1.41,0.84-1.41,2.49
			c0,1.65,0.57,2.52,1.41,2.52C12.57,203.9,13.14,203.04,13.14,201.38z M17.69,198.18h0.8l-5.67,10.62h-0.8L17.69,198.18z
			 M16.52,205.54c0-2.04,0.9-3.21,2.3-3.21c1.37,0,2.3,1.16,2.3,3.21c0,2.09-0.92,3.25-2.3,3.25
			C17.41,208.79,16.52,207.63,16.52,205.54z M20.23,205.54c0-1.65-0.57-2.48-1.42-2.48c-0.85,0-1.41,0.83-1.41,2.48
			c0,1.67,0.56,2.54,1.41,2.54C19.65,208.08,20.23,207.21,20.23,205.54z"/>
	</g>
</g>
<g>
	<line class="st0" x1="35.08" y1="282.11" x2="35.08" y2="483.71"/>
	<line class="st0" x1="28.96" y1="478.53" x2="365.9" y2="478.53"/>
	<line class="st0" x1="28.96" y1="282.11" x2="35.08" y2="282.11"/>
	<line class="st0" x1="28.96" y1="322" x2="35.08" y2="322"/>
	<line class="st0" x1="28.96" y1="360.89" x2="35.08" y2="360.89"/>
	<line class="st0" x1="28.96" y1="401.26" x2="35.08" y2="401.26"/>
	<line class="st0" x1="28.96" y1="439.9" x2="35.08" y2="439.9"/>
	<line class="st0" x1="200.25" y1="478.53" x2="200.25" y2="483.71"/>
	<line class="st0" x1="365.9" y1="478.53" x2="365.9" y2="483.71"/>
	<rect x="84.49" y="296.59" class="st1" width="64.94" height="181.94"/>
	<rect x="251.08" y="390.91" class="st2" width="64.94" height="87.62"/>
	<text transform="matrix(1 0 0 1 90.0639 289.0589)" style="font-family:'SourceHanSansTW-Normal-B5pc-H'; font-size:19px;">4.68%</text>
	<text transform="matrix(1 0 0 1 256.6521 376.4628)" style="font-family:'SourceHanSansTW-Normal-B5pc-H'; font-size:19px;">2.27%</text>
	<text transform="matrix(1 0 0 1 264.5462 517.1687)" style="font-family:'SourceHanSansTW-Normal-B5pc-H'; font-size:19px;">指數</text>
	<text transform="matrix(1 0 0 1 97.9578 517.1687)" style="font-family:'SourceHanSansTW-Normal-B5pc-H'; font-size:19px;">基金</text>
	<text transform="matrix(1 0 0 1 1.1818 289.0587)" style="font-family:'SourceHanSansTW-Normal-B5pc-H'; font-size:14px;">5%</text>
	<text transform="matrix(1 0 0 1 1.1818 326.2354)" style="font-family:'SourceHanSansTW-Normal-B5pc-H'; font-size:14px;">4%</text>
	<text transform="matrix(1 0 0 1 1.1818 365.0663)" style="font-family:'SourceHanSansTW-Normal-B5pc-H'; font-size:14px;">3%</text>
	<text transform="matrix(1 0 0 1 1.1818 405.0151)" style="font-family:'SourceHanSansTW-Normal-B5pc-H'; font-size:14px;">2%</text>
	<text transform="matrix(1 0 0 1 1.1818 445.0151)" style="font-family:'SourceHanSansTW-Normal-B5pc-H'; font-size:14px;">1%</text>
	<text transform="matrix(1 0 0 1 1.1818 482.611)" style="font-family:'SourceHanSansTW-Normal-B5pc-H'; font-size:14px;">0%</text>
</g>
</svg>
