<?xml version="1.0" encoding="utf-8"?>
<!-- Generator: Adobe Illustrator 24.0.0, SVG Export Plug-In . SVG Version: 6.00 Build 0)  -->
<svg version="1.1" id="圖層_1" xmlns="http://www.w3.org/2000/svg" xmlns:xlink="http://www.w3.org/1999/xlink" x="0px" y="0px"
	 viewBox="0 0 423.06 262.59" style="enable-background:new 0 0 423.06 262.59;" xml:space="preserve">
<style type="text/css">
	.st0{fill:none;stroke:#AFAFAF;stroke-miterlimit:10;}
	.st1{fill:#6D6D6D;}
	.st2{fill:#0A338C;}
</style>
<g>
	<line class="st0" x1="56.82" y1="10.88" x2="419.06" y2="10.88"/>
	<line class="st0" x1="56.82" y1="63.5" x2="419.06" y2="63.5"/>
	<line class="st0" x1="56.82" y1="116.11" x2="419.06" y2="116.11"/>
	<line class="st0" x1="56.82" y1="168.72" x2="419.06" y2="168.72"/>
	<line class="st0" x1="56.82" y1="221.33" x2="419.06" y2="221.33"/>
	<g>
		<path d="M3.77,11.81c0-1.88,1.31-3.17,2.58-3.88V7.86C5.35,7.18,4.47,6.13,4.47,4.67c0-2.09,1.61-3.51,3.74-3.51
			c2.36,0,3.78,1.54,3.78,3.67c0,1.46-1.06,2.74-1.88,3.38v0.1c1.22,0.7,2.36,1.75,2.36,3.65c0,1.99-1.73,3.57-4.29,3.57
			C5.63,15.52,3.77,13.96,3.77,11.81z M10.99,11.91c0-1.94-1.79-2.66-3.8-3.48c-1.18,0.74-2.01,1.88-2.01,3.27
			c0,1.52,1.29,2.66,3.02,2.66C9.87,14.36,10.99,13.31,10.99,11.91z M10.65,4.9c0-1.41-0.89-2.57-2.47-2.57
			c-1.31,0-2.28,0.95-2.28,2.34c0,1.73,1.58,2.47,3.23,3.12C10.12,6.95,10.65,5.96,10.65,4.9z"/>
		<path d="M14.73,14.3c0-0.76,0.53-1.25,1.16-1.25c0.65,0,1.18,0.49,1.18,1.25c0,0.72-0.53,1.22-1.18,1.22
			C15.27,15.52,14.73,15.02,14.73,14.3z"/>
		<path d="M19.43,8.26c0-4.83,1.65-7.14,4.27-7.14c2.6,0,4.24,2.34,4.24,7.14c0,4.86-1.63,7.26-4.24,7.26
			C21.08,15.52,19.43,13.12,19.43,8.26z M26.44,8.26c0-4.07-1.1-5.89-2.74-5.89c-1.65,0-2.77,1.82-2.77,5.89c0,4.14,1.12,6,2.77,6
			C25.34,14.26,26.44,12.4,26.44,8.26z"/>
		<path d="M29.86,8.26c0-4.83,1.65-7.14,4.27-7.14c2.6,0,4.24,2.34,4.24,7.14c0,4.86-1.63,7.26-4.24,7.26
			C31.51,15.52,29.86,13.12,29.86,8.26z M36.87,8.26c0-4.07-1.1-5.89-2.74-5.89c-1.65,0-2.77,1.82-2.77,5.89c0,4.14,1.12,6,2.77,6
			C35.77,14.26,36.87,12.4,36.87,8.26z"/>
	</g>
	<g>
		<path d="M11.39,56.62c-0.57-0.67-1.41-1.06-2.24-1.06c-1.96,0-3.61,1.5-3.69,5.95c0.87-1.04,2.09-1.69,3.21-1.69
			c2.36,0,3.84,1.46,3.84,4.37c0,2.66-1.8,4.48-3.91,4.48c-2.68,0-4.6-2.32-4.6-6.86c0-5.49,2.43-7.54,5.09-7.54
			c1.39,0,2.41,0.59,3.17,1.39L11.39,56.62z M11.03,64.18c0-1.94-0.82-3.21-2.6-3.21c-0.89,0-1.98,0.51-2.93,1.84
			c0.19,2.95,1.25,4.62,3.1,4.62C9.98,67.43,11.03,66.1,11.03,64.18z"/>
		<path d="M14.73,67.45c0-0.76,0.53-1.25,1.16-1.25c0.65,0,1.18,0.49,1.18,1.25c0,0.72-0.53,1.22-1.18,1.22
			C15.27,68.67,14.73,68.17,14.73,67.45z"/>
		<path d="M19.43,61.41c0-4.83,1.65-7.14,4.27-7.14c2.6,0,4.24,2.34,4.24,7.14c0,4.86-1.63,7.26-4.24,7.26
			C21.08,68.67,19.43,66.27,19.43,61.41z M26.44,61.41c0-4.07-1.1-5.89-2.74-5.89c-1.65,0-2.77,1.82-2.77,5.89c0,4.14,1.12,6,2.77,6
			C25.34,67.41,26.44,65.55,26.44,61.41z"/>
		<path d="M29.86,61.41c0-4.83,1.65-7.14,4.27-7.14c2.6,0,4.24,2.34,4.24,7.14c0,4.86-1.63,7.26-4.24,7.26
			C31.51,68.67,29.86,66.27,29.86,61.41z M36.87,61.41c0-4.07-1.1-5.89-2.74-5.89c-1.65,0-2.77,1.82-2.77,5.89c0,4.14,1.12,6,2.77,6
			C35.77,67.41,36.87,65.55,36.87,61.41z"/>
	</g>
	<g>
		<path d="M12.74,117.69h-1.9v3.88H9.38v-3.88h-6.1v-1.01l5.91-9.02h1.65v8.8h1.9V117.69z M9.38,116.45v-4.52
			c0-0.68,0.06-1.79,0.11-2.47h-0.1c-0.34,0.67-0.72,1.35-1.1,2.01l-3.36,4.98H9.38z"/>
		<path d="M14.73,120.6c0-0.76,0.53-1.25,1.16-1.25c0.65,0,1.18,0.49,1.18,1.25c0,0.72-0.53,1.22-1.18,1.22
			C15.27,121.81,14.73,121.32,14.73,120.6z"/>
		<path d="M19.43,114.56c0-4.83,1.65-7.14,4.27-7.14c2.6,0,4.24,2.34,4.24,7.14c0,4.86-1.63,7.26-4.24,7.26
			C21.08,121.81,19.43,119.42,19.43,114.56z M26.44,114.56c0-4.07-1.1-5.89-2.74-5.89c-1.65,0-2.77,1.82-2.77,5.89
			c0,4.14,1.12,6,2.77,6C25.34,120.56,26.44,118.7,26.44,114.56z"/>
		<path d="M29.86,114.56c0-4.83,1.65-7.14,4.27-7.14c2.6,0,4.24,2.34,4.24,7.14c0,4.86-1.63,7.26-4.24,7.26
			C31.51,121.81,29.86,119.42,29.86,114.56z M36.87,114.56c0-4.07-1.1-5.89-2.74-5.89c-1.65,0-2.77,1.82-2.77,5.89
			c0,4.14,1.12,6,2.77,6C35.77,120.56,36.87,118.7,36.87,114.56z"/>
	</g>
	<g>
		<path d="M3.77,173.78c4.45-3.88,6.42-6.69,6.42-9.1c0-1.63-0.85-2.87-2.64-2.87c-1.16,0-2.17,0.72-2.96,1.65l-0.91-0.87
			c1.12-1.22,2.32-2.03,4.05-2.03c2.47,0,3.99,1.6,3.99,4.07c0,2.81-2.2,5.68-5.6,8.87c0.74-0.08,1.58-0.11,2.28-0.11h3.99v1.33
			H3.77V173.78z"/>
		<path d="M14.73,173.74c0-0.76,0.53-1.25,1.16-1.25c0.65,0,1.18,0.49,1.18,1.25c0,0.72-0.53,1.22-1.18,1.22
			C15.27,174.96,14.73,174.46,14.73,173.74z"/>
		<path d="M19.43,167.7c0-4.83,1.65-7.14,4.27-7.14c2.6,0,4.24,2.34,4.24,7.14c0,4.86-1.63,7.26-4.24,7.26
			C21.08,174.96,19.43,172.56,19.43,167.7z M26.44,167.7c0-4.07-1.1-5.89-2.74-5.89c-1.65,0-2.77,1.82-2.77,5.89
			c0,4.14,1.12,6,2.77,6C25.34,173.7,26.44,171.84,26.44,167.7z"/>
		<path d="M29.86,167.7c0-4.83,1.65-7.14,4.27-7.14c2.6,0,4.24,2.34,4.24,7.14c0,4.86-1.63,7.26-4.24,7.26
			C31.51,174.96,29.86,172.56,29.86,167.7z M36.87,167.7c0-4.07-1.1-5.89-2.74-5.89c-1.65,0-2.77,1.82-2.77,5.89
			c0,4.14,1.12,6,2.77,6C35.77,173.7,36.87,171.84,36.87,167.7z"/>
	</g>
	<g>
		<path d="M3.87,220.85c0-4.83,1.65-7.14,4.27-7.14c2.6,0,4.24,2.34,4.24,7.14c0,4.86-1.63,7.26-4.24,7.26
			C5.52,228.11,3.87,225.71,3.87,220.85z M10.88,220.85c0-4.07-1.1-5.89-2.74-5.89c-1.65,0-2.77,1.82-2.77,5.89
			c0,4.14,1.12,6,2.77,6C9.77,226.85,10.88,224.99,10.88,220.85z"/>
		<path d="M14.73,226.89c0-0.76,0.53-1.25,1.16-1.25c0.65,0,1.18,0.49,1.18,1.25c0,0.72-0.53,1.22-1.18,1.22
			C15.27,228.11,14.73,227.61,14.73,226.89z"/>
		<path d="M19.43,220.85c0-4.83,1.65-7.14,4.27-7.14c2.6,0,4.24,2.34,4.24,7.14c0,4.86-1.63,7.26-4.24,7.26
			C21.08,228.11,19.43,225.71,19.43,220.85z M26.44,220.85c0-4.07-1.1-5.89-2.74-5.89c-1.65,0-2.77,1.82-2.77,5.89
			c0,4.14,1.12,6,2.77,6C25.34,226.85,26.44,224.99,26.44,220.85z"/>
		<path d="M29.86,220.85c0-4.83,1.65-7.14,4.27-7.14c2.6,0,4.24,2.34,4.24,7.14c0,4.86-1.63,7.26-4.24,7.26
			C31.51,228.11,29.86,225.71,29.86,220.85z M36.87,220.85c0-4.07-1.1-5.89-2.74-5.89c-1.65,0-2.77,1.82-2.77,5.89
			c0,4.14,1.12,6,2.77,6C35.77,226.85,36.87,224.99,36.87,220.85z"/>
	</g>
	<g>
		<path d="M131.25,17.34h-6.82v-1.33h8.61v0.93c-3.29,4.24-3.89,7.54-4.12,12.97h-1.61C127.52,24.56,128.51,21.14,131.25,17.34z"/>
		<path d="M135.31,28.95c0-0.76,0.53-1.25,1.16-1.25c0.65,0,1.18,0.49,1.18,1.25c0,0.72-0.53,1.22-1.18,1.22
			C135.84,30.16,135.31,29.67,135.31,28.95z"/>
		<path d="M140.01,22.91c0-4.83,1.65-7.14,4.27-7.14c2.6,0,4.24,2.34,4.24,7.14c0,4.86-1.63,7.26-4.24,7.26
			C141.66,30.16,140.01,27.77,140.01,22.91z M147.02,22.91c0-4.07-1.1-5.89-2.74-5.89c-1.65,0-2.77,1.82-2.77,5.89
			c0,4.14,1.12,6,2.77,6C145.91,28.91,147.02,27.05,147.02,22.91z"/>
		<path d="M151.18,28.63h3.12V17.97h-2.45v-1.01c1.2-0.21,2.09-0.51,2.81-0.95h1.18v12.61h2.83v1.29h-7.48V28.63z"/>
	</g>
	<g>
		<path d="M311.82,145.96c4.45-3.88,6.42-6.69,6.42-9.1c0-1.63-0.85-2.87-2.64-2.87c-1.16,0-2.17,0.72-2.96,1.65l-0.91-0.87
			c1.12-1.22,2.32-2.03,4.05-2.03c2.47,0,3.99,1.6,3.99,4.07c0,2.81-2.2,5.68-5.6,8.87c0.74-0.08,1.58-0.11,2.28-0.11h3.99v1.33
			h-8.61V145.96z"/>
		<path d="M322.78,145.92c0-0.76,0.53-1.25,1.16-1.25c0.65,0,1.18,0.49,1.18,1.25c0,0.72-0.53,1.22-1.18,1.22
			C323.32,147.14,322.78,146.64,322.78,145.92z"/>
		<path d="M327.06,145.3l0.78-1.03c0.8,0.82,1.82,1.58,3.48,1.58c1.67,0,3.06-1.33,3.06-3.42c0-2.05-1.18-3.29-2.98-3.29
			c-0.95,0-1.56,0.3-2.36,0.84l-0.85-0.53l0.44-6.46h6.65v1.33h-5.28l-0.38,4.22c0.65-0.36,1.29-0.59,2.17-0.59
			c2.3,0,4.16,1.37,4.16,4.45c0,3.02-2.19,4.75-4.48,4.75C329.28,147.14,327.99,146.23,327.06,145.3z"/>
		<path d="M337.91,139.88c0-4.83,1.65-7.14,4.27-7.14c2.6,0,4.24,2.34,4.24,7.14c0,4.86-1.63,7.26-4.24,7.26
			C339.56,147.14,337.91,144.75,337.91,139.88z M344.92,139.88c0-4.07-1.1-5.89-2.74-5.89c-1.65,0-2.77,1.82-2.77,5.89
			c0,4.14,1.12,6,2.77,6C343.82,145.89,344.92,144.02,344.92,139.88z"/>
	</g>
	<g>
		<path d="M85.33,252.92c-0.11,1.77-0.53,3.44-1.88,4.86c2.38,1.35,5.62,1.79,9.95,2c-0.25,0.3-0.49,0.84-0.59,1.27
			c-4.45-0.29-7.83-0.85-10.33-2.39c-1.27,0.95-3.06,1.77-5.62,2.39c-0.15-0.3-0.49-0.82-0.74-1.12c2.41-0.53,4.1-1.22,5.28-2.03
			c-1.18-0.95-2.11-2.2-2.87-3.84l1.1-0.44c0.72,1.48,1.61,2.62,2.75,3.48c1.23-1.22,1.56-2.66,1.65-4.18h-6.42v-6.12h6.46v-2.98
			h1.29v2.98h6.54v6.12H85.33z M84.08,251.7v-0.04v-3.65h-5.22v3.69H84.08z M85.37,248.02v3.65v0.04h5.26v-3.69H85.37z"/>
		<path d="M101.35,256.13c-2.07,0.84-4.27,1.71-5.97,2.37l-0.42-1.29c0.72-0.25,1.63-0.55,2.64-0.91v-6.73h-2.37v-1.2h2.37v-4.41
			h1.22v4.41h2.32v1.2h-2.32v6.29c0.74-0.29,1.54-0.57,2.3-0.87L101.35,256.13z M112.2,259.09v1.2h-11.32v-1.2H112.2z
			 M110.98,256.55h-8.81v-11.42h8.81V256.55z M109.69,246.31h-6.29v3.91h6.29V246.31z M109.69,251.38h-6.29v3.99h6.29V251.38z"/>
		<path d="M131.18,250.98v1.06h-16.91v-1.06h5.93v-3.82h-4.84v-1.06H119c-0.27-0.57-0.74-1.39-1.27-1.92l1.06-0.44
			c0.61,0.59,1.16,1.39,1.41,1.98l-0.82,0.38h5.66c0.47-0.68,1.04-1.67,1.37-2.36l1.23,0.42c-0.4,0.65-0.84,1.37-1.25,1.94h3.84
			v1.06h-5.07v3.82H131.18z M117.27,247.47c0.7,0.84,1.33,2,1.58,2.79l-1.12,0.46c-0.23-0.82-0.84-1.99-1.48-2.85L117.27,247.47z
			 M116.89,253.28h11.74v7.66h-1.27v-0.57h-9.23v0.65h-1.23V253.28z M118.13,254.3v2h9.23v-2H118.13z M127.36,259.32v-2.03h-9.23
			v2.03H127.36z M121.39,250.98h2.56v-3.82h-2.56V250.98z M126.37,250.39c0.55-0.8,1.27-2.11,1.65-3l1.14,0.4
			c-0.55,1.04-1.25,2.2-1.82,2.96L126.37,250.39z"/>
		<path d="M150.12,258.75V260h-16.77v-1.25h4.67c0.38-1.77,0.8-4.07,1.18-6.4h-3.59v-1.23h3.8c0.23-1.46,0.46-2.94,0.63-4.26h-5.47
			v-1.25h14.17v1.25h-7.35c-0.19,1.33-0.42,2.79-0.65,4.26h5.02l0.21-0.06l0.95,0.09c-0.11,2.07-0.4,5.13-0.7,7.6H150.12z
			 M140.53,252.35c-0.38,2.36-0.8,4.65-1.14,6.4h5.53c0.23-2.07,0.48-4.62,0.61-6.4H140.53z"/>
		<path d="M161.29,246.02c-0.27,0.99-0.51,2.09-0.78,2.96h6.5v12.12h-1.31v-1.25h-9.76v1.25h-1.27v-12.12h4.58
			c0.21-0.87,0.44-1.99,0.59-2.96h-7.37v-1.24h16.49v1.24H161.29z M165.7,250.16h-9.76v3.61h9.76V250.16z M165.7,258.65v-3.72h-9.76
			v3.72H165.7z"/>
		<path d="M177.54,253.13l-2.41,0.74v5.64c0,0.74-0.19,1.08-0.65,1.29c-0.48,0.21-1.22,0.25-2.47,0.23
			c-0.06-0.3-0.25-0.82-0.42-1.16c0.87,0.02,1.69,0.02,1.92,0c0.25,0,0.36-0.08,0.36-0.36v-5.24l-2.66,0.82l-0.4-1.25
			c0.84-0.23,1.9-0.51,3.06-0.86v-4.14h-2.75v-1.22h2.75v-3.84h1.25v3.84h2.2v1.22h-2.2v3.76c0.74-0.19,1.5-0.44,2.24-0.67
			L177.54,253.13z M180.92,251.13c-1.75,0-2.3-0.55-2.3-2.13v-5.19h1.23v2.34h7.69v1.12h-7.69v1.77c0,0.72,0.21,0.99,1.04,0.99h5.11
			c0.63,0,1.61-0.04,2.03-0.11c0.06,0.34,0.11,0.82,0.17,1.1c-0.34,0.09-1.25,0.11-2.13,0.11H180.92z M178.62,252.82h8.85v8.15
			h-1.25v-0.8h-6.4v0.87h-1.2V252.82z M179.82,253.92v2.01h6.4v-2.01H179.82z M186.22,259.11v-2.13h-6.4v2.13H186.22z"/>
		<path d="M198.4,256.17c-0.17,0.83-0.61,1.71-1.67,2.54c0.85,0.38,1.63,0.78,2.22,1.1l-0.87,0.78c-0.61-0.4-1.42-0.82-2.34-1.25
			c-1.2,0.65-2.91,1.25-5.32,1.69c-0.11-0.27-0.34-0.63-0.53-0.84c2.09-0.38,3.59-0.84,4.69-1.35c-1.01-0.42-2.05-0.82-3.02-1.08
			c0.32-0.38,0.65-0.8,0.97-1.27l-2.3,0.13l-0.13-0.97c0.87-0.04,1.92-0.08,3.1-0.13c0.32-0.53,0.63-1.04,0.91-1.56h-3.15v-3.02
			h3.61v-0.84h-3.08v-2.07h-1.25v-0.99h1.25v-1.94h3.08v-1.37h1.03v1.37h3.27v1.94h1.29v0.99h-1.29v2.07h-3.27v0.84h3.74v3.02h-4.05
			c-0.25,0.49-0.53,0.99-0.84,1.5l3-0.15c0-0.09,0-0.19,0-0.29v-0.67h1.04v0.7v0.19l1.03-0.06l-0.02,0.89L198.4,256.17z
			 M192.04,253.09h2.53v-1.27h-2.53V253.09z M192.57,246v1.08h2V246H192.57z M194.56,249.19v-1.22h-2v1.22H194.56z M193.82,256.43
			c-0.23,0.3-0.44,0.61-0.65,0.87c0.82,0.27,1.67,0.59,2.49,0.93c0.97-0.65,1.41-1.37,1.61-2.01L193.82,256.43z M195.59,246v1.08
			h2.13V246H195.59z M197.72,249.19v-1.22h-2.13v1.22H197.72z M195.59,251.82v1.27h2.6v-1.27H195.59z M205.92,248.55
			c-0.36,2.85-0.85,5.26-1.71,7.33c0.82,1.77,1.86,3.19,3.23,4.07c-0.27,0.21-0.61,0.59-0.78,0.89c-1.25-0.87-2.26-2.17-3.04-3.72
			c-0.84,1.62-1.96,2.96-3.46,4.05c-0.1-0.23-0.46-0.74-0.7-0.95c1.61-1.1,2.75-2.58,3.59-4.41c-0.63-1.56-1.08-3.32-1.44-5.26
			c-0.32,0.86-0.67,1.62-1.06,2.28c-0.19-0.19-0.63-0.61-0.89-0.78c1.25-1.98,2.01-5.03,2.47-8.13l1.08,0.17
			c-0.15,1.12-0.38,2.24-0.65,3.33h4.67v1.14H205.92z M202.26,248.55c0.3,2.09,0.74,4.08,1.35,5.83c0.57-1.69,0.93-3.65,1.18-5.83
			H202.26z"/>
	</g>
	<g>
		<path d="M243.74,259.13c-3.59,0.57-7.41,1.16-10.01,1.56l-0.21-1.22c1.56-0.19,3.67-0.49,5.95-0.84c0.38-0.93,0.84-2.32,1.06-3.25
			l1.23,0.25c-0.34,0.93-0.72,1.98-1.06,2.81l3-0.44L243.74,259.13z M237.98,246.5h-4.39v-1.04h4.39v-1.67h1.2v1.67h4.39v1.04h-4.39
			v1.9h3.89v1.04h-8.85v-1.04h3.76V246.5z M242.69,255.18h-8.13v-4.24h8.13V255.18z M236.48,258.69c-0.11-0.8-0.49-2.03-0.97-2.98
			l1.03-0.27c0.49,0.91,0.91,2.13,1.06,2.95L236.48,258.69z M241.49,251.93h-5.79v2.26h5.79V251.93z M250.67,255.2
			c-1.48,2.43-4.03,4.58-6.73,5.87c-0.21-0.3-0.59-0.74-0.89-0.99c2.58-1.14,5.11-3.15,6.46-5.36L250.67,255.2z M249.76,244.6
			c-1.25,1.65-3.21,3.3-4.92,4.31c-0.23-0.27-0.61-0.65-0.93-0.89c1.65-0.89,3.61-2.45,4.67-3.91L249.76,244.6z M250.25,249.76
			c-1.37,1.75-3.5,3.48-5.4,4.56c-0.23-0.27-0.61-0.65-0.91-0.87c1.8-0.97,3.95-2.6,5.15-4.18L250.25,249.76z"/>
		<path d="M255.94,249.97v11.08h-1.23v-11.08h-2.37v-1.18h2.37v-5.03h1.23v5.03h2.09v1.18H255.94z M269.61,256.64h-2.81v3.04
			c0,0.68-0.15,0.99-0.66,1.18c-0.53,0.19-1.41,0.19-2.77,0.19c-0.06-0.32-0.23-0.76-0.38-1.08c1.1,0.02,2.03,0.02,2.3,0
			c0.3,0,0.36-0.08,0.36-0.3v-3.02h-5.36c0.95,0.67,2.24,1.61,2.89,2.18l-0.8,0.85c-0.67-0.59-1.92-1.61-2.87-2.32l0.74-0.72h-2.68
			v-1.06h8.07v-1.03h1.16v1.03h2.81V256.64z M263.17,246.88h-5.02v-1.04h5.02v-2.07h1.18v2.07h3.51c-0.7-0.4-1.75-0.93-2.56-1.33
			l0.61-0.72c0.93,0.42,2.18,1.03,2.87,1.41l-0.46,0.65h1.08v1.04h-5.05v1.03h4.27v5.47c0,0.57-0.11,0.76-0.51,0.91
			c-0.4,0.17-1.01,0.17-1.98,0.17c-0.06-0.29-0.25-0.61-0.38-0.86c0.7,0.02,1.31,0.02,1.48,0c0.21,0,0.27-0.06,0.27-0.25v-0.66
			h-3.15v1.42h-1.18v-1.42h-3.02v1.75h-1.12v-6.54h4.14V246.88z M260.15,248.81v1.14h3.02v-1.14H260.15z M263.17,251.85v-1.06h-3.02
			v1.06H263.17z M264.35,248.81v1.14h3.15v-1.14H264.35z M267.5,251.85v-1.06h-3.15v1.06H267.5z"/>
		<path d="M284.55,259.43c1.96,0,2.3-0.65,2.56-3.29c0.32,0.23,0.89,0.44,1.27,0.51c-0.32,3-0.93,4.01-3.84,4.01h-7.64
			c-3,0-3.93-0.61-3.93-3.1v-12.73h13.73v8.95h-1.29v-1.01h-11.15v4.83c0,1.44,0.42,1.82,2.51,1.82H284.55z M274.27,246.08v5.49
			h4.96v-5.49H274.27z M285.42,246.08h-4.94v5.49h4.94V246.08z"/>
		<path d="M305.43,259.68c0.8,0,0.93-0.38,1.01-2.83c0.29,0.23,0.82,0.44,1.18,0.53c-0.15,2.81-0.53,3.5-2.09,3.5h-3.1
			c-1.69,0-2.15-0.4-2.15-1.84v-4.45h-2.94c-0.46,3.31-1.67,5.43-6.19,6.52c-0.13-0.34-0.49-0.87-0.74-1.16
			c4.18-0.86,5.22-2.62,5.59-5.36h-3.02v-5.51h5.32v-2.22h-7.45v-1.16h7.45v-1.96h1.27v1.96h7.6v1.16h-7.6v2.22h5.51v5.51h-3.51
			v4.45c0,0.55,0.15,0.65,0.99,0.65H305.43z M294.18,253.45h9.61v-3.23h-9.61V253.45z"/>
		<path d="M318.56,253.16c1.58,2.89,4.65,5.26,8.19,6.25c-0.29,0.27-0.68,0.76-0.85,1.1c-2.93-0.97-5.57-2.91-7.33-5.38v5.93h-1.25
			v-5.96c-1.8,2.49-4.43,4.48-7.24,5.53c-0.17-0.34-0.55-0.8-0.85-1.08c3.42-1.08,6.52-3.59,8.09-6.52v-2.85h-7.48v-1.14h7.48v-1.79
			h1.25v1.79h7.58v1.14h-7.58V253.16z M313.24,246.46h-3.55v-1.16h3.55v-1.54h1.23v1.54h3.1v1.16h-3.1V248h-1.23V246.46z
			 M314.15,250.89c-0.15,0.55-0.32,1.04-0.53,1.54c0.78,0.72,1.67,1.67,2.13,2.28l-0.91,0.63c-0.36-0.51-1.03-1.27-1.71-1.94
			c-0.59,1.08-1.35,2.03-2.2,2.75c-0.19-0.19-0.68-0.57-0.95-0.74c1.44-1.06,2.51-2.77,3-4.75L314.15,250.89z M321.37,246.46h-3
			v-1.16h3v-1.52h1.25v1.52h3.72v1.16h-3.72V248h-1.25V246.46z M323.4,250.85c-0.11,0.53-0.27,1.04-0.44,1.54
			c1.04,0.86,2.3,1.98,2.96,2.74L325,255.9c-0.53-0.67-1.56-1.65-2.51-2.49c-0.42,0.78-0.91,1.46-1.48,2.01
			c-0.23-0.15-0.76-0.46-1.08-0.57c1.12-1.01,1.94-2.49,2.3-4.2L323.4,250.85z"/>
		<path d="M345.44,252.06v1.12h-7.96c-0.06,0.53-0.15,1.06-0.25,1.54h7.94v1.12h-8.26c-0.89,2.66-2.93,4.29-7.92,5.15
			c-0.09-0.3-0.42-0.86-0.65-1.12c4.48-0.67,6.34-1.94,7.2-4.03h-6.5v-1.12h6.86c0.11-0.47,0.21-0.99,0.27-1.54h-7.56v-1.12h7.69
			v-1.73h-5.96v-1.1h5.96v-1.63h-6.97v-1.16h4.05c-0.32-0.68-0.95-1.6-1.52-2.3l1.1-0.46c0.68,0.74,1.37,1.75,1.67,2.43l-0.67,0.32
			h5.13c0.59-0.8,1.29-1.94,1.71-2.75l1.25,0.44c-0.48,0.8-1.04,1.63-1.56,2.32h4.12v1.16h-7.05v1.63h6.12v1.1h-6.12v1.73H345.44z
			 M337.63,256.15c2.64,1.03,6.04,2.7,7.79,3.89l-0.61,1.08c-1.67-1.24-5.07-2.96-7.75-4.07L337.63,256.15z"/>
		<path d="M363.83,244.63v16.47h-1.25v-0.89h-13.26v0.89h-1.2v-16.47H363.83z M362.58,259.05v-13.26h-13.26v13.26H362.58z
			 M356.05,256.05c-1.99,0.4-4.05,0.82-5.6,1.12l-0.21-0.97c1.48-0.25,3.61-0.65,5.78-1.04L356.05,256.05z M360.72,250.52
			c-0.48,1.8-1.2,3.38-2.13,4.71c0.44,1.1,0.99,1.8,1.67,1.9c0.29,0.04,0.49-0.76,0.61-2c0.21,0.19,0.61,0.46,0.84,0.55
			c-0.25,2.03-0.82,2.77-1.77,2.45c-0.87-0.17-1.56-0.87-2.09-1.96c-0.76,0.89-1.63,1.65-2.6,2.28c-0.15-0.21-0.53-0.61-0.76-0.8
			c1.14-0.67,2.13-1.52,2.93-2.56c-0.51-1.54-0.85-3.53-1.06-5.74h-5.93v-0.97h5.83c-0.06-0.68-0.11-1.39-0.15-2.11h1.1
			c0.04,0.7,0.08,1.42,0.13,2.11h4.24v0.97h-4.16c0.17,1.75,0.42,3.34,0.78,4.64c0.65-1.08,1.16-2.32,1.5-3.69L360.72,250.52z
			 M355.34,250.64v3.69h-4.22v-3.69H355.34z M354.39,251.45h-2.36v2.03h2.36V251.45z M360.43,248.09c-0.44-0.42-1.33-1.01-2.09-1.35
			l0.61-0.63c0.74,0.32,1.63,0.84,2.09,1.29L360.43,248.09z"/>
		<path d="M371.93,255.71c-0.3-0.53-1.08-1.62-1.71-2.45v7.77h-1.18v-7.66c-0.76,0.97-1.56,1.82-2.34,2.53
			c-0.11-0.34-0.48-0.95-0.68-1.18c1.77-1.48,3.7-3.99,4.79-6.42h-4.43v-1.16h5.05l0.23-0.06l0.72,0.49
			c-0.53,1.42-1.29,2.85-2.17,4.16v0.06c0.17,0.19,0.42,0.48,0.68,0.78c0.49-0.57,1.06-1.33,1.41-1.84l0.82,0.74
			c-0.55,0.61-1.14,1.27-1.65,1.77c0.51,0.65,1.03,1.25,1.22,1.5L371.93,255.71z M369.67,246.89c-0.27-0.68-0.87-1.79-1.37-2.6
			l0.99-0.46c0.53,0.8,1.14,1.84,1.42,2.51L369.67,246.89z M382.49,255.06c-0.76,1.44-1.92,2.6-3.32,3.53
			c1.35,0.63,2.85,1.12,4.5,1.39c-0.28,0.27-0.63,0.76-0.78,1.08c-1.82-0.36-3.48-0.97-4.92-1.79c-1.69,0.87-3.63,1.48-5.55,1.84
			c-0.11-0.32-0.42-0.78-0.63-1.04c1.73-0.27,3.51-0.78,5.07-1.48c-0.76-0.55-1.44-1.14-2.07-1.81c-0.59,0.49-1.22,0.97-1.82,1.33
			c-0.17-0.19-0.61-0.65-0.89-0.85c0.68-0.36,1.37-0.84,2-1.35c-0.36-0.48-0.67-0.97-0.95-1.5l1.04-0.36
			c0.21,0.38,0.44,0.76,0.7,1.12c0.55-0.53,1.01-1.12,1.39-1.75h-2.3v-4.75c-0.23,0.3-0.48,0.59-0.68,0.84
			c-0.25-0.21-0.78-0.57-1.1-0.74c1.27-1.25,2.37-3.15,3.08-5.05l1.22,0.32c-0.19,0.55-0.44,1.1-0.7,1.63h7.56v1.08h-8.11
			c-0.27,0.46-0.53,0.87-0.8,1.29h7.85v5.38h-4.67c-0.25,0.44-0.49,0.84-0.82,1.25h4.69l0.21-0.06L382.49,255.06z M375.16,250.3
			h5.87v-1.33h-5.87V250.3z M375.16,252.54h5.87v-1.37h-5.87V252.54z M375.96,255.67c-0.11,0.13-0.23,0.25-0.36,0.38
			c0.7,0.72,1.52,1.37,2.45,1.94c1.06-0.65,1.99-1.41,2.66-2.32H375.96z"/>
		<path d="M395.41,244.27c-0.17,0.3-0.38,0.57-0.61,0.85c2.18,2.36,4.88,3.95,7.98,5.32c-0.32,0.27-0.68,0.74-0.87,1.1
			c-3-1.44-5.58-3.08-7.83-5.51c-1.29,1.48-2.87,2.81-4.58,3.91h9.25v1.18h-9.54v-0.99c-0.97,0.59-1.98,1.12-3,1.56
			c-0.21-0.3-0.55-0.78-0.89-1.08c3.61-1.41,7.09-3.97,8.99-6.9L395.41,244.27z M388.27,253.51h11.65v7.45h-1.33v-1.03h-9.04v1.1
			h-1.27V253.51z M389.54,254.65v4.08h9.04v-4.08H389.54z"/>
		<path d="M409.78,244.14c-0.53,1.35-1.18,2.7-1.9,3.95v12.92h-1.22v-11.02c-0.66,0.95-1.37,1.8-2.09,2.53
			c-0.11-0.27-0.48-0.91-0.7-1.18c1.88-1.84,3.67-4.67,4.75-7.54L409.78,244.14z M414.47,258.56c-1.12,0.99-2.96,1.92-4.5,2.47
			c-0.21-0.23-0.7-0.67-1.01-0.89c1.58-0.46,3.31-1.2,4.31-2.03L414.47,258.56z M421.61,248.7v0.95h-12.4v-0.95h5.6v-1.08h-4.27
			v-0.87h4.27v-1.03h-4.77v-0.89h4.77v-1.04h1.25v1.04h4.96v0.89h-4.96v1.03h4.46v0.87h-4.46v1.08H421.61z M420.36,257.76h-9.63
			v-7.12h9.63V257.76z M419.11,251.53h-7.16v1.22h7.16V251.53z M419.11,253.54h-7.16v1.25h7.16V253.54z M419.11,255.58h-7.16v1.27
			h7.16V255.58z M417.83,258.05c1.35,0.72,2.93,1.73,3.76,2.39l-1.12,0.72c-0.82-0.7-2.43-1.84-3.76-2.56L417.83,258.05z"/>
	</g>
	<rect x="113.71" y="35.76" class="st1" width="56" height="185.57"/>
	<rect x="299.47" y="154.82" class="st2" width="56" height="66.51"/>
</g>
<g>
	<line class="st0" x1="56.82" y1="344.06" x2="419.06" y2="344.06"/>
	<line class="st0" x1="56.82" y1="396.67" x2="419.06" y2="396.67"/>
	<line class="st0" x1="56.82" y1="449.28" x2="419.06" y2="449.28"/>
	<line class="st0" x1="56.82" y1="501.9" x2="419.06" y2="501.9"/>
	<line class="st0" x1="56.82" y1="554.51" x2="419.06" y2="554.51"/>
	<text transform="matrix(1 0 0 1 2.9168 348.4473)" style="font-family:'SourceHanSansTW-Normal-B5pc-H'; font-size:19px;">8.00</text>
	<text transform="matrix(1 0 0 1 2.9168 401.5948)" style="font-family:'SourceHanSansTW-Normal-B5pc-H'; font-size:19px;">6.00</text>
	<text transform="matrix(1 0 0 1 2.9168 454.7414)" style="font-family:'SourceHanSansTW-Normal-B5pc-H'; font-size:19px;">4.00</text>
	<text transform="matrix(1 0 0 1 2.9168 507.888)" style="font-family:'SourceHanSansTW-Normal-B5pc-H'; font-size:19px;">2.00</text>
	<text transform="matrix(1 0 0 1 2.9168 561.0355)" style="font-family:'SourceHanSansTW-Normal-B5pc-H'; font-size:19px;">0.00</text>
	<text transform="matrix(1 0 0 1 123.4947 363.0942)" style="font-family:'SourceHanSansTW-Normal-B5pc-H'; font-size:19px;">7.01</text>
	<text transform="matrix(1 0 0 1 310.9652 480.0687)" style="font-family:'SourceHanSansTW-Normal-B5pc-H'; font-size:19px;">2.50</text>
	<text transform="matrix(1 0 0 1 75.2058 592.7997)" style="font-family:'SourceHanSansTW-Normal-B5pc-H'; font-size:19px;">史坦普五百指數</text>
	<text transform="matrix(1 0 0 1 232.4707 592.7997)" style="font-family:'SourceHanSansTW-Normal-B5pc-H'; font-size:19px;">彭博巴克萊美國複合債</text>
	<rect x="113.71" y="368.94" class="st1" width="56" height="185.57"/>
	<rect x="299.47" y="488" class="st2" width="56" height="66.51"/>
</g>
</svg>
