<?xml version="1.0" encoding="utf-8"?>
<!-- Generator: Adobe Illustrator 24.0.0, SVG Export Plug-In . SVG Version: 6.00 Build 0)  -->
<svg version="1.1" id="圖層_1" xmlns="http://www.w3.org/2000/svg" xmlns:xlink="http://www.w3.org/1999/xlink" x="0px" y="0px"
	 viewBox="0 0 625.06 365.65" style="enable-background:new 0 0 625.06 365.65;" xml:space="preserve">
<style type="text/css">
	.st0{fill:none;stroke:#AFAFAF;stroke-miterlimit:10;}
	.st1{fill:#0C3692;}
</style>
<g>
	<g>
		<path d="M17.55,12.95v1.1H1v-1.1h7.86c-0.17-0.57-0.4-1.25-0.61-1.79l1.2-0.29c0.27,0.67,0.55,1.46,0.76,2.07H17.55z M16.9,26.84
			c0,0.65-0.15,0.89-0.63,1.08c-0.48,0.15-1.25,0.15-2.45,0.15c-0.08-0.3-0.25-0.68-0.4-0.95c0.84,0.04,1.69,0.02,1.9,0.02
			c0.23-0.02,0.32-0.08,0.32-0.29V21.1H2.94v7.12H1.72v-8.21H16.9V26.84z M14.81,15.19v3.74H3.95v-3.74H14.81z M13.5,16.14H5.2v1.84
			h8.3V16.14z M13.16,26.13H6.38v0.97H5.2V22.3h7.96V26.13z M6.38,23.26v1.9h5.64v-1.9H6.38z"/>
		<path d="M25.02,11.22h1.25v17.04h-1.25v-5.34c-3.55,1.31-4.07,1.58-4.41,1.86c-0.11-0.32-0.36-0.87-0.55-1.16
			c0.27-0.15,0.67-0.51,0.67-1.27v-9.31h1.23v9.71l3.06-1.03V11.22z M35.39,15.84c-0.53,3.02-1.33,5.51-2.55,7.54
			c1.14,1.63,2.51,2.95,4.16,3.76c-0.27,0.25-0.68,0.68-0.87,1.03c-1.58-0.87-2.89-2.15-3.99-3.72c-1.16,1.56-2.62,2.81-4.46,3.82
			c-0.13-0.29-0.55-0.8-0.82-1.04c1.96-0.95,3.44-2.24,4.56-3.88c-0.97-1.65-1.77-3.59-2.36-5.68c-0.47,1.01-1.01,1.9-1.6,2.66
			c-0.17-0.27-0.65-0.8-0.89-1.03c1.61-1.96,2.64-5.05,3.19-8.36l1.27,0.21c-0.23,1.2-0.51,2.37-0.84,3.5h6.67v1.2H35.39z
			 M29.73,16.05c0.55,2.24,1.33,4.35,2.37,6.15c0.97-1.75,1.6-3.88,2.03-6.36h-4.33L29.73,16.05z"/>
		<path d="M55.89,26.51v1.14H38.74v-1.14h2.51v-5.96H53.5v5.96H55.89z M55.47,15.8H39.1v-1.14h4.98c-0.38-0.89-1.2-2.24-1.96-3.21
			l1.06-0.47c0.82,0.99,1.65,2.28,2.03,3.17l-1.01,0.51h11.27V15.8z M45.27,17.37c-1.27,1.1-3.59,2.55-5.28,3.34
			c-0.15-0.3-0.49-0.72-0.76-0.97c1.63-0.65,4.01-1.96,5.17-3L45.27,17.37z M42.38,26.51h2.51v-4.86h-2.51V26.51z M46.07,21.65v4.86
			h2.51v-4.86H46.07z M54.79,20.32c-1.29-0.74-3.8-1.88-5.72-2.6l0.59-0.89c1.9,0.68,4.45,1.75,5.76,2.47L54.79,20.32z M52.66,11.35
			c-0.7,1.14-1.54,2.45-2.22,3.3l-1.04-0.4c0.68-0.89,1.56-2.32,2.01-3.32L52.66,11.35z M49.75,21.65v4.86h2.55v-4.86H49.75z"/>
		<path d="M64.27,11.94c-1.35,3.12-3.44,6.12-5.55,8.05c-0.25-0.27-0.78-0.78-1.12-1.01c2.15-1.79,4.14-4.58,5.32-7.49L64.27,11.94z
			 M69.63,21.06c1.54,2.01,3.36,4.67,4.27,6.35l-1.25,0.66c-0.27-0.51-0.63-1.12-1.03-1.79c-9.99,0.67-11,0.72-11.66,0.97
			c-0.08-0.27-0.3-0.97-0.49-1.33c0.46-0.11,1.03-0.76,1.77-1.67c0.76-0.85,3.21-4.29,4.83-7.54l1.37,0.59
			c-1.67,3.02-3.65,6.06-5.64,8.34l9.1-0.49c-0.8-1.22-1.67-2.51-2.45-3.57L69.63,21.06z M70.05,11.41c0.93,3.1,2.85,5.98,5.07,7.43
			c-0.3,0.27-0.76,0.82-0.99,1.18c-2.15-1.6-4.01-4.37-5.03-7.31h-3.65v-1.29H70.05z"/>
		<path d="M92.56,26.27c0,0.91-0.19,1.35-0.82,1.58c-0.66,0.23-1.82,0.25-3.51,0.25c-0.06-0.38-0.23-0.99-0.44-1.39
			c1.35,0.06,2.64,0.04,3.04,0.02c0.36,0,0.46-0.11,0.46-0.46V13.39H77.55v-1.22h15.01V26.27z M89.1,16.62H77.67v-1.14H89.1V16.62z
			 M87.74,24.75h-7.58v1.41h-1.23v-7.37h8.81V24.75z M80.16,19.9v3.72h6.34V19.9H80.16z"/>
		<path d="M101.11,11.32c-0.53,1.35-1.18,2.7-1.9,3.95v12.92H98V17.17c-0.66,0.95-1.37,1.8-2.09,2.53c-0.11-0.27-0.48-0.91-0.7-1.18
			c1.88-1.84,3.67-4.67,4.75-7.54L101.11,11.32z M105.81,25.73c-1.12,0.99-2.96,1.92-4.5,2.47c-0.21-0.23-0.7-0.67-1.01-0.89
			c1.58-0.46,3.31-1.2,4.31-2.03L105.81,25.73z M112.95,15.87v0.95h-12.4v-0.95h5.6v-1.08h-4.27v-0.87h4.27v-1.03h-4.77V12h4.77
			v-1.04h1.25V12h4.96v0.89h-4.96v1.03h4.46v0.87h-4.46v1.08H112.95z M111.69,24.94h-9.63v-7.12h9.63V24.94z M110.44,18.71h-7.16
			v1.22h7.16V18.71z M110.44,20.72h-7.16v1.25h7.16V20.72z M110.44,22.75h-7.16v1.27h7.16V22.75z M109.17,25.22
			c1.35,0.72,2.93,1.73,3.76,2.39l-1.12,0.72c-0.82-0.7-2.43-1.84-3.76-2.56L109.17,25.22z"/>
	</g>
	<g>
		<path d="M568.28,25.87c4.45-3.88,6.42-6.69,6.42-9.1c0-1.63-0.85-2.87-2.64-2.87c-1.16,0-2.17,0.72-2.96,1.65l-0.91-0.87
			c1.12-1.22,2.32-2.03,4.05-2.03c2.47,0,3.99,1.6,3.99,4.07c0,2.81-2.2,5.68-5.6,8.87c0.74-0.08,1.58-0.11,2.28-0.11h3.99v1.33
			h-8.61V25.87z"/>
		<path d="M579.54,25.51h3.12V14.85h-2.45v-1.01c1.2-0.21,2.09-0.51,2.81-0.95h1.18v12.61h2.83v1.29h-7.48V25.51z"/>
		<path d="M589.67,25.83c0-0.76,0.53-1.25,1.16-1.25c0.65,0,1.18,0.49,1.18,1.25c0,0.72-0.53,1.22-1.18,1.22
			C590.2,27.04,589.67,26.55,589.67,25.83z"/>
		<path d="M594.27,25.87c4.45-3.88,6.42-6.69,6.42-9.1c0-1.63-0.85-2.87-2.64-2.87c-1.16,0-2.17,0.72-2.96,1.65l-0.91-0.87
			c1.12-1.22,2.32-2.03,4.05-2.03c2.47,0,3.99,1.6,3.99,4.07c0,2.81-2.2,5.68-5.6,8.87c0.74-0.08,1.58-0.11,2.28-0.11h3.99v1.33
			h-8.61V25.87z"/>
		<path d="M612.32,15c-0.57-0.67-1.41-1.06-2.24-1.06c-1.96,0-3.61,1.5-3.69,5.95c0.87-1.04,2.09-1.69,3.21-1.69
			c2.36,0,3.84,1.46,3.84,4.37c0,2.66-1.8,4.48-3.91,4.48c-2.68,0-4.6-2.32-4.6-6.86c0-5.49,2.43-7.54,5.09-7.54
			c1.39,0,2.41,0.59,3.17,1.39L612.32,15z M611.96,22.56c0-1.94-0.82-3.21-2.6-3.21c-0.89,0-1.98,0.51-2.93,1.84
			c0.19,2.95,1.25,4.62,3.1,4.62C610.91,25.81,611.96,24.48,611.96,22.56z"/>
	</g>
	<g>
		<path d="M524.64,64.21h3.12V53.55h-2.45v-1.01c1.2-0.21,2.09-0.51,2.81-0.95h1.18v12.61h2.83v1.29h-7.49V64.21z"/>
		<path d="M543.21,61.63h-1.9v3.88h-1.46v-3.88h-6.1v-1.01l5.91-9.02h1.65v8.8h1.9V61.63z M539.84,60.39v-4.52
			c0-0.68,0.06-1.79,0.11-2.47h-0.09c-0.34,0.67-0.72,1.35-1.1,2.01l-3.36,4.98H539.84z"/>
		<path d="M545.2,64.54c0-0.76,0.53-1.25,1.16-1.25c0.65,0,1.18,0.49,1.18,1.25c0,0.72-0.53,1.22-1.18,1.22
			C545.73,65.75,545.2,65.26,545.2,64.54z"/>
		<path d="M550.63,64.21h3.12V53.55h-2.45v-1.01c1.2-0.21,2.09-0.51,2.81-0.95h1.18v12.61h2.83v1.29h-7.49V64.21z"/>
		<path d="M567.85,53.71c-0.57-0.67-1.41-1.06-2.24-1.06c-1.96,0-3.61,1.5-3.69,5.95c0.87-1.04,2.09-1.69,3.21-1.69
			c2.36,0,3.84,1.46,3.84,4.37c0,2.66-1.8,4.48-3.91,4.48c-2.68,0-4.6-2.32-4.6-6.86c0-5.49,2.43-7.54,5.09-7.54
			c1.39,0,2.41,0.59,3.17,1.39L567.85,53.71z M567.49,61.27c0-1.94-0.82-3.21-2.6-3.21c-0.89,0-1.98,0.51-2.93,1.84
			c0.19,2.95,1.25,4.62,3.1,4.62C566.44,64.52,567.49,63.19,567.49,61.27z"/>
	</g>
	<g>
		<path d="M244.13,99.3h4.81v1.22h-4.81V99.3z"/>
		<path d="M251.47,103.92h3.12V93.26h-2.45v-1.01c1.2-0.21,2.09-0.51,2.81-0.95h1.18v12.61h2.83v1.29h-7.48V103.92z"/>
		<path d="M260.74,103.61l0.78-1.03c0.8,0.82,1.82,1.58,3.48,1.58c1.67,0,3.06-1.33,3.06-3.42c0-2.05-1.18-3.29-2.98-3.29
			c-0.95,0-1.56,0.3-2.36,0.84l-0.85-0.53l0.44-6.46h6.65v1.33h-5.28l-0.38,4.22c0.65-0.36,1.29-0.59,2.17-0.59
			c2.3,0,4.16,1.37,4.16,4.45c0,3.02-2.19,4.75-4.48,4.75C262.96,105.46,261.67,104.54,260.74,103.61z"/>
		<path d="M272.02,104.24c0-0.76,0.53-1.25,1.16-1.25c0.65,0,1.18,0.49,1.18,1.25c0,0.72-0.53,1.22-1.18,1.22
			C272.56,105.46,272.02,104.96,272.02,104.24z"/>
		<path d="M276.72,98.2c0-4.83,1.65-7.14,4.27-7.14c2.6,0,4.24,2.34,4.24,7.14c0,4.86-1.63,7.26-4.24,7.26
			C278.37,105.46,276.72,103.06,276.72,98.2z M283.73,98.2c0-4.07-1.1-5.89-2.74-5.89c-1.65,0-2.77,1.82-2.77,5.89
			c0,4.14,1.12,6,2.77,6C282.63,104.2,283.73,102.34,283.73,98.2z"/>
		<path d="M286.73,103.61l0.78-1.03c0.8,0.82,1.82,1.58,3.48,1.58c1.67,0,3.06-1.33,3.06-3.42c0-2.05-1.18-3.29-2.98-3.29
			c-0.95,0-1.56,0.3-2.36,0.84l-0.85-0.53l0.44-6.46h6.65v1.33h-5.28l-0.38,4.22c0.65-0.36,1.29-0.59,2.17-0.59
			c2.3,0,4.16,1.37,4.16,4.45c0,3.02-2.19,4.75-4.48,4.75C288.95,105.46,287.66,104.54,286.73,103.61z"/>
	</g>
	<g>
		<path d="M524.64,144.75h3.12v-10.66h-2.45v-1.01c1.2-0.21,2.09-0.51,2.81-0.95h1.18v12.61h2.83v1.29h-7.48V144.75z"/>
		<path d="M543.21,142.17h-1.9v3.88h-1.46v-3.88h-6.1v-1.01l5.91-9.02h1.65v8.8h1.9V142.17z M539.84,140.93v-4.52
			c0-0.68,0.06-1.79,0.11-2.47h-0.1c-0.34,0.67-0.72,1.35-1.1,2.01l-3.36,4.98H539.84z"/>
		<path d="M545.2,145.07c0-0.76,0.53-1.25,1.16-1.25c0.65,0,1.18,0.49,1.18,1.25c0,0.72-0.53,1.22-1.18,1.22
			C545.73,146.29,545.2,145.79,545.2,145.07z"/>
		<path d="M549.51,144.39l0.8-1.01c0.82,0.84,1.86,1.61,3.51,1.61c1.69,0,2.91-1.04,2.91-2.7c0-1.73-1.18-2.89-4.41-2.89v-1.22
			c2.91,0,3.91-1.2,3.91-2.75c0-1.39-0.93-2.3-2.43-2.32c-1.14,0.02-2.15,0.61-2.93,1.41l-0.85-1.01c1.03-0.93,2.24-1.63,3.84-1.65
			c2.28,0.02,3.95,1.25,3.95,3.46c0,1.73-1.01,2.85-2.49,3.38v0.08c1.63,0.38,2.96,1.63,2.96,3.55c0,2.47-1.94,3.95-4.37,3.95
			C551.76,146.29,550.41,145.36,549.51,144.39z"/>
		<path d="M567.13,133.47h-6.82v-1.33h8.61v0.93c-3.29,4.24-3.89,7.54-4.12,12.97h-1.61C563.4,140.68,564.39,137.27,567.13,133.47z"
			/>
	</g>
	<g>
		<path d="M220.13,178.95h4.81v1.22h-4.81V178.95z"/>
		<path d="M227.47,183.56h3.12v-10.66h-2.45v-1.01c1.2-0.21,2.09-0.51,2.81-0.95h1.18v12.61h2.83v1.29h-7.48V183.56z"/>
		<path d="M237.06,181.4c0-1.88,1.31-3.17,2.58-3.88v-0.08c-1.01-0.68-1.88-1.73-1.88-3.19c0-2.09,1.61-3.51,3.74-3.51
			c2.36,0,3.78,1.54,3.78,3.67c0,1.46-1.06,2.74-1.88,3.38v0.1c1.22,0.7,2.36,1.75,2.36,3.65c0,1.99-1.73,3.57-4.29,3.57
			C238.92,185.1,237.06,183.55,237.06,181.4z M244.28,181.49c0-1.94-1.79-2.66-3.8-3.48c-1.18,0.74-2.01,1.88-2.01,3.27
			c0,1.52,1.29,2.66,3.02,2.66C243.16,183.94,244.28,182.9,244.28,181.49z M243.94,174.48c0-1.41-0.89-2.57-2.47-2.57
			c-1.31,0-2.28,0.95-2.28,2.34c0,1.73,1.58,2.47,3.23,3.12C243.41,176.54,243.94,175.55,243.94,174.48z"/>
		<path d="M248.02,183.89c0-0.76,0.53-1.25,1.16-1.25c0.65,0,1.18,0.49,1.18,1.25c0,0.72-0.53,1.22-1.18,1.22
			C248.56,185.1,248.02,184.61,248.02,183.89z"/>
		<path d="M260.24,173.06c-0.57-0.67-1.41-1.06-2.24-1.06c-1.96,0-3.61,1.5-3.69,5.95c0.87-1.04,2.09-1.69,3.21-1.69
			c2.36,0,3.84,1.46,3.84,4.37c0,2.66-1.8,4.48-3.91,4.48c-2.68,0-4.6-2.32-4.6-6.86c0-5.49,2.43-7.54,5.09-7.54
			c1.39,0,2.41,0.59,3.17,1.39L260.24,173.06z M259.88,180.62c0-1.94-0.82-3.21-2.6-3.21c-0.89,0-1.98,0.51-2.93,1.84
			c0.19,2.95,1.25,4.62,3.1,4.62C258.83,183.87,259.88,182.54,259.88,180.62z"/>
		<path d="M263.89,183.56H267v-10.66h-2.45v-1.01c1.2-0.21,2.09-0.51,2.81-0.95h1.18v12.61h2.83v1.29h-7.48V183.56z"/>
	</g>
	<g>
		<path d="M490.18,221.57c0.61,0.67,1.44,1.06,2.38,1.06c1.82,0,3.44-1.54,3.57-6.02c-0.87,1.06-2.05,1.77-3.27,1.77
			c-2.32,0-3.8-1.5-3.8-4.37c0-2.66,1.79-4.48,3.91-4.48c2.68,0,4.62,2.2,4.62,6.55c0,5.7-2.41,7.85-5,7.85
			c-1.46,0-2.51-0.59-3.27-1.39L490.18,221.57z M496.11,215.3c-0.15-2.91-1.25-4.56-3.13-4.56c-1.39,0-2.43,1.33-2.43,3.27
			c0,1.92,0.84,3.21,2.56,3.21C494.06,217.22,495.14,216.67,496.11,215.3z"/>
		<path d="M500.02,222.71c0-0.76,0.53-1.25,1.16-1.25c0.65,0,1.18,0.49,1.18,1.25c0,0.72-0.53,1.22-1.18,1.22
			C500.56,223.93,500.02,223.43,500.02,222.71z"/>
		<path d="M512.24,211.88c-0.57-0.67-1.41-1.06-2.24-1.06c-1.96,0-3.61,1.5-3.69,5.95c0.87-1.04,2.09-1.69,3.21-1.69
			c2.36,0,3.84,1.46,3.84,4.37c0,2.66-1.8,4.48-3.91,4.48c-2.68,0-4.6-2.32-4.6-6.86c0-5.49,2.43-7.54,5.09-7.54
			c1.39,0,2.41,0.59,3.17,1.39L512.24,211.88z M511.88,219.44c0-1.94-0.82-3.21-2.6-3.21c-0.89,0-1.98,0.51-2.93,1.84
			c0.19,2.95,1.25,4.62,3.1,4.62C510.83,222.69,511.88,221.36,511.88,219.44z"/>
		<path d="M516.17,221.57c0.61,0.67,1.44,1.06,2.38,1.06c1.82,0,3.44-1.54,3.57-6.02c-0.87,1.06-2.05,1.77-3.27,1.77
			c-2.32,0-3.8-1.5-3.8-4.37c0-2.66,1.79-4.48,3.91-4.48c2.68,0,4.62,2.2,4.62,6.55c0,5.7-2.41,7.85-5,7.85
			c-1.46,0-2.51-0.59-3.27-1.39L516.17,221.57z M522.1,215.3c-0.15-2.91-1.25-4.56-3.13-4.56c-1.39,0-2.43,1.33-2.43,3.27
			c0,1.92,0.84,3.21,2.56,3.21C520.05,217.22,521.13,216.67,522.1,215.3z"/>
	</g>
	<g>
		<path d="M167.74,259.53h4.81v1.22h-4.81V259.53z"/>
		<path d="M174.24,264.51c4.45-3.88,6.42-6.69,6.42-9.1c0-1.63-0.85-2.87-2.64-2.87c-1.16,0-2.17,0.72-2.96,1.65l-0.91-0.87
			c1.12-1.22,2.32-2.03,4.05-2.03c2.47,0,3.99,1.6,3.99,4.07c0,2.81-2.2,5.68-5.6,8.87c0.74-0.08,1.58-0.11,2.28-0.11h3.99v1.33
			h-8.61V264.51z"/>
		<path d="M184.67,261.98c0-1.88,1.31-3.17,2.58-3.88v-0.08c-1.01-0.68-1.88-1.73-1.88-3.19c0-2.09,1.61-3.51,3.74-3.51
			c2.36,0,3.78,1.54,3.78,3.67c0,1.46-1.06,2.74-1.88,3.38v0.1c1.22,0.7,2.36,1.75,2.36,3.65c0,1.99-1.73,3.57-4.29,3.57
			C186.53,265.68,184.67,264.13,184.67,261.98z M191.89,262.07c0-1.94-1.79-2.66-3.8-3.48c-1.18,0.74-2.01,1.88-2.01,3.27
			c0,1.52,1.29,2.66,3.02,2.66C190.77,264.52,191.89,263.48,191.89,262.07z M191.55,255.06c0-1.41-0.89-2.57-2.47-2.57
			c-1.31,0-2.28,0.95-2.28,2.34c0,1.73,1.58,2.47,3.23,3.12C191.01,257.12,191.55,256.13,191.55,255.06z"/>
		<path d="M195.63,264.47c0-0.76,0.53-1.25,1.16-1.25c0.65,0,1.18,0.49,1.18,1.25c0,0.72-0.53,1.22-1.18,1.22
			C196.16,265.68,195.63,265.19,195.63,264.47z"/>
		<path d="M209.2,261.56h-1.9v3.88h-1.46v-3.88h-6.1v-1.01l5.91-9.02h1.65v8.8h1.9V261.56z M205.83,260.33v-4.52
			c0-0.68,0.06-1.79,0.11-2.47h-0.1c-0.34,0.67-0.72,1.35-1.1,2.01l-3.36,4.98H205.83z"/>
	</g>
	<g>
		<path d="M508.96,303.03h3.12v-10.66h-2.45v-1.01c1.2-0.21,2.09-0.51,2.81-0.95h1.18v12.61h2.83v1.29h-7.48V303.03z"/>
		<path d="M518.55,303.4c4.45-3.88,6.42-6.69,6.42-9.1c0-1.63-0.85-2.87-2.64-2.87c-1.16,0-2.17,0.72-2.96,1.65l-0.91-0.87
			c1.12-1.22,2.32-2.03,4.05-2.03c2.47,0,3.99,1.6,3.99,4.07c0,2.81-2.2,5.68-5.6,8.87c0.74-0.08,1.58-0.11,2.28-0.11h3.99v1.33
			h-8.61V303.4z"/>
		<path d="M529.51,303.36c0-0.76,0.53-1.25,1.16-1.25c0.65,0,1.18,0.49,1.18,1.25c0,0.72-0.53,1.22-1.18,1.22
			C530.05,304.57,529.51,304.08,529.51,303.36z"/>
		<path d="M533.83,302.67l0.8-1.01c0.82,0.84,1.86,1.61,3.51,1.61c1.69,0,2.91-1.04,2.91-2.7c0-1.73-1.18-2.89-4.41-2.89v-1.22
			c2.91,0,3.91-1.2,3.91-2.75c0-1.39-0.93-2.3-2.43-2.32c-1.14,0.02-2.15,0.61-2.93,1.41l-0.85-1.01c1.03-0.93,2.24-1.63,3.84-1.65
			c2.28,0.02,3.95,1.25,3.95,3.46c0,1.73-1.01,2.85-2.49,3.38v0.08c1.63,0.38,2.96,1.63,2.96,3.55c0,2.47-1.94,3.95-4.37,3.95
			C536.07,304.57,534.72,303.64,533.83,302.67z"/>
	</g>
	<g>
		<path d="M409.09,327.3c0-3.56,1.22-5.27,3.15-5.27c1.92,0,3.12,1.72,3.12,5.27c0,3.59-1.2,5.35-3.12,5.35
			C410.31,332.65,409.09,330.89,409.09,327.3z M414.26,327.3c0-3-0.81-4.34-2.02-4.34c-1.22,0-2.04,1.34-2.04,4.34
			c0,3.05,0.83,4.43,2.04,4.43C413.45,331.73,414.26,330.35,414.26,327.3z"/>
	</g>
	<g>
		<path d="M335.73,328.11h3.54v0.9h-3.54V328.11z"/>
		<path d="M341.14,331.52h2.3v-7.86h-1.81v-0.74c0.88-0.15,1.54-0.38,2.07-0.7h0.87v9.3h2.09v0.95h-5.52V331.52z"/>
		<path d="M348.28,327.3c0-3.56,1.22-5.27,3.15-5.27c1.92,0,3.12,1.72,3.12,5.27c0,3.59-1.2,5.35-3.12,5.35
			C349.5,332.65,348.28,330.89,348.28,327.3z M353.45,327.3c0-3-0.81-4.34-2.02-4.34c-1.22,0-2.04,1.34-2.04,4.34
			c0,3.05,0.83,4.43,2.04,4.43C352.63,331.73,353.45,330.35,353.45,327.3z"/>
	</g>
	<g>
		<path d="M263.68,328.11h3.54v0.9h-3.54V328.11z"/>
		<path d="M268.46,331.78c3.28-2.86,4.73-4.93,4.73-6.71c0-1.21-0.63-2.12-1.95-2.12c-0.85,0-1.6,0.53-2.19,1.22l-0.67-0.64
			c0.83-0.9,1.71-1.5,2.98-1.5c1.82,0,2.94,1.18,2.94,3c0,2.07-1.62,4.19-4.13,6.54c0.55-0.06,1.16-0.08,1.68-0.08h2.94v0.98h-6.35
			V331.78z"/>
		<path d="M276.22,327.3c0-3.56,1.22-5.27,3.15-5.27c1.92,0,3.12,1.72,3.12,5.27c0,3.59-1.2,5.35-3.12,5.35
			C277.44,332.65,276.22,330.89,276.22,327.3z M281.39,327.3c0-3-0.81-4.34-2.02-4.34c-1.22,0-2.04,1.34-2.04,4.34
			c0,3.05,0.83,4.43,2.04,4.43C280.58,331.73,281.39,330.35,281.39,327.3z"/>
	</g>
	<g>
		<path d="M196.62,328.11h3.54v0.9h-3.54V328.11z"/>
		<path d="M201.19,331.25l0.59-0.74c0.6,0.62,1.37,1.19,2.59,1.19c1.25,0,2.14-0.77,2.14-1.99c0-1.27-0.87-2.13-3.25-2.13v-0.9
			c2.14,0,2.89-0.88,2.89-2.03c0-1.02-0.69-1.69-1.79-1.71c-0.84,0.01-1.58,0.45-2.16,1.04l-0.63-0.74c0.76-0.69,1.65-1.2,2.83-1.22
			c1.68,0.01,2.91,0.92,2.91,2.55c0,1.27-0.74,2.1-1.83,2.49v0.06c1.2,0.28,2.19,1.2,2.19,2.62c0,1.82-1.43,2.91-3.22,2.91
			C202.85,332.65,201.85,331.97,201.19,331.25z"/>
		<path d="M209.16,327.3c0-3.56,1.22-5.27,3.15-5.27c1.92,0,3.12,1.72,3.12,5.27c0,3.59-1.2,5.35-3.12,5.35
			C210.38,332.65,209.16,330.89,209.16,327.3z M214.33,327.3c0-3-0.81-4.34-2.02-4.34c-1.22,0-2.04,1.34-2.04,4.34
			c0,3.05,0.83,4.43,2.04,4.43C213.52,331.73,214.33,330.35,214.33,327.3z"/>
	</g>
	<g>
		<path d="M128.56,328.11h3.54v0.9h-3.54V328.11z"/>
		<path d="M139.96,329.61h-1.4v2.86h-1.08v-2.86h-4.5v-0.74l4.36-6.65h1.22v6.49h1.4V329.61z M137.48,328.7v-3.33
			c0-0.5,0.04-1.32,0.08-1.82h-0.07c-0.25,0.49-0.53,0.99-0.81,1.48l-2.48,3.67H137.48z"/>
		<path d="M141.1,327.3c0-3.56,1.22-5.27,3.15-5.27c1.92,0,3.12,1.72,3.12,5.27c0,3.59-1.2,5.35-3.12,5.35
			C142.32,332.65,141.1,330.89,141.1,327.3z M146.27,327.3c0-3-0.81-4.34-2.02-4.34c-1.22,0-2.04,1.34-2.04,4.34
			c0,3.05,0.83,4.43,2.04,4.43C145.46,331.73,146.27,330.35,146.27,327.3z"/>
	</g>
	<g>
		<path d="M474.27,331.52h2.3v-7.86h-1.81v-0.74c0.88-0.15,1.54-0.38,2.07-0.7h0.87v9.3h2.09v0.95h-5.52V331.52z"/>
		<path d="M481.41,327.3c0-3.56,1.22-5.27,3.15-5.27c1.92,0,3.12,1.72,3.12,5.27c0,3.59-1.2,5.35-3.12,5.35
			C482.62,332.65,481.41,330.89,481.41,327.3z M486.58,327.3c0-3-0.81-4.34-2.02-4.34c-1.22,0-2.04,1.34-2.04,4.34
			c0,3.05,0.83,4.43,2.04,4.43C485.76,331.73,486.58,330.35,486.58,327.3z"/>
	</g>
	<g>
		<path d="M542.12,331.78c3.28-2.86,4.73-4.93,4.73-6.71c0-1.21-0.63-2.12-1.95-2.12c-0.85,0-1.6,0.53-2.19,1.22l-0.67-0.64
			c0.83-0.9,1.71-1.5,2.98-1.5c1.82,0,2.94,1.18,2.94,3c0,2.07-1.62,4.19-4.13,6.54c0.55-0.06,1.16-0.08,1.68-0.08h2.94v0.98h-6.35
			V331.78z"/>
		<path d="M549.88,327.3c0-3.56,1.22-5.27,3.15-5.27c1.92,0,3.12,1.72,3.12,5.27c0,3.59-1.2,5.35-3.12,5.35
			C551.1,332.65,549.88,330.89,549.88,327.3z M555.05,327.3c0-3-0.81-4.34-2.02-4.34c-1.22,0-2.04,1.34-2.04,4.34
			c0,3.05,0.83,4.43,2.04,4.43C554.23,331.73,555.05,330.35,555.05,327.3z"/>
	</g>
	<g>
		<path d="M610.38,331.25l0.59-0.74c0.6,0.62,1.37,1.19,2.59,1.19c1.25,0,2.14-0.77,2.14-1.99c0-1.27-0.87-2.13-3.25-2.13v-0.9
			c2.14,0,2.89-0.88,2.89-2.03c0-1.02-0.69-1.69-1.79-1.71c-0.84,0.01-1.58,0.45-2.16,1.04l-0.63-0.74c0.76-0.69,1.65-1.2,2.83-1.22
			c1.68,0.01,2.91,0.92,2.91,2.55c0,1.27-0.74,2.1-1.83,2.49v0.06c1.2,0.28,2.18,1.2,2.18,2.62c0,1.82-1.43,2.91-3.22,2.91
			C612.03,332.65,611.04,331.97,610.38,331.25z"/>
		<path d="M618.35,327.3c0-3.56,1.22-5.27,3.15-5.27c1.92,0,3.12,1.72,3.12,5.27c0,3.59-1.21,5.35-3.12,5.35
			C619.57,332.65,618.35,330.89,618.35,327.3z M623.52,327.3c0-3-0.81-4.34-2.02-4.34c-1.22,0-2.04,1.34-2.04,4.34
			c0,3.05,0.83,4.43,2.04,4.43C622.7,331.73,623.52,330.35,623.52,327.3z"/>
	</g>
	<g>
		<path d="M45.86,63.62l0.11,1.06c-2.43,0.57-4.96,1.16-6.82,1.6l-0.34-1.2c0.84-0.17,1.94-0.38,3.13-0.63v-5.58H39v-1.14h2.94
			v-2.17h-1.94v-0.95c-0.3,0.27-0.57,0.48-0.87,0.7c-0.11-0.27-0.42-0.87-0.63-1.16c1.58-1.08,3.17-2.72,4.12-4.48l1.06,0.4
			c-0.13,0.21-0.25,0.44-0.38,0.68c1.14,0.86,2.32,1.9,3.04,2.68l-0.78,0.89c-0.68-0.76-1.82-1.79-2.89-2.66
			c-0.72,1.03-1.6,1.98-2.49,2.77h4.92v1.12h-2.03v2.17h2.66v1.14h-2.66v5.36L45.86,63.62z M40.41,59.92
			c0.4,1.12,0.74,2.6,0.85,3.57l-0.95,0.25c-0.1-0.97-0.46-2.45-0.8-3.59L40.41,59.92z M43.62,63.17c0.32-0.93,0.78-2.47,0.97-3.51
			l1.01,0.32c-0.36,1.16-0.82,2.58-1.16,3.48L43.62,63.17z M55.8,60.28c-0.91,0.78-2.13,1.62-3.12,2.2
			c0.89,1.39,2.01,2.51,3.38,3.17c-0.3,0.23-0.68,0.74-0.87,1.06c-2.6-1.46-4.33-4.45-5.24-8h-1.69v6.36l3.29-0.93
			c0,0.34,0.06,0.84,0.11,1.12c-4.03,1.25-4.58,1.46-4.94,1.71c-0.06-0.3-0.27-0.84-0.46-1.1c0.3-0.13,0.78-0.42,0.78-1.14V50.5
			h7.94v8.23h-3.93c0.28,1.01,0.65,1.96,1.12,2.83c0.93-0.61,2.07-1.46,2.77-2.15L55.8,60.28z M48.25,51.62v2.41h5.49v-2.41H48.25z
			 M48.25,57.6h5.49v-2.51h-5.49V57.6z"/>
		<path d="M63.91,54.1c-0.61,0.99-1.35,1.96-2.13,2.89v9.99h-1.25v-8.61c-0.76,0.78-1.52,1.48-2.26,2.07
			c-0.19-0.25-0.65-0.8-0.89-1.04c1.94-1.39,4.03-3.59,5.34-5.74L63.91,54.1z M63.15,50.1c-1.23,1.65-3.15,3.46-4.84,4.65
			c-0.17-0.27-0.51-0.76-0.74-1.01c1.58-1.04,3.42-2.75,4.37-4.12L63.15,50.1z M74.87,57.2h-2.91v8.07c0,0.8-0.21,1.2-0.8,1.41
			c-0.63,0.19-1.65,0.19-3.55,0.19c-0.06-0.34-0.23-0.86-0.42-1.22c1.41,0.06,2.66,0.06,3.02,0.02c0.34,0,0.47-0.09,0.47-0.42V57.2
			h-6.48v-1.22h10.66V57.2z M74.32,51.98h-9.29V50.8h9.29V51.98z"/>
		<path d="M80.21,52.72c-0.91,0.65-1.84,1.2-2.74,1.63c-0.17-0.23-0.65-0.67-0.93-0.87c2.09-0.93,4.29-2.37,5.6-3.91L83.29,50
			c-0.53,0.63-1.16,1.24-1.86,1.8v3.95h-1.22V52.72z M83.63,64.72c-1.54,0.89-3.91,1.75-5.79,2.26c-0.21-0.25-0.65-0.72-0.93-0.95
			c1.94-0.42,4.2-1.1,5.58-1.84L83.63,64.72z M79.34,56.31h12.23v7.64H79.34V56.31z M80.56,58.55h9.76V57.2h-9.76V58.55z
			 M80.56,60.79h9.76v-1.39h-9.76V60.79z M80.56,63.05h9.76v-1.41h-9.76V63.05z M85.74,52c-0.38-0.72-0.67-1.52-0.78-2.38h1.18
			c0.13,0.86,0.46,1.63,0.89,2.3l6.34-0.36l0.11,0.99l-5.68,0.34c1.22,1.29,2.87,2.05,4.16,2.03c0.51-0.02,0.67-0.34,0.74-1.44
			c0.27,0.21,0.66,0.38,0.99,0.48c-0.19,1.65-0.65,2.09-1.77,2.09c-1.88,0-4.12-1.16-5.57-3.06l-3.97,0.25l-0.09-1.03L85.74,52z
			 M88,64.25c2.07,0.65,4.33,1.44,5.72,2.05l-1.39,0.67c-1.2-0.61-3.25-1.39-5.36-2.07L88,64.25z M91.33,51.52
			c-0.74-0.42-2.17-0.93-3.31-1.22l0.61-0.66c1.12,0.23,2.56,0.7,3.34,1.12L91.33,51.52z"/>
		<path d="M98.38,61.61c-0.49,1.39-1.22,2.98-1.84,4.05c-0.23-0.13-0.72-0.38-1.01-0.49c0.68-1.04,1.33-2.51,1.77-3.82L98.38,61.61z
			 M100.81,60.62v6.31h-1.2v-6.31h-3.97v-1.08h9.08v1.08H100.81z M99.61,52.57h-3.76v-1.08h3.76v-1.8h1.2v1.8h3.74v1.08h-3.74v1.75
			h3.36v1.08h-7.88v-1.08h3.32V52.57z M103.94,56.9v1.08h-7.43V56.9H103.94z M102.96,61.34c0.57,0.93,1.22,2.2,1.52,2.96l-1.01,0.49
			c-0.3-0.8-0.91-2.09-1.44-3.08L102.96,61.34z M106.58,54.22c-0.44,1.5-0.95,2.87-1.6,3.95c-0.23-0.21-0.76-0.57-1.04-0.74
			c1.2-1.88,1.94-4.81,2.3-7.79l1.23,0.15c-0.17,1.12-0.36,2.22-0.61,3.27h4.84l0.23-0.06l0.84,0.27c-0.36,1.65-0.89,3.63-1.41,4.84
			l-1.03-0.32c0.34-0.91,0.74-2.3,1.01-3.57H106.58z M108.9,56.56c0,0.53-0.02,1.12-0.06,1.75c0.66,3.38,2.03,6.36,4.29,7.58
			c-0.27,0.25-0.67,0.72-0.85,1.04c-1.84-1.14-3.04-3.25-3.84-5.87c-0.48,2-1.46,4.08-3.46,5.91c-0.23-0.29-0.65-0.65-0.95-0.84
			c3.42-3.06,3.67-6.95,3.67-9.59v-0.87h1.2V56.56z"/>
	</g>
	<g>
		<path d="M4.63,99.49v5.47c0,0.78-0.19,1.1-0.65,1.29c-0.49,0.23-1.25,0.25-2.55,0.25c-0.06-0.32-0.23-0.84-0.38-1.18
			c0.91,0.04,1.73,0.02,1.96,0.02c0.27,0,0.38-0.09,0.38-0.36v-5.09c-0.89,0.27-1.75,0.51-2.49,0.74L0.53,99.4
			c0.8-0.19,1.79-0.47,2.87-0.78v-4.24H0.76V93.2H3.4v-3.86h1.23v3.86h2.41v1.18H4.63v3.89c0.61-0.17,1.22-0.36,1.84-0.55l0.15,1.16
			L4.63,99.49z M16.54,98.03c-0.78,2.26-2.13,4.07-3.76,5.41c1.44,0.97,3.19,1.67,5.15,2.07c-0.3,0.29-0.65,0.8-0.84,1.16
			c-2.05-0.49-3.88-1.31-5.38-2.43c-1.69,1.16-3.65,1.94-5.64,2.45c-0.13-0.34-0.4-0.87-0.65-1.16c1.86-0.4,3.69-1.1,5.28-2.11
			c-1.35-1.23-2.43-2.74-3.19-4.48l0.09-0.04H6.95v-1.2h8.55l0.25-0.06L16.54,98.03z M10.03,92.16c0,1.67-0.51,3.69-2.81,5.03
			c-0.15-0.25-0.61-0.72-0.82-0.91c2.07-1.2,2.43-2.77,2.43-4.16v-2.09h5.87v4.45c0,0.53,0.04,0.7,0.36,0.7h1.54
			c0.29,0,0.68-0.04,0.93-0.08c0.02,0.3,0.06,0.8,0.11,1.08c-0.23,0.08-0.63,0.09-1.01,0.09h-1.65c-1.22,0-1.5-0.49-1.5-1.84v-3.21
			h-3.46V92.16z M8.75,98.9c0.68,1.46,1.71,2.75,2.98,3.8c1.31-1.03,2.37-2.28,3.1-3.8H8.75z"/>
		<path d="M25.19,94.49h-5.4v-1.03h5.4V94.49z M26.63,104.34c-1.54,0.89-3.91,1.77-5.79,2.28c-0.21-0.25-0.67-0.72-0.93-0.95
			c1.92-0.42,4.2-1.1,5.58-1.84L26.63,104.34z M24.71,91.51h-4.5v-1.01h4.5V91.51z M34.54,103.65H22.3v-7.64h12.23V103.65z
			 M33.28,96.91h-9.76v1.37h9.76V96.91z M33.28,99.13h-9.76v1.37h9.76V99.13z M33.28,101.35h-9.76v1.42h9.76V101.35z M31.48,91.87
			c0,0.21-0.02,0.46-0.06,0.7c0.97,1.16,3.1,1.96,5.57,2.17c-0.25,0.25-0.57,0.72-0.72,1.03c-2.2-0.32-4.05-1.1-5.22-2.28
			c-0.61,0.95-2.09,1.84-5.47,2.38c-0.13-0.29-0.46-0.72-0.68-0.95c4.96-0.7,5.41-2.07,5.41-3.1v-0.17h-2.11
			c-0.42,0.76-0.93,1.42-1.44,1.98c-0.21-0.19-0.68-0.53-0.95-0.67c0.97-0.91,1.75-2.26,2.18-3.67l1.14,0.27
			c-0.13,0.38-0.27,0.74-0.42,1.1h6.55l0.21-0.06l0.85,0.28c-0.48,0.95-1.08,2.03-1.6,2.7l-0.99-0.36c0.29-0.4,0.65-1.01,0.95-1.58
			h-3.21V91.87z M31.02,103.82c2.03,0.61,4.26,1.41,5.62,2.01l-1.12,0.74c-1.23-0.59-3.29-1.41-5.38-2.07L31.02,103.82z"/>
		<path d="M38.87,95.14c0.32-0.08,0.65-0.47,1.06-1.04c0.4-0.55,1.75-2.75,2.53-4.81l1.2,0.49c-0.85,1.82-1.9,3.7-2.98,5.13
			l2.11-0.19c0.51-0.82,1.01-1.69,1.44-2.56l1.12,0.65c-1.27,2.22-2.77,4.46-4.33,6.21l3.48-0.49c-0.23-0.63-0.48-1.25-0.74-1.82
			l0.93-0.3c0.63,1.25,1.23,2.89,1.42,3.86l-1.01,0.4c-0.06-0.32-0.17-0.72-0.3-1.14c-4.45,0.7-5.03,0.84-5.4,1.04
			c-0.08-0.27-0.27-0.87-0.4-1.2c0.38-0.09,0.82-0.55,1.39-1.25c0.3-0.34,0.95-1.18,1.65-2.26c-2.09,0.27-2.51,0.36-2.77,0.47
			C39.21,96.05,39.02,95.44,38.87,95.14z M40.86,101.62c-0.23,1.62-0.61,3.4-0.99,4.58c-0.23-0.13-0.76-0.3-1.01-0.38
			c0.44-1.16,0.74-2.87,0.93-4.39L40.86,101.62z M42.78,101.35c0.21,1.22,0.44,2.75,0.49,3.78l-0.99,0.23
			c-0.06-1.03-0.25-2.6-0.48-3.82L42.78,101.35z M44.8,100.92c0.4,0.99,0.8,2.24,0.99,3.06l-0.97,0.34
			c-0.15-0.84-0.55-2.15-0.91-3.13L44.8,100.92z M55.38,95.9c-0.51,2.75-1.48,5.03-2.74,6.84c0.93,1.2,2.07,2.15,3.42,2.75
			c-0.29,0.23-0.67,0.72-0.87,1.06c-1.29-0.67-2.39-1.63-3.31-2.81c-1.04,1.22-2.22,2.18-3.48,2.89c-0.17-0.29-0.53-0.72-0.82-0.95
			c1.29-0.67,2.53-1.69,3.57-3c-1.01-1.67-1.75-3.65-2.28-5.85c-0.34,4.03-1.08,7.18-2.91,9.69c-0.21-0.21-0.8-0.63-1.1-0.8
			c2.56-3.12,2.94-8.02,3.02-14.27h-1.92v-1.2h6.76l0.21-0.08l0.87,0.15c-0.21,1.54-0.55,3.63-0.87,5.34h1.42l0.23-0.06L55.38,95.9z
			 M49.13,91.46c-0.04,1.5-0.08,2.91-0.15,4.22h2.75c0.27-1.31,0.55-2.96,0.72-4.22H49.13z M49.98,96.81
			c0.44,1.77,1.06,3.42,1.92,4.83c0.89-1.39,1.6-3,2.07-4.83H49.98z"/>
		<path d="M64.27,90.35c-1.35,3.12-3.44,6.12-5.55,8.05c-0.25-0.27-0.78-0.78-1.12-1.01c2.15-1.79,4.14-4.58,5.32-7.49L64.27,90.35z
			 M69.63,99.47c1.54,2.01,3.36,4.67,4.27,6.35l-1.25,0.66c-0.27-0.51-0.63-1.12-1.03-1.79c-9.99,0.67-11,0.72-11.66,0.97
			c-0.08-0.27-0.3-0.97-0.49-1.33c0.46-0.11,1.03-0.76,1.77-1.67c0.76-0.85,3.21-4.29,4.83-7.54l1.37,0.59
			c-1.67,3.02-3.65,6.06-5.64,8.34l9.1-0.49c-0.8-1.22-1.67-2.51-2.45-3.57L69.63,99.47z M70.05,89.82c0.93,3.1,2.85,5.98,5.07,7.43
			c-0.3,0.27-0.76,0.82-0.99,1.18c-2.15-1.6-4.01-4.37-5.03-7.31h-3.65v-1.29H70.05z"/>
		<path d="M92.56,104.68c0,0.91-0.19,1.35-0.82,1.58c-0.66,0.23-1.82,0.25-3.51,0.25c-0.06-0.38-0.23-0.99-0.44-1.39
			c1.35,0.06,2.64,0.04,3.04,0.02c0.36,0,0.46-0.11,0.46-0.46V91.8H77.55v-1.22h15.01V104.68z M89.1,95.03H77.67v-1.14H89.1V95.03z
			 M87.74,103.16h-7.58v1.41h-1.23v-7.37h8.81V103.16z M80.16,98.31v3.72h6.34v-3.72H80.16z"/>
		<path d="M101.11,89.73c-0.53,1.35-1.18,2.7-1.9,3.95v12.92H98V95.58c-0.66,0.95-1.37,1.8-2.09,2.53c-0.11-0.27-0.48-0.91-0.7-1.18
			c1.88-1.84,3.67-4.67,4.75-7.54L101.11,89.73z M105.81,104.15c-1.12,0.99-2.96,1.92-4.5,2.47c-0.21-0.23-0.7-0.67-1.01-0.89
			c1.58-0.46,3.31-1.2,4.31-2.03L105.81,104.15z M112.95,94.29v0.95h-12.4v-0.95h5.6V93.2h-4.27v-0.87h4.27V91.3h-4.77v-0.89h4.77
			v-1.04h1.25v1.04h4.96v0.89h-4.96v1.03h4.46v0.87h-4.46v1.08H112.95z M111.69,103.35h-9.63v-7.12h9.63V103.35z M110.44,97.12
			h-7.16v1.22h7.16V97.12z M110.44,99.13h-7.16v1.25h7.16V99.13z M110.44,101.16h-7.16v1.27h7.16V101.16z M109.17,103.63
			c1.35,0.72,2.93,1.73,3.76,2.39l-1.12,0.72c-0.82-0.7-2.43-1.84-3.76-2.56L109.17,103.63z"/>
	</g>
	<g>
		<path d="M74.17,129.04v16.47h-1.25v-0.89H59.66v0.89h-1.2v-16.47H74.17z M72.91,143.46V130.2H59.66v13.26H72.91z M66.38,140.46
			c-1.99,0.4-4.05,0.82-5.6,1.12l-0.21-0.97c1.48-0.25,3.61-0.65,5.78-1.04L66.38,140.46z M71.05,134.93
			c-0.48,1.8-1.2,3.38-2.13,4.71c0.44,1.1,0.99,1.8,1.67,1.9c0.29,0.04,0.49-0.76,0.61-2c0.21,0.19,0.61,0.46,0.84,0.55
			c-0.25,2.03-0.82,2.77-1.77,2.45c-0.87-0.17-1.56-0.87-2.09-1.96c-0.76,0.89-1.63,1.65-2.6,2.28c-0.15-0.21-0.53-0.61-0.76-0.8
			c1.14-0.67,2.13-1.52,2.93-2.56c-0.51-1.54-0.85-3.53-1.06-5.74h-5.93v-0.97h5.83c-0.06-0.68-0.11-1.39-0.15-2.11h1.1
			c0.04,0.7,0.08,1.42,0.13,2.11h4.24v0.97h-4.16c0.17,1.75,0.42,3.34,0.78,4.64c0.65-1.08,1.16-2.32,1.5-3.69L71.05,134.93z
			 M65.68,135.05v3.69h-4.22v-3.69H65.68z M64.73,135.86h-2.36v2.03h2.36V135.86z M70.77,132.5c-0.44-0.42-1.33-1.01-2.09-1.35
			l0.61-0.63c0.74,0.32,1.63,0.84,2.09,1.29L70.77,132.5z"/>
		<path d="M82.57,129.35c-0.55,1.54-1.23,3.4-1.86,4.94c1.37,1.58,1.69,2.96,1.69,4.14c0,0.97-0.21,1.8-0.7,2.15
			c-0.25,0.21-0.59,0.3-0.93,0.36c-0.38,0.04-0.85,0.04-1.25,0.02c-0.02-0.3-0.13-0.78-0.34-1.1c0.46,0.04,0.84,0.06,1.14,0.02
			c0.23,0,0.44-0.06,0.59-0.17c0.3-0.21,0.4-0.78,0.4-1.35c0-1.06-0.34-2.39-1.73-3.93c0.57-1.39,1.14-3.04,1.56-4.33h-2.64v15.33
			h-1.12v-16.49h4.24l0.17-0.06L82.57,129.35z M85.23,136c-0.63,0.7-1.35,1.29-2.05,1.75c-0.15-0.25-0.46-0.61-0.68-0.8
			c1.23-0.72,2.41-1.96,3.34-3.5c-0.46-0.51-1.12-1.1-1.77-1.6c-0.44,0.63-0.91,1.18-1.39,1.65c-0.19-0.17-0.63-0.51-0.87-0.67
			c1.31-1.12,2.38-2.83,2.98-4.67l1.03,0.23c-0.15,0.42-0.3,0.82-0.49,1.24h2.13l0.19-0.04l0.65,0.25c-0.53,2.43-1.6,4.43-2.87,5.93
			h5.74v1.06h-5.93V136z M85.1,134.52c-1.03,0.17-1.92,0.32-2.83,0.46l-0.15-0.91c0.84-0.08,1.79-0.19,2.94-0.34L85.1,134.52z
			 M85.99,141.13c-0.74,1.22-1.82,2.6-2.66,3.51c-0.25-0.19-0.72-0.53-1.03-0.68c0.89-0.85,1.88-2.11,2.55-3.21L85.99,141.13z
			 M88.8,139.76v5.7h-1.18v-5.7h-4.27v-1.06h9.71v1.06H88.8z M84.85,130.56c-0.09,0.19-0.19,0.38-0.3,0.55
			c0.59,0.46,1.27,0.99,1.75,1.48c0.3-0.67,0.57-1.33,0.76-2.03H84.85z M93.72,129.56c-0.59,1.56-1.58,3.23-2.58,4.33
			c0.84,1.29,1.82,2.36,2.91,3.04c-0.25,0.19-0.59,0.61-0.76,0.89c-2.17-1.5-3.93-4.45-4.88-7.6l0.7-0.19v-0.84h3.67l0.21-0.08
			L93.72,129.56z M89.41,130.13c0.32,0.99,0.7,1.94,1.2,2.83c0.65-0.8,1.23-1.86,1.63-2.83H89.41z M91.25,140.63
			c0.97,1.03,2.2,2.39,2.81,3.25l-0.97,0.65c-0.59-0.84-1.8-2.28-2.75-3.34L91.25,140.63z"/>
		<path d="M101.11,128.55c-0.53,1.35-1.18,2.7-1.9,3.95v12.92H98V134.4c-0.66,0.95-1.37,1.8-2.09,2.53
			c-0.11-0.27-0.48-0.91-0.7-1.18c1.88-1.84,3.67-4.67,4.75-7.54L101.11,128.55z M105.81,142.97c-1.12,0.99-2.96,1.92-4.5,2.47
			c-0.21-0.23-0.7-0.67-1.01-0.89c1.58-0.46,3.31-1.2,4.31-2.03L105.81,142.97z M112.95,133.11v0.95h-12.4v-0.95h5.6v-1.08h-4.27
			v-0.87h4.27v-1.03h-4.77v-0.89h4.77v-1.04h1.25v1.04h4.96v0.89h-4.96v1.03h4.46v0.87h-4.46v1.08H112.95z M111.69,142.17h-9.63
			v-7.12h9.63V142.17z M110.44,135.94h-7.16v1.22h7.16V135.94z M110.44,137.95h-7.16v1.25h7.16V137.95z M110.44,139.99h-7.16v1.27
			h7.16V139.99z M109.17,142.46c1.35,0.72,2.93,1.73,3.76,2.39l-1.12,0.72c-0.82-0.7-2.43-1.84-3.76-2.56L109.17,142.46z"/>
	</g>
	<g>
		<path d="M24.05,178.02c-0.19-0.53-0.65-1.48-1.06-2.3v9.54h-1.12v-9.25c-0.49,2.03-1.16,3.99-1.84,5.19
			c-0.13-0.36-0.42-0.93-0.59-1.24c0.95-1.58,1.88-4.56,2.32-7.12h-1.94v-1.2h2.05v-3.67h1.12v3.67h1.56v1.2h-1.56v1.31
			c0.44,0.67,1.44,2.45,1.69,2.93L24.05,178.02z M35.62,179.45c-0.59,1.16-1.39,2.2-2.37,3.1c0.59,0.91,1.27,1.42,2.11,1.5
			c0.4,0.04,0.65-0.7,0.82-2.07c0.21,0.23,0.65,0.51,0.85,0.63c-0.34,2.05-0.89,2.74-1.63,2.68c-1.27-0.09-2.26-0.8-3.04-2.01
			c-1.01,0.76-2.13,1.41-3.38,1.9c-0.17-0.23-0.46-0.59-0.7-0.78c1.35-0.53,2.56-1.22,3.59-2.03c-0.48-0.99-0.84-2.2-1.12-3.57
			h-3.21v0.42c0,0.11,0,0.23,0,0.36c0.91,0.72,2.07,1.71,2.64,2.32l-0.8,0.78c-0.44-0.51-1.23-1.23-1.99-1.88
			c-0.3,1.54-1.08,3.23-2.83,4.54c-0.17-0.23-0.59-0.65-0.84-0.78c2.24-1.61,2.72-3.76,2.72-5.36v-0.4h-1.48v-1.03h5.58
			c-0.46-2.7-0.7-6-0.82-9.63h1.1c0.09,3.7,0.36,7.01,0.84,9.63h2.91c-0.47-0.42-1.22-0.93-1.82-1.29l0.65-0.61
			c0.7,0.38,1.6,0.97,2.03,1.37l-0.49,0.53h1.58v1.03h-4.64c0.25,1.08,0.53,2.01,0.87,2.79c0.76-0.76,1.35-1.6,1.79-2.51
			L35.62,179.45z M29.03,176.66c-0.06-0.23-0.13-0.51-0.23-0.82c-2.79,0.42-3.25,0.49-3.5,0.63c-0.04-0.19-0.17-0.7-0.29-0.97
			c0.27-0.06,0.59-0.36,0.97-0.84c0.21-0.27,0.74-0.93,1.27-1.8c-1.58,0.23-1.92,0.34-2.11,0.44c-0.04-0.21-0.21-0.72-0.3-0.99
			c0.23-0.06,0.46-0.29,0.7-0.68c0.27-0.38,1.18-1.88,1.67-3.31l0.95,0.32c-0.55,1.25-1.25,2.53-1.94,3.5l1.6-0.17
			c0.23-0.44,0.48-0.85,0.68-1.31l0.91,0.38c-0.85,1.54-1.88,3.06-2.89,4.24l2.01-0.27c-0.15-0.44-0.32-0.86-0.49-1.25l0.82-0.23
			c0.42,0.91,0.84,2.13,1.01,2.83L29.03,176.66z M35.85,176.31c-0.06-0.23-0.15-0.53-0.27-0.87c-2.83,0.44-3.29,0.53-3.51,0.67
			c-0.06-0.23-0.21-0.76-0.34-1.03c0.29-0.06,0.59-0.38,0.95-0.84c0.21-0.27,0.66-0.91,1.18-1.77c-1.48,0.21-1.79,0.3-1.98,0.42
			c-0.06-0.23-0.21-0.7-0.34-0.99c0.25-0.02,0.44-0.27,0.67-0.63c0.23-0.32,0.99-1.71,1.42-3l0.95,0.3
			c-0.47,1.14-1.08,2.26-1.67,3.13l1.48-0.15c0.25-0.42,0.49-0.89,0.68-1.33l0.99,0.36c-0.84,1.58-1.82,3.12-2.81,4.29l2.05-0.27
			c-0.15-0.42-0.32-0.84-0.49-1.22l0.8-0.23c0.42,0.91,0.89,2.11,1.08,2.83L35.85,176.31z"/>
		<path d="M44.3,178.94c-0.27-0.63-0.97-1.84-1.56-2.79v9.1h-1.16v-9.18c-0.65,2.17-1.54,4.29-2.43,5.58
			c-0.15-0.32-0.46-0.8-0.66-1.08c1.18-1.6,2.37-4.64,2.94-7.28h-2.56v-1.18h2.72v-4.14h1.16v4.14h2.22v1.18h-2.22v1.39
			c0.53,0.68,1.96,2.79,2.26,3.31L44.3,178.94z M56.16,182.17h-1.23v1.75c0,0.63-0.13,0.95-0.63,1.14
			c-0.48,0.17-1.27,0.19-2.55,0.19c-0.06-0.3-0.23-0.74-0.36-1.06c0.95,0.04,1.79,0.04,2.03,0.02c0.25-0.02,0.32-0.06,0.32-0.29
			v-1.75h-6.71v3.08H45.9v-3.08h-1.33v-1.01h1.33v-4.79h3.84v-1.2h-4.83v-0.99h2.68v-1.37h-1.86v-0.95h1.86v-1.33h-2.22v-0.97h2.22
			v-1.6h1.16v1.6h3.23v-1.6h1.2v1.6h2.39v0.97h-2.39v1.33h2.11v0.95h-2.11v1.37h2.77v0.99h-5.05v1.2h4.03v4.79h1.23V182.17z
			 M47.04,177.34v1.41h2.7v-1.41H47.04z M47.04,181.16h2.7v-1.48h-2.7V181.16z M48.75,171.87h3.23v-1.33h-3.23V171.87z
			 M48.75,174.19h3.23v-1.37h-3.23V174.19z M50.89,177.34v1.41h2.85v-1.41H50.89z M53.74,181.16v-1.48h-2.85v1.48H53.74z"/>
		<path d="M63.53,177.45l-2.15,0.72v5.51c0,0.74-0.17,1.06-0.59,1.27c-0.46,0.21-1.16,0.25-2.36,0.23c-0.04-0.3-0.21-0.82-0.38-1.16
			c0.85,0.02,1.61,0.02,1.82,0c0.23,0,0.34-0.08,0.34-0.34v-5.13l-2.36,0.78l-0.34-1.2c0.74-0.23,1.67-0.51,2.7-0.84v-4.27h-2.43
			v-1.18h2.43v-3.86h1.16v3.86h2.13v1.18h-2.13v3.89l1.96-0.63L63.53,177.45z M70.9,176.07c0.46,4.46,1.31,7.62,2.45,7.67
			c0.32,0,0.59-1.01,0.74-2.81c0.21,0.25,0.66,0.51,0.89,0.61c-0.34,2.79-0.93,3.61-1.63,3.61c-2.03-0.06-3.08-3.78-3.61-9.08h-3.82
			v5.66l2.94-1.08c0.02,0.32,0.08,0.74,0.11,0.99c-3.74,1.48-4.27,1.71-4.6,2c-0.08-0.3-0.3-0.8-0.49-1.06
			c0.32-0.15,0.84-0.46,0.84-1.2v-11.19h0.02l-0.02-0.02c2.91-0.49,6.23-1.23,8.09-1.99l1.03,0.93c-0.97,0.36-2.09,0.68-3.34,0.99
			c0.06,1.69,0.15,3.33,0.29,4.81h3.93v1.18H70.9z M65.89,183.76h4.88v1.06h-4.88V183.76z M69.63,174.89
			c-0.11-1.42-0.21-2.96-0.27-4.54c-1.14,0.25-2.3,0.47-3.44,0.67v3.88H69.63z"/>
		<path d="M82.7,177.53c-0.76,0.25-1.52,0.49-2.26,0.7v5.47c0,0.72-0.17,1.04-0.61,1.24c-0.46,0.23-1.16,0.25-2.36,0.25
			c-0.06-0.32-0.23-0.82-0.38-1.14c0.82,0.02,1.58,0,1.79,0c0.27,0,0.34-0.08,0.34-0.34v-5.09c-0.78,0.25-1.54,0.47-2.22,0.67
			l-0.38-1.22c0.74-0.19,1.63-0.44,2.6-0.72v-4.31h-2.36v-1.18h2.36v-3.86h1.22v3.86h2.15v1.18h-2.15v3.99l2.11-0.63L82.7,177.53z
			 M93.38,169.15v10.6h-1.25v-1.03h-3.12v6.54h-1.2v-6.54h-3.04v1.1h-1.23v-10.68H93.38z M84.77,170.33v2.98h3.04v-2.98H84.77z
			 M87.81,177.57v-3.08h-3.04v3.08H87.81z M92.12,170.33h-3.12v2.98h3.12V170.33z M92.12,177.57v-3.08h-3.12v3.08H92.12z"/>
		<path d="M101.11,168.37c-0.53,1.35-1.18,2.7-1.9,3.95v12.92H98v-11.02c-0.66,0.95-1.37,1.8-2.09,2.53
			c-0.11-0.27-0.48-0.91-0.7-1.18c1.88-1.84,3.67-4.67,4.75-7.54L101.11,168.37z M105.81,182.79c-1.12,0.99-2.96,1.92-4.5,2.47
			c-0.21-0.23-0.7-0.67-1.01-0.89c1.58-0.46,3.31-1.2,4.31-2.03L105.81,182.79z M112.95,172.93v0.95h-12.4v-0.95h5.6v-1.08h-4.27
			v-0.87h4.27v-1.03h-4.77v-0.89h4.77v-1.04h1.25v1.04h4.96v0.89h-4.96v1.03h4.46v0.87h-4.46v1.08H112.95z M111.69,182h-9.63v-7.12
			h9.63V182z M110.44,175.76h-7.16v1.22h7.16V175.76z M110.44,177.78h-7.16v1.25h7.16V177.78z M110.44,179.81h-7.16v1.27h7.16
			V179.81z M109.17,182.28c1.35,0.72,2.93,1.73,3.76,2.39l-1.12,0.72c-0.82-0.7-2.43-1.84-3.76-2.56L109.17,182.28z"/>
	</g>
	<g>
		<path d="M6.53,217.28L4.38,218v5.51c0,0.74-0.17,1.06-0.59,1.27c-0.46,0.21-1.16,0.25-2.36,0.23c-0.04-0.3-0.21-0.82-0.38-1.16
			c0.85,0.02,1.61,0.02,1.82,0c0.23,0,0.34-0.08,0.34-0.34v-5.13l-2.36,0.78l-0.34-1.2c0.74-0.23,1.67-0.51,2.7-0.84v-4.27H0.79
			v-1.18h2.43v-3.86h1.16v3.86h2.13v1.18H4.38v3.89l1.96-0.63L6.53,217.28z M13.9,215.89c0.46,4.46,1.31,7.62,2.45,7.67
			c0.32,0,0.59-1.01,0.74-2.81c0.21,0.25,0.66,0.51,0.89,0.61c-0.34,2.79-0.93,3.61-1.63,3.61c-2.03-0.06-3.08-3.78-3.61-9.08H8.92
			v5.66l2.94-1.08c0.02,0.32,0.08,0.74,0.11,0.99c-3.74,1.48-4.27,1.71-4.6,2c-0.08-0.3-0.3-0.8-0.49-1.06
			c0.32-0.15,0.84-0.46,0.84-1.2V210h0.02l-0.02-0.02c2.91-0.49,6.23-1.23,8.09-1.99l1.03,0.93c-0.97,0.36-2.09,0.68-3.34,0.99
			c0.06,1.69,0.15,3.33,0.29,4.81h3.93v1.18H13.9z M8.89,223.59h4.88v1.06H8.89V223.59z M12.63,214.71
			c-0.11-1.42-0.21-2.96-0.27-4.54c-1.14,0.25-2.3,0.47-3.44,0.67v3.88H12.63z"/>
		<path d="M25.7,217.35c-0.76,0.25-1.52,0.49-2.26,0.7v5.47c0,0.72-0.17,1.04-0.61,1.24c-0.46,0.23-1.16,0.25-2.36,0.25
			c-0.06-0.32-0.23-0.82-0.38-1.14c0.82,0.02,1.58,0,1.79,0c0.27,0,0.34-0.08,0.34-0.34v-5.09c-0.78,0.25-1.54,0.47-2.22,0.67
			l-0.38-1.22c0.74-0.19,1.63-0.44,2.6-0.72v-4.31h-2.36v-1.18h2.36v-3.86h1.22v3.86h2.15v1.18h-2.15v3.99l2.11-0.63L25.7,217.35z
			 M36.38,208.98v10.6h-1.25v-1.03h-3.12v6.54h-1.2v-6.54h-3.04v1.1h-1.23v-10.68H36.38z M27.77,210.15v2.98h3.04v-2.98H27.77z
			 M30.81,217.39v-3.08h-3.04v3.08H30.81z M35.12,210.15h-3.12v2.98h3.12V210.15z M35.12,217.39v-3.08h-3.12v3.08H35.12z"/>
		<path d="M42.21,210.89c-0.91,0.65-1.84,1.2-2.74,1.63c-0.17-0.23-0.65-0.67-0.93-0.87c2.09-0.93,4.29-2.37,5.6-3.91l1.14,0.44
			c-0.53,0.63-1.16,1.24-1.86,1.8v3.95h-1.22V210.89z M45.63,222.9c-1.54,0.89-3.91,1.75-5.79,2.26c-0.21-0.25-0.65-0.72-0.93-0.95
			c1.94-0.42,4.2-1.1,5.58-1.84L45.63,222.9z M41.34,214.49h12.23v7.64H41.34V214.49z M42.56,216.73h9.76v-1.35h-9.76V216.73z
			 M42.56,218.97h9.76v-1.39h-9.76V218.97z M42.56,221.23h9.76v-1.41h-9.76V221.23z M47.74,210.17c-0.38-0.72-0.67-1.52-0.78-2.38
			h1.18c0.13,0.86,0.46,1.63,0.89,2.3l6.34-0.36l0.11,0.99l-5.68,0.34c1.22,1.29,2.87,2.05,4.16,2.03c0.51-0.02,0.67-0.34,0.74-1.44
			c0.27,0.21,0.66,0.38,0.99,0.48c-0.19,1.65-0.65,2.09-1.77,2.09c-1.88,0-4.12-1.16-5.57-3.06l-3.97,0.25l-0.09-1.03L47.74,210.17z
			 M50,222.43c2.07,0.65,4.33,1.44,5.72,2.05l-1.39,0.67c-1.2-0.61-3.25-1.39-5.36-2.07L50,222.43z M53.33,209.7
			c-0.74-0.42-2.17-0.93-3.31-1.22l0.61-0.66c1.12,0.23,2.56,0.7,3.34,1.12L53.33,209.7z"/>
		<path d="M60.38,219.79c-0.49,1.39-1.22,2.98-1.84,4.05c-0.23-0.13-0.72-0.38-1.01-0.49c0.68-1.04,1.33-2.51,1.77-3.82
			L60.38,219.79z M62.81,218.8v6.31h-1.2v-6.31h-3.97v-1.08h9.08v1.08H62.81z M61.61,210.74h-3.76v-1.08h3.76v-1.8h1.2v1.8h3.74
			v1.08h-3.74v1.75h3.36v1.08h-7.88v-1.08h3.32V210.74z M65.94,215.07v1.08h-7.43v-1.08H65.94z M64.96,219.52
			c0.57,0.93,1.22,2.2,1.52,2.96l-1.01,0.49c-0.3-0.8-0.91-2.09-1.44-3.08L64.96,219.52z M68.58,212.4c-0.44,1.5-0.95,2.87-1.6,3.95
			c-0.23-0.21-0.76-0.57-1.04-0.74c1.2-1.88,1.94-4.81,2.3-7.79l1.23,0.15c-0.17,1.12-0.36,2.22-0.61,3.27h4.84l0.23-0.06l0.84,0.27
			c-0.36,1.65-0.89,3.63-1.41,4.84l-1.03-0.32c0.34-0.91,0.74-2.3,1.01-3.57H68.58z M70.9,214.73c0,0.53-0.02,1.12-0.06,1.75
			c0.66,3.38,2.03,6.36,4.29,7.58c-0.27,0.25-0.67,0.72-0.85,1.04c-1.84-1.14-3.04-3.25-3.84-5.87c-0.48,2-1.46,4.08-3.46,5.91
			c-0.23-0.29-0.65-0.65-0.95-0.84c3.42-3.06,3.67-6.95,3.67-9.59v-0.87h1.2V214.73z"/>
		<path d="M76.74,224.02c1.23-0.84,2.09-2.28,2.55-3.63l1.04,0.42c-0.51,1.42-1.29,2.98-2.58,3.91L76.74,224.02z M81.49,214.31
			c-1.06,1.56-2.37,3.38-3.51,4.79L77,218.19c1.04-1.1,2.53-3,3.72-4.67L81.49,214.31z M80.48,211.27c-0.7-0.65-2.15-1.52-3.31-2.05
			l0.76-0.89c1.16,0.51,2.62,1.33,3.32,1.98L80.48,211.27z M83.37,216.56c-0.32,1.12-0.78,2.38-1.6,3.13l-0.89-0.55
			c0.76-0.68,1.25-1.88,1.54-2.93L83.37,216.56z M87.85,223.77c0.87,0,1.03-0.23,1.1-1.92c0.29,0.21,0.78,0.36,1.12,0.44
			c-0.15,2.11-0.55,2.6-2.09,2.6h-3.97c-1.92,0-2.39-0.34-2.39-1.67v-2.62h1.23v2.62c0,0.47,0.17,0.55,1.23,0.55H87.85z
			 M93.3,214.83c0,0-0.02,0.34-0.04,0.49c-0.21,2.74-0.46,3.82-0.85,4.22c-0.25,0.29-0.53,0.38-0.97,0.42
			c-0.34,0.02-1.03,0.02-1.73-0.04c-0.04-0.29-0.13-0.68-0.27-0.97c0.66,0.06,1.27,0.08,1.52,0.08c0.27,0,0.38-0.02,0.51-0.17
			c0.25-0.25,0.46-1.06,0.63-3.06h-9.14v-7.14h9.92v0.97h-4.43v1.14h3.74v0.87h-3.74v1.16h3.74v0.87h-3.74v1.16H93.3z M86.5,222.37
			c-0.61-0.74-1.88-1.67-3.04-2.26l0.84-0.67c1.14,0.57,2.45,1.46,3.1,2.2L86.5,222.37z M84.16,209.62v1.14h3.12v-1.14H84.16z
			 M87.28,211.64h-3.12v1.16h3.12V211.64z M84.16,214.83h3.12v-1.16h-3.12V214.83z M84.83,219.25c-0.04-0.68-0.28-1.69-0.59-2.45
			l0.91-0.19c0.32,0.78,0.59,1.77,0.65,2.41L84.83,219.25z M87.6,218.87c-0.15-0.57-0.57-1.46-0.97-2.13l0.85-0.23
			c0.42,0.63,0.85,1.5,1.01,2.07L87.6,218.87z M89.6,216.18c0.51,0.47,1.04,1.18,1.27,1.63l-0.76,0.4c-0.23-0.49-0.74-1.2-1.25-1.69
			L89.6,216.18z M90.78,220.45c1.27,1.01,2.66,2.47,3.25,3.53l-1.06,0.65c-0.57-1.03-1.9-2.55-3.15-3.59L90.78,220.45z"/>
		<path d="M101.97,212.09h-6.31v-1.04h6.31V212.09z M96.36,214.52v-1.01h5.03v1.01H96.36z M101.4,216.99h-5.03v-1.03h5.03V216.99z
			 M101.51,223.95h-4.14v0.91h-0.99v-6.36h5.13V223.95z M97.37,219.56v3.32h3.1v-3.32H97.37z M99.04,210.76
			c-0.29-0.68-0.93-1.75-1.46-2.53l0.87-0.55c0.55,0.76,1.2,1.75,1.5,2.43L99.04,210.76z M104.99,213.48
			c-0.7,0.95-1.5,1.71-2.36,2.26c-0.15-0.25-0.51-0.67-0.76-0.86c0.82-0.49,1.63-1.27,2.32-2.22c-0.49-0.44-1.2-1.01-1.8-1.41
			l0.72-0.8c0.57,0.34,1.22,0.84,1.69,1.23c0.38-0.65,0.68-1.37,0.91-2.11h-2.85v-1.06h3.31l0.21-0.04l0.74,0.27
			c-0.4,1.73-1.08,3.27-1.96,4.48h4.79v1.06h-4.96V213.48z M110.69,220.66c-0.46,0.97-1.03,2.07-1.5,2.91h3.67v1.06h-10.71v-1.06
			h5.85c0.49-0.91,1.14-2.3,1.42-3.25L110.69,220.66z M111.16,220.13h-7.41v-4.48h7.41V220.13z M105.5,223.49
			c-0.13-0.74-0.57-1.9-1.1-2.77l1.1-0.3c0.53,0.85,1.03,2,1.16,2.72L105.5,223.49z M110.02,216.67h-5.17v2.43h5.17V216.67z
			 M112.85,211.14c-0.61,0.51-1.35,1.01-1.99,1.37c0.68,0.91,1.46,1.65,2.34,2.17c-0.28,0.21-0.66,0.61-0.85,0.91
			c-2.2-1.41-3.82-4.22-4.64-7.33l1.04-0.23c0.15,0.57,0.36,1.12,0.59,1.69c0.53-0.46,1.14-0.99,1.5-1.39l0.8,0.68
			c-0.59,0.59-1.31,1.16-1.94,1.58c0.21,0.42,0.44,0.82,0.67,1.18c0.59-0.4,1.27-0.93,1.71-1.31L112.85,211.14z"/>
	</g>
	<g>
		<path d="M55.78,255.94v1.12h-7.96c-0.06,0.53-0.15,1.06-0.25,1.54h7.94v1.12h-8.26c-0.89,2.66-2.93,4.29-7.92,5.15
			c-0.09-0.3-0.42-0.86-0.65-1.12c4.48-0.67,6.34-1.94,7.2-4.03h-6.5v-1.12h6.86c0.11-0.47,0.21-0.99,0.27-1.54h-7.56v-1.12h7.69
			v-1.73h-5.96v-1.1h5.96v-1.63h-6.97v-1.16h4.05c-0.32-0.68-0.95-1.6-1.52-2.3l1.1-0.46c0.68,0.74,1.37,1.75,1.67,2.43l-0.67,0.32
			h5.13c0.59-0.8,1.29-1.94,1.71-2.75L52.4,248c-0.48,0.8-1.04,1.63-1.56,2.32h4.12v1.16h-7.05v1.63h6.12v1.1h-6.12v1.73H55.78z
			 M47.97,260.03c2.64,1.03,6.04,2.7,7.79,3.89L55.15,265c-1.67-1.24-5.07-2.96-7.75-4.07L47.97,260.03z"/>
		<path d="M74.17,248.51v16.47h-1.25v-0.89H59.66v0.89h-1.2v-16.47H74.17z M72.91,262.93v-13.26H59.66v13.26H72.91z M66.38,259.93
			c-1.99,0.4-4.05,0.82-5.6,1.12l-0.21-0.97c1.48-0.25,3.61-0.65,5.78-1.04L66.38,259.93z M71.05,254.4
			c-0.48,1.8-1.2,3.38-2.13,4.71c0.44,1.1,0.99,1.8,1.67,1.9c0.29,0.04,0.49-0.76,0.61-2c0.21,0.19,0.61,0.46,0.84,0.55
			c-0.25,2.03-0.82,2.77-1.77,2.45c-0.87-0.17-1.56-0.87-2.09-1.96c-0.76,0.89-1.63,1.65-2.6,2.28c-0.15-0.21-0.53-0.61-0.76-0.8
			c1.14-0.67,2.13-1.52,2.93-2.56c-0.51-1.54-0.85-3.53-1.06-5.74h-5.93v-0.97h5.83c-0.06-0.68-0.11-1.39-0.15-2.11h1.1
			c0.04,0.7,0.08,1.42,0.13,2.11h4.24v0.97h-4.16c0.17,1.75,0.42,3.34,0.78,4.64c0.65-1.08,1.16-2.32,1.5-3.69L71.05,254.4z
			 M65.68,254.52v3.69h-4.22v-3.69H65.68z M64.73,255.33h-2.36v2.03h2.36V255.33z M70.77,251.97c-0.44-0.42-1.33-1.01-2.09-1.35
			l0.61-0.63c0.74,0.32,1.63,0.84,2.09,1.29L70.77,251.97z"/>
		<path d="M83.27,248.65c-1.35,3.12-3.44,6.12-5.55,8.05c-0.25-0.27-0.78-0.78-1.12-1.01c2.15-1.79,4.14-4.58,5.32-7.49
			L83.27,248.65z M88.63,257.77c1.54,2.01,3.36,4.67,4.27,6.35l-1.25,0.66c-0.27-0.51-0.63-1.12-1.03-1.79
			c-9.99,0.67-11,0.72-11.66,0.97c-0.08-0.27-0.3-0.97-0.49-1.33c0.46-0.11,1.03-0.76,1.77-1.67c0.76-0.85,3.21-4.29,4.83-7.54
			l1.37,0.59c-1.67,3.02-3.65,6.06-5.64,8.34l9.1-0.49c-0.8-1.22-1.67-2.51-2.45-3.57L88.63,257.77z M89.05,248.12
			c0.93,3.1,2.85,5.98,5.07,7.43c-0.3,0.27-0.76,0.82-0.99,1.18c-2.15-1.6-4.01-4.37-5.03-7.31h-3.65v-1.29H89.05z"/>
		<path d="M101.11,248.02c-0.53,1.35-1.18,2.7-1.9,3.95v12.92H98v-11.02c-0.66,0.95-1.37,1.8-2.09,2.53
			c-0.11-0.27-0.48-0.91-0.7-1.18c1.88-1.84,3.67-4.67,4.75-7.54L101.11,248.02z M105.81,262.44c-1.12,0.99-2.96,1.92-4.5,2.47
			c-0.21-0.23-0.7-0.67-1.01-0.89c1.58-0.46,3.31-1.2,4.31-2.03L105.81,262.44z M112.95,252.58v0.95h-12.4v-0.95h5.6v-1.08h-4.27
			v-0.87h4.27v-1.03h-4.77v-0.89h4.77v-1.04h1.25v1.04h4.96v0.89h-4.96v1.03h4.46v0.87h-4.46v1.08H112.95z M111.69,261.64h-9.63
			v-7.12h9.63V261.64z M110.44,255.41h-7.16v1.22h7.16V255.41z M110.44,257.42h-7.16v1.25h7.16V257.42z M110.44,259.46h-7.16v1.27
			h7.16V259.46z M109.17,261.93c1.35,0.72,2.93,1.73,3.76,2.39l-1.12,0.72c-0.82-0.7-2.43-1.84-3.76-2.56L109.17,261.93z"/>
	</g>
	<g>
		<path d="M25.57,287.9c-0.53,1.39-1.22,2.77-1.96,4.07v12.77h-1.27v-10.79c-0.63,0.91-1.33,1.73-2.01,2.43
			c-0.13-0.29-0.49-0.95-0.74-1.23c1.9-1.84,3.69-4.69,4.77-7.62L25.57,287.9z M37,302.91v1.2H24.75v-1.2h5.57v-5h-4.43v-1.2h4.43
			v-4.33h-5.07v-1.2h11.47v1.2h-5.13v4.33h4.56v1.2h-4.56v5H37z M30.85,290.96c-0.29-0.84-0.99-2.15-1.63-3.15l1.14-0.42
			c0.67,0.95,1.41,2.26,1.71,3.08L30.85,290.96z"/>
		<path d="M40.67,293.39H39.4v-3.89h7.45c-0.25-0.57-0.59-1.23-0.91-1.77l1.23-0.38c0.42,0.67,0.87,1.5,1.16,2.15h6.93v3.89h-1.31
			v-2.7H40.67V293.39z M52.78,303.25c1.06,0,1.25-0.46,1.37-2.77c0.32,0.25,0.87,0.46,1.25,0.51c-0.21,2.75-0.63,3.5-2.56,3.5h-4.35
			c-2.13,0-2.74-0.46-2.74-2.18v-3.69H39.8v-1.24h5.95v-2.93c-1.58,0.25-3.21,0.49-4.73,0.68c-0.06-0.32-0.23-0.8-0.4-1.1
			c3.86-0.46,8.32-1.25,10.73-2.22l1.03,0.97c-1.44,0.55-3.31,1.01-5.3,1.41v3.19h7.29v1.24h-7.29v3.69c0,0.78,0.25,0.95,1.46,0.95
			H52.78z"/>
		<path d="M63.53,296.92l-2.15,0.72v5.51c0,0.74-0.17,1.06-0.59,1.27c-0.46,0.21-1.16,0.25-2.36,0.23c-0.04-0.3-0.21-0.82-0.38-1.16
			c0.85,0.02,1.61,0.02,1.82,0c0.23,0,0.34-0.08,0.34-0.34v-5.13l-2.36,0.78l-0.34-1.2c0.74-0.23,1.67-0.51,2.7-0.84v-4.27h-2.43
			v-1.18h2.43v-3.86h1.16v3.86h2.13v1.18h-2.13v3.89l1.96-0.63L63.53,296.92z M70.9,295.54c0.46,4.46,1.31,7.62,2.45,7.67
			c0.32,0,0.59-1.01,0.74-2.81c0.21,0.25,0.66,0.51,0.89,0.61c-0.34,2.79-0.93,3.61-1.63,3.61c-2.03-0.06-3.08-3.78-3.61-9.08h-3.82
			v5.66l2.94-1.08c0.02,0.32,0.08,0.74,0.11,0.99c-3.74,1.48-4.27,1.71-4.6,2c-0.08-0.3-0.3-0.8-0.49-1.06
			c0.32-0.15,0.84-0.46,0.84-1.2v-11.19h0.02l-0.02-0.02c2.91-0.49,6.23-1.23,8.09-1.99l1.03,0.93c-0.97,0.36-2.09,0.68-3.34,0.99
			c0.06,1.69,0.15,3.33,0.29,4.81h3.93v1.18H70.9z M65.89,303.23h4.88v1.06h-4.88V303.23z M69.63,294.36
			c-0.11-1.42-0.21-2.96-0.27-4.54c-1.14,0.25-2.3,0.47-3.44,0.67v3.88H69.63z"/>
		<path d="M82.7,297c-0.76,0.25-1.52,0.49-2.26,0.7v5.47c0,0.72-0.17,1.04-0.61,1.24c-0.46,0.23-1.16,0.25-2.36,0.25
			c-0.06-0.32-0.23-0.82-0.38-1.14c0.82,0.02,1.58,0,1.79,0c0.27,0,0.34-0.08,0.34-0.34v-5.09c-0.78,0.25-1.54,0.47-2.22,0.67
			l-0.38-1.22c0.74-0.19,1.63-0.44,2.6-0.72v-4.31h-2.36v-1.18h2.36v-3.86h1.22v3.86h2.15v1.18h-2.15v3.99l2.11-0.63L82.7,297z
			 M93.38,288.62v10.6h-1.25v-1.03h-3.12v6.54h-1.2v-6.54h-3.04v1.1h-1.23v-10.68H93.38z M84.77,289.8v2.98h3.04v-2.98H84.77z
			 M87.81,297.04v-3.08h-3.04v3.08H87.81z M92.12,289.8h-3.12v2.98h3.12V289.8z M92.12,297.04v-3.08h-3.12v3.08H92.12z"/>
		<path d="M101.11,287.84c-0.53,1.35-1.18,2.7-1.9,3.95v12.92H98v-11.02c-0.66,0.95-1.37,1.8-2.09,2.53
			c-0.11-0.27-0.48-0.91-0.7-1.18c1.88-1.84,3.67-4.67,4.75-7.54L101.11,287.84z M105.81,302.26c-1.12,0.99-2.96,1.92-4.5,2.47
			c-0.21-0.23-0.7-0.67-1.01-0.89c1.58-0.46,3.31-1.2,4.31-2.03L105.81,302.26z M112.95,292.4v0.95h-12.4v-0.95h5.6v-1.08h-4.27
			v-0.87h4.27v-1.03h-4.77v-0.89h4.77v-1.04h1.25v1.04h4.96v0.89h-4.96v1.03h4.46v0.87h-4.46v1.08H112.95z M111.69,301.47h-9.63
			v-7.12h9.63V301.47z M110.44,295.23h-7.16v1.22h7.16V295.23z M110.44,297.25h-7.16v1.25h7.16V297.25z M110.44,299.28h-7.16v1.27
			h7.16V299.28z M109.17,301.75c1.35,0.72,2.93,1.73,3.76,2.39l-1.12,0.72c-0.82-0.7-2.43-1.84-3.76-2.56L109.17,301.75z"/>
	</g>
	<g>
		<path d="M233.12,353.1c0.65,0.65,2.43,2.72,2.83,3.23l-0.8,1.03c-0.36-0.63-1.29-1.88-2.03-2.81v8.76h-1.2v-9.37
			c-0.76,2.28-1.8,4.5-2.87,5.83c-0.15-0.34-0.47-0.84-0.68-1.14c1.33-1.6,2.7-4.64,3.4-7.31h-2.98v-1.18h3.13v-4.1h1.2v4.1h2.77
			v1.18h-2.77V353.1z M245.2,347.17v15.98h-1.23v-1.1h-6v1.16h-1.22v-16.03H245.2z M237.97,348.37v3.32h6v-3.32H237.97z
			 M237.97,356.27h6v-3.42h-6V356.27z M243.97,360.89v-3.46h-6v3.46H243.97z"/>
		<path d="M264.79,352.38h-1.92v9.35c0,0.84-0.23,1.18-0.74,1.39c-0.53,0.23-1.41,0.27-2.94,0.25c-0.08-0.32-0.28-0.85-0.47-1.2
			c1.18,0.04,2.2,0.02,2.51,0.02c0.3-0.02,0.44-0.11,0.44-0.44v-9.37h-4.58v-1.16h-9.42v-1.08h2.96v-4.08h1.04v4.08h1.56v-4.08h1.06
			v3.23c0.61-0.68,1.41-1.84,1.84-2.62l1.03,0.55c-0.65,0.91-1.46,1.92-2.09,2.56l-0.78-0.46v0.82h2.93v1.04h4.45v-5.07h1.22v5.07
			h1.92V352.38z M253.05,360.62c1.31-0.19,2.7-0.38,4.07-0.57l0.04,1.12c-3.34,0.49-6.88,0.99-9.29,1.35l-0.19-1.22
			c1.14-0.13,2.58-0.32,4.18-0.53v-2.39h-3.04v-1.08h3.04v-2.05h-3.57v-1.08h4.94c0.48-0.78,1.03-1.96,1.35-2.75l1.12,0.4
			c-0.42,0.8-0.87,1.65-1.29,2.36h2.2v1.08h-3.55v2.05h3.15v1.08h-3.15V360.62z M249.75,349.76c-0.32-0.72-1.08-1.82-1.79-2.6
			l0.82-0.49c0.72,0.76,1.5,1.82,1.82,2.53L249.75,349.76z M250.26,351.35c0.61,0.65,1.25,1.56,1.52,2.17l-0.95,0.55
			c-0.25-0.65-0.87-1.56-1.48-2.24L250.26,351.35z M259.4,358.69c-0.21-1.16-0.93-2.98-1.73-4.37l1.06-0.38
			c0.82,1.39,1.6,3.15,1.79,4.31L259.4,358.69z"/>
		<path d="M273.06,355.42l-2.41,0.74v5.64c0,0.74-0.19,1.08-0.65,1.29c-0.48,0.21-1.22,0.25-2.47,0.23
			c-0.06-0.3-0.25-0.82-0.42-1.16c0.87,0.02,1.69,0.02,1.92,0c0.25,0,0.36-0.08,0.36-0.36v-5.24l-2.66,0.82l-0.4-1.25
			c0.84-0.23,1.9-0.51,3.06-0.86v-4.14h-2.75v-1.22h2.75v-3.84h1.25v3.84h2.2v1.22h-2.2v3.76c0.74-0.19,1.5-0.44,2.24-0.67
			L273.06,355.42z M276.44,353.42c-1.75,0-2.3-0.55-2.3-2.13v-5.19h1.23v2.34h7.69v1.12h-7.69v1.77c0,0.72,0.21,0.99,1.04,0.99h5.11
			c0.63,0,1.61-0.04,2.03-0.11c0.06,0.34,0.11,0.82,0.17,1.1c-0.34,0.09-1.25,0.11-2.13,0.11H276.44z M274.14,355.11h8.85v8.15
			h-1.25v-0.8h-6.4v0.87h-1.2V355.11z M275.34,356.22v2.01h6.4v-2.01H275.34z M281.74,361.4v-2.13h-6.4v2.13H281.74z"/>
		<path d="M293.92,358.46c-0.17,0.83-0.61,1.71-1.67,2.54c0.85,0.38,1.63,0.78,2.22,1.1l-0.87,0.78c-0.61-0.4-1.42-0.82-2.34-1.25
			c-1.2,0.65-2.91,1.25-5.32,1.69c-0.11-0.27-0.34-0.63-0.53-0.84c2.09-0.38,3.59-0.84,4.69-1.35c-1.01-0.42-2.05-0.82-3.02-1.08
			c0.32-0.38,0.65-0.8,0.97-1.27l-2.3,0.13l-0.13-0.97c0.87-0.04,1.92-0.08,3.1-0.13c0.32-0.53,0.63-1.04,0.91-1.56h-3.15v-3.02
			h3.61v-0.84h-3.08v-2.07h-1.25v-0.99h1.25v-1.94h3.08v-1.37h1.03v1.37h3.27v1.94h1.29v0.99h-1.29v2.07h-3.27v0.84h3.74v3.02h-4.05
			c-0.25,0.49-0.53,0.99-0.84,1.5l3-0.15c0-0.09,0-0.19,0-0.29v-0.67h1.04v0.7v0.19l1.03-0.06l-0.02,0.89L293.92,358.46z
			 M287.56,355.38h2.53v-1.27h-2.53V355.38z M288.09,348.29v1.08h2v-1.08H288.09z M290.08,351.49v-1.22h-2v1.22H290.08z
			 M289.34,358.72c-0.23,0.3-0.44,0.61-0.65,0.87c0.82,0.27,1.67,0.59,2.49,0.93c0.97-0.65,1.41-1.37,1.61-2.01L289.34,358.72z
			 M291.11,348.29v1.08h2.13v-1.08H291.11z M293.24,351.49v-1.22h-2.13v1.22H293.24z M291.11,354.11v1.27h2.6v-1.27H291.11z
			 M301.44,350.84c-0.36,2.85-0.85,5.26-1.71,7.33c0.82,1.77,1.86,3.19,3.23,4.07c-0.27,0.21-0.61,0.59-0.78,0.89
			c-1.25-0.87-2.26-2.17-3.04-3.72c-0.84,1.62-1.96,2.96-3.46,4.05c-0.1-0.23-0.46-0.74-0.7-0.95c1.61-1.1,2.75-2.58,3.59-4.41
			c-0.63-1.56-1.08-3.32-1.44-5.26c-0.32,0.86-0.67,1.62-1.06,2.28c-0.19-0.19-0.63-0.61-0.89-0.78c1.25-1.98,2.01-5.03,2.47-8.13
			l1.08,0.17c-0.15,1.12-0.38,2.24-0.65,3.33h4.67v1.14H301.44z M297.78,350.84c0.3,2.09,0.74,4.08,1.35,5.83
			c0.57-1.69,0.93-3.65,1.18-5.83H297.78z"/>
		<path d="M313.03,349.53c0,0,0,0.49-0.02,0.66c-0.36,8.3-0.67,11.09-1.39,11.97c-0.34,0.47-0.7,0.65-1.23,0.68
			c-0.48,0.06-1.25,0.06-2.07,0c-0.02-0.38-0.13-0.93-0.34-1.29c0.82,0.08,1.56,0.1,1.9,0.1c0.28,0,0.47-0.06,0.65-0.32
			c0.55-0.63,0.89-3.29,1.22-10.56h-2.81c-0.23,4.75-0.91,9.54-3.34,12.48c-0.23-0.27-0.67-0.65-1.01-0.82
			c2.28-2.66,2.91-7.2,3.12-11.66H305v-1.23h2.74c0.02-1.18,0.04-2.34,0.04-3.44h1.25c0,1.1-0.02,2.26-0.06,3.44H313.03z
			 M320.99,348.45v14.51h-1.31v-1.27h-3.89v1.41h-1.25v-14.65H320.99z M319.68,360.47v-10.81h-3.89v10.81H319.68z"/>
		<path d="M328.79,346.89h1.16l-5.87,18.41h-1.14L328.79,346.89z"/>
		<path d="M334.13,354.11c-0.67-0.59-2.01-1.39-3.13-1.88l0.7-0.91c1.1,0.44,2.47,1.18,3.15,1.77L334.13,354.11z M335,356.67
			c-0.72,2.05-1.71,4.54-2.56,6.33l-1.12-0.68c0.78-1.52,1.92-4.1,2.7-6.31L335,356.67z M334.96,349.15
			c-0.65-0.63-1.96-1.48-3.08-2.01l0.72-0.91c1.08,0.49,2.45,1.27,3.1,1.92L334.96,349.15z M347.73,352.23
			c-0.57,2.51-1.39,4.65-2.49,6.46c0.44,1.96,1.01,3.15,1.65,3.19c0.36,0.02,0.63-1.06,0.76-2.96c0.23,0.25,0.72,0.53,0.93,0.61
			c-0.34,3-0.99,3.84-1.69,3.84c-1.12-0.04-1.96-1.27-2.55-3.38c-0.97,1.27-2.13,2.34-3.48,3.21c-0.19-0.19-0.65-0.63-0.87-0.84
			c1.63-0.95,2.96-2.22,4.01-3.78c-0.46-2.22-0.74-5.11-0.93-8.34h-5.85v3.91c0,2.75-0.28,6.61-2.11,9.25
			c-0.21-0.21-0.68-0.53-0.95-0.67c1.73-2.51,1.92-6,1.92-8.59v-5.03h6.95c-0.06-0.93-0.1-1.9-0.11-2.89h1.16
			c0.02,0.99,0.06,1.94,0.1,2.89h3.91v1.12h-3.86c0.15,2.55,0.38,4.88,0.68,6.78c0.74-1.48,1.31-3.15,1.71-5.02L347.73,352.23z
			 M342.65,352.83h-4.62v-0.99h4.62V352.83z M339.14,359.45v1.18h-0.93v-6.21h4.31v5.03H339.14z M339.14,355.4v3.06h2.43v-3.06
			H339.14z M347.25,348.96c-0.51-0.67-1.58-1.58-2.53-2.17l0.72-0.67c0.93,0.57,2.03,1.42,2.55,2.09L347.25,348.96z"/>
		<path d="M352.63,360.91v1.56h-1.1v-6.54c-0.3,0.67-0.65,1.27-1.03,1.82c-0.13-0.25-0.53-0.84-0.78-1.1
			c1.41-2.03,2.22-5.17,2.72-8.51h-2.26v-1.16h6.9v1.16h-3.42c-0.27,1.65-0.59,3.25-1.01,4.71h3.69v8.05H352.63z M355.21,353.96
			h-2.58v5.83h2.58V353.96z M356.24,361.97c0.85-0.95,1.23-2.58,1.41-4.14l0.97,0.23c-0.21,1.63-0.55,3.4-1.46,4.43L356.24,361.97z
			 M367.03,355.72c0,0-0.02,0.36-0.04,0.55c-0.21,4.43-0.42,6.02-0.91,6.57c-0.29,0.34-0.59,0.46-1.1,0.49
			c-0.42,0.04-1.23,0.02-2.07-0.02c-0.04-0.32-0.13-0.8-0.32-1.1c0.84,0.08,1.61,0.08,1.9,0.08c0.3,0,0.46-0.04,0.61-0.17
			c0.34-0.36,0.53-1.73,0.72-5.3h-7.88v-9.96h8.72v1.12h-3.69v1.84h3.25v1.04h-3.25v1.88h3.25v1.04h-3.25v1.92H367.03z
			 M359.09,347.99v1.84h2.74v-1.84H359.09z M361.83,350.88h-2.74v1.88h2.74V350.88z M359.09,355.72h2.74v-1.92h-2.74V355.72z
			 M360.36,358.25c0.23,1.12,0.38,2.54,0.36,3.48l-0.95,0.15c0.02-0.95-0.1-2.39-0.3-3.5L360.36,358.25z M362.32,357.98
			c0.42,0.91,0.78,2.13,0.93,2.91l-0.89,0.27c-0.13-0.78-0.48-2.01-0.87-2.94L362.32,357.98z M364.69,360.09
			c-0.25-0.65-0.82-1.58-1.31-2.3l0.7-0.3c0.57,0.7,1.12,1.63,1.37,2.22L364.69,360.09z"/>
		<path d="M369.94,356.03c0-3.72,1.04-6.78,2.79-9.61l0.95,0.46c-1.63,2.7-2.45,5.91-2.45,9.16c0,3.25,0.82,6.46,2.45,9.16
			l-0.95,0.46C370.99,362.81,369.94,359.77,369.94,356.03z"/>
		<path d="M375.22,352.11c0-2.79,1.22-4.35,3.12-4.35c1.9,0,3.12,1.56,3.12,4.35c0,2.81-1.22,4.41-3.12,4.41
			C376.44,356.52,375.22,354.92,375.22,352.11z M380.26,352.11c0-2.24-0.78-3.38-1.92-3.38s-1.92,1.14-1.92,3.38
			c0,2.24,0.78,3.42,1.92,3.42S380.26,354.35,380.26,352.11z M386.43,347.76h1.08l-7.69,14.4h-1.08L386.43,347.76z M384.84,357.76
			c0-2.77,1.22-4.35,3.12-4.35c1.86,0,3.12,1.58,3.12,4.35c0,2.83-1.25,4.41-3.12,4.41C386.05,362.16,384.84,360.59,384.84,357.76z
			 M389.87,357.76c0-2.24-0.78-3.36-1.92-3.36c-1.16,0-1.92,1.12-1.92,3.36c0,2.26,0.76,3.44,1.92,3.44
			C389.09,361.19,389.87,360.02,389.87,357.76z"/>
		<path d="M392.61,365.18c1.63-2.7,2.45-5.91,2.45-9.16c0-3.25-0.82-6.46-2.45-9.16l0.95-0.46c1.75,2.83,2.79,5.89,2.79,9.61
			c0,3.74-1.04,6.78-2.79,9.61L392.61,365.18z"/>
	</g>
	<line class="st0" x1="412.24" y1="0" x2="412.24" y2="316.24"/>
	<rect x="412.24" y="7.76" class="st1" width="144" height="21.88"/>
	<rect x="412.24" y="47.56" class="st1" width="96" height="21.88"/>
	
		<rect x="309.18" y="87.36" transform="matrix(-1 -1.224647e-16 1.224647e-16 -1 721.4117 196.605)" class="st1" width="103.06" height="21.88"/>
	<rect x="412.24" y="127.16" class="st1" width="96" height="21.88"/>
	
		<rect x="286.59" y="166.96" transform="matrix(-1 -1.224647e-16 1.224647e-16 -1 698.8235 355.7983)" class="st1" width="125.65" height="21.88"/>
	<rect x="412.24" y="206.76" class="st1" width="65.65" height="21.88"/>
	
		<rect x="217.41" y="246.55" transform="matrix(-1 -1.224647e-16 1.224647e-16 -1 629.647 514.9916)" class="st1" width="194.82" height="21.88"/>
	
		<rect x="210.53" y="350.34" transform="matrix(-1 -1.224647e-16 1.224647e-16 -1 430.2353 709.8488)" class="st1" width="9.18" height="9.18"/>
	<rect x="412.24" y="286.35" class="st1" width="83.29" height="21.88"/>
</g>
<g>
	<text transform="matrix(1 0 0 1 -0.1946 453.5037)" style="font-family:'SourceHanSansTW-Normal-B5pc-H'; font-size:19px;">高收益公司債</text>
	<text transform="matrix(1 0 0 1 567.4224 453.5037)" style="font-family:'SourceHanSansTW-Normal-B5pc-H'; font-size:19px;">21.26</text>
	<text transform="matrix(1 0 0 1 522.9518 492.2096)" style="font-family:'SourceHanSansTW-Normal-B5pc-H'; font-size:19px;">14.16</text>
	<text transform="matrix(1 0 0 1 243.2588 531.9153)" style="font-family:'SourceHanSansTW-Normal-B5pc-H'; font-size:19px;">-15.05</text>
	<text transform="matrix(1 0 0 1 522.952 572.7479)" style="font-family:'SourceHanSansTW-Normal-B5pc-H'; font-size:19px;">14.37</text>
	<text transform="matrix(1 0 0 1 219.2589 611.5627)" style="font-family:'SourceHanSansTW-Normal-B5pc-H'; font-size:19px;">-18.61</text>
	<text transform="matrix(1 0 0 1 488.2066 650.386)" style="font-family:'SourceHanSansTW-Normal-B5pc-H'; font-size:19px;">9.69</text>
	<text transform="matrix(1 0 0 1 166.866 692.1425)" style="font-family:'SourceHanSansTW-Normal-B5pc-H'; font-size:19px;">-28.4</text>
	<text transform="matrix(1 0 0 1 507.2654 731.0329)" style="font-family:'SourceHanSansTW-Normal-B5pc-H'; font-size:19px;">12.3</text>
	<text transform="matrix(1 0 0 1 408.3926 759.1762)" style="font-family:'SourceHanSansTW-Normal-B5pc-H'; font-size:14px;">0</text>
	<text transform="matrix(1 0 0 1 335.0897 759.1762)" style="font-family:'SourceHanSansTW-Normal-B5pc-H'; font-size:14px;">-10</text>
	<text transform="matrix(1 0 0 1 263.0308 759.1762)" style="font-family:'SourceHanSansTW-Normal-B5pc-H'; font-size:14px;">-20</text>
	<text transform="matrix(1 0 0 1 195.972 759.1762)" style="font-family:'SourceHanSansTW-Normal-B5pc-H'; font-size:14px;">-30</text>
	<text transform="matrix(1 0 0 1 127.9131 759.1762)" style="font-family:'SourceHanSansTW-Normal-B5pc-H'; font-size:14px;">-40</text>
	<text transform="matrix(1 0 0 1 473.02 759.1762)" style="font-family:'SourceHanSansTW-Normal-B5pc-H'; font-size:14px;">10</text>
	<text transform="matrix(1 0 0 1 541.4905 759.1762)" style="font-family:'SourceHanSansTW-Normal-B5pc-H'; font-size:14px;">20</text>
	<text transform="matrix(1 0 0 1 609.9611 759.1762)" style="font-family:'SourceHanSansTW-Normal-B5pc-H'; font-size:14px;">30</text>
	<text transform="matrix(1 0 0 1 37.8054 492.2095)" style="font-family:'SourceHanSansTW-Normal-B5pc-H'; font-size:19px;">銀行貸款</text>
	<text transform="matrix(1 0 0 1 -0.1946 531.9154)" style="font-family:'SourceHanSansTW-Normal-B5pc-H'; font-size:19px;">投資級公司債</text>
	<text transform="matrix(1 0 0 1 56.8054 570.7389)" style="font-family:'SourceHanSansTW-Normal-B5pc-H'; font-size:19px;">國際債</text>
	<text transform="matrix(1 0 0 1 18.8054 610.5624)" style="font-family:'SourceHanSansTW-Normal-B5pc-H'; font-size:19px;">機構抵押債</text>
	<text transform="matrix(1 0 0 1 -0.1946 650.3859)" style="font-family:'SourceHanSansTW-Normal-B5pc-H'; font-size:19px;">抵押貸款憑證</text>
	<text transform="matrix(1 0 0 1 37.8054 690.2095)" style="font-family:'SourceHanSansTW-Normal-B5pc-H'; font-size:19px;">美國公債</text>
	<text transform="matrix(1 0 0 1 18.8054 730.033)" style="font-family:'SourceHanSansTW-Normal-B5pc-H'; font-size:19px;">住宅抵押債</text>
	<text transform="matrix(1 0 0 1 227.7258 788.6212)" style="font-family:'SourceHanSansTW-Normal-B5pc-H'; font-size:19px;">相對指數加/減碼(%)</text>
	<line class="st0" x1="412.24" y1="426.71" x2="412.24" y2="742.94"/>
	<rect x="412.24" y="434.47" class="st1" width="144" height="21.88"/>
	<rect x="412.24" y="474.27" class="st1" width="96" height="21.88"/>
	
		<rect x="309.18" y="514.07" transform="matrix(-1 -1.224647e-16 1.224647e-16 -1 721.4117 1050.0168)" class="st1" width="103.06" height="21.88"/>
	<rect x="412.24" y="553.87" class="st1" width="96" height="21.88"/>
	
		<rect x="286.59" y="593.66" transform="matrix(-1 -1.224647e-16 1.224647e-16 -1 698.8235 1209.2101)" class="st1" width="125.65" height="21.88"/>
	<rect x="412.24" y="633.46" class="st1" width="65.65" height="21.88"/>
	
		<rect x="217.41" y="673.26" transform="matrix(-1 -1.224647e-16 1.224647e-16 -1 629.647 1368.4033)" class="st1" width="194.82" height="21.88"/>
	
		<rect x="210.53" y="777.04" transform="matrix(-1 -1.224647e-16 1.224647e-16 -1 430.2353 1563.2605)" class="st1" width="9.18" height="9.18"/>
	<rect x="412.24" y="713.06" class="st1" width="83.29" height="21.88"/>
</g>
</svg>
