<?xml version="1.0" encoding="utf-8"?>
<!-- Generator: Adobe Illustrator 24.0.0, SVG Export Plug-In . SVG Version: 6.00 Build 0)  -->
<svg version="1.1" id="圖層_1" xmlns="http://www.w3.org/2000/svg" xmlns:xlink="http://www.w3.org/1999/xlink" x="0px" y="0px"
	 viewBox="0 0 368.5 227.33" style="enable-background:new 0 0 368.5 227.33;" xml:space="preserve">
<style type="text/css">
	.st0{fill:none;stroke:#AFAFAF;stroke-miterlimit:10;}
	.st1{fill:#0F347F;}
	.st2{fill:#F4DC24;}
</style>
<g>
	<line class="st0" x1="28.9" y1="6.35" x2="28.9" y2="192.71"/>
	<line class="st0" x1="22.78" y1="187.53" x2="359.72" y2="187.53"/>
	<line class="st0" x1="22.78" y1="6.35" x2="28.9" y2="6.35"/>
	<line class="st0" x1="22.78" y1="52" x2="28.9" y2="52"/>
	<line class="st0" x1="22.78" y1="96.24" x2="28.9" y2="96.24"/>
	<line class="st0" x1="22.78" y1="141.88" x2="28.9" y2="141.88"/>
	<line class="st0" x1="194.08" y1="187.53" x2="194.08" y2="192.71"/>
	<line class="st0" x1="359.72" y1="187.53" x2="359.72" y2="192.71"/>
	<rect x="78.31" y="88.71" class="st1" width="64.94" height="98.82"/>
	<rect x="244.9" y="56.24" class="st2" width="64.94" height="131.29"/>
	<g>
		<path d="M102.39,72.18h-1.9v3.88h-1.46v-3.88h-6.1v-1.01l5.91-9.02h1.65v8.8h1.9V72.18z M99.03,70.94v-4.52
			c0-0.68,0.06-1.79,0.11-2.47h-0.1c-0.34,0.67-0.72,1.35-1.1,2.01l-3.36,4.98H99.03z"/>
		<path d="M104.39,75.08c0-0.76,0.53-1.25,1.16-1.25c0.65,0,1.18,0.49,1.18,1.25c0,0.72-0.53,1.22-1.18,1.22
			C104.92,76.3,104.39,75.8,104.39,75.08z"/>
		<path d="M108.7,74.4l0.8-1.01c0.82,0.84,1.86,1.61,3.51,1.61c1.69,0,2.91-1.04,2.91-2.7c0-1.73-1.18-2.89-4.41-2.89v-1.22
			c2.91,0,3.91-1.2,3.91-2.75c0-1.39-0.93-2.3-2.43-2.32c-1.14,0.02-2.15,0.61-2.93,1.41l-0.85-1.01c1.03-0.93,2.24-1.63,3.84-1.65
			c2.28,0.02,3.95,1.25,3.95,3.46c0,1.73-1.01,2.85-2.49,3.38v0.08c1.63,0.38,2.96,1.63,2.96,3.55c0,2.47-1.94,3.95-4.37,3.95
			C110.94,76.3,109.59,75.37,108.7,74.4z"/>
		<path d="M119.13,74.4l0.8-1.01c0.82,0.84,1.86,1.61,3.51,1.61c1.69,0,2.91-1.04,2.91-2.7c0-1.73-1.18-2.89-4.41-2.89v-1.22
			c2.91,0,3.91-1.2,3.91-2.75c0-1.39-0.93-2.3-2.43-2.32c-1.14,0.02-2.15,0.61-2.93,1.41l-0.85-1.01c1.03-0.93,2.24-1.63,3.84-1.65
			c2.28,0.02,3.95,1.25,3.95,3.46c0,1.73-1.01,2.85-2.49,3.38v0.08c1.63,0.38,2.96,1.63,2.96,3.55c0,2.47-1.94,3.95-4.37,3.95
			C121.37,76.3,120.02,75.37,119.13,74.4z"/>
	</g>
	<g>
		<path d="M259.69,41.51l0.78-1.03c0.8,0.82,1.82,1.58,3.48,1.58c1.67,0,3.06-1.33,3.06-3.42c0-2.05-1.18-3.29-2.98-3.29
			c-0.95,0-1.56,0.3-2.36,0.84l-0.85-0.53l0.44-6.46h6.65v1.33h-5.28l-0.38,4.22c0.65-0.36,1.29-0.59,2.17-0.59
			c2.3,0,4.16,1.37,4.16,4.45c0,3.02-2.19,4.75-4.48,4.75C261.91,43.36,260.62,42.44,259.69,41.51z"/>
		<path d="M270.98,42.14c0-0.76,0.53-1.25,1.16-1.25c0.65,0,1.18,0.49,1.18,1.25c0,0.72-0.53,1.22-1.18,1.22
			C271.51,43.36,270.98,42.86,270.98,42.14z"/>
		<path d="M282.47,30.53h-6.82V29.2h8.61v0.93c-3.29,4.24-3.89,7.54-4.12,12.97h-1.61C278.75,37.75,279.73,34.33,282.47,30.53z"/>
		<path d="M286.01,39.65c0-1.88,1.31-3.17,2.58-3.88V35.7c-1.01-0.68-1.88-1.73-1.88-3.19c0-2.09,1.61-3.51,3.74-3.51
			c2.36,0,3.78,1.54,3.78,3.67c0,1.46-1.06,2.74-1.88,3.38v0.1c1.22,0.7,2.36,1.75,2.36,3.65c0,1.99-1.73,3.57-4.29,3.57
			C287.87,43.36,286.01,41.8,286.01,39.65z M293.22,39.75c0-1.94-1.79-2.66-3.8-3.48c-1.18,0.74-2.01,1.88-2.01,3.27
			c0,1.52,1.29,2.66,3.02,2.66C292.1,42.2,293.22,41.15,293.22,39.75z M292.88,32.74c0-1.41-0.89-2.57-2.47-2.57
			c-1.31,0-2.28,0.95-2.28,2.34c0,1.73,1.58,2.47,3.23,3.12C292.35,34.79,292.88,33.8,292.88,32.74z"/>
	</g>
	<g>
		<path d="M265.7,219.67l-2.41,0.74v5.64c0,0.74-0.19,1.08-0.65,1.29c-0.48,0.21-1.22,0.25-2.47,0.23c-0.06-0.3-0.25-0.82-0.42-1.16
			c0.87,0.02,1.69,0.02,1.92,0c0.25,0,0.36-0.08,0.36-0.36v-5.24l-2.66,0.82l-0.4-1.25c0.84-0.23,1.9-0.51,3.06-0.86v-4.14h-2.75
			v-1.22h2.75v-3.84h1.25v3.84h2.2v1.22h-2.2v3.76c0.74-0.19,1.5-0.44,2.24-0.67L265.7,219.67z M269.08,217.68
			c-1.75,0-2.3-0.55-2.3-2.13v-5.19h1.23v2.34h7.69v1.12h-7.69v1.77c0,0.72,0.21,0.99,1.04,0.99h5.11c0.63,0,1.61-0.04,2.03-0.11
			c0.06,0.34,0.11,0.82,0.17,1.1c-0.34,0.09-1.25,0.11-2.13,0.11H269.08z M266.79,219.37h8.85v8.15h-1.25v-0.8h-6.4v0.87h-1.2
			V219.37z M267.98,220.47v2.01h6.4v-2.01H267.98z M274.38,225.66v-2.13h-6.4v2.13H274.38z"/>
		<path d="M286.56,222.71c-0.17,0.83-0.61,1.71-1.67,2.54c0.85,0.38,1.63,0.78,2.22,1.1l-0.87,0.78c-0.61-0.4-1.42-0.82-2.34-1.25
			c-1.2,0.65-2.91,1.25-5.32,1.69c-0.11-0.27-0.34-0.63-0.53-0.84c2.09-0.38,3.59-0.84,4.69-1.35c-1.01-0.42-2.05-0.82-3.02-1.08
			c0.32-0.38,0.65-0.8,0.97-1.27l-2.3,0.13l-0.13-0.97c0.87-0.04,1.92-0.08,3.1-0.13c0.32-0.53,0.63-1.04,0.91-1.56h-3.15v-3.02
			h3.61v-0.84h-3.08v-2.07h-1.25v-0.99h1.25v-1.94h3.08v-1.37h1.03v1.37h3.27v1.94h1.29v0.99h-1.29v2.07h-3.27v0.84h3.74v3.02h-4.05
			c-0.25,0.49-0.53,0.99-0.84,1.5l3-0.15c0-0.09,0-0.19,0-0.29v-0.67h1.04v0.7v0.19l1.03-0.06l-0.02,0.89L286.56,222.71z
			 M280.2,219.63h2.53v-1.27h-2.53V219.63z M280.73,212.55v1.08h2v-1.08H280.73z M282.73,215.74v-1.22h-2v1.22H282.73z
			 M281.99,222.98c-0.23,0.3-0.44,0.61-0.65,0.87c0.82,0.27,1.67,0.59,2.49,0.93c0.97-0.65,1.41-1.37,1.61-2.01L281.99,222.98z
			 M283.75,212.55v1.08h2.13v-1.08H283.75z M285.88,215.74v-1.22h-2.13v1.22H285.88z M283.75,218.36v1.27h2.6v-1.27H283.75z
			 M294.09,215.09c-0.36,2.85-0.85,5.26-1.71,7.33c0.82,1.77,1.86,3.19,3.23,4.07c-0.27,0.21-0.61,0.59-0.78,0.89
			c-1.25-0.87-2.26-2.17-3.04-3.72c-0.84,1.62-1.96,2.96-3.46,4.05c-0.1-0.23-0.46-0.74-0.7-0.95c1.61-1.1,2.75-2.58,3.59-4.41
			c-0.63-1.56-1.08-3.32-1.44-5.26c-0.32,0.86-0.67,1.62-1.06,2.28c-0.19-0.19-0.63-0.61-0.89-0.78c1.25-1.98,2.01-5.03,2.47-8.13
			l1.08,0.17c-0.15,1.12-0.38,2.24-0.65,3.33h4.67v1.14H294.09z M290.42,215.09c0.3,2.09,0.74,4.08,1.35,5.83
			c0.57-1.69,0.93-3.65,1.18-5.83H290.42z"/>
	</g>
	<g>
		<path d="M105.69,220.49c1.08,1.33,2.74,2.49,4.37,3.08c-0.27,0.23-0.65,0.67-0.82,0.97c-1.84-0.8-3.74-2.34-4.86-4.05h-6.06
			c-1.16,1.77-3.12,3.42-4.94,4.29c-0.17-0.3-0.53-0.72-0.82-0.97c1.6-0.65,3.29-1.92,4.41-3.32h-4.22v-1.08h3.78v-6.14h-2.93v-1.06
			h2.93v-1.9h1.25v1.9h7.05v-1.9h1.27v1.9h2.91v1.06h-2.91v6.14h3.72v1.08H105.69z M101.89,226h6.57v1.08H94.19V226h6.42v-2.13
			h-3.97v-1.06h3.97v-1.67h1.27v1.67h4.05v1.06h-4.05V226z M97.78,213.27v1.37h7.05v-1.37H97.78z M97.78,216.99h7.05v-1.39h-7.05
			V216.99z M97.78,219.41h7.05v-1.44h-7.05V219.41z"/>
		<path d="M121.48,210.67c-0.13,0.23-0.3,0.44-0.46,0.67c1.88,2.09,5.26,4.14,8.13,5.05c-0.3,0.27-0.66,0.76-0.89,1.1
			c-2.72-1.03-5.91-3.1-7.96-5.28c-1.29,1.48-2.93,2.77-4.71,3.8h9.54v1.18h-4.22v2.68h6.74v1.16h-6.74v4.83h7.56v1.18h-16.32v-1.18
			h7.43v-4.83h-6.59v-1.16h6.59v-2.68h-4.14v-1.1c-1.01,0.57-2.07,1.06-3.13,1.46c-0.19-0.36-0.53-0.85-0.85-1.14
			c3.55-1.18,7.05-3.46,8.85-6.27L121.48,210.67z M115.68,221.55c0.74,1.08,1.52,2.53,1.82,3.46l-1.1,0.46
			c-0.28-0.91-1.03-2.41-1.77-3.5L115.68,221.55z M122.73,225.09c0.67-0.95,1.54-2.49,2.03-3.55l1.2,0.48
			c-0.72,1.2-1.58,2.6-2.28,3.5L122.73,225.09z"/>
	</g>
	<g>
		<path d="M8.28,8.56c0-1.39,0.97-2.34,1.9-2.86V5.65c-0.74-0.5-1.39-1.27-1.39-2.35c0-1.54,1.19-2.59,2.76-2.59
			c1.74,0,2.79,1.13,2.79,2.7c0,1.08-0.78,2.02-1.39,2.49v0.07c0.9,0.52,1.74,1.29,1.74,2.69c0,1.47-1.27,2.63-3.17,2.63
			C9.65,11.29,8.28,10.14,8.28,8.56z M13.6,8.63c0-1.43-1.32-1.96-2.8-2.56C9.93,6.61,9.31,7.45,9.31,8.48
			c0,1.12,0.95,1.96,2.23,1.96C12.77,10.44,13.6,9.67,13.6,8.63z M13.35,3.46c0-1.04-0.66-1.89-1.82-1.89
			c-0.97,0-1.68,0.7-1.68,1.72c0,1.27,1.16,1.82,2.38,2.3C12.95,4.97,13.35,4.25,13.35,3.46z"/>
	</g>
	<g>
		<path d="M13.89,47.54c-0.42-0.49-1.04-0.79-1.65-0.79c-1.44,0-2.66,1.11-2.72,4.38c0.64-0.77,1.54-1.25,2.37-1.25
			c1.74,0,2.83,1.08,2.83,3.22c0,1.96-1.33,3.31-2.89,3.31c-1.98,0-3.39-1.71-3.39-5.06c0-4.05,1.79-5.56,3.75-5.56
			c1.02,0,1.78,0.43,2.34,1.02L13.89,47.54z M13.63,53.11c0-1.43-0.6-2.37-1.92-2.37c-0.66,0-1.46,0.38-2.16,1.36
			c0.14,2.17,0.92,3.4,2.28,3.4C12.86,55.51,13.63,54.53,13.63,53.11z"/>
	</g>
	<g>
		<path d="M14.89,98.5h-1.4v2.86h-1.08V98.5h-4.5v-0.74l4.36-6.65h1.22v6.49h1.4V98.5z M12.41,97.59v-3.33
			c0-0.5,0.04-1.32,0.08-1.82h-0.07c-0.25,0.49-0.53,0.99-0.81,1.48l-2.48,3.67H12.41z"/>
	</g>
	<g>
		<path d="M8.28,145.8c3.28-2.86,4.73-4.93,4.73-6.71c0-1.21-0.63-2.12-1.95-2.12c-0.85,0-1.6,0.53-2.19,1.22l-0.67-0.64
			c0.83-0.9,1.71-1.5,2.98-1.5c1.82,0,2.94,1.18,2.94,3c0,2.07-1.62,4.19-4.13,6.54c0.55-0.06,1.16-0.08,1.68-0.08h2.94v0.98H8.28
			V145.8z"/>
	</g>
	<g>
		<path d="M8.34,186.44c0-3.56,1.22-5.27,3.15-5.27c1.92,0,3.12,1.72,3.12,5.27c0,3.59-1.2,5.35-3.12,5.35
			C9.56,191.79,8.34,190.03,8.34,186.44z M13.51,186.44c0-3-0.81-4.34-2.02-4.34c-1.22,0-2.04,1.34-2.04,4.34
			c0,3.05,0.83,4.43,2.04,4.43C12.7,190.87,13.51,189.5,13.51,186.44z"/>
	</g>
</g>
<g>
	<line class="st0" x1="28.9" y1="291.18" x2="28.9" y2="477.53"/>
	<line class="st0" x1="22.78" y1="472.35" x2="359.72" y2="472.35"/>
	<line class="st0" x1="22.78" y1="291.18" x2="28.9" y2="291.18"/>
	<line class="st0" x1="22.78" y1="336.82" x2="28.9" y2="336.82"/>
	<line class="st0" x1="22.78" y1="381.06" x2="28.9" y2="381.06"/>
	<line class="st0" x1="22.78" y1="426.71" x2="28.9" y2="426.71"/>
	<line class="st0" x1="194.08" y1="472.35" x2="194.08" y2="477.53"/>
	<line class="st0" x1="359.72" y1="472.35" x2="359.72" y2="477.53"/>
	<rect x="78.31" y="373.53" class="st1" width="64.94" height="98.82"/>
	<rect x="244.9" y="341.06" class="st2" width="64.94" height="131.29"/>
	<text transform="matrix(1 0 0 1 92.5701 360.8746)" style="font-family:'SourceHanSansTW-Normal-B5pc-H'; font-size:19px;">4.33</text>
	<text transform="matrix(1 0 0 1 259.1583 327.9334)" style="font-family:'SourceHanSansTW-Normal-B5pc-H'; font-size:19px;">5.78</text>
	<text transform="matrix(1 0 0 1 258.3698 510.9922)" style="font-family:'SourceHanSansTW-Normal-B5pc-H'; font-size:19px;">指數</text>
	<text transform="matrix(1 0 0 1 91.7814 510.9922)" style="font-family:'SourceHanSansTW-Normal-B5pc-H'; font-size:19px;">基金</text>
	<text transform="matrix(1 0 0 1 7.6445 295.9334)" style="font-family:'SourceHanSansTW-Normal-B5pc-H'; font-size:14px;">8</text>
	<text transform="matrix(1 0 0 1 7.6445 341.0587)" style="font-family:'SourceHanSansTW-Normal-B5pc-H'; font-size:14px;">6</text>
	<text transform="matrix(1 0 0 1 7.6445 386.184)" style="font-family:'SourceHanSansTW-Normal-B5pc-H'; font-size:14px;">4</text>
	<text transform="matrix(1 0 0 1 7.6445 431.3092)" style="font-family:'SourceHanSansTW-Normal-B5pc-H'; font-size:14px;">2</text>
	<text transform="matrix(1 0 0 1 7.6445 476.4345)" style="font-family:'SourceHanSansTW-Normal-B5pc-H'; font-size:14px;">0</text>
</g>
</svg>
