<?xml version="1.0" encoding="utf-8"?>
<!-- Generator: Adobe Illustrator 24.0.0, SVG Export Plug-In . SVG Version: 6.00 Build 0)  -->
<svg version="1.1" id="圖層_1" xmlns="http://www.w3.org/2000/svg" xmlns:xlink="http://www.w3.org/1999/xlink" x="0px" y="0px"
	 viewBox="0 0 739.18 370.94" style="enable-background:new 0 0 739.18 370.94;" xml:space="preserve">
<style type="text/css">
	.st0{fill:none;stroke:#D8D8D8;stroke-miterlimit:10;}
	.st1{fill:none;stroke:#C0BFBF;stroke-miterlimit:10;}
	.st2{fill:#0A338C;}
	.st3{fill:#FFFFFF;}
	.st4{fill:#BC1B21;}
</style>
<g>
	<g>
		<line class="st0" x1="2.06" y1="1.76" x2="2.06" y2="337.29"/>
		<line class="st0" x1="67.88" y1="1.76" x2="67.88" y2="337.29"/>
		<line class="st0" x1="119.71" y1="1.76" x2="119.71" y2="337.29"/>
		<line class="st0" x1="171.41" y1="1.76" x2="171.41" y2="337.29"/>
		<line class="st0" x1="223.12" y1="1.76" x2="223.12" y2="337.29"/>
		<line class="st0" x1="288.82" y1="1.76" x2="288.82" y2="337.29"/>
		<line class="st0" x1="339.41" y1="1.76" x2="339.41" y2="337.29"/>
		<line class="st0" x1="404.82" y1="1.76" x2="404.82" y2="337.29"/>
		<line class="st0" x1="456.59" y1="1.76" x2="456.59" y2="337.29"/>
		<line class="st0" x1="507.88" y1="1.76" x2="507.88" y2="337.29"/>
		<line class="st0" x1="573.29" y1="1.76" x2="573.29" y2="337.29"/>
		<line class="st0" x1="625.06" y1="1.76" x2="625.06" y2="337.29"/>
		<line class="st1" x1="675.41" y1="1.76" x2="675.41" y2="337.29"/>
		<line class="st0" x1="2.06" y1="297.29" x2="675.41" y2="297.29"/>
		<line class="st0" x1="2.06" y1="254.94" x2="675.41" y2="254.94"/>
		<line class="st0" x1="2.06" y1="213.59" x2="675.41" y2="213.59"/>
		<line class="st0" x1="2.06" y1="172.24" x2="675.41" y2="172.24"/>
		<line class="st0" x1="2.06" y1="130.88" x2="675.41" y2="130.88"/>
		<line class="st0" x1="2.06" y1="89.53" x2="675.41" y2="89.53"/>
		<line class="st0" x1="2.06" y1="48.18" x2="675.41" y2="48.18"/>
		<line class="st0" x1="2.06" y1="6.82" x2="675.41" y2="6.82"/>
		<line class="st1" x1="2.06" y1="337.29" x2="675.41" y2="337.29"/>
	</g>
	<rect y="133.06" class="st2" width="4.94" height="39.18"/>
	<rect x="12.94" y="172.24" class="st2" width="4.94" height="26.65"/>
	<rect x="26.12" y="102.88" class="st2" width="4.94" height="69.35"/>
	<rect x="39" y="172.24" class="st2" width="4.94" height="95.47"/>
	<rect x="51.88" y="111" class="st2" width="4.94" height="61.24"/>
	<rect x="65.41" y="172.24" class="st2" width="4.94" height="1.94"/>
	<rect x="77.94" y="172.24" class="st2" width="4.94" height="71.47"/>
	<rect x="91" y="172.24" class="st2" width="4.94" height="19.94"/>
	<rect x="103.53" y="172.24" class="st2" width="4.94" height="52.59"/>
	<rect x="117.24" y="96.71" class="st2" width="4.94" height="75.53"/>
	<rect x="129.76" y="172.24" class="st2" width="4.94" height="43.59"/>
	<rect x="142.65" y="24.53" class="st2" width="4.94" height="147.71"/>
	<rect x="156.06" y="172.24" class="st2" width="4.94" height="54.53"/>
	<rect x="168.94" y="172.24" class="st2" width="4.94" height="47.65"/>
	<rect x="181.65" y="114.18" class="st2" width="4.94" height="58.06"/>
	<rect x="195.06" y="143.21" class="st2" width="4.94" height="29.03"/>
	<rect x="207.59" y="148.06" class="st2" width="4.94" height="24.18"/>
	<rect x="220.65" y="119.82" class="st2" width="4.94" height="52.41"/>
	<rect x="233.88" y="172.24" class="st2" width="4.94" height="73.41"/>
	<rect x="246.59" y="172.24" class="st2" width="4.94" height="63"/>
	<rect x="259.12" y="85.24" class="st2" width="4.94" height="87"/>
	<rect x="272.71" y="115.06" class="st2" width="4.94" height="57.18"/>
	<rect x="286.35" y="145.41" class="st2" width="4.94" height="26.82"/>
	<rect x="298.94" y="131.65" class="st2" width="4.94" height="40.59"/>
	<rect x="311.65" y="150.88" class="st2" width="4.94" height="21.35"/>
	<rect x="324.71" y="172.24" class="st2" width="4.94" height="20.82"/>
	<rect x="336.94" y="172.24" class="st2" width="4.94" height="38.47"/>
	<rect x="350.71" y="172.24" class="st2" width="4.94" height="14.29"/>
	<rect x="363" y="172.24" class="st2" width="4.94" height="48.53"/>
	<rect x="376.41" y="161.56" class="st2" width="4.94" height="10.68"/>
	<rect x="389.47" y="172.24" class="st2" width="4.94" height="1.24"/>
	<rect x="402.35" y="172.24" class="st2" width="4.94" height="116.94"/>
	<rect x="415.65" y="70.06" class="st2" width="4.94" height="102.18"/>
	<rect x="428.53" y="172.24" class="st2" width="4.94" height="9.71"/>
	<rect x="441.24" y="25.59" class="st2" width="4.94" height="146.65"/>
	<rect x="454.12" y="166.9" class="st2" width="4.94" height="5.34"/>
	<rect x="467.18" y="82.24" class="st2" width="4.94" height="90"/>
	<rect x="480.06" y="172.24" class="st2" width="4.94" height="17.82"/>
	<rect x="492.94" y="125.12" class="st2" width="4.94" height="47.12"/>
	<rect x="506.18" y="127.24" class="st2" width="4.94" height="45"/>
	<rect x="519.41" y="172.24" class="st2" width="4.94" height="137.47"/>
	<rect x="532.47" y="172.24" class="st2" width="4.94" height="39"/>
	<rect x="545.12" y="172.24" class="st2" width="4.94" height="30.18"/>
	<rect x="558" y="159.35" class="st2" width="4.94" height="12.88"/>
	<rect x="570.82" y="172.24" class="st2" width="4.94" height="21.35"/>
	<rect x="584.41" y="163.76" class="st2" width="4.94" height="8.47"/>
	<rect x="597.12" y="120.18" class="st2" width="4.94" height="52.06"/>
	<rect x="609.82" y="142.59" class="st2" width="4.94" height="29.65"/>
	<rect x="622.59" y="172.24" class="st2" width="4.94" height="7.06"/>
	<rect x="635.82" y="172.24" class="st2" width="4.94" height="31.94"/>
	<rect x="649.06" y="121.41" class="st2" width="4.94" height="50.82"/>
	<rect x="661.59" y="97.76" class="st2" width="4.94" height="74.47"/>
	<g>
		<path d="M21.4,351.4h2.3v-7.86h-1.81v-0.74c0.88-0.15,1.54-0.38,2.07-0.7h0.87v9.3h2.09v0.95H21.4V351.4z"/>
		<path d="M29.08,351.4h2.3v-7.86h-1.81v-0.74c0.88-0.15,1.54-0.38,2.07-0.7h0.87v9.3h2.09v0.95h-5.52V351.4z"/>
		<path d="M46.94,351.98c0,0.71-0.2,1.02-0.7,1.19c-0.52,0.17-1.43,0.18-2.93,0.18c-0.07-0.28-0.25-0.71-0.39-0.98
			c1.18,0.04,2.3,0.03,2.63,0.01c0.31,0,0.42-0.11,0.42-0.41v-2.94h-6.85c-0.35,1.6-1.05,3.18-2.42,4.4c-0.14-0.2-0.5-0.55-0.7-0.67
			c2.27-2.02,2.51-4.86,2.51-7.13v-4.23h8.43V351.98z M45.97,348.12v-2.48h-6.53c0,0.77-0.04,1.61-0.15,2.48H45.97z M39.45,342.31
			v2.45h6.53v-2.45H39.45z"/>
	</g>
	<g>
		<path d="M80.03,351.4h2.3v-7.86h-1.81v-0.74c0.88-0.15,1.54-0.38,2.07-0.7h0.87v9.3h2.09v0.95h-5.52V351.4z"/>
		<path d="M87.1,351.67c3.28-2.86,4.73-4.93,4.73-6.71c0-1.21-0.63-2.12-1.95-2.12c-0.85,0-1.6,0.53-2.19,1.22l-0.67-0.64
			c0.83-0.9,1.71-1.5,2.98-1.5c1.82,0,2.94,1.18,2.94,3c0,2.07-1.62,4.19-4.13,6.54c0.55-0.06,1.16-0.08,1.68-0.08h2.94v0.98H87.1
			V351.67z"/>
		<path d="M105.57,351.98c0,0.71-0.2,1.02-0.7,1.19c-0.52,0.17-1.43,0.18-2.93,0.18c-0.07-0.28-0.25-0.71-0.39-0.98
			c1.18,0.04,2.3,0.03,2.63,0.01c0.31,0,0.42-0.11,0.42-0.41v-2.94h-6.85c-0.35,1.6-1.05,3.18-2.42,4.4c-0.14-0.2-0.5-0.55-0.7-0.67
			c2.27-2.02,2.51-4.86,2.51-7.13v-4.23h8.43V351.98z M104.61,348.12v-2.48h-6.53c0,0.77-0.04,1.61-0.15,2.48H104.61z M98.08,342.31
			v2.45h6.53v-2.45H98.08z"/>
	</g>
	<g>
		<path d="M44.79,369.11c3.28-2.86,4.73-4.93,4.73-6.71c0-1.21-0.63-2.12-1.95-2.12c-0.85,0-1.6,0.53-2.19,1.22l-0.67-0.64
			c0.83-0.9,1.71-1.5,2.98-1.5c1.82,0,2.94,1.18,2.94,3c0,2.07-1.62,4.19-4.13,6.54c0.55-0.06,1.16-0.08,1.68-0.08h2.94v0.98h-6.35
			V369.11z"/>
		<path d="M52.54,364.63c0-3.56,1.22-5.27,3.15-5.27c1.92,0,3.12,1.72,3.12,5.27c0,3.59-1.2,5.35-3.12,5.35
			C53.76,369.98,52.54,368.22,52.54,364.63z M57.71,364.63c0-3-0.81-4.34-2.02-4.34c-1.22,0-2.04,1.34-2.04,4.34
			c0,3.05,0.83,4.43,2.04,4.43C56.9,369.06,57.71,367.68,57.71,364.63z"/>
		<path d="M60.78,368.85h2.3v-7.86h-1.81v-0.74c0.88-0.15,1.54-0.38,2.07-0.7h0.87v9.3h2.09v0.95h-5.52V368.85z"/>
		<path d="M67.85,367.25c0-1.39,0.97-2.34,1.9-2.86v-0.06c-0.74-0.5-1.39-1.27-1.39-2.35c0-1.54,1.19-2.59,2.76-2.59
			c1.74,0,2.79,1.13,2.79,2.7c0,1.08-0.78,2.02-1.39,2.49v0.07c0.9,0.52,1.74,1.29,1.74,2.69c0,1.47-1.27,2.63-3.17,2.63
			C69.22,369.98,67.85,368.83,67.85,367.25z M73.17,367.32c0-1.43-1.32-1.96-2.8-2.56c-0.87,0.55-1.48,1.39-1.48,2.41
			c0,1.12,0.95,1.96,2.23,1.96C72.34,369.13,73.17,368.36,73.17,367.32z M72.92,362.15c0-1.04-0.66-1.89-1.82-1.89
			c-0.97,0-1.68,0.7-1.68,1.72c0,1.27,1.16,1.82,2.38,2.3C72.52,363.66,72.92,362.94,72.92,362.15z"/>
	</g>
	<g>
		<path d="M379.67,369.11c3.28-2.86,4.73-4.93,4.73-6.71c0-1.21-0.63-2.12-1.95-2.12c-0.85,0-1.6,0.53-2.19,1.22l-0.67-0.64
			c0.83-0.9,1.71-1.5,2.98-1.5c1.82,0,2.94,1.18,2.94,3c0,2.07-1.62,4.19-4.13,6.54c0.55-0.06,1.16-0.08,1.68-0.08h2.94v0.98h-6.35
			V369.11z"/>
		<path d="M387.43,364.63c0-3.56,1.22-5.27,3.15-5.27c1.92,0,3.12,1.72,3.12,5.27c0,3.59-1.2,5.35-3.12,5.35
			C388.64,369.98,387.43,368.22,387.43,364.63z M392.59,364.63c0-3-0.81-4.34-2.02-4.34c-1.22,0-2.04,1.34-2.04,4.34
			c0,3.05,0.83,4.43,2.04,4.43C391.78,369.06,392.59,367.68,392.59,364.63z"/>
		<path d="M395.66,368.85h2.3v-7.86h-1.81v-0.74c0.88-0.15,1.54-0.38,2.07-0.7h0.87v9.3h2.09v0.95h-5.52V368.85z"/>
		<path d="M403.55,368.24c0.45,0.49,1.06,0.78,1.75,0.78c1.34,0,2.54-1.13,2.63-4.44c-0.64,0.78-1.51,1.3-2.41,1.3
			c-1.71,0-2.8-1.11-2.8-3.22c0-1.96,1.32-3.31,2.89-3.31c1.97,0,3.4,1.63,3.4,4.83c0,4.2-1.78,5.78-3.68,5.78
			c-1.08,0-1.85-0.43-2.41-1.02L403.55,368.24z M407.92,363.62c-0.11-2.14-0.92-3.36-2.31-3.36c-1.02,0-1.79,0.98-1.79,2.41
			c0,1.42,0.62,2.37,1.89,2.37C406.41,365.04,407.21,364.63,407.92,363.62z"/>
	</g>
	<g>
		<path d="M135.52,351.4h2.3v-7.86h-1.81v-0.74c0.88-0.15,1.54-0.38,2.07-0.7h0.87v9.3h2.09v0.95h-5.52V351.4z"/>
		<path d="M153.38,351.98c0,0.71-0.2,1.02-0.7,1.19c-0.52,0.17-1.43,0.18-2.93,0.18c-0.07-0.28-0.25-0.71-0.39-0.98
			c1.18,0.04,2.3,0.03,2.63,0.01c0.31,0,0.42-0.11,0.42-0.41v-2.94h-6.85c-0.35,1.6-1.05,3.18-2.42,4.4c-0.14-0.2-0.5-0.55-0.7-0.67
			c2.27-2.02,2.51-4.86,2.51-7.13v-4.23h8.43V351.98z M152.41,348.12v-2.48h-6.53c0,0.77-0.04,1.61-0.15,2.48H152.41z
			 M145.88,342.31v2.45h6.53v-2.45H145.88z"/>
	</g>
	<g>
		<path d="M184.85,351.67c3.28-2.86,4.73-4.93,4.73-6.71c0-1.21-0.63-2.12-1.95-2.12c-0.85,0-1.6,0.53-2.19,1.22l-0.67-0.64
			c0.83-0.9,1.71-1.5,2.98-1.5c1.82,0,2.94,1.18,2.94,3c0,2.07-1.62,4.19-4.13,6.54c0.55-0.06,1.16-0.08,1.68-0.08h2.94v0.98h-6.35
			V351.67z"/>
		<path d="M203.32,351.98c0,0.71-0.2,1.02-0.7,1.19c-0.52,0.17-1.43,0.18-2.93,0.18c-0.07-0.28-0.25-0.71-0.39-0.98
			c1.18,0.04,2.3,0.03,2.63,0.01c0.31,0,0.42-0.11,0.42-0.41v-2.94h-6.85c-0.35,1.6-1.05,3.18-2.42,4.4c-0.14-0.2-0.5-0.55-0.7-0.67
			c2.27-2.02,2.51-4.86,2.51-7.13v-4.23h8.43V351.98z M202.35,348.12v-2.48h-6.53c0,0.77-0.04,1.61-0.15,2.48H202.35z
			 M195.82,342.31v2.45h6.53v-2.45H195.82z"/>
	</g>
	<g>
		<path d="M242.93,351.14l0.59-0.74c0.6,0.62,1.37,1.19,2.59,1.19c1.25,0,2.14-0.77,2.14-1.99c0-1.27-0.87-2.13-3.25-2.13v-0.9
			c2.14,0,2.89-0.88,2.89-2.03c0-1.02-0.69-1.69-1.79-1.71c-0.84,0.01-1.58,0.45-2.16,1.04l-0.63-0.74c0.76-0.69,1.65-1.2,2.83-1.22
			c1.68,0.01,2.91,0.92,2.91,2.55c0,1.27-0.74,2.1-1.83,2.49V347c1.2,0.28,2.19,1.2,2.19,2.62c0,1.82-1.43,2.91-3.22,2.91
			C244.58,352.54,243.59,351.85,242.93,351.14z"/>
		<path d="M261.61,351.98c0,0.71-0.2,1.02-0.7,1.19c-0.52,0.17-1.43,0.18-2.93,0.18c-0.07-0.28-0.25-0.71-0.39-0.98
			c1.18,0.04,2.3,0.03,2.63,0.01c0.31,0,0.42-0.11,0.42-0.41v-2.94h-6.85c-0.35,1.6-1.05,3.18-2.42,4.4c-0.14-0.2-0.5-0.55-0.7-0.67
			c2.27-2.02,2.51-4.86,2.51-7.13v-4.23h8.43V351.98z M260.65,348.12v-2.48h-6.53c0,0.77-0.04,1.61-0.15,2.48H260.65z
			 M254.12,342.31v2.45h6.53v-2.45H254.12z"/>
	</g>
	<g>
		<path d="M308.05,349.5h-1.4v2.86h-1.08v-2.86h-4.5v-0.74l4.36-6.65h1.22v6.49h1.4V349.5z M305.57,348.59v-3.33
			c0-0.5,0.04-1.32,0.08-1.82h-0.07c-0.25,0.49-0.53,0.99-0.81,1.48l-2.48,3.67H305.57z"/>
		<path d="M319.91,351.98c0,0.71-0.2,1.02-0.7,1.19c-0.52,0.17-1.43,0.18-2.93,0.18c-0.07-0.28-0.25-0.71-0.39-0.98
			c1.18,0.04,2.3,0.03,2.63,0.01c0.31,0,0.42-0.11,0.42-0.41v-2.94h-6.85c-0.35,1.6-1.05,3.18-2.42,4.4c-0.14-0.2-0.5-0.55-0.7-0.67
			c2.27-2.02,2.51-4.86,2.51-7.13v-4.23h8.43V351.98z M318.94,348.12v-2.48h-6.53c0,0.77-0.04,1.61-0.15,2.48H318.94z
			 M312.41,342.31v2.45h6.53v-2.45H312.41z"/>
	</g>
	<g>
		<path d="M360.49,351.18l0.57-0.76c0.59,0.6,1.34,1.16,2.56,1.16c1.23,0,2.26-0.98,2.26-2.52c0-1.51-0.87-2.42-2.2-2.42
			c-0.7,0-1.15,0.22-1.74,0.62l-0.63-0.39l0.32-4.76h4.9v0.98h-3.89l-0.28,3.11c0.48-0.27,0.95-0.43,1.6-0.43
			c1.69,0,3.07,1.01,3.07,3.28c0,2.23-1.61,3.5-3.31,3.5C362.13,352.54,361.18,351.86,360.49,351.18z"/>
		<path d="M379.2,351.98c0,0.71-0.2,1.02-0.7,1.19c-0.52,0.17-1.43,0.18-2.93,0.18c-0.07-0.28-0.25-0.71-0.39-0.98
			c1.18,0.04,2.3,0.03,2.63,0.01c0.31,0,0.42-0.11,0.42-0.41v-2.94h-6.85c-0.35,1.6-1.05,3.18-2.42,4.4c-0.14-0.2-0.5-0.55-0.7-0.67
			c2.27-2.02,2.51-4.86,2.51-7.13v-4.23h8.43V351.98z M378.23,348.12v-2.48h-6.53c0,0.77-0.04,1.61-0.15,2.48H378.23z
			 M371.71,342.31v2.45h6.53v-2.45H371.71z"/>
	</g>
	<g>
		<path d="M423.93,343.66c-0.42-0.49-1.04-0.79-1.65-0.79c-1.44,0-2.66,1.11-2.72,4.38c0.64-0.77,1.54-1.25,2.37-1.25
			c1.74,0,2.83,1.08,2.83,3.22c0,1.96-1.33,3.31-2.89,3.31c-1.98,0-3.39-1.71-3.39-5.06c0-4.05,1.79-5.56,3.75-5.56
			c1.02,0,1.78,0.43,2.34,1.02L423.93,343.66z M423.67,349.23c0-1.43-0.6-2.37-1.92-2.37c-0.66,0-1.46,0.38-2.16,1.36
			c0.14,2.17,0.92,3.4,2.28,3.4C422.9,351.63,423.67,350.64,423.67,349.23z"/>
		<path d="M436.79,351.98c0,0.71-0.2,1.02-0.7,1.19c-0.52,0.17-1.43,0.18-2.93,0.18c-0.07-0.28-0.25-0.71-0.39-0.98
			c1.18,0.04,2.3,0.03,2.63,0.01c0.31,0,0.42-0.11,0.42-0.41v-2.94h-6.85c-0.35,1.6-1.05,3.18-2.42,4.4c-0.14-0.2-0.5-0.55-0.7-0.67
			c2.27-2.02,2.51-4.86,2.51-7.13v-4.23h8.43V351.98z M435.82,348.12v-2.48h-6.53c0,0.77-0.04,1.61-0.15,2.48H435.82z M429.3,342.31
			v2.45h6.53v-2.45H429.3z"/>
	</g>
	<g>
		<path d="M476.4,343.08h-5.03v-0.98h6.35v0.69c-2.42,3.12-2.87,5.56-3.04,9.57h-1.19C473.66,348.4,474.38,345.88,476.4,343.08z"/>
		<path d="M489.79,351.98c0,0.71-0.2,1.02-0.7,1.19c-0.52,0.17-1.43,0.18-2.93,0.18c-0.07-0.28-0.25-0.71-0.39-0.98
			c1.18,0.04,2.3,0.03,2.63,0.01c0.31,0,0.42-0.11,0.42-0.41v-2.94h-6.85c-0.35,1.6-1.05,3.18-2.42,4.4c-0.14-0.2-0.5-0.55-0.7-0.67
			c2.27-2.02,2.51-4.86,2.51-7.13v-4.23h8.43V351.98z M488.82,348.12v-2.48h-6.53c0,0.77-0.04,1.61-0.15,2.48H488.82z M482.3,342.31
			v2.45h6.53v-2.45H482.3z"/>
	</g>
	<g>
		<path d="M527.2,349.8c0-1.39,0.97-2.34,1.9-2.86v-0.06c-0.74-0.5-1.39-1.27-1.39-2.35c0-1.54,1.19-2.59,2.76-2.59
			c1.74,0,2.79,1.13,2.79,2.7c0,1.08-0.78,2.02-1.39,2.49v0.07c0.9,0.52,1.74,1.29,1.74,2.69c0,1.47-1.27,2.63-3.17,2.63
			C528.57,352.54,527.2,351.39,527.2,349.8z M532.52,349.87c0-1.43-1.32-1.96-2.8-2.56c-0.87,0.55-1.48,1.39-1.48,2.41
			c0,1.12,0.95,1.96,2.23,1.96C531.7,351.68,532.52,350.91,532.52,349.87z M532.27,344.71c0-1.04-0.66-1.89-1.82-1.89
			c-0.97,0-1.68,0.7-1.68,1.72c0,1.27,1.16,1.82,2.38,2.3C531.88,346.22,532.27,345.49,532.27,344.71z"/>
		<path d="M545.67,351.98c0,0.71-0.2,1.02-0.7,1.19c-0.52,0.17-1.43,0.18-2.93,0.18c-0.07-0.28-0.25-0.71-0.39-0.98
			c1.18,0.04,2.3,0.03,2.63,0.01c0.31,0,0.42-0.11,0.42-0.41v-2.94h-6.85c-0.35,1.6-1.05,3.18-2.42,4.4c-0.14-0.2-0.5-0.55-0.7-0.67
			c2.27-2.02,2.51-4.86,2.51-7.13v-4.23h8.43V351.98z M544.7,348.12v-2.48h-6.53c0,0.77-0.04,1.61-0.15,2.48H544.7z M538.18,342.31
			v2.45h6.53v-2.45H538.18z"/>
	</g>
	<g>
		<path d="M587.73,350.8c0.45,0.49,1.06,0.78,1.75,0.78c1.34,0,2.54-1.13,2.63-4.44c-0.64,0.78-1.51,1.3-2.41,1.3
			c-1.71,0-2.8-1.11-2.8-3.22c0-1.96,1.32-3.31,2.89-3.31c1.98,0,3.4,1.63,3.4,4.83c0,4.2-1.78,5.78-3.68,5.78
			c-1.08,0-1.85-0.43-2.41-1.02L587.73,350.8z M592.1,346.18c-0.11-2.14-0.92-3.36-2.31-3.36c-1.02,0-1.79,0.98-1.79,2.41
			c0,1.42,0.62,2.37,1.89,2.37C590.59,347.59,591.39,347.18,592.1,346.18z"/>
		<path d="M605.38,351.98c0,0.71-0.2,1.02-0.7,1.19c-0.52,0.17-1.43,0.18-2.93,0.18c-0.07-0.28-0.25-0.71-0.39-0.98
			c1.18,0.04,2.3,0.03,2.63,0.01c0.31,0,0.42-0.11,0.42-0.41v-2.94h-6.85c-0.35,1.6-1.05,3.18-2.42,4.4c-0.14-0.2-0.5-0.55-0.7-0.67
			c2.27-2.02,2.51-4.86,2.51-7.13v-4.23h8.43V351.98z M604.41,348.12v-2.48h-6.53c0,0.77-0.04,1.61-0.15,2.48H604.41z
			 M597.88,342.31v2.45h6.53v-2.45H597.88z"/>
	</g>
	<g>
		<path d="M638.09,351.4h2.3v-7.86h-1.81v-0.74c0.88-0.15,1.54-0.38,2.07-0.7h0.87v9.3h2.09v0.95h-5.52V351.4z"/>
		<path d="M645.23,347.18c0-3.56,1.22-5.27,3.15-5.27c1.92,0,3.12,1.72,3.12,5.27c0,3.59-1.2,5.35-3.12,5.35
			C646.45,352.54,645.23,350.77,645.23,347.18z M650.4,347.18c0-3-0.81-4.34-2.02-4.34c-1.22,0-2.04,1.34-2.04,4.34
			c0,3.05,0.83,4.43,2.04,4.43C649.59,351.61,650.4,350.24,650.4,347.18z"/>
		<path d="M663.63,351.98c0,0.71-0.2,1.02-0.7,1.19c-0.52,0.17-1.43,0.18-2.93,0.18c-0.07-0.28-0.25-0.71-0.39-0.98
			c1.18,0.04,2.3,0.03,2.63,0.01c0.31,0,0.42-0.11,0.42-0.41v-2.94h-6.85c-0.35,1.6-1.05,3.18-2.42,4.4c-0.14-0.2-0.5-0.55-0.7-0.67
			c2.27-2.02,2.51-4.86,2.51-7.13v-4.23h8.43V351.98z M662.66,348.12v-2.48h-6.53c0,0.77-0.04,1.61-0.15,2.48H662.66z
			 M656.14,342.31v2.45h6.53v-2.45H656.14z"/>
	</g>
	<g>
		<path d="M680.06,297.17h3.54v0.9h-3.54V297.17z"/>
		<path d="M685.46,300.58h2.3v-7.86h-1.81v-0.74c0.88-0.15,1.54-0.38,2.07-0.7h0.87v9.3h2.09v0.95h-5.52V300.58z"/>
		<path d="M692.29,300.35l0.57-0.76c0.59,0.6,1.34,1.16,2.56,1.16c1.23,0,2.26-0.98,2.26-2.52c0-1.51-0.87-2.42-2.2-2.42
			c-0.7,0-1.15,0.22-1.74,0.62l-0.63-0.39l0.32-4.76h4.9v0.98h-3.89l-0.28,3.11c0.48-0.27,0.95-0.43,1.6-0.43
			c1.69,0,3.07,1.01,3.07,3.28c0,2.23-1.61,3.5-3.31,3.5C693.93,301.71,692.98,301.04,692.29,300.35z"/>
		<path d="M700.29,296.36c0-3.56,1.22-5.27,3.15-5.27c1.92,0,3.12,1.72,3.12,5.27c0,3.59-1.2,5.35-3.12,5.35
			C701.5,301.71,700.29,299.95,700.29,296.36z M705.45,296.36c0-3-0.81-4.34-2.02-4.34c-1.22,0-2.04,1.34-2.04,4.34
			c0,3.05,0.83,4.43,2.04,4.43C704.64,300.79,705.45,299.41,705.45,296.36z"/>
		<path d="M707.97,296.36c0-3.56,1.22-5.27,3.15-5.27c1.92,0,3.12,1.72,3.12,5.27c0,3.59-1.2,5.35-3.12,5.35
			C709.19,301.71,707.97,299.95,707.97,296.36z M713.14,296.36c0-3-0.81-4.34-2.02-4.34c-1.22,0-2.04,1.34-2.04,4.34
			c0,3.05,0.83,4.43,2.04,4.43C712.33,300.79,713.14,299.41,713.14,296.36z"/>
	</g>
	<g>
		<path d="M680.06,255.76h3.54v0.9h-3.54V255.76z"/>
		<path d="M685.46,259.17h2.3v-7.86h-1.81v-0.74c0.88-0.15,1.54-0.38,2.07-0.7h0.87v9.3h2.09v0.95h-5.52V259.17z"/>
		<path d="M692.6,254.95c0-3.56,1.22-5.27,3.15-5.27c1.92,0,3.12,1.72,3.12,5.27c0,3.59-1.2,5.35-3.12,5.35
			C693.82,260.3,692.6,258.53,692.6,254.95z M697.77,254.95c0-3-0.81-4.34-2.02-4.34c-1.22,0-2.04,1.34-2.04,4.34
			c0,3.05,0.83,4.43,2.04,4.43C696.96,259.38,697.77,258,697.77,254.95z"/>
		<path d="M700.29,254.95c0-3.56,1.22-5.27,3.15-5.27c1.92,0,3.12,1.72,3.12,5.27c0,3.59-1.2,5.35-3.12,5.35
			C701.5,260.3,700.29,258.53,700.29,254.95z M705.45,254.95c0-3-0.81-4.34-2.02-4.34c-1.22,0-2.04,1.34-2.04,4.34
			c0,3.05,0.83,4.43,2.04,4.43C704.64,259.38,705.45,258,705.45,254.95z"/>
		<path d="M707.97,254.95c0-3.56,1.22-5.27,3.15-5.27c1.92,0,3.12,1.72,3.12,5.27c0,3.59-1.2,5.35-3.12,5.35
			C709.19,260.3,707.97,258.53,707.97,254.95z M713.14,254.95c0-3-0.81-4.34-2.02-4.34c-1.22,0-2.04,1.34-2.04,4.34
			c0,3.05,0.83,4.43,2.04,4.43C712.33,259.38,713.14,258,713.14,254.95z"/>
	</g>
	<g>
		<path d="M680.06,214.35h3.54v0.9h-3.54V214.35z"/>
		<path d="M684.61,217.53l0.57-0.76c0.59,0.6,1.34,1.16,2.56,1.16c1.23,0,2.26-0.98,2.26-2.52c0-1.51-0.87-2.42-2.2-2.42
			c-0.7,0-1.15,0.22-1.74,0.62l-0.63-0.39l0.32-4.76h4.9v0.98h-3.89l-0.28,3.11c0.48-0.27,0.95-0.43,1.6-0.43
			c1.69,0,3.07,1.01,3.07,3.28c0,2.23-1.61,3.5-3.31,3.5C686.24,218.89,685.29,218.22,684.61,217.53z"/>
		<path d="M692.6,213.54c0-3.56,1.22-5.27,3.15-5.27c1.92,0,3.12,1.72,3.12,5.27c0,3.59-1.2,5.35-3.12,5.35
			C693.82,218.89,692.6,217.12,692.6,213.54z M697.77,213.54c0-3-0.81-4.34-2.02-4.34c-1.22,0-2.04,1.34-2.04,4.34
			c0,3.05,0.83,4.43,2.04,4.43C696.96,217.96,697.77,216.59,697.77,213.54z"/>
		<path d="M700.29,213.54c0-3.56,1.22-5.27,3.15-5.27c1.92,0,3.12,1.72,3.12,5.27c0,3.59-1.2,5.35-3.12,5.35
			C701.5,218.89,700.29,217.12,700.29,213.54z M705.45,213.54c0-3-0.81-4.34-2.02-4.34c-1.22,0-2.04,1.34-2.04,4.34
			c0,3.05,0.83,4.43,2.04,4.43C704.64,217.96,705.45,216.59,705.45,213.54z"/>
	</g>
	<g>
		<path d="M680.11,172.13c0-3.56,1.22-5.27,3.15-5.27c1.92,0,3.12,1.72,3.12,5.27c0,3.59-1.2,5.35-3.12,5.35
			C681.33,177.48,680.11,175.71,680.11,172.13z M685.28,172.13c0-3-0.81-4.34-2.02-4.34c-1.22,0-2.04,1.34-2.04,4.34
			c0,3.05,0.83,4.43,2.04,4.43C684.47,176.55,685.28,175.18,685.28,172.13z"/>
	</g>
	<g>
		<path d="M679.8,134.71l0.57-0.76c0.59,0.6,1.34,1.16,2.56,1.16c1.23,0,2.26-0.98,2.26-2.52c0-1.51-0.87-2.42-2.2-2.42
			c-0.7,0-1.15,0.22-1.74,0.62l-0.63-0.39l0.32-4.76h4.9v0.98h-3.89l-0.28,3.11c0.48-0.27,0.95-0.43,1.6-0.43
			c1.69,0,3.07,1.01,3.07,3.28c0,2.23-1.61,3.5-3.31,3.5C681.44,136.06,680.49,135.39,679.8,134.71z"/>
		<path d="M687.8,130.71c0-3.56,1.22-5.27,3.15-5.27c1.92,0,3.12,1.72,3.12,5.27c0,3.59-1.2,5.35-3.12,5.35
			C689.02,136.06,687.8,134.3,687.8,130.71z M692.97,130.71c0-3-0.81-4.34-2.02-4.34c-1.22,0-2.04,1.34-2.04,4.34
			c0,3.05,0.83,4.43,2.04,4.43C692.15,135.14,692.97,133.77,692.97,130.71z"/>
		<path d="M695.48,130.71c0-3.56,1.22-5.27,3.15-5.27c1.92,0,3.12,1.72,3.12,5.27c0,3.59-1.2,5.35-3.12,5.35
			C696.7,136.06,695.48,134.3,695.48,130.71z M700.65,130.71c0-3-0.81-4.34-2.02-4.34c-1.22,0-2.04,1.34-2.04,4.34
			c0,3.05,0.83,4.43,2.04,4.43C699.84,135.14,700.65,133.77,700.65,130.71z"/>
	</g>
	<polygon class="st2" points="739.18,109.32 683.41,109.32 675.41,98.91 683.41,88.5 739.18,88.5 	"/>
	<g>
		<path d="M680.66,52.11h2.3v-7.86h-1.81v-0.74c0.88-0.15,1.54-0.38,2.07-0.7h0.87v9.3h2.09v0.95h-5.52V52.11z"/>
		<path d="M687.49,51.88l0.57-0.76c0.59,0.6,1.34,1.16,2.56,1.16c1.23,0,2.26-0.98,2.26-2.52c0-1.51-0.87-2.42-2.2-2.42
			c-0.7,0-1.15,0.22-1.74,0.62l-0.63-0.39l0.32-4.76h4.9v0.98h-3.89l-0.28,3.11c0.48-0.27,0.95-0.43,1.6-0.43
			c1.69,0,3.07,1.01,3.07,3.28c0,2.23-1.61,3.5-3.31,3.5C689.13,53.24,688.18,52.57,687.49,51.88z"/>
		<path d="M695.48,47.89c0-3.56,1.22-5.27,3.15-5.27c1.92,0,3.12,1.72,3.12,5.27c0,3.59-1.2,5.35-3.12,5.35
			C696.7,53.24,695.48,51.48,695.48,47.89z M700.65,47.89c0-3-0.81-4.34-2.02-4.34c-1.22,0-2.04,1.34-2.04,4.34
			c0,3.05,0.83,4.43,2.04,4.43C699.84,52.32,700.65,50.94,700.65,47.89z"/>
		<path d="M703.17,47.89c0-3.56,1.22-5.27,3.15-5.27c1.92,0,3.12,1.72,3.12,5.27c0,3.59-1.2,5.35-3.12,5.35
			C704.39,53.24,703.17,51.48,703.17,47.89z M708.34,47.89c0-3-0.81-4.34-2.02-4.34c-1.22,0-2.04,1.34-2.04,4.34
			c0,3.05,0.83,4.43,2.04,4.43C707.53,52.32,708.34,50.94,708.34,47.89z"/>
	</g>
	<g>
		<path class="st3" d="M685.69,101.6c0-1.39,0.97-2.34,1.9-2.86v-0.06c-0.74-0.5-1.39-1.27-1.39-2.35c0-1.54,1.19-2.59,2.76-2.59
			c1.74,0,2.79,1.13,2.79,2.7c0,1.08-0.78,2.02-1.39,2.49v0.07c0.9,0.52,1.74,1.29,1.74,2.69c0,1.47-1.27,2.63-3.17,2.63
			C687.06,104.33,685.69,103.18,685.69,101.6z M691.01,101.67c0-1.43-1.32-1.96-2.8-2.56c-0.87,0.55-1.48,1.39-1.48,2.41
			c0,1.12,0.95,1.96,2.23,1.96C690.19,103.47,691.01,102.7,691.01,101.67z M690.76,96.5c0-1.04-0.66-1.89-1.82-1.89
			c-0.97,0-1.68,0.7-1.68,1.72c0,1.27,1.16,1.82,2.38,2.3C690.37,98.01,690.76,97.28,690.76,96.5z"/>
		<path class="st3" d="M694.2,102.59c0.45,0.49,1.06,0.78,1.75,0.78c1.34,0,2.54-1.13,2.63-4.44c-0.64,0.78-1.51,1.3-2.41,1.3
			c-1.71,0-2.8-1.11-2.8-3.22c0-1.96,1.32-3.31,2.89-3.31c1.97,0,3.4,1.63,3.4,4.83c0,4.2-1.78,5.78-3.68,5.78
			c-1.08,0-1.85-0.43-2.41-1.02L694.2,102.59z M698.57,97.97c-0.11-2.14-0.92-3.36-2.31-3.36c-1.02,0-1.79,0.98-1.79,2.41
			c0,1.42,0.62,2.37,1.89,2.37C697.06,99.38,697.86,98.98,698.57,97.97z"/>
		<path class="st3" d="M700.85,102.93l0.59-0.74c0.6,0.62,1.37,1.19,2.59,1.19c1.25,0,2.14-0.77,2.14-1.99
			c0-1.27-0.87-2.13-3.25-2.13v-0.9c2.14,0,2.89-0.88,2.89-2.03c0-1.02-0.69-1.69-1.79-1.71c-0.84,0.01-1.58,0.45-2.16,1.04
			l-0.63-0.74c0.76-0.69,1.65-1.2,2.83-1.22c1.68,0.01,2.91,0.92,2.91,2.55c0,1.27-0.74,2.1-1.83,2.49v0.06
			c1.2,0.28,2.19,1.2,2.19,2.62c0,1.82-1.43,2.91-3.22,2.91C702.5,104.33,701.51,103.64,700.85,102.93z"/>
		<path class="st3" d="M709.14,103.43c0-0.56,0.39-0.92,0.85-0.92c0.48,0,0.87,0.36,0.87,0.92c0,0.53-0.39,0.9-0.87,0.9
			C709.53,104.33,709.14,103.97,709.14,103.43z"/>
		<path class="st3" d="M718.14,95.45c-0.42-0.49-1.04-0.79-1.65-0.79c-1.44,0-2.66,1.11-2.72,4.38c0.64-0.77,1.54-1.25,2.37-1.25
			c1.74,0,2.83,1.08,2.83,3.22c0,1.96-1.33,3.31-2.89,3.31c-1.98,0-3.39-1.71-3.39-5.06c0-4.05,1.79-5.56,3.75-5.56
			c1.02,0,1.78,0.43,2.34,1.02L718.14,95.45z M717.88,101.02c0-1.43-0.6-2.37-1.92-2.37c-0.66,0-1.46,0.38-2.16,1.36
			c0.14,2.17,0.92,3.4,2.28,3.4C717.11,103.42,717.88,102.44,717.88,101.02z"/>
		<path class="st3" d="M721.04,102.59c0.45,0.49,1.06,0.78,1.75,0.78c1.34,0,2.54-1.13,2.63-4.44c-0.64,0.78-1.51,1.3-2.41,1.3
			c-1.71,0-2.8-1.11-2.8-3.22c0-1.96,1.32-3.31,2.89-3.31c1.97,0,3.4,1.63,3.4,4.83c0,4.2-1.78,5.78-3.68,5.78
			c-1.08,0-1.85-0.43-2.41-1.02L721.04,102.59z M725.41,97.97c-0.11-2.14-0.92-3.36-2.31-3.36c-1.02,0-1.79,0.98-1.79,2.41
			c0,1.42,0.62,2.37,1.89,2.37C723.9,99.38,724.7,98.98,725.41,97.97z"/>
		<path class="st3" d="M727.69,102.93l0.59-0.74c0.6,0.62,1.37,1.19,2.59,1.19c1.25,0,2.14-0.77,2.14-1.99
			c0-1.27-0.87-2.13-3.25-2.13v-0.9c2.14,0,2.89-0.88,2.89-2.03c0-1.02-0.69-1.69-1.79-1.71c-0.84,0.01-1.58,0.45-2.16,1.04
			l-0.63-0.74c0.76-0.69,1.65-1.2,2.83-1.22c1.68,0.01,2.91,0.92,2.91,2.55c0,1.27-0.74,2.1-1.83,2.49v0.06
			c1.2,0.28,2.19,1.2,2.19,2.62c0,1.82-1.43,2.91-3.22,2.91C729.34,104.33,728.35,103.64,727.69,102.93z"/>
	</g>
	<g>
		<path d="M680.04,10.96c3.28-2.86,4.73-4.93,4.73-6.71c0-1.21-0.63-2.12-1.95-2.12c-0.85,0-1.6,0.53-2.19,1.22l-0.67-0.64
			c0.83-0.9,1.71-1.5,2.98-1.5c1.82,0,2.94,1.18,2.94,3c0,2.07-1.62,4.19-4.13,6.54c0.55-0.06,1.16-0.08,1.68-0.08h2.94v0.98h-6.35
			V10.96z"/>
		<path d="M687.8,6.48c0-3.56,1.22-5.27,3.15-5.27c1.92,0,3.12,1.72,3.12,5.27c0,3.59-1.2,5.35-3.12,5.35
			C689.02,11.83,687.8,10.06,687.8,6.48z M692.97,6.48c0-3-0.81-4.34-2.02-4.34c-1.22,0-2.04,1.34-2.04,4.34
			c0,3.05,0.83,4.43,2.04,4.43C692.15,10.91,692.97,9.53,692.97,6.48z"/>
		<path d="M695.48,6.48c0-3.56,1.22-5.27,3.15-5.27c1.92,0,3.12,1.72,3.12,5.27c0,3.59-1.2,5.35-3.12,5.35
			C696.7,11.83,695.48,10.06,695.48,6.48z M700.65,6.48c0-3-0.81-4.34-2.02-4.34c-1.22,0-2.04,1.34-2.04,4.34
			c0,3.05,0.83,4.43,2.04,4.43C699.84,10.91,700.65,9.53,700.65,6.48z"/>
		<path d="M703.17,6.48c0-3.56,1.22-5.27,3.15-5.27c1.92,0,3.12,1.72,3.12,5.27c0,3.59-1.2,5.35-3.12,5.35
			C704.39,11.83,703.17,10.06,703.17,6.48z M708.34,6.48c0-3-0.81-4.34-2.02-4.34c-1.22,0-2.04,1.34-2.04,4.34
			c0,3.05,0.83,4.43,2.04,4.43C707.53,10.91,708.34,9.53,708.34,6.48z"/>
	</g>
	<line class="st1" x1="119.71" y1="352.35" x2="119.71" y2="366.47"/>
	<polygon class="st4" points="659.26,48.4 646.18,62.02 665.83,66.11 	"/>
	<path class="st4" d="M637.3,159.41c-0.13,0-0.26-0.01-0.38-0.04c-1.08-0.21-1.79-1.26-1.58-2.35l18.8-96.35
		c0.21-1.08,1.26-1.79,2.35-1.58c1.08,0.21,1.79,1.26,1.58,2.35l-18.8,96.35C639.07,158.75,638.23,159.41,637.3,159.41z"/>
</g>
<g>
	<g>
		<line class="st0" x1="2.06" y1="412.59" x2="2.06" y2="748.12"/>
		<line class="st0" x1="67.88" y1="412.59" x2="67.88" y2="748.12"/>
		<line class="st0" x1="119.71" y1="412.59" x2="119.71" y2="748.12"/>
		<line class="st0" x1="171.41" y1="412.59" x2="171.41" y2="748.12"/>
		<line class="st0" x1="223.12" y1="412.59" x2="223.12" y2="748.12"/>
		<line class="st0" x1="288.82" y1="412.59" x2="288.82" y2="748.12"/>
		<line class="st0" x1="339.41" y1="412.59" x2="339.41" y2="748.12"/>
		<line class="st0" x1="404.82" y1="412.59" x2="404.82" y2="748.12"/>
		<line class="st0" x1="456.59" y1="412.59" x2="456.59" y2="748.12"/>
		<line class="st0" x1="507.88" y1="412.59" x2="507.88" y2="748.12"/>
		<line class="st0" x1="573.29" y1="412.59" x2="573.29" y2="748.12"/>
		<line class="st0" x1="625.06" y1="412.59" x2="625.06" y2="748.12"/>
		<line class="st1" x1="675.41" y1="412.59" x2="675.41" y2="748.12"/>
		<line class="st0" x1="2.06" y1="708.12" x2="675.41" y2="708.12"/>
		<line class="st0" x1="2.06" y1="665.76" x2="675.41" y2="665.76"/>
		<line class="st0" x1="2.06" y1="624.41" x2="675.41" y2="624.41"/>
		<line class="st0" x1="2.06" y1="583.06" x2="675.41" y2="583.06"/>
		<line class="st0" x1="2.06" y1="541.71" x2="675.41" y2="541.71"/>
		<line class="st0" x1="2.06" y1="500.35" x2="675.41" y2="500.35"/>
		<line class="st0" x1="2.06" y1="459" x2="675.41" y2="459"/>
		<line class="st0" x1="2.06" y1="417.65" x2="675.41" y2="417.65"/>
		<line class="st1" x1="2.06" y1="748.12" x2="675.41" y2="748.12"/>
	</g>
	<rect y="543.88" class="st2" width="4.94" height="39.18"/>
	<rect x="12.94" y="583.06" class="st2" width="4.94" height="26.65"/>
	<rect x="26.12" y="513.71" class="st2" width="4.94" height="69.35"/>
	<rect x="39" y="583.06" class="st2" width="4.94" height="95.47"/>
	<rect x="51.88" y="521.82" class="st2" width="4.94" height="61.24"/>
	<rect x="65.41" y="583.06" class="st2" width="4.94" height="1.94"/>
	<rect x="77.94" y="583.06" class="st2" width="4.94" height="71.47"/>
	<rect x="91" y="583.06" class="st2" width="4.94" height="19.94"/>
	<rect x="103.53" y="583.06" class="st2" width="4.94" height="52.59"/>
	<rect x="117.24" y="507.53" class="st2" width="4.94" height="75.53"/>
	<rect x="129.76" y="583.06" class="st2" width="4.94" height="43.59"/>
	<rect x="142.65" y="435.35" class="st2" width="4.94" height="147.71"/>
	<rect x="156.06" y="583.06" class="st2" width="4.94" height="54.53"/>
	<rect x="168.94" y="583.06" class="st2" width="4.94" height="47.65"/>
	<rect x="181.65" y="525" class="st2" width="4.94" height="58.06"/>
	<rect x="195.06" y="554.03" class="st2" width="4.94" height="29.03"/>
	<rect x="207.59" y="558.88" class="st2" width="4.94" height="24.18"/>
	<rect x="220.65" y="530.65" class="st2" width="4.94" height="52.41"/>
	<rect x="233.88" y="583.06" class="st2" width="4.94" height="73.41"/>
	<rect x="246.59" y="583.06" class="st2" width="4.94" height="63"/>
	<rect x="259.12" y="496.06" class="st2" width="4.94" height="87"/>
	<rect x="272.71" y="525.88" class="st2" width="4.94" height="57.18"/>
	<rect x="286.35" y="556.24" class="st2" width="4.94" height="26.82"/>
	<rect x="298.94" y="542.47" class="st2" width="4.94" height="40.59"/>
	<rect x="311.65" y="561.71" class="st2" width="4.94" height="21.35"/>
	<rect x="324.71" y="583.06" class="st2" width="4.94" height="20.82"/>
	<rect x="336.94" y="583.06" class="st2" width="4.94" height="38.47"/>
	<rect x="350.71" y="583.06" class="st2" width="4.94" height="14.29"/>
	<rect x="363" y="583.06" class="st2" width="4.94" height="48.53"/>
	<rect x="376.41" y="572.38" class="st2" width="4.94" height="10.68"/>
	<rect x="389.47" y="583.06" class="st2" width="4.94" height="1.24"/>
	<rect x="402.35" y="583.06" class="st2" width="4.94" height="116.94"/>
	<rect x="415.65" y="480.88" class="st2" width="4.94" height="102.18"/>
	<rect x="428.53" y="583.06" class="st2" width="4.94" height="9.71"/>
	<rect x="441.24" y="436.41" class="st2" width="4.94" height="146.65"/>
	<rect x="454.12" y="577.72" class="st2" width="4.94" height="5.34"/>
	<rect x="467.18" y="493.06" class="st2" width="4.94" height="90"/>
	<rect x="480.06" y="583.06" class="st2" width="4.94" height="17.82"/>
	<rect x="492.94" y="535.94" class="st2" width="4.94" height="47.12"/>
	<rect x="506.18" y="538.06" class="st2" width="4.94" height="45"/>
	<rect x="519.41" y="583.06" class="st2" width="4.94" height="137.47"/>
	<rect x="532.47" y="583.06" class="st2" width="4.94" height="39"/>
	<rect x="545.12" y="583.06" class="st2" width="4.94" height="30.18"/>
	<rect x="558" y="570.18" class="st2" width="4.94" height="12.88"/>
	<rect x="570.82" y="583.06" class="st2" width="4.94" height="21.35"/>
	<rect x="584.41" y="574.59" class="st2" width="4.94" height="8.47"/>
	<rect x="597.12" y="531" class="st2" width="4.94" height="52.06"/>
	<rect x="609.82" y="553.41" class="st2" width="4.94" height="29.65"/>
	<rect x="622.59" y="583.06" class="st2" width="4.94" height="7.06"/>
	<rect x="635.82" y="583.06" class="st2" width="4.94" height="31.94"/>
	<rect x="649.06" y="532.24" class="st2" width="4.94" height="50.82"/>
	<rect x="661.59" y="508.59" class="st2" width="4.94" height="74.47"/>
	<text transform="matrix(1 0 0 1 20.1515 763.1773)" style="font-family:'SourceHanSansTW-Normal-B5pc-H'; font-size:14px;">11月</text>
	<text transform="matrix(1 0 0 1 78.7846 763.1773)" style="font-family:'SourceHanSansTW-Normal-B5pc-H'; font-size:14px;">12月</text>
	<text transform="matrix(1 0 0 1 44.1576 780.6227)" style="font-family:'SourceHanSansTW-Normal-B5pc-H'; font-size:14px;">2018</text>
	<text transform="matrix(1 0 0 1 379.0399 780.6227)" style="font-family:'SourceHanSansTW-Normal-B5pc-H'; font-size:14px;">2019</text>
	<text transform="matrix(1 0 0 1 134.2751 763.1773)" style="font-family:'SourceHanSansTW-Normal-B5pc-H'; font-size:14px;">1月</text>
	<text transform="matrix(1 0 0 1 184.2161 763.1773)" style="font-family:'SourceHanSansTW-Normal-B5pc-H'; font-size:14px;">2月</text>
	<text transform="matrix(1 0 0 1 242.5102 763.1773)" style="font-family:'SourceHanSansTW-Normal-B5pc-H'; font-size:14px;">3月</text>
	<text transform="matrix(1 0 0 1 300.8041 763.1773)" style="font-family:'SourceHanSansTW-Normal-B5pc-H'; font-size:14px;">4月</text>
	<text transform="matrix(1 0 0 1 360.0982 763.1773)" style="font-family:'SourceHanSansTW-Normal-B5pc-H'; font-size:14px;">5月</text>
	<text transform="matrix(1 0 0 1 417.6866 763.1773)" style="font-family:'SourceHanSansTW-Normal-B5pc-H'; font-size:14px;">6月</text>
	<text transform="matrix(1 0 0 1 470.6866 763.1773)" style="font-family:'SourceHanSansTW-Normal-B5pc-H'; font-size:14px;">7月</text>
	<text transform="matrix(1 0 0 1 526.5688 763.1773)" style="font-family:'SourceHanSansTW-Normal-B5pc-H'; font-size:14px;">8月</text>
	<text transform="matrix(1 0 0 1 586.2748 763.1773)" style="font-family:'SourceHanSansTW-Normal-B5pc-H'; font-size:14px;">9月</text>
	<text transform="matrix(1 0 0 1 636.8431 763.1773)" style="font-family:'SourceHanSansTW-Normal-B5pc-H'; font-size:14px;">10月</text>
	<text transform="matrix(1 0 0 1 679.4116 712.3529)" style="font-family:'SourceHanSansTW-Normal-B5pc-H'; font-size:14px;">-1500</text>
	<text transform="matrix(1 0 0 1 679.4116 670.9412)" style="font-family:'SourceHanSansTW-Normal-B5pc-H'; font-size:14px;">-1000</text>
	<text transform="matrix(1 0 0 1 679.4116 629.5294)" style="font-family:'SourceHanSansTW-Normal-B5pc-H'; font-size:14px;">-500</text>
	<text transform="matrix(1 0 0 1 679.4116 588.1176)" style="font-family:'SourceHanSansTW-Normal-B5pc-H'; font-size:14px;">0</text>
	<text transform="matrix(1 0 0 1 679.4116 546.7059)" style="font-family:'SourceHanSansTW-Normal-B5pc-H'; font-size:14px;">500</text>
	<polygon class="st2" points="739.18,520.15 683.41,520.15 675.41,509.74 683.41,499.32 739.18,499.32 	"/>
	<text transform="matrix(1 0 0 1 679.4116 463.8824)" style="font-family:'SourceHanSansTW-Normal-B5pc-H'; font-size:14px;">1500</text>
	
		<text transform="matrix(1 0 0 1 685.0587 514.9706)" class="st3" style="font-family:'SourceHanSansTW-Normal-B5pc-H'; font-size:14px;">893.693</text>
	<text transform="matrix(1 0 0 1 679.4116 422.4706)" style="font-family:'SourceHanSansTW-Normal-B5pc-H'; font-size:14px;">2000</text>
	<line class="st1" x1="119.71" y1="763.18" x2="119.71" y2="777.29"/>
	<polygon class="st4" points="659.26,459.22 646.18,472.85 665.83,476.93 	"/>
	<path class="st4" d="M637.3,570.24c-0.13,0-0.26-0.01-0.38-0.04c-1.08-0.21-1.79-1.26-1.58-2.35l18.8-96.35
		c0.21-1.08,1.26-1.79,2.35-1.58c1.08,0.21,1.79,1.26,1.58,2.35l-18.8,96.35C639.07,569.57,638.23,570.24,637.3,570.24z"/>
</g>
</svg>
