<?xml version="1.0" encoding="utf-8"?>
<!-- Generator: Adobe Illustrator 23.0.1, SVG Export Plug-In . SVG Version: 6.00 Build 0)  -->
<svg version="1.1" id="分離模式" xmlns="http://www.w3.org/2000/svg" xmlns:xlink="http://www.w3.org/1999/xlink" x="0px"
	 y="0px" viewBox="0 0 125.3 162.9" style="enable-background:new 0 0 125.3 162.9;" xml:space="preserve">
<style type="text/css">
	.st0{fill:#8E423A;}
	.st1{fill:#DED4DB;}
	.st2{fill:#B6664C;}
	.st3{fill:#937171;}
	.st4{fill:#E9D4BE;}
	.st5{fill:#BEA399;}
	.st6{fill:#B39858;}
	.st7{fill:#6576BA;}
	.st8{fill:#DFCAB7;}
	.st9{fill:#CFB966;}
	.st10{fill:#97B2C5;}
	.st11{fill:#F2E2CD;}
	.st12{fill:#8F9CB5;}
	.st13{fill:#B25030;}
	.st14{fill:#4E395C;}
	.st15{fill:#7490D0;}
	.st16{fill:#D17730;}
	.st17{fill:#6C5F84;}
</style>
<g>
	<g>
		<g>
			<g>
				<path class="st0" d="M103.2,68.9l12.4,93.4c0.1,0.4,0.4,0.7,0.9,0.7h1.5c0.2,0,0.4-0.1,0.6-0.2c0.1-0.1,0.2-0.3,0.2-0.5
					L111,68.9H103.2z"/>
			</g>
			<g>
				<path class="st0" d="M6.5,162.2c0,0.2,0.1,0.4,0.2,0.5c0.1,0.1,0.3,0.2,0.6,0.2h1.5c0.4,0,0.8-0.3,0.9-0.7L22,68.9h-7.7
					L6.5,162.2z"/>
			</g>
			<g>
				<polygon class="st1" points="19.7,86.8 22,68.9 14.3,68.9 12.8,86.8 				"/>
			</g>
			<g>
				<polygon class="st1" points="112.5,86.8 111,68.9 103.2,68.9 105.6,86.8 				"/>
			</g>
		</g>
		<g>
			<rect y="45.7" class="st2" width="125.3" height="23.2"/>
		</g>
	</g>
	<g>
		<g>
			<rect x="90.8" y="15.2" class="st3" width="28.9" height="1.4"/>
		</g>
		<g>
			<rect x="91.1" y="24" class="st3" width="28.5" height="1.4"/>
		</g>
		<g>
			<path class="st4" d="M86.3,24h32.2c-0.9-0.5-0.9-7,0-7.4H86.3V24z"/>
		</g>
		<g>
			<path class="st4" d="M86.3,14.5h32.2c-0.6-0.1-0.6-4.5,0-4.6H86.3V14.5z"/>
		</g>
		<g>
			<path class="st5" d="M53.5,25.4H93c-1-0.2-1-10.1,0-10.2H53.5C52.5,15.4,52.5,25.2,53.5,25.4z"/>
		</g>
		<g>
			<rect x="86.2" y="39.7" class="st6" width="32.4" height="0.9"/>
		</g>
		<g>
			<rect x="87.3" class="st7" width="32.4" height="0.9"/>
		</g>
		<g>
			<rect x="87.3" y="3.6" class="st7" width="32.4" height="0.9"/>
		</g>
		<g>
			<rect x="86.2" y="44.8" class="st6" width="32.4" height="0.9"/>
		</g>
		<g>
			<path class="st8" d="M80.3,44.8h37.1c-0.6-0.1-0.6-4.1,0-4.2H80.3V44.8z"/>
		</g>
		<g>
			<path class="st9" d="M55.5,45.7H87c-0.9,0-0.9-6,0-6H55.5C54.6,39.7,54.6,45.7,55.5,45.7z"/>
		</g>
		<g>
			<rect x="60.2" y="25.4" class="st10" width="30.5" height="1.7"/>
		</g>
		<g>
			<rect x="60.2" y="37.9" class="st10" width="31.9" height="1.7"/>
		</g>
		<g>
			<path class="st11" d="M96.2,37.9H61.3c0.5-0.2,0.5-10.6,0-10.8h34.9V37.9z"/>
		</g>
		<g>
			<path class="st12" d="M119.3,39.7H82.1c1.1,0,1.1-14.2,0-14.2h37.2C120.4,25.5,120.4,39.7,119.3,39.7z"/>
		</g>
		<g>
			<path class="st4" d="M87,3.6h32.2c-0.9-0.2-0.9-2.5,0-2.7H87V3.6z"/>
		</g>
		<g>
			<rect x="87.3" y="4.6" class="st13" width="32.4" height="0.9"/>
		</g>
		<g>
			<rect x="87.3" y="8.2" class="st13" width="32.4" height="0.9"/>
		</g>
		<g>
			<rect x="87.3" y="9.2" class="st14" width="32.4" height="0.9"/>
		</g>
		<g>
			<rect x="87.3" y="14.3" class="st14" width="32.4" height="0.9"/>
		</g>
		<g>
			<path class="st4" d="M87,8.2h32.2c-0.9-0.2-0.9-2.5,0-2.7H87V8.2z"/>
		</g>
		<g>
			<path class="st15" d="M63.2,4.6h25.5c-0.9-0.2-0.9-4.4,0-4.6H63.2C62.3,0.2,62.3,4.4,63.2,4.6z"/>
		</g>
		<g>
			<path class="st16" d="M62.5,9.2h29.4c-0.9-0.2-0.9-4.4,0-4.6H62.5C61.7,4.8,61.7,8.9,62.5,9.2z"/>
		</g>
		<g>
			<path class="st17" d="M59.3,15.2H93c-0.9,0-0.9-6,0-6H59.3C58.4,9.2,58.4,15.2,59.3,15.2z"/>
		</g>
	</g>
</g>
</svg>
