<?xml version="1.0" encoding="utf-8"?>
<!-- Generator: Adobe Illustrator 23.0.1, SVG Export Plug-In . SVG Version: 6.00 Build 0)  -->
<svg version="1.1" id="分離模式" xmlns="http://www.w3.org/2000/svg" xmlns:xlink="http://www.w3.org/1999/xlink" x="0px"
	 y="0px" viewBox="0 0 140.9 304" style="enable-background:new 0 0 140.9 304;" xml:space="preserve">
<style type="text/css">
	.st0{fill:#FFA898;}
	.st1{fill:#4A3254;}
	.st2{fill:#E3615F;}
	.st3{fill:#E9E6EC;}
	.st4{fill:#E2DFE5;}
	.st5{fill:#C7B8C3;}
	.st6{fill:#6D5F84;}
	.st7{fill:#56466F;}
	.st8{fill:#3D2342;}
	.st9{fill:#F48989;}
	.st10{fill:#E98241;}
	.st11{fill:#371A34;}
	.st12{fill:#983332;}
	.st13{fill:#532442;}
	.st14{fill:#F8918C;}
	.st15{fill:#C74038;}
	.st16{fill:#F2EEF1;}
	.st17{fill:#7F232A;}
	.st18{fill:#AA423A;}
	.st19{fill:#BA5242;}
	.st20{fill:#51324C;}
	.st21{fill:#F3EFF1;}
	.st22{fill:#DA5756;}
	.st23{fill:#D8CDD5;}
</style>
<g>
	<g>
		<g>
			<path class="st0" d="M140,1.5c-0.7-0.2-1.4,0.2-1.6,0.9l-2.2,7.8c0,0.1-0.1,0.2-0.2,0.3c-0.1,0.1-0.2,0.1-0.3,0c0,0,0,0,0,0
				c-0.1,0-0.2-0.1-0.2-0.1c-1.8-0.7-5.6-0.7-7.8,0c0,0,0,0-0.1,0c-0.2,0-0.4-0.1-0.5-0.2l-4.2-9.3c-0.4-0.8-1.3-1.1-2-0.8
				c-0.8,0.4-1.1,1.3-0.8,2l4.2,9.1c0.4,0.8,0.5,1.7,0.4,2.6c0,0,0,0.1,0,0.1c0,0.1,0,0.2,0,0.3c0,0.5-0.1,0.9,0,1.4
				c0,0.4-0.2,0.8-0.5,0.9c-0.3,0.2-0.8,0.2-1.1-0.1c-1.3-0.9-2.7-1.9-3.8-2.5c-0.8-0.5-1.8-0.1-2.3,0.7c-0.4,0.8-0.1,1.8,0.7,2.3
				c0,0,1.6,0.9,4.3,2.9c1.9,1.4,3.6,3.1,5,5.1c1.4,1.8,3.3,3,5.4,2.9c3.8-0.1,6.7-4.2,6.4-9.2c-0.1-1.1-0.1-2.1-0.1-3
				c-0.1-2.2,0.1-4.4,0.7-6.6l1.7-6C141.1,2.4,140.7,1.7,140,1.5z"/>
		</g>
		<g>
			<path class="st0" d="M132,18c-2.3,0-4.1,1.8-4.1,4.1v36.1c0,3.4-1.8,6.6-4.8,8.3l-31.3,18c-2,1.1-2.6,3.7-1.5,5.6
				c1.1,2,3.6,2.6,5.6,1.5l31.3-18c5.5-3.2,8.9-9.1,8.9-15.4V22.1C136.1,19.8,134.3,18,132,18z"/>
		</g>
		<g>
			<path class="st1" d="M138,58.2c0,7-3.7,13.5-9.8,17l-31.3,18C96,93.7,95,94,94,94c-2.1,0-4.1-1.1-5.1-3c-1.6-2.8-0.7-6.5,2.2-8.1
				l31.3-18c2.4-1.4,3.9-3.9,3.9-6.7V33.4c0-0.5,0.4-0.9,0.9-0.9h10.1c0.5,0,0.9,0.4,0.9,0.9V58.2z"/>
		</g>
		<g>
			<path class="st2" d="M136.3,27.2h-8.6c-0.4,0-0.7,0.3-0.7,0.7v4.5H137v-4.5C137,27.5,136.7,27.2,136.3,27.2z"/>
		</g>
	</g>
	<g>
		<g>
			<path class="st3" d="M102.8,263.1c-1.6,2.6-5,3.3-7.6,1.7c-2.6-1.6-3.3-5-1.7-7.6l6.2-9.8l9.3,5.8L102.8,263.1z"/>
		</g>
		<g>
			<g>
				<path class="st3" d="M103.1,253.4c-3.8-2.4-8.1,0.4-10.3,2.3c-2.2,1.9-8.7,7.1-4.6,9.6c4.1,2.6,20.8,13.1,20.8,13.1
					s1.5,0.7,2.9-1.7c1.5-2.3-0.6-4-1.4-5.1c-0.9-1.1-2.8-3.8-3.8-8.4C105.6,258.8,105.9,255.2,103.1,253.4z"/>
			</g>
			<g>
				<g>
					<g>
						<path class="st1" d="M91.8,256.4c0.2-0.2,0.8-0.7,1.4-1.2c0.3-0.2,0.8-0.1,0.8,0.3c0.1,1.1,0.6,2.6,2.1,3.5
							c2,1.3,6.7-1.3,9.3,0.4c0.5,0.3,0.6,0.7,0.7,0.7c0.2,1,0.3,2,0.6,3.1c0.6,2.5,1.4,4.4,2.2,5.9l0,0l0,0
							c-2.2-1.7-4.8-1.4-6.4-0.2l-0.4,0.9l10.2,6.4l-24.4-15.4l0,0l2.2,1.4C91.7,259.1,92.1,257.1,91.8,256.4L91.8,256.4z"/>
					</g>
					<g>
						<path class="st3" d="M89.8,262.2l-2.2-1.4l0,0c0.6-0.9,1.3-1.7,2.1-2.5c0.7-0.7,1.4-1.3,2-1.9
							C92.1,257.1,91.7,259.1,89.8,262.2z"/>
					</g>
					<g>
						<path class="st3" d="M102.3,269c1.6-1.2,4.3-1.5,6.4,0.2l0,0l0,0c0.6,1.2,1.2,2,1.6,2.5c0.8,1,2.6,2.5,1.7,4.6l-10.2-6.4
							L102.3,269z"/>
					</g>
				</g>
				<g>
					<path class="st3" d="M103.3,267.4c0.2,0.1,0.5,0.1,0.7,0c1.4-0.7,3.5,0,4.3,0.8c0.3-0.4,0.2-1.2-0.8-1.8
						c-1.7-1.1-3-0.8-4.1-0.2c-0.3,0.2-0.5,0.6-0.3,0.9C103.1,267.3,103.2,267.3,103.3,267.4z"/>
				</g>
				<g>
					<path class="st3" d="M102.3,264.9c0.2,0.1,0.5,0.1,0.7,0c1.4-0.8,3.5,0,4.3,0.8c0.3-0.4,0.2-1.2-0.8-1.8
						c-1.7-1.1-3-0.8-4.1-0.2c-0.3,0.2-0.5,0.6-0.3,0.9C102.1,264.8,102.2,264.8,102.3,264.9z"/>
				</g>
				<g>
					<path class="st3" d="M101.6,262.5c0.2,0.1,0.5,0.1,0.7,0c1.4-0.7,3.5,0,4.3,0.8c0.3-0.4,0.2-1.2-0.8-1.8
						c-1.7-1.1-3-0.8-4.1-0.2c-0.3,0.2-0.5,0.6-0.3,0.9C101.5,262.4,101.5,262.5,101.6,262.5z"/>
				</g>
				<g>
					<path class="st4" d="M88.2,260.1l24.1,15.2c0,0.4-0.2,0.7-0.3,1.1l0,0c0,0,0,0,0,0c-0.1,0.2-0.2,0.4-0.3,0.6
						c-1.8,2.8-3.3,2.2-3.3,2.2s-16.7-10.6-20.8-13.1c-1.5-1-1.4-2.5-0.6-4.2l0,0c0,0,0-0.1,0.1-0.1c0.1-0.3,0.3-0.5,0.5-0.8l0,0
						C87.7,260.7,88,260.4,88.2,260.1z"/>
				</g>
				<g>
					<path class="st5" d="M101.6,270c0.3,0.2,0.3,0.5,0.2,0.8c-0.2,0.3-0.5,0.3-0.8,0.2L87,262.1c0,0,0-0.1,0.1-0.1l0,0
						c0,0,0-0.1,0.1-0.1c0.1-0.2,0.3-0.5,0.4-0.7L101.6,270z"/>
				</g>
			</g>
		</g>
		<g>
			<path class="st6" d="M80.6,164.4c-2.8-1.7-6.4-0.9-8.2,1.9c-1.7,2.8-0.9,6.4,1.9,8.2l45.8,28.8c2.7,1.7,3.5,5.3,1.8,8l-20.8,33.1
				l10.1,6.3l20.8-33.1c5.2-8.3,2.7-19.2-5.5-24.4L80.6,164.4z"/>
		</g>
		<g>
			<path class="st7" d="M97.3,250.3l-0.7,1.2c-0.1,0.2-0.1,0.5,0.1,0.6l9.3,5.8c0.2,0.1,0.5,0.1,0.6-0.1l0.7-1.2L97.3,250.3z"/>
		</g>
		<g>
			
				<rect x="101.1" y="245.3" transform="matrix(0.5326 -0.8464 0.8464 0.5326 -164.1831 205.234)" class="st6" width="5.2" height="11.9"/>
		</g>
		<g>
			
				<rect x="104.7" y="242.4" transform="matrix(0.5326 -0.8464 0.8464 0.5326 -160.8013 205.4365)" class="st7" width="1.8" height="11.9"/>
		</g>
	</g>
	<g>
		<g>
			<path class="st3" d="M66.5,294.4c-0.6,3-3.4,4.9-6.4,4.4c-3-0.6-4.9-3.4-4.4-6.4l2.2-11.4l10.8,2.1L66.5,294.4z"/>
		</g>
		<g>
			<g>
				<path class="st3" d="M61.6,285c-4.5,0-6.6,4.7-7.5,7.4c-0.9,2.8-3.6,10.6,1.2,10.6s24.6,0,24.6,0s1.6-0.2,1.6-3
					c0-2.7-2.6-3-3.9-3.5c-1.3-0.5-4.4-1.7-7.7-5.1S64.9,285,61.6,285z"/>
			</g>
			<g>
				<g>
					<g>
						<path class="st1" d="M53.7,293.6c0.1-0.3,0.3-1,0.6-1.7c0.1-0.4,0.6-0.5,0.8-0.1c0.6,0.9,1.9,1.9,3.6,1.9c2.4,0,5-4.6,8.1-4.6
							c0.6,0,0.9,0.2,0.9,0.3c0.6,0.7,1.3,1.5,2.1,2.3c1.8,1.8,3.5,3,5,3.8l0,0l0,0c-2.7-0.3-4.8,1.4-5.5,3.3l0.1,1h12H52.5l0,0h2.6
							C55,295.9,54.3,294,53.7,293.6L53.7,293.6z"/>
					</g>
					<g>
						<path class="st3" d="M55.1,299.6h-2.6l0,0c0-1,0.2-2.2,0.5-3.3c0.2-1,0.5-1.9,0.7-2.7C54.3,294,55,295.9,55.1,299.6z"/>
					</g>
					<g>
						<path class="st3" d="M69.3,298.6c0.7-1.9,2.8-3.5,5.5-3.3l0,0l0,0c1.2,0.6,2.1,1,2.7,1.2c1.2,0.4,3.6,0.7,3.9,3h-12
							L69.3,298.6z"/>
					</g>
				</g>
				<g>
					<path class="st3" d="M69.3,296.7c0.2,0,0.5-0.1,0.6-0.3c0.8-1.4,3-1.8,4.1-1.6c0.1-0.5-0.5-1.1-1.6-1.1c-2,0-3,0.9-3.6,2
						c-0.2,0.3-0.1,0.7,0.3,0.9C69,296.7,69.2,296.7,69.3,296.7z"/>
				</g>
				<g>
					<path class="st3" d="M67.1,295.2c0.2,0,0.5-0.1,0.6-0.4c0.8-1.4,3-1.9,4-1.6c0.1-0.5-0.5-1.1-1.6-1.1c-2,0-3,0.9-3.6,2.1
						c-0.2,0.3-0.1,0.7,0.3,0.9C66.8,295.1,66.9,295.2,67.1,295.2z"/>
				</g>
				<g>
					<path class="st3" d="M65.2,293.5c0.2,0,0.5-0.1,0.6-0.3c0.8-1.4,3-1.8,4.1-1.6c0.1-0.5-0.5-1.1-1.6-1.1c-2,0-3,0.9-3.6,2
						c-0.2,0.3-0.1,0.7,0.3,0.9C65,293.5,65.1,293.5,65.2,293.5z"/>
				</g>
				<g>
					<path class="st4" d="M52.6,298.6h28.5c0.2,0.3,0.3,0.7,0.3,1.2h0c0,0,0,0,0,0c0,0.2,0,0.4,0,0.6c0,3.3-1.6,3.6-1.6,3.6
						s-19.8,0-24.6,0c-1.8,0-2.5-1.3-2.7-3.2h0c0,0,0-0.1,0-0.1c0-0.3,0-0.6,0-0.9l0,0C52.5,299.4,52.5,299,52.6,298.6z"/>
				</g>
				<g>
					<path class="st5" d="M69.3,299.9c0.3,0,0.5,0.2,0.5,0.5c0,0.3-0.2,0.5-0.5,0.5H52.6c0,0,0-0.1,0-0.1h0c0,0,0-0.1,0-0.1
						c0-0.3,0-0.6,0-0.9H69.3z"/>
				</g>
			</g>
		</g>
		<g>
			<path class="st6" d="M49.8,160.9c-3.1,1.1-4.7,4.5-3.7,7.6L61.7,213c3.7,10.6,4.5,22,2.4,33l-6,31.6l11.7,2.2l6-31.6
				c2.5-13,1.5-26.6-2.9-39.1l-15.5-44.5c-0.7-2-2.4-3.5-4.5-3.9C51.9,160.5,50.8,160.6,49.8,160.9z"/>
		</g>
		<g>
			<path class="st7" d="M56.7,284.5l-0.3,1.3c0,0.2,0.1,0.5,0.4,0.5l10.8,2.1c0.2,0,0.5-0.1,0.5-0.4l0.3-1.3L56.7,284.5z"/>
		</g>
		<g>
			
				<rect x="60.5" y="277.1" transform="matrix(0.1878 -0.9822 0.9822 0.1878 -226.8116 291.8211)" class="st6" width="5.2" height="11.9"/>
		</g>
		<g>
			
				<rect x="62.8" y="273.7" transform="matrix(0.1878 -0.9822 0.9822 0.1878 -222.8954 289.6789)" class="st7" width="1.8" height="11.9"/>
		</g>
	</g>
	<g>
		<path class="st8" d="M73.1,67.9c3.1,0.3,9.3,2.8,10.4,5.3c0.9,2.1,1.7,4.8,2.1,6c0.1,0.4,0.1,0.8-0.1,1.1c-0.8,1.6-3.6,4.8-10.5,4
			c-8.7-1-12.6-6.5-13.7-9.4c-0.2-0.4-0.1-0.9,0.2-1.3c1-1.4,3.5-4.6,4.2-5.3C66.3,67.8,68.3,67.4,73.1,67.9z"/>
	</g>
	<g>
		<g>
			<path class="st0" d="M67,77.2c-0.3,3,1.8,5.7,4.8,6.1c3,0.3,5.7-1.8,6.1-4.8c0.3-3-1.8-5.7-4.8-6.1S67.3,74.2,67,77.2z"/>
		</g>
		<g>
			<path class="st0" d="M71.8,89.9c3.1-0.2,5.8-2.4,6.5-5.6l5.8-25.8c0.9-3.9-1.6-7.7-5.4-8.6c-3.9-0.9-7.7,1.6-8.6,5.4l-5.8,25.8
				c-0.9,3.9,1.6,7.7,5.4,8.6C70.4,89.9,71.1,89.9,71.8,89.9z"/>
		</g>
		<g>
			<path class="st9" d="M67.2,68.4l2.9-13c0.9-3.9,4.7-6.3,8.6-5.4c3.9,0.9,6.3,4.7,5.4,8.6l-3.8,16.7c-2.7-0.7-5.5-1.9-8.4-3.5
				C70.3,70.7,68.7,69.6,67.2,68.4z"/>
		</g>
	</g>
	<g>
		<g>
			
				<ellipse transform="matrix(0.7071 -0.7071 0.7071 0.7071 -97.0855 104.3949)" class="st0" cx="77.5" cy="169.4" rx="5.5" ry="5.5"/>
		</g>
		<g>
			<path class="st0" d="M46.3,165.9c-0.3,3,1.8,5.7,4.8,6.1c3,0.3,5.7-1.8,6.1-4.8c0.3-3-1.8-5.7-4.8-6.1
				C49.4,160.8,46.7,162.9,46.3,165.9z"/>
		</g>
		<g>
			<path class="st0" d="M89.9,87.6c-0.3,2.3,1.4,4.3,3.6,4.5c2.3,0.3,4.3-1.4,4.5-3.6c0.3-2.3-1.4-4.3-3.6-4.5
				C92.2,83.7,90.1,85.3,89.9,87.6z"/>
		</g>
		<g>
			<path class="st0" d="M42.7,82.4c-0.3,2.3,1.4,4.3,3.6,4.5c2.3,0.3,4.3-1.4,4.5-3.6c0.3-2.3-1.4-4.3-3.6-4.5
				C45,78.5,43,80.1,42.7,82.4z"/>
		</g>
		<g>
			<path class="st0" d="M44.6,79.3c5.8-4,20.4-3.3,27.1-2.5c7.2,0.7,23.3,2.9,26.1,9.7c0,0,0,0,0,0c0.3,0.7,0.3,1.2,0.3,1.2l0,0
				c0.1,0.9-0.1,1.8-0.7,2.7c-0.1,0.2-0.3,0.4-0.5,0.6c-2,2.1-3.2,4.8-3.4,7.7c-0.4,7.2-2,17.4-4.9,25.5c-3.4,9.4-4.7,19.5-3.8,29.4
				c0.1,1.5,0.1,3,0,4.5l0,0c-0.1,1.3-0.3,2.5-0.4,3.7c-1.4,12-1,16.8-21.6,14.5c0,0,0,0,0,0c0,0,0,0,0,0
				c-15.6-1.7-17.7-5.2-16.4-17.5c0.5-5.4,2.3-8.9,4.2-12.3c4.6-7.9,5.6-17.5,2.7-26.2c-1.4-4.3-2.4-8.6-3.5-12
				c-1.2-3.7-2.7-9.2-2.7-14.6c0-3-1.2-5.9-3.2-8.1c-0.4-0.4-0.6-0.8-0.8-1.3c-0.4-0.9-0.3-1.9-0.1-2.7
				C43.3,80.6,43.7,79.9,44.6,79.3z"/>
		</g>
	</g>
	<g>
		<path class="st6" d="M46.4,155L46.4,155c0.4-1.6,0.9-3.2,1.5-4.5c0.3-0.7,0.7-1.4,1-2.2c0.1-0.2,0.3-0.3,0.5-0.2l35.4,3.9
			c0.2,0,0.4,0.2,0.4,0.4c0,0.4,0,0.7,0.1,1.1c0.1,1.3,0.2,2.6,0,3.9l-0.1,0.9c-0.1,1.1-0.3,2.3-0.4,3.4l0,0l-0.2,1.5
			c-0.6,5.5-1,9.5-3.9,11.8c-2.9,2.3-8.1,2.8-18,1.7l0,0l0,0h0l0,0c-16-1.8-18.1-5.6-16.8-18C45.9,157.9,46.2,156.1,46.4,155z"/>
	</g>
	<g>
		<path class="st10" d="M73.9,152.6c0.9,0.1,1.6,1,1.5,1.9c-0.1,0.9-1,1.6-1.9,1.5c-0.9-0.1-1.6-1-1.5-1.9
			C72.1,153.2,72.9,152.5,73.9,152.6z"/>
	</g>
	<g>
		<path class="st7" d="M46.4,155c0.1-0.5,0.2-0.9,0.3-1.3l0,0c6,0.7,23.2,2.6,29.2,3.2l0.5-4.1c0-0.2-0.1-0.4-0.3-0.4l-27.7-3.1
			c0.2-0.3,0.3-0.7,0.5-1c0.1-0.2,0.3-0.3,0.4-0.2l26.9,3l8.5,0.9c0.2,0,0.4,0.2,0.4,0.4c0,0.1,0,0.3,0,0.4c0,0.2,0,0.4,0,0.6
			l-7.4-0.8c0,0.1,0,0.2,0,0.4c0,0-0.4,3.9-0.5,4.1l7.9,0.9c0,0.3,0-0.4-0.1,1.4l-2.5-0.3c0,2,0.7,3.5,2,4.6c-0.1,0.5-0.2,1-0.3,1.5
			c-1.8-1.1-3.1-3-3.1-6.2l-4-0.4c-0.4,2.7-1.4,8.5-3.3,11c-0.2,0.2-0.5,0.3-0.8,0.3l-2.2-0.2c-2.2-0.2-3-2.4-2.2-4.6
			c1-2.8,1.6-5.7,1.8-7.3l0,0c-2.7-0.3-4.8-0.5-7.8-0.9c-1.5,5.2-8.1,5.8-11.7,5.4c-1.3-0.1-1.2-4.5-0.7-6.8L46.4,155z M70,167.6
			c0.2,0.3,0.6,0.5,1.1,0.6l1.8,0.2c0.1,0,0.1,0,0.2-0.1c1.5-2.3,2.4-7.1,2.8-10l-4-0.4c-0.3,1.7-0.8,4.6-1.9,7.6
			C69.7,166.2,69.7,167.1,70,167.6z M51.5,160.9c1.6,0.1,8.2,0.3,9.8-4.3l-9.6-1.1C51.3,157,51.2,159.9,51.5,160.9z"/>
	</g>
	<g>
		<g>
			<path class="st11" d="M92.9,49.5L92.9,49.5c0,0,0.1-0.3,0.3-0.7c0.2-0.4,0.4-0.9,0.6-1.5c0.1-0.3,0.3-0.5,0.4-0.8
				c0.1-0.1,0.2-0.2,0.3-0.4c0.1-0.1,0.2-0.2,0.3-0.3c0.1-0.1,0.2-0.1,0.4-0.2c0.1,0,0.3,0,0.3-0.1c0,0,0.1,0,0.1,0l0,0l9.6,1.1
				c-0.1,0.8-0.1,1.2-0.2,1.5c0,0.1,0,0.2,0,0.2c0,0.1,0,0.3-0.1,0.6l-0.9-0.1c-1.2-0.1-2.4-1.9-3.9-2.1l-4.5-0.5c0,0-0.1,0-0.2,0
				c0,0-0.1,0-0.1,0c0,0-0.1,0.1-0.2,0.1c-0.2,0.2-0.5,0.7-0.6,1.2c-0.2,0.5-0.3,1.1-0.5,1.5c-0.1,0.4-0.2,0.7-0.2,0.7
				c0,0,0,0,0,0.1c-0.1,0.3-0.5,0.4-0.8,0.3C92.9,50.1,92.8,49.8,92.9,49.5z"/>
		</g>
		<g>
			<g>
				<path class="st0" d="M82.4,19.8c1.9,0.2,3.7,0.6,5.5,1.2c5.4,1.9,10,5.6,12.6,10.2c1.4,2.4,2.1,4.8,2.5,7.4
					c0.5,3.3-0.1,6.4-0.5,9.7c-0.3,3-0.4,6.2-1.1,9.1c-1.2,5.2-4.7,10-9.9,12.5c-5.8,2.9-12.7,0.5-18-2.5
					c-5.2-2.9-9.7-7.4-12.5-12.2C58,50,56.7,43.9,57.3,38.1c0-0.2,0-0.4,0.1-0.6C58.5,26.4,69.8,18.4,82.4,19.8z"/>
			</g>
			<g>
				<path class="st12" d="M75.5,41.5c2.4-2,6.3-1,6.5-0.9c0.5,0.1,0.8,0.6,0.6,1.1c-0.1,0.5-0.6,0.8-1.1,0.6c0,0-3.1-0.9-4.8,0.5
					c-0.2,0.2-0.4,0.2-0.7,0.2c-0.2,0-0.4-0.1-0.6-0.3C75.1,42.4,75.1,41.8,75.5,41.5z"/>
			</g>
			<g>
				<path class="st12" d="M95.3,42.1c0.2,0,4.2-0.2,6.1,2.3c0.3,0.4,0.2,1-0.2,1.3c-0.2,0.1-0.4,0.2-0.7,0.2c-0.2,0-0.5-0.1-0.6-0.4
					c-1.3-1.7-4.5-1.6-4.6-1.6c-0.5,0-0.9-0.4-1-0.9C94.4,42.5,94.7,42.1,95.3,42.1z"/>
			</g>
			<g>
				<path class="st13" d="M98.2,51.2c0.1-0.6-0.4-1.1-1.1-1.2c-0.7-0.1-1.3,0.3-1.4,0.9c0,0.4-0.4,0.6-0.8,0.6
					c-0.4,0-0.6-0.4-0.6-0.8c0.1-1.3,1.4-2.3,2.9-2.2c1.4,0.2,2.5,1.4,2.3,2.7c0,0.4-0.4,0.6-0.8,0.6C98.4,51.9,98.2,51.6,98.2,51.2
					z"/>
			</g>
			<g>
				<path class="st13" d="M78.6,46.6c1.4,0.2,2.5,1.4,2.3,2.7c0,0.4-0.4,0.6-0.8,0.6c-0.4,0-0.6-0.4-0.6-0.8
					c0.1-0.6-0.4-1.1-1.1-1.2c-0.7-0.1-1.3,0.3-1.4,0.9c0,0.4-0.4,0.6-0.8,0.6c-0.4,0-0.6-0.4-0.6-0.8
					C75.9,47.4,77.2,46.4,78.6,46.6z"/>
			</g>
			<g>
				<path class="st14" d="M79.3,52.7c0.8-0.2,1.5,0.3,1.7,1.1c0.2,0.8-0.3,1.5-1.1,1.7c-0.6,0.1-1.6,0.6-1.9,1.2
					c-0.2,0.5-0.7,0.8-1.2,0.9c-0.2,0-0.5,0-0.7-0.1c-0.7-0.3-1.1-1.2-0.8-1.9C76.3,53.5,79,52.8,79.3,52.7z"/>
			</g>
			<g>
				<path class="st14" d="M93.3,55.2c0.3-0.7,1.2-1,1.9-0.7c0.3,0.1,2.7,1.4,3.1,3.6c0.1,0.8-0.4,1.5-1.2,1.7c-0.3,0-0.5,0-0.7-0.1
					c-0.5-0.2-0.8-0.6-0.9-1.1c-0.1-0.6-1-1.3-1.6-1.5C93.3,56.8,93,55.9,93.3,55.2z"/>
			</g>
			<g>
				<path class="st15" d="M82.4,57l8.8,1c0.3,0,0.5,0.2,0.7,0.5c0.2,0.3,0.2,0.6,0.1,0.9c-0.7,3.1-3.2,5.3-6,5l-0.1,0
					c-2.7-0.3-4.8-3-4.7-6.2c0-0.3,0.1-0.7,0.3-0.9C81.9,57,82.1,56.9,82.4,57z"/>
			</g>
			<g>
				<path class="st16" d="M86.5,59.7C84.6,59.5,83,58.5,82,57c0.1-0.1,0.3-0.1,0.5-0.1l8.8,1c0.2,0,0.3,0.1,0.4,0.2
					c-1.3,1.2-3.1,1.8-5,1.6L86.5,59.7z"/>
			</g>
		</g>
		<g>
			<g>
				<path class="st17" d="M93,31.8c-0.6-2.9-12.6-6.8-18.7-1.7c0,0,1.3-9.5,13-8.2c11.7,1.3,10.9,6.4,10.5,7.6
					C97.3,30.6,96.2,31.4,93,31.8z"/>
			</g>
			<g>
				<path class="st18" d="M102.9,38.7c-0.4-2.6-1.1-5.1-2.5-7.4c-1.5-2.6-3.6-4.9-6.2-6.8c0.1-1.8,0.9-2.7,2.7-1.4
					c4.5,3.2,8.3,5.1,9.1,8.6c0.7,3.1-2.5,7.9-3,10.2C103.1,40.8,103.1,39.7,102.9,38.7z"/>
			</g>
			<g>
				<path class="st18" d="M82.4,23.4c-9.4,2.5-8.8,10-8.8,12.4c0,1.3-0.1,2.7-0.7,3.1c-0.6,0.4-2.4,0.8-2.6,2.7
					c-0.2,1.9-0.4,5.8-0.8,6.2c-0.4,0.4-2.7,3-2.6,1.8c0.1-1.2,1.6-8.7-2.2-9.1c-3.6-0.4-4.8,2.8-5.2,5.9c-0.3,3.1,0.4,7,1.2,8.3
					c0,0-8.9-13.8-3.8-27.4c5.3-14.1,27.9-11.5,32.3-9.6c2.4,1.1,9.6,3.5,10.2,9c0.3,2.6-1.8,3.2-3,3.1
					C98.8,24.5,86.8,22.2,82.4,23.4z"/>
			</g>
			<g>
				<path class="st12" d="M87.5,24.5c-6.9,1.6-10,3.8-12.2,5.2c-2.9,1.9-10.7,5.8-19,3.3c0,0,6-0.7,9.7-5.1
					C69.6,23.6,84.6,22.1,87.5,24.5z"/>
			</g>
			<g>
				<path class="st19" d="M93,31.8c8,0.3,8.1-4.1,8.2-4.6c0.1-0.5-0.1-5.4-11-6.6c-14.4-1.6-23.7,8.5-29.9,6.3c0,0,6,3.5,14.3,1.4
					c8.4-2.1,8.5-3,15.3-2.2c4.8,0.5,5.9,2.8,5.7,3.8C95.4,31.3,93,31.8,93,31.8z"/>
			</g>
		</g>
		<g>
			<path class="st20" d="M80.6,43c0.5,0.1,0.9,0.3,1.4,0.4c0,0,0,0,0,0c4.4,1.4,5.5,2.9,6.5,3c1,0.1,2.4-1,7-1.5c0,0,0,0,0,0
				c0.5,0,0.9-0.1,1.4-0.1c5.7-0.3,8.3,1.9,8.3,1.9L105,49c0,0-0.2,0.2-0.6,0.5c-0.3,0.3-0.6,0.7-0.7,1.2c-0.4,1.7-1.2,3.7-2.4,5.2
				c-1.1,1.4-3,1.5-4.4,1.4c0,0,0,0,0,0c-1.8-0.2-3.5-0.9-4.2-1.5c-1.5-1.2-1.9-3.1-2.1-5.6c-0.1-0.3-0.2-0.5-0.3-0.7
				c-0.8-1-1.9-1.1-1.9-1.1s-1.2-0.2-2.1,0.6c-0.2,0.2-0.3,0.4-0.5,0.6c-0.7,2.4-1.6,4.1-3.3,5c-0.8,0.4-2.6,0.7-4.4,0.5
				c-1.4-0.2-3.2-0.7-4-2.3c-0.9-1.8-1.2-3.9-1.2-5.7c0-0.5-0.1-0.9-0.4-1.3c-0.3-0.4-0.5-0.6-0.5-0.6l0.3-2.3
				C72.1,43.1,75.1,41.5,80.6,43z M91.2,49.3c0.1,2.8,0.5,4.7,1.9,6c0.5,0.4,2.1,1.1,3.8,1.3c1.2,0.1,2.9,0.1,3.8-1.1
				c2.1-2.6,2.7-6.2,2.6-7.6c0-0.7-0.8-1.9-3.8-2.2c-0.5-0.1-1.1-0.1-1.7-0.1c-3.2,0-5.1,0.4-5.9,1.3C91.4,47.5,91.2,48.2,91.2,49.3
				z M74.6,52.6c0.7,1.3,2.3,1.8,3.5,1.9c1.8,0.2,3.4-0.1,4-0.4c1.7-0.9,2.4-2.6,3.2-5.4c0.3-1.1,0.2-1.9-0.2-2.5
				c-0.7-1.1-2.4-1.9-5.5-2.6c-0.6-0.1-1.2-0.2-1.7-0.3c-3-0.3-4.1,0.7-4.2,1.3C73.3,45.9,73.1,49.6,74.6,52.6z"/>
		</g>
		<g>
			<path class="st20" d="M59.3,45.7L59.3,45.7c0,0,0.1-0.3,0.3-0.7c0.2-0.4,0.4-0.9,0.6-1.5c0.1-0.3,0.3-0.5,0.4-0.8
				c0.1-0.1,0.2-0.2,0.3-0.4c0.1-0.1,0.2-0.2,0.3-0.3c0.1-0.1,0.2-0.1,0.4-0.2c0.1,0,0.3,0,0.3-0.1c0,0,0.1,0,0.1,0l0,0l10,1.1
				c-0.1,0.8-0.1,1.2-0.2,1.5c0,0.1,0,0.2,0,0.2c0,0.1,0,0.3-0.1,0.6L71,45.2c-1.2-0.1-2.4-1.9-3.9-2.1l-4.9-0.5c0,0-0.1,0-0.2,0
				c0,0-0.1,0-0.1,0c0,0-0.1,0.1-0.2,0.1c-0.2,0.2-0.5,0.7-0.6,1.2c-0.2,0.5-0.3,1.1-0.5,1.5c-0.1,0.4-0.2,0.7-0.2,0.7
				c0,0,0,0,0,0.1c-0.1,0.3-0.5,0.4-0.8,0.3C59.3,46.4,59.2,46,59.3,45.7z"/>
		</g>
		<g>
			<path class="st14" d="M63.2,41.2c1.7-0.2,3.1,0.9,3.2,2.8c0.1,2.4-1.4,2.4-1.4,4.6c0,1.3,0.5,1.9,0.6,3.2c0,1.2-0.4,2.5-1.5,2.7
				c-1.8,0.2-3.8-3.1-4.1-6.1C59.5,45.2,60.3,41.5,63.2,41.2z"/>
		</g>
	</g>
	<g>
		<g>
			<path class="st21" d="M84,86.1c0.7,6.2,0.2,12.8-0.5,19l-6.6,59.6l-11.8-1.3l6.6-59.6c0.8-7.4,0.6-12.7-0.5-16.8
				c1.1,0.3,2.2,0.5,3.4,0.6C78.8,88.1,81.9,87.3,84,86.1z"/>
		</g>
		<g>
			<path class="st5" d="M75,84.4c4.2,0.5,6.9-0.5,8.5-1.8c0.2,1.1,0.4,2.3,0.5,3.5c-2.1,1.2-5.1,1.9-9.3,1.5
				c-1.2-0.1-2.3-0.3-3.4-0.6c-0.3-1.4-0.8-2.6-1.2-3.7C71.5,83.8,73.1,84.2,75,84.4z"/>
		</g>
		<g>
			
				<rect x="69.6" y="156.6" transform="matrix(0.1103 -0.9939 0.9939 0.1103 -98.2615 215.356)" class="st5" width="3.1" height="11.9"/>
		</g>
		<g>
			<path class="st1" d="M41.1,81L41.1,81l0.1-0.2c0.5-1.1,1.1-2.2,2.4-3c4.1-2.8,11.5-3.5,17.6-3.4c0,0.2,0,0.5,0.1,0.7
				c0.8,2.2,3.1,5.8,7.8,7.9c0.5,0.2,1,0.7,1.2,1.2c1.7,4.5,2.4,10.4,1.3,19.7l-6.7,60c-0.1,0.5-0.5,0.9-1,0.8l-4.4-0.5
				c-9.4-1-14-5.9-15.5-8.1c-0.4-0.6-0.6-1.4-0.5-2.1c0.5-2.5,1.8-7.4,3.6-12.5c2.1-6,3.9-20.9,2.5-26.4c-0.4-1.5-1.2-4.4-1.8-6.2
				c-1.9-5.8-2.8-11-2.8-15.4c0-2.5-1-4.8-2.7-6.6c-0.5-0.6-0.9-1.2-1.2-1.9C40.7,83.7,40.7,82.3,41.1,81z"/>
		</g>
		<g>
			<path class="st22" d="M43.3,78c0.1-0.1,0.2-0.2,0.4-0.3c4.1-2.8,11.5-3.5,17.6-3.4c0,0.2,0,0.5,0.1,0.7c0.8,2.2,3.1,5.8,7.8,7.9
				c0.6,0.3,1,0.7,1.2,1.3c1.4,3.6,2,8.1,1.7,14.6c-1.2-0.1-2-0.2-2-0.2c-3.6-0.4-14.6-2.4-19-9.6C47.4,82.7,46.6,77.9,43.3,78z"/>
		</g>
		<g>
			<path class="st1" d="M85.5,80.4c0.2-0.3,0.2-0.8,0.1-1.1c-0.1-0.5-0.4-1.3-0.7-2.2c8.1,2,13,4.9,14.6,8.7
				c0.4,0.9,0.4,1.5,0.4,1.8c0,0.4,0,0.9,0,1.3l0,0c-0.1,1.3-0.8,2.6-2.4,5.1c-1.6,2.5-2.3,7.7-2.4,9.2l0,0
				c-0.7,6.4-2.2,14.5-4.7,21.5c-3.3,9.1-4.6,19.1-3.7,28.7c0.2,2.3-0.2,5.9-0.3,7c0,0.2-0.1,0.5-0.2,0.7c-1.7,4.2-5.9,5-8.1,5
				c-0.1,0-0.3,0-0.4,0c-0.5,0-0.9-0.5-0.8-1l6.7-60c0.8-7.4,1.3-15.2,0-22.5C84.5,81.9,85.1,81,85.5,80.4z"/>
		</g>
		<g>
			<path class="st22" d="M85.5,80.4c0.2-0.3,0.2-0.8,0.1-1.1c-0.1-0.5-0.4-1.3-0.7-2.2c8.1,2,13,4.9,14.6,8.7c0,0,0,0.1,0,0.1
				c0.3,2.3,0,4.8-2.4,8.6c-3.3,5.3-10.3,5.9-13.1,5.6c0,0,0,0-0.1,0c0.4-5.8,0.5-11.8-0.5-17.4C84.5,81.9,85.1,81,85.5,80.4z"/>
		</g>
		<g>
			<path class="st8" d="M58,123.7c-0.6,5.2-2.9,26-4.3,38.9c-5.5-1.9-8.4-5.1-9.6-6.7c-0.4-0.6-0.6-1.4-0.5-2.1
				c0.5-2.5,1.8-7.4,3.6-12.5c2.1-6,3.9-20.9,2.5-26.4c-0.4-1.5-1.2-4.4-1.8-6.2c-0.2-0.6-0.4-1.2-0.6-1.8
				C52.2,108.9,58.9,116.1,58,123.7z"/>
		</g>
		<g>
			<path class="st8" d="M90.4,124.5c-3.3,9.1-4.6,19.1-3.7,28.7c0.2,2.3-0.2,5.9-0.3,7.1c0,0.2-0.1,0.5-0.2,0.7
				c-0.8,2.1-2.3,3.4-3.8,4.1c1.2-10.8,2.8-25.7,3.5-31.9c1-9.3,4.2-16.3,7.7-20.7C92.8,116.5,91.7,120.7,90.4,124.5z"/>
		</g>
		<g>
			<path class="st22" d="M77.9,160.6c1.7,0.2,6.8-0.1,8.8-4.7c-0.1,1.9-0.3,3.8-0.3,4.6c0,0.2-0.1,0.5-0.2,0.7c-1.7,4.2-5.9,5-8.1,5
				c-0.1,0-0.3,0-0.4,0c-0.5,0-0.9-0.5-0.8-1l0.5-4.6L77.9,160.6z"/>
		</g>
		<g>
			<path class="st22" d="M44.1,156.1c-0.4-0.6-0.6-1.4-0.5-2.1c0.2-1.3,0.7-3.1,1.3-5.3c1.4,2.8,5.4,8.8,14.8,9.8l5.8,0.6l-0.5,4.6
				c-0.1,0.5-0.5,0.9-1,0.8l-4.4-0.5C50.2,163.1,45.7,158.2,44.1,156.1z"/>
		</g>
		<g>
			<path class="st23" d="M77.7,166.1c-0.5,0-0.9-0.5-0.8-1l6.7-60c0.8-7.4,1.3-15.2,0-22.5c0.5-0.4,0.9-0.8,1.2-1.1
				c1.5,7.6,1.1,16,0.2,23.8l-6.8,60.8C78,166.2,77.9,166.1,77.7,166.1z"/>
		</g>
		<g>
			<path class="st23" d="M69.2,82.9c0.5,0.2,0.9,0.7,1.2,1.2c1.7,4.5,2.4,10.4,1.3,19.7l-6.7,60c-0.1,0.5-0.5,0.9-1,0.8l-0.5-0.1
				l6.8-60.9c1.1-10.2,0.1-16.6-2.1-21.3C68.5,82.6,68.9,82.8,69.2,82.9z"/>
		</g>
		<g>
			<path class="st1" d="M68.8,77.9c0,0.9-0.5,4.3-0.6,4.6c-4-2.1-6.1-5.4-6.9-7.4c-0.2-0.4-0.1-0.9,0.2-1.3c1-1.4,3.5-4.6,4.2-5.3
				C64.3,69.9,68.7,75.7,68.8,77.9z"/>
		</g>
		<g>
			<path class="st1" d="M78.9,80.2c1.3-0.5,2.8-1.4,3.7-3c1.1-2.2,1.2-3.6,0.7-4.3c0.1,0.1,0.2,0.3,0.2,0.4c0.9,2.1,1.7,4.8,2.1,6
				c0.3,1.1,0.1,2.6-1.3,4.2c-1.2,1.4-2.7,2.1-4,2.5c-1.1,0.2-2.2-0.8-2.6-2.4C77.3,81.9,77.8,80.4,78.9,80.2z"/>
		</g>
		<g>
			<path class="st23" d="M78.9,83.2c0.2,1,1,1.6,1.8,1.4c0.8-0.2,1.2-1.1,1-2.1c-0.2-1-1-1.6-1.8-1.4C79.1,81.3,78.7,82.3,78.9,83.2
				z"/>
		</g>
	</g>
	<g>
		<g>
			<path class="st0" d="M7.2,158.1c2.3,0.3,4.3-1.4,4.5-3.6l3.8-34.2c0.6-5.1,3.1-9.6,7-12.8L49.4,86c1.8-1.4,2.1-4,0.6-5.8
				c-1.4-1.8-4-2.1-5.8-0.6l-26.8,21.5c-5.7,4.5-9.3,11-10.1,18.3l-3.8,34.2C3.3,155.8,4.9,157.8,7.2,158.1z"/>
		</g>
		<g>
			<path class="st0" d="M1.4,164.8c0.3,0,0.6-0.1,0.9-0.2c0.1,0,0.2-0.1,0.2,0c0.1,0,0.1,0.1,0.2,0.2c0.2,0.7,0.8,1.3,1.6,1.3
				c0.5,0,0.9-0.1,1.2-0.4c0.1-0.1,0.2-0.1,0.2,0c0.1,0,0.1,0.1,0.2,0.2c0.2,0.9,0.9,1.5,1.8,1.5c0.8,0.1,1.6-0.4,2-1.3
				c0-0.1,0.1-0.1,0.2-0.2c0.1,0,0.2,0,0.2,0.1c0.3,0.4,0.7,0.6,1.2,0.7c1,0.1,1.8-0.6,1.8-1.6c0,0,0.1-1.7,0.2-2.4
				c0-0.1,0.1-0.3,0.3-0.2c1.9,0.1,2.6-2.3,2.2-5.3c-0.5-3.5-3.4-9.6-7.7-9.7c-3.6-0.1-7.1,3.2-7.6,8.1c-0.1,0.9,0-0.7-0.5,7.7
				C0,164.1,0.6,164.8,1.4,164.8z"/>
		</g>
		<g>
			<path class="st1" d="M5.5,119.2c0.9-7.7,4.7-14.6,10.7-19.5l26.8-21.5c1.2-1,2.8-1.4,4.4-1.3c1.6,0.2,3,1,4,2.2s1.4,2.8,1.3,4.4
				c-0.2,1.6-1,3-2.2,4l-26.8,21.5c-3.6,2.9-5.8,7-6.3,11.5l-2.5,23c-0.1,0.5-0.5,0.9-1,0.8l-10-1.1c-0.5-0.1-0.9-0.5-0.8-1
				L5.5,119.2z"/>
		</g>
		<g>
			<path class="st2" d="M3.9,148.4l8.6,1c0.4,0,0.7-0.2,0.8-0.6l0.5-4.5l-10-1.1l-0.5,4.5C3.2,148,3.5,148.4,3.9,148.4z"/>
		</g>
	</g>
	<g>
		<path class="st22" d="M43.6,77.8c3-2.1,7.9-3,12.7-3.3c0.5,0,1,0.2,1.3,0.5c0.3,0.4,0.5,0.8,0.4,1.3L56.5,91
			c-0.1,0.6-0.5,1.2-1.1,1.4c-0.6,0.2-1.2,0.1-1.7-0.3c-1-0.9-1.9-1.9-2.6-3.1c-3.7-6.2-4.5-11.1-7.9-10.9
			C43.4,77.9,43.5,77.9,43.6,77.8z"/>
	</g>
</g>
</svg>
