<?xml version="1.0" encoding="utf-8"?>
<!-- Generator: Adobe Illustrator 23.0.1, SVG Export Plug-In . SVG Version: 6.00 Build 0)  -->
<svg version="1.1" id="圖層_1" xmlns="http://www.w3.org/2000/svg" xmlns:xlink="http://www.w3.org/1999/xlink" x="0px" y="0px"
	 viewBox="0 0 363 230" style="enable-background:new 0 0 363 230;" xml:space="preserve">
<style type="text/css">
	.st0{fill:#D69700;}
	.st1{fill:#1E0F09;}
</style>
<g>
	<path class="st0" d="M29.6,9.8c-1,1.6-2,3.3-3.2,4.9V46h-4.8V20.8c-4.6,5.1-10.2,9.7-16.4,13c-0.7-1.2-2.1-3-3.1-4
		c9.1-4.5,17-12.1,21.6-20H3.5V5.2h41.1v4.6H29.6z M30,17.1c5.4,3.6,12.7,9,16.2,12.7l-3.7,3.5c-3.2-3.7-10.3-9.4-15.8-13.3L30,17.1
		z"/>
	<path class="st0" d="M62.6,25.2c-0.1,0.9-0.2,1.8-0.4,2.7c2.4,2.4,7.9,8.6,9.3,10.2L68.4,42c-1.6-2.4-4.8-6.5-7.3-9.5
		c-1.6,4.9-4.4,9.7-9.5,13.4c-0.6-1-2.3-2.7-3.2-3.4c6.8-4.8,9-11.3,9.7-17.3H49V21h9.4v-1.4v-7.2h-2.9c-1,2.6-2.3,5-3.6,7
		c-0.8-0.8-2.6-2-3.6-2.6C51,13.2,52.9,7.6,54,2l4.3,0.8c-0.4,1.8-0.8,3.6-1.3,5.4h13.1v4.2h-7.2v7.2c0,0.4,0,0.9,0,1.4h8.5v4.2
		H62.6z M90.4,6.1v38h-4.5V41h-8.7v3.6h-4.3V6.1H90.4z M85.9,36.9V10.3h-8.7v26.5H85.9z"/>
	<path class="st0" d="M115.9,10.2l1.9-0.1l0,4.2l-1.9,0.1c0,5.7-0.7,13-4.8,19.8c2.4,2.1,4.5,4.1,5.9,5.8l-3.3,3.4
		c-1.3-1.6-3.2-3.5-5.3-5.5c-2.4,2.9-5.7,5.7-9.9,8.1c-0.7-1.1-2.2-2.6-3.2-3.4c4.3-2.3,7.5-4.9,9.8-7.8c-2.7-2.4-5.6-4.8-8.1-6.8
		c1.1-3.4,2.1-7.9,3-12.6l-4.3,0.2l-0.5-4.4l5.6-0.2c0.5-3.1,0.9-6,1.1-8.8l4.7,0.2c-0.3,2.6-0.7,5.4-1.2,8.3l6-0.3V8.1h4.4V10.2z
		 M111.5,14.7c-2.4,0.1-4.6,0.3-6.8,0.4c-0.8,4.1-1.7,8.2-2.6,11.6c1.8,1.3,3.6,2.9,5.5,4.4C110.9,25.4,111.5,19.4,111.5,14.7z
		 M137.1,7v37.1h-4.4v-2.9h-9.2v3.6h-4.2V7H137.1z M132.7,37V11.2h-9.2V37H132.7z"/>
	<path class="st0" d="M157.2,3.3c-1.1,3.2-2.5,6.3-4.1,9.3V46h-4.4V19.8c-1.2,1.8-2.6,3.5-4,5c-0.4-1.1-1.7-3.5-2.4-4.6
		c4.3-4.4,8.3-11.3,10.8-18.2L157.2,3.3z M186.5,10.7h-3.2v29.7c0,2.8-0.7,4.1-2.5,4.8c-1.9,0.7-5.1,0.9-9.6,0.8
		c-0.2-1.2-0.9-3.3-1.5-4.6c3.5,0.1,6.9,0.1,7.9,0.1c1,0,1.3-0.3,1.3-1.2V10.7H157V6.4h29.5V10.7z M162.3,33.5v3.3h-4.2v-20h15.3
		v16.8H162.3z M162.3,20.6v9h7v-9H162.3z"/>
	<path class="st0" d="M201.3,25c-0.8,4.1-2,8.4-3.7,11.9c1,0.5,2,1.3,3.7,2.4c3.3,2,7.7,2.3,13.3,2.3c5.9,0,14-0.4,19.3-1.1
		c-0.5,1.2-1.2,3.4-1.3,4.6c-3.7,0.2-12.5,0.5-18.1,0.5c-6.3,0-10.4-0.5-13.9-2.5c-2-1.1-3.7-2.8-4.8-2.8c-1.1,0-2.7,3.1-4,6
		l-3.1-4.1c1.3-1.7,2.5-3.1,3.7-4.2l0,0c1.9-2.6,3.4-6.4,4.2-10.1h-6c1.2-2.8,2.6-6.7,3.8-10.5h-4.8v-4h10.4
		c-1.1,3.4-2.4,7.3-3.6,10.7h1.7l0.7-0.1L201.3,25z M195.1,11.5c-0.7-2.2-2-5.6-2.9-8.2l4-1.1c1,2.5,2.3,5.9,3,7.9L195.1,11.5z
		 M215.2,33.8c-2.5,2.4-6.4,4.7-9.6,6.2c-0.8-0.8-2.3-2.1-3.3-2.7c3.3-1.2,6.7-2.9,8.9-4.7h-9.6v-3.4h8v-3.8h-6.1V22h6.1v-3h4.1v3
		h6.7v-3h4.1v3h6.3v3.4h-6.3v3.8h8.3v3.4h-10.3c3.4,1.6,7,3.7,9.1,5.3l-3.9,1.9c-2-1.6-5.4-3.8-8.5-5.5l2.5-1.8h-9.9L215.2,33.8z
		 M215.6,13.9c-0.3,1-0.6,2.4-0.8,3.2c-9.4,1.6-10.9,1.9-11.7,2.4c-0.2-0.9-1-2.6-1.5-3.4c0.6-0.3,1.3-1.1,1.3-2.9V3.7h13.1v8.5
		h-9.5v3L215.6,13.9z M206.5,6.6v2.7h5.8V6.6H206.5z M213.6,29.2h6.7v-3.8h-6.7V29.2z M222.7,18.2c-3.7,0-4.6-1.4-4.6-4.9V3.7h13.3
		v8.5h-9.6v1.1c0,1.3,0.1,1.8,1.2,1.8h5.6c0.9,0,2.4-0.1,3.1-0.3c0.1,1,0.2,2.3,0.3,3.1c-0.7,0.2-2,0.3-3.3,0.3H222.7z M221.7,6.6
		v2.7h5.8V6.6H221.7z"/>
	<path class="st0" d="M270.2,28.4c2.7,2.8,6.5,5.2,10.2,6.5c-1,0.8-2.3,2.4-2.9,3.5c-4.6-2-9.2-5.8-12.1-10h-14.3
		c-1.2,1.7-2.6,3.4-4.2,4.8h8.8v-3.6h4.5v3.6h9.5v3.6h-9.5V41h16.1v3.7h-36.1V41h15.5v-4.3h-9.2v-3.2c-2.4,2.2-5.2,4-7.9,5.3
		c-0.6-1.1-1.9-2.6-2.9-3.4c3.8-1.4,7.6-4.1,10.4-7.1h-9.9v-3.7h9.3V9.8h-7V6.2h7V2h4.5v4.2h16.3V2.1h4.6v4.1h6.9v3.6h-6.9v14.8h9
		v3.7H270.2z M249.9,9.8v2.7h16.3V9.8H249.9z M249.9,18.5h16.3v-2.7h-16.3V18.5z M249.9,24.7h16.3v-2.9h-16.3V24.7z"/>
	<path class="st0" d="M307.1,20.2V26h16.1v4h-16.1v10.7h18.4v4.1h-41.2v-4.1h18.1V30h-15.8v-4h15.8v-5.8h-10v-2.5
		c-2.3,1.2-4.6,2.2-7,3.1c-0.6-1.3-1.9-3-3-4.1c8.9-2.7,17.6-8,22.2-15.1l4.2,1.9c-0.4,0.6-0.8,1.2-1.2,1.8
		c4.7,4.7,12.8,9.3,20,11.4c-1,0.9-2.4,2.7-3.1,3.9c-2.4-0.9-4.8-2-7.2-3.3v2.9H307.1z M293.8,30.5c1.8,2.5,3.7,6,4.5,8.3l-3.9,1.7
		c-0.7-2.3-2.5-5.9-4.3-8.5L293.8,30.5z M315,16c-3.7-2.3-7.3-4.9-10.2-7.8c-2.8,3-6,5.6-9.6,7.8H315z M310.7,39.1
		c1.6-2.3,3.6-6,4.7-8.6l4.3,1.6c-1.8,3-3.9,6.3-5.6,8.4L310.7,39.1z"/>
	<path class="st0" d="M358.1,15.5c0-3.1-2.4-5.2-6.8-5.2c-3.1,0-6,1.3-8.4,4.1l-3.2-2.9c3.1-3.5,7.1-5.7,12.2-5.7
		c6.8,0,11.5,3.4,11.5,9.3c0,7.2-11,8.4-10,15.4h-4.9C347.2,22.5,358.1,20.5,358.1,15.5z M351,34.2c2.4,0,4.4,1.6,4.4,4.2
		c0,2.5-1.9,4.2-4.4,4.2c-2.4,0-4.3-1.7-4.3-4.2C346.7,35.8,348.6,34.2,351,34.2z"/>
</g>
<g>
	<path class="st1" d="M46.3,67.1c0,15.4,2.3,43.5,30.1,59.8c-2.6,2-7.2,7.1-9.1,10c-14.8-8.9-23.1-22.6-27.5-36.2
		C33.9,117,24.6,129.3,12.1,137c-2.1-2.4-7.4-7.2-10.4-9.3c15.8-7.8,24.9-22.6,28.9-42.4l5.6,1c-0.5-2.7-0.8-5.2-1-7.6H17.9V67.1
		H46.3z"/>
	<path class="st1" d="M112.8,97H93v40.1H81.7V65.8h31V97z M93,74.9v2.5h9.2v-2.5H93z M102.2,88.1v-2.8H93v2.8H102.2z M148.9,123.9
		c0,6.2-1.2,9.4-5.1,11.2c-3.8,1.9-9.3,2.1-17.2,2.1c-0.5-3.2-2.3-8.6-4-11.6c4.7,0.4,10.8,0.3,12.5,0.3c1.6,0,2.3-0.5,2.3-2.1V97.3
		h-20.4V65.8h31.8V123.9z M127.8,74.9v2.5h9.6v-2.5H127.8z M137.4,88.3v-3h-9.6v3H137.4z"/>
	<path class="st1" d="M183.5,106.2c-2.7,0.7-5.6,1.5-8.4,2.2v16.6c0,5.2-0.9,8-3.9,9.8c-3,1.7-7,2-12.7,2c-0.4-2.9-1.8-7.6-3.2-10.5
		c2.7,0.1,6,0.1,7,0.1c1.1,0,1.5-0.4,1.5-1.5v-13.7L156,113l-2.7-11.1c3-0.5,6.6-1.3,10.4-2.1V88h-9V77.1h9V63H175v14.1h7.1V88H175
		v9.3c2.3-0.5,4.8-1.2,7.1-1.7L183.5,106.2z M199.8,96.6c-11.9,0-15.4-3.7-15.4-14.1V62.9h11.2v7.9h29.6v9.6h-29.6v2.4
		c0,3,0.6,4.2,4.1,4.2h16.1c3.4,0,8.4-0.2,10.8-0.8c0.3,2.9,0.7,7,1.1,9.6c-2.2,0.6-7.3,0.8-11.4,0.8H199.8z M185.3,100.5h38.8v36.3
		h-11.2v-2.9H196v3.3h-10.7V100.5z M196,109.7v3.2h16.9v-3.2H196z M212.9,124.9v-3.4H196v3.4H212.9z"/>
	<path class="st1" d="M253.3,112.5c-0.6-1.9-1.6-4.4-2.7-6.9v31.6h-10.2v-28.6c-1.8,5.7-3.8,10.9-6.1,14.7c-1-3.4-3.4-8.7-5.1-11.8
		c4.1-5.6,7.8-15.8,9.8-23.7h-7.7V77.3h9V63h10.2v14.3h7.1v10.5h-7.1v3.1c2,2.7,8,11.9,9.2,14.1L253.3,112.5z M273.6,121
		c-2.7,5.5-6.9,11.4-10.8,15c-1.9-1.7-5.9-4.6-8.3-6c3.7-3,7.3-7.5,9.3-11.8L273.6,121z M270.8,74.3h-12.9v-8.8h45v8.8h-13.8v2.5
		h12.3v19.6h-42.2V76.8h11.5V74.3z M285.2,117.3V137h-10.1v-19.7h-17.2v-8.7h45v8.7H285.2z M262.4,106.7v-8.4h36.2v8.4H262.4z
		 M268.3,88.5h2.5v-3.8h-2.5V88.5z M281.3,74.3h-2.6v2.5h2.6V74.3z M278.7,88.5h2.6v-3.8h-2.6V88.5z M294.8,118.4
		c3.5,3.7,7.3,8.5,9.3,11.9l-8.7,5c-1.6-3.4-5.5-8.8-8.9-12.6L294.8,118.4z M289.1,84.7v3.8h2.7v-3.8H289.1z"/>
	<path class="st1" d="M74.3,160.2V171H32.8c-2.5,5.3-5.5,10.5-9,15.2V224H12.3v-25.4c-1.8,1.6-3.7,3-5.8,4.4
		c-1.2-3.2-3.7-8.3-5.4-11.1c7.8-4.9,14-12.5,18.6-20.9H4v-10.8h20.8c1.3-3.4,2.3-6.9,3.2-10.2l11.9,2.8c-0.8,2.5-1.6,4.9-2.5,7.4
		H74.3z M56.6,211.6h17.3v10.5H27.1v-10.5h17.9v-15.4h-15v-10.5h15V174h11.5v11.8h14.4v10.5H56.6V211.6z"/>
	<path class="st1" d="M102.2,187.3c-1.1,6.9-3,13.7-5.9,19.5c0.9,0.5,2.1,1.2,3.4,2c5.3,3,13,3.4,21.8,3.4c8,0,23.1-0.9,32-2.3
		c-1.3,3.1-3.3,8.8-3.4,11.9c-6.6,0.5-20,0.9-29.1,0.9c-10.2,0-16.8-0.8-22.5-3.7c-3.3-1.7-5.9-3.9-7.5-3.9c-1.9,0-4.9,5.2-6.9,9.1
		L76.8,213c2.4-2.6,5.2-4.7,7.8-6.1c2.4-3.5,4.4-7.9,5.6-12.2H79.4c1.9-4.5,4-10.6,5.9-16.6h-6.6V168h20.7c-1.7,5.5-3.7,11.5-5.6,17
		H94l1.6-0.3L102.2,187.3z M86.8,166.8c-1.2-3.6-3.9-9.5-5.6-13.9l9.8-3.6c1.9,4.3,4.4,9.7,5.9,13.2L86.8,166.8z M150.9,166.9h-50.2
		v-8.6h19.7c-0.7-2-1.6-4.2-2.3-6l11-3.2c1.3,2.6,3,6.2,3.8,8.4l-2.5,0.8h20.6V166.9z M105.1,188.9h40.1v20.5h-40.1V188.9z
		 M144.3,176.6H106v-7.9h38.3V176.6z M106,178.7h38.3v7.9H106V178.7z M115.8,201.5h18.3v-4.8h-18.3V201.5z"/>
	<path class="st1" d="M227.3,212.5v9.9h-44.6v-9.9h16.4v-6h-13.7v-9.8h13.7v-4.6h-14.4v-6.9c-2.2,1.9-4.1,3.7-5.7,5.2
		c2.3,2.3,4.5,4.4,5.4,5.4l-5.8,8.8c-1.2-2.1-3.1-4.9-5.1-7.7v27.2h-10.1v-26.2c-2,2.1-4.1,4.1-6.1,5.7c-0.7-3.1-3.1-9.2-4.5-11.4
		c6.2-4.3,12.3-11.5,16.4-19.2h-13.9v-10.1h11.1c-1.4-2.7-3.4-6-5.1-8.5l8.1-5c2.3,3.2,5.1,7.3,6.6,10.1l-4.9,3.4h3.7l1.8-0.5
		l5.5,4.5c-2.2,6-5.1,12-8.6,17.6v0.6l0.6,0.6c1.9-2.3,4-5.3,5.1-7.5l5.5,5.1v-29.7h39.9v38.4h-15v4.6h15.5v9.8h-15.5v6H227.3z
		 M194.8,168.4h4.3v-5.3h-4.3V168.4z M199.1,182.6v-5.5h-4.3v5.5H199.1z M214,163.1h-4.4v5.3h4.4V163.1z M214,177.2h-4.4v5.5h4.4
		V177.2z"/>
	<path class="st1" d="M257.9,209.1c0-4.8,3.9-8.6,9.2-8.6s9.2,3.7,9.2,8.6c0,5-3.9,8.6-9.2,8.6S257.9,214.1,257.9,209.1z
		 M259.1,171.3l-0.5-12.9h17.1l-0.5,12.9l-3.2,24.6h-9.8L259.1,171.3z"/>
</g>
</svg>
