<?xml version="1.0" encoding="utf-8"?>
<!-- Generator: Adobe Illustrator 23.0.1, SVG Export Plug-In . SVG Version: 6.00 Build 0)  -->
<svg version="1.1" id="分離模式" xmlns="http://www.w3.org/2000/svg" xmlns:xlink="http://www.w3.org/1999/xlink" x="0px"
	 y="0px" viewBox="0 0 359.1 1401" style="enable-background:new 0 0 359.1 1401;" xml:space="preserve">
<style type="text/css">
	.st0{fill:#642930;}
	.st1{fill:#6E6284;}
	.st2{fill:#FFA898;}
	.st3{fill:#F48989;}
	.st4{fill:#4E2C42;}
	.st5{fill:#391A31;}
	.st6{fill:#9E4832;}
	.st7{fill:#853D29;}
	.st8{fill:#FFD79E;}
	.st9{fill:#695841;}
	.st10{fill:#877053;}
</style>
<g>
	<path class="st0" d="M173.2,1354.8c0,0,41.4,38.4,40.3,39c-1.1,0.6-61,0.1-61.1-0.8c-0.1-1,4.4-37.4,4.4-37.4L173.2,1354.8z"/>
	<path class="st0" d="M77.4,1355.9c0,0,6.4,24.3,11.5,31.2c5.1,6.9,9.4,11.7,7.3,12.7c-2.2,1-49.8,2.3-49.8-0.7s16.5-42.6,16.5-42.6
		L77.4,1355.9z"/>
	<path class="st1" d="M237.1,1038.5c0,0-19.9,156.7-32.4,207.5c-12.6,50.9-28.6,107.5-30.5,109.5c-1.9,1.9-17.9,0.5-17.4,0
		c0.5-0.5,22.8-306.6,20.3-336.1c-5.8,0-5.8,0-5.8,0s-76,284.3-93.5,337.1c0,0-15.5,3.9-15.5,0c0-3.9,54.2-367.4,58.6-408
		c4.4-40.7,10.2-191.8-0.7-217.2c-10.9-25.4-14.5-46.5,6.5-81.4c21.1-34.9,96.6,45,96.6,45L237.1,1038.5z"/>
	<path class="st2" d="M260,355.7c0,0,1.8-34.1,11.6-51.2c9.8-17.1,28-30.1,30.1-30.5c2.2-0.4,7.6-1.8,9.1-3.6c1.5-1.8,0-6.9,0-6.9
		s21.7-12.6,48.3-11.9c-6.8-14-36-20.3-49.6-3.1c-1-6.3,2.8-47.9,12.8-54c9.9-6.1-13.8-9.4-21.6,7.5c-7.7,17-8,43.6-8,43.6
		s-15.5-12.8-26.4-7.7c-10.9,5.1-6.4,14.8-6.4,14.8s-11.3,0-11.5,6.3c-0.2,6.3,3.6,9.4,3.6,9.4s-7.7,5.1-7.3,11.1s8.2,8.2,8.2,8.2
		s-27.4,62.3-33.7,92.8C213.1,410.9,260,355.7,260,355.7z"/>
	<path class="st3" d="M254.2,485.3c0,0,5.8-105.3,5.8-129.7c0-24.3-34.5-12-45.4,42.5c-10.9,54.5-10.2,78.8-10.2,78.8L254.2,485.3z"
		/>
	<path class="st4" d="M170.7,337c0,0-20.1-49.4-24-61.7c-3.9-12.3-6.1-28.3-7.7-29.1c-1.7-0.7-9.6-3.9-10.6-4.5
		c-1-0.6-34-29.9-34-29.9s-2.6-4.8-4.6-3.9c-1.9,1-1,6.1-1,6.1l-5.3,3.4c0,0-40.2,52.5-40,56.4c0.2,3.9,13.3,20.1,15.3,25.4
		c1.9,5.3,78.7,307.8,78.7,314.3c0,6.5-21.1,31.8-20.5,36.1c0.5,4.4,41.8,18.2,41.8,18.2L170.7,337z"/>
	<path class="st5" d="M123.8,423.2c0,0-33.2-36.6-33.9-36.3c-0.7,0.2,10.4,32.7,26.2,42.9c-6.8,10.4,23.2,32.9,23.2,32.9
		s13.6,133.7,11.4,138.8c-2.2,5.1-11.8,8.5-12.8,8.4c-1-0.1-10.9,22.9-10.9,22.9l32.7,37l29.5-66.8l-22.5-177.7L123.8,423.2z"/>
	<g>
		<path class="st2" d="M139.5,25.6c0,0,40.7,13.8,71.4,71.7s-65.4,86.2-65.4,86.2s-21.6,38.7-16,58.6c-17.2-4.8-35.1-30.3-35.1-30.3
			l9.6-45.8C104.1,166.1,98.3,28.8,139.5,25.6z"/>
		<g>
			<path class="st3" d="M194.6,92c-16.7-29.6-38.8-50.8-58.9-65.6c1.2-0.4,2.5-0.6,3.9-0.7c0,0,40.7,13.8,71.4,71.7
				c7.7,14.5,7.4,27.2,2.7,38C210.5,123.7,204.5,109.5,194.6,92z"/>
			<path class="st3" d="M129.5,242.1c-17.2-4.8-35.1-30.3-35.1-30.3l9.6-45.8c0,0-0.6-13.8-0.1-32.7c3.8,4,16.2,17.3,18.3,22.9
				c2.4,6.7-7.7,12.6-7.7,12.6s1.5,3.7,6.5,4.7c5.1,1,5.6-6.1,5.6-6.1s8,8.2,11.6,6.3c3.6-1.9-0.5-8.5,1.7-9.7
				c1.3-0.7,10.3,7.3,22.4,13.1c-9.7,4.2-16.8,6.3-16.8,6.3S124,222.2,129.5,242.1z"/>
		</g>
		<path class="st6" d="M212.1,111.4c0,0-25.4,22.1-36.1,55.7c-5.1,10.1-55.1-26.4-56.3-46.2c-1.2-19.8,27.5-86.1,33.3-91.7
			c5.8-5.7-18-20.8-41.8-26.4C87.5-2.9,64.7,1.5,64.1,3.4C63.6,5.3,77.8,14,77.8,14s-43.6-1-47,2.5s13.8,14.8,13.8,14.8
			S-0.5,41,0,46.8s13.4,12.7,13.4,12.7S8,62.3,7.6,64.6C7.2,66.9,22,81.5,22,81.5S7.3,92.2,9,98.7c1.7,6.5,36.3,21.2,36.3,21.2
			s-18.2,5.5-16.1,13.9c2.1,8.3,40.2,23.4,39.4,23.8c-0.8,0.4-22.4,21-15,24.4c7.4,3.4,34.8,3.3,36.7,1.7c1.9-1.5,3.4-9.9,3.4-9.9
			s8.7,8,10.6,6.1c2-1.9,1.8-6.7,1.8-6.7s6.4,16.3,10.7,16.7c4.4,0.3,9.9-6.3,9.9-6.3s96.1,65,109.2,49.7c13-15.3,7.5-82,0.6-92.9
			c-6.8-10.9-12-12.4-12-12.4S224,112.6,212.1,111.4z"/>
		<g>
			<path class="st7" d="M153.1,29.2c-0.4,0.4-1,1.3-1.7,2.4c-10.2-10.7-20.2-19.1-28.6-25.4C142.1,13.1,158,24.5,153.1,29.2z"/>
			<path class="st7" d="M82.2,167.9c0.9-0.8-13-15.4-8-24.9c5-9.5,25.7-14.5,25.7-14.5s8.1,26.8,15.2,26.9c1.3,7-9.7,11.2-9.7,11.2
				s0.8,3.9,5.7,5.7c4.9,1.8,6.5-5.1,6.5-5.1s6.6,9.4,10.5,8.1c3.9-1.3,0.9-8.4,3.2-9.3c2.3-0.8,20.5,24.1,43.7,26
				c21.3,1.8,45.9-9,27.6-70.9c5.4-6.2,9.4-9.7,9.4-9.7c11.8,1.2,12.5,16.7,12.5,16.7s5.2,1.4,12,12.4c6.8,10.9,12.4,77.6-0.6,92.9
				c-13,15.3-109.2-49.7-109.2-49.7s-5.5,6.6-9.9,6.3c-4.4-0.3-10.7-16.6-10.7-16.6s0.1,4.8-1.8,6.7c-2,1.9-10.6-6.1-10.6-6.1
				s-1.5,8.4-3.4,9.9c-1.9,1.5-29.3,1.7-36.7-1.7c-0.7-0.3-1.1-0.8-1.3-1.4C58.1,171.7,81.5,168.6,82.2,167.9z"/>
		</g>
		<path class="st2" d="M115.2,155.4c0,0-9.8-22.5-11-27.7c-1.1-5.2-23.4-6-23.9,17.1C79.9,167.9,110.3,171.9,115.2,155.4z"/>
		<path d="M168.2,83.1c3.2-0.3,7.2,2.4,9.7,4.3c2.9,2.1,4.7,5.2,4.2,8.8c-0.3,2.4-3.1,3.1-4.9,1.8c-1.9-1.3-4-2.4-6.1-3.4
			c-2.6-1.2-5.9-2.3-6.7-5.3C163.7,86.5,165,83.5,168.2,83.1z"/>
		<path class="st8" d="M208.8,160.6c1.2-2.7,3.2-7.1,6.6-7.1c0.9,0,1.4,0.5,1.7,1.1c0,0,0.1,0,0.1,0c1.4,2.7-0.9,6.4-1.8,9
			c-1.1,3-1.6,7.4-4.7,9.1c-1.6,0.9-3.2,0.5-4-1.2C205,168.1,207.4,163.7,208.8,160.6z"/>
		<path class="st3" d="M106.8,152.8c0,0-7.9-3-6.9-5.6c1-2.6,2.7-3.6,2.4-5.5c-0.2-1.9-2.2-13.6-10.1-8.2
			c-7.9,5.4-5.9,18.1,0.1,22.7C98.4,160.8,110.1,155.3,106.8,152.8z"/>
	</g>
	<path class="st9" d="M83.6,217.4c0,0,47,70.7,48.9,123.5l28,28.6l-15.4,69.3L157.5,611l-31.2-1.8c0,0,4.7,11.3,2.9,13.4
		c-1.8,2.2-8.7,2.5-5.4,7.3c3.3,4.7,32,20,32,20s0,191.8-2.9,247c-2.9,55.2-10.9,105.3-9.4,112.6c1.5,7.3,115.5,55.2,126.4,53
		c10.9-2.2,39.2-206.3,24.7-308c-14.5-101.7-56.7-238.3-56.7-238.3s-25.4-69.8-25.4-77c-0.1-7.2,6.5-23.6,5.8-28
		c-0.7-4.4-42.9-64.7-45-81c-7.3-1.1-22.9,0-26.9-8S121.2,250,88.9,214C86.5,213.7,83.6,217.4,83.6,217.4z"/>
	<path class="st2" d="M160.4,369.5c0,0,68.6,85,81.7,94.8c13.1,9.8,30.1,13.4,32,22.2c1.8,8.7-4.7,40.3-10.9,43.6
		c-6.2,3.3-17.8,2.5-31.6-5.1c-13.8-7.6-107.9-99.5-107.9-101.7C123.8,421.1,144.5,378.6,160.4,369.5z"/>
	<path class="st10" d="M185.6,631.7c-0.5-3.3,4.5-4.8,5.1-1.4c2.9,16,6.4,31.4,6,47.7c-0.4,16.4-1.2,32.6-0.2,49
		c1.1,18,3.6,35.8,7.5,53.4c3.3,15,7,28.9,6.5,44.4c-0.4,15.6-2.8,31-3.4,46.6c-0.7,18.1-0.1,36.2,0.2,54.3
		c0.2,13.1,0.7,26.1,1,39.2c0.2,8.7,0.9,19.9-4.7,27.2c-4.2,5.4-13.2,0.8-9.5-5.6c4.9-8.5,2.8-21.2,2.3-30.7
		c-0.7-13.8-0.6-27.7-0.8-41.6c-0.3-16.2-0.5-32.4,0.3-48.6c0.8-15.2,3.3-30.5,3.3-45.7c0-16.1-5.1-31.3-7.9-47
		c-2.4-13.4-4-27-4.6-40.7c-0.8-15.5-0.5-31.2,1.2-46.7C189.9,666.8,188.5,650.5,185.6,631.7z"/>
	<path class="st10" d="M232.7,785.9c-1.5-31.4-4.1-62.8-9.7-93.8c-0.9-5.1,6.8-7.3,7.8-2.1c5.9,29.8,10,59.9,11.8,90.3
		c0.9,15,1.5,30,1.8,45c0.3,14.9,2.2,31.3-1.9,45.8c-0.8,3-5.2,3-6.1,0c-3.6-12.9-2.3-26.9-2.5-40.2
		C233.7,815.9,233.4,800.9,232.7,785.9z"/>
	<path class="st10" d="M247,931.9c5.5-9.5,5.2-24.8,6.5-35.5c1.6-14,1.3-28.7,4.7-42.4c0.8-3.3,5.1-2.2,5.4,0.7
		c2.1,17.3-1.3,35.9-3.9,53.1c-1.3,8.7-1.6,21-8.7,27.2C248.9,936.9,245.4,934.5,247,931.9z"/>
	<path class="st10" d="M233.2,591.3c5.3,19.2,12.5,39.2,14.7,59.1c0.3,2.6-3.9,3.7-4.9,1.3c-8.2-18.2-11.4-39.3-16.6-58.5
		C225.2,588.8,232,586.9,233.2,591.3z"/>
	<path class="st9" d="M135.4,624.8c0,0-21.7-21.4-30-24.1c-8.4-2.7-25.3,7.4-22.9,14.9c2.4,7.5,32.7,9.9,32.7,9.9
		s-21.6,8.3-16.1,15.5C104.5,648.3,135.4,624.8,135.4,624.8z"/>
	<path class="st6" d="M143.4,72.6c0.4-2.1,1.8-4.2,2.8-6c1.1-1.9,2.2-4,4.6-4.3c1.6-0.2,3.3,0.1,4.1,1.7c1.3,2.3,0.6,4.3-0.3,6.6
		c-0.9,2.3-1.6,4.8-3.5,6.4C147.5,80.2,142.6,77.1,143.4,72.6z"/>
</g>
</svg>
