<?xml version="1.0" encoding="utf-8"?>
<!-- Generator: Adobe Illustrator 23.0.1, SVG Export Plug-In . SVG Version: 6.00 Build 0)  -->
<svg version="1.1" id="分離模式" xmlns="http://www.w3.org/2000/svg" xmlns:xlink="http://www.w3.org/1999/xlink" x="0px"
	 y="0px" viewBox="0 0 294.2 786.3" style="enable-background:new 0 0 294.2 786.3;" xml:space="preserve">
<style type="text/css">
	.st0{fill:#94897D;}
	.st1{opacity:0.8;fill:#B4A596;}
	.st2{opacity:0.4;fill:#B4A596;}
	.st3{opacity:0.9;fill:#94897D;}
	.st4{opacity:0.4;fill:#94897D;}
	.st5{opacity:0.3;}
	.st6{opacity:0.9;}
	.st7{fill:#F1F2F2;}
	.st8{opacity:0.3;fill:#94897D;}
	.st9{opacity:0.1;fill:#B4A596;}
	.st10{opacity:0.7;fill:#94897D;}
	.st11{opacity:0.2;fill:#B4A596;}
	.st12{opacity:0.5;}
	.st13{opacity:0.2;fill:#94897D;}
	.st14{opacity:0.6;fill:#94897D;}
	.st15{opacity:0.7;}
	.st16{fill:#B8543B;}
	.st17{fill:#9E4832;}
</style>
<g>
	<g>
		<g>
			<polygon class="st0" points="168.4,60.2 81.7,0 15.1,83.4 76.6,349.2 151.3,405 			"/>
			<polygon class="st0" points="76.6,349.2 15.1,83.4 44.5,65.9 81.7,0 168.4,60.2 151.3,405 			"/>
			<polygon class="st1" points="15.1,83.4 81.7,0 44.5,65.9 			"/>
			<polygon class="st2" points="99.1,366 44.5,65.9 81.7,0 132.2,390.7 			"/>
			<polygon class="st3" points="132.2,390.8 81.7,0 168.4,60.2 151.3,405 			"/>
			<polygon class="st4" points="132.2,390.7 108.2,205 168.4,60.2 151.3,405 			"/>
		</g>
		<g class="st5">
			<polygon class="st0" points="121.8,319.7 80.7,1.8 81.7,0 83.1,1.1 124.2,319.4 			"/>
		</g>
		<g class="st6">
			<path class="st7" d="M81.7,0c-5.8,11.2-11.8,22.3-17.8,33.4c-5.9,11.1-12,22.2-18.1,33.2l0.2-1.1l3.7,18.7
				c1.2,6.2,2.5,12.5,3.6,18.7l7,37.5l7,37.5l6.7,37.6l6.7,37.6c2.2,12.5,4.2,25.1,6.4,37.6c2.1,12.5,4.3,25.1,6.2,37.6
				c2,12.6,4,25.1,5.9,37.7c-2.7-12.4-5.2-24.9-7.8-37.3c-2.6-12.4-5-24.9-7.5-37.4c-2.4-12.5-5-24.9-7.3-37.4l-7-37.5l-7-37.5
				l-6.7-37.6l-6.7-37.6C48.1,97.5,47.1,91.2,46,85l-3.2-18.8l-0.1-0.6l0.3-0.5c6.4-10.9,12.7-21.8,19.2-32.6
				C68.7,21.6,75.1,10.8,81.7,0z"/>
		</g>
		<g>
			<polygon class="st0" points="270.5,202 241,143.4 190.2,140.4 149.3,153.6 123.3,215.2 131.5,403.2 153.2,409.7 181.6,418.3 
				206.5,406.6 272.1,260.1 			"/>
			<polygon class="st8" points="131.5,403.2 123.3,215.2 183.4,201.9 153.2,409.7 			"/>
			<polygon class="st9" points="183.4,201.9 243.7,212.7 181.6,418.3 153.2,409.7 			"/>
			<polygon class="st10" points="243.7,212.7 272.1,260.1 206.5,406.6 181.6,418.3 			"/>
			<polygon class="st11" points="272.1,260.1 270.5,202 241,143.4 243.7,212.7 			"/>
			<polygon class="st1" points="243.7,212.7 183.4,201.9 190.2,140.4 241,143.4 			"/>
			<polygon class="st2" points="183.4,201.9 123.3,215.2 149.3,153.6 190.2,140.4 			"/>
		</g>
		<g>
			<polygon class="st0" points="104.6,217 93.5,259.6 93.5,259.6 104.6,217 47.3,244.5 30.9,313 42.5,379.8 125.2,420.9 
				151.8,399.6 			"/>
			<polygon class="st1" points="47.3,244.5 30.9,313 42.5,379.8 91.7,266.6 104.6,217 			"/>
			<polygon class="st0" points="42.5,379.8 125.2,420.9 151.8,399.6 104.6,217 93.5,259.6 			"/>
			<polygon class="st3" points="93.5,259.6 151.8,399.6 104.6,217 			"/>
			<polygon class="st3" points="47.3,244.5 42.5,379.8 30.9,313 			"/>
		</g>
		<g class="st12">
			<path class="st7" d="M190.3,140.5c0,0-0.3,4.2-0.9,11.5c-0.6,7.3-1.3,17.7-2.5,30.2c-0.6,6.3-1.2,13-1.9,20.2
				c-0.9,7.1-1.9,14.6-3,22.4c-2.2,15.5-4.5,32-6.9,48.6c-2.5,16.5-5,33-7.4,48.5c-1.1,7.7-2.4,15.2-3.6,22.3
				c-1.2,7.1-2.3,13.8-3.3,20c-2,12.4-4,22.6-5.2,29.8c-1.3,7.2-2,11.3-2,11.3l-0.2,0c0,0,9.6-66.1,19.3-132.2
				c2.4-16.5,4.9-33.1,7.2-48.5c1.1-7.7,2.3-15.2,3.3-22.3c0.8-7.1,1.5-13.9,2.2-20.1c2.8-24.9,4.6-41.5,4.6-41.5L190.3,140.5z"/>
		</g>
		<g>
			<polygon class="st0" points="82.7,405.9 71.3,416.6 66.2,425.5 82.4,426.8 94,437.1 178.4,419.4 185.8,406.4 166.6,395.4 			"/>
			<polygon class="st13" points="66.2,425.5 93.1,416.9 94,437.1 82.4,426.8 			"/>
			<polygon class="st8" points="93.1,416.9 71.3,416.6 66.2,425.5 			"/>
			<polygon class="st14" points="93.1,416.9 71.3,416.6 82.7,405.9 			"/>
			<polygon class="st8" points="93.1,416.9 185.8,406.4 166.6,395.4 82.7,405.9 			"/>
			<polygon class="st14" points="93.1,416.9 94,437.1 178.4,419.4 185.8,406.4 			"/>
			<polygon class="st14" points="93.1,416.9 178.4,419.4 185.8,406.4 			"/>
			<polygon class="st14" points="82.4,426.8 93.1,416.9 94,437.1 			"/>
		</g>
		<g class="st15">
			<polygon class="st7" points="93.4,416.8 94,437.1 92.8,416.9 			"/>
		</g>
		<g class="st6">
			<polygon class="st7" points="123.3,215.2 182.9,199.5 183.4,199.4 183.9,199.5 243.7,212.7 183,204.3 184,204.3 			"/>
		</g>
		<g class="st6">
			<path class="st7" d="M47.5,244.5c0,0,0.1,2.1,0.2,5.8c0,3.7,0.3,9,0.2,15.4c-0.1,6.4,0.1,13.8-0.1,21.7
				c-0.2,7.9-0.4,16.4-0.6,24.9c-0.4,8.5-0.8,16.9-1.2,24.8c-0.4,7.9-1,15.3-1.4,21.7c-0.4,6.3-1,11.6-1.3,15.3
				c-0.4,3.7-0.6,5.8-0.6,5.8l-0.2,0c0,0,1.1-33.8,2.3-67.7c1.3-33.8,2.5-67.7,2.5-67.7L47.5,244.5z"/>
		</g>
		<g class="st6">
			<path class="st7" d="M104.7,217c-1.4,7.2-3,14.4-4.5,21.6l-5,21.5l0,0.1l-0.1,0.2c-2,5.1-4.1,10.1-6.2,15.1l-6.2,15.1l-3.1,7.5
				c-1,2.5-2.1,5-3.2,7.5l-6.5,15l-6.5,15l-6.8,14.9l-3.4,7.4c-1.1,2.5-2.3,4.9-3.5,7.4c-2.3,4.9-4.6,9.8-7.1,14.7l-0.2-0.1
				l50.9-120.2l0,0l11.2-42.6L104.7,217z"/>
		</g>
		<g class="st6">
			<polygon class="st7" points="45.1,66.9 15.1,83.4 43.8,64.8 			"/>
		</g>
		<g class="st15">
			<path class="st7" d="M71.3,416.6c7.3-0.1,14.6,0,21.9,0l1.7,0l-1.6,0.5c-4.5,1.5-9,2.8-13.5,4.3c-4.5,1.4-9,2.8-13.5,4.1
				c4.4-1.6,8.9-3.1,13.4-4.5c4.5-1.5,8.9-3,13.4-4.4l0.1,0.5C85.8,417,78.6,416.9,71.3,416.6z"/>
		</g>
		<g class="st15">
			<path class="st7" d="M82.7,405.9l5.4,5.4c1.8,1.8,3.6,3.6,5.3,5.4l-0.3-0.1l46.4-5.2l23.2-2.6c3.9-0.4,7.7-0.9,11.6-1.3l11.6-1
				l-11.6,1.6c-3.9,0.5-7.7,0.9-11.6,1.3l-23.2,2.6l-46.3,5.2l-0.2,0l-0.1-0.1c-1.8-1.8-3.4-3.7-5.1-5.6L82.7,405.9z"/>
		</g>
		<g class="st12">
			<polygon class="st7" points="93.3,417.6 82.4,426.8 92.5,416.7 			"/>
		</g>
		<g class="st6">
			<path class="st7" d="M241,143.4c0,0,0.1,1.1,0.3,3c0.2,1.9,0.5,4.6,0.7,7.8c0.2,3.2,0.6,7,0.7,11.1c0.2,4.1,0.4,8.4,0.6,12.7
				c0.1,4.3,0.2,8.7,0.4,12.7c0.1,4.1,0.1,7.9,0.1,11.1c0,3.2-0.1,6-0.1,7.9c0,1.9-0.1,3-0.1,3l-0.1,0l-2.7-69.3L241,143.4z"/>
		</g>
	</g>
	<g>
		<path class="st16" d="M42.4,431.7L0,786.3h21.2l68.9-303.8l112.6-0.7l68.8,304.5h22.8L244.8,423C244.8,423,54.2,400.5,42.4,431.7z
			"/>
		<rect x="16.7" y="395.9" class="st16" width="254.7" height="35.8"/>
		<rect x="49.6" y="576.5" class="st16" width="189.4" height="21.3"/>
		<path class="st17" d="M42.4,431.7H246l6.6,48.4c0,0-69.8-31.7-213.6-19.7L42.4,431.7z"/>
	</g>
</g>
</svg>
