<?xml version="1.0" encoding="utf-8"?>
<!-- Generator: Adobe Illustrator 23.0.1, SVG Export Plug-In . SVG Version: 6.00 Build 0)  -->
<svg version="1.1" id="分離模式" xmlns="http://www.w3.org/2000/svg" xmlns:xlink="http://www.w3.org/1999/xlink" x="0px"
	 y="0px" viewBox="0 0 164 366.4" style="enable-background:new 0 0 164 366.4;" xml:space="preserve">
<style type="text/css">
	.st0{fill:#64455E;}
	.st1{fill:#FFA898;}
	.st2{fill:#341731;}
	.st3{fill:#D1C1BD;}
	.st4{fill:#905557;}
	.st5{fill:#895152;}
	.st6{fill:#7F444B;}
	.st7{fill:#69323D;}
	.st8{fill:#504062;}
	.st9{fill:#E2DFE5;}
	.st10{fill:#E9E6EC;}
	.st11{fill:#331D37;}
	.st12{fill:#F3F0F3;}
	.st13{fill:#F48989;}
	.st14{fill:#D9CED6;}
	.st15{fill:#DC957E;}
	.st16{fill:#6A3534;}
	.st17{fill:#532442;}
	.st18{fill:#F8918C;}
	.st19{fill:#C74038;}
	.st20{fill:#F2EEF1;}
	.st21{fill:#784342;}
	.st22{fill:#8F584E;}
	.st23{fill:#864E45;}
	.st24{fill:#AE7663;}
	.st25{fill:#C62D38;}
	.st26{fill:#A7C3DF;}
</style>
<g>
	<g>
		<path class="st0" d="M53.8,47.4H18c-1.4,0-2.5,1.1-2.5,2.5v19.3c0,1.4,1.1,2.5,2.5,2.5h35.8c1.4,0,2.5-1.1,2.5-2.5V49.9
			C56.3,48.6,55.2,47.4,53.8,47.4z"/>
	</g>
	<g>
		<path class="st1" d="M9.2,56.4c1.4-0.7,2.9-1.1,4.5-1.3l5.5-0.5c1-0.1,2,0.7,2.1,1.7c0,0.1,0,0.2,0,0.3c0,0.4,0.1,0.7,0.4,1
			c0.3,0.2,0.6,0.4,1,0.3l0.1,0c1-0.1,2,0.7,2.1,1.7c0.1,0.9-0.5,1.8-1.4,2c-0.1,0-0.2,0.1-0.3,0.1c-0.1,0-0.3,0.1-0.3,0.2
			c-0.1,0.1,0,0.3,0.1,0.4c0.2,0.3,0.4,0.6,0.4,1c0.1,1-0.7,2-1.7,2.1c-0.2,0-0.3,0.1-0.3,0.2c-0.1,0.1,0,0.3,0,0.4
			c0.2,0.2,0.3,0.5,0.3,0.8c0.1,0.9-0.6,1.6-1.4,1.7l-3.9,0.3c-0.5,0-0.9,0.3-1.2,0.6c-0.3,0.4-0.4,0.8-0.4,1.3
			c0.5,4.6-0.8,8.5-3.4,9.5c-3.3,1.3-7.5-2.4-9.4-8.4C-1.7,60.4-0.7,61.1,9.2,56.4z"/>
	</g>
	<g>
		<g>
			<path class="st2" d="M83.5,178.6c-3,0.3-5.6,2.7-6,5.8L70,233.7c-3.5,23.4-4,47.2-1.4,70.7l5.3,47.7c0.4,3.8,3.8,6.5,7.6,6.1
				c3.8-0.4,6.5-3.8,6.1-7.6l-5.3-47.7c-2.5-22.3-2-44.9,1.3-67.1l7.4-49.3c0.6-3.8-2-7.3-5.8-7.9C84.7,178.6,84.1,178.6,83.5,178.6
				z"/>
		</g>
		<g>
			<path class="st2" d="M80.8,341.7c5.7,0,8.3,5.9,9.4,9.4c1.1,3.5,4.5,13.4-1.6,13.4c-6,0-30.9,0-30.9,0s-2-0.3-2-3.7
				c0-3.4,3.3-3.8,4.9-4.4c1.6-0.6,5.5-2.2,9.6-6.3C74.4,345.7,76.5,341.7,80.8,341.7z"/>
		</g>
		<g>
			<g>
				<path class="st3" d="M92.5,363.1l-37,0c-0.4,0-0.8,0.4-0.8,0.8l0,0.8c0,1,0.8,1.7,1.7,1.7l35.2,0c1,0,1.7-0.8,1.7-1.7l0-0.8
					C93.3,363.4,92.9,363.1,92.5,363.1z"/>
			</g>
			<g>
				<path class="st4" d="M71,361.9c0-5.7-3.8-6.6-8.1-6.6l-1.5,0c-0.3,0.1-0.6,0.3-0.9,0.4c-0.2,0.1-0.5,0.2-0.8,0.3
					c-1.7,0.5-4.5,1.4-4.5,4.7c0,0,0,0,0,0h0c0,1.4,0.3,2.3,0.3,2.3l15.5,0C71,362.7,71,362.3,71,361.9z"/>
			</g>
			<g>
				<path class="st5" d="M71,361.9c0,0.4,0,0.8,0,1.1l20.3,0c0.8-5.7-1.7-12.5-2.9-14.8c-0.9,0.9-2.1,1.5-3.8,1.5
					c-3.4,0-4.7-1.8-6.7-2.9c-1.2,1.5-4.3,5.6-8.5,8.5c-0.6,0.4-0.6,1.3-0.1,1.8C70.4,358.1,71,359.6,71,361.9z"/>
			</g>
			<g>
				<path class="st6" d="M61.4,355.3l1.5,0c2.6,0,5,0.3,6.5,1.8c-0.5-0.5-0.5-1.3,0.1-1.8c4.1-2.9,7.3-7,8.5-8.5
					c-1-0.6-2.2-1.1-3.8-1.1c0,0,0,0,0,0c-0.5,0-1,0.2-1.3,0.6c0,0,0,0-0.1,0.1c-0.9,1-1.8,2-2.8,3
					C67.3,352.1,64.5,354.1,61.4,355.3L61.4,355.3z"/>
			</g>
			<g>
				<path class="st4" d="M88.4,348.3c1.1,2.3,3.7,9.1,2.9,14.8l0.8,0c1.5-3-0.2-8.5-1.2-11.6l-0.2-0.6c-0.3-0.9-0.6-1.9-1.1-3
					c-0.1-0.3-0.6-0.4-0.8-0.1C88.7,348,88.6,348.1,88.4,348.3z"/>
			</g>
			<g>
				<path class="st7" d="M72.7,356c-0.8-2-3.4-3.6-5.4-3.8c-0.4,0-1.4-0.2-2.1,0.6c-0.2,0.2-0.3,0.5-0.4,0.8
					c0.2-0.1,0.3-0.2,0.5-0.3c0,0,0,0,0,0c0.3-0.2,1.5-0.1,2.2,0v0c1.6,0.3,3.6,1.6,4.2,3.1c0.1,0.2,0.3,0.3,0.5,0.3
					c0.1,0,0.1,0,0.2,0C72.7,356.5,72.8,356.2,72.7,356z"/>
			</g>
			<g>
				<path class="st7" d="M75.1,354c-0.7-1.9-3.5-3.7-5.2-3.8c-0.4,0-1.5-0.1-2.2,0.7c-0.2,0.3-0.4,0.6-0.5,1
					c0.1-0.1,0.3-0.2,0.4-0.3l0,0c0.8-0.7,2.3-0.4,2.6-0.3v0c1.4,0.4,3.4,1.8,3.9,3.1c0.1,0.2,0.3,0.3,0.5,0.3c0.1,0,0.1,0,0.2,0
					C75,354.6,75.2,354.3,75.1,354z"/>
			</g>
			<g>
				<path class="st7" d="M77.5,352c-0.7-2-3.8-3.8-5.3-4c-0.4,0-1.5-0.1-2.2,0.6c-0.3,0.3-0.4,0.7-0.5,1.2c0.1-0.1,0.2-0.2,0.3-0.3
					l0,0c0.6-0.6,1.8-0.7,2.5-0.5c1.2,0.3,3.7,1.8,4.2,3.3c0.1,0.2,0.3,0.3,0.5,0.3c0.1,0,0.1,0,0.2,0
					C77.4,352.6,77.6,352.3,77.5,352z"/>
			</g>
		</g>
		<g>
			<path class="st8" d="M83.5,302.7c-2.5-22.2-2-44.7,1.3-66.8l7.4-49.3c0.7-4.4-2.4-8.5-6.7-9.2c-0.7-0.1-1.4-0.1-2.1,0
				c-3.6,0.4-6.5,3.2-7.1,6.8l-7.4,49.3c-3.6,23.5-4,47.4-1.4,71l4.3,38.7c0.1,0.6,0.6,1.1,1.3,1l13.7-1.5c0.6-0.1,1.1-0.6,1-1.3
				L83.5,302.7z"/>
		</g>
	</g>
	<g>
		<g>
			<path class="st2" d="M113.2,184.5c-2.8,1.1-4.7,4-4.4,7.2l5.2,47.8c2.5,23.5,8.2,46.6,16.7,68.7l17.4,44.8
				c1.4,3.6,5.4,5.3,8.9,3.9c3.6-1.4,5.3-5.4,3.9-8.9l-17.4-44.8c-8.1-20.9-13.5-42.9-15.9-65.2l-5.2-47.8c-0.4-3.8-3.8-6.5-7.6-6.1
				C114.3,184.1,113.7,184.3,113.2,184.5z"/>
		</g>
		<g>
			<g>
				<path class="st2" d="M135.7,360.5c0-2.9,3.4-3.8,5.1-5.6c1.9-2,3.2-4.3,4.5-6.7c1.8-3.2,4.9-6.3,8.7-6.5
					c5.4,0.3,7.5,5.9,8.2,9.4c0.8,3.5,3.3,13.4-2.7,13.4c-0.6,0-2.9,0-5.4,0c-3.9,0-8.5,0-9.6,0l-5,0
					C137.4,364.4,135.7,362.7,135.7,360.5z"/>
			</g>
			<g>
				<g>
					<path class="st5" d="M157.4,349.8c-2.8,0-4.1-1.4-5.7-2.6l-4.3,6.9c-0.3,0.5-0.2,1.2,0.3,1.5c0.3,0.2,0.6,0.5,1,0.8
						c0.6,0.5,1.3,1.2,1.8,2.1c0.4,0.7,0.7,1.6,0.7,2.5c0,0,0,0,0,0c0,0.1,0,0.1,0,0.2l0,1.9l12.1,0c0,0,0.6-1.4,0.6-4
						c0-2.6-0.6-5.7-1.1-7.6l-0.1-0.6c-0.2-0.7-0.4-1.5-0.7-2.4c-0.1-0.3-0.5-0.4-0.7-0.2C160.4,349.1,159.2,349.8,157.4,349.8z"/>
				</g>
				<g>
					<path class="st6" d="M150.5,358.5c-0.5-0.9-1.2-1.6-1.8-2.1c-0.4-0.3-0.7-0.6-1-0.8c-0.5-0.4-0.6-1-0.3-1.5l4.3-6.9
						c-1-0.8-2.2-1.4-3.8-1.4c-0.4,0-1,0-1.5,0.2c-0.3,0.1-0.5,0.3-0.6,0.5c-0.4,0.6-0.7,1.1-0.9,1.4c-1.3,2.4-2.6,4.7-4.4,6.5
						c-0.1,0.1-0.2,0.2-0.3,0.3C143.4,354.2,148.6,355.3,150.5,358.5z"/>
				</g>
				<g>
					<path class="st4" d="M151.2,361C151.2,361,151.2,361,151.2,361c0-1-0.3-1.8-0.7-2.5c-1.9-3.2-7-4.3-10.5-3.7
						c-0.5,0.4-1,0.8-1.6,1.2c-1.6,1.1-3.3,2.3-3.3,4.5c0,1.4,0.4,2.5,0.4,2.5l15.7,0l0-1.9C151.2,361.1,151.2,361.1,151.2,361z"/>
				</g>
				<g>
					<path class="st3" d="M162.3,366.4l-25.8,0c-1,0-1.7-0.8-1.7-1.7l0-1.1c0-0.3,0.3-0.6,0.6-0.6l28.1,0c0.3,0,0.6,0.3,0.6,0.6
						l0,1.1C164,365.7,163.2,366.4,162.3,366.4z"/>
				</g>
				<g>
					<path class="st7" d="M150.6,354.6c-1.3-1.4-4.8-2.5-7.6-2.5c-0.9,0-1.6,0.3-2,0.9c-0.2,0.3-0.3,0.7-0.2,1.1
						c0.3-0.4,1-0.8,1.7-0.9c0.1,0,0.2,0,0.3,0c0,0,0,0,0,0c0,0,0.1,0,0.1,0c2.5,0,5.8,1,6.9,2.2c0.2,0.2,0.5,0.2,0.7,0
						C150.8,355.1,150.8,354.8,150.6,354.6z"/>
				</g>
				<g>
					<path class="st7" d="M153,350.7c-1.3-1.4-4.7-2.7-7.2-2.7c-0.7,0-1.7,0.1-2.2,0.9c-0.2,0.3-0.2,0.8-0.1,1.2
						c0.3-0.5,0.7-1,2.1-1.1c0,0,0.2,0,0.2,0c2.2,0,5.4,1.1,6.5,2.3c0.2,0.2,0.5,0.2,0.7,0C153.2,351.3,153.2,351,153,350.7z"/>
				</g>
				<g>
					<path class="st7" d="M151.8,352.7c-1.4-1.5-4.5-2.6-7.4-2.6c-0.7,0-1.5,0.1-2,0.8c-0.2,0.3-0.3,0.8-0.2,1.2
						c0.2-0.3,0.6-0.8,1.7-1c0.2,0,0.4,0,0.4,0c3,0,5.6,1.2,6.7,2.3c0.2,0.2,0.5,0.2,0.7,0C152,353.2,152,352.9,151.8,352.7z"/>
				</g>
			</g>
		</g>
		<g>
			<path class="st8" d="M144.6,302.7c-8.1-20.8-13.4-42.7-15.8-64.9l-5.2-47.8c-0.5-4.4-4.5-7.6-8.9-7.1c-0.7,0.1-1.4,0.2-2,0.5
				c-3.4,1.3-5.5,4.8-5.1,8.4l5.2,47.8c2.6,23.6,8.2,46.8,16.8,69l14.1,36.3c0.2,0.6,0.9,0.9,1.5,0.7l12.9-5
				c0.6-0.2,0.9-0.9,0.7-1.5L144.6,302.7z"/>
		</g>
	</g>
	<g>
		<g>
			<path class="st1" d="M8.2,72.4c2.2-1.8,5.5-1.5,7.3,0.8l28.6,35.3c1.6,2,4.6,2.3,6.6,0.7L86,80.4c2.2-1.8,5.5-1.5,7.3,0.8
				c1.8,2.2,1.5,5.5-0.8,7.3l-35.3,28.6c-6.4,5.2-15.9,4.2-21.2-2.2L7.4,79.7C5.6,77.4,6,74.2,8.2,72.4z"/>
		</g>
		<g>
			<path class="st9" d="M35.2,115.6c5.6,6.9,15.8,8,22.8,2.4l35-28.5c2.6-2.1,3.3-5.8,1.5-8.6c-2.1-3.2-6.4-3.8-9.3-1.4L50,108.2
				c-1.5,1.2-3.8,1-5-0.5L26.6,85c-0.2-0.2-0.6-0.3-0.8-0.1l-8.9,7.2c-0.2,0.2-0.3,0.6-0.1,0.8L35.2,115.6z"/>
		</g>
		<g>
			<path class="st10" d="M16.9,92.2l-5.3-6.6c-0.2-0.2-0.2-0.6,0.1-0.8l8-6.5c0.2-0.2,0.6-0.2,0.8,0.1l5.3,6.6L16.9,92.2z"/>
		</g>
	</g>
	<g>
		<path class="st11" d="M107.1,74.6c2.4,0,5.3,1.7,6.7,3.1c0.2,0.2,0,0.6-0.3,0.6l-9.5-1.2c-0.3,0-0.4-0.4-0.2-0.6
			C104.5,75.8,105.7,74.6,107.1,74.6z"/>
	</g>
	<g>
		<path class="st12" d="M124.7,68.5c-9.2-1.2-14.6,0.9-16.6,2.1c-1.3,0.8-2.4,1.9-4.1,3.3c-0.5,0.4-0.9,0.9-1.2,1.5
			c-0.9,2.2,4.1,5.2,12,6.1c7.4,0.9,17.7-0.1,18.8-2.4c0.2-0.4,0.1-0.9-0.2-1.2c-2.5-3-2.7-6.5-3.7-7.5
			C128.7,69.5,126.7,68.8,124.7,68.5z"/>
	</g>
	<g>
		<g>
			
				<ellipse transform="matrix(0.8323 -0.5543 0.5543 0.8323 -23.0118 78.6754)" class="st1" cx="118.5" cy="77.4" rx="6.9" ry="6.9"/>
		</g>
		<g>
			<path class="st1" d="M114.6,92.1c-3.6-1.4-6-5.1-5.7-9.2l3.1-33.1c0.5-5,4.9-8.6,9.8-8.2c5,0.5,8.6,4.9,8.2,9.8l-3.1,33.1
				c-0.5,5-4.9,8.6-9.8,8.2C116.2,92.6,115.4,92.4,114.6,92.1z"/>
		</g>
		<g>
			<path class="st13" d="M128.4,68.1l1.5-16.7c0.5-5-3.2-9.4-8.2-9.8c-5-0.5-9.4,3.2-9.8,8.2l-2,21.4c3.5,0.2,7.3-0.1,11.4-1
				C123.8,69.7,126.1,69,128.4,68.1z"/>
		</g>
	</g>
	<g>
		<g>
			
				<ellipse transform="matrix(0.4719 -0.8816 0.8816 0.4719 -121.7398 174.4472)" class="st1" cx="84.7" cy="188.8" rx="6.9" ry="6.9"/>
		</g>
		<g>
			<path class="st1" d="M123.8,194c-0.5,3.8-4,6.4-7.7,5.9c-3.8-0.5-6.4-4-5.9-7.7c0.5-3.8,4-6.4,7.7-5.9
				C121.6,186.7,124.3,190.2,123.8,194z"/>
		</g>
		<g>
			<path class="st1" d="M94.1,85.2c-0.4,2.8-3,4.8-5.8,4.5c-2.8-0.4-4.8-3-4.5-5.8c0.4-2.8,3-4.8,5.8-4.5
				C92.5,79.8,94.5,82.4,94.1,85.2z"/>
		</g>
		<g>
			<path class="st1" d="M153.3,93c-0.4,2.8-3,4.8-5.8,4.5c-2.8-0.4-4.8-3-4.5-5.8c0.4-2.8,3-4.8,5.8-4.5S153.7,90.1,153.3,93z"/>
		</g>
		<g>
			<path class="st1" d="M151.9,88.7c-5.8-6.6-23.9-10.2-32.3-11.2c-9-1.3-29.3-3.4-34.7,4c0,0,0,0,0,0c-0.6,0.8-0.7,1.4-0.7,1.4l0,0
				c-0.4,1.1-0.4,2.3,0,3.4c0.1,0.3,0.2,0.6,0.4,0.9c1.8,3.1,2.5,6.8,1.8,10.4c-1.7,8.9-2.7,21.8-1.6,32.6
				c1.3,12.5-0.1,25.2-4.2,37.1c-0.6,1.7-1.1,3.7-1.3,5.6l0,0c-0.2,1.6-0.4,3.1-0.6,4.6c-2,15.1-3.9,20.8,22,24.2c0,0,0,0,0,0
				c0,0,0,0,0,0c19.6,2.6,23.1-1,25.3-16.4c1.1-6.7-0.1-11.6-1.4-16.2c-3.2-11.1-1.6-23,4.5-32.8c3-4.9,5.5-9.8,7.9-13.6
				c2.6-4.2,6-10.5,7.7-17.1c0.9-3.7,3.2-6.8,6.4-8.9c0.5-0.4,1-0.8,1.4-1.4c0.7-1,1-2.2,0.9-3.3C153.1,90.6,152.9,89.7,151.9,88.7z
				"/>
		</g>
	</g>
	<g>
		<path class="st10" d="M154.5,91.9l0-0.1c-0.2-1.3-0.6-2.7-1.8-3.8c-6-6.8-23.5-10.1-29.8-11.1c-5,2-11.4,3.6-11.4,3.6
			s-2.9-2.2-3.8-5.2c-10.1-0.5-20,0.5-23.8,5.7c-0.6,0.8-0.8,1.5-0.9,1.8c-0.5,1.4-0.4,2.8,0,4.1c0.1,0.4,0.3,0.7,0.5,1.1
			c1.7,2.9,2.3,6.3,1.7,9.6c-1.5,8-2.8,21.4-1.6,32.9c0.9,8.9,0.4,17.9-1.4,26.6c-0.1,0.7,0.3,1.3,1,1.4l39.9,5.2
			c0.7,0.1,1.4-0.5,1.3-1.3c-1-8.8,1-17.8,5.7-25.4c1.7-2.7,3.1-5.3,4.5-7.8c1.2-2.1,2.3-4.1,3.3-5.8c3.9-6.3,6.6-12.3,7.9-17.6
			c0.8-3.3,3-6.1,5.9-8c0.7-0.4,1.2-1,1.7-1.7C154.2,94.8,154.6,93.4,154.5,91.9z"/>
	</g>
	<g>
		<g>
			<polygon class="st14" points="111.5,80.4 111.5,80.4 111.5,80.4 111.5,80.4 			"/>
		</g>
		<g>
			<path class="st14" d="M117.2,89.1c-0.5,0.2-1.2,0-1.4-0.5l-4.2-8.2l-9,6.8c-0.2,0.2-0.6,0-0.6-0.3c-0.1-1.1-0.3-3.6-0.1-6.1
				c-0.2,2.6-0.1,5,0,6.4c0,0.7,0.2,1.2,0.6,1.3c0.4,0,0.7-0.1,1-0.3l7.6-6.1l3.6,7c0.3,0.7,1,1.1,1.7,1.2c0.4,0.1,0.8,0,1.1-0.1
				c3.6-1.4,10.9-5.4,14.2-8.9C127.9,84.7,119.9,88,117.2,89.1z"/>
		</g>
	</g>
	<g>
		<polygon class="st14" points="111.5,80.4 111.5,80.4 111.5,80.4 111.5,80.4 		"/>
	</g>
	<g>
		<g>
			<path class="st8" d="M79.4,167.2c-0.6,1.8-1,3.7-1.3,5.5l0,0.2c-0.2,1.5-0.4,3-0.6,4.5l-0.2,1.8c-0.9,7-1.6,12.1,1.4,16
				c3,3.8,9.3,6.1,21.9,7.7l0,0c20.6,2.7,24.4-1.5,26.6-17.4c1.1-7-0.1-12.1-1.5-16.7c-0.4-1.4-0.7-2.8-1-4.2
				c-0.1-0.5-0.5-0.9-1-0.9L83,158.2c-0.6-0.1-1.1,0.3-1.3,0.9C81.1,161.8,80.3,164.5,79.4,167.2z"/>
		</g>
		<g>
			<g>
				<polygon class="st5" points="113.7,163.8 85.9,160.1 85.9,160.1 84.5,166.4 113.5,170.2 113.7,163.8 				"/>
			</g>
			<g>
				<path class="st5" d="M83.1,159.8l-1.5-0.2c-0.5,2.1-1.1,4.2-1.8,6.3l1.8,0.2L83.1,159.8L83.1,159.8z"/>
			</g>
			<g>
				<path class="st5" d="M125.7,168.7c-0.3-1.2-0.6-2.3-0.9-3.5l-8.3-1.1l0,0l-0.2,6.5l10.2,1.3C126.3,170.8,126,169.8,125.7,168.7z
					"/>
			</g>
		</g>
		<g>
			<path class="st15" d="M99.2,168.4l-8.4-1.1c-0.3,0-0.5-0.3-0.4-0.6l0.7-5.4c0-0.3,0.3-0.5,0.6-0.4l8.4,1.1c0.3,0,0.5,0.3,0.4,0.6
				l-0.7,5.4C99.7,168.2,99.5,168.4,99.2,168.4z"/>
		</g>
	</g>
	<g>
		<g>
			<g>
				<path class="st1" d="M128.8,5.3c-2.3-0.5-4.7-0.7-7.1-0.6c-7.2,0.2-14.1,2.8-19,7.3c-2.5,2.3-4.4,5-5.8,7.9
					c-1.8,3.7-2.4,7.7-3.2,11.8c-0.8,3.7-1.9,7.6-2.3,11.4c-0.6,6.6,1.8,13.8,7,18.8c5.8,5.7,15,5.5,22.4,4
					c7.3-1.5,14.5-5.1,19.7-9.8c5.8-5.2,9.6-12,11.2-19.2c0.1-0.2,0.1-0.5,0.1-0.7C154.8,22.3,144.4,8.5,128.8,5.3z"/>
			</g>
			<g>
				<path class="st16" d="M128.6,33.9c-2.1-3.3-7.2-3.6-7.4-3.6c-0.6,0-1.2,0.5-1.2,1.1c0,0.6,0.5,1.2,1.1,1.2c0,0,4.1,0.2,5.5,2.5
					c0.2,0.3,0.4,0.5,0.7,0.5c0.3,0.1,0.6,0,0.8-0.2C128.8,35.1,129,34.4,128.6,33.9z"/>
			</g>
			<g>
				<path class="st16" d="M104.8,26.9c-0.2-0.1-4.9-1.9-8.2,0.4c-0.5,0.4-0.7,1.1-0.3,1.6c0.2,0.3,0.4,0.4,0.7,0.5
					c0.3,0.1,0.6,0,0.9-0.2c2.2-1.6,6-0.1,6.1-0.1c0.6,0.2,1.3-0.1,1.5-0.7C105.7,27.8,105.4,27.2,104.8,26.9z"/>
			</g>
			<g>
				<path class="st17" d="M98,36l-0.2,1.2c-0.2,1.1,0.4,2.1,1.3,2.3l0,0c1,0.2,1.9-0.5,2.1-1.6l0.2-1.2c0.2-1.1-0.4-2.1-1.3-2.3
					C99.2,34.2,98.3,34.9,98,36z"/>
			</g>
			<g>
				<path class="st17" d="M121.5,44.1L121.5,44.1c1,0.2,1.9-0.5,2.1-1.6l0.2-1.2c0.2-1.1-0.4-2.1-1.3-2.3c-1-0.2-1.9,0.5-2.1,1.6
					l-0.2,1.2C120,42.9,120.6,43.9,121.5,44.1z"/>
			</g>
			<g>
				<path class="st18" d="M143.5,38.2c-1.9-0.9-4-0.1-4.9,2.2c-1,2.8,0.8,3.4-0.1,6c-0.6,1.6-1.3,2-1.9,3.6
					c-0.5,1.4-0.5,3.2,0.8,3.8c2.1,1,5.7-2.2,7.3-5.7C146.3,44.5,146.8,39.8,143.5,38.2z"/>
			</g>
			<g>
				<path class="st18" d="M119.8,45.9c-0.9-0.5-2-0.2-2.5,0.6c-0.5,0.9-0.2,2,0.6,2.5c0.7,0.4,1.7,1.4,1.8,2.1
					c0.1,0.7,0.5,1.2,1,1.5c0.3,0.1,0.6,0.2,0.9,0.2c1-0.1,1.7-1,1.6-2C123.1,47.9,120.1,46.1,119.8,45.9z"/>
			</g>
			<g>
				<path class="st18" d="M102,43.4c-0.1-1-1-1.7-2-1.5c-0.4,0.1-3.8,0.6-5.2,3.1c-0.5,0.9-0.1,2,0.7,2.4c0.3,0.2,0.6,0.2,0.9,0.2
					c0.6,0,1.2-0.4,1.5-1c0.4-0.7,1.7-1.1,2.5-1.2C101.5,45.3,102.2,44.4,102,43.4z"/>
			</g>
			<g>
				<path class="st19" d="M114.4,49.7l-10.9-2.2c-0.3-0.1-0.7,0-1,0.3c-0.3,0.3-0.5,0.6-0.5,1.1c-0.4,4,1.9,5.8,5.3,6.5l0.2,0
					c3.4,0.7,6.8,0,7.9-3.8c0.1-0.4,0.1-0.8-0.1-1.2C115,50,114.8,49.8,114.4,49.7z"/>
			</g>
			<g>
				<path class="st20" d="M108.4,51.4c2.4,0.5,4.7-0.1,6.5-1.5c-0.2-0.1-0.3-0.3-0.5-0.3l-10.9-2.2c-0.2,0-0.4,0-0.6,0.1
					c1.1,1.9,3,3.4,5.4,3.9L108.4,51.4z"/>
			</g>
		</g>
		<g>
			<g>
				<path class="st21" d="M111.5,15.6c1.9-3.3,17.7-3.3,23,5.2c0,0,2.2-11.9-12.3-14.9c-14.5-3-15.5,3.5-15.4,5
					C106.8,12.5,107.8,13.8,111.5,15.6z"/>
			</g>
			<g>
				<path class="st22" d="M96.9,19.9c1.5-3,3.3-5.6,5.8-7.9c2.8-2.5,6.3-4.5,10-5.7c0.5-2.2-0.1-3.5-2.7-2.7
					c-6.7,2.1-11.9,2.9-14.2,6.7c-2.1,3.4,0,10.4-0.4,13.3C95.9,22.3,96.3,21.1,96.9,19.9z"/>
			</g>
			<g>
				<path class="st22" d="M127.4,9.5c10.2,6.6,6.7,15.4,5.7,18.2c-0.6,1.5-0.9,3.2-0.3,3.9c0.6,0.7,2.6,1.9,2.1,4.2
					c-0.5,2.4-1.7,7-1.5,7.7c0.3,0.6,2.1,4.6,2.4,3.2c0.3-1.5,1.4-11,6.2-10c4.5,0.9,4.7,5.3,3.9,9.1c-0.8,3.8-3.1,8.2-4.6,9.5
					c0,0,16-13,15.1-31.3c-0.9-18.9-29-24.6-35-24c-3.3,0.3-12.8,0.5-15.7,6.9c-1.4,3,0.9,4.5,2.4,4.8
					C107.4,4.6,122.6,6.4,127.4,9.5z"/>
			</g>
			<g>
				<path class="st23" d="M120.9,8.9c7.7,4.6,10.5,8.4,12.6,11c2.8,3.4,10.6,11.1,21.5,11.3c0,0-6.9-3.2-9.6-9.8
					C142.6,14.7,125.3,7.1,120.9,8.9z"/>
			</g>
			<g>
				<path class="st24" d="M111.5,15.6c-9.7-2.7-8.1-8.1-8-8.6c0.1-0.6,2.1-6.4,15.7-3.6c17.9,3.7,25,19.3,33.4,19.1
					c0,0-8.5,1.8-17.7-3.9c-9.2-5.7-9-6.9-17.5-8.6c-6-1.2-8.1,1-8.3,2.3C108.7,14,111.5,15.6,111.5,15.6z"/>
			</g>
		</g>
	</g>
	<g>
		<path class="st1" d="M59.9,55.7c-1.5-0.6-3-0.9-4.6-0.9l-5.5-0.1c-1,0-1.9,0.8-1.9,1.8c0,0.1,0,0.2,0,0.3c0.1,0.4-0.1,0.7-0.3,1
			c-0.2,0.3-0.6,0.4-0.9,0.4l-0.1,0c-1,0-1.9,0.8-1.9,1.8c0,0.9,0.6,1.7,1.5,1.9c0.1,0,0.2,0,0.3,0c0.1,0,0.3,0.1,0.3,0.2
			c0.1,0.1,0,0.3,0,0.4c-0.2,0.3-0.4,0.7-0.4,1.1c0,1,0.8,1.9,1.8,1.9c0.2,0,0.3,0.1,0.4,0.2c0.1,0.1,0.1,0.3,0,0.4
			c-0.2,0.2-0.2,0.5-0.2,0.8c0,0.9,0.7,1.5,1.5,1.6l3.9,0c0.5,0,0.9,0.2,1.2,0.5c0.3,0.3,0.5,0.8,0.5,1.3c-0.2,4.6,1.4,8.4,4,9.3
			c3.4,1.1,7.3-3,8.7-9.1C71,58.9,70.1,59.7,59.9,55.7z"/>
	</g>
	<g>
		<g>
			<path class="st25" d="M109.6,90.4c0.1-0.3,0.3-0.7,0.6-0.9c0.8-0.8,2.7-2.6,5.5-5.2c-0.8-1.5-1.7-2.9-2.7-3.7
				c-0.7,0-1.4,0-2.1-0.1l-1.2-0.4c-1.2,0.5-2.4,1.4-3.5,2.5l0.1,5.9c0,0.4-0.1,0.8-0.3,1.2c-2.2,4-9.8,18-12.5,53.7
				c0,0.3,0,0.6,0.2,0.9l3,6c0.1,0.2,0.4,0.4,0.6,0.4c0.3,0,0.5-0.1,0.7-0.3l4.2-5.3c0.2-0.3,0.4-0.6,0.3-1
				C101.9,110.1,106.3,99.5,109.6,90.4z"/>
		</g>
		<g>
			<polygon class="st26" points="111,80.5 111,80.5 111,80.5 111,80.5 			"/>
		</g>
	</g>
	<g>
		<g>
			<path class="st12" d="M107.5,74c0-0.4,0-0.8,0.2-1.1c0.1-0.3,0-0.7-0.2-0.9l0,0c-0.3-0.3-0.8-0.3-1.1,0c-0.7,0.6-1.4,1.3-2.4,2.1
				c-0.5,0.4-0.8,0.9-1.1,1.4c-1.5,3.5-1.1,9.5-0.9,11.6c0,0.3,0.4,0.4,0.6,0.3l9-6.8C111.5,80.4,107.8,77.7,107.5,74z"/>
		</g>
		<g>
			<path class="st12" d="M133.4,77.9c-1.2-1.4-1.8-2.9-2.3-4.2c-0.3-0.8-1.2-1.3-2-1.1l0,0c-0.2,0.1-0.4,0.2-0.5,0.4
				c-1.4,3.4-17.1,7.3-17.1,7.3l4.2,8.2c0.3,0.5,0.9,0.8,1.4,0.5c3.4-1.3,14.4-6,16.4-10C133.8,78.8,133.7,78.2,133.4,77.9z"/>
		</g>
	</g>
	<g>
		<g>
			<path class="st1" d="M59,70.5c2.2-1.9,5.4-1.6,7.3,0.6l29.5,34.4c2.3,2.7,6.2,3.5,9.3,2L146,87.8c2.6-1.2,5.7-0.2,6.9,2.4
				c1.2,2.6,0.2,5.7-2.4,6.9l-40.8,19.6c-7.4,3.6-16.3,1.7-21.7-4.5L58.4,77.8C56.6,75.6,56.8,72.4,59,70.5z"/>
		</g>
		<g>
			<path class="st12" d="M87.1,112.9c5.7,6.6,15.2,8.6,23,4.8l40.8-19.6c0.5-0.2,1-0.5,1.4-0.9c2.5-2.2,3-6,0.8-8.8
				c-1.9-2.3-5.2-2.9-7.9-1.6l-40.6,19.5c-2.7,1.3-6,0.6-8-1.7l-18.9-22c-0.2-0.2-0.6-0.3-0.8-0.1l-8.7,7.5
				c-0.2,0.2-0.3,0.6-0.1,0.8L87.1,112.9z"/>
		</g>
		<g>
			<path class="st12" d="M68.2,90.1l-5.5-6.4c-0.2-0.2-0.2-0.6,0.1-0.8l7.8-6.7c0.2-0.2,0.6-0.2,0.8,0.1l5.5,6.4L68.2,90.1z"/>
		</g>
	</g>
</g>
</svg>
