<?xml version="1.0" encoding="utf-8"?>
<!-- Generator: Adobe Illustrator 23.0.1, SVG Export Plug-In . SVG Version: 6.00 Build 0)  -->
<svg version="1.1" id="圖層_1" xmlns="http://www.w3.org/2000/svg" xmlns:xlink="http://www.w3.org/1999/xlink" x="0px" y="0px"
	 viewBox="0 0 412 230" style="enable-background:new 0 0 412 230;" xml:space="preserve">
<style type="text/css">
	.st0{fill:#D69700;}
	.st1{fill:#1E0F09;}
</style>
<g>
	<path class="st0" d="M19.1,26.4c-2,0.6-4,1.2-6,1.8v12.6c0,2.3-0.5,3.5-1.9,4.1c-1.4,0.7-3.6,0.8-6.8,0.8c-0.1-1.1-0.8-2.9-1.3-4
		c2.1,0,4.1,0,4.7,0c0.7,0,0.9-0.2,0.9-1V29.4L2.9,31l-1.2-4.3c2-0.5,4.4-1,7-1.7v-9.5H2.4v-4.1h6.4V2h4.4v9.4h5.5v4.1h-5.5v8.3
		c1.8-0.5,3.6-1,5.5-1.5L19.1,26.4z M43,21.8c-2,4.4-4.9,8.7-8.4,12.5c1.5,3.6,3.5,5.9,5.9,6.1c1.2,0.1,1.9-2.4,2.3-7.6
		c0.9,1,2.8,2.1,3.7,2.5c-1.2,8.2-3.3,10.6-5.9,10.3c-4.2-0.4-7.3-3.2-9.6-7.9c-3.1,2.7-6.5,5-9.9,6.6c-0.9-1.2-2.3-2.6-3.6-3.5
		c4.3-1.7,8.3-4.3,11.8-7.6c-1.3-4.1-2.2-9-2.9-14.7l-6.7,0.7l-0.4-4.3l6.8-0.6c-0.3-3.9-0.6-8-0.8-12.2h4.5
		c0.1,4.1,0.3,8.1,0.7,11.8l14.5-1.5l0.4,4.2l-14.5,1.5c0.5,4.3,1.2,8.2,2.2,11.4c2.6-3.2,4.9-6.6,6.4-10.1L43,21.8z M38.6,12.2
		c-1.2-2-4.1-5-6.3-7.2l3.4-2.2c2.3,2,5.1,4.9,6.6,6.8L38.6,12.2z"/>
	<path class="st0" d="M76.4,9.8c-1,1.6-2,3.3-3.2,4.9V46h-4.8V20.8c-4.6,5.1-10.2,9.7-16.4,13c-0.7-1.2-2.1-3-3.1-4
		c9.1-4.5,17-12.1,21.6-20H50.3V5.2h41.1v4.6H76.4z M76.8,17.1c5.4,3.6,12.7,9,16.2,12.7l-3.7,3.5C86,29.6,78.9,23.9,73.4,20
		L76.8,17.1z"/>
	<path class="st0" d="M111.5,37.2c3.2-0.5,6.4-1.1,9.6-1.7l0.2,3.9c-8.4,1.6-17.5,3.3-23.8,4.5l-1-4.2c2.9-0.4,6.7-1,10.7-1.7v-7.4
		h-9.1v-3.9h9.1v-4.8h4.2v4.8h9.1v3.9h-9.1V37.2z M97,4.9h24.6v3.9h-12.8c-1.4,2.8-3.1,5.6-4.9,8l10.6-0.8c-1.1-1.5-2.1-3.1-3.2-4.4
		l3.2-1.9c2.6,3.1,5.6,7.4,7,10.2l-3.5,2.2c-0.4-0.8-0.8-1.7-1.4-2.6c-14.2,1.2-16,1.4-17.3,2c-0.3-0.9-0.9-3-1.4-4.1
		c0.8-0.2,1.5-1,2.3-2.2c0.6-0.8,2.2-3.4,3.6-6.4H97V4.9z M128.1,35h-4.2V6.2h4.2V35z M137.5,2.6v37.2c0,2.5-0.6,3.8-2.1,4.5
		c-1.6,0.7-4.2,0.8-7.8,0.8c-0.2-1.2-0.9-3.2-1.6-4.3c2.7,0.1,5.3,0.1,6.1,0c0.8,0,1.1-0.2,1.1-1.1V2.6H137.5z"/>
	<path class="st0" d="M154.8,24.5c-0.8,4.3-2.1,8.9-3.7,12.5c0.9,0.5,1.9,1.2,3.3,2.2c3.4,2,7.7,2.3,13.4,2.3
		c5.8,0,13.9-0.4,19.2-1.1c-0.5,1.2-1.2,3.4-1.3,4.6c-3.7,0.2-12.5,0.5-18,0.5c-6.3,0-10.5-0.5-14-2.5c-1.9-1.1-3.6-2.7-4.7-2.7
		c-1.1,0-2.7,3.1-4,6l-3-4.1c1.8-2.4,3.7-4.4,5.3-5.3c1.2-2.5,2.2-5.9,2.8-9h-6.2c1.2-2.8,2.7-6.7,4-10.5h-5.1v-4h10.7
		c-1.1,3.4-2.5,7.3-3.8,10.7h2.6l0.7-0.1L154.8,24.5z M148.4,11.3c-0.7-2.1-2.2-5.5-3.2-8l3.8-1.2c1.1,2.4,2.5,5.7,3.3,7.7
		L148.4,11.3z M162.7,9.2h-7.4V5.7h13c-0.5-1-1.1-1.9-1.7-2.7l3.5-1.4c1,1.2,2,2.8,2.7,4.1h13.1v3.5h-6.6l0.6,0.1
		c-0.7,1.4-1.4,2.9-2.1,4.1h6.7v20.5c0,2-0.3,3-1.7,3.6c-1.4,0.7-3.4,0.7-6.1,0.7c-0.2-1.1-0.8-2.7-1.2-3.7c1.9,0.1,3.6,0.1,4.2,0.1
		c0.6,0,0.8-0.2,0.8-0.8V16.9h-8.3v2.9h6.5v2.9h-6.5v3h4.9v8.5h-9.7v1.6h-3.2V25.7h4.7v-3h-6.4v-2.9h6.4v-2.9h-7.9V38h-4V13.4h6.1
		c-0.3-1.2-0.9-2.7-1.6-3.9L162.7,9.2z M173.5,13.4c0.7-1.2,1.4-2.9,1.9-4.2h-10c0.7,1.3,1.4,2.9,1.6,4l-0.8,0.2H173.5z M173.8,28.4
		h-6.5v3.2h6.5V28.4z"/>
	<path class="st0" d="M215.8,3.8c-0.5,0.7-1,1.4-1.5,2.2c5.9,5.8,12.4,9.4,19.5,12.2c-1.2,1-2.5,2.6-3.1,4.1c-2.5-1.2-5-2.5-7.4-3.9
		v3.2h-23.9v-2.4c-2.3,1.3-4.6,2.6-6.9,3.6c-0.8-1.2-2-2.9-3.3-4c8.9-3.5,17.8-9.6,22.7-17L215.8,3.8z M196.6,26.5h30v19.2h-4.7
		v-2.2h-20.8v2.4h-4.5V26.5z M201.1,30.5v8.9h20.8v-8.9H201.1z M221.7,17.4c-3.5-2.3-6.8-4.9-10.2-8.3c-2.8,3.1-6,5.9-9.5,8.3H221.7
		z"/>
	<path class="st0" d="M278.6,9.4c0,0,0,1.5,0,2.1c-0.7,21.6-1.2,29.1-3.2,31.5c-1.2,1.6-2.4,2-4.2,2.3c-1.7,0.2-4.5,0.1-7.2,0
		c-0.1-1.2-0.6-3.1-1.4-4.3c3.1,0.2,5.9,0.3,7.1,0.3c1,0,1.5-0.1,2-0.8c1.5-1.6,2.2-8.8,2.8-26.9h-11.3c-1.3,3.1-2.8,5.9-4.4,8.1
		c-0.7-0.7-2.4-1.9-3.5-2.5v22h-13v3.6h-4.1V9.6h5.4c0.7-2.3,1.4-5.5,1.7-7.8l4.8,0.8c-0.8,2.4-1.7,4.9-2.5,7h7.7v9.1
		c3.2-4.1,5.7-10.5,7.2-16.8l4.3,1c-0.6,2.2-1.2,4.4-2,6.5H278.6z M242.2,13.5v9.1h8.9v-9.1H242.2z M251.1,37.2V26.5h-8.9v10.6
		H251.1z M267.1,33.4c-1.3-2.9-4.5-7.6-7-11.1l3.5-2c2.5,3.3,5.8,7.9,7.2,10.7L267.1,33.4z"/>
	<path class="st0" d="M317,28.4c2.7,2.8,6.5,5.2,10.2,6.5c-1,0.8-2.3,2.4-2.9,3.5c-4.6-2-9.2-5.8-12.1-10h-14.3
		c-1.2,1.7-2.6,3.4-4.2,4.8h8.8v-3.6h4.5v3.6h9.5v3.6H307V41h16.1v3.7h-36.1V41h15.5v-4.3h-9.2v-3.2c-2.4,2.2-5.2,4-7.9,5.3
		c-0.6-1.1-1.9-2.6-2.9-3.4c3.8-1.4,7.6-4.1,10.4-7.1H283v-3.7h9.3V9.8h-7V6.2h7V2h4.5v4.2h16.3V2.1h4.6v4.1h6.9v3.6h-6.9v14.8h9
		v3.7H317z M296.7,9.8v2.7h16.3V9.8H296.7z M296.7,18.5h16.3v-2.7h-16.3V18.5z M296.7,24.7h16.3v-2.9h-16.3V24.7z"/>
	<path class="st0" d="M353.9,20.2V26h16.1v4h-16.1v10.7h18.4v4.1h-41.2v-4.1h18V30h-15.8v-4h15.8v-5.8h-10v-2.5
		c-2.3,1.2-4.6,2.2-7,3.1c-0.6-1.3-1.9-3-3-4.1c8.9-2.7,17.6-8,22.2-15.1l4.2,1.9c-0.4,0.6-0.8,1.2-1.2,1.8
		c4.7,4.7,12.8,9.3,20,11.4c-1,0.9-2.4,2.7-3.1,3.9c-2.4-0.9-4.8-2-7.2-3.3v2.9H353.9z M340.6,30.5c1.8,2.5,3.7,6,4.5,8.3l-3.9,1.7
		c-0.7-2.3-2.5-5.9-4.3-8.5L340.6,30.5z M361.8,16c-3.7-2.3-7.3-4.9-10.2-7.8c-2.8,3-6,5.6-9.6,7.8H361.8z M357.5,39.1
		c1.6-2.3,3.6-6,4.7-8.6l4.3,1.6c-1.8,3-3.9,6.3-5.6,8.4L357.5,39.1z"/>
	<path class="st0" d="M404.9,15.5c0-3.1-2.4-5.2-6.8-5.2c-3.1,0-6,1.3-8.4,4.1l-3.2-2.9c3.1-3.5,7.1-5.7,12.2-5.7
		c6.8,0,11.5,3.4,11.5,9.3c0,7.2-11,8.4-10,15.4h-4.9C394,22.5,404.9,20.5,404.9,15.5z M397.8,34.2c2.4,0,4.4,1.6,4.4,4.2
		c0,2.5-1.9,4.2-4.4,4.2c-2.4,0-4.3-1.7-4.3-4.2C393.5,35.8,395.4,34.2,397.8,34.2z"/>
</g>
<g>
	<path class="st1" d="M32.6,95.4c-0.3,0.7-0.7,1.3-1.1,2h35.3v39.9H55.4v-2.7h-25v2.7H19.5v-24.1c-3.3,3.2-7,6-11.2,8.3
		c-1.6-2.7-4.8-6.9-7-9c7.9-4.1,13.9-10.1,18.3-17.2H4.1v-8.8h20.3c0.3-0.6,0.5-1.3,0.9-2H9.4v-8.4H28l0.6-2.1
		c-6.2,0.2-12.2,0.2-17.9,0.1c-0.2-2.4-1.2-6.2-2.1-8.3c19.2,0.1,41.1-0.8,54.8-2.7l6.4,8c-8.5,1.2-18.5,2.1-28.9,2.6l-0.7,2.5h29.6
		v8.4H37.4l-0.8,2h37.3v8.8H32.6z M55.4,105.8h-25v2.2h25V105.8z M30.3,117.1h25v-2.2h-25V117.1z M55.4,126.3v-2.3h-25v2.3H55.4z"/>
	<path class="st1" d="M79.3,121.8c14.5-13.2,24.3-23.7,24.3-32.1c0-5.3-3-8.2-7.6-8.2c-4,0-7.1,2.7-9.8,5.6l-7.6-7.5
		c5.7-6,11-9,19.3-9c11.2,0,19,7.2,19,18.3c0,10-8.6,21-17.5,30c2.9-0.4,6.9-0.8,9.4-0.8h10.7v11.7H79.3V121.8z"/>
	<path class="st1" d="M124.8,100.4c0-20,8.3-29.8,20.5-29.8c12.2,0,20.6,10,20.6,29.8c0,20-8.3,30.4-20.6,30.4
		C133.1,130.8,124.8,120.3,124.8,100.4z M152.8,100.4c0-15.8-3.4-19.1-7.5-19.1c-4.1,0-7.4,3.3-7.4,19.1c0,15.9,3.3,19.7,7.4,19.7
		C149.4,120,152.8,116.3,152.8,100.4z"/>
	<path class="st1" d="M242.3,121.1h-25.9v16h-11.7v-16H170v-10.9h12.1V92.7c-0.9,1.1-1.9,2.2-2.8,3.1c-2.2-2-7-5.8-9.8-7.4
		c6.8-5.9,12.6-15.8,15.8-25.7l11.6,3c-0.6,1.8-1.3,3.7-2.1,5.5h43V82h-21.3v8h19.4v10.5h-19.4v9.7h25.9V121.1z M189.3,82
		c-1.6,2.9-3.4,5.5-5.2,8h20.7v-8H189.3z M204.8,110.2v-9.7h-11.3v9.7H204.8z"/>
	<path class="st1" d="M313.3,129.9c0.2,0,0.3,0,0.4-0.2c0.2-0.2,0.2-0.5,0.4-1.4c0.2-0.9,0.2-2.9,0.2-5.3c1.3,1.1,3.6,2.3,5.4,2.9
		c-0.2,2.7-0.5,5.8-0.9,7c-0.5,1.3-1.1,2.3-2.1,2.9c-0.8,0.5-2.1,0.9-3.2,0.9h-2.9c-1.6,0-3.3-0.5-4.3-1.7c-1.1-1.3-1.5-2.8-1.5-7.9
		v-2.9l-1.9,3.5c-0.5-0.6-1.2-1.2-2-2c-0.6,4.3-1.7,8.4-3.7,11.7c-1.2-1.2-4.4-3.3-6.1-4c0.3-0.5,0.6-1.1,0.9-1.6l-5.1,3.6
		c-1-1.7-3.3-4.4-5.1-6.5c-2.2,3-6,6.6-8.8,8.3c-0.9-0.9-2.5-2.1-4-3.1c-0.5,0.6-1,1.2-1.8,1.6c-2.1,1.2-4.9,1.3-8.6,1.3
		c-0.2-2.2-1.2-5.3-2.1-7.3c1.8,0.1,3.8,0.1,4.4,0c0.7,0,0.9-0.2,0.9-0.9v-4.4c-1.6,0.5-3,1-4.8,1.6l-1.2-3.3
		c-0.8,5-2.3,10.1-5.1,13.9c-1.2-1.2-4.4-3.4-6.2-4.1c4.4-5.9,4.8-13.8,4.8-20v-12.4H270v28.8c0,0.7,0,1.3-0.1,1.9
		c1.8-1.4,3.5-3.2,4.7-4.8h-2.4v-25.9h18.8v13.7l1.6-2.7l2.2,1.6v-5.1h-2.3v-7.4h20.2V127c0,1.4,0,2.3,0.1,2.6
		c0,0.2,0.2,0.3,0.4,0.3H313.3z M269.5,83.1c-10.8,0-13.9-2.3-14.1-8.8h-10.1v-7.2h31.7c-0.4-1-0.9-2.1-1.2-3l12.1-1.8
		c0.8,1.4,1.6,3.2,2.3,4.8h28.9v7.2h-54.7c0.2,1.5,1.1,1.9,5.1,1.9h27.5c4.9,0,12.9-0.3,15.8-0.9c0.3,2.7,0.7,5.1,1,6.9
		c-2.7,0.6-9.5,0.8-15.1,0.8H269.5z M256.2,84.7h52.7v13.8h-52.7V84.7z M259.8,117.1c-0.8-0.5-2-1.3-3.2-1.9c-0.1,1.5-0.2,3-0.3,4.6
		c1.7-0.2,3.5-0.5,5.6-0.8v-5.7L259.8,117.1z M256.6,106.9v4.6l1.2-1.9c1.3,0.5,3,1.2,4.1,1.9v-4.5H256.6z M266.1,92.4h32.1v-1.7
		h-32.1V92.4z M281.7,128.5l3.9-2.5h-8.7L281.7,128.5z M279.2,107.1h4.4v-1.6h-4.4V107.1z M279.2,113.8h4.4v-1.6h-4.4V113.8z
		 M279.2,120.7h4.4v-1.8h-4.4V120.7z M288.4,126c1.5,1.5,3.1,3.3,4.1,4.7c1.3-3.4,1.9-7.3,2.1-10.8c-1.2-1.1-2.5-2.1-3.7-3v9.2
		H288.4z M301.7,115c0,1,0,2.1-0.1,3.2c1.2,1,2.3,2,3.3,2.9v-13.6h-3.2V115z"/>
	<path class="st1" d="M388.4,98.7c-2.8,2.2-5.9,4.4-9,6.5c2.8,8.4,8.3,15.7,16.8,19.2c-2.5,2.1-5.8,6.4-7.4,9.3
		c-9-4.5-14.7-12.5-18.3-22.8l-1.6,0.9c1.9,9,0.1,17.6-3.8,21.1c-2.9,3.1-5.6,4.1-10,4.1c-1.8,0.1-4,0-6.2-0.1
		c-0.2-3-1-7.2-2.9-10.2c-6,2.9-12.4,5.5-18.1,7.3c-1.2-2.8-3.7-6.9-5.9-9.4c12.3-2.7,27.1-9,34.9-15.3c-0.2-0.5-0.4-1.1-0.6-1.6
		c-7.9,4.8-19,9.6-27.8,12.2c-1.2-2.5-3.5-6.3-5.5-8.7c9.6-1.9,22.2-6.4,28.9-10.7c-0.4-0.5-0.8-0.9-1.2-1.4
		c-6.6,3.3-14,5.9-21.1,7.6c-1.1-2.2-3.9-6.7-5.7-8.8c8.2-1.5,16.6-3.8,23.3-7.1h-10.8v-9.5h43.2V91h-16.2c-1.2,1.2-2.7,2.3-4.2,3.3
		c2.6,2.5,4.6,5.2,6.2,8.2c4.9-3.5,10-7.6,13.6-11.2L388.4,98.7z M335.1,87.5H324V68.8h27.8c-0.5-1.2-0.9-2.3-1.4-3.4l12.1-3.4
		c1.1,2,2.3,4.5,3.1,6.8h27.1v18.7h-11.6V79h-46.1V87.5z M356.7,124.7c0.8-0.9,1.4-2.6,1.6-4.8c-3.5,2.3-7.5,4.5-11.6,6.6
		c2.4,0.2,4.4,0.3,6.2,0.3C354.6,126.7,355.8,126.4,356.7,124.7z"/>
	<path class="st1" d="M36.9,172.9c-0.3,8.7-1.7,19.3-6.9,29.5c3.9,3.6,7.4,6.9,9.9,9.8l-8.5,8.6c-2-2.5-4.8-5.4-7.9-8.6
		c-3.6,4.3-8.2,8.3-14,11.7c-1.7-2.6-5.5-6.7-8.1-8.7c5.8-3.3,10.2-7.1,13.7-11.3c-4.3-4-8.6-8-12.2-11.4c1.4-4.9,2.9-11,4.1-17.6
		l-4.4,0.3L1.6,164l7.3-0.3c0.6-4.5,1.1-9,1.3-13.2l12.1,0.7c-0.4,3.8-0.9,7.9-1.6,11.9l5.1-0.2v-3.6H37v3l2.3-0.2l-0.1,10.6
		L36.9,172.9z M21,194.4c3.2-7.2,4.4-14.6,4.7-20.7l-6.8,0.4c-1,5.5-2.1,10.8-3.3,15.6L21,194.4z M72.5,157.8v62.9H61.2v-4.5h-9.9
		v5.8H40.6v-64.1H72.5z M61.2,205.5v-37h-9.9v37H61.2z"/>
	<path class="st1" d="M152.1,167.1H148v44.3c0,6.1-1.2,9-4.8,10.8c-3.7,1.7-9,2.1-16.1,2c-0.4-3.2-2.2-8.3-3.7-11.5
		c4.4,0.2,9.7,0.2,11.2,0.2c1.5,0,2-0.4,2-1.8v-44.1H104v-10.8c-1.4,3.5-3.1,7.1-4.9,10.5v57H87.8v-39.4c-1.5,1.9-3,3.6-4.5,5.1
		c-0.9-2.7-4-9-5.9-11.9c6.8-6.6,13.4-17.3,17.2-27.9l10.6,3.4c-0.4,1-0.8,2-1.2,3h48.1V167.1z M114.7,203.3v4.9h-10.6v-34.1h27
		v29.2H114.7z M114.7,183.8v9.8h5.9v-9.8H114.7z"/>
	<path class="st1" d="M188.8,151h10.4v34c0,15.7-2,30.1-17.1,38.8c-1.7-2.4-5.6-6.2-8-8c7.7-4.1,11.5-9.8,13.3-16.2
		c-2.3,1.9-4.8,3.8-6.9,5.6l-5.7-9.5c3.4-2,8.6-5.3,13.6-8.7l0.5,1c0-1,0-2,0-3v-7.3l-4.4,2.7c-1.2-3.5-3.7-8.7-6.2-13.1v7.5h-5.8
		v7.6l5.3-2l2.1,9.9c-2.4,0.9-4.9,2-7.4,3v19.3c0,4.9-0.8,7.8-3.4,9.5c-2.7,1.8-6.2,2.2-11.4,2.2c-0.2-2.8-1.5-7.5-2.8-10.5
		c2.5,0.2,5.1,0.2,6,0.1c0.9,0,1.2-0.2,1.2-1.2v-15.4l-6,2.3l-2.7-10.8c2.5-0.7,5.5-1.6,8.7-2.7v-11.2h-7.6v-10.4h7.6v-14.2h10.4
		v14.2h4.9l7.8-4.3c1.2,1.9,2.4,4,3.6,6.1V151z M217.5,213.4c1.3,0,1.6-2.2,1.9-9.6c2.4,1.8,6.5,3.7,9.4,4.4
		c-1,10.9-3.7,15.3-10.3,15.3h-6.1c-7.9,0-10.1-3.3-10.1-14.6V151h10.7v19.6c1.7-3.8,3.4-8.1,4.3-11.7l10.1,5.1
		c-3.4,5.8-6.6,12.2-9.3,16.4l-5.1-2.8v8.2l2.7-2.7c4.9,4.1,10.5,9.8,13.3,13.7l-7.2,7.8c-1.9-2.9-5.3-6.9-8.8-10.6v15
		c0,3.9,0.2,4.4,1.5,4.4H217.5z"/>
	<path class="st1" d="M290.6,212.1c5.5-0.4,10.9-0.9,15-1.6c-1.2,3-3.1,8.6-3.3,11.5c-6.8,0.5-20,1-29.1,1c-10.5,0-16.9-0.9-22.5-4
		c-3.3-1.9-6-4.4-7.6-4.4c-1.9,0-4.7,5.5-6.5,9.8l-7.5-10.9c1.9-2.1,3.8-3.8,5.8-5.2c2.7-3.8,4.7-8.8,6-13.7h-9.2
		c1.6-4.6,3.3-10.6,4.8-16.6h-5.8V168h19c-1.3,5.4-2.9,11.4-4.4,16.8l0.5-0.1l6.4,2.6c-1,6.6-2.7,13.3-5.1,19c1.2,0.8,2.7,1.8,4.7,3
		c2.3,1.4,5,2.3,8,2.8c-2.1-2-5.4-4.6-7.5-5.9c4.1-1,8.3-2.6,11.2-4.2h-11.5v-8.2h11.4v-3.4h-8.7v-8.1h8.7v-3.2h10.3v3.2h6.6v-3.2
		h10.5v3.2h9v8.1h-9v3.4h11.9v8.2H290c3.9,2,7.9,4.4,10.4,6L290.6,212.1z M238.8,166.8c-0.9-3.7-2.8-9.5-4.1-13.9l10.3-2.8
		c1.4,4.3,3.3,9.8,4.4,13.3L238.8,166.8z M276.1,168.9c-0.8,2.3-1.5,5.9-1.7,7.8c-15.5,2.3-18.4,2.8-20,3.7
		c-0.5-2.2-2.2-6.2-3.5-8.1c1.4-0.8,2.8-2.3,2.8-5.5v-14.4h22.8v15.9h-14.1v2.4L276.1,168.9z M275.8,203.8c-3.5,3.3-9.1,6.4-14,8.4
		c3.5,0.5,7.5,0.5,11.9,0.5c4.4,0,10.4-0.2,16.4-0.6c-2.4-2-6.9-5.1-10.9-7.3l4.6-3H270L275.8,203.8z M262.3,159.1v2.5h4.8v-2.5
		H262.3z M273.8,193.6h6.6v-3.4h-6.6V193.6z M288.4,177.9c-8.2,0-10.1-3-10.1-10.7v-14.8h23.1v15.9h-14.3c0.1,1.4,0.5,2,1.9,2h6.9
		c1.6,0,4.3-0.2,5.6-0.5c0.2,2.3,0.4,5.5,0.7,7.5c-1.3,0.5-3.8,0.6-6.1,0.6H288.4z M287.1,159.1v2.5h4.8v-2.5H287.1z"/>
	<path class="st1" d="M334,209.1c0-4.8,3.9-8.6,9.2-8.6s9.2,3.7,9.2,8.6c0,5-3.9,8.6-9.2,8.6S334,214.1,334,209.1z M335.2,171.3
		l-0.5-12.9h17.1l-0.5,12.9l-3.2,24.6h-9.8L335.2,171.3z"/>
</g>
</svg>
