<?xml version="1.0" encoding="utf-8"?>
<!-- Generator: Adobe Illustrator 23.0.1, SVG Export Plug-In . SVG Version: 6.00 Build 0)  -->
<svg version="1.1" id="分離模式" xmlns="http://www.w3.org/2000/svg" xmlns:xlink="http://www.w3.org/1999/xlink" x="0px"
	 y="0px" viewBox="0 0 233.1 404.5" style="enable-background:new 0 0 233.1 404.5;" xml:space="preserve">
<style type="text/css">
	.st0{fill:#FFA898;}
	.st1{fill:#4E2C42;}
	.st2{fill:#C62D38;}
	.st3{fill:#B02733;}
	.st4{fill:#6E6284;}
	.st5{fill:#4C273C;}
	.st6{fill:#642930;}
	.st7{fill:#391A31;}
	.st8{fill:#F3F0F3;}
	.st9{fill:#F48989;}
	.st10{fill:#895152;}
	.st11{fill:#FDA44C;}
	.st12{fill:#E9E6EC;}
	.st13{clip-path:url(#SVGID_2_);}
	.st14{fill:#231815;}
	.st15{clip-path:url(#SVGID_4_);}
	.st16{fill:#D9CED6;}
	.st17{fill:#80342C;}
	.st18{fill:#532442;}
	.st19{fill:#C74038;}
	.st20{fill:#9F462C;}
</style>
<g>
	<g>
		<g>
			<path class="st0" d="M222.7,14.8c-0.5,0-1-0.1-1.3-0.5c-0.4-0.3-0.6-0.8-0.6-1.3l0-11.1c0-1.1-0.9-1.9-1.9-1.9
				c-1.1,0-1.9,0.9-1.9,1.9l0,4.9c0,4.3-0.4,8.8-1.1,13c-0.3,1.6-0.3,3.5-0.4,5.6c-0.4,6.3,3.1,11.7,7.8,12.2
				c4.8,0.5,9-4.2,9.5-10.5C233,23.4,235.5,13.8,222.7,14.8z"/>
		</g>
		<g>
			<path class="st0" d="M218.8,29.2c0.2-2.8,2.6-5,5.5-4.9c2.8,0.2,5,2.6,4.9,5.5l-0.3,5.7l-10.3-0.6L218.8,29.2z"/>
		</g>
		<g>
			<path class="st1" d="M213.7,102.1l-45.1,22.7c-1.1,0.5-2.3,0.8-3.5,0.7c-2.5-0.1-4.7-1.6-5.8-3.8c-1.7-3.4-0.3-7.5,3-9.3
				l45.1-22.7c3.9-2,6.4-5.9,6.7-10.2l2.5-43.6c0-0.6,0.6-1.1,1.2-1.1l0.6,0l10.3,0.6l0.6,0c0.6,0,1.1,0.6,1.1,1.2L228,80.3
				C227.5,89.6,222,97.9,213.7,102.1z"/>
		</g>
	</g>
	<g>
		<path class="st2" d="M101.4,113.9c-57.8,32.4-68.6,113.3-74,125.3C17.7,261.1,0.1,252,0.1,252c-0.7,20.2,5.7,33,26.1,35.5
			c7.7,0.9,9.8,0.3,14.2,2.2c11.2,4.9-2.1,15.1,13.3,24.7c12.9,8.1,35.4-0.1,44.3-1.2c22.8-2.8,20.4,12.7,20.4,12.7
			c15.5-13,25.1-26.2,30.7-39.9c11.4-27.9,3.1-50.3,1.6-84.8c-1-21.7,0.4-52.3,11.7-90.1c-8.4-2.4-22.9-5.3-40.5-2.7
			C120.8,108.6,109.2,109.5,101.4,113.9z"/>
	</g>
	<g>
		<path class="st3" d="M37.9,213.3c5.3-17.8,27.9-71.4,67.4-88.1c39.5-16.7,46.8,98.8,46.8,98.8s-25.3-66.9-41.1-65.8
			C95,159.3,59.6,178.8,37.9,213.3z"/>
	</g>
	<g>
		<g>
			<g>
				<path class="st4" d="M146,386.3c-0.3,0-0.7-0.2-0.9-0.4c-0.2-0.3-0.3-0.6-0.2-0.9c11.7-62.6,12.2-109.2,2.2-159.3
					c-0.5-2.4,0-4.9,1.4-6.9c1.4-2,3.4-3.4,5.8-3.9c0.6-0.1,1.2-0.2,1.8-0.2c4.4,0,8.1,3.1,9,7.4c10.4,51.9,10,99.8-1.6,163.3
					c-0.1,0.5-0.6,0.9-1.1,0.9H161h-14H146z"/>
			</g>
			<g>
				<path class="st5" d="M158.9,395.6c-0.7,3.3-3.5,5.6-6.8,5.6c-0.4,0-0.9,0-1.4-0.1c-3.7-0.7-6.2-4.4-5.4-8.1
					c0.6-2.8,1.1-3.9,1.6-6.6h14C160.4,390,159.6,391.9,158.9,395.6z"/>
			</g>
		</g>
		<g>
			<path class="st6" d="M144.5,394c0.1-0.2,0.3-0.3,0.4-0.3c0.2,0,0.4,0.1,0.4,0.3c0.3,0.7,1,1.5,2.6,1.5c3.2,0,2.1-6.8,12.2-6.8
				c5.5,1.9,9.6,6.3,11.8,11.3c0.4,1,0.4,2.1-0.1,3c-0.5,0.9-1.4,1.5-2.3,1.5h-22.3c-1.2,0-2.4-0.6-3.2-1.7c-0.8-1.1-1.2-2.5-0.9-4
				C143.4,397.3,143.8,395.6,144.5,394z"/>
		</g>
	</g>
	<g>
		<g>
			<g>
				<path class="st4" d="M113.6,386.3c-0.3,0-0.7-0.2-0.9-0.4c-0.2-0.3-0.3-0.6-0.2-0.9c11.7-62.6,12.2-109.2,2.2-159.3
					c-0.5-2.4,0-4.9,1.4-6.9c1.4-2,3.4-3.4,5.8-3.9c0.6-0.1,1.2-0.2,1.8-0.2c4.4,0,8.2,3.1,9,7.4c10.4,51.9,10,99.8-1.6,163.3
					c-0.1,0.5-0.6,0.9-1.1,0.9h-1.4h-14H113.6z"/>
			</g>
			<g>
				<path class="st5" d="M126.4,395.6c-0.6,3.3-3.5,5.6-6.8,5.6c-0.4,0-0.9,0-1.3-0.1c-3.7-0.7-6.2-4.4-5.4-8.1
					c0.6-2.8,1.1-3.9,1.6-6.6h14C127.9,390,127.2,391.9,126.4,395.6z"/>
			</g>
		</g>
		<g>
			<path class="st6" d="M112.1,394c0.1-0.2,0.3-0.3,0.4-0.3c0.2,0,0.4,0.1,0.4,0.3c0.3,0.7,1,1.5,2.6,1.5c3.2,0,2.1-6.8,12.2-6.8
				c5.5,1.9,9.6,6.3,11.8,11.3c0.4,1,0.4,2.1-0.1,3c-0.5,0.9-1.4,1.5-2.3,1.5h-22.3c-1.2,0-2.4-0.6-3.2-1.7c-0.8-1.1-1.2-2.5-0.9-4
				C111,397.3,111.4,395.6,112.1,394z"/>
		</g>
	</g>
	<g>
		<g>
			<path class="st7" d="M154.7,109.9c-4.3-2-10.1-2.8-22.1-2.8c-6.5,0-10.4,0.9-12.8,2.2c0,0-2.2,21.3,17.4,21.3
				C156.9,130.7,154.7,109.9,154.7,109.9z"/>
		</g>
		<g>
			<path class="st8" d="M126.7,108.9c1.7-0.2,3.5-0.4,5.7-0.4c7.7-0.2,12.9,0.1,16.7,0.7l0,0c0,0,0.1,16-10.9,16
				C127.4,125.1,126.8,109,126.7,108.9z"/>
		</g>
	</g>
	<g>
		<g>
			<path class="st0" d="M141.6,126.9c3.6-1.5,6-5.2,5.5-9.3l-3.5-33.1c-0.5-5-5-8.6-9.9-8c-5,0.5-8.6,5-8,9.9l3.5,33.1
				c0.5,5,5,8.6,9.9,8C139.9,127.4,140.8,127.2,141.6,126.9z"/>
		</g>
		<g>
			<path class="st9" d="M127.1,100.5l-1.5-14.2c-0.5-5,3.1-9.4,8-9.9c5-0.5,9.4,3.1,9.9,8l2,19.1c-3.3,0.2-6.9-0.1-10.7-0.8
				C132.3,102.3,129.7,101.5,127.1,100.5z"/>
		</g>
	</g>
	<g>
		<g>
			<path class="st4" d="M165.4,203.6c0.4,2,0.6,4.1,0.6,6.1v0.4c0,7.2,0,14.1-3.5,19.3c-3.9,5.8-11.5,8.5-23.8,8.5
				c-9.8,0-16.9-2.9-21.1-8.6c-6.6-8.9-3.7-21-2.6-24.4c0.5-1.7,1.2-3.4,1.9-5.1c0.1-0.1,0.1-0.2,0.2-0.4c0.2-0.4,0.6-0.7,1.1-0.7
				h45.5c0.6,0,1,0.4,1.1,1C164.9,200.9,165.2,202.3,165.4,203.6z"/>
		</g>
		<g>
			<g>
				<path class="st10" d="M146.8,208c-0.3,0-0.5-0.2-0.5-0.5v-5.2c0-0.3,0.2-0.5,0.5-0.5h5.1c0.3,0,0.5,0.2,0.5,0.5v5.2
					c0,0.3-0.2,0.5-0.5,0.5H146.8z"/>
			</g>
			<g>
				<path class="st10" d="M154.2,202.3c0-0.2,0-0.4-0.1-0.6h5.9v6.5h-5.9c0.1-0.2,0.1-0.4,0.1-0.6V202.3z"/>
			</g>
			<g>
				<polygon class="st10" points="134.5,208.2 119.9,208.2 121.4,201.6 134.5,201.6 				"/>
			</g>
			<g>
				<path class="st10" d="M117.5,208.2h-3.3c0.2-1.1,0.4-2,0.6-2.7c0.1-0.2,0.1-0.5,0.2-0.7c0.2-0.7,0.4-1.3,0.7-2
					c0.1-0.4,0.3-0.8,0.5-1.2l0,0l0,0h2.9L117.5,208.2z"/>
			</g>
			<g>
				<path class="st10" d="M144.6,207.5c0,0.2,0,0.4,0.1,0.6h-7.4v-6.5h7.4c-0.1,0.2-0.1,0.4-0.1,0.6V207.5z"/>
			</g>
			<g>
				<path class="st10" d="M162.3,201.6h2.8c0.1,0.6,0.2,1.3,0.4,1.9c0.1,0.7,0.2,1.4,0.3,2c0,0.2,0,0.3,0.1,0.5
					c0.1,0.7,0.1,1.4,0.2,2.1v0l0,0h-3.7V201.6z"/>
			</g>
			<g>
				<path class="st11" d="M144.7,208.2c-0.1-0.2-0.1-0.4-0.1-0.6v-5.2c0-0.2,0-0.4,0.1-0.6c0.3-0.9,1.1-1.6,2.1-1.6h5.1
					c1,0,1.8,0.7,2.1,1.6c0.1,0.2,0.1,0.4,0.1,0.6v5.2c0,0.2,0,0.4-0.1,0.6c-0.3,0.9-1.1,1.6-2.1,1.6h-5.1
					C145.8,209.7,145,209.1,144.7,208.2z M152.5,207.5v-5.2c0-0.3-0.2-0.5-0.5-0.5h-5.1c-0.3,0-0.5,0.2-0.5,0.5v5.2
					c0,0.3,0.2,0.5,0.5,0.5h5.1C152.3,208,152.5,207.8,152.5,207.5z"/>
			</g>
		</g>
		<g>
			<g>
				<path class="st0" d="M139.9,195.7c0-0.3,0-0.5,0-0.8C139.9,195.1,139.9,195.4,139.9,195.7z"/>
			</g>
			<g>
				<path class="st0" d="M137.9,144.3c-0.1-0.3-0.1-0.6-0.2-0.9C137.7,143.7,137.8,144,137.9,144.3z"/>
			</g>
			<g>
				<path class="st0" d="M135.8,135.4c0-0.1-0.1-0.2-0.1-0.3C135.7,135.2,135.8,135.3,135.8,135.4z"/>
			</g>
			<g>
				<path class="st0" d="M136.6,138.6c-0.1-0.3-0.1-0.6-0.2-0.8C136.5,138,136.6,138.3,136.6,138.6z"/>
			</g>
			<g>
				<path class="st0" d="M137.3,141.4c-0.1-0.3-0.1-0.6-0.2-1C137.2,140.8,137.2,141.1,137.3,141.4z"/>
			</g>
			<g>
				<path class="st0" d="M158.8,196.8c0,0.5-0.1,1-0.1,1.4C158.7,197.8,158.7,197.3,158.8,196.8z"/>
			</g>
			<g>
				<path class="st0" d="M159.1,190.5c0,0.7-0.1,1.3-0.1,2C159,191.8,159.1,191.1,159.1,190.5z"/>
			</g>
			<g>
				<path class="st0" d="M159,193c0,0.5-0.1,0.9-0.1,1.4C158.9,194,159,193.5,159,193z"/>
			</g>
			<g>
				<path class="st0" d="M158.9,195c0,0.5-0.1,1-0.1,1.5C158.8,196,158.8,195.5,158.9,195z"/>
			</g>
			<g>
				<path class="st0" d="M139.9,197.3c0-0.2,0-0.3,0-0.5C139.9,196.9,139.9,197.1,139.9,197.3z"/>
			</g>
			<g>
				<path class="st0" d="M126.4,113.2c0.4,0.7,0.8,1.5,1.3,2.4c1.2,2.3,2.8,5.5,4.4,9.3c1.5-0.9,2.8-2,4-3.3c0.3-0.3,0.6-0.6,0.9-1
					c0.5-0.6,1-1.3,1.6-2c0.3-0.4,0.7-0.7,1.2-0.8c0.2-0.1,0.5-0.1,0.7,0c0.2,0,0.5,0.1,0.7,0.2l6.6,3.8l5.7-4
					c0.2-0.2,0.5-0.3,0.7-0.3c0.3-0.1,0.7-0.1,1,0c0.3,0.1,0.6,0.3,0.9,0.5c0.2,0.2,0.3,0.4,0.5,0.5c-0.2-0.6-0.5-1.3-0.7-1.9
					c-1.1-2.5-2.4-4.4-3.8-5.8c-8.2-1.2-17.6-1.5-26.4-0.7C125.4,111,125.6,111.9,126.4,113.2z"/>
			</g>
			<g>
				<path class="st0" d="M134.9,132.5c0-0.1-0.1-0.3-0.1-0.4C134.8,132.3,134.9,132.4,134.9,132.5z"/>
			</g>
			<g>
				<path class="st0" d="M139.9,193c0,0.3,0,0.7,0,1C139.9,193.6,139.9,193.3,139.9,193z"/>
			</g>
			<g>
				<path class="st0" d="M156.5,118.8c1.3,3.7,2.3,8.1,3,13.1C158.8,126.9,157.9,122.4,156.5,118.8z"/>
			</g>
			<g>
				<path class="st0" d="M133.2,127.6c-0.1-0.1-0.1-0.3-0.2-0.4C133,127.3,133.1,127.4,133.2,127.6z"/>
			</g>
			<g>
				<path class="st0" d="M134.1,130c-0.1-0.2-0.1-0.4-0.2-0.6C133.9,129.7,134,129.9,134.1,130z"/>
			</g>
			<g>
				<path class="st0" d="M160.5,147.2c-0.1-5.4-0.4-10.6-1-15.4l0.9,10.1C160.5,143.7,160.5,145.5,160.5,147.2z"/>
			</g>
			<path class="st12" d="M160.5,147.2c0-1.8-0.1-3.5-0.2-5.2l-0.9-10.1c0,0,0,0,0,0c-0.7-5-1.6-9.4-3-13.1l0,0
				c-0.2-0.2-0.3-0.4-0.5-0.5c-0.2-0.3-0.5-0.4-0.9-0.5c-0.3-0.1-0.7-0.1-1,0c-0.3,0-0.5,0.1-0.7,0.3l-5.7,4l-6.6-3.8
				c-0.2-0.1-0.5-0.2-0.7-0.2c-0.2,0-0.5,0-0.7,0c-0.5,0.1-0.9,0.4-1.2,0.8c-0.5,0.7-1,1.4-1.6,2c-0.3,0.3-0.6,0.6-0.9,1
				c-1.2,1.3-2.5,2.3-4,3.3c0.3,0.7,0.6,1.4,0.9,2.2c0.1,0.1,0.1,0.3,0.2,0.4c0.2,0.6,0.5,1.3,0.7,1.9c0.1,0.2,0.1,0.4,0.2,0.6
				c0.2,0.7,0.5,1.4,0.7,2.1c0,0.1,0.1,0.3,0.1,0.4c0.3,0.9,0.5,1.7,0.8,2.6c0,0.1,0.1,0.2,0.1,0.3c0.2,0.8,0.4,1.5,0.6,2.3
				c0.1,0.3,0.1,0.6,0.2,0.8c0.2,0.6,0.3,1.2,0.4,1.9c0.1,0.3,0.1,0.6,0.2,1c0.1,0.6,0.3,1.3,0.4,1.9c0.1,0.3,0.1,0.6,0.2,0.9
				c0.2,0.9,0.3,1.9,0.5,2.9c1.3,9.4,1.6,28.5,1.6,43.9v0c0,0.6,0,1.3,0,1.9c0,0.3,0,0.7,0,1c0,0.3,0,0.6,0,0.9c0,0.3,0,0.5,0,0.8
				c0,0.4,0,0.7,0,1.1c0,0.2,0,0.3,0,0.5c0,0.4,0,0.9,0,1.3c0,0,0,0,0,0.1h18.8c0-0.1,0-0.3,0-0.4c0-0.5,0.1-0.9,0.1-1.4
				c0-0.1,0-0.2,0-0.3c0-0.5,0.1-1,0.1-1.5c0-0.2,0-0.4,0-0.6c0-0.5,0.1-0.9,0.1-1.4c0-0.2,0-0.4,0-0.5c0-0.7,0.1-1.3,0.1-2v0
				C159.9,176.4,160.7,159.4,160.5,147.2z"/>
			<g>
				<defs>
					<path id="SVGID_1_" d="M160.5,147.2c0-1.8-0.1-3.5-0.2-5.2l-0.9-10.1c0,0,0,0,0,0c-0.7-5-1.6-9.4-3-13.1l0,0
						c-0.2-0.2-0.3-0.4-0.5-0.5c-0.2-0.3-0.5-0.4-0.9-0.5c-0.3-0.1-0.7-0.1-1,0c-0.3,0-0.5,0.1-0.7,0.3l-5.7,4l-6.6-3.8
						c-0.2-0.1-0.5-0.2-0.7-0.2c-0.2,0-0.5,0-0.7,0c-0.5,0.1-0.9,0.4-1.2,0.8c-0.5,0.7-1,1.4-1.6,2c-0.3,0.3-0.6,0.6-0.9,1
						c-1.2,1.3-2.5,2.3-4,3.3c0.3,0.7,0.6,1.4,0.9,2.2c0.1,0.1,0.1,0.3,0.2,0.4c0.2,0.6,0.5,1.3,0.7,1.9c0.1,0.2,0.1,0.4,0.2,0.6
						c0.2,0.7,0.5,1.4,0.7,2.1c0,0.1,0.1,0.3,0.1,0.4c0.3,0.9,0.5,1.7,0.8,2.6c0,0.1,0.1,0.2,0.1,0.3c0.2,0.8,0.4,1.5,0.6,2.3
						c0.1,0.3,0.1,0.6,0.2,0.8c0.2,0.6,0.3,1.2,0.4,1.9c0.1,0.3,0.1,0.6,0.2,1c0.1,0.6,0.3,1.3,0.4,1.9c0.1,0.3,0.1,0.6,0.2,0.9
						c0.2,0.9,0.3,1.9,0.5,2.9c1.3,9.4,1.6,28.5,1.6,43.9v0c0,0.6,0,1.3,0,1.9c0,0.3,0,0.7,0,1c0,0.3,0,0.6,0,0.9c0,0.3,0,0.5,0,0.8
						c0,0.4,0,0.7,0,1.1c0,0.2,0,0.3,0,0.5c0,0.4,0,0.9,0,1.3c0,0,0,0,0,0.1h18.8c0-0.1,0-0.3,0-0.4c0-0.5,0.1-0.9,0.1-1.4
						c0-0.1,0-0.2,0-0.3c0-0.5,0.1-1,0.1-1.5c0-0.2,0-0.4,0-0.6c0-0.5,0.1-0.9,0.1-1.4c0-0.2,0-0.4,0-0.5c0-0.7,0.1-1.3,0.1-2v0
						C159.9,176.4,160.6,159.4,160.5,147.2z"/>
				</defs>
				<clipPath id="SVGID_2_">
					<use xlink:href="#SVGID_1_"  style="overflow:visible;"/>
				</clipPath>
				<g class="st13">
					<path class="st14" d="M128.6,147.5c0-0.1-0.1-0.2-0.2-0.3c-0.1-0.1-0.2-0.1-0.4-0.1l-0.2,0c-0.1,0-0.1,0-0.1,0.1l0,0.9l0.3,0
						c0.3,0,0.4-0.1,0.4-0.3l0.1,0l0,0.8l-0.1,0c-0.1-0.3-0.1-0.3-0.4-0.3l-0.3,0l0,0.6c0,0.3,0,0.4,0.4,0.4l0,0.1l-1.1,0.1l0-0.1
						c0.3,0,0.3-0.1,0.3-0.4l-0.1-1.5c0-0.3-0.1-0.4-0.3-0.4l0-0.1l1.8-0.1c0,0.1,0,0.4,0.1,0.6L128.6,147.5z M131.5,149.2
						c0,0-0.1,0-0.1,0c-0.4,0-0.6-0.1-0.7-0.3c-0.1-0.2-0.2-0.4-0.4-0.6c-0.1-0.1-0.1-0.2-0.3-0.1l-0.1,0l0,0.6
						c0,0.3,0.1,0.3,0.3,0.4l0,0.1l-1.1,0.1l0-0.1c0.3,0,0.3-0.1,0.3-0.4l-0.1-1.5c0-0.3-0.1-0.3-0.3-0.4l0-0.1l1-0.1
						c0.3,0,0.5,0,0.7,0.1c0.2,0.1,0.3,0.3,0.3,0.5c0,0.3-0.2,0.5-0.5,0.7c0.1,0.1,0.2,0.4,0.4,0.5c0.1,0.2,0.2,0.3,0.3,0.4
						c0.1,0.1,0.2,0.1,0.3,0.2L131.5,149.2z M130,148.1c0.2,0,0.3,0,0.4-0.1c0.1-0.1,0.2-0.3,0.2-0.5c0-0.4-0.3-0.6-0.5-0.5
						c-0.1,0-0.2,0-0.2,0c0,0,0,0.1,0,0.2l0,0.9L130,148.1z M133.2,149.1l0-0.1c0.2,0,0.3-0.1,0.2-0.2c0-0.1-0.1-0.3-0.2-0.5l-0.8,0
						c0,0.1-0.1,0.3-0.1,0.4c-0.1,0.2,0,0.3,0.2,0.3l0,0.1l-0.8,0l0-0.1c0.2,0,0.3-0.1,0.4-0.4l0.7-2l0.2-0.1c0.3,0.7,0.6,1.3,0.8,2
						c0.1,0.3,0.2,0.4,0.4,0.4l0,0.1L133.2,149.1z M132.8,147.2L132.8,147.2c-0.1,0.3-0.2,0.6-0.3,0.9l0.6,0L132.8,147.2z
						 M137.1,146.6c-0.2,0-0.3,0.1-0.3,0.2c0,0.1,0,0.3,0,0.6l0.1,1.5l-0.2,0l-1.7-1.9l0,0l0,0.9c0,0.3,0,0.5,0.1,0.6
						c0,0.2,0.1,0.2,0.4,0.2l0,0.1l-0.9,0l0-0.1c0.2,0,0.3-0.1,0.3-0.3c0-0.1,0-0.3,0-0.6l0-0.8c0-0.3,0-0.3-0.1-0.4
						c-0.1-0.1-0.2-0.1-0.3-0.1l0-0.1l0.7,0l1.6,1.7l0,0l0-0.8c0-0.3,0-0.5-0.1-0.6c0-0.2-0.1-0.2-0.4-0.2l0-0.1l0.9,0L137.1,146.6z
						 M139.4,148.8c-0.2-0.3-0.6-0.7-0.9-1c-0.1-0.1-0.1-0.1-0.2-0.1l0,0.7c0,0.3,0.1,0.4,0.4,0.4l0,0.1l-1.1,0.1l0-0.1
						c0.3,0,0.3-0.1,0.3-0.4l-0.1-1.5c0-0.3-0.1-0.4-0.3-0.4l0-0.1l1.1-0.1l0,0.1c-0.3,0-0.3,0.1-0.3,0.4l0,0.7
						c0.1,0,0.2-0.1,0.3-0.2c0.2-0.2,0.4-0.5,0.5-0.7c0.1-0.1,0.1-0.2-0.1-0.2l-0.1,0l0-0.1l1,0l0,0.1c-0.3,0-0.4,0.1-0.6,0.3
						c-0.2,0.2-0.4,0.4-0.6,0.6c0.3,0.4,0.6,0.8,0.9,1c0.2,0.2,0.3,0.2,0.4,0.3l0,0.1L139.4,148.8z M142.3,148
						c0,0.2-0.1,0.5-0.1,0.6l-1.8,0.1l0-0.1c0.3,0,0.4-0.1,0.3-0.4l-0.1-1.5c0-0.3,0-0.3-0.4-0.4l0-0.1l1.1-0.1l0,0.1
						c-0.3,0-0.3,0.1-0.3,0.4l0.1,1.5c0,0.2,0,0.3,0.1,0.3c0.1,0,0.2,0,0.3,0c0.2,0,0.3,0,0.4-0.1c0.1-0.1,0.1-0.2,0.2-0.4
						L142.3,148z M142.6,148.7l0-0.1c0.3,0,0.3-0.1,0.3-0.4l-0.1-1.5c0-0.3-0.1-0.3-0.3-0.4l0-0.1l1.1-0.1l0,0.1
						c-0.3,0-0.3,0.1-0.3,0.4l0.1,1.5c0,0.3,0,0.3,0.3,0.4l0,0.1L142.6,148.7z M146.7,146.1c-0.2,0-0.3,0.1-0.3,0.2
						c0,0.1,0,0.3,0,0.6l0.1,1.5l-0.2,0l-1.7-1.9l0,0l0,0.9c0,0.3,0,0.5,0.1,0.6c0,0.2,0.1,0.2,0.4,0.2l0,0.1l-0.9,0l0-0.1
						c0.2,0,0.3-0.1,0.3-0.3c0-0.1,0-0.3,0-0.6l0-0.8c0-0.3,0-0.3-0.1-0.4c-0.1-0.1-0.2-0.1-0.3-0.1l0-0.1l0.7,0l1.6,1.7l0,0l0-0.8
						c0-0.3,0-0.5-0.1-0.6c0-0.2-0.1-0.2-0.4-0.2l0-0.1l0.9,0L146.7,146.1z M150.1,146.4c-0.1-0.2-0.1-0.3-0.2-0.4
						c-0.1-0.1-0.2-0.1-0.4-0.1l-0.2,0l0.1,1.8c0,0.3,0.1,0.3,0.4,0.4l0,0.1l-1.2,0.1l0-0.1c0.3,0,0.4-0.1,0.3-0.4l-0.1-1.8l-0.2,0
						c-0.3,0-0.4,0.1-0.4,0.1c-0.1,0.1-0.1,0.2-0.1,0.4l-0.1,0c0-0.3,0-0.5,0-0.7l0.1,0c0.1,0.1,0.1,0.1,0.2,0.1l1.5-0.1
						c0.1,0,0.1,0,0.2-0.1l0.1,0c0,0.2,0,0.5,0.1,0.7L150.1,146.4z M152.7,147.5c0,0.2-0.1,0.5-0.1,0.6l-1.9,0.1l0-0.1
						c0.3,0,0.4-0.1,0.3-0.4l-0.1-1.5c0-0.3-0.1-0.4-0.3-0.4l0-0.1l1.8-0.1c0,0.1,0,0.3,0.1,0.6l-0.1,0c0-0.1-0.1-0.3-0.2-0.3
						c-0.1-0.1-0.2-0.1-0.4-0.1l-0.2,0c-0.1,0-0.1,0-0.1,0.1l0,0.8l0.3,0c0.3,0,0.4,0,0.4-0.3l0.1,0l0,0.8l-0.1,0
						c-0.1-0.3-0.1-0.3-0.4-0.3l-0.3,0l0,0.7c0,0.2,0,0.3,0.1,0.3c0.1,0,0.2,0,0.4,0c0.2,0,0.4,0,0.4-0.1c0.1-0.1,0.1-0.2,0.2-0.4
						L152.7,147.5z M155.2,148l0-0.1c0.3,0,0.3-0.1,0.3-0.4l-0.1-1.5l0,0l-0.8,2.1l-0.1,0l-0.9-1.9l0,0l0,1c0,0.3,0,0.5,0,0.6
						c0,0.2,0.1,0.2,0.4,0.2l0,0.1l-0.9,0l0-0.1c0.2,0,0.3-0.1,0.3-0.2c0-0.1,0-0.3,0-0.7l0-0.8c0-0.5,0-0.5-0.4-0.5l0-0.1l0.7,0
						l0.9,1.7l0.7-1.8l0.7,0l0,0.1c-0.3,0-0.3,0.1-0.3,0.4l0.1,1.4c0,0.4,0,0.4,0.4,0.4l0,0.1L155.2,148z M157.6,145.4
						c0.3,0,0.5,0,0.7,0.1c0.2,0.1,0.3,0.3,0.3,0.5c0,0.5-0.3,0.8-0.7,0.8c-0.1,0-0.1,0-0.2,0l-0.3-0.1l0,0.6c0,0.3,0.1,0.3,0.4,0.4
						l0,0.1l-1.1,0.1l0-0.1c0.3,0,0.3-0.1,0.3-0.4l-0.1-1.5c0-0.3-0.1-0.3-0.3-0.4l0-0.1L157.6,145.4z M157.4,146.7c0,0,0.1,0,0.2,0
						c0.2,0,0.5-0.1,0.5-0.6c0-0.4-0.3-0.6-0.5-0.6c-0.1,0-0.1,0-0.2,0.1c0,0,0,0.1,0,0.1L157.4,146.7z M160.9,147.1
						c0,0.2-0.1,0.5-0.1,0.6l-1.8,0.1l0-0.1c0.3,0,0.4-0.1,0.3-0.4l-0.1-1.5c0-0.3,0-0.3-0.4-0.4l0-0.1l1.1-0.1l0,0.1
						c-0.3,0-0.3,0.1-0.3,0.4l0.1,1.5c0,0.2,0,0.3,0.1,0.3c0.1,0,0.2,0,0.3,0c0.2,0,0.3,0,0.4-0.1c0.1-0.1,0.1-0.2,0.2-0.4
						L160.9,147.1z M163.3,147c0,0.2-0.1,0.5-0.1,0.6l-1.9,0.1l0-0.1c0.3,0,0.4-0.1,0.3-0.4l-0.1-1.5c0-0.3-0.1-0.4-0.3-0.4l0-0.1
						l1.8-0.1c0,0.1,0,0.3,0.1,0.6l-0.1,0c0-0.1-0.1-0.3-0.2-0.3c-0.1-0.1-0.2-0.1-0.4-0.1l-0.2,0c-0.1,0-0.1,0-0.1,0.1l0,0.8l0.3,0
						c0.3,0,0.4,0,0.4-0.3l0.1,0l0,0.8l-0.1,0c-0.1-0.3-0.1-0.3-0.4-0.3l-0.3,0l0,0.7c0,0.2,0,0.3,0.1,0.3c0.1,0,0.2,0,0.4,0
						c0.2,0,0.4,0,0.4-0.1c0.1-0.1,0.1-0.2,0.2-0.4L163.3,147z M165.6,145.6c-0.1-0.2-0.1-0.3-0.2-0.4c-0.1-0.1-0.2-0.1-0.4-0.1
						l-0.2,0l0.1,1.8c0,0.3,0.1,0.3,0.4,0.4l0,0.1l-1.2,0.1l0-0.1c0.3,0,0.4-0.1,0.3-0.4l-0.1-1.8l-0.2,0c-0.3,0-0.4,0.1-0.4,0.1
						c-0.1,0.1-0.1,0.2-0.1,0.4l-0.1,0c0-0.3,0-0.5,0-0.7l0.1,0c0.1,0.1,0.1,0.1,0.2,0.1l1.5-0.1c0.1,0,0.1,0,0.2-0.1l0.1,0
						c0,0.2,0,0.5,0.1,0.7L165.6,145.6z M168.6,146.1c0,0.8-0.5,1.4-1.2,1.4c-0.7,0-1.3-0.5-1.3-1.2c0-0.7,0.4-1.3,1.3-1.4
						C167.9,144.8,168.5,145.3,168.6,146.1z M166.5,146.1c0,0.7,0.4,1.2,0.9,1.2c0.4,0,0.7-0.4,0.7-1.1c0-0.8-0.4-1.2-0.9-1.2
						C166.8,145,166.5,145.4,166.5,146.1z M171.5,144.8c-0.2,0-0.3,0.1-0.3,0.2c0,0.1,0,0.3,0,0.6l0.1,1.5l-0.2,0l-1.7-1.9l0,0
						l0,0.9c0,0.3,0,0.5,0.1,0.6c0,0.2,0.1,0.2,0.4,0.2l0,0.1l-0.9,0l0-0.1c0.2,0,0.3-0.1,0.3-0.3c0-0.1,0-0.3,0-0.6l0-0.8
						c0-0.3,0-0.3-0.1-0.4c-0.1-0.1-0.2-0.1-0.3-0.1l0-0.1l0.7,0l1.6,1.7l0,0l0-0.8c0-0.3,0-0.5-0.1-0.6c0-0.2-0.1-0.2-0.4-0.2
						l0-0.1l0.9,0L171.5,144.8z M135.9,152.7l0-0.1c0.3,0,0.3-0.1,0.3-0.4l-0.1-1.5c0-0.3-0.1-0.3-0.3-0.4l0-0.1l1.1-0.1l0,0.1
						c-0.3,0-0.3,0.1-0.3,0.4l0.1,1.5c0,0.3,0,0.3,0.3,0.4l0,0.1L135.9,152.7z M140,150.1c-0.2,0-0.3,0.1-0.3,0.2c0,0.1,0,0.3,0,0.6
						l0.1,1.5l-0.2,0l-1.7-1.9l0,0l0,0.9c0,0.3,0,0.5,0.1,0.6c0,0.2,0.1,0.2,0.4,0.2l0,0.1l-0.9,0l0-0.1c0.2,0,0.3-0.1,0.3-0.3
						c0-0.1,0-0.3,0-0.6l0-0.8c0-0.3,0-0.3-0.1-0.4c-0.1-0.1-0.2-0.1-0.3-0.1l0-0.1l0.7,0l1.6,1.7l0,0l0-0.8c0-0.3,0-0.5-0.1-0.6
						c0-0.2-0.1-0.2-0.4-0.2l0-0.1l0.9,0L140,150.1z M142.7,150c-0.3,0-0.3,0.1-0.4,0.5c-0.1,0.3-0.4,1.2-0.7,2l-0.2,0
						c-0.3-0.7-0.7-1.6-0.9-2c-0.1-0.3-0.2-0.3-0.4-0.3l0-0.1l1.1-0.1l0,0.1c-0.3,0-0.3,0.1-0.2,0.3c0.1,0.3,0.5,1,0.7,1.5l0,0
						c0.2-0.5,0.4-1.1,0.5-1.5c0.1-0.3,0.1-0.3-0.3-0.3l0-0.1l0.9,0L142.7,150z M145,151.6c0,0.2-0.1,0.5-0.1,0.6l-1.9,0.1l0-0.1
						c0.3,0,0.4-0.1,0.3-0.4l-0.1-1.5c0-0.3-0.1-0.4-0.3-0.4l0-0.1l1.8-0.1c0,0.1,0,0.3,0.1,0.6l-0.1,0c0-0.1-0.1-0.3-0.2-0.3
						c-0.1-0.1-0.2-0.1-0.4-0.1l-0.2,0c-0.1,0-0.1,0-0.1,0.1l0,0.8l0.3,0c0.3,0,0.4,0,0.4-0.3l0.1,0l0,0.8l-0.1,0
						c-0.1-0.3-0.1-0.3-0.4-0.3l-0.3,0l0,0.7c0,0.2,0,0.3,0.1,0.3c0.1,0,0.2,0,0.4,0c0.2,0,0.4,0,0.4-0.1c0.1-0.1,0.1-0.2,0.2-0.4
						L145,151.6z M146.7,150.3c-0.1-0.2-0.2-0.5-0.5-0.5c-0.2,0-0.4,0.2-0.4,0.4c0,0.2,0.2,0.4,0.5,0.5c0.4,0.2,0.7,0.3,0.7,0.7
						c0,0.4-0.3,0.8-0.9,0.8c-0.1,0-0.3,0-0.4,0c-0.1,0-0.2-0.1-0.2-0.1c0-0.1-0.1-0.4-0.1-0.6l0.1,0c0.1,0.2,0.3,0.6,0.7,0.6
						c0.3,0,0.4-0.2,0.4-0.4c0-0.2-0.2-0.4-0.5-0.5c-0.3-0.2-0.7-0.3-0.7-0.7c0-0.4,0.3-0.7,0.8-0.8c0.2,0,0.4,0,0.5,0.1
						c0,0.1,0.1,0.3,0.1,0.5L146.7,150.3z M149.4,150.2c-0.1-0.2-0.1-0.3-0.2-0.4c-0.1-0.1-0.2-0.1-0.4-0.1l-0.2,0l0.1,1.8
						c0,0.3,0.1,0.3,0.4,0.4l0,0.1l-1.2,0.1l0-0.1c0.3,0,0.4-0.1,0.3-0.4l-0.1-1.8l-0.2,0c-0.3,0-0.4,0.1-0.4,0.1
						c-0.1,0.1-0.1,0.2-0.1,0.4l-0.1,0c0-0.3,0-0.5,0-0.7l0.1,0c0.1,0.1,0.1,0.1,0.2,0.1l1.5-0.1c0.1,0,0.1,0,0.2-0.1l0.1,0
						c0,0.2,0,0.5,0.1,0.7L149.4,150.2z M152,151.9l0-0.1c0.3,0,0.3-0.1,0.3-0.4l-0.1-1.5l0,0l-0.8,2.1l-0.1,0l-0.9-1.9l0,0l0,1
						c0,0.3,0,0.5,0,0.6c0,0.2,0.1,0.2,0.4,0.2l0,0.1l-0.9,0l0-0.1c0.2,0,0.3-0.1,0.3-0.2c0-0.1,0-0.3,0-0.7l0-0.8
						c0-0.5,0-0.5-0.4-0.5l0-0.1l0.7,0l0.9,1.7l0.7-1.8l0.7,0l0,0.1c-0.3,0-0.3,0.1-0.3,0.4l0.1,1.4c0,0.4,0,0.4,0.4,0.4l0,0.1
						L152,151.9z M155.5,151.1c0,0.2-0.1,0.5-0.1,0.6l-1.9,0.1l0-0.1c0.3,0,0.4-0.1,0.3-0.4l-0.1-1.5c0-0.3-0.1-0.4-0.3-0.4l0-0.1
						l1.8-0.1c0,0.1,0,0.3,0.1,0.6l-0.1,0c0-0.1-0.1-0.3-0.2-0.3c-0.1-0.1-0.2-0.1-0.4-0.1l-0.2,0c-0.1,0-0.1,0-0.1,0.1l0,0.8l0.3,0
						c0.3,0,0.4,0,0.4-0.3l0.1,0l0,0.8l-0.1,0c-0.1-0.3-0.1-0.3-0.4-0.3l-0.3,0l0,0.7c0,0.2,0,0.3,0.1,0.3c0.1,0,0.2,0,0.4,0
						c0.2,0,0.4,0,0.4-0.1c0.1-0.1,0.1-0.2,0.2-0.4L155.5,151.1z M158.4,149.2c-0.2,0-0.3,0.1-0.3,0.2c0,0.1,0,0.3,0,0.6l0.1,1.5
						l-0.2,0l-1.7-1.9l0,0l0,0.9c0,0.3,0,0.5,0.1,0.6c0,0.2,0.1,0.2,0.4,0.2l0,0.1l-0.9,0l0-0.1c0.2,0,0.3-0.1,0.3-0.3
						c0-0.1,0-0.3,0-0.6l0-0.8c0-0.3,0-0.3-0.1-0.4c-0.1-0.1-0.2-0.1-0.3-0.1l0-0.1l0.7,0l1.6,1.7l0,0l0-0.8c0-0.3,0-0.5-0.1-0.6
						c0-0.2-0.1-0.2-0.4-0.2l0-0.1l0.9,0L158.4,149.2z M160.8,149.6c-0.1-0.2-0.1-0.3-0.2-0.4c-0.1-0.1-0.2-0.1-0.4-0.1l-0.2,0
						l0.1,1.8c0,0.3,0.1,0.3,0.4,0.4l0,0.1l-1.2,0.1l0-0.1c0.3,0,0.4-0.1,0.3-0.4l-0.1-1.8l-0.2,0c-0.3,0-0.4,0.1-0.4,0.1
						c-0.1,0.1-0.1,0.2-0.1,0.4l-0.1,0c0-0.3,0-0.5,0-0.7l0.1,0c0.1,0.1,0.1,0.1,0.2,0.1l1.5-0.1c0.1,0,0.1,0,0.2-0.1l0.1,0
						c0,0.2,0,0.5,0.1,0.7L160.8,149.6z M162.6,149.5c-0.1-0.2-0.2-0.5-0.5-0.5c-0.2,0-0.4,0.2-0.4,0.4c0,0.2,0.2,0.4,0.5,0.5
						c0.4,0.2,0.7,0.3,0.7,0.7c0,0.4-0.3,0.8-0.9,0.8c-0.1,0-0.3,0-0.4,0c-0.1,0-0.2-0.1-0.2-0.1c0-0.1-0.1-0.4-0.1-0.6l0.1,0
						c0.1,0.2,0.3,0.6,0.7,0.6c0.3,0,0.4-0.2,0.4-0.4c0-0.2-0.2-0.4-0.5-0.5c-0.3-0.2-0.7-0.3-0.7-0.7c0-0.4,0.3-0.7,0.8-0.8
						c0.2,0,0.4,0,0.5,0.1c0,0.1,0.1,0.3,0.1,0.5L162.6,149.5z"/>
					<g>
						<path class="st14" d="M160,142.5c0-0.2,0.2-0.4,0.4-0.4c0.2,0,0.4,0.2,0.4,0.4c0,0.2-0.2,0.4-0.4,0.4
							C160.2,142.9,160,142.8,160,142.5 M160.4,143c0.3,0,0.5-0.2,0.5-0.5c0-0.3-0.2-0.5-0.5-0.5c-0.3,0-0.5,0.2-0.5,0.5
							C159.9,142.8,160.1,143,160.4,143 M160.3,142.6L160.3,142.6l0.2,0.2l0.1,0l-0.2-0.2c0.1,0,0.1-0.1,0.1-0.1
							c0-0.1-0.1-0.1-0.2-0.1l-0.2,0l0,0.5l0.1,0L160.3,142.6z M160.3,142.5l0-0.2l0.1,0c0.1,0,0.1,0,0.1,0.1
							C160.5,142.5,160.4,142.5,160.3,142.5L160.3,142.5z"/>
						<g>
							<defs>
								<path id="SVGID_3_" d="M135.4,145.2l0-0.1c0,0,0,0,0.1-0.1c0,0,0.1-0.1,0.1-0.1c0.1-0.1,0.2-0.1,0.2-0.1
									c0.3-0.1,0.5-0.2,0.5-0.2c0,0,0.3-0.1,0.5-0.1l2.5-0.1c0,0-0.1-0.1-0.2-0.1c0,0-0.1-0.1-0.3-0.2c-0.1-0.1-0.2-0.2-0.3-0.4
									c-0.1-0.1-0.1-0.3-0.1-0.3l0.4,0c0,0,0.3,0,0.7-0.1c0.3-0.1,0.6-0.2,0.7-0.2c0.1,0,0.2,0,0.2,0c0,0,0,0,0.1-0.1
									c0,0,0.1-0.1,0.1-0.1s-0.2-0.3-0.3-0.5c-0.1-0.2-0.2-0.6-0.2-0.8c0-0.1,0-0.4,0-0.7c0-0.1,0-0.3,0-0.3s0.1,0.1,0.3,0.1
									c0.2,0.1,0.6,0.2,0.6,0.2c0.1,0,0.3,0.1,0.3,0.1c0,0,0,0,0,0c0,0,0-0.2,0-0.2c0,0,0-0.2,0-0.2c0,0,0-0.1,0-0.2c0,0,0,0,0,0
									s0.2,0,0.2,0c0.1,0,0.2,0.1,0.2,0.1s0-0.3,0-0.3c0,0,0-0.1,0-0.2c0,0,0-0.1,0-0.1c0-0.2,0-0.5,0-0.9c0-0.2,0-0.3,0-0.6
									c0-0.2,0-0.5,0.1-0.8c0-0.4,0.2-1,0.3-1.6c0.1-0.4,0.3-0.8,0.5-1.2c0.1-0.2,0.2-0.4,0.3-0.6c0.3-0.5,0.6-0.9,0.9-1.3
									c0.4-0.5,1-1.1,1.8-1.5c0.8-0.5,1.7-0.8,2.9-0.9c1.1-0.1,2.2,0.2,3,0.6c0.4,0.2,0.8,0.4,1.1,0.7c0.3,0.2,0.6,0.5,0.8,0.7
									c0.3,0.3,0.7,0.7,1,1.2c0.1,0.2,0.3,0.4,0.4,0.6c0.2,0.4,0.4,0.8,0.6,1.2c0.2,0.6,0.4,1.1,0.5,1.6c0.1,0.3,0.1,0.6,0.1,0.8
									c0,0.2,0,0.4,0.1,0.5c0,0.4,0,0.7,0,0.9c0,0,0,0.6,0,0.6s0.1,0,0.2-0.1c0.1,0,0.2-0.1,0.2-0.1c0,0,0,0,0,0c0,0,0,0.1,0,0.1
									c0,0,0,0.2,0,0.2c0,0,0,0.2,0.1,0.2c0,0,0.2-0.1,0.2-0.1c0,0,0.3-0.1,0.4-0.1c0.1,0,0.4-0.2,0.4-0.2c0,0,0.2-0.1,0.2-0.1
									s0,0.2,0.1,0.2c0,0.1,0,0.3,0,0.3c0,0,0,0.4,0,0.4c0,0.1,0,0.4-0.1,0.5c0,0.1-0.1,0.3-0.1,0.5c-0.1,0.2-0.2,0.4-0.2,0.4
									l0.1,0.1c0,0,0.1,0,0.1,0c0,0,0.4,0.1,0.5,0.1c0.1,0,0.4,0.1,0.5,0.1c0.1,0,0.3,0,0.4,0c0.1,0,0.4,0,0.4,0s-0.1,0.3-0.2,0.5
									c-0.1,0.2-0.2,0.2-0.3,0.3c0,0-0.1,0.1-0.1,0.1c-0.1,0.1-0.2,0.1-0.2,0.2c0,0,0,0,0,0l2.4-0.1c0,0,0.5,0,0.8,0
									c0.2,0,0.6,0.1,0.7,0.2c0.1,0.1,0.2,0.1,0.2,0.1l0,0.1L135.4,145.2z"/>
							</defs>
							<clipPath id="SVGID_4_">
								<use xlink:href="#SVGID_3_"  style="overflow:visible;"/>
							</clipPath>
							<g class="st15">
								<path d="M162.8,143.8C162.8,143.9,162.7,143.9,162.8,143.8c-9.2,0.5-18.2,0.9-27.3,1.4c0,0-0.1,0-0.1,0c0-0.1,0-0.2,0.1-0.2
									c0.3-0.2,0.6-0.3,0.9-0.3c0.2,0,0.3-0.1,0.5-0.1c0.8,0,1.6-0.1,2.4-0.1c0,0,0,0,0,0c-0.4-0.2-0.7-0.5-0.9-1c0,0,0,0,0,0
									c0.4,0,0.9-0.1,1.3-0.2c0.2-0.1,0.4-0.1,0.5-0.1c0.1,0,0.2-0.2,0.1-0.2c-0.3-0.5-0.4-1-0.5-1.6c0-0.2,0-0.3,0-0.5
									c0,0,0,0,0-0.1c0.4,0.1,0.8,0.2,1.2,0.4c0.1-0.2,0-0.5,0-0.7c0.1,0,0.3,0.1,0.4,0.1c0-0.3-0.1-0.5-0.1-0.8
									c-0.1-0.6,0-1.1,0-1.7c0.1-1.4,0.6-2.8,1.3-4c0.7-1.1,1.5-2,2.7-2.6c0.8-0.5,1.7-0.7,2.6-0.8c1.4-0.1,2.6,0.2,3.8,0.8
									c1.1,0.6,1.9,1.4,2.6,2.4c0.7,1.1,1.2,2.3,1.4,3.5c0.1,0.5,0.1,1,0.2,1.5c0,0.3,0,0.5,0,0.8c0.1,0,0.2-0.1,0.4-0.1
									c-0.1,0.2,0,0.5,0,0.7c0.4-0.2,0.8-0.3,1.2-0.5c0,0.1,0,0.2,0.1,0.3c0.1,0.7,0,1.3-0.3,1.9c0,0.1,0,0.2,0.1,0.2
									c0.3,0,0.7,0.1,1,0.1c0.3,0,0.6,0.1,0.9,0c0,0,0,0,0.1,0c-0.1,0.5-0.4,0.8-0.8,1.1c0,0,0.1,0,0.1,0c0.8,0,1.5-0.1,2.3-0.1
									c0.5,0,1,0.1,1.4,0.2c0.1,0,0.1,0.1,0.2,0.1C162.8,143.8,162.8,143.8,162.8,143.8z M144.6,142.3c-0.1-0.1-0.2-0.3-0.2-0.4
									c0,0,0,0.1,0,0.1c0,0,0,0.1,0,0.1c-0.1,0-0.1,0.1,0,0.1c0,0.1,0.1,0.1,0.1,0.2C144.5,142.4,144.5,142.4,144.6,142.3z
									 M150.6,138c0.2-0.1,0.2-0.3,0.2-0.4c0-0.1,0-0.2-0.1-0.3c0-0.2-0.1-0.3-0.1-0.5c0-0.2-0.1-0.5-0.2-0.7c0,0,0-0.1,0-0.1
									c0-0.1,0-0.2,0.1-0.3c0-0.1,0-0.1,0.1-0.1c0.1,0,0.1,0,0.2,0c-0.1,0-0.2,0-0.2,0c0,0,0,0,0,0c0.1-0.1,0.2-0.2,0.3-0.3
									c0,0,0,0,0,0c0,0.1-0.1,0.1-0.1,0.2c0,0,0,0,0,0c0.1,0,0.2-0.1,0.2-0.1c0.1-0.1,0.1-0.1,0.2-0.2c0,0,0,0,0.1,0.1
									c0.1,0,0.1-0.1,0.1-0.1c0,0,0.2,0,0.2,0c0,0,0,0,0,0.1c0,0-0.1,0.1-0.1,0.1c0.1,0,0.2-0.1,0.2-0.2c0-0.1-0.2-0.2-0.3-0.2
									c-0.1,0-0.1,0-0.2,0c-0.1,0-0.3,0-0.4-0.1c0.1,0,0.2-0.1,0.3-0.1c0,0,0.1,0,0.1-0.1c0-0.1,0-0.1,0-0.2c0,0-0.1,0-0.1,0
									c0,0-0.1,0-0.1,0c0,0-0.1,0-0.1-0.1c0,0,0-0.1,0.1-0.1c0.3-0.2,0.3-0.1,0.1-0.4c0,0,0,0,0,0c0-0.1-0.1-0.2-0.1-0.3
									c0.2,0.2,0.4,0.4,0.5,0.6c0,0,0,0,0.1-0.1c0.1,0.2,0.1,0.3,0.2,0.5c0,0.1,0,0.2,0,0.3c0,0,0,0.1,0.1,0.1c0,0,0,0,0,0
									c0-0.2-0.1-0.4-0.1-0.5c-0.1-0.2-0.2-0.4-0.4-0.6c-0.2-0.3-0.6-0.6-1-0.8c-0.1-0.1-0.3-0.1-0.4-0.2c0,0-0.1-0.1-0.2-0.1
									c0,0,0,0,0,0c0,0.1,0.1,0.1,0.2,0.2c-0.1,0-0.2,0-0.2-0.1c-0.1-0.1-0.2-0.1-0.3-0.2c0,0.1,0.1,0.1,0.1,0.2c0,0,0,0,0,0
									c-0.2-0.1-0.3-0.1-0.5-0.2c0,0,0,0,0,0c0,0,0.1,0.1,0.1,0.1c-0.2,0-0.3,0-0.5,0c-0.4,0-0.8,0.1-1.2,0.4
									c-0.3,0.3-0.6,0.6-0.7,1c0,0.1-0.1,0.3-0.1,0.4c0,0,0,0.1,0,0.1c-0.1,0.1-0.1,0.2-0.2,0.3c0,0,0,0,0,0c0,0,0,0,0.1-0.1
									c0,0,0,0,0,0c-0.1,0.1-0.1,0.3-0.2,0.4c0,0,0,0,0,0c0.1-0.1,0.1-0.2,0.2-0.3c0,0,0,0.1,0,0.1c0,0,0.1-0.1,0.1-0.1
									c-0.2,0.4-0.3,0.8-0.3,0.9c0.1-0.2,0.1-0.4,0.3-0.6c0,0,0,0,0,0.1c0,0,0.1,0,0.1,0c-0.1,0.2-0.1,0.4-0.2,0.5c0,0,0,0,0,0
									c0.1-0.1,0.1-0.2,0.2-0.3c0,0,0,0,0,0c-0.1,0.3-0.1,0.7-0.1,1c0,0.2,0,0.4-0.1,0.6c-0.1,0.2-0.2,0.5-0.3,0.7
									c0,0,0,0.1,0,0.1c0,0.1,0,0.2,0,0.3c0,0,0,0.1-0.1,0.1c0,0-0.1,0-0.1,0c0,0,0,0,0,0c0,0-0.1,0-0.1,0c0,0,0,0.1,0,0.1
									c0.1,0.1,0.1,0.2,0.3,0.3c0,0,0,0,0.1,0c0,0,0,0,0,0c-0.1,0-0.1,0-0.2,0c0,0,0,0,0,0.1c-0.1-0.1-0.2-0.1-0.2-0.1
									c0.1,0.2,0.1,0.3,0.3,0.4c0.1,0.1,0.1,0.1,0.2,0c0.1,0,0.2-0.1,0.3-0.3c0,0.1,0,0.2,0.1,0.3c0,0.2,0.1,0.5,0.2,0.6
									c0.1,0.1,0.1,0.1,0.1,0.2c0,0,0,0.1,0,0.1c0,0-0.1,0-0.1,0c0,0,0-0.1-0.1-0.1c0,0.1,0,0.1,0,0.2c0,0,0,0,0,0
									c-0.1-0.2-0.2-0.4-0.4-0.7c0,0.1-0.1,0.1-0.1,0.2c0,0-0.1,0-0.1-0.1c0,0.2,0,0.3,0.2,0.5c0.1,0.1,0.1,0.2,0.2,0.2
									c0.2,0.2,0.4,0.4,0.7,0.7c0.1,0.1,0.1,0.1,0.1,0.3c-0.4-0.3-0.7-0.6-1.1-1c-0.1,0.6,0.1,1,0.5,1.4c0,0,0,0,0,0
									c-0.1-0.1-0.1-0.1-0.2-0.2c0,0,0,0,0,0c0.4,0.4,0.7,0.9,1.2,1.2c0,0,0-0.1,0-0.1c0.1,0.1,0.2,0.2,0.4,0.3c0,0,0,0-0.1,0
									c0.1,0.1,0.2,0.2,0.4,0.2c0,0,0-0.1,0-0.1c0.1,0,0.1,0.1,0.1,0.1c0.4,0.2,0.8,0.4,1.2,0.4c0.1,0,0.2,0,0.3-0.1
									c-0.2,0-0.4,0-0.5-0.1c0,0,0.1,0,0.1,0c0.3,0,0.5,0,0.8-0.2c0.1-0.1,0.1-0.1,0-0.2c0,0,0,0,0,0c0,0,0,0,0,0
									c-0.2,0.1-0.4,0.1-0.6,0.2c-0.3,0.1-0.7,0-1-0.2c0,0,0.1,0,0.1,0c0.2,0.1,0.4,0.1,0.6,0.1c-0.1,0-0.2-0.1-0.3-0.1
									c0,0,0-0.1-0.1-0.1c0,0,0,0,0,0c0,0,0.1,0,0.1,0c0.1,0,0.3,0.1,0.4,0.1c0.1,0,0.3,0,0.4-0.1c0,0,0,0-0.1-0.1
									c0,0,0.1,0,0.1-0.1c-0.4,0.1-0.7,0-0.9-0.1c0,0,0.1,0,0.1,0c0.2,0,0.4,0,0.5,0c0.2,0,0.4-0.1,0.6-0.3c0,0,0,0,0,0
									c0,0,0,0.1,0,0.1c0-0.1,0.1-0.2,0.1-0.3c-0.7,0.5-1.5,0.4-2.1-0.1c0.1,0,0.1,0.1,0.2,0c0,0,0-0.1-0.1-0.1c0,0,0.1,0,0.1,0
									c0.1-0.1,0-0.2-0.1-0.3c0,0,0-0.1,0-0.1c0,0,0.1,0,0.1,0c0.1,0.1,0.3,0.1,0.4,0.2c0.1,0,0.1,0,0.1,0c0,0,0-0.1,0-0.1
									c0,0,0,0-0.1,0c0,0,0,0,0,0c0.1,0,0.1,0,0.2-0.1c0,0,0.1,0,0.1-0.1c0-0.1,0-0.1-0.1-0.2c0,0-0.1,0-0.1,0
									c-0.1,0-0.1-0.1-0.1-0.1c0-0.1,0-0.1,0.1-0.1c0,0,0,0,0-0.1c0,0,0,0,0.1,0c0.1,0,0.2,0.1,0.4,0.1c0.1,0,0.2,0,0.3,0
									c0.1-0.1,0.2-0.1,0.3-0.1c0,0,0,0,0.1,0c0.2-0.1,0.4-0.3,0.6-0.5c0.1-0.2,0.1-0.3-0.1-0.4c0,0-0.1-0.1-0.1-0.1
									c-0.1-0.1-0.1-0.2,0-0.3c0,0,0,0-0.1,0c0.1-0.1,0.1-0.2,0.2-0.2c0,0,0,0,0,0c-0.1,0.1-0.2,0.1-0.3,0.2c0,0-0.1,0-0.1,0
									c-0.1,0-0.2,0-0.2,0c0-0.1,0-0.2,0.1-0.2c0.1,0,0.2-0.1,0.3-0.1c0.1,0,0.1,0,0.2-0.1c0.1-0.1,0.2-0.1,0.2,0c0,0,0.1,0,0.1,0
									c0-0.1,0-0.1-0.1-0.1c-0.1,0-0.2,0-0.3,0c-0.2,0-0.4,0-0.7,0c-0.2,0-0.4,0.1-0.7,0c-0.1,0-0.2,0.1-0.3,0.1
									c-0.1,0-0.1,0-0.2,0c0.1,0,0.1-0.1,0.2-0.1c0.1-0.1,0.1-0.1,0.2,0c0.2,0,0.4,0,0.5,0c0.1,0,0.2,0,0.4,0
									c0.1,0,0.3-0.1,0.4-0.1c0,0,0,0,0.1,0c0.1,0,0.1,0,0.2,0.1c0,0,0,0,0,0c-0.1-0.1-0.1-0.2-0.2-0.2c-0.1,0-0.1-0.1-0.1-0.1
									c0,0,0-0.1,0-0.1c0-0.1,0-0.1-0.1-0.1c-0.1,0-0.1,0-0.2-0.1c0,0,0,0,0-0.1c0,0,0,0,0.1,0c0.1-0.1,0.2-0.1,0.3-0.2
									c0,0,0,0,0-0.1C150.7,138.1,150.6,138.1,150.6,138C150.6,138.1,150.6,138.1,150.6,138z M152.7,143
									C152.7,143,152.8,142.9,152.7,143c0.8-0.8,1.3-1.6,1.6-2.6c0.6-1.9,0.5-3.8-0.4-5.6c-0.6-1.3-1.6-2.3-2.9-2.9
									c-1.4-0.7-2.8-0.7-4.2-0.2c-1.3,0.5-2.3,1.4-3,2.6c-0.6,1.1-0.9,2.2-1,3.5c0,1.4,0.3,2.6,1,3.8c0,0,0,0,0,0.1
									c0,0,0-0.1,0-0.1c0.1-0.2,0.1-0.4,0-0.6c-0.1-0.2-0.1-0.4-0.1-0.6c0-0.5,0.1-1,0.3-1.4c0,0,0-0.1,0-0.1c0-0.1,0-0.3-0.1-0.4
									c0-0.4,0-0.8,0.2-1.1c0.2-0.3,0.4-0.5,0.6-0.7c0.1-0.1,0.1-0.2,0.1-0.3c0-0.2,0-0.3,0.1-0.5c0.1-0.3,0.2-0.7,0.3-1
									c0.2-0.7,0.6-1.2,1.1-1.6c0.3-0.3,0.7-0.4,1.1-0.5c0.5-0.1,1-0.2,1.6-0.2c0.3,0,0.7,0.1,1,0.3c0.5,0.3,0.9,0.7,1.2,1.1
									c0.1,0.2,0.3,0.4,0.3,0.7c0.1,0.3,0.1,0.5,0.2,0.8c0.1,0.3,0.1,0.6,0.1,0.9c0,0,0,0.1,0,0.1c0,0.3,0,0.5,0.1,0.8
									c0,0.1,0.1,0.2,0.1,0.3c0.1,0.3,0.2,0.5,0.2,0.8c0.1,0.3,0.3,0.6,0.3,0.9c0,0.1,0,0.1,0,0.2c0,0.1,0.1,0.3,0.1,0.4
									c0.1,0.3,0,0.8-0.3,1c0,0-0.1,0.1-0.1,0.2c0,0.2,0,0.4,0,0.6c0.1,0.2,0.1,0.4,0,0.6c0,0.1-0.1,0.2-0.2,0.2
									c0,0-0.1,0.1-0.1,0.1c0,0.1-0.1,0.2-0.2,0.2C152.3,142.8,152.5,142.9,152.7,143z M152.6,144
									C152.6,144,152.6,143.9,152.6,144c0.6-0.4,1-0.9,1.4-1.4c0.1-0.2,0.3-0.4,0.4-0.7c0.1-0.3,0.2-0.5,0.3-0.7
									c0.1-0.1,0.2-0.3,0.2-0.4c0-0.2,0.1-0.3,0.1-0.5c0.3-1.2,0.3-2.4,0-3.6c-0.3-1.3-0.8-2.4-1.7-3.5c-0.8-1-1.9-1.6-3.1-1.9
									c-1-0.3-2-0.2-3,0c-0.8,0.2-1.4,0.5-2.1,1c-0.6,0.4-1.1,1-1.5,1.7c-0.8,1.3-1.2,2.8-1.2,4.3c0,1,0.2,1.9,0.5,2.9
									c0.1,0.3,0.2,0.5,0.4,0.7c0.1,0.2,0.2,0.3,0.3,0.5c0,0.1,0.1,0.2,0.1,0.2c0.4,0.6,0.9,1.1,1.6,1.5c0.1,0.1,0.2,0.1,0.3,0.2
									c0,0.1-0.1,0.2-0.1,0.3c0.3,0,0.5,0,0.8,0c0-0.1,0-0.1,0.1-0.2c0,0,0,0,0,0c0,0,0,0,0,0c0,0,0,0,0,0
									c-1.2-0.6-2.1-1.5-2.7-2.6c-0.4-0.7-0.6-1.4-0.8-2.2c-0.2-1-0.2-1.9,0-2.9c0.2-1.3,0.7-2.4,1.6-3.3c0.6-0.7,1.3-1.2,2.1-1.5
									c0.8-0.3,1.6-0.5,2.5-0.4c0.6,0,1.2,0.1,1.7,0.4c1.1,0.4,2,1.1,2.7,2c0.6,0.7,0.9,1.5,1.2,2.4c0.2,0.9,0.3,1.8,0.3,2.8
									c-0.1,0.9-0.3,1.7-0.6,2.5c-0.5,1-1.2,1.9-2.1,2.5c-0.1,0.1-0.2,0.1-0.3,0.2c0,0.1,0,0.1,0.1,0.2c0,0,0,0,0.1,0
									c0.2,0,0.5,0,0.7,0C152.6,144.1,152.6,144.1,152.6,144z M155.5,140.2c0.1-0.1,0.2-0.1,0.3-0.2c0,0,0-0.1,0-0.1
									c0-0.1,0-0.2,0-0.3c0-0.6,0-1.2-0.1-1.8c-0.2-1.2-0.6-2.4-1.2-3.4c-0.6-0.9-1.3-1.8-2.2-2.4c-1.1-0.8-2.3-1.1-3.6-1.2
									c-1.5,0-2.9,0.5-4.1,1.5c-0.5,0.4-1,1-1.4,1.6c-0.6,0.9-1,1.9-1.3,3c-0.1,0.5-0.2,1.1-0.2,1.7c0,0.2,0,0.4,0,0.6
									c0,0,0-0.1,0-0.1c0-0.1,0-0.1,0-0.2c0-0.1,0-0.2,0.1-0.3c0,0,0,0,0-0.1c0,0,0,0,0-0.1c0,0,0.1,0,0.1,0c0,0.2,0,0.3,0,0.5
									c0,0.2,0,0.3,0.1,0.5c0,0.1,0,0.2,0,0.4c0,0.2,0,0.4,0.1,0.5c0,0,0,0,0,0.1c0,0,0,0.1,0,0.1c0,0.1,0,0.2,0,0.2c0,0,0,0,0,0
									c0.1,0,0.1,0.1,0.2,0.1c0-0.1,0-0.2-0.1-0.3c-0.1-0.6-0.2-1.2-0.2-1.8c0-0.8,0.1-1.6,0.3-2.4c0.2-0.6,0.3-1.1,0.6-1.7
									c0.4-0.7,0.8-1.4,1.4-1.9c0.9-0.9,1.9-1.5,3.2-1.7c0.8-0.1,1.7-0.1,2.5,0c0.8,0.2,1.5,0.5,2.2,0.9c0.9,0.6,1.5,1.4,2.1,2.3
									c0.4,0.8,0.7,1.6,1,2.4c0.2,0.8,0.3,1.7,0.3,2.6C155.5,139.6,155.5,139.9,155.5,140.2z M156.7,141.7c-0.1,0-0.2,0.1-0.3,0.1
									c-0.5,0.1-0.9,0.2-1.4,0.4c-0.3,0.1-0.7,0.3-0.9,0.5c-0.3,0.2-0.5,0.5-0.7,0.8c-0.1,0.2,0,0.3,0.1,0.4c0.1,0,0.2,0,0.3,0
									c0.4,0,0.7-0.1,1.1-0.3c0.5-0.3,1-0.7,1.4-1.2C156.5,142.2,156.6,142,156.7,141.7z M141.3,142.5
									C141.3,142.5,141.3,142.5,141.3,142.5C141.3,142.5,141.3,142.5,141.3,142.5c0.2,0.4,0.3,0.6,0.6,0.8c0.5,0.4,1,0.8,1.6,1
									c0.3,0.1,0.6,0.2,0.8,0.1c0.1,0,0.2,0,0.3-0.1c0.2-0.1,0.2-0.2,0.1-0.4c-0.2-0.3-0.4-0.6-0.8-0.8c-0.5-0.3-1-0.4-1.5-0.5
									C142.1,142.6,141.7,142.6,141.3,142.5z M156.4,139.7C156.4,139.7,156.4,139.7,156.4,139.7c-0.5,0.3-1,0.6-1.4,1
									c-0.5,0.5-0.7,1.1-0.8,1.8c0.2-0.1,0.3-0.2,0.5-0.2c0,0,0.1-0.1,0.1-0.1c0-0.1,0-0.1,0-0.2c0-0.1,0-0.3,0-0.4c0,0,0,0,0,0
									c0,0.1,0.1,0.3,0.1,0.4c0,0,0,0,0,0c0.2-0.6,0.4-1.1,0.8-1.6c-0.1,0.3-0.3,0.6-0.4,0.8c0,0,0,0,0,0c0.1,0,0.2-0.1,0.3-0.1
									c-0.1,0.1-0.2,0.2-0.3,0.2c-0.1,0.1-0.1,0.2-0.2,0.3c0.2-0.1,0.4-0.2,0.5-0.3c0,0,0,0-0.1,0.1c-0.2,0.1-0.3,0.2-0.5,0.4
									c-0.1,0.1-0.1,0.2-0.2,0.3c0.3-0.1,0.6-0.2,0.9-0.3c0,0,0,0,0.1-0.1c0-0.2,0.1-0.5,0.1-0.7
									C156.1,140.7,156.1,140.2,156.4,139.7z M142.6,142C142.6,142,142.6,142,142.6,142c-0.1-0.3-0.3-0.5-0.4-0.8
									c0.4,0.4,0.7,0.9,0.9,1.5c0,0,0,0,0,0c0-0.1,0-0.3,0-0.5c0,0,0,0.1,0,0.1c0,0.2,0,0.3,0,0.5c0,0.1,0,0.1,0,0.1
									c0.2,0.1,0.4,0.1,0.5,0.2c0-0.1-0.1-0.2-0.1-0.3c-0.1-0.3-0.2-0.6-0.4-0.9c-0.4-0.5-1-0.9-1.5-1.2c-0.1-0.1-0.3-0.1-0.4-0.2
									c0.1,0.1,0.1,0.2,0.1,0.2c0.1,0.3,0.2,0.5,0.3,0.8c0.1,0.3,0.2,0.7,0.3,1c0,0.1,0,0.1,0.1,0.1c0.2,0,0.5,0.1,0.7,0.1
									c0.1,0,0.1,0,0.2,0c-0.1-0.2-0.1-0.2-0.2-0.3c-0.2-0.1-0.4-0.2-0.5-0.3c0,0,0,0,0,0c0.2,0.1,0.3,0.1,0.5,0.2
									c0-0.1-0.1-0.1-0.1-0.2C142.7,142.1,142.6,142.1,142.6,142c-0.2,0-0.2,0-0.3-0.1c0,0,0,0,0,0
									C142.4,141.9,142.5,141.9,142.6,142z M156.1,141.8C156.1,141.9,156.1,141.9,156.1,141.8c0.2,0,0.4-0.1,0.6-0.2
									c0,0,0,0,0,0.1c0.1-0.1,0.2-0.1,0.4-0.2c-0.1,0.1-0.2,0.2-0.3,0.3c0,0-0.1,0.1-0.1,0.1c-0.1,0.2-0.2,0.4-0.2,0.6
									c0,0.1-0.1,0.1-0.1,0.2c0.1,0,0.2,0,0.3-0.1c0.6-0.5,0.9-1.1,1.1-1.9c0.1-0.3,0-0.5,0-0.8c-0.1,0.1-0.3,0.1-0.4,0.2
									c-0.3,0.1-0.6,0.3-0.9,0.4c-0.1,0-0.1,0.1-0.1,0.1c0,0.3-0.1,0.6-0.1,0.9c0.4-0.4,0.8-0.7,1.2-1.1c-0.1,0.2-0.2,0.4-0.4,0.5
									c-0.1,0.2-0.3,0.3-0.4,0.5c0,0,0,0,0,0c0.2-0.1,0.3-0.1,0.5-0.2c0,0,0,0,0,0c-0.2,0.1-0.4,0.2-0.7,0.3
									C156.2,141.6,156.2,141.7,156.1,141.8z M141.9,142.6C141.9,142.6,141.9,142.5,141.9,142.6c-0.1-0.2-0.3-0.3-0.5-0.3
									c-0.2,0-0.4-0.1-0.5-0.2c0,0,0,0,0,0c0.2,0,0.3,0.1,0.5,0.1c-0.2-0.2-0.3-0.3-0.5-0.4c-0.2-0.1-0.3-0.3-0.4-0.5
									c0.4,0.4,0.8,0.7,1.3,1c-0.1-0.3-0.1-0.5-0.2-0.8c0-0.2-0.1-0.3-0.2-0.3c-0.1,0-0.1,0-0.2-0.1c-0.3-0.1-0.6-0.2-0.9-0.3
									c-0.1,0-0.1,0-0.2-0.1c0,0.3,0,0.5,0.1,0.8c0.2,0.7,0.7,1.3,1.3,1.8c0.1,0.1,0.2,0.1,0.3,0c-0.1-0.3-0.3-0.5-0.4-0.8
									c0,0-0.1-0.1-0.1-0.1c-0.1-0.1-0.3-0.2-0.4-0.2c0,0,0,0,0,0c0.1,0.1,0.3,0.1,0.4,0.2c0-0.1,0-0.1,0-0.1
									C141.4,142.5,141.7,142.5,141.9,142.6z M152.7,144c0,0.1,0.1,0.1,0.1,0.2c0,0,0.1,0,0.1,0c0.2,0,0.4,0,0.6,0
									c3-0.2,6-0.3,9-0.5c0.1,0,0.1,0,0.2,0c0,0,0,0-0.1,0c-0.1,0-0.1,0-0.2-0.1c-0.4-0.1-0.9-0.2-1.3-0.1c-0.8,0-1.7,0.1-2.5,0.1
									c0,0-0.1,0-0.1,0c-0.1,0-0.3,0.1-0.4,0.1c-0.5,0.1-1,0.1-1.4,0c0,0-0.1,0-0.1,0c-0.5,0.2-1.1,0.3-1.7,0.2c0,0-0.1,0-0.1,0
									c-0.4,0.1-0.7,0.2-1.1,0.1c-0.2,0-0.3-0.1-0.4-0.3c0-0.1,0-0.2,0-0.2C153.1,143.7,152.9,143.9,152.7,144z M144.8,144
									c0,0.1,0,0.2,0,0.3c0,0.2-0.2,0.3-0.4,0.3c-0.3,0.1-0.7,0.1-1,0c-0.1,0-0.1,0-0.2,0c-0.6,0.2-1.1,0.1-1.7,0c0,0-0.1,0-0.1,0
									c-0.2,0-0.5,0.1-0.7,0.1c-0.3,0-0.7,0-1,0c-0.1,0-0.2,0-0.2,0c-0.9,0-1.7,0.1-2.6,0.1c-0.4,0-0.7,0.1-1.1,0.2
									c-0.1,0-0.1,0.1-0.2,0.1c0,0,0.1,0,0.1,0c3.1-0.2,6.3-0.3,9.4-0.5c0.2,0,0.2,0,0.3-0.2c0,0,0,0,0,0
									C145.2,144.2,145,144.1,144.8,144z M140.1,144.2C140,144.2,140,144.2,140.1,144.2c0.2-0.1,0.4-0.3,0.6-0.4
									c-0.2,0-0.3-0.1-0.4,0.1c0,0-0.1,0.1-0.2,0.1c-0.1,0-0.1,0.1-0.2,0.1c0,0,0,0,0,0c0.1-0.1,0.2-0.1,0.3-0.3
									c-0.3,0-0.6,0-0.9,0c0,0,0,0,0.1,0c0.2,0,0.4,0,0.7,0c0.4,0,0.7,0,1.1,0c0,0,0,0,0.1,0c0.1,0,0.1-0.1,0.2-0.1
									c-0.1-0.1-0.2-0.1-0.3-0.2c-0.4-0.2-0.8-0.2-1.2-0.1c-0.3,0.1-0.5,0.1-0.8,0.2c-0.1,0-0.3,0-0.5,0.1
									c0.3,0.4,0.7,0.7,1.2,0.9c0.5,0.2,1.2,0.1,1.5,0c-0.3-0.1-0.5-0.1-0.8-0.2c0.1-0.1,0.3-0.2,0.4-0.3c-0.1-0.1-0.1,0-0.2,0
									c-0.1,0.1-0.2,0.2-0.3,0.2C140.3,144.1,140.2,144.1,140.1,144.2z M156.8,142.7c0.1,0,0.1,0.1,0.2,0.1c0,0,0.1,0,0.1,0
									c0.3-0.1,0.6-0.1,0.9-0.1c0.3,0,0.6,0,0.9-0.1c0,0,0,0,0,0c0,0,0,0,0,0c-0.3,0-0.6,0.1-0.9,0.1c0,0,0,0,0,0
									c0.1,0.1,0.2,0.1,0.3,0.2c-0.2,0-0.3-0.1-0.4-0.2c-0.1-0.1-0.3-0.1-0.4,0c0.2,0.1,0.4,0.2,0.6,0.3c0,0-0.1,0-0.1,0
									c-0.2-0.1-0.3-0.1-0.5-0.2c-0.1,0-0.1-0.1-0.2,0c0.1,0.1,0.3,0.2,0.4,0.3c-0.3,0.1-0.5,0.2-0.7,0.3c0,0,0,0,0,0
									c0.2,0,0.3,0,0.5,0c0,0,0-0.1,0-0.1c0.1,0,0.1,0,0.2-0.1c0,0,0,0,0,0c0,0-0.1,0.1-0.1,0.1c0.7,0.1,1.8-0.6,2-1.2
									c-0.1,0-0.2,0-0.3,0c-0.3,0-0.6-0.1-0.9-0.1c-0.3,0-0.6,0-0.9,0.1C157.1,142.5,157,142.6,156.8,142.7z M145.3,138.9
									c0.1,0.2,0.2,0.4,0.3,0.6c0,0,0,0,0,0c-0.2-0.6-0.3-1.3,0.1-1.9c0,0,0,0,0,0c-0.1,0.2-0.3,0.3-0.4,0.5
									c0.1-0.3,0.2-0.5,0.4-0.8c0,0,0,0,0,0c-0.2,0.1-0.3,0.3-0.5,0.4c0,0,0,0,0,0c0.1-0.1,0.1-0.3,0.2-0.4c0,0,0,0,0,0
									c-0.1,0.2-0.3,0.3-0.4,0.5c0-0.2,0.1-0.4,0.2-0.6c-0.6,0.3-0.9,1.2-0.5,1.6c0-0.5,0-0.7,0.1-0.8c0,0.1,0,0.3,0,0.4
									c0,0.1,0,0.3,0.1,0.4c0.1,0.2,0.1,0.3,0.2,0.4c0-0.1-0.1-0.2-0.1-0.3c0-0.1,0-0.2,0-0.3c0-0.1,0-0.2,0.1-0.3
									c0,0.2,0.1,0.5,0.1,0.7c0.1,0.3,0.2,0.5,0.3,0.6C145.3,139.5,145.3,139.2,145.3,138.9z M152.1,138.5c0,0.1,0,0.1,0,0.2
									c-0.1,0-0.1,0.1-0.1,0.2c0,0.1,0,0.2-0.1,0.3c-0.1,0-0.1,0-0.1,0.1c0,0.1,0,0.1,0,0.2c0,0.1-0.1,0.2-0.1,0.4
									c0,0,0-0.1,0.1-0.1c0,0,0,0,0,0c0,0.1,0,0.1-0.1,0.2c0.1-0.3,0.2-0.6,0.3-0.9c0-0.4,0-0.7,0-1.1c0-0.2,0-0.3-0.1-0.5
									c0,0,0-0.1-0.1-0.1c0,0-0.1,0-0.1,0c-0.1,0.1-0.1,0.1-0.1,0.2c0,0,0,0,0,0c0,0.1-0.1,0.1-0.1,0.1c-0.1,0-0.1-0.1-0.1-0.2
									c0-0.1,0-0.2,0-0.2c0,0,0-0.1,0-0.1c0.1-0.1,0.1-0.2,0.1-0.3c-0.3,0.1-0.3,0.1-0.3,0c0.1-0.1,0.2,0,0.3-0.2
									c-0.1,0.1-0.2,0.1-0.4,0.1c0.1,0,0.2-0.1,0.2-0.1c0.1,0,0.1-0.1,0-0.2c0,0-0.1-0.1-0.2-0.1c0,0.1-0.1,0.2-0.2,0.2
									c-0.1,0-0.2,0-0.3-0.1c0,0.1,0,0.1-0.1,0.2c0.1,0.1,0.2,0.1,0.3,0.2c-0.1,0-0.1,0.1-0.2,0.1c0,0.1,0.1,0.1,0.2,0.2
									c-0.1,0-0.2,0-0.3,0c0,0.2,0.1,0.3,0.3,0.4c0,0,0,0,0,0c-0.1,0-0.1,0.1,0,0.2c0,0,0,0.1,0.1,0.1c0.1,0,0.1,0.1,0.2,0.1
									c0,0.1,0,0.1-0.1,0.2c0,0,0,0.1,0.1,0.1c0,0,0,0,0-0.1c0,0.1,0,0.1-0.1,0.2c-0.1,0.1-0.1,0.2,0,0.3c0,0,0.1,0.1,0.1,0.1
									c0,0,0.1,0.1,0.1,0c0,0,0.1-0.1,0.1-0.1c0-0.1,0-0.2,0-0.3c0-0.2,0-0.4,0.1-0.6c0,0,0.1,0,0.1-0.1c0,0,0,0,0.1,0.1
									c0,0,0.1,0,0.1,0c0,0,0,0,0-0.1c0,0,0,0,0,0c0,0.1,0,0.1,0.1,0.2c0,0,0,0.1,0,0.1c0,0.1,0.1,0.2,0,0.3
									C152,138.3,152,138.4,152.1,138.5C152,138.5,152,138.6,152.1,138.5z M146,139.8c0.1,0.2,0.1,0.4,0,0.6
									c-0.1-0.1-0.2-0.2-0.4-0.3c0.1,0.1,0.2,0.2,0.1,0.4c-0.1-0.1-0.2-0.3-0.3-0.4c0,0,0,0,0,0c0,0.1,0.1,0.1,0.1,0.2
									c0,0.1,0,0.1,0.1,0.2c0,0,0,0,0,0c-0.1-0.2-0.3-0.3-0.4-0.5c0,0,0,0,0,0c0,0.1,0.1,0.2,0.1,0.3c0,0,0,0,0,0
									c-0.1-0.2-0.2-0.4-0.4-0.6c0,0,0,0-0.1,0c0,0.1,0.1,0.3,0.2,0.4c-0.3-0.2-0.3-0.5-0.4-0.8c0,0.3,0,0.6,0.1,0.8
									c0.1,0.2,0.2,0.3,0.2,0.6c0,0.1,0,0.2,0,0.4c0.1-0.2,0.1-0.4,0.2-0.6c0.1,0.2,0.1,0.3,0.1,0.5c0,0,0,0,0,0
									c0.1-0.1,0.1-0.2,0.2-0.3c0,0,0,0,0,0c0,0.1,0,0.2,0,0.3c0.1-0.1,0.2-0.2,0.2-0.4c0.1,0.1,0.1,0.2,0.1,0.4
									c0.2-0.1,0.2-0.3,0.3-0.5c0,0,0,0,0,0c0,0.1,0,0.2,0.1,0.3c0.3-0.2,0.4-0.5,0.3-0.8C146.1,139.9,146.1,139.8,146,139.8
									C146,139.7,146,139.7,146,139.8C146,139.8,146,139.8,146,139.8C146,139.8,146,139.8,146,139.8z M141.8,143.7
									C141.8,143.7,141.8,143.7,141.8,143.7c0.1,0,0.1,0,0.2,0c-0.1-0.1-0.1-0.1-0.2-0.2c0,0-0.1-0.1-0.1,0
									c-0.2,0-0.3,0.1-0.5,0.2c-0.2,0.1-0.3,0.3-0.5,0.4c0,0-0.1,0-0.1,0.1c0.3,0.1,0.6,0.1,0.9,0.2c0.4,0.1,0.8,0.1,1.2,0.1
									c0,0,0.1,0,0.1,0c-0.3-0.1-0.5-0.2-0.7-0.4c0,0-0.1-0.1-0.2-0.1c-0.2,0-0.3,0-0.5,0c-0.1,0-0.3,0-0.4,0
									c0.2-0.1,0.5-0.2,0.8-0.2C141.9,143.8,141.9,143.7,141.8,143.7z M156.9,143.2C156.8,143.2,156.8,143.2,156.9,143.2
									c-0.4,0-0.6,0-0.9,0.1c0,0-0.1,0-0.1,0.1c-0.2,0.1-0.3,0.2-0.5,0.4c-0.1,0-0.1,0.1-0.2,0.1c0,0,0,0,0,0c0,0,0,0,0.1,0
									c0.4,0,0.8,0,1.1-0.2c0.3-0.1,0.6-0.2,0.8-0.3c0.1,0,0.1,0,0.2,0c-0.2-0.1-0.4-0.3-0.6-0.4c-0.2-0.1-0.3-0.1-0.5-0.2
									c0,0-0.1,0-0.1,0c-0.1,0.1-0.1,0.2-0.2,0.3c0.1,0,0.1-0.1,0.2-0.1c0,0,0,0,0,0c-0.1,0-0.1,0.1-0.2,0.1
									C156.4,143.1,156.6,143.1,156.9,143.2z M154.5,139.9C154.5,139.9,154.5,139.9,154.5,139.9c0,0.1-0.1,0.1-0.1,0.2
									c0,0.1,0,0.1-0.1,0.2c-0.2,0.7-0.6,1.4-1,2c-0.5,0.6-1,1.2-1.7,1.6c-0.1,0.1-0.1,0.1-0.1,0.2c0,0,0,0.1,0.1,0.1
									c0,0,0,0.1,0.1,0c0-0.1,0-0.1-0.1-0.2c0-0.1,0-0.1,0-0.2c0.6-0.4,1.2-0.9,1.7-1.5c0.5-0.6,0.8-1.3,1-2
									C154.5,140.3,154.5,140.1,154.5,139.9C154.6,139.9,154.6,139.8,154.5,139.9C154.6,139.9,154.5,139.9,154.5,139.9
									C154.5,140,154.5,140,154.5,139.9C154.5,139.9,154.5,139.9,154.5,139.9z M143.3,140.6c0,0,0,0.1,0,0.1
									c0.1,0.1,0.1,0.3,0.2,0.4c0.4,1,1.1,1.8,1.9,2.4c0.3,0.2,0.7,0.4,1,0.6c0.1,0,0.1,0.1,0,0.1c0,0.1,0,0.1-0.1,0.2
									c0,0,0,0,0,0c0,0,0.1,0,0.1,0c0-0.1,0.1-0.2,0.1-0.3c-0.8-0.3-1.4-0.8-2-1.5C144.1,142.1,143.6,141.4,143.3,140.6
									C143.3,140.6,143.3,140.6,143.3,140.6z M147,133.4C147,133.4,146.9,133.4,147,133.4c-0.2,0.1-0.3,0.1-0.5,0.2
									c-0.1,0-0.1,0.1-0.1,0.2c0,0-0.1,0.1-0.1,0.1c-0.1,0.1-0.1,0.1-0.2,0.2c0-0.1,0-0.1-0.1-0.1c-0.2,0.2-0.4,0.7-0.4,0.9
									c0.2-0.4,0.4-0.6,0.5-0.6c0,0.1-0.1,0.3-0.1,0.5c0,0.2,0,0.3,0.1,0.5c0-0.3,0.1-0.6,0.3-0.9c0,0,0,0,0,0
									c-0.1,0.1-0.1,0.1-0.2,0.2c0.1-0.3,0.3-0.5,0.5-0.8c0,0,0,0,0,0c-0.1,0.1-0.2,0.2-0.3,0.2
									C146.5,133.7,146.8,133.6,147,133.4z M151.7,143.6c0-0.1-0.1-0.1-0.2-0.1c-0.3,0.1-0.6,0.2-0.8,0.3
									c-0.1,0.1-0.3,0.1-0.4,0.2c0.1,0,0.1,0.1,0.1,0.1c0.2,0.1,0.3,0.1,0.5,0.2c0,0,0,0,0.1,0c0.1,0,0.3,0,0.4,0
									c-0.1-0.1-0.1-0.2-0.2-0.2c-0.1-0.1,0-0.1,0-0.1c0.1,0,0.1-0.1,0.2-0.1C151.6,143.7,151.7,143.7,151.7,143.6z M154.7,139.4
									C154.7,139.4,154.7,139.4,154.7,139.4C154.7,139.4,154.7,139.4,154.7,139.4c0.1-0.5,0.1-0.9,0.1-1.3c0-1-0.2-2-0.6-2.9
									c-0.3-0.6-0.6-1.2-1-1.7c0,0-0.1-0.1-0.1-0.1c0,0,0,0,0,0c0,0,0,0,0,0.1c0.5,0.6,0.9,1.3,1.2,2c0.4,1,0.5,2.1,0.5,3.2
									c0,0.2,0,0.4,0,0.6C154.7,139.3,154.7,139.4,154.7,139.4z M143,139.7C143,139.7,143,139.7,143,139.7c0-0.1,0-0.1,0-0.2
									c0-0.2-0.1-0.4-0.1-0.6c-0.1-0.9-0.1-1.7,0.1-2.6c0.2-0.9,0.5-1.7,1.1-2.4c0,0,0,0,0-0.1c0,0,0,0,0,0
									C142.8,135.6,142.6,137.6,143,139.7z M146,141.7c-0.1,0-0.1,0.1-0.2,0.1c-0.1,0-0.2,0-0.2-0.1c0-0.1,0-0.2,0-0.3
									c0-0.1,0-0.2,0-0.2c-0.1,0.2-0.2,0.4-0.2,0.6c-0.1-0.1-0.2-0.1-0.1-0.5c-0.1,0.1-0.2,0.3-0.1,0.5c0.1,0.1,0.2,0.2,0.4,0.2
									C145.8,142,145.9,141.9,146,141.7z M151.1,143.5c0.1,0,0.2-0.1,0.3-0.1c0,0,0,0-0.1,0c0.1,0,0.1,0,0.1-0.1
									c0-0.1,0-0.2-0.1-0.3c0-0.1-0.1-0.3-0.2-0.4c0,0,0,0,0,0c0.1,0.2,0.2,0.5,0.1,0.7c-0.1-0.2-0.1-0.4-0.2-0.6
									c-0.1,0-0.1,0.1-0.1,0.1C151.1,143,151.1,143.2,151.1,143.5z M150.7,136.5c0.1-0.1,0.3-0.2,0.5-0.2c0.2,0,0.3,0.1,0.4,0.2
									c0-0.1,0-0.1,0-0.1c0,0,0-0.1,0-0.1c0-0.2-0.2-0.3-0.3-0.3c-0.2,0-0.3,0.1-0.4,0.2C150.8,136.3,150.7,136.4,150.7,136.5z
									 M144.2,139.6c-0.1,0.2-0.1,0.5-0.1,0.7c0.1,0.3,0.2,0.5,0.4,0.8c0,0,0,0,0,0c0-0.2,0-0.4-0.1-0.5c-0.1-0.2-0.2-0.4-0.2-0.6
									C144.2,139.8,144.2,139.7,144.2,139.6z M145.6,138.7C145.7,138.7,145.7,138.7,145.6,138.7c0.1-0.4,0.3-0.7,0.5-1
									c0,0,0.1-0.1,0.1-0.1C145.8,137.9,145.6,138.3,145.6,138.7z M147.1,142.7C147.1,142.7,147.1,142.7,147.1,142.7
									c0.2,0.3,0.4,0.5,0.6,0.7c0,0,0,0,0,0c0,0-0.1-0.1-0.1-0.1c0,0-0.1-0.1-0.1-0.1c0.1,0,0.1,0,0.2,0
									C147.6,142.9,147.2,142.6,147.1,142.7z M145.9,135.2c0,0-0.1,0.1-0.1,0.1c0,0,0,0,0,0c0-0.1,0-0.2,0.1-0.3
									c-0.3,0.3-0.4,0.9-0.2,1.1C145.6,135.8,145.8,135.5,145.9,135.2z M146.5,136.6c0,0.2-0.1,0.4-0.2,0.6c0,0,0,0,0.1,0
									c0,0.1,0,0.1,0,0.2c0.2-0.2,0.3-0.4,0.2-0.7C146.5,136.7,146.5,136.6,146.5,136.6z M145.9,136.6c-0.1-0.1-0.1-0.1-0.2-0.2
									c0.1,0.5,0.1,0.5-0.1,0.8c0.3-0.2,0.5-0.5,0.3-0.7C145.9,136.5,145.9,136.5,145.9,136.6z M151.7,140.3
									C151.7,140.3,151.7,140.3,151.7,140.3C151.7,140.3,151.6,140.4,151.7,140.3c-0.2,0.2-0.2,0.3-0.3,0.4
									c-0.1,0.2-0.2,0.4-0.4,0.5c-0.1,0.1-0.2,0.1-0.2,0.2c0.2-0.1,0.4-0.2,0.5-0.3c0.1-0.1,0.1-0.1,0.2-0.2
									C151.5,140.7,151.6,140.5,151.7,140.3z M152.8,139.7c0,0,0,0.1,0,0.1c0,0.1,0,0.1,0,0.2c0,0,0,0,0,0c0,0,0,0,0-0.1
									c-0.1,0.1-0.1,0.1-0.1,0.2c0,0.1,0,0.2,0,0.3c0,0.1-0.1,0.2-0.1,0.2C153,140.4,152.9,139.9,152.8,139.7z M151.3,139.4
									c0.1,0,0.2-0.1,0.2-0.2c0,0,0-0.1,0-0.1c0-0.1-0.1-0.1-0.1-0.2c0,0-0.1,0-0.1,0c0,0,0,0.1,0,0.1c0,0,0,0.1,0,0.1
									C151.3,139.2,151.3,139.3,151.3,139.4z M151.3,135.9C151.3,135.9,151.3,135.8,151.3,135.9c-0.2,0-0.3,0-0.4,0
									c-0.1,0-0.1,0-0.2,0c-0.1,0.1-0.1,0.1-0.2,0.2c0,0.1,0.1,0.1,0.1,0c0,0,0.1,0,0.1-0.1C151,136,151.1,135.9,151.3,135.9z
									 M145.8,141.7c0.2-0.1,0.3-0.2,0.3-0.4c0,0,0-0.1,0-0.1c0,0.1-0.1,0.2-0.2,0.3c0-0.1,0-0.2,0-0.3
									C145.8,141.3,145.8,141.5,145.8,141.7z M145.3,137c0.1-0.1,0.1-0.1,0.2-0.2c0-0.1,0.1-0.2,0.1-0.2c0-0.2-0.1-0.3-0.1-0.5
									c0,0,0,0,0,0c0,0.1,0,0.2,0,0.2c0,0.2,0,0.3-0.1,0.5c0,0,0,0,0,0c0,0,0,0,0.1,0C145.3,136.9,145.3,137,145.3,137z
									 M146.1,135.5c-0.2,0.2-0.3,0.4-0.3,0.7c0.1-0.2,0.2-0.3,0.3-0.5C146.2,135.6,146.2,135.5,146.1,135.5z M144.3,141.3
									c0.1-0.3-0.2-0.5-0.3-0.8C144,140.8,144.2,141,144.3,141.3z M144.9,142.2c-0.2-0.2-0.2-0.4-0.1-0.6
									c-0.1,0.1-0.2,0.4-0.1,0.5C144.7,142.2,144.8,142.2,144.9,142.2z M146.1,136.9C146.1,137,146.1,137,146.1,136.9
									c0.2-0.1,0.2-0.4,0-0.6C146.2,136.6,146.2,136.8,146.1,136.9C146.1,136.9,146.1,136.9,146.1,136.9
									C146.1,136.9,146.1,136.9,146.1,136.9z M145.1,141.5c-0.1,0.1-0.2,0.2-0.2,0.4c0,0,0-0.1,0-0.1c0,0.2,0.1,0.2,0.2,0.2
									C145,141.8,145,141.7,145.1,141.5z M146.5,137.7C146.5,137.7,146.4,137.7,146.5,137.7c-0.2,0.1-0.4,0.3-0.4,0.6
									C146.2,138.1,146.3,137.9,146.5,137.7z M151.6,143.4C151.7,143.4,151.7,143.4,151.6,143.4c0-0.3,0-0.4-0.1-0.6
									c0,0,0,0-0.1-0.1C151.5,142.9,151.6,143.2,151.6,143.4z M156.4,140.3c0-0.1,0-0.3-0.1-0.4c0,0,0,0,0,0
									c0,0.1-0.1,0.3-0.1,0.5C156.3,140.4,156.4,140.4,156.4,140.3z M141.4,140.7C141.4,140.7,141.4,140.7,141.4,140.7
									c0,0.1,0,0.3,0,0.4c0.1,0,0.1,0,0.2,0C141.5,141,141.5,140.8,141.4,140.7z M140.5,142.6
									C140.5,142.5,140.5,142.5,140.5,142.6c0-0.1-0.1-0.2-0.1-0.3c-0.1-0.2-0.2-0.3-0.2-0.5C140.2,142.1,140.3,142.3,140.5,142.6
									z M157.5,141.7C157.5,141.7,157.5,141.7,157.5,141.7c0.1-0.2,0.2-0.5,0.3-0.8c-0.1,0.2-0.2,0.4-0.2,0.6
									C157.5,141.6,157.5,141.6,157.5,141.7z M152.4,143.3c-0.1-0.1-0.3-0.2-0.4-0.3c0,0,0,0,0,0
									C152.1,143.1,152.2,143.3,152.4,143.3C152.3,143.3,152.3,143.3,152.4,143.3z M145,137C145,137,145,137,145,137
									c-0.1,0.1-0.3,0.3-0.4,0.4c0,0,0,0,0,0c0.1,0,0.1-0.1,0.2-0.1C144.8,137.2,144.9,137.1,145,137z M152.5,139.9
									C152.5,139.9,152.5,139.9,152.5,139.9C152.6,139.9,152.6,139.9,152.5,139.9c0.1,0,0.1,0,0.1,0c0-0.1-0.1-0.3-0.1-0.4
									c0,0,0,0,0,0C152.5,139.6,152.5,139.8,152.5,139.9z M151.4,144c0.1,0.2,0.1,0.2,0.2,0.1C151.6,144.1,151.5,144,151.4,144
									C151.4,144,151.4,144,151.4,144z M151.8,135.5C151.7,135.5,151.7,135.5,151.8,135.5c0,0.1,0.1,0.3,0.2,0.4
									C152,135.7,151.8,135.6,151.8,135.5z M151.3,136.4C151.2,136.4,151.2,136.4,151.3,136.4c-0.1,0.1-0.1,0.1-0.2,0.2
									c0.1,0,0.1,0,0.1-0.1C151.2,136.5,151.2,136.4,151.3,136.4z M144.4,141.7c0,0,0-0.1,0.1-0.1c0,0,0-0.1,0.1-0.1c0,0,0,0,0,0
									c0,0.1-0.1,0.1-0.1,0.2C144.4,141.7,144.4,141.7,144.4,141.7z M150.8,138.2c0.1,0,0.1-0.1,0.1-0.2
									C150.9,138.1,150.8,138.1,150.8,138.2z M151,136.4C151,136.4,151,136.4,151,136.4c-0.1,0-0.1,0-0.1,0
									C150.9,136.5,151,136.5,151,136.4C151,136.5,151,136.5,151,136.4z M151,141.7C151,141.7,151,141.7,151,141.7
									c0,0.1-0.1,0.2-0.1,0.3c0,0,0,0,0,0C151,141.9,151,141.8,151,141.7z M144,143.1c0-0.1-0.1-0.1-0.1-0.2
									C143.9,143.1,143.9,143.1,144,143.1z"/>
								<path d="M144.4,142.4C144.4,142.3,144.4,142.3,144.4,142.4c0.1-0.1,0.1,0,0.2,0C144.5,142.4,144.5,142.4,144.4,142.4z"/>
								<path d="M147.9,136.7c0.2-0.2,0.3-0.4,0.5-0.6c0.2-0.2,0.5-0.2,0.7-0.2c0,0,0,0,0,0c0,0-0.1,0-0.1,0c-0.1,0-0.3,0-0.4,0.1
									c0,0-0.1,0-0.1,0c0,0,0-0.1,0.1-0.1c0,0,0.1,0,0.2-0.1c0,0,0-0.1,0.1-0.1c0,0,0.7-0.1,0.8-0.1c-0.1,0.1-0.1,0.1-0.2,0.2
									c0.1,0,0.2-0.1,0.3-0.1c-0.1,0.1-0.1,0.2-0.2,0.3c0,0-0.1,0-0.1,0c-0.1,0-0.2-0.1-0.2-0.1c0,0,0,0,0,0c0,0.1,0,0.1,0.1,0.2
									c-0.1,0-0.1,0-0.2,0c0,0,0,0,0,0.1c-0.2-0.1-0.3-0.1-0.5,0c-0.1,0.1-0.2,0.1-0.3,0.3c-0.1,0.1-0.2,0.3-0.3,0.4
									C148,136.8,148,136.8,147.9,136.7z"/>
								<path d="M148.6,136.8c-0.1,0-0.2,0-0.2-0.1c0,0-0.1,0-0.1,0c0,0,0-0.1,0-0.1c0-0.1,0.1-0.1,0.2-0.2c0.2-0.2,0.5-0.3,0.8-0.2
									c0,0,0,0,0.1,0c-0.1,0-0.2,0-0.3,0c0,0,0,0,0,0c0.1,0,0.1,0,0.2,0.1c0,0,0,0,0,0c-0.1,0-0.1,0-0.2,0c0,0,0,0,0,0.1
									c0,0.1,0,0.2-0.1,0.2c-0.1,0-0.2,0-0.3,0c0,0-0.1,0-0.1,0c0,0-0.1,0,0,0.1C148.4,136.8,148.4,136.8,148.6,136.8
									C148.5,136.8,148.5,136.8,148.6,136.8z M148.7,136.7c0.1,0.1,0.2,0.1,0.2,0c0,0,0-0.1,0-0.2
									C148.8,136.6,148.8,136.7,148.7,136.7z"/>
								<path d="M149.8,138.2c0.1-0.1,0.3-0.2,0.5-0.1c0,0-0.1,0.1-0.1,0.1c0-0.1-0.1-0.1-0.1,0C150,138.3,149.9,138.3,149.8,138.2z
									"/>
								<path d="M149.5,136.3c0,0.1,0,0.3-0.1,0.3c0-0.1,0-0.2-0.1-0.3C149.4,136.3,149.4,136.3,149.5,136.3z"/>
								<path d="M150,138.4c-0.1,0.1-0.3,0.1-0.4,0c-0.1-0.1-0.1-0.2-0.1-0.3C149.6,138.3,149.7,138.3,150,138.4z"/>
								<path d="M150.3,139c0.1-0.1,0.1-0.2,0.1-0.2c0,0.1,0.1,0.2,0,0.2C150.4,139,150.4,139,150.3,139z"/>
								<path d="M150.7,139.5c-0.2,0-0.3,0.1-0.5,0.1c0,0,0,0,0,0C150.4,139.5,150.5,139.5,150.7,139.5
									C150.7,139.4,150.7,139.4,150.7,139.5z"/>
								<path d="M154,143.2c0.2-0.1,0.3-0.2,0.5-0.3c0.1-0.1,0.2-0.1,0.2-0.2c0.1-0.1,0.2-0.3,0.3-0.3c-0.1,0.1-0.2,0.2-0.2,0.4
									c0.5-0.2,1.1-0.4,1.5-0.8c-0.3,0.4-0.8,0.6-1.2,0.8c0.2,0,0.4,0,0.5,0.1c0,0,0,0,0,0c-0.5,0-1,0-1.4,0.3
									c0.2,0,0.5,0,0.7,0.1c-0.2,0-0.4,0-0.6,0c-0.2,0-0.4,0.1-0.6,0.3c0.2,0,0.4,0,0.6,0c-0.3,0.1-0.6,0.1-0.9,0.2
									c0.1-0.1,0.2-0.2,0.3-0.3C153.8,143.4,153.9,143.3,154,143.2c0-0.2,0.1-0.4,0.3-0.5C154.2,142.9,154,143.1,154,143.2z"/>
								<path d="M144.1,143.7c-0.1-0.2-0.2-0.3-0.3-0.4c0,0,0,0,0,0c0.1,0.1,0.2,0.2,0.3,0.3c0.1,0.2,0.3,0.4,0.5,0.5
									c0.1,0,0.1,0.1,0.2,0.1c-0.3,0-0.6-0.1-0.9-0.1c0.2,0,0.4,0,0.6,0c-0.2-0.1-0.3-0.2-0.5-0.2c-0.2,0-0.4,0-0.6,0.1
									c0,0-0.1,0-0.1,0c0,0,0,0,0,0c0.2,0,0.4-0.1,0.6-0.1c-0.4-0.3-0.9-0.3-1.4-0.2c0,0,0,0,0,0c0.2,0,0.3-0.1,0.5-0.1
									c-0.2-0.1-0.5-0.2-0.7-0.3c-0.2-0.1-0.4-0.2-0.6-0.4c0.5,0.4,1,0.5,1.6,0.7c-0.1-0.2-0.2-0.3-0.3-0.4
									c0.2,0.1,0.3,0.2,0.4,0.4c0,0.1,0.1,0.1,0.2,0.1C143.7,143.6,143.9,143.6,144.1,143.7z"/>
								<path d="M143.2,143.8c-0.1,0-0.1,0-0.2,0c0,0,0,0,0,0C143.1,143.8,143.1,143.8,143.2,143.8
									C143.2,143.8,143.2,143.8,143.2,143.8z"/>
								<path d="M141.9,144.1c0.1,0,0.1-0.2,0.3-0.1C142,144,141.9,144.1,141.9,144.1z"/>
								<path d="M156,143.3c0.1-0.1,0.2,0,0.2,0.1C156.1,143.3,156.1,143.3,156,143.3z"/>
							</g>
						</g>
					</g>
				</g>
			</g>
			<g>
				<path class="st1" d="M169.9,136.7c-0.3-5.6,3.2-10.8,2.5-16.3c-0.8-6.8-7.8-8.2-13.4-9.5c-1.4-0.3-2.9-0.6-4.3-0.9
					c2.6,1.2,4.7,2.9,7.2,5.2c0.5,0.4,0.5,1.1,0.1,1.6l-1.5,1.7l-0.3,0.5c1.6,0.9,3.1,1.8,4,2.4c0.8,0.5,1.3,1.3,1.4,2.2
					c0.5,3.8,1.4,14.8-0.2,33.6c-0.6,6.6-1.3,12.2-2.1,16.7c-1.8,10-3.7,15.2-4.2,16.5v0c0,0.7-0.1,1.3-0.1,2c0,0.2,0,0.4,0,0.5
					c0,0.5-0.1,0.9-0.1,1.4c0,0.2,0,0.4,0,0.6c0,0.5-0.1,1-0.1,1.5c0,0.1,0,0.2,0,0.3c0,0.5-0.1,1-0.1,1.4c0,0.1,0,0.3,0,0.4
					c-0.3,5.8-0.7,10.7-0.8,13.9c-0.5,9.3,3.2,11,4.7,11.3c0.3,0.1,0.5,0.1,0.6,0.1c0,0,0,0,0,0h3h1.6c0.5,0,1-0.4,1-1
					c0-3.2-0.1-7.9-0.8-12.3c-1.1-7.7-2.8-17.3-2.8-17.3c-0.4-5.2-0.4-11.5,0.9-18.9C167,168.5,170.8,156.3,169.9,136.7z"/>
			</g>
			<g>
				<path class="st1" d="M139.7,212.8c0-2.1,0.1-7.4,0.2-14.2c0-0.4,0-0.9,0-1.3c0-0.2,0-0.3,0-0.5c0-0.4,0-0.7,0-1.1
					c0-0.3,0-0.5,0-0.8c0-0.3,0-0.6,0-0.9c0-0.3,0-0.7,0-1c0-0.6,0-1.3,0-1.9v0c-0.2-2.3-1.9-26.5-9.1-44.4
					c-5.7-14.1-9.1-20.9-10.4-23.4c-0.4-0.7-0.2-1.6,0.4-2.1c0.8-0.6,1.9-1.5,3.1-2.5l-6.1-2.1c-0.6-0.2-1-0.7-1.1-1.3
					c-0.3-1.4-0.2-3.9,3.3-5.8c-2.4,0.3-4.8,0.8-7.2,1.3c-5.6,1.3-14.2,3-14.7,10.1c-0.4,6.2,5.5,10.6,6.3,16.5
					c1.4,9.4,6.1,20.1,11.6,32.1c6.7,14.4,1.8,26.1-0.8,32.3c-2.9,6.7-4.7,14-4.4,21.3c0,0.5,0.5,1,1,1h1.8h3.8h13.5
					C138.3,223.9,139.6,220,139.7,212.8z"/>
			</g>
			<g>
				<path class="st7" d="M155.8,116.9c0.3,0.6,0.5,1.2,0.7,1.9l0,0c1.3,3.7,2.3,8.1,3,13.1c0,0,0,0,0,0c0.6,4.8,1,10,1,15.4
					c0.2,12.2-0.6,29.1-1.4,43.2c0.5-1.3,2.5-6.5,4.2-16.5c0.8-4.6,1.6-10.1,2.1-16.7c1.6-18.7,0.7-29.8,0.2-33.6
					c-0.1-0.9-0.6-1.7-1.4-2.2c-1-0.6-2.4-1.5-4-2.4l0.3-0.5l1.5-1.7c0.4-0.5,0.4-1.2-0.1-1.6c-2.5-2.3-4.6-4-7.2-5.2
					c-1-0.2-3-0.4-5.5-0.6c1,0.4,1.9,1,2.7,1.7C153.4,112.5,154.7,114.4,155.8,116.9z"/>
			</g>
			<g>
				<path class="st7" d="M116.6,115.1c0.1,0.6,0.5,1.1,1.1,1.3l6.1,2.1c-1.2,1-2.3,1.9-3.1,2.5c-0.6,0.5-0.8,1.4-0.4,2.1
					c1.3,2.5,4.7,9.3,10.4,23.4c7.3,17.9,9,42.1,9.1,44.4c0-15.4-0.3-34.5-1.6-43.9c-0.1-1-0.3-1.9-0.5-2.9
					c-0.1-0.3-0.1-0.6-0.2-0.9c-0.1-0.7-0.3-1.3-0.4-1.9c-0.1-0.3-0.1-0.6-0.2-1c-0.1-0.6-0.3-1.3-0.4-1.9c-0.1-0.3-0.1-0.6-0.2-0.8
					c-0.2-0.8-0.4-1.6-0.6-2.3c0-0.1-0.1-0.2-0.1-0.3c-0.3-0.9-0.5-1.8-0.8-2.6c0-0.1-0.1-0.3-0.1-0.4c-0.2-0.7-0.5-1.4-0.7-2.1
					c-0.1-0.2-0.1-0.4-0.2-0.6c-0.2-0.6-0.5-1.3-0.7-1.9c-0.1-0.1-0.1-0.3-0.2-0.4c-0.3-0.7-0.6-1.5-0.9-2.2c-1.6-3.8-3.2-7-4.4-9.3
					c-0.5-1-1-1.8-1.3-2.4c-0.8-1.3-0.9-2.2-0.8-2.9c0.1-0.8,0.7-1.3,1.3-1.5c-2.6,0.1-5.1,0.3-7,0.5
					C116.4,111.2,116.3,113.8,116.6,115.1z"/>
			</g>
		</g>
		<g>
			<g>
				<path class="st16" d="M138.6,118.7c0.3-0.4,0.7-0.7,1.2-0.8c0.2-0.1,0.5-0.1,0.7,0c0.2,0,0.5,0.1,0.7,0.2l6.6,3.8l5.7-4
					c0.2-0.2,0.5-0.3,0.7-0.3c0.3-0.1,0.7-0.1,1,0c0.3,0.1,0.6,0.3,0.9,0.5c1.3,1.4,2.5,2.8,3.5,4.4c0.6,0.9,1.2,1.9,1.8,3
					c0.1,0.1,0.1,0.2,0.2,0.3c-0.5-0.7-1-1.3-1.5-2c-1-1.2-2.2-2.4-3.7-3.7l-6.6,3.7c-0.5,0.3-1.2,0.5-1.8,0.5c-0.1,0-0.1,0-0.2,0
					c-0.1,0-0.2,0-0.3,0c-0.6,0-1.2-0.1-1.7-0.3l-8.3-3.6c-0.4,0.4-0.8,0.8-1.2,1.1c0.3-0.3,0.6-0.6,0.9-1
					C137.5,120.1,138,119.4,138.6,118.7z"/>
			</g>
			<g>
				<path class="st8" d="M125.7,109.9c0.1-0.2,0.2-0.4,0.3-0.6c0.1-0.2,0.3-0.4,0.6-0.5c0.6-0.1,1.3,0.5,1.7,0.7
					c2,1.1,4.1,2.3,6.1,3.3c1.9,0.9,3.8,1.9,5.6,3c1.4,0.8,2.8,1.8,4.1,2.8c1.1,0.9,2.2,1.8,3.2,2.9c0.2,0.2,0.3,0.3,0.5,0.5
					l-6.6-3.8c-0.2-0.1-0.5-0.2-0.7-0.2c-0.2,0-0.5,0-0.7,0c-0.5,0.1-0.9,0.4-1.2,0.8c-0.5,0.7-1,1.4-1.6,2c-0.3,0.3-0.6,0.6-0.9,1
					c-2.1,2.2-4.4,3.7-7.5,5.2c-0.9,0.5-2,0.9-3,1.4c0.6-1.7,1.3-3.5,1.6-5.7c0.4-2.4,0.3-4.8-0.3-7.2c-0.2-0.8-0.5-1.7-0.8-2.5
					c-0.2-0.6-0.6-1.2-0.6-1.9C125.5,110.7,125.5,110.3,125.7,109.9z"/>
			</g>
			<g>
				<path class="st8" d="M156.1,118.2c-0.2-0.3-0.5-0.4-0.9-0.5c-0.3-0.1-0.7-0.1-1,0c-0.3,0-0.5,0.1-0.7,0.3l-5.7,4
					c1.6-3.8,1.3-8.2,0.3-11.5c-0.1-0.3,0-0.7,0.2-1c0.2-0.3,0.6-0.4,1-0.4c0.3-0.3,7.7,5.7,11.1,12.4c2,3.9,2.3,6.7,2.3,6.7
					c-0.1-0.2-0.2-0.4-0.3-0.6c-0.3-0.7-0.7-1.4-1-2.1c-0.6-1.1-1.2-2.1-1.8-3C158.5,121.1,157.4,119.7,156.1,118.2z"/>
			</g>
		</g>
	</g>
	<g>
		<g>
			<path class="st0" d="M124.9,207.9c0.2-0.4,0.3-0.7,0.3-1.1c0-0.1,0-0.2,0.1-0.3c0.1-0.1,0.2-0.1,0.3-0.1c0.9,0.2,1.9-0.1,2.4-1
				c0.3-0.5,0.4-1.1,0.3-1.6c0-0.1,0-0.2,0.1-0.3c0.1-0.1,0.2-0.1,0.3-0.1c1.1,0.3,2.2-0.2,2.8-1.1c0.5-0.9,0.5-2.1-0.3-2.9
				c-0.1-0.1-0.1-0.2-0.1-0.3c0-0.1,0.1-0.2,0.2-0.2c0.6-0.1,1.1-0.5,1.4-1c0.6-1,0.3-2.4-0.7-3c0,0-1.8-1.1-2.6-1.6
				c-0.2-0.1-0.2-0.3-0.1-0.5c1.2-2.1-1.1-4.3-4.7-5.5c-4.2-1.4-12.7-1.7-15.3,3.1c-2.1,4-0.5,9.8,4.7,13.1c0.9,0.6-0.8-0.4,8.3,4.9
				C123.3,209.1,124.4,208.8,124.9,207.9z"/>
		</g>
		<g>
			<path class="st0" d="M119.1,189.9c2.5,1.4,3.4,4.5,2,7c-1.4,2.5-4.5,3.4-7,2l-5-2.8l5-9L119.1,189.9z"/>
		</g>
		<g>
			<path class="st1" d="M61.1,164.7c-0.5-3.3,0.1-6.6,1.8-9.5c0.6-1.1,1.4-2.2,2.3-3.1l35.5-36.6c2.6-2.7,7-2.8,9.8-0.1
				c2.2,2.2,2.7,5.6,1.2,8.3c-0.3,0.5-0.7,1-1.1,1.4l-35.5,36.6c-0.1,0.1-0.1,0.2-0.2,0.3c-0.1,0.2-0.2,0.5-0.2,0.8
				c0.1,0.4,0.3,0.7,0.6,0.9l38.5,21.5c0.6,0.3,0.8,1,0.4,1.6l-0.3,0.5l-5,9l-0.3,0.5c-0.3,0.6-1,0.8-1.6,0.4l-38.5-21.5
				C64.6,173.4,61.8,169.3,61.1,164.7z"/>
		</g>
	</g>
	<g>
		<path class="st2" d="M154.8,109.9c2.5,1.2,4.5,2.8,6.8,4.9c0.2-0.5,0.5-1.3,1.2-2.1c0.5-0.5,1-0.9,1.3-1.1c-1.4-0.4-3-0.8-4.8-1.1
			C157.7,110.2,156.2,110,154.8,109.9z"/>
	</g>
	<g>
		<path class="st2" d="M112.6,110.3c-1.9,0.4-5.6,1.4-6.3,2c2.8-0.5,6.7,0.7,10.3,2.2v0c0-0.1,0-0.3,0-0.5c0-1.4,0.6-3.3,3.3-4.7
			C118.5,109.2,114.9,109.8,112.6,110.3z"/>
	</g>
	<g>
		<g>
			<path class="st6" d="M152.3,72.1L152.3,72.1c0,0,0-0.4,0-1c0-0.6-0.1-1.4-0.1-2.2c0-0.4,0-0.8,0-1.2c0-0.2,0-0.4,0.1-0.6
				c0-0.2,0.1-0.3,0.1-0.5c0.1-0.1,0.1-0.3,0.2-0.4c0.1-0.1,0.2-0.1,0.2-0.2c0,0,0.1,0,0.1,0l0,0l13.3-3c0.3,1.1,0.5,2,0.7,3.1
				l-0.7,0.2c-1,0.2-2.1-1.8-3.3-1.6l-9.7,2.2c0,0-0.1,0-0.1,0.1c0,0,0,0-0.1,0.1c0,0-0.1,0.1-0.1,0.2c-0.1,0.3-0.1,1.1,0,1.8
				c0.1,0.8,0.2,1.5,0.2,2.1c0.1,0.6,0.1,1,0.1,1c0,0,0,0.1,0,0.1c0,0.4-0.2,0.7-0.5,0.7C152.6,73,152.3,72.6,152.3,72.1z"/>
		</g>
		<g>
			<g>
				<path class="st0" d="M104.1,70.5c-3.2-13.8,6.9-27.8,22.4-31.4c2.3-0.5,4.7-0.8,7-0.8c7.2,0,14.1,2.5,19.2,6.9
					c2.6,2.2,4.5,4.9,6,7.8c1.9,3.7,2.6,7.7,3.5,11.7c0.9,3.7,2.1,7.5,2.5,11.3c0.8,6.6-1.5,13.8-6.5,19c-5.7,5.8-14.8,5.9-22.3,4.5
					c-7.4-1.3-14.7-4.8-20-9.3c-5.9-5-9.9-11.7-11.7-19C104.2,71,104.2,70.7,104.1,70.5z"/>
			</g>
			<g>
				<g>
					<path class="st17" d="M127.9,68.5c3.1-2.5,8.4-1.2,8.6-1.2c0.6,0.2,1,0.8,0.8,1.4c-0.1,0.4-0.5,0.7-0.9,0.8c-0.2,0-0.4,0-0.5,0
						c-1.2-0.3-4.8-0.8-6.6,0.7c-0.5,0.4-1.2,0.3-1.6-0.2C127.3,69.6,127.4,68.9,127.9,68.5z"/>
				</g>
				<g>
					<path class="st17" d="M151,64c0.2-0.1,4.4-3.6,8.2-2.7c0.6,0.2,1,0.8,0.8,1.4c-0.2,0.6-0.8,1-1.4,0.8c-2.3-0.6-5.3,1.4-6.2,2.2
						c-0.1,0.1-0.3,0.2-0.5,0.2c-0.4,0.1-0.9,0-1.1-0.4C150.4,65.1,150.5,64.4,151,64z"/>
				</g>
				<g>
					<path class="st18" d="M155.9,67.6c1-0.2,1.9,0.5,2.2,1.5l0.3,1.2c0.2,1.1-0.3,2.1-1.3,2.3l0,0c-1,0.2-1.9-0.5-2.2-1.5l-0.3-1.2
						C154.3,68.8,154.9,67.8,155.9,67.6z"/>
				</g>
				<g>
					<path class="st18" d="M133.6,72.7c1-0.2,1.9,0.5,2.2,1.5l0.3,1.2c0.2,1.1-0.3,2.1-1.3,2.3l0,0c-1,0.2-1.9-0.5-2.2-1.5l-0.3-1.2
						C132.1,73.9,132.6,72.9,133.6,72.7z"/>
				</g>
				<g>
					<path class="st19" d="M146.6,78.4c3.2-0.7,6.5,1.3,7.2,4.5l0.3,1.2c0.7,3.2-1.3,6.5-4.5,7.2c-3.2,0.7-6.5-1.3-7.2-4.5l-0.3-1.2
						C141.3,82.4,143.3,79.2,146.6,78.4z"/>
				</g>
			</g>
		</g>
		<g>
			<path class="st20" d="M100.3,54.2c1.1-1.4,2.6-2.6,4.3-3.2c0.7-0.2,1.1-1,1-1.7c-0.4-2.1,0.4-4.5,1.4-6.3
				c1.4-2.4,3.4-4.6,5.3-6.6c3.8-3.7,9.9-5.5,14.9-6.9c3.8-1,8.1-1.9,12.1-1.8c2.9,0.1,5.8,0.3,8.7,1c4.3,1,8.7,2.6,12,5.7
				c3.3,3,5.3,7.8,4,12.1c-1.5-3.5-3-6-5.6-7.9c1.3,2,2.1,4.2,2.3,6.6c0.3,2.9-0.2,5.9-1.6,8.5c-1.5-4.1-4.6-7.5-8.5-9.5
				c-0.1,0-0.2,0-0.4,0.1c-2.8,0.7-3.8,4.2-6.2,5.6c-2.1,1.2-4.8,0.6-7.2-0.3c-2.3-0.8-4.8-1.8-7.2-1.2c-1.7,0.5-3.1,1.7-4.3,3
				c-1.2,1.3-2.4,2.6-3.9,3.5c-0.1,0.1-0.2,0.1-0.3,0.2c-0.1,0.1-0.2,0.2-0.1,0.3c0,0.1,0.1,0.2,0.1,0.3c0.9,2.2,0,4.5-1,6.4
				c-1.1,1.9-1.9,4.3-0.9,6.5c0.4,0.8,0.9,1.4,1.4,2.2c1.8,2.8,0.8,5.1-0.3,8c-0.9-2-1.8-4-3.5-5.4c-1.8-1.5-4.6-1.9-6.3-0.3
				c-1.6,1.5-1.5,4.1-1.1,6.2c0.6,3,1.1,4.1,2.4,6.8c-5.8-5.3-12.8-14.6-13.8-22.2C97.7,60.5,98.3,56.9,100.3,54.2z"/>
		</g>
		<g>
			<path class="st20" d="M122,84.6c-0.4,3.5-0.1,6.9,0.9,9.9c3.6,10.8,15.6,17.9,30.4,14.5c19.4-4.4,11.2-35.3,11.2-35.3
				s1.1,7.8-2.5,8.6c-1.4,0.3-2.1-0.8-3.1-1.5c-1-0.8-1.8-1-3.1-1c-1.8,0-2-1.2-3.3-2.3c-1.6-1.4-3.7-0.5-4.7,1.1
				c-0.1,0.1-0.2,0.1-0.3,0.2c-0.1,0-0.2,0-0.3-0.1c-0.9-0.7-2.5-0.8-3.5-0.2c-1,0.6-1.5,1.7-2,2.7c-0.7,1.4-1.4,2-2.8,2.6
				c-1.6,0.8-2.3,2-3,3.6c-0.9,2-3,2.5-5.1,2.3c-2.1-0.1-4.2-1-5.7-2.4c-1.2-1.1-2-2.2-2.4-2.9c-0.1-0.1-0.3-0.2-0.4-0.2
				C122.1,84.3,122,84.4,122,84.6z M141.8,88.2c0-0.2,0.1-0.3,0.2-0.4c2.2-1.3,4.9-3.3,5.9-5.7c0.1-0.1,0.2-0.2,0.3-0.2
				c0.1,0,0.3,0,0.4,0.1c1.8,2,4.4,2.6,6.4,2.8c0.1,0,0.3,0.1,0.3,0.3c0.1,0.1,0,0.3-0.1,0.4c-1.2,1.2-2.7,2.9-5.4,3.5
				c-3.1,0.7-6,0.2-7.7-0.4C142,88.4,141.8,88.3,141.8,88.2z"/>
		</g>
		<g>
			<path class="st6" d="M123.8,72.8l0.7,3.1c0,0,0.8,0.4,1.7,1.2c0.2,0.6,0.5,1.2,0.8,1.9c1,2.1,2.8,3.2,4.6,2.9l7.3-1.4
				c2.3-0.5,3.9-2.9,4.1-5.8c0.1-0.6,0.3-1.2,0.3-1.8c0-0.4,0.3-0.8,0.7-1.1c1.1-0.9,2.5-1.2,3.8-0.9c0.4,0.1,0.8,0.3,1.1,0.7
				c0.3,0.5,0.7,1,1.1,1.4c1.4,2.5,3.9,4,6.2,3.4l0.2,0l7-1.9c1.7-0.5,2.9-2.3,2.8-4.6c0-0.7-0.1-1.4-0.1-2c0.4-1.1,1-1.8,1-1.8
				l-0.7-3.1c0,0-3.8-2.2-10.9,0.1c-7,2.3-8.8,5-10.2,5.3c-1.4,0.3-4.2-1.4-11.5-0.4C126.3,69.1,123.8,72.8,123.8,72.8z M149.9,71.1
				c-0.5-1.6-0.5-2.7,0-3.7c0.8-1.5,2.9-2.6,6.8-3.6c0.2-0.1,0.4-0.1,0.7-0.2c4.9-1.1,6.8,0.4,7.1,1.6c0.3,1,0.6,2.7,0.7,4.9
				c0,1.8-0.8,3.3-2.1,3.7l-7.1,1.9C153.5,76.2,151,74.3,149.9,71.1z M126.2,74c-0.2-1.1,0.8-3.4,5.7-4.5c0.2,0,0.4-0.1,0.7-0.1
				c3.9-0.8,6.3-0.7,7.7,0.3c0.9,0.6,1.4,1.7,1.6,3.3c0.5,3.3-1,6.1-3.3,6.7l-0.1,0l-7.1,1.3c-1.3,0.3-2.8-0.7-3.5-2.4
				C126.9,76.7,126.4,75,126.2,74z"/>
		</g>
		<g>
			<path class="st6" d="M109.9,81.9L109.9,81.9c0,0,0-0.4,0-1c0-0.6-0.1-1.4-0.1-2.2c0-0.4,0-0.8,0-1.2c0-0.2,0-0.4,0.1-0.6
				c0-0.2,0.1-0.3,0.1-0.5c0.1-0.1,0.1-0.3,0.2-0.4c0.1-0.1,0.2-0.1,0.2-0.2c0,0,0.1,0,0.1,0l0,0l13.3-3c0.3,1.1,0.5,2,0.7,3.1
				l-0.7,0.2c-1,0.2-2.1-1.8-3.3-1.6l-9.7,2.2c0,0-0.1,0-0.1,0.1c0,0,0,0-0.1,0.1c0,0-0.1,0.1-0.1,0.2c-0.1,0.3-0.1,1.1,0,1.8
				c0.1,0.8,0.2,1.5,0.2,2.1c0.1,0.6,0.1,1,0.1,1c0,0,0,0.1,0,0.1c0,0.4-0.2,0.7-0.5,0.7C110.2,82.7,109.9,82.3,109.9,81.9z"/>
		</g>
		<g>
			<path class="st9" d="M112,72.8c2.3-1,5.7,1.5,7.6,5.6c1.9,4.1,1.7,8.2-0.6,9.2c-2.3,1-5.7-1.5-7.6-5.6
				C109.5,77.9,109.8,73.8,112,72.8z"/>
		</g>
	</g>
</g>
</svg>
