<?xml version="1.0" encoding="utf-8"?>
<!-- Generator: Adobe Illustrator 22.1.0, SVG Export Plug-In . SVG Version: 6.00 Build 0)  -->
<svg version="1.1" id="圖層_1" xmlns="http://www.w3.org/2000/svg" xmlns:xlink="http://www.w3.org/1999/xlink" x="0px" y="0px"
	 viewBox="0 0 2252 546" style="enable-background:new 0 0 2252 546;" xml:space="preserve">
<style type="text/css">
	.st0{fill:#003E8C;}
	.st1{fill:#E95504;}
</style>
<g>
	<path class="st0" d="M368.7,27h-89.4h-52.1V16.5c0-11.6-8.4-16.9-25.8-16.9c-0.5,0-1.1,0-1.6,0c-15.3,0-23.2,5.8-23.2,16.9V27
		h-54.2H30.4c-20,0-30,7.9-30,23.7v60.5c0,12.1,7.9,17.9,23.2,17.9c16.8,0,25.3-5.8,25.3-17.9V84.9c0-10,5.3-14.7,15.8-14.7h57.9
		h77.3h79.4h61.5c9.5,0,13.7,2.6,13.7,7.9c0,5.8-2.1,15.3-7.4,28.9c-0.5,2.1-0.5,4.2-0.5,5.8c0,12.6,8.9,18.9,26.8,18.9
		c20,0,30-27.4,30-82.1C403.5,34.4,391.9,27,368.7,27z"/>
	<path class="st0" d="M122.5,127.5h77.3h79.4h44.2c11,0,16.8-6.8,16.8-21.1c0-13.1-5.8-20-16.8-20h-44.2h-79.4h-77.3H76.2
		c-11.6,0-17.4,6.9-17.4,20.5c0,13.7,5.8,20.5,17.4,20.5H122.5z"/>
	<path class="st0" d="M49.4,165.4v49.4c0,18.4,8.9,27.4,25.8,27.4h47.4h77.3h79.4h47.3c17.3,0,25.8-9.5,25.8-27.4l-0.6-47.9
		c0-16.8-7.9-25.3-24.7-25.3h-47.9h-79.4h-77.3H69.3c-3.1,0-7.3,2.6-12.6,7.9C52,154.9,49.4,160.1,49.4,165.4z M102,179.1h20.5h77.3
		h79.4h20c7.4,0,10.5,4.2,10.5,12.6c0,7.4-3.1,11.1-10.5,11.1h-20h-79.4h-77.3H102c-6.8,0-10-3.7-10-11.6
		C92,182.7,95.2,179.1,102,179.1z"/>
	<path class="st0" d="M350.3,256.4h-71h-79.4h-77.3H53c-21.6,0-32.6,9-32.6,26.8v108.4c0,20,11,30.5,33.1,30.5h68.9h77.3h79.4h68.4
		c23.1,0,34.7-9.5,34.7-27.9V282.7C382.4,264.8,371.4,256.4,350.3,256.4z M177.2,380.6h-54.7H84.1c-11,0-16.3-4.2-16.3-13.2v-10
		h54.7h54.7V380.6z M177.2,319.5h-54.7H67.8V309c0-7.9,4.7-11.6,13.7-11.6h41h54.7V319.5z M335.1,366.9c0,9.5-4.2,13.7-12.6,13.7
		h-43.1H224v-23.2h55.2h55.8V366.9z M335.1,319.5h-55.8H224v-22.1h55.2h42.1c9,0,13.7,4.2,13.7,12.1V319.5z"/>
	<path class="st0" d="M751,63.3h0.5h84.2c13.2,0,19.5-6.8,19.5-20.5c0-13.2-6.3-20-19.5-20h-84.2H751v-6.3c0-11-7.4-16.3-22.1-16.9
		h-0.5c-14.8,0-22.1,5.8-22.1,16.9v6.3h-21h-64.2h-24.2v-6.3c0-10.5-6.3-15.8-18.4-16.3c-1.1-0.6-2.1-0.6-3.7-0.6
		c-9.5,0-16.3,2.7-19.5,7.4c-1.6,2.6-2.6,5.3-2.6,9.5v6.3h-85.2c-13.1,0-20,6.8-20,20c0,13.7,6.8,20.5,20,20.5h85.2v7.4
		c0,2.1,0.5,3.7,1.1,5.3c0,0.5,0.5,1,1,2.1c0,0.5,0.5,0.5,0.5,0.5c0.6,1.1,1.1,2.1,1.1,2.1h-1.1h-61c-17.9,0-27.4,9-27.4,26.8v304.6
		c0,10.5,6.9,15.8,21.1,15.8c13.7,0,20.5-5.3,20.5-15.8V201.7h46.8h23.2h35.8c2.6,0,4.7,0,6.8-0.5c13.1-2.1,19.5-10.5,19.5-25.8
		v-67.9c0-15.3-6.3-24.2-19.5-26.3c-2.1-0.5-4.2-0.5-6.8-0.5h-21.1c2.6-2.6,3.7-5.8,3.7-10v-7.4h24.2h64.2h21v7.4
		c0,4.2,1.6,7.9,3.7,10h-19.5c-1.6,0-3.7,0-5.3,0.5c-14.2,1.6-21.6,10.5-21.6,26.3v67.9c0,15.8,7.4,24.7,21.6,26.3
		c1.6,0,3.7,0,5.3,0h38.4h22.6h48.9v173.1c0,5.2-2.1,8.4-6.3,8.4c-4.2,0-11.6-1.6-22.1-3.7c-1.6-0.5-3.7-0.5-5.3-0.5
		c-1.6,0-3.2,0.5-4.2,1c-1.1-4.7-4.7-8.9-11-13.6c-5.8-3.2-13.2-6.9-22.6-10.6c-5.8-2.6-12.6-4.7-20-6.8h20h19.5c1,0,2.1,0,3.2,0
		c17.3-1.1,26.3-9.5,26.3-26.3v-36.8c0-16.8-8.9-25.8-26.3-26.3c-1.1,0-2.1-0.5-3.2-0.5h-19.5h-43.7h-11.6v-9.5h11.6h43.7h22.6h27.4
		c7.4,0,11.6-5.8,11.6-16.8c0-11-4.2-16.3-11.6-16.3h-27.4h-22.6h-43.7h-11.6v-7.9c0-11-6.8-16.3-20-16.3c-13.7,0-20,5.3-20,16.3
		v7.9h-12.6h-42.6h-23.2h-26.8c-7.4,0-11,5.3-11,16.3c0,11.1,3.7,16.8,11,16.8h26.8h23.2h42.6h12.6v9.5h-12.6h-42.6H559
		c-1.1,0-2.6,0.5-3.7,0.5c-17.3,1-25.8,10-25.8,26.3v36.8c0,16.3,8.4,25.2,25.8,26.3c1.1,0,2.7,0,3.7,0h19.5h26.8
		c-9,4.2-17.9,7.9-26.8,11c-7.9,3.2-15.8,5.3-23.2,7.9c-10,2.6-20,5.3-30,6.9c-6.8,1.6-10,6.8-10,16.3c0,16.3,5.8,24.2,17.4,24.2
		c6.3,0,14.2-1,22.6-3.7c6.9-2.1,14.8-5.3,23.2-8.9c12.6-5.8,26.8-13.2,42.6-22.6c4.2-2.1,8.4-4.7,12.6-7.3v33.1
		c0,11,6.3,16.3,20,16.3c13.2,0,20-5.3,20-16.3v-37.4c3.7,1.6,7.4,3.7,11.6,5.8c13.2,6.3,27.4,14.7,43.7,24.2
		c2.1,1.1,3.7,2.1,5.8,3.2c3.1,1.6,6.3,2.7,9.5,2.7c2.1,0,4.2-0.5,6.9-1.6c0,1.6,0,3.2,0.5,4.7c3.1,11.6,20,17.4,50,17.4
		c26.8,0,40.5-13.2,40.5-40.5V107.5c0-17.9-8.9-26.8-27.4-26.8h-63.1h-5.3c3.1-3.2,4.7-6.3,4.7-10V63.3z M602.2,163.3
		c0,4.2-2.1,6.3-6.9,6.3h-16.8h-23.2h-46.8v-13.7h46.8h23.2h23.7V163.3z M595.3,113.8c4.7,0,6.9,2.1,6.9,5.8v6.8h-23.7h-23.2h-46.8
		v-6.8c0-3.7,2.1-5.8,6.8-5.8h40h23.2H595.3z M724.7,303.8c0-0.5,0.5-1.1,0.5-1.1c1.6-3.7,2.1-6.8,2.1-10c0,0,0-0.5,0-1.1h1.6h3.7
		c5.8,0,8.9,3.2,8.9,9v7.3c0,5.8-3.2,9-8.9,9h-3.7h-12.1C718.9,314.3,721.6,310.1,724.7,303.8z M578.5,316.9h-3.7
		c-5.8,0-8.9-3.2-8.9-9v-7.3c0-5.8,3.1-9,8.9-9h3.7h0.5c-0.5,0.5-0.5,0.5-0.5,1.1c-0.5,1-0.5,2.1-0.5,3.2c0,1,0,2.1,0.5,3.2
		c0.5,1.6,1.1,2.6,1.6,3.7c3.7,3.7,7.4,8.4,11.1,14.2H578.5z M633.7,316.9h-12.6c0-0.5,0-1.1,0-1.1c0.5-1,0.5-1.6,0.5-2.1
		c0-0.5,0-1.1-0.5-2.1c-1.1-4.2-4.7-11-12.1-20h12.1h12.6V316.9z M687.4,305.9c-1,1.1-1.6,1.6-2.1,2.6c-1.1,1.6-2.1,3.7-2.1,5.3
		c0,0.5,0.5,1.6,1.1,3.2h-10.5v-25.3h11.6h12.1C694.7,296.9,691,301.6,687.4,305.9z M800.5,169.6h-48.9h-22.6h-20
		c-4.2,0-6.8-2.1-6.8-6.3v-7.4h26.8h22.6h48.9V169.6z M751.5,113.8h42.1c4.7,0,6.8,2.1,6.8,5.8v6.8h-48.9h-22.6h-26.8v-6.8
		c0-3.7,2.6-5.8,6.8-5.8h20H751.5z"/>
	<path class="st0" d="M1296.8,88.1c11.1,0,16.8-7.4,16.8-23.2c0-14.7-5.8-22.1-16.8-22.1h-174.1V17c0-10.5-6.3-16.3-19.5-17.4
		c-1.1,0-2.7,0-3.7,0c-15.8,0-23.6,5.8-23.6,17.4v25.8H914.3c-11.6,0-17.4,6.8-17.4,21c0,16.3,5.8,24.2,17.4,24.2h161.5v31H968
		c-16.8,0-25.2,8.4-25.2,25.8v116.3c0,18.9,8.4,28.4,25.8,28.4h58.4c-1,16.3-6.8,31-16.3,44.2c-10,13.7-43.2,28.4-100,45.8
		c-6.8,2.1-10.5,7.9-10.5,17.4c0,21.1,7.9,31,23.7,31c23.7,0,53.7-11,90.5-33.7c36.8-23.2,55.8-57.9,57.9-104.7h31h27.4v93.6
		c0,25.8,13.2,38.4,40,38.4h96.3c26.3,0,39.4-14.7,39.4-43.7v-54.7c0-10.5-7.9-16.3-22.6-16.3c-15.8,0-23.7,5.8-23.7,16.3v30.5
		c0,16.3-4.7,24.2-14.7,24.2h-52.6c-11.1,0-16.3-6.3-16.3-19.5v-68.9h64.7c16.8,0,25.8-8.4,25.8-25.3V144.9
		c0-17.4-8.4-25.8-25.8-25.8h-118.4v-31H1296.8z M1210.5,163.8c6.9,0,10.5,3.7,10.5,11.6v56.3c0,8.4-3.2,13.2-10,13.2h-107.8H997.4
		c-7.9,0-12.1-4.2-12.1-12.6V177c0-9,4.2-13.2,12.1-13.2h105.8H1210.5z"/>
	<path class="st0" d="M1764,317.4c-47.9-80-77.8-145.7-89.4-196.2h70.5c12.1,0,17.8-7.9,17.8-23.7c0-15.8-5.8-23.7-17.8-23.7h-77.9
		V17c0-11.6-7.9-17.4-23.1-17.4c-15.3,0-23.1,5.8-23.1,17.4v56.8h-51.1c-12.1,0-17.9,7.9-17.9,23.7c0,15.8,5.8,23.7,17.9,23.7h45.3
		c-12.6,52.6-41,109.4-85.8,169.9c-7.3,10.5-15.8,21.1-24.2,31.6c-2.6,3.2-3.7,6.8-3.7,11c0,17.4,9.4,26.3,27.9,26.8
		c0.5,0,0.5,0,1.1,0c11,0,25.2-14.7,43.7-44.2c17.9-29.5,33.7-58.9,46.3-88.4v182.6c0,11.6,7.9,17.4,23.7,17.4
		c14.8,0,22.6-5.8,22.6-17.4V224.9c13.7,34.2,26.8,64.7,38.9,91c12.6,26.8,23.2,40,32.6,40c19.5,0,28.9-8.9,28.9-26.8
		C1767.1,324.8,1766.1,320.6,1764,317.4z"/>
	<path class="st0" d="M1529.3,247.5c0.5,0,0.5,0,1.1,0c17.9,0,26.8-7.9,26.8-24.2c0.5-8.9-8.9-25.8-27.9-50.5
		c-11-14.2-25.7-31.6-44.2-51.6h44.2h1.1c11.6,0,17.4-7.9,17.4-23.7c0-15.8-5.8-23.7-17.4-23.7h-1.1H1483V17
		c0-11.6-7.9-17.4-23.1-17.4c-15.2,0-22.6,5.8-22.6,17.4v56.8h-60.5c-11.6,0-17.4,7.9-17.4,23.7c0,15.8,5.8,23.7,17.4,23.7h50
		c-11.6,50.5-35.3,103.1-70,158.4c-3.2,4.7-4.2,9.4-4.2,13.7c0,16.8,9,24.7,27.9,24.7c10,0,21-12.1,33.1-36.3
		c12.1-24.2,19.5-42.1,23.2-53.7v182.6c0,11.6,7.4,17.4,22.6,17.4c15.3,0,23.1-5.8,23.1-17.4V187.5c9,12.1,14.7,20.5,17.4,24.7
		l0.5,0.5c6.3,10.5,11,18.9,15.3,25.8C1518.8,244.3,1523.5,246.9,1529.3,247.5z"/>
	<path class="st0" d="M2036.1,156.2h-67h-15v-11.1h15h59.5c5.9,0,9-3.9,9-11.3c0-6.5-3.1-9.8-9-9.8h-24v-15.2h33.3
		c5.9,0,8.8-3.9,8.8-11.1c0-6.9-2.9-10.6-8.8-10.6h-33.3V72.6h25.5c5.9,0,8.8-3.6,8.8-10.8c0-6.7-2.8-9.8-8.8-9.8h-39.7
		c2.8-0.8,4.4-2.8,4.4-6.7v-4.9h41.3c5.9,0,9-3.6,9-11.4c0-7-3.1-10.3-9-10.3h-41.3v-6.9c0-5.7-3.6-8.5-10.8-8.5
		c-6.7,0-10.3,2.8-10.3,9v6.4h-4.6h-24h-25.8h-2.8v-6.9c0-5.7-3.6-8.5-10.8-8.5c-6.7,0-10.1,2.8-10.1,9v6.4h-42.3
		c-5.9,0-9,3.4-9,10.3c0,7.7,3.1,11.4,9,11.4h42.3V45c0,3.3,1.5,5.7,4.1,7H1860c-5.9,0-9,3.1-9,9.5c0,7.5,3.1,11.1,9,11.1h23.9v14.4
		h-32.7c-5.9,0-8.8,3.6-8.8,10.6c0,7.2,2.8,11.1,8.8,11.1h32.7v15.2h-23.7c-5.9,0-9,3.3-9,9.8c0,7.5,3.1,11.3,9,11.3h59h14.4v11.1
		h-14.4H1853c-6.2,0-9.2,3.6-9.2,10.6c0,7.5,3.1,11.1,9.2,11.1h66.3h14.4v26.3c0,6.2,3.3,9,9.8,9c0.5,0,1,0,1.5,0
		c5.9-0.5,9-3.3,9-8.7v-26.6h15h67c6.2,0,9.3-3.6,9.3-11.1C2045.3,159.8,2042.3,156.2,2036.1,156.2z M1984,123.9h-14.9h-15v-15.2h15
		h14.9V123.9z M1984,87.1h-14.9h-15V72.6h15h14.9V87.1z M1933.8,123.9h-14.4h-14.7v-15.2h14.7h14.4V123.9z M1933.8,87.1h-14.4h-14.7
		V72.6h14.7h14.4V87.1z M1945.1,52h-25.8h-7c2.8-0.8,4.1-2.8,4.1-6.7v-4.9h2.8h25.8h24h4.6V45c0,3.3,1.6,5.7,4.1,7h-8.7H1945.1z"/>
	<path class="st0" d="M2238.3,186.8c-31.7-8.3-54.9-18.6-68.8-31.2h72.5c5.9,0,9-3.6,9-10.8c0-7.5-3.1-11.3-9.5-11.3h-81.2
		c0-2.8,0-4.9,0-6.9v-5.7h78.6c6,0,9-3.9,9-11.1c0-7.5-3.1-11.1-9.5-11.1h-78.1V87.3h67.5c6.2,0,9.3-3.6,9.3-10.8
		c0-7.5-3.4-11.3-9.8-11.3h-67V54.8h76.6c5.9,0,9-3.6,9-10.8c0-7.5-3.1-11.1-9.5-11.1h-40.5c6.2-9.5,9.2-15.4,9.2-17.5
		c0-3.3-1.5-6.2-4.6-8.5c-3.1-2.3-6.4-3.6-9.8-3.6c-3.8,0-6.7,2.1-8.7,5.7c-6.2,11.4-11.1,19.3-15.2,24h-33.2
		c-12.6-19.6-21.9-29.4-28.4-29.4c-8.2,0-12.4,4.4-12.4,12.9c0,2.1,0.8,3.9,2.1,5.4c4.9,4.6,8.2,8.5,10.3,11h-41
		c-6.4,0-9.5,3.6-9.5,11.1c0,7.2,3.1,10.8,9,10.8h73.7v10.3h-64.2c-6.4,0-9.5,3.9-9.5,11.3c0,7.2,3.1,10.8,9,10.8h64.7v11.4H2062
		c-6.4,0-9.5,3.6-9.5,11.1c0,7.2,3.1,11.1,9,11.1h75.5c-0.2,2.1-0.2,4.1-0.2,6.2c0,1.8-0.3,3.9-0.8,6.4h-77.1
		c-6.4,0-9.5,3.9-9.5,11.3c0,7.2,3.1,10.8,9.3,10.8h70.1c-17.5,19.1-41,30.2-70.4,33.5c-6.7,0.8-10.1,3.8-10.1,9.5
		c0,9.5,3.9,14.4,11.6,14.4c11.6,0,27.1-4.4,46.1-13.4c19.1-9,33.5-20.3,43.8-34c4.9,8.8,18.1,18.8,39.7,30.4
		c21.6,11.3,38.4,17,50,17c8.2,0.3,12.6-4.9,12.6-14.9C2252.2,193,2247.6,189.2,2238.3,186.8z"/>
	<path class="st0" d="M1906.4,288.4c0,3.3,1.3,6.4,3.6,9.8c2.6,3.1,5.1,4.6,8.2,4.6c4.9,0,11.4-3.4,19.9-10.8
		c8.2-7.2,12.6-18,12.6-32.5v-10.9c0-3.8,2-5.9,6.2-5.9h18.3h4.1c4.4,0,6.7,2.1,6.7,5.9v28.9c0,13.4,6.4,20.1,19.1,20.1h19.6
		c12.8,0,19-6.9,19-20.6v-21.4c0-5.9-3.6-8.8-10.8-8.8c-7.5,0-11.1,2.8-11.1,8.8v13.6c0,5.1-1.8,7.7-4.9,7.7h-2.8
		c-3.6,0-5.7-1.8-5.7-5.2v-31.7c0-13.6-6.4-20.6-19.3-20.6h-13.9h-28.1c-12.9,0-19.3,7-19.3,20.6v18.3c0,9.8-5.7,17.3-17.5,22.4
		C1907.7,281.9,1906.4,284.5,1906.4,288.4z"/>
	<path class="st0" d="M2045.1,403.8c-0.8-1.5-4.9-3.6-12.1-6.2c-19.6-7.5-33-13.1-39.7-16.7c10.9-9.8,19.9-20.4,27.6-32.2
		c7.8-11.9,11.6-21.2,11.6-27.3c0-10.3-5.1-15.7-14.9-15.7h-42.3h-52.6c-4.4,0-7.2,2.1-8,6.2c-2.3-2.6-5.1-3.9-8.2-3.9
		c-1.3,0-2.3,0.3-3.6,0.8c-4.4,2.6-7.2,4.4-9,5.1V275h15.7c5.9,0,8.8-3.6,8.8-11.3c0-7.5-2.8-11.4-8.8-11.4h-15.7v-29.9
		c0-5.7-3.6-8.8-11.1-8.8c-7.7,0-11.4,3.1-11.4,8.8v29.9h-18.6c-5.9,0-9,3.9-9,11.4c0,7.7,3.1,11.3,9,11.3h18.6v50
		c-5.9,2.6-13.7,5.7-22.9,9.3c-3.9,1.5-5.7,4.6-5.7,9c0,9,3.4,13.6,10.6,13.6c3.1,0,9-2.1,18-6.7v43.3c0,3.8-1,5.6-3.1,5.6
		c-1.8,0-5.7-0.7-11.3-2.6c-0.8-0.3-1.3-0.5-2.1-0.5c-5.7,0-8.5,4.3-8.5,13.1c0,8.5,9.8,12.9,29.1,12.9c12.1,0,18.3-6.2,18.3-18.3
		v-63.9c15-8,22.4-12.6,22.4-14.2c1,1.8,3.1,2.6,6.4,2.6h52.6h26.6c1.8,0,2.8,0.8,2.8,2.3c0,2.1-3.6,7.5-10.3,16
		c-6.2,7.5-12.6,13.9-19,19.3c-0.8,0.8-1.8,1.3-2.6,1.8c-10.6-7.5-21.1-17.5-31.7-30.1c-4.1-4.9-7.2-7.3-9.8-7.3
		c-2.6,0-5.2,1.6-8,4.4c-2.6,2.8-4.1,5.4-4.1,8.5c0,2.3,1,4.4,2.8,6.4c0.2,0,0.5,0.5,1,1.3c10.8,12.4,20.6,22.2,29.9,29.7
		c-14.7,7.7-30.4,13.9-46.9,18.3c-4.1,1-5.9,3.8-5.9,8.7c0,10.3,3.3,15.5,10.6,15.5c3.9,0,12.6-2.6,26.3-8.3
		c13.7-5.1,25.8-11.6,36.9-18.8c0.5,0.2,1.1,0.5,1.6,0.8c8,4.9,19,10.6,33,16.7c15,6.5,24,9.6,27.3,9.6c7.2,0,10.8-4.9,10.8-14.2
		C2046.4,407.2,2046.2,405.4,2045.1,403.8z"/>
	<path class="st0" d="M2230.9,350.2h-55.9h-54.7c-8.2,0-12.4,4.2-12.4,12.6v41.7c0,9.6,4.1,14.2,12.9,14.2h54.2h56.2
		c8,0,11.8-4.1,11.8-12.1v-43.8C2243,354.4,2239.1,350.2,2230.9,350.2z M2220,389.2c0,4.4-1.6,6.7-4.9,6.7h-40.2h-39.5
		c-3.9,0-5.7-2.1-5.7-5.9v-11.4c0-4.1,1.8-6.4,5.7-6.4h39.5h40c3.3,0,5.1,1.8,5.1,5.4V389.2z"/>
	<path class="st0" d="M2107.6,223.4c0-3.6-1.3-6.2-3.9-7.7c-2.3-1.6-5.4-2.1-9.8-2.1c-3.9,0-7.2,4.6-10.1,14.1
		c-8.3,24.8-19.1,49.3-33,73c-1.8,3.4-2.6,5.9-2.6,7.5c0,3.3,1.3,6.4,4.4,8.8c3.1,2.3,5.9,3.4,8.2,3.4c3.6,0,7.2-3.4,11.4-10.6
		v104.6c0,6.2,3.9,9,11.9,9c6.7,0,10.1-3.1,10.1-9.3V265.7c4.1-10,7.2-18.6,9.5-25.3C2106.3,232.4,2107.6,226.8,2107.6,223.4z"/>
	<path class="st0" d="M2123.4,244.3h51.6h52.5c7.2,0,10.8-3.4,10.8-10.3c0-7.2-3.9-10.8-11.1-10.8h-52.3h-51.8
		c-5.6,0-8.5,3.6-8.5,11C2114.6,240.9,2117.5,244.3,2123.4,244.3z"/>
	<path class="st0" d="M2241.4,254.1h-66.5h-66.5c-1.8,0-3.4,0.5-4.7,1.3c-2.5,1.6-3.8,4.9-3.8,10.1c0,4.6,1.3,7.7,3.8,9
		c1.3,0.8,2.9,1.3,4.7,1.3h66.5h66.8c6.9,0,10.6-3.6,10.6-10.6C2252.2,257.9,2248.6,254.1,2241.4,254.1z"/>
	<path class="st0" d="M2123.4,306.9h51.6h52.5c7.2,0,10.8-3.6,10.8-10.3c0-7.2-3.9-11.1-11.1-11.1h-52.3h-51.8
		c-5.6,0-8.5,3.9-8.5,11.3C2114.6,303.6,2117.5,306.9,2123.4,306.9z"/>
	<path class="st0" d="M2123.4,338.9h51.6h52.5c7.2,0,10.8-3.6,10.8-10.3c0-7.2-3.9-10.8-11.1-10.8h-52.3h-51.8
		c-5.6,0-8.5,3.6-8.5,10.8C2114.6,335.5,2117.5,338.9,2123.4,338.9z"/>
</g>
<g>
	<polygon class="st1" points="1815.9,521.8 1815.9,497.6 1821.7,497.6 1838.4,497.6 1838.4,473.3 1821.7,473.3 1815.9,473.3 
		1787.8,473.3 1443.6,473.3 744.8,473.3 2.8,473.3 2.8,545.8 744.8,545.8 1443.6,545.8 1793.4,545.8 1793.4,521.8 1815.7,521.8 
		1815.7,545.8 1815.9,545.8 1821.7,545.8 1838.4,545.8 1838.4,521.8 1821.7,521.8 	"/>
	<rect x="1838.4" y="497.6" class="st1" width="22.5" height="24.2"/>
	<rect x="1860.9" y="521.8" class="st1" width="22.5" height="24"/>
	<rect x="1860.9" y="473.3" class="st1" width="22.5" height="24.2"/>
	<rect x="1883.4" y="497.6" class="st1" width="22.5" height="24.2"/>
	<rect x="1973.3" y="497.6" class="st1" width="22.5" height="24.2"/>
	<rect x="1950.8" y="521.8" class="st1" width="22.5" height="24"/>
	<rect x="1950.8" y="473.3" class="st1" width="22.5" height="24.2"/>
	<rect x="1928.3" y="497.6" class="st1" width="22.5" height="24.2"/>
	<rect x="1905.8" y="521.8" class="st1" width="22.5" height="24"/>
	<rect x="1905.8" y="473.3" class="st1" width="22.5" height="24.2"/>
	<rect x="2153" y="497.6" class="st1" width="22.5" height="24.2"/>
	<rect x="2130.5" y="521.8" class="st1" width="22.5" height="24"/>
	<rect x="2130.5" y="473.3" class="st1" width="22.5" height="24.2"/>
	<rect x="2108" y="497.6" class="st1" width="22.5" height="24.2"/>
	<rect x="2085.5" y="521.8" class="st1" width="22.5" height="24"/>
	<rect x="2085.5" y="473.3" class="st1" width="22.5" height="24.2"/>
	<rect x="1995.8" y="521.8" class="st1" width="22.3" height="24"/>
	<rect x="1995.8" y="473.3" class="st1" width="22.3" height="24.2"/>
	<rect x="2018.1" y="497.6" class="st1" width="22.5" height="24.2"/>
	<rect x="2040.5" y="521.8" class="st1" width="22.5" height="24"/>
	<rect x="2040.5" y="473.3" class="st1" width="22.5" height="24.2"/>
	<rect x="2063" y="497.6" class="st1" width="22.5" height="24.2"/>
	<rect x="2175.5" y="521.8" class="st1" width="22.5" height="24"/>
	<rect x="2175.5" y="473.3" class="st1" width="22.5" height="24.2"/>
	<rect x="2198" y="497.6" class="st1" width="22.5" height="24.2"/>
	<rect x="2220.5" y="473.3" class="st1" width="22.5" height="24.2"/>
</g>
</svg>
