<?xml version="1.0" encoding="utf-8"?>
<!-- Generator: Adobe Illustrator 23.0.1, SVG Export Plug-In . SVG Version: 6.00 Build 0)  -->
<svg version="1.1" id="圖層_1" xmlns="http://www.w3.org/2000/svg" xmlns:xlink="http://www.w3.org/1999/xlink" x="0px" y="0px"
	 viewBox="0 0 425 174" style="enable-background:new 0 0 425 174;" xml:space="preserve">
<style type="text/css">
	.st0{fill:#BB133E;}
	.st1{fill:#0A3475;}
	.st2{fill:none;stroke:#A9EFFF;stroke-width:5;stroke-linecap:round;stroke-linejoin:round;stroke-miterlimit:10;}
	.st3{fill:none;stroke:#2B2B2B;stroke-miterlimit:10;}
	.st4{fill:none;stroke:#CECECE;stroke-miterlimit:10;}
</style>
<g>
	<rect x="40.16" y="114.32" class="st0" width="6.54" height="15.36"/>
	<rect x="168.8" y="114.32" class="st0" width="6.54" height="15.36"/>
	<rect x="61.24" y="114.32" class="st0" width="6.54" height="1.57"/>
	<rect x="50.34" y="66.28" class="st0" width="6.54" height="47.64"/>
	<rect x="72.14" y="35.96" class="st0" width="6.54" height="77.96"/>
	<rect x="83.04" y="61.56" class="st0" width="6.54" height="52.37"/>
	<rect x="93.94" y="85.18" class="st0" width="6.54" height="28.74"/>
	<rect x="104.12" y="104.87" class="st0" width="6.54" height="9.06"/>
	<rect x="115.02" y="106.05" class="st0" width="6.54" height="7.87"/>
	<rect x="125.92" y="54.86" class="st0" width="6.54" height="59.06"/>
	<rect x="136.83" y="105.66" class="st0" width="6.54" height="8.27"/>
	<rect x="147" y="61.56" class="st0" width="6.54" height="52.37"/>
	<rect x="157.9" y="60.38" class="st0" width="6.54" height="53.55"/>
	<rect x="179.71" y="29.66" class="st0" width="6.54" height="84.26"/>
	<rect x="190.61" y="32.81" class="st0" width="6.54" height="81.11"/>
	<rect x="201.51" y="82.43" class="st0" width="6.54" height="31.5"/>
	<rect x="211.69" y="58.8" class="st0" width="6.54" height="55.12"/>
	<rect x="222.59" y="58.8" class="st0" width="6.54" height="55.12"/>
	<rect x="233.49" y="97.78" class="st0" width="6.54" height="16.14"/>
	<rect x="244.39" y="107.23" class="st0" width="6.54" height="6.69"/>
	<rect x="254.57" y="88.33" class="st0" width="6.54" height="25.59"/>
	<rect x="265.47" y="76.13" class="st0" width="6.54" height="37.8"/>
	<rect x="276.37" y="82.03" class="st0" width="6.54" height="31.89"/>
	<rect x="286.55" y="79.28" class="st0" width="6.54" height="34.65"/>
	<rect x="297.45" y="84.39" class="st0" width="6.54" height="29.53"/>
	<rect x="308.35" y="64.31" class="st0" width="6.54" height="49.61"/>
	<rect x="319.25" y="67.46" class="st0" width="6.54" height="46.46"/>
	<rect x="330.15" y="75.73" class="st0" width="6.54" height="38.19"/>
	<rect x="340.33" y="77.31" class="st0" width="6.54" height="36.62"/>
	<rect x="351.23" y="45.41" class="st0" width="6.54" height="68.51"/>
</g>
<g>
	<rect x="362.13" y="59.59" class="st1" width="6.54" height="54.34"/>
	<rect x="373.03" y="71.79" class="st1" width="6.54" height="42.13"/>
	<rect x="383.94" y="65.89" class="st1" width="6.54" height="48.04"/>
	<rect x="394.84" y="71.79" class="st1" width="6.54" height="42.13"/>
	<rect x="405.01" y="78.09" class="st1" width="6.54" height="35.83"/>
	<rect x="415.92" y="79.28" class="st1" width="6.54" height="34.65"/>
</g>
<polyline class="st2" points="43.43,81.83 53.61,85.77 64.51,97.58 75.41,86.56 86.31,70.42 97.21,75.14 107.39,72.39 118.29,89.71 
	129.19,88.13 140.1,92.86 150.27,82.23 161.17,71.2 172.07,88.53 182.98,71.2 193.88,64.12 204.78,68.84 214.96,51.52 225.86,58.8 
	236.76,74.35 257.84,88.53 268.74,92.07 279.64,88.13 289.82,83.02 300.72,82.23 311.62,79.08 322.52,75.53 333.42,72.78 
	343.6,71.6 354.5,66.87 359.59,65.69 365.4,64.9 376.3,64.12 387.21,60.97 398.11,67.27 408.28,71.6 419.19,73.96 "/>
<g>
	<g>
		<path d="M38.12,146.03h2.28v-7.66h-1.82v-0.81c0.91-0.17,1.57-0.41,2.13-0.73h0.98v9.2h2.06v1.06h-5.63V146.03z"/>
		<path d="M45.89,146.03h2.28v-7.66h-1.82v-0.81c0.91-0.17,1.57-0.41,2.13-0.73h0.98v9.2h2.06v1.06h-5.63V146.03z"/>
	</g>
	<g>
		<path d="M80.86,146.03h2.28v-7.66h-1.82v-0.81c0.91-0.17,1.57-0.41,2.13-0.73h0.98v9.2h2.06v1.06h-5.63V146.03z"/>
		<path d="M88.02,146.34c3.22-2.82,4.71-4.86,4.71-6.63c0-1.18-0.62-2.03-1.89-2.03c-0.84,0-1.57,0.52-2.13,1.19l-0.74-0.73
			c0.84-0.91,1.72-1.51,3.03-1.51c1.83,0,2.98,1.21,2.98,3.04c0,2.04-1.61,4.13-4.02,6.42c0.53-0.04,1.16-0.1,1.68-0.1h2.84v1.11
			h-6.46V146.34z"/>
	</g>
	<g>
		<path d="M123.61,146.03h2.28v-7.66h-1.82v-0.81c0.91-0.17,1.57-0.41,2.13-0.73h0.98v9.2h2.06v1.06h-5.63V146.03z"/>
		<path d="M130.55,145.87l0.64-0.84c0.6,0.63,1.39,1.18,2.55,1.18c1.22,0,2.09-0.73,2.09-1.91c0-1.23-0.83-2.06-3.19-2.06v-0.98
			c2.12,0,2.84-0.85,2.84-1.96c0-0.99-0.67-1.63-1.74-1.65c-0.83,0.03-1.56,0.45-2.13,1.02l-0.69-0.81
			c0.77-0.71,1.68-1.23,2.87-1.23c1.72,0,2.98,0.92,2.98,2.58c0,1.25-0.74,2.07-1.83,2.48v0.06c1.22,0.28,2.19,1.2,2.19,2.61
			c0,1.83-1.47,2.93-3.29,2.93C132.23,147.27,131.23,146.6,130.55,145.87z"/>
	</g>
	<g>
		<path d="M166.35,146.03h2.28v-7.66h-1.82v-0.81c0.91-0.17,1.57-0.41,2.13-0.73h0.98v9.2h2.06v1.06h-5.63V146.03z"/>
		<path d="M180.22,144.26h-1.36v2.83h-1.22v-2.83h-4.47v-0.84l4.27-6.6h1.42v6.42h1.36V144.26z M177.64,143.24v-3.15
			c0-0.5,0.06-1.33,0.08-1.86h-0.06c-0.25,0.5-0.53,1.01-0.83,1.51l-2.34,3.5H177.64z"/>
	</g>
	<g>
		<path d="M209.1,146.03h2.28v-7.66h-1.82v-0.81c0.91-0.17,1.57-0.41,2.13-0.73h0.98v9.2h2.06v1.06h-5.63V146.03z"/>
		<path d="M216.03,145.92l0.63-0.84c0.59,0.59,1.33,1.13,2.52,1.13c1.21,0,2.19-0.92,2.19-2.42c0-1.47-0.84-2.34-2.13-2.34
			c-0.69,0-1.12,0.21-1.71,0.6l-0.69-0.42l0.32-4.8h5v1.09h-3.88l-0.25,2.97c0.45-0.25,0.91-0.41,1.53-0.41
			c1.71,0,3.1,1.01,3.1,3.26c0,2.25-1.63,3.53-3.36,3.53C217.7,147.27,216.71,146.6,216.03,145.92z"/>
	</g>
	<g>
		<path d="M251.84,146.03h2.28v-7.66h-1.82v-0.81c0.91-0.17,1.57-0.41,2.13-0.73h0.98v9.2h2.06v1.06h-5.63V146.03z"/>
		<path d="M264.66,138.48c-0.41-0.49-1.02-0.78-1.65-0.78c-1.4,0-2.59,1.08-2.65,4.27c0.63-0.77,1.53-1.25,2.34-1.25
			c1.74,0,2.84,1.08,2.84,3.22c0,1.99-1.34,3.33-2.94,3.33c-1.97,0-3.43-1.69-3.43-5.08c0-4.02,1.81-5.56,3.8-5.56
			c1.07,0,1.83,0.45,2.4,1.05L264.66,138.48z M264.33,143.94c0-1.39-0.6-2.27-1.85-2.27c-0.64,0-1.43,0.36-2.1,1.32
			c0.15,2.13,0.92,3.29,2.21,3.29C263.58,146.28,264.33,145.34,264.33,143.94z"/>
	</g>
	<g>
		<path d="M294.59,146.03h2.28v-7.66h-1.82v-0.81c0.91-0.17,1.57-0.41,2.13-0.73h0.98v9.2h2.06v1.06h-5.63V146.03z"/>
		<path d="M306.78,137.92h-4.97v-1.09h6.43v0.77c-2.41,3.1-2.86,5.48-3.01,9.5h-1.33C304.07,143.2,304.78,140.72,306.78,137.92z"/>
	</g>
	<g>
		<path d="M337.33,146.03h2.28v-7.66h-1.82v-0.81c0.91-0.17,1.57-0.41,2.13-0.73h0.98v9.2h2.06v1.06h-5.63V146.03z"/>
		<path d="M344.5,144.54c0-1.37,0.95-2.33,1.89-2.83v-0.07c-0.76-0.52-1.39-1.29-1.39-2.37c0-1.57,1.2-2.61,2.82-2.61
			c1.75,0,2.82,1.12,2.82,2.7c0,1.08-0.76,2-1.37,2.48v0.07c0.9,0.52,1.74,1.29,1.74,2.69c0,1.5-1.29,2.66-3.22,2.66
			C345.89,147.27,344.5,146.13,344.5,144.54z M349.78,144.59c0-1.37-1.26-1.89-2.72-2.48c-0.83,0.53-1.4,1.34-1.4,2.33
			c0,1.09,0.91,1.89,2.14,1.89C348.98,146.32,349.78,145.61,349.78,144.59z M349.54,139.44c0-1.01-0.64-1.83-1.75-1.83
			c-0.94,0-1.63,0.67-1.63,1.67c0,1.23,1.11,1.77,2.31,2.24C349.18,140.9,349.54,140.2,349.54,139.44z"/>
	</g>
	<g>
		<path d="M381.58,135.76c-0.76,0.38-1.25,1.11-1.25,1.72c0.08-0.07,0.22-0.11,0.38-0.11c0.53,0,0.88,0.39,0.88,0.9
			c0,0.43-0.32,0.91-0.95,0.91c-0.6,0-1.11-0.56-1.11-1.33c0-1.25,0.85-2.21,1.75-2.62L381.58,135.76z"/>
		<path d="M383.35,146.03h2.28v-7.66h-1.82v-0.81c0.91-0.17,1.57-0.41,2.13-0.73h0.98v9.2h2.06v1.06h-5.63V146.03z"/>
		<path d="M391.4,145.43c0.43,0.49,1.06,0.78,1.72,0.78c1.33,0,2.48-1.09,2.58-4.29c-0.62,0.77-1.5,1.27-2.37,1.27
			c-1.71,0-2.83-1.11-2.83-3.24c0-1.99,1.34-3.33,2.94-3.33c1.98,0,3.45,1.63,3.45,4.89c0,4.16-1.79,5.76-3.73,5.76
			c-1.11,0-1.89-0.45-2.46-1.05L391.4,145.43z M395.68,140.87c-0.14-2.12-0.92-3.24-2.24-3.24c-0.98,0-1.74,0.92-1.74,2.33
			c0,1.39,0.62,2.28,1.83,2.28C394.23,142.25,395,141.85,395.68,140.87z"/>
	</g>
</g>
<g>
	<path d="M369.59,28.08c0-1.99,1.17-3.2,2.73-3.2c0.75,0,1.33,0.37,1.69,0.76l-0.42,0.5c-0.32-0.34-0.73-0.59-1.26-0.59
		c-1.17,0-1.94,0.96-1.94,2.49c0,1.55,0.74,2.53,1.91,2.53c0.59,0,1.03-0.26,1.43-0.69l0.43,0.49c-0.49,0.56-1.09,0.88-1.89,0.88
		C370.74,31.26,369.59,30.08,369.59,28.08z"/>
	<path d="M374.41,30.35l0.46-0.53c0.44,0.46,1.07,0.76,1.7,0.76c0.81,0,1.29-0.4,1.29-1.01c0-0.63-0.45-0.83-1.02-1.09l-0.89-0.39
		c-0.57-0.24-1.25-0.68-1.25-1.58c0-0.95,0.82-1.64,1.94-1.64c0.73,0,1.38,0.31,1.81,0.76l-0.41,0.5c-0.38-0.35-0.83-0.58-1.4-0.58
		c-0.7,0-1.15,0.35-1.15,0.91c0,0.6,0.54,0.82,1.02,1.02l0.88,0.38c0.71,0.31,1.27,0.73,1.27,1.64c0,0.97-0.81,1.75-2.09,1.75
		C375.69,31.26,374.95,30.91,374.41,30.35z"/>
	<path d="M381.32,25h1.75c1.38,0,2.31,0.46,2.31,1.8c0,1.3-0.92,1.9-2.27,1.9h-1.01v2.44h-0.78V25z M383.02,28.08
		c1.08,0,1.59-0.39,1.59-1.28c0-0.89-0.54-1.17-1.63-1.17h-0.88v2.45H383.02z"/>
	<path d="M386.34,26.6h0.63l0.07,0.83h0.03c0.32-0.58,0.78-0.95,1.29-0.95c0.2,0,0.34,0.02,0.49,0.1l-0.14,0.67
		c-0.15-0.06-0.26-0.08-0.44-0.08c-0.38,0-0.85,0.27-1.15,1.05v2.93h-0.76V26.6z"/>
	<path d="M388.95,28.88c0-1.52,1-2.4,2.12-2.4s2.12,0.88,2.12,2.4c0,1.51-1,2.38-2.12,2.38S388.95,30.39,388.95,28.88z
		 M392.39,28.88c0-1.05-0.54-1.76-1.33-1.76s-1.32,0.71-1.32,1.76c0,1.05,0.53,1.75,1.32,1.75S392.39,29.93,392.39,28.88z"/>
	<path d="M393.03,33.07l0.15-0.59c0.12,0.04,0.27,0.08,0.43,0.08c0.46,0,0.57-0.34,0.57-0.9V26.6h0.76v5.08
		c0,0.93-0.34,1.52-1.24,1.52C393.42,33.19,393.19,33.13,393.03,33.07z M394.03,25.16c0-0.31,0.23-0.5,0.53-0.5
		c0.29,0,0.53,0.18,0.53,0.5c0,0.29-0.24,0.5-0.53,0.5C394.26,25.66,394.03,25.45,394.03,25.16z"/>
	<path d="M395.92,28.88c0-1.48,1-2.4,2.06-2.4c1.16,0,1.81,0.84,1.81,2.14c0,0.17-0.02,0.33-0.03,0.44h-3.07
		c0.05,0.97,0.65,1.59,1.51,1.59c0.45,0,0.81-0.13,1.14-0.36l0.28,0.5c-0.4,0.26-0.89,0.47-1.51,0.47
		C396.89,31.26,395.92,30.38,395.92,28.88z M399.12,28.51c0-0.92-0.42-1.42-1.13-1.42c-0.65,0-1.22,0.52-1.31,1.42H399.12z"/>
	<path d="M400.36,28.88c0-1.52,1.03-2.4,2.2-2.4c0.6,0,1.01,0.25,1.33,0.54l-0.39,0.51c-0.27-0.24-0.54-0.41-0.91-0.41
		c-0.82,0-1.43,0.71-1.43,1.76c0,1.05,0.57,1.75,1.41,1.75c0.42,0,0.79-0.19,1.07-0.45l0.33,0.51c-0.4,0.37-0.92,0.58-1.47,0.58
		C401.29,31.26,400.36,30.39,400.36,28.88z"/>
	<path d="M404.8,29.74v-2.53h-0.68v-0.58l0.71-0.04l0.09-1.28h0.64v1.28h1.23v0.62h-1.23v2.54c0,0.56,0.18,0.88,0.71,0.88
		c0.16,0,0.37-0.06,0.52-0.12l0.15,0.57c-0.26,0.08-0.56,0.17-0.84,0.17C405.13,31.26,404.8,30.66,404.8,29.74z"/>
	<path d="M407.48,25.16c0-0.31,0.23-0.5,0.53-0.5s0.53,0.18,0.53,0.5c0,0.29-0.23,0.5-0.53,0.5S407.48,25.45,407.48,25.16z
		 M407.62,26.6h0.76v4.56h-0.76V26.6z"/>
	<path d="M409.37,28.88c0-1.52,1-2.4,2.12-2.4s2.12,0.88,2.12,2.4c0,1.51-1,2.38-2.12,2.38S409.37,30.39,409.37,28.88z
		 M412.81,28.88c0-1.05-0.54-1.76-1.33-1.76s-1.32,0.71-1.32,1.76c0,1.05,0.53,1.75,1.32,1.75S412.81,29.93,412.81,28.88z"/>
	<path d="M414.59,26.6h0.63l0.07,0.65h0.03c0.44-0.43,0.91-0.77,1.53-0.77c0.96,0,1.39,0.62,1.39,1.79v2.89h-0.76v-2.79
		c0-0.86-0.26-1.22-0.86-1.22c-0.47,0-0.79,0.23-1.25,0.7v3.31h-0.76V26.6z"/>
	<path d="M418.99,30.63l0.38-0.5c0.39,0.32,0.81,0.54,1.35,0.54c0.6,0,0.9-0.32,0.9-0.71c0-0.46-0.54-0.67-1.04-0.86
		c-0.64-0.23-1.36-0.55-1.36-1.32c0-0.72,0.58-1.29,1.57-1.29c0.56,0,1.06,0.23,1.42,0.51l-0.37,0.5c-0.32-0.23-0.64-0.4-1.05-0.4
		c-0.57,0-0.83,0.3-0.83,0.65c0,0.44,0.5,0.6,1.01,0.79c0.66,0.25,1.39,0.52,1.39,1.38c0,0.74-0.59,1.35-1.66,1.35
		C420.05,31.26,419.43,30.99,418.99,30.63z"/>
</g>
<g>
	<path d="M373.36,43.71c0-2.76,0.77-5.04,2.07-7.16l1.01,0.43c-1.2,2.02-1.76,4.38-1.76,6.72c0,2.35,0.56,4.72,1.76,6.72l-1.01,0.45
		C374.13,48.75,373.36,46.5,373.36,43.71z"/>
	<path d="M381.27,44.46c0.2-0.49,0.43-1.19,0.63-1.91h-1.19v5.17c0,0.64-0.11,1.01-0.57,1.22c-0.43,0.2-1.08,0.21-2.03,0.21
		c-0.06-0.35-0.22-0.88-0.39-1.23c0.66,0.01,1.3,0.01,1.5,0c0.18,0,0.24-0.06,0.24-0.21v-5.15h-2.19V41.4h3.32
		c-0.73-0.62-1.78-1.3-2.69-1.76l0.69-0.85c0.43,0.21,0.9,0.48,1.34,0.74c0.41-0.41,0.84-0.92,1.18-1.41h-3.53v-1.13h4.36l0.24-0.07
		l0.8,0.56c-0.56,0.92-1.34,1.92-2.1,2.68c0.39,0.28,0.73,0.55,0.98,0.8l-0.34,0.46h0.84l0.18-0.04l0.81,0.2
		c-0.35,1.11-0.74,2.37-1.09,3.15L381.27,44.46z M385.99,47.34c-0.77,0.73-2.07,1.48-3.18,1.9c-0.2-0.24-0.6-0.64-0.87-0.87
		c1.09-0.39,2.33-1.12,2.93-1.72L385.99,47.34z M385.59,39.21c0.07-0.38,0.15-0.78,0.21-1.16H383v-1.11h7.06v1.11h-2.82
		c-0.13,0.41-0.25,0.8-0.36,1.16h2.73v7.28h-6.09v-7.28H385.59z M388.36,40.18h-3.64v1.16h3.64V40.18z M388.36,42.25h-3.64v1.18
		h3.64V42.25z M388.36,44.34h-3.64v1.18h3.64V44.34z M387.94,46.72c0.81,0.49,1.88,1.25,2.42,1.76l-1.02,0.74
		c-0.49-0.5-1.54-1.3-2.38-1.85L387.94,46.72z"/>
	<path d="M395.23,36.77c-0.38,1.02-0.88,2.06-1.43,3.03v9.37h-1.23v-7.47c-0.38,0.52-0.77,0.99-1.16,1.4
		c-0.13-0.31-0.5-1.01-0.71-1.32c1.32-1.3,2.56-3.35,3.32-5.39L395.23,36.77z M399.98,40.56v2.65h3.03v5.93h-1.33V48.6H397v0.59
		h-1.29V43.2h2.93v-2.65h-3.66V39.3h3.66v-2.97h1.34v2.97h3.84v1.26H399.98z M401.67,44.44H397v2.93h4.68V44.44z"/>
	<path d="M408.81,36.75c-0.39,1.05-0.88,2.12-1.42,3.1v9.36h-1.2v-7.4c-0.34,0.48-0.67,0.9-1.02,1.29c-0.1-0.32-0.46-1.01-0.69-1.33
		c1.25-1.3,2.42-3.33,3.12-5.38L408.81,36.75z M417.43,47.76v1.11h-9.33v-1.11h1.29v-7.77h2.4c0.07-0.34,0.15-0.74,0.22-1.15h-3.29
		v-1.12h3.46c0.07-0.48,0.13-0.94,0.15-1.34l1.37,0.06c-0.07,0.41-0.15,0.85-0.24,1.29h3.6v1.12h-3.82
		c-0.08,0.41-0.18,0.81-0.28,1.15h3.32v7.77H417.43z M410.55,40.96v0.99h4.52v-0.99H410.55z M415.07,42.9h-4.52v0.99h4.52V42.9z
		 M410.55,44.8v1.02h4.52V44.8H410.55z M410.55,47.76h4.52v-1.01h-4.52V47.76z"/>
	<path d="M418.33,50.43c1.2-2,1.76-4.37,1.76-6.72c0-2.34-0.56-4.71-1.76-6.72l1.01-0.43c1.32,2.11,2.09,4.4,2.09,7.16
		c0,2.79-0.77,5.04-2.09,7.17L418.33,50.43z"/>
</g>
<g>
	<g>
		<path d="M11.15,10.56c-0.41-0.49-1.02-0.78-1.65-0.78c-1.4,0-2.59,1.08-2.65,4.27c0.63-0.77,1.53-1.25,2.34-1.25
			c1.74,0,2.84,1.08,2.84,3.22c0,1.99-1.34,3.33-2.94,3.33c-1.98,0-3.43-1.69-3.43-5.08c0-4.02,1.81-5.56,3.8-5.56
			c1.06,0,1.83,0.45,2.4,1.05L11.15,10.56z M10.83,16.02c0-1.39-0.6-2.27-1.85-2.27c-0.64,0-1.43,0.36-2.1,1.32
			c0.15,2.13,0.92,3.29,2.21,3.29C10.07,18.36,10.83,17.42,10.83,16.02z"/>
		<path d="M13.19,11.93c0-2.06,0.92-3.22,2.33-3.22c1.41,0,2.34,1.16,2.34,3.22c0,2.07-0.92,3.26-2.34,3.26
			C14.11,15.19,13.19,14,13.19,11.93z M16.89,11.93c0-1.64-0.56-2.44-1.37-2.44c-0.8,0-1.36,0.8-1.36,2.44
			c0,1.64,0.56,2.47,1.36,2.47C16.33,14.4,16.89,13.57,16.89,11.93z M21.48,8.71h0.87l-5.67,10.65h-0.85L21.48,8.71z M20.33,16.1
			c0-2.06,0.94-3.22,2.34-3.22S25,14.05,25,16.1c0,2.07-0.92,3.25-2.33,3.25S20.33,18.18,20.33,16.1z M24.03,16.1
			c0-1.64-0.56-2.44-1.36-2.44c-0.81,0-1.37,0.8-1.37,2.44c0,1.64,0.56,2.47,1.37,2.47C23.47,18.57,24.03,17.74,24.03,16.1z"/>
	</g>
</g>
<g>
	<g>
		<path d="M5.56,113c0-3.57,1.25-5.29,3.21-5.29c1.95,0,3.19,1.74,3.19,5.29c0,3.57-1.25,5.35-3.19,5.35
			C6.81,118.35,5.56,116.58,5.56,113z M10.71,113c0-3-0.78-4.26-1.95-4.26c-1.18,0-1.96,1.26-1.96,4.26c0,3.03,0.78,4.33,1.96,4.33
			C9.93,117.33,10.71,116.03,10.71,113z"/>
		<path d="M13.19,110.93c0-2.06,0.92-3.22,2.33-3.22c1.41,0,2.34,1.16,2.34,3.22c0,2.07-0.92,3.26-2.34,3.26
			C14.11,114.19,13.19,113,13.19,110.93z M16.89,110.93c0-1.64-0.56-2.44-1.37-2.44c-0.8,0-1.36,0.8-1.36,2.44
			c0,1.64,0.56,2.47,1.36,2.47C16.33,113.4,16.89,112.57,16.89,110.93z M21.48,107.71h0.87l-5.67,10.65h-0.85L21.48,107.71z
			 M20.33,115.1c0-2.06,0.94-3.22,2.34-3.22S25,113.05,25,115.1c0,2.07-0.92,3.25-2.33,3.25S20.33,117.18,20.33,115.1z M24.03,115.1
			c0-1.64-0.56-2.44-1.36-2.44c-0.81,0-1.37,0.8-1.37,2.44c0,1.64,0.56,2.47,1.37,2.47C23.47,117.57,24.03,116.74,24.03,115.1z"/>
	</g>
</g>
<g>
	<g>
		<path d="M5.49,84.42c3.22-2.82,4.71-4.86,4.71-6.63c0-1.18-0.62-2.03-1.89-2.03c-0.84,0-1.57,0.52-2.13,1.19l-0.74-0.73
			c0.84-0.91,1.72-1.51,3.03-1.51c1.83,0,2.98,1.21,2.98,3.04c0,2.04-1.61,4.13-4.02,6.42c0.53-0.04,1.16-0.1,1.68-0.1h2.84v1.11
			H5.49V84.42z"/>
		<path d="M13.19,77.93c0-2.06,0.92-3.22,2.33-3.22c1.41,0,2.34,1.16,2.34,3.22c0,2.07-0.92,3.26-2.34,3.26
			C14.11,81.19,13.19,80,13.19,77.93z M16.89,77.93c0-1.64-0.56-2.44-1.37-2.44c-0.8,0-1.36,0.8-1.36,2.44
			c0,1.64,0.56,2.47,1.36,2.47C16.33,80.4,16.89,79.57,16.89,77.93z M21.48,74.71h0.87l-5.67,10.65h-0.85L21.48,74.71z M20.33,82.1
			c0-2.06,0.94-3.22,2.34-3.22S25,80.05,25,82.1c0,2.07-0.92,3.25-2.33,3.25S20.33,84.18,20.33,82.1z M24.03,82.1
			c0-1.64-0.56-2.44-1.36-2.44c-0.81,0-1.37,0.8-1.37,2.44c0,1.64,0.56,2.47,1.37,2.47C23.47,84.57,24.03,83.74,24.03,82.1z"/>
	</g>
</g>
<g>
	<g>
		<path d="M12.2,50.34h-1.36v2.83H9.62v-2.83H5.15V49.5l4.27-6.6h1.42v6.42h1.36V50.34z M9.62,49.32v-3.15
			c0-0.5,0.06-1.33,0.08-1.86H9.65c-0.25,0.5-0.53,1.01-0.83,1.51l-2.34,3.5H9.62z"/>
		<path d="M13.19,45.93c0-2.06,0.92-3.22,2.33-3.22c1.41,0,2.34,1.16,2.34,3.22c0,2.07-0.92,3.26-2.34,3.26
			C14.11,49.19,13.19,48,13.19,45.93z M16.89,45.93c0-1.64-0.56-2.44-1.37-2.44c-0.8,0-1.36,0.8-1.36,2.44
			c0,1.64,0.56,2.47,1.36,2.47C16.33,48.4,16.89,47.57,16.89,45.93z M21.48,42.71h0.87l-5.67,10.65h-0.85L21.48,42.71z M20.33,50.1
			c0-2.06,0.94-3.22,2.34-3.22S25,48.05,25,50.1c0,2.07-0.92,3.25-2.33,3.25S20.33,52.18,20.33,50.1z M24.03,50.1
			c0-1.64-0.56-2.44-1.36-2.44c-0.81,0-1.37,0.8-1.37,2.44c0,1.64,0.56,2.47,1.37,2.47C23.47,52.57,24.03,51.74,24.03,50.1z"/>
	</g>
</g>
<g>
	<path d="M131.58,12.24c2.04,0.71,4.73,1.75,6.14,2.5l-0.95,1.73c-1.5-0.85-4.61-2.16-6.8-2.96l0.76-1.27h-0.61
		c-0.82,2.09-2.63,3.43-7.17,4.18c-0.14-0.54-0.61-1.39-1-1.82c3.42-0.46,5.01-1.22,5.81-2.36h-5.07v-1.72h5.73
		c0.05-0.27,0.1-0.58,0.14-0.88h-6.26V7.89h6.53v-0.9h-5.03v-1.7h5.03V4.42h-6V2.64h3.23c-0.26-0.51-0.61-1.05-0.95-1.5l1.8-0.71
		c0.53,0.6,1.05,1.41,1.27,1.99l-0.49,0.22h3.74c0.43-0.66,0.94-1.55,1.21-2.21l2.18,0.56c-0.37,0.6-0.77,1.16-1.14,1.65h3.26v1.78
		h-6.02v0.87h5.2v1.7h-5.2v0.9h6.77v1.75h-6.99c-0.03,0.31-0.08,0.59-0.14,0.88h6.63v1.72H131.58z"/>
	<path d="M154.14,1.28v15.21h-2.01v-0.71h-10.57v0.71h-1.92V1.28H154.14z M152.13,13.97V3.1h-2.11c0.54,0.27,1.12,0.66,1.43,0.99
		l-0.68,0.71h0.82v1.43h-3.04c0.08,0.95,0.19,1.84,0.32,2.6c0.34-0.66,0.6-1.36,0.8-2.13L151.21,7c-0.41,1.48-1.02,2.77-1.79,3.89
		c0.22,0.51,0.48,0.83,0.78,0.9c0.19,0.07,0.32-0.6,0.39-1.58c0.31,0.31,0.92,0.77,1.26,0.95c-0.27,2.09-1.16,2.74-2.28,2.23
		c-0.51-0.17-0.94-0.56-1.27-1.12c-0.54,0.54-1.12,1.04-1.77,1.44c-0.22-0.31-0.76-0.95-1.1-1.22c0.19-0.1,0.37-0.22,0.54-0.34
		c-1.36,0.2-2.69,0.39-3.81,0.58l-0.19-1.48c1.24-0.14,3.01-0.34,4.78-0.58l0.03,0.85c0.31-0.25,0.58-0.54,0.85-0.85
		c-0.36-1.22-0.58-2.77-0.73-4.45h-4.73V4.79h4.61c-0.03-0.48-0.05-0.95-0.08-1.44h1.67c0.02,0.49,0.03,0.97,0.07,1.44h1.84
		c-0.36-0.31-0.87-0.66-1.31-0.9l0.8-0.8h-8.21v10.88H152.13z M146.4,10.18h-3.79V6.95h3.79V10.18z M145.04,8.02h-1.14v1.09h1.14
		V8.02z"/>
	<path d="M161.09,11.1c-0.03-0.2-0.08-0.46-0.14-0.73c-3.4,0.51-4.01,0.63-4.39,0.82c-0.1-0.36-0.41-1.26-0.63-1.77
		c0.42-0.1,0.8-0.48,1.33-1.1c0.2-0.24,0.6-0.73,1.07-1.41c-1.27,0.15-1.65,0.25-1.9,0.37c-0.1-0.36-0.39-1.21-0.6-1.67
		c0.34-0.1,0.63-0.42,0.97-0.94c0.36-0.49,1.43-2.38,2.02-4.18l1.75,0.73c-0.61,1.39-1.43,2.86-2.28,4.06l1.12-0.08
		c0.41-0.71,0.82-1.46,1.14-2.21l1.67,1.02c-0.95,1.75-2.19,3.57-3.47,5.07l1.78-0.22c-0.12-0.46-0.27-0.92-0.41-1.33l1.44-0.46
		c0.42,1.12,0.88,2.6,1.05,3.5L161.09,11.1z M158.25,11.99c-0.12,1.58-0.42,3.26-0.78,4.35c-0.36-0.2-1.16-0.44-1.58-0.58
		c0.41-1.02,0.61-2.6,0.71-4.03L158.25,11.99z M159.99,11.7c0.2,1.14,0.41,2.55,0.46,3.5l-1.55,0.31c-0.02-0.94-0.19-2.41-0.36-3.52
		L159.99,11.7z M161.67,11.17c0.31,0.83,0.63,1.89,0.78,2.58l-1.43,0.51c-0.12-0.71-0.44-1.8-0.73-2.65L161.67,11.17z M171.82,14.19
		v1.85h-9.72v-1.85h3.84v-2.35h-3.06v-1.8h8.24v1.8h-3.15v2.35H171.82z M165.7,3.76c-0.51,0.88-1.09,1.84-1.63,2.63
		c0.71,0.94,1.39,1.99,1.75,2.72l-1.61,0.63c-0.37-0.88-1.12-2.14-2.01-3.31c0.7-1.02,1.39-2.26,1.78-3.08L165.7,3.76z M171.63,3.08
		h-9.16v-1.8h9.16V3.08z M167.09,9.67c-0.37-0.87-1.17-2.12-2.06-3.28c0.68-0.99,1.41-2.21,1.8-3.01l1.7,0.39
		c-0.51,0.87-1.1,1.82-1.63,2.6c0.7,0.9,1.43,1.94,1.78,2.63L167.09,9.67z M170.08,9.74c-0.41-0.88-1.27-2.16-2.24-3.31
		c0.71-1,1.46-2.26,1.87-3.08l1.73,0.41c-0.53,0.9-1.14,1.84-1.7,2.63c0.76,0.9,1.55,1.94,1.94,2.65L170.08,9.74z"/>
	<path d="M175.34,8.67c-0.53-0.59-1.65-1.46-2.5-2.06l0.99-1.16c0.83,0.53,1.97,1.34,2.53,1.92L175.34,8.67z M176.43,10.91
		c-0.54,1.75-1.24,3.71-1.89,5.29l-1.44-0.93c0.6-1.29,1.41-3.4,2.04-5.3L176.43,10.91z M175.78,4.22
		c-0.49-0.68-1.63-1.68-2.48-2.36l1.04-1.1c0.88,0.61,2.02,1.56,2.57,2.21L175.78,4.22z M185.21,9.23h1.89v7.24h-1.89v-2.29h-5.54
		c-0.34,0.87-0.87,1.72-1.79,2.35c-0.32-0.31-1.04-0.83-1.48-1.07c1.61-1.09,1.84-2.91,1.84-4.08V9.25h1.87v0.88h5.1V9.23z
		 M179.25,6.02c-0.25,1.43-0.83,2.52-1.94,3.21c-0.12-0.25-0.51-0.8-0.77-1.02c0.77-0.49,1.21-1.24,1.39-2.19h-0.73V4.76h3.89
		c0,0-0.02,0.32-0.02,0.49c-0.03,2.02-0.08,2.94-0.34,3.25c-0.2,0.25-0.41,0.37-0.75,0.41c-0.22,0.05-0.61,0.05-0.97,0.05
		c-0.03-0.39-0.15-0.9-0.31-1.24c0.29,0.05,0.48,0.05,0.61,0.05c0.14,0,0.22-0.02,0.31-0.14c0.08-0.14,0.12-0.56,0.15-1.61H179.25z
		 M181.64,3.76h-4.47V2.14h4.5c-0.07-0.46-0.17-1-0.29-1.44l1.84-0.24c0.19,0.53,0.37,1.17,0.44,1.68h4.93v1.62h-4.57l1.02,0.34
		c-0.56,0.53-1.17,1.1-1.72,1.55h0.08v3.5h-1.44V5.66h-0.02l0.02-0.02c0.58-0.53,1.21-1.31,1.62-1.89h-1.62
		c0.27,0.39,0.53,0.9,0.63,1.24l-1.1,0.48c-0.1-0.37-0.36-0.97-0.63-1.39L181.64,3.76z M185.21,12.61v-0.94h-5.1
		c-0.02,0.29-0.03,0.61-0.07,0.94H185.21z M188.19,5.07c-0.29,0.17-0.63,0.32-0.99,0.46c0.34,1.05,0.88,2.06,1.63,2.55
		c-0.27,0.22-0.66,0.65-0.83,0.95c-0.83-0.66-1.41-1.87-1.73-3.14c-0.22,0.07-0.44,0.12-0.65,0.19v1.55l0.83-0.22
		c0.02,0.31,0.12,0.73,0.2,0.99c-1.51,0.51-1.87,0.68-2.07,0.85V9.18c-0.1-0.31-0.36-0.88-0.56-1.17c0.22-0.12,0.44-0.43,0.44-1.09
		V5.24c0.95-0.29,2.01-0.7,2.6-1.1L188.19,5.07z"/>
	<path d="M204.76,6.48c-0.7,2.21-1.7,4.18-2.92,5.83c0.49,1.22,1.04,1.94,1.58,1.94c0.41,0,0.61-0.85,0.7-2.97
		c0.46,0.48,1.17,0.92,1.72,1.14c-0.32,3.14-1,3.89-2.58,3.89c-1.19,0-2.12-0.85-2.87-2.24c-0.87,0.9-1.82,1.67-2.87,2.31
		c-0.31-0.44-1.04-1.27-1.46-1.67c1.31-0.71,2.48-1.65,3.47-2.75c-0.58-1.92-0.95-4.3-1.17-6.85h-4.93v1.82h4.2
		c0,0-0.02,0.53-0.02,0.76c-0.05,3.57-0.15,5.08-0.54,5.58c-0.32,0.44-0.66,0.59-1.17,0.68c-0.44,0.07-1.17,0.07-1.96,0.05
		c-0.03-0.6-0.25-1.38-0.56-1.89c0.61,0.05,1.19,0.07,1.46,0.07c0.24,0,0.37-0.03,0.51-0.2c0.17-0.24,0.24-1.05,0.29-3.2h-2.21
		c-0.07,2.48-0.43,5.8-1.82,7.87c-0.36-0.39-1.26-1.14-1.72-1.38c1.29-2.04,1.41-5,1.41-7.21V3.1h6.94
		c-0.03-0.83-0.07-1.67-0.07-2.52h2.13c-0.02,0.85,0,1.68,0.03,2.52h2.6c-0.63-0.51-1.48-1.05-2.18-1.48l1.22-1.21
		c0.94,0.48,2.18,1.26,2.77,1.82l-0.82,0.87h1.77V5.1h-5.25c0.15,1.7,0.39,3.3,0.68,4.66c0.66-1.14,1.22-2.4,1.63-3.77L204.76,6.48z
		"/>
	<path d="M222.05,11.34c-0.93,0.68-2.01,1.34-2.99,1.87c1.07,0.65,2.35,1.1,3.88,1.39c-0.44,0.41-1,1.26-1.27,1.8
		c-3.79-0.87-6.07-2.84-7.51-5.97h-2.43v3.6l3.72-0.75c-0.1,0.54-0.17,1.38-0.17,1.8c-4.06,0.9-5,1.12-5.46,1.33l-0.1,0.08
		c-0.14-0.48-0.53-1.53-0.85-2.01c0.37-0.2,0.87-0.61,0.87-1.31v-2.75h-2.48V8.65h2.82V1.14h10.73v1.65h-8.65v0.94h8.18v1.56h-8.18
		v0.88h8.18v1.56h-8.18v0.92h10.44v1.78h-1.84L222.05,11.34z M216.27,10.44c0.37,0.65,0.83,1.21,1.38,1.72
		c0.87-0.53,1.82-1.16,2.5-1.72H216.27z"/>
	<path d="M234.41,10.63c-0.07-0.24-0.19-0.53-0.32-0.83c-4.06,0.41-4.71,0.51-5.13,0.7c-0.08-0.32-0.34-1.17-0.54-1.61
		c-1.12,0.6-2.31,1.21-3.31,1.68l-0.97-1.62c1.07-0.39,2.67-1.07,4.23-1.72l0.37,1.48l-0.31,0.17c0.42-0.08,0.85-0.39,1.45-0.87
		c0.25-0.2,0.75-0.61,1.34-1.19c-1.31,0.1-1.68,0.19-1.94,0.29c-0.1-0.36-0.36-1.14-0.54-1.58c0.25-0.07,0.53-0.27,0.78-0.58
		c0.15-0.19,0.51-0.63,0.9-1.21h-5.8V1.92h6.32c-0.19-0.34-0.39-0.7-0.58-0.97l2.06-0.48c0.34,0.42,0.7,0.97,0.93,1.44h6.05v1.82
		h-7.02c-0.36,0.53-0.75,1.04-1.17,1.51l1.55-0.05c0.39-0.44,0.76-0.9,1.09-1.38l1.55,0.92c-1.16,1.36-2.52,2.69-3.88,3.77
		l1.79-0.14c-0.19-0.31-0.37-0.6-0.58-0.85L234.21,7c0.25,0.34,0.54,0.71,0.8,1.1l1.12-0.88c1.11,0.58,2.63,1.51,3.38,2.16
		l-1.46,1.22c-0.58-0.56-1.7-1.34-2.72-1.95c0.29,0.48,0.53,0.97,0.66,1.38L234.41,10.63z M239.65,13.31h-6.66v3.09h-2.16v-3.09
		h-6.65v-1.87h6.65V10.3h2.16v1.14h6.66V13.31z M227.12,7.12c-0.51-0.56-1.63-1.38-2.5-1.92l1.33-1.07c0.87,0.48,2.04,1.26,2.6,1.8
		L227.12,7.12z M235.08,6.17c0.7-0.53,1.65-1.44,2.18-2.11l1.68,0.97c-0.73,0.78-1.67,1.55-2.36,2.07L235.08,6.17z"/>
	<path d="M245.8,10.64c0.19-0.56,0.39-1.34,0.58-2.14h-1.02v5.76c0,0.95-0.15,1.48-0.78,1.78s-1.48,0.36-2.62,0.36
		c-0.07-0.58-0.34-1.39-0.61-1.94c0.73,0.02,1.53,0.02,1.75,0.02c0.24-0.02,0.31-0.07,0.31-0.25V8.5h-2.52V6.72h3.64
		c-0.87-0.65-1.99-1.31-2.94-1.78l1-1.31c0.49,0.22,1.04,0.49,1.56,0.78c0.37-0.41,0.76-0.88,1.09-1.38h-3.94V1.28h5.2l0.36-0.12
		l1.16,0.85V1.23h8.63v1.7h-3.2c-0.12,0.39-0.24,0.76-0.36,1.12h3.06v8.99h-7.56V4.05h2.48c0.07-0.37,0.12-0.75,0.17-1.12h-3.23
		V2.18c-0.65,1.04-1.53,2.21-2.41,3.11c0.41,0.27,0.75,0.54,1.02,0.8l-0.44,0.63h0.82l0.27-0.05l1.22,0.27
		c-0.36,1.41-0.82,3.01-1.19,4.01L245.8,10.64z M251.89,14.13c-0.94,0.9-2.53,1.85-3.84,2.36c-0.32-0.39-0.92-0.97-1.36-1.33
		c1.33-0.46,2.82-1.36,3.55-2.11L251.89,14.13z M254.22,5.54h-3.79v1.07h3.79V5.54z M254.22,7.99h-3.79v1.09h3.79V7.99z
		 M254.22,10.47h-3.79v1.09h3.79V10.47z M254.2,13.18c0.93,0.61,2.23,1.53,2.89,2.18l-1.6,1.14c-0.58-0.65-1.84-1.63-2.79-2.31
		L254.2,13.18z"/>
	<path d="M263.43,1.24c-0.44,1.21-1.02,2.43-1.67,3.62v11.56h-1.94V7.85c-0.36,0.44-0.71,0.87-1.05,1.24
		c-0.19-0.51-0.75-1.62-1.1-2.11c1.55-1.53,3.03-3.93,3.88-6.36L263.43,1.24z M269.35,5.98v2.94h3.55v7.46h-2.09v-0.66h-5.03v0.73
		h-2.01V8.93h3.45V5.98h-4.22V4.03h4.22V0.56h2.13v3.47h4.49v1.95H269.35z M270.81,10.83h-5.03v2.99h5.03V10.83z"/>
	<path d="M275.84,9.59c0-3.38,0.93-6.17,2.53-8.79l1.56,0.66c-1.43,2.48-2.07,5.35-2.07,8.13c0,2.8,0.65,5.66,2.07,8.14l-1.56,0.66
		C276.78,15.76,275.84,13.01,275.84,9.59z"/>
	<path d="M281.37,6.1c0-2.52,1.26-3.96,3.06-3.96s3.08,1.44,3.08,3.96c0,2.53-1.28,4.01-3.08,4.01S281.37,8.64,281.37,6.1z
		 M285.74,6.1c0-1.85-0.58-2.55-1.31-2.55c-0.73,0-1.29,0.7-1.29,2.55c0,1.85,0.56,2.6,1.29,2.6C285.16,8.7,285.74,7.96,285.74,6.1z
		 M291.69,2.14h1.48l-6.85,13.05h-1.46L291.69,2.14z M290.51,11.19c0-2.53,1.27-3.98,3.06-3.98c1.78,0,3.08,1.44,3.08,3.98
		c0,2.52-1.29,4.01-3.08,4.01C291.79,15.2,290.51,13.7,290.51,11.19z M294.88,11.19c0-1.85-0.58-2.57-1.31-2.57
		c-0.73,0-1.31,0.71-1.31,2.57c0,1.85,0.58,2.58,1.31,2.58C294.3,13.77,294.88,13.04,294.88,11.19z"/>
	<path d="M298.06,17.73c1.43-2.48,2.07-5.34,2.07-8.14c0-2.77-0.65-5.64-2.07-8.13l1.55-0.66c1.62,2.62,2.55,5.41,2.55,8.79
		c0,3.42-0.93,6.17-2.55,8.81L298.06,17.73z"/>
</g>
<g>
	<line class="st3" x1="37.25" y1="15.09" x2="37.25" y2="131"/>
	<line class="st3" x1="425" y1="114.12" x2="36.89" y2="114.12"/>
</g>
<g>
	<line class="st4" x1="37" y1="15" x2="32" y2="15"/>
	<line class="st4" x1="37" y1="31.49" x2="32" y2="31.49"/>
	<line class="st4" x1="37" y1="47.98" x2="32" y2="47.98"/>
	<line class="st4" x1="37" y1="64.47" x2="32" y2="64.47"/>
	<line class="st4" x1="37" y1="80.96" x2="32" y2="80.96"/>
	<line class="st4" x1="37" y1="97.45" x2="32" y2="97.45"/>
	<line class="st4" x1="37" y1="113.94" x2="32" y2="113.94"/>
	<line class="st4" x1="37" y1="130.43" x2="32" y2="130.43"/>
	<line class="st4" x1="80.5" y1="116.85" x2="80.5" y2="114.14"/>
	<line class="st4" x1="123.5" y1="116.85" x2="123.5" y2="114.14"/>
	<line class="st4" x1="166.5" y1="116.85" x2="166.5" y2="114.14"/>
	<line class="st4" x1="209.5" y1="116.85" x2="209.5" y2="114.14"/>
	<line class="st4" x1="252.5" y1="116.85" x2="252.5" y2="114.14"/>
	<line class="st4" x1="295.5" y1="116.85" x2="295.5" y2="114.14"/>
	<line class="st4" x1="338.5" y1="116.85" x2="338.5" y2="114.14"/>
	<line class="st4" x1="381.5" y1="116.85" x2="381.5" y2="114.14"/>
</g>
<line class="st3" x1="359.5" y1="22.58" x2="359.5" y2="118.48"/>
<g>
	<g>
		<g>
			<path d="M177.28,169.56c-0.18,0.07-0.51,0.13-0.88,0.13c-1.13,0-1.91-0.61-2.26-1.46c-1.34-0.18-2.25-1.38-2.25-3.18
				c0-1.97,1.08-3.17,2.63-3.17c1.54,0,2.63,1.2,2.63,3.17c0,1.77-0.87,2.95-2.17,3.17c0.28,0.55,0.84,0.82,1.51,0.82
				c0.28,0,0.49-0.04,0.65-0.09L177.28,169.56z M174.51,167.62c1.1,0,1.83-1,1.83-2.57c0-1.54-0.73-2.49-1.83-2.49
				c-1.11,0-1.83,0.95-1.83,2.49C172.69,166.63,173.41,167.62,174.51,167.62z"/>
			<path d="M177.84,165.88c0-1.52,1-2.4,2.12-2.4s2.12,0.88,2.12,2.4c0,1.51-1,2.38-2.12,2.38S177.84,167.39,177.84,165.88z
				 M181.28,165.88c0-1.05-0.54-1.76-1.33-1.76s-1.32,0.71-1.32,1.76c0,1.05,0.53,1.75,1.32,1.75S181.28,166.93,181.28,165.88z"/>
			<path d="M188.16,169.56c-0.18,0.07-0.51,0.13-0.88,0.13c-1.13,0-1.91-0.61-2.26-1.46c-1.34-0.18-2.25-1.38-2.25-3.18
				c0-1.97,1.08-3.17,2.63-3.17c1.54,0,2.63,1.2,2.63,3.17c0,1.77-0.87,2.95-2.17,3.17c0.28,0.55,0.84,0.82,1.51,0.82
				c0.28,0,0.49-0.04,0.65-0.09L188.16,169.56z M185.4,167.62c1.1,0,1.83-1,1.83-2.57c0-1.54-0.73-2.49-1.83-2.49
				c-1.11,0-1.83,0.95-1.83,2.49C183.57,166.63,184.29,167.62,185.4,167.62z"/>
			<path d="M193.63,166.27h-2.25l-0.6,1.88h-0.79l2.09-6.15h0.86l2.09,6.15h-0.82L193.63,166.27z M193.43,165.65l-0.29-0.94
				c-0.23-0.7-0.42-1.37-0.62-2.08h-0.03c-0.19,0.72-0.39,1.38-0.61,2.08l-0.3,0.94H193.43z"/>
			<path d="M195.62,163.6h0.63l0.07,0.65h0.03c0.44-0.43,0.91-0.77,1.53-0.77c0.96,0,1.39,0.62,1.39,1.79v2.89h-0.76v-2.79
				c0-0.86-0.26-1.22-0.86-1.22c-0.47,0-0.79,0.23-1.25,0.7v3.31h-0.76V163.6z"/>
			<path d="M200.54,163.6h0.63l0.07,0.65h0.03c0.44-0.43,0.91-0.77,1.53-0.77c0.96,0,1.39,0.62,1.39,1.79v2.89h-0.76v-2.79
				c0-0.86-0.26-1.22-0.86-1.22c-0.47,0-0.79,0.23-1.25,0.7v3.31h-0.76V163.6z"/>
			<path d="M205.39,166.48v-2.89h0.76v2.79c0,0.85,0.25,1.21,0.86,1.21c0.47,0,0.8-0.23,1.23-0.77v-3.23h0.76v4.56h-0.64l-0.06-0.71
				h-0.03c-0.43,0.5-0.88,0.82-1.51,0.82C205.82,168.26,205.39,167.64,205.39,166.48z"/>
			<path d="M210.04,166.97c0-0.99,0.87-1.49,2.8-1.7c0-0.59-0.19-1.15-0.94-1.15c-0.53,0-1.01,0.24-1.37,0.49l-0.3-0.53
				c0.42-0.27,1.07-0.6,1.8-0.6c1.11,0,1.58,0.75,1.58,1.87v2.8h-0.63l-0.07-0.55h-0.03c-0.44,0.36-0.95,0.65-1.51,0.65
				C210.62,168.26,210.04,167.79,210.04,166.97z M212.85,167.04v-1.28c-1.54,0.18-2.06,0.56-2.06,1.15c0,0.52,0.35,0.73,0.81,0.73
				C212.04,167.65,212.4,167.44,212.85,167.04z"/>
			<path d="M214.85,167.25v-5.77h0.76v5.82c0,0.23,0.1,0.33,0.22,0.33c0.04,0,0.08,0,0.16-0.02l0.11,0.59
				c-0.11,0.04-0.24,0.07-0.44,0.07C215.09,168.26,214.85,167.89,214.85,167.25z"/>
			<path d="M216.89,162.16c0-0.31,0.23-0.5,0.53-0.5s0.53,0.18,0.53,0.5c0,0.29-0.23,0.5-0.53,0.5S216.89,162.45,216.89,162.16z
				 M217.03,163.6h0.76v4.56h-0.76V163.6z"/>
			<path d="M218.65,167.74l2.4-3.52h-2.14v-0.62h3.11v0.41l-2.4,3.52h2.48v0.62h-3.45V167.74z"/>
			<path d="M222.46,165.88c0-1.48,1-2.4,2.06-2.4c1.16,0,1.81,0.84,1.81,2.14c0,0.17-0.02,0.33-0.03,0.44h-3.07
				c0.05,0.97,0.65,1.59,1.51,1.59c0.45,0,0.81-0.13,1.14-0.36l0.28,0.5c-0.4,0.26-0.89,0.47-1.51,0.47
				C223.43,168.26,222.46,167.38,222.46,165.88z M225.65,165.51c0-0.92-0.42-1.42-1.13-1.42c-0.65,0-1.22,0.52-1.31,1.42H225.65z"/>
			<path d="M226.91,165.88c0-1.48,0.93-2.4,1.97-2.4c0.54,0,0.88,0.2,1.28,0.54l-0.04-0.79v-1.75h0.76v6.68h-0.62l-0.08-0.54h-0.02
				c-0.36,0.35-0.84,0.65-1.38,0.65C227.65,168.26,226.91,167.4,226.91,165.88z M230.12,166.99v-2.39
				c-0.39-0.34-0.73-0.48-1.11-0.48c-0.74,0-1.32,0.71-1.32,1.75c0,1.1,0.45,1.75,1.26,1.75
				C229.38,167.62,229.75,167.41,230.12,166.99z"/>
		</g>
		<g>
			<path d="M106.73,162.53c-1.29,1.33-3.22,2.49-4.97,3.11c-0.18-0.29-0.55-0.74-0.83-0.99c1.55-0.46,3.28-1.34,4.45-2.34h-4.1
				v-1.11h5.45v-1.15c-1.44,0.11-2.93,0.18-4.29,0.21c-0.03-0.28-0.17-0.77-0.29-1.04c3.15-0.08,6.92-0.36,8.94-0.84l1.08,0.92
				c-1.16,0.28-2.62,0.49-4.16,0.64v1.25h5.55v1.11h-3.82c1.54,0.88,3.18,1.93,4.1,2.72l-0.84,0.91c-1.08-0.95-3.22-2.37-4.99-3.38
				v1.89h-1.28V162.53z M108.08,167.32h5.49v1.12h-5.49v1.39c0,0.69-0.17,0.99-0.7,1.18c-0.55,0.17-1.39,0.17-2.58,0.17
				c-0.07-0.34-0.28-0.81-0.45-1.13c0.92,0.03,1.86,0.03,2.12,0.01c0.27-0.01,0.34-0.07,0.34-0.25v-1.36h-5.53v-1.12h5.53v-0.8
				c0.52-0.18,1.09-0.42,1.63-0.69h-4.78v-1.02h6.36l0.28-0.07l0.8,0.69c-0.83,0.6-1.93,1.19-3.01,1.61V167.32z"/>
			<path d="M120.78,168.17c0,0.39,0.07,0.94,0.13,1.22c-3.95,1.04-4.54,1.22-4.9,1.46c-0.11-0.31-0.41-0.85-0.62-1.09
				c0.27-0.17,0.62-0.52,0.62-1.15v-10.25h1.34v4.2h3.35v1.27h-3.35V169L120.78,168.17z M125.52,169.66c0.6,0,0.69-0.49,0.78-2.45
				c0.31,0.24,0.85,0.49,1.22,0.57c-0.17,2.3-0.5,3.14-1.89,3.14h-2.16c-1.47,0-1.88-0.48-1.88-2.2v-10.38h1.34v4.22h3.61v1.27
				h-3.61v4.92c0,0.78,0.1,0.91,0.7,0.91H125.52z"/>
			<path d="M141.02,168.1h-4.92v3.1h-1.34v-3.1h-6.37v-1.26h2.25v-3.7h4.12v-1.93h-3.21c-0.6,1.04-1.3,1.96-2.02,2.66
				c-0.25-0.22-0.81-0.64-1.13-0.84c1.29-1.11,2.41-2.89,3.05-4.75l1.32,0.35c-0.17,0.43-0.36,0.9-0.55,1.32h8.11v1.26h-4.23v1.93
				h3.91v1.22h-3.91v2.48h4.92V168.1z M134.76,166.84v-2.48h-2.82v2.48H134.76z"/>
			<path d="M146.76,158.8c-0.38,0.9-0.85,1.79-1.37,2.65v9.74h-1.23v-7.94c-0.53,0.7-1.09,1.33-1.67,1.86
				c-0.11-0.31-0.48-1.01-0.71-1.32c1.49-1.27,2.93-3.31,3.8-5.38L146.76,158.8z M152.49,169.62c0.76,0,0.88-0.59,1-2.94
				c0.31,0.24,0.84,0.49,1.18,0.57c-0.18,2.62-0.5,3.54-2.09,3.54h-2.51c-1.54,0-1.98-0.46-1.98-2.14v-10.07h1.25v3.7h4.93v1.25
				h-4.93v5.15c0,0.78,0.14,0.94,0.84,0.94H152.49z"/>
			<path d="M159.78,158.75c-0.39,1.05-0.88,2.12-1.41,3.1v9.36h-1.21v-7.4c-0.34,0.48-0.67,0.9-1.02,1.29
				c-0.1-0.32-0.46-1.01-0.69-1.33c1.25-1.3,2.42-3.33,3.12-5.38L159.78,158.75z M168.39,169.76v1.11h-9.33v-1.11h1.29v-7.77h2.4
				c0.07-0.34,0.15-0.74,0.22-1.15h-3.29v-1.12h3.46c0.07-0.48,0.13-0.94,0.15-1.34l1.37,0.06c-0.07,0.41-0.15,0.85-0.24,1.29h3.6
				v1.12h-3.82c-0.08,0.41-0.18,0.81-0.28,1.15h3.32v7.77H168.39z M161.51,162.96v0.99h4.52v-0.99H161.51z M166.04,164.9h-4.52v0.99
				h4.52V164.9z M161.51,166.8v1.02h4.52v-1.02H161.51z M161.51,169.76h4.52v-1.01h-4.52V169.76z"/>
		</g>
		
			<rect x="87.43" y="159.45" transform="matrix(-1.836970e-16 1 -1 -1.836970e-16 256.1976 74.803)" class="st0" width="6.54" height="12.1"/>
	</g>
	<g>
		<g>
			<path d="M320.24,165.76l-1.85-3.76h0.83l0.79,1.74c0.2,0.45,0.39,0.88,0.6,1.34h0.03c0.22-0.46,0.43-0.89,0.61-1.34l0.8-1.74
				h0.81l-1.85,3.76v2.39h-0.78V165.76z"/>
			<path d="M322.69,165.88c0-1.52,1-2.4,2.12-2.4s2.12,0.88,2.12,2.4c0,1.51-1,2.38-2.12,2.38S322.69,167.39,322.69,165.88z
				 M326.13,165.88c0-1.05-0.54-1.76-1.33-1.76s-1.32,0.71-1.32,1.76c0,1.05,0.53,1.75,1.32,1.75S326.13,166.93,326.13,165.88z"/>
			<path d="M328.53,165.76l-1.85-3.76h0.83l0.79,1.74c0.2,0.45,0.39,0.88,0.6,1.34h0.03c0.22-0.46,0.43-0.89,0.61-1.34l0.8-1.74
				h0.81l-1.85,3.76v2.39h-0.78V165.76z"/>
			<path d="M331.27,163.81c0-1.23,0.55-1.93,1.39-1.93c0.85,0,1.4,0.7,1.4,1.93c0,1.24-0.55,1.96-1.4,1.96
				C331.82,165.77,331.27,165.06,331.27,163.81z M333.48,163.81c0-0.98-0.34-1.46-0.82-1.46c-0.48,0-0.81,0.48-0.81,1.46
				s0.34,1.48,0.81,1.48C333.15,165.29,333.48,164.8,333.48,163.81z M336.23,161.88h0.52l-3.4,6.38h-0.51L336.23,161.88z
				 M335.55,166.31c0-1.23,0.56-1.93,1.4-1.93c0.84,0,1.39,0.7,1.39,1.93c0,1.24-0.55,1.95-1.39,1.95
				C336.11,168.26,335.55,167.56,335.55,166.31z M337.76,166.31c0-0.98-0.34-1.46-0.81-1.46c-0.49,0-0.82,0.48-0.82,1.46
				s0.34,1.48,0.82,1.48C337.43,167.79,337.76,167.3,337.76,166.31z"/>
		</g>
		<g>
			<path d="M287.72,168.1h-4.92v3.1h-1.34v-3.1h-6.37v-1.26h2.25v-3.7h4.12v-1.93h-3.21c-0.6,1.04-1.3,1.96-2.02,2.66
				c-0.25-0.22-0.81-0.64-1.13-0.84c1.29-1.11,2.41-2.89,3.05-4.75l1.32,0.35c-0.17,0.43-0.36,0.9-0.55,1.32h8.11v1.26h-4.23v1.93
				h3.91v1.22h-3.91v2.48h4.92V168.1z M281.46,166.84v-2.48h-2.82v2.48H281.46z"/>
			<path d="M292.73,166.67l0.22,1.15c-1.33,0.56-2.77,1.13-3.91,1.58l-0.42-1.29c0.46-0.14,1-0.34,1.6-0.55v-4.66h-1.4v-1.2h1.4
				v-3.19h1.19v3.19h1.34v1.2h-1.34v4.24L292.73,166.67z M300.8,160.34v4.71h-7.52v-4.71h1.81c-0.21-0.45-0.58-1.06-0.92-1.54
				l1.11-0.46c0.39,0.48,0.81,1.13,1.01,1.57l-0.91,0.43h2.35c0.38-0.57,0.85-1.43,1.09-2.05l1.34,0.45
				c-0.38,0.55-0.76,1.13-1.12,1.6H300.8z M293.98,165.78h6.19v5.41h-1.23v-0.67h-3.78v0.67h-1.18V165.78z M294.33,164.15h2.2v-2.91
				h-2.2V164.15z M295.34,161.56c0.39,0.59,0.78,1.4,0.91,1.93l-0.76,0.31c-0.1-0.55-0.48-1.37-0.85-1.99L295.34,161.56z
				 M295.15,166.76v0.97h3.78v-0.97H295.15z M298.94,169.53v-0.87h-3.78v0.87H298.94z M299.69,161.24h-2.17v2.91h2.17V161.24z
				 M297.7,163.54c0.34-0.52,0.77-1.39,0.97-1.96l0.84,0.29c-0.38,0.69-0.83,1.44-1.16,1.95L297.7,163.54z"/>
			<path d="M314.98,168.43h-5.59v2.77h-1.37v-2.77h-5.59v-1.2h5.59v-1.05h1.37v1.05h5.59V168.43z M306.16,164.73
				c-1.04,0.56-2.14,1.15-3.05,1.58l-0.66-1.05c0.88-0.34,2.2-0.91,3.46-1.5L306.16,164.73z M310.89,166.39
				c-0.08-0.21-0.2-0.45-0.34-0.71c-3.52,0.34-4.01,0.41-4.33,0.56c-0.04-0.22-0.22-0.78-0.35-1.09c0.34-0.04,0.69-0.31,1.15-0.7
				c0.25-0.18,0.77-0.64,1.36-1.23c-1.36,0.1-1.67,0.17-1.88,0.25c-0.07-0.24-0.25-0.77-0.36-1.05c0.2-0.04,0.41-0.22,0.63-0.48
				c0.17-0.15,0.55-0.64,0.91-1.22h-4.95v-1.19h5.48c-0.17-0.34-0.38-0.67-0.56-0.97l1.3-0.31c0.28,0.39,0.6,0.9,0.8,1.27h5.07v1.19
				h-5.81c-0.36,0.52-0.76,1.05-1.16,1.48l1.55-0.07c0.32-0.36,0.63-0.76,0.92-1.13l1.01,0.59c-1.02,1.22-2.2,2.37-3.36,3.31l2-0.15
				c-0.18-0.29-0.38-0.56-0.57-0.81l0.95-0.36c0.62,0.74,1.29,1.72,1.56,2.42L310.89,166.39z M304.94,163.5
				c-0.43-0.48-1.34-1.15-2.09-1.61l0.88-0.71c0.73,0.43,1.67,1.08,2.13,1.54L304.94,163.5z M313.83,166.42
				c-0.59-0.55-1.78-1.37-2.73-1.93l0.91-0.71c0.92,0.52,2.14,1.32,2.77,1.86L313.83,166.42z M314.28,161.77
				c-0.62,0.64-1.42,1.29-2.03,1.74l-0.95-0.62c0.6-0.46,1.43-1.2,1.89-1.77L314.28,161.77z"/>
		</g>
		<line class="st2" x1="258.75" y1="165.58" x2="268.25" y2="165.58"/>
	</g>
</g>
<g>
	<rect x="40.16" y="370.32" class="st0" width="6.54" height="15.36"/>
	<rect x="168.8" y="370.32" class="st0" width="6.54" height="15.36"/>
	<rect x="61.24" y="370.32" class="st0" width="6.54" height="1.57"/>
	<rect x="50.34" y="322.28" class="st0" width="6.54" height="47.64"/>
	<rect x="72.14" y="291.96" class="st0" width="6.54" height="77.96"/>
	<rect x="83.04" y="317.56" class="st0" width="6.54" height="52.37"/>
	<rect x="93.94" y="341.18" class="st0" width="6.54" height="28.74"/>
	<rect x="104.12" y="360.87" class="st0" width="6.54" height="9.06"/>
	<rect x="115.02" y="362.05" class="st0" width="6.54" height="7.87"/>
	<rect x="125.92" y="310.86" class="st0" width="6.54" height="59.06"/>
	<rect x="136.83" y="361.66" class="st0" width="6.54" height="8.27"/>
	<rect x="147" y="317.56" class="st0" width="6.54" height="52.37"/>
	<rect x="157.9" y="316.38" class="st0" width="6.54" height="53.55"/>
	<rect x="179.71" y="285.66" class="st0" width="6.54" height="84.26"/>
	<rect x="190.61" y="288.81" class="st0" width="6.54" height="81.11"/>
	<rect x="201.51" y="338.43" class="st0" width="6.54" height="31.5"/>
	<rect x="211.69" y="314.8" class="st0" width="6.54" height="55.12"/>
	<rect x="222.59" y="314.8" class="st0" width="6.54" height="55.12"/>
	<rect x="233.49" y="353.78" class="st0" width="6.54" height="16.14"/>
	<rect x="244.39" y="363.23" class="st0" width="6.54" height="6.69"/>
	<rect x="254.57" y="344.33" class="st0" width="6.54" height="25.59"/>
	<rect x="265.47" y="332.13" class="st0" width="6.54" height="37.8"/>
	<rect x="276.37" y="338.03" class="st0" width="6.54" height="31.89"/>
	<rect x="286.55" y="335.28" class="st0" width="6.54" height="34.65"/>
	<rect x="297.45" y="340.39" class="st0" width="6.54" height="29.53"/>
	<rect x="308.35" y="320.31" class="st0" width="6.54" height="49.61"/>
	<rect x="319.25" y="323.46" class="st0" width="6.54" height="46.46"/>
	<rect x="330.15" y="331.73" class="st0" width="6.54" height="38.19"/>
	<rect x="340.33" y="333.31" class="st0" width="6.54" height="36.62"/>
	<rect x="351.23" y="301.41" class="st0" width="6.54" height="68.51"/>
</g>
<g>
	<rect x="362.13" y="315.59" class="st1" width="6.54" height="54.34"/>
	<rect x="373.03" y="327.79" class="st1" width="6.54" height="42.13"/>
	<rect x="383.94" y="321.89" class="st1" width="6.54" height="48.04"/>
	<rect x="394.84" y="327.79" class="st1" width="6.54" height="42.13"/>
	<rect x="405.01" y="334.09" class="st1" width="6.54" height="35.83"/>
	<rect x="415.92" y="335.28" class="st1" width="6.54" height="34.65"/>
</g>
<polyline class="st2" points="43.43,337.83 53.61,341.77 64.51,353.58 75.41,342.56 86.31,326.42 97.21,331.14 107.39,328.39 
	118.29,345.71 129.19,344.13 140.1,348.86 150.27,338.23 161.17,327.2 172.07,344.53 182.98,327.2 193.88,320.12 204.78,324.84 
	214.96,307.52 225.86,314.8 236.76,330.35 257.84,344.53 268.74,348.07 279.64,344.13 289.82,339.02 300.72,338.23 311.62,335.08 
	322.52,331.53 333.42,328.78 343.6,327.6 354.5,322.87 359.59,321.69 365.4,320.9 376.3,320.12 387.21,316.97 398.11,323.27 
	408.28,327.6 419.19,329.96 "/>
<g>
	<text transform="matrix(1 0 0 1 36.8867 403.0928)" style="font-family:'SourceHanSansTW-Regular-B5pc-H'; font-size:14px;">11</text>
	<text transform="matrix(1 0 0 1 79.6318 403.0928)" style="font-family:'SourceHanSansTW-Regular-B5pc-H'; font-size:14px;">12</text>
	<text transform="matrix(1 0 0 1 122.377 403.0928)" style="font-family:'SourceHanSansTW-Regular-B5pc-H'; font-size:14px;">13</text>
	<text transform="matrix(1 0 0 1 165.1211 403.0928)" style="font-family:'SourceHanSansTW-Regular-B5pc-H'; font-size:14px;">14</text>
	<text transform="matrix(1 0 0 1 207.8662 403.0928)" style="font-family:'SourceHanSansTW-Regular-B5pc-H'; font-size:14px;">15</text>
	<text transform="matrix(1 0 0 1 250.6104 403.0928)" style="font-family:'SourceHanSansTW-Regular-B5pc-H'; font-size:14px;">16</text>
	<text transform="matrix(1 0 0 1 293.3555 403.0928)" style="font-family:'SourceHanSansTW-Regular-B5pc-H'; font-size:14px;">17</text>
	<text transform="matrix(1 0 0 1 336.1006 403.0928)" style="font-family:'SourceHanSansTW-Regular-B5pc-H'; font-size:14px;">18</text>
	<text transform="matrix(1 0 0 1 368.1152 403.0928)" style="font-family:'SourceHanSansTW-Regular-B5pc-H'; font-size:14px;">‘19</text>
</g>
<text transform="matrix(1 0 0 1 368.6904 287.1523)" style="font-family:'SourceHanSansTW-Regular-B5pc-H'; font-size:8.3863px;">CS Projections</text>
<text transform="matrix(1 0 0 1 372.1152 304.0928)" style="font-family:'SourceHanSansTW-Medium-B5pc-H'; font-size:14px;">(預估值)</text>
<g>
	<text transform="matrix(1 0 0 1 4.8721 275.1729)" style="font-family:'SourceHanSansTW-Regular-B5pc-H'; font-size:14px;">6%</text>
</g>
<g>
	<text transform="matrix(1 0 0 1 4.8721 374.1729)" style="font-family:'SourceHanSansTW-Regular-B5pc-H'; font-size:14px;">0%</text>
</g>
<g>
	<text transform="matrix(1 0 0 1 4.8721 341.1729)" style="font-family:'SourceHanSansTW-Regular-B5pc-H'; font-size:14px;">2%</text>
</g>
<g>
	<text transform="matrix(1 0 0 1 4.8721 309.1729)" style="font-family:'SourceHanSansTW-Regular-B5pc-H'; font-size:14px;">4%</text>
</g>
<text transform="matrix(1 0 0 1 121.3975 270.96)" style="font-family:'SourceHanSansTW-Bold-B5pc-H'; font-size:17px;">美國經濟成長率預估(%)</text>
<g>
	<line class="st3" x1="37.25" y1="271.09" x2="37.25" y2="387"/>
	<line class="st3" x1="425" y1="370.12" x2="36.89" y2="370.12"/>
</g>
<g>
	<line class="st4" x1="37" y1="271" x2="32" y2="271"/>
	<line class="st4" x1="37" y1="287.49" x2="32" y2="287.49"/>
	<line class="st4" x1="37" y1="303.98" x2="32" y2="303.98"/>
	<line class="st4" x1="37" y1="320.47" x2="32" y2="320.47"/>
	<line class="st4" x1="37" y1="336.96" x2="32" y2="336.96"/>
	<line class="st4" x1="37" y1="353.45" x2="32" y2="353.45"/>
	<line class="st4" x1="37" y1="369.94" x2="32" y2="369.94"/>
	<line class="st4" x1="37" y1="386.43" x2="32" y2="386.43"/>
	<line class="st4" x1="80.5" y1="372.85" x2="80.5" y2="370.14"/>
	<line class="st4" x1="123.5" y1="372.85" x2="123.5" y2="370.14"/>
	<line class="st4" x1="166.5" y1="372.85" x2="166.5" y2="370.14"/>
	<line class="st4" x1="209.5" y1="372.85" x2="209.5" y2="370.14"/>
	<line class="st4" x1="252.5" y1="372.85" x2="252.5" y2="370.14"/>
	<line class="st4" x1="295.5" y1="372.85" x2="295.5" y2="370.14"/>
	<line class="st4" x1="338.5" y1="372.85" x2="338.5" y2="370.14"/>
	<line class="st4" x1="381.5" y1="372.85" x2="381.5" y2="370.14"/>
</g>
<line class="st3" x1="359.5" y1="278.58" x2="359.5" y2="374.48"/>
<g>
	<g>
		<text transform="matrix(1 0 0 1 171.4014 424.1523)" style="font-family:'SourceHanSansTW-Regular-B5pc-H'; font-size:8.3863px;">QoQ Annualized</text>
		<text transform="matrix(1 0 0 1 100.4014 426.0928)" style="font-family:'SourceHanSansTW-Medium-B5pc-H'; font-size:14px;">季比年化值</text>
		
			<rect x="87.43" y="415.45" transform="matrix(-1.836970e-16 1 -1 -1.836970e-16 512.1976 330.803)" class="st0" width="6.54" height="12.1"/>
	</g>
	<g>
		<text transform="matrix(1 0 0 1 318.4014 424.1523)" style="font-family:'SourceHanSansTW-Regular-B5pc-H'; font-size:8.3863px;">YoY%</text>
		<text transform="matrix(1 0 0 1 274.4014 426.0928)" style="font-family:'SourceHanSansTW-Medium-B5pc-H'; font-size:14px;">年增率</text>
		<line class="st2" x1="258.75" y1="421.58" x2="268.25" y2="421.58"/>
	</g>
</g>
</svg>
