<?xml version="1.0" encoding="utf-8"?>
<!-- Generator: Adobe Illustrator 24.3.0, SVG Export Plug-In . SVG Version: 6.00 Build 0)  -->
<svg version="1.1" id="Icon_Set" xmlns="http://www.w3.org/2000/svg" xmlns:xlink="http://www.w3.org/1999/xlink" x="0px" y="0px"
	 viewBox="0 0 97 59.9" style="enable-background:new 0 0 97 59.9;" xml:space="preserve">
<style type="text/css">
	.st0{fill:#2B2929;}
</style>
<g>
	<path class="st0" d="M96.3,0l-2.5,15.1L93,52.4c0,2.5-2,4.5-4.5,4.5H15.4c-1.6,0-2.9-0.8-3.7-2H8.4c1,2.9,3.8,5,7.1,5h73.1
		c4.1,0,7.5-3.4,7.5-7.5l1-52.4H96.3z"/>
	<path class="st0" d="M7.7,53.4c-3.3,0-6-2.7-6-6L8.8,6.6L9,0H8.5L0.2,47.1v0.3c0,4.1,3.4,7.5,7.5,7.5h0.6c-0.2-0.5-0.3-1-0.4-1.5
		C7.9,53.4,7.7,53.4,7.7,53.4z"/>
	<path class="st0" d="M86.8,47.4c-0.9,3.2-4.7,6-8,6H11c0.1,0.5,0.3,1.1,0.6,1.5h67.2c4,0,8.3-3.2,9.4-7.1l5.5-32.7L94,4.9
		L86.8,47.4z"/>
	<polygon class="st0" points="9.7,1.5 94.5,1.5 94,4.9 93.8,15.1 96.3,0 9,0 8.8,6.6 	"/>
	<path class="st0" d="M11,53.4H8c0.1,0.5,0.2,1,0.4,1.5h3.3C11.4,54.4,11.2,53.9,11,53.4z"/>
	<path class="st0" d="M86.8,47.4L94,4.9V3h-1.2l-7.4,44c-0.8,2.5-3.9,4.8-6.5,4.8h-68v0.5c0,0.3,0,0.7,0.1,1h67.8
		C82.2,53.4,85.9,50.6,86.8,47.4z"/>
	<path class="st0" d="M7.9,51.9H7.7c-2.4,0-4.4-2-4.5-4.4l5.4-31l0.2-9.9L1.7,47.4c0,3.3,2.7,6,6,6H8c0-0.3-0.1-0.7-0.1-1V51.9z"/>
	<path class="st0" d="M10.9,51.9h-3v0.5c0,0.3,0,0.7,0.1,1h3c-0.1-0.3-0.1-0.6-0.1-1V51.9z"/>
	<polygon class="st0" points="11,3 11.9,3 92.8,3 94,3 94,4.9 94.5,1.5 9.7,1.5 8.8,6.6 8.6,16.5 	"/>
	<g>
		<path class="st0" d="M44.2,11.6L44.2,11.6c-0.5,1-0.9,2-1.4,3l-0.7,1.3h2.7l-0.2-1.3C44.4,13.5,44.3,12.6,44.2,11.6z"/>
		<path class="st0" d="M33.7,11.5h-1.4l-0.5,2.9h1.3c1.5,0,2.2-0.6,2.4-1.5C35.7,11.9,35,11.5,33.7,11.5z"/>
		<path class="st0" d="M31.7,15.3l-0.6,3.3h1.5c1.5,0,2.5-0.5,2.7-1.7c0.2-1.1-0.6-1.6-2.1-1.6L31.7,15.3z"/>
		<path class="st0" d="M8.1,8L5.8,21.5h84.9L93,8H8.1z M36.6,12.8c-0.1,0.9-0.7,1.6-1.6,1.9v0.1c1,0.2,1.6,0.9,1.4,2.1
			c-0.3,1.7-1.8,2.6-3.8,2.6h-2.8l1.5-8.8H34C35.7,10.7,36.9,11.3,36.6,12.8z M45.3,19.5l-0.4-2.7h-3.2l-1.3,2.7h-1.1l4.5-8.8H45
			l1.5,8.8H45.3z M56.7,19.5h-1.1l-2.3-5.6l-0.6-1.8l0,0c-0.1,0.9-0.2,1.8-0.3,2.8l-0.8,4.6h-1.1l1.5-8.8h1l2.3,5.5l0.6,1.8H56
			c0.1-0.9,0.2-1.9,0.3-2.8l0.8-4.6h1.1L56.7,19.5z M68.3,19.5H67l-1.9-4.6l-1.8,1.8l-0.5,2.8h-1.1l1.5-8.8h1.1l-0.7,4.4l0,0
			l4.4-4.4h1.2L66,14L68.3,19.5z"/>
	</g>
	<path class="st0" d="M62.5,39.4H26c-0.8,0-1.4-0.7-1.2-1.5c0.1-0.8,0.9-1.5,1.8-1.5H63c0.8,0,1.4,0.7,1.2,1.5S63.3,39.4,62.5,39.4z
		"/>
	<path class="st0" d="M30.4,33.1h-9.6c-0.8,0-1.4-0.7-1.2-1.5c0.2-0.8,0.9-1.5,1.8-1.5H31c0.8,0,1.4,0.7,1.2,1.5
		C32,32.4,31.2,33.1,30.4,33.1z"/>
	<path class="st0" d="M71.8,33.1H44.5c-0.8,0-1.4-0.7-1.2-1.5c0.1-0.8,0.9-1.5,1.8-1.5h27.3c0.8,0,1.4,0.7,1.2,1.5
		C73.4,32.4,72.6,33.1,71.8,33.1z"/>
	<path class="st0" d="M39,33.1h-3.2c-0.8,0-1.4-0.7-1.2-1.5c0.1-0.8,0.9-1.5,1.8-1.5h3.2c0.8,0,1.4,0.7,1.2,1.5
		C40.6,32.4,39.8,33.1,39,33.1z"/>
	<path class="st0" d="M57.6,42.3h9.6c0.8,0,1.4,0.7,1.2,1.5c-0.1,0.8-0.9,1.5-1.8,1.5H57c-0.8,0-1.4-0.7-1.2-1.5
		S56.7,42.3,57.6,42.3z"/>
	<path class="st0" d="M16.2,42.3h27.3c0.8,0,1.4,0.7,1.2,1.5s-0.9,1.5-1.8,1.5H15.7c-0.8,0-1.4-0.7-1.2-1.5
		C14.6,43,15.3,42.3,16.2,42.3z"/>
	<path class="st0" d="M49,42.3h3.2c0.8,0,1.4,0.7,1.2,1.5s-0.9,1.5-1.8,1.5h-3.2c-0.8,0-1.4-0.7-1.2-1.5S48.1,42.3,49,42.3z"/>
</g>
</svg>
