<?xml version="1.0" encoding="utf-8"?>
<!-- Generator: Adobe Illustrator 24.3.0, SVG Export Plug-In . SVG Version: 6.00 Build 0)  -->
<svg version="1.1" id="Icon_Set" xmlns="http://www.w3.org/2000/svg" xmlns:xlink="http://www.w3.org/1999/xlink" x="0px" y="0px"
	 viewBox="0 0 197.2 94.8" style="enable-background:new 0 0 197.2 94.8;" xml:space="preserve">
<style type="text/css">
	.st0{fill:#2B2929;}
</style>
<g>
	<g>
		<path class="st0" d="M47.2,7.4c-3.3,0-5.9,2.7-5.9,5.9s2.7,5.9,5.9,5.9c3.3,0,5.9-2.7,5.9-5.9S50.5,7.4,47.2,7.4 M47.2,16.3
			c-1.6,0-3-1.3-3-3s1.3-3,3-3c1.6,0,3,1.3,3,3S48.8,16.3,47.2,16.3"/>
		<rect x="32.5" y="11.7" class="st0" width="5.9" height="3"/>
		<rect x="56.1" y="11.8" class="st0" width="6" height="3"/>
		<path class="st0" d="M94.7,66c0.1-0.8-0.3-1.6-0.9-2.1c-4.3-3.6-9.7-4.2-14.3-1.5L72,66.1C66.3,58.4,57.6,53.6,48,53l1.2-2.9
			c0.3-0.8,0.5-1.7,0.6-2.5h1.7c2.1,3.7,6.1,6.1,10.4,6.1c4.7,0,8.9-2.7,10.9-7L73,46l-0.3-0.6c-1.9-4.3-6.2-7-10.9-7
			c-4.3,0-8.3,2.4-10.4,6.1h-2c-0.5-1.7-1.5-3.3-3-4.4c-2.4-1.8-2.9-5.2-1.1-7.6l4.6-5.9h9.3H71V14.9v-3.1V0H59.2H35.3H23.5v11.8
			v3.1v11.8h11.8h10.9l-3.2,4c-1.1,1.5-1.6,3.2-1.6,4.9H40c-2.1-3.7-6.1-6.1-10.4-6.1c-4.7,0-8.9,2.8-10.9,7l-0.3,0.6l0.3,0.6
			c1.9,4.3,6.2,7,10.9,7c4.3,0,8.3-2.4,10.4-6.1h1.9c0.5,1.5,1.5,2.8,2.8,3.9c2,1.5,2.7,4.2,1.8,6.5l-1.6,4
			c-7.5,0.2-14.6,3-20.3,7.9h-2c-3.3,0-6.4,1.3-8.7,3.6L0,78.3v16.5h15l50.4-9.7l28.1-17.2C94.2,67.4,94.7,66.7,94.7,66 M61.8,41.4
			c3.3,0,6.3,1.8,7.9,4.7c-1.6,2.9-4.6,4.7-7.9,4.7c-3.3,0-6.3-1.8-7.9-4.7C55.5,43.2,58.6,41.4,61.8,41.4 M26.5,18
			c2.9,0.6,5.1,2.8,5.7,5.7h-5.7V18z M26.5,15v-3.3c4.5-0.7,8-4.2,8.7-8.7h24.1c0.7,4.5,4.2,8,8.7,8.7V15c-4.5,0.7-8,4.2-8.7,8.7
			H35.2C34.5,19.2,31,15.6,26.5,15 M32.2,3c-0.6,2.9-2.8,5.1-5.7,5.7V3H32.2z M68,8.7c-2.9-0.6-5.1-2.8-5.7-5.7H68V8.7z M62.3,23.7
			c0.6-2.9,2.8-5.1,5.7-5.7v5.7H62.3z M29.6,41.8c-3.3,0-6.3-1.8-7.9-4.7c1.6-2.9,4.6-4.7,7.9-4.7s6.3,1.8,7.9,4.7
			C35.9,40,32.9,41.8,29.6,41.8 M3,91.9V79.6l13-13c1.8-1.8,4.1-2.7,6.6-2.7h30.5c-0.7,4-4.2,7-8.3,7h-12v1.5v1.5h30.4L81,65
			c3.4-2,7.1-1.7,10.4,0.7l-27,16.5l-49.6,9.6H3V91.9z M45.9,55.8c9.2,0,17.9,4.3,23.5,11.6l-6.9,3.4h-10c2.3-2.1,3.8-5.1,3.8-8.5
			v-1.5H29.4C34.3,57.6,39.9,55.8,45.9,55.8"/>
	</g>
	<g>
		<path class="st0" d="M107.1,75.4l1.7,1.7v14.8h14.8l5.7-11.2h3.1v3.5h16.2v-3.5h1.6l8.7,11.2h13.2V79.6c2.8-1.7,11.5-8,15.1-19.4
			c1.1-4,1.7-5.1,2.7-6.6c1.9-3,5.9-3.7,6-3.7l1.4-0.2V33h-5.1c0,0-0.1,0-0.2,0c-0.2,0-0.4,0-0.6,0c-1.3,0-3.3,0-4.7-3.2
			c-2.4-5.5-6.1-10.5-10.7-14.4l0.9-4.2c0.5-1.7,0.8-5-1.5-6.5c-2.4-1.6-5.6-0.4-8.2,0.5l-0.9,0.3c-0.8,0.3-2.5,0.9-5.1,2
			c-1.7-0.5-3.4-0.9-5.2-1.1c-0.5-0.1-0.9-0.1-1.4-0.2c-0.2,0-2.5-0.2-5.9-0.4V0h-16.2v5.8c-2.2,0.2-4.4,0.4-6.5,0.8h-0.2
			c-0.5,0.1-0.9,0.2-1.4,0.3c-17.4,4.2-30,19.5-30.6,37.4v0.2l0.1,1.6h-0.1c0,0.5,0,1.1,0.1,1.6v0.5C94.5,58.7,99.2,68.4,107.1,75.4
			 M134.1,42.3c-0.9,0-1.6-0.7-1.6-1.6V31c0-0.9,0.7-1.6,1.6-1.6h4.9v6.4h1.6h1.6v-6.4h4.9c0.9,0,1.6,0.7,1.6,1.6v9.7
			c0,0.9-0.7,1.6-1.7,1.6l-1.6,0.1V52h-9.7v-9.7H134.1z M135.7,5.6V3.2h9.7v2.4v3.2v17.4h-9.7V8.9V5.6z M145.4,55.3v15.2l-1.1,0.8
			l-3.8,2.8l-3.8-2.8l-1.1-0.8V55.3H145.4z M145.4,80.9h-9.7v-6.5l4.9,3.6l4.8-3.6V80.9z M154.2,9.4c0.4,0,0.9,0.1,1.3,0.2
			c1.8,0.3,3.5,0.7,5.3,1.2l0.5,0.2l0.5-0.2c2.8-1.1,4.7-1.8,5.5-2.1l0.9-0.3c1.9-0.7,4.3-1.5,5.3-0.8c0.6,0.4,0.5,2.1,0.2,3
			l-1.1,5.3c-0.4,1.7-1.2,4.5-1.2,4.5l3.1,0.9c0-0.1,0.3-1,0.6-2.2c3.6,3.4,6.6,7.5,8.6,12.1c2.3,5.1,6.2,5.1,7.7,5.1l0,0
			c0.1,0,0.3,0,0.4,0c0.2,0,0.4,0,0.5,0h1.9V47c-1.8,0.5-5,1.9-6.8,4.9c-1,1.6-1.9,2.9-3,7.4c-3.8,12.1-14.3,17.9-14.4,18l-0.8,0.5
			v11h-8.4l-8.7-11.2h-3.2V55.3h3.3V52h-3.3v-6.7c1.9-0.6,3.3-2.5,3.3-4.6V31c0-2.1-1.4-3.9-3.3-4.6V9C152,9.1,154.1,9.4,154.2,9.4
			 M107.9,39.5c-4,0-7.2,2.9-7.2,6.5c0,3.5,2.7,6.3,6.1,6.3v-3.2c-1.5,0-2.8-1.4-2.8-3c0-1.9,1.7-3.3,3.9-3.3c2.9,0,5.3,2.5,5.3,5.6
			c0,4-3.2,7.3-7,7.3c-4.7,0-8.5-3.6-9.1-8.3l-0.1-3c0.6-16.4,12.2-30.5,28.2-34.3c0.4-0.1,0.8-0.2,1.3-0.3h0.1
			c1.9-0.3,3.8-0.6,5.9-0.7v17.4c-1.9,0.7-3.2,2.4-3.2,4.6v9.7c0,2.1,1.4,3.9,3.2,4.6V52h-3.2v1.6v1.6h3.2v22.2h-5.1l-5.7,11.2H112
			V75.8l-2.7-2.7c-5.2-4.6-8.8-10.5-10.8-16.9c2.1,1.7,4.7,2.7,7.6,2.7c5.7,0,10.3-4.7,10.3-10.6C116.5,43.5,112.7,39.5,107.9,39.5"
			/>
		<polygon class="st0" points="142.2,10.1 142.2,8.8 142.2,7 140.6,7 139,7 139,8.8 139,10.1 140.6,10.1 		"/>
		<polygon class="st0" points="142.2,22.8 142.2,19.7 140.6,19.7 139,19.7 139,22.8 140.6,22.8 		"/>
		<polygon class="st0" points="142.2,16.5 142.2,13.3 140.6,13.3 139,13.3 139,16.5 140.6,16.5 		"/>
		<rect x="174.5" y="26.5" class="st0" width="3.2" height="6.4"/>
	</g>
</g>
</svg>
