<?xml version="1.0" encoding="utf-8"?>
<!-- Generator: Adobe Illustrator 24.3.0, SVG Export Plug-In . SVG Version: 6.00 Build 0)  -->
<svg version="1.1" id="Icon_Set" xmlns="http://www.w3.org/2000/svg" xmlns:xlink="http://www.w3.org/1999/xlink" x="0px" y="0px"
	 viewBox="0 0 97 61.8" style="enable-background:new 0 0 97 61.8;" xml:space="preserve">
<style type="text/css">
	.st0{fill:#2B2929;}
	.st1{fill-rule:evenodd;clip-rule:evenodd;fill:#2B2929;}
</style>
<g>
	<path class="st0" d="M91.5,61.8H5.8c-3.1,0-5.6-2.5-5.6-5.6V5.6C0.2,2.5,2.7,0,5.8,0h85.7c3.1,0,5.6,2.5,5.6,5.6v50.7
		C97.1,59.3,94.6,61.8,91.5,61.8z M5.8,3.1c-1.4,0-2.6,1.1-2.6,2.6v50.7c0,1.4,1.1,2.6,2.6,2.6h85.7c1.4,0,2.6-1.1,2.6-2.6V5.6
		C94.1,4.2,93,3,91.5,3L5.8,3.1L5.8,3.1z"/>
	<g>
		<path class="st0" d="M85.1,41.9v1.4c0,1.5-1.2,2.7-2.7,2.7H62.6c-1.5,0-2.7-1.2-2.7-2.7v-1.4c0-4.2,3.4-7.6,7.6-7.6
			c1.6,0,2.4,0.9,5.1,0.9s3.4-0.9,5.1-0.9C81.7,34.3,85.1,37.7,85.1,41.9z M82.4,41.9c0-2.7-2.2-4.9-4.9-4.9c-0.8,0-2.1,0.9-5.1,0.9
			c-2.9,0-4.2-0.9-5.1-0.9c-2.7,0-4.9,2.2-4.9,4.9v1.4h19.9L82.4,41.9L82.4,41.9z M64.4,25.3c0-4.5,3.6-8.1,8.1-8.1s8.1,3.6,8.1,8.1
			s-3.6,8.1-8.1,8.1S64.4,29.8,64.4,25.3z M67.1,25.3c0,3,2.4,5.4,5.4,5.4s5.4-2.4,5.4-5.4s-2.4-5.4-5.4-5.4S67.1,22.3,67.1,25.3z"
			/>
	</g>
	<path class="st0" d="M84.9,54.4H59.8c-2.9,0-5.3-2.4-5.3-5.3v-36c0-2.9,2.4-5.3,5.3-5.3H85c2.9,0,5.3,2.4,5.3,5.3v36
		C90.3,52,87.9,54.4,84.9,54.4z M59.8,10.7c-1.3,0-2.3,1-2.3,2.3v36c0,1.3,1,2.3,2.3,2.3H85c1.3,0,2.3-1,2.3-2.3V13
		c0-1.3-1-2.3-2.3-2.3H59.8z"/>
	<g>
		<path id="path171" class="st1" d="M12.8,12.8L12.8,12.8h1.1v-1c0,0,0-0.1,0-0.2c0-0.6-0.5-1.1-1.1-1.1s-1.1,0.5-1.1,1.1l0,0v1.2
			H12.8L12.8,12.8 M17.8,12.9c0.6,0,1.1-0.5,1.1-1.1s-0.5-1.1-1.1-1.1s-1.1,0.5-1.1,1.1C16.6,12.4,17.2,12.9,17.8,12.9 M17.8,13
			c-0.9,0-1.6,0.7-1.6,1.6h-1.8c0,0,0,0,0-0.1c0-0.9-0.7-1.6-1.6-1.6c-0.9,0-1.6,0.7-1.6,1.6c0,0.1,0,0.1,0,0.2v4.6h3.2v-3.1h1.8
			v3.2h3.2v-4.6c0-0.1,0-0.1,0-0.2C19.4,13.7,18.7,13,17.8,13"/>
		<rect x="17.3" y="7.4" transform="matrix(0.1833 -0.9831 0.9831 0.1833 6.7497 23.3019)" class="st0" width="0.1" height="0.4"/>
		<path class="st0" d="M11.7,8.1C11.7,8.1,11.7,8,11.7,8.1l-0.2-0.3l-1.3,0.8l0,0l0.2,0.3L11.7,8.1C11.6,8.1,11.7,8.1,11.7,8.1z"/>
		<path class="st0" d="M14.3,7.4h0.2l0,0l0,0V7.3L14.3,7.4L14.3,7.4z"/>
		<polygon class="st0" points="14.5,7.1 14.5,6.9 14.3,6.9 14.3,7.1 		"/>
		<polygon class="st0" points="7.5,17.1 8,16.9 7.5,16.8 		"/>
		<polygon class="st0" points="10.1,21.3 10.2,20.9 9.9,21.2 		"/>
		<path class="st0" d="M8.9,19.2L8.9,19.2c-0.1-0.1-0.1-0.1-0.1-0.2s-0.2-0.1-0.3,0c0,0-0.1,0-0.1,0.1c0,0-0.1,0-0.1,0.1
			c-0.1,0.1-0.2,0.1-0.1,0.2v0.1v0.1c0,0.1,0.1,0.1,0.3,0c0,0,0.1,0,0.1-0.1c0,0,0.1,0,0.1-0.1C8.9,19.4,9,19.3,8.9,19.2z"/>
		<polygon class="st0" points="14.2,23.2 14.4,23.3 14.4,22.8 		"/>
		<path class="st0" d="M21.8,11.3L21.8,11.3l0.2-0.1L21.8,11l-0.2,0.1L21.8,11.3L21.8,11.3z"/>
		<path class="st0" d="M17.1,7.8l0.3,0.1l0,0l0,0V7.8H17.1L17.1,7.8z"/>
		<path class="st0" d="M21.3,10.6L21.3,10.6l0.2-0.1l-0.1-0.2l-0.2,0.2L21.3,10.6L21.3,10.6z"/>
		<path class="st0" d="M20.6,10.2L20.6,10.2L21,9.9l0,0c0,0,0,0,0-0.1l0,0l-0.4,0.3V10.2C20.5,10.2,20.6,10.2,20.6,10.2z"/>
		<path class="st0" d="M15.3,6.3c-5,0-9,4-9,9s4,9,9,9s9-4,9-9C24.3,10.4,20.3,6.3,15.3,6.3z M21.9,9.9L21.9,9.9H22l0.6,0.7v0.1v0.1
			c0,0,0,0,0,0.1c0,0,0,0,0,0.1v0.1l-0.1,0.1l-0.1-0.1c0,0,0-0.1-0.1-0.1c0,0,0-0.2,0-0.3l-0.1-0.1l-0.3-0.4c0,0-0.2,0-0.2-0.1
			c0,0,0,0-0.1-0.1l-0.1-0.1l0.1-0.1l0,0c0,0,0,0,0.1,0.1C21.8,9.8,21.8,9.8,21.9,9.9L21.9,9.9z M21.6,11.7L21.6,11.7
			C21.6,11.7,21.6,11.8,21.6,11.7v0.1l-0.1,0.1l-0.1-0.1c0,0,0,0,0-0.1v-0.1l0.1-0.2l-0.2,0.1h-0.1c0,0-0.1,0-0.1-0.1l0,0l0,0
			l-0.2-0.3l0,0l0,0l0,0l0,0c0,0,0,0,0-0.1v-0.1l0.1-0.1h-0.1h-0.1c0,0-0.1,0-0.1-0.1l-0.1-0.1l0.1-0.1l0.1,0.1l0,0l0,0l0.3-0.1
			L21,10.4l0.4-0.3l0.4,0.5l-0.3,0.3h-0.1c0,0-0.1,0-0.1-0.1l-0.2-0.1H21c0.1,0.1,0.1,0.1,0,0.3l0,0l0,0l0,0l0,0l0.1,0.1l0,0l0,0
			l0.3-0.1l-0.1-0.1l0.4-0.3l0.4,0.6l-0.3,0.3h-0.1c0,0-0.1,0-0.1-0.1l-0.1-0.1l-0.1,0.1C21.6,11.6,21.6,11.5,21.6,11.7z M21.4,10
			l0.1-0.1l0.9,1.2l-0.1,0.1L21.4,10z M21.7,9.6L21.3,10h-0.1h-0.1v0.1c0,0,0,0,0,0.1l-0.4,0.3h-0.1c0,0-0.1,0-0.1-0.1l-0.1-0.2
			l-0.1,0.1L20,10.1L21.3,9L21.7,9.6z M20.7,8.5l-0.3,0.4c-0.1,0.1-0.1,0.1-0.3,0l-0.3-0.2l-0.1,0.2l0.6,0.4l-0.1,0.2l-0.6-0.4
			l-0.4,0.6L19,9.5l0.4-0.6l-0.6-0.4l0.1-0.2l0.6,0.4l0.1-0.2L19,8.2l0.4-0.6L20.7,8.5z M19.8,9.8L19.8,9.8L19.8,9.8V10l-0.2-0.1
			l-0.1-0.1V9.7l0.1-0.4l0.2,0.2V9.8C19.8,9.7,19.8,9.7,19.8,9.8z M18.9,8.7L18.9,8.7L18.9,8.7l0.2,0.2l-0.3,0.3h-0.1h-0.1l-0.2-0.1
			l0.1-0.2L18.6,9l0,0l0,0L18.9,8.7L18.9,8.7z M18.6,7.5L18.6,7.5c0.1,0.1,0.1,0.1,0.1,0.1s0,0,0.1,0l0.3-0.2l0.2,0.2L19,7.8L18.2,9
			L18,8.8l0.7-1l-0.2-0.1L18.6,7.5z M15.5,8.2L15.5,8.2c0.1,0,0.1,0,0.1,0l0,0l0.3-1.4l1,0.2V6.9l0,0L17.2,7v0.1l0.9,0.2v0.2
			l-1.9-0.4L16,8.3c0,0.1,0,0.1-0.1,0.1c0,0-0.1,0-0.2,0h-0.1L15.5,8.2z M17.7,8.3C17.7,8.3,17.6,8.3,17.7,8.3
			c-0.1,0.1-0.1,0.1-0.1,0.1h-0.1l-0.3-0.1V8.1h0.2c0,0,0,0,0.1,0c0,0,0,0,0.1-0.1l0.3,0.1C17.8,8.2,17.7,8.3,17.7,8.3z M17.7,8.6
			v0.2l-0.3-0.1h-0.1c0,0,0-0.1-0.1-0.1V8.5l0,0l0,0l0,0l0.3,0.1v0.1l0,0l0,0L17.7,8.6z M17.7,7.8L17.7,7.8C17.7,8,17.6,8,17.4,8
			L17,7.9v0.6c0,0.1,0,0.1-0.1,0.1c0,0-0.1,0-0.2,0h-0.2V8.4h0.1l0,0l0,0l0.1-0.5L16,7.8V7.6l0.7,0.1V7.6l-0.8-0.1V7.4l0.8,0.1V7.4
			L16,7.3V7.1l0.7,0.1V7.1H17v0.1l0.6,0.1v0.2h0.2v0.1L17.7,7.8z M16.2,8.3C16.2,8.3,16.2,8.2,16.2,8.3h0.4l-0.1,0.1
			c0,0-0.1,0-0.1,0.1h-0.1h-0.1h-0.3V8.4L16.2,8.3C16.1,8.3,16.2,8.3,16.2,8.3z M16.1,7.9L16.1,7.9L16.1,7.9h0.3V8l0,0l0,0h0.1v0.2
			h-0.2c-0.1,0-0.1,0-0.1-0.1L16.1,7.9L16.1,7.9L16.1,7.9z M22,15.3c0,3.7-3,6.7-6.7,6.7s-6.7-3-6.7-6.7s3-6.7,6.7-6.7
			S22,11.6,22,15.3z M14,7l-0.4,0.1V7H14V6.8h0.3v0.1l0.5-0.1v0.3h0.1v0.1h-0.1v0.2v0.1c0,0-0.1,0-0.2,0.1h-0.2v0.1l0.5-0.1v0.1
			l-0.5,0.1v0.1l0.5-0.1v0.1L14.4,8v0.1h-0.3V8l-0.4,0.1V8l0.4-0.1V7.8l-0.4,0.1V7.8l0.4-0.1V7.6l-0.4,0.1V7.6l0.4-0.1V7.4l-0.4,0.1
			V7.4l0.4-0.1L14,7z M13.2,7h0.2c0,0,0.1,0,0.1,0.1l0.1,0.6c0,0,0,0.1-0.1,0.1l0,0c0.1,0,0.1,0.2,0.2,0.4c0,0.1,0.4,0.2,0.5,0.2
			l1-0.2v0.2L14,8.5c-0.1,0-0.2-0.1-0.3-0.1c0,0,0,0.1-0.1,0.1c0,0-0.1,0-0.1,0.1h-0.1V8.4l0,0l0,0c0,0,0,0,0-0.1S13.3,8,13.3,7.9
			l0,0l0,0h-0.1V7.8l0,0c0,0,0.1,0,0.1-0.1l-0.1-0.5c0,0,0,0-0.1,0l0,0L13.2,7L13.2,7z M12.7,7.5L12.7,7.5
			C12.8,7.4,12.8,7.4,12.7,7.5L12.8,7l0,0h0.3L13,7.4l0.2,1.3H13l-0.2-1h-0.2L12.7,7.5L12.7,7.5z M11.6,7.5L11.9,8v0.1
			c0,0,0,0.1-0.1,0.1c-0.5,0.3-0.9,0.6-1.4,0.9l0.1,0.2c0.3-0.2,0.6-0.3,0.8-0.5V8.7l0.3-0.2l0.1,0.1c0.2-0.1,0.4-0.2,0.6-0.3
			l0.1,0.2c-0.1,0.1-0.3,0.2-0.4,0.3L12.4,9l0,0l0,0l0.2-0.1L12.7,9l-0.3,0.2c-0.1,0-0.2,0.1-0.2,0L11.6,9c-0.3,0.2-0.6,0.4-0.9,0.6
			l0.2,0.3l0,0l0,0l0.6-0.4l0.1,0.2l-0.8,0.5c-0.1,0-0.1,0-0.1,0s-0.1,0-0.1-0.1L9.8,8.8L11.6,7.5z M9.7,9.7l-0.5,0.7l0.2,0.2
			l0.5-0.7L10,10l-0.5,0.7l0.2,0.2l0.6-0.7l0.2,0.1L9.2,12L9,11.9l0.6-0.7L9.4,11l-0.5,0.7l-0.1-0.1l0.5-0.7L9,10.6l-0.5,0.7
			l-0.1-0.1l1.3-1.6V9.7z M8.1,10.7v-0.2l0.4-0.4l0,0l0,0l0,0l0,0l0.4-0.5h0.2h0.1c0,0,0,0,0.1,0c0,0,0,0,0.1-0.1l0.1-0.1l0.1,0.1
			L9.4,9.7L9.3,9.8H9.2H9l-0.3,0.4l-0.3,0.3v0.2v0.1c0,0,0,0.1-0.1,0.1l-0.2,0.2L8,11l0.1-0.1C8.1,10.9,8.1,10.9,8.1,10.7
			C8.1,10.8,8.1,10.8,8.1,10.7L8.1,10.7z M6.9,16l0.8-0.4H6.9v-0.2H8v0.2L7.2,16H8v0.2H6.9V16z M7.1,17.3l0.2-0.1l-0.1-0.3H7v-0.2
			l1.2,0.1V17l-1.1,0.5V17.3z M7.3,18l0.9-0.3l-0.1-0.3l0.2-0.1l0.1,0.3L8.5,18l-0.2,0.1l-0.1-0.3l-0.9,0.3L7.3,18z M7.6,18.7l1-0.5
			l0.1,0.1l-1,0.5L7.6,18.7z M8.2,19.8l-0.1-0.1L8,19.6c-0.1-0.1,0-0.3,0.2-0.4c0.1,0,0.1-0.1,0.2-0.1c0.1,0,0.1-0.1,0.2-0.1
			c0.2-0.1,0.3-0.1,0.4,0l0.1,0.1l0.1,0.1c0.1,0.1,0,0.3-0.2,0.4c-0.1,0-0.1,0.1-0.2,0.1c-0.1,0-0.1,0.1-0.2,0.1
			C8.4,19.9,8.2,19.9,8.2,19.8z M9,20.8L9.4,20l-0.6,0.5l-0.1-0.1l0.8-0.7l0.1,0.1l-0.4,0.8l0.6-0.5l0.1,0.1L9,20.9V20.8z M9.9,21.7
			l0.1-0.2l-0.3-0.2l-0.2,0.1l-0.1-0.1l1-0.7l0.1,0.1L10,21.8L9.9,21.7z M10.9,22.3l-0.1,0.2l-0.5-0.4l0.6-0.9l0.1,0.1l-0.5,0.8
			L10.9,22.3z M12.2,23.1l0.2-0.4l0,0L12,22.5l-0.2,0.4l-0.1-0.1l0.5-1l0.1,0.1l-0.2,0.4l0.4,0.2l0.2-0.4l0.1,0.1l-0.5,1L12.2,23.1z
			 M13.7,22.6l-0.5-0.2l-0.1,0.3l0.4,0.1L13.4,23L13,22.9v0.3l0.5,0.2l-0.1,0.2l-0.5-0.2h-0.2l0.3-1.1L13.7,22.6L13.7,22.6z
			 M14.5,23.7v-0.2l-0.3-0.1L14,23.6h-0.2l0.5-1.1h0.2l0.1,1.2H14.5z M15.7,23.7h-0.6v-1.1h0.2v0.9h0.5L15.7,23.7L15.7,23.7z
			 M16.3,23.7h-0.2L16,22.8h-0.3v-0.2H16h0.4v0.2h-0.3L16.3,23.7z M17.6,23.4L17.5,23l-0.4,0.1l0.1,0.4H17l-0.3-1.1h0.2l0.1,0.4
			l0.4-0.1l-0.1-0.4h0.2l0.3,1.1H17.6z M18.7,23l-0.4-1l0.1-0.1l0.4,1L18.7,23z M19.7,22.5L19,22l0.4,0.7l-0.1,0.1l-0.6-1l0.1-0.1
			l0.7,0.5l-0.4-0.7l0.1-0.1l0.6,1L19.7,22.5z M20.7,21.8c-0.1,0-0.1,0.1-0.1,0.1L20.5,22c-0.1,0.1-0.2,0.1-0.3-0.1
			c0,0,0-0.1-0.1-0.1l0.1-0.1l0,0c0,0.1,0.1,0.1,0.1,0l0.1-0.1c0,0,0.1,0,0.1-0.1c0,0,0-0.1-0.1-0.2c0-0.1-0.1-0.1-0.1,0
			c-0.1,0.1-0.1,0.1-0.2,0.2c-0.1,0.2-0.2,0.2-0.3,0.1c0,0,0-0.1-0.1-0.1l0,0c-0.1-0.1-0.1-0.3,0-0.4c0,0,0,0,0.1-0.1l0.1-0.1H20
			c0.1,0,0.1,0.1,0.2,0.2l-0.1,0.1C20,21.1,20,21.1,20,21.1l-0.1,0.1c0,0-0.1,0-0.1,0.1v0.1c0,0.1,0.1,0.1,0.1,0.1
			c0.1-0.1,0.2-0.1,0.2-0.2l0,0c0.1-0.1,0.2-0.1,0.3,0.1c0,0,0,0,0,0.1c0,0,0,0,0.1,0.1C20.7,21.6,20.8,21.7,20.7,21.8z M21.4,21.1
			L21.4,21.1c-0.1,0.1-0.1,0.1-0.1,0.1c-0.1,0.1-0.3,0.1-0.4-0.1l-0.6-0.5l0.1-0.1l0.5,0.5c0.1,0.1,0.2,0.1,0.2,0c0,0,0,0,0.1-0.1
			c0,0,0,0,0-0.1c0.1-0.1,0-0.1-0.1-0.2l-0.5-0.5l0.1-0.1l0.6,0.5C21.5,20.8,21.6,20.9,21.4,21.1z M22.3,20L22,19.8l0,0h-0.1
			c0,0-0.1,0-0.1,0.1l-0.2,0.2l0.3,0.2l0.1,0.2l-1-0.7l0.2-0.4c0,0,0-0.1,0.1-0.1c0.1-0.1,0.2-0.1,0.3,0c0,0,0,0,0.1,0
			c0,0,0,0,0.1,0c0.1,0.1,0.1,0.1,0.2,0.2c0.1,0,0.1,0,0.2,0.1l0.3,0.2L22.3,20z M22.9,19l-0.2-0.1l-0.2,0.3l0.2,0.2l-0.1,0.1
			l-0.9-0.8l0.1-0.1l1.2,0.3L22.9,19z M23.3,17.9L22.4,18l0.8,0.3l-0.1,0.1L22,18l0.1-0.2l0.9-0.1l-0.8-0.3l0.1-0.1l1.1,0.4
			L23.3,17.9z M23.6,16.7c0,0.1,0,0.1,0,0.2s0,0.1,0,0.2c0,0.2-0.2,0.2-0.4,0.2c-0.1,0-0.2,0-0.2,0c-0.1,0-0.1,0-0.2,0
			c-0.2,0-0.3-0.1-0.3-0.3c0-0.1,0-0.1,0-0.2s0-0.1,0-0.2c0-0.2,0.1-0.2,0.3-0.2l0,0c0.1,0,0.1,0,0.1,0v0.2l0,0
			c-0.1,0-0.1,0-0.2,0.1v0.1v0.1c0,0.1,0.1,0.1,0.2,0.2H23h0.1c0.1,0,0.2,0,0.3-0.1v-0.1v-0.1c0-0.1,0-0.1-0.1-0.2h-0.1v-0.2
			c0.1,0,0.1,0,0.1,0C23.5,16.5,23.6,16.6,23.6,16.7z M23.7,16.1h-1.1v-0.7h0.2v0.5H23v-0.5h0.2v0.5h0.3v-0.5h0.2v0.5V16.1z"/>
		<path class="st0" d="M21.1,9.8L21.1,9.8l0.4-0.3l-0.1-0.1l0,0L21,9.7L21.1,9.8L21.1,9.8z"/>
		<path class="st0" d="M20.1,8.8C20.1,8.8,20.2,8.8,20.1,8.8C20.2,8.8,20.2,8.8,20.1,8.8l0.2-0.3L19.5,8l-0.2,0.3L20.1,8.8z"/>
		<path class="st0" d="M21.6,19.6c-0.1-0.1-0.1-0.1-0.2,0c0,0,0,0,0,0.1l-0.2,0.2l0.2,0.2l0.2-0.2c0,0,0,0,0-0.1
			C21.7,19.7,21.7,19.6,21.6,19.6z"/>
		<polygon class="st0" points="22.4,18.9 22,18.8 22.3,19.1 		"/>
		<path class="st0" d="M18.9,8.7L18.9,8.7L18.9,8.7z"/>
		<path class="st0" d="M20.3,10.2L20.3,10.2L20.3,10.2z"/>
		<path class="st0" d="M16.1,7.9L16.1,7.9L16.1,7.9z"/>
		<path class="st0" d="M17.2,8.4L17.2,8.4L17.2,8.4z"/>
	</g>
	<path class="st0" d="M22.6,36.9h-6.4c-1,0-1.8-0.8-1.8-1.8v-3.3c0-1,0.8-1.8,1.8-1.8h6.4c1,0,1.8,0.8,1.8,1.8v3.3
		C24.4,36.1,23.6,36.9,22.6,36.9z"/>
	<polygon class="st0" points="11,33.4 11,38.9 8.3,36.1 5.6,33.4 8.3,30.7 11,28 	"/>
	<path class="st0" d="M39.3,34.9h-9.6c-0.8,0-1.5-0.7-1.5-1.5s0.7-1.5,1.5-1.5h9.6c0.8,0,1.5,0.7,1.5,1.5S40.1,34.9,39.3,34.9z"/>
	<path class="st0" d="M18.7,55.6H9c-0.8,0-1.5-0.7-1.5-1.5s0.7-1.5,1.5-1.5h9.6c0.8,0,1.5,0.7,1.5,1.5S19.5,55.6,18.7,55.6z"/>
	<path class="st0" d="M48.6,42.6h-19c-0.8,0-1.5-0.7-1.5-1.5s0.7-1.5,1.5-1.5h18.9c0.8,0,1.5,0.7,1.5,1.5S49.4,42.6,48.6,42.6z"/>
	<path class="st0" d="M48.6,17.4h-19c-0.8,0-1.5-0.7-1.5-1.5s0.7-1.5,1.5-1.5h18.9c0.8,0,1.5,0.7,1.5,1.5
		C50,16.7,49.4,17.4,48.6,17.4z"/>
	<path class="st0" d="M47.9,34.9h-3.2c-0.8,0-1.5-0.7-1.5-1.5s0.7-1.5,1.5-1.5h3.2c0.8,0,1.5,0.7,1.5,1.5S48.7,34.9,47.9,34.9z"/>
</g>
</svg>
