<?xml version="1.0" encoding="utf-8"?>
<!-- Generator: Adobe Illustrator 24.3.0, SVG Export Plug-In . SVG Version: 6.00 Build 0)  -->
<svg version="1.1" id="Icon_Set" xmlns="http://www.w3.org/2000/svg" xmlns:xlink="http://www.w3.org/1999/xlink" x="0px" y="0px"
	 viewBox="0 0 97 61.8" style="enable-background:new 0 0 97 61.8;" xml:space="preserve">
<style type="text/css">
	.st0{fill:#2B2929;}
</style>
<g>
	<path class="st0" d="M91.5,61.8H5.8c-3.1,0-5.6-2.5-5.6-5.6V5.6C0.2,2.5,2.7,0,5.8,0h85.7c3.1,0,5.6,2.5,5.6,5.6v50.7
		C97.1,59.3,94.6,61.8,91.5,61.8z M5.8,3.1c-1.4,0-2.6,1.1-2.6,2.6v50.7c0,1.4,1.1,2.6,2.6,2.6h85.7c1.4,0,2.6-1.1,2.6-2.6V5.6
		C94.1,4.2,93,3,91.5,3L5.8,3.1L5.8,3.1z"/>
	<g>
		<path class="st0" d="M83.1,41.9v1.4c0,1.5-1.2,2.7-2.7,2.7H60.6c-1.5,0-2.7-1.2-2.7-2.7v-1.4c0-4.2,3.4-7.6,7.6-7.6
			c1.6,0,2.4,0.9,5.1,0.9s3.4-0.9,5.1-0.9C79.7,34.3,83.1,37.7,83.1,41.9z M80.4,41.9c0-2.7-2.2-4.9-4.9-4.9c-0.8,0-2.1,0.9-5.1,0.9
			c-2.9,0-4.2-0.9-5.1-0.9c-2.7,0-4.9,2.2-4.9,4.9v1.4h19.9L80.4,41.9L80.4,41.9z M62.4,25.3c0-4.5,3.6-8.1,8.1-8.1s8.1,3.6,8.1,8.1
			s-3.6,8.1-8.1,8.1S62.4,29.8,62.4,25.3z M65.1,25.3c0,3,2.4,5.4,5.4,5.4s5.4-2.4,5.4-5.4s-2.4-5.4-5.4-5.4S65.1,22.3,65.1,25.3z"
			/>
	</g>
	<path class="st0" d="M82.9,54.4H57.8c-2.9,0-5.3-2.4-5.3-5.3v-36c0-2.9,2.4-5.3,5.3-5.3H83c2.9,0,5.3,2.4,5.3,5.3v36
		C88.3,52,85.9,54.4,82.9,54.4z M57.8,10.7c-1.3,0-2.3,1-2.3,2.3v36c0,1.3,1,2.3,2.3,2.3H83c1.3,0,2.3-1,2.3-2.3V13
		c0-1.3-1-2.3-2.3-2.3H57.8z"/>
	<path class="st0" d="M20.4,11.8h-9.6c-0.8,0-1.5-0.7-1.5-1.5s0.7-1.5,1.5-1.5h9.6c0.8,0,1.5,0.7,1.5,1.5S21.2,11.8,20.4,11.8z"/>
	<path class="st0" d="M47.2,18.7H10.8c-0.8,0-1.5-0.7-1.5-1.5s0.6-1.5,1.5-1.5h36.5c0.8,0,1.5,0.7,1.5,1.5S48.1,18.7,47.2,18.7z"/>
	<path class="st0" d="M47.2,25.5H10.8c-0.8,0-1.5-0.7-1.5-1.5s0.7-1.5,1.5-1.5h36.5c0.8,0,1.5,0.7,1.5,1.5S48.1,25.5,47.2,25.5z"/>
	<path class="st0" d="M47.2,53.7H10.8c-0.8,0-1.5-0.7-1.5-1.5s0.6-1.5,1.5-1.5h36.5c0.8,0,1.5,0.7,1.5,1.5S48.1,53.7,47.2,53.7z"/>
	<path class="st0" d="M20.4,42.3h-9.6c-0.8,0-1.5-0.7-1.5-1.5s0.7-1.5,1.5-1.5h9.6c0.8,0,1.5,0.7,1.5,1.5S21.2,42.3,20.4,42.3z"/>
	<path class="st0" d="M29,42.3h-3.2c-0.8,0-1.5-0.7-1.5-1.5s0.7-1.5,1.5-1.5H29c0.8,0,1.5,0.7,1.5,1.5S29.8,42.3,29,42.3z"/>
</g>
</svg>
