<?xml version="1.0" encoding="utf-8"?>
<!-- Generator: Adobe Illustrator 24.3.0, SVG Export Plug-In . SVG Version: 6.00 Build 0)  -->
<svg version="1.1" id="Layer_1" xmlns="http://www.w3.org/2000/svg" xmlns:xlink="http://www.w3.org/1999/xlink" x="0px" y="0px"
	 viewBox="0 0 546.7 422.1" style="enable-background:new 0 0 546.7 422.1;" xml:space="preserve">
<style type="text/css">
	.st0{fill:#004A86;}
</style>
<g>
	<path class="st0" d="M422.5,256.7l-65.4,33.6h-36.7c8.5-8.5,13.8-20.2,13.8-33v-6.6H204.7c-12.9,0-24.9,5-34,14.1L130.5,305v-1.5
		H64.8v13.2h52.5v1.5v64.4v26.4H64.8v13.2h65.7v-39.5h45.4l193.4-37.4l107.8-66c2.8-1.7,4.6-4.7,4.8-7.9c0.2-3.3-1.1-6.5-3.7-8.7
		C461.3,248.4,440.3,246.3,422.5,256.7 M364.4,332.7l-189.8,36.7h-44.1v-45.8l49.5-49.5c6.6-6.6,15.4-10.2,24.7-10.2h115.7
		c-3,14.9-15.9,26.5-30.9,26.5H249v13.2h111.3l68.5-35.2c12.2-7.1,25.8-6.4,37.7,1.9L364.4,332.7z"/>
	<path class="st0" d="M353.1,191c0,18.6,15.2,33.8,33.8,33.8c18.6,0,33.8-15.2,33.8-33.8s-15.2-33.8-33.8-33.8
		C368.2,157.2,353.1,172.4,353.1,191 M386.9,170.4c11.4,0,20.6,9.2,20.6,20.6c0,11.4-9.2,20.6-20.6,20.6c-11.4,0-20.6-9.2-20.6-20.6
		C366.3,179.7,375.5,170.4,386.9,170.4"/>
	<path class="st0" d="M321.5,0c-18.6,0-33.8,15.2-33.8,33.8s15.2,33.8,33.8,33.8s33.8-15.2,33.8-33.8S340.1,0,321.5,0 M321.5,54.4
		c-11.4,0-20.6-9.2-20.6-20.6s9.2-20.6,20.6-20.6s20.6,9.2,20.6,20.6S332.9,54.4,321.5,54.4"/>
	<polygon class="st0" points="104.3,368.9 97.8,368.9 91.2,368.9 91.2,395.7 97.8,395.7 104.3,395.7 	"/>
	<path class="st0" d="M130.5,198h171.6V92.6H130.5V198z M143.7,105.8H289v79.1H143.7V105.8z"/>
	<path class="st0" d="M216.6,118.9c-14.5,0-26.4,11.8-26.4,26.4s11.8,26.4,26.4,26.4s26.4-11.8,26.4-26.4S231.1,118.9,216.6,118.9
		 M216.6,158.4c-7.3,0-13.2-5.9-13.2-13.2c0-7.3,5.9-13.2,13.2-13.2c7.3,0,13.2,5.9,13.2,13.2C229.8,152.5,223.9,158.4,216.6,158.4"
		/>
	<rect x="255.9" y="138.3" class="st0" width="19.5" height="13.2"/>
	<rect x="156.9" y="138.7" class="st0" width="20" height="13.2"/>
	<polygon class="st0" points="222.9,26 222.9,12.8 216.4,12.8 209.8,12.8 209.8,26 216.4,26 	"/>
	<polygon class="st0" points="209.8,78.7 216.4,78.7 222.9,78.7 222.9,65.5 216.4,65.5 209.8,65.5 	"/>
	<polygon class="st0" points="209.8,52.3 216.4,52.3 222.9,52.3 222.9,39.1 216.4,39.1 209.8,39.1 	"/>
	<polygon class="st0" points="380.3,118.5 386.9,118.5 393.4,118.5 393.4,105.4 386.9,105.4 380.3,105.4 	"/>
	<polygon class="st0" points="393.4,92.2 393.4,79 386.9,79 380.3,79 380.3,92.2 386.9,92.2 	"/>
	<polygon class="st0" points="380.3,144.9 393.4,144.9 393.4,131.7 386.9,131.7 380.3,131.7 	"/>
</g>
</svg>
