<?xml version="1.0" encoding="utf-8"?>
<!-- Generator: Adobe Illustrator 24.3.0, SVG Export Plug-In . SVG Version: 6.00 Build 0)  -->
<svg version="1.1" id="Layer_1" xmlns="http://www.w3.org/2000/svg" xmlns:xlink="http://www.w3.org/1999/xlink" x="0px" y="0px"
	 viewBox="0 0 546.7 422.1" style="enable-background:new 0 0 546.7 422.1;" xml:space="preserve">
<style type="text/css">
	.st0{fill:#004780;}
</style>
<g>
	<g>
		<path class="st0" d="M320.8,239.5c-44.9,0-81.5-36.6-81.5-81.5s36.6-81.5,81.5-81.5s81.5,36.6,81.5,81.5S365.7,239.5,320.8,239.5z
			 M320.8,91.3c-36.8,0-66.7,29.9-66.7,66.7s29.9,66.7,66.7,66.7s66.7-29.9,66.7-66.7S357.5,91.3,320.8,91.3z"/>
		<g>
			<path class="st0" d="M326.1,197.5h-10.7c-6.3,0-12.1-2.4-16.6-6.9c-4.4-4.5-6.9-10.3-6.9-16.6h14.8c0,2.3,0.9,4.5,2.5,6.1
				c1.6,1.6,3.8,2.5,6.1,2.5h10.7c2.3,0,4.5-0.9,6.1-2.5c1.6-1.6,2.5-3.8,2.5-6.1c0-2.3-0.9-4.5-2.5-6.1c-1.6-1.6-3.8-2.5-6.1-2.5
				h-10.7c-6.3,0-12.2-2.4-16.6-6.9c-4.4-4.4-6.9-10.3-6.9-16.6c0-6.3,2.4-12.2,6.9-16.6c4.4-4.4,10.3-6.9,16.6-6.9h10.7
				c6.2,0,12.1,2.4,16.6,6.8c4.5,4.5,6.9,10.4,6.9,16.6h-14.8c0-2.3-0.9-4.5-2.5-6.1c-1.6-1.6-3.8-2.5-6.1-2.5h-10.7
				c-2.3,0-4.5,0.9-6.1,2.5c-1.6,1.6-2.5,3.8-2.5,6.1c0,2.3,0.9,4.5,2.5,6.1c1.6,1.6,3.8,2.5,6.1,2.5h10.7c6.3,0,12.1,2.4,16.6,6.9
				c4.4,4.5,6.9,10.3,6.9,16.6c0,6.2-2.4,12.1-6.8,16.6C338.2,195.1,332.4,197.5,326.1,197.5z"/>
			<rect x="313.4" y="113" class="st0" width="14.8" height="12.8"/>
			<rect x="313.4" y="190.1" class="st0" width="14.8" height="12.8"/>
		</g>
	</g>
	<g>
		<g>
			<path class="st0" d="M145.1,406.3H35.4V198.9h109.6V406.3z M50.3,391.5h80V213.7h-80V391.5z"/>
			<rect x="100.6" y="354.2" class="st0" width="14.8" height="14.8"/>
		</g>
		<g>
			<path class="st0" d="M312.2,422.1c-7,0-13.9-1.2-20.5-3.7L168.5,369h-30.8v-14.8h33.7L297,404.6c6.3,2.3,13,3.2,19.8,2.5
				c6.8-0.7,13.3-2.9,19.1-6.6l155-101.6c2.9-2.2,4.9-5.4,5.4-9c0.6-3.7-0.4-7.3-2.6-10.3l-0.2-0.3c-2.1-2.7-5.1-4.6-8.4-5.2
				c-3.4-0.6-6.8,0-9.8,1.8l-82.6,51.4l-7.8-12.6l82.6-51.4c6.1-3.8,13.3-5.1,20.3-3.8c7,1.3,13.3,5.2,17.6,10.9l0.3,0.3
				c4.7,6.2,6.6,13.8,5.4,21.4c-1.1,7.6-5.2,14.4-11.5,18.9l-0.3,0.2L344,412.9c-7.8,5-16.4,7.9-25.5,8.9
				C316.3,422,314.3,422.1,312.2,422.1z"/>
			<path class="st0" d="M253.4,346.8h-14.8c0-15.5,12.6-28.1,28.1-28.1h108.4c7.3,0,13.2-5.9,13.2-13.2c0-7.3-5.9-13.2-13.2-13.2
				H264.5l-39.6-25.4c-8.1-5.2-16.9-9.2-26.1-11.9c-9.2-2.7-18.7-4.1-28.4-4.1h-32.8v-14.8h32.8c11,0,22,1.6,32.5,4.7
				c10.6,3.1,20.6,7.7,29.9,13.6l36,23h106.2c15.5,0,28,12.6,28,28.1c0,15.5-12.6,28.1-28,28.1H266.7
				C259.4,333.6,253.4,339.5,253.4,346.8z"/>
		</g>
	</g>
	<g>
		<rect x="252" y="58.2" class="st0" width="14.8" height="24.7"/>
		<rect x="352.4" y="27.7" class="st0" width="14.8" height="37.9"/>
		<rect x="313.4" class="st0" width="14.8" height="54.3"/>
	</g>
</g>
</svg>
