<?xml version="1.0" encoding="utf-8"?>
<!-- Generator: Adobe Illustrator 24.3.0, SVG Export Plug-In . SVG Version: 6.00 Build 0)  -->
<svg version="1.1" id="Layer_1" xmlns="http://www.w3.org/2000/svg" xmlns:xlink="http://www.w3.org/1999/xlink" x="0px" y="0px"
	 viewBox="0 0 546.7 422.1" style="enable-background:new 0 0 546.7 422.1;" xml:space="preserve">
<style type="text/css">
	.st0{fill:#004A86;}
</style>
<g>
	<g>
		<path class="st0" d="M319.6,330.7H82.5c-4.1,0-7.5-3.4-7.5-7.5V164.8c0-4.1,3.4-7.5,7.5-7.5h148.3c4.1,0,7.5,3.4,7.5,7.5
			c0,4.1-3.4,7.5-7.5,7.5H90v143.4h222.1V291c0-4.1,3.4-7.5,7.5-7.5c4.1,0,7.5,3.4,7.5,7.5v32.2
			C327.1,327.3,323.8,330.7,319.6,330.7z"/>
		<path class="st0" d="M131.9,171.3c-4.1,0-7.5-3.4-7.5-7.5v-29.6c0-4.1,3.4-7.5,7.5-7.5h93.3c4.1,0,7.5,3.4,7.5,7.5
			c0,4.1-3.4,7.5-7.5,7.5h-85.8v22.1C139.4,167.9,136.1,171.3,131.9,171.3z"/>
		<path class="st0" d="M394.9,422.1c-4.1,0-7.5-3.4-7.5-7.5v-83.9H15v83.9c0,4.1-3.4,7.5-7.5,7.5S0,418.8,0,414.6v-91.4
			c0-4.1,3.4-7.5,7.5-7.5h387.4c4.1,0,7.5,3.4,7.5,7.5v91.4C402.4,418.8,399.1,422.1,394.9,422.1z"/>
		<path class="st0" d="M149.5,264.2c-20,0-36.2-16.2-36.2-36.2c0-20,16.2-36.2,36.2-36.2c20,0,36.2,16.2,36.2,36.2
			C185.7,248,169.5,264.2,149.5,264.2z M149.5,206.9c-11.7,0-21.2,9.5-21.2,21.2c0,11.7,9.5,21.2,21.2,21.2
			c11.7,0,21.2-9.5,21.2-21.2C170.7,216.4,161.2,206.9,149.5,206.9z"/>
		<path class="st0" d="M253.9,264.2c-20,0-36.2-16.2-36.2-36.2c0-11.9,5.9-23.1,15.8-29.9c3.4-2.3,8.1-1.5,10.4,2
			c2.3,3.4,1.5,8.1-2,10.4c-5.8,4-9.2,10.5-9.2,17.5c0,11.7,9.5,21.2,21.2,21.2c9.2,0,17.3-5.8,20.1-14.6c1.3-3.9,5.5-6.1,9.5-4.8
			c3.9,1.3,6.1,5.5,4.8,9.5C283.4,254.2,269.6,264.2,253.9,264.2z"/>
		<path class="st0" d="M260.7,327c-4.1,0-7.5-3.4-7.5-7.5v-21h-104v21c0,4.1-3.4,7.5-7.5,7.5c-4.1,0-7.5-3.4-7.5-7.5V291
			c0-4.1,3.4-7.5,7.5-7.5h119c4.1,0,7.5,3.4,7.5,7.5v28.5C268.2,323.6,264.9,327,260.7,327z"/>
		<path class="st0" d="M200.7,139c-4.1,0-7.5-3.4-7.5-7.5v-47c0-4.1,3.4-7.5,7.5-7.5c4.1,0,7.5,3.4,7.5,7.5v47
			C208.2,135.6,204.9,139,200.7,139z"/>
		<path class="st0" d="M200.7,88.6c-11.6,0-21-9.4-21-21c0-11.6,9.4-21,21-21c11.6,0,21,9.4,21,21C221.7,79.2,212.3,88.6,200.7,88.6
			z M200.7,61.7c-3.3,0-6,2.7-6,6c0,3.3,2.7,6,6,6c3.3,0,6-2.7,6-6C206.7,64.3,204,61.7,200.7,61.7z"/>
		<path class="st0" d="M200.7,36c-4.1,0-7.5-3.4-7.5-7.5v-21c0-4.1,3.4-7.5,7.5-7.5c4.1,0,7.5,3.4,7.5,7.5v21
			C208.2,32.6,204.9,36,200.7,36z"/>
		<path class="st0" d="M173.1,45.9c-1.9,0-3.8-0.7-5.3-2.2L153,28.9c-2.9-2.9-2.9-7.7,0-10.6c2.9-2.9,7.7-2.9,10.6,0l14.8,14.8
			c2.9,2.9,2.9,7.7,0,10.6C177,45.2,175.1,45.9,173.1,45.9z"/>
		<path class="st0" d="M230.3,45.9c-1.9,0-3.8-0.7-5.3-2.2c-2.9-2.9-2.9-7.7,0-10.6l14.8-14.8c2.9-2.9,7.7-2.9,10.6,0
			c2.9,2.9,2.9,7.7,0,10.6l-14.8,14.8C234.1,45.2,232.2,45.9,230.3,45.9z"/>
	</g>
	<g>
		<g>
			<path class="st0" d="M293.2,211.6h56.6c10.5,25.4,35.6,43.3,64.8,43.3c29.2,0,54.2-17.9,64.8-43.3h23.1
				c24.4,0,44.3-19.8,44.3-44.1c0-19.3-12.6-36.1-30.6-41.9c1.3-5.2,2-10.5,2-15.8c0-35.9-29.3-65.1-65.3-65.1
				c-21.7,0-41.7,10.6-53.8,28.2c-12.1-11.6-28.2-18.1-45.2-18.1c-36,0-65.4,29.2-65.4,65.1c0,1.3,0,2.5,0.1,3.8
				c-22.3,2.3-39.7,21.1-39.7,43.9C248.9,191.8,268.8,211.6,293.2,211.6z M414.5,244.4L414.5,244.4c-32.9,0-59.6-26.7-59.6-59.5
				c0-32.8,26.7-59.5,59.6-59.5c32.9,0,59.6,26.7,59.6,59.5C474.1,217.7,447.4,244.4,414.5,244.4z M293.2,133.8h1.2
				c1.5,0,3-0.7,4-1.9c1-1.2,1.4-2.7,1.2-4.3c-0.4-2.7-0.7-5.4-0.7-8c0-30.1,24.6-54.6,54.9-54.6c16.3,0,31.6,7.1,42,19.6
				c1.1,1.3,2.8,2,4.6,1.9c1.7-0.2,3.3-1.2,4.1-2.7c9.6-17.7,28.1-28.8,48.3-28.8c30.2,0,54.8,24.5,54.8,54.6c0,6-1,12-3,17.9
				c-0.5,1.4-0.3,3,0.4,4.4c0.8,1.3,2.1,2.2,3.6,2.5c16,2.9,27.6,16.8,27.6,33c0,18.5-15.2,33.6-33.8,33.6h-19.7
				c1.2-5.2,2-10.6,2-16.2c0-38.6-31.4-70-70.1-70c-38.6,0-70.1,31.4-70.1,70c0,5.6,0.7,11,2,16.2h-53.2
				c-18.6,0-33.8-15.1-33.8-33.6C259.4,148.9,274.6,133.8,293.2,133.8z"/>
		</g>
		<g>
			<path class="st0" d="M419.9,177h-0.4v-22.3c6.1,0.9,11.8,3.2,17,6.9l7.7-10.9c-7.8-5.3-16-8.3-24.7-8.9v-6h-7.6v5.9
				c-7.7,0.4-13.9,2.8-18.7,7.1c-4.8,4.3-7.2,9.9-7.2,16.8c0,6.8,2.1,12,6.2,15.5c4.2,3.5,10.7,6.3,19.7,8.4v23
				c-7.1-1.1-13.9-4.5-20.6-10.3l-8.7,10.3c8.6,7.5,18.4,11.8,29.3,12.9v8.7h7.6v-8.5c8.1-0.4,14.6-2.8,19.5-7.1
				c4.9-4.4,7.4-10,7.4-16.9c0-6.9-2.1-12.2-6.4-15.8C435.7,182,429,179.1,419.9,177z M411.9,174.9c-4.4-1.4-7.5-2.9-9-4.4
				c-1.6-1.5-2.4-3.6-2.4-6.3c0-2.6,1-4.9,3-6.6c2-1.8,4.8-2.8,8.4-3.1V174.9z M428.6,209.5c-2.2,1.8-5.2,2.9-9,3.3v-21.3
				c4.8,1.4,8,3,9.8,4.6c1.7,1.6,2.6,3.8,2.6,6.6C431.9,205.4,430.8,207.7,428.6,209.5z"/>
		</g>
	</g>
</g>
</svg>
