<?xml version="1.0" encoding="utf-8"?>
<!-- Generator: Adobe Illustrator 24.3.0, SVG Export Plug-In . SVG Version: 6.00 Build 0)  -->
<svg version="1.1" id="圖層_1" xmlns="http://www.w3.org/2000/svg" xmlns:xlink="http://www.w3.org/1999/xlink" x="0px" y="0px"
	 viewBox="0 0 347.3 96.9" style="enable-background:new 0 0 347.3 96.9;" xml:space="preserve">
<style type="text/css">
	.st0{fill:#3E3A39;}
	.st1{fill:#0473EA;}
	.st2{fill:#38D200;}
</style>
<g>
	<g>
		<path class="st0" d="M176,73c0,0,4.6,3.5,7.4,5.8c-0.2,0.6-0.8,0.9-1.6,0.9h-20.5c-1.8,7.8-6.8,13.3-27.4,16.3l-0.3-0.8
			c13.3-4.3,17.5-9.2,18.9-15.6H136l-0.4-1.5h17.3c0.3-2,0.4-4.2,0.5-6.6l10.8,0.7c-0.1,0.8-0.7,1.4-1.9,1.5c-0.2,1.5-0.3,3-0.6,4.3
			H172L176,73z M153.9,69.6v-6.6h-14.1l-0.4-1.5h14.5v-6.1H137l-0.4-1.5h12.2c-0.4-0.2-0.8-0.4-1.1-0.7c-0.2-3-1.7-6.2-3.3-8.2
			l0.4-0.3c12.1,0.4,11.9,7.3,8.2,9.2h8.6c1-2.8,1.8-6.7,2.3-9.3l10.1,2c-0.2,0.7-0.8,1.2-2.1,1.2c-2.1,1.8-5.4,4.2-8.6,6.1h7.8
			l3.9-4.9c0,0,4.4,3.3,7.1,5.6c-0.2,0.6-0.8,0.9-1.6,0.9h-18.1v6.1h5.6l3.7-4.6c0,0,4.2,3,6.7,5.2c-0.2,0.6-0.8,0.9-1.5,0.9h-14.5
			v6.6h9.4l4-5.3c0,0,4.6,3.5,7.2,5.9c-0.1,0.6-0.8,0.9-1.5,0.9h-47.2l-0.4-1.5H153.9z M162.4,81.4c25.4,0.4,23.5,16.6,14.9,13.9
			c-3.5-4.8-10-10.3-15.2-13.5L162.4,81.4z"/>
		<path class="st0" d="M199.5,60.8c-0.3,5.6-2.1,13-12.2,17.3l-0.3-0.4c4.6-5.5,5-12.7,5-18.6v-9.9l8.7,2.9h12.2
			c-0.5-2.4-1-5-1.4-7.6l9.7,0.7c-0.1,0.2-0.1,0.4-0.2,0.5c12.6-2.2,8.4,8.6,2.5,5.4c-0.3-1.9-1.6-3.9-3-4.9
			c-0.3,0.2-0.7,0.4-1.2,0.5c0.3,1.9,0.6,3.7,1,5.5h8.1l3.3-4.8c0,0,3.7,3.3,5.9,5.5c-0.2,0.6-0.7,0.9-1.5,0.9h-15.5
			c0.8,3,1.7,5.8,3.2,8.1c1.7-2.5,3-5,3.9-7.3l8.3,4c-0.2,0.5-0.8,0.7-1.9,0.5c-1.5,2.4-3.7,4.9-6.3,7.3c1.1,0.8,2.4,1.6,3.8,2.2
			c1,0.4,1.5,0.4,2-0.3c0.8-1.2,2.1-3.8,3-5.9l0.4,0.1l-0.7,7.3c2.4,2.4,2.7,3.5,2,4.8c-1.7,3.1-6.6,2-9.7,0.5
			c-2.6-1.2-4.7-2.7-6.6-4.3c-3.5,2.2-7.3,4.1-11.4,5.2l-0.3-0.6c3.3-2,6.3-4.7,9-7.6c-3-3.9-4.9-8.6-6.2-13.9h-13.6v5.5v0.2h5.5
			l3.5-3.3l6.1,4.9c-0.4,0.4-1,0.8-2,1c-0.5,7.1-1.2,10.5-3.5,12.2c-1.4,0.9-3.4,1.2-5.7,1.2c0-1.5-0.2-2.9-0.8-3.8
			c-0.6-0.9-1.9-1.8-3.6-2.3v-0.6c1.6,0.1,3.6,0.2,4.4,0.2c0.4,0,0.7-0.1,0.8-0.3c0.6-0.7,1-3.1,1.2-7.8H199.5z M233.9,88.3
			c0,0,3,3,4.6,5c-0.2,0.6-0.7,0.9-1.4,0.9h-49.4l-0.4-1.5h6.6V74.9l7.8,2.9h21.8l3.1-4l7.5,5c-0.4,0.5-1,0.9-2.4,1.1v12L233.9,88.3
			z M201.1,92.6h3V79.4h-3V92.6z M211.2,79.4v13.2h2.9V79.4H211.2z M221.2,79.4v13.2h2.8V79.4H221.2z"/>
		<path class="st0" d="M255.1,86.8c0,5.4-1,8.5-9,9.2c-0.1-2.8-0.4-4.7-1.1-6c-0.8-1.4-1.8-2.2-4.2-2.7v-0.7c0,0,4.6,0.3,5.6,0.3
			c0.8,0,1-0.3,1-0.9v-9.1l-1.6,1.1c-0.2,0.8-0.7,1.5-1.4,1.7l-3.6-8.5c1.4-0.4,3.7-1.1,6.6-2V59h-5.8l-0.4-1.5h6.2v-13l9.5,0.9
			c-0.1,0.8-0.6,1.4-2,1.6V57l2.9-4.5c0,0,3.6,3.4,5.5,5.6c-0.1,0.6-0.7,0.9-1.5,0.9h-7v7.7c2.1-0.8,4.3-1.5,6.5-2.3l0.2,0.5
			c-1.6,1.6-3.9,3.6-6.7,6V86.8z M290,71.6c-0.4,0.6-0.9,0.8-2.3,0.9c-2,4.6-4.7,8.6-8.2,12c4.1,2,8.9,3.1,13.8,4l-0.1,0.6
			c-3.1,0.8-5.3,3.1-6.3,6.7c-4.9-1.8-9.1-4.1-12.5-7.4c-5.2,3.4-11.6,5.9-19.5,7.3l-0.3-0.7c6.8-2.5,12.4-6,16.7-10.4
			c-2.5-3.5-4.3-8-5.6-13.8h-4.1l-0.5-1.5h18.3l4.1-3.9L290,71.6z M259.4,69.3c5.2-5.1,5.8-11.6,5.8-16.5v-7l8,2.8h4.5l3.4-3.6
			l6,4.8c-0.3,0.4-1,0.7-2,0.8v7.8c0,0.5,0.1,0.8,0.7,0.8h0.9h0.9c0.3,0,1,0,1.3-0.1c0.3-0.1,0.9-0.2,1.3-0.3h0.5l0.3,0.1
			c1.5,0.8,2,1.5,2,2.8c0,2.6-2.3,4-7.3,4h-2.4c-4.6,0-5-1.4-5-5.5V50h-6.2v2.7c0,4.8-1.2,12.8-12.3,17L259.4,69.3z M266.6,71.1
			c1.6,4.4,4.3,7.8,7.6,10.3c2.3-3.1,4.1-6.6,5.4-10.3H266.6z"/>
		<path class="st0" d="M309.3,92.5v1c0,0.4-1.6,1.6-4.3,1.6h-0.9v-17c-0.3,0.3-0.6,0.6-0.9,0.9l-0.1-0.1c-1,6.1-3.2,12.3-7.5,17.1
			l-0.6-0.3c2.6-9.9,2.4-22.5,2.4-32.4V48.7l5.2,1.8c5.1-1.6,10.4-3.9,13.4-5.7l6.6,6.8c-0.7,0.5-2,0.5-3.7-0.2
			c-3.9,0.6-9.4,1-14.8,1V55H315l2.9-3.1l6.1,4.5c-0.3,0.4-1,0.8-2,1v6.3c-0.1,0.5-3.3,1.7-5.4,1.7h-1.1v-2h-11.2
			c0,3.4-0.1,7.3-0.5,11.5c1.1-3.3,1.9-7.3,2.3-11.1l5.4,1.6c-0.2-0.3-0.3-0.5-0.5-0.7l0.5-0.3c9.1,1.2,4.9,7.9,1.4,5.1
			c-0.1-0.9-0.4-2-0.8-2.9c-0.3,0.2-0.8,0.3-1.4,0.3c-0.4,1.1-0.9,2.3-1.4,3.4l0.8,0.3h6.5l2.3-2.9c0,0,2.6,2,4.2,3.5
			c-0.2,0.6-0.7,0.9-1.4,0.9h-4.3v4.4l1.8-2.4c0,0,2.2,1.9,3.5,3.3c-0.1,0.6-0.6,0.9-1.4,0.9h-4v5.2l1.8-2.5c0,0,2.3,2,3.6,3.4
			c-0.1,0.6-0.6,0.9-1.3,0.9h-4.1v5.2l2.1-2.7c0,0,2.7,2.1,4.4,3.7c-0.2,0.6-0.7,0.9-1.4,0.9H309.3z M304.2,56.6v5.5h11.2v-5.5
			H304.2z M309.3,72.2v4.7h2.8v-4.7H309.3z M312.1,78.4h-2.8v5.4h2.8V78.4z M312.1,85.4h-2.8v5.6h2.8V85.4z M337.9,84.5
			c14.3,3.1,9.5,14.4,3.1,10.4c-1-3.7-3.8-7.8-6.1-10.5l0.4-0.3c0.8,0.1,1.6,0.2,2.3,0.4v-1.7h-6.2v0.5c0,0.4-0.7,0.9-1.8,1.4l6,2.9
			c-0.2,0.4-0.8,0.6-1.7,0.4c-2.3,3-7.4,6.3-12.1,7.9l-0.4-0.7c2.5-2.5,4.7-6.6,5.9-9.9c-0.5,0.1-0.9,0.1-1.4,0.1h-1V54.2l6.2,2.5
			c0.1-1.8,0.1-4.1,0.1-5.9h-8.5l-0.4-1.5h14.8l3.7-4.9c0,0,4.1,3.3,6.6,5.5c-0.1,0.6-0.7,0.9-1.5,0.9h-7.3c-1.7,2-3.9,4.4-5.7,6.1
			h4.3l3-3.2l6,4.6c-0.3,0.3-0.9,0.7-1.7,0.9v23.5c-0.1,0.4-3.4,1.8-5.7,1.8H337.9z M331.5,58.5V65h6.2v-6.5H331.5z M337.7,66.5
			h-6.2V73h6.2V66.5z M337.7,81.2v-6.7h-6.2v6.7H337.7z"/>
	</g>
	<g>
		<path class="st1" d="M59.2,11.1c6.1,0,11.1-5,11.1-11.1H48.1C48.1,6.1,53.1,11.1,59.2,11.1z"/>
		<path class="st2" d="M34.8,35.8l10.8,21.6c1,2.7,3.9,4.8,6.5,4.8h7.2c0.4,0,0.9-0.1,1.2-0.2c0.4,0.1,0.8,0.2,1.2,0.2H69
			c2.7,0,5.6-2.2,6.5-4.8l9-23.4h0l0,0c1.1-1.1,2.9-1.1,4,0l0,0h0L96,91.4c0.7,2.7,3.4,4.8,6.1,4.8h14.4c2.7,0,4.2-2.2,3.5-4.8
			L104.9,4.8c-0.7-2.7-3.4-4.8-6.1-4.8h-6.7h-7.2h-0.5c-1,0-1.8,0.3-2.5,0.8c-1.6,0.9-3,2.3-3.5,4L62.6,46.7h0c-1.1,1.1-2.9,1.1-4,0
			h-0.1L40.5,4.8C39.5,2.2,36.6,0,34,0h-7.2c-2.7,0-4,2.2-3.1,4.8L32.3,29l-0.3,2.8l0.6-1.9L34.8,35.8z"/>
		<path class="st1" d="M70.9,79.5H31v0c-1.5,0-2.8-1.2-2.8-2.8L39.4,4.8C40.1,2.2,38.6,0,35.9,0H21.5c-2.7,0-5.4,2.2-6.1,4.8
			L0.2,91.4C0,91.9,0,92.4,0,92.9c-0.1,1.7,1.1,3,3.1,3.3c0.2,0,0.4,0,0.6,0h0h14.4h46.9c2.8,0,5.9-2.9,6.8-5.4l2.5-6.8
			C75.2,81.6,73.7,79.5,70.9,79.5z"/>
	</g>
	<g>
		<path class="st1" d="M145.5,34.3c-1.2,0.7-2.5,1-4.1,1c-4.1,0-7.1-2.6-7.1-7.2c0-4.6,3.3-7.2,7.2-7.2c1.5,0,2.7,0.3,3.9,1l0,3.2
			h-1l-0.8-3.1c-0.5-0.2-1.1-0.3-1.7-0.3c-2.7,0-4.8,2.1-4.8,6.4c0,4.3,2,6.4,4.8,6.4c0.6,0,1.2-0.1,1.8-0.3l0.8-3.1h1.1L145.5,34.3
			z"/>
		<path class="st1" d="M158.3,34.4V35h-5v-0.6l1.3-0.2c0-1,0-2.5,0-3.6v-2.4c0-1.6-0.5-2.2-1.5-2.2c-0.7,0-1.5,0.4-2.4,1.2v3.3
			c0,1,0,2.6,0.1,3.6l1.2,0.1V35h-5v-0.6l1.3-0.2c0-1,0-2.6,0-3.6v-9.3l-1.5-0.1v-0.5l3.6-0.8l0.3,0.2l-0.1,2.9v3.7
			c1.1-1.3,2.2-1.9,3.5-1.9c1.8,0,2.8,1,2.8,3.6v2.2c0,1,0,2.6,0,3.6L158.3,34.4z"/>
		<path class="st1" d="M164.7,34.4V35h-5.1v-0.6l1.3-0.2c0-1,0-2.6,0-3.6v-1.3c0-1.2,0-1.9-0.1-2.8l-1.5-0.1v-0.5l3.7-1l0.3,0.2
			l0,2.9v2.8c0,1,0,2.6,0,3.6L164.7,34.4z M160.7,21.4c0-0.8,0.7-1.4,1.5-1.4s1.5,0.6,1.5,1.4c0,0.8-0.7,1.4-1.5,1.4
			S160.7,22.2,160.7,21.4z"/>
		<path class="st1" d="M167.4,25.1c0.2-2.1,0.8-3.3,1.6-4.1c1-0.9,2.1-1.3,3.1-1.3c1,0,2,0.4,2.2,1.2c0,0.6-0.5,1.1-1.2,1.1
			c-0.6,0-1.1-0.3-1.6-1.1l-0.4-0.5c-0.2,0.1-0.4,0.3-0.6,0.5c-0.6,0.8-0.8,2.1-0.7,4.2h2.5v0.8h-2.5v4.8c0,1.2,0,2.4,0,3.6l1.8,0.2
			V35h-5.7v-0.6l1.4-0.2c0-1.2,0.1-2.4,0.1-3.6v-4.8h-1.6v-0.6L167.4,25.1z"/>
		<path class="st1" d="M184.3,34.4V35l-3.5,0.2l-0.1-1.8c-0.9,1.1-2.1,1.9-3.5,1.9c-1.8,0-2.9-1-2.8-3.7l0.1-5.3l-1.4-0.3v-0.5
			l3.6-0.5l0.2,0.2l-0.1,2.9v3.6c0,1.6,0.6,2.2,1.6,2.2c0.8,0,1.6-0.4,2.3-1.1l0-6.6l-1.3-0.2v-0.5l3.6-0.5l0.2,0.2l-0.1,2.9v6.2
			L184.3,34.4z"/>
		<path class="st1" d="M200.7,22.1c0,1.9,0,3.7,0,5.6v0.9c0,1.9,0,3.7,0,5.6l1.8,0.2V35h-6.1v-0.6l1.7-0.2c0.1-1.8,0-3.7,0.1-5.3
			l0-5.8L193.7,35h-0.9l-4.6-11.8c0.1,1.8,0.1,4.3,0.1,5.1v5.9l1.9,0.2V35h-4.8v-0.6l2-0.2l0.1-11.9l-1.9-0.2v-0.7h4.5l4.1,10.4
			l4-10.4h4.4V22L200.7,22.1z"/>
		<path class="st1" d="M213.6,34c-0.5,0.9-1.1,1.3-2.1,1.3c-1.1,0-1.8-0.6-2-1.6c-1,1.1-1.7,1.6-3.1,1.6c-1.5,0-2.7-0.9-2.7-2.5
			c0-1.5,0.8-2.4,3.7-3.3c0.6-0.2,1.3-0.4,2-0.6V28c0-2-0.5-2.5-1.9-2.5c-0.3,0-0.6,0-1,0.1l-0.3,1.3c-0.1,1-0.6,1.4-1.2,1.4
			c-0.6,0-1-0.3-1.1-0.8c0.2-1.7,1.8-2.7,4.3-2.7c2.4,0,3.4,1,3.4,3.6v4.8c0,0.8,0.3,1.1,0.7,1.1c0.3,0,0.5-0.2,0.8-0.6L213.6,34z
			 M209.4,29.5c-0.6,0.2-1.1,0.3-1.4,0.4c-1.5,0.6-2,1.4-2,2.6c0,1.1,0.6,1.6,1.5,1.6c0.6,0,1.1-0.3,1.9-1V29.5z"/>
		<path class="st1" d="M219.4,29c1.9,0.6,2.7,1.6,2.7,3c0,1.9-1.5,3.2-4.2,3.2c-1.3,0-2.4-0.3-3.4-0.8l0.1-2.4h1.1l0.5,2.2
			c0.5,0.2,1,0.3,1.6,0.3c1.5,0,2.2-0.6,2.2-1.6c0-0.8-0.4-1.3-1.9-1.8l-1-0.3c-1.6-0.5-2.6-1.4-2.6-2.9c0-1.8,1.4-3.1,3.9-3.1
			c1.2,0,2.1,0.3,3.1,0.8l-0.1,2.2h-0.9l-0.6-2c-0.4-0.2-0.9-0.3-1.4-0.3c-1.2,0-1.9,0.6-1.9,1.5c0,0.8,0.4,1.3,1.8,1.7L219.4,29z"
			/>
		<path class="st1" d="M223.5,30c0-3.3,2.3-5.2,5-5.2c2.7,0,5,1.9,5,5.2c0,3.3-2.2,5.2-5,5.2C225.6,35.3,223.5,33.3,223.5,30z
			 M230.9,30c0-3-0.9-4.5-2.4-4.5c-1.5,0-2.4,1.5-2.4,4.5c0,3.1,0.8,4.5,2.4,4.5C230,34.6,230.9,33.1,230.9,30z"/>
		<path class="st1" d="M246.3,34.4V35h-5v-0.6l1.3-0.2c0-1,0.1-2.5,0.1-3.6v-2.4c0-1.6-0.5-2.2-1.5-2.2c-0.7,0-1.5,0.4-2.4,1.2v3.3
			c0,1,0,2.6,0,3.6l1.2,0.1V35h-5v-0.6l1.3-0.2c0-1,0-2.6,0-3.6v-1.3c0-1.2,0-1.9-0.1-2.7l-1.5-0.1V26l3.5-1.1l0.3,0.2l0.1,1.7
			c1.2-1.3,2.3-1.9,3.5-1.9c1.7,0,2.8,1.1,2.8,3.6v2.2c0,1,0,2.6,0,3.6L246.3,34.4z"/>
	</g>
</g>
</svg>
