<?xml version="1.0" encoding="utf-8"?>
<!-- Generator: Adobe Illustrator 24.3.0, SVG Export Plug-In . SVG Version: 6.00 Build 0)  -->
<svg version="1.1" id="圖層_1" xmlns="http://www.w3.org/2000/svg" xmlns:xlink="http://www.w3.org/1999/xlink" x="0px" y="0px"
	 viewBox="0 0 184.1 50.9" style="enable-background:new 0 0 184.1 50.9;" xml:space="preserve">
<style type="text/css">
	.st0{fill:#FFFFFF;}
</style>
<g>
	<g>
		<path class="st0" d="M93.3,38.7c0,0,2.4,1.8,3.9,3.1c-0.1,0.3-0.4,0.5-0.8,0.5H85.6c-0.9,4.1-3.6,7-14.6,8.7l-0.1-0.4
			c7.1-2.3,9.3-4.9,10-8.3h-8.8l-0.2-0.8H81c0.2-1.1,0.2-2.2,0.3-3.5l5.7,0.4c-0.1,0.4-0.3,0.7-1,0.8c-0.1,0.8-0.2,1.6-0.3,2.3h5.5
			L93.3,38.7z M81.6,36.9v-3.5h-7.5l-0.2-0.8h7.7v-3.3h-9l-0.2-0.8h6.5c-0.2-0.1-0.4-0.2-0.6-0.4c-0.1-1.6-0.9-3.3-1.8-4.3l0.2-0.1
			c6.4,0.2,6.3,3.9,4.4,4.9h4.6c0.5-1.5,1-3.5,1.2-4.9l5.4,1.1c-0.1,0.4-0.4,0.6-1.1,0.6c-1.1,1-2.9,2.2-4.5,3.2h4.1l2.1-2.6
			c0,0,2.4,1.8,3.8,3c-0.1,0.3-0.4,0.5-0.8,0.5h-9.6v3.3h3l2-2.4c0,0,2.2,1.6,3.6,2.8c-0.1,0.3-0.4,0.5-0.8,0.5h-7.7v3.5h5l2.1-2.8
			c0,0,2.4,1.9,3.8,3.1c-0.1,0.3-0.4,0.5-0.8,0.5h-25l-0.2-0.8H81.6z M86.1,43.2c13.5,0.2,12.5,8.8,7.9,7.4
			c-1.9-2.5-5.3-5.5-8.1-7.1L86.1,43.2z"/>
		<path class="st0" d="M105.8,32.3c-0.1,3-1.1,6.9-6.5,9.2l-0.2-0.2c2.4-2.9,2.6-6.7,2.6-9.8v-5.3l4.6,1.6h6.4
			c-0.3-1.3-0.5-2.6-0.7-4.1l5.1,0.3c0,0.1-0.1,0.2-0.1,0.3c6.7-1.2,4.4,4.5,1.4,2.9c-0.1-1-0.9-2.1-1.6-2.6
			c-0.1,0.1-0.3,0.2-0.6,0.3c0.1,1,0.3,2,0.5,2.9h4.3l1.8-2.6c0,0,2,1.8,3.1,2.9c-0.1,0.3-0.4,0.5-0.8,0.5H117
			c0.4,1.6,0.9,3,1.7,4.3c0.9-1.3,1.6-2.7,2-3.9l4.4,2.1c-0.1,0.3-0.4,0.3-1,0.3c-0.8,1.3-2,2.6-3.4,3.9c0.6,0.4,1.3,0.8,2,1.2
			c0.5,0.2,0.8,0.2,1.1-0.1c0.4-0.6,1.1-2,1.6-3.1l0.2,0.1l-0.3,3.9c1.3,1.3,1.4,1.8,1,2.5c-0.9,1.7-3.5,1-5.1,0.3
			c-1.4-0.6-2.5-1.4-3.5-2.3c-1.8,1.2-3.9,2.2-6.1,2.8l-0.2-0.3c1.7-1.1,3.4-2.5,4.8-4c-1.6-2.1-2.6-4.6-3.3-7.4h-7.2v2.9v0.1h2.9
			l1.9-1.7l3.2,2.6c-0.2,0.2-0.5,0.4-1.1,0.5c-0.3,3.8-0.7,5.6-1.9,6.4c-0.7,0.5-1.8,0.7-3,0.7c0-0.8-0.1-1.5-0.4-2
			c-0.3-0.5-1-1-1.9-1.2v-0.3c0.8,0.1,1.9,0.1,2.3,0.1c0.2,0,0.3,0,0.4-0.1c0.3-0.4,0.5-1.7,0.7-4.1H105.8z M124,46.8
			c0,0,1.6,1.6,2.4,2.6c-0.1,0.3-0.3,0.5-0.7,0.5H99.5l-0.2-0.8h3.5v-9.4l4.1,1.6h11.6l1.7-2.1l4,2.7c-0.2,0.3-0.5,0.5-1.3,0.6v6.4
			L124,46.8z M106.6,49.1h1.6v-7h-1.6V49.1z M111.9,42.1v7h1.6v-7H111.9z M117.2,42.1v7h1.5v-7H117.2z"/>
		<path class="st0" d="M135.2,46c0,2.9-0.5,4.5-4.8,4.9c-0.1-1.5-0.2-2.5-0.6-3.2c-0.4-0.7-0.9-1.2-2.2-1.4v-0.4c0,0,2.4,0.1,3,0.1
			c0.4,0,0.5-0.1,0.5-0.5v-4.8l-0.8,0.6c-0.1,0.4-0.4,0.8-0.7,0.9l-1.9-4.5c0.7-0.2,2-0.6,3.5-1.1v-5.4h-3.1l-0.2-0.8h3.3v-6.9
			l5.1,0.5c0,0.4-0.3,0.7-1,0.8v5.4l1.6-2.4c0,0,1.9,1.8,2.9,3c-0.1,0.3-0.4,0.5-0.8,0.5h-3.7v4.1c1.1-0.4,2.3-0.8,3.5-1.2l0.1,0.3
			c-0.9,0.8-2,1.9-3.5,3.2V46z M153.7,37.9c-0.2,0.3-0.5,0.4-1.2,0.5c-1,2.4-2.5,4.6-4.3,6.4c2.2,1,4.7,1.7,7.3,2.1l0,0.3
			c-1.7,0.4-2.8,1.7-3.3,3.6c-2.6-1-4.8-2.2-6.6-3.9c-2.7,1.8-6.1,3.1-10.4,3.9l-0.2-0.3c3.6-1.3,6.6-3.2,8.8-5.5
			c-1.3-1.9-2.3-4.3-3-7.3h-2.2l-0.3-0.8h9.7l2.2-2.1L153.7,37.9z M137.5,36.7c2.8-2.7,3-6.1,3-8.8v-3.7l4.3,1.5h2.4l1.8-1.9
			l3.2,2.6c-0.2,0.2-0.5,0.3-1,0.4v4.1c0,0.3,0.1,0.4,0.3,0.4h0.5h0.5c0.1,0,0.5,0,0.7,0c0.2,0,0.5-0.1,0.7-0.1h0.3l0.2,0.1
			c0.8,0.4,1,0.8,1,1.5c0,1.4-1.2,2.1-3.9,2.1h-1.3c-2.4,0-2.6-0.7-2.6-2.9v-5.3h-3.3V28c0,2.5-0.6,6.8-6.5,9L137.5,36.7z
			 M141.3,37.7c0.9,2.4,2.3,4.1,4.1,5.5c1.2-1.6,2.2-3.5,2.8-5.5H141.3z"/>
		<path class="st0" d="M164,49v0.5c0,0.2-0.9,0.9-2.3,0.9h-0.5v-9c-0.1,0.2-0.3,0.3-0.5,0.5l0,0c-0.5,3.3-1.7,6.5-4,9.1l-0.3-0.2
			c1.4-5.3,1.3-11.9,1.3-17.2v-7.8l2.8,1c2.7-0.9,5.5-2.1,7.1-3l3.5,3.6c-0.4,0.3-1,0.3-2-0.1c-2.1,0.3-5,0.5-7.9,0.5v1.4h5.7
			l1.5-1.6l3.2,2.4c-0.2,0.2-0.5,0.4-1,0.5v3.4c0,0.3-1.7,0.9-2.8,0.9h-0.6v-1h-6c0,1.8,0,3.9-0.3,6.1c0.6-1.8,1-3.9,1.2-5.9
			l2.8,0.8c-0.1-0.1-0.2-0.3-0.3-0.4l0.3-0.2c4.8,0.7,2.6,4.2,0.7,2.7c0-0.5-0.2-1-0.4-1.5c-0.2,0.1-0.4,0.2-0.7,0.1
			c-0.2,0.6-0.5,1.2-0.7,1.8l0.4,0.1h3.5l1.2-1.5c0,0,1.4,1.1,2.2,1.9c-0.1,0.3-0.3,0.5-0.7,0.5h-2.3v2.4l0.9-1.3c0,0,1.2,1,1.9,1.8
			c-0.1,0.3-0.3,0.5-0.7,0.5h-2.1v2.8l1-1.4c0,0,1.2,1.1,1.9,1.8c-0.1,0.3-0.3,0.5-0.7,0.5h-2.2V48l1.1-1.4c0,0,1.4,1.1,2.4,2
			c-0.1,0.3-0.4,0.5-0.7,0.5H164z M161.3,30v2.9h6V30H161.3z M164,38.3v2.5h1.5v-2.5H164z M165.5,41.6H164v2.9h1.5V41.6z
			 M165.5,45.3H164v3h1.5V45.3z M179.1,44.8c7.6,1.6,5,7.7,1.7,5.5c-0.5-2-2-4.1-3.3-5.6l0.2-0.2c0.4,0.1,0.8,0.1,1.2,0.2v-0.9h-3.3
			v0.3c0,0.2-0.4,0.5-0.9,0.7l3.2,1.5c-0.1,0.2-0.4,0.3-0.9,0.2c-1.2,1.6-3.9,3.3-6.4,4.2l-0.2-0.3c1.3-1.4,2.5-3.5,3.1-5.2
			c-0.3,0-0.5,0.1-0.7,0.1h-0.5V28.7l3.3,1.3c0.1-0.9,0.1-2.2,0.1-3.1h-4.5l-0.2-0.8h7.9l2-2.6c0,0,2.2,1.8,3.5,2.9
			c-0.1,0.3-0.4,0.5-0.8,0.5h-3.9c-0.9,1.1-2,2.4-3,3.2h2.3l1.6-1.7l3.2,2.4c-0.1,0.2-0.5,0.4-0.9,0.5v12.5c0,0.2-1.8,0.9-3,0.9
			H179.1z M175.7,31v3.5h3.3V31H175.7z M179,35.2h-3.3v3.5h3.3V35.2z M179,43.1v-3.5h-3.3v3.5H179z"/>
	</g>
	<g>
		<path class="st0" d="M31.4,5.9c3.3,0,5.9-2.6,5.9-5.9H25.5C25.5,3.3,28.1,5.9,31.4,5.9z"/>
		<path class="st0" d="M18.4,19l5.7,11.5c0.5,1.4,2.1,2.5,3.5,2.5h3.8c0.2,0,0.5,0,0.7-0.1c0.2,0.1,0.4,0.1,0.7,0.1h3.8
			c1.4,0,3-1.1,3.5-2.5l4.8-12.4h0l0,0c0.6-0.6,1.5-0.6,2.1,0l0,0h0l3.9,30.4c0.4,1.4,1.8,2.5,3.2,2.5h7.6c1.4,0,2.2-1.1,1.9-2.5
			L55.6,2.6C55.2,1.1,53.8,0,52.4,0h-3.5H45h-0.3c-0.5,0-1,0.2-1.3,0.4c-0.8,0.5-1.6,1.2-1.9,2.1l-8.3,22.2h0
			c-0.6,0.6-1.5,0.6-2.1,0h0L21.5,2.6C21,1.1,19.4,0,18,0h-3.8c-1.4,0-2.1,1.1-1.6,2.6l4.6,12.8L17,16.9l0.3-1L18.4,19z"/>
		<path class="st0" d="M37.6,42.2H16.4v0c-0.8,0-1.5-0.7-1.5-1.5l6-38.1C21.3,1.1,20.4,0,19,0h-7.6C10,0,8.5,1.1,8.1,2.6L0.1,48.4
			C0,48.7,0,49,0,49.2c0,0.9,0.6,1.6,1.6,1.7c0.1,0,0.2,0,0.3,0h0h7.6h24.9c1.5,0,3.1-1.5,3.6-2.8l1.3-3.6
			C39.9,43.2,39.1,42.2,37.6,42.2z"/>
	</g>
	<g>
		<path class="st0" d="M77.1,18.2c-0.6,0.4-1.3,0.6-2.2,0.6c-2.2,0-3.8-1.4-3.8-3.8c0-2.4,1.7-3.8,3.8-3.8c0.8,0,1.4,0.2,2.1,0.5
			l0,1.7h-0.6L76,11.7c-0.3-0.1-0.6-0.2-0.9-0.2c-1.4,0-2.5,1.1-2.5,3.4c0,2.3,1.1,3.4,2.5,3.4c0.3,0,0.6-0.1,1-0.2l0.4-1.7h0.6
			L77.1,18.2z"/>
		<path class="st0" d="M83.9,18.2v0.3h-2.7v-0.3l0.7-0.1c0-0.5,0-1.3,0-1.9V15c0-0.8-0.3-1.1-0.8-1.1c-0.4,0-0.8,0.2-1.3,0.6v1.8
			c0,0.5,0,1.4,0,1.9l0.6,0.1v0.3h-2.7v-0.3l0.7-0.1c0-0.6,0-1.4,0-1.9v-5l-0.8-0.1V11l1.9-0.4l0.1,0.1l0,1.6v2c0.6-0.7,1.2-1,1.9-1
			c0.9,0,1.5,0.6,1.5,1.9v1.2c0,0.6,0,1.4,0,1.9L83.9,18.2z"/>
		<path class="st0" d="M87.3,18.2v0.3h-2.7v-0.3l0.7-0.1c0-0.6,0-1.4,0-1.9v-0.7c0-0.6,0-1,0-1.5L84.5,14v-0.3l2-0.6l0.1,0.1l0,1.5
			v1.5c0,0.5,0,1.4,0,1.9L87.3,18.2z M85.2,11.3c0-0.4,0.4-0.7,0.8-0.7s0.8,0.3,0.8,0.7c0,0.4-0.4,0.7-0.8,0.7S85.2,11.8,85.2,11.3z
			"/>
		<path class="st0" d="M88.7,13.3c0.1-1.1,0.4-1.8,0.8-2.2c0.5-0.5,1.1-0.7,1.7-0.7c0.5,0,1,0.2,1.2,0.7c0,0.3-0.2,0.6-0.7,0.6
			c-0.3,0-0.6-0.2-0.9-0.6l-0.2-0.3c-0.1,0.1-0.2,0.2-0.3,0.3c-0.3,0.4-0.4,1.1-0.4,2.2h1.3v0.4H90v2.5c0,0.6,0,1.3,0,1.9l0.9,0.1
			v0.3h-3v-0.3l0.8-0.1c0-0.6,0-1.3,0-1.9v-2.5h-0.8v-0.3L88.7,13.3z"/>
		<path class="st0" d="M97.7,18.2v0.3l-1.9,0.1l-0.1-1c-0.5,0.6-1.1,1-1.8,1c-0.9,0-1.5-0.5-1.5-2l0-2.8l-0.7-0.1v-0.3l1.9-0.3
			l0.1,0.1l-0.1,1.6v1.9c0,0.9,0.3,1.1,0.8,1.1c0.4,0,0.8-0.2,1.2-0.6l0-3.5l-0.7-0.1v-0.3l1.9-0.3l0.1,0.1l0,1.6v3.3L97.7,18.2z"/>
		<path class="st0" d="M106.4,11.7c0,1,0,2,0,2.9v0.5c0,1,0,2,0,2.9l0.9,0.1v0.3h-3.2v-0.3l0.9-0.1c0-1,0-1.9,0-2.8l0-3.1l-2.4,6.3
			h-0.5l-2.5-6.3c0,1,0,2.3,0,2.7v3.1l1,0.1v0.3h-2.5v-0.3l1-0.1l0-6.3l-1-0.1v-0.4h2.4l2.2,5.5l2.1-5.5h2.3v0.4L106.4,11.7z"/>
		<path class="st0" d="M113.2,18c-0.3,0.5-0.6,0.7-1.1,0.7c-0.6,0-0.9-0.3-1.1-0.9c-0.5,0.6-0.9,0.9-1.6,0.9c-0.8,0-1.4-0.5-1.4-1.3
			c0-0.8,0.4-1.3,2-1.8c0.3-0.1,0.7-0.2,1.1-0.3v-0.5c0-1-0.3-1.3-1-1.3c-0.2,0-0.3,0-0.5,0.1l-0.1,0.7c0,0.5-0.3,0.8-0.6,0.8
			c-0.3,0-0.5-0.2-0.6-0.4c0.1-0.9,0.9-1.4,2.3-1.4c1.3,0,1.8,0.6,1.8,1.9v2.5c0,0.4,0.1,0.6,0.4,0.6c0.1,0,0.3-0.1,0.4-0.3
			L113.2,18z M111,15.6c-0.3,0.1-0.6,0.2-0.7,0.2c-0.8,0.3-1.1,0.8-1.1,1.4c0,0.6,0.3,0.8,0.8,0.8c0.3,0,0.6-0.1,1-0.5V15.6z"/>
		<path class="st0" d="M116.3,15.4c1,0.3,1.4,0.9,1.4,1.6c0,1-0.8,1.7-2.2,1.7c-0.7,0-1.2-0.2-1.8-0.4l0-1.3h0.6l0.3,1.2
			c0.3,0.1,0.5,0.2,0.8,0.2c0.8,0,1.2-0.3,1.2-0.8c0-0.4-0.2-0.7-1-1l-0.5-0.2c-0.8-0.3-1.4-0.7-1.4-1.5c0-0.9,0.7-1.7,2.1-1.7
			c0.6,0,1.1,0.2,1.6,0.4l-0.1,1.2h-0.5l-0.3-1.1c-0.2-0.1-0.5-0.2-0.7-0.2c-0.6,0-1,0.3-1,0.8c0,0.4,0.2,0.7,1,0.9L116.3,15.4z"/>
		<path class="st0" d="M118.5,15.9c0-1.7,1.2-2.8,2.6-2.8c1.4,0,2.6,1,2.6,2.8c0,1.8-1.1,2.8-2.6,2.8
			C119.6,18.7,118.5,17.7,118.5,15.9z M122.4,15.9c0-1.6-0.5-2.4-1.3-2.4c-0.8,0-1.3,0.8-1.3,2.4c0,1.6,0.4,2.4,1.3,2.4
			C121.9,18.3,122.4,17.5,122.4,15.9z"/>
		<path class="st0" d="M130.6,18.2v0.3h-2.7v-0.3l0.7-0.1c0-0.5,0-1.3,0-1.9V15c0-0.8-0.2-1.1-0.8-1.1c-0.4,0-0.8,0.2-1.3,0.6v1.8
			c0,0.5,0,1.4,0,1.9l0.6,0.1v0.3h-2.7v-0.3l0.7-0.1c0-0.6,0-1.4,0-1.9v-0.7c0-0.6,0-1,0-1.5l-0.8-0.1v-0.2l1.9-0.6l0.1,0.1l0.1,0.9
			c0.6-0.7,1.2-1,1.9-1c0.9,0,1.5,0.6,1.5,1.9v1.2c0,0.6,0,1.4,0,1.9L130.6,18.2z"/>
	</g>
</g>
</svg>
