<?xml version="1.0" encoding="utf-8"?>
<!-- Generator: Adobe Illustrator 24.1.1, SVG Export Plug-In . SVG Version: 6.00 Build 0)  -->
<svg version="1.1" id="圖層_1" xmlns="http://www.w3.org/2000/svg" xmlns:xlink="http://www.w3.org/1999/xlink" x="0px" y="0px"
	 viewBox="0 0 971.6 495.5" style="enable-background:new 0 0 971.6 495.5;" xml:space="preserve">
<style type="text/css">
	.st0{fill:#673A1B;}
	.st1{fill:#FFFFFF;}
	.st2{fill:none;stroke:#CCCCCC;stroke-miterlimit:10;}
	.st3{fill:none;stroke:#673A1B;stroke-width:3;stroke-linecap:round;stroke-linejoin:round;stroke-miterlimit:10;}
	.st4{opacity:0.14;fill:#673A1B;}
	.st5{fill:#0A4EAA;}
</style>
<g>
	<polygon class="st0" points="972,163.9 932.1,163.9 923.9,153.6 932.1,143.4 972,143.4 	"/>
	<g>
		<path class="st1" d="M931.4,156.9l0.6-0.7c0.5,0.5,1.2,1,2.2,1c1,0,1.8-0.6,1.8-1.6c0-1-0.7-1.7-2.7-1.7v-0.8
			c1.8,0,2.4-0.7,2.4-1.6c0-0.8-0.6-1.4-1.5-1.4c-0.7,0-1.3,0.4-1.8,0.9l-0.6-0.7c0.7-0.6,1.4-1.1,2.5-1.1c1.5,0,2.6,0.8,2.6,2.2
			c0,1-0.6,1.7-1.6,2v0c1,0.3,1.9,1,1.9,2.2c0,1.5-1.3,2.4-2.8,2.4C932.8,158.1,932,157.6,931.4,156.9z"/>
		<path class="st1" d="M938.4,157.2l0.6-0.7c0.3,0.4,0.9,0.7,1.4,0.7c1.2,0,2.2-0.9,2.3-3.7c-0.6,0.7-1.3,1.1-2,1.1
			c-1.5,0-2.4-0.9-2.4-2.7c0-1.6,1.2-2.7,2.5-2.7c1.7,0,3,1.4,3,4.1c0,3.4-1.5,4.7-3.3,4.7C939.5,158.1,938.9,157.8,938.4,157.2z
			 M940.9,153.9c0.6,0,1.2-0.3,1.8-1.2c-0.1-1.7-0.8-2.5-1.9-2.5c-0.8,0-1.5,0.7-1.5,1.9C939.3,153.1,939.8,153.9,940.9,153.9z"/>
		<path class="st1" d="M945,154c0-3.4,1.5-4.8,3.3-4.8c0.9,0,1.6,0.4,2.1,0.9l-0.6,0.7c-0.3-0.4-0.9-0.7-1.4-0.7
			c-1.2,0-2.2,0.9-2.3,3.6c0.6-0.7,1.3-1.1,2-1.1c1.5,0,2.4,0.9,2.4,2.6c0,1.6-1.2,2.7-2.5,2.7C946.3,158.1,945,156.8,945,154z
			 M946.1,154.7c0.1,1.7,0.8,2.6,1.9,2.6c0.9,0,1.5-0.8,1.5-1.9c0-1.1-0.5-1.8-1.6-1.8C947.3,153.6,946.6,153.9,946.1,154.7z"/>
		<path class="st1" d="M951.9,157.3c0-0.5,0.4-0.9,0.8-0.9s0.8,0.3,0.8,0.9c0,0.5-0.4,0.8-0.8,0.8S951.9,157.8,951.9,157.3z"/>
		<path class="st1" d="M959.2,150.4h-4.3v-0.9h5.5v0.7c-2,2.6-2.4,4.5-2.6,7.9h-1.1C956.9,154.8,957.5,152.7,959.2,150.4z"/>
		<path class="st1" d="M961.4,156.9l0.6-0.7c0.5,0.5,1.2,1,2.2,1c1,0,1.8-0.6,1.8-1.6c0-1-0.7-1.7-2.7-1.7v-0.8
			c1.8,0,2.4-0.7,2.4-1.6c0-0.8-0.6-1.4-1.5-1.4c-0.7,0-1.3,0.4-1.8,0.9l-0.6-0.7c0.7-0.6,1.4-1.1,2.5-1.1c1.5,0,2.6,0.8,2.6,2.2
			c0,1-0.6,1.7-1.6,2v0c1,0.3,1.9,1,1.9,2.2c0,1.5-1.3,2.4-2.8,2.4C962.8,158.1,961.9,157.6,961.4,156.9z"/>
	</g>
</g>
<g>
	<path d="M16.8,493.9c2.6-2.6,4-4.1,4-5.5c0-1-0.5-1.7-1.6-1.7c-0.7,0-1.3,0.5-1.8,1l-0.6-0.6c0.7-0.8,1.5-1.3,2.6-1.3
		c1.6,0,2.6,1,2.6,2.5c0,1.6-1.5,3.2-3.5,5.3c0.5,0,1-0.1,1.4-0.1h2.5v0.9h-5.5V493.9z"/>
	<path d="M23.5,490.2c0-2.9,1-4.4,2.7-4.4s2.7,1.5,2.7,4.4c0,2.9-1,4.5-2.7,4.5S23.5,493.1,23.5,490.2z M27.9,490.2
		c0-2.5-0.7-3.5-1.7-3.5c-1,0-1.7,1-1.7,3.5s0.7,3.6,1.7,3.6C27.2,493.8,27.9,492.7,27.9,490.2z"/>
	<path d="M30.6,493.6h2v-6.3H31v-0.7c0.8-0.1,1.3-0.3,1.8-0.6h0.8v7.6h1.8v0.9h-4.8V493.6z"/>
	<path d="M36.8,490.2c0-2.9,1-4.4,2.7-4.4s2.7,1.5,2.7,4.4c0,2.9-1,4.5-2.7,4.5S36.8,493.1,36.8,490.2z M41.2,490.2
		c0-2.5-0.7-3.5-1.7-3.5c-1,0-1.7,1-1.7,3.5s0.7,3.6,1.7,3.6C40.5,493.8,41.2,492.7,41.2,490.2z"/>
</g>
<g>
	<path d="M138.2,493.9c2.6-2.6,4-4.1,4-5.5c0-1-0.5-1.7-1.6-1.7c-0.7,0-1.3,0.5-1.8,1l-0.6-0.6c0.7-0.8,1.5-1.3,2.6-1.3
		c1.6,0,2.6,1,2.6,2.5c0,1.6-1.5,3.2-3.5,5.3c0.5,0,1-0.1,1.4-0.1h2.5v0.9h-5.5V493.9z"/>
	<path d="M144.9,490.2c0-2.9,1-4.4,2.7-4.4s2.7,1.5,2.7,4.4c0,2.9-1,4.5-2.7,4.5S144.9,493.1,144.9,490.2z M149.3,490.2
		c0-2.5-0.7-3.5-1.7-3.5c-1,0-1.7,1-1.7,3.5s0.7,3.6,1.7,3.6C148.7,493.8,149.3,492.7,149.3,490.2z"/>
	<path d="M152.1,493.6h2v-6.3h-1.6v-0.7c0.8-0.1,1.3-0.3,1.8-0.6h0.8v7.6h1.8v0.9h-4.8V493.6z"/>
	<path d="M158.7,493.6h2v-6.3h-1.6v-0.7c0.8-0.1,1.3-0.3,1.8-0.6h0.8v7.6h1.8v0.9h-4.8V493.6z"/>
</g>
<g>
	<path d="M318.2,493.9c2.6-2.6,4-4.1,4-5.5c0-1-0.5-1.7-1.6-1.7c-0.7,0-1.3,0.5-1.8,1l-0.6-0.6c0.7-0.8,1.5-1.3,2.6-1.3
		c1.6,0,2.6,1,2.6,2.5c0,1.6-1.5,3.2-3.5,5.3c0.5,0,1-0.1,1.4-0.1h2.5v0.9h-5.5V493.9z"/>
	<path d="M324.9,490.2c0-2.9,1-4.4,2.7-4.4s2.7,1.5,2.7,4.4c0,2.9-1,4.5-2.7,4.5S324.9,493.1,324.9,490.2z M329.3,490.2
		c0-2.5-0.7-3.5-1.7-3.5c-1,0-1.7,1-1.7,3.5s0.7,3.6,1.7,3.6C328.7,493.8,329.3,492.7,329.3,490.2z"/>
	<path d="M332.1,493.6h2v-6.3h-1.6v-0.7c0.8-0.1,1.3-0.3,1.8-0.6h0.8v7.6h1.8v0.9h-4.8V493.6z"/>
	<path d="M338.2,493.9c2.6-2.6,4-4.1,4-5.5c0-1-0.5-1.7-1.6-1.7c-0.7,0-1.3,0.5-1.8,1l-0.6-0.6c0.7-0.8,1.5-1.3,2.6-1.3
		c1.6,0,2.6,1,2.6,2.5c0,1.6-1.5,3.2-3.5,5.3c0.5,0,1-0.1,1.4-0.1h2.5v0.9h-5.5V493.9z"/>
</g>
<g>
	<path d="M498.2,493.9c2.6-2.6,4-4.1,4-5.5c0-1-0.5-1.7-1.6-1.7c-0.7,0-1.3,0.5-1.8,1l-0.6-0.6c0.7-0.8,1.5-1.3,2.6-1.3
		c1.6,0,2.6,1,2.6,2.5c0,1.6-1.5,3.2-3.5,5.3c0.5,0,1-0.1,1.4-0.1h2.5v0.9h-5.5V493.9z"/>
	<path d="M504.9,490.2c0-2.9,1-4.4,2.7-4.4s2.7,1.5,2.7,4.4c0,2.9-1,4.5-2.7,4.5S504.9,493.1,504.9,490.2z M509.3,490.2
		c0-2.5-0.7-3.5-1.7-3.5c-1,0-1.7,1-1.7,3.5s0.7,3.6,1.7,3.6C508.7,493.8,509.3,492.7,509.3,490.2z"/>
	<path d="M512.1,493.6h2v-6.3h-1.6v-0.7c0.8-0.1,1.3-0.3,1.8-0.6h0.8v7.6h1.8v0.9h-4.8V493.6z"/>
	<path d="M518,493.5l0.6-0.7c0.5,0.5,1.2,1,2.2,1c1,0,1.8-0.6,1.8-1.6c0-1-0.7-1.7-2.7-1.7v-0.8c1.8,0,2.4-0.7,2.4-1.6
		c0-0.8-0.6-1.4-1.5-1.4c-0.7,0-1.3,0.4-1.8,0.9l-0.6-0.7c0.7-0.6,1.4-1.1,2.5-1.1c1.5,0,2.6,0.8,2.6,2.2c0,1-0.6,1.7-1.6,2v0
		c1,0.3,1.9,1,1.9,2.2c0,1.5-1.3,2.4-2.8,2.4C519.4,494.7,518.6,494.1,518,493.5z"/>
</g>
<g>
	<path d="M678.2,493.9c2.6-2.6,4-4.1,4-5.5c0-1-0.5-1.7-1.6-1.7c-0.7,0-1.3,0.5-1.8,1l-0.6-0.6c0.7-0.8,1.5-1.3,2.6-1.3
		c1.6,0,2.6,1,2.6,2.5c0,1.6-1.5,3.2-3.5,5.3c0.5,0,1-0.1,1.4-0.1h2.5v0.9h-5.5V493.9z"/>
	<path d="M684.9,490.2c0-2.9,1-4.4,2.7-4.4s2.7,1.5,2.7,4.4c0,2.9-1,4.5-2.7,4.5S684.9,493.1,684.9,490.2z M689.3,490.2
		c0-2.5-0.7-3.5-1.7-3.5c-1,0-1.7,1-1.7,3.5s0.7,3.6,1.7,3.6C688.7,493.8,689.3,492.7,689.3,490.2z"/>
	<path d="M692.1,493.6h2v-6.3h-1.6v-0.7c0.8-0.1,1.3-0.3,1.8-0.6h0.8v7.6h1.8v0.9h-4.8V493.6z"/>
	<path d="M701.7,492.2h-3.8v-0.7l3.7-5.5h1.2v5.3h1.2v0.9h-1.2v2.4h-1V492.2z M701.7,491.3v-2.5c0-0.4,0-1.2,0.1-1.6h0
		c-0.2,0.4-0.5,0.8-0.7,1.2l-2,2.9H701.7z"/>
</g>
<g>
	<path d="M838.4,493.9c2.6-2.6,4-4.1,4-5.5c0-1-0.5-1.7-1.6-1.7c-0.7,0-1.3,0.5-1.8,1l-0.6-0.6c0.7-0.8,1.5-1.3,2.6-1.3
		c1.6,0,2.6,1,2.6,2.5c0,1.6-1.5,3.2-3.5,5.3c0.5,0,1-0.1,1.4-0.1h2.5v0.9h-5.5V493.9z"/>
	<path d="M845.2,490.2c0-2.9,1-4.4,2.7-4.4s2.7,1.5,2.7,4.4c0,2.9-1,4.5-2.7,4.5S845.2,493.1,845.2,490.2z M849.6,490.2
		c0-2.5-0.7-3.5-1.7-3.5c-1,0-1.7,1-1.7,3.5s0.7,3.6,1.7,3.6C848.9,493.8,849.6,492.7,849.6,490.2z"/>
	<path d="M852.3,493.6h2v-6.3h-1.6v-0.7c0.8-0.1,1.3-0.3,1.8-0.6h0.8v7.6h1.8v0.9h-4.8V493.6z"/>
	<path d="M858.2,493.5l0.5-0.7c0.5,0.5,1.1,1,2.2,1c1,0,1.9-0.8,1.9-1.9c0-1.2-0.7-1.9-1.8-1.9c-0.6,0-1,0.2-1.5,0.5l-0.6-0.4
		l0.3-4.1h4.3v0.9h-3.3l-0.2,2.6c0.4-0.2,0.8-0.4,1.3-0.4c1.5,0,2.7,0.8,2.7,2.7c0,1.8-1.4,2.9-2.9,2.9
		C859.7,494.7,858.8,494.1,858.2,493.5z"/>
</g>
<g>
	<path d="M926.5,375.6l0.6-0.7c0.5,0.5,1.2,1,2.2,1c1,0,1.8-0.6,1.8-1.6c0-1-0.7-1.7-2.7-1.7v-0.8c1.8,0,2.4-0.7,2.4-1.6
		c0-0.8-0.6-1.4-1.5-1.4c-0.7,0-1.3,0.4-1.8,0.9l-0.6-0.7c0.7-0.6,1.4-1.1,2.5-1.1c1.5,0,2.6,0.8,2.6,2.2c0,1-0.6,1.7-1.6,2v0
		c1,0.3,1.9,1,1.9,2.2c0,1.5-1.3,2.4-2.8,2.4C927.9,376.8,927,376.2,926.5,375.6z"/>
	<path d="M933.4,372.3c0-2.9,1-4.4,2.7-4.4s2.7,1.5,2.7,4.4c0,2.9-1,4.5-2.7,4.5S933.4,375.2,933.4,372.3z M937.8,372.3
		c0-2.5-0.7-3.5-1.7-3.5c-1,0-1.7,1-1.7,3.5s0.7,3.6,1.7,3.6C937.1,375.9,937.8,374.8,937.8,372.3z"/>
	<path d="M940,372.3c0-2.9,1-4.4,2.7-4.4s2.7,1.5,2.7,4.4c0,2.9-1,4.5-2.7,4.5S940,375.2,940,372.3z M944.4,372.3
		c0-2.5-0.7-3.5-1.7-3.5c-1,0-1.7,1-1.7,3.5s0.7,3.6,1.7,3.6C943.8,375.9,944.4,374.8,944.4,372.3z"/>
</g>
<g>
	<path d="M926.5,263.4l0.6-0.7c0.5,0.5,1.2,1,2.2,1c1,0,1.8-0.6,1.8-1.6c0-1-0.7-1.7-2.7-1.7v-0.8c1.8,0,2.4-0.7,2.4-1.6
		c0-0.8-0.6-1.4-1.5-1.4c-0.7,0-1.3,0.4-1.8,0.9l-0.6-0.7c0.7-0.6,1.4-1.1,2.5-1.1c1.5,0,2.6,0.8,2.6,2.2c0,1-0.6,1.7-1.6,2v0
		c1,0.3,1.9,1,1.9,2.2c0,1.5-1.3,2.4-2.8,2.4C927.9,264.6,927,264,926.5,263.4z"/>
	<path d="M933.1,263.4l0.5-0.7c0.5,0.5,1.1,1,2.2,1c1,0,1.9-0.8,1.9-1.9c0-1.2-0.7-1.9-1.8-1.9c-0.6,0-1,0.2-1.5,0.5l-0.6-0.4
		l0.3-4.1h4.3v0.9H935l-0.2,2.6c0.4-0.2,0.8-0.4,1.3-0.4c1.5,0,2.7,0.8,2.7,2.7c0,1.8-1.4,2.9-2.9,2.9
		C934.5,264.6,933.7,264,933.1,263.4z"/>
	<path d="M940,260.1c0-2.9,1-4.4,2.7-4.4s2.7,1.5,2.7,4.4c0,2.9-1,4.5-2.7,4.5S940,263,940,260.1z M944.4,260.1
		c0-2.5-0.7-3.5-1.7-3.5c-1,0-1.7,1-1.7,3.5s0.7,3.6,1.7,3.6C943.8,263.7,944.4,262.6,944.4,260.1z"/>
</g>
<g>
	<path d="M930.2,35.6h-3.8v-0.7l3.7-5.5h1.2v5.3h1.2v0.9h-1.2v2.4h-1V35.6z M930.2,34.7v-2.5c0-0.4,0-1.2,0.1-1.6h0
		c-0.2,0.4-0.5,0.8-0.7,1.2l-2,2.9H930.2z"/>
	<path d="M933.1,36.9l0.5-0.7c0.5,0.5,1.1,1,2.2,1c1,0,1.9-0.8,1.9-1.9c0-1.2-0.7-1.9-1.8-1.9c-0.6,0-1,0.2-1.5,0.5l-0.6-0.4
		l0.3-4.1h4.3v0.9H935l-0.2,2.6c0.4-0.2,0.8-0.4,1.3-0.4c1.5,0,2.7,0.8,2.7,2.7c0,1.8-1.4,2.9-2.9,2.9
		C934.5,38.1,933.7,37.5,933.1,36.9z"/>
	<path d="M940,33.6c0-2.9,1-4.4,2.7-4.4s2.7,1.5,2.7,4.4c0,2.9-1,4.5-2.7,4.5S940,36.5,940,33.6z M944.4,33.6c0-2.5-0.7-3.5-1.7-3.5
		c-1,0-1.7,1-1.7,3.5s0.7,3.6,1.7,3.6C943.8,37.2,944.4,36.1,944.4,33.6z"/>
</g>
<line class="st2" x1="0" y1="474.6" x2="920.4" y2="474.6"/>
<line class="st2" x1="920.4" y1="0" x2="920.4" y2="474.6"/>
<polyline class="st3" points="0,423.1 4.2,389.2 6,394.1 7.3,375.5 9.3,376.6 10.8,367.7 12.5,371.9 14.6,359.6 16,361.5 
	16.7,357.6 17.9,362 18.6,344.5 21.6,342.1 22.9,333.5 24.8,343.8 27.5,331.2 29,341 32.6,327.6 33.9,310.8 37.6,328.3 38.7,341.8 
	41,329.8 42.5,343.7 43.7,336.6 45.7,353.7 47.5,323.4 51,318.8 51.9,310.8 54.4,317.9 56.2,308.9 59.8,307.7 60.9,305.1 
	62.8,297.6 65.9,307.1 68.6,287.4 70.1,284 70.9,296.7 72.7,288 73.7,283.5 75.9,294 76.8,278.7 78.9,277.1 79.9,271.8 81.4,279.5 
	84.4,271.8 85.9,264.4 88.4,285.5 91.7,269.2 93.7,273.8 96.8,296.1 97.8,318.3 101.1,289.4 103.4,281.1 106.4,271.6 109.4,262.6 
	112.1,273.7 114.5,284.2 116.7,256.8 121.1,242 123.6,264.4 124.9,258 128.1,279.8 130,270.9 131.7,289.9 134,281.4 135.7,262.4 
	139.4,293 140.7,300.2 141.6,290.1 143.2,310 145.4,295.7 147.9,308.4 151.4,269.9 153.9,264.4 155.4,291.3 156.8,283.5 159.1,297 
	162,268.5 165.3,293.1 169.4,393.4 173.7,354.1 176.1,395 177.9,374.9 178.6,381.4 180.9,348.3 183.3,386.8 184.9,369.6 
	186.6,398.9 189.6,371.1 191.2,424.4 194.5,397.1 197,436.4 203,370.8 205.9,381.9 209.7,329 211.6,372.9 215.3,350.5 216.6,372.3 
	217.6,359.5 222.4,419.9 223.1,406.2 224.1,419.3 227.6,359.9 229.9,374.9 230.9,370.3 232.9,397.2 235.4,400.4 238.2,371.9 
	240.2,381.8 243.2,360.2 244.1,368 247.1,357 248.7,354.7 251.5,338.3 253.5,331.5 255.2,337.1 256.7,329.6 258.8,314.8 
	260.7,309.3 262.4,317.5 266.1,303 267.4,306.3 271.4,297.8 273,321.4 276.1,305 279.4,287.9 281,301.2 283.3,290.9 284.6,300.9 
	286.5,290.1 288.1,307.7 290.2,310.4 290.8,326.1 294.2,310.5 297.4,323.8 301.2,306 305.8,339.2 309.8,377.1 311.5,365.2 
	313.5,371.9 315.6,362.9 317.9,393.1 319.7,369.5 321.6,372.6 324.2,357.9 326.4,347.1 328.1,372.9 329.6,361.7 332.6,335.1 
	336.8,362.8 340.6,337.7 342.9,364.7 345.1,334.7 347.1,344.4 349.4,321.7 354,320.3 356.7,312.7 359.9,320.3 361.2,326.1 
	362.1,321 363.6,326.1 365.3,304.5 367.4,300.9 368.6,281.3 372.7,289.5 373.8,304.5 377.5,297 379.2,288.9 382.3,305.9 
	384.7,286.5 387.8,307.7 389.5,305.5 390.6,310.9 393.6,300.2 395,306.7 396.1,319.1 397.4,322.9 400,334 401.9,316.4 404.2,304.9 
	406.9,299.4 409.5,298.8 412.7,287.7 415.8,276.7 420.4,287 423.3,264.4 425.1,268.2 428.4,259.3 435.3,246.3 437.3,242 
	439.5,249.3 446.9,242.9 449.5,257.8 452.2,248.4 457.1,230.9 461.9,241.1 465.7,236.7 468.8,245.2 472.5,222.3 474.6,249.7 
	481,215.8 484.4,201.9 491.8,192.6 493.4,207 495.7,211.4 498.1,221.1 498.9,232.4 501.4,222.2 502.4,232.9 505.2,219.5 
	507.5,268.4 511.6,240.7 514.5,238.9 516.7,213.5 519.7,209.5 521.5,200.2 525.9,207.2 527.1,194.9 530,203.9 533.2,196.6 
	535.4,211.2 536.4,219 538.7,209 540.8,227.2 544.9,211.6 547.8,190.8 551.1,168.8 552.5,178.4 556,180.8 556,188.4 558.2,181.8 
	560.1,196.3 563.2,172.4 566.4,147.5 568.7,150 570.7,145.7 573.6,155.9 575.1,151.4 575.9,160.3 578.7,155.9 579.7,142.7 
	581.9,148.3 586.2,141.6 588.8,158 591,147.4 593.4,164.7 597.5,139.4 602.3,126.6 604.7,138.1 612.6,128.7 614.9,161.3 
	617.4,163.6 618.9,179.7 622.3,144.6 624.9,132.1 626.6,134.3 629.1,127.1 630.6,133.5 631.4,123.2 633.8,117.1 636.7,126.2 
	637.8,143.4 639.4,128.4 641.9,138.7 644.1,132.1 646,116.1 647.4,113.3 649.2,118.8 651.9,136.4 655.2,120.1 656.6,116.1 
	658.5,122.9 662.2,112 664.7,114.2 667.1,106.1 670.6,115 672.5,102.6 677.6,95.4 680.1,84.2 683.8,89.4 685.6,77.5 688.4,85 
	692.7,68.7 695.7,84.4 698.9,75 699.8,83.4 703,72.2 705.3,78.6 707.2,96.8 709.9,109.9 713,98.7 714.6,90 716.1,80.9 719.7,72.6 
	721.1,75.5 723.1,71.9 725.4,76.2 728.6,88 731.6,80.1 733.9,100.1 735.6,106.4 738.1,124.1 740.1,116.1 741.6,126.6 743.5,164.1 
	748.6,125 752.2,102.1 753.5,106.4 757.1,99.6 759.5,99.9 760.4,94.7 764.3,82.3 767.9,90.5 771,101.5 773.9,138.8 776.6,100.1 
	780.3,95.8 783.2,110.4 784.3,136.1 786.8,113.7 788.8,129.3 791.8,119.1 793.3,101.8 796.5,122.7 799.4,94.7 801.2,102.6 
	804.6,83.1 809.7,70.4 814.4,79.8 815.7,107.9 818.9,93.2 821.6,70.6 824.3,83.2 825.7,90.2 829.8,73.4 833.8,58.9 834.9,69.6 
	839.9,49.3 844,70.4 850.2,48.6 855.9,66.6 860.5,84.2 861.6,69.9 863.3,81.9 866.9,60.1 869.1,69.2 869.9,93.8 871.6,87.1 
	874.5,114 878.6,72.1 880.9,75.1 883.9,102.2 886.9,84.2 889.3,95.8 890.8,85.5 892.3,101.1 894.2,98 895.7,103.4 897.9,186.8 
	900.5,146.4 901.3,151.7 "/>
<polygon class="st4" points="0,423.1 4.2,389.2 6,394.1 7.3,375.5 9.3,376.6 10.8,367.7 12.5,371.9 14.6,359.6 16,361.5 16.7,357.6 
	17.9,362 18.6,344.5 21.6,342.1 22.9,333.5 24.8,343.8 27.5,331.2 29,341 32.6,327.6 33.9,310.8 37.6,328.3 38.7,341.8 41,329.8 
	42.5,343.7 43.7,336.6 45.7,353.7 47.5,323.4 51,318.8 51.9,310.8 54.4,317.9 56.2,308.9 59.8,307.7 60.9,305.1 62.8,297.6 
	65.9,307.1 68.6,287.4 70.1,284 70.9,296.7 72.7,288 73.7,283.5 75.9,294 76.8,278.7 78.9,277.1 79.9,271.8 81.4,279.5 84.4,271.8 
	85.9,264.4 88.4,285.5 91.7,269.2 93.7,273.8 96.8,296.1 97.8,318.3 101.1,289.4 103.4,281.1 106.4,271.6 109.4,262.6 112.1,273.7 
	114.5,284.2 116.7,256.8 121.1,242 123.6,264.4 124.9,258 128.1,279.8 130,270.9 131.7,289.9 134,281.4 135.7,262.4 139.4,293 
	140.7,300.2 141.6,290.1 143.2,310 145.4,295.7 147.9,308.4 151.4,269.9 153.9,264.4 155.4,291.3 156.8,283.5 159.1,297 162,268.5 
	165.3,293.1 169.4,393.4 173.7,354.1 176.1,395 177.9,374.9 178.6,381.4 180.9,348.3 183.3,386.8 184.9,369.6 186.6,398.9 
	189.6,371.1 191.2,424.4 194.5,397.1 197,436.4 203,370.8 205.9,381.9 209.7,329 211.6,372.9 215.3,350.5 216.6,372.3 217.6,359.5 
	222.4,419.9 223.1,406.2 224.1,419.3 227.6,359.9 229.9,374.9 230.9,370.3 232.9,397.2 235.4,400.4 238.2,371.9 240.2,381.8 
	243.2,360.2 244.1,368 247.1,357 248.7,354.7 251.5,338.3 253.5,331.5 255.2,337.1 256.7,329.6 258.8,314.8 260.7,309.3 
	262.4,317.5 266.1,303 267.4,306.3 271.4,297.8 273,321.4 276.1,305 279.4,287.9 281,301.2 283.3,290.9 284.6,300.9 286.5,290.1 
	288.1,307.7 290.2,310.4 290.8,326.1 294.2,310.5 297.4,323.8 301.2,306 305.8,339.2 309.8,377.1 311.5,365.2 313.5,371.9 
	315.6,362.9 317.9,393.1 319.7,369.5 321.6,372.6 324.2,357.9 326.4,347.1 328.1,372.9 329.6,361.7 332.6,335.1 336.8,362.8 
	340.6,337.7 342.9,364.7 345.1,334.7 347.1,344.4 349.4,321.7 354,320.3 356.7,312.7 359.9,320.3 361.2,326.1 362.1,321 
	363.6,326.1 365.3,304.5 367.4,300.9 368.6,281.3 372.7,289.5 373.8,304.5 377.5,297 379.2,288.9 382.3,305.9 384.7,286.5 
	387.8,307.7 389.5,305.5 390.6,310.9 393.6,300.2 395,306.7 396.1,319.1 397.4,322.9 400,334 401.9,316.4 404.2,304.9 406.9,299.4 
	409.5,298.8 412.7,287.7 415.8,276.7 420.4,287 423.3,264.4 425.1,268.2 428.4,259.3 435.3,246.3 437.3,242 439.5,249.3 
	446.9,242.9 449.5,257.8 452.2,248.4 457.1,230.9 461.9,241.1 465.7,236.7 468.8,245.2 472.5,222.3 474.6,249.7 481,215.8 
	484.4,201.9 491.8,192.6 493.4,207 495.7,211.4 498.1,221.1 498.9,232.4 501.4,222.2 502.4,232.9 505.2,219.5 507.5,268.4 
	511.6,240.7 514.5,238.9 516.7,213.5 519.7,209.5 521.5,200.2 525.9,207.2 527.1,194.9 530,203.9 533.2,196.6 535.4,211.2 
	536.4,219 538.7,209 540.8,227.2 544.9,211.6 547.8,190.8 551.1,168.8 552.5,178.4 556,180.8 556,188.4 558.2,181.8 560.1,196.3 
	563.2,172.4 566.4,147.5 568.7,150 570.7,145.7 573.6,155.9 575.1,151.4 575.9,160.3 578.7,155.9 579.7,142.7 581.9,148.3 
	586.2,141.6 588.8,158 591,147.4 593.4,164.7 597.5,139.4 602.3,126.6 604.7,138.1 612.6,128.7 614.9,161.3 617.4,163.6 
	618.9,179.7 622.3,144.6 624.9,132.1 626.6,134.3 629.1,127.1 630.6,133.5 631.4,123.2 633.8,117.1 636.7,126.2 637.8,143.4 
	639.4,128.4 641.9,138.7 644.1,132.1 646,116.1 647.4,113.3 649.2,118.8 651.9,136.4 655.2,120.1 656.6,116.1 658.5,122.9 
	662.2,112 664.7,114.2 667.1,106.1 670.6,115 672.5,102.6 677.6,95.4 680.1,84.2 683.8,89.4 685.6,77.5 688.4,85 692.7,68.7 
	695.7,84.4 698.9,75 699.8,83.4 703,72.2 705.3,78.6 707.2,96.8 709.9,109.9 713,98.7 714.6,90 716.1,80.9 719.7,72.6 721.1,75.5 
	723.1,71.9 725.4,76.2 728.6,88 731.6,80.1 733.9,100.1 735.6,106.4 738.1,124.1 740.1,116.1 741.6,126.6 743.5,164.1 748.6,125 
	752.2,102.1 753.5,106.4 757.1,99.6 759.5,99.9 760.4,94.7 764.3,82.3 767.9,90.5 771,101.5 773.9,138.8 776.6,100.1 780.3,95.8 
	783.2,110.4 784.3,136.1 786.8,113.7 788.8,129.3 791.8,119.1 793.3,101.8 796.5,122.7 799.4,94.7 801.2,102.6 804.6,83.1 
	809.7,70.4 814.4,79.8 815.7,107.9 818.9,93.2 821.6,70.6 824.3,83.2 825.7,90.2 829.8,73.4 833.8,58.9 834.9,69.6 839.9,49.3 
	844,70.4 850.2,48.6 855.9,66.6 860.5,84.2 861.6,69.9 863.3,81.9 866.9,60.1 869.1,69.2 869.9,93.8 871.6,87.1 874.5,114 
	878.6,72.1 880.9,75.1 883.9,102.2 886.9,84.2 889.3,95.8 890.8,85.5 892.3,101.1 894.2,98 895.7,103.4 897.9,186.8 900.5,146.4 
	901.3,151.7 901.3,474.6 0,474.6 "/>
<rect x="63.5" y="74.6" class="st0" width="376.5" height="23.1"/>
<g>
	<path class="st1" d="M81.4,78.9c1.7,2.5,4.8,4.9,7.6,6.1c-0.3,0.3-0.7,0.8-0.9,1.2c-2.7-1.3-5.6-3.6-7.4-6
		c-1.9,2.3-4.9,4.8-7.4,6.1c-0.2-0.3-0.5-0.8-0.8-1.1c2.2-1,4.9-3.1,6.7-5.1h-3.2v-1.3H81.4z M81.3,93.1h7v1.2H73.2v-1.2H80v-3h-5
		v-1.2h5v-2.8h-4.3V85h10v1.2h-4.4v2.8h5.1v1.2h-5.1V93.1z"/>
	<path class="st1" d="M96.4,91.1c-2,0.6-4.1,1.3-5.7,1.8l-0.3-1.3c0.6-0.2,1.5-0.4,2.4-0.7v-5h-2v-1.2h2v-3.9h-2.2v-1.3h5.5v1.3H94
		v3.9h1.8V86H94v4.6l2.2-0.7L96.4,91.1z M106.7,84.4c-0.9,1.3-2.2,2.9-3.1,3.9c0.8,1.7,2,3.1,3.7,4.3c-0.3,0.2-0.7,0.6-0.8,1
		c-2-1.5-3.3-3.2-4.2-5.4v5c0,0.8-0.2,1.2-0.7,1.4c-0.5,0.3-1.3,0.3-2.7,0.3c-0.1-0.4-0.3-0.9-0.5-1.3c1,0,2,0,2.2,0
		c0.3,0,0.4-0.1,0.4-0.4v-4.2c-1.5,1.5-3,3-4.2,4.1l-0.8-1.2c1.2-1,3.2-2.8,5.1-4.4v-4.7h-4.4v-1.2h4.4v-3.1h1.3v3.1h4.7v1.2h-4.7
		v0.6c0.2,1.4,0.5,2.7,0.9,3.8c0.9-1,1.8-2.4,2.4-3.4L106.7,84.4z M97.8,83.9c0.8,1,1.6,2.4,2,3.3l-1.1,0.5
		c-0.3-0.9-1.1-2.3-1.9-3.4L97.8,83.9z M105.2,81.3c-0.4-0.6-1.3-1.4-2.1-2l0.8-0.7c0.8,0.5,1.7,1.3,2.2,1.9L105.2,81.3z"/>
	<path class="st1" d="M114.7,93.1c0,0.7-0.1,1.1-0.6,1.3c-0.4,0.2-1.1,0.2-2.3,0.2c-0.1-0.3-0.2-0.9-0.4-1.2c0.8,0,1.5,0,1.7,0
		c0.2,0,0.3-0.1,0.3-0.3v-4.9c-0.8,0.5-1.5,0.9-2.2,1.3l-0.5-1.1c-0.1,2.2-0.5,4.6-1.3,6.4c-0.2-0.2-0.8-0.5-1.1-0.6
		c1.2-2.5,1.3-6.1,1.3-8.7V79h5V93.1z M110.9,85.4c0,0.8,0,1.8-0.1,2.8c0.7-0.3,1.7-0.7,2.6-1.2V85l-0.7,0.6
		c-0.4-0.6-1.2-1.5-1.9-2.1V85.4z M110.9,80.3V83l0.6-0.5c0.7,0.6,1.5,1.4,2,2v-4.3H110.9z M124.3,86.6c-0.7,2.2-1.8,3.9-3.3,5.3
		c1.1,0.8,2.4,1.4,4,1.8c-0.3,0.3-0.7,0.8-0.9,1.2c-1.6-0.5-3-1.2-4.1-2.1c-1.3,0.9-2.7,1.6-4.3,2.1c-0.1-0.4-0.5-0.9-0.7-1.2
		c1.4-0.4,2.8-1,4-1.8c-1.2-1.2-2.1-2.6-2.7-4.2l0.3-0.1h-0.9v-1.3h7.6l0.2-0.1L124.3,86.6z M118.6,81c0,1.6-0.5,3.5-2.7,4.8
		c-0.2-0.3-0.6-0.7-0.9-0.9c2-1.1,2.3-2.6,2.3-3.9v-2h5.5v4.2c0,0.5,0,0.6,0.3,0.6h1c0.2,0,0.6,0,0.8-0.1c0,0.3,0.1,0.8,0.1,1.1
		c-0.2,0.1-0.6,0.1-0.8,0.1H123c-1.2,0-1.4-0.5-1.4-1.8v-2.9h-3V81z M117.5,87.5c0.6,1.3,1.4,2.5,2.4,3.5c1.1-1,2-2.1,2.6-3.5H117.5
		z"/>
	<path class="st1" d="M135.3,82.3v2.4h5.8V91c0,0.8-0.2,1.2-0.8,1.4c-0.6,0.2-1.6,0.2-3.2,0.2c-0.1-0.4-0.3-1-0.5-1.3
		c1.2,0,2.3,0,2.6,0c0.3,0,0.4-0.1,0.4-0.4v-5h-4.5v8.7H134v-8.7h-4.2v6.7h-1.3v-8h5.5v-2.4h-7.3V81h7.7c-0.3-0.7-0.8-1.6-1.2-2.4
		l1.3-0.4c0.5,0.8,1.2,2,1.4,2.7l-0.2,0.1h7.1v1.3H135.3z"/>
	<path class="st1" d="M160.5,81.2v1.3h-9.8c-0.6,1.3-1.3,2.5-2.2,3.7v8.6h-1.3v-7c-0.6,0.7-1.3,1.3-2.1,1.8
		c-0.1-0.4-0.5-0.9-0.7-1.2c2.1-1.5,3.6-3.6,4.8-5.9h-4.3v-1.3h4.9c0.4-0.9,0.7-1.9,1-2.8l1.4,0.3c-0.2,0.8-0.5,1.6-0.9,2.4H160.5z
		 M155.8,93.1h4.8v1.3h-10.8v-1.3h4.7v-5.1h-4v-1.3h4v-3.4h1.3v3.4h4.1v1.3h-4.1V93.1z"/>
	<path class="st1" d="M165.6,86.3c-0.7-0.6-2.1-1.4-3.2-1.9l0.8-1c1,0.5,2.5,1.3,3.2,1.8L165.6,86.3z M166.9,88.8
		c-0.8,1.9-1.9,4.1-2.8,5.8l-1.2-0.8c0.8-1.4,2.1-3.7,2.9-5.8L166.9,88.8z M166.5,81.6c-0.7-0.6-2-1.5-3.1-2.1l0.8-1
		c1.1,0.5,2.4,1.4,3.1,1.9L166.5,81.6z M177.6,85.7c-0.6,2.3-1.7,4.2-3,5.7c1.3,1,2.8,1.8,4.5,2.3c-0.3,0.3-0.7,0.8-0.9,1.2
		c-1.8-0.6-3.3-1.4-4.6-2.5c-1.3,1.1-2.8,2-4.4,2.6c-0.2-0.3-0.6-0.9-0.9-1.1c1.6-0.5,3.1-1.3,4.3-2.3c-1.2-1.4-2.2-3-2.9-4.8h-0.5
		c-0.1,2.6-0.6,5.9-2.3,8.2c-0.2-0.2-0.8-0.6-1.1-0.7c2-2.5,2.2-6,2.2-8.6V81h4.3v-2.6h1.3V81h4l0.2-0.1l1,0.3
		c-0.5,1.3-1,2.7-1.5,3.6l-1.1-0.4c0.3-0.6,0.6-1.4,0.9-2.2h-3.4v3.2h2.8l0.3-0.1L177.6,85.7z M169.4,82.2v3.2h3v-3.2H169.4z
		 M171.1,86.6c0.6,1.5,1.4,2.8,2.5,4c1-1.1,1.8-2.4,2.4-4H171.1z"/>
	<path class="st1" d="M196.5,82.5c0,0,0,0.5,0,0.7c-0.2,7.5-0.4,10-1,10.8c-0.3,0.5-0.7,0.6-1.2,0.7c-0.5,0.1-1.4,0.1-2.2,0
		c0-0.4-0.2-0.9-0.4-1.3c0.9,0.1,1.7,0.1,2,0.1c0.3,0,0.5-0.1,0.6-0.3c0.4-0.5,0.6-2.9,0.8-9.4h-2.6c-0.2,4.8-1,8.7-4.2,11.1
		c-0.2-0.3-0.7-0.7-1-1c0.3-0.2,0.5-0.4,0.8-0.6c-2.7,0.3-5.5,0.6-7.5,0.8l-0.2-1.2c1.1-0.1,2.4-0.2,3.9-0.4v-1.5H181v-1h3.4V89
		h-3.4v-5.3h3.4v-1.1h-3.9v-1h3.9v-1.2c-1.2,0.1-2.3,0.2-3.4,0.2c-0.1-0.3-0.2-0.7-0.3-1c2.7-0.1,5.9-0.5,7.8-0.9l0.7,1
		c-1,0.2-2.2,0.4-3.5,0.5v1.3h3.8v1h-3.8v1.1h3.5V89h-3.5v1.1h3.5v1h-3.5v1.4c1.2-0.1,2.4-0.2,3.6-0.4v0.1c1.5-2.1,2-5,2.2-8.4h-2.1
		v-1.3h2.1c0-1.3,0-2.6,0-3.9h1.3c0,1.4,0,2.7,0,3.9H196.5z M182.2,85.8h2.3v-1.3h-2.3V85.8z M184.4,88v-1.3h-2.3V88H184.4z
		 M185.6,84.5v1.3h2.4v-1.3H185.6z M188,86.7h-2.4V88h2.4V86.7z"/>
	<path class="st1" d="M213.9,81.6V90h-1.4v-1h-5.2v5.8H206V89h-5.1v1.1h-1.3v-8.5h6.5v-3.2h1.4v3.2H213.9z M206,87.7v-4.8h-5.1v4.8
		H206z M212.5,87.7v-4.8h-5.2v4.8H212.5z"/>
	<path class="st1" d="M218.3,89.1c1.4-0.6,2.2-1.4,2.3-2.6c-0.1,0-0.2,0-0.3,0c-0.7,0-1.4-0.4-1.4-1.3c0-0.8,0.6-1.3,1.4-1.3
		c1,0,1.5,0.8,1.5,2.1c0,1.9-1.2,3.4-3.1,4.1L218.3,89.1z"/>
	<path class="st1" d="M230.1,78.8c-0.4,1.2-0.9,2.4-1.4,3.6v12.4h-1.3v-10c-0.5,0.8-1,1.5-1.5,2.1c-0.1-0.3-0.5-1-0.7-1.4
		c1.5-1.7,2.8-4.4,3.7-7.1L230.1,78.8z M241.2,84.8c0,0,0,0.5,0,0.6c-0.3,5.8-0.6,7.9-1.2,8.6c-0.4,0.4-0.7,0.6-1.4,0.6
		c-0.6,0.1-1.6,0-2.7,0c0-0.4-0.2-0.9-0.4-1.3c1.1,0.1,2.2,0.1,2.6,0.1c0.3,0,0.5,0,0.7-0.2c0.5-0.5,0.8-2.4,1-7.2h-3.4
		c0.4-1.3,0.8-3.3,1.1-5.1H234c-0.1,4.9-0.5,10.7-3.8,14c-0.3-0.3-0.7-0.7-1-0.9c3.1-2.9,3.4-8.5,3.5-13.1h-2.1v-1.2h8.5
		c-0.3,1.6-0.7,3.6-1,5.1H241.2z"/>
	<path class="st1" d="M248.2,87.2c-0.3,1.5-0.6,2.9-1.2,4c1.2,1.9,3.5,2.2,6.8,2.2c1.9,0,4.5-0.1,6.3-0.2c-0.2,0.3-0.4,0.9-0.4,1.3
		c-1.7,0.1-3.9,0.1-5.9,0.1c-3.6,0-5.9-0.4-7.3-2.4c-0.7,1.2-1.5,2-2.4,2.7c-0.2-0.3-0.6-0.7-0.9-0.9c1.7-1.1,3-3.1,3.5-5.9h-1.9
		c-0.5,0-0.9,0.1-1,0.3c-0.1-0.3-0.4-0.9-0.5-1.2c0.3-0.1,0.6-0.2,0.8-0.5c0.4-0.4,1.4-1.9,2.2-2.9h-2.8v-1.1h3.6l0.2-0.1l0.9,0.4
		c-0.7,1-2,2.9-3,4.1h2l0.2,0L248.2,87.2z M246.5,81.9c-0.5-0.7-1.5-2-2.3-2.9l1-0.6c0.8,0.9,1.8,2,2.3,2.7L246.5,81.9z M250.8,81.8
		c-0.4,0.7-0.9,1.3-1.3,1.9c-0.2-0.2-0.8-0.5-1.1-0.6c1.1-1.1,2-2.8,2.5-4.4l1.2,0.3c-0.2,0.6-0.5,1.2-0.7,1.7h2v-2.2h1.3v2.2h4.1
		v1.2h-4.1v2.3h4.8v1.2h-11.1v-1.2h5v-2.3H250.8z M249.9,91.8v-5.1h8.5v5.1H249.9z M251.2,90.7h5.9v-2.9h-5.9V90.7z"/>
	<path class="st1" d="M264.4,88.7c-0.4,1.6-1.1,3.3-1.8,4.4c-0.2-0.2-0.7-0.5-1-0.6c0.8-1,1.3-2.5,1.7-3.9L264.4,88.7z M269.9,81.8
		h-8.2v-1.2h3.8c-0.2-0.6-0.5-1.4-0.8-2l1.2-0.3c0.4,0.7,0.8,1.6,1,2.2h3V81.8z M266.6,87.5v5.8c0,0.6-0.1,0.9-0.5,1.1
		c-0.4,0.2-1,0.2-1.9,0.2c0-0.3-0.2-0.8-0.4-1.1c0.6,0,1.2,0,1.4,0c0.2,0,0.3-0.1,0.3-0.2v-5.8h-2.7v-4.3h6.5v4.3H266.6z
		 M263.9,86.5h4.1v-2.2h-4.1V86.5z M268.6,91.9c-0.2-0.9-0.7-2.2-1.3-3.2l1-0.4c0.6,1,1.2,2.3,1.3,3.1L268.6,91.9z M273.6,84.2
		c-0.4,4.1-1.3,8.1-4.1,10.6c-0.2-0.3-0.6-0.6-1-0.8c2.6-2.3,3.5-6,3.8-9.8h-2.3V83h2.4c0.1-1.6,0.1-3.2,0.1-4.6h1.3
		c0,1.5,0,3-0.1,4.6h4.1v1.2H273.6z M276.2,93.4c0.2,0,0.4,0,0.5-0.1c0.1-0.1,0.2-0.2,0.3-0.5c0.1-0.3,0.1-1,0.1-1.9
		c0.3,0.2,0.7,0.5,1,0.5c0,0.8-0.1,1.8-0.2,2.1c-0.1,0.4-0.3,0.6-0.6,0.7c-0.3,0.1-0.7,0.2-1,0.2h-1.2c-0.4,0-0.8-0.1-1.1-0.3
		c-0.3-0.2-0.4-0.5-0.4-1.6v-6.8h1.2v6.9c0,0.4,0,0.6,0.1,0.7c0.1,0.1,0.3,0.1,0.4,0.1H276.2z M276.3,82.4c-0.3-0.7-1.1-1.9-1.8-2.7
		l0.9-0.5c0.7,0.8,1.5,1.9,1.9,2.6L276.3,82.4z"/>
	<path class="st1" d="M294.7,80.5c-1.6,1.7-4,3.6-6.3,4.8v7.8c0,0.9-0.2,1.3-0.9,1.5c-0.7,0.2-1.9,0.2-3.7,0.2
		c-0.1-0.4-0.3-1-0.5-1.3c1.5,0.1,2.9,0,3.3,0c0.4,0,0.5-0.1,0.5-0.4v-8.4c1.7-0.8,3.7-2.3,5-3.5h-11.6v-1.3h12.9l0.3-0.1
		L294.7,80.5z"/>
	<path class="st1" d="M300.5,81.6c-0.7,0.8-1.4,1.6-2.2,2.2c-0.1-0.3-0.6-0.8-0.8-1c1.5-1.1,3-2.8,3.8-4.6l1.2,0.4
		c-0.3,0.6-0.7,1.2-1.1,1.8h11.6v1.2H300.5z M313.7,88.9v1.2h-15.9v-1.2h2.8v-3.1h-2.2v-1.2h2.2v-2h1.2v2h1.9v-2h1.2v2h2.1v-2h1.2v2
		h2v-2h1.2v2h2v1.2h-2v3.1H313.7z M298.1,94.3c0.6-0.9,1.4-2.3,1.8-3.4l1.3,0.3c-0.5,1.2-1.2,2.7-1.8,3.6L298.1,94.3z M301.8,88.9
		h1.9v-3.1h-1.9V88.9z M304.1,91.3c0.2,1,0.4,2.4,0.5,3.2l-1.3,0.2c0-0.8-0.2-2.2-0.4-3.3L304.1,91.3z M304.8,85.9v3.1h2.1v-3.1
		H304.8z M307.8,91.1c0.5,1,1,2.4,1.2,3.2l-1.3,0.3c-0.2-0.8-0.6-2.2-1.1-3.3L307.8,91.1z M308,85.9v3.1h2v-3.1H308z M311.5,90.8
		c0.7,1.1,1.5,2.6,1.9,3.4l-1.3,0.6c-0.3-0.9-1.2-2.4-1.8-3.5L311.5,90.8z"/>
	<path class="st1" d="M330.6,83.1c-0.3,2.8-0.9,5-1.8,6.9c0.8,1.6,1.9,2.9,3.3,3.7c-0.3,0.2-0.7,0.7-0.9,1c-1.3-0.8-2.3-2-3.2-3.5
		c-1,1.5-2.3,2.7-4.1,3.6c-0.1-0.2-0.4-0.6-0.6-0.9l-0.4,0.4c-0.6-0.3-1.4-0.8-2.3-1.1c-1,0.6-2.5,1.1-4.6,1.6
		c-0.1-0.3-0.4-0.7-0.6-0.9c1.7-0.3,3-0.8,3.9-1.2c-0.8-0.3-1.7-0.6-2.6-0.8c0.3-0.4,0.7-1,1.1-1.6h-2.3v-1h2.9
		c0.2-0.4,0.4-0.8,0.6-1.2h-2.7v-2.9h3.4v-0.8h-3v-2h-1.2v-1h1.2v-1.9h3v-1.2h1.1v1.2h3.2v1.9h1v1h-1v2h-3.2v0.8h3.5v1
		c1.2-2,2-4.9,2.5-7.8l1.2,0.2c-0.2,1.1-0.5,2.2-0.8,3.3h4.7v1.2H330.6z M317.5,87.3h2.2v-1.2h-2.2V87.3z M317.8,80.5v1h1.9v-1
		H317.8z M319.8,83.5v-1.2h-1.9v1.2H319.8z M319.1,90.3c-0.2,0.4-0.5,0.7-0.7,1.1c0.6,0.2,1.3,0.4,2,0.7c0.8-0.6,1.2-1.2,1.3-1.8
		H319.1z M323.7,93.6c1.7-0.9,2.9-2.1,3.7-3.6c-0.6-1.4-1-3-1.3-4.8c-0.3,0.8-0.6,1.4-1,2c-0.2-0.2-0.5-0.5-0.8-0.7v1.7h-4.1
		c-0.2,0.4-0.4,0.8-0.6,1.2h2.3v-0.1v-0.6h1.1v0.6v0.1h1.8v1h-1.9c-0.1,0.7-0.5,1.5-1.4,2.2C322.4,92.9,323.2,93.2,323.7,93.6
		L323.7,93.6z M320.8,80.5v1h2.1v-1H320.8z M322.9,83.5v-1.2h-2.1v1.2H322.9z M320.8,86.1v1.2h2.3v-1.2H320.8z M326.9,83.1l-0.1,0.2
		c0.3,1.9,0.7,3.7,1.3,5.3c0.6-1.5,1-3.3,1.2-5.5H326.9z"/>
	<path class="st1" d="M338.3,78.8c-0.4,1.2-0.9,2.4-1.4,3.5v12.5h-1.3V84.6c-0.6,0.9-1.1,1.7-1.7,2.4c-0.1-0.3-0.5-1-0.7-1.4
		c1.6-1.7,3-4.4,3.9-7.2L338.3,78.8z M349.3,79.5v15.2h-1.3v-0.9h-7.9v1.1h-1.2V79.5H349.3z M348.1,92.5V80.6h-7.9v11.9H348.1z
		 M344.7,84.3v2h2.1V91h-5.1v-4.8h2v-2h-2.7v-1h2.7v-2h1.1v2h2.8v1H344.7z M345.7,87.3h-3v2.8h3V87.3z"/>
	<path class="st1" d="M355.6,82.4c-0.3,0.8-0.7,1.5-1.1,2.3v10.2h-1.2v-8.2c-0.4,0.6-0.8,1.2-1.3,1.6c-0.1-0.3-0.5-0.9-0.7-1.2
		c1.2-1.3,2.4-3.2,3.2-5.1L355.6,82.4z M355.3,78.8c-0.8,1.4-2,3-3.1,4.1c-0.1-0.3-0.5-0.8-0.6-1c1-0.9,2.1-2.4,2.6-3.6L355.3,78.8z
		 M357.6,87.6c-0.1,3.2-0.3,5.5-1.9,6.9c-0.1-0.3-0.5-0.8-0.8-1c1.3-1.1,1.4-3.1,1.5-6H357.6z M355.6,85.7h5.9v1.1h-6L355.6,85.7z
		 M361.5,84.6h-5.6v-4.5h1v3.5h1.3v-5.1h1v5.1h1.3v-3.4h1V84.6z M362.1,90.1c0.1,0.3,0.2,0.7,0.3,1c-2.3,1.5-2.7,1.8-2.9,2.1
		c-0.1-0.3-0.3-0.9-0.5-1.2c0.2-0.1,0.5-0.5,0.5-1.2v-3.3h1.1v3.4L362.1,90.1z M367.1,82.9c-0.3,2.9-0.8,5.4-1.6,7.4
		c0.6,1.4,1.5,2.6,2.6,3.3c-0.3,0.2-0.6,0.7-0.8,1c-1-0.8-1.8-1.8-2.4-3.1c-0.7,1.3-1.6,2.3-2.7,3.2c-0.1-0.2-0.6-0.7-0.8-0.9
		c1.3-1,2.3-2.2,3-3.7c-0.5-1.5-0.9-3.2-1.2-5c-0.2,0.4-0.4,0.8-0.7,1.2c-0.2-0.3-0.6-0.8-0.8-1c1.2-1.7,1.9-4.3,2.3-7l1.2,0.2
		c-0.2,1.1-0.4,2.2-0.6,3.2h3.7v1.2H367.1z M363.9,82.9c-0.1,0.2-0.1,0.4-0.2,0.5c0.2,1.9,0.6,3.7,1.1,5.3c0.6-1.7,0.9-3.6,1.1-5.9
		H363.9z"/>
	<path class="st1" d="M372.3,81.1c-0.6,0.9-1.2,1.7-1.8,2.4c-0.2-0.2-0.7-0.7-1-0.9c1.2-1.1,2.2-2.7,2.8-4.4l1.2,0.3
		c-0.2,0.5-0.4,0.9-0.6,1.4h4.7v1.2H372.3z M379,89.3c1.4,2.2,3.7,3.8,6.7,4.4c-0.3,0.3-0.7,0.8-0.9,1.2c-3.3-0.8-5.7-2.7-7.2-5.4
		c-1,2.4-3,4.3-7.3,5.4c-0.1-0.3-0.5-0.8-0.7-1.1c3.8-0.9,5.6-2.5,6.5-4.4h-6.5v-1.2h6.9c0.2-0.7,0.3-1.5,0.5-2.3
		c-2,0.2-4,0.3-5.9,0.4c0-0.3-0.2-0.8-0.3-1.1c4-0.2,8.7-0.6,11.7-1.2c-0.4-0.5-1.2-1.4-1.9-1.9l0.8-0.7c0.6,0.6,1.5,1.4,1.9,1.9
		l-0.8,0.8c0.3-0.1,0.6-0.1,0.9-0.2l0.8,1.1c-1.6,0.4-3.6,0.7-5.7,1c-0.1,0.8-0.3,1.7-0.5,2.4h7.6v1.2H379z M374,81.2
		c0.7,0.7,1.6,1.6,2.1,2.2l-0.9,0.8c-0.5-0.6-1.4-1.5-2-2.3L374,81.2z M385.7,81.1h-5.9c-0.5,0.9-0.9,1.7-1.5,2.3
		c-0.2-0.2-0.7-0.6-1-0.8c1-1,1.8-2.7,2.3-4.4l1.3,0.3c-0.1,0.5-0.3,1-0.5,1.4h5.4V81.1z"/>
	<path class="st1" d="M403,81.9v12.8h-1.3v-1.1h-11.8v1.2h-1.3V81.9h4.3v-3.4h1.3v3.4h3v-3.4h1.3v3.4H403z M389.8,83.3v3.9h3v-3.9
		H389.8z M389.8,92.4h3v-4h-3V92.4z M394.1,83.3v3.9h3v-3.9H394.1z M394.1,88.4v4h3v-4H394.1z M398.5,83.3v3.9h3.2v-3.9H398.5z
		 M401.7,92.4v-4h-3.2v4H401.7z"/>
	<path class="st1" d="M410.6,89.3c0-0.3-0.1-0.7-0.2-1c-3.6,0.5-4.1,0.6-4.5,0.8c-0.1-0.3-0.3-0.9-0.4-1.3c0.4-0.1,0.8-0.5,1.3-1.2
		c0.3-0.3,0.8-1,1.5-2c-1.8,0.2-2.2,0.3-2.5,0.4c-0.1-0.3-0.3-0.9-0.4-1.2c0.3-0.1,0.6-0.5,1-1c0.4-0.5,1.6-2.6,2.3-4.5l1.2,0.5
		c-0.8,1.7-1.7,3.4-2.7,4.8l1.9-0.2c0.5-0.8,0.9-1.6,1.3-2.4l1.2,0.7c-1.2,2.1-2.6,4.1-4,5.8l2.6-0.3c-0.2-0.6-0.3-1.2-0.5-1.8
		l1-0.3c0.4,1.2,0.9,2.9,1,3.8L410.6,89.3z M407.4,90.1c-0.2,1.6-0.5,3.3-0.9,4.4c-0.2-0.1-0.7-0.3-1-0.4c0.4-1.1,0.7-2.7,0.9-4.2
		L407.4,90.1z M409,89.8c0.2,1.2,0.4,2.8,0.5,3.8l-1.1,0.2c0-1-0.2-2.6-0.4-3.8L409,89.8z M410.6,89.4c0.4,0.9,0.7,2.1,0.9,2.9
		l-1,0.3c-0.1-0.8-0.5-2-0.8-2.9L410.6,89.4z M416.1,88.3c-0.6,2.7-2.2,4.6-4,5.7c-0.2-0.3-0.5-0.7-0.8-1c1.4-0.7,2.6-2.1,3.3-3.8
		h-2.3v-1.1h2.8l0.2-0.1L416.1,88.3z M421.6,88c-0.8,0.7-1.7,1.6-2.5,2.2c0.8,1.2,1.8,2.2,2.9,2.8c-0.3,0.2-0.7,0.7-0.9,1.1
		c-1.4-0.9-2.6-2.3-3.4-4.1v3.4c0,0.7-0.1,1-0.6,1.3c-0.5,0.2-1.2,0.2-2.4,0.2c-0.1-0.4-0.2-0.9-0.4-1.2c0.8,0,1.6,0,1.8,0
		c0.2,0,0.3-0.1,0.3-0.3v-6.8h-3.6v-6.3h2.8c0.3-0.6,0.5-1.3,0.6-1.9l1.5,0.3c-0.3,0.5-0.5,1.1-0.8,1.6h4.1v6.3h-3.3v0.6
		c0.2,0.7,0.5,1.4,0.8,2.1c0.7-0.6,1.5-1.5,2-2.1L421.6,88z M414.1,82.9h5.6v-1.6h-5.6V82.9z M414.1,85.5h5.6v-1.6h-5.6V85.5z"/>
	<path class="st1" d="M426.1,92.3c0-0.7,0.5-1.2,1.2-1.2c0.6,0,1.2,0.5,1.2,1.2c0,0.7-0.5,1.2-1.2,1.2
		C426.6,93.5,426.1,93.1,426.1,92.3z M426.3,82.1l0-2.1h2l0,2.1l-0.4,7h-1.2L426.3,82.1z"/>
</g>
<line class="st2" x1="61.5" y1="479.6" x2="61.5" y2="495.5"/>
<line class="st2" x1="241.6" y1="479.6" x2="241.6" y2="495.5"/>
<line class="st2" x1="421.6" y1="479.6" x2="421.6" y2="495.5"/>
<line class="st2" x1="601.6" y1="479.6" x2="601.6" y2="495.5"/>
<line class="st2" x1="781.6" y1="479.6" x2="781.6" y2="495.5"/>
<g>
	<path class="st5" d="M42.5,301.7c-8.9,0-16.2-13.6-16.9-30.9c0,1-0.1,2-0.1,3c0,18.7,7.6,33.9,17,33.9s17-15.2,17-33.9
		c0-1,0-2-0.1-3C58.7,288.1,51.4,301.7,42.5,301.7z"/>
	<path class="st5" d="M95.3,257.2c-8.9,0-16.2-13.6-16.9-30.9c0,1-0.1,2-0.1,3c0,18.7,7.6,33.9,17,33.9s17-15.2,17-33.9
		c0-1,0-2-0.1-3C111.5,243.6,104.2,257.2,95.3,257.2z"/>
	<path class="st5" d="M144.6,252.9c-8.9,0-16.2-13.6-16.9-30.9c0,1-0.1,2-0.1,3c0,18.7,7.6,33.9,17,33.9s17-15.2,17-33.9
		c0-1,0-2-0.1-3C160.8,239.3,153.5,252.9,144.6,252.9z"/>
	<path class="st5" d="M193.4,347.2c-8.9,0-16.2-13.6-16.9-30.9c0,1-0.1,2-0.1,3c0,18.7,7.6,33.9,17,33.9s17-15.2,17-33.9
		c0-1,0-2-0.1-3C209.6,333.6,202.3,347.2,193.4,347.2z"/>
	<path class="st5" d="M225.3,344.3c-8.9,0-16.2-13.6-16.9-30.9c0,1-0.1,2-0.1,3c0,18.7,7.6,33.9,17,33.9c9.4,0,17-15.2,17-33.9
		c0-1,0-2-0.1-3C241.5,330.8,234.2,344.3,225.3,344.3z"/>
	<path class="st5" d="M237.4,347.2c-8.9,0-16.2-13.6-16.9-30.9c0,1-0.1,2-0.1,3c0,18.7,7.6,33.9,17,33.9c9.4,0,17-15.2,17-33.9
		c0-1,0-2-0.1-3C253.5,333.6,246.2,347.2,237.4,347.2z"/>
	<path class="st5" d="M318.8,334.5c-8.9,0-16.2-13.6-16.9-30.9c0,1-0.1,2-0.1,3c0,18.7,7.6,33.9,17,33.9c9.4,0,17-15.2,17-33.9
		c0-1,0-2-0.1-3C334.9,320.9,327.7,334.5,318.8,334.5z"/>
	<path class="st5" d="M335.8,318c-8.9,0-16.2-13.6-16.9-30.9c0,1-0.1,2-0.1,3c0,18.7,7.6,33.9,17,33.9c9.4,0,17-15.2,17-33.9
		c0-1,0-2-0.1-3C352,304.4,344.7,318,335.8,318z"/>
	<path class="st5" d="M397.4,282.2c-8.9,0-16.2-13.6-16.9-30.9c0,1-0.1,2-0.1,3c0,18.7,7.6,33.9,17,33.9s17-15.2,17-33.9
		c0-1,0-2-0.1-3C413.6,268.7,406.3,282.2,397.4,282.2z"/>
	<path class="st5" d="M507.5,201.3c-8.9,0-16.2-13.6-16.9-30.9c0,1-0.1,2-0.1,3c0,18.7,7.6,33.9,17,33.9s17-15.2,17-33.9
		c0-1,0-2-0.1-3C523.7,187.7,516.4,201.3,507.5,201.3z"/>
	<path class="st5" d="M537.2,182.9c-8.9,0-16.2-13.6-16.9-30.9c0,1-0.1,2-0.1,3c0,18.7,7.6,33.9,17,33.9c9.4,0,17-15.2,17-33.9
		c0-1,0-2-0.1-3C553.4,169.3,546.1,182.9,537.2,182.9z"/>
	<path class="st5" d="M554.2,157c-8.9,0-16.2-13.6-16.9-30.9c0,1-0.1,2-0.1,3c0,18.7,7.6,33.9,17,33.9s17-15.2,17-33.9
		c0-1,0-2-0.1-3C570.4,143.4,563.1,157,554.2,157z"/>
	<path class="st5" d="M589,125.3c-8.9,0-16.2-13.6-16.9-30.9c0,1-0.1,2-0.1,3c0,18.7,7.6,33.9,17,33.9s17-15.2,17-33.9
		c0-1,0-2-0.1-3C605.2,111.7,597.9,125.3,589,125.3z"/>
	<path class="st5" d="M618.1,111.1c-8.9,0-16.2-13.6-16.9-30.9c0,1-0.1,2-0.1,3c0,18.7,7.6,33.9,17,33.9s17-15.2,17-33.9
		c0-1,0-2-0.1-3C634.3,97.6,627,111.1,618.1,111.1z"/>
	<path class="st5" d="M711.2,64.6c-8.9,0-16.2-13.6-16.9-30.9c0,1-0.1,2-0.1,3c0,18.7,7.6,33.9,17,33.9s17-15.2,17-33.9
		c0-1,0-2-0.1-3C727.4,51.1,720.1,64.6,711.2,64.6z"/>
	<path class="st5" d="M746.9,91.7c-8.9,0-16.2-13.6-16.9-30.9c0,1-0.1,2-0.1,3c0,18.7,7.6,33.9,17,33.9c9.4,0,17-15.2,17-33.9
		c0-1,0-2-0.1-3C763.1,78.1,755.8,91.7,746.9,91.7z"/>
	<path class="st5" d="M788,88.1c-8.9,0-16.2-13.6-16.9-30.9c0,1-0.1,2-0.1,3c0,18.7,7.6,33.9,17,33.9s17-15.2,17-33.9c0-1,0-2-0.1-3
		C804.2,74.5,796.9,88.1,788,88.1z"/>
	<path class="st5" d="M817.7,62c-8.9,0-16.2-13.6-16.9-30.9c0,1-0.1,2-0.1,3c0,18.7,7.6,33.9,17,33.9s17-15.2,17-33.9c0-1,0-2-0.1-3
		C833.9,48.4,826.6,62,817.7,62z"/>
	<path class="st5" d="M862.7,43.6c-8.9,0-16.2-13.6-16.9-30.9c0,1-0.1,2-0.1,3c0,18.7,7.6,33.9,17,33.9s17-15.2,17-33.9
		c0-1,0-2-0.1-3C878.9,30,871.6,43.6,862.7,43.6z"/>
</g>
<g>
	<polygon class="st0" points="972,735.7 932.1,735.7 923.9,725.4 932.1,715.1 972,715.1 	"/>
	
		<text transform="matrix(1 0 0 1 931.0397 729.7531)" class="st1" style="font-family:'SourceHanSansTW-Regular-B5pc-H'; font-size:12px;">396.73</text>
</g>
<text transform="matrix(1 0 0 1 16.233 1066.2942)" style="font-family:'SourceHanSansTW-Regular-B5pc-H'; font-size:12px;">2010</text>
<text transform="matrix(1 0 0 1 137.6797 1066.2942)" style="font-family:'SourceHanSansTW-Regular-B5pc-H'; font-size:12px;">2011</text>
<text transform="matrix(1 0 0 1 317.6798 1066.2942)" style="font-family:'SourceHanSansTW-Regular-B5pc-H'; font-size:12px;">2012</text>
<text transform="matrix(1 0 0 1 497.6798 1066.2942)" style="font-family:'SourceHanSansTW-Regular-B5pc-H'; font-size:12px;">2013</text>
<text transform="matrix(1 0 0 1 677.6797 1066.2942)" style="font-family:'SourceHanSansTW-Regular-B5pc-H'; font-size:12px;">2014</text>
<text transform="matrix(1 0 0 1 837.9155 1066.2942)" style="font-family:'SourceHanSansTW-Regular-B5pc-H'; font-size:12px;">2015</text>
<text transform="matrix(1 0 0 1 926.1181 948.4121)" style="font-family:'SourceHanSansTW-Regular-B5pc-H'; font-size:12px;">300</text>
<text transform="matrix(1 0 0 1 926.1181 836.1769)" style="font-family:'SourceHanSansTW-Regular-B5pc-H'; font-size:12px;">350</text>
<text transform="matrix(1 0 0 1 926.1181 609.7063)" style="font-family:'SourceHanSansTW-Regular-B5pc-H'; font-size:12px;">450</text>
<line class="st2" x1="0" y1="1046.4" x2="920.4" y2="1046.4"/>
<line class="st2" x1="920.4" y1="571.8" x2="920.4" y2="1046.4"/>
<polyline class="st3" points="0,994.9 4.2,961 6,965.9 7.3,947.2 9.3,948.4 10.8,939.5 12.5,943.7 14.6,931.4 16,933.3 16.7,929.4 
	17.9,933.7 18.6,916.3 21.6,913.9 22.9,905.2 24.8,915.6 27.5,902.9 29,912.7 32.6,899.3 33.9,882.6 37.6,900 38.7,913.5 41,901.5 
	42.5,915.5 43.7,908.4 45.7,925.4 47.5,895.2 51,890.6 51.9,882.6 54.4,889.7 56.2,880.7 59.8,879.5 60.9,876.8 62.8,869.4 
	65.9,878.9 68.6,859.2 70.1,855.7 70.9,868.4 72.7,859.8 73.7,855.3 75.9,865.8 76.8,850.4 78.9,848.9 79.9,843.6 81.4,851.2 
	84.4,843.6 85.9,836.2 88.4,857.2 91.7,841 93.7,845.6 96.8,867.9 97.8,890.1 101.1,861.1 103.4,852.8 106.4,843.4 109.4,834.4 
	112.1,845.5 114.5,856 116.7,828.6 121.1,813.7 123.6,836.2 124.9,829.8 128.1,851.6 130,842.7 131.7,861.6 134,853.2 135.7,834.2 
	139.4,864.7 140.7,872 141.6,861.9 143.2,881.8 145.4,867.5 147.9,880.2 151.4,841.6 153.9,836.2 155.4,863.1 156.8,855.3 
	159.1,868.8 162,840.3 165.3,864.8 169.4,965.1 173.7,925.9 176.1,966.7 177.9,946.6 178.6,953.1 180.9,920.1 183.3,958.5 
	184.9,941.3 186.6,970.7 189.6,942.9 191.2,996.1 194.5,968.9 197,1008.1 203,942.6 205.9,953.7 209.7,900.7 211.6,944.7 
	215.3,922.3 216.6,944.1 217.6,931.3 222.4,991.6 223.1,977.9 224.1,991.1 227.6,931.6 229.9,946.7 230.9,942 232.9,968.9 
	235.4,972.2 238.2,943.6 240.2,953.6 243.2,932 244.1,939.7 247.1,928.8 248.7,926.5 251.5,910.1 253.5,903.3 255.2,908.9 
	256.7,901.4 258.8,886.5 260.7,881.1 262.4,889.3 266.1,874.8 267.4,878.1 271.4,869.6 273,893.1 276.1,876.7 279.4,859.7 
	281,872.9 283.3,862.7 284.6,872.7 286.5,861.8 288.1,879.5 290.2,882.2 290.8,897.9 294.2,882.3 297.4,895.5 301.2,877.8 
	305.8,910.9 309.8,948.9 311.5,937 313.5,943.7 315.6,934.7 317.9,964.9 319.7,941.2 321.6,944.4 324.2,929.7 326.4,918.8 
	328.1,944.7 329.6,933.5 332.6,906.9 336.8,934.5 340.6,909.5 342.9,936.5 345.1,906.5 347.1,916.2 349.4,893.5 354,892.1 
	356.7,884.5 359.9,892.1 361.2,897.9 362.1,892.8 363.6,897.9 365.3,876.3 367.4,872.7 368.6,853.1 372.7,861.3 373.8,876.3 
	377.5,868.8 379.2,860.7 382.3,877.7 384.7,858.3 387.8,879.5 389.5,877.3 390.6,882.6 393.6,872 395,878.5 396.1,890.9 
	397.4,894.6 400,905.8 401.9,888.1 404.2,876.6 406.9,871.2 409.5,870.6 412.7,859.4 415.8,848.5 420.4,858.7 423.3,836.2 
	425.1,839.9 428.4,831 435.3,818.1 437.3,813.7 439.5,821.1 446.9,814.6 449.5,829.5 452.2,820.2 457.1,802.6 461.9,812.9 
	465.7,808.4 468.8,817 472.5,794.1 474.6,821.4 481,787.5 484.4,773.7 491.8,764.3 493.4,778.8 495.7,783.1 498.1,792.8 
	498.9,804.2 501.4,794 502.4,804.6 505.2,791.2 507.5,840.1 511.6,812.5 514.5,810.6 516.7,785.2 519.7,781.3 521.5,772 525.9,779 
	527.1,766.7 530,775.7 533.2,768.4 535.4,782.9 536.4,790.8 538.7,780.7 540.8,799 544.9,783.4 547.8,762.6 551.1,740.6 
	552.5,750.2 556,752.6 556,760.2 558.2,753.6 560.1,768 563.2,744.1 566.4,719.2 568.7,721.8 570.7,717.5 573.6,727.7 575.1,723.1 
	575.9,732 578.7,727.7 579.7,714.5 581.9,720 586.2,713.3 588.8,729.8 591,719.1 593.4,736.4 597.5,711.2 602.3,698.4 604.7,709.9 
	612.6,700.4 614.9,733.1 617.4,735.4 618.9,751.4 622.3,716.3 624.9,703.9 626.6,706.1 629.1,698.9 630.6,705.3 631.4,695 
	633.8,688.9 636.7,698 637.8,715.1 639.4,700.2 641.9,710.5 644.1,703.9 646,687.9 647.4,685.1 649.2,690.6 651.9,708.1 
	655.2,691.9 656.6,687.9 658.5,694.7 662.2,683.8 664.7,686 667.1,677.9 670.6,686.8 672.5,674.3 677.6,667.2 680.1,656 
	683.8,661.2 685.6,649.3 688.4,656.8 692.7,640.4 695.7,656.1 698.9,646.8 699.8,655.2 703,644 705.3,650.3 707.2,668.6 
	709.9,681.6 713,670.4 714.6,661.8 716.1,652.7 719.7,644.3 721.1,647.2 723.1,643.6 725.4,647.9 728.6,659.8 731.6,651.8 
	733.9,671.9 735.6,678.2 738.1,695.9 740.1,687.8 741.6,698.3 743.5,735.8 748.6,696.7 752.2,673.9 753.5,678.2 757.1,671.4 
	759.5,671.7 760.4,666.5 764.3,654 767.9,662.2 771,673.3 773.9,710.6 776.6,671.9 780.3,667.5 783.2,682.2 784.3,707.9 
	786.8,685.4 788.8,701.1 791.8,690.8 793.3,673.5 796.5,694.4 799.4,666.5 801.2,674.3 804.6,654.9 809.7,642.2 814.4,651.6 
	815.7,679.6 818.9,665 821.6,642.4 824.3,655 825.7,662 829.8,645.2 833.8,630.6 834.9,641.3 839.9,621 844,642.1 850.2,620.3 
	855.9,638.3 860.5,656 861.6,641.7 863.3,653.7 866.9,631.9 869.1,641 869.9,665.6 871.6,658.9 874.5,685.8 878.6,643.9 
	880.9,646.9 883.9,674 886.9,656 889.3,667.5 890.8,657.3 892.3,672.9 894.2,669.7 895.7,675.2 897.9,758.6 900.5,718.2 
	901.3,723.5 "/>
<polygon class="st4" points="0,994.9 4.2,961 6,965.9 7.3,947.2 9.3,948.4 10.8,939.5 12.5,943.7 14.6,931.4 16,933.3 16.7,929.4 
	17.9,933.7 18.6,916.3 21.6,913.9 22.9,905.2 24.8,915.6 27.5,902.9 29,912.7 32.6,899.3 33.9,882.6 37.6,900 38.7,913.5 41,901.5 
	42.5,915.5 43.7,908.4 45.7,925.4 47.5,895.2 51,890.6 51.9,882.6 54.4,889.7 56.2,880.7 59.8,879.5 60.9,876.8 62.8,869.4 
	65.9,878.9 68.6,859.2 70.1,855.7 70.9,868.4 72.7,859.8 73.7,855.3 75.9,865.8 76.8,850.4 78.9,848.9 79.9,843.6 81.4,851.2 
	84.4,843.6 85.9,836.2 88.4,857.2 91.7,841 93.7,845.6 96.8,867.9 97.8,890.1 101.1,861.1 103.4,852.8 106.4,843.4 109.4,834.4 
	112.1,845.5 114.5,856 116.7,828.6 121.1,813.7 123.6,836.2 124.9,829.8 128.1,851.6 130,842.7 131.7,861.6 134,853.2 135.7,834.2 
	139.4,864.7 140.7,872 141.6,861.9 143.2,881.8 145.4,867.5 147.9,880.2 151.4,841.6 153.9,836.2 155.4,863.1 156.8,855.3 
	159.1,868.8 162,840.3 165.3,864.8 169.4,965.1 173.7,925.9 176.1,966.7 177.9,946.6 178.6,953.1 180.9,920.1 183.3,958.5 
	184.9,941.3 186.6,970.7 189.6,942.9 191.2,996.1 194.5,968.9 197,1008.1 203,942.6 205.9,953.7 209.7,900.7 211.6,944.7 
	215.3,922.3 216.6,944.1 217.6,931.3 222.4,991.6 223.1,977.9 224.1,991.1 227.6,931.6 229.9,946.7 230.9,942 232.9,968.9 
	235.4,972.2 238.2,943.6 240.2,953.6 243.2,932 244.1,939.7 247.1,928.8 248.7,926.5 251.5,910.1 253.5,903.3 255.2,908.9 
	256.7,901.4 258.8,886.5 260.7,881.1 262.4,889.3 266.1,874.8 267.4,878.1 271.4,869.6 273,893.1 276.1,876.7 279.4,859.7 
	281,872.9 283.3,862.7 284.6,872.7 286.5,861.8 288.1,879.5 290.2,882.2 290.8,897.9 294.2,882.3 297.4,895.5 301.2,877.8 
	305.8,910.9 309.8,948.9 311.5,937 313.5,943.7 315.6,934.7 317.9,964.9 319.7,941.2 321.6,944.4 324.2,929.7 326.4,918.8 
	328.1,944.7 329.6,933.5 332.6,906.9 336.8,934.5 340.6,909.5 342.9,936.5 345.1,906.5 347.1,916.2 349.4,893.5 354,892.1 
	356.7,884.5 359.9,892.1 361.2,897.9 362.1,892.8 363.6,897.9 365.3,876.3 367.4,872.7 368.6,853.1 372.7,861.3 373.8,876.3 
	377.5,868.8 379.2,860.7 382.3,877.7 384.7,858.3 387.8,879.5 389.5,877.3 390.6,882.6 393.6,872 395,878.5 396.1,890.9 
	397.4,894.6 400,905.8 401.9,888.1 404.2,876.6 406.9,871.2 409.5,870.6 412.7,859.4 415.8,848.5 420.4,858.7 423.3,836.2 
	425.1,839.9 428.4,831 435.3,818.1 437.3,813.7 439.5,821.1 446.9,814.6 449.5,829.5 452.2,820.2 457.1,802.6 461.9,812.9 
	465.7,808.4 468.8,817 472.5,794.1 474.6,821.4 481,787.5 484.4,773.7 491.8,764.3 493.4,778.8 495.7,783.1 498.1,792.8 
	498.9,804.2 501.4,794 502.4,804.6 505.2,791.2 507.5,840.1 511.6,812.5 514.5,810.6 516.7,785.2 519.7,781.3 521.5,772 525.9,779 
	527.1,766.7 530,775.7 533.2,768.4 535.4,782.9 536.4,790.8 538.7,780.7 540.8,799 544.9,783.4 547.8,762.6 551.1,740.6 
	552.5,750.2 556,752.6 556,760.2 558.2,753.6 560.1,768 563.2,744.1 566.4,719.2 568.7,721.8 570.7,717.5 573.6,727.7 575.1,723.1 
	575.9,732 578.7,727.7 579.7,714.5 581.9,720 586.2,713.3 588.8,729.8 591,719.1 593.4,736.4 597.5,711.2 602.3,698.4 604.7,709.9 
	612.6,700.4 614.9,733.1 617.4,735.4 618.9,751.4 622.3,716.3 624.9,703.9 626.6,706.1 629.1,698.9 630.6,705.3 631.4,695 
	633.8,688.9 636.7,698 637.8,715.1 639.4,700.2 641.9,710.5 644.1,703.9 646,687.9 647.4,685.1 649.2,690.6 651.9,708.1 
	655.2,691.9 656.6,687.9 658.5,694.7 662.2,683.8 664.7,686 667.1,677.9 670.6,686.8 672.5,674.3 677.6,667.2 680.1,656 
	683.8,661.2 685.6,649.3 688.4,656.8 692.7,640.4 695.7,656.1 698.9,646.8 699.8,655.2 703,644 705.3,650.3 707.2,668.6 
	709.9,681.6 713,670.4 714.6,661.8 716.1,652.7 719.7,644.3 721.1,647.2 723.1,643.6 725.4,647.9 728.6,659.8 731.6,651.8 
	733.9,671.9 735.6,678.2 738.1,695.9 740.1,687.8 741.6,698.3 743.5,735.8 748.6,696.7 752.2,673.9 753.5,678.2 757.1,671.4 
	759.5,671.7 760.4,666.5 764.3,654 767.9,662.2 771,673.3 773.9,710.6 776.6,671.9 780.3,667.5 783.2,682.2 784.3,707.9 
	786.8,685.4 788.8,701.1 791.8,690.8 793.3,673.5 796.5,694.4 799.4,666.5 801.2,674.3 804.6,654.9 809.7,642.2 814.4,651.6 
	815.7,679.6 818.9,665 821.6,642.4 824.3,655 825.7,662 829.8,645.2 833.8,630.6 834.9,641.3 839.9,621 844,642.1 850.2,620.3 
	855.9,638.3 860.5,656 861.6,641.7 863.3,653.7 866.9,631.9 869.1,641 869.9,665.6 871.6,658.9 874.5,685.8 878.6,643.9 
	880.9,646.9 883.9,674 886.9,656 889.3,667.5 890.8,657.3 892.3,672.9 894.2,669.7 895.7,675.2 897.9,758.6 900.5,718.2 
	901.3,723.5 901.3,1046.4 0,1046.4 "/>
<rect x="63.5" y="646.4" class="st0" width="376.5" height="23.1"/>
<text transform="matrix(1 0 0 1 62.7116 665.2001)" class="st1" style="font-family:'SourceHanSansTW-Regular-B5pc-H'; font-size:18px;">全球股市在波動中，仍造就了無數個微笑曲線！</text>
<line class="st2" x1="61.5" y1="1051.4" x2="61.5" y2="1067.3"/>
<line class="st2" x1="241.6" y1="1051.4" x2="241.6" y2="1067.3"/>
<line class="st2" x1="421.6" y1="1051.4" x2="421.6" y2="1067.3"/>
<line class="st2" x1="601.6" y1="1051.4" x2="601.6" y2="1067.3"/>
<line class="st2" x1="781.6" y1="1051.4" x2="781.6" y2="1067.3"/>
<g>
	<path class="st5" d="M42.5,873.5c-8.9,0-16.2-13.6-16.9-30.9c0,1-0.1,2-0.1,3c0,18.7,7.6,33.9,17,33.9s17-15.2,17-33.9
		c0-1,0-2-0.1-3C58.7,859.9,51.4,873.5,42.5,873.5z"/>
	<path class="st5" d="M95.3,829c-8.9,0-16.2-13.6-16.9-30.9c0,1-0.1,2-0.1,3c0,18.7,7.6,33.9,17,33.9s17-15.2,17-33.9c0-1,0-2-0.1-3
		C111.5,815.4,104.2,829,95.3,829z"/>
	<path class="st5" d="M144.6,824.7c-8.9,0-16.2-13.6-16.9-30.9c0,1-0.1,2-0.1,3c0,18.7,7.6,33.9,17,33.9s17-15.2,17-33.9
		c0-1,0-2-0.1-3C160.8,811.1,153.5,824.7,144.6,824.7z"/>
	<path class="st5" d="M193.4,918.9c-8.9,0-16.2-13.6-16.9-30.9c0,1-0.1,2-0.1,3c0,18.7,7.6,33.9,17,33.9s17-15.2,17-33.9
		c0-1,0-2-0.1-3C209.6,905.4,202.3,918.9,193.4,918.9z"/>
	<path class="st5" d="M225.3,916.1c-8.9,0-16.2-13.6-16.9-30.9c0,1-0.1,2-0.1,3c0,18.7,7.6,33.9,17,33.9c9.4,0,17-15.2,17-33.9
		c0-1,0-2-0.1-3C241.5,902.5,234.2,916.1,225.3,916.1z"/>
	<path class="st5" d="M237.4,918.9c-8.9,0-16.2-13.6-16.9-30.9c0,1-0.1,2-0.1,3c0,18.7,7.6,33.9,17,33.9c9.4,0,17-15.2,17-33.9
		c0-1,0-2-0.1-3C253.5,905.4,246.2,918.9,237.4,918.9z"/>
	<path class="st5" d="M318.8,906.2c-8.9,0-16.2-13.6-16.9-30.9c0,1-0.1,2-0.1,3c0,18.7,7.6,33.9,17,33.9c9.4,0,17-15.2,17-33.9
		c0-1,0-2-0.1-3C334.9,892.6,327.7,906.2,318.8,906.2z"/>
	<path class="st5" d="M335.8,889.8c-8.9,0-16.2-13.6-16.9-30.9c0,1-0.1,2-0.1,3c0,18.7,7.6,33.9,17,33.9c9.4,0,17-15.2,17-33.9
		c0-1,0-2-0.1-3C352,876.2,344.7,889.8,335.8,889.8z"/>
	<path class="st5" d="M397.4,854c-8.9,0-16.2-13.6-16.9-30.9c0,1-0.1,2-0.1,3c0,18.7,7.6,33.9,17,33.9s17-15.2,17-33.9
		c0-1,0-2-0.1-3C413.6,840.4,406.3,854,397.4,854z"/>
	<path class="st5" d="M507.5,773.1c-8.9,0-16.2-13.6-16.9-30.9c0,1-0.1,2-0.1,3c0,18.7,7.6,33.9,17,33.9s17-15.2,17-33.9
		c0-1,0-2-0.1-3C523.7,759.5,516.4,773.1,507.5,773.1z"/>
	<path class="st5" d="M537.2,754.6c-8.9,0-16.2-13.6-16.9-30.9c0,1-0.1,2-0.1,3c0,18.7,7.6,33.9,17,33.9c9.4,0,17-15.2,17-33.9
		c0-1,0-2-0.1-3C553.4,741.1,546.1,754.6,537.2,754.6z"/>
	<path class="st5" d="M554.2,728.7c-8.9,0-16.2-13.6-16.9-30.9c0,1-0.1,2-0.1,3c0,18.7,7.6,33.9,17,33.9s17-15.2,17-33.9
		c0-1,0-2-0.1-3C570.4,715.2,563.1,728.7,554.2,728.7z"/>
	<path class="st5" d="M589,697.1c-8.9,0-16.2-13.6-16.9-30.9c0,1-0.1,2-0.1,3c0,18.7,7.6,33.9,17,33.9s17-15.2,17-33.9
		c0-1,0-2-0.1-3C605.2,683.5,597.9,697.1,589,697.1z"/>
	<path class="st5" d="M618.1,682.9c-8.9,0-16.2-13.6-16.9-30.9c0,1-0.1,2-0.1,3c0,18.7,7.6,33.9,17,33.9s17-15.2,17-33.9
		c0-1,0-2-0.1-3C634.3,669.3,627,682.9,618.1,682.9z"/>
	<path class="st5" d="M711.2,636.4c-8.9,0-16.2-13.6-16.9-30.9c0,1-0.1,2-0.1,3c0,18.7,7.6,33.9,17,33.9s17-15.2,17-33.9
		c0-1,0-2-0.1-3C727.4,622.8,720.1,636.4,711.2,636.4z"/>
	<path class="st5" d="M746.9,663.5c-8.9,0-16.2-13.6-16.9-30.9c0,1-0.1,2-0.1,3c0,18.7,7.6,33.9,17,33.9c9.4,0,17-15.2,17-33.9
		c0-1,0-2-0.1-3C763.1,649.9,755.8,663.5,746.9,663.5z"/>
	<path class="st5" d="M788,659.9c-8.9,0-16.2-13.6-16.9-30.9c0,1-0.1,2-0.1,3c0,18.7,7.6,33.9,17,33.9s17-15.2,17-33.9
		c0-1,0-2-0.1-3C804.2,646.3,796.9,659.9,788,659.9z"/>
	<path class="st5" d="M817.7,633.8c-8.9,0-16.2-13.6-16.9-30.9c0,1-0.1,2-0.1,3c0,18.7,7.6,33.9,17,33.9s17-15.2,17-33.9
		c0-1,0-2-0.1-3C833.9,620.2,826.6,633.8,817.7,633.8z"/>
	<path class="st5" d="M862.7,615.3c-8.9,0-16.2-13.6-16.9-30.9c0,1-0.1,2-0.1,3c0,18.7,7.6,33.9,17,33.9s17-15.2,17-33.9
		c0-1,0-2-0.1-3C878.9,601.7,871.6,615.3,862.7,615.3z"/>
</g>
</svg>
