<?xml version="1.0" encoding="utf-8"?>
<!-- Generator: Adobe Illustrator 24.1.1, SVG Export Plug-In . SVG Version: 6.00 Build 0)  -->
<svg version="1.1" id="圖層_1" xmlns="http://www.w3.org/2000/svg" xmlns:xlink="http://www.w3.org/1999/xlink" x="0px" y="0px"
	 viewBox="0 0 620 340" style="enable-background:new 0 0 620 340;" xml:space="preserve">
<style type="text/css">
	.st0{fill:none;stroke:#E0E0E0;stroke-miterlimit:10;}
	.st1{fill:none;stroke:#E0E0E0;stroke-miterlimit:10;stroke-dasharray:3.9892,3.9892;}
	.st2{opacity:0.14;fill:#673A1B;}
	.st3{fill:#673A1B;}
	.st4{fill:none;stroke:#CCCCCC;stroke-miterlimit:10;}
	.st5{fill:#FFFFFF;}
	.st6{fill:none;stroke:#673A1B;stroke-width:3;stroke-linecap:round;stroke-linejoin:round;stroke-miterlimit:10;}
</style>
<g>
	<g>
		<g>
			<g>
				<line class="st0" x1="0" y1="257.3" x2="2" y2="257.3"/>
				<line class="st1" x1="6" y1="257.3" x2="562.5" y2="257.3"/>
				<line class="st0" x1="564.5" y1="257.3" x2="566.5" y2="257.3"/>
			</g>
		</g>
		<g>
			<g>
				<line class="st0" x1="0" y1="203.2" x2="2" y2="203.2"/>
				<line class="st1" x1="6" y1="203.2" x2="562.5" y2="203.2"/>
				<line class="st0" x1="564.5" y1="203.2" x2="566.5" y2="203.2"/>
			</g>
		</g>
		<g>
			<g>
				<line class="st0" x1="0" y1="148.1" x2="2" y2="148.1"/>
				<line class="st1" x1="6" y1="148.1" x2="562.5" y2="148.1"/>
				<line class="st0" x1="564.5" y1="148.1" x2="566.5" y2="148.1"/>
			</g>
		</g>
		<g>
			<g>
				<line class="st0" x1="0" y1="93.1" x2="2" y2="93.1"/>
				<line class="st1" x1="6" y1="93.1" x2="562.5" y2="93.1"/>
				<line class="st0" x1="564.5" y1="93.1" x2="566.5" y2="93.1"/>
			</g>
		</g>
		<g>
			<g>
				<line class="st0" x1="0" y1="38" x2="2" y2="38"/>
				<line class="st1" x1="6" y1="38" x2="562.5" y2="38"/>
				<line class="st0" x1="564.5" y1="38" x2="566.5" y2="38"/>
			</g>
		</g>
	</g>
	<path class="st2" d="M0,75.7l10.4-17.9l2.3,17.9l3.3-13.9l9-17.9l7.3-6.3v7.6l1.7-5.6l2.3,2.3l5-14.6l1.3,27.2l4.3,6.3V71l3-19.5
		l2,6l2-10V36.2l3.3-3.6c0,0,0.7-10.3,2.3-9.3c1.7,1,2.3,10,2.3,10l2-5.6v5l1.7,11.3l2.7,5.6l3.3-15.9l3,13.9l2.3-3l2,18.6l2,22.9
		l3.3-11.9v18.2l5.7-10.9l2,10.9l2.3,3.3l2.2-16.1l1.2-8.5l6.7-8.2l2.3-8.6l2.3,10l10,46.8l2.3-3.3l7.7,7l1.7,16.9l3-4.3l2.3,8.1
		l2.3,93.4l1.3-9.3l1.7,19.9l2-22.6l4,42.8l1.7-24.6l1.7,10.6l4-14.9l1.7-10.9l2,7.3l3.3,25.2l2-11.3l2.7,26.2l3.7,18.9l4.3-36.8
		l6-13.9l2.7-16.9l2.3,7l2.3-10.9l3.3-7l1.7,6.6l2,3.3l2.3,10l3.3-29.5l7.7-17.3l1.7,4.3l3.3-17.3l2,13.6l3.7-17.9l2.3,12.3
		l3.7-13.9l2,4.3l2-7.6l3.3,8l2.7-8l3.3-6l5,26.9l4-10l2-10.6l4.3-6.3l4-8.3l2.7,2.3l3,31.5l4.7,10.6l3-12.9l3.7,17.6l2.3-13.6
		l3.7-8.3v-7.6l3.3,14.3l3.3,3.3v-12l6.3-13.2l2.3-9l4.6-3l1.7-10l3.7,12.9l2-9l3-2.7l1.7-5l2.7-2.7l1.7-6.3l3.7,1.7v-8l3.7-8.3
		l3.3,5l2,14.9l5.3-16.6l2,3.3l3-13.6l3.3,12.6l3.7,3l1.3,11.6l2,2l2.3-17.6l3,8l2.3-7.6l3.3,39.2l2.3,16.6l3.3-10.6l2,12.2v-11.9
		l3,20.2l3.3-6.3v-17.9l3.3-17.3l2.7,13.6l3.7,27.9l2.3-22.9l1.7,9.3l1.7-8l4.7-5.3l1.3-10l2-2l1.7-7.3l5.3-7.6l4.3-4.3l2,3.6
		l2.7,8.6l3-7.6l2.7,14.9l2.3,16.9l3,5.3l6-20.6l3,4l7.3-18.9l4,3.3l2.3-17.9l4,8.3l5.7,3.3l3.7,12.6l2.7-14.6l5.3-4.6l7.7-22.2
		l6,3.3l4.3-12.3l3.7,6.3l2.3-11.3l1.7,9.3l6-24.6l3,12.3l3,2.3l2,11.3l2.7-8.6l1.7-14.6l5.3-7.3l5.3,15.9l4.3-24.2l3,4.3l5.3-16.9
		l2.3,4.6l4.3-10l2.7,9.3l3-15.3l1.7-2.3v288.3H0V75.7z"/>
	<g>
		<path d="M421.8,54.5h6.7v1.9h-15.3v-1.9h6.4v-2.2h-4.7v-1.9h4.7v-2.1h-3.8v-1.5c-0.8,0.5-1.5,1-2.3,1.4c-0.3-0.5-0.8-1.3-1.3-1.7
			c2-0.8,4.2-2.3,5.9-3.9h-2.4v-2h6.2c1.5,2.3,4.4,4.5,7.5,5.7c-0.5,0.5-1.1,1.4-1.4,2c-0.8-0.4-1.5-0.8-2.3-1.3v1.5h-3.9v2.1h4.7
			v1.9h-4.7V54.5z M425,46.6c-1.7-1.2-3.2-2.6-4.3-3.9c-1.2,1.4-2.8,2.8-4.4,3.9H425z"/>
		<path d="M447,46.6c-0.9,1.2-2.1,2.6-3,3.5c0.8,1.5,1.8,2.7,3.4,3.8c-0.5,0.4-1.1,1-1.3,1.6c-1.5-1.2-2.6-2.4-3.4-3.9v2.9
			c0,1.1-0.2,1.6-0.8,2c-0.6,0.4-1.5,0.5-2.9,0.5c-0.1-0.6-0.5-1.5-0.7-2.1c0.9,0,1.7,0,2,0c0.3,0,0.4-0.1,0.4-0.4v-3
			c-1.3,1.2-2.6,2.5-3.7,3.5l-1-1.5c-1.9,0.6-3.8,1.2-5.3,1.7l-0.5-2c0.6-0.2,1.4-0.4,2.2-0.6v-4.3h-1.8v-2h1.8v-3.2h-1.9v-2h5.7v2
			h-1.8v3.2h1.5v2h-1.5V52l1.8-0.6l0.2,1.2c1.2-0.8,2.8-2.1,4.3-3.3v-4.3h-4.1v-2h4.1v-2.9h2.1V43h2.4c-0.5-0.5-1.2-1.2-1.9-1.7
			l1.2-1.1c0.8,0.5,1.7,1.2,2.2,1.8l-1,1h1.5v2h-4.4v0.7c0.2,1,0.4,1.9,0.6,2.7c0.7-0.9,1.4-1.9,1.8-2.7L447,46.6z M438.2,45.7
			c0.7,1,1.5,2.3,1.7,3.2l-1.7,0.8c-0.3-0.9-1-2.2-1.6-3.2L438.2,45.7z"/>
		<path d="M464.6,48.3c-0.6,2.3-1.6,4-3,5.4c1,0.6,2.2,1,3.5,1.3c-0.5,0.5-1.1,1.3-1.4,1.9c-1.5-0.4-2.8-1-3.9-1.8
			c-1.2,0.7-2.5,1.3-3.9,1.7c-0.2-0.5-0.7-1.3-1.1-1.8c-0.1,0.6-0.2,1.1-0.7,1.3c-0.5,0.3-1.2,0.4-2.3,0.4c-0.1-0.5-0.3-1.5-0.5-2
			c0.6,0,1.1,0,1.3,0s0.3-0.1,0.3-0.3v-3.6c-0.5,0.3-1,0.6-1.4,0.9l-0.5-1.3c-0.1,2.3-0.4,4.7-1.1,6.4c-0.4-0.3-1.3-0.8-1.7-1
			c0.9-2.5,1-6.1,1-8.7v-6.5h5.7v5.4c1.9-1,2.2-2.3,2.2-3.4v-1.9h6v3.9c0,0.5,0,0.7,0.3,0.7h0.7c0.2,0,0.6-0.1,0.9-0.1
			c0.1,0.5,0.1,1.2,0.2,1.7c-0.3,0.1-0.7,0.1-1,0.1h-0.9c-1.7,0-2.1-0.7-2.1-2.4v-1.9H459c0,1.7-0.5,3.7-2.9,4.9
			c-0.2-0.3-0.8-1-1.2-1.4v8.2c0,0.1,0,0.3,0,0.4c1.2-0.3,2.4-0.7,3.3-1.3c-0.9-1-1.7-2.2-2.3-3.5l0.9-0.3h-1.3v-2h7.3l0.4-0.1
			L464.6,48.3z M451.2,47.2c0,0.7,0,1.6-0.1,2.4c0.5-0.2,1.2-0.4,1.9-0.7v-2l-0.7,0.6c-0.2-0.3-0.6-0.9-1.1-1.4V47.2z M451.2,42.6
			v2.2l0.5-0.4c0.4,0.4,0.9,0.9,1.3,1.4v-3.2H451.2z M457.9,49.9c0.5,1,1.2,1.8,2,2.6c0.8-0.7,1.5-1.6,1.9-2.6H457.9z"/>
		<path d="M475.8,44.6v2h5.8v6.1c0,1.1-0.2,1.7-1,2c-0.7,0.3-1.8,0.4-3.2,0.4c-0.1-0.6-0.4-1.5-0.7-2.1c0.9,0.1,2,0.1,2.2,0
			c0.3,0,0.4-0.1,0.4-0.3v-3.9h-3.6v8.1h-2.2v-8.1h-3.3V55H468v-8.4h5.5v-2h-7v-2.1h7.2c-0.3-0.6-0.6-1.4-0.9-2l2.1-0.7
			c0.5,0.8,1,1.9,1.4,2.6h6.6v2.1H475.8z"/>
	</g>
	<g>
		<path d="M37,225.8v4.1h-2.1v-2.5h-4.8v3.8H28v-3.8h-4.8v2.5h-2v-4.1H28V225h-6v-1.5h14.1v1.5h-6v0.8H37z M22.8,231.9h12.6v7.5
			h-2.2v-0.6h-8.4v0.8h-2.1V231.9z M23.1,230.2c1.1-0.1,2.7-0.4,4.3-0.6l0.1,1.2c-1.4,0.3-2.7,0.6-3.8,0.9L23.1,230.2z M24.2,227.7
			c1,0.2,2.4,0.5,3.1,0.8l-0.6,1.2c-0.7-0.3-2.1-0.7-3.1-0.9L24.2,227.7z M24.8,233.5v1H28v-1H24.8z M28,237.2v-1.1h-3.1v1.1H28z
			 M33.3,233.5h-3.2v1h3.2V233.5z M33.3,237.2v-1.1h-3.2v1.1H33.3z M34.6,231.7c-1-0.3-2.8-0.8-4.2-1l0.4-1.2
			c1.3,0.1,3.2,0.5,4.1,0.9L34.6,231.7z M34.6,228.6c-1,0.4-2.3,0.7-3.2,0.9l-0.7-1c0.9-0.2,2.3-0.7,3.1-1L34.6,228.6z"/>
		<path d="M53.5,234.2c-0.8,1.2-2,2.2-3.4,2.9c1.7,0.3,3.5,0.5,5.4,0.5c-0.4,0.5-0.9,1.3-1.2,1.9c-2.6-0.2-5.1-0.5-7.3-1.1
			c-2.3,0.7-4.9,1-7.6,1.2c-0.1-0.6-0.5-1.4-0.8-1.9c1.8-0.1,3.6-0.2,5.3-0.5c-1-0.5-1.9-1.1-2.6-1.7l0.6-0.3h-2v-1.7h11.8l0.4-0.1
			L53.5,234.2z M54.3,232.8H39.8v-3.7h14.5V232.8z M43.1,228.6h-2v-5.3h12v5.3h-2.1v-4h-7.9V228.6z M43.9,230.5h-2.1v1h2.1V230.5z
			 M43.4,227.1h7.1v1.2h-7.1V227.1z M50.5,226.5h-7.1v-1.2h7.1V226.5z M43.9,235.1c0.9,0.5,1.9,0.9,3.1,1.3c1.1-0.4,2-0.8,2.8-1.3
			H43.9z M48,230.5h-2.1v1H48V230.5z M52.2,230.5h-2.1v1h2.1V230.5z"/>
		<path d="M70.7,237.3c0.6,0,0.7-0.4,0.8-3.2c0.4,0.4,1.4,0.7,2,0.9c-0.2,3.3-0.8,4.3-2.6,4.3h-2.2c-2.1,0-2.6-0.7-2.6-2.7v-5h-2.3
			c-0.3,3.7-1.2,6.5-5.8,8c-0.2-0.6-0.8-1.5-1.3-1.9c4.1-1.2,4.6-3.2,4.8-6.1h-2.5v-7.9h12.7v7.9h-3.3v5c0,0.6,0.1,0.7,0.7,0.7H70.7
			z M61,229.4h8.3v-3.7H61V229.4z"/>
		<path d="M90.9,232.5c0,0,0,0.5-0.1,0.8c-0.2,2.8-0.4,4.1-0.9,4.6c-0.4,0.5-0.8,0.6-1.4,0.7c-0.5,0.1-1.4,0.1-2.3,0
			c0-0.6-0.3-1.5-0.6-2c0.8,0.1,1.5,0.1,1.9,0.1c0.3,0,0.5,0,0.6-0.2c0.2-0.2,0.4-0.8,0.5-2.1h-4.4v5.1H82V236
			c-1.6,1.5-3.6,2.6-5.6,3.4c-0.3-0.6-1-1.4-1.5-1.9c2.1-0.6,4.2-1.7,5.7-3h-4.7c0.4-1.5,0.9-3.7,1.2-5.5h5v-1.7h-6v-1.9h2.9
			c-0.3-0.6-0.6-1.4-1-2l2-0.6c0.5,0.8,1.1,1.8,1.3,2.4l-0.7,0.2h4.5c0.4-0.8,0.9-1.9,1.1-2.7l2.4,0.5c-0.4,0.8-0.8,1.5-1.2,2.1H90
			v5.5h-5.8v1.6H90.9z M78.9,230.9c-0.1,0.6-0.2,1.1-0.3,1.6H82v-1.6H78.9z M84.2,229h3.6v-1.7h-3.6V229z"/>
		<path d="M36.8,251.6c-0.5,2.4-1.4,4.4-2.6,5.9c1,0.8,2,1.4,3.2,1.8c-0.5,0.4-1.1,1.2-1.4,1.7c-1.2-0.5-2.3-1.2-3.2-2.1
			c-0.9,0.8-2,1.5-3.1,2.1c-0.2-0.5-0.8-1.2-1.1-1.6c1.1-0.4,2.1-1.1,3-1.9c-0.8-1-1.4-2.1-1.9-3.3c-0.2,2.3-0.6,5-1.9,6.8
			c-0.3-0.3-1.2-0.8-1.6-1c0.2-0.3,0.4-0.7,0.6-1.1h-3v1.3h-1.8v-5.5c-0.2,0.3-0.5,0.6-0.7,0.9c-0.1-0.6-0.5-1.9-0.8-2.6
			c1.2-1.5,1.9-3.7,2.4-6.1h-1.9v-1.9h6.3v1.9h-2.3c-0.3,1.2-0.6,2.5-1,3.6h2.9v8.2c1-2.3,1.1-5,1.1-7.1v-4.8h3.5v-2.6h1.9v2.6h2.2
			l0.3-0.1l1.3,0.3c-0.2,1.3-0.6,2.9-1,3.9l-1.6-0.4c0.1-0.5,0.3-1.1,0.4-1.8h-1.7v2.5h1.9l0.3-0.1L36.8,251.6z M25,252.6h-1.2v4.5
			H25V252.6z M29.8,248.8v2.5h1.7v-2.5H29.8z M31.1,253.1c0.5,1.1,1.1,2.2,1.8,3.1c0.7-0.9,1.2-1.9,1.6-3.1H31.1z"/>
		<path d="M55.5,259v1.7H42.3V259h5.5v-1h-3.8v-1.3c-0.3,0.4-0.7,0.8-1,1.1c-0.1-0.4-0.5-1.3-0.8-1.8c-0.2,1.9-0.7,3.9-1.9,5.4
			c-0.3-0.4-1.2-1.2-1.7-1.4c1.5-1.8,1.6-4.4,1.6-6.2v-3.2h2.4c-0.3-0.3-0.6-0.6-0.9-0.8c1.3-0.2,2.7-0.5,4.1-0.8
			c-1.1-0.3-2.3-0.5-3.4-0.7l1-0.8h-3.1v-1.7h6.3c-0.2-0.3-0.5-0.7-0.7-0.9l1.4-0.7c0.4,0.5,0.9,1.1,1.2,1.6h6.2v1.7h-2.6l0.9,0.5
			c-0.6,0.3-1.4,0.6-2.2,0.9c1.1,0.3,2,0.6,2.8,0.8l-1,0.8h2.6v1.7H42.1v1.5c0,0.6,0,1.2-0.1,1.9c0.9-0.8,1.6-2,2.1-3.2l1.8,0.5
			c-0.1,0.2-0.2,0.5-0.3,0.7h2.1v-1.1h2.1v1.1h4.4v1.7h-4.4v0.9h3.9v1.6h-3.9v1H55.5z M47.7,256.3v-0.9h-2.9
			c-0.2,0.3-0.4,0.6-0.6,0.9H47.7z M51.4,250.6c-0.9-0.3-2-0.6-3.1-0.9c-1.3,0.3-2.6,0.6-3.9,0.9H51.4z M44.9,247.4
			c1.1,0.3,2.3,0.5,3.5,0.8c0.9-0.2,1.7-0.5,2.4-0.8H44.9z"/>
		<path d="M61.1,250.5v1.5c0,2.7-0.4,6.8-2.9,9.3c-0.3-0.4-1.2-1.2-1.7-1.4c2.2-2.3,2.4-5.5,2.4-7.9V251c-0.3,0.2-0.6,0.5-0.9,0.7
			c-0.4-0.5-1.1-1.3-1.6-1.6c2.4-1.6,4-3.9,4.8-5.8l2.4,0.4c-0.1,0.3-0.3,0.5-0.4,0.8h3.7l0.4-0.1l1.6,1c-0.4,0.7-0.8,1.5-1.3,2.2
			h5.4v1.9H61.1z M62.3,247.2c-0.3,0.5-0.6,0.9-0.9,1.3h3.9c0.3-0.4,0.5-0.9,0.7-1.3H62.3z M70,259.1c1.2,0,1.4-0.4,1.5-2.6
			c0.5,0.3,1.4,0.7,2,0.8c-0.3,2.9-0.9,3.7-3.3,3.7h-4.3c-2.7,0-3.5-0.6-3.5-2.9v-6.5h8.6c0,0,0,0.5,0,0.7c-0.1,2.6-0.3,3.8-0.8,4.3
			c-0.4,0.4-0.8,0.5-1.3,0.6c-0.5,0.1-1.3,0.1-2.2,0c0-0.6-0.3-1.4-0.6-1.9c0.7,0.1,1.4,0.1,1.7,0.1c0.3,0,0.4,0,0.6-0.2
			c0.2-0.2,0.3-0.7,0.4-1.9h-4.3v4.6c0,0.8,0.2,0.9,1.5,0.9H70z"/>
		<path d="M79,254.5c-0.1-0.5-0.4-1.1-0.7-1.7v8.4h-1.8v-6.9c-0.4,1.2-0.8,2.4-1.2,3.2c-0.2-0.6-0.6-1.6-0.8-2.1
			c0.8-1.3,1.6-3.6,2-5.6h-1.5v-2h1.6v-3.3h1.8v3.3h1.2v2h-1.2v0.8c0.4,0.5,1.4,2.2,1.7,2.6L79,254.5z M90.4,255.8
			c-0.5,1-1.2,1.9-2,2.6c0.3,0.4,0.7,0.6,1.1,0.6c0.3,0,0.6-0.6,0.7-1.9c0.3,0.4,1,0.9,1.4,1.1c-0.5,2.2-1.2,2.9-2,2.8
			c-1.1-0.1-1.9-0.6-2.6-1.5c-0.8,0.6-1.8,1.1-2.8,1.5c-0.2-0.4-0.7-1-1.1-1.4c1.2-0.4,2.2-1,3.1-1.6c-0.4-0.8-0.7-1.8-0.9-2.9h-2.4
			c0,0.1,0,0.3,0,0.4c0.7,0.6,1.8,1.4,2.3,1.9l-1.3,1.3c-0.3-0.4-0.8-0.8-1.4-1.3c-0.4,1.3-1.1,2.6-2.4,3.6c-0.3-0.3-1-1-1.4-1.2
			c1.9-1.4,2.4-3.2,2.4-4.7h-1.1v-1.6h5c-0.3-1.8-0.5-4-0.6-6.3c-0.7,1.3-1.6,2.7-2.4,3.7l1-0.1c-0.1-0.3-0.2-0.6-0.2-0.8l1.2-0.3
			c0.3,0.8,0.6,1.9,0.7,2.6l-1.3,0.4c0-0.2-0.1-0.4-0.1-0.6c-2.2,0.3-2.6,0.4-2.8,0.6c-0.1-0.3-0.3-1.1-0.5-1.5
			c0.3-0.1,0.6-0.4,0.9-0.8c0.2-0.2,0.5-0.7,0.9-1.3c-1,0.1-1.3,0.2-1.4,0.3c-0.1-0.3-0.3-1-0.5-1.4c0.2-0.1,0.5-0.3,0.6-0.6
			c0.2-0.3,0.9-1.6,1.2-2.9l1.5,0.4c-0.4,1-1,2.1-1.5,3l0.8-0.1c0.2-0.4,0.4-0.8,0.5-1.1l1.5,0.5c0-0.9-0.1-1.8-0.1-2.7H86
			c0.1,3.5,0.3,6.7,0.8,9.1h1.7c-0.3-0.3-0.6-0.5-0.9-0.8l0.8-0.7c-0.8,0.1-1.1,0.2-1.3,0.3c-0.1-0.3-0.3-1.1-0.5-1.5
			c0.3-0.1,0.6-0.4,0.9-0.8c0.2-0.2,0.5-0.7,0.8-1.3c-0.9,0.1-1.2,0.2-1.4,0.3c-0.1-0.3-0.3-1-0.5-1.4c0.2-0.1,0.4-0.3,0.6-0.6
			c0.2-0.3,0.8-1.5,1.1-2.7l1.5,0.4c-0.4,1-0.9,2-1.4,2.8l0.8-0.1c0.2-0.4,0.3-0.8,0.5-1.1l1.5,0.5c-0.7,1.3-1.5,2.7-2.4,3.8l1-0.1
			c-0.1-0.3-0.2-0.5-0.3-0.7l1.2-0.3c0.3,0.8,0.7,2,0.8,2.6l-1.3,0.4c0-0.2-0.1-0.5-0.2-0.7c-0.5,0.1-0.8,0.1-1.1,0.2
			c0.5,0.4,1.1,0.8,1.4,1.1l-0.5,0.4h1.4v1.6H89L90.4,255.8z M87.1,255.2c0.1,0.6,0.3,1.1,0.5,1.6c0.4-0.5,0.8-1,1.1-1.6H87.1z"/>
	</g>
	<rect x="393" y="42.6" class="st3" width="12.7" height="12.7"/>
	<g>
		<g>
			<path d="M22.4,331.6c2.6-2.6,4-4.1,4-5.5c0-1-0.5-1.7-1.6-1.7c-0.7,0-1.3,0.5-1.8,1l-0.6-0.6c0.7-0.8,1.5-1.3,2.6-1.3
				c1.6,0,2.6,1,2.6,2.5c0,1.6-1.5,3.2-3.5,5.3c0.5,0,1-0.1,1.4-0.1h2.5v0.9h-5.5V331.6z"/>
			<path d="M29.1,327.9c0-2.9,1-4.4,2.7-4.4s2.7,1.5,2.7,4.4c0,2.9-1,4.5-2.7,4.5S29.1,330.8,29.1,327.9z M33.5,327.9
				c0-2.5-0.7-3.5-1.7-3.5c-1,0-1.7,1-1.7,3.5s0.7,3.6,1.7,3.6C32.8,331.5,33.5,330.5,33.5,327.9z"/>
			<path d="M35.7,327.9c0-2.9,1-4.4,2.7-4.4c1.7,0,2.7,1.5,2.7,4.4c0,2.9-1,4.5-2.7,4.5C36.8,332.4,35.7,330.8,35.7,327.9z
				 M40.1,327.9c0-2.5-0.7-3.5-1.7-3.5c-1,0-1.7,1-1.7,3.5s0.7,3.6,1.7,3.6C39.5,331.5,40.1,330.5,40.1,327.9z"/>
			<path d="M46.6,324.6h-4.3v-0.9h5.5v0.7c-2,2.6-2.4,4.5-2.6,7.9h-1.1C44.3,329,45,327,46.6,324.6z"/>
		</g>
		<g>
			<path d="M101.5,331.6c2.6-2.6,4-4.1,4-5.5c0-1-0.5-1.7-1.6-1.7c-0.7,0-1.3,0.5-1.8,1l-0.6-0.6c0.7-0.8,1.5-1.3,2.6-1.3
				c1.6,0,2.6,1,2.6,2.5c0,1.6-1.5,3.2-3.5,5.3c0.5,0,1-0.1,1.4-0.1h2.5v0.9h-5.5V331.6z"/>
			<path d="M108.3,327.9c0-2.9,1-4.4,2.7-4.4s2.7,1.5,2.7,4.4c0,2.9-1,4.5-2.7,4.5S108.3,330.8,108.3,327.9z M112.7,327.9
				c0-2.5-0.7-3.5-1.7-3.5c-1,0-1.7,1-1.7,3.5s0.7,3.6,1.7,3.6C112,331.5,112.7,330.5,112.7,327.9z"/>
			<path d="M114.9,327.9c0-2.9,1-4.4,2.7-4.4c1.7,0,2.7,1.5,2.7,4.4c0,2.9-1,4.5-2.7,4.5C116,332.4,114.9,330.8,114.9,327.9z
				 M119.3,327.9c0-2.5-0.7-3.5-1.7-3.5c-1,0-1.7,1-1.7,3.5s0.7,3.6,1.7,3.6C118.7,331.5,119.3,330.5,119.3,327.9z"/>
			<path d="M121.5,330.1c0-1.1,0.8-1.9,1.6-2.3v0c-0.6-0.4-1.2-1.1-1.2-2c0-1.3,1-2.2,2.4-2.2c1.5,0,2.4,0.9,2.4,2.3
				c0,0.9-0.7,1.7-1.2,2.1v0.1c0.8,0.5,1.5,1.1,1.5,2.2c0,1.3-1.1,2.3-2.8,2.3C122.7,332.4,121.5,331.4,121.5,330.1z M126,330.1
				c0-1.1-1.1-1.5-2.3-2c-0.7,0.4-1.2,1.1-1.2,1.9c0,0.9,0.8,1.6,1.8,1.6C125.4,331.6,126,331,126,330.1z M125.8,325.9
				c0-0.8-0.5-1.5-1.5-1.5c-0.8,0-1.4,0.5-1.4,1.4c0,1,0.9,1.5,2,1.9C125.5,327.1,125.8,326.5,125.8,325.9z"/>
		</g>
		<g>
			<path d="M180.7,331.6c2.6-2.6,4-4.1,4-5.5c0-1-0.5-1.7-1.6-1.7c-0.7,0-1.3,0.5-1.8,1l-0.6-0.6c0.7-0.8,1.5-1.3,2.6-1.3
				c1.6,0,2.6,1,2.6,2.5c0,1.6-1.5,3.2-3.5,5.3c0.5,0,1-0.1,1.4-0.1h2.5v0.9h-5.5V331.6z"/>
			<path d="M187.4,327.9c0-2.9,1-4.4,2.7-4.4s2.7,1.5,2.7,4.4c0,2.9-1,4.5-2.7,4.5S187.4,330.8,187.4,327.9z M191.9,327.9
				c0-2.5-0.7-3.5-1.7-3.5c-1,0-1.7,1-1.7,3.5s0.7,3.6,1.7,3.6C191.2,331.5,191.9,330.5,191.9,327.9z"/>
			<path d="M194.1,327.9c0-2.9,1-4.4,2.7-4.4c1.7,0,2.7,1.5,2.7,4.4c0,2.9-1,4.5-2.7,4.5C195.1,332.4,194.1,330.8,194.1,327.9z
				 M198.5,327.9c0-2.5-0.7-3.5-1.7-3.5c-1,0-1.7,1-1.7,3.5s0.7,3.6,1.7,3.6C197.8,331.5,198.5,330.5,198.5,327.9z"/>
			<path d="M200.9,331.5l0.6-0.7c0.3,0.4,0.9,0.7,1.4,0.7c1.2,0,2.2-0.9,2.3-3.7c-0.6,0.7-1.3,1.1-2,1.1c-1.5,0-2.4-0.9-2.4-2.7
				c0-1.6,1.2-2.7,2.5-2.7c1.7,0,3,1.4,3,4.1c0,3.4-1.5,4.7-3.3,4.7C202,332.4,201.3,332,200.9,331.5z M203.3,328.1
				c0.6,0,1.2-0.3,1.8-1.2c-0.1-1.7-0.8-2.5-1.9-2.5c-0.8,0-1.5,0.7-1.5,1.9C201.7,327.4,202.3,328.1,203.3,328.1z"/>
		</g>
		<g>
			<path d="M259.9,331.6c2.6-2.6,4-4.1,4-5.5c0-1-0.5-1.7-1.6-1.7c-0.7,0-1.3,0.5-1.8,1l-0.6-0.6c0.7-0.8,1.5-1.3,2.6-1.3
				c1.6,0,2.6,1,2.6,2.5c0,1.6-1.5,3.2-3.5,5.3c0.5,0,1-0.1,1.4-0.1h2.5v0.9h-5.5V331.6z"/>
			<path d="M266.6,327.9c0-2.9,1-4.4,2.7-4.4s2.7,1.5,2.7,4.4c0,2.9-1,4.5-2.7,4.5S266.6,330.8,266.6,327.9z M271,327.9
				c0-2.5-0.7-3.5-1.7-3.5c-1,0-1.7,1-1.7,3.5s0.7,3.6,1.7,3.6C270.4,331.5,271,330.5,271,327.9z"/>
			<path d="M273.7,331.3h2V325h-1.6v-0.7c0.8-0.1,1.3-0.3,1.8-0.6h0.8v7.6h1.8v0.9h-4.8V331.3z"/>
			<path d="M279.9,327.9c0-2.9,1-4.4,2.7-4.4s2.7,1.5,2.7,4.4c0,2.9-1,4.5-2.7,4.5S279.9,330.8,279.9,327.9z M284.4,327.9
				c0-2.5-0.7-3.5-1.7-3.5c-1,0-1.7,1-1.7,3.5s0.7,3.6,1.7,3.6C283.7,331.5,284.4,330.5,284.4,327.9z"/>
		</g>
		<g>
			<path d="M339.1,331.6c2.6-2.6,4-4.1,4-5.5c0-1-0.5-1.7-1.6-1.7c-0.7,0-1.3,0.5-1.8,1l-0.6-0.6c0.7-0.8,1.5-1.3,2.6-1.3
				c1.6,0,2.6,1,2.6,2.5c0,1.6-1.5,3.2-3.5,5.3c0.5,0,1-0.1,1.4-0.1h2.5v0.9h-5.5V331.6z"/>
			<path d="M345.8,327.9c0-2.9,1-4.4,2.7-4.4s2.7,1.5,2.7,4.4c0,2.9-1,4.5-2.7,4.5S345.8,330.8,345.8,327.9z M350.2,327.9
				c0-2.5-0.7-3.5-1.7-3.5c-1,0-1.7,1-1.7,3.5s0.7,3.6,1.7,3.6C349.5,331.5,350.2,330.5,350.2,327.9z"/>
			<path d="M352.9,331.3h2V325h-1.6v-0.7c0.8-0.1,1.3-0.3,1.8-0.6h0.8v7.6h1.8v0.9h-4.8V331.3z"/>
			<path d="M359.6,331.3h2V325H360v-0.7c0.8-0.1,1.3-0.3,1.8-0.6h0.8v7.6h1.8v0.9h-4.8V331.3z"/>
		</g>
		<g>
			<path d="M418.3,331.6c2.6-2.6,4-4.1,4-5.5c0-1-0.5-1.7-1.6-1.7c-0.7,0-1.3,0.5-1.8,1l-0.6-0.6c0.7-0.8,1.5-1.3,2.6-1.3
				c1.6,0,2.6,1,2.6,2.5c0,1.6-1.5,3.2-3.5,5.3c0.5,0,1-0.1,1.4-0.1h2.5v0.9h-5.5V331.6z"/>
			<path d="M425,327.9c0-2.9,1-4.4,2.7-4.4s2.7,1.5,2.7,4.4c0,2.9-1,4.5-2.7,4.5S425,330.8,425,327.9z M429.4,327.9
				c0-2.5-0.7-3.5-1.7-3.5c-1,0-1.7,1-1.7,3.5s0.7,3.6,1.7,3.6C428.7,331.5,429.4,330.5,429.4,327.9z"/>
			<path d="M432.1,331.3h2V325h-1.6v-0.7c0.8-0.1,1.3-0.3,1.8-0.6h0.8v7.6h1.8v0.9h-4.8V331.3z"/>
			<path d="M438.2,331.6c2.6-2.6,4-4.1,4-5.5c0-1-0.5-1.7-1.6-1.7c-0.7,0-1.3,0.5-1.8,1l-0.6-0.6c0.7-0.8,1.5-1.3,2.6-1.3
				c1.6,0,2.6,1,2.6,2.5c0,1.6-1.5,3.2-3.5,5.3c0.5,0,1-0.1,1.4-0.1h2.5v0.9h-5.5V331.6z"/>
		</g>
		<g>
			<path d="M497.4,331.6c2.6-2.6,4-4.1,4-5.5c0-1-0.5-1.7-1.6-1.7c-0.7,0-1.3,0.5-1.8,1l-0.6-0.6c0.7-0.8,1.5-1.3,2.6-1.3
				c1.6,0,2.6,1,2.6,2.5c0,1.6-1.5,3.2-3.5,5.3c0.5,0,1-0.1,1.4-0.1h2.5v0.9h-5.5V331.6z"/>
			<path d="M504.2,327.9c0-2.9,1-4.4,2.7-4.4s2.7,1.5,2.7,4.4c0,2.9-1,4.5-2.7,4.5S504.2,330.8,504.2,327.9z M508.6,327.9
				c0-2.5-0.7-3.5-1.7-3.5c-1,0-1.7,1-1.7,3.5s0.7,3.6,1.7,3.6C507.9,331.5,508.6,330.5,508.6,327.9z"/>
			<path d="M511.3,331.3h2V325h-1.6v-0.7c0.8-0.1,1.3-0.3,1.8-0.6h0.8v7.6h1.8v0.9h-4.8V331.3z"/>
			<path d="M517.2,331.2l0.6-0.7c0.5,0.5,1.2,1,2.2,1c1,0,1.8-0.6,1.8-1.6c0-1-0.7-1.7-2.7-1.7v-0.8c1.8,0,2.4-0.7,2.4-1.6
				c0-0.8-0.6-1.4-1.5-1.4c-0.7,0-1.3,0.4-1.8,0.9l-0.6-0.7c0.7-0.6,1.4-1.1,2.5-1.1c1.5,0,2.6,0.8,2.6,2.2c0,1-0.6,1.7-1.6,2v0
				c1,0.3,1.9,1,1.9,2.2c0,1.5-1.3,2.4-2.8,2.4C518.7,332.4,517.8,331.8,517.2,331.2z"/>
		</g>
	</g>
	<g>
		<path d="M572.8,258.7c0-1.1,0.8-1.9,1.6-2.3v0c-0.6-0.4-1.2-1.1-1.2-2c0-1.3,1-2.2,2.4-2.2c1.5,0,2.4,0.9,2.4,2.3
			c0,0.9-0.7,1.7-1.2,2.1v0.1c0.8,0.5,1.5,1.1,1.5,2.2c0,1.3-1.1,2.3-2.8,2.3C574,261,572.8,260,572.8,258.7z M577.3,258.7
			c0-1.1-1.1-1.5-2.3-2c-0.7,0.4-1.2,1.1-1.2,1.9c0,0.9,0.8,1.6,1.8,1.6C576.7,260.2,577.3,259.6,577.3,258.7z M577.1,254.5
			c0-0.8-0.5-1.5-1.5-1.5c-0.8,0-1.4,0.5-1.4,1.4c0,1,0.9,1.5,2,1.9C576.8,255.7,577.1,255.1,577.1,254.5z"/>
		<path d="M579.5,256.5c0-2.9,1-4.4,2.7-4.4s2.7,1.5,2.7,4.4c0,2.9-1,4.5-2.7,4.5S579.5,259.4,579.5,256.5z M583.9,256.5
			c0-2.5-0.7-3.5-1.7-3.5c-1,0-1.7,1-1.7,3.5s0.7,3.6,1.7,3.6C583.3,260.1,583.9,259,583.9,256.5z"/>
		<path d="M586.2,256.5c0-2.9,1-4.4,2.7-4.4s2.7,1.5,2.7,4.4c0,2.9-1,4.5-2.7,4.5S586.2,259.4,586.2,256.5z M590.6,256.5
			c0-2.5-0.7-3.5-1.7-3.5c-1,0-1.7,1-1.7,3.5s0.7,3.6,1.7,3.6C589.9,260.1,590.6,259,590.6,256.5z"/>
	</g>
	<g>
		<path d="M573.3,205.4h2v-6.3h-1.6v-0.7c0.8-0.1,1.3-0.3,1.8-0.6h0.8v7.6h1.8v0.9h-4.8V205.4z"/>
		<path d="M579.5,202c0-2.9,1-4.4,2.7-4.4s2.7,1.5,2.7,4.4c0,2.9-1,4.5-2.7,4.5S579.5,204.8,579.5,202z M583.9,202
			c0-2.5-0.7-3.5-1.7-3.5c-1,0-1.7,1-1.7,3.5s0.7,3.6,1.7,3.6C583.3,205.6,583.9,204.5,583.9,202z"/>
		<path d="M586.2,202c0-2.9,1-4.4,2.7-4.4s2.7,1.5,2.7,4.4c0,2.9-1,4.5-2.7,4.5S586.2,204.8,586.2,202z M590.6,202
			c0-2.5-0.7-3.5-1.7-3.5c-1,0-1.7,1-1.7,3.5s0.7,3.6,1.7,3.6C589.9,205.6,590.6,204.5,590.6,202z"/>
		<path d="M592.9,202c0-2.9,1-4.4,2.7-4.4s2.7,1.5,2.7,4.4c0,2.9-1,4.5-2.7,4.5S592.9,204.8,592.9,202z M597.3,202
			c0-2.5-0.7-3.5-1.7-3.5c-1,0-1.7,1-1.7,3.5s0.7,3.6,1.7,3.6C596.6,205.6,597.3,204.5,597.3,202z"/>
	</g>
	<g>
		<path d="M573.3,150.8h2v-6.3h-1.6v-0.7c0.8-0.1,1.3-0.3,1.8-0.6h0.8v7.6h1.8v0.9h-4.8V150.8z"/>
		<path d="M579.5,151.1c2.6-2.6,4-4.1,4-5.5c0-1-0.5-1.7-1.6-1.7c-0.7,0-1.3,0.5-1.8,1l-0.6-0.6c0.7-0.8,1.5-1.3,2.6-1.3
			c1.6,0,2.6,1,2.6,2.5c0,1.6-1.5,3.2-3.5,5.3c0.5,0,1-0.1,1.4-0.1h2.5v0.9h-5.5V151.1z"/>
		<path d="M586.2,147.4c0-2.9,1-4.4,2.7-4.4s2.7,1.5,2.7,4.4c0,2.9-1,4.5-2.7,4.5S586.2,150.3,586.2,147.4z M590.6,147.4
			c0-2.5-0.7-3.5-1.7-3.5c-1,0-1.7,1-1.7,3.5s0.7,3.6,1.7,3.6C589.9,151,590.6,149.9,590.6,147.4z"/>
		<path d="M592.9,147.4c0-2.9,1-4.4,2.7-4.4s2.7,1.5,2.7,4.4c0,2.9-1,4.5-2.7,4.5S592.9,150.3,592.9,147.4z M597.3,147.4
			c0-2.5-0.7-3.5-1.7-3.5c-1,0-1.7,1-1.7,3.5s0.7,3.6,1.7,3.6C596.6,151,597.3,149.9,597.3,147.4z"/>
	</g>
	<g>
		<path d="M573.3,96.3h2V90h-1.6v-0.7c0.8-0.1,1.3-0.3,1.8-0.6h0.8v7.6h1.8v0.9h-4.8V96.3z"/>
		<path d="M583,94.8h-3.8v-0.7l3.7-5.5h1.2v5.3h1.2v0.9h-1.2v2.4h-1V94.8z M583,93.9v-2.5c0-0.4,0-1.2,0.1-1.6h0
			c-0.2,0.4-0.5,0.8-0.7,1.2l-2,2.9H583z"/>
		<path d="M586.2,92.9c0-2.9,1-4.4,2.7-4.4s2.7,1.5,2.7,4.4c0,2.9-1,4.5-2.7,4.5S586.2,95.7,586.2,92.9z M590.6,92.9
			c0-2.5-0.7-3.5-1.7-3.5c-1,0-1.7,1-1.7,3.5s0.7,3.6,1.7,3.6C589.9,96.5,590.6,95.4,590.6,92.9z"/>
		<path d="M592.9,92.9c0-2.9,1-4.4,2.7-4.4s2.7,1.5,2.7,4.4c0,2.9-1,4.5-2.7,4.5S592.9,95.7,592.9,92.9z M597.3,92.9
			c0-2.5-0.7-3.5-1.7-3.5c-1,0-1.7,1-1.7,3.5s0.7,3.6,1.7,3.6C596.6,96.5,597.3,95.4,597.3,92.9z"/>
	</g>
	<g>
		<path d="M573.3,41.7h2v-6.3h-1.6v-0.7c0.8-0.1,1.3-0.3,1.8-0.6h0.8v7.6h1.8v0.9h-4.8V41.7z"/>
		<path d="M579.6,38.7c0-3.4,1.5-4.8,3.3-4.8c0.9,0,1.6,0.4,2.1,0.9l-0.6,0.7c-0.3-0.4-0.9-0.7-1.4-0.7c-1.2,0-2.2,0.9-2.3,3.6
			c0.6-0.7,1.3-1.1,2-1.1c1.5,0,2.4,0.9,2.4,2.6c0,1.6-1.2,2.7-2.5,2.7C580.9,42.8,579.6,41.4,579.6,38.7z M580.6,39.4
			c0.1,1.7,0.8,2.6,1.9,2.6c0.9,0,1.5-0.8,1.5-1.9c0-1.1-0.5-1.8-1.6-1.8C581.9,38.2,581.2,38.5,580.6,39.4z"/>
		<path d="M586.2,38.3c0-2.9,1-4.4,2.7-4.4s2.7,1.5,2.7,4.4c0,2.9-1,4.5-2.7,4.5S586.2,41.2,586.2,38.3z M590.6,38.3
			c0-2.5-0.7-3.5-1.7-3.5c-1,0-1.7,1-1.7,3.5s0.7,3.6,1.7,3.6C589.9,41.9,590.6,40.8,590.6,38.3z"/>
		<path d="M592.9,38.3c0-2.9,1-4.4,2.7-4.4s2.7,1.5,2.7,4.4c0,2.9-1,4.5-2.7,4.5S592.9,41.2,592.9,38.3z M597.3,38.3
			c0-2.5-0.7-3.5-1.7-3.5c-1,0-1.7,1-1.7,3.5s0.7,3.6,1.7,3.6C596.6,41.9,597.3,40.8,597.3,38.3z"/>
	</g>
	<line class="st4" x1="0" y1="313.9" x2="566.5" y2="313.9"/>
	<line class="st4" x1="566.5" y1="313.9" x2="566.5" y2="0"/>
	<line class="st4" x1="77.2" y1="313.9" x2="77.2" y2="340"/>
	<line class="st4" x1="156.1" y1="313.9" x2="156.1" y2="340"/>
	<line class="st4" x1="235.1" y1="313.9" x2="235.1" y2="340"/>
	<line class="st4" x1="314" y1="313.9" x2="314" y2="340"/>
	<line class="st4" x1="393" y1="313.9" x2="393" y2="340"/>
	<line class="st4" x1="471.9" y1="313.9" x2="471.9" y2="340"/>
	<line class="st4" x1="550.9" y1="313.9" x2="550.9" y2="340"/>
	<g>
		<polygon class="st3" points="619.2,33.4 574.3,33.4 566.1,23.2 574.3,12.9 619.2,12.9 		"/>
		<g>
			<path class="st5" d="M574.3,26.6h2v-6.3h-1.6v-0.7c0.8-0.1,1.3-0.3,1.8-0.6h0.8v7.6h1.8v0.9h-4.8V26.6z"/>
			<path class="st5" d="M580.6,23.6c0-3.4,1.5-4.8,3.3-4.8c0.9,0,1.6,0.4,2.1,0.9l-0.6,0.7c-0.3-0.4-0.9-0.7-1.4-0.7
				c-1.2,0-2.2,0.9-2.3,3.6c0.6-0.7,1.3-1.1,2-1.1c1.5,0,2.4,0.9,2.4,2.6c0,1.6-1.2,2.7-2.5,2.7C581.9,27.7,580.6,26.3,580.6,23.6z
				 M581.6,24.3c0.1,1.7,0.8,2.6,1.9,2.6c0.9,0,1.5-0.8,1.5-1.9c0-1.1-0.5-1.8-1.6-1.8C582.9,23.1,582.2,23.4,581.6,24.3z"/>
			<path class="st5" d="M587.3,23.6c0-3.4,1.5-4.8,3.3-4.8c0.9,0,1.6,0.4,2.1,0.9l-0.6,0.7c-0.3-0.4-0.9-0.7-1.4-0.7
				c-1.2,0-2.2,0.9-2.3,3.6c0.6-0.7,1.3-1.1,2-1.1c1.5,0,2.4,0.9,2.4,2.6c0,1.6-1.2,2.7-2.5,2.7C588.5,27.7,587.3,26.3,587.3,23.6z
				 M588.3,24.3c0.1,1.7,0.8,2.6,1.9,2.6c0.9,0,1.5-0.8,1.5-1.9c0-1.1-0.5-1.8-1.6-1.8C589.6,23.1,588.9,23.4,588.3,24.3z"/>
			<path class="st5" d="M594.3,26.6h2v-6.3h-1.6v-0.7c0.8-0.1,1.3-0.3,1.8-0.6h0.8v7.6h1.8v0.9h-4.8V26.6z"/>
			<path class="st5" d="M600.8,26.9c0-0.5,0.4-0.9,0.8-0.9s0.8,0.3,0.8,0.9c0,0.5-0.4,0.8-0.8,0.8S600.8,27.3,600.8,26.9z"/>
			<path class="st5" d="M603.8,23.2c0-2.9,1-4.4,2.7-4.4c1.7,0,2.7,1.5,2.7,4.4c0,2.9-1,4.5-2.7,4.5
				C604.9,27.7,603.8,26.1,603.8,23.2z M608.3,23.2c0-2.5-0.7-3.5-1.7-3.5c-1,0-1.7,1-1.7,3.5s0.7,3.6,1.7,3.6
				C607.6,26.8,608.3,25.7,608.3,23.2z"/>
			<path class="st5" d="M614.8,19.9h-4.3V19h5.5v0.7c-2,2.6-2.4,4.5-2.6,7.9h-1.1C612.4,24.3,613.1,22.3,614.8,19.9z"/>
		</g>
	</g>
	<path class="st6" d="M0,75.7l10.4-17.9l2.3,17.9l3.3-13.9l9-17.9l7.3-6.3v7.6l1.7-5.6l2.3,2.3l5-14.6l1.3,27.2l4.3,6.3V71l3-19.5
		l2,6l2-10V36.2l3.3-3.6c0,0,0.7-10.3,2.3-9.3c1.7,1,2.3,10,2.3,10l2-5.6v5l1.7,11.3l2.7,5.6l3.3-15.9l3,13.9l2.3-3l2,18.6l2,22.9
		l3.3-11.9v18.2l5.7-10.9l2,10.9l2.3,3.3l2.2-16.1l1.2-8.5l6.7-8.2l2.3-8.6l2.3,10l10,46.8l2.3-3.3l7.7,7l1.7,16.9l3-4.3l2.3,8.1
		l2.3,93.4l1.3-9.3l1.7,19.9l2-22.6l4,42.8l1.7-24.6l1.7,10.6l4-14.9l1.7-10.9l2,7.3l3.3,25.2l2-11.3l2.7,26.2l3.7,18.9l4.3-36.8
		l6-13.9l2.7-16.9l2.3,7l2.3-10.9l3.3-7l1.7,6.6l2,3.3l2.3,10l3.3-29.5l7.7-17.3l1.7,4.3l3.3-17.3l2,13.6l3.7-17.9l2.3,12.3
		l3.7-13.9l2,4.3l2-7.6l3.3,8l2.7-8l3.3-6l5,26.9l4-10l2-10.6l4.3-6.3l4-8.3l2.7,2.3l3,31.5l4.7,10.6l3-12.9l3.7,17.6l2.3-13.6
		l3.7-8.3v-7.6l3.3,14.3l3.3,3.3v-12l6.3-13.2l2.3-9l4.6-3l1.7-10l3.7,12.9l2-9l3-2.7l1.7-5l2.7-2.7l1.7-6.3l3.7,1.7v-8l3.7-8.3
		l3.3,5l2,14.9l5.3-16.6l2,3.3l3-13.6l3.3,12.6l3.7,3l1.3,11.6l2,2l2.3-17.6l3,8l2.3-7.6l3.3,39.2l2.3,16.6l3.3-10.6l2,12.2v-11.9
		l3,20.2l3.3-6.3v-17.9l3.3-17.3l2.7,13.6l3.7,27.9l2.3-22.9l1.7,9.3l1.7-8l4.7-5.3l1.3-10l2-2l1.7-7.3l5.3-7.6l4.3-4.3l2,3.6
		l2.7,8.6l3-7.6l2.7,14.9l2.3,16.9l3,5.3l6-20.6l3,4l7.3-18.9l4,3.3l2.3-17.9l4,8.3l5.7,3.3l3.7,12.6l2.7-14.6l5.3-4.6l7.7-22.2
		l6,3.3l4.3-12.3l3.7,6.3l2.3-11.3l1.7,9.3l6-24.6l3,12.3l3,2.3l2,11.3l2.7-8.6l1.7-14.6l5.3-7.3l5.3,15.9l4.3-24.2l3,4.3l5.3-16.9
		l2.3,4.6l4.3-10l2.7,9.3l3-15.3l1.7-2.3"/>
</g>
<g>
	<g>
		<g>
			<g>
				<line class="st0" x1="0" y1="646.2" x2="2" y2="646.2"/>
				<line class="st1" x1="6" y1="646.2" x2="562.5" y2="646.2"/>
				<line class="st0" x1="564.5" y1="646.2" x2="566.5" y2="646.2"/>
			</g>
		</g>
		<g>
			<g>
				<line class="st0" x1="0" y1="592.1" x2="2" y2="592.1"/>
				<line class="st1" x1="6" y1="592.1" x2="562.5" y2="592.1"/>
				<line class="st0" x1="564.5" y1="592.1" x2="566.5" y2="592.1"/>
			</g>
		</g>
		<g>
			<g>
				<line class="st0" x1="0" y1="537" x2="2" y2="537"/>
				<line class="st1" x1="6" y1="537" x2="562.5" y2="537"/>
				<line class="st0" x1="564.5" y1="537" x2="566.5" y2="537"/>
			</g>
		</g>
		<g>
			<g>
				<line class="st0" x1="0" y1="482" x2="2" y2="482"/>
				<line class="st1" x1="6" y1="482" x2="562.5" y2="482"/>
				<line class="st0" x1="564.5" y1="482" x2="566.5" y2="482"/>
			</g>
		</g>
		<g>
			<g>
				<line class="st0" x1="0" y1="426.9" x2="2" y2="426.9"/>
				<line class="st1" x1="6" y1="426.9" x2="562.5" y2="426.9"/>
				<line class="st0" x1="564.5" y1="426.9" x2="566.5" y2="426.9"/>
			</g>
		</g>
	</g>
	<path class="st2" d="M0,464.6l10.4-17.9l2.3,17.9l3.3-13.9l9-17.9l7.3-6.3v7.6l1.7-5.6l2.3,2.3l5-14.6l1.3,27.2l4.3,6.3v10.2
		l3-19.5l2,6l2-10v-11.3l3.3-3.6c0,0,0.7-10.3,2.3-9.3c1.7,1,2.3,10,2.3,10l2-5.6v5l1.7,11.3l2.7,5.6l3.3-15.9l3,13.9l2.3-3l2,18.6
		l2,22.9l3.3-11.9v18.2l5.7-10.9l2,10.9l2.3,3.3l2.2-16.1l1.2-8.5l6.7-8.2l2.3-8.6l2.3,10l10,46.8l2.3-3.3l7.7,7l1.7,16.9l3-4.3
		l2.3,8.1l2.3,93.4l1.3-9.3l1.7,19.9l2-22.6l4,42.8l1.7-24.6l1.7,10.6l4-14.9l1.7-10.9l2,7.3l3.3,25.2l2-11.3l2.7,26.2l3.7,18.9
		l4.3-36.8l6-13.9l2.7-16.9l2.3,7l2.3-10.9l3.3-7l1.7,6.6l2,3.3l2.3,10l3.3-29.5l7.7-17.3l1.7,4.3l3.3-17.3l2,13.6l3.7-17.9
		l2.3,12.3l3.7-13.9l2,4.3l2-7.6l3.3,8l2.7-8l3.3-6l5,26.9l4-10l2-10.6l4.3-6.3l4-8.3l2.7,2.3l3,31.5l4.7,10.6l3-12.9l3.7,17.6
		l2.3-13.6l3.7-8.3v-7.6l3.3,14.3l3.3,3.3v-12l6.3-13.2l2.3-9l4.6-3l1.7-10l3.7,12.9l2-9l3-2.7l1.7-5l2.7-2.7l1.7-6.3l3.7,1.7v-8
		l3.7-8.3l3.3,5l2,14.9l5.3-16.6l2,3.3l3-13.6l3.3,12.6l3.7,3l1.3,11.6l2,2l2.3-17.6l3,8l2.3-7.6l3.3,39.2l2.3,16.6l3.3-10.6l2,12.2
		v-11.9l3,20.2l3.3-6.3v-17.9l3.3-17.3l2.7,13.6l3.7,27.9l2.3-22.9l1.7,9.3l1.7-8l4.7-5.3l1.3-10l2-2l1.7-7.3l5.3-7.6l4.3-4.3l2,3.6
		l2.7,8.6l3-7.6l2.7,14.9l2.3,16.9l3,5.3l6-20.6l3,4l7.3-18.9l4,3.3l2.3-17.9l4,8.3l5.7,3.3l3.7,12.6l2.7-14.6l5.3-4.6l7.7-22.2
		l6,3.3l4.3-12.3l3.7,6.3l2.3-11.3l1.7,9.3l6-24.6l3,12.3l3,2.3l2,11.3l2.7-8.6l1.7-14.6l5.3-7.3l5.3,15.9l4.3-24.2l3,4.3l5.3-16.9
		l2.3,4.6l4.3-10l2.7,9.3l3-15.3l1.7-2.3v288.3H0V464.6z"/>
	<text transform="matrix(1 0 0 1 411.6946 444.2407)" style="font-family:'SourceHanSansTW-Bold-B5pc-H'; font-size:18px;">全球股市</text>
	<text transform="matrix(1 0 0 1 20.0769 626.8824)"><tspan x="0" y="0" style="font-family:'SourceHanSansTW-Bold-B5pc-H'; font-size:18px;">雷曼兄弟</tspan><tspan x="0" y="21.6" style="font-family:'SourceHanSansTW-Bold-B5pc-H'; font-size:18px;">破產危機</tspan></text>
	<rect x="393" y="431.5" class="st3" width="12.7" height="12.7"/>
	<g>
		<text transform="matrix(1 0 0 1 21.8246 721.1595)" style="font-family:'SourceHanSansTW-Regular-B5pc-H'; font-size:12px;">2007</text>
		<text transform="matrix(1 0 0 1 101.0076 721.1595)" style="font-family:'SourceHanSansTW-Regular-B5pc-H'; font-size:12px;">2008</text>
		<text transform="matrix(1 0 0 1 180.1902 721.1595)" style="font-family:'SourceHanSansTW-Regular-B5pc-H'; font-size:12px;">2009</text>
		<text transform="matrix(1 0 0 1 259.3727 721.1595)" style="font-family:'SourceHanSansTW-Regular-B5pc-H'; font-size:12px;">2010</text>
		<text transform="matrix(1 0 0 1 338.5555 721.1595)" style="font-family:'SourceHanSansTW-Regular-B5pc-H'; font-size:12px;">2011</text>
		<text transform="matrix(1 0 0 1 417.7385 721.1595)" style="font-family:'SourceHanSansTW-Regular-B5pc-H'; font-size:12px;">2012</text>
		<text transform="matrix(1 0 0 1 496.921 721.1595)" style="font-family:'SourceHanSansTW-Regular-B5pc-H'; font-size:12px;">2013</text>
	</g>
	<text transform="matrix(1 0 0 1 572.285 649.7476)" style="font-family:'SourceHanSansTW-Regular-B5pc-H'; font-size:12px;">800</text>
	<text transform="matrix(1 0 0 1 572.285 595.1944)" style="font-family:'SourceHanSansTW-Regular-B5pc-H'; font-size:12px;">1000</text>
	<text transform="matrix(1 0 0 1 572.285 540.6414)" style="font-family:'SourceHanSansTW-Regular-B5pc-H'; font-size:12px;">1200</text>
	<text transform="matrix(1 0 0 1 572.285 486.088)" style="font-family:'SourceHanSansTW-Regular-B5pc-H'; font-size:12px;">1400</text>
	<text transform="matrix(1 0 0 1 572.285 431.5349)" style="font-family:'SourceHanSansTW-Regular-B5pc-H'; font-size:12px;">1600</text>
	<line class="st4" x1="0" y1="702.8" x2="566.5" y2="702.8"/>
	<line class="st4" x1="566.5" y1="702.8" x2="566.5" y2="388.9"/>
	<line class="st4" x1="77.2" y1="702.8" x2="77.2" y2="728.9"/>
	<line class="st4" x1="156.1" y1="702.8" x2="156.1" y2="728.9"/>
	<line class="st4" x1="235.1" y1="702.8" x2="235.1" y2="728.9"/>
	<line class="st4" x1="314" y1="702.8" x2="314" y2="728.9"/>
	<line class="st4" x1="393" y1="702.8" x2="393" y2="728.9"/>
	<line class="st4" x1="471.9" y1="702.8" x2="471.9" y2="728.9"/>
	<line class="st4" x1="550.9" y1="702.8" x2="550.9" y2="728.9"/>
	<g>
		<polygon class="st3" points="619.2,422.3 574.3,422.3 566.1,412.1 574.3,401.8 619.2,401.8 		"/>
		
			<text transform="matrix(1 0 0 1 573.2854 416.4319)" class="st5" style="font-family:'SourceHanSansTW-Regular-B5pc-H'; font-size:12px;">1661.07</text>
	</g>
	<path class="st6" d="M0,464.6l10.4-17.9l2.3,17.9l3.3-13.9l9-17.9l7.3-6.3v7.6l1.7-5.6l2.3,2.3l5-14.6l1.3,27.2l4.3,6.3v10.2
		l3-19.5l2,6l2-10v-11.3l3.3-3.6c0,0,0.7-10.3,2.3-9.3c1.7,1,2.3,10,2.3,10l2-5.6v5l1.7,11.3l2.7,5.6l3.3-15.9l3,13.9l2.3-3l2,18.6
		l2,22.9l3.3-11.9v18.2l5.7-10.9l2,10.9l2.3,3.3l2.2-16.1l1.2-8.5l6.7-8.2l2.3-8.6l2.3,10l10,46.8l2.3-3.3l7.7,7l1.7,16.9l3-4.3
		l2.3,8.1l2.3,93.4l1.3-9.3l1.7,19.9l2-22.6l4,42.8l1.7-24.6l1.7,10.6l4-14.9l1.7-10.9l2,7.3l3.3,25.2l2-11.3l2.7,26.2l3.7,18.9
		l4.3-36.8l6-13.9l2.7-16.9l2.3,7l2.3-10.9l3.3-7l1.7,6.6l2,3.3l2.3,10l3.3-29.5l7.7-17.3l1.7,4.3l3.3-17.3l2,13.6l3.7-17.9
		l2.3,12.3l3.7-13.9l2,4.3l2-7.6l3.3,8l2.7-8l3.3-6l5,26.9l4-10l2-10.6l4.3-6.3l4-8.3l2.7,2.3l3,31.5l4.7,10.6l3-12.9l3.7,17.6
		l2.3-13.6l3.7-8.3v-7.6l3.3,14.3l3.3,3.3v-12l6.3-13.2l2.3-9l4.6-3l1.7-10l3.7,12.9l2-9l3-2.7l1.7-5l2.7-2.7l1.7-6.3l3.7,1.7v-8
		l3.7-8.3l3.3,5l2,14.9l5.3-16.6l2,3.3l3-13.6l3.3,12.6l3.7,3l1.3,11.6l2,2l2.3-17.6l3,8l2.3-7.6l3.3,39.2l2.3,16.6l3.3-10.6l2,12.2
		v-11.9l3,20.2l3.3-6.3v-17.9l3.3-17.3l2.7,13.6l3.7,27.9l2.3-22.9l1.7,9.3l1.7-8l4.7-5.3l1.3-10l2-2l1.7-7.3l5.3-7.6l4.3-4.3l2,3.6
		l2.7,8.6l3-7.6l2.7,14.9l2.3,16.9l3,5.3l6-20.6l3,4l7.3-18.9l4,3.3l2.3-17.9l4,8.3l5.7,3.3l3.7,12.6l2.7-14.6l5.3-4.6l7.7-22.2
		l6,3.3l4.3-12.3l3.7,6.3l2.3-11.3l1.7,9.3l6-24.6l3,12.3l3,2.3l2,11.3l2.7-8.6l1.7-14.6l5.3-7.3l5.3,15.9l4.3-24.2l3,4.3l5.3-16.9
		l2.3,4.6l4.3-10l2.7,9.3l3-15.3l1.7-2.3"/>
</g>
</svg>
