<?xml version="1.0" encoding="utf-8"?>
<!-- Generator: Adobe Illustrator 24.1.1, SVG Export Plug-In . SVG Version: 6.00 Build 0)  -->
<svg version="1.1" id="圖層_1" xmlns="http://www.w3.org/2000/svg" xmlns:xlink="http://www.w3.org/1999/xlink" x="0px" y="0px"
	 viewBox="0 0 620 340" style="enable-background:new 0 0 620 340;" xml:space="preserve">
<style type="text/css">
	.st0{fill:none;stroke:#CCCCCC;stroke-miterlimit:10;}
	.st1{fill:#606060;}
	.st2{fill:#0A4EAA;}
	.st3{fill:#A83323;}
	.st4{fill:#DCDCDC;}
</style>
<g>
	<line class="st0" x1="52.4" y1="608.4" x2="620" y2="608.4"/>
	<line class="st0" x1="52.4" y1="657.1" x2="620" y2="657.1"/>
	<line class="st0" x1="52.4" y1="705.8" x2="620" y2="705.8"/>
	<line class="st0" x1="52.4" y1="754.5" x2="620" y2="754.5"/>
	<line class="st0" x1="52.4" y1="803.2" x2="620" y2="803.2"/>
	<line class="st0" x1="52.4" y1="851.9" x2="620" y2="851.9"/>
	<g>
		<rect x="64.6" y="754.5" class="st1" width="12.5" height="42.9"/>
		<rect x="80" y="732.3" class="st2" width="12.5" height="22.2"/>
		<rect x="95.4" y="722.8" class="st3" width="12.5" height="31.7"/>
	</g>
	<g>
		<rect x="135.5" y="754.5" class="st1" width="12.5" height="26.6"/>
		<rect x="151" y="736.8" class="st2" width="12.5" height="17.7"/>
		<rect x="166.4" y="729.6" class="st3" width="12.5" height="25"/>
	</g>
	<g>
		<rect x="206.5" y="754.5" class="st1" width="12.5" height="26.6"/>
		<rect x="221.9" y="712.8" class="st2" width="12.5" height="41.7"/>
		<rect x="237.3" y="705.8" class="st3" width="12.5" height="48.7"/>
	</g>
	<g>
		<rect x="277.4" y="754.5" class="st1" width="12.5" height="52.8"/>
		<rect x="292.8" y="738.7" class="st2" width="12.5" height="15.9"/>
		<rect x="308.3" y="727.9" class="st3" width="12.5" height="26.6"/>
	</g>
	<g>
		<rect x="348.4" y="754.5" class="st1" width="12.5" height="67.3"/>
		<rect x="363.8" y="688.8" class="st2" width="12.5" height="65.7"/>
		<rect x="379.2" y="678" class="st3" width="12.5" height="76.5"/>
	</g>
	<g>
		<rect x="419.3" y="754.5" class="st1" width="12.5" height="71.6"/>
		<rect x="434.7" y="689.3" class="st2" width="12.5" height="65.3"/>
		<rect x="450.2" y="680.6" class="st3" width="12.5" height="73.9"/>
	</g>
	<g>
		<rect x="490.3" y="754.5" class="st1" width="12.5" height="79.3"/>
		<rect x="505.7" y="632.9" class="st2" width="12.5" height="121.6"/>
		<rect x="521.1" y="622.5" class="st3" width="12.5" height="132"/>
	</g>
	<g>
		<rect x="561.2" y="754.5" class="st1" width="12.5" height="80.9"/>
		<rect x="576.6" y="649.9" class="st2" width="12.5" height="104.6"/>
		<rect x="592.1" y="638.4" class="st3" width="12.5" height="116.1"/>
	</g>
	<rect x="210" y="576" class="st4" width="200" height="23.1"/>
	<text transform="matrix(1 0 0 1 220 594.7883)" style="font-family:'SourceHanSansTW-Regular-B5pc-H'; font-size:18px;">市場大跌三種模擬情況</text>
	<text transform="matrix(1 0 0 1 46.4412 886.9895)" style="font-family:'SourceHanSansTW-Regular-B5pc-H'; font-size:16px;">雷曼兄弟 破產後恐慌贖回</text>
	<rect x="27.7" y="874.3" class="st1" width="12.7" height="12.7"/>
	<text transform="matrix(1 0 0 1 46.4412 914.5189)" style="font-family:'SourceHanSansTW-Regular-B5pc-H'; font-size:16px;">雷曼兄弟破產後定期定額加碼一倍</text>
	<rect x="27.7" y="901.8" class="st3" width="12.7" height="12.7"/>
	<text transform="matrix(1 0 0 1 292.6177 886.9895)" style="font-family:'SourceHanSansTW-Regular-B5pc-H'; font-size:16px;">高點進場後 不懼市場跌深 持續定期定額扣款</text>
	<rect x="273.9" y="874.3" class="st2" width="12.7" height="12.7"/>
	<text transform="matrix(1 0 0 1 4.4136 612.6978)" style="font-family:'SourceHanSansTW-Regular-B5pc-H'; font-size:12px;">60.00%</text>
	<text transform="matrix(1 0 0 1 4.4136 661.4976)" style="font-family:'SourceHanSansTW-Regular-B5pc-H'; font-size:12px;">40.00%</text>
	<text transform="matrix(1 0 0 1 4.4136 710.2975)" style="font-family:'SourceHanSansTW-Regular-B5pc-H'; font-size:12px;">20.00%</text>
	<text transform="matrix(1 0 0 1 11.0733 759.0976)" style="font-family:'SourceHanSansTW-Regular-B5pc-H'; font-size:12px;">0.00%</text>
	<text transform="matrix(1 0 0 1 0.2496 807.8975)" style="font-family:'SourceHanSansTW-Regular-B5pc-H'; font-size:12px;">-20.00%</text>
	<text transform="matrix(1 0 0 1 0.2496 856.6978)" style="font-family:'SourceHanSansTW-Regular-B5pc-H'; font-size:12px;">-40.00%</text>
</g>
<g>
	<line class="st0" x1="52.4" y1="32.4" x2="620" y2="32.4"/>
	<line class="st0" x1="52.4" y1="81.2" x2="620" y2="81.2"/>
	<line class="st0" x1="52.4" y1="129.9" x2="620" y2="129.9"/>
	<line class="st0" x1="52.4" y1="178.6" x2="620" y2="178.6"/>
	<line class="st0" x1="52.4" y1="227.3" x2="620" y2="227.3"/>
	<line class="st0" x1="52.4" y1="276" x2="620" y2="276"/>
	<g>
		<rect x="64.6" y="178.6" class="st1" width="12.5" height="42.9"/>
		<rect x="80" y="156.3" class="st2" width="12.5" height="22.2"/>
		<rect x="95.4" y="146.8" class="st3" width="12.5" height="31.7"/>
	</g>
	<g>
		<rect x="135.5" y="178.6" class="st1" width="12.5" height="26.6"/>
		<rect x="151" y="160.8" class="st2" width="12.5" height="17.7"/>
		<rect x="166.4" y="153.6" class="st3" width="12.5" height="25"/>
	</g>
	<g>
		<rect x="206.5" y="178.6" class="st1" width="12.5" height="26.6"/>
		<rect x="221.9" y="136.9" class="st2" width="12.5" height="41.7"/>
		<rect x="237.3" y="129.9" class="st3" width="12.5" height="48.7"/>
	</g>
	<g>
		<rect x="277.4" y="178.6" class="st1" width="12.5" height="52.8"/>
		<rect x="292.8" y="162.7" class="st2" width="12.5" height="15.9"/>
		<rect x="308.3" y="152" class="st3" width="12.5" height="26.6"/>
	</g>
	<g>
		<rect x="348.4" y="178.6" class="st1" width="12.5" height="67.3"/>
		<rect x="363.8" y="112.8" class="st2" width="12.5" height="65.7"/>
		<rect x="379.2" y="102.1" class="st3" width="12.5" height="76.5"/>
	</g>
	<g>
		<rect x="419.3" y="178.6" class="st1" width="12.5" height="71.6"/>
		<rect x="434.7" y="113.3" class="st2" width="12.5" height="65.3"/>
		<rect x="450.2" y="104.6" class="st3" width="12.5" height="73.9"/>
	</g>
	<g>
		<rect x="490.3" y="178.6" class="st1" width="12.5" height="79.3"/>
		<rect x="505.7" y="56.9" class="st2" width="12.5" height="121.6"/>
		<rect x="521.1" y="46.5" class="st3" width="12.5" height="132"/>
	</g>
	<g>
		<rect x="561.2" y="178.6" class="st1" width="12.5" height="80.9"/>
		<rect x="576.6" y="74" class="st2" width="12.5" height="104.6"/>
		<rect x="592.1" y="62.4" class="st3" width="12.5" height="116.1"/>
	</g>
	<rect x="210" y="0" class="st4" width="200" height="23.1"/>
	<g>
		<path d="M229.6,7.7v2.4h5.8v6.3c0,0.8-0.2,1.2-0.8,1.4c-0.6,0.2-1.6,0.2-3.2,0.2c-0.1-0.4-0.3-1-0.5-1.3c1.2,0,2.3,0,2.6,0
			c0.3,0,0.4-0.1,0.4-0.4v-5h-4.5v8.7h-1.4v-8.7h-4.2v6.7h-1.3v-8h5.5V7.7H221V6.4h7.7c-0.3-0.7-0.8-1.6-1.2-2.4l1.3-0.4
			c0.5,0.8,1.2,2,1.4,2.7l-0.2,0.1h7.1v1.3H229.6z"/>
		<path d="M244.5,14.3c-1.8,0.9-3.8,1.9-5.3,2.6l-0.5-1.3c0.7-0.3,1.5-0.6,2.4-1.1V8.9H239V7.6h2.1V3.9h1.2v3.7h1.9v1.3h-1.9V14
			l1.8-0.8L244.5,14.3z M247.8,12.3c-0.2,0.4-0.5,0.9-0.8,1.3h7.7c0,0,0,0.4-0.1,0.5c-0.3,3.7-0.6,5.1-1.1,5.6
			c-0.3,0.3-0.6,0.4-1,0.5c-0.4,0-1.1,0-1.8,0c0-0.3-0.1-0.8-0.3-1.1c0.7,0.1,1.3,0.1,1.5,0.1c0.3,0,0.4,0,0.5-0.2
			c0.3-0.3,0.6-1.5,0.8-4.3h-1.4c-0.7,2.1-2.1,4.5-3.7,5.6c-0.2-0.3-0.6-0.6-1-0.8c1.5-1,2.8-2.9,3.5-4.9h-1.7
			c-1,1.9-2.7,3.8-4.4,4.9c-0.2-0.3-0.6-0.6-0.9-0.8c1.5-0.8,3.1-2.4,4.1-4h-1.8c-0.7,0.8-1.5,1.5-2.3,2.1c-0.2-0.2-0.6-0.6-0.9-0.8
			c1.4-0.8,2.7-2.1,3.6-3.6H244v-1.1h11.3v1.1H247.8z M254,10.1h-8.2V4.3h8.2V10.1z M252.7,5.3h-5.8v1.4h5.8V5.3z M252.7,7.7h-5.8
			v1.4h5.8V7.7z"/>
		<path d="M266.1,10.3c1.3,4,3.6,7.2,7.1,8.6c-0.3,0.3-0.8,0.9-1,1.3c-3.5-1.6-5.7-4.8-7.2-8.9c-0.9,3.5-2.8,6.9-7.2,8.9
			c-0.2-0.4-0.6-0.8-1-1.1c4.5-1.9,6.3-5.4,7-8.8h-6.6V8.9h6.9c0.3-1.9,0.3-3.7,0.3-5.1h1.4c0,1.4,0,3.2-0.3,5.1h7.4v1.4H266.1z"/>
		<path d="M281.3,17.5c-2.2,0.6-4.6,1.3-6.3,1.8l-0.3-1.3c0.3-0.1,0.6-0.1,0.9-0.2v-6.1h1.1v5.8l1.3-0.3V10h-2.4V4.5h5.4V10h-1.8
			v2.5h1.9v1.2h-1.9v3.2l2-0.5L281.3,17.5z M276.8,8.8h3V5.7h-3V8.8z M287,13.1c0.7,2.7,2.2,4.9,4.4,6c-0.3,0.3-0.7,0.7-0.9,1.1
			c-2-1.1-3.3-3-4.2-5.5c-0.6,2.1-2,4.1-4.6,5.6c-0.2-0.3-0.6-0.8-0.9-1c3-1.6,4.2-3.9,4.6-6.2h-3.9v-1.3h4.1
			c0.1-0.8,0.1-1.5,0.1-2.2V8.2h-2.2c-0.3,1-0.6,1.8-1,2.5c-0.3-0.2-0.8-0.5-1.1-0.6c0.8-1.4,1.4-3.5,1.6-5.6l1.3,0.2
			c-0.1,0.8-0.3,1.5-0.4,2.3h1.8V3.9h1.3V7h3.8v1.2h-3.8v1.4c0,0.7,0,1.5-0.1,2.2h4.2v1.3H287z"/>
		<path d="M308.7,17.5v1.4h-15.5v-1.4H308.7z M307.8,5.5v1.3h-13.5V5.5H307.8z M306.4,11.3v1.4h-10.9v-1.4H306.4z"/>
		<path d="M316.8,14.7c-0.3-0.5-1-1.5-1.6-2.2v7.7h-1.3v-8c-0.7,1.8-1.7,3.6-2.6,4.7c-0.1-0.4-0.5-0.9-0.7-1.2
			c1.1-1.3,2.4-3.6,3.1-5.6h-2.8V8.8h2.9V6.1c-0.9,0.2-1.8,0.3-2.6,0.5c-0.1-0.3-0.3-0.7-0.4-1c2-0.3,4.4-0.8,5.7-1.4l0.9,1
			c-0.6,0.3-1.4,0.5-2.3,0.7v3h2.3v1.3h-2.3v1.1c0.6,0.5,2.1,2.1,2.4,2.5L316.8,14.7z M327.3,18.7v1.1h-10.7v-1.1h4.9v-1.4h-3.9
			v-1.1h3.9V15h-3.7V9.2h3.7V8h-4.5V6.9h4.5V5.7c-1.3,0.1-2.6,0.1-3.8,0.2c0-0.3-0.2-0.8-0.3-1c3-0.1,6.7-0.4,8.7-0.9l0.8,1
			c-1.1,0.3-2.6,0.5-4.1,0.6v1.3h4.2V8h-4.2v1.2h3.8V15h-3.8v1.3h3.9v1.1h-3.9v1.4H327.3z M319,11.6h2.5v-1.4H319V11.6z M321.5,13.9
			v-1.4H319v1.4H321.5z M322.8,10.2v1.4h2.6v-1.4H322.8z M325.4,12.5h-2.6v1.4h2.6V12.5z"/>
		<path d="M333.8,13.6c-0.2-0.6-0.7-1.7-1.2-2.6v9.2h-1.2v-8.6c-0.6,1.9-1.3,3.7-2,4.9c-0.1-0.4-0.5-1-0.7-1.3
			c1-1.5,2.1-4.3,2.6-6.7h-2.2V7.2h2.3V3.8h1.2v3.5h2v1.3h-2v0.7c0.5,0.7,1.7,2.9,2,3.5L333.8,13.6z M339.7,16.2
			c-0.7,1.9-2.1,3.2-5.3,4c-0.1-0.3-0.4-0.8-0.7-1.1c2.6-0.6,3.9-1.5,4.6-2.9h-4.2v-1.1h4.6c0.1-0.5,0.2-1,0.3-1.5h-3.6V8.1h8.8v5.5
			h-3.8c-0.1,0.5-0.1,1-0.2,1.5h4.9v1.1H339.7z M336.7,6.4h-2.2V5.2h2.2V3.8h1.2v1.5h1.4v1.1h-1.4v1.3h-1.2V6.4z M336.6,10.4h6.2
			V9.1h-6.2V10.4z M336.6,12.6h6.2v-1.3h-6.2V12.6z M340.5,16.3c1.6,0.8,3.7,2.1,4.8,2.8l-0.8,1c-1.1-0.8-3.2-2.1-4.8-3L340.5,16.3z
			 M341.5,6.4H340V5.2h1.5V3.8h1.2v1.4h2.4v1.1h-2.4v1.3h-1.2V6.4z"/>
		<path d="M351.6,12.3c-0.5,0.2-1.1,0.4-1.6,0.7v5.7c0,0.7-0.2,1.1-0.6,1.3c-0.4,0.2-1.1,0.3-2.1,0.3c-0.1-0.3-0.2-0.8-0.4-1.2
			c0.7,0,1.4,0,1.6,0c0.2,0,0.3-0.1,0.3-0.3v-5.3c-0.6,0.3-1.3,0.5-1.8,0.7l-0.4-1.3c0.6-0.2,1.4-0.5,2.2-0.8V8.6h-1.9V7.4h1.9V3.8
			h1.2v3.6h1.4v1.2H350v3l1.4-0.5L351.6,12.3z M355.6,18.7c-0.3-0.4-0.9-1-1.5-1.6c-0.5,1.1-1.3,2.2-2.6,3.1
			c-0.2-0.3-0.5-0.6-0.8-0.8c1.8-1.2,2.6-2.7,2.8-4H351v-1.1h2.6c0-0.3,0-0.6,0-0.8v-1.3h-0.8c-0.3,0.7-0.5,1.3-0.9,1.8
			c-0.2-0.1-0.6-0.5-0.9-0.6c0.7-1,1.1-2.4,1.4-3.9l1.1,0.2c-0.1,0.5-0.2,0.9-0.3,1.4h3.3v1.1h-1.7v1.3c0,0.3,0,0.5,0,0.8h1.9v1.1
			h-2.1c0,0.2-0.1,0.4-0.1,0.6c0.7,0.6,1.5,1.3,1.8,1.8L355.6,18.7z M353.3,9.3c-1.2,0-1.5-0.5-1.5-1.7V3.8h1.1v1.7h3.1v1h-3.1v1.1
			c0,0.5,0.1,0.7,0.4,0.7h2.1c0.3,0,0.8,0,1-0.1c0,0.3,0.1,0.8,0.1,1c-0.2,0.1-0.7,0.1-1.1,0.1H353.3z M360.4,18.7
			c0.4,0.1,0.8,0.1,1.2,0.1c0.3,0,1.4,0,1.9,0c-0.2,0.3-0.3,0.8-0.4,1.1h-1.6c-1.6,0-2.9-0.4-3.8-2.3c-0.3,1-0.8,1.9-1.4,2.6
			c-0.2-0.2-0.6-0.5-0.9-0.7c1.4-1.5,1.8-3.9,1.9-6.8l1.1,0.1c0,1.2-0.1,2.2-0.3,3.1c0.3,1.1,0.8,1.8,1.3,2.3v-6.9h-2.7v-1.1h5.6
			l0.2,0l0.7,0.2c-0.2,1.1-0.5,2.3-0.8,3.1l-0.8-0.3c0.1-0.5,0.3-1.2,0.4-1.9h-1.5v2.9h2.4v1.1h-2.4V18.7z M358.1,6.5
			c0.5,0.3,1,0.6,1.5,0.9c0.5-0.6,1.1-1.3,1.6-2h-4.3V4.4h5.1l0.2-0.1l0.8,0.5c-0.6,1.1-1.6,2.3-2.4,3.2c0.5,0.4,1,0.8,1.3,1.1
			L361,10c-0.8-0.8-2.4-2-3.6-2.7L358.1,6.5z"/>
		<path d="M364.6,11.8c0.4-1.2,0.8-3.2,0.9-4.6l1.1,0.2c-0.1,1.4-0.4,3.5-0.8,4.8L364.6,11.8z M367.3,3.8h1.2v16.4h-1.2V3.8z
			 M369.6,6.3c0.4,0.8,0.9,2,1.1,2.6l-1,0.5c-0.2-0.7-0.7-1.9-1.1-2.8L369.6,6.3z M381.2,9.6v1h-10.9v-1h4.7V8.3h-3.8v-1h3.8V6.2
			h-4.3v-1h4.3V3.8h1.3v1.4h4.3v1h-4.3v1.1h3.9v1h-3.9v1.3H381.2z M380,18.8c0,0.7-0.1,1-0.6,1.2c-0.5,0.2-1.3,0.2-2.6,0.2
			c-0.1-0.3-0.2-0.8-0.4-1.2c0.9,0,1.8,0,2,0c0.3,0,0.3-0.1,0.3-0.3v-1.4h-6.3c-0.2,1.1-0.5,2.2-1.2,3c-0.2-0.3-0.7-0.8-1-0.9
			c1-1.4,1.1-3.2,1.1-4.6v-3.3h8.6V18.8z M378.8,16.4V15h-6.1c0,0.4,0,0.9-0.1,1.4H378.8z M372.7,12.6V14h6.1v-1.4H372.7z"/>
		<path d="M386.4,11.6c-0.8-0.6-2.3-1.3-3.6-1.8l0.7-1c1.2,0.4,2.8,1.1,3.6,1.6L386.4,11.6z M388.1,14c-1,2-2.4,4.3-3.5,6l-1.1-0.9
			c1-1.4,2.6-3.9,3.7-6L388.1,14z M387.2,6.7c-0.7-0.6-2.1-1.4-3.3-1.9l0.7-1c1.2,0.4,2.6,1.1,3.3,1.7L387.2,6.7z M397.5,18.9
			c0.4,0,0.5-0.4,0.6-2.7c0.3,0.2,0.8,0.4,1.2,0.5c-0.1,2.7-0.5,3.4-1.7,3.4h-1.8c-1.3,0-1.7-0.4-1.7-1.8v-6.3h-2.1
			c-0.2,4.2-0.9,6.8-4.5,8.3c-0.1-0.3-0.5-0.8-0.8-1.1c3.3-1.2,3.8-3.5,4-7.2h-1.9V4.6h9.3v7.3h-2.7v6.3c0,0.5,0.1,0.6,0.5,0.6
			H397.5z M390.2,10.6h6.6V5.8h-6.6V10.6z"/>
	</g>
	<g>
		<path d="M61.2,300.4v3.4H60v-2.5H55v3.7h-1.2v-3.7h-5v2.5h-1.1v-3.4h6.1v-1.2h-5.4v-0.9h12.1v0.9H55v1.2H61.2z M49.1,305.8h10.8
			v6.4h-1.2v-0.6h-8.5v0.7h-1.2V305.8z M49.1,304.2c1-0.1,2.4-0.3,3.8-0.5l0,0.8c-1.2,0.3-2.4,0.5-3.5,0.7L49.1,304.2z M49.9,301.8
			c1,0.2,2.4,0.5,3.1,0.8l-0.3,0.7c-0.7-0.3-2-0.7-3.1-0.9L49.9,301.8z M50.2,306.7v1.5h3.6v-1.5H50.2z M53.8,310.7v-1.5h-3.6v1.5
			H53.8z M58.7,306.7H55v1.5h3.7V306.7z M58.7,310.7v-1.5H55v1.5H58.7z M59.4,305.2c-0.9-0.3-2.5-0.7-3.7-0.9l0.3-0.7
			c1.2,0.1,2.8,0.5,3.7,0.8L59.4,305.2z M59.4,302.4c-0.9,0.4-2.2,0.7-3.1,0.9l-0.4-0.6c0.9-0.2,2.2-0.7,3-1L59.4,302.4z"/>
		<path d="M76,307.6c-0.9,1.2-2.2,2.1-3.7,2.8c1.7,0.4,3.6,0.6,5.5,0.7c-0.2,0.3-0.5,0.7-0.7,1.1c-2.3-0.2-4.5-0.5-6.5-1.2
			c-2.2,0.7-4.6,1.1-7,1.3c-0.1-0.3-0.3-0.8-0.5-1.1c2-0.1,4-0.4,5.8-0.8c-1.4-0.6-2.5-1.3-3.4-2.2l0.2-0.1H64v-1h11.1l0.2,0
			L76,307.6z M76.7,306.3H64.1v-3h12.6V306.3z M67.9,304.2h-2.6v1.3h2.6V304.2z M66.5,302.7h-1.1v-4.4h10.2v4.4h-1.2v-3.6h-7.9
			V302.7z M74,300.7h-7.1v-0.8H74V300.7z M66.9,301.6h7.1v0.8h-7.1V301.6z M67,308.1c0.9,0.8,2.2,1.3,3.7,1.8
			c1.4-0.5,2.5-1.1,3.4-1.8H67z M71.7,304.2H69v1.3h2.7V304.2z M75.6,304.2h-2.7v1.3h2.7V304.2z"/>
		<path d="M91.8,311c0.7,0,0.8-0.4,0.9-2.9c0.3,0.2,0.8,0.4,1.1,0.5c-0.1,2.8-0.5,3.5-1.9,3.5h-2.4c-1.4,0-1.8-0.4-1.8-1.8v-5.2
			h-2.8c-0.3,3.5-1.1,5.8-5,7.1c-0.1-0.3-0.5-0.8-0.8-1c3.6-1.1,4.2-3.1,4.4-6.1h-2.5v-6.6H92v6.6h-3.1v5.2c0,0.5,0.1,0.6,0.8,0.6
			H91.8z M82.2,304h8.5v-4.3h-8.5V304z"/>
		<path d="M109.2,306.3c0,0,0,0.4,0,0.5c-0.2,2.6-0.4,3.7-0.9,4.1c-0.3,0.3-0.6,0.4-1,0.4c-0.4,0-1.3,0-2.2,0c0-0.4-0.1-0.8-0.3-1.1
			c0.8,0.1,1.7,0.1,2,0.1c0.3,0,0.5,0,0.6-0.2c0.2-0.2,0.4-1,0.6-2.7h-4.8v4.9h-1.2v-4c-1.5,1.6-3.6,2.9-5.7,3.6
			c-0.2-0.3-0.5-0.8-0.8-1c2.2-0.6,4.4-1.9,5.8-3.4h-4.8c0.3-1.1,0.7-2.8,0.9-4.1h4.6v-2.1h-5.6v-1.1h2.9c-0.2-0.6-0.7-1.4-1.1-2
			l1.1-0.4c0.5,0.7,1.1,1.6,1.3,2.2l-0.5,0.2h4.5c0.4-0.7,0.9-1.7,1.2-2.4l1.3,0.4c-0.4,0.7-0.8,1.5-1.2,2.1h2.7v4.3h-5.3v2H109.2z
			 M98.2,304.4c-0.1,0.7-0.3,1.3-0.4,2h4.1v-2H98.2z M103.1,303.3h4.1v-2.1h-4.1V303.3z"/>
		<path d="M117,310.2v1.3h-1v-5.8c-0.3,0.5-0.6,0.9-0.9,1.3c-0.1-0.3-0.3-1-0.5-1.3c1.1-1.5,1.9-3.8,2.3-6.2h-2v-1.1h5.3v1.1H118
			c-0.3,1.3-0.6,2.6-1,3.8h2.8v6.9H117z M117,304.4v4.7h1.8v-4.7H117z M128.5,304.1c-0.5,2.1-1.4,3.8-2.6,5.2c1,0.9,2.1,1.6,3.4,2
			c-0.3,0.2-0.6,0.6-0.7,0.9c-1.3-0.5-2.4-1.2-3.4-2.2c-1,0.9-2,1.7-3.2,2.2c-0.1-0.3-0.4-0.7-0.7-0.9c1.1-0.4,2.2-1.1,3.2-2
			c-1-1.2-1.8-2.6-2.4-4.1c-0.1,2.3-0.4,5.1-1.7,7.1c-0.2-0.2-0.6-0.5-0.9-0.6c1.4-2.2,1.6-5.2,1.6-7.4v-4.1h3.3v-2.5h1.1v2.5h2.8
			l0.2,0l0.8,0.2c-0.3,1.1-0.6,2.4-0.9,3.1l-0.9-0.3c0.2-0.5,0.4-1.2,0.6-2h-2.4v2.7h2.2l0.2,0L128.5,304.1z M122.1,301.2v2.7h2.2
			v-2.7H122.1z M123.1,304.9c0.5,1.3,1.2,2.6,2.1,3.6c0.9-1,1.6-2.2,2-3.6H123.1z"/>
		<path d="M133.2,304.1v2.4c0,1.8-0.3,4.3-1.7,5.9c-0.2-0.2-0.6-0.6-0.9-0.8c1.3-1.5,1.5-3.6,1.5-5.2v-3.4h2
			c-0.2-0.2-0.4-0.4-0.6-0.6c1.3-0.2,2.7-0.6,4.1-0.9c-1.2-0.4-2.5-0.7-3.6-0.9l0.7-0.6h-2.6v-1h5.9c-0.3-0.4-0.6-0.8-0.9-1.2
			l0.8-0.4c0.4,0.5,0.9,1.1,1.2,1.6h5.4v1h-2.4l0.6,0.4c-0.7,0.4-1.5,0.8-2.4,1.1c1.2,0.4,2.3,0.7,3.1,1l-0.6,0.6h2.3v1H133.2z
			 M145.3,310.7v1h-11.9v-1h5.2v-1.6H135v-1h3.7v-1.4h-3.3c-0.4,0.8-1,1.5-1.5,2c-0.1-0.2-0.4-0.8-0.6-1c0.9-0.8,1.6-2.1,2.1-3.3
			l1,0.3c-0.1,0.4-0.3,0.7-0.4,1.1h2.8v-1.4h1.2v1.4h4.3v1h-4.3v1.4h4v1h-4v1.6H145.3z M142.4,303.1c-0.9-0.4-2.1-0.7-3.4-1.1
			c-1.4,0.5-3,0.8-4.3,1.1H142.4z M135,300.1c1.2,0.3,2.7,0.7,4,1.1c1-0.3,2-0.7,2.7-1.1H135z"/>
		<path d="M151.4,301.2c-0.4,0.8-0.9,1.5-1.4,2.2v8.8h-1.1v-7.5c-0.5,0.6-1,1.1-1.5,1.5c-0.1-0.2-0.5-0.8-0.7-1
			c1.4-1.1,2.8-2.8,3.7-4.4L151.4,301.2z M151.1,298c-0.9,1.3-2.3,2.8-3.6,3.8c-0.1-0.2-0.5-0.6-0.6-0.9c1.2-0.8,2.5-2.2,3.1-3.3
			L151.1,298z M159.9,306.1c-0.7,1.5-1.7,2.8-3,3.7c1.3,0.6,2.7,1.1,4.2,1.4c-0.3,0.3-0.6,0.7-0.7,1c-1.7-0.4-3.2-1-4.5-1.7
			c-1.4,0.8-3.1,1.4-4.7,1.8c-0.1-0.3-0.4-0.8-0.6-1c1.5-0.3,2.9-0.8,4.2-1.4c-0.6-0.5-1.3-1-1.8-1.6c-0.4,0.4-0.8,0.7-1.3,1.1
			c-0.2-0.2-0.6-0.7-0.8-0.9c0.5-0.3,0.9-0.7,1.4-1.1c-0.3-0.4-0.5-0.8-0.8-1.2l1-0.3c0.2,0.3,0.3,0.6,0.5,0.8
			c0.6-0.6,1.1-1.3,1.5-2c-2.3,0.1-2.7,0.2-3,0.3c0-0.2-0.2-0.8-0.4-1.1c0.5-0.1,1-0.3,1.8-0.8c0.4-0.2,1.1-0.7,2-1.2
			c-2.4,0.1-2.8,0.2-3.1,0.3c0-0.3-0.2-0.8-0.4-1.2c0.3,0,0.6-0.3,1.1-0.6c0.4-0.3,1.8-1.5,2.8-2.6l1.2,0.5c-1,1-2,1.9-3,2.7
			l2.8-0.1c0.7-0.5,1.5-1.1,2.1-1.7l1.1,0.6c-1.9,1.6-3.9,2.9-5.8,3.9l5-0.3c-0.4-0.5-0.7-0.9-1.1-1.3l0.9-0.5
			c0.9,1.1,2.1,2.5,2.6,3.5l-1,0.6c-0.2-0.4-0.5-0.8-0.8-1.3l-3.6,0.2c-0.2,0.4-0.5,0.9-0.8,1.3h3.9l0.2,0L159.9,306.1z
			 M154.4,306.8c-0.2,0.2-0.4,0.5-0.6,0.7c0.6,0.7,1.3,1.2,2.1,1.7c1-0.7,1.9-1.5,2.4-2.4H154.4z"/>
		<path d="M162.7,311.2c0.8-1,1.6-2.6,2.1-3.7l1,0.4c-0.5,1.2-1.2,2.8-2,3.9L162.7,311.2z M162.7,305c0.7-0.1,1.6-0.3,2.6-0.4v-5.1
			h-2.2v-1h5.5v1h-2.1v4.9l2.1-0.4l0.1,1c-2,0.4-4.2,0.8-5.7,1.2L162.7,305z M172.2,311c0.8,0,1-0.3,1.1-1.9
			c0.3,0.2,0.8,0.4,1.1,0.4c-0.2,2-0.5,2.5-2.1,2.5h-3.5c-1.8,0-2.3-0.3-2.3-1.6v-3.2h1.2v3.2c0,0.5,0.2,0.6,1.2,0.6H172.2z
			 M169.1,305.9c1,0.8,2.3,1.9,3,2.6l-0.8,0.8c-0.6-0.7-1.9-1.9-2.9-2.7L169.1,305.9z M173.5,304.3c-0.4-0.3-1-0.7-1.7-1.2
			c-0.4,1.1-1,2.1-2,2.9c-0.2-0.2-0.6-0.6-0.8-0.8c1-0.8,1.6-1.8,1.9-2.7c-0.7-0.4-1.3-0.8-1.9-1.1l0.6-0.8c0.5,0.3,1.1,0.6,1.6,0.9
			c0.1-0.4,0.1-0.9,0.1-1.3v-1.1h-1.7v-1h6v6.3c0,0.4,0,0.6,0.1,0.7c0,0,0.1,0.1,0.2,0.1h0.4c0.1,0,0.2,0,0.3-0.1
			c0.1,0,0.1-0.2,0.2-0.4c0-0.3,0-0.8,0.1-1.5c0.2,0.2,0.6,0.4,0.9,0.5c0,0.7-0.1,1.4-0.2,1.7c-0.1,0.3-0.2,0.5-0.4,0.6
			c-0.2,0.1-0.5,0.2-0.7,0.2h-0.7c-0.3,0-0.6-0.1-0.8-0.3c-0.2-0.2-0.3-0.5-0.3-1.5v-5.1h-2.1v1.1c0,0.6,0,1.2-0.2,1.8
			c0.8,0.5,1.6,0.9,2.1,1.3L173.5,304.3z M175,307.2c0.9,1.2,2,2.9,2.5,3.9l-1.1,0.6c-0.5-1-1.6-2.7-2.5-4L175,307.2z"/>
		<path d="M178.6,304.7c0.4-1.1,0.6-2.8,0.7-4.1l0.8,0.1c0,1.3-0.3,3.1-0.7,4.3L178.6,304.7z M180.8,297.6h1.1v14.6h-1.1V297.6z
			 M190.8,304.8c0.5,0,1.5,0,1.9-0.1c0,0.3,0.1,0.7,0.1,1c-0.3,0.1-1.1,0.1-1.9,0.1h-4.4c-1.5,0-1.9-0.4-1.9-1.6v-1.3h-0.9l0,0.3
			l-0.8,0.3c-0.1-0.8-0.4-2-0.7-3l0.8-0.2c0.2,0.6,0.4,1.4,0.6,2.1v-0.4h4.4c-0.2-0.4-0.5-0.8-0.7-1.1l1-0.4c0.4,0.4,0.7,1,1,1.5
			h4.1v1h-7.6v1.3c0,0.5,0.1,0.6,0.8,0.6H190.8z M184.7,306.5h1.1v1.5c0,1.5-0.2,3.2-2.2,4.4c-0.2-0.3-0.6-0.6-0.9-0.8
			c1.8-1.1,2-2.5,2-3.7V306.5z M185.6,299.9h-2.3V299h2.3v-1.3h1.1v1.3h1.4v0.9h-1.4v0.9h-1.1V299.9z M187.5,306.5h1.1v5.3h-1.1
			V306.5z M189.6,299.9h-1.2v-1h1.2v-1.3h1.1v1.3h2.6v1h-2.6v0.9h-1.1V299.9z M192.6,311.2c0.2,0,0.5,0,0.7,0c0,0.3,0,0.6,0.1,0.9
			c-0.2,0.1-0.5,0.1-0.8,0.1h-1c-1,0-1.2-0.4-1.2-1.5v-4.2h1.1v4.2c0,0.4,0,0.6,0.2,0.6H192.6z"/>
		<path d="M197.2,308.9c-0.4,1-1.1,2.2-1.6,3c-0.2-0.2-0.6-0.4-0.8-0.6c0.5-0.8,1.1-1.8,1.5-2.8L197.2,308.9z M199.6,308.1h-4.2
			v-9.7h4.2V308.1z M198.6,299.4h-2.3v2h2.3V299.4z M198.6,302.3h-2.3v2h2.3V302.3z M198.6,305.2h-2.3v2h2.3V305.2z M198.7,308.6
			c0.5,0.7,1,1.6,1.3,2.1l-0.8,0.5c-0.2-0.6-0.8-1.5-1.2-2.2L198.7,308.6z M206,310c1.2,0.5,2.5,1.1,3.4,1.5l-0.5,0.8
			c-0.9-0.4-2.2-1.1-3.4-1.6l0.4-0.7H203l0.8,0.7c-1.2,0.6-2.7,1.2-3.8,1.6c-0.1-0.3-0.3-0.6-0.5-0.8c1-0.4,2.6-1,3.4-1.5h-2.1v-4.7
			h7.7v4.7H206z M204,299.3h-3.7v-0.8h3.7v-0.9h1.2v0.9h3.9v0.8h-3.9v0.9h3.5v0.8h-7.8v-0.8h3.1V299.3z M200.4,301.7h8.5v2.9h-8.5
			V301.7z M201.4,303.9h1.5v-1.6h-1.5V303.9z M202,306.7h5.5V306H202V306.7z M202,308h5.5v-0.7H202V308z M202,309.3h5.5v-0.7H202
			V309.3z M205.5,303.9v-1.6h-1.8v1.6H205.5z M208,302.3h-1.6v1.6h1.6V302.3z"/>
		<path d="M224.7,298.3v13.9h-1.3v-0.9h-10.8v0.9h-1.2v-13.9H224.7z M223.4,310.3v-10.8h-10.8v10.8H223.4z M221.1,302v5.8h-6.2V302
			H221.1z M219.9,303H216v3.6h3.9V303z"/>
	</g>
	<rect x="27.7" y="298.3" class="st1" width="12.7" height="12.7"/>
	<g>
		<path d="M61.2,327.9v3.4H60v-2.5H55v3.7h-1.2v-3.7h-5v2.5h-1.1v-3.4h6.1v-1.2h-5.4v-0.9h12.1v0.9H55v1.2H61.2z M49.1,333.3h10.8
			v6.4h-1.2v-0.6h-8.5v0.7h-1.2V333.3z M49.1,331.8c1-0.1,2.4-0.3,3.8-0.5l0,0.8c-1.2,0.3-2.4,0.5-3.5,0.7L49.1,331.8z M49.9,329.3
			c1,0.2,2.4,0.5,3.1,0.8l-0.3,0.7c-0.7-0.3-2-0.7-3.1-0.9L49.9,329.3z M50.2,334.2v1.5h3.6v-1.5H50.2z M53.8,338.2v-1.5h-3.6v1.5
			H53.8z M58.7,334.2H55v1.5h3.7V334.2z M58.7,338.2v-1.5H55v1.5H58.7z M59.4,332.7c-0.9-0.3-2.5-0.7-3.7-0.9l0.3-0.7
			c1.2,0.1,2.8,0.5,3.7,0.8L59.4,332.7z M59.4,329.9c-0.9,0.4-2.2,0.7-3.1,0.9l-0.4-0.6c0.9-0.2,2.2-0.7,3-1L59.4,329.9z"/>
		<path d="M76,335.1c-0.9,1.2-2.2,2.1-3.7,2.8c1.7,0.4,3.6,0.6,5.5,0.7c-0.2,0.3-0.5,0.7-0.7,1.1c-2.3-0.2-4.5-0.5-6.5-1.2
			c-2.2,0.7-4.6,1.1-7,1.3c-0.1-0.3-0.3-0.8-0.5-1.1c2-0.1,4-0.4,5.8-0.8c-1.4-0.6-2.5-1.3-3.4-2.2l0.2-0.1H64v-1h11.1l0.2,0
			L76,335.1z M76.7,333.8H64.1v-3h12.6V333.8z M67.9,331.7h-2.6v1.3h2.6V331.7z M66.5,330.2h-1.1v-4.4h10.2v4.4h-1.2v-3.6h-7.9
			V330.2z M74,328.2h-7.1v-0.8H74V328.2z M66.9,329.1h7.1v0.8h-7.1V329.1z M67,335.7c0.9,0.8,2.2,1.3,3.7,1.8
			c1.4-0.5,2.5-1.1,3.4-1.8H67z M71.7,331.7H69v1.3h2.7V331.7z M75.6,331.7h-2.7v1.3h2.7V331.7z"/>
		<path d="M91.8,338.5c0.7,0,0.8-0.4,0.9-2.9c0.3,0.2,0.8,0.4,1.1,0.5c-0.1,2.8-0.5,3.5-1.9,3.5h-2.4c-1.4,0-1.8-0.4-1.8-1.8v-5.2
			h-2.8c-0.3,3.5-1.1,5.8-5,7.1c-0.1-0.3-0.5-0.8-0.8-1c3.6-1.1,4.2-3.1,4.4-6.1h-2.5V326H92v6.6h-3.1v5.2c0,0.5,0.1,0.6,0.8,0.6
			H91.8z M82.2,331.5h8.5v-4.3h-8.5V331.5z"/>
		<path d="M109.2,333.8c0,0,0,0.4,0,0.5c-0.2,2.6-0.4,3.7-0.9,4.1c-0.3,0.3-0.6,0.4-1,0.4c-0.4,0-1.3,0-2.2,0c0-0.4-0.1-0.8-0.3-1.1
			c0.8,0.1,1.7,0.1,2,0.1c0.3,0,0.5,0,0.6-0.2c0.2-0.2,0.4-1,0.6-2.7h-4.8v4.9h-1.2v-4c-1.5,1.6-3.6,2.9-5.7,3.6
			c-0.2-0.3-0.5-0.8-0.8-1c2.2-0.6,4.4-1.9,5.8-3.4h-4.8c0.3-1.1,0.7-2.8,0.9-4.1h4.6v-2.1h-5.6v-1.1h2.9c-0.2-0.6-0.7-1.4-1.1-2
			l1.1-0.4c0.5,0.7,1.1,1.6,1.3,2.2l-0.5,0.2h4.5c0.4-0.7,0.9-1.7,1.2-2.4l1.3,0.4c-0.4,0.7-0.8,1.5-1.2,2.1h2.7v4.3h-5.3v2H109.2z
			 M98.2,331.9c-0.1,0.7-0.3,1.3-0.4,2h4.1v-2H98.2z M103.1,330.8h4.1v-2.1h-4.1V330.8z"/>
		<path d="M113.4,337.8v1.3h-1v-5.8c-0.3,0.5-0.6,0.9-0.9,1.3c-0.1-0.3-0.3-1-0.5-1.3c1.1-1.5,1.9-3.8,2.3-6.2h-2V326h5.3v1.1h-2.2
			c-0.3,1.3-0.6,2.6-1,3.8h2.8v6.9H113.4z M113.4,332v4.7h1.8V332H113.4z M125,331.6c-0.5,2.1-1.4,3.8-2.6,5.2c1,0.9,2.1,1.6,3.4,2
			c-0.3,0.2-0.6,0.6-0.7,0.9c-1.3-0.5-2.4-1.2-3.4-2.2c-1,0.9-2,1.7-3.2,2.2c-0.1-0.3-0.4-0.7-0.7-0.9c1.1-0.4,2.2-1.1,3.2-2
			c-1-1.2-1.8-2.6-2.4-4.1c-0.1,2.3-0.4,5.1-1.7,7.1c-0.2-0.2-0.6-0.5-0.9-0.6c1.4-2.2,1.6-5.2,1.6-7.4v-4.1h3.3v-2.5h1.1v2.5h2.8
			l0.2,0l0.8,0.2c-0.3,1.1-0.6,2.4-0.9,3.1l-0.9-0.3c0.2-0.5,0.4-1.2,0.6-2h-2.4v2.7h2.2l0.2,0L125,331.6z M118.5,328.7v2.7h2.2
			v-2.7H118.5z M119.5,332.4c0.5,1.3,1.2,2.6,2.1,3.6c0.9-1,1.6-2.2,2-3.6H119.5z"/>
		<path d="M129.6,331.6v2.4c0,1.8-0.3,4.3-1.7,5.9c-0.2-0.2-0.6-0.6-0.9-0.8c1.3-1.5,1.5-3.6,1.5-5.2v-3.4h2
			c-0.2-0.2-0.4-0.4-0.6-0.6c1.3-0.2,2.7-0.6,4.1-0.9c-1.2-0.4-2.5-0.7-3.6-0.9l0.7-0.6h-2.6v-1h5.9c-0.3-0.4-0.6-0.8-0.9-1.2
			l0.8-0.4c0.4,0.5,0.9,1.1,1.2,1.6h5.4v1h-2.4l0.6,0.4c-0.7,0.4-1.5,0.8-2.4,1.1c1.2,0.4,2.3,0.7,3.1,1l-0.6,0.6h2.3v1H129.6z
			 M141.8,338.2v1h-11.9v-1h5.2v-1.6h-3.7v-1h3.7v-1.4h-3.3c-0.4,0.8-1,1.5-1.5,2c-0.1-0.2-0.4-0.8-0.6-1c0.9-0.8,1.6-2.1,2.1-3.3
			l1,0.3c-0.1,0.4-0.3,0.7-0.4,1.1h2.8v-1.4h1.2v1.4h4.3v1h-4.3v1.4h4v1h-4v1.6H141.8z M138.8,330.6c-0.9-0.4-2.1-0.7-3.4-1.1
			c-1.4,0.5-3,0.8-4.3,1.1H138.8z M131.5,327.6c1.2,0.3,2.7,0.7,4,1.1c1-0.3,2-0.7,2.7-1.1H131.5z"/>
		<path d="M147.8,328.8c-0.4,0.8-0.9,1.5-1.4,2.2v8.8h-1.1v-7.5c-0.5,0.6-1,1.1-1.5,1.5c-0.1-0.2-0.5-0.8-0.7-1
			c1.4-1.1,2.8-2.8,3.7-4.4L147.8,328.8z M147.5,325.6c-0.9,1.3-2.3,2.8-3.6,3.8c-0.1-0.2-0.5-0.6-0.6-0.9c1.2-0.8,2.5-2.2,3.1-3.3
			L147.5,325.6z M156.4,333.7c-0.7,1.5-1.7,2.8-3,3.7c1.3,0.6,2.7,1.1,4.2,1.4c-0.3,0.3-0.6,0.7-0.7,1c-1.7-0.4-3.2-1-4.5-1.7
			c-1.4,0.8-3.1,1.4-4.7,1.8c-0.1-0.3-0.4-0.8-0.6-1c1.5-0.3,2.9-0.8,4.2-1.4c-0.6-0.5-1.3-1-1.8-1.6c-0.4,0.4-0.8,0.7-1.3,1.1
			c-0.2-0.2-0.6-0.7-0.8-0.9c0.5-0.3,0.9-0.7,1.4-1.1c-0.3-0.4-0.5-0.8-0.8-1.2l1-0.3c0.2,0.3,0.3,0.6,0.5,0.8
			c0.6-0.6,1.1-1.3,1.5-2c-2.3,0.1-2.7,0.2-3,0.3c0-0.2-0.2-0.8-0.4-1.1c0.5-0.1,1-0.3,1.8-0.8c0.4-0.2,1.1-0.7,2-1.2
			c-2.4,0.1-2.8,0.2-3.1,0.3c0-0.3-0.2-0.8-0.4-1.2c0.3,0,0.6-0.3,1.1-0.6c0.4-0.3,1.8-1.5,2.8-2.6l1.2,0.5c-1,1-2,1.9-3,2.7
			l2.8-0.1c0.7-0.5,1.5-1.1,2.1-1.7l1.1,0.6c-1.9,1.6-3.9,2.9-5.8,3.9l5-0.3c-0.4-0.5-0.7-0.9-1.1-1.3l0.9-0.5
			c0.9,1.1,2.1,2.5,2.6,3.5l-1,0.6c-0.2-0.4-0.5-0.8-0.8-1.3l-3.6,0.2c-0.2,0.4-0.5,0.9-0.8,1.3h3.9l0.2,0L156.4,333.7z
			 M150.8,334.3c-0.2,0.2-0.4,0.5-0.6,0.7c0.6,0.7,1.3,1.2,2.1,1.7c1-0.7,1.9-1.5,2.4-2.4H150.8z"/>
		<path d="M167,338.1c0.8,0.2,1.7,0.2,2.6,0.2c0.6,0,3.3,0,4.1,0c-0.2,0.3-0.4,0.8-0.4,1.2h-3.7c-3.3,0-5.7-0.6-7.2-3.3
			c-0.5,1.5-1.3,2.7-2.4,3.6c-0.2-0.2-0.7-0.6-1-0.8c1.8-1.4,2.6-3.6,3-6.5l1.2,0.1c-0.1,0.7-0.2,1.4-0.4,2.1
			c0.6,1.7,1.6,2.6,2.9,3.1v-6.6h-4v-1.1h9.3v1.1H167v2.6h4.7v1.1H167V338.1z M161,330.4h-1.2V327h6.2c-0.2-0.5-0.5-1.1-0.8-1.6
			l1.2-0.3c0.4,0.6,0.8,1.4,0.9,1.9h5.7v3.5h-1.2v-2.3H161V330.4z"/>
		<path d="M182.9,335.9h-7.8v-1.1h1.6v-6.5h-1.3v-1.1h1.3v-1.9h1.1v1.9h2.9v-1.9h1.1v1.9h1.2v1.1h-1.2v6.5h1.2V335.9z M178.5,336.6
			c-0.6,1.2-1.5,2.4-2.4,3.2c-0.2-0.2-0.7-0.5-1-0.7c0.9-0.7,1.7-1.8,2.2-2.8L178.5,336.6z M177.8,328.3v1.4h2.9v-1.4H177.8z
			 M177.8,332.3h2.9v-1.6h-2.9V332.3z M177.8,334.8h2.9v-1.6h-2.9V334.8z M180.5,336.2c0.6,0.7,1.4,1.7,1.7,2.4l-1,0.6
			c-0.3-0.6-1-1.7-1.6-2.4L180.5,336.2z M189.2,338.2c0,0.7-0.2,1.1-0.6,1.2c-0.5,0.2-1.2,0.2-2.4,0.2c0-0.3-0.2-0.8-0.4-1.2
			c0.8,0,1.6,0,1.9,0c0.2,0,0.3-0.1,0.3-0.3v-3.8h-3.4c-0.2,1.9-0.6,3.9-1.5,5.5c-0.2-0.2-0.7-0.6-0.9-0.7c1.3-2.1,1.5-5.2,1.5-7.4
			V326h5.5V338.2z M188.1,333.3v-2.7h-3.3v1.1c0,0.5,0,1,0,1.6H188.1z M184.8,327v2.5h3.3V327H184.8z"/>
		<path d="M199,338.1c0.8,0.2,1.7,0.2,2.6,0.2c0.6,0,3.3,0,4.1,0c-0.2,0.3-0.4,0.8-0.4,1.2h-3.7c-3.3,0-5.7-0.6-7.2-3.3
			c-0.5,1.5-1.3,2.7-2.4,3.6c-0.2-0.2-0.7-0.6-1-0.8c1.8-1.4,2.6-3.6,3-6.5l1.2,0.1c-0.1,0.7-0.2,1.4-0.4,2.1
			c0.6,1.7,1.6,2.6,2.9,3.1v-6.6h-4v-1.1h9.3v1.1H199v2.6h4.7v1.1H199V338.1z M193,330.4h-1.2V327h6.2c-0.2-0.5-0.5-1.1-0.8-1.6
			l1.2-0.3c0.4,0.6,0.8,1.4,0.9,1.9h5.7v3.5h-1.2v-2.3H193V330.4z"/>
		<path d="M213.5,335l-0.1-0.1v4.8h-1.1v-0.5h-2.9v0.5h-1V335c-0.3,0.1-0.5,0.3-0.8,0.4c-0.1-0.3-0.4-0.8-0.6-1
			c1.1-0.4,2.2-1,3.1-1.8c-0.4-0.3-0.8-0.5-1.2-0.7l0.7-0.7c0.4,0.2,0.8,0.5,1.3,0.7c0.5-0.5,0.9-1.1,1.2-1.7h-2.3
			c-0.5,0.7-1.1,1.4-1.8,2c-0.1-0.2-0.4-0.6-0.7-0.8c1.2-0.9,2-2.1,2.4-3.2l0.9,0.2c-0.1,0.3-0.2,0.6-0.4,0.9h2.3l0.2,0l0.6,0.4
			c-0.4,1.1-1,2-1.7,2.8c0.9,0.6,1.9,1.2,2.5,1.6L213.5,335z M208.4,329.4h-0.9v-2.7h2.9c-0.1-0.4-0.3-0.8-0.5-1.2l0.9-0.3
			c0.2,0.5,0.5,1.1,0.7,1.5h2.7v2.7h-0.9v-1.7h-4.8V329.4z M213.4,334.9c-0.6-0.4-1.5-1-2.4-1.6c-0.7,0.6-1.5,1.2-2.2,1.6H213.4z
			 M212.3,338.2v-2.4h-2.9v2.4H212.3z M217.7,337.8c-0.9,0.8-2.3,1.6-3.3,2.1c-0.1-0.3-0.4-0.6-0.6-0.9c1-0.5,2.3-1.3,3.1-1.9
			L217.7,337.8z M217.3,328.5c0.1-0.5,0.2-1.1,0.3-1.6h-2.9v-1h7v1h-3c-0.1,0.5-0.3,1.1-0.4,1.6h2.9v8.3h-6v-8.3H217.3z M220,329.5
			h-3.7v1.5h3.7V329.5z M220,331.9h-3.7v1.5h3.7V331.9z M220,334.3h-3.7v1.5h3.7V334.3z M219.1,337c0.9,0.5,2,1.4,2.6,2l-0.7,0.8
			c-0.6-0.6-1.7-1.5-2.6-2.1L219.1,337z"/>
		<path d="M230.3,328.8c-0.1,7.1-0.2,9.4-0.7,10.1c-0.3,0.4-0.6,0.6-1.1,0.6c-0.4,0.1-1.2,0.1-1.9,0c0-0.4-0.1-0.9-0.4-1.2
			c0.7,0.1,1.4,0.1,1.7,0.1c0.3,0,0.4,0,0.5-0.3c0.4-0.4,0.5-2.6,0.6-8.8h-2.4c-0.1,4.3-0.7,8.1-2.8,10.5c-0.2-0.3-0.6-0.6-0.9-0.8
			c2-2.1,2.5-5.6,2.6-9.6h-2.2v-1.2h2.2c0-0.9,0-1.8,0-2.8h1.2c0,0.9,0,1.9,0,2.8h3.5V328.8z M237,327.1v12.3h-1.2v-1.1h-3.1v1.2
			h-1.1v-12.4H237z M235.8,337.2v-8.9h-3.1v8.9H235.8z"/>
		<path d="M241.4,337.7v1.3h-1v-5.3c-0.2,0.5-0.5,1-0.8,1.4c-0.1-0.2-0.5-0.8-0.7-1c1.2-1.7,1.8-4.3,2.2-7.1h-1.9v-1.1h5.8v1.1h-2.8
			c-0.2,1.3-0.5,2.7-0.8,3.9h3v6.9H241.4z M243.5,331.9h-2v4.8h2V331.9z M244.4,338.6c0.7-0.8,1-2.2,1.2-3.5l0.9,0.2
			c-0.2,1.4-0.4,2.9-1.2,3.7L244.4,338.6z M253.5,333.3c0,0,0,0.3,0,0.5c-0.2,3.7-0.4,5.1-0.8,5.6c-0.3,0.3-0.5,0.4-0.9,0.4
			c-0.4,0-1,0-1.8,0c0-0.3-0.1-0.7-0.3-1c0.7,0.1,1.3,0.1,1.6,0.1c0.3,0,0.4,0,0.5-0.2c0.3-0.3,0.4-1.4,0.6-4.3h-6.6v-8.5h7.4v1h-3
			v1.5h2.7v1h-2.7v1.5h2.7v1h-2.7v1.5H253.5z M246.9,326.9v1.5h2.2v-1.5H246.9z M249.1,329.3h-2.2v1.5h2.2V329.3z M246.9,333.3h2.2
			v-1.5h-2.2V333.3z M247.9,335.5c0.2,0.9,0.3,2.1,0.3,2.9l-0.9,0.1c0-0.8-0.1-2-0.2-2.9L247.9,335.5z M249.6,335.3
			c0.3,0.8,0.6,1.8,0.8,2.4l-0.8,0.2c-0.1-0.7-0.4-1.7-0.7-2.5L249.6,335.3z M251.5,337c-0.2-0.5-0.7-1.3-1.1-1.9l0.7-0.3
			c0.4,0.6,0.9,1.4,1.1,1.9L251.5,337z"/>
		<path d="M269.7,331.7v1.3h-14.5v-1.3H269.7z"/>
		<path d="M275.8,325.5c-0.4,1.2-1,2.4-1.6,3.5v10.7h-1.1v-8.9c-0.4,0.7-0.9,1.3-1.4,1.8c-0.1-0.3-0.5-0.9-0.7-1.2
			c1.5-1.6,2.9-3.9,3.7-6.4L275.8,325.5z M285.7,331.4v1.1h-10.3v-1.1h6.1c0.5-0.9,1-2.3,1.3-3.3l1.1,0.3c-0.4,1-0.9,2.1-1.3,3
			H285.7z M285.3,328H276v-1.1h4.1c-0.1-0.5-0.3-1.2-0.4-1.7l1.1-0.2c0.2,0.6,0.5,1.4,0.6,1.9h4V328z M276.8,333.9h7.6v5.8h-1.2
			v-0.6h-5.3v0.7h-1.1V333.9z M278.2,331.3c-0.1-0.8-0.5-1.9-1-2.8l1-0.3c0.5,0.8,0.9,2,1,2.7L278.2,331.3z M277.9,335v3h5.3v-3
			H277.9z"/>
	</g>
	<rect x="27.7" y="325.8" class="st3" width="12.7" height="12.7"/>
	<g>
		<path d="M307.6,299.3v1h-13.9v-1h6.5c-0.1-0.5-0.3-1-0.5-1.5l1.2-0.3c0.2,0.5,0.5,1.2,0.6,1.7H307.6z M307.1,311
			c0,0.6-0.1,0.8-0.6,1c-0.4,0.1-1.1,0.2-2.1,0.1c-0.1-0.3-0.2-0.6-0.4-0.9c0.7,0,1.4,0,1.6,0c0.2,0,0.3-0.1,0.3-0.3v-4.7h-10.5v5.9
			h-1.2v-6.9h12.9V311z M305.3,301.2v3.2H296v-3.2H305.3z M303.9,310.5h-5.6v0.8h-1.1v-4.1h6.7V310.5z M304.1,302.1h-6.9v1.4h6.9
			V302.1z M298.3,308.1v1.5h4.6v-1.5H298.3z"/>
		<path d="M309.2,311.7c0.5-0.7,0.8-2,1-2.9l0.8,0.3c-0.2,1-0.5,2.3-1,3L309.2,311.7z M316.5,308.1h-7v-1h2.9v-1.2h-2.7v-1h2.7v-1.1
			h-2.5v-5.6h6.3v5.6h-2.7v1.1h2.8v1h-2.8v1.2h3V308.1z M310.8,302.9h1.7v-3.8h-1.7V302.9z M311.7,299.7c0.3,0.8,0.5,1.8,0.5,2.4
			l-0.6,0.2c0-0.7-0.2-1.7-0.5-2.4L311.7,299.7z M312.4,309c0.2,0.9,0.3,2,0.3,2.8l-0.8,0.1c0-0.8,0-1.9-0.2-2.8L312.4,309z
			 M314,308.9c0.3,0.8,0.6,1.9,0.7,2.6l-0.8,0.2c-0.1-0.7-0.4-1.8-0.7-2.6L314,308.9z M315.2,299.1h-1.8v3.8h1.8V299.1z
			 M313.6,302.2c0.2-0.7,0.5-1.8,0.7-2.5l0.7,0.3c-0.3,0.8-0.6,1.8-0.9,2.5L313.6,302.2z M315.7,308.7c0.5,0.8,0.9,1.8,1.1,2.5
			l-0.8,0.3c-0.1-0.7-0.6-1.7-1-2.5L315.7,308.7z M320.5,302.2v2.9h2.8v7h-1.1v-0.7h-4v0.8h-1.1v-7.1h2.3v-7.5h1.2v3.5h3.4v1.1
			H320.5z M322.2,306.3h-4v4.1h4V306.3z"/>
		<path d="M329.6,305.5c-0.2,1.4-0.6,2.6-1.1,3.6c1.1,1.7,3.1,1.9,6,1.9c1.7,0,4-0.1,5.6-0.2c-0.2,0.3-0.3,0.8-0.4,1.1
			c-1.5,0.1-3.5,0.1-5.2,0.1c-3.2,0-5.2-0.3-6.4-2.1c-0.6,1-1.3,1.8-2.1,2.3c-0.2-0.2-0.6-0.7-0.8-0.8c1.5-1,2.7-2.7,3.2-5.2h-1.7
			c-0.4,0-0.8,0.1-0.9,0.2c-0.1-0.3-0.3-0.8-0.4-1.1c0.2-0.1,0.5-0.2,0.8-0.5c0.4-0.4,1.3-1.6,2-2.6h-2.6v-1h3.3l0.2-0.1l0.8,0.4
			c-0.7,0.9-1.9,2.6-2.8,3.6h1.8l0.2,0L329.6,305.5z M328,300.7c-0.4-0.7-1.3-1.8-2-2.5l0.9-0.5c0.7,0.8,1.6,1.8,2,2.4L328,300.7z
			 M330.9,302.6c-0.4,0.6-0.8,1.1-1.2,1.6c-0.1-0.2-0.5-0.7-0.7-0.9c1.3-1.4,2.4-3.5,3.2-5.6l1,0.3c-0.3,0.8-0.6,1.5-0.9,2.2h3.1
			c-0.2-0.6-0.7-1.5-1-2.1l1-0.3c0.5,0.8,1,1.7,1.2,2.4h2.8v1h-3.4v1.6h3v0.9h-3v1.6h3v0.9h-3v1.7h3.8v1h-8.7V302.6z M334.8,301.3
			H332v1.6h2.8V301.3z M334.8,303.8H332v1.6h2.8V303.8z M334.8,306.4H332v1.7h2.8V306.4z"/>
		<path d="M346.4,307c-1.6,0.8-3.4,1.7-4.7,2.3l-0.5-1.2c0.6-0.3,1.4-0.6,2.2-0.9v-5h-1.9v-1.1h1.9v-3.3h1.1v3.3h1.7v1.1h-1.7v4.5
			l1.6-0.7L346.4,307z M349.4,305.2c-0.2,0.4-0.4,0.8-0.7,1.1h6.9c0,0,0,0.3,0,0.5c-0.2,3.3-0.5,4.5-0.9,5c-0.2,0.3-0.5,0.4-0.9,0.4
			c-0.4,0-0.9,0-1.6,0c0-0.3-0.1-0.7-0.3-1c0.6,0,1.1,0.1,1.4,0.1c0.2,0,0.4,0,0.5-0.2c0.3-0.3,0.5-1.3,0.7-3.8h-1.2
			c-0.6,1.9-1.9,4-3.3,5c-0.2-0.2-0.6-0.5-0.8-0.7c1.3-0.9,2.5-2.6,3.1-4.3h-1.6c-0.8,1.6-2.4,3.4-3.9,4.3c-0.2-0.3-0.5-0.5-0.8-0.7
			c1.3-0.7,2.7-2.2,3.6-3.6h-1.6c-0.6,0.7-1.4,1.3-2.1,1.8c-0.2-0.2-0.6-0.6-0.8-0.7c1.3-0.8,2.4-1.9,3.2-3.2h-2.2v-1h10v1H349.4z
			 M354.8,303.3h-7.3v-5.2h7.3V303.3z M353.7,299h-5.1v1.3h5.1V299z M353.7,301.1h-5.1v1.3h5.1V301.1z"/>
		<path d="M362,301.2c-0.4,0.8-0.9,1.5-1.4,2.2v8.8h-1.1v-7.5c-0.5,0.6-1,1.1-1.5,1.5c-0.1-0.2-0.5-0.8-0.7-1
			c1.4-1.1,2.8-2.8,3.7-4.4L362,301.2z M361.6,298c-0.9,1.3-2.3,2.8-3.6,3.8c-0.1-0.2-0.5-0.6-0.6-0.9c1.2-0.8,2.5-2.2,3.1-3.3
			L361.6,298z M370.5,306.1c-0.7,1.5-1.7,2.8-3,3.7c1.3,0.6,2.7,1.1,4.2,1.4c-0.3,0.3-0.6,0.7-0.7,1c-1.7-0.4-3.2-1-4.5-1.7
			c-1.4,0.8-3.1,1.4-4.7,1.8c-0.1-0.3-0.4-0.8-0.6-1c1.5-0.3,2.9-0.8,4.2-1.4c-0.6-0.5-1.3-1-1.8-1.6c-0.4,0.4-0.8,0.7-1.3,1.1
			c-0.2-0.2-0.6-0.7-0.8-0.9c0.5-0.3,0.9-0.7,1.4-1.1c-0.3-0.4-0.5-0.8-0.8-1.2l1-0.3c0.2,0.3,0.3,0.6,0.5,0.8
			c0.6-0.6,1.1-1.3,1.5-2c-2.3,0.1-2.7,0.2-3,0.3c0-0.2-0.2-0.8-0.4-1.1c0.5-0.1,1-0.3,1.8-0.8c0.4-0.2,1.1-0.7,2-1.2
			c-2.4,0.1-2.8,0.2-3.1,0.3c0-0.3-0.2-0.8-0.4-1.2c0.3,0,0.6-0.3,1.1-0.6c0.4-0.3,1.8-1.5,2.8-2.6l1.2,0.5c-1,1-2,1.9-3,2.7
			l2.8-0.1c0.7-0.5,1.5-1.1,2.1-1.7l1.1,0.6c-1.9,1.6-3.9,2.9-5.8,3.9l5-0.3c-0.4-0.5-0.7-0.9-1.1-1.3l0.9-0.5
			c0.9,1.1,2.1,2.5,2.6,3.5l-1,0.6c-0.2-0.4-0.5-0.8-0.8-1.3l-3.6,0.2c-0.2,0.4-0.5,0.9-0.8,1.3h3.9l0.2,0L370.5,306.1z M365,306.8
			c-0.2,0.2-0.4,0.5-0.6,0.7c0.6,0.7,1.3,1.2,2.1,1.7c1-0.7,1.9-1.5,2.4-2.4H365z"/>
		<path d="M386,299.9c-0.4,0.6-0.7,1.2-1.1,1.8v10.5h-1.3v-8.9c-1.6,1.8-3.6,3.5-5.8,4.7c-0.2-0.3-0.6-0.8-0.8-1
			c3.2-1.6,5.9-4.2,7.5-7h-7.1v-1.2H391v1.2H386z M386,302.6c1.9,1.2,4.3,3,5.5,4.2l-0.9,0.9c-1.1-1.2-3.5-3.1-5.4-4.4L386,302.6z"
			/>
		<path d="M392.7,304.8c0.4-1.1,0.6-2.8,0.7-4.1l0.8,0.1c-0.1,1.2-0.3,3.1-0.7,4.3L392.7,304.8z M394.8,297.6h1.1v14.6h-1.1V297.6z
			 M396.8,303.9c-0.1-0.9-0.5-2.3-0.8-3.4l0.8-0.3c0.4,1.1,0.8,2.5,0.9,3.4L396.8,303.9z M407.4,311.6h-8.1v0.6h-1.1V307
			c-0.4,0.5-0.8,0.9-1.2,1.3c-0.1-0.2-0.4-0.8-0.6-1c1-0.9,2.1-2.3,2.8-3.7h-1.4v-5.4h4.1v5.4h-2.7l0.9,0.3c-0.2,0.4-0.4,0.7-0.6,1
			h2.8c-0.1-0.4-0.3-0.8-0.5-1.2l1-0.2h-0.2v-5.4h4.2v5.4h-3.9c0.2,0.4,0.4,1,0.6,1.4h3.4v0.9h-3.5v1h3.2v0.8h-3.2v1h3.2v0.8h-3.2
			v1.1h3.9L407.4,311.6z M398.8,299.7h2.3v-0.8h-2.3V299.7z M398.8,301.3h2.3v-0.8h-2.3V301.3z M398.8,302.9h2.3V302h-2.3V302.9z
			 M402.5,305.9h-3.1v1h3.1V305.9z M402.5,307.7h-3.1v1h3.1V307.7z M399.4,310.7h3.1v-1.1h-3.1V310.7z M403.7,299.7h2.3v-0.8h-2.3
			V299.7z M403.7,301.3h2.3v-0.8h-2.3V301.3z M403.7,302.9h2.3V302h-2.3V302.9z"/>
		<path d="M416.7,301.1v2.2h5.2v5.6c0,0.7-0.2,1-0.7,1.2c-0.5,0.2-1.4,0.2-2.8,0.2c0-0.4-0.3-0.8-0.4-1.2c1.1,0,2,0,2.3,0
			c0.3,0,0.4-0.1,0.4-0.3v-4.4h-4v7.8h-1.2v-7.8h-3.7v5.9h-1.2v-7.1h4.9v-2.2h-6.5V300h6.8c-0.3-0.6-0.7-1.5-1.1-2.1l1.1-0.4
			c0.5,0.7,1,1.7,1.2,2.4L417,300h6.4v1.2H416.7z"/>
		<path d="M430,307c-1.6,0.8-3.4,1.7-4.7,2.3l-0.5-1.2c0.6-0.3,1.4-0.6,2.2-0.9v-5h-1.9v-1.1h1.9v-3.3h1.1v3.3h1.7v1.1h-1.7v4.5
			l1.6-0.7L430,307z M432.9,305.2c-0.2,0.4-0.4,0.8-0.7,1.1h6.9c0,0,0,0.3,0,0.5c-0.2,3.3-0.5,4.5-0.9,5c-0.2,0.3-0.5,0.4-0.9,0.4
			c-0.4,0-0.9,0-1.6,0c0-0.3-0.1-0.7-0.3-1c0.6,0,1.1,0.1,1.4,0.1c0.2,0,0.4,0,0.5-0.2c0.3-0.3,0.5-1.3,0.7-3.8h-1.2
			c-0.6,1.9-1.9,4-3.3,5c-0.2-0.2-0.6-0.5-0.8-0.7c1.3-0.9,2.5-2.6,3.1-4.3h-1.6c-0.8,1.6-2.4,3.4-3.9,4.3c-0.2-0.3-0.5-0.5-0.8-0.7
			c1.3-0.7,2.7-2.2,3.6-3.6h-1.6c-0.6,0.7-1.4,1.3-2.1,1.8c-0.2-0.2-0.6-0.6-0.8-0.7c1.3-0.8,2.4-1.9,3.2-3.2h-2.2v-1h10v1H432.9z
			 M438.4,303.3h-7.3v-5.2h7.3V303.3z M437.3,299h-5.1v1.3h5.1V299z M437.3,301.1h-5.1v1.3h5.1V301.1z"/>
		<path d="M446.7,309.9c-2,0.6-4,1.1-5.6,1.6l-0.3-1.1c0.3-0.1,0.5-0.1,0.8-0.2v-5.4h1v5.2l1.1-0.3v-6.4h-2.1v-4.9h4.8v4.9h-1.6v2.2
			h1.7v1.1h-1.7v2.8l1.7-0.5L446.7,309.9z M442.7,302.1h2.6v-2.8h-2.6V302.1z M451.8,305.9c0.7,2.4,1.9,4.4,3.9,5.3
			c-0.3,0.2-0.6,0.7-0.8,1c-1.8-1-3-2.7-3.7-4.9c-0.6,1.8-1.7,3.6-4.1,5c-0.2-0.3-0.5-0.7-0.8-0.9c2.7-1.5,3.7-3.5,4.1-5.5h-3.4
			v-1.1h3.6c0.1-0.7,0.1-1.3,0.1-2v-1.2h-1.9c-0.3,0.9-0.5,1.6-0.9,2.3c-0.2-0.2-0.7-0.4-1-0.6c0.8-1.2,1.2-3.1,1.4-5l1.1,0.2
			c-0.1,0.7-0.2,1.4-0.4,2h1.6v-2.8h1.2v2.8h3.3v1.1h-3.3v1.2c0,0.6,0,1.3-0.1,2h3.7v1.1H451.8z"/>
		<path d="M459.4,304.8c-0.6-0.5-1.7-1.3-2.6-1.8l0.7-0.8c0.9,0.4,2,1.1,2.6,1.6L459.4,304.8z M460.7,306.8
			c-0.7,1.7-1.7,3.6-2.4,5.1l-1-0.8c0.7-1.2,1.8-3.3,2.6-5.1L460.7,306.8z M460.3,300.5c-0.6-0.5-1.7-1.3-2.6-1.8l0.7-0.8
			c0.9,0.4,2,1.2,2.6,1.7L460.3,300.5z M467.5,306.6c1,1.5,2.6,2.9,4.1,3.6c-0.3,0.2-0.6,0.6-0.8,0.9c-1.5-0.8-3.1-2.4-4.1-4v5.1
			h-1.2v-5c-1,1.7-2.6,3.2-4.3,4c-0.2-0.3-0.5-0.7-0.8-0.9c1.7-0.7,3.3-2.1,4.2-3.7h-3.5v-1.1h4.3v-1.7h1.2v1.7h4.4v1.1H467.5z
			 M465.4,300c-0.2,2.3-0.9,3.5-3.9,4.2c-0.1-0.3-0.4-0.7-0.6-0.9c2.7-0.5,3.3-1.4,3.4-3.3H465.4z M462.6,301.4h-1.1v-2.9h9.4v2.8
			h-1.1v-1.8h-7.1V301.4z M470.3,302.7c0.3,0,0.7,0,1-0.1c0,0.3,0,0.7,0.1,1c-0.2,0.1-0.6,0.1-1,0.1h-2c-1.2,0-1.5-0.4-1.5-1.5V300
			h1.1v2.2c0,0.4,0,0.5,0.4,0.5H470.3z"/>
		<path d="M481.4,305.7l-1.7,0.6v4.5c0,0.7-0.1,1-0.5,1.2c-0.4,0.2-1,0.2-2,0.2c0-0.3-0.2-0.8-0.3-1.1c0.7,0,1.3,0,1.5,0
			c0.2,0,0.3-0.1,0.3-0.3v-4.2c-0.7,0.2-1.4,0.5-2,0.6l-0.3-1.1c0.6-0.2,1.4-0.4,2.3-0.7v-3.5h-2.1v-1.1h2.1v-3.2h1.1v3.2h1.6v1.1
			h-1.6v3.1l1.6-0.5L481.4,305.7z M491.1,299.7v1.1h-4.2v2h3.4v1.1h-8v-1.1h3.4v-2h-4.2v-1.1h4.2v-2h1.1v2H491.1z M489,305.7h2v1.1
			h-2v4.1c0,0.7-0.2,1-0.6,1.2c-0.5,0.2-1.2,0.2-2.4,0.2c0-0.4-0.2-0.8-0.4-1.2c0.9,0,1.7,0,2,0c0.3,0,0.3-0.1,0.3-0.3v-4.1h-6.1
			v-1.1h6.1v-1.4h1.1V305.7z M483.9,307.2c0.6,0.9,1.4,2,1.8,2.8l-1,0.6c-0.4-0.7-1.1-1.9-1.7-2.8L483.9,307.2z"/>
		<path d="M494.1,308c-0.2,1.5-0.5,3.1-0.8,4.1c-0.2-0.1-0.7-0.2-0.9-0.3c0.4-1,0.7-2.6,0.8-4L494.1,308z M496.9,307.4
			c0-0.3-0.1-0.6-0.2-0.9c-3.1,0.5-3.6,0.6-3.9,0.7c0-0.2-0.2-0.8-0.4-1c0.3-0.1,0.7-0.5,1.1-1.1c0.2-0.3,0.7-1,1.3-1.8
			c-1.6,0.2-1.9,0.2-2.1,0.4c-0.1-0.2-0.2-0.7-0.4-1c0.3-0.1,0.5-0.4,0.8-0.9c0.3-0.5,1.4-2.3,1.9-4.1l1,0.4
			c-0.6,1.5-1.4,3.1-2.3,4.3l1.6-0.1c0.4-0.7,0.8-1.4,1.1-2.2l0.9,0.6c-0.9,1.9-2.1,3.7-3.3,5.2l2.3-0.3c-0.1-0.5-0.3-1.1-0.5-1.6
			l0.8-0.2c0.4,1.1,0.8,2.5,0.9,3.4L496.9,307.4z M495.5,307.8c0.2,1.2,0.4,2.7,0.4,3.7l-0.9,0.2c0-1-0.2-2.5-0.4-3.7L495.5,307.8z
			 M496.9,307.4c0.4,0.9,0.7,2.2,0.9,3l-0.8,0.3c-0.1-0.8-0.5-2-0.8-3L496.9,307.4z M503.8,310c1.2,0.4,2.4,1,3.2,1.4l-0.5,0.9
			c-0.8-0.4-2.2-1-3.4-1.5l0.4-0.7h-2.7l0.8,0.7c-1.2,0.6-2.7,1.2-3.8,1.6c-0.1-0.3-0.3-0.6-0.5-0.8c1-0.4,2.6-1,3.4-1.5h-2.5v-4.7
			h7.9v4.7H503.8z M501.8,299.3h-4.1v-0.8h4.1v-0.9h1.2v0.9h3.9v0.8h-3.9v0.9h3.3v0.8h-7.8v-0.8h3.4V299.3z M497.8,301.7h8.9v2.9
			h-8.9V301.7z M498.8,303.8h1.8v-1.3h-1.8V303.8z M499.4,306.7h5.7V306h-5.7V306.7z M499.4,308h5.7v-0.7h-5.7V308z M499.4,309.3
			h5.7v-0.7h-5.7V309.3z M503.2,303.8v-1.3h-1.7v1.3H503.2z M505.6,302.5h-1.5v1.3h1.5V302.5z"/>
		<path d="M516.4,310.6c0.8,0.2,1.7,0.2,2.6,0.2c0.6,0,3.3,0,4.1,0c-0.2,0.3-0.4,0.8-0.4,1.2h-3.7c-3.3,0-5.7-0.6-7.2-3.3
			c-0.5,1.5-1.3,2.7-2.4,3.6c-0.2-0.2-0.7-0.6-1-0.8c1.8-1.4,2.6-3.6,3-6.5l1.2,0.1c-0.1,0.7-0.2,1.4-0.4,2.1
			c0.6,1.7,1.6,2.6,2.9,3.1v-6.6h-4v-1.1h9.3v1.1h-4.1v2.6h4.7v1.1h-4.7V310.6z M510.3,302.9h-1.2v-3.5h6.2
			c-0.2-0.5-0.5-1.1-0.8-1.6l1.2-0.3c0.4,0.6,0.8,1.4,0.9,1.9h5.7v3.5h-1.2v-2.3h-10.9V302.9z"/>
		<path d="M532.3,308.4h-7.8v-1.1h1.6v-6.5h-1.3v-1.1h1.3v-1.9h1.1v1.9h2.9v-1.9h1.1v1.9h1.2v1.1h-1.2v6.5h1.2V308.4z M527.8,309
			c-0.6,1.2-1.5,2.4-2.4,3.2c-0.2-0.2-0.7-0.5-1-0.7c0.9-0.7,1.7-1.8,2.2-2.8L527.8,309z M527.1,300.8v1.4h2.9v-1.4H527.1z
			 M527.1,304.8h2.9v-1.6h-2.9V304.8z M527.1,307.3h2.9v-1.6h-2.9V307.3z M529.9,308.7c0.6,0.7,1.4,1.7,1.7,2.4l-1,0.6
			c-0.3-0.6-1-1.7-1.6-2.4L529.9,308.7z M538.6,310.7c0,0.7-0.2,1.1-0.6,1.2c-0.5,0.2-1.2,0.2-2.4,0.2c0-0.3-0.2-0.8-0.4-1.2
			c0.8,0,1.6,0,1.9,0c0.2,0,0.3-0.1,0.3-0.3v-3.8h-3.4c-0.2,1.9-0.6,3.9-1.5,5.5c-0.2-0.2-0.7-0.6-0.9-0.7c1.3-2.1,1.5-5.2,1.5-7.4
			v-5.8h5.5V310.7z M537.4,305.8v-2.7h-3.3v1.1c0,0.5,0,1,0,1.6H537.4z M534.2,299.5v2.5h3.3v-2.5H534.2z"/>
		<path d="M548.4,310.6c0.8,0.2,1.7,0.2,2.6,0.2c0.6,0,3.3,0,4.1,0c-0.2,0.3-0.4,0.8-0.4,1.2h-3.7c-3.3,0-5.7-0.6-7.2-3.3
			c-0.5,1.5-1.3,2.7-2.4,3.6c-0.2-0.2-0.7-0.6-1-0.8c1.8-1.4,2.6-3.6,3-6.5l1.2,0.1c-0.1,0.7-0.2,1.4-0.4,2.1
			c0.6,1.7,1.6,2.6,2.9,3.1v-6.6h-4v-1.1h9.3v1.1h-4.1v2.6h4.7v1.1h-4.7V310.6z M542.3,302.9h-1.2v-3.5h6.2
			c-0.2-0.5-0.5-1.1-0.8-1.6l1.2-0.3c0.4,0.6,0.8,1.4,0.9,1.9h5.7v3.5h-1.2v-2.3h-10.9V302.9z"/>
		<path d="M562.9,307.4l-0.1-0.1v4.8h-1.1v-0.5h-2.9v0.5h-1v-4.7c-0.3,0.1-0.5,0.3-0.8,0.4c-0.1-0.3-0.4-0.8-0.6-1
			c1.1-0.4,2.2-1,3.1-1.8c-0.4-0.3-0.8-0.5-1.2-0.7l0.7-0.7c0.4,0.2,0.8,0.5,1.3,0.7c0.5-0.5,0.9-1.1,1.2-1.7h-2.3
			c-0.5,0.7-1.1,1.4-1.8,2c-0.1-0.2-0.4-0.6-0.7-0.8c1.2-0.9,2-2.1,2.4-3.2l0.9,0.2c-0.1,0.3-0.2,0.6-0.4,0.9h2.3l0.2,0l0.6,0.4
			c-0.4,1.1-1,2-1.7,2.8c0.9,0.6,1.9,1.2,2.5,1.6L562.9,307.4z M557.8,301.9h-0.9v-2.7h2.9c-0.1-0.4-0.3-0.8-0.5-1.2l0.9-0.3
			c0.2,0.5,0.5,1.1,0.7,1.5h2.7v2.7h-0.9v-1.7h-4.8V301.9z M562.7,307.3c-0.6-0.4-1.5-1-2.4-1.6c-0.7,0.6-1.5,1.2-2.2,1.6H562.7z
			 M561.7,310.7v-2.4h-2.9v2.4H561.7z M567.1,310.3c-0.9,0.8-2.3,1.6-3.3,2.1c-0.1-0.3-0.4-0.6-0.6-0.9c1-0.5,2.3-1.3,3.1-1.9
			L567.1,310.3z M566.6,301c0.1-0.5,0.2-1.1,0.3-1.6H564v-1h7v1h-3c-0.1,0.5-0.3,1.1-0.4,1.6h2.9v8.3h-6V301H566.6z M569.4,302h-3.7
			v1.5h3.7V302z M569.4,304.4h-3.7v1.5h3.7V304.4z M569.4,306.8h-3.7v1.5h3.7V306.8z M568.5,309.5c0.9,0.5,2,1.4,2.6,2l-0.7,0.8
			c-0.6-0.6-1.7-1.5-2.6-2.1L568.5,309.5z"/>
		<path d="M578.1,305.8c-0.7,0.2-1.4,0.4-2.1,0.7v4.4c0,0.7-0.1,1-0.6,1.2c-0.4,0.2-1.1,0.2-2.1,0.2c0-0.3-0.2-0.8-0.4-1.1
			c0.7,0,1.4,0,1.6,0c0.2,0,0.3-0.1,0.3-0.3v-4c-0.8,0.2-1.5,0.5-2.2,0.7l-0.3-1.2c0.7-0.2,1.6-0.4,2.5-0.7v-3.9h-2.3v-1.1h2.3v-2.9
			h1.2v2.9h1.9v1.1H576v3.6l1.9-0.6L578.1,305.8z M586.1,299v12.7h-1.2v-1.4H580v1.5h-1.2V299H586.1z M584.9,309.2v-9H580v9H584.9z"
			/>
		<path d="M590.8,307.8c-0.4,1.2-1,2.5-1.5,3.4c-0.2-0.1-0.7-0.4-0.9-0.4c0.6-0.9,1.1-2.1,1.5-3.2L590.8,307.8z M592.9,307v5.3h-1.1
			V307h-3.3v-1h7.7v1H592.9z M591.8,300.2h-3.1v-1h3.1v-1.5h1.1v1.5h3.1v1h-3.1v1.4h2.8v1H589v-1h2.7V300.2z M595.5,304.1
			c1-1.6,1.6-4,1.9-6.5l1.2,0.1c-0.1,0.9-0.3,1.9-0.5,2.7h3.9l0.2,0l0.8,0.3c-0.3,1.4-0.8,3.1-1.2,4.1l-1-0.3
			c0.3-0.8,0.6-1.9,0.8-2.9h-3.9c-0.4,1.3-0.8,2.4-1.3,3.3c-0.2-0.2-0.7-0.5-0.9-0.7l0,0.5h-6.3v-1h6.3L595.5,304.1z M594.7,307.5
			c0.5,0.8,1,1.9,1.2,2.5l-0.9,0.4c-0.2-0.7-0.7-1.7-1.2-2.6L594.7,307.5z M599.7,303.5c0,0.5,0,1,0,1.5c0.6,2.8,1.7,5.2,3.6,6.2
			c-0.3,0.2-0.6,0.7-0.8,1c-1.5-0.9-2.5-2.6-3.2-4.7c-0.4,1.6-1.2,3.3-2.8,4.8c-0.2-0.3-0.6-0.6-0.9-0.8c2.8-2.5,3.1-5.8,3.1-8v-0.7
			h1.1V303.5z"/>
	</g>
	<rect x="273.9" y="298.3" class="st2" width="12.7" height="12.7"/>
	<g>
		<path d="M5.1,32.8c0-3.4,1.5-4.8,3.3-4.8c0.9,0,1.6,0.4,2.1,0.9l-0.6,0.7c-0.3-0.4-0.9-0.7-1.4-0.7c-1.2,0-2.2,0.9-2.3,3.6
			c0.6-0.7,1.3-1.1,2-1.1c1.5,0,2.4,0.9,2.4,2.6c0,1.6-1.2,2.7-2.5,2.7C6.3,36.9,5.1,35.5,5.1,32.8z M6.1,33.5C6.3,35.1,6.9,36,8,36
			c0.9,0,1.5-0.8,1.5-1.9c0-1.1-0.5-1.8-1.6-1.8C7.4,32.3,6.7,32.6,6.1,33.5z"/>
		<path d="M11.7,32.4c0-2.9,1-4.4,2.7-4.4s2.7,1.5,2.7,4.4c0,2.9-1,4.5-2.7,4.5S11.7,35.3,11.7,32.4z M16.1,32.4
			c0-2.5-0.7-3.5-1.7-3.5c-1,0-1.7,1-1.7,3.5s0.7,3.6,1.7,3.6C15.4,36,16.1,34.9,16.1,32.4z"/>
		<path d="M18.6,36.1c0-0.5,0.4-0.9,0.8-0.9s0.8,0.3,0.8,0.9c0,0.5-0.4,0.8-0.8,0.8S18.6,36.6,18.6,36.1z"/>
		<path d="M21.7,32.4c0-2.9,1-4.4,2.7-4.4s2.7,1.5,2.7,4.4c0,2.9-1,4.5-2.7,4.5S21.7,35.3,21.7,32.4z M26.1,32.4
			c0-2.5-0.7-3.5-1.7-3.5c-1,0-1.7,1-1.7,3.5s0.7,3.6,1.7,3.6C25.4,36,26.1,34.9,26.1,32.4z"/>
		<path d="M28.3,32.4c0-2.9,1-4.4,2.7-4.4s2.7,1.5,2.7,4.4c0,2.9-1,4.5-2.7,4.5S28.3,35.3,28.3,32.4z M32.7,32.4
			c0-2.5-0.7-3.5-1.7-3.5c-1,0-1.7,1-1.7,3.5s0.7,3.6,1.7,3.6C32.1,36,32.7,34.9,32.7,32.4z"/>
		<path d="M34.9,30.5c0-1.8,0.8-2.8,2-2.8c1.2,0,2,1,2,2.8c0,1.8-0.8,2.8-2,2.8C35.6,33.3,34.9,32.3,34.9,30.5z M38,30.5
			c0-1.4-0.5-2.1-1.2-2.1c-0.7,0-1.2,0.7-1.2,2.1s0.5,2.1,1.2,2.1C37.5,32.6,38,31.9,38,30.5z M42,27.8h0.7l-4.9,9.1h-0.7L42,27.8z
			 M41,34.1c0-1.8,0.8-2.8,2-2.8s2,1,2,2.8c0,1.8-0.8,2.8-2,2.8S41,35.9,41,34.1z M44.1,34.1c0-1.4-0.5-2.1-1.2-2.1
			c-0.7,0-1.2,0.7-1.2,2.1s0.5,2.1,1.2,2.1C43.7,36.2,44.1,35.5,44.1,34.1z"/>
	</g>
	<g>
		<path d="M8.5,83.2H4.7v-0.7L8.3,77h1.2v5.3h1.2v0.9H9.5v2.4h-1V83.2z M8.5,82.3v-2.5c0-0.4,0-1.2,0.1-1.6h0
			c-0.2,0.4-0.5,0.8-0.7,1.2l-2,2.9H8.5z"/>
		<path d="M11.7,81.2c0-2.9,1-4.4,2.7-4.4s2.7,1.5,2.7,4.4c0,2.9-1,4.5-2.7,4.5S11.7,84.1,11.7,81.2z M16.1,81.2
			c0-2.5-0.7-3.5-1.7-3.5c-1,0-1.7,1-1.7,3.5s0.7,3.6,1.7,3.6C15.4,84.8,16.1,83.7,16.1,81.2z"/>
		<path d="M18.6,84.9c0-0.5,0.4-0.9,0.8-0.9s0.8,0.3,0.8,0.9c0,0.5-0.4,0.8-0.8,0.8S18.6,85.4,18.6,84.9z"/>
		<path d="M21.7,81.2c0-2.9,1-4.4,2.7-4.4s2.7,1.5,2.7,4.4c0,2.9-1,4.5-2.7,4.5S21.7,84.1,21.7,81.2z M26.1,81.2
			c0-2.5-0.7-3.5-1.7-3.5c-1,0-1.7,1-1.7,3.5s0.7,3.6,1.7,3.6C25.4,84.8,26.1,83.7,26.1,81.2z"/>
		<path d="M28.3,81.2c0-2.9,1-4.4,2.7-4.4s2.7,1.5,2.7,4.4c0,2.9-1,4.5-2.7,4.5S28.3,84.1,28.3,81.2z M32.7,81.2
			c0-2.5-0.7-3.5-1.7-3.5c-1,0-1.7,1-1.7,3.5s0.7,3.6,1.7,3.6C32.1,84.8,32.7,83.7,32.7,81.2z"/>
		<path d="M34.9,79.3c0-1.8,0.8-2.8,2-2.8c1.2,0,2,1,2,2.8c0,1.8-0.8,2.8-2,2.8C35.6,82.1,34.9,81.1,34.9,79.3z M38,79.3
			c0-1.4-0.5-2.1-1.2-2.1c-0.7,0-1.2,0.7-1.2,2.1s0.5,2.1,1.2,2.1C37.5,81.4,38,80.7,38,79.3z M42,76.6h0.7l-4.9,9.1h-0.7L42,76.6z
			 M41,82.9c0-1.8,0.8-2.8,2-2.8s2,1,2,2.8c0,1.8-0.8,2.8-2,2.8S41,84.7,41,82.9z M44.1,82.9c0-1.4-0.5-2.1-1.2-2.1
			c-0.7,0-1.2,0.7-1.2,2.1S42.3,85,43,85C43.7,85,44.1,84.3,44.1,82.9z"/>
	</g>
	<g>
		<path d="M4.9,133.7c2.6-2.6,4-4.1,4-5.5c0-1-0.5-1.7-1.6-1.7c-0.7,0-1.3,0.5-1.8,1l-0.6-0.6c0.7-0.8,1.5-1.3,2.6-1.3
			c1.6,0,2.6,1,2.6,2.5c0,1.6-1.5,3.2-3.5,5.3c0.5,0,1-0.1,1.4-0.1h2.5v0.9H4.9V133.7z"/>
		<path d="M11.7,130c0-2.9,1-4.4,2.7-4.4s2.7,1.5,2.7,4.4c0,2.9-1,4.5-2.7,4.5S11.7,132.9,11.7,130z M16.1,130
			c0-2.5-0.7-3.5-1.7-3.5c-1,0-1.7,1-1.7,3.5s0.7,3.6,1.7,3.6C15.4,133.6,16.1,132.5,16.1,130z"/>
		<path d="M18.6,133.7c0-0.5,0.4-0.9,0.8-0.9s0.8,0.3,0.8,0.9c0,0.5-0.4,0.8-0.8,0.8S18.6,134.2,18.6,133.7z"/>
		<path d="M21.7,130c0-2.9,1-4.4,2.7-4.4s2.7,1.5,2.7,4.4c0,2.9-1,4.5-2.7,4.5S21.7,132.9,21.7,130z M26.1,130
			c0-2.5-0.7-3.5-1.7-3.5c-1,0-1.7,1-1.7,3.5s0.7,3.6,1.7,3.6C25.4,133.6,26.1,132.5,26.1,130z"/>
		<path d="M28.3,130c0-2.9,1-4.4,2.7-4.4s2.7,1.5,2.7,4.4c0,2.9-1,4.5-2.7,4.5S28.3,132.9,28.3,130z M32.7,130
			c0-2.5-0.7-3.5-1.7-3.5c-1,0-1.7,1-1.7,3.5s0.7,3.6,1.7,3.6C32.1,133.6,32.7,132.5,32.7,130z"/>
		<path d="M34.9,128.1c0-1.8,0.8-2.8,2-2.8c1.2,0,2,1,2,2.8c0,1.8-0.8,2.8-2,2.8C35.6,130.9,34.9,129.9,34.9,128.1z M38,128.1
			c0-1.4-0.5-2.1-1.2-2.1c-0.7,0-1.2,0.7-1.2,2.1s0.5,2.1,1.2,2.1C37.5,130.2,38,129.5,38,128.1z M42,125.4h0.7l-4.9,9.1h-0.7
			L42,125.4z M41,131.7c0-1.8,0.8-2.8,2-2.8s2,1,2,2.8c0,1.8-0.8,2.8-2,2.8S41,133.5,41,131.7z M44.1,131.7c0-1.4-0.5-2.1-1.2-2.1
			c-0.7,0-1.2,0.7-1.2,2.1s0.5,2.1,1.2,2.1C43.7,133.8,44.1,133.1,44.1,131.7z"/>
	</g>
	<g>
		<path d="M11.7,178.8c0-2.9,1-4.4,2.7-4.4s2.7,1.5,2.7,4.4c0,2.9-1,4.5-2.7,4.5S11.7,181.7,11.7,178.8z M16.1,178.8
			c0-2.5-0.7-3.5-1.7-3.5c-1,0-1.7,1-1.7,3.5s0.7,3.6,1.7,3.6C15.4,182.4,16.1,181.3,16.1,178.8z"/>
		<path d="M18.6,182.5c0-0.5,0.4-0.9,0.8-0.9s0.8,0.3,0.8,0.9c0,0.5-0.4,0.8-0.8,0.8S18.6,183,18.6,182.5z"/>
		<path d="M21.7,178.8c0-2.9,1-4.4,2.7-4.4s2.7,1.5,2.7,4.4c0,2.9-1,4.5-2.7,4.5S21.7,181.7,21.7,178.8z M26.1,178.8
			c0-2.5-0.7-3.5-1.7-3.5c-1,0-1.7,1-1.7,3.5s0.7,3.6,1.7,3.6C25.4,182.4,26.1,181.3,26.1,178.8z"/>
		<path d="M28.3,178.8c0-2.9,1-4.4,2.7-4.4c1.7,0,2.7,1.5,2.7,4.4c0,2.9-1,4.5-2.7,4.5C29.4,183.3,28.3,181.7,28.3,178.8z
			 M32.7,178.8c0-2.5-0.7-3.5-1.7-3.5c-1,0-1.7,1-1.7,3.5s0.7,3.6,1.7,3.6C32.1,182.4,32.7,181.3,32.7,178.8z"/>
		<path d="M34.9,176.9c0-1.8,0.8-2.8,2-2.8c1.2,0,2,1,2,2.8c0,1.8-0.8,2.8-2,2.8C35.6,179.7,34.9,178.7,34.9,176.9z M38,176.9
			c0-1.4-0.5-2.1-1.2-2.1c-0.7,0-1.2,0.7-1.2,2.1s0.5,2.1,1.2,2.1C37.5,179,38,178.3,38,176.9z M42,174.2h0.7l-4.9,9.1h-0.7
			L42,174.2z M41,180.5c0-1.8,0.8-2.8,2-2.8s2,1,2,2.8c0,1.8-0.8,2.8-2,2.8S41,182.3,41,180.5z M44.1,180.5c0-1.4-0.5-2.1-1.2-2.1
			c-0.7,0-1.2,0.7-1.2,2.1s0.5,2.1,1.2,2.1C43.7,182.6,44.1,181.9,44.1,180.5z"/>
	</g>
	<g>
		<path d="M0.8,228.2h3.1v0.8H0.8V228.2z"/>
		<path d="M4.9,231.3c2.6-2.6,4-4.1,4-5.5c0-1-0.5-1.7-1.6-1.7c-0.7,0-1.3,0.5-1.8,1l-0.6-0.6c0.7-0.8,1.5-1.3,2.6-1.3
			c1.6,0,2.6,1,2.6,2.5c0,1.6-1.5,3.2-3.5,5.3c0.5,0,1-0.1,1.4-0.1h2.5v0.9H4.9V231.3z"/>
		<path d="M11.7,227.6c0-2.9,1-4.4,2.7-4.4s2.7,1.5,2.7,4.4c0,2.9-1,4.5-2.7,4.5S11.7,230.5,11.7,227.6z M16.1,227.6
			c0-2.5-0.7-3.5-1.7-3.5c-1,0-1.7,1-1.7,3.5c0,2.5,0.7,3.6,1.7,3.6C15.4,231.2,16.1,230.1,16.1,227.6z"/>
		<path d="M18.6,231.3c0-0.5,0.4-0.9,0.8-0.9s0.8,0.3,0.8,0.9c0,0.5-0.4,0.8-0.8,0.8S18.6,231.8,18.6,231.3z"/>
		<path d="M21.7,227.6c0-2.9,1-4.4,2.7-4.4s2.7,1.5,2.7,4.4c0,2.9-1,4.5-2.7,4.5S21.7,230.5,21.7,227.6z M26.1,227.6
			c0-2.5-0.7-3.5-1.7-3.5c-1,0-1.7,1-1.7,3.5c0,2.5,0.7,3.6,1.7,3.6C25.4,231.2,26.1,230.1,26.1,227.6z"/>
		<path d="M28.3,227.6c0-2.9,1-4.4,2.7-4.4c1.7,0,2.7,1.5,2.7,4.4c0,2.9-1,4.5-2.7,4.5C29.4,232.1,28.3,230.5,28.3,227.6z
			 M32.7,227.6c0-2.5-0.7-3.5-1.7-3.5c-1,0-1.7,1-1.7,3.5c0,2.5,0.7,3.6,1.7,3.6C32.1,231.2,32.7,230.1,32.7,227.6z"/>
		<path d="M34.9,225.7c0-1.8,0.8-2.8,2-2.8c1.2,0,2,1,2,2.8c0,1.8-0.8,2.8-2,2.8C35.6,228.5,34.9,227.5,34.9,225.7z M38,225.7
			c0-1.4-0.5-2.1-1.2-2.1c-0.7,0-1.2,0.7-1.2,2.1s0.5,2.1,1.2,2.1C37.5,227.8,38,227.1,38,225.7z M42,223h0.7l-4.9,9.1h-0.7L42,223z
			 M41,229.3c0-1.8,0.8-2.8,2-2.8s2,1,2,2.8c0,1.8-0.8,2.8-2,2.8S41,231.1,41,229.3z M44.1,229.3c0-1.4-0.5-2.1-1.2-2.1
			c-0.7,0-1.2,0.7-1.2,2.1s0.5,2.1,1.2,2.1C43.7,231.4,44.1,230.7,44.1,229.3z"/>
	</g>
	<g>
		<path d="M0.8,277h3.1v0.8H0.8V277z"/>
		<path d="M8.5,278.4H4.7v-0.7l3.7-5.5h1.2v5.3h1.2v0.9H9.5v2.4h-1V278.4z M8.5,277.5V275c0-0.4,0-1.2,0.1-1.6h0
			c-0.2,0.4-0.5,0.8-0.7,1.2l-2,2.9H8.5z"/>
		<path d="M11.7,276.4c0-2.9,1-4.4,2.7-4.4s2.7,1.5,2.7,4.4c0,2.9-1,4.5-2.7,4.5S11.7,279.3,11.7,276.4z M16.1,276.4
			c0-2.5-0.7-3.5-1.7-3.5c-1,0-1.7,1-1.7,3.5s0.7,3.6,1.7,3.6C15.4,280,16.1,278.9,16.1,276.4z"/>
		<path d="M18.6,280.1c0-0.5,0.4-0.9,0.8-0.9s0.8,0.3,0.8,0.9c0,0.5-0.4,0.8-0.8,0.8S18.6,280.6,18.6,280.1z"/>
		<path d="M21.7,276.4c0-2.9,1-4.4,2.7-4.4s2.7,1.5,2.7,4.4c0,2.9-1,4.5-2.7,4.5S21.7,279.3,21.7,276.4z M26.1,276.4
			c0-2.5-0.7-3.5-1.7-3.5c-1,0-1.7,1-1.7,3.5s0.7,3.6,1.7,3.6C25.4,280,26.1,278.9,26.1,276.4z"/>
		<path d="M28.3,276.4c0-2.9,1-4.4,2.7-4.4c1.7,0,2.7,1.5,2.7,4.4c0,2.9-1,4.5-2.7,4.5C29.4,280.9,28.3,279.3,28.3,276.4z
			 M32.7,276.4c0-2.5-0.7-3.5-1.7-3.5c-1,0-1.7,1-1.7,3.5s0.7,3.6,1.7,3.6C32.1,280,32.7,278.9,32.7,276.4z"/>
		<path d="M34.9,274.5c0-1.8,0.8-2.8,2-2.8c1.2,0,2,1,2,2.8c0,1.8-0.8,2.8-2,2.8C35.6,277.3,34.9,276.3,34.9,274.5z M38,274.5
			c0-1.4-0.5-2.1-1.2-2.1c-0.7,0-1.2,0.7-1.2,2.1c0,1.4,0.5,2.1,1.2,2.1C37.5,276.6,38,275.9,38,274.5z M42,271.8h0.7l-4.9,9.1h-0.7
			L42,271.8z M41,278.1c0-1.8,0.8-2.8,2-2.8s2,1,2,2.8c0,1.8-0.8,2.8-2,2.8S41,279.9,41,278.1z M44.1,278.1c0-1.4-0.5-2.1-1.2-2.1
			c-0.7,0-1.2,0.7-1.2,2.1c0,1.4,0.5,2.1,1.2,2.1C43.7,280.2,44.1,279.5,44.1,278.1z"/>
	</g>
</g>
</svg>
