<?xml version="1.0" encoding="utf-8"?>
<!-- Generator: Adobe Illustrator 24.3.0, SVG Export Plug-In . SVG Version: 6.00 Build 0)  -->
<svg version="1.1" id="圖層_1" xmlns="http://www.w3.org/2000/svg" xmlns:xlink="http://www.w3.org/1999/xlink" x="0px" y="0px"
	 viewBox="0 0 620 358" style="enable-background:new 0 0 620 358;" xml:space="preserve">
<style type="text/css">
	.st0{fill:#FFFFFF;}
	.st1{fill:none;stroke:#CCCCCC;stroke-miterlimit:10;}
	.st2{fill:#005598;}
	.st3{fill:#ACD4F1;}
	.st4{fill:#00A382;}
</style>
<g>
	<rect class="st0" width="620" height="358"/>
	<g>
		<path d="M19.4,63.3h-5.7v-1.1H21V63c-2.7,3.5-3.3,6.1-3.5,10.6h-1.4C16.3,69.2,17.2,66.4,19.4,63.3z"/>
		<path d="M22.5,67.8c0-3.8,1.3-5.9,3.6-5.9c2.2,0,3.6,2.1,3.6,5.9c0,3.8-1.3,5.9-3.6,5.9C23.8,73.8,22.5,71.6,22.5,67.8z
			 M28.4,67.8c0-3.4-0.9-4.8-2.3-4.8c-1.4,0-2.3,1.4-2.3,4.8s0.9,4.9,2.3,4.9C27.5,72.7,28.4,71.2,28.4,67.8z"/>
	</g>
	<g>
		<path d="M14.9,45.8c0-2.1,0.9-3.2,2.3-3.2c1.4,0,2.3,1.1,2.3,3.2c0,2.1-0.9,3.3-2.3,3.3C15.8,49.1,14.9,47.9,14.9,45.8z
			 M18.6,45.8c0-1.7-0.6-2.5-1.4-2.5c-0.8,0-1.4,0.8-1.4,2.5s0.6,2.5,1.4,2.5C18,48.3,18.6,47.5,18.6,45.8z M23.2,42.6H24l-5.7,10.6
			h-0.8L23.2,42.6z M22,50c0-2,0.9-3.2,2.3-3.2c1.4,0,2.3,1.2,2.3,3.2c0,2.1-0.9,3.3-2.3,3.3C22.9,53.2,22,52.1,22,50z M25.7,50
			c0-1.7-0.6-2.5-1.4-2.5c-0.9,0-1.4,0.8-1.4,2.5c0,1.7,0.6,2.5,1.4,2.5C25.1,52.5,25.7,51.6,25.7,50z"/>
		<path d="M31.7,42.8h2.8c2.3,0,3.8,0.8,3.8,3c0,2.1-1.5,3.1-3.8,3.1h-1.7V53h-1.2V42.8z M34.4,47.9c1.9,0,2.8-0.7,2.8-2.2
			c0-1.5-1-2-2.8-2h-1.5v4.2H34.4z"/>
		<path d="M39.4,49.3c0-2.5,1.6-4,3.5-4s3.5,1.5,3.5,4c0,2.5-1.6,4-3.5,4S39.4,51.8,39.4,49.3z M45.2,49.3c0-1.8-1-3-2.3-3
			s-2.3,1.2-2.3,3c0,1.8,0.9,3,2.3,3S45.2,51.1,45.2,49.3z"/>
		<path d="M48.4,45.5h0.9l0.1,0.9h0c0.7-0.6,1.6-1.1,2.4-1.1c2,0,3,1.5,3,3.9c0,2.6-1.6,4.1-3.3,4.1c-0.7,0-1.4-0.3-2.1-0.9l0,1.3
			v2.6h-1.1V45.5z M53.8,49.1c0-1.7-0.6-2.9-2.1-2.9c-0.7,0-1.3,0.4-2.1,1.1v4.1c0.7,0.6,1.4,0.8,1.9,0.8
			C52.8,52.3,53.8,51.1,53.8,49.1z"/>
		<path d="M56.9,50.3v-4.8H58v4.7c0,1.4,0.4,2.1,1.5,2.1c0.8,0,1.4-0.4,2.1-1.3v-5.4h1.1V53h-0.9l-0.1-1.2h0
			c-0.7,0.8-1.5,1.4-2.5,1.4C57.6,53.2,56.9,52.2,56.9,50.3z"/>
		<path d="M65.4,51.6v-9.8h1.1v9.8c0,0.4,0.2,0.5,0.4,0.5c0.1,0,0.1,0,0.3,0l0.2,0.9c-0.2,0.1-0.4,0.1-0.7,0.1
			C65.8,53.2,65.4,52.7,65.4,51.6z"/>
		<path d="M68.9,51.1c0-1.7,1.4-2.5,4.7-2.8c0-1-0.3-2-1.6-2c-0.9,0-1.7,0.4-2.3,0.8l-0.5-0.8c0.7-0.4,1.7-1,2.9-1
			c1.8,0,2.6,1.2,2.6,3.1V53h-0.9l-0.1-0.9h0c-0.7,0.6-1.6,1.1-2.5,1.1C69.8,53.2,68.9,52.5,68.9,51.1z M73.5,51.2V49
			c-2.7,0.3-3.6,1-3.6,2c0,0.9,0.6,1.3,1.4,1.3C72.1,52.3,72.8,51.9,73.5,51.2z"/>
		<path d="M77.2,50.8v-4.3H76v-0.9l1.2-0.1l0.1-2.1h1v2.1h2.1v0.9h-2.1v4.4c0,0.9,0.3,1.5,1.2,1.5c0.3,0,0.6-0.1,0.9-0.2l0.2,0.9
			c-0.4,0.1-0.9,0.3-1.3,0.3C77.7,53.2,77.2,52.2,77.2,50.8z"/>
		<path d="M81.9,43c0-0.5,0.3-0.8,0.8-0.8c0.4,0,0.8,0.3,0.8,0.8c0,0.5-0.3,0.8-0.8,0.8C82.2,43.8,81.9,43.5,81.9,43z M82.1,45.5
			h1.1V53h-1.1V45.5z"/>
		<path d="M85.3,49.3c0-2.5,1.6-4,3.5-4s3.5,1.5,3.5,4c0,2.5-1.6,4-3.5,4S85.3,51.8,85.3,49.3z M91.1,49.3c0-1.8-1-3-2.3-3
			s-2.3,1.2-2.3,3c0,1.8,0.9,3,2.3,3S91.1,51.1,91.1,49.3z"/>
		<path d="M94.3,45.5h0.9l0.1,1.1h0c0.7-0.7,1.5-1.3,2.5-1.3c1.6,0,2.3,1,2.3,3V53h-1.1v-4.7c0-1.5-0.4-2.1-1.5-2.1
			c-0.8,0-1.4,0.4-2.2,1.2V53h-1.1V45.5z"/>
	</g>
	<g>
		<path d="M518.9,45.8c0-2.1,0.9-3.2,2.3-3.2s2.3,1.1,2.3,3.2c0,2.1-0.9,3.3-2.3,3.3S518.9,47.9,518.9,45.8z M522.6,45.8
			c0-1.7-0.6-2.5-1.4-2.5s-1.4,0.8-1.4,2.5s0.6,2.5,1.4,2.5S522.6,47.5,522.6,45.8z M527.2,42.6h0.8l-5.7,10.6h-0.8L527.2,42.6z
			 M526,50c0-2,0.9-3.2,2.3-3.2c1.4,0,2.3,1.2,2.3,3.2c0,2.1-0.9,3.3-2.3,3.3C526.9,53.2,526,52.1,526,50z M529.7,50
			c0-1.7-0.6-2.5-1.4-2.5c-0.9,0-1.4,0.8-1.4,2.5c0,1.7,0.6,2.5,1.4,2.5C529.1,52.5,529.7,51.6,529.7,50z"/>
		<path d="M535.7,42.8h2.8c2.3,0,3.8,0.8,3.8,3c0,2.1-1.5,3.1-3.8,3.1h-1.7V53h-1.2V42.8z M538.4,47.9c1.9,0,2.8-0.7,2.8-2.2
			c0-1.5-1-2-2.8-2h-1.5v4.2H538.4z"/>
		<path d="M543.4,49.3c0-2.5,1.6-4,3.5-4s3.5,1.5,3.5,4c0,2.5-1.6,4-3.5,4S543.4,51.8,543.4,49.3z M549.2,49.3c0-1.8-1-3-2.3-3
			s-2.3,1.2-2.3,3c0,1.8,0.9,3,2.3,3S549.2,51.1,549.2,49.3z"/>
		<path d="M552.4,45.5h0.9l0.1,0.9h0c0.7-0.6,1.6-1.1,2.4-1.1c2,0,3,1.5,3,3.9c0,2.6-1.6,4.1-3.3,4.1c-0.7,0-1.4-0.3-2.1-0.9l0,1.3
			v2.6h-1.1V45.5z M557.8,49.1c0-1.7-0.6-2.9-2.1-2.9c-0.7,0-1.3,0.4-2.1,1.1v4.1c0.7,0.6,1.4,0.8,1.9,0.8
			C556.8,52.3,557.8,51.1,557.8,49.1z"/>
		<path d="M560.9,50.3v-4.8h1.1v4.7c0,1.4,0.4,2.1,1.5,2.1c0.8,0,1.4-0.4,2.1-1.3v-5.4h1.1V53h-0.9l-0.1-1.2h0
			c-0.7,0.8-1.5,1.4-2.5,1.4C561.6,53.2,560.9,52.2,560.9,50.3z"/>
		<path d="M569.4,51.6v-9.8h1.1v9.8c0,0.4,0.2,0.5,0.4,0.5c0.1,0,0.1,0,0.3,0l0.2,0.9c-0.2,0.1-0.4,0.1-0.7,0.1
			C569.8,53.2,569.4,52.7,569.4,51.6z"/>
		<path d="M572.9,51.1c0-1.7,1.4-2.5,4.7-2.8c0-1-0.3-2-1.6-2c-0.9,0-1.7,0.4-2.3,0.8l-0.5-0.8c0.7-0.4,1.7-1,2.9-1
			c1.8,0,2.6,1.2,2.6,3.1V53h-0.9l-0.1-0.9h0c-0.7,0.6-1.6,1.1-2.5,1.1C573.8,53.2,572.9,52.5,572.9,51.1z M577.6,51.2V49
			c-2.7,0.3-3.6,1-3.6,2c0,0.9,0.6,1.3,1.4,1.3S576.8,51.9,577.6,51.2z"/>
		<path d="M581.2,50.8v-4.3H580v-0.9l1.2-0.1l0.1-2.1h1v2.1h2.1v0.9h-2.1v4.4c0,0.9,0.3,1.5,1.2,1.5c0.3,0,0.6-0.1,0.9-0.2l0.2,0.9
			c-0.4,0.1-0.9,0.3-1.3,0.3C581.7,53.2,581.2,52.2,581.2,50.8z"/>
		<path d="M585.9,43c0-0.5,0.3-0.8,0.8-0.8c0.4,0,0.8,0.3,0.8,0.8c0,0.5-0.3,0.8-0.8,0.8C586.2,43.8,585.9,43.5,585.9,43z
			 M586.1,45.5h1.1V53h-1.1V45.5z"/>
		<path d="M589.3,49.3c0-2.5,1.6-4,3.5-4s3.5,1.5,3.5,4c0,2.5-1.6,4-3.5,4S589.3,51.8,589.3,49.3z M595.1,49.3c0-1.8-1-3-2.3-3
			s-2.3,1.2-2.3,3c0,1.8,0.9,3,2.3,3S595.1,51.1,595.1,49.3z"/>
		<path d="M598.3,45.5h0.9l0.1,1.1h0c0.7-0.7,1.5-1.3,2.5-1.3c1.6,0,2.3,1,2.3,3V53h-1.1v-4.7c0-1.5-0.4-2.1-1.5-2.1
			c-0.8,0-1.4,0.4-2.2,1.2V53h-1.1V45.5z"/>
	</g>
	<g>
		<g>
			<path d="M156.3,26.4c1.9,0,2.1-0.5,2.4-3.1c0.6,0.3,1.5,0.7,2.2,0.8c-0.4,3.4-1.2,4.4-4.5,4.4h-6c-3.5,0-4.5-0.7-4.5-3.4v-8.4
				h2.2v2.4h8.2v-3.8h-11.1v-2.1h13.3v8.9h-2.2v-0.8h-8.2v3.8c0,1.1,0.3,1.3,2.3,1.3H156.3z"/>
			<path d="M165,19.3V29H163V12.9h6.9v6.4H165z M165,14.4v0.9h2.8v-0.9H165z M167.9,17.7v-1H165v1H167.9z M173.1,25v3.7h-1.9V25
				h-1.7c-0.2,1.2-0.8,3-2.3,4c-0.3-0.4-1-0.9-1.4-1.2c1.2-0.7,1.7-1.9,1.8-2.8h-1.8v-1.7h1.9v-1.4h-1.6v-1.7h8.7v1.7h-1.7v1.4h2V25
				H173.1z M171.3,23.2v-1.4h-1.7v1.4H171.3z M178.1,26.5c0,1.1-0.2,1.7-0.8,2c-0.6,0.4-1.6,0.4-3,0.4c-0.1-0.6-0.4-1.6-0.6-2.1
				c0.8,0,1.7,0,2,0c0.3,0,0.4-0.1,0.4-0.4v-7.2h-5v-6.4h7.1V26.5z M173.1,14.4v0.9h2.9v-0.9H173.1z M176,17.8v-1h-2.9v1H176z"/>
			<path d="M183,19.3V29H181V12.9h6.9v6.4H183z M183,14.4v0.9h2.8v-0.9H183z M185.9,17.7v-1H183v1H185.9z M191.1,25v3.7h-1.9V25
				h-1.7c-0.2,1.2-0.8,3-2.3,4c-0.3-0.4-1-0.9-1.4-1.2c1.2-0.7,1.7-1.9,1.8-2.8h-1.8v-1.7h1.9v-1.4h-1.6v-1.7h8.7v1.7h-1.7v1.4h2V25
				H191.1z M189.3,23.2v-1.4h-1.7v1.4H189.3z M196.1,26.5c0,1.1-0.2,1.7-0.8,2c-0.6,0.4-1.6,0.4-3,0.4c-0.1-0.6-0.4-1.6-0.6-2.1
				c0.8,0,1.7,0,2,0c0.3,0,0.4-0.1,0.4-0.4v-7.2h-5v-6.4h7.1V26.5z M191.1,14.4v0.9h2.9v-0.9H191.1z M194,17.8v-1h-2.9v1H194z"/>
			<path d="M214.6,15.2c-0.7,0.6-1.5,1.2-2.1,1.7c0.8,0.4,1.7,0.8,2.6,1c-0.5,0.4-1,1.2-1.3,1.7c-0.7-0.2-1.4-0.5-2.1-0.9v1.5
				c0,0.4,0,0.6,0.3,0.6h0.9c0.3,0,0.7,0,0.9-0.1c0,0.4,0.1,1,0.1,1.5c-0.3,0.1-0.7,0.1-1,0.1h-1.1c-1.5,0-1.8-0.6-1.8-2.1v-1h-1.7
				c-0.1,1.3-0.5,2.6-2,3.6c-0.2-0.3-0.7-0.8-1.1-1.2v0.5h-3.6c-0.1,0.4-0.1,0.8-0.2,1.2h3.7c0,0,0,0.5,0,0.8
				c-0.2,2.4-0.4,3.6-0.9,4.1c-0.4,0.4-0.8,0.6-1.4,0.6c-0.5,0.1-1.4,0.1-2.4,0c0-0.6-0.3-1.3-0.6-1.8c0.9,0.1,1.8,0.1,2.2,0.1
				c0.3,0,0.5,0,0.6-0.2c0.2-0.2,0.4-0.8,0.5-2h-3.8c0.3-1.2,0.5-3,0.7-4.4h3.2v-1.3h-2.6V19c-0.5,0.3-1.1,0.5-1.6,0.7
				c-0.3-0.5-0.8-1.2-1.2-1.6c1.1-0.3,2.1-0.8,3-1.4c-0.5-0.4-1.1-0.8-1.7-1.1l1.2-1.1c0.6,0.3,1.4,0.7,1.9,1.1
				c0.4-0.4,0.7-0.7,1-1.2h-3.5v-1.7h4.7l0.4-0.1l1.3,0.6c-0.7,1.8-1.9,3.2-3.4,4.3h2.4v3.6c1.1-0.7,1.3-1.6,1.3-2.4v-1.3h3.4
				c-1.6-1.2-2.8-2.8-3.6-4.8l1.7-0.5c0.3,0.6,0.6,1.2,1,1.7c0.6-0.5,1.3-1.2,1.7-1.7l1.5,1.1c-0.7,0.6-1.5,1.3-2.2,1.7
				c0.3,0.3,0.6,0.6,1,0.8c0.7-0.5,1.5-1.3,2-1.9L214.6,15.2z M213.3,23.2c-0.4,1.3-1.1,2.4-2,3.2c0.8,0.4,1.5,0.9,2.1,1.3l-1.1,1.4
				c-0.6-0.4-1.5-1-2.4-1.6c-1.1,0.7-2.5,1.2-4,1.5c-0.2-0.5-0.6-1.2-0.9-1.5c1.2-0.2,2.3-0.5,3.2-1c-0.9-0.5-1.7-1-2.5-1.4l0.7-0.9
				h-0.4v-1.4h5.9l0.3-0.1L213.3,23.2z M207.3,24.2c0.8,0.4,1.6,0.8,2.4,1.3c0.4-0.4,0.8-0.8,1.1-1.3H207.3z"/>
			<path d="M232.2,13v16.1H230v-0.8h-11.2v0.8h-2V13H232.2z M230,26.4V14.9h-2.2c0.6,0.3,1.2,0.7,1.5,1l-0.7,0.8h0.9v1.5h-3.2
				c0.1,1,0.2,1.9,0.3,2.8c0.4-0.7,0.6-1.4,0.8-2.3l1.6,0.3c-0.4,1.6-1.1,3-1.9,4.1c0.2,0.6,0.5,0.9,0.8,1c0.2,0.1,0.4-0.6,0.4-1.7
				c0.3,0.3,1,0.8,1.3,1c-0.3,2.2-1.2,2.9-2.4,2.4c-0.5-0.2-1-0.6-1.4-1.2c-0.6,0.6-1.2,1.1-1.9,1.5c-0.2-0.3-0.8-1-1.2-1.3
				c0.2-0.1,0.4-0.2,0.6-0.4c-1.4,0.2-2.9,0.4-4.1,0.6l-0.2-1.6c1.3-0.1,3.2-0.4,5.1-0.6l0,0.9c0.3-0.3,0.6-0.6,0.9-0.9
				c-0.4-1.3-0.6-2.9-0.8-4.7h-5v-1.5h4.9c0-0.5-0.1-1-0.1-1.5h1.8c0,0.5,0,1,0.1,1.5h1.9c-0.4-0.3-0.9-0.7-1.4-1l0.8-0.8h-8.7v11.5
				H230z M224,22.4h-4V19h4V22.4z M222.5,20.1h-1.2v1.2h1.2V20.1z"/>
			<path d="M249.2,20.1c-0.7,0.6-1.5,1.1-2.3,1.7c0.7,2.1,2.1,3.9,4.2,4.7c-0.5,0.4-1.1,1.2-1.4,1.7c-2.2-1-3.6-3-4.5-5.4
				c-0.2,0.1-0.4,0.2-0.6,0.3c0.5,2.2,0.1,4.2-0.8,5c-0.6,0.6-1.2,0.8-2.1,0.8c-0.4,0-0.9,0-1.5,0c0-0.6-0.2-1.4-0.6-2
				c0.6,0.1,1.2,0.1,1.6,0.1c0.4,0,0.7-0.1,1-0.4c0.3-0.3,0.5-1,0.5-1.8c-2.1,1.4-4.9,2.7-7.3,3.5c-0.2-0.5-0.7-1.3-1.1-1.8
				c2.8-0.6,6.3-2.2,8.1-3.7c-0.1-0.2-0.2-0.4-0.3-0.7c-1.8,1.1-4.4,2.3-6.5,2.9c-0.2-0.5-0.7-1.2-1.1-1.7c2.2-0.5,5.2-1.6,6.7-2.6
				c-0.2-0.2-0.3-0.4-0.5-0.6c-1.6,0.8-3.3,1.4-5,1.9c-0.2-0.4-0.7-1.3-1.1-1.7c2-0.4,4.2-1.1,5.8-2h-3.1v-1.8h10.1v1.8h-4
				c-0.3,0.3-0.7,0.6-1.1,0.8c0.7,0.6,1.2,1.4,1.6,2.2c1.2-0.8,2.5-1.9,3.4-2.7L249.2,20.1z M236.9,17.7h-2.1v-4.1h6.5
				c-0.1-0.3-0.3-0.7-0.4-1l2.3-0.6c0.3,0.5,0.6,1.1,0.8,1.6h6.4v4.1h-2.2v-2.1h-11.2V17.7z"/>
			<path d="M254.3,16.5c0-1,0.8-1.7,1.7-1.7c1,0,1.7,0.7,1.7,1.7c0,1-0.8,1.7-1.7,1.7C255,18.2,254.3,17.5,254.3,16.5z M254.3,25.1
				c0-1,0.8-1.7,1.7-1.7c1,0,1.7,0.7,1.7,1.7c0,1-0.8,1.7-1.7,1.7C255,26.8,254.3,26.1,254.3,25.1z"/>
			<path d="M266.7,21.8c-0.6,0.2-1.1,0.3-1.7,0.5v4.3c0,1-0.2,1.5-0.7,1.9c-0.5,0.3-1.3,0.4-2.5,0.4c0-0.5-0.3-1.4-0.5-2
				c0.6,0,1.3,0,1.5,0c0.2,0,0.3-0.1,0.3-0.3v-3.8l-1.7,0.5l-0.5-2.1c0.6-0.1,1.4-0.3,2.2-0.6v-3.2h-1.9v-2h1.9v-3.4h2v3.4h1.6v2
				h-1.6v2.6l1.4-0.4L266.7,21.8z M276,23.2c-0.4,1-0.9,1.9-1.5,2.7c1.2,0.5,2.3,1.1,3.1,1.6l-1.4,1.6c-0.8-0.5-2-1.2-3.3-1.8
				c-1.4,0.8-3.2,1.4-5.5,1.8c-0.1-0.6-0.6-1.4-0.9-1.8c1.7-0.2,3-0.5,4.1-1c-1-0.4-2.1-0.8-3-1.1c0.4-0.5,0.9-1.2,1.3-1.9h-2.1
				v-1.8h3.2c0.3-0.6,0.5-1.1,0.8-1.6h-3.7v-1.8h2.6c-0.2-0.5-0.6-1.3-0.9-1.9l1.4-0.5h-2.6v-1.8h3.9c-0.2-0.5-0.4-0.9-0.6-1.3
				l2.4-0.4c0.3,0.5,0.6,1.1,0.9,1.7h3.3v1.8h-2.9l1.6,0.5c-0.4,0.6-0.7,1.3-1,1.8h2.6v1.8h-6.5l1.6,0.3c-0.2,0.4-0.4,0.8-0.6,1.3
				h2.2c0.1-0.3,0.2-0.7,0.2-1.1l2,0.3c0,0.3-0.1,0.5-0.1,0.8h1.4v1.8H276z M270.6,15.6c0.4,0.6,0.8,1.3,1,1.9l-1.3,0.5h2.7
				c0.3-0.6,0.8-1.6,1-2.3H270.6z M271.2,23.2c-0.2,0.4-0.5,0.7-0.7,1.1c0.7,0.2,1.4,0.5,2.1,0.8c0.5-0.5,0.9-1.1,1.3-1.8H271.2z"/>
			<path d="M296,27v1.7h-10.9V27h4.6v-0.8h-3.6v-1.6h3.6v-0.8h-3.5v-1.6l-1.2,1.6c-0.2-0.5-0.6-1.2-1.1-1.8v7h-2.1v-6.5
				c-0.6,1.4-1.3,2.7-2,3.6c-0.2-0.6-0.6-1.5-1-2c1-1.2,2-3.1,2.7-4.8h-2.3v-2h2.6v-2.1c-0.8,0.1-1.5,0.3-2.2,0.4
				c-0.1-0.5-0.4-1.2-0.6-1.6c2-0.3,4.2-0.9,5.6-1.5l1.4,1.6c-0.6,0.3-1.4,0.5-2.1,0.7v2.5h1.9v2h-1.9v0.5c0.5,0.4,1.9,1.9,2.3,2.3
				v-4.4h3.5V17h-4.1v-1.7h4.1v-0.8c-1.2,0.1-2.3,0.1-3.4,0.1c0-0.5-0.3-1.2-0.5-1.6c3-0.1,6.4-0.3,8.5-0.7l1.2,1.6
				c-1.1,0.2-2.4,0.4-3.8,0.5v0.9h3.9V17h-3.9v0.7h3.6v6h-3.6v0.8h3.6v1.6h-3.6V27H296z M288.1,20.1h1.6v-0.9h-1.6V20.1z
				 M289.7,22.3v-0.9h-1.6v0.9H289.7z M291.7,19.2v0.9h1.7v-0.9H291.7z M293.4,21.4h-1.7v0.9h1.7V21.4z"/>
			<path d="M313.8,14.9h-3.1c0.5,0.4,1,0.8,1.2,1.1l-1.3,1.1h1.5v4.6h-5.7v1.1h6.6c0,0,0,0.5-0.1,0.8c-0.2,2.4-0.4,3.6-0.9,4
				c-0.4,0.4-0.8,0.6-1.4,0.6c-0.5,0.1-1.4,0.1-2.3,0c0-0.6-0.3-1.4-0.6-1.9c0.8,0.1,1.5,0.1,1.9,0.1c0.3,0,0.4,0,0.6-0.2
				c0.2-0.2,0.3-0.7,0.4-1.7h-4.3v4.4h-2.1v-3.5c-1.5,1.5-3.5,2.7-5.5,3.4c-0.3-0.5-0.9-1.3-1.4-1.7c1.9-0.6,3.8-1.5,5.2-2.7h-3.9
				c0.3-1.2,0.5-3.1,0.7-4.6h4.8v-1h-5.5v-1.8h3.7c-0.4-0.5-1.1-1.2-1.7-1.7l0.7-0.6h-1.1c-0.6,0.9-1.2,1.7-1.8,2.3
				c-0.3-0.4-1-1.1-1.4-1.4c1.1-0.9,2.1-2.4,2.6-3.8l1.9,0.5c-0.1,0.2-0.2,0.5-0.3,0.7h4V15h-2.6c0.5,0.4,1,0.9,1.2,1.2l-1.2,1.1
				h7.6c-0.4-0.5-1.2-1.1-1.7-1.6l0.8-0.7h-1.5c-0.4,0.7-0.9,1.3-1.4,1.7c-0.4-0.4-1.1-1-1.6-1.2c1-0.8,1.8-2.1,2.3-3.4l1.9,0.5
				c-0.1,0.3-0.2,0.5-0.3,0.8h5V14.9z M304.3,21.8h-2.9c-0.1,0.4-0.1,0.7-0.1,1.1h3.1V21.8z M310,19h-3.6v1h3.6V19z"/>
			<path d="M331.8,19.3v2.3h-16.6v-2.3H331.8z"/>
			<path d="M341,21.3h1.8V29H341v-2.4H336c-0.3,0.9-0.8,1.8-1.8,2.4c-0.3-0.3-0.9-0.9-1.3-1.2c1.5-1.1,1.7-2.9,1.7-4.2v-2.4h1.7v0.9
				h4.6V21.3z M337.4,16.8c0,2.2-0.1,3.1-0.3,3.5c-0.2,0.3-0.4,0.4-0.8,0.4c-0.2,0-0.6,0.1-1,0.1c0-0.4-0.1-0.8-0.3-1.2
				c-0.3,0.5-0.6,1-1.1,1.3c-0.2-0.3-0.5-0.8-0.8-1.1c0.7-0.5,1-1.3,1.2-2.3h-0.9v-1.3h3.8c-0.1-0.2-0.3-0.4-0.4-0.6l0.6-0.3h-3.9
				v-1.6h4.6c-0.2-0.4-0.3-0.8-0.5-1.2l1.5-0.5c0.3,0.5,0.6,1.2,0.8,1.7h4.2v1.6h-4.1l1.2,0.4c-0.6,0.6-1.2,1.2-1.7,1.7v3.6h-1.4
				v-3.7c0.6-0.6,1.2-1.5,1.6-2.1H338c0.3,0.4,0.7,0.9,0.8,1.3l-1.1,0.7c-0.1-0.2-0.2-0.4-0.3-0.7L337.4,16.8z M335.6,17.6
				c-0.1,0.7-0.3,1.3-0.5,1.9c0.3,0,0.4,0,0.6,0c0.1,0,0.2,0,0.3-0.1c0.1-0.2,0.1-0.6,0.2-1.8H335.6z M341,24.9v-1.1h-4.6
				c0,0.3,0,0.7-0.1,1.1H341z M343.3,15.7l1.2,1.1c-0.8,0.4-1.9,0.7-2.8,1v1.6l0.9-0.2c0,0.4,0.1,0.9,0.1,1.1
				c-1.6,0.4-2,0.5-2.2,0.7c-0.1-0.3-0.3-1-0.5-1.2c0.2-0.1,0.4-0.3,0.4-1l0-1.9C341.4,16.6,342.6,16.1,343.3,15.7z M343.4,17.5
				c0.5,0.7,1.1,1.6,1.4,2.3l-1.1,0.8c-0.2-0.6-0.8-1.7-1.3-2.4L343.4,17.5z M346.5,24.5h-1.7V14.2h1.7V24.5z M349.4,12.5v14.4
				c0,1-0.2,1.5-0.7,1.8c-0.5,0.3-1.4,0.4-2.6,0.4c-0.1-0.5-0.3-1.3-0.5-1.8c0.7,0,1.5,0,1.7,0c0.2,0,0.3-0.1,0.3-0.3V12.5H349.4z"
				/>
			<path d="M355.9,19.6c0,0.3,0,0.7,0,1c1.9-0.6,2.1-1.4,2.1-2.3v-1.6h6.9V19c0,0.5,0,0.6,0.3,0.6h1c0.3,0,0.8,0,1-0.1
				c0.1,0.6,0.1,1.4,0.2,1.9c-0.3,0.1-0.7,0.1-1.2,0.1H365c-1.9,0-2.3-0.7-2.3-2.6v-0.4h-2.8c0,1.3-0.5,2.6-2.3,3.4h7.1l0.4-0.1
				l1.3,0.6c-0.6,1.7-1.7,3.1-3,4c1.2,0.4,2.6,0.6,4.2,0.7c-0.4,0.5-0.9,1.3-1.2,1.9c-2.1-0.2-3.8-0.6-5.2-1.3
				c-1.4,0.6-3.1,1-4.9,1.3c-0.2-0.5-0.6-1.3-0.9-1.8c1.4-0.1,2.6-0.4,3.8-0.8c-0.8-0.7-1.5-1.5-2.1-2.6l0.5-0.1h-1V22h0.2
				c-0.3-0.4-0.7-0.9-1-1.2c-0.1,2.8-0.6,6.2-2.5,8.4c-0.4-0.4-1.3-1-1.8-1.2c1.2-1.4,1.7-3.1,2-4.8c-0.7,0.4-1.3,0.8-2,1.2l-0.6-2
				c0.7-0.3,1.7-0.8,2.8-1.4c0-0.5,0-1,0-1.4v-0.6l-1.3,0.6c-0.3-0.8-1-2.2-1.5-3.2l1.7-0.7c0.3,0.6,0.8,1.3,1.1,2v-3.5h6.2
				c-0.2-0.5-0.4-1-0.6-1.4l2.1-0.5c0.3,0.6,0.6,1.4,0.9,2h5.5v2h-12V19.6z M359.2,23.8c0.5,0.8,1.2,1.4,2.1,1.9
				c0.9-0.5,1.6-1.1,2.2-1.9H359.2z"/>
			<path d="M373.3,15.8h-3.7v-2h3.7v-1.6h2.1v1.6h1.9v2h-1.9v1.7h-2.1V15.8z M371.1,18.1h13v11h-2.2v-0.8h-8.8v0.8h-2.1V18.1z
				 M373.1,20v2.2h3.3V20H373.1z M376.4,26.4v-2.3h-3.3v2.3H376.4z M385.5,13.8v2h-3.8v1.7h-2.1v-1.7h-1.7v-2h1.7v-1.6h2.1v1.6
				H385.5z M381.9,20h-3.4v2.2h3.4V20z M381.9,26.4v-2.3h-3.4v2.3H381.9z"/>
			<path d="M403.5,15c0,0,0,0.7,0,1c-0.2,8-0.4,10.9-1.2,11.9c-0.5,0.7-1,0.9-1.7,1c-0.7,0.1-1.8,0.1-2.8,0c0-0.6-0.3-1.5-0.7-2.1
				c1.2,0.1,2.2,0.1,2.7,0.1c0.4,0,0.6-0.1,0.8-0.3c0.5-0.6,0.8-3.3,1-9.6h-3.9c-0.5,1.1-1,2.1-1.6,2.8c-0.3-0.3-0.9-0.7-1.4-1v8.4
				h-4.8v1.3h-1.9V15.1h2c0.2-0.9,0.5-2.1,0.5-2.9l2.3,0.3c-0.3,0.9-0.6,1.8-0.9,2.6h2.8V18c1-1.5,1.9-3.7,2.4-5.8l2.1,0.5
				c-0.2,0.8-0.4,1.5-0.7,2.3H403.5z M392.7,17h-2.9v2.9h2.9V17z M392.7,25.3v-3.5h-2.9v3.5H392.7z M398.7,24.3
				c-0.5-1.1-1.6-2.8-2.5-4.2l1.7-1c0.9,1.2,2.1,3,2.6,4L398.7,24.3z"/>
			<path d="M414.6,12.2c0,0.8-0.1,1.7-0.1,2.8c0.3,2.4,1.4,9.2,7.6,12c-0.7,0.5-1.3,1.2-1.6,1.9c-4-1.9-6-5.4-7-8.5
				c-1,3.2-2.9,6.4-6.6,8.6c-0.4-0.6-1.1-1.3-1.8-1.7c7.3-3.9,7-12,7-15H414.6z"/>
			<path d="M438.6,14v14.7h-2.4v-1.4h-9.5v1.5h-2.3V14H438.6z M436.2,25v-8.8h-9.5V25H436.2z"/>
			<path d="M449.2,24.9c0,0.6,0.1,1.5,0.2,2c-5,1.2-5.9,1.5-6.4,1.8c-0.2-0.5-0.7-1.4-1-1.8c0.4-0.3,0.9-0.8,0.9-1.7v-13h2.2v5.3h4
				v2.1h-4v6.1L449.2,24.9z M455.1,26.7c0.7,0,0.8-0.6,0.9-3.1c0.5,0.4,1.4,0.8,2,0.9c-0.2,3.1-0.8,4.2-2.7,4.2h-2.4
				c-2.1,0-2.7-0.7-2.7-3.3V12.2h2.2v5.3h4.4v2.1h-4.4v5.8c0,1,0.1,1.2,0.8,1.2H455.1z"/>
			<path d="M470.4,24.8v-9.9h-3c-0.1,0.6-0.3,1.3-0.4,1.9h1.6l0.3-0.1l1.2,0.4c-0.6,5.8-2.5,9.9-5.3,11.9c-0.3-0.5-0.9-1.3-1.3-1.6
				c1.3-0.9,2.4-2.2,3.2-4c-0.4-0.5-1-1-1.6-1.5c-0.3,0.6-0.6,1.1-1,1.5c-0.3-0.4-0.8-1.1-1.2-1.4v7h-2v-9c-0.4,0.5-0.7,1-1.1,1.5
				c-0.2-0.5-0.7-1.7-1-2.3c1.4-1.7,2.8-4.3,3.6-6.9l2,0.6l-0.1,0.2h6.2v1.3h1.8v10.5H470.4z M462.9,21.9c1.4-1.7,2.1-4.5,2.4-7
				h-1.2v-1.5c-0.4,1-0.8,2.1-1.3,3.1V21.9z M466.5,18.7c-0.2,0.5-0.4,1.1-0.6,1.6c0.5,0.4,1.1,0.8,1.5,1.2c0.3-0.8,0.5-1.8,0.6-2.8
				H466.5z M475.4,12.6v14c0,1.1-0.2,1.7-0.9,2c-0.6,0.3-1.7,0.4-3.1,0.4c-0.1-0.6-0.4-1.5-0.6-2.1c1,0.1,1.9,0.1,2.2,0
				c0.3,0,0.4-0.1,0.4-0.4v-14H475.4z"/>
		</g>
	</g>
	<g>
		<path d="M13.8,99.2c0-4.6,2-6.4,4.3-6.4c1.2,0,2,0.5,2.6,1.2L20,94.9c-0.5-0.6-1.2-0.9-1.9-0.9c-1.6,0-3,1.3-3.1,5
			c0.7-0.9,1.8-1.5,2.7-1.5c2,0,3.2,1.2,3.2,3.5c0,2.2-1.5,3.6-3.3,3.6C15.4,104.7,13.8,102.8,13.8,99.2z M15.1,100.1
			c0.2,2.3,1.1,3.6,2.6,3.6c1.2,0,2.1-1.1,2.1-2.6c0-1.5-0.7-2.5-2.2-2.5C16.8,98.5,15.9,98.9,15.1,100.1z"/>
		<path d="M22.5,98.7c0-3.8,1.3-5.9,3.6-5.9c2.2,0,3.6,2.1,3.6,5.9c0,3.8-1.3,5.9-3.6,5.9C23.8,104.7,22.5,102.5,22.5,98.7z
			 M28.4,98.7c0-3.4-0.9-4.8-2.3-4.8c-1.4,0-2.3,1.4-2.3,4.8s0.9,4.9,2.3,4.9C27.5,103.6,28.4,102.1,28.4,98.7z"/>
	</g>
	<g>
		<path d="M13.4,134l0.7-0.9c0.7,0.7,1.5,1.3,2.9,1.3c1.4,0,2.6-1.1,2.6-2.7c0-1.6-1-2.6-2.5-2.6c-0.8,0-1.3,0.3-2,0.7l-0.7-0.4
			l0.4-5.4h5.6v1.1h-4.4l-0.3,3.6c0.5-0.3,1.1-0.5,1.8-0.5c1.9,0,3.5,1.1,3.5,3.6c0,2.5-1.8,3.8-3.8,3.8
			C15.2,135.6,14.1,134.8,13.4,134z"/>
		<path d="M22.5,129.6c0-3.8,1.3-5.9,3.6-5.9c2.2,0,3.6,2.1,3.6,5.9c0,3.8-1.3,5.9-3.6,5.9C23.8,135.6,22.5,133.4,22.5,129.6z
			 M28.4,129.6c0-3.4-0.9-4.8-2.3-4.8c-1.4,0-2.3,1.4-2.3,4.8s0.9,4.9,2.3,4.9C27.5,134.5,28.4,133,28.4,129.6z"/>
	</g>
	<g>
		<path d="M18.4,163h-5.1v-0.8l5-7.3h1.4v7.1h1.6v1h-1.6v3.2h-1.2V163z M18.4,162v-3.5c0-0.6,0-1.5,0.1-2.1h-0.1
			c-0.3,0.5-0.6,1-0.9,1.6l-2.8,4.1H18.4z"/>
		<path d="M22.5,160.5c0-3.8,1.3-5.9,3.6-5.9c2.2,0,3.6,2.1,3.6,5.9c0,3.8-1.3,5.9-3.6,5.9C23.8,166.4,22.5,164.3,22.5,160.5z
			 M28.4,160.5c0-3.4-0.9-4.8-2.3-4.8c-1.4,0-2.3,1.4-2.3,4.8s0.9,4.9,2.3,4.9C27.5,165.4,28.4,163.9,28.4,160.5z"/>
	</g>
	<g>
		<path d="M13.4,195.7l0.7-0.8c0.7,0.7,1.6,1.4,3,1.4c1.4,0,2.4-0.9,2.4-2.2c0-1.4-1-2.4-3.7-2.4v-1c2.4,0,3.3-1,3.3-2.2
			c0-1.2-0.8-1.9-2-1.9c-1,0-1.8,0.5-2.5,1.2l-0.7-0.8c0.9-0.8,1.9-1.4,3.2-1.4c1.9,0,3.3,1,3.3,2.9c0,1.4-0.9,2.3-2.1,2.7v0.1
			c1.4,0.3,2.5,1.3,2.5,2.9c0,2-1.6,3.2-3.7,3.2C15.3,197.3,14.1,196.6,13.4,195.7z"/>
		<path d="M22.5,191.4c0-3.8,1.3-5.9,3.6-5.9c2.2,0,3.6,2.1,3.6,5.9c0,3.8-1.3,5.9-3.6,5.9C23.8,197.3,22.5,195.2,22.5,191.4z
			 M28.4,191.4c0-3.4-0.9-4.8-2.3-4.8c-1.4,0-2.3,1.4-2.3,4.8s0.9,4.9,2.3,4.9C27.5,196.3,28.4,194.8,28.4,191.4z"/>
	</g>
	<g>
		<path d="M13.6,227.2c3.5-3.5,5.4-5.6,5.4-7.5c0-1.3-0.7-2.3-2.2-2.3c-1,0-1.8,0.6-2.5,1.4l-0.8-0.8c0.9-1,2-1.7,3.4-1.7
			c2.1,0,3.4,1.3,3.4,3.3c0,2.2-2,4.3-4.8,7.3c0.6-0.1,1.3-0.1,1.9-0.1h3.4v1.1h-7.3V227.2z"/>
		<path d="M22.5,222.3c0-3.8,1.3-5.9,3.6-5.9c2.2,0,3.6,2.1,3.6,5.9c0,3.8-1.3,5.9-3.6,5.9C23.8,228.2,22.5,226.1,22.5,222.3z
			 M28.4,222.3c0-3.4-0.9-4.8-2.3-4.8c-1.4,0-2.3,1.4-2.3,4.8s0.9,4.9,2.3,4.9C27.5,227.2,28.4,225.7,28.4,222.3z"/>
	</g>
	<g>
		<path d="M14.3,257.8H17v-8.6h-2.1v-0.8c1-0.2,1.8-0.4,2.4-0.8h1v10.3h2.4v1.1h-6.3V257.8z"/>
		<path d="M22.5,253.2c0-3.8,1.3-5.9,3.6-5.9c2.2,0,3.6,2.1,3.6,5.9c0,3.8-1.3,5.9-3.6,5.9C23.8,259.1,22.5,257,22.5,253.2z
			 M28.4,253.2c0-3.4-0.9-4.8-2.3-4.8c-1.4,0-2.3,1.4-2.3,4.8s0.9,4.9,2.3,4.9C27.5,258.1,28.4,256.6,28.4,253.2z"/>
	</g>
	<g>
		<path d="M22.5,284.1c0-3.8,1.3-5.9,3.6-5.9c2.2,0,3.6,2.1,3.6,5.9c0,3.8-1.3,5.9-3.6,5.9C23.8,290,22.5,287.9,22.5,284.1z
			 M28.4,284.1c0-3.4-0.9-4.8-2.3-4.8c-1.4,0-2.3,1.4-2.3,4.8s0.9,4.9,2.3,4.9C27.5,289,28.4,287.4,28.4,284.1z"/>
	</g>
	<g>
		<path d="M595.2,63.3h-5.7v-1.1h7.3V63c-2.7,3.5-3.3,6.1-3.5,10.6h-1.4C592.1,69.2,593,66.4,595.2,63.3z"/>
		<path d="M598.3,67.8c0-3.8,1.3-5.9,3.6-5.9c2.2,0,3.6,2.1,3.6,5.9c0,3.8-1.3,5.9-3.6,5.9C599.6,73.8,598.3,71.6,598.3,67.8z
			 M604.2,67.8c0-3.4-0.9-4.8-2.3-4.8c-1.4,0-2.3,1.4-2.3,4.8s0.9,4.9,2.3,4.9C603.3,72.7,604.2,71.2,604.2,67.8z"/>
	</g>
	<g>
		<path d="M589.6,99.2c0-4.6,2-6.4,4.3-6.4c1.2,0,2,0.5,2.6,1.2l-0.7,0.8c-0.5-0.6-1.2-0.9-1.9-0.9c-1.6,0-3,1.3-3.1,5
			c0.7-0.9,1.8-1.5,2.7-1.5c2,0,3.2,1.2,3.2,3.5c0,2.2-1.5,3.6-3.3,3.6C591.2,104.7,589.6,102.8,589.6,99.2z M590.9,100.1
			c0.2,2.3,1.1,3.6,2.6,3.6c1.2,0,2.1-1.1,2.1-2.6c0-1.5-0.7-2.5-2.2-2.5C592.6,98.5,591.7,98.9,590.9,100.1z"/>
		<path d="M598.3,98.7c0-3.8,1.3-5.9,3.6-5.9c2.2,0,3.6,2.1,3.6,5.9c0,3.8-1.3,5.9-3.6,5.9C599.6,104.7,598.3,102.5,598.3,98.7z
			 M604.2,98.7c0-3.4-0.9-4.8-2.3-4.8c-1.4,0-2.3,1.4-2.3,4.8s0.9,4.9,2.3,4.9C603.3,103.6,604.2,102.1,604.2,98.7z"/>
	</g>
	<g>
		<path d="M589.2,134l0.7-0.9c0.7,0.7,1.5,1.3,2.9,1.3c1.4,0,2.6-1.1,2.6-2.7c0-1.6-1-2.6-2.5-2.6c-0.8,0-1.3,0.3-2,0.7l-0.7-0.4
			l0.4-5.4h5.6v1.1h-4.4l-0.3,3.6c0.5-0.3,1.1-0.5,1.8-0.5c1.9,0,3.5,1.1,3.5,3.6c0,2.5-1.8,3.8-3.8,3.8
			C591,135.6,589.9,134.8,589.2,134z"/>
		<path d="M598.3,129.6c0-3.8,1.3-5.9,3.6-5.9c2.2,0,3.6,2.1,3.6,5.9c0,3.8-1.3,5.9-3.6,5.9C599.6,135.6,598.3,133.4,598.3,129.6z
			 M604.2,129.6c0-3.4-0.9-4.8-2.3-4.8c-1.4,0-2.3,1.4-2.3,4.8s0.9,4.9,2.3,4.9C603.3,134.5,604.2,133,604.2,129.6z"/>
	</g>
	<g>
		<path d="M594.2,163H589v-0.8l5-7.3h1.4v7.1h1.6v1h-1.6v3.2h-1.2V163z M594.2,162v-3.5c0-0.6,0-1.5,0.1-2.1h-0.1
			c-0.3,0.5-0.6,1-0.9,1.6l-2.8,4.1H594.2z"/>
		<path d="M598.3,160.5c0-3.8,1.3-5.9,3.6-5.9c2.2,0,3.6,2.1,3.6,5.9c0,3.8-1.3,5.9-3.6,5.9C599.6,166.4,598.3,164.3,598.3,160.5z
			 M604.2,160.5c0-3.4-0.9-4.8-2.3-4.8c-1.4,0-2.3,1.4-2.3,4.8s0.9,4.9,2.3,4.9C603.3,165.4,604.2,163.9,604.2,160.5z"/>
	</g>
	<g>
		<path d="M589.2,195.7l0.7-0.8c0.7,0.7,1.6,1.4,3,1.4c1.4,0,2.4-0.9,2.4-2.2c0-1.4-1-2.4-3.7-2.4v-1c2.4,0,3.3-1,3.3-2.2
			c0-1.2-0.8-1.9-2-1.9c-1,0-1.8,0.5-2.5,1.2l-0.7-0.8c0.9-0.8,1.9-1.4,3.2-1.4c1.9,0,3.3,1,3.3,2.9c0,1.4-0.9,2.3-2.1,2.7v0.1
			c1.4,0.3,2.5,1.3,2.5,2.9c0,2-1.6,3.2-3.7,3.2C591.1,197.3,589.9,196.6,589.2,195.7z"/>
		<path d="M598.3,191.4c0-3.8,1.3-5.9,3.6-5.9c2.2,0,3.6,2.1,3.6,5.9c0,3.8-1.3,5.9-3.6,5.9C599.6,197.3,598.3,195.2,598.3,191.4z
			 M604.2,191.4c0-3.4-0.9-4.8-2.3-4.8c-1.4,0-2.3,1.4-2.3,4.8s0.9,4.9,2.3,4.9C603.3,196.3,604.2,194.8,604.2,191.4z"/>
	</g>
	<g>
		<path d="M589.4,227.2c3.5-3.5,5.4-5.6,5.4-7.5c0-1.3-0.7-2.3-2.2-2.3c-1,0-1.8,0.6-2.5,1.4l-0.8-0.8c0.9-1,2-1.7,3.4-1.7
			c2.1,0,3.4,1.3,3.4,3.3c0,2.2-2,4.3-4.8,7.3c0.6-0.1,1.3-0.1,1.9-0.1h3.4v1.1h-7.3V227.2z"/>
		<path d="M598.3,222.3c0-3.8,1.3-5.9,3.6-5.9c2.2,0,3.6,2.1,3.6,5.9c0,3.8-1.3,5.9-3.6,5.9C599.6,228.2,598.3,226.1,598.3,222.3z
			 M604.2,222.3c0-3.4-0.9-4.8-2.3-4.8c-1.4,0-2.3,1.4-2.3,4.8s0.9,4.9,2.3,4.9C603.3,227.2,604.2,225.7,604.2,222.3z"/>
	</g>
	<g>
		<path d="M590.1,257.8h2.6v-8.6h-2.1v-0.8c1-0.2,1.8-0.4,2.4-0.8h1v10.3h2.4v1.1h-6.3V257.8z"/>
		<path d="M598.3,253.2c0-3.8,1.3-5.9,3.6-5.9c2.2,0,3.6,2.1,3.6,5.9c0,3.8-1.3,5.9-3.6,5.9C599.6,259.1,598.3,257,598.3,253.2z
			 M604.2,253.2c0-3.4-0.9-4.8-2.3-4.8c-1.4,0-2.3,1.4-2.3,4.8s0.9,4.9,2.3,4.9C603.3,258.1,604.2,256.6,604.2,253.2z"/>
	</g>
	<g>
		<path d="M589.5,284.1c0-3.8,1.3-5.9,3.6-5.9c2.2,0,3.6,2.1,3.6,5.9c0,3.8-1.3,5.9-3.6,5.9C590.9,290,589.5,287.9,589.5,284.1z
			 M595.4,284.1c0-3.4-0.9-4.8-2.3-4.8c-1.4,0-2.3,1.4-2.3,4.8s0.9,4.9,2.3,4.9C594.5,289,595.4,287.4,595.4,284.1z"/>
	</g>
	<g>
		<path d="M74.9,294c0,0,0,0.7,0,1c-0.2,7.7-0.3,10.4-0.8,11.3c-0.4,0.6-0.8,0.8-1.4,0.9c-0.5,0.1-1.3,0.1-2.2,0.1
			c0-0.6-0.2-1.5-0.6-2.1c0.7,0.1,1.4,0.1,1.7,0.1c0.3,0,0.4-0.1,0.6-0.3c0.3-0.5,0.5-2.7,0.6-8.7h-1.8c-0.2,4.8-0.8,8.8-3.1,11.5
			c-0.3-0.5-1-1.2-1.6-1.6c2-2.3,2.5-5.7,2.6-9.9h-2.1V294h2.1c0-1,0-1.9,0-3H71c0,1,0,2,0,3H74.9z M82.4,292.9v14.3h-2.1V306h-2.3
			v1.2h-2.1v-14.4H82.4z M80.2,303.9v-9h-2.3v9H80.2z"/>
		<path d="M76.4,309.3c-0.1,0.1-0.2,0.2-0.3,0.3c1.7,1.1,4.7,2.1,7.2,2.6c-0.4,0.4-1,1.1-1.2,1.6c-1-0.2-2.1-0.6-3.1-1v0.5h-8.2
			v-0.5c-1,0.4-2.1,0.8-3.2,1c-0.2-0.4-0.8-1.2-1.1-1.5c3.3-0.8,6.6-2.1,8.3-3.8L76.4,309.3z M75.9,321.7h6.9v1.5h-6.9v0.6
			c0,1-0.2,1.4-1,1.6c-0.7,0.3-1.7,0.3-3.1,0.3c-0.1-0.5-0.4-1.2-0.7-1.6c0.9,0,1.9,0,2.2,0c0.3,0,0.4-0.1,0.4-0.3v-0.5h-6.9v-1.5
			h6.9V321h-5.8v-1.4h5.8v-0.6c-1.7,0.1-3.5,0.1-5.1,0.1c0-0.4-0.2-1-0.4-1.3c4,0,8.7-0.1,11.3-0.6l1.4,1.2
			c-1.5,0.3-3.2,0.5-5.1,0.6v0.7h5.9v1.4h-5.9V321.7z M80.5,317.1H69.1v-3.2h11.3V317.1z M78.3,315.1h-7.2v0.7h7.2V315.1z M77.1,312
			c-0.8-0.4-1.7-0.9-2.4-1.3c-0.7,0.5-1.5,0.9-2.3,1.3H77.1z"/>
		<path d="M76.5,333.9c1.2,3.5,3.4,6.3,6.7,7.7c-0.5,0.4-1.2,1.4-1.6,2c-3.3-1.5-5.3-4.2-6.8-7.6c-1,3-2.9,5.8-6.7,7.7
			c-0.3-0.6-1-1.4-1.6-1.8c4.1-1.8,5.8-4.8,6.5-7.9h-6.2v-2.2h6.6c0.2-1.7,0.2-3.3,0.2-4.8h2.3c0,1.5,0,3.1-0.2,4.8h7.1v2.2H76.5z"
			/>
	</g>
	<g>
		<path d="M142.8,302.6c-0.8,2.1-2.9,4-7.8,5c-0.2-0.5-0.8-1.3-1.3-1.8c4-0.7,5.9-1.9,6.7-3.3H134v-2h1.8v-4.2h5.1v-1.6h2.2v1.6h5.5
			v4.2h1.6v2H142.8z M137.3,294.2h-3v-1.8h3v-1.5h2.2v1.5h2.3v1.8h-2.3v1.5h-2.2V294.2z M140.9,300.6c0-0.2,0-0.3,0-0.5v-1.8h-3.1
			v2.3H140.9z M143.5,302.7c2.2,0.8,5.4,2.3,7,3.3l-1.1,1.7c-1.5-1-4.6-2.6-6.9-3.5L143.5,302.7z M144.9,294.2h-2.4v-1.8h2.4v-1.5
			h2.2v1.5h2.9v1.8h-2.9v1.5h-2.2V294.2z M143.2,298.3v1.9c0,0.2,0,0.3,0,0.5h3.3v-2.3H143.2z"/>
		<path d="M149.8,309.6v16.1h-2.1v-0.8h-11.2v0.8h-2v-16.1H149.8z M147.7,323v-11.5h-2.2c0.6,0.3,1.2,0.7,1.5,1l-0.7,0.8h0.9v1.5
			h-3.2c0.1,1,0.2,1.9,0.3,2.8c0.4-0.7,0.6-1.4,0.8-2.3l1.6,0.3c-0.4,1.6-1.1,3-1.9,4.1c0.2,0.6,0.5,0.9,0.8,1
			c0.2,0.1,0.4-0.6,0.4-1.7c0.3,0.3,1,0.8,1.3,1c-0.3,2.2-1.2,2.9-2.4,2.4c-0.5-0.2-1-0.6-1.4-1.2c-0.6,0.6-1.2,1.1-1.9,1.5
			c-0.2-0.3-0.8-1-1.2-1.3c0.2-0.1,0.4-0.2,0.6-0.4c-1.4,0.2-2.9,0.4-4.1,0.6l-0.2-1.6c1.3-0.1,3.2-0.4,5.1-0.6l0,0.9
			c0.3-0.3,0.6-0.6,0.9-0.9c-0.4-1.3-0.6-2.9-0.8-4.7h-5v-1.5h4.9c0-0.5-0.1-1-0.1-1.5h1.8c0,0.5,0,1,0.1,1.5h1.9
			c-0.4-0.3-0.9-0.7-1.4-1l0.8-0.8h-8.7V323H147.7z M141.6,319h-4v-3.4h4V319z M140.2,316.7H139v1.2h1.2V316.7z"/>
	</g>
	<g>
		<path d="M211.3,303.2c2.2,0.8,5,1.9,6.5,2.6l-1,1.8c-1.6-0.9-4.9-2.3-7.2-3.1l0.8-1.4h-0.6c-0.9,2.2-2.8,3.6-7.6,4.4
			c-0.1-0.6-0.6-1.5-1.1-1.9c3.6-0.5,5.3-1.3,6.2-2.5h-5.4v-1.8h6.1c0.1-0.3,0.1-0.6,0.1-0.9h-6.6v-1.9h6.9v-1h-5.3v-1.8h5.3v-0.9
			H202V293h3.4c-0.3-0.5-0.6-1.1-1-1.6l1.9-0.8c0.6,0.6,1.1,1.5,1.4,2.1l-0.5,0.2h4c0.5-0.7,1-1.6,1.3-2.3l2.3,0.6
			c-0.4,0.6-0.8,1.2-1.2,1.7h3.5v1.9h-6.4v0.9h5.5v1.8h-5.5v1h7.2v1.9h-7.4c0,0.3-0.1,0.6-0.1,0.9h7v1.8H211.3z"/>
		<path d="M217.2,309.6v16.1h-2.1v-0.8h-11.2v0.8h-2v-16.1H217.2z M215.1,323v-11.5h-2.2c0.6,0.3,1.2,0.7,1.5,1l-0.7,0.8h0.9v1.5
			h-3.2c0.1,1,0.2,1.9,0.3,2.8c0.4-0.7,0.6-1.4,0.8-2.3l1.6,0.3c-0.4,1.6-1.1,3-1.9,4.1c0.2,0.6,0.5,0.9,0.8,1
			c0.2,0.1,0.4-0.6,0.4-1.7c0.3,0.3,1,0.8,1.3,1c-0.3,2.2-1.2,2.9-2.4,2.4c-0.5-0.2-1-0.6-1.4-1.2c-0.6,0.6-1.2,1.1-1.9,1.5
			c-0.2-0.3-0.8-1-1.2-1.3c0.2-0.1,0.4-0.2,0.6-0.4c-1.4,0.2-2.9,0.4-4.1,0.6l-0.2-1.6c1.3-0.1,3.2-0.4,5.1-0.6l0,0.9
			c0.3-0.3,0.6-0.6,0.9-0.9c-0.4-1.3-0.6-2.9-0.8-4.7h-5v-1.5h4.9c0-0.5-0.1-1-0.1-1.5h1.8c0,0.5,0,1,0.1,1.5h1.9
			c-0.4-0.3-0.9-0.7-1.4-1l0.8-0.8h-8.7V323H215.1z M209,319h-4v-3.4h4V319z M207.6,316.7h-1.2v1.2h1.2V316.7z"/>
	</g>
	<g>
		<path d="M274.1,295.5c-0.4,0.8-0.9,1.7-1.4,2.5h0v9.7h-2v-6.9c-0.4,0.6-0.9,1.1-1.3,1.5c-0.2-0.4-0.8-1.5-1.2-2
			c1.4-1.4,3-3.4,3.9-5.5L274.1,295.5z M273.8,291.6c-1.2,1.7-2.9,3.7-4.4,5c-0.2-0.5-0.7-1.3-1-1.8c1.2-1,2.8-2.8,3.5-4
			L273.8,291.6z M272.9,306c0.6-0.8,1.1-2.2,1.4-3.3l1.6,0.6c-0.3,1.2-0.8,2.7-1.4,3.6L272.9,306z M285.3,302h-5.5
			c0.4,0.6,0.8,1.4,1,1.9l-1.7,0.6c-0.2-0.6-0.7-1.5-1.1-2.2l0.9-0.3h-5.4v-1.7h11.6V302z M278.2,294.7c0-0.3,0.1-0.6,0.1-0.9h-4.4
			v-1.7h4.5c0-0.5,0.1-0.9,0.1-1.3l2.3,0.1l-0.2,1.3h4.6v1.7h-4.8c-0.1,0.3-0.1,0.6-0.1,0.9h4.4v4.8h-10.1v-4.8H278.2z M280.5,305.8
			c0.5,0,0.6-0.2,0.7-1.5c0.4,0.3,1.1,0.5,1.6,0.6c-0.2,2-0.7,2.4-2.1,2.4h-2.2c-1.9,0-2.3-0.5-2.3-2.1v-2.2h1.9v2.2
			c0,0.5,0.1,0.5,0.7,0.5H280.5z M277.5,296.2h-1.2v1.7h1.2V296.2z M280.2,296.2h-1.3v1.7h1.3V296.2z M281.6,298h1.3v-1.7h-1.3V298z
			 M283.5,302.6c0.8,1.1,1.6,2.4,1.9,3.4l-1.7,0.8c-0.2-0.9-1-2.4-1.8-3.5L283.5,302.6z"/>
		<path d="M284.6,309.6v16.1h-2.1v-0.8h-11.2v0.8h-2v-16.1H284.6z M282.4,323v-11.5h-2.2c0.6,0.3,1.2,0.7,1.5,1l-0.7,0.8h0.9v1.5
			h-3.2c0.1,1,0.2,1.9,0.3,2.8c0.4-0.7,0.6-1.4,0.8-2.3l1.6,0.3c-0.4,1.6-1.1,3-1.9,4.1c0.2,0.6,0.5,0.9,0.8,1
			c0.2,0.1,0.4-0.6,0.4-1.7c0.3,0.3,1,0.8,1.3,1c-0.3,2.2-1.2,2.9-2.4,2.4c-0.5-0.2-1-0.6-1.4-1.2c-0.6,0.6-1.2,1.1-1.9,1.5
			c-0.2-0.3-0.8-1-1.2-1.3c0.2-0.1,0.4-0.2,0.6-0.4c-1.4,0.2-2.9,0.4-4.1,0.6l-0.2-1.6c1.3-0.1,3.2-0.4,5.1-0.6l0,0.9
			c0.3-0.3,0.6-0.6,0.9-0.9c-0.4-1.3-0.6-2.9-0.8-4.7h-5v-1.5h4.9c0-0.5-0.1-1-0.1-1.5h1.8c0,0.5,0,1,0.1,1.5h1.9
			c-0.4-0.3-0.9-0.7-1.4-1l0.8-0.8h-8.7V323H282.4z M276.4,319h-4v-3.4h4V319z M274.9,316.7h-1.2v1.2h1.2V316.7z"/>
	</g>
	<g>
		<path d="M351.2,303.2c-0.6,0.7-1.3,1.4-2.1,2c0.4,0.3,0.9,0.5,1.4,0.5c0.4,0,0.5-0.3,0.6-1.3c0.4,0.4,1.1,0.7,1.6,0.8
			c-0.3,2-0.9,2.4-2.3,2.4c-1.2,0-2.2-0.5-3.1-1.4c-1.2,0.6-2.4,1-3.7,1.4c-0.2-0.4-0.7-1.3-1-1.7c1.2-0.3,2.5-0.6,3.6-1.1
			c-0.4-0.6-0.7-1.4-0.9-2.1h-3.5v0.7l2.7-0.1l0,1.4l-2.7,0.2v0.9c0,1-0.2,1.4-0.9,1.6c-0.7,0.3-1.6,0.3-3,0.3
			c-0.1-0.5-0.4-1.2-0.6-1.6c0.8,0.1,1.8,0,2,0c0.3,0,0.4-0.1,0.4-0.3V305c-1.3,0.1-2.4,0.2-3.5,0.3l-0.2-1.6c1,0,2.3-0.1,3.6-0.2
			v-0.8h-3.6v-1.6h3.6v-0.7c-1,0.1-1.9,0.1-2.8,0.2c-0.1-0.4-0.3-0.9-0.5-1.3c2.2-0.1,4.8-0.4,6.3-0.7h-6.6v-1.6h6.9v-0.7H338v-1.5
			h5.1v-0.6H337v-1.6h3.2c-0.2-0.4-0.4-0.8-0.7-1.1l1.9-0.6c0.5,0.5,0.9,1.2,1.1,1.7h3.6c0.3-0.5,0.6-1.2,0.8-1.7l2.4,0.5
			c-0.3,0.5-0.6,0.9-0.9,1.3h3.1v1.6h-6.2v0.6h5.2v1.5h-5.2v0.7h7v1.6h-3.6c1,0.4,2.2,1,2.8,1.5l-1,1.1h1.8v1.6h-2.7L351.2,303.2z
			 M344.9,301.1c-0.1-0.7-0.2-1.5-0.3-2.3h2.1c0,0.8,0.1,1.6,0.3,2.3h3c-0.7-0.5-1.7-1.1-2.6-1.4l1.1-1.2h-5.3l1.2,1.2
			c-0.7,0.2-1.6,0.3-2.5,0.4v0.9H344.9z M347.5,302.6c0.2,0.4,0.3,0.8,0.6,1.2c0.5-0.3,1-0.7,1.3-1.2H347.5z"/>
		<path d="M345.9,315.9c1.2,3.5,3.4,6.3,6.7,7.7c-0.5,0.4-1.2,1.4-1.6,2c-3.3-1.5-5.3-4.2-6.8-7.6c-1,3-2.9,5.8-6.7,7.7
			c-0.3-0.6-1-1.4-1.6-1.8c4.1-1.8,5.8-4.8,6.5-7.9h-6.2v-2.2h6.6c0.2-1.7,0.2-3.3,0.2-4.8h2.3c0,1.5,0,3.1-0.2,4.8h7.1v2.2H345.9z"
			/>
		<path d="M341.6,335.1c0.9,0.7,2.7,2.2,3.2,2.6l-1.2,1.8c-0.4-0.6-1.2-1.4-1.9-2.1v6.2h-2.1v-6.4c-0.8,1.6-1.8,3.2-2.8,4.2
			c-0.2-0.6-0.7-1.5-1.1-2.1c1.3-1.3,2.6-3.3,3.4-5.2h-3v-2h3.4v-2.2c-1,0.2-2.1,0.4-3,0.5c-0.1-0.5-0.4-1.2-0.6-1.7
			c2.6-0.4,5.5-1.1,7.2-1.9l1.5,1.7c-0.9,0.4-1.9,0.7-3,0.9v2.7h3.1v2h-3.1V335.1z M347.6,339.1h-2.1V329h2.1V339.1z M351.9,327.2
			V341c0,1.2-0.3,1.8-1,2.2c-0.7,0.4-1.9,0.4-3.6,0.4c-0.1-0.6-0.4-1.6-0.7-2.2c1.2,0.1,2.3,0.1,2.7,0.1c0.3,0,0.5-0.1,0.5-0.5
			v-13.8H351.9z"/>
	</g>
	<g>
		<path d="M406.6,299.3c-0.7-0.6-2.2-1.4-3.4-1.9l1.1-1.6c1.1,0.4,2.6,1.2,3.4,1.8L406.6,299.3z M403.9,306c1-1.4,2.3-3.6,3.4-5.7
			l1.6,1.4c-1,1.9-2.1,3.9-3.2,5.7L403.9,306z M407.7,294.6c-0.7-0.6-2.2-1.5-3.3-2l1.2-1.6c1.1,0.5,2.7,1.2,3.4,1.8L407.7,294.6z
			 M417.9,307.6c-0.1-0.5-0.3-1-0.6-1.6c-6,0.7-6.9,0.9-7.5,1.2c-0.1-0.5-0.5-1.5-0.8-2.1c0.4-0.1,0.8-0.5,1.2-1.2
			c0.3-0.5,1.2-2.1,1.9-3.9h-3.4v-2h4.3v-2.5h-3.5v-2h3.5v-2.7h2.2v2.7h3.7v2h-3.7v2.5h4.3v2h-4.9c-0.7,1.6-1.6,3.3-2.5,4.6l4.2-0.4
			c-0.4-0.6-0.8-1.3-1.2-1.9l1.7-0.9c1.2,1.6,2.5,3.7,3,5.1L417.9,307.6z"/>
		<path d="M419.3,309.6v16.1h-2.1v-0.8H406v0.8h-2v-16.1H419.3z M417.1,323v-11.5H415c0.6,0.3,1.2,0.7,1.5,1l-0.7,0.8h0.9v1.5h-3.2
			c0.1,1,0.2,1.9,0.3,2.8c0.4-0.7,0.6-1.4,0.8-2.3l1.6,0.3c-0.4,1.6-1.1,3-1.9,4.1c0.2,0.6,0.5,0.9,0.8,1c0.2,0.1,0.4-0.6,0.4-1.7
			c0.3,0.3,1,0.8,1.3,1c-0.3,2.2-1.2,2.9-2.4,2.4c-0.5-0.2-1-0.6-1.4-1.2c-0.6,0.6-1.2,1.1-1.9,1.5c-0.2-0.3-0.8-1-1.2-1.3
			c0.2-0.1,0.4-0.2,0.6-0.4c-1.4,0.2-2.9,0.4-4.1,0.6l-0.2-1.6c1.3-0.1,3.2-0.4,5.1-0.6l0,0.9c0.3-0.3,0.6-0.6,0.9-0.9
			c-0.4-1.3-0.6-2.9-0.8-4.7h-5v-1.5h4.9c0-0.5-0.1-1-0.1-1.5h1.8c0,0.5,0,1,0.1,1.5h1.9c-0.4-0.3-0.9-0.7-1.4-1l0.8-0.8H406V323
			H417.1z M411.1,319h-4v-3.4h4V319z M409.6,316.7h-1.2v1.2h1.2V316.7z"/>
	</g>
	<g>
		<path d="M481.9,293.9v2h4.5v11.7h-2.2v-1h-10.3v1h-2.1v-11.7h4.2v-2h-5.1v-2.1H487v2.1H481.9z M484.2,304.6v-2.2h-0.1h-2
			c-1.9,0-2.3-0.6-2.3-2.6v-1.9h-1.9c-0.1,1.9-0.8,3.9-3.3,5c-0.1-0.2-0.4-0.6-0.7-0.9v2.7H484.2z M473.9,297.8v3.2
			c1.6-0.9,2.1-2,2.1-3.2H473.9z M479.8,293.9H478v2h1.9V293.9z M481.9,297.8v1.9c0,0.6,0.1,0.6,0.6,0.6h1.4c0.2,0,0.3,0,0.3,0v-2.5
			H481.9z"/>
		<path d="M476.2,323c-1.9,0.5-3.9,0.9-5.4,1.3l-0.4-2c0.6-0.1,1.3-0.2,2.1-0.4v-4.2h-1.5v-1.9h1.5v-3.9h-1.7v-1.9h5.5v1.9h-1.8v3.9
			h1.4v1.9h-1.4v3.8l1.6-0.4L476.2,323z M480.4,316.6c0,3.7-0.5,6.9-3.9,9c-0.3-0.5-0.9-1.2-1.3-1.5c2.7-1.6,3.2-4.1,3.3-6.8
			l-0.8,0.4c-0.4-1.1-1.2-2.9-2-4.2l1.6-0.6c0.4,0.7,0.8,1.5,1.2,2.3v-6.3h1.9V316.6z M487.3,323.1v2h-7.5v-2h3.2v-4.9h-2v-1.9h2
			v-4.4h-2.2v-1.9h6.2v1.9h-2v4.4h1.7v1.9h-1.7v4.9H487.3z"/>
		<path d="M486.9,335.9h-3.6v5.1c0,1.2-0.3,1.8-1,2.2c-0.7,0.4-1.8,0.4-3.4,0.4c-0.1-0.6-0.5-1.7-0.8-2.3c1,0,2.1,0,2.5,0
			c0.3,0,0.5-0.1,0.5-0.4v-4.8c-2.3,2.8-5.5,5.1-8.8,6.5c-0.3-0.5-1-1.4-1.5-1.9c2.9-1,5.9-2.9,8-5h-5v0h-1.4c0.5-1.6,1-4.1,1.4-6.2
			h-1.5v-2.1h14v2.1h-2.8v4.2h3.6V335.9z M476,329.6c-0.3,1.4-0.6,2.9-0.9,4.2h5.9v-4.2H476z"/>
	</g>
	<g>
		<path d="M552.6,291.9v15.5h-2.3v-1.1h-8v1.2h-2.2v-15.5H552.6z M542.3,294.1v3.9h8v-3.9H542.3z M550.3,304.1v-4h-8v4H550.3z"/>
		<path d="M549.7,314.5c1.1,2.6,3,5.1,5.1,6.5c-0.6,0.4-1.3,1.3-1.7,1.9c-0.7-0.5-1.3-1.1-1.9-1.9v1.6h-3.7v3h-2.3v-3h-3.8V321
			c-0.6,0.8-1.3,1.4-2,2c-0.4-0.5-1.1-1.4-1.6-1.7c2.1-1.4,3.9-4,5-6.7h-4.4v-2.2h6.8v-3.5h2.3v3.5h6.8v2.2H549.7z M545.2,320.4
			v-5.9h-0.1c-0.8,2.2-1.9,4.2-3.2,5.9H545.2z M550.7,320.4c-1.3-1.7-2.3-3.7-3.1-5.9h-0.1v5.9H550.7z"/>
	</g>
	<line class="st1" x1="37.3" y1="283.8" x2="584.6" y2="283.8"/>
	<g>
		<rect x="52.4" y="182.6" class="st2" width="44.7" height="100.2"/>
		<rect x="52.4" y="101.1" class="st3" width="44.7" height="81.5"/>
		<rect x="63.7" y="121.4" class="st4" width="22.1" height="5.6"/>
	</g>
	<g>
		<rect x="119.9" y="127" class="st2" width="44.7" height="155.8"/>
		<rect x="119.9" y="109.4" class="st3" width="44.7" height="17.6"/>
		<rect x="131.1" y="107.4" class="st4" width="22.1" height="5.6"/>
	</g>
	<g>
		<rect x="187.3" y="148.7" class="st2" width="44.7" height="134.1"/>
		<rect x="187.3" y="138.1" class="st3" width="44.7" height="10.6"/>
		<rect x="198.5" y="129.2" class="st4" width="22.1" height="5.6"/>
	</g>
	<g>
		<rect x="254.7" y="197.7" class="st2" width="44.7" height="85.2"/>
		<rect x="254.7" y="150.4" class="st3" width="44.7" height="47.3"/>
		<rect x="265.9" y="157.4" class="st4" width="22.1" height="5.6"/>
	</g>
	<g>
		<rect x="322.1" y="211.6" class="st2" width="44.7" height="71.2"/>
		<rect x="322.1" y="158.4" class="st3" width="44.7" height="53.2"/>
		<rect x="333.4" y="172.4" class="st4" width="22.1" height="5.6"/>
	</g>
	<g>
		<rect x="389.5" y="212.6" class="st2" width="44.7" height="70.2"/>
		<rect x="389.5" y="170.6" class="st3" width="44.7" height="42"/>
		<rect x="400.8" y="176.2" class="st4" width="22.1" height="5.6"/>
	</g>
	<g>
		<rect x="457" y="206.1" class="st2" width="44.7" height="76.7"/>
		<rect x="457" y="169" class="st3" width="44.7" height="37.2"/>
		<rect x="468.2" y="172.4" class="st4" width="22.1" height="5.6"/>
	</g>
	<g>
		<rect x="524.4" y="277.2" class="st2" width="44.7" height="5.6"/>
		<rect x="524.4" y="264.5" class="st3" width="44.7" height="12.7"/>
		<rect x="535.6" y="265.7" class="st4" width="22.1" height="5.6"/>
	</g>
	<line class="st1" x1="40.9" y1="66.4" x2="40.9" y2="289.8"/>
	<line class="st1" x1="579.5" y1="66.4" x2="579.5" y2="289.8"/>
	<g>
		<line class="st1" x1="37.3" y1="252.8" x2="40.9" y2="252.8"/>
		<line class="st1" x1="37.3" y1="221.7" x2="40.9" y2="221.7"/>
		<line class="st1" x1="37.3" y1="190.6" x2="40.9" y2="190.6"/>
		<line class="st1" x1="37.3" y1="159.6" x2="40.9" y2="159.6"/>
		<line class="st1" x1="37.3" y1="128.5" x2="40.9" y2="128.5"/>
		<line class="st1" x1="37.3" y1="97.4" x2="40.9" y2="97.4"/>
		<line class="st1" x1="37.3" y1="66.4" x2="40.9" y2="66.4"/>
	</g>
	<g>
		<line class="st1" x1="579.5" y1="252.8" x2="583.1" y2="252.8"/>
		<line class="st1" x1="579.5" y1="221.7" x2="583.1" y2="221.7"/>
		<line class="st1" x1="579.5" y1="190.6" x2="583.1" y2="190.6"/>
		<line class="st1" x1="579.5" y1="159.6" x2="583.1" y2="159.6"/>
		<line class="st1" x1="579.5" y1="128.5" x2="583.1" y2="128.5"/>
		<line class="st1" x1="579.5" y1="97.4" x2="583.1" y2="97.4"/>
		<line class="st1" x1="579.5" y1="66.4" x2="583.1" y2="66.4"/>
	</g>
	<line class="st1" x1="108.2" y1="290" x2="108.2" y2="283.8"/>
	<line class="st1" x1="175.6" y1="290" x2="175.6" y2="283.8"/>
	<line class="st1" x1="242.9" y1="290" x2="242.9" y2="283.8"/>
	<line class="st1" x1="310.2" y1="290" x2="310.2" y2="283.8"/>
	<line class="st1" x1="377.5" y1="290" x2="377.5" y2="283.8"/>
	<line class="st1" x1="444.9" y1="290" x2="444.9" y2="283.8"/>
	<line class="st1" x1="512.2" y1="290" x2="512.2" y2="283.8"/>
	<g>
		<g>
			<g>
				<g>
					<path d="M206.5,55.3v14.2h-1.4v-1.2h-11.9v1.3h-1.3V55.3H206.5z M205.1,67V56.6h-3.5v5.6c0,0.6,0.1,0.8,0.5,0.8h1.7
						c0.3,0,0.8,0,1-0.1c0,0.4,0.1,0.8,0.1,1.1c-0.2,0.1-0.7,0.1-1.1,0.1h-1.9c-1.3,0-1.6-0.6-1.6-2v-5.6h-2.5
						c-0.1,4.8-0.6,7.5-3.7,9c-0.1-0.3-0.5-0.8-0.8-1c2.7-1.3,3.1-3.6,3.2-8h-3.4V67H205.1z"/>
					<path d="M222.9,68.2c0,0.9-0.3,1.4-0.9,1.6c-0.7,0.2-1.9,0.3-3.8,0.3c-0.1-0.4-0.3-1-0.6-1.4c1.5,0.1,2.9,0,3.3,0
						c0.4,0,0.6-0.1,0.6-0.5v-3.6h-8.6c-0.5,2-1.4,4.1-3.1,5.6c-0.2-0.3-0.7-0.8-1-1c2.9-2.5,3.2-6.2,3.2-9v-5.5h11V68.2z
						 M221.5,63.3v-3h-8.2c0,0.9-0.1,2-0.2,3H221.5z M213.3,56v3h8.2v-3H213.3z"/>
					<path d="M229.7,56.8v3.9c0,2.8-0.2,6.8-1.8,9.5c-0.2-0.2-0.8-0.6-1.1-0.8c1.5-2.6,1.6-6.2,1.6-8.8v-5.1h7
						c-0.2-0.5-0.5-1-0.8-1.5l1.3-0.4c0.4,0.5,0.8,1.3,1,1.8h6.3v1.2H229.7z M238.7,63.6c0.6,3.1,1.8,5.1,3,5.1
						c0.4,0,0.6-0.8,0.6-2.6c0.3,0.3,0.7,0.5,1.1,0.6c-0.2,2.5-0.6,3.2-1.8,3.2c-1.9,0-3.4-2.6-4.2-6.4H233v3.1l3.4-0.8
						c0,0.4,0,0.9,0,1.1c-3.9,1-4.4,1.2-4.8,1.4c-0.1-0.3-0.3-0.9-0.5-1.2c0.2-0.1,0.5-0.3,0.5-1v-7.7c3.3-0.1,7.1-0.5,9.3-0.9l1,1
						c-1.1,0.2-2.4,0.4-3.9,0.6c0,1.1,0.1,2.1,0.3,3.1h4.4v1.2H238.7z M237.1,62.3c-0.1-1-0.3-1.9-0.3-3c-1.3,0.1-2.6,0.2-3.8,0.2
						v2.7H237.1z M234.1,68.5h4.7v1.1h-4.7V68.5z"/>
				</g>
			</g>
			<rect x="168.6" y="54.5" class="st2" width="15" height="15"/>
		</g>
		<g>
			<g>
				<g>
					<path d="M315.2,67.9v1.3h-15.9v-1.3h4.4c0.4-1.6,0.7-3.7,1.1-5.9h-3.3v-1.3h3.6c0.2-1.3,0.4-2.7,0.6-3.9h-5.1v-1.3H314v1.3H307
						c-0.2,1.2-0.4,2.6-0.6,3.9h4.5l0.2-0.1l1,0.1c-0.1,2-0.4,4.8-0.6,7.2H315.2z M306.2,62c-0.3,2.1-0.7,4.2-1.1,5.9h5
						c0.2-1.9,0.4-4.2,0.6-5.9H306.2z"/>
					<path d="M331,68.2c0,0.9-0.3,1.4-0.9,1.6c-0.7,0.2-1.9,0.3-3.8,0.3c-0.1-0.4-0.3-1-0.6-1.4c1.5,0.1,2.9,0,3.3,0
						c0.4,0,0.6-0.1,0.6-0.5v-3.6H321c-0.5,2-1.4,4.1-3.1,5.6c-0.2-0.3-0.7-0.8-1-1c2.9-2.5,3.2-6.2,3.2-9v-5.5h11V68.2z
						 M329.6,63.3v-3h-8.2c0,0.9-0.1,2-0.2,3H329.6z M321.4,56v3h8.2v-3H321.4z"/>
					<path d="M337.8,56.8v3.9c0,2.8-0.2,6.8-1.8,9.5c-0.2-0.2-0.8-0.6-1.1-0.8c1.5-2.6,1.6-6.2,1.6-8.8v-5.1h7
						c-0.2-0.5-0.5-1-0.8-1.5l1.3-0.4c0.4,0.5,0.8,1.3,1,1.8h6.3v1.2H337.8z M346.8,63.6c0.6,3.1,1.8,5.1,3,5.1
						c0.4,0,0.6-0.8,0.6-2.6c0.3,0.3,0.7,0.5,1.1,0.6c-0.2,2.5-0.6,3.2-1.8,3.2c-1.9,0-3.4-2.6-4.2-6.4h-4.3v3.1l3.4-0.8
						c0,0.4,0,0.9,0,1.1c-3.9,1-4.4,1.2-4.8,1.4c-0.1-0.3-0.3-0.9-0.5-1.2c0.2-0.1,0.5-0.3,0.5-1v-7.7c3.3-0.1,7.1-0.5,9.3-0.9l1,1
						c-1.1,0.2-2.4,0.4-3.9,0.6c0,1.1,0.1,2.1,0.3,3.1h4.4v1.2H346.8z M345.2,62.3c-0.1-1-0.3-1.9-0.3-3c-1.3,0.1-2.6,0.2-3.8,0.2
						v2.7H345.2z M342.2,68.5h4.7v1.1h-4.7V68.5z"/>
				</g>
			</g>
			<rect x="276.7" y="54.5" class="st3" width="15" height="15"/>
		</g>
		<g>
			<g>
				<g>
					<path d="M423.7,61.8v8.4h-1.3v-1.8c-2.2,0.3-4.4,0.5-6,0.7l-0.1-1.2c0.5,0,1.1-0.1,1.7-0.2v-6h-1.5v-1.1h15.8v1.1H423.7z
						 M419.7,59.9h-1.3v-5.5h11.9v5.5H429v-4.5h-9.3V59.9z M422.4,61.8h-3.2v1.2h3.2V61.8z M422.4,63.9h-3.2v1.2h3.2V63.9z
						 M419.2,67.6c1-0.1,2.1-0.2,3.2-0.3v-1.1h-3.2V67.6z M428.3,57.4h-7.7v-0.9h7.7V57.4z M420.5,58.5h7.7v0.9h-7.7V58.5z
						 M431.6,63.2c-0.6,1.7-1.5,3.2-2.6,4.3c1,0.8,2.2,1.4,3.6,1.7c-0.3,0.3-0.6,0.7-0.8,1c-1.4-0.4-2.7-1.1-3.7-1.9
						c-1.1,0.8-2.3,1.5-3.6,1.9c-0.2-0.3-0.5-0.8-0.7-1c1.2-0.4,2.4-0.9,3.4-1.7c-0.9-0.9-1.5-2-2-3.2l0.8-0.2h-1.7v-1.1h6.4l0.2,0
						L431.6,63.2z M426.3,63.9c0.4,1,1,1.9,1.8,2.7c0.8-0.8,1.5-1.7,1.9-2.7H426.3z"/>
					<path d="M437,65.1c-0.4,1.3-1.2,2.7-1.9,3.6c-0.2-0.2-0.7-0.5-0.9-0.6c0.7-0.8,1.3-2.1,1.7-3.2L437,65.1z M439.2,63.9v6.2h-1.3
						v-6.2h-3.6v-1.2h3.6v-1.9h-3.7v-1.1h5c0.3-0.8,0.8-2,1-2.8l1.2,0.3c-0.3,0.9-0.7,1.8-1,2.6h2.3v1.1h-3.5v1.9h3.3v1.2H439.2z
						 M442.4,56.7h-7.9v-1.1h3.5c-0.2-0.5-0.5-1.2-0.8-1.6l1.3-0.3c0.4,0.6,0.8,1.4,1,2h2.8V56.7z M436.4,59.6
						c-0.1-0.7-0.4-1.7-0.7-2.5l1.1-0.3c0.4,0.8,0.7,1.8,0.7,2.4L436.4,59.6z M441,64.7c0.6,0.9,1.2,2.1,1.5,2.8l-1,0.5
						c-0.3-0.8-0.9-2-1.5-2.9L441,64.7z M450.6,61h-2v9.1h-1.3V61h-2.5v0.6c0,2.6-0.2,6.1-1.9,8.4c-0.2-0.3-0.7-0.7-1-0.8
						c1.5-2.2,1.7-5.2,1.7-7.6v-6.2c2-0.3,4.3-0.9,5.6-1.4l1.1,1c-1.5,0.6-3.5,1-5.4,1.3v3.4h5.7V61z"/>
				</g>
			</g>
			<rect x="393.8" y="54.5" class="st4" width="15" height="15"/>
		</g>
	</g>
</g>
<g>
	<rect y="441.9" class="st0" width="620" height="358"/>
	<text transform="matrix(1 0 0 1 12.916 515.447)" style="font-family:'SourceHanSansTW-Normal-B5pc-H'; font-size:16px;">70</text>
	<text transform="matrix(1 0 0 1 14.3399 494.9174)" style="font-family:'SourceHanSansTW-Normal-B5pc-H'; font-size:14px;">% Population</text>
	<text transform="matrix(1 0 0 1 517.7587 494.9174)" style="font-family:'SourceHanSansTW-Normal-B5pc-H'; font-size:14px;">% Population</text>
	<g>
		<text transform="matrix(1 0 0 1 139.0002 469.356)" style="font-family:'SourceHanSansTW-Bold-B5pc-H'; font-size:18px;">已開開發國家：接種第一劑疫苗的人口比例</text>
	</g>
	<text transform="matrix(1 0 0 1 12.916 546.3376)" style="font-family:'SourceHanSansTW-Normal-B5pc-H'; font-size:16px;">60</text>
	<text transform="matrix(1 0 0 1 12.916 577.2281)" style="font-family:'SourceHanSansTW-Normal-B5pc-H'; font-size:16px;">50</text>
	<text transform="matrix(1 0 0 1 12.916 608.1187)" style="font-family:'SourceHanSansTW-Normal-B5pc-H'; font-size:16px;">40</text>
	<text transform="matrix(1 0 0 1 12.916 639.0093)" style="font-family:'SourceHanSansTW-Normal-B5pc-H'; font-size:16px;">30</text>
	<text transform="matrix(1 0 0 1 12.916 669.8998)" style="font-family:'SourceHanSansTW-Normal-B5pc-H'; font-size:16px;">20</text>
	<text transform="matrix(1 0 0 1 12.916 700.7903)" style="font-family:'SourceHanSansTW-Normal-B5pc-H'; font-size:16px;">10</text>
	<text transform="matrix(1 0 0 1 21.6997 731.6809)" style="font-family:'SourceHanSansTW-Normal-B5pc-H'; font-size:16px;">0</text>
	<text transform="matrix(1 0 0 1 588.7151 515.447)" style="font-family:'SourceHanSansTW-Normal-B5pc-H'; font-size:16px;">70</text>
	<text transform="matrix(1 0 0 1 588.7151 546.3376)" style="font-family:'SourceHanSansTW-Normal-B5pc-H'; font-size:16px;">60</text>
	<text transform="matrix(1 0 0 1 588.7151 577.2281)" style="font-family:'SourceHanSansTW-Normal-B5pc-H'; font-size:16px;">50</text>
	<text transform="matrix(1 0 0 1 588.7151 608.1187)" style="font-family:'SourceHanSansTW-Normal-B5pc-H'; font-size:16px;">40</text>
	<text transform="matrix(1 0 0 1 588.7151 639.0093)" style="font-family:'SourceHanSansTW-Normal-B5pc-H'; font-size:16px;">30</text>
	<text transform="matrix(1 0 0 1 588.7151 669.8998)" style="font-family:'SourceHanSansTW-Normal-B5pc-H'; font-size:16px;">20</text>
	<text transform="matrix(1 0 0 1 588.7151 700.7903)" style="font-family:'SourceHanSansTW-Normal-B5pc-H'; font-size:16px;">10</text>
	<text transform="matrix(1 0 0 1 588.7151 731.6809)" style="font-family:'SourceHanSansTW-Normal-B5pc-H'; font-size:16px;">0</text>
	
		<text transform="matrix(1 0 0 1 74.794 732.1028)" style="font-family:'SourceHanSansTW-Bold-B5pc-H'; font-size:18px;glyph-orientation-vertical:0;writing-mode:tb;">加拿大</text>
	
		<text transform="matrix(1 0 0 1 142.1555 732.1028)" style="font-family:'SourceHanSansTW-Bold-B5pc-H'; font-size:18px;glyph-orientation-vertical:0;writing-mode:tb;">英國</text>
	
		<text transform="matrix(1 0 0 1 209.517 732.1028)" style="font-family:'SourceHanSansTW-Bold-B5pc-H'; font-size:18px;glyph-orientation-vertical:0;writing-mode:tb;">美國</text>
	
		<text transform="matrix(1 0 0 1 276.8785 732.1028)" style="font-family:'SourceHanSansTW-Bold-B5pc-H'; font-size:18px;glyph-orientation-vertical:0;writing-mode:tb;">德國</text>
	
		<text transform="matrix(1 0 0 1 344.24 732.1028)" style="font-family:'SourceHanSansTW-Bold-B5pc-H'; font-size:18px;glyph-orientation-vertical:0;writing-mode:tb;">義大利</text>
	
		<text transform="matrix(1 0 0 1 411.6015 732.1028)" style="font-family:'SourceHanSansTW-Bold-B5pc-H'; font-size:18px;glyph-orientation-vertical:0;writing-mode:tb;">法國</text>
	
		<text transform="matrix(1 0 0 1 478.9631 732.1028)" style="font-family:'SourceHanSansTW-Bold-B5pc-H'; font-size:18px;glyph-orientation-vertical:0;writing-mode:tb;">西班牙</text>
	
		<text transform="matrix(1 0 0 1 546.3246 732.1028)" style="font-family:'SourceHanSansTW-Bold-B5pc-H'; font-size:18px;glyph-orientation-vertical:0;writing-mode:tb;">日本</text>
	<line class="st1" x1="37.3" y1="725.7" x2="584.6" y2="725.7"/>
	<g>
		<rect x="52.4" y="624.5" class="st2" width="44.7" height="100.2"/>
		<rect x="52.4" y="543" class="st3" width="44.7" height="81.5"/>
		<rect x="63.7" y="563.2" class="st4" width="22.1" height="5.6"/>
	</g>
	<g>
		<rect x="119.9" y="568.9" class="st2" width="44.7" height="155.8"/>
		<rect x="119.9" y="551.3" class="st3" width="44.7" height="17.6"/>
		<rect x="131.1" y="549.2" class="st4" width="22.1" height="5.6"/>
	</g>
	<g>
		<rect x="187.3" y="590.6" class="st2" width="44.7" height="134.1"/>
		<rect x="187.3" y="580" class="st3" width="44.7" height="10.6"/>
		<rect x="198.5" y="571.1" class="st4" width="22.1" height="5.6"/>
	</g>
	<g>
		<rect x="254.7" y="639.5" class="st2" width="44.7" height="85.2"/>
		<rect x="254.7" y="592.3" class="st3" width="44.7" height="47.3"/>
		<rect x="265.9" y="599.2" class="st4" width="22.1" height="5.6"/>
	</g>
	<g>
		<rect x="322.1" y="653.5" class="st2" width="44.7" height="71.2"/>
		<rect x="322.1" y="600.2" class="st3" width="44.7" height="53.2"/>
		<rect x="333.4" y="614.2" class="st4" width="22.1" height="5.6"/>
	</g>
	<g>
		<rect x="389.5" y="654.5" class="st2" width="44.7" height="70.2"/>
		<rect x="389.5" y="612.5" class="st3" width="44.7" height="42"/>
		<rect x="400.8" y="618.1" class="st4" width="22.1" height="5.6"/>
	</g>
	<g>
		<rect x="457" y="648" class="st2" width="44.7" height="76.7"/>
		<rect x="457" y="610.8" class="st3" width="44.7" height="37.2"/>
		<rect x="468.2" y="614.2" class="st4" width="22.1" height="5.6"/>
	</g>
	<g>
		<rect x="524.4" y="719.1" class="st2" width="44.7" height="5.6"/>
		<rect x="524.4" y="706.4" class="st3" width="44.7" height="12.7"/>
		<rect x="535.6" y="707.6" class="st4" width="22.1" height="5.6"/>
	</g>
	<line class="st1" x1="40.9" y1="508.2" x2="40.9" y2="731.7"/>
	<line class="st1" x1="579.5" y1="508.2" x2="579.5" y2="731.7"/>
	<g>
		<line class="st1" x1="37.3" y1="694.6" x2="40.9" y2="694.6"/>
		<line class="st1" x1="37.3" y1="663.6" x2="40.9" y2="663.6"/>
		<line class="st1" x1="37.3" y1="632.5" x2="40.9" y2="632.5"/>
		<line class="st1" x1="37.3" y1="601.4" x2="40.9" y2="601.4"/>
		<line class="st1" x1="37.3" y1="570.4" x2="40.9" y2="570.4"/>
		<line class="st1" x1="37.3" y1="539.3" x2="40.9" y2="539.3"/>
		<line class="st1" x1="37.3" y1="508.2" x2="40.9" y2="508.2"/>
	</g>
	<g>
		<line class="st1" x1="579.5" y1="694.6" x2="583.1" y2="694.6"/>
		<line class="st1" x1="579.5" y1="663.6" x2="583.1" y2="663.6"/>
		<line class="st1" x1="579.5" y1="632.5" x2="583.1" y2="632.5"/>
		<line class="st1" x1="579.5" y1="601.4" x2="583.1" y2="601.4"/>
		<line class="st1" x1="579.5" y1="570.4" x2="583.1" y2="570.4"/>
		<line class="st1" x1="579.5" y1="539.3" x2="583.1" y2="539.3"/>
		<line class="st1" x1="579.5" y1="508.2" x2="583.1" y2="508.2"/>
	</g>
	<line class="st1" x1="108.2" y1="731.9" x2="108.2" y2="725.7"/>
	<line class="st1" x1="175.6" y1="731.9" x2="175.6" y2="725.7"/>
	<line class="st1" x1="242.9" y1="731.9" x2="242.9" y2="725.7"/>
	<line class="st1" x1="310.2" y1="731.9" x2="310.2" y2="725.7"/>
	<line class="st1" x1="377.5" y1="731.9" x2="377.5" y2="725.7"/>
	<line class="st1" x1="444.9" y1="731.9" x2="444.9" y2="725.7"/>
	<line class="st1" x1="512.2" y1="731.9" x2="512.2" y2="725.7"/>
	<g>
		<g>
			<g>
				<text transform="matrix(1 0 0 1 190.1616 510.6949)" style="font-family:'SourceHanSansTW-Regular-B5pc-H'; font-size:18px;">四月底</text>
			</g>
			<rect x="168.6" y="496.4" class="st2" width="15" height="15"/>
		</g>
		<g>
			<g>
				<text transform="matrix(1 0 0 1 298.2707 510.6949)" style="font-family:'SourceHanSansTW-Regular-B5pc-H'; font-size:18px;">五月底</text>
			</g>
			<rect x="276.7" y="496.4" class="st3" width="15" height="15"/>
		</g>
		<g>
			<g>
				<text transform="matrix(1 0 0 1 415.38 510.6949)" style="font-family:'SourceHanSansTW-Regular-B5pc-H'; font-size:18px;">最新</text>
			</g>
			<rect x="393.8" y="496.4" class="st4" width="15" height="15"/>
		</g>
	</g>
</g>
</svg>
