<?xml version="1.0" encoding="utf-8"?>
<!-- Generator: Adobe Illustrator 24.3.0, SVG Export Plug-In . SVG Version: 6.00 Build 0)  -->
<svg version="1.1" id="圖層_1" xmlns="http://www.w3.org/2000/svg" xmlns:xlink="http://www.w3.org/1999/xlink" x="0px" y="0px"
	 viewBox="0 0 892 376" style="enable-background:new 0 0 892 376;" xml:space="preserve">
<style type="text/css">
	.st0{fill:none;stroke:#0F5646;stroke-width:4;stroke-linecap:round;stroke-linejoin:round;stroke-miterlimit:10;}
	.st1{fill:none;stroke:#C1DCD7;stroke-width:4;stroke-linecap:round;stroke-linejoin:round;stroke-miterlimit:10;}
	.st2{fill:none;stroke:#A0A0A0;stroke-miterlimit:10;}
	.st3{fill:#0F5646;}
	.st4{fill:#C1DCD7;}
</style>
<g>
	<path d="M1.2,64.4h2.6V56H1.7v-0.9c1-0.2,1.8-0.4,2.4-0.8h1.1v10.2h2.4v1.2H1.2V64.4z"/>
	<path d="M9.8,64.8c0-0.7,0.5-1.1,1.1-1.1c0.6,0,1.1,0.5,1.1,1.1c0,0.7-0.5,1.1-1.1,1.1C10.3,65.9,9.8,65.4,9.8,64.8z"/>
	<path d="M13.8,64.8c3.4-3.4,5.4-5.5,5.4-7.3c0-1.3-0.7-2.2-2.2-2.2c-1,0-1.8,0.6-2.4,1.4l-0.8-0.8c1-1,2-1.7,3.5-1.7
		c2.1,0,3.4,1.3,3.4,3.3c0,2.1-2,4.3-4.7,7.1c0.6,0,1.3-0.1,1.9-0.1h3.3v1.3h-7.4V64.8z"/>
</g>
<g>
	<path d="M1.2,113.8h2.6v-8.4H1.7v-0.9c1-0.2,1.8-0.4,2.4-0.8h1.1v10.2h2.4v1.2H1.2V113.8z"/>
	<path d="M9.8,114.1c0-0.7,0.5-1.1,1.1-1.1c0.6,0,1.1,0.5,1.1,1.1c0,0.7-0.5,1.1-1.1,1.1C10.3,115.2,9.8,114.8,9.8,114.1z"/>
	<path d="M14.5,113.8h2.6v-8.4H15v-0.9c1-0.2,1.8-0.4,2.4-0.8h1.1v10.2h2.4v1.2h-6.4V113.8z"/>
</g>
<g>
	<path d="M1.2,163.2h2.6v-8.4H1.7v-0.9c1-0.2,1.8-0.4,2.4-0.8h1.1v10.2h2.4v1.2H1.2V163.2z"/>
	<path d="M9.8,163.5c0-0.7,0.5-1.1,1.1-1.1c0.6,0,1.1,0.5,1.1,1.1c0,0.7-0.5,1.1-1.1,1.1C10.3,164.6,9.8,164.2,9.8,163.5z"/>
	<path d="M13.9,158.7c0-3.8,1.4-5.9,3.7-5.9s3.6,2.1,3.6,5.9c0,3.8-1.4,6-3.6,6S13.9,162.5,13.9,158.7z M19.8,158.7
		c0-3.3-0.9-4.7-2.2-4.7c-1.3,0-2.2,1.4-2.2,4.7s0.9,4.8,2.2,4.8C18.9,163.5,19.8,162,19.8,158.7z"/>
</g>
<g>
	<path d="M0.6,208c0-3.8,1.4-5.9,3.7-5.9s3.6,2.1,3.6,5.9c0,3.8-1.4,6-3.6,6S0.6,211.9,0.6,208z M6.4,208c0-3.3-0.9-4.7-2.2-4.7
		c-1.3,0-2.2,1.4-2.2,4.7c0,3.3,0.9,4.8,2.2,4.8C5.5,212.8,6.4,211.4,6.4,208z"/>
	<path d="M9.8,212.9c0-0.7,0.5-1.1,1.1-1.1c0.6,0,1.1,0.5,1.1,1.1c0,0.7-0.5,1.1-1.1,1.1C10.3,214,9.8,213.5,9.8,212.9z"/>
	<path d="M14,212.8l0.8-0.9c0.4,0.6,1.2,0.9,1.9,0.9c1.6,0,3-1.2,3-4.9c-0.7,0.9-1.7,1.5-2.7,1.5c-2,0-3.3-1.2-3.3-3.5
		c0-2.2,1.5-3.6,3.4-3.6c2.3,0,3.9,1.8,3.9,5.5c0,4.6-2.1,6.3-4.3,6.3C15.5,214,14.7,213.5,14,212.8z M17.3,208.3
		c0.7,0,1.7-0.5,2.4-1.6c-0.2-2.2-1.1-3.4-2.5-3.4c-1.1,0-2,1-2,2.5C15.2,207.3,15.9,208.3,17.3,208.3z"/>
</g>
<g>
	<path d="M0.6,257.4c0-3.8,1.4-5.9,3.7-5.9s3.6,2.1,3.6,5.9c0,3.8-1.4,6-3.6,6S0.6,261.2,0.6,257.4z M6.4,257.4
		c0-3.3-0.9-4.7-2.2-4.7c-1.3,0-2.2,1.4-2.2,4.7c0,3.3,0.9,4.8,2.2,4.8C5.5,262.2,6.4,260.8,6.4,257.4z"/>
	<path d="M9.8,262.3c0-0.7,0.5-1.1,1.1-1.1c0.6,0,1.1,0.5,1.1,1.1c0,0.7-0.5,1.1-1.1,1.1C10.3,263.4,9.8,262.9,9.8,262.3z"/>
	<path d="M13.8,260.3c0-1.5,1.1-2.5,2.2-3.1v-0.1c-0.8-0.6-1.6-1.4-1.6-2.6c0-1.7,1.4-2.9,3.2-2.9c2,0,3.2,1.2,3.2,3
		c0,1.2-0.9,2.2-1.6,2.8v0.1c1,0.6,2,1.4,2,2.9c0,1.7-1.5,3-3.7,3C15.4,263.4,13.8,262.1,13.8,260.3z M19.9,260.3
		c0-1.5-1.4-2-3.1-2.7c-0.9,0.6-1.6,1.4-1.6,2.5c0,1.2,1,2.2,2.4,2.2C18.9,262.3,19.9,261.5,19.9,260.3z M19.6,254.6
		c0-1.1-0.7-2-2-2c-1.1,0-1.9,0.7-1.9,1.8c0,1.4,1.3,2,2.6,2.5C19.1,256.3,19.6,255.5,19.6,254.6z"/>
</g>
<g>
	<path d="M0.6,306.8c0-3.8,1.4-5.9,3.7-5.9s3.6,2.1,3.6,5.9c0,3.8-1.4,6-3.6,6S0.6,310.6,0.6,306.8z M6.4,306.8
		c0-3.3-0.9-4.7-2.2-4.7c-1.3,0-2.2,1.4-2.2,4.7c0,3.3,0.9,4.8,2.2,4.8C5.5,311.6,6.4,310.1,6.4,306.8z"/>
	<path d="M9.8,311.6c0-0.7,0.5-1.1,1.1-1.1c0.6,0,1.1,0.5,1.1,1.1c0,0.7-0.5,1.1-1.1,1.1C10.3,312.7,9.8,312.3,9.8,311.6z"/>
	<path d="M19.6,302.4h-5.7v-1.2h7.3v0.9c-2.7,3.5-3.3,6.1-3.4,10.5h-1.5C16.5,308.2,17.3,305.5,19.6,302.4z"/>
</g>
<g>
	<path d="M0.6,356.2c0-3.8,1.4-5.9,3.7-5.9s3.6,2.1,3.6,5.9c0,3.8-1.4,6-3.6,6S0.6,360,0.6,356.2z M6.4,356.2c0-3.3-0.9-4.7-2.2-4.7
		c-1.3,0-2.2,1.4-2.2,4.7c0,3.3,0.9,4.8,2.2,4.8C5.5,361,6.4,359.5,6.4,356.2z"/>
	<path d="M9.8,361c0-0.7,0.5-1.1,1.1-1.1c0.6,0,1.1,0.5,1.1,1.1c0,0.7-0.5,1.1-1.1,1.1C10.3,362.1,9.8,361.7,9.8,361z"/>
	<path d="M14,356.6c0-4.6,2.1-6.4,4.4-6.4c1.2,0,2.1,0.5,2.7,1.2l-0.8,0.9c-0.5-0.6-1.2-0.9-1.9-0.9c-1.6,0-3,1.2-3,4.9
		c0.7-0.9,1.7-1.4,2.7-1.4c2,0,3.2,1.2,3.2,3.5c0,2.2-1.5,3.7-3.4,3.7C15.6,362.1,14,360.3,14,356.6z M15.4,357.6
		c0.2,2.2,1.1,3.4,2.5,3.4c1.1,0,2-1,2-2.5c0-1.5-0.7-2.4-2.1-2.4C17,356,16.1,356.4,15.4,357.6z"/>
</g>
<g>
	<path d="M23.7,372.8c3.1-2.9,5.1-5,5.1-6.7c0-1.2-0.6-1.9-1.8-1.9c-0.9,0-1.6,0.6-2.2,1.2l-1.3-1.3c1.1-1.2,2.1-1.8,3.8-1.8
		c2.2,0,3.7,1.4,3.7,3.6c0,2-1.9,4.1-4,6.3c0.6-0.1,1.4-0.1,1.9-0.1h2.6v2h-7.9V372.8z"/>
	<path d="M33.1,368.4c0-3.9,1.6-5.9,4-5.9c2.4,0,4,2,4,5.9c0,3.9-1.6,6.1-4,6.1C34.7,374.4,33.1,372.3,33.1,368.4z M38.9,368.4
		c0-3.2-0.8-4.1-1.8-4.1s-1.8,0.9-1.8,4.1c0,3.2,0.8,4.2,1.8,4.2S38.9,371.6,38.9,368.4z"/>
	<path d="M43.1,372.3h2.5v-7.2h-2.1v-1.5c1.2-0.2,2-0.5,2.8-1H48v9.6h2.2v1.9h-7.1V372.3z"/>
	<path d="M51.9,368.4c0-3.9,1.6-5.9,4-5.9c2.4,0,4,2,4,5.9c0,3.9-1.6,6.1-4,6.1C53.5,374.4,51.9,372.3,51.9,368.4z M57.7,368.4
		c0-3.2-0.8-4.1-1.8-4.1s-1.8,0.9-1.8,4.1c0,3.2,0.8,4.2,1.8,4.2S57.7,371.6,57.7,368.4z"/>
</g>
<g>
	<path d="M89,372.8c3.1-2.9,5.1-5,5.1-6.7c0-1.2-0.6-1.9-1.8-1.9c-0.9,0-1.6,0.6-2.2,1.2l-1.3-1.3c1.1-1.2,2.1-1.8,3.8-1.8
		c2.2,0,3.7,1.4,3.7,3.6c0,2-1.9,4.1-4,6.3c0.6-0.1,1.4-0.1,1.9-0.1h2.6v2H89V372.8z"/>
	<path d="M98.4,368.4c0-3.9,1.6-5.9,4-5.9c2.4,0,4,2,4,5.9c0,3.9-1.6,6.1-4,6.1C100,374.4,98.4,372.3,98.4,368.4z M104.2,368.4
		c0-3.2-0.8-4.1-1.8-4.1s-1.8,0.9-1.8,4.1c0,3.2,0.8,4.2,1.8,4.2S104.2,371.6,104.2,368.4z"/>
	<path d="M108.4,372.3h2.5v-7.2h-2.1v-1.5c1.2-0.2,2-0.5,2.8-1h1.7v9.6h2.2v1.9h-7.1V372.3z"/>
	<path d="M117.9,372.3h2.5v-7.2h-2.1v-1.5c1.2-0.2,2-0.5,2.8-1h1.7v9.6h2.2v1.9h-7.1V372.3z"/>
</g>
<g>
	<path d="M161.8,372.8c3.1-2.9,5.1-5,5.1-6.7c0-1.2-0.6-1.9-1.8-1.9c-0.9,0-1.6,0.6-2.2,1.2l-1.3-1.3c1.1-1.2,2.1-1.8,3.8-1.8
		c2.2,0,3.7,1.4,3.7,3.6c0,2-1.9,4.1-4,6.3c0.6-0.1,1.4-0.1,1.9-0.1h2.6v2h-7.9V372.8z"/>
	<path d="M171.2,368.4c0-3.9,1.6-5.9,4-5.9c2.4,0,4,2,4,5.9c0,3.9-1.6,6.1-4,6.1C172.8,374.4,171.2,372.3,171.2,368.4z M177,368.4
		c0-3.2-0.8-4.1-1.8-4.1s-1.8,0.9-1.8,4.1c0,3.2,0.8,4.2,1.8,4.2S177,371.6,177,368.4z"/>
	<path d="M181.2,372.3h2.5v-7.2h-2.1v-1.5c1.2-0.2,2-0.5,2.8-1h1.7v9.6h2.2v1.9h-7.1V372.3z"/>
	<path d="M190,372.8c3.1-2.9,5.1-5,5.1-6.7c0-1.2-0.6-1.9-1.8-1.9c-0.9,0-1.6,0.6-2.2,1.2l-1.3-1.3c1.1-1.2,2.1-1.8,3.8-1.8
		c2.2,0,3.7,1.4,3.7,3.6c0,2-1.9,4.1-4,6.3c0.6-0.1,1.4-0.1,1.9-0.1h2.6v2H190V372.8z"/>
</g>
<g>
	<path d="M234.6,372.8c3.1-2.9,5.1-5,5.1-6.7c0-1.2-0.6-1.9-1.8-1.9c-0.9,0-1.6,0.6-2.2,1.2l-1.3-1.3c1.1-1.2,2.1-1.8,3.8-1.8
		c2.2,0,3.7,1.4,3.7,3.6c0,2-1.9,4.1-4,6.3c0.6-0.1,1.4-0.1,1.9-0.1h2.6v2h-7.9V372.8z"/>
	<path d="M244,368.4c0-3.9,1.6-5.9,4-5.9c2.4,0,4,2,4,5.9c0,3.9-1.6,6.1-4,6.1C245.6,374.4,244,372.3,244,368.4z M249.8,368.4
		c0-3.2-0.8-4.1-1.8-4.1s-1.8,0.9-1.8,4.1c0,3.2,0.8,4.2,1.8,4.2S249.8,371.6,249.8,368.4z"/>
	<path d="M254.1,372.3h2.5v-7.2h-2.1v-1.5c1.2-0.2,2-0.5,2.8-1h1.7v9.6h2.2v1.9h-7.1V372.3z"/>
	<path d="M262.6,372.8l1.1-1.5c0.7,0.7,1.6,1.2,2.6,1.2c1.2,0,2-0.6,2-1.6c0-1.1-0.7-1.8-3.3-1.8v-1.7c2.2,0,2.9-0.7,2.9-1.7
		c0-0.9-0.6-1.4-1.6-1.4c-0.8,0-1.5,0.4-2.2,1.1l-1.2-1.4c1-0.9,2.2-1.5,3.6-1.5c2.3,0,3.8,1.1,3.8,3.1c0,1.2-0.7,2.1-2,2.6v0.1
		c1.3,0.4,2.4,1.3,2.4,2.8c0,2.1-1.9,3.3-4.2,3.3C264.7,374.4,263.4,373.7,262.6,372.8z"/>
</g>
<g>
	<path d="M307.4,372.8c3.1-2.9,5.1-5,5.1-6.7c0-1.2-0.6-1.9-1.8-1.9c-0.9,0-1.6,0.6-2.2,1.2l-1.3-1.3c1.1-1.2,2.1-1.8,3.8-1.8
		c2.2,0,3.7,1.4,3.7,3.6c0,2-1.9,4.1-4,6.3c0.6-0.1,1.4-0.1,1.9-0.1h2.6v2h-7.9V372.8z"/>
	<path d="M316.8,368.4c0-3.9,1.6-5.9,4-5.9c2.4,0,4,2,4,5.9c0,3.9-1.6,6.1-4,6.1C318.4,374.4,316.8,372.3,316.8,368.4z M322.6,368.4
		c0-3.2-0.8-4.1-1.8-4.1s-1.8,0.9-1.8,4.1c0,3.2,0.8,4.2,1.8,4.2S322.6,371.6,322.6,368.4z"/>
	<path d="M326.9,372.3h2.5v-7.2h-2.1v-1.5c1.2-0.2,2-0.5,2.8-1h1.7v9.6h2.2v1.9h-7.1V372.3z"/>
	<path d="M340.4,371.3h-5.1v-1.6l4.4-7.1h2.8v6.9h1.4v1.8h-1.4v2.9h-2.2V371.3z M340.4,369.5v-2.3c0-0.7,0-1.8,0.1-2.5h-0.1
		c-0.3,0.6-0.6,1.2-0.9,1.9l-1.8,2.9H340.4z"/>
</g>
<g>
	<path d="M380.2,372.8c3.1-2.9,5.1-5,5.1-6.7c0-1.2-0.6-1.9-1.8-1.9c-0.9,0-1.6,0.6-2.2,1.2l-1.3-1.3c1.1-1.2,2.1-1.8,3.8-1.8
		c2.2,0,3.7,1.4,3.7,3.6c0,2-1.9,4.1-4,6.3c0.6-0.1,1.4-0.1,1.9-0.1h2.6v2h-7.9V372.8z"/>
	<path d="M389.7,368.4c0-3.9,1.6-5.9,4-5.9c2.4,0,4,2,4,5.9c0,3.9-1.6,6.1-4,6.1C391.2,374.4,389.7,372.3,389.7,368.4z M395.5,368.4
		c0-3.2-0.8-4.1-1.8-4.1s-1.8,0.9-1.8,4.1c0,3.2,0.8,4.2,1.8,4.2S395.5,371.6,395.5,368.4z"/>
	<path d="M399.7,372.3h2.5v-7.2h-2.1v-1.5c1.2-0.2,2-0.5,2.8-1h1.7v9.6h2.2v1.9h-7.1V372.3z"/>
	<path d="M408.2,372.8l1.1-1.5c0.7,0.7,1.5,1.2,2.6,1.2c1.2,0,2.1-0.7,2.1-2c0-1.3-0.8-2-2-2c-0.7,0-1.1,0.2-1.8,0.6l-1.1-0.7
		l0.3-5.8h6.3v2h-4.3l-0.2,2.5c0.5-0.2,0.9-0.3,1.4-0.3c2,0,3.6,1.1,3.6,3.6c0,2.5-2,4-4.1,4C410.4,374.4,409.1,373.7,408.2,372.8z"
		/>
</g>
<g>
	<path d="M453,372.8c3.1-2.9,5.1-5,5.1-6.7c0-1.2-0.6-1.9-1.8-1.9c-0.9,0-1.6,0.6-2.2,1.2l-1.3-1.3c1.1-1.2,2.1-1.8,3.8-1.8
		c2.2,0,3.7,1.4,3.7,3.6c0,2-1.9,4.1-4,6.3c0.6-0.1,1.4-0.1,1.9-0.1h2.6v2H453V372.8z"/>
	<path d="M462.5,368.4c0-3.9,1.6-5.9,4-5.9c2.4,0,4,2,4,5.9c0,3.9-1.6,6.1-4,6.1C464.1,374.4,462.5,372.3,462.5,368.4z M468.3,368.4
		c0-3.2-0.8-4.1-1.8-4.1s-1.8,0.9-1.8,4.1c0,3.2,0.8,4.2,1.8,4.2S468.3,371.6,468.3,368.4z"/>
	<path d="M472.5,372.3h2.5v-7.2h-2.1v-1.5c1.2-0.2,2-0.5,2.8-1h1.7v9.6h2.2v1.9h-7.1V372.3z"/>
	<path d="M481.4,368.7c0-4.4,2.2-6.3,4.6-6.3c1.4,0,2.5,0.6,3.2,1.3l-1.2,1.4c-0.4-0.5-1.1-0.8-1.8-0.8c-1.4,0-2.5,1-2.6,4
		c0.7-0.8,1.7-1.3,2.4-1.3c2,0,3.4,1.1,3.4,3.6c0,2.4-1.7,3.8-3.7,3.8C483.4,374.4,481.4,372.7,481.4,368.7z M483.6,369.9
		c0.2,2,1,2.7,2,2.7c0.9,0,1.6-0.7,1.6-2.1c0-1.3-0.7-1.9-1.7-1.9C484.9,368.7,484.2,369,483.6,369.9z"/>
</g>
<g>
	<path d="M525.9,372.8c3.1-2.9,5.1-5,5.1-6.7c0-1.2-0.6-1.9-1.8-1.9c-0.9,0-1.6,0.6-2.2,1.2l-1.3-1.3c1.1-1.2,2.1-1.8,3.8-1.8
		c2.2,0,3.7,1.4,3.7,3.6c0,2-1.9,4.1-4,6.3c0.6-0.1,1.4-0.1,1.9-0.1h2.6v2h-7.9V372.8z"/>
	<path d="M535.3,368.4c0-3.9,1.6-5.9,4-5.9c2.4,0,4,2,4,5.9c0,3.9-1.6,6.1-4,6.1C536.9,374.4,535.3,372.3,535.3,368.4z M541.1,368.4
		c0-3.2-0.8-4.1-1.8-4.1s-1.8,0.9-1.8,4.1c0,3.2,0.8,4.2,1.8,4.2S541.1,371.6,541.1,368.4z"/>
	<path d="M545.3,372.3h2.5v-7.2h-2.1v-1.5c1.2-0.2,2-0.5,2.8-1h1.7v9.6h2.2v1.9h-7.1V372.3z"/>
	<path d="M559.6,364.6h-5.3v-2h7.9v1.4c-2.7,3.3-3.1,5.6-3.3,10.1h-2.4C556.6,370.2,557.4,367.7,559.6,364.6z"/>
</g>
<g>
	<path d="M598.7,372.8c3.1-2.9,5.1-5,5.1-6.7c0-1.2-0.6-1.9-1.8-1.9c-0.9,0-1.6,0.6-2.2,1.2l-1.3-1.3c1.1-1.2,2.1-1.8,3.8-1.8
		c2.2,0,3.7,1.4,3.7,3.6c0,2-1.9,4.1-4,6.3c0.6-0.1,1.4-0.1,1.9-0.1h2.6v2h-7.9V372.8z"/>
	<path d="M608.1,368.4c0-3.9,1.6-5.9,4-5.9c2.4,0,4,2,4,5.9c0,3.9-1.6,6.1-4,6.1C609.7,374.4,608.1,372.3,608.1,368.4z M613.9,368.4
		c0-3.2-0.8-4.1-1.8-4.1s-1.8,0.9-1.8,4.1c0,3.2,0.8,4.2,1.8,4.2S613.9,371.6,613.9,368.4z"/>
	<path d="M618.1,372.3h2.5v-7.2h-2.1v-1.5c1.2-0.2,2-0.5,2.8-1h1.7v9.6h2.2v1.9h-7.1V372.3z"/>
	<path d="M627,371.2c0-1.4,0.9-2.3,2-2.9v-0.1c-0.9-0.7-1.6-1.5-1.6-2.7c0-1.9,1.5-3.1,3.6-3.1c2.1,0,3.4,1.2,3.4,3.1
		c0,1.1-0.8,2.1-1.5,2.6v0.1c1.1,0.6,2,1.5,2,3c0,1.8-1.6,3.2-4,3.2C628.7,374.4,627,373.1,627,371.2z M632.8,371.2
		c0-1.2-1.1-1.6-2.6-2.2c-0.6,0.5-1.1,1.2-1.1,2c0,1.1,0.9,1.8,2,1.8C632,372.7,632.8,372.2,632.8,371.2z M632.6,365.7
		c0-1-0.6-1.6-1.6-1.6c-0.8,0-1.4,0.5-1.4,1.5c0,1.1,0.9,1.6,2.2,2C632.3,367,632.6,366.4,632.6,365.7z"/>
</g>
<g>
	<path d="M671.5,372.8c3.1-2.9,5.1-5,5.1-6.7c0-1.2-0.6-1.9-1.8-1.9c-0.9,0-1.6,0.6-2.2,1.2l-1.3-1.3c1.1-1.2,2.1-1.8,3.8-1.8
		c2.2,0,3.7,1.4,3.7,3.6c0,2-1.9,4.1-4,6.3c0.6-0.1,1.4-0.1,1.9-0.1h2.6v2h-7.9V372.8z"/>
	<path d="M680.9,368.4c0-3.9,1.6-5.9,4-5.9c2.4,0,4,2,4,5.9c0,3.9-1.6,6.1-4,6.1C682.5,374.4,680.9,372.3,680.9,368.4z M686.7,368.4
		c0-3.2-0.8-4.1-1.8-4.1s-1.8,0.9-1.8,4.1c0,3.2,0.8,4.2,1.8,4.2S686.7,371.6,686.7,368.4z"/>
	<path d="M691,372.3h2.5v-7.2h-2.1v-1.5c1.2-0.2,2-0.5,2.8-1h1.7v9.6h2.2v1.9H691V372.3z"/>
	<path d="M699.9,373.1l1.2-1.4c0.4,0.5,1.1,0.8,1.8,0.8c1.4,0,2.5-1,2.6-4c-0.7,0.8-1.7,1.3-2.4,1.3c-2,0-3.4-1.2-3.4-3.6
		c0-2.4,1.7-3.8,3.7-3.8c2.2,0,4.3,1.7,4.3,5.7c0,4.4-2.2,6.3-4.6,6.3C701.7,374.4,700.6,373.8,699.9,373.1z M703.6,368.1
		c0.6,0,1.4-0.4,1.9-1.3c-0.2-1.9-1-2.7-2-2.7c-0.9,0-1.6,0.7-1.6,2C701.9,367.5,702.5,368.1,703.6,368.1z"/>
</g>
<g>
	<path d="M744.3,372.8c3.1-2.9,5.1-5,5.1-6.7c0-1.2-0.6-1.9-1.8-1.9c-0.9,0-1.6,0.6-2.2,1.2l-1.3-1.3c1.1-1.2,2.1-1.8,3.8-1.8
		c2.2,0,3.7,1.4,3.7,3.6c0,2-1.9,4.1-4,6.3c0.6-0.1,1.4-0.1,1.9-0.1h2.6v2h-7.9V372.8z"/>
	<path d="M753.7,368.4c0-3.9,1.6-5.9,4-5.9c2.4,0,4,2,4,5.9c0,3.9-1.6,6.1-4,6.1C755.3,374.4,753.7,372.3,753.7,368.4z M759.5,368.4
		c0-3.2-0.8-4.1-1.8-4.1s-1.8,0.9-1.8,4.1c0,3.2,0.8,4.2,1.8,4.2S759.5,371.6,759.5,368.4z"/>
	<path d="M763.2,372.8c3.1-2.9,5.1-5,5.1-6.7c0-1.2-0.6-1.9-1.8-1.9c-0.9,0-1.6,0.6-2.2,1.2l-1.3-1.3c1.1-1.2,2.1-1.8,3.8-1.8
		c2.2,0,3.7,1.4,3.7,3.6c0,2-1.9,4.1-4,6.3c0.6-0.1,1.4-0.1,1.9-0.1h2.6v2h-7.9V372.8z"/>
	<path d="M772.6,368.4c0-3.9,1.6-5.9,4-5.9c2.4,0,4,2,4,5.9c0,3.9-1.6,6.1-4,6.1C774.2,374.4,772.6,372.3,772.6,368.4z M778.4,368.4
		c0-3.2-0.8-4.1-1.8-4.1s-1.8,0.9-1.8,4.1c0,3.2,0.8,4.2,1.8,4.2S778.4,371.6,778.4,368.4z"/>
</g>
<g>
	<path d="M817.1,372.8c3.1-2.9,5.1-5,5.1-6.7c0-1.2-0.6-1.9-1.8-1.9c-0.9,0-1.6,0.6-2.2,1.2l-1.3-1.3c1.1-1.2,2.1-1.8,3.8-1.8
		c2.2,0,3.7,1.4,3.7,3.6c0,2-1.9,4.1-4,6.3c0.6-0.1,1.4-0.1,1.9-0.1h2.6v2h-7.9V372.8z"/>
	<path d="M826.6,368.4c0-3.9,1.6-5.9,4-5.9c2.4,0,4,2,4,5.9c0,3.9-1.6,6.1-4,6.1C828.1,374.4,826.6,372.3,826.6,368.4z M832.4,368.4
		c0-3.2-0.8-4.1-1.8-4.1s-1.8,0.9-1.8,4.1c0,3.2,0.8,4.2,1.8,4.2S832.4,371.6,832.4,368.4z"/>
	<path d="M836,372.8c3.1-2.9,5.1-5,5.1-6.7c0-1.2-0.6-1.9-1.8-1.9c-0.9,0-1.6,0.6-2.2,1.2l-1.3-1.3c1.1-1.2,2.1-1.8,3.8-1.8
		c2.2,0,3.7,1.4,3.7,3.6c0,2-1.9,4.1-4,6.3c0.6-0.1,1.4-0.1,1.9-0.1h2.6v2H836V372.8z"/>
	<path d="M846,372.3h2.5v-7.2h-2.1v-1.5c1.2-0.2,2-0.5,2.8-1h1.7v9.6h2.2v1.9H846V372.3z"/>
</g>
<g>
	<path d="M881.3,55.5h-5.7v-1.2h7.3v0.9c-2.7,3.5-3.3,6.1-3.4,10.5H878C878.1,61.4,879,58.6,881.3,55.5z"/>
	<path d="M884.5,59.9c0-3.8,1.4-5.9,3.7-5.9s3.6,2.1,3.6,5.9c0,3.8-1.4,6-3.6,6S884.5,63.7,884.5,59.9z M890.3,59.9
		c0-3.3-0.9-4.7-2.2-4.7c-1.3,0-2.2,1.4-2.2,4.7c0,3.3,0.9,4.8,2.2,4.8C889.4,64.7,890.3,63.3,890.3,59.9z"/>
</g>
<g>
	<path d="M875.7,109.8c0-4.6,2.1-6.4,4.4-6.4c1.2,0,2.1,0.5,2.7,1.2l-0.8,0.9c-0.5-0.6-1.2-0.9-1.9-0.9c-1.6,0-3,1.2-3,4.9
		c0.7-0.9,1.7-1.4,2.7-1.4c2,0,3.2,1.2,3.2,3.5c0,2.2-1.5,3.7-3.4,3.7C877.3,115.3,875.7,113.5,875.7,109.8z M877.1,110.7
		c0.2,2.2,1.1,3.4,2.5,3.4c1.1,0,2-1,2-2.5c0-1.5-0.7-2.4-2.1-2.4C878.7,109.2,877.8,109.6,877.1,110.7z"/>
	<path d="M884.1,113.7l0.7-1c0.7,0.7,1.5,1.3,2.9,1.3c1.4,0,2.5-1,2.5-2.6c0-1.6-1-2.5-2.4-2.5c-0.8,0-1.3,0.3-2,0.7l-0.8-0.5
		l0.4-5.5h5.7v1.2h-4.4l-0.3,3.4c0.5-0.3,1-0.5,1.7-0.5c2,0,3.5,1.1,3.5,3.6s-1.9,3.9-3.8,3.9C886,115.3,884.9,114.5,884.1,113.7z"
		/>
</g>
<g>
	<path d="M875.7,159.2c0-4.6,2.1-6.4,4.4-6.4c1.2,0,2.1,0.5,2.7,1.2l-0.8,0.9c-0.5-0.6-1.2-0.9-1.9-0.9c-1.6,0-3,1.2-3,4.9
		c0.7-0.9,1.7-1.4,2.7-1.4c2,0,3.2,1.2,3.2,3.5c0,2.2-1.5,3.7-3.4,3.7C877.3,164.7,875.7,162.9,875.7,159.2z M877.1,160.1
		c0.2,2.2,1.1,3.4,2.5,3.4c1.1,0,2-1,2-2.5c0-1.5-0.7-2.4-2.1-2.4C878.7,158.6,877.8,159,877.1,160.1z"/>
	<path d="M884.5,158.7c0-3.8,1.4-5.9,3.7-5.9s3.6,2.1,3.6,5.9c0,3.8-1.4,6-3.6,6S884.5,162.6,884.5,158.7z M890.3,158.7
		c0-3.3-0.9-4.7-2.2-4.7c-1.3,0-2.2,1.4-2.2,4.7c0,3.3,0.9,4.8,2.2,4.8C889.4,163.5,890.3,162.1,890.3,158.7z"/>
</g>
<g>
	<path d="M875.2,212.6l0.7-1c0.7,0.7,1.5,1.3,2.9,1.3c1.4,0,2.5-1,2.5-2.6c0-1.6-1-2.5-2.4-2.5c-0.8,0-1.3,0.3-2,0.7l-0.8-0.5
		l0.4-5.5h5.7v1.2h-4.4l-0.3,3.4c0.5-0.3,1-0.5,1.7-0.5c2,0,3.5,1.1,3.5,3.6s-1.9,3.9-3.8,3.9C877.1,214.1,876,213.3,875.2,212.6z"
		/>
	<path d="M884.1,212.6l0.7-1c0.7,0.7,1.5,1.3,2.9,1.3c1.4,0,2.5-1,2.5-2.6c0-1.6-1-2.5-2.4-2.5c-0.8,0-1.3,0.3-2,0.7L885,208
		l0.4-5.5h5.7v1.2h-4.4l-0.3,3.4c0.5-0.3,1-0.5,1.7-0.5c2,0,3.5,1.1,3.5,3.6s-1.9,3.9-3.8,3.9C886,214.1,884.9,213.3,884.1,212.6z"
		/>
</g>
<g>
	<path d="M875.2,262l0.7-1c0.7,0.7,1.5,1.3,2.9,1.3c1.4,0,2.5-1,2.5-2.6c0-1.6-1-2.5-2.4-2.5c-0.8,0-1.3,0.3-2,0.7l-0.8-0.5l0.4-5.5
		h5.7v1.2h-4.4l-0.3,3.4c0.5-0.3,1-0.5,1.7-0.5c2,0,3.5,1.1,3.5,3.6s-1.9,3.9-3.8,3.9C877.1,263.5,876,262.8,875.2,262z"/>
	<path d="M884.5,257.6c0-3.8,1.4-5.9,3.7-5.9s3.6,2.1,3.6,5.9c0,3.8-1.4,6-3.6,6S884.5,261.4,884.5,257.6z M890.3,257.6
		c0-3.3-0.9-4.7-2.2-4.7c-1.3,0-2.2,1.4-2.2,4.7c0,3.3,0.9,4.8,2.2,4.8C889.4,262.4,890.3,260.9,890.3,257.6z"/>
</g>
<g>
	<path d="M880.2,309.6h-5.1v-1l4.9-7.3h1.6v7.1h1.6v1.2h-1.6v3.2h-1.4V309.6z M880.2,308.4v-3.3c0-0.6,0-1.6,0.1-2.2h-0.1
		c-0.3,0.5-0.6,1-0.9,1.6l-2.7,3.9H880.2z"/>
	<path d="M884.1,311.4l0.7-1c0.7,0.7,1.5,1.3,2.9,1.3c1.4,0,2.5-1,2.5-2.6c0-1.6-1-2.5-2.4-2.5c-0.8,0-1.3,0.3-2,0.7l-0.8-0.5
		l0.4-5.5h5.7v1.2h-4.4l-0.3,3.4c0.5-0.3,1-0.5,1.7-0.5c2,0,3.5,1.1,3.5,3.6s-1.9,3.9-3.8,3.9C886,312.9,884.9,312.2,884.1,311.4z"
		/>
</g>
<g>
	<path d="M880.2,359h-5.1v-1l4.9-7.3h1.6v7.1h1.6v1.2h-1.6v3.2h-1.4V359z M880.2,357.8v-3.3c0-0.6,0-1.6,0.1-2.2h-0.1
		c-0.3,0.5-0.6,1-0.9,1.6l-2.7,3.9H880.2z"/>
	<path d="M884.5,356.4c0-3.8,1.4-5.9,3.7-5.9s3.6,2.1,3.6,5.9c0,3.8-1.4,6-3.6,6S884.5,360.2,884.5,356.4z M890.3,356.4
		c0-3.3-0.9-4.7-2.2-4.7c-1.3,0-2.2,1.4-2.2,4.7c0,3.3,0.9,4.8,2.2,4.8C889.4,361.2,890.3,359.7,890.3,356.4z"/>
</g>
<polyline class="st0" points="36.2,142.8 39.5,163.5 39.5,147.5 43.3,160.2 49.4,135.8 52.7,132.5 55.1,117.4 57.6,138.1 
	60.2,129.4 61.2,145.6 64.5,135.8 65.6,150.4 69.2,134.8 70.8,148.5 72.5,134.8 74.1,152.5 76.5,143.5 79.8,163.5 81.2,153.4 
	82.6,165.2 85.6,149.9 89.6,173.8 92.2,188 95.3,169.6 99.8,190.4 103.1,169.9 105.6,177.2 109.2,159.8 112.9,167.8 116,165.2 
	120,172.5 123.1,179.1 127.1,182.8 131.1,195.3 136,205.9 137.9,214.1 141.9,207.8 144.5,216.2 145.4,224.7 148.9,216.9 
	153.2,241.2 154.8,248.9 154.8,233.9 159.5,261.9 159.5,249.6 164.2,264.5 164.2,252.2 168.5,237.4 169.9,259.1 172.5,268.7 
	174.8,252.5 176.9,263.5 182.6,243.3 187.3,236.2 191.8,243.5 195.3,223.3 204.5,234.4 211.3,256 219.1,239.1 222.4,249.4 
	231.1,240 231.1,231.3 235.1,239.3 238.1,226.4 241.6,223.5 246.6,228.2 250.8,213.6 254.4,208.7 257.6,211.5 262.6,207.1 
	263.8,211.3 267.1,203.1 271.5,213.2 276.2,204.5 279.8,201.6 279.8,197.9 282.6,190.8 286.8,195.8 292.9,185.9 296.9,194.1 
	303.5,199.1 306.8,202.4 311.3,196.9 313.4,205.2 318.6,197.4 324,203.1 328.2,197.4 336,206.1 342.1,193.1 352.5,211.1 
	357.9,207.1 363.8,213.4 371.1,212.9 378.4,203.8 382.4,195.3 389.6,205.4 395.8,194.4 401.2,199.1 404.2,212.2 407.1,206.4 
	410.4,212.5 413.6,202.6 416.9,210.4 421.4,214.8 425.6,206.8 428.2,207.1 431.1,198.8 435.3,201.6 440.2,193.1 445.3,198.1 
	447.1,203.8 449.4,209.2 452.5,200.9 456,214.6 463.1,203.8 469.6,209.6 473.4,217.9 477.6,232 480.2,241.4 484.5,227.3 488,233.2 
	491.5,243.5 494.6,220.9 496.2,227.3 498.8,220.9 509.4,243.5 513.6,233.2 518.8,233.9 520.5,223.1 524.5,234.4 528.9,225.2 
	533.6,214.1 535.1,175.1 538.8,159.5 546.6,168.7 548,175.8 550.1,168.9 555.1,162.4 560.5,168.2 562.1,180.2 563.5,188 567.8,184 
	570.6,190.8 573.6,201.4 576.9,184.5 581.6,168.2 586.1,181.4 588.2,173.8 591.5,182.1 594.1,199.3 598.1,165.9 600.9,172.2 
	603.5,162.6 609.4,178.1 610.8,157.2 617.2,165.2 626.8,151.1 633.4,159.1 636.9,175.5 641.2,160.5 644,166.6 647.5,184 
	655.8,198.8 659.3,183.1 666.1,191.8 667.3,200.5 669.6,190.1 671.8,207.3 673.9,195.1 676.5,208.7 680.9,188 685.6,221.2 
	688.9,200 691.1,208.7 694.4,193.1 698.1,210.1 700.5,205.9 704.9,229.6 708.9,210.4 714.4,204.7 716,212.7 720.2,204 722.8,218.4 
	730.4,208.5 735.5,226.1 740.5,209.2 742.8,218.6 742.8,208.7 746.6,216.5 751.5,199.8 755.1,205.4 758.1,199.3 761.9,207.1 
	766.6,219.5 773.2,224.7 776.9,280.9 783.8,260.2 788.5,309.4 792.5,266.4 795.5,307.8 798.6,294.4 800.5,314.8 804.9,297.2 
	806.1,312.9 810.1,307.1 810.1,317.9 814.1,304.7 815.3,317.9 817.4,309.9 820.2,317.9 822.1,308.7 824,317.9 824,295.3 
	827.3,283.5 831.5,291.8 837.4,265.4 840.7,288.9 847.8,236 851.5,253.6 852.9,247.5 857.2,257.2 861.6,229.6 "/>
<polyline class="st1" points="37.6,195.1 45.4,203.1 52.2,171.3 72.5,195.8 78.1,197.9 83.8,195.5 88,203.1 96.2,188 101.6,185.6 
	106.6,191.5 116,165.2 124.5,175.3 132.5,182.6 137.3,211.7 143.5,202.6 148.9,229.9 154.8,233.9 161.9,222.1 166.9,242.8 
	176.5,237.9 184.9,216.7 194.6,227.1 204.5,208.7 211.5,231.5 216,262.6 222.6,262.6 229.6,267.1 234.1,249.2 240.5,253.4 
	247.1,276.9 252.2,253.9 258.1,225.9 264.7,217.6 269.9,239.5 275.5,247.8 283.1,250.1 288.2,246.1 294.8,221.1 307.3,212.9 
	313.9,212 325.4,194.1 331.1,232.5 343.7,195.8 347.3,196.9 349.6,193.2 361.6,208.5 367.5,206.8 374.8,196.5 383.5,201.6 
	391.1,196 397.9,201.2 405.2,217.6 416.7,235.8 422.1,237.2 428,230.8 434.6,232.7 440.9,240.2 447.5,258.8 454.6,260 458.4,268.5 
	468.7,268.5 472.5,271.8 476.7,281.9 489.4,244.2 495.8,248.7 501.6,244.2 507.8,234.8 512.8,235.3 519.5,261.6 526.1,245.6 
	533.2,236.2 538.8,223.5 550.8,200.7 556.2,181.9 568.2,201.2 577.9,194.8 582.1,197.4 586.4,194.8 598.4,160.9 610.6,178.4 
	615.5,167.3 624.9,162.8 628.5,153.1 635.4,168.3 640.9,172.2 644.9,170.9 652.5,163.5 657.9,175.8 664.9,156.9 677.4,173.8 
	683.8,172 687.5,209.1 695.1,203.8 701.2,216 706.4,206.8 724.5,245.4 732,248.5 737.9,273.4 752.2,275.1 761.4,280.2 767.5,246.8 
	780.2,261.4 786.6,339.3 792.2,321.9 797.6,236.2 810.1,201.6 817.6,199.8 823.3,171.1 828.2,179.1 834.4,155.3 840.9,168.5 
	852.2,112.7 858.6,151.8 "/>
<line class="st2" x1="36.2" y1="356.9" x2="861.6" y2="356.9"/>
<g>
	<path d="M280.7,10v2.1h6.4v2.1h-3.2l2,0.7c-0.7,1.1-1.5,2.3-2.1,3.2h4.3v2.2h-17.3v-2.2h3.9c-0.3-0.9-1-2.2-1.7-3.2l1.6-0.7h-2.9
		v-2.1h6.4V10h-4.1v-1c-0.8,0.4-1.7,0.8-2.6,1.1c-0.3-0.7-1-1.6-1.6-2.2c3.8-1.1,7.4-3.1,9.3-6.1l2.3,1c-0.2,0.3-0.4,0.5-0.6,0.8
		c2,1.8,5.2,3.4,8.2,4.3c-0.5,0.5-1.3,1.5-1.6,2.1c-0.9-0.3-1.8-0.7-2.7-1.2V10H280.7z M275.1,14.3c0.7,1,1.5,2.3,1.7,3.2l-1.6,0.7
		h2.9v-3.9H275.1z M282.9,7.9c-1.3-0.8-2.4-1.7-3.5-2.6c-1,1-2.1,1.8-3.2,2.6H282.9z M280.7,14.3v3.9h2.5l-1.3-0.6
		c0.6-0.9,1.4-2.3,1.8-3.3H280.7z"/>
	<path d="M290.3,2.8h9.9v2h-9.9V2.8z M299.8,18.5c0,0.9-0.1,1.4-0.7,1.7c-0.5,0.3-1.2,0.3-2.2,0.3c0-0.5-0.3-1.3-0.5-1.8
		c0.5,0,1.1,0,1.2,0c0.2,0,0.2-0.1,0.2-0.2v-6.1h-5.5v8.4h-1.8V10.6h9.2V18.5z M299.3,9.9h-8V5.6h8V9.9z M293.7,15.2
		c-0.1-0.6-0.5-1.5-0.9-2.1l1.2-0.4c0.4,0.6,0.8,1.5,1,2.1L293.7,15.2z M296,16.7v3.4h-1.7v-3.4h-1.4v-1.4h2.2
		c0.4-0.8,0.8-1.9,1.1-2.7l1.4,0.6c-0.4,0.7-0.7,1.5-1.1,2.1h0.9v1.4H296z M297.1,7.1h-3.9v1.2h3.9V7.1z M307.1,20.7
		c-0.1-0.4-0.1-1-0.3-1.6c-2.2,0.4-4.3,0.8-6.1,1.1l-0.5-2.2c0.8-0.1,1.9-0.2,3-0.4v-3.7h-2.7V5.9h2.7V2.4h2.1v3.5h2.7v8.2h-2.7v3.3
		l1.1-0.2c-0.2-0.7-0.4-1.4-0.6-2l1.6-0.3c0.6,1.7,1.2,4.1,1.4,5.4L307.1,20.7z M302.2,12h1.2V7.9h-1.2V12z M306.2,7.9h-1.2V12h1.2
		V7.9z"/>
	<path d="M328.2,11.2c-0.6,2.5-1.8,4.5-3.3,6c1.1,0.6,2.5,1.1,3.9,1.5c-0.5,0.5-1.2,1.4-1.5,2.1c-1.7-0.5-3.1-1.1-4.3-2
		c-1.3,0.8-2.7,1.4-4.4,1.9c-0.2-0.6-0.8-1.5-1.2-2c-0.1,0.7-0.3,1.2-0.7,1.5c-0.6,0.4-1.4,0.4-2.5,0.4c-0.1-0.6-0.3-1.6-0.6-2.2
		c0.6,0,1.2,0,1.4,0c0.2,0,0.3-0.1,0.3-0.3v-4c-0.5,0.3-1.1,0.7-1.5,1l-0.6-1.4c-0.1,2.5-0.5,5.2-1.2,7.1c-0.4-0.4-1.4-0.9-1.9-1.1
		c1-2.7,1.1-6.7,1.1-9.6V2.8h6.3v6c2.2-1.1,2.4-2.5,2.4-3.8V2.8h6.7v4.4c0,0.6,0,0.8,0.3,0.8h0.8c0.3,0,0.7-0.1,1-0.1
		c0.1,0.6,0.1,1.4,0.2,1.9c-0.3,0.1-0.7,0.1-1.1,0.1h-1c-1.9,0-2.3-0.8-2.3-2.7V5H322c0,1.9-0.6,4.1-3.2,5.4
		c-0.2-0.4-0.9-1.1-1.4-1.5v9.2c0,0.2,0,0.3,0,0.5c1.4-0.3,2.6-0.8,3.7-1.4c-1-1.1-1.9-2.4-2.6-3.9l1-0.3h-1.4v-2.2h8.1l0.4-0.1
		L328.2,11.2z M313.3,10c0,0.8,0,1.8-0.1,2.7c0.6-0.2,1.3-0.5,2.1-0.8V9.8l-0.8,0.6c-0.3-0.4-0.7-1-1.2-1.5V10z M313.3,4.9v2.5
		l0.6-0.4c0.5,0.5,1,1,1.5,1.5V4.9H313.3z M320.8,12.9c0.5,1.1,1.3,2,2.2,2.8c0.9-0.8,1.6-1.7,2.2-2.8H320.8z"/>
	<path d="M335.5,9.6c0.7,0.8,2.4,2.8,2.8,3.3l-1.4,1.9c-0.3-0.6-0.9-1.6-1.4-2.5v8.3h-2.3v-7.9c-0.6,1.8-1.4,3.4-2.3,4.5
		c-0.2-0.7-0.7-1.6-1.1-2.2c1.3-1.6,2.5-4.3,3.1-6.7h-2.6V6.2h2.9V2.1h2.3v4.1h2.5v2.2h-2.5V9.6z M348.1,3.2v17.3h-2.4v-1H341v1.1
		h-2.3V3.2H348.1z M341,5.4v2.5h4.7V5.4H341z M341,10v2.5h4.7V10H341z M345.7,17.3v-2.6H341v2.6H345.7z"/>
	<path d="M356.5,17.2c1.3-0.1,2.6-0.3,3.8-0.4l0,2.1c-3.4,0.4-7.2,0.8-9.8,1.1l-0.3-2.2c1.1-0.1,2.5-0.2,4-0.4v-1.5h-3V14h3v-1.3
		h-3.4v-1.9h2.2c-0.3-0.6-0.8-1.3-1.3-1.9l1-0.6h-2.5v-2h2.7V5.4l-1,0.7c-0.3-0.7-1-1.7-1.6-2.4l1.4-0.9c0.4,0.4,0.9,1,1.2,1.5V2.1
		h1.9v4.2h0.9V2.1h1.9v2.3c0.4-0.5,0.8-1.1,1.1-1.6l1.9,1c-0.8,0.9-1.6,1.7-2.3,2.3l-0.7-0.4v0.6h2.6v2h-2.6l1.4,0.5
		c-0.3,0.7-0.7,1.4-1.1,2h1.8v1.9h-3.3V14h3v1.9h-3V17.2z M353.7,8.3c0.5,0.6,1,1.3,1.2,1.8l-1.2,0.7h2.1c0.4-0.7,0.8-1.7,1.1-2.5
		H353.7z M368.5,9.3H367v8.7c0,1.2-0.2,1.8-1,2.2c-0.7,0.4-1.8,0.5-3.3,0.5c-0.1-0.6-0.5-1.6-0.8-2.3c1,0,2,0,2.3,0
		c0.3,0,0.5-0.1,0.5-0.4V9.3h-4.3V7.1h4.3v-5h2.3v5h1.5V9.3z M362,15.6c-0.1-1.2-0.7-3.1-1.4-4.5l2-0.7c0.7,1.4,1.4,3.2,1.6,4.4
		L362,15.6z"/>
	<path d="M381.3,9.9c1.3,3.9,3.7,7,7.5,8.6c-0.6,0.5-1.4,1.6-1.8,2.2c-3.6-1.7-5.9-4.6-7.5-8.5c-1.1,3.3-3.2,6.5-7.5,8.5
		c-0.4-0.7-1.1-1.5-1.8-2c4.6-2,6.5-5.4,7.3-8.8h-6.9V7.4h7.3c0.2-1.9,0.2-3.7,0.2-5.3h2.6c0,1.6,0,3.5-0.2,5.3h7.9v2.5H381.3z"/>
	<path d="M396.8,9.2c-1.1,0.1-2.3,0.1-3.4,0.2c-0.2,1.7-0.8,3.6-2,4.9c-0.3-0.4-1.1-1-1.5-1.3c1-1,1.4-2.3,1.6-3.6l-1.3,0.1
		l-0.1-1.6c0.5,0,1,0,1.6,0c0-0.2,0-0.4,0-0.7V3.5h2.3c0.2-0.5,0.4-1,0.4-1.5l2.1,0.3c-0.2,0.4-0.4,0.8-0.5,1.2h2.8v4l0.5,0l0,1.5
		l-0.4,0v2.8c0,0.8-0.2,1.2-0.7,1.5c-0.5,0.3-1.3,0.3-2.3,0.3c-0.1-0.5-0.3-1.1-0.5-1.5c0.6,0,1.2,0,1.4,0c0.2,0,0.3-0.1,0.3-0.3
		V9.2z M406.3,18.3h2.3v1.8h-18.2v-1.8h2.2v-4.3h13.8V18.3z M393.5,7.2c0,0.2,0,0.4,0,0.6l3.2-0.1V5.1h-3.2V7.2z M394.8,9.5
		c0.6,0.4,1.2,1.1,1.4,1.6l-1.4,1c-0.2-0.5-0.8-1.2-1.3-1.7L394.8,9.5z M395.1,5.2c0.5,0.5,1,1.2,1.3,1.6l-1.4,0.8
		c-0.2-0.5-0.7-1.2-1.2-1.7L395.1,5.2z M394.7,18.3h1.6v-2.5h-1.6V18.3z M398.5,15.9v2.5h1.6v-2.5H398.5z M399.9,7.8
		c-0.3-0.4-0.8-1-1.1-1.2c1.6-0.7,1.9-1.6,1.9-2.5V2.8h5.5V5c0,0.4,0,0.6,0.3,0.6h1.1c0.3,0,0.8,0,1.1-0.1c0,0.5,0.1,1.1,0.1,1.6
		c-0.3,0.1-0.8,0.1-1.2,0.1h-1.3c-1.7,0-2-0.7-2-2.3V4.4h-1.7c-0.1,1.2-0.5,2.4-1.8,3.3h5.3l0.3,0l1.2,0.5c-0.4,1.2-1.1,2.2-1.9,3
		c1.1,0.6,2.2,1.1,2.9,1.6l-1.3,1.5c-0.8-0.6-2-1.3-3.4-2c-1.1,0.7-2.4,1.1-3.9,1.4c-0.2-0.5-0.7-1.3-1.1-1.6c1.1-0.2,2-0.4,2.9-0.8
		c-0.7-0.3-1.5-0.7-2.2-0.9l1-1.2h-0.8V7.8z M401.3,9.3c0.8,0.3,1.7,0.7,2.5,1c0.4-0.3,0.7-0.6,1-1H401.3z M402.3,15.9v2.5h1.6v-2.5
		H402.3z"/>
	<path d="M428,13.5c-1.1,0.8-2.4,1.7-3.6,2.3c1.2,1.1,2.7,1.9,4.5,2.4c-0.5,0.5-1.2,1.5-1.6,2.1c-4.1-1.4-6.6-4.3-8.1-8.5
		c-0.8,0.8-1.6,1.5-2.6,2.2v3.4l4.3-1.2c0.1,0.6,0.2,1.6,0.4,2.1c-5.7,1.7-6.6,2-7.2,2.3c-0.1-0.6-0.6-1.6-1-2.1
		c0.4-0.2,1-0.7,1-1.6v-1.5c-0.9,0.5-1.8,0.9-2.7,1.2c-0.3-0.5-1-1.4-1.5-1.9c2.2-0.7,4.6-1.9,6.4-3.3h-5.7v-2h7.6V8.5h-5.7V6.6h5.7
		v-1h-6.7v-2h6.7V2.1h2.4v1.4h7v2h-7v1h6.2v1.9h-6.2v1.1h7.6v2h-6.7c0.4,1,0.9,1.9,1.5,2.7c1.1-0.7,2.2-1.6,3-2.3L428,13.5z"/>
	<path d="M437.7,15.8c-2.5,0.7-5.2,1.5-7.3,2.1l-0.6-2.2c0.8-0.2,1.8-0.4,2.9-0.7v-4h-2.2V8.8h2.2V5.3h-2.4V3.1h7v2.2H435v3.5h2.1
		V11H435v3.4c0.8-0.2,1.6-0.4,2.4-0.7L437.7,15.8z M446.6,18.6c0.3,0,0.4-0.3,0.5-2.3c0.5,0.4,1.4,0.7,2,0.9
		c-0.2,2.7-0.7,3.5-2.2,3.5h-1.5c-1.8,0-2.2-0.7-2.2-2.7V14h-1.2c-0.4,3.3-1.3,5.6-5.5,6.8c-0.2-0.6-0.8-1.5-1.3-2
		c3.6-0.9,4.3-2.5,4.5-4.9h-1.5V2.8h9.8V14h-2.5V18c0,0.6,0,0.7,0.4,0.7H446.6z M440.3,6h5.2V4.8h-5.2V6z M440.3,9.1h5.2V7.8h-5.2
		V9.1z M440.3,12.1h5.2v-1.2h-5.2V12.1z"/>
	<path d="M454.2,7.8h3l1.6,5.6c0.3,1.1,0.6,2.3,0.9,3.4h0.1c0.3-1.1,0.6-2.3,0.9-3.4l1.6-5.6h2.8L461.5,19h-3.4L454.2,7.8z"/>
	<path d="M466,17.7l1.3-1.8c1,0.8,2,1.2,3,1.2c1.1,0,1.6-0.5,1.6-1.2c0-0.8-1.2-1.2-2.3-1.7c-1.4-0.5-3-1.4-3-3.3
		c0-2,1.6-3.4,4.2-3.4c1.6,0,2.9,0.7,3.8,1.4l-1.3,1.8c-0.8-0.6-1.6-1-2.4-1c-1,0-1.5,0.4-1.5,1.1c0,0.8,1,1.1,2.2,1.6
		c1.5,0.6,3.1,1.3,3.1,3.4c0,2-1.5,3.5-4.5,3.5C468.8,19.3,467.1,18.6,466,17.7z"/>
	<path d="M476.8,17.4c0-1.1,0.8-1.9,1.8-1.9c1.1,0,1.8,0.8,1.8,1.9c0,1.1-0.8,1.9-1.8,1.9C477.6,19.3,476.8,18.5,476.8,17.4z"/>
	<path d="M488.2,4.2h3V19h-3V4.2z"/>
	<path d="M493.9,17.1l1.7-2c1.1,1,2.5,1.6,3.8,1.6c1.5,0,2.4-0.7,2.4-1.7c0-1.1-0.9-1.4-2.2-2l-2-0.8c-1.5-0.6-3-1.8-3-4
		c0-2.4,2.1-4.3,5.1-4.3c1.7,0,3.4,0.7,4.6,1.9l-1.5,1.9c-0.9-0.8-1.9-1.2-3.1-1.2c-1.3,0-2.1,0.6-2.1,1.6c0,1.1,1,1.4,2.3,1.9
		l1.9,0.8c1.8,0.7,3,1.9,3,4c0,2.4-2,4.5-5.4,4.5C497.3,19.3,495.3,18.5,493.9,17.1z"/>
	<path d="M507.3,4.2h3.3l2.5,6.9c0.3,0.9,0.6,1.9,0.9,2.8h0.1c0.3-0.9,0.6-1.9,0.9-2.8l2.5-6.9h3.3V19h-2.7v-6.2
		c0-1.4,0.2-3.5,0.4-4.9h-0.1l-1.2,3.5l-2.3,6.2h-1.7l-2.3-6.2L509.7,8h-0.1c0.1,1.4,0.4,3.5,0.4,4.9V19h-2.7V4.2z"/>
	<path d="M540.9,15.7c-0.9,0.6-2,1.2-3.1,1.7c1.2,0.6,2.5,1,4.1,1.2c-0.4,0.5-1,1.3-1.3,1.9c-4-0.8-6.5-2.6-8-5.7
		c-0.8,0.7-1.8,1.2-2.9,1.7v1.8l3.7-0.8c-0.1,0.5-0.2,1.3-0.2,1.8c-4.8,1.1-5.5,1.3-5.9,1.5l0-0.2c-0.1-0.5-0.5-1.2-0.7-1.5
		c0.4-0.3,0.9-0.8,0.9-1.8v-0.1c-1,0.3-2,0.6-3,0.7c-0.3-0.5-0.8-1.3-1.3-1.7c2.2-0.3,4.4-0.9,6.2-1.7h-5.8v-1.9h8.1
		c-0.1-0.4-0.3-0.7-0.5-1h0c-0.2,0-0.4,0-0.6,0c-0.1-0.5-0.4-1-0.6-1.4c0.5,0,0.9,0,1.1,0s0.2-0.1,0.2-0.2V9.4h-1.6v2.9h-2V9.4h-1.5
		v2.5h-1.8V8h3.3V7.3h-4.1V5.7h1.2c-0.4-0.2-0.9-0.5-1.3-0.7c0.7-0.8,1.2-1.8,1.6-2.9l1.8,0.4c-0.1,0.3-0.2,0.5-0.3,0.8h1.1V2.1h2
		v1.3h3.3v1.5h-3.3v0.8h3.8v1.6h-3.8V8h3.5v2.3c0,0.5-0.1,0.8-0.3,1.1l0.5-0.1c0.3,0.5,0.6,1.1,0.8,1.6h7.3v1.9h-2L540.9,15.7z
		 M527.7,5.7V4.9h-1.9c-0.2,0.3-0.3,0.6-0.5,0.8H527.7z M536.8,9.7h-2.1V3.1h2.1V9.7z M534.7,14.7c0.4,0.6,0.9,1.1,1.4,1.6
		c0.9-0.5,1.9-1.1,2.7-1.6H534.7z M540.7,10.2c0,1-0.2,1.5-0.9,1.8c-0.7,0.3-1.7,0.3-3.1,0.3c-0.1-0.6-0.4-1.4-0.7-1.9
		c0.9,0,1.9,0,2.1,0c0.3,0,0.4-0.1,0.4-0.3V2.2h2.2V10.2z"/>
	<path d="M549,11.9c-0.2,1.6-0.6,3-1.1,4.2c1.2,2,3.4,2.2,6.6,2.2c2.1,0,5.4-0.1,7.7-0.3c-0.3,0.5-0.7,1.6-0.8,2.2
		c-2.1,0.1-4.6,0.2-6.9,0.2c-3.6,0-6-0.4-7.5-2.4c-0.7,1.2-1.5,2.1-2.5,2.8c-0.3-0.5-1.1-1.3-1.5-1.6c1.8-1.1,3-3.1,3.6-5.8h-1.5
		c-0.5,0-1,0.1-1.2,0.3c-0.1-0.5-0.5-1.5-0.7-1.9c0.3-0.1,0.6-0.2,1-0.6c0.3-0.4,1.1-1.5,1.8-2.5h-2.3V6.7h3.8l0.2-0.1l1.4,0.6
		c-0.7,1.1-1.9,3-2.9,4.3h1.4l0.4-0.1L549,11.9z M546.6,6.4c-0.6-0.9-1.7-2.2-2.6-3.2l1.8-1.1c1,1,2.1,2.2,2.7,3L546.6,6.4z
		 M551.9,6.4c-0.4,0.6-0.8,1.2-1.2,1.7c-0.5-0.3-1.4-0.8-1.9-1.1c1.1-1.1,2.1-2.9,2.6-4.7l2.1,0.5c-0.1,0.5-0.3,1-0.6,1.6h1.3V2.1
		h2.4v2.2h4.1v2h-4.1V8h4.9v2h-12.2V8h5V6.4H551.9z M550.6,17.1v-5.9h9.8v5.9H550.6z M552.9,15.2h5.1V13h-5.1V15.2z"/>
	<path d="M570.9,17.6c-1.4,1.1-3.8,2.2-5.8,2.7c-0.3-0.5-0.9-1.3-1.4-1.7c2-0.3,4.3-1,5.5-1.7L570.9,17.6z M581.5,14.3v2h-7.8v4.6
		h-2.4v-4.6h-7.6v-2h7.6v-0.9h-5.8v-1.7h5.8v-0.9h-6.8V9h3.7c-0.2-0.5-0.5-1-0.7-1.5l1.3-0.3h-5.1V5.3h2.7c-0.3-0.8-0.8-1.7-1.3-2.5
		l2-0.7c0.6,0.8,1.3,2,1.5,2.8l-1,0.4h1.8V2.1h2.2v3.3h1.5V2.1h2.2v3.3h1.8l-0.7-0.2c0.5-0.8,1-2,1.3-2.9l2.5,0.6
		c-0.6,0.9-1.1,1.8-1.6,2.5h2.6v1.9h-5.3l1.9,0.5c-0.4,0.5-0.9,0.9-1.2,1.3h3.9v1.8h-6.9v0.9h6v1.7h-6v0.9H581.5z M570,7.2
		c0.3,0.5,0.6,1.1,0.8,1.5L569.7,9h5.5l-0.7-0.2c0.3-0.5,0.7-1.1,1-1.5H570z M576.2,16.8c1.6,0.6,4,1.6,5.3,2.2l-1.7,1.3
		c-1.2-0.7-3.5-1.7-5.2-2.4L576.2,16.8z"/>
	<path d="M590.5,12.7l-2.3,0.6v4.8c0,1.2-0.2,1.7-0.9,2.1c-0.7,0.4-1.6,0.4-3,0.4c-0.1-0.6-0.4-1.6-0.7-2.2c0.8,0,1.6,0,1.9,0
		c0.3,0,0.4-0.1,0.4-0.4V14c-0.8,0.2-1.5,0.4-2.2,0.6l-0.6-2.3c0.8-0.2,1.8-0.4,2.8-0.6V8.1h-2.5V5.8h2.5V2.1h2.4v3.7h2v2.3h-2V11
		c0.7-0.2,1.4-0.3,2-0.5L590.5,12.7z M594.5,10.4c-2.6,0-3.4-0.9-3.4-3.2V2.1h2.4v2.2h7.7v2h-7.7v1c0,0.8,0.2,1,1.1,1h4.5
		c0.8,0,2,0,2.6-0.2c0.1,0.6,0.2,1.5,0.2,2c-0.5,0.1-1.7,0.2-2.7,0.2H594.5z M591.2,11.6h9.7v9h-2.4v-0.8h-5.1v0.9h-2.3V11.6z
		 M593.5,13.6v1.2h5.1v-1.2H593.5z M598.6,18v-1.3h-5.1V18H598.6z"/>
	<path d="M620.6,7.9c-0.3,2.9-0.9,5.4-1.9,7.4c0.8,1.6,2,2.8,3.4,3.6c-0.5,0.4-1.2,1.3-1.5,1.8c-1.3-0.9-2.3-2-3.2-3.5
		c-1.1,1.5-2.5,2.6-4.3,3.6c-0.1-0.3-0.4-0.7-0.7-1.2l-0.6,0.5c-0.6-0.4-1.5-0.8-2.4-1.2c-1.2,0.7-3,1.3-5.5,1.7
		c-0.2-0.5-0.6-1.2-0.9-1.5c1.8-0.3,3.1-0.6,4.2-1c-0.9-0.3-1.9-0.6-2.8-0.8c0.4-0.4,0.7-1,1.1-1.5h-2.1v-1.6h3.1
		c0.2-0.3,0.3-0.6,0.5-0.9h-2.8V9.8h3.5V9.2h-3.2V7h-1.4V5.3h1.4V3.3h3.2V2.1h1.8v1.2h3.4v2.1h1V7h-1v2.2h-3.4v0.6h3.7v0.8
		c1.1-2.2,1.9-5.4,2.4-8.5l2,0.4c-0.2,1.1-0.4,2.2-0.7,3.3h4.9v2.1H620.6z M606.3,12h1.6v-0.9h-1.6V12z M606.4,4.8v0.7h1.4V4.8
		H606.4z M607.9,7.7V6.9h-1.4v0.8H607.9z M607.8,15.8c-0.1,0.2-0.3,0.5-0.4,0.7c0.6,0.2,1.3,0.4,1.9,0.6c0.5-0.4,0.8-0.8,1-1.3
		H607.8z M612.2,15.8c-0.2,0.7-0.5,1.3-1.1,2c0.6,0.3,1.3,0.5,1.8,0.8c1.6-0.9,2.7-2,3.6-3.4c-0.5-1.2-0.9-2.6-1.2-4.1
		c-0.3,0.6-0.5,1.2-0.8,1.7c-0.2-0.3-0.7-0.8-1.2-1.2v1.8h-4.2c-0.1,0.3-0.3,0.6-0.5,0.9h1.8v-0.6h1.9v0.6h1.7v1.6H612.2z
		 M609.7,4.8v0.7h1.6V4.8H609.7z M611.2,7.7V6.9h-1.6v0.8H611.2z M609.7,11.1V12h1.6v-0.9H609.7z M616.5,7.9
		c0.3,1.7,0.6,3.4,1.1,4.8c0.4-1.4,0.7-3,0.9-4.8H616.5z"/>
</g>
<g>
	<path d="M657.9,60.4h2.7v13.3h-2.7V60.4z"/>
	<path d="M663,72.1l1.5-1.8c1,0.9,2.2,1.5,3.4,1.5c1.4,0,2.1-0.6,2.1-1.5c0-1-0.8-1.3-2-1.8l-1.8-0.8c-1.4-0.6-2.7-1.6-2.7-3.6
		c0-2.2,1.9-3.9,4.6-3.9c1.5,0,3.1,0.6,4.2,1.7l-1.3,1.7c-0.8-0.7-1.7-1.1-2.8-1.1c-1.2,0-1.9,0.5-1.9,1.4c0,1,0.9,1.3,2.1,1.7
		l1.7,0.7c1.6,0.7,2.7,1.7,2.7,3.6c0,2.2-1.8,4-4.9,4C666.1,74,664.3,73.3,663,72.1z"/>
	<path d="M675.1,60.4h3l2.3,6.2c0.3,0.8,0.5,1.7,0.8,2.6h0.1c0.3-0.8,0.5-1.7,0.8-2.6l2.2-6.2h3v13.3h-2.4v-5.6
		c0-1.3,0.2-3.1,0.3-4.4H685L684,67l-2.1,5.6h-1.5l-2.1-5.6l-1.1-3.1h-0.1c0.1,1.3,0.3,3.1,0.3,4.4v5.6h-2.4V60.4z"/>
	<path d="M705.3,70.8c-0.8,0.6-1.8,1.1-2.8,1.5c1,0.5,2.3,0.9,3.7,1.1c-0.4,0.4-0.9,1.2-1.2,1.7c-3.6-0.7-5.9-2.3-7.2-5.1
		c-0.7,0.6-1.6,1.1-2.6,1.5v1.6l3.3-0.7c-0.1,0.5-0.1,1.2-0.1,1.6c-4.3,1-4.9,1.1-5.3,1.4l0-0.2c-0.1-0.4-0.4-1-0.6-1.3
		c0.3-0.3,0.8-0.7,0.8-1.6v-0.1c-0.9,0.3-1.8,0.5-2.7,0.7c-0.3-0.5-0.8-1.2-1.1-1.5c2-0.3,4-0.8,5.5-1.5h-5.3v-1.7h7.3
		c-0.1-0.3-0.3-0.6-0.4-0.9h0c-0.2,0-0.4,0-0.6,0c-0.1-0.4-0.3-0.9-0.5-1.2c0.4,0,0.8,0,1,0c0.1,0,0.2-0.1,0.2-0.2v-0.8h-1.5v2.6
		h-1.8v-2.6h-1.4v2.2h-1.6v-3.5h3v-0.6h-3.7v-1.4h1.1c-0.4-0.2-0.8-0.5-1.1-0.6c0.6-0.7,1.1-1.7,1.4-2.6l1.6,0.4
		c-0.1,0.3-0.2,0.5-0.3,0.7h1v-1.2h1.8v1.2h3V61h-3v0.7h3.5v1.4h-3.5v0.6h3.2v2.1c0,0.5-0.1,0.8-0.2,1l0.4-0.1
		c0.3,0.4,0.5,1,0.7,1.5h6.6v1.7h-1.8L705.3,70.8z M693.5,61.8V61h-1.7c-0.1,0.3-0.3,0.5-0.5,0.7H693.5z M701.7,65.4h-1.9v-5.9h1.9
		V65.4z M699.8,69.9c0.4,0.6,0.8,1,1.3,1.5c0.8-0.4,1.7-1,2.4-1.5H699.8z M705.2,65.9c0,0.9-0.2,1.4-0.8,1.6
		c-0.6,0.3-1.5,0.3-2.8,0.3c-0.1-0.5-0.4-1.2-0.6-1.7c0.8,0,1.7,0,1.9,0c0.3,0,0.3-0.1,0.3-0.3v-7.1h1.9V65.9z"/>
	<path d="M712.6,67.4c-0.2,1.4-0.6,2.7-1,3.8c1.1,1.8,3.1,2,6,2c1.9,0,4.9-0.1,6.9-0.3c-0.3,0.4-0.6,1.4-0.7,2
		c-1.9,0.1-4.1,0.2-6.2,0.2c-3.3,0-5.4-0.3-6.7-2.2c-0.6,1.1-1.4,1.9-2.3,2.5c-0.3-0.4-1-1.2-1.4-1.4c1.6-1,2.7-2.8,3.3-5.2h-1.4
		c-0.4,0-0.9,0.1-1.1,0.3c-0.1-0.4-0.5-1.3-0.7-1.7c0.3-0.1,0.6-0.2,0.9-0.6c0.3-0.3,1-1.3,1.6-2.3h-2.1v-1.7h3.4l0.2-0.1l1.3,0.5
		c-0.6,1-1.7,2.7-2.6,3.9h1.3l0.3-0.1L712.6,67.4z M710.5,62.4c-0.5-0.8-1.5-2-2.4-2.9l1.6-1c0.9,0.9,1.9,2,2.4,2.7L710.5,62.4z
		 M715.3,62.4c-0.3,0.6-0.7,1.1-1.1,1.5c-0.4-0.3-1.3-0.8-1.7-1c1-1,1.9-2.6,2.4-4.2l1.9,0.5c-0.1,0.5-0.3,0.9-0.5,1.4h1.1v-2h2.1v2
		h3.7v1.8h-3.7v1.5h4.4v1.8h-11v-1.8h4.5v-1.5H715.3z M714,72v-5.3h8.8V72H714z M716.1,70.3h4.6v-2h-4.6V70.3z"/>
	<path d="M732.3,72.5c-1.2,1-3.4,2-5.2,2.4c-0.3-0.5-0.8-1.2-1.3-1.5c1.8-0.3,3.9-0.9,5-1.5L732.3,72.5z M741.9,69.5v1.8h-7v4.1
		h-2.1v-4.1h-6.9v-1.8h6.9v-0.8h-5.2v-1.5h5.2v-0.8h-6.1v-1.6h3.3c-0.2-0.4-0.4-0.9-0.7-1.3l1.2-0.3h-4.6v-1.7h2.4
		c-0.3-0.7-0.7-1.5-1.2-2.2l1.8-0.6c0.5,0.8,1.1,1.8,1.4,2.5l-0.9,0.3h1.7v-2.9h2v2.9h1.4v-2.9h2v2.9h1.6l-0.6-0.2
		c0.4-0.7,0.9-1.8,1.2-2.6l2.3,0.5c-0.5,0.8-1,1.6-1.4,2.3h2.3v1.7h-4.8l1.7,0.4c-0.4,0.4-0.8,0.8-1.1,1.2h3.5v1.6h-6.2v0.8h5.4v1.5
		h-5.4v0.8H741.9z M731.5,63.1c0.3,0.5,0.6,1,0.7,1.4l-1,0.2h4.9l-0.6-0.2c0.3-0.4,0.7-1,0.9-1.4H731.5z M737.1,71.7
		c1.5,0.5,3.6,1.4,4.7,2l-1.5,1.2c-1-0.6-3.2-1.5-4.7-2.2L737.1,71.7z"/>
	<path d="M744.5,60.4h4.4c3,0,5.2,1,5.2,4.2c0,3-2.3,4.4-5.1,4.4h-1.8v4.7h-2.7V60.4z M748.7,66.9c1.8,0,2.7-0.8,2.7-2.3
		c0-1.5-1-2.1-2.8-2.1h-1.5v4.4H748.7z"/>
	<path d="M756.5,60.4h3l2.3,6.2c0.3,0.8,0.5,1.7,0.8,2.6h0.1c0.3-0.8,0.5-1.7,0.8-2.6l2.2-6.2h3v13.3h-2.4v-5.6
		c0-1.3,0.2-3.1,0.3-4.4h-0.1l-1.1,3.1l-2.1,5.6h-1.5l-2.1-5.6l-1.1-3.1h-0.1c0.1,1.3,0.3,3.1,0.3,4.4v5.6h-2.4V60.4z"/>
	<path d="M771.9,60.4h2.7v13.3h-2.7V60.4z"/>
	<path d="M777.7,68.1c0-3.6,1-6.5,2.7-9.3l1.7,0.7c-1.5,2.6-2.2,5.7-2.2,8.6c0,3,0.7,6,2.2,8.6l-1.7,0.7
		C778.7,74.6,777.7,71.7,777.7,68.1z"/>
	<path d="M790.7,63.7c-0.4,1-0.8,2-1.3,2.9h9.3v8.7h-2.3v-0.9h-6.7v1h-2.1v-6.1c-0.8,1-1.7,1.9-2.8,2.7c-0.3-0.5-1-1.3-1.4-1.7
		c2.3-1.5,3.9-3.9,5-6.5H784v-2.1h5.1c0.3-1,0.6-2.1,0.8-3.1l2.3,0.4c-0.2,0.9-0.5,1.8-0.7,2.6h8.5v2.1H790.7z M789.8,68.6v3.7h6.7
		v-3.7H789.8z"/>
	<path d="M806.5,70.6h3v1.9h-3v2.8h-1.9v-2.8h-3v-1.9h3v-1.1h-2.4V63h2.4v-0.9h-2.8v-1.9h2.8v-1.7h1.9v1.7h2.7v1.9h-2.7V63h2.5v6.5
		h-2.5V70.6z M803.7,65.6h1.1v-1.1h-1.1V65.6z M803.7,68.1h1.1V67h-1.1V68.1z M807.4,64.5h-1.2v1.1h1.2V64.5z M807.4,67h-1.2v1.1
		h1.2V67z M817.9,62.4v12.8H816v-0.9h-4.4v1h-1.8V62.4h3v-3.9h2v3.9H817.9z M811.6,64.3v2.9h1.2v-2.9H811.6z M811.6,72.4h1.2v-3.2
		h-1.2V72.4z M816,64.3h-1.3v2.9h1.3V64.3z M816,72.4v-3.2h-1.3v3.2H816z"/>
	<path d="M819.9,76.7c1.5-2.6,2.2-5.7,2.2-8.6c0-2.9-0.7-6-2.2-8.6l1.6-0.7c1.7,2.8,2.7,5.7,2.7,9.3c0,3.6-1,6.5-2.7,9.3L819.9,76.7
		z"/>
</g>
<g>
	<path class="st3" d="M48.3,311.9c-0.1,1.4-0.5,2.8-1.4,3.9c2.2,1,5.1,1.2,8.8,1.2c-0.4,0.5-0.8,1.5-1,2.2c-3.9-0.2-7-0.6-9.5-1.9
		c-1.2,0.9-2.9,1.6-5.3,2.1c-0.3-0.5-0.8-1.4-1.3-1.9c2.1-0.4,3.6-0.9,4.6-1.5c-1-0.9-1.8-1.9-2.5-3.3l2-0.7c0.6,1.1,1.3,2,2.2,2.6
		c0.6-0.9,0.9-1.8,1-2.8h-5.9v-6.6h5.9v-2.5h2.2v2.5h6v6.6H48.3z M42.3,309.8h3.8v-2.5h-3.8V309.8z M48.3,307.3v2.5h3.7v-2.5H48.3z"
		/>
	<path class="st3" d="M63.1,314.5c-2,0.8-4.1,1.5-5.7,2.1l-0.7-2.2c0.7-0.2,1.5-0.4,2.3-0.7v-4.9H57v-2H59v-3.9h2v3.9h1.6v2H61v4.3
		c0.6-0.2,1.1-0.4,1.7-0.6L63.1,314.5z M73.6,316.7v2H61.5v-2H73.6z M72.4,315.1h-8.6v-11.7h8.6V315.1z M65.9,305.4v2.8h4.3v-2.8
		H65.9z M70.2,313v-2.9h-4.3v2.9H70.2z"/>
	<path class="st3" d="M91.4,309.3v1.7H75v-1.7h2.7c-0.2-0.7-0.6-1.7-1.1-2.4l1.4-0.5h-2v-1.7h3.1c-0.3-0.5-0.6-1-0.9-1.4l1.9-0.7
		c0.5,0.5,1,1.3,1.2,1.8l-0.8,0.3h4.4c0.4-0.6,0.9-1.5,1.2-2.1l2.1,0.6c-0.3,0.5-0.6,1-1,1.5h3.2v1.7h-2.3l1.5,0.4
		c-0.5,0.9-0.9,1.8-1.3,2.5H91.4z M77.3,311.9h11.9v7.5H87v-0.5h-7.7v0.5h-2.1V311.9z M78.4,306.4c0.5,0.7,1,1.7,1.2,2.3l-1.4,0.6
		h2.3v-2.9H78.4z M79.3,313.5v1.1H87v-1.1H79.3z M87,317.3v-1.1h-7.7v1.1H87z M83.9,306.4h-1.5v2.9h1.5V306.4z M86.7,308.9
		c0.4-0.7,0.8-1.7,1-2.5h-1.8v2.9h2.2L86.7,308.9z"/>
	<path class="st3" d="M92.7,316.3l1.2-1.7c0.8,0.7,1.7,1.4,2.9,1.4c1.4,0,2.4-0.8,2.4-2.3c0-1.4-0.9-2.3-2.3-2.3
		c-0.8,0-1.2,0.2-2,0.7l-1.2-0.8l0.4-6.5h7.1v2.2h-4.8l-0.3,2.8c0.5-0.2,1-0.4,1.6-0.4c2.2,0,4.1,1.3,4.1,4c0,2.9-2.2,4.5-4.7,4.5
		C95.1,318.1,93.6,317.3,92.7,316.3z"/>
	<path class="st3" d="M103.6,311.3c0-4.4,1.8-6.7,4.5-6.7c2.7,0,4.5,2.3,4.5,6.7c0,4.4-1.8,6.8-4.5,6.8
		C105.4,318.1,103.6,315.7,103.6,311.3z M110.1,311.3c0-3.6-0.8-4.6-2-4.6s-2,1-2,4.6c0,3.6,0.9,4.7,2,4.7S110.1,314.9,110.1,311.3z
		"/>
	<path class="st3" d="M114.2,311.3c0-4.4,1.8-6.7,4.5-6.7c2.7,0,4.5,2.3,4.5,6.7c0,4.4-1.8,6.8-4.5,6.8
		C116,318.1,114.2,315.7,114.2,311.3z M120.7,311.3c0-3.6-0.8-4.6-2-4.6s-2,1-2,4.6c0,3.6,0.9,4.7,2,4.7S120.7,314.9,120.7,311.3z"
		/>
	<path class="st3" d="M134.1,309.8v1.9h5.7v1.9H137l1.8,0.6c-0.6,1-1.3,2.1-1.9,2.9h3.9v2h-15.6v-2h3.5c-0.3-0.8-0.9-2-1.5-2.9
		l1.4-0.6h-2.6v-1.9h5.7v-1.9h-3.7v-0.9c-0.8,0.4-1.5,0.7-2.3,1c-0.3-0.6-0.9-1.4-1.4-2c3.4-1,6.6-2.8,8.3-5.5l2,0.9
		c-0.2,0.2-0.3,0.5-0.5,0.7c1.8,1.6,4.7,3.1,7.4,3.8c-0.5,0.5-1.2,1.3-1.5,1.9c-0.8-0.3-1.6-0.6-2.4-1v1.1H134.1z M129.1,313.6
		c0.6,0.9,1.3,2.1,1.6,2.9l-1.5,0.6h2.6v-3.5H129.1z M136.2,307.8c-1.1-0.7-2.2-1.5-3.1-2.3c-0.9,0.9-1.9,1.7-2.9,2.3H136.2z
		 M134.1,313.6v3.5h2.3l-1.2-0.5c0.6-0.8,1.2-2.1,1.6-3H134.1z"/>
	<path class="st3" d="M142.8,303.3h8.9v1.8h-8.9V303.3z M151.3,317.4c0,0.8-0.1,1.2-0.6,1.5c-0.5,0.3-1.1,0.3-2,0.3
		c0-0.5-0.2-1.1-0.4-1.6c0.5,0,1,0,1.1,0c0.2,0,0.2-0.1,0.2-0.2v-5.5h-5v7.6h-1.6v-9.1h8.3V317.4z M150.9,309.7h-7.2v-3.9h7.2V309.7
		z M145.9,314.5c-0.1-0.5-0.5-1.3-0.8-1.9l1.1-0.4c0.4,0.6,0.8,1.4,0.9,1.9L145.9,314.5z M147.9,315.8v3h-1.5v-3h-1.3v-1.3h2
		c0.3-0.7,0.8-1.7,1-2.4l1.3,0.5c-0.3,0.6-0.7,1.3-1,1.9h0.8v1.3H147.9z M148.9,307.2h-3.5v1h3.5V307.2z M157.9,319.4
		c-0.1-0.4-0.1-0.9-0.2-1.4c-1.9,0.4-3.9,0.7-5.5,1l-0.5-1.9c0.8-0.1,1.7-0.2,2.7-0.4v-3.3H152V306h2.4v-3.1h1.9v3.1h2.4v7.4h-2.4v3
		l1-0.2c-0.2-0.6-0.3-1.3-0.5-1.8l1.4-0.3c0.5,1.6,1.1,3.7,1.2,4.9L157.9,319.4z M153.5,311.6h1.1v-3.7h-1.1V311.6z M157.1,307.9h-1
		v3.7h1V307.9z"/>
	<path class="st3" d="M176.9,310.8c-0.6,2.3-1.6,4-3,5.4c1,0.6,2.2,1,3.5,1.3c-0.5,0.5-1.1,1.3-1.4,1.9c-1.5-0.4-2.8-1-3.9-1.8
		c-1.2,0.7-2.5,1.3-3.9,1.7c-0.2-0.5-0.7-1.3-1.1-1.8c-0.1,0.6-0.2,1.1-0.7,1.3c-0.5,0.3-1.2,0.4-2.3,0.4c-0.1-0.5-0.3-1.5-0.5-2
		c0.6,0,1.1,0,1.3,0c0.2,0,0.3-0.1,0.3-0.3v-3.6c-0.5,0.3-1,0.6-1.4,0.9l-0.5-1.3c-0.1,2.3-0.4,4.7-1.1,6.4c-0.4-0.3-1.3-0.8-1.7-1
		c0.9-2.5,1-6.1,1-8.7v-6.5h5.7v5.4c1.9-1,2.2-2.3,2.2-3.4v-1.9h6v3.9c0,0.5,0,0.7,0.3,0.7h0.7c0.2,0,0.6-0.1,0.9-0.1
		c0.1,0.5,0.1,1.2,0.2,1.7c-0.3,0.1-0.7,0.1-1,0.1h-0.9c-1.7,0-2.1-0.7-2.1-2.4v-1.9h-2.1c0,1.7-0.5,3.7-2.9,4.9
		c-0.2-0.3-0.8-1-1.2-1.4v8.2c0,0.1,0,0.3,0,0.4c1.2-0.3,2.4-0.7,3.3-1.3c-0.9-1-1.7-2.2-2.3-3.5l0.9-0.3h-1.3v-2h7.3l0.4-0.1
		L176.9,310.8z M163.5,309.8c0,0.7,0,1.6-0.1,2.4c0.5-0.2,1.2-0.4,1.9-0.7v-2l-0.7,0.6c-0.2-0.3-0.6-0.9-1.1-1.4V309.8z
		 M163.5,305.2v2.2l0.5-0.4c0.4,0.4,0.9,0.9,1.3,1.4v-3.2H163.5z M170.2,312.4c0.5,1,1.2,1.8,2,2.6c0.8-0.7,1.5-1.6,1.9-2.6H170.2z"
		/>
	<path class="st3" d="M183.5,309.4c0.6,0.7,2.2,2.5,2.5,3l-1.2,1.7c-0.3-0.6-0.8-1.4-1.3-2.2v7.5h-2.1v-7.1c-0.6,1.6-1.3,3.1-2,4.1
		c-0.2-0.6-0.7-1.5-1-2c1.2-1.4,2.2-3.9,2.8-6h-2.3v-2h2.6v-3.7h2.1v3.7h2.3v2h-2.3V309.4z M194.8,303.6v15.6h-2.2v-0.9h-4.2v1h-2.1
		v-15.7H194.8z M188.4,305.6v2.2h4.2v-2.2H188.4z M188.4,309.8v2.3h4.2v-2.3H188.4z M192.7,316.3V314h-4.2v2.3H192.7z"/>
	<path class="st3" d="M202.3,316.3c1.1-0.1,2.3-0.3,3.5-0.4l0,1.9c-3.1,0.4-6.4,0.8-8.8,1l-0.3-1.9c1-0.1,2.3-0.2,3.6-0.3v-1.4h-2.7
		v-1.7h2.7v-1.2h-3v-1.7h1.9c-0.3-0.5-0.7-1.2-1.2-1.7l0.9-0.5h-2.3v-1.8h2.4v-0.8l-0.9,0.6c-0.3-0.6-0.9-1.5-1.5-2.2l1.3-0.8
		c0.4,0.4,0.8,0.9,1.1,1.3v-1.9h1.7v3.8h0.8v-3.8h1.7v2.1c0.4-0.5,0.8-1,1-1.4l1.7,0.9c-0.7,0.8-1.5,1.5-2.1,2.1l-0.6-0.4v0.5h2.3
		v1.8h-2.3l1.2,0.4c-0.3,0.6-0.6,1.2-1,1.8h1.6v1.7h-2.9v1.2h2.7v1.7h-2.7V316.3z M199.9,308.2c0.4,0.5,0.9,1.1,1,1.6l-1.1,0.6h1.9
		c0.3-0.6,0.8-1.5,1-2.2H199.9z M213.2,309.2h-1.4v7.9c0,1.1-0.2,1.6-0.9,2c-0.6,0.4-1.6,0.4-3,0.4c-0.1-0.6-0.4-1.5-0.7-2
		c0.9,0,1.8,0,2.1,0c0.3,0,0.4-0.1,0.4-0.4v-7.9h-3.9v-2h3.9v-4.5h2.1v4.5h1.4V309.2z M207.3,314.8c-0.1-1.1-0.7-2.8-1.3-4.1
		l1.8-0.6c0.7,1.3,1.3,2.9,1.4,4L207.3,314.8z"/>
	<path class="st3" d="M224.7,309.7c1.2,3.5,3.4,6.3,6.7,7.7c-0.5,0.4-1.2,1.4-1.6,2c-3.3-1.5-5.3-4.2-6.8-7.6c-1,3-2.9,5.8-6.7,7.7
		c-0.3-0.6-1-1.4-1.6-1.8c4.1-1.8,5.8-4.8,6.5-7.9h-6.2v-2.2h6.6c0.2-1.7,0.2-3.3,0.2-4.8h2.3c0,1.5,0,3.1-0.2,4.8h7.1v2.2H224.7z"
		/>
	<path class="st3" d="M238.6,309c-1,0.1-2.1,0.1-3,0.2c-0.2,1.6-0.7,3.2-1.8,4.4c-0.3-0.3-1-0.9-1.3-1.1c0.9-0.9,1.3-2.1,1.5-3.2
		l-1.2,0.1l-0.1-1.5c0.4,0,0.9,0,1.4,0c0-0.2,0-0.4,0-0.6v-3.3h2.1c0.2-0.5,0.3-0.9,0.4-1.3l1.9,0.2c-0.2,0.4-0.3,0.7-0.5,1.1h2.5
		v3.6l0.4,0l0,1.4l-0.4,0v2.5c0,0.8-0.1,1.1-0.6,1.4c-0.5,0.2-1.2,0.3-2.1,0.3c-0.1-0.4-0.3-1-0.5-1.4c0.5,0,1.1,0,1.2,0
		c0.2,0,0.3-0.1,0.3-0.3V309z M247.2,317.3h2v1.7h-16.4v-1.7h2v-3.8h12.4V317.3z M235.7,307.3c0,0.2,0,0.3,0,0.5l2.9-0.1v-2.3h-2.9
		V307.3z M236.9,309.3c0.5,0.4,1.1,1,1.3,1.4l-1.2,0.9c-0.2-0.5-0.7-1.1-1.2-1.5L236.9,309.3z M237.1,305.4c0.5,0.4,0.9,1,1.2,1.5
		l-1.3,0.8c-0.2-0.5-0.6-1.1-1.1-1.6L237.1,305.4z M236.8,317.3h1.4v-2.2h-1.4V317.3z M240.2,315.1v2.2h1.5v-2.2H240.2z
		 M241.4,307.7c-0.3-0.4-0.7-0.9-1-1.1c1.5-0.6,1.7-1.4,1.7-2.2v-1.2h4.9v2c0,0.4,0,0.5,0.3,0.5h1c0.3,0,0.7,0,1-0.1
		c0,0.4,0.1,1,0.1,1.5c-0.3,0.1-0.7,0.1-1.1,0.1h-1.2c-1.5,0-1.8-0.6-1.8-2.1v-0.5h-1.5c-0.1,1-0.5,2.1-1.7,3h4.8l0.3,0l1,0.4
		c-0.4,1.1-1,2-1.7,2.7c1,0.5,2,1,2.6,1.5l-1.1,1.4c-0.7-0.5-1.8-1.1-3-1.8c-1,0.6-2.2,1-3.5,1.3c-0.1-0.4-0.6-1.2-1-1.5
		c1-0.2,1.8-0.4,2.6-0.7c-0.7-0.3-1.3-0.6-2-0.8l0.9-1.1h-0.7V307.7z M242.7,309.1c0.7,0.3,1.5,0.6,2.3,0.9c0.3-0.3,0.7-0.6,0.9-0.9
		H242.7z M243.6,315.1v2.2h1.5v-2.2H243.6z"/>
	<path class="st3" d="M266.7,312.9c-1,0.8-2.2,1.5-3.2,2.1c1.1,1,2.4,1.7,4.1,2.2c-0.5,0.4-1.1,1.3-1.4,1.9c-3.7-1.3-6-3.9-7.3-7.6
		c-0.7,0.7-1.5,1.4-2.3,2v3.1l3.9-1.1c0.1,0.6,0.2,1.4,0.4,1.9c-5.1,1.5-6,1.8-6.5,2.1c-0.1-0.5-0.6-1.5-0.9-1.9
		c0.4-0.2,0.9-0.6,0.9-1.4v-1.3c-0.8,0.4-1.6,0.8-2.5,1.1c-0.3-0.5-0.9-1.3-1.4-1.7c2-0.6,4.2-1.7,5.7-3h-5.1v-1.8h6.8v-1h-5.2v-1.7
		h5.2v-0.9h-6v-1.8h6v-1.3h2.2v1.3h6.3v1.8H260v0.9h5.6v1.7H260v1h6.9v1.8h-6c0.3,0.9,0.8,1.7,1.4,2.4c1-0.6,2-1.5,2.7-2.1
		L266.7,312.9z"/>
	<path class="st3" d="M275.5,315c-2.3,0.7-4.7,1.4-6.5,1.9l-0.6-2c0.7-0.2,1.6-0.4,2.6-0.6v-3.6h-2v-2h2v-3.1h-2.2v-2h6.3v2H273v3.1
		h1.9v2H273v3.1c0.7-0.2,1.4-0.4,2.1-0.6L275.5,315z M283.4,317.5c0.3,0,0.4-0.3,0.4-2.1c0.4,0.3,1.2,0.7,1.8,0.8
		c-0.2,2.5-0.6,3.1-2,3.1h-1.4c-1.7,0-2-0.6-2-2.4v-3.5h-1.1c-0.3,2.9-1.2,5-5,6.2c-0.2-0.5-0.8-1.4-1.2-1.8
		c3.3-0.8,3.8-2.3,4.1-4.4h-1.3v-10.1h8.8v10.1h-2.2v3.5c0,0.5,0,0.6,0.3,0.6H283.4z M277.8,306.2h4.7v-1.1h-4.7V306.2z
		 M277.8,308.9h4.7v-1.1h-4.7V308.9z M277.8,311.7h4.7v-1.1h-4.7V311.7z"/>
	<path class="st3" d="M287.5,312.2c0-3.6,1-6.5,2.7-9.3l1.7,0.7c-1.5,2.6-2.2,5.7-2.2,8.6c0,3,0.7,6,2.2,8.6l-1.7,0.7
		C288.5,318.7,287.5,315.8,287.5,312.2z"/>
	<path class="st3" d="M310,317v2.1h-12.8V317h5.5v-4.5h-3.5v-1.1c-1,2.8-2.5,5.3-4.6,7.1c-0.3-0.5-1-1.3-1.4-1.7
		c2.5-2.2,4-5.6,5-9.1h-4.2v-2.1h4.7c0.2-1,0.4-2,0.5-3l2.2,0.3c-0.2,0.9-0.3,1.8-0.5,2.7h8.9v2.1h-9.4c-0.3,0.9-0.5,1.9-0.8,2.8
		h9.8v2.1h-4.4v4.5H310z"/>
	<path class="st3" d="M316.3,314.7h3v1.9h-3v2.8h-1.9v-2.8h-3v-1.9h3v-1.1H312v-6.5h2.4v-0.9h-2.8v-1.9h2.8v-1.7h1.9v1.7h2.7v1.9
		h-2.7v0.9h2.5v6.5h-2.5V314.7z M313.5,309.7h1.1v-1.1h-1.1V309.7z M313.5,312.2h1.1v-1.1h-1.1V312.2z M317.2,308.6H316v1.1h1.2
		V308.6z M317.2,311.1H316v1.1h1.2V311.1z M327.7,306.5v12.8h-1.9v-0.9h-4.4v1h-1.8v-12.9h3v-3.9h2v3.9H327.7z M321.4,308.4v2.9h1.2
		v-2.9H321.4z M321.4,316.5h1.2v-3.2h-1.2V316.5z M325.8,308.4h-1.3v2.9h1.3V308.4z M325.8,316.5v-3.2h-1.3v3.2H325.8z"/>
	<path class="st3" d="M329.7,320.8c1.5-2.6,2.2-5.7,2.2-8.6c0-2.9-0.7-6-2.2-8.6l1.6-0.7c1.7,2.8,2.7,5.7,2.7,9.3
		c0,3.6-1,6.5-2.7,9.3L329.7,320.8z"/>
</g>
<circle class="st3" cx="347.3" cy="311.2" r="7.3"/>
<circle class="st4" cx="642.3" cy="67.1" r="7.3"/>
<g>
	<polygon class="st3" points="808.1,153.6 799.2,148.9 807.8,143.4 816.3,137.8 816.7,148 817,158.2 	"/>
	
		<rect x="797.2" y="146" transform="matrix(-0.8865 -0.4627 0.4627 -0.8865 1433.5577 686.2693)" class="st3" width="7.4" height="42.7"/>
</g>
<text transform="matrix(1 0 0 1 -0.2287 623.0616)" style="font-family:'SourceHanSansTW-Regular-B5pc-H'; font-size:16px;">1.2</text>
<text transform="matrix(1 0 0 1 -0.2287 672.437)" style="font-family:'SourceHanSansTW-Regular-B5pc-H'; font-size:16px;">1.1</text>
<text transform="matrix(1 0 0 1 -0.2287 721.812)" style="font-family:'SourceHanSansTW-Regular-B5pc-H'; font-size:16px;">1.0</text>
<text transform="matrix(1 0 0 1 -0.2287 771.1869)" style="font-family:'SourceHanSansTW-Regular-B5pc-H'; font-size:16px;">0.9</text>
<text transform="matrix(1 0 0 1 -0.2287 820.5623)" style="font-family:'SourceHanSansTW-Regular-B5pc-H'; font-size:16px;">0.8</text>
<text transform="matrix(1 0 0 1 -0.2287 869.9373)" style="font-family:'SourceHanSansTW-Regular-B5pc-H'; font-size:16px;">0.7</text>
<text transform="matrix(1 0 0 1 -0.2287 919.3124)" style="font-family:'SourceHanSansTW-Regular-B5pc-H'; font-size:16px;">0.6</text>
<text transform="matrix(1 0 0 1 22.9686 931.577)" style="font-family:'SourceHanSansTW-Bold-B5pc-H'; font-size:16px;">2010</text>
<text transform="matrix(1 0 0 1 88.2697 931.577)" style="font-family:'SourceHanSansTW-Bold-B5pc-H'; font-size:16px;">2011</text>
<text transform="matrix(1 0 0 1 161.0862 931.577)" style="font-family:'SourceHanSansTW-Bold-B5pc-H'; font-size:16px;">2012</text>
<text transform="matrix(1 0 0 1 233.9028 931.577)" style="font-family:'SourceHanSansTW-Bold-B5pc-H'; font-size:16px;">2013</text>
<text transform="matrix(1 0 0 1 306.7193 931.577)" style="font-family:'SourceHanSansTW-Bold-B5pc-H'; font-size:16px;">2014</text>
<text transform="matrix(1 0 0 1 379.5363 931.577)" style="font-family:'SourceHanSansTW-Bold-B5pc-H'; font-size:16px;">2015</text>
<text transform="matrix(1 0 0 1 452.3529 931.577)" style="font-family:'SourceHanSansTW-Bold-B5pc-H'; font-size:16px;">2016</text>
<text transform="matrix(1 0 0 1 525.1696 931.577)" style="font-family:'SourceHanSansTW-Bold-B5pc-H'; font-size:16px;">2017</text>
<text transform="matrix(1 0 0 1 597.9859 931.577)" style="font-family:'SourceHanSansTW-Bold-B5pc-H'; font-size:16px;">2018</text>
<text transform="matrix(1 0 0 1 670.8027 931.577)" style="font-family:'SourceHanSansTW-Bold-B5pc-H'; font-size:16px;">2019</text>
<text transform="matrix(1 0 0 1 743.6194 931.577)" style="font-family:'SourceHanSansTW-Bold-B5pc-H'; font-size:16px;">2020</text>
<text transform="matrix(1 0 0 1 816.4362 931.577)" style="font-family:'SourceHanSansTW-Bold-B5pc-H'; font-size:16px;">2021</text>
<text transform="matrix(1 0 0 1 874.7879 623.0616)" style="font-family:'SourceHanSansTW-Regular-B5pc-H'; font-size:16px;">70</text>
<text transform="matrix(1 0 0 1 874.7879 672.4761)" style="font-family:'SourceHanSansTW-Regular-B5pc-H'; font-size:16px;">65</text>
<text transform="matrix(1 0 0 1 874.7879 721.8906)" style="font-family:'SourceHanSansTW-Regular-B5pc-H'; font-size:16px;">60</text>
<text transform="matrix(1 0 0 1 874.7879 771.3047)" style="font-family:'SourceHanSansTW-Regular-B5pc-H'; font-size:16px;">55</text>
<text transform="matrix(1 0 0 1 874.7879 820.7192)" style="font-family:'SourceHanSansTW-Regular-B5pc-H'; font-size:16px;">50</text>
<text transform="matrix(1 0 0 1 874.7879 870.1338)" style="font-family:'SourceHanSansTW-Regular-B5pc-H'; font-size:16px;">45</text>
<text transform="matrix(1 0 0 1 874.7879 919.5479)" style="font-family:'SourceHanSansTW-Regular-B5pc-H'; font-size:16px;">40</text>
<polyline class="st0" points="36.2,700.2 39.5,720.9 39.5,704.9 43.3,717.6 49.4,693.2 52.7,689.9 55.1,674.8 57.6,695.5 
	60.2,686.8 61.2,703 64.5,693.2 65.6,707.8 69.2,692.2 70.8,705.9 72.5,692.2 74.1,709.9 76.5,700.9 79.8,720.9 81.2,710.8 
	82.6,722.6 85.6,707.3 89.6,731.2 92.2,745.4 95.3,727 99.8,747.8 103.1,727.3 105.6,734.6 109.2,717.2 112.9,725.2 116,722.6 
	120,729.9 123.1,736.5 127.1,740.2 131.1,752.7 136,763.3 137.9,771.5 141.9,765.2 144.5,773.6 145.4,782.1 148.9,774.3 
	153.2,798.6 154.8,806.3 154.8,791.3 159.5,819.3 159.5,807 164.2,821.9 164.2,809.6 168.5,794.8 169.9,816.5 172.5,826.1 
	174.8,809.9 176.9,820.9 182.6,800.7 187.3,793.6 191.8,800.9 195.3,780.7 204.5,791.8 211.3,813.4 219.1,796.5 222.4,806.8 
	231.1,797.4 231.1,788.7 235.1,796.7 238.1,783.8 241.6,780.9 246.6,785.6 250.8,771 254.4,766.1 257.6,768.9 262.6,764.5 
	263.8,768.7 267.1,760.5 271.5,770.6 276.2,761.9 279.8,759 279.8,755.3 282.6,748.2 286.8,753.2 292.9,743.3 296.9,751.5 
	303.5,756.5 306.8,759.8 311.3,754.3 313.4,762.6 318.6,754.8 324,760.5 328.2,754.8 336,763.5 342.1,750.5 352.5,768.5 
	357.9,764.5 363.8,770.8 371.1,770.3 378.4,761.2 382.4,752.7 389.6,762.8 395.8,751.8 401.2,756.5 404.2,769.6 407.1,763.8 
	410.4,769.9 413.6,760 416.9,767.8 421.4,772.2 425.6,764.2 428.2,764.5 431.1,756.2 435.3,759 440.2,750.5 445.3,755.5 
	447.1,761.2 449.4,766.6 452.5,758.3 456,772 463.1,761.2 469.6,767 473.4,775.3 477.6,789.4 480.2,798.8 484.5,784.7 488,790.6 
	491.5,800.9 494.6,778.3 496.2,784.7 498.8,778.3 509.4,800.9 513.6,790.6 518.8,791.3 520.5,780.5 524.5,791.8 528.9,782.6 
	533.6,771.5 535.1,732.5 538.8,716.9 546.6,726.1 548,733.2 550.1,726.3 555.1,719.8 560.5,725.6 562.1,737.6 563.5,745.4 
	567.8,741.4 570.6,748.2 573.6,758.8 576.9,741.9 581.6,725.6 586.1,738.8 588.2,731.2 591.5,739.5 594.1,756.7 598.1,723.3 
	600.9,729.6 603.5,720 609.4,735.5 610.8,714.6 617.2,722.6 626.8,708.5 633.4,716.5 636.9,732.9 641.2,717.9 644,724 647.5,741.4 
	655.8,756.2 659.3,740.5 666.1,749.2 667.3,757.9 669.6,747.5 671.8,764.7 673.9,752.5 676.5,766.1 680.9,745.4 685.6,778.6 
	688.9,757.4 691.1,766.1 694.4,750.5 698.1,767.5 700.5,763.3 704.9,787 708.9,767.8 714.4,762.1 716,770.1 720.2,761.4 
	722.8,775.8 730.4,765.9 735.5,783.5 740.5,766.6 742.8,776 742.8,766.1 746.6,773.9 751.5,757.2 755.1,762.8 758.1,756.7 
	761.9,764.5 766.6,776.9 773.2,782.1 776.9,838.3 783.8,817.6 788.5,866.8 792.5,823.8 795.5,865.2 798.6,851.8 800.5,872.2 
	804.9,854.6 806.1,870.3 810.1,864.5 810.1,875.3 814.1,862.1 815.3,875.3 817.4,867.3 820.2,875.3 822.1,866.1 824,875.3 
	824,852.7 827.3,840.9 831.5,849.2 837.4,822.8 840.7,846.3 847.8,793.4 851.5,811 852.9,804.9 857.2,814.6 861.6,787 "/>
<polyline class="st1" points="37.6,752.5 45.4,760.5 52.2,728.7 72.5,753.2 78.1,755.3 83.8,752.9 88,760.5 96.2,745.4 101.6,743 
	106.6,748.9 116,722.6 124.5,732.7 132.5,740 137.3,769.1 143.5,760 148.9,787.3 154.8,791.3 161.9,779.5 166.9,800.2 176.5,795.3 
	184.9,774.1 194.6,784.5 204.5,766.1 211.5,788.9 216,820 222.6,820 229.6,824.5 234.1,806.6 240.5,810.8 247.1,834.3 252.2,811.3 
	258.1,783.3 264.7,775 269.9,796.9 275.5,805.2 283.1,807.5 288.2,803.5 294.8,778.5 307.3,770.3 313.9,769.4 325.4,751.5 
	331.1,789.9 343.7,753.1 347.3,754.3 349.6,750.6 361.6,765.9 367.5,764.2 374.8,753.9 383.5,759 391.1,753.4 397.9,758.6 
	405.2,775 416.7,793.2 422.1,794.6 428,788.2 434.6,790.1 440.9,797.6 447.5,816.2 454.6,817.4 458.4,825.9 468.7,825.9 
	472.5,829.2 476.7,839.3 489.4,801.6 495.8,806.1 501.6,801.6 507.8,792.2 512.8,792.7 519.5,819 526.1,803 533.2,793.6 
	538.8,780.9 550.8,758.1 556.2,739.3 568.2,758.6 577.9,752.2 582.1,754.8 586.4,752.2 598.4,718.3 610.6,735.8 615.5,724.7 
	624.9,720.2 628.5,710.5 635.4,725.7 640.9,729.6 644.9,728.3 652.5,720.9 657.9,733.2 664.9,714.3 677.4,731.2 683.8,729.4 
	687.5,766.5 695.1,761.2 701.2,773.4 706.4,764.2 724.5,802.8 732,805.9 737.9,830.8 752.2,832.5 761.4,837.6 767.5,804.2 
	780.2,818.8 786.6,896.7 792.2,879.3 797.6,793.6 810.1,759 817.6,757.2 823.3,728.5 828.2,736.5 834.4,712.7 840.9,725.9 
	852.2,670.1 858.6,709.2 "/>
<line class="st2" x1="36.2" y1="914.3" x2="861.6" y2="914.3"/>
<text transform="matrix(1 0 0 1 269.4211 576.4155)" style="font-family:'SourceHanSansTW-Bold-B5pc-H'; font-size:20px;">金融股相對大盤表現 vs. ISM製造業指數</text>
<text transform="matrix(1 0 0 1 656.2994 631.1766)" style="font-family:'SourceHanSansTW-Bold-B5pc-H'; font-size:18px;">ISM製造業PMI(右軸)</text>
<text transform="matrix(1 0 0 1 38.1908 875.2798)" class="st3" style="font-family:'SourceHanSansTW-Bold-B5pc-H'; font-size:18px;">史坦普500金融股相對大盤表現(左軸)</text>
<circle class="st3" cx="347.3" cy="868.6" r="7.3"/>
<circle class="st4" cx="642.3" cy="624.5" r="7.3"/>
<g>
	<polygon class="st3" points="808.1,711 799.2,706.3 807.8,700.8 816.3,695.2 816.7,705.4 817,715.6 	"/>
	
		<rect x="797.2" y="703.4" transform="matrix(-0.8865 -0.4627 0.4627 -0.8865 1175.667 1737.8173)" class="st3" width="7.4" height="42.7"/>
</g>
</svg>
