<?xml version="1.0" encoding="utf-8"?>
<!-- Generator: Adobe Illustrator 24.3.0, SVG Export Plug-In . SVG Version: 6.00 Build 0)  -->
<svg version="1.1" id="圖層_1" xmlns="http://www.w3.org/2000/svg" xmlns:xlink="http://www.w3.org/1999/xlink" x="0px" y="0px"
	 viewBox="0 0 228 222" style="enable-background:new 0 0 228 222;" xml:space="preserve">
<style type="text/css">
	.st0{fill:none;stroke:#FF97FF;stroke-width:5;stroke-linecap:round;stroke-linejoin:round;stroke-miterlimit:10;}
</style>
<line class="st0" x1="6.4" y1="209.7" x2="205.1" y2="209.7"/>
<path class="st0" d="M71.7,153.2H10.3c-3.2,0-5.7-2.6-5.7-5.7V144c0-3.2,2.6-5.7,5.7-5.7h61.4c3.2,0,5.7,2.6,5.7,5.7v3.5
	C77.5,150.7,74.9,153.2,71.7,153.2z"/>
<path class="st0" d="M10.3,153.2l6.4,49.4c0,0,1.4,7.1,5.6,7.1"/>
<path class="st0" d="M70.9,153.2l-6.4,49.4c0,0-1.4,7.1-5.6,7.1"/>
<path class="st0" d="M3.7,78.4c0,0-3,16.1,3,24S21.4,113,27.2,113"/>
<path class="st0" d="M16.4,90.4c0,0,30.7,24.2,29,47.8"/>
<path class="st0" d="M46.8,120.8c0,0-11.1-36.5,38.6-36.9C85.4,83.9,90.2,128,46.8,120.8z"/>
<path class="st0" d="M46.8,120.8c0,0,6.4-18.2,19.6-23.3"/>
<polyline class="st0" points="41,7.3 52.9,11.5 35.6,71.5 12,64.8 "/>
<path class="st0" d="M51.3,17.3c0,0,9.6,1.7,17.5,0.8c7.9-0.9,30.7-5.5,34.2-4.4S130.4,29,130.4,29l21.9,27.9V62"/>
<path class="st0" d="M123,46.1l-5.1-3.5H93.7c0,0-7.6-1.2-7.4,6c0.2,7.2,20.8,10.2,24.2,10.4s5.8,4.2,5.5,9s-4.8,8.8-14.1,6.4
	s-34.7-1.8-34.7-1.8s-10.6-2.3-14.8-5.3s-12.9-8.5-12.9-8.5"/>
<path class="st0" d="M110.5,59c0,0,2.1-6.5,13.9-6.5s20.6,9.4,20.6,20.3c0,10.9-8.1,21-20.5,21s-21.2-7.9-21.2-18.7"/>
<path class="st0" d="M110.3,98.5l-6.9,6.2l5.8,8.3c0,0,10.8-11.6,22.9-11.6s15.4,0,15.4,0V90.4"/>
<path class="st0" d="M153.4,76.6c0,0,11.8,2.5,15.9,5.8c0,0,14.6,1.1,26.5-2.9c0,0,1.1,11.4-6.5,20c0,0,4.9,14.5,16.8,15
	s17.1-0.3,17.1,7c0,7.3,1.8,24.8-5.8,30.8c-7.6,6-15.9,8.3-15.9,8.3s-8.5,16.6-16.2,20.8V209"/>
<path class="st0" d="M103.4,209.7v-16.2c0,0-16.4-8.5-21.5-20.3"/>
<path class="st0" d="M162.9,209v-14.6c0,0-20.3,6.2-36.7,2.1"/>
<line class="st0" x1="126.2" y1="192.9" x2="126.2" y2="209"/>
<circle class="st0" cx="178.4" cy="125.5" r="5.6"/>
</svg>
