<?xml version="1.0" encoding="utf-8"?>
<!-- Generator: Adobe Illustrator 24.3.0, SVG Export Plug-In . SVG Version: 6.00 Build 0)  -->
<svg version="1.1" id="分離模式" xmlns="http://www.w3.org/2000/svg" xmlns:xlink="http://www.w3.org/1999/xlink" x="0px"
	 y="0px" viewBox="0 0 141.2 121.1" style="enable-background:new 0 0 141.2 121.1;" xml:space="preserve">
<style type="text/css">
	.st0{fill:none;stroke:#A20052;stroke-width:3;stroke-miterlimit:10;}
</style>
<polyline class="st0" points="0,119.6 46.9,119.6 46.9,66.2 13.3,66.2 13.3,117.9 "/>
<line class="st0" x1="15" y1="78.7" x2="45.3" y2="78.7"/>
<line class="st0" x1="15" y1="92.9" x2="45.3" y2="92.9"/>
<line class="st0" x1="15" y1="107.1" x2="45.3" y2="107.1"/>
<polyline class="st0" points="38.3,60.6 38.3,17 71.9,17 71.9,119.6 "/>
<line class="st0" x1="40" y1="28.7" x2="70.3" y2="28.7"/>
<line class="st0" x1="40" y1="41.2" x2="70.3" y2="41.2"/>
<line class="st0" x1="40" y1="53.7" x2="70.3" y2="53.7"/>
<line class="st0" x1="53" y1="66.2" x2="70.3" y2="66.2"/>
<line class="st0" x1="53" y1="78.7" x2="70.3" y2="78.7"/>
<polyline class="st0" points="53,92.9 98.6,92.9 98.6,117.9 "/>
<line class="st0" x1="53" y1="107.1" x2="98.6" y2="107.1"/>
<line class="st0" x1="53" y1="119.6" x2="111.5" y2="119.6"/>
<polyline class="st0" points="78.2,70.2 103.4,51.2 95.6,40.6 138.7,38.3 124,78.9 116.3,68.3 85.3,91.2 "/>
<line class="st0" x1="103" y1="64.9" x2="106.2" y2="62.5"/>
<line class="st0" x1="109.4" y1="60.1" x2="112.6" y2="57.7"/>
<line class="st0" x1="115.8" y1="55.3" x2="119" y2="53"/>
<line class="st0" x1="122.2" y1="50.6" x2="125.4" y2="48.2"/>
<circle class="st0" cx="18" cy="46.8" r="7.3"/>
<circle class="st0" cx="95.3" cy="15" r="13.2"/>
<circle class="st0" cx="117.6" cy="98.1" r="6.3"/>
<g>
	<path class="st0" d="M98.8,10.2c0,0-4.2-3.5-6.2-0.2c-1.9,3.1,3.5,5.4,3.5,5.4s3.2,1.5,1.7,4c-1.3,2.2-4,1.5-5.1,1
		c-1.1-0.5-2.1-1.1-2.1-1.1"/>
	<line class="st0" x1="95.3" y1="5" x2="95.3" y2="8.5"/>
	<line class="st0" x1="95.3" y1="20.8" x2="95.3" y2="24.4"/>
</g>
</svg>
