<?xml version="1.0" encoding="utf-8"?>
<!-- Generator: Adobe Illustrator 24.3.0, SVG Export Plug-In . SVG Version: 6.00 Build 0)  -->
<svg version="1.1" id="圖層_1" xmlns="http://www.w3.org/2000/svg" xmlns:xlink="http://www.w3.org/1999/xlink" x="0px" y="0px"
	 viewBox="0 0 228 222" style="enable-background:new 0 0 228 222;" xml:space="preserve">
<style type="text/css">
	.st0{fill:none;stroke:#FFFFFF;stroke-width:5;stroke-linecap:round;stroke-linejoin:round;stroke-miterlimit:10;}
	.st1{fill:none;stroke:#FFFFFF;stroke-width:5;stroke-linecap:round;stroke-linejoin:round;}
	.st2{fill:none;stroke:#FFFFFF;stroke-width:5;stroke-linecap:round;stroke-linejoin:round;stroke-dasharray:10.028,10.028;}
</style>
<polyline class="st0" points="124.2,190.8 4.9,190.8 4.9,21.9 163.9,21.9 163.9,77.2 "/>
<polyline class="st0" points="163.9,21.9 195.4,10.8 208.6,10.8 208.6,84.2 "/>
<line class="st0" x1="195.4" y1="10.8" x2="195.4" y2="64.5"/>
<polyline class="st0" points="150.3,84.2 150.3,35.3 19.9,35.3 19.9,161.6 110.1,161.6 "/>
<line class="st0" x1="19.9" y1="174.1" x2="26.3" y2="174.1"/>
<line class="st0" x1="37.6" y1="174.1" x2="43.9" y2="174.1"/>
<line class="st0" x1="55.2" y1="174.1" x2="61.6" y2="174.1"/>
<line class="st0" x1="72.8" y1="174.1" x2="79.2" y2="174.1"/>
<line class="st0" x1="90.5" y1="174.1" x2="96.8" y2="174.1"/>
<path class="st0" d="M41.4,147.5v-8.8c0,0-0.3-3.4,3.6-3.4s26.7,0,26.7,0s3.1-0.3,3.1,2.5s0,9.6,0,9.6"/>
<path class="st0" d="M41.4,130.8v-8.8c0,0-0.3-3.4,3.6-3.4s26.7,0,26.7,0s3.1-0.3,3.1,2.5c0,2.8,0,9.6,0,9.6"/>
<circle class="st0" cx="62.1" cy="80" r="27.3"/>
<path class="st0" d="M68.4,72.7c0,0-2.9-4-6.4-4c-3.4,0-6.4,2.4-6.4,5.3s2.4,6,6.9,6s6.9,3.1,6.9,5.4s-2.6,6.1-6.4,6.1
	s-7.6-4.2-7.6-4.2"/>
<line class="st0" x1="62.1" y1="63.2" x2="62.1" y2="68.7"/>
<line class="st0" x1="63.9" y1="96.7" x2="63.9" y2="91.5"/>
<path class="st0" d="M168.8,86.4c0,0-17.9,16.5-40.6,8.6c0,0-20.5,36.6-10.4,66.7s27.8,42.8,50.9,48.2c0,0,37.6-3.2,51.9-48.2
	c10.8-34.1-12-66.6-12-66.6S184.6,103.3,168.8,86.4z"/>
<path class="st0" d="M152.9,109.2c8-0.9,16.4-6.6,16.4-6.6s6.9,5.6,14.9,6.6"/>
<path class="st0" d="M208.6,127.8c0,0,4.2,25.2-4.7,40.5s-22.2,24-34.7,28.2"/>
<ellipse class="st0" cx="159.7" cy="134.1" rx="6.1" ry="7.8"/>
<ellipse class="st0" cx="180.2" cy="159.4" rx="6.1" ry="7.8"/>
<line class="st0" x1="179.2" y1="130.8" x2="158.8" y2="163.8"/>
<g>
	<g>
		<path class="st1" d="M129.1,126.4c0,0-0.4,2.1-0.6,5.5"/>
		<path class="st2" d="M128.2,141.8c0.3,10,2.3,22.9,9.8,33.2"/>
		<path class="st1" d="M141.2,178.9c1.2,1.3,2.6,2.6,4.1,3.7"/>
	</g>
</g>
<polyline class="st0" points="89.4,147.5 89.4,135.3 115,135.3 "/>
<polyline class="st0" points="89.4,130.8 89.4,118.6 118.7,118.6 "/>
<polyline class="st0" points="89.4,116.2 89.4,104.1 123.9,104.1 "/>
</svg>
