<?xml version="1.0" encoding="utf-8"?>
<!-- Generator: Adobe Illustrator 24.3.0, SVG Export Plug-In . SVG Version: 6.00 Build 0)  -->
<svg version="1.1" id="圖層_1" xmlns="http://www.w3.org/2000/svg" xmlns:xlink="http://www.w3.org/1999/xlink" x="0px" y="0px"
	 viewBox="0 0 228 222" style="enable-background:new 0 0 228 222;" xml:space="preserve">
<style type="text/css">
	.st0{fill:none;stroke:#FF97FF;stroke-width:5;stroke-linecap:round;stroke-linejoin:round;stroke-miterlimit:10;}
</style>
<line class="st0" x1="143.3" y1="51" x2="143.3" y2="122.3"/>
<circle class="st0" cx="62.4" cy="193.9" r="9.5"/>
<circle class="st0" cx="62.4" cy="193.9" r="25.2"/>
<path class="st0" d="M125.2,193.9c0,6.2,4.2,11.3,10.6,9.5c45.5-12.4,79.4-51.5,79.4-97.8S181.7,3,114,3S13.4,59.5,13.4,105.4
	s30.9,71.1,30.9,71.1"/>
<path class="st0" d="M102.3,142.1c0,3.6,4.4,8.8,9.4,8.8s4.8-3.4,4.8-7.6c0-4.2,0.7-9.7-5.3-9.7s-10.1,6.5-10.1,6.5
	s-11.8,0.2-5.6,13.4c6.2,13.2,17.5,40.5,29.6,40.5c12.5,0,27-24.9,31.9-38.9s-1.8-15.2-4.6-15c0,0-6.2-6.5-10.8-6.5
	c-4.6,0-4.8,4.2-4.8,8.3s0.4,8.8,4.8,8.8c4.4,0,9.9-9.2,9.9-9.2"/>
<path class="st0" d="M115.4,46.2c0,0,3.5-5.3,8.6-5.3s42.5,0,42.5,0s9.4,0.7,9.4,12s0,68.1,0,68.1s-2.5,9.9-7.2,9.9
	c-4.8,0-8.6,0-8.6,0"/>
<circle class="st0" cx="126.2" cy="62.3" r="3"/>
<circle class="st0" cx="126.2" cy="85.9" r="3"/>
<circle class="st0" cx="126.2" cy="109" r="3"/>
<circle class="st0" cx="158.8" cy="62.3" r="3"/>
<circle class="st0" cx="158.8" cy="85.9" r="3"/>
<circle class="st0" cx="158.8" cy="109" r="3"/>
<path class="st0" d="M113.2,121.4V90.9c0,0-4.6-14.1-15.4-14.1"/>
<path class="st0" d="M83.2,151.2H68.4c0,0-12-5.8-12-12.7c0-6.9,0-49.6,0-49.6s1.4-12.1,15.7-12.1"/>
<path class="st0" d="M68.9,74.3v-9c0,0-4.8,1.3-4.8-4.4s-0.9-10.8,5.6-10.8s32.8,0,32.8,0s4.9,0.9,4.9,4.2c0,3.4,0,7.9,0,7.9
	s0.4,3-4.8,3v11.5"/>
<line class="st0" x1="68.9" y1="65.3" x2="102.8" y2="65.3"/>
<path class="st0" d="M56.4,97.9h29.5c0,0,3.4,0.4,3.4,3.5s0,22.1,0,22.1s0.5,4.1-3.4,4.1s-29.5,0-29.5,0"/>
</svg>
