<svg xmlns="http://www.w3.org/2000/svg" width="318" height="269" viewBox="0 0 318 269">
  <defs>
    <style>
      .cls-1 {
        fill: #4e9d2d;
      }

      .cls-1, .cls-2, .cls-3, .cls-4, .cls-5, .cls-6, .cls-7 {
        stroke: #fff;
        stroke-linejoin: round;
      }

      .cls-2 {
        fill: #82bc00;
      }

      .cls-3 {
        fill: #005598;
      }

      .cls-4 {
        fill: #5fc0eb;
      }

      .cls-5 {
        fill: #00a0dc;
      }

      .cls-6 {
        fill: #a5d7f5;
      }

      .cls-7 {
        fill: #aac671;
      }

      .cls-10, .cls-8 {
        fill: #333;
      }

      .cls-8 {
        font-size: 16px;
        font-family: SourceHanSansTW-Regular, Source Han Sans TW;
      }

      .cls-8, .cls-9 {
        isolation: isolate;
      }

      .cls-9 {
        fill: #fff;
        font-size: 13px;
        font-family: ArialMT, Arial;
      }

      .cls-10 {
        font-size: 20px;
        font-family: SourceHanSansTW-Bold, Source Han Sans TW;
        font-weight: 700;
      }
    </style>
  </defs>
  <g id="组_157" data-name="组 157" transform="translate(-293 -185)">
    <g id="chart" transform="translate(-667.205 208.224)">
      <g id="组_36" data-name="组 36" transform="translate(-103.998 -33.998)">
        <path id="路径_42" data-name="路径 42" class="cls-1" d="M1215.685,49.776a108.5,108.5,0,0,1,98.093,62.088l-49.036,23.2a54.249,54.249,0,0,0-49.047-31.044Z" transform="translate(8.996)"/>
        <path id="路径_43" data-name="路径 43" class="cls-2" d="M1309.755,106.805a108.5,108.5,0,0,1,10.294,41.973l-54.205,2.169a54.239,54.239,0,0,0-5.148-20.986Z" transform="translate(13.067 5.157)"/>
        <path id="路径_44" data-name="路径 44" class="cls-3" d="M1326.1,145.4a108.5,108.5,0,0,1-132.326,110.061l11.954-52.915a54.248,54.248,0,0,0,66.163-55.03Z" transform="translate(7.015 8.647)"/>
        <path id="路径_45" data-name="路径 45" class="cls-4" d="M1197.979,251.865a108.5,108.5,0,0,1-51.839-28.232l37.929-38.787a54.237,54.237,0,0,0,25.92,14.116Z" transform="translate(2.707 12.215)"/>
        <path id="路径_46" data-name="路径 46" class="cls-5" d="M1148.77,234.015a108.5,108.5,0,0,1,11.541-164.821l32.2,43.662a54.247,54.247,0,0,0-5.771,82.411Z" transform="translate(0 1.756)"/>
        <path id="路径_47" data-name="路径 47" class="cls-6" d="M1156.733,70.868a108.5,108.5,0,0,1,57.432-20.893l3.437,54.14a54.256,54.256,0,0,0-28.716,10.446Z" transform="translate(3.665 0.018)"/>
        <path id="路径_48" data-name="路径 48" class="cls-7" d="M1209.5,49.986q3.3-.206,6.614-.21l.075,54.249q-1.654,0-3.307.1Z" transform="translate(8.437 0)"/>
      </g>
      <g id="组_51" data-name="组 51" transform="translate(-54 4)">
        <text id="產業型" class="cls-8" transform="translate(1284.205 39.776)"><tspan x="-24" y="0">產業型</tspan></text>
        <text id="債券型" class="cls-8" transform="translate(1308.205 98.776)"><tspan x="-24" y="0">債券型</tspan></text>
        <text id="美國股票" class="cls-8" transform="translate(1260.205 236.776)"><tspan x="-32" y="0">美國股票</tspan></text>
        <text id="新興市場" class="cls-8" transform="translate(1085.205 232.776)"><tspan x="-32" y="0">新興市場</tspan></text>
        <text id="平衡型" class="cls-8" transform="translate(1038.205 149.776)"><tspan x="-24" y="0">平衡型</tspan></text>
        <text id="歐洲股票" class="cls-8" transform="translate(1105.205 15.776)"><tspan x="-32" y="0">歐洲股票</tspan></text>
        <text id="投信基金" class="cls-8" transform="translate(1175.205 -8.224)"><tspan x="-32" y="0">投信基金</tspan></text>
      </g>
      <g id="组_52" data-name="组 52" transform="translate(-85 -4)">
        <text id="_29.2_" data-name="29.2%" class="cls-9" transform="translate(1255.205 190.776)"><tspan x="-18.43" y="0">29.2%</tspan></text>
        <text id="_8.8_" data-name="8.8%" class="cls-9" transform="translate(1165.205 205.776)"><tspan x="-14.815" y="0">8.8%</tspan></text>
        <text id="_27.6_" data-name="27.6%" class="cls-9" transform="translate(1125.205 131.776)"><tspan x="-18.43" y="0">27.6%</tspan></text>
        <text id="_9.1_" data-name="9.1%" class="cls-9" transform="translate(1176.205 52.776)"><tspan x="-14.815" y="0">9.1%</tspan></text>
        <text id="_18.0_" data-name="18.0%" class="cls-9" transform="translate(1255.205 67.776)"><tspan x="-18.43" y="0">18.0%</tspan></text>
        <text id="_6.4_" data-name="6.4%" class="cls-9" transform="translate(1288.205 116.776)"><tspan x="-14.815" y="0">6.4%</tspan></text>
      </g>
    </g>
    <text id="投資比重" class="cls-10" transform="translate(453 336)"><tspan x="-40" y="0">投資比重</tspan></text>
  </g>
</svg>
