<?xml version="1.0" encoding="utf-8"?>
<!-- Generator: Adobe Illustrator 24.3.0, SVG Export Plug-In . SVG Version: 6.00 Build 0)  -->
<svg version="1.1" id="圖層_1" xmlns="http://www.w3.org/2000/svg" xmlns:xlink="http://www.w3.org/1999/xlink" x="0px" y="0px"
	 viewBox="0 0 680 210" style="enable-background:new 0 0 680 210;" xml:space="preserve">
<style type="text/css">
	.st0{fill:none;stroke:#E6E6E6;stroke-miterlimit:10;}
	.st1{fill:#005598;}
	.st2{fill:#E03B53;}
	.st3{fill:none;stroke:#FFE97C;stroke-width:2;stroke-linejoin:round;stroke-miterlimit:10;}
	.st4{fill:none;stroke:#E03B53;stroke-width:2;stroke-linejoin:round;stroke-miterlimit:10;}
	.st5{fill:none;stroke:#005598;stroke-width:2;stroke-linejoin:round;stroke-miterlimit:10;}
	.st6{fill:none;stroke:#000000;stroke-miterlimit:10;}
	.st7{enable-background:new    ;}
	.st8{fill:#FFFFFF;}
</style>
<g>
	<line class="st0" x1="502" y1="535.5" x2="138" y2="535.5"/>
	<line class="st0" x1="502" y1="500.9" x2="138" y2="500.9"/>
	<line class="st0" x1="502" y1="466.3" x2="138" y2="466.3"/>
	<line class="st0" x1="502" y1="431.7" x2="138" y2="431.7"/>
	<line class="st0" x1="502" y1="397.1" x2="138" y2="397.1"/>
	<line class="st0" x1="502" y1="362.5" x2="138" y2="362.5"/>
</g>
<g>
	<g>
		<text transform="matrix(1 0 0 1 20.5293 357.2939)" style="font-family:'SourceHanSansTW-Regular-B5pc-H'; font-size:16px;">基金淨值</text>
		<rect y="344" class="st1" width="13" height="13"/>
	</g>
	<g>
		<text transform="matrix(1 0 0 1 20.5293 387.2939)" style="font-family:'SourceHanSansTW-Regular-B5pc-H'; font-size:16px;">布林通道均線</text>
		<rect y="374" class="st2" width="13" height="13"/>
	</g>
</g>
<g>
	<line class="st3" x1="106.3" y1="468.5" x2="464.2" y2="344"/>
	<line class="st4" x1="124.1" y1="510.8" x2="482" y2="386.2"/>
	<line class="st3" x1="139.6" y1="553" x2="497.6" y2="428.5"/>
	<path class="st5" d="M115.2,494.1c0,0-8.9-24.5,13.3-31.1c22.2-6.7,71.1,66.7,97.8,57.8s6.7-95.6,33.4-104.5s64.5,71.1,100.1,57.8
		s-2.2-91.2,31.1-102.3c33.4-11.1,68.9,68.9,100.1,57.8c4.4-2.2,4.4-8.9,4.4-8.9"/>
</g>
<g>
	<text transform="matrix(1 0 0 1 19.0009 537.2939)" style="font-family:'SourceHanSansTW-Regular-B5pc-H'; font-size:16px;">布林通道下限</text>
	<circle cx="162" cy="546" r="6"/>
	<line class="st6" x1="162" y1="546" x2="119" y2="534"/>
</g>
<g>
	<text transform="matrix(1 0 0 1 44.001 432.2939)" style="font-family:'SourceHanSansTW-Regular-B5pc-H'; font-size:16px;">布林通道上限</text>
	<circle cx="190" cy="439" r="6"/>
	<line class="st6" x1="190" y1="439" x2="147" y2="427"/>
</g>
<path class="st1" d="M673.5,397h-119c-3.6,0-6.5-2.9-6.5-6.5v-40.1c0-3.6,2.9-6.5,6.5-6.5h119.1c3.6,0,6.5,2.9,6.5,6.5v40.1
	C680,394.1,677.1,397,673.5,397z"/>
<g>
	<text transform="matrix(1 0 0 1 568 375.647)" class="st8" style="font-family:'SourceHanSansTW-Heavy-B5pc-H'; font-size:16px;">逢高少量加碼</text>
</g>
<circle class="st1" cx="390.5" cy="371.5" r="6.5"/>
<polygon class="st1" points="391,372 551.1,361.8 551.1,375.6 "/>
<path class="st1" d="M673.5,498h-119c-3.6,0-6.5-2.9-6.5-6.5v-40.1c0-3.6,2.9-6.5,6.5-6.5h119.1c3.6,0,6.5,2.9,6.5,6.5v40.1
	C680,495.1,677.1,498,673.5,498z"/>
<g>
	<text transform="matrix(1 0 0 1 568 476.647)" class="st8" style="font-family:'SourceHanSansTW-Heavy-B5pc-H'; font-size:16px;">逢低大量加碼</text>
</g>
<circle class="st1" cx="360.5" cy="474.5" r="6.5"/>
<polygon class="st1" points="360,475 561.1,462.8 561.1,476.6 "/>
<g>
	<line class="st0" x1="502" y1="192.4" x2="138" y2="192.4"/>
	<line class="st0" x1="502" y1="157.8" x2="138" y2="157.8"/>
	<line class="st0" x1="502" y1="123.2" x2="138" y2="123.2"/>
	<line class="st0" x1="502" y1="88.6" x2="138" y2="88.6"/>
	<line class="st0" x1="502" y1="54" x2="138" y2="54"/>
	<line class="st0" x1="502" y1="19.4" x2="138" y2="19.4"/>
</g>
<g>
	<g>
		<g class="st7">
			<path d="M32.4,9.5c0.9,1.1,2.3,2,3.6,2.5c-0.3,0.2-0.6,0.6-0.8,0.9c-1.6-0.6-3.1-2-4.1-3.4h-5c-1,1.5-2.6,2.9-4.2,3.6
				c-0.2-0.3-0.5-0.7-0.8-0.9c1.3-0.5,2.7-1.5,3.6-2.7h-3.5v-1h3.2V3.3H22v-1h2.4V0.8h1.2v1.5h5.8V0.8h1.2v1.5h2.4v1h-2.4v5.1h3.1v1
				H32.4z M29.1,14h5.5v1H22.5v-1h5.4v-1.7h-3.3v-1h3.3V10h1.2v1.3h3.3v1h-3.3V14z M25.7,3.3v1.1h5.8V3.3H25.7z M25.7,6.4h5.8V5.3
				h-5.8V6.4z M25.7,8.4h5.8V7.3h-5.8V8.4z"/>
			<path d="M45.1,6.7v2.2h5.6v1.1h-5.6v3.9h6.3v1.1H37.7v-1.1h6.2V9.9h-5.5V8.8h5.5V6.7h-3.5V5.8c-0.8,0.4-1.7,0.8-2.5,1.2
				c-0.2-0.3-0.5-0.8-0.8-1.1c3-1,5.9-2.8,7.4-5.2l1.1,0.5c-0.1,0.2-0.3,0.4-0.4,0.6c1.6,1.7,4.4,3.4,6.8,4.1
				c-0.3,0.2-0.7,0.7-0.8,1c-0.8-0.3-1.7-0.7-2.6-1.2v1H45.1z M40.7,10.3c0.6,0.9,1.3,2.1,1.5,2.9l-1,0.4c-0.2-0.7-0.9-2-1.5-2.9
				L40.7,10.3z M48.4,5.6c-1.4-0.8-2.8-1.9-3.9-3c-1.1,1.2-2.3,2.2-3.7,3H48.4z M46.6,13.2c0.6-0.8,1.3-2,1.7-2.9l1.1,0.4
				c-0.6,1-1.3,2.1-1.9,2.9L46.6,13.2z"/>
			<path d="M55.9,8c-0.6-0.5-1.8-1.3-2.8-1.7l0.6-0.9c1,0.4,2.2,1.1,2.8,1.6L55.9,8z M53.4,14.4c0.8-1.2,1.9-3.2,2.8-4.9l0.8,0.8
				c-0.8,1.6-1.8,3.5-2.7,5L53.4,14.4z M56.7,3.7c-0.6-0.6-1.8-1.4-2.8-1.9L54.5,1c1,0.5,2.2,1.2,2.8,1.8L56.7,3.7z M67.8,9.2h-1.3
				v2.4h-3.8v2.2c0,0.7-0.1,1-0.6,1.2c-0.5,0.2-1.3,0.2-2.5,0.2c-0.1-0.3-0.2-0.8-0.4-1.1c0.9,0,1.8,0,2,0c0.3,0,0.3-0.1,0.3-0.3
				v-2.2H58v-1h3.6V9.2h-4.5v-1h4.5V6.8h-3.6v-1h8.4v2.4h1.3V9.2z M66.6,1.7c-2.3,0.6-5.8,1.1-8.8,1.3c0-0.3-0.2-0.7-0.3-0.9
				c2.9-0.2,6.3-0.7,8.2-1.2L66.6,1.7z M59,5.7c-0.1-0.6-0.5-1.4-0.9-2L59,3.3c0.4,0.6,0.8,1.4,0.9,2L59,5.7z M62,5.5
				c-0.1-0.6-0.4-1.5-0.8-2.2L62.1,3c0.4,0.7,0.7,1.6,0.8,2.2L62,5.5z M62.8,8.2h2.7V6.8h-2.7V8.2z M65.5,9.2h-2.7v1.5h2.7V9.2z
				 M64.2,5.1c0.4-0.7,1-1.7,1.3-2.5L66.6,3c-0.4,0.9-1,1.8-1.4,2.4L64.2,5.1z"/>
			<path d="M73.9,1.2c-0.4,1.2-1,2.5-1.6,3.6v10.6h-1.1V6.6c-0.4,0.6-0.9,1.2-1.4,1.7c-0.1-0.3-0.5-0.9-0.7-1.2
				c1.5-1.6,2.8-3.9,3.7-6.3L73.9,1.2z M83.8,13.9v1H73.1v-1h1.5V5h2.8c0.1-0.4,0.2-1,0.3-1.5h-3.9v-1h4.1c0.1-0.6,0.2-1.2,0.2-1.6
				l1.3,0.1c-0.1,0.5-0.2,1-0.3,1.6h4.3v1h-4.5C78.7,4,78.6,4.5,78.5,5h3.9v8.9H83.8z M75.7,5.9v1.3h5.6V5.9H75.7z M81.3,8.1h-5.6
				v1.4h5.6V8.1z M75.7,11.7h5.6v-1.4h-5.6V11.7z M75.7,13.9h5.6v-1.3h-5.6V13.9z"/>
		</g>
		<rect y="0.9" class="st1" width="13" height="13"/>
	</g>
	<g>
		<g class="st7">
			<path d="M26.9,34.4c-0.5,1-1,2-1.7,2.9h3.5v-2.1h1.2v2.1h4.8v5.1c0,0.6-0.1,1-0.6,1.2c-0.5,0.2-1.3,0.2-2.7,0.2
				c0-0.3-0.2-0.8-0.4-1.1c1,0,2,0,2.2,0c0.3,0,0.4-0.1,0.4-0.3v-4h-3.6v7h-1.2v-7h-3.4V44h-1.2v-5.3c-0.7,0.8-1.5,1.5-2.3,2.1
				c-0.2-0.3-0.5-0.7-0.7-1c1.9-1.3,3.4-3.3,4.5-5.4h-4v-1.2h4.5c0.4-0.8,0.6-1.6,0.8-2.4l1.2,0.3c-0.2,0.7-0.5,1.4-0.8,2.2h8.1v1.2
				H26.9z"/>
			<path d="M43.3,39.7c-0.4-0.6-1.2-1.7-1.8-2.5v8.2h-1.2v-7.8c-0.7,1.9-1.6,3.8-2.6,4.9c-0.1-0.4-0.4-0.8-0.6-1.1
				c1.2-1.3,2.4-3.8,3-6h-2.6v-1.1h2.8v-3.4h1.2v3.4h2.3v1.1h-2.3v0.4c0.5,0.5,2.2,2.4,2.6,2.9L43.3,39.7z M48.8,35.4
				c0.7,2.5,1.9,5.1,3.2,6.5c-0.3,0.2-0.7,0.6-0.9,0.9c-1-1.2-1.9-3.2-2.6-5.3v7.9h-1.2v-7.9c-0.8,2.2-2,4.3-3.3,5.5
				c-0.2-0.3-0.5-0.8-0.7-1c1.5-1.5,3-4.1,3.7-6.7h-2.6v-1.1h2.9v-3.4h1.2v3.4h3v1.1H48.8z"/>
			<path d="M57.5,38.6c-0.2,1.4-0.6,2.6-1.1,3.6c1.1,1.7,3.1,1.9,6,1.9c1.7,0,4-0.1,5.6-0.2c-0.2,0.3-0.3,0.8-0.4,1.1
				c-1.5,0.1-3.5,0.1-5.2,0.1c-3.2,0-5.2-0.3-6.4-2.1c-0.6,1-1.3,1.8-2.1,2.3c-0.2-0.2-0.6-0.7-0.8-0.8c1.5-1,2.7-2.7,3.2-5.2h-1.7
				c-0.4,0-0.8,0.1-0.9,0.2c-0.1-0.3-0.3-0.8-0.4-1.1c0.2-0.1,0.5-0.2,0.8-0.5c0.4-0.4,1.3-1.6,2-2.6h-2.6v-1h3.3l0.2-0.1l0.8,0.4
				c-0.7,0.9-1.9,2.6-2.8,3.6h1.8l0.2,0L57.5,38.6z M55.9,33.9c-0.4-0.7-1.3-1.8-2-2.5l0.9-0.5c0.7,0.8,1.6,1.8,2,2.4L55.9,33.9z
				 M59.4,43h-1.1v-8.2h4.6c-0.9-0.5-2.1-1-3.1-1.3l0.8-0.7c0.7,0.2,1.5,0.6,2.2,0.9c0.8-0.4,1.6-0.8,2.2-1.3h-6.7v-0.9h7.8l0.2-0.1
				l0.7,0.6c-0.8,0.8-2,1.6-3.2,2.2c0.5,0.2,0.9,0.4,1.2,0.6h2v7.1c0,0.6-0.1,0.8-0.5,1c-0.4,0.2-1.1,0.2-2.1,0.2
				c0-0.3-0.2-0.7-0.3-0.9c0.8,0,1.4,0,1.6,0c0.2,0,0.3-0.1,0.3-0.3v-1.5h-2.9V43h-1v-2.6h-2.7V43z M59.4,35.7v1.4h2.7v-1.4H59.4z
				 M62.1,39.5V38h-2.7v1.5H62.1z M66.1,35.7h-2.9v1.4h2.9V35.7z M66.1,39.5V38h-2.9v1.5H66.1z"/>
			<path d="M73.5,38.6c-0.2,1.4-0.6,2.6-1.1,3.6c1.1,1.7,3.1,1.9,6,1.9c1.7,0,4-0.1,5.6-0.2c-0.2,0.3-0.3,0.8-0.4,1.1
				c-1.5,0.1-3.5,0.1-5.2,0.1c-3.2,0-5.2-0.3-6.4-2.1c-0.6,1-1.3,1.8-2.1,2.3c-0.2-0.2-0.6-0.7-0.8-0.8c1.5-1,2.7-2.7,3.2-5.2h-1.7
				c-0.4,0-0.8,0.1-0.9,0.2c-0.1-0.3-0.3-0.8-0.4-1.1c0.2-0.1,0.5-0.2,0.8-0.5c0.4-0.4,1.3-1.6,2-2.6h-2.6v-1h3.3l0.2-0.1l0.8,0.4
				c-0.7,0.9-1.9,2.6-2.8,3.6h1.8l0.2,0L73.5,38.6z M71.9,33.9c-0.4-0.7-1.3-1.8-2-2.5l0.9-0.5c0.7,0.8,1.6,1.8,2,2.4L71.9,33.9z
				 M77.4,35.2c0.1-0.4,0.3-0.9,0.4-1.3h-4.2v-1h2.7c-0.2-0.5-0.7-1.2-1-1.7l0.9-0.4c0.4,0.5,0.9,1.3,1.1,1.7l-0.7,0.3h2.9
				c0.4-0.6,1-1.5,1.2-2.1l1.2,0.3c-0.4,0.6-0.8,1.2-1.2,1.8h3v1H79c-0.2,0.4-0.4,0.9-0.5,1.3h3.8v7.5h-7.4v-7.5H77.4z M81.1,36.1
				H76v1.3h5.1V36.1z M81.1,38.2H76v1.3h5.1V38.2z M81.1,40.4H76v1.3h5.1V40.4z"/>
			<path d="M99.6,33.5c0,0,0,0.5,0,0.6c-0.3,7.3-0.5,9.9-1.1,10.7c-0.4,0.5-0.7,0.6-1.3,0.7c-0.5,0.1-1.5,0-2.5,0
				c0-0.4-0.2-0.9-0.4-1.2c1.1,0.1,2,0.1,2.4,0.1c0.3,0,0.5,0,0.7-0.3c0.5-0.5,0.8-3,1-9.5h-5.7c-0.6,1.1-1.2,2.1-1.9,2.9
				c-0.2-0.2-0.8-0.5-1.1-0.7c0.3-0.3,0.5-0.6,0.8-0.9h-1.8v4.9c0.6-0.3,1.3-0.6,2-0.9l0.3,1.1c-1.9,0.9-3.8,1.9-5.3,2.6l-0.4-1.2
				c0.6-0.3,1.5-0.6,2.3-1V36h-2.1v-1.1h2.1v-3.7h1.2v3.7h1.9v1c1-1.4,1.9-3.2,2.4-5l1.2,0.3c-0.3,0.8-0.6,1.6-0.9,2.3H99.6z
				 M91.4,40.5h5.4v1.1h-5.4V40.5z M96.6,36.8v1.1h-4.8v-1.1H96.6z"/>
			<path d="M105.8,40.5c0-0.3-0.1-0.6-0.2-0.9c-3.2,0.5-3.7,0.6-4,0.7c-0.1-0.3-0.3-0.8-0.4-1.1c0.3-0.1,0.7-0.5,1.2-1.1
				c0.2-0.3,0.8-0.9,1.3-1.8c-1.6,0.2-2,0.3-2.2,0.4c-0.1-0.2-0.3-0.8-0.4-1.1c0.3-0.1,0.5-0.4,0.8-0.9c0.4-0.5,1.4-2.3,2-4l1.1,0.4
				c-0.7,1.5-1.6,3.1-2.4,4.2l1.7-0.2c0.4-0.7,0.8-1.4,1.2-2.1l1.1,0.6c-1,1.8-2.3,3.7-3.6,5.2l2.3-0.3c-0.1-0.5-0.3-1.1-0.5-1.6
				l0.9-0.2c0.4,1.1,0.8,2.5,0.9,3.4L105.8,40.5z M102.9,41.2c-0.2,1.4-0.5,2.9-0.8,3.9c-0.2-0.1-0.7-0.3-0.9-0.4
				c0.4-1,0.6-2.4,0.8-3.7L102.9,41.2z M104.4,41c0.2,1.1,0.4,2.5,0.4,3.4l-0.9,0.2c0-0.9-0.2-2.3-0.4-3.4L104.4,41z M105.8,40.6
				c0.3,0.8,0.7,1.9,0.8,2.6l-0.9,0.3c-0.1-0.7-0.5-1.8-0.8-2.6L105.8,40.6z M110.6,39.6c-0.6,2.4-2,4.1-3.6,5
				c-0.2-0.3-0.5-0.7-0.7-0.8c1.2-0.6,2.4-1.9,2.9-3.4h-2.1v-1h2.5l0.2,0L110.6,39.6z M115.5,39.4c-0.7,0.7-1.5,1.4-2.2,1.9
				c0.7,1.1,1.6,2,2.6,2.5c-0.3,0.2-0.6,0.6-0.8,0.9c-1.3-0.8-2.3-2.1-3-3.6v3c0,0.6-0.1,0.9-0.6,1.1c-0.4,0.2-1.1,0.2-2.1,0.2
				c-0.1-0.3-0.2-0.8-0.4-1.1c0.8,0,1.4,0,1.6,0c0.2,0,0.3-0.1,0.3-0.3v-6h-3.2v-5.6h2.4c0.2-0.5,0.4-1.2,0.5-1.7l1.3,0.3
				c-0.2,0.5-0.5,1-0.7,1.4h3.6v5.6h-2.9v0.6c0.2,0.6,0.4,1.2,0.8,1.8c0.6-0.6,1.4-1.3,1.8-1.9L115.5,39.4z M108.9,34.8h5v-1.4h-5
				V34.8z M108.9,37.2h5v-1.4h-5V37.2z"/>
		</g>
		<rect y="30.9" class="st2" width="13" height="13"/>
	</g>
</g>
<g>
	<line class="st3" x1="106.3" y1="125.4" x2="464.2" y2="0.9"/>
	<line class="st4" x1="124.1" y1="167.7" x2="482" y2="43.1"/>
	<line class="st3" x1="139.6" y1="209.9" x2="497.6" y2="85.4"/>
	<path class="st5" d="M115.2,151c0,0-8.9-24.5,13.3-31.1c22.2-6.7,71.1,66.7,97.8,57.8s6.7-95.6,33.4-104.5s64.5,71.1,100.1,57.8
		s-2.2-91.2,31.1-102.3c33.4-11.1,68.9,68.9,100.1,57.8c4.4-2.2,4.4-8.9,4.4-8.9"/>
</g>
<g>
	<g class="st7">
		<path d="M25.4,184.4c-0.5,1-1,2-1.7,2.9h3.5v-2.1h1.2v2.1h4.8v5.1c0,0.6-0.1,1-0.6,1.2c-0.5,0.2-1.3,0.2-2.7,0.2
			c0-0.3-0.2-0.8-0.4-1.1c1,0,2,0,2.2,0c0.3,0,0.4-0.1,0.4-0.3v-4h-3.6v7h-1.2v-7h-3.4v5.5h-1.2v-5.3c-0.7,0.8-1.5,1.5-2.3,2.1
			c-0.2-0.3-0.5-0.7-0.7-1c1.9-1.3,3.4-3.3,4.5-5.4h-4v-1.2h4.5c0.4-0.8,0.6-1.6,0.8-2.4l1.2,0.3c-0.2,0.7-0.5,1.4-0.8,2.2H34v1.2
			H25.4z"/>
		<path d="M41.8,189.7c-0.4-0.6-1.2-1.7-1.8-2.5v8.2h-1.2v-7.8c-0.7,1.9-1.6,3.8-2.6,4.9c-0.1-0.4-0.4-0.8-0.6-1.1
			c1.2-1.3,2.4-3.8,3-6h-2.6v-1.1h2.8v-3.4h1.2v3.4h2.3v1.1h-2.3v0.4c0.5,0.5,2.2,2.4,2.6,2.9L41.8,189.7z M47.3,185.4
			c0.7,2.5,1.9,5.1,3.2,6.5c-0.3,0.2-0.7,0.6-0.9,0.9c-1-1.2-1.9-3.2-2.6-5.3v7.9h-1.2v-7.9c-0.8,2.2-2,4.3-3.3,5.5
			c-0.2-0.3-0.5-0.8-0.7-1c1.5-1.5,3-4.1,3.7-6.7h-2.6v-1.1h2.9v-3.4H47v3.4h3v1.1H47.3z"/>
		<path d="M55.9,188.6c-0.2,1.4-0.6,2.6-1.1,3.6c1.1,1.7,3.1,1.9,6,1.9c1.7,0,4-0.1,5.6-0.2c-0.2,0.3-0.3,0.8-0.4,1.1
			c-1.5,0.1-3.5,0.1-5.2,0.1c-3.2,0-5.2-0.3-6.4-2.1c-0.6,1-1.3,1.8-2.1,2.3c-0.2-0.2-0.6-0.7-0.8-0.8c1.5-1,2.7-2.7,3.2-5.2H53
			c-0.4,0-0.8,0.1-0.9,0.2c-0.1-0.3-0.3-0.8-0.4-1.1c0.2-0.1,0.5-0.2,0.8-0.5c0.4-0.4,1.3-1.6,2-2.6h-2.6v-1h3.3l0.2-0.1l0.8,0.4
			c-0.7,0.9-1.9,2.6-2.8,3.6h1.8l0.2,0L55.9,188.6z M54.4,183.9c-0.4-0.7-1.3-1.8-2-2.5l0.9-0.5c0.7,0.8,1.6,1.8,2,2.4L54.4,183.9z
			 M57.9,193h-1.1v-8.2h4.6c-0.9-0.5-2.1-1-3.1-1.3l0.8-0.7c0.7,0.2,1.5,0.6,2.2,0.9c0.8-0.4,1.6-0.8,2.2-1.3h-6.7v-0.9h7.8l0.2-0.1
			l0.7,0.6c-0.8,0.8-2,1.6-3.2,2.2c0.5,0.2,0.9,0.4,1.2,0.6h2v7.1c0,0.6-0.1,0.8-0.5,1c-0.4,0.2-1.1,0.2-2.1,0.2
			c0-0.3-0.2-0.7-0.3-0.9c0.8,0,1.4,0,1.6,0c0.2,0,0.3-0.1,0.3-0.3v-1.5h-2.9v2.6h-1v-2.6h-2.7V193z M57.9,185.7v1.4h2.7v-1.4H57.9z
			 M60.6,189.5V188h-2.7v1.5H60.6z M64.5,185.7h-2.9v1.4h2.9V185.7z M64.5,189.5V188h-2.9v1.5H64.5z"/>
		<path d="M71.9,188.6c-0.2,1.4-0.6,2.6-1.1,3.6c1.1,1.7,3.1,1.9,6,1.9c1.7,0,4-0.1,5.6-0.2c-0.2,0.3-0.3,0.8-0.4,1.1
			c-1.5,0.1-3.5,0.1-5.2,0.1c-3.2,0-5.2-0.3-6.4-2.1c-0.6,1-1.3,1.8-2.1,2.3c-0.2-0.2-0.6-0.7-0.8-0.8c1.5-1,2.7-2.7,3.2-5.2H69
			c-0.4,0-0.8,0.1-0.9,0.2c-0.1-0.3-0.3-0.8-0.4-1.1c0.2-0.1,0.5-0.2,0.8-0.5c0.4-0.4,1.3-1.6,2-2.6h-2.6v-1h3.3l0.2-0.1l0.8,0.4
			c-0.7,0.9-1.9,2.6-2.8,3.6h1.8l0.2,0L71.9,188.6z M70.4,183.9c-0.4-0.7-1.3-1.8-2-2.5l0.9-0.5c0.7,0.8,1.6,1.8,2,2.4L70.4,183.9z
			 M75.9,185.2c0.1-0.4,0.3-0.9,0.4-1.3H72v-1h2.7c-0.2-0.5-0.7-1.2-1-1.7l0.9-0.4c0.4,0.5,0.9,1.3,1.1,1.7l-0.7,0.3h2.9
			c0.4-0.6,1-1.5,1.2-2.1l1.2,0.3c-0.4,0.6-0.8,1.2-1.2,1.8h3v1h-4.6c-0.2,0.4-0.4,0.9-0.5,1.3h3.8v7.5h-7.4v-7.5H75.9z M79.6,186.1
			h-5.1v1.3h5.1V186.1z M79.6,188.2h-5.1v1.3h5.1V188.2z M79.6,190.4h-5.1v1.3h5.1V190.4z"/>
		<path d="M91.3,183.2v2.8l0.2-0.2c1.9,0.9,4.4,2.4,5.7,3.3l-0.8,1.1c-1.1-0.9-3.2-2.2-5.1-3.2v8.4h-1.3v-12.2h-6.1V182h14.1v1.2
			H91.3z"/>
		<path d="M105.3,181.9c-0.5,1.3-1.1,2.9-1.6,4.1c1.2,1.3,1.4,2.5,1.4,3.5c0,0.8-0.2,1.5-0.6,1.8c-0.2,0.2-0.5,0.3-0.8,0.3
			c-0.3,0-0.7,0-1.1,0c0-0.3-0.1-0.8-0.3-1.1c0.4,0,0.7,0,0.9,0c0.2,0,0.4,0,0.5-0.1c0.2-0.2,0.3-0.6,0.3-1.1c0-0.9-0.3-2-1.4-3.2
			c0.5-1.2,0.9-2.5,1.3-3.6h-2.3v12.9h-1.1v-13.9h3.8l0.2,0L105.3,181.9z M114,189.8c-0.8,0.7-1.9,1.4-2.8,1.9
			c0.8,1.1,1.8,2,3.1,2.5c-0.3,0.2-0.6,0.7-0.8,1c-2.5-1.2-4-3.6-4.8-6.8h-1.5v5.3l2.8-0.7c0,0.4,0,0.8,0.1,1.1
			c-3.3,0.9-3.8,1.1-4.1,1.3c-0.1-0.3-0.3-0.8-0.5-1c0.3-0.1,0.6-0.5,0.6-1.1v-11.8h7v7h-3.3c0.2,0.9,0.5,1.7,0.9,2.4
			c0.8-0.6,1.8-1.3,2.5-1.9L114,189.8z M107.2,182.6v1.9h4.7v-1.9H107.2z M107.2,187.5h4.7v-2h-4.7V187.5z"/>
	</g>
	<circle cx="162" cy="202.9" r="6"/>
	<line class="st6" x1="162" y1="202.9" x2="119" y2="190.9"/>
</g>
<g>
	<g class="st7">
		<path d="M50.4,79.4c-0.5,1-1,2-1.7,2.9h3.5v-2.1h1.2v2.1h4.8v5.1c0,0.6-0.1,1-0.6,1.2c-0.5,0.2-1.3,0.2-2.7,0.2
			c0-0.3-0.2-0.8-0.4-1.1c1,0,2,0,2.2,0c0.3,0,0.4-0.1,0.4-0.3v-4h-3.6v7h-1.2v-7h-3.4V89h-1.2v-5.3c-0.7,0.8-1.5,1.5-2.3,2.1
			c-0.2-0.3-0.5-0.7-0.7-1c1.9-1.3,3.4-3.3,4.5-5.4h-4v-1.2h4.5c0.4-0.8,0.6-1.6,0.8-2.4l1.2,0.3c-0.2,0.7-0.5,1.4-0.8,2.2H59v1.2
			H50.4z"/>
		<path d="M66.8,84.7c-0.4-0.6-1.2-1.7-1.8-2.5v8.2h-1.2v-7.8c-0.7,1.9-1.6,3.8-2.6,4.9c-0.1-0.4-0.4-0.8-0.6-1.1
			c1.2-1.3,2.4-3.8,3-6h-2.6v-1.1h2.8v-3.4h1.2v3.4h2.3v1.1h-2.3v0.4c0.5,0.5,2.2,2.4,2.6,2.9L66.8,84.7z M72.3,80.4
			c0.7,2.5,1.9,5.1,3.2,6.5c-0.3,0.2-0.7,0.6-0.9,0.9c-1-1.2-1.9-3.2-2.6-5.3v7.9h-1.2v-7.9c-0.8,2.2-2,4.3-3.3,5.5
			c-0.2-0.3-0.5-0.8-0.7-1c1.5-1.5,3-4.1,3.7-6.7h-2.6v-1.1h2.9v-3.4H72v3.4h3v1.1H72.3z"/>
		<path d="M80.9,83.6c-0.2,1.4-0.6,2.6-1.1,3.6c1.1,1.7,3.1,1.9,6,1.9c1.7,0,4-0.1,5.6-0.2c-0.2,0.3-0.3,0.8-0.4,1.1
			c-1.5,0.1-3.5,0.1-5.2,0.1c-3.2,0-5.2-0.3-6.4-2.1c-0.6,1-1.3,1.8-2.1,2.3c-0.2-0.2-0.6-0.7-0.8-0.8c1.5-1,2.7-2.7,3.2-5.2H78
			c-0.4,0-0.8,0.1-0.9,0.2c-0.1-0.3-0.3-0.8-0.4-1.1c0.2-0.1,0.5-0.2,0.8-0.5c0.4-0.4,1.3-1.6,2-2.6h-2.6v-1h3.3l0.2-0.1l0.8,0.4
			c-0.7,0.9-1.9,2.6-2.8,3.6h1.8l0.2,0L80.9,83.6z M79.4,78.9c-0.4-0.7-1.3-1.8-2-2.5l0.9-0.5c0.7,0.8,1.6,1.8,2,2.4L79.4,78.9z
			 M82.9,88h-1.1v-8.2h4.6c-0.9-0.5-2.1-1-3.1-1.3l0.8-0.7c0.7,0.2,1.5,0.6,2.2,0.9c0.8-0.4,1.6-0.8,2.2-1.3h-6.7v-0.9h7.8l0.2-0.1
			l0.7,0.6c-0.8,0.8-2,1.6-3.2,2.2c0.5,0.2,0.9,0.4,1.2,0.6h2v7.1c0,0.6-0.1,0.8-0.5,1c-0.4,0.2-1.1,0.2-2.1,0.2
			c0-0.3-0.2-0.7-0.3-0.9c0.8,0,1.4,0,1.6,0c0.2,0,0.3-0.1,0.3-0.3v-1.5h-2.9V88h-1v-2.6h-2.7V88z M82.9,80.7v1.4h2.7v-1.4H82.9z
			 M85.6,84.5V83h-2.7v1.5H85.6z M89.5,80.7h-2.9v1.4h2.9V80.7z M89.5,84.5V83h-2.9v1.5H89.5z"/>
		<path d="M96.9,83.6c-0.2,1.4-0.6,2.6-1.1,3.6c1.1,1.7,3.1,1.9,6,1.9c1.7,0,4-0.1,5.6-0.2c-0.2,0.3-0.3,0.8-0.4,1.1
			c-1.5,0.1-3.5,0.1-5.2,0.1c-3.2,0-5.2-0.3-6.4-2.1c-0.6,1-1.3,1.8-2.1,2.3c-0.2-0.2-0.6-0.7-0.8-0.8c1.5-1,2.7-2.7,3.2-5.2H94
			c-0.4,0-0.8,0.1-0.9,0.2c-0.1-0.3-0.3-0.8-0.4-1.1c0.2-0.1,0.5-0.2,0.8-0.5c0.4-0.4,1.3-1.6,2-2.6h-2.6v-1h3.3l0.2-0.1l0.8,0.4
			c-0.7,0.9-1.9,2.6-2.8,3.6h1.8l0.2,0L96.9,83.6z M95.4,78.9c-0.4-0.7-1.3-1.8-2-2.5l0.9-0.5c0.7,0.8,1.6,1.8,2,2.4L95.4,78.9z
			 M100.9,80.2c0.1-0.4,0.3-0.9,0.4-1.3H97v-1h2.7c-0.2-0.5-0.7-1.2-1-1.7l0.9-0.4c0.4,0.5,0.9,1.3,1.1,1.7l-0.7,0.3h2.9
			c0.4-0.6,1-1.5,1.2-2.1l1.2,0.3c-0.4,0.6-0.8,1.2-1.2,1.8h3v1h-4.6c-0.2,0.4-0.4,0.9-0.5,1.3h3.8v7.5h-7.4v-7.5H100.9z
			 M104.6,81.1h-5.1v1.3h5.1V81.1z M104.6,83.2h-5.1v1.3h5.1V83.2z M104.6,85.4h-5.1v1.3h5.1V85.4z"/>
		<path d="M123.1,88.5v1.2h-14.3v-1.2h6V76.1h1.2V81h6v1.2h-6v6.3H123.1z"/>
		<path d="M130.3,76.9c-0.5,1.3-1.1,2.9-1.6,4.1c1.2,1.3,1.4,2.5,1.4,3.5c0,0.8-0.2,1.5-0.6,1.8c-0.2,0.2-0.5,0.3-0.8,0.3
			c-0.3,0-0.7,0-1.1,0c0-0.3-0.1-0.8-0.3-1.1c0.4,0,0.7,0,0.9,0c0.2,0,0.4,0,0.5-0.1c0.2-0.2,0.3-0.6,0.3-1.1c0-0.9-0.3-2-1.4-3.2
			c0.5-1.2,0.9-2.5,1.3-3.6h-2.3v12.9h-1.1V76.5h3.8l0.2,0L130.3,76.9z M139,84.8c-0.8,0.7-1.9,1.4-2.8,1.9c0.8,1.1,1.8,2,3.1,2.5
			c-0.3,0.2-0.6,0.7-0.8,1c-2.5-1.2-4-3.6-4.8-6.8h-1.5v5.3l2.8-0.7c0,0.4,0,0.8,0.1,1.1c-3.3,0.9-3.8,1.1-4.1,1.3
			c-0.1-0.3-0.3-0.8-0.5-1c0.3-0.1,0.6-0.5,0.6-1.1V76.5h7v7h-3.3c0.2,0.9,0.5,1.7,0.9,2.4c0.8-0.6,1.8-1.3,2.5-1.9L139,84.8z
			 M132.2,77.6v1.9h4.7v-1.9H132.2z M132.2,82.5h4.7v-2h-4.7V82.5z"/>
	</g>
	<circle cx="190" cy="95.9" r="6"/>
	<line class="st6" x1="190" y1="95.9" x2="147" y2="83.9"/>
</g>
<path class="st1" d="M673.5,53.9h-119c-3.6,0-6.5-2.9-6.5-6.5V7.3c0-3.6,2.9-6.5,6.5-6.5h119.1c3.6,0,6.5,2.9,6.5,6.5v40.1
	C680,51,677.1,53.9,673.5,53.9z"/>
<g>
	<g class="st7">
		<path class="st8" d="M573,26.8c-0.1,1.2-0.3,2.2-0.6,3.1c0.9,1.7,2.5,1.9,5,1.9c1.7,0,4.5-0.1,6.4-0.3c-0.3,0.5-0.6,1.5-0.7,2.1
			c-1.8,0.1-3.8,0.2-5.8,0.2c-2.8,0-4.6-0.3-5.8-1.9c-0.5,0.9-1.1,1.7-1.7,2.2c-0.3-0.4-1.1-1.2-1.5-1.5c1.2-0.9,2-2.4,2.4-4.4H570
			c-0.4,0-0.9,0.1-1,0.3c-0.1-0.5-0.5-1.4-0.7-1.8c0.3-0.1,0.5-0.2,0.8-0.5c0.2-0.2,0.7-1,1.2-1.7h-1.6v-1.8h3l0.2-0.1l1.4,0.5
			l-0.5,0.9c1.2-0.2,2.4-0.5,3.4-0.8l-1.1-0.4c-0.3,0.2-0.6,0.4-0.8,0.5c-0.4-0.4-1.2-1-1.7-1.3c1.6-0.7,3.1-1.8,3.8-3.1l2,0.6
			c-0.1,0.2-0.2,0.4-0.4,0.6h2.4l0.4-0.1l1.4,0.7c-0.4,0.9-1,1.6-1.7,2.2c1.1,0.4,2.2,0.9,2.9,1.2l-1.1,1.7l-0.5-0.2V27h-2.6v0.4
			h2.9v1.5h-2.9v0.4h3.5v1.5h-3.5v0.8h-2.3v-0.8h-3.4v-1.5h3.4v-0.4h-2.9v-1.5h2.9V27h-2.6v-1.4c-0.3,0.1-0.5,0.1-0.8,0.2
			c-0.2-0.4-0.6-1.1-0.9-1.6c-0.4,0.7-1,1.6-1.5,2.3h0.6l0.4,0L573,26.8z M570.9,22.5c-0.4-0.7-1.3-1.8-2-2.6l1.7-1
			c0.7,0.8,1.6,1.7,2,2.4L570.9,22.5z M576.8,25.5v-0.6c-0.7,0.2-1.3,0.4-2.1,0.6H576.8z M581.5,25.5c-0.8-0.4-2-0.9-3.1-1.4
			c-0.5,0.3-0.9,0.5-1.5,0.7h2.1v0.7H581.5z M578.2,22c0.2-0.1,0.4-0.3,0.5-0.4H577L578.2,22z"/>
		<path class="st8" d="M599.1,20.3v1.9h-14.3v-1.9h6c-0.1-0.3-0.2-0.7-0.3-0.9l2.4-0.6c0.2,0.5,0.4,1,0.6,1.5H599.1z M598.8,32
			c0,1-0.2,1.4-0.9,1.7c-0.7,0.2-1.6,0.3-2.8,0.2c-0.1-0.4-0.3-0.8-0.4-1.2h-4.1v0.6h-2.1V29h7.1v3.3c0.3,0,0.6,0,0.7,0
			c0.2,0,0.3-0.1,0.3-0.3v-3.4h-9v5.5h-2.3v-7.3h13.6V32z M597.4,26.2h-10.6v-3.6h10.6V26.2z M594.9,24.2h-5.8v0.5h5.8V24.2z
			 M593.4,30.5h-2.9v0.6h2.9V30.5z"/>
		<path class="st8" d="M613.7,28.1c-2.3,4-6.6,5.3-12.3,6c-0.2-0.7-0.6-1.6-1.1-2.2c5.3-0.4,9.3-1.3,11.3-4.7L613.7,28.1z
			 M605.6,21.7c-0.8,2.1-2,4.4-3,5.8c-0.5-0.3-1.5-0.9-2-1.1c1.1-1.3,2.1-3.4,2.8-5.3L605.6,21.7z M609,18.9V29h-2.3V18.9H609z
			 M612.5,21c1.1,1.7,2.3,3.9,3,5.3l-2,1.2c-0.6-1.5-1.8-3.8-2.9-5.5L612.5,21z"/>
		<path class="st8" d="M631.4,23.7v1.6h-14.7v-1.6H631.4z M625.1,32h6.3v1.7h-14.7V32h6.2v-0.4h-4.7v-1.4h4.7v-0.3h-4.4v-4.2h11.2
			v4.2h-4.5v0.3h4.7v1.4h-4.7V32z M629.2,23.3h-10.5v-4h10.5V23.3z M620.6,27.2h2.3v-0.4h-2.3V27.2z M622.9,28.7v-0.4h-2.3v0.4
			H622.9z M626.9,20.5H621v0.4h5.9V20.5z M626.9,21.9H621v0.4h5.9V21.9z M627.3,26.9h-2.2v0.4h2.2V26.9z M627.3,28.3h-2.2v0.4h2.2
			V28.3z"/>
		<path class="st8" d="M640.2,21.6c0,0,0,0.7,0,1c-0.1,6.7-0.3,9.2-0.8,10c-0.4,0.6-0.8,0.8-1.3,0.9c-0.5,0.1-1.2,0.1-2,0.1
			c0-0.6-0.3-1.6-0.6-2.3c-0.4,1-0.9,1.8-1.5,2.6c-0.4-0.6-1.1-1.4-1.7-1.7c1.7-2,2.1-4.8,2.2-8.4h-1.7v-2.3h1.7v-2.5h2.3
			c0,0.9,0,1.7,0,2.5H640.2z M636.7,23.9c-0.1,2.9-0.4,5.4-1.2,7.5c0.6,0,1,0.1,1.3,0.1c0.2,0,0.4-0.1,0.5-0.3
			c0.3-0.4,0.4-2.3,0.5-7.2H636.7z M646.9,20.6v13h-2.3v-1h-1.5v1.1h-2.2V20.6H646.9z M644.5,30.4v-7.5h-1.5v7.5H644.5z"/>
		<path class="st8" d="M658,29.6c0.2,0.9,0.3,2.1,0.3,2.9l-1.6,0.2c0-0.7,0-1.8-0.2-2.7c-0.2,1.3-0.4,2.5-1,3.3l-1.6-0.9
			c0.1-0.1,0.1-0.2,0.2-0.3h-2.6v1.2h-2v-3.6c-0.1,0.1-0.1,0.2-0.2,0.3c-0.2-0.5-0.8-1.7-1.2-2.3c1.1-1.5,1.6-3.9,1.9-6.4h-1.5v-2.1
			h6.2v2.1h-2.5c-0.2,1-0.3,2.1-0.6,3.1h2.7v7.2c0.3-0.8,0.5-1.7,0.6-2.7l1.7,0.4l0,0.3L658,29.6z M652.4,26.5h-0.8v3.7h0.8V26.5z
			 M663.4,26.8c0,0,0,0.5,0,0.8c-0.1,3.7-0.3,5.2-0.7,5.8c-0.4,0.4-0.7,0.6-1.2,0.7c-0.4,0.1-1,0.1-1.7,0.1c0-0.6-0.3-1.4-0.6-2
			c0.5,0,1,0.1,1.2,0.1c0.2,0,0.3,0,0.5-0.2c0.1-0.1,0.2-0.4,0.3-0.9l-0.6,0.2c-0.1-0.5-0.4-1.3-0.7-1.9l1.1-0.4
			c0.1,0.2,0.2,0.4,0.3,0.6c0-0.3,0-0.5,0-0.8h-6.1v-9.4h8v2h-2.6v0.5h2.1v1.8h-2.1v0.6h2.1v1.8h-2.1v0.7H663.4z M657.3,21.4v0.5
			h1.2v-0.5H657.3z M658.5,23.7h-1.2v0.6h1.2V23.7z M657.3,26.8h1.2v-0.7h-1.2V26.8z M659.6,29.3c0.3,0.8,0.5,1.7,0.6,2.4l-1.5,0.4
			c0-0.6-0.3-1.6-0.5-2.4L659.6,29.3z"/>
	</g>
</g>
<circle class="st1" cx="390.5" cy="28.4" r="6.5"/>
<polygon class="st1" points="391,28.9 551.1,18.7 551.1,32.5 "/>
<path class="st1" d="M673.5,154.9h-119c-3.6,0-6.5-2.9-6.5-6.5v-40.1c0-3.6,2.9-6.5,6.5-6.5h119.1c3.6,0,6.5,2.9,6.5,6.5v40.1
	C680,152,677.1,154.9,673.5,154.9z"/>
<g>
	<g class="st7">
		<path class="st8" d="M573,127.8c-0.1,1.2-0.3,2.2-0.6,3.1c0.9,1.7,2.5,1.9,5,1.9c1.7,0,4.5-0.1,6.4-0.3c-0.3,0.5-0.6,1.5-0.7,2.1
			c-1.8,0.1-3.8,0.2-5.8,0.2c-2.8,0-4.6-0.3-5.8-1.9c-0.5,0.9-1.1,1.7-1.7,2.2c-0.3-0.4-1.1-1.2-1.5-1.5c1.2-0.9,2-2.4,2.4-4.4H570
			c-0.4,0-0.9,0.1-1,0.3c-0.1-0.5-0.5-1.4-0.7-1.8c0.3-0.1,0.5-0.2,0.8-0.5c0.2-0.2,0.7-1,1.2-1.7h-1.6v-1.8h3l0.2-0.1l1.4,0.5
			l-0.5,0.9c1.2-0.2,2.4-0.5,3.4-0.8l-1.1-0.4c-0.3,0.2-0.6,0.4-0.8,0.5c-0.4-0.4-1.2-1-1.7-1.3c1.6-0.7,3.1-1.8,3.8-3.1l2,0.6
			c-0.1,0.2-0.2,0.4-0.4,0.6h2.4l0.4-0.1l1.4,0.7c-0.4,0.9-1,1.6-1.7,2.2c1.1,0.4,2.2,0.9,2.9,1.2l-1.1,1.7l-0.5-0.2v1.5h-2.6v0.4
			h2.9v1.5h-2.9v0.4h3.5v1.5h-3.5v0.8h-2.3v-0.8h-3.4v-1.5h3.4v-0.4h-2.9v-1.5h2.9V128h-2.6v-1.4c-0.3,0.1-0.5,0.1-0.8,0.2
			c-0.2-0.4-0.6-1.1-0.9-1.6c-0.4,0.7-1,1.6-1.5,2.3h0.6l0.4,0L573,127.8z M570.9,123.5c-0.4-0.7-1.3-1.8-2-2.6l1.7-1
			c0.7,0.8,1.6,1.7,2,2.4L570.9,123.5z M576.8,126.5v-0.6c-0.7,0.2-1.3,0.4-2.1,0.6H576.8z M581.5,126.5c-0.8-0.4-2-0.9-3.1-1.4
			c-0.5,0.3-0.9,0.5-1.5,0.7h2.1v0.7H581.5z M578.2,123c0.2-0.1,0.4-0.3,0.5-0.4H577L578.2,123z"/>
		<path class="st8" d="M589.8,120.6c-0.4,1.1-0.9,2.2-1.5,3.3v11.2h-2.2v-7.7c-0.3,0.3-0.5,0.6-0.8,0.9c-0.2-0.6-0.8-1.9-1.2-2.4
			c1.4-1.4,2.7-3.6,3.5-5.8L589.8,120.6z M596.9,127.8c0.3,2.6,0.7,4.4,1,4.4c0.2,0,0.3-0.6,0.4-1.8c0.4,0.4,1.2,1,1.5,1.2
			c-0.4,2.6-1.2,3.2-1.9,3.2c-1.7,0-2.6-2.7-3.1-7H592v2.7l2.4-0.5c0,0.6,0,1.5,0,2c-1.4,0.4-2.4,0.6-3,0.8h4.3v1.9h-4.3v-1.9
			c-1,0.3-1.3,0.4-1.6,0.6c-0.1-0.5-0.5-1.4-0.8-1.8c0.4-0.2,0.8-0.5,0.8-1.2v-8.9c2.8-0.4,5.7-1,7.6-1.7l1.7,1.7
			c-0.8,0.3-1.7,0.5-2.6,0.8c0,1.2,0.1,2.3,0.2,3.4h2.7v2.1H596.9z M594.6,125.7c-0.1-0.9-0.1-1.9-0.2-3c-0.8,0.2-1.6,0.3-2.5,0.4
			v2.6H594.6z"/>
		<path class="st8" d="M609.7,126.4c1,2.9,2.9,5.2,5.8,6.4c-0.6,0.5-1.4,1.5-1.7,2.2c-2.8-1.3-4.6-3.4-5.8-6.3
			c-0.9,2.5-2.6,4.7-5.8,6.3c-0.4-0.6-1.1-1.5-1.8-2c3.5-1.6,5-4,5.6-6.6h-5.3V124h5.7c0.1-1.4,0.1-2.8,0.1-4.1h2.6
			c0,1.3,0,2.7-0.2,4.1h6.1v2.4H609.7z"/>
		<path class="st8" d="M631.4,124.7v1.6h-14.7v-1.6H631.4z M625.1,133h6.3v1.7h-14.7V133h6.2v-0.4h-4.7v-1.4h4.7v-0.3h-4.4v-4.2
			h11.2v4.2h-4.5v0.3h4.7v1.4h-4.7V133z M629.2,124.3h-10.5v-4h10.5V124.3z M620.6,128.2h2.3v-0.4h-2.3V128.2z M622.9,129.7v-0.4
			h-2.3v0.4H622.9z M626.9,121.5H621v0.4h5.9V121.5z M626.9,122.9H621v0.4h5.9V122.9z M627.3,127.9h-2.2v0.4h2.2V127.9z
			 M627.3,129.3h-2.2v0.4h2.2V129.3z"/>
		<path class="st8" d="M640.2,122.6c0,0,0,0.7,0,1c-0.1,6.7-0.3,9.2-0.8,10c-0.4,0.6-0.8,0.8-1.3,0.9c-0.5,0.1-1.2,0.1-2,0.1
			c0-0.6-0.3-1.6-0.6-2.3c-0.4,1-0.9,1.8-1.5,2.6c-0.4-0.6-1.1-1.4-1.7-1.7c1.7-2,2.1-4.8,2.2-8.4h-1.7v-2.3h1.7v-2.5h2.3
			c0,0.9,0,1.7,0,2.5H640.2z M636.7,124.9c-0.1,2.9-0.4,5.4-1.2,7.5c0.6,0,1,0.1,1.3,0.1c0.2,0,0.4-0.1,0.5-0.3
			c0.3-0.4,0.4-2.3,0.5-7.2H636.7z M646.9,121.6v13h-2.3v-1h-1.5v1.1h-2.2v-13.1H646.9z M644.5,131.4v-7.5h-1.5v7.5H644.5z"/>
		<path class="st8" d="M658,130.6c0.2,0.9,0.3,2.1,0.3,2.9l-1.6,0.2c0-0.7,0-1.8-0.2-2.7c-0.2,1.3-0.4,2.5-1,3.3l-1.6-0.9
			c0.1-0.1,0.1-0.2,0.2-0.3h-2.6v1.2h-2v-3.6c-0.1,0.1-0.1,0.2-0.2,0.3c-0.2-0.5-0.8-1.7-1.2-2.3c1.1-1.5,1.6-3.9,1.9-6.4h-1.5v-2.1
			h6.2v2.1h-2.5c-0.2,1-0.3,2.1-0.6,3.1h2.7v7.2c0.3-0.8,0.5-1.7,0.6-2.7l1.7,0.4l0,0.3L658,130.6z M652.4,127.5h-0.8v3.7h0.8V127.5
			z M663.4,127.8c0,0,0,0.5,0,0.8c-0.1,3.7-0.3,5.2-0.7,5.8c-0.4,0.4-0.7,0.6-1.2,0.7c-0.4,0.1-1,0.1-1.7,0.1c0-0.6-0.3-1.4-0.6-2
			c0.5,0,1,0.1,1.2,0.1c0.2,0,0.3,0,0.5-0.2c0.1-0.1,0.2-0.4,0.3-0.9l-0.6,0.2c-0.1-0.5-0.4-1.3-0.7-1.9l1.1-0.4
			c0.1,0.2,0.2,0.4,0.3,0.6c0-0.3,0-0.5,0-0.8h-6.1v-9.4h8v2h-2.6v0.5h2.1v1.8h-2.1v0.6h2.1v1.8h-2.1v0.7H663.4z M657.3,122.4v0.5
			h1.2v-0.5H657.3z M658.5,124.7h-1.2v0.6h1.2V124.7z M657.3,127.8h1.2v-0.7h-1.2V127.8z M659.6,130.3c0.3,0.8,0.5,1.7,0.6,2.4
			l-1.5,0.4c0-0.6-0.3-1.6-0.5-2.4L659.6,130.3z"/>
	</g>
</g>
<circle class="st1" cx="360.5" cy="131.4" r="6.5"/>
<polygon class="st1" points="360,131.9 561.1,119.7 561.1,133.5 "/>
</svg>
