<?xml version="1.0" encoding="utf-8"?>
<!-- Generator: Adobe Illustrator 23.0.1, SVG Export Plug-In . SVG Version: 6.00 Build 0)  -->
<svg version="1.1" id="圖層_1" xmlns="http://www.w3.org/2000/svg" xmlns:xlink="http://www.w3.org/1999/xlink" x="0px" y="0px"
	 viewBox="0 0 2251.81 546.12" style="enable-background:new 0 0 2251.81 546.12;" xml:space="preserve">
<style type="text/css">
	.st0{fill:#FFFFFF;}
	.st1{fill:#003E8D;}
	.st2{fill:#EA5504;}
</style>
<polygon class="st0" points="1837.95,473.69 2220.02,473.69 2220.02,522.13 2197.52,522.13 2197.52,546.12 1792.98,546.12 
	1792.98,522.13 1815.47,522.13 1815.47,497.91 1837.95,497.91 "/>
<g>
	<path class="st1" d="M368.27,27.38h-89.42h-52.09V16.86C226.76,5.26,218.36,0,201,0c-0.52,0-1.07,0-1.59,0
		c-15.28,0-23.16,5.81-23.16,16.86v10.52h-54.16h-92.1C10.02,27.38,0,35.27,0,51.04v60.5c0,12.1,7.91,17.9,23.16,17.9
		c16.84,0,25.26-5.8,25.26-17.9V85.26c0-9.99,5.27-14.72,15.77-14.72h57.89h77.33h79.44h61.54c9.5,0,13.69,2.6,13.69,7.88
		c0,5.79-2.09,15.26-7.36,28.94c-0.51,2.1-0.51,4.19-0.51,5.78c0,12.64,8.93,18.93,26.8,18.93c20.02,0,30.01-27.36,30.01-82.06
		C403.02,34.75,391.44,27.38,368.27,27.38z"/>
	<path class="st1" d="M48.94,165.76v49.44c0,18.43,8.94,27.36,25.77,27.36h47.38h77.33h79.44h47.34c17.35,0,25.8-9.47,25.8-27.36
		l-0.55-47.86c0-16.85-7.9-25.25-24.71-25.25h-47.88h-79.44h-77.33H68.91c-3.15,0-7.34,2.61-12.63,7.87
		C51.55,155.22,48.94,160.48,48.94,165.76z M101.55,179.42h20.53h77.33h79.44h19.98c7.39,0,10.54,4.23,10.54,12.62
		c0,7.39-3.15,11.07-10.54,11.07h-19.98h-79.44h-77.33h-20.53c-6.83,0-9.98-3.67-9.98-11.59
		C91.57,183.09,94.72,179.42,101.55,179.42z"/>
	<path class="st1" d="M122.08,127.86h77.33h79.44h44.23c11.02,0,16.79-6.83,16.79-21.05c0-13.13-5.78-19.98-16.79-19.98h-44.23
		h-79.44h-77.33H75.76c-11.57,0-17.36,6.86-17.36,20.53c0,13.68,5.79,20.5,17.36,20.5H122.08z"/>
	<path class="st1" d="M349.89,256.77h-71.04h-79.44h-77.33H52.61c-21.57,0-32.62,8.95-32.62,26.82v108.4
		c0,19.98,11.05,30.51,33.14,30.51h68.95h77.33h79.44h68.4c23.15,0,34.73-9.48,34.73-27.88V283.06
		C381.98,265.17,370.94,256.77,349.89,256.77z M176.78,380.94h-54.7H83.67c-11.04,0-16.3-4.22-16.3-13.16v-10.01h54.72h54.7
		L176.78,380.94L176.78,380.94z M176.78,319.89h-54.7H67.36V309.4c0-7.9,4.7-11.57,13.68-11.57h41.04h54.7V319.89z M334.63,367.26
		c0,9.46-4.23,13.68-12.63,13.68h-43.14h-55.24v-23.17h55.24h55.77L334.63,367.26L334.63,367.26z M334.63,319.89h-55.77h-55.24
		v-22.06h55.24h42.07c8.98,0,13.7,4.18,13.7,12.08L334.63,319.89L334.63,319.89z"/>
	<path class="st1" d="M835.3,23.19h-84.19h-0.52v-6.32c0-11.05-7.38-16.31-22.1-16.86h-0.52c-14.75,0-22.11,5.81-22.11,16.86v6.32
		h-21.04h-64.18h-24.2v-6.32c0-10.53-6.31-15.79-18.41-16.31C576.95,0,575.91,0,574.35,0c-9.48,0-16.3,2.66-19.5,7.39
		c-1.55,2.63-2.61,5.25-2.61,9.47v6.32H467c-13.13,0-19.98,6.82-19.98,19.99c0,13.68,6.84,20.49,19.98,20.49h85.25v7.39
		c0,2.08,0.53,3.67,1.05,5.26c0,0.5,0.51,1.04,1.03,2.1c0,0.52,0.52,0.52,0.52,0.52c0.55,1.05,1.08,2.1,1.08,2.1h-1.08h-61.01
		c-17.89,0-27.37,8.95-27.37,26.84V412.5c0,10.51,6.86,15.77,21.05,15.77c13.68,0,20.52-5.26,20.52-15.77V202.04h46.8h23.17h35.77
		c2.63,0,4.74,0,6.84-0.52c13.14-2.08,19.46-10.53,19.46-25.77v-67.88c0-15.27-6.31-24.21-19.46-26.29
		c-2.11-0.55-4.21-0.55-6.84-0.55h-21.05c2.63-2.62,3.7-5.77,3.7-9.98v-7.39h24.2h64.18h21.04v7.39c0,4.21,1.6,7.88,3.7,9.98h-19.48
		c-1.58,0-3.71,0-5.27,0.55c-14.2,1.56-21.58,10.5-21.58,26.29v67.88c0,15.77,7.38,24.71,21.58,26.29c1.56,0,3.69,0,5.27,0h38.4
		h22.62h48.93v173.12c0,5.24-2.08,8.42-6.3,8.42s-11.61-1.59-22.1-3.71c-1.59-0.52-3.7-0.52-5.26-0.52c-1.6,0-3.15,0.52-4.23,1.04
		c-1.08-4.71-4.73-8.92-11.05-13.65c-5.8-3.16-13.17-6.86-22.62-10.56c-5.78-2.61-12.62-4.71-20.01-6.82h20.01h19.47
		c1.04,0,2.09,0,3.15,0c17.35-1.06,26.3-9.46,26.3-26.29v-36.84c0-16.83-8.95-25.77-26.3-26.29c-1.07,0-2.11-0.53-3.15-0.53h-19.47
		h-43.67h-11.58v-9.47h11.58h43.67h22.62h27.35c7.38,0,11.58-5.79,11.58-16.85c0-11.03-4.2-16.29-11.58-16.29h-27.35h-22.62h-43.67
		h-11.58v-7.89c0-11.05-6.84-16.31-20-16.31c-13.68,0-19.98,5.26-19.98,16.31v7.89H620.6h-42.62h-23.17H528
		c-7.37,0-11.04,5.26-11.04,16.29c0,11.06,3.67,16.85,11.04,16.85h26.81h23.17h42.62h12.63v9.47H620.6h-42.62h-19.45
		c-1.07,0-2.64,0.53-3.72,0.53c-17.35,1.03-25.77,9.98-25.77,26.29v36.84c0,16.31,8.42,25.23,25.77,26.29c1.08,0,2.65,0,3.72,0
		h19.45h26.84c-8.97,4.21-17.9,7.89-26.84,11.05c-7.9,3.18-15.79,5.26-23.17,7.89c-9.99,2.63-19.98,5.26-29.98,6.86
		c-6.82,1.56-9.97,6.83-9.97,16.31c0,16.28,5.78,24.18,17.36,24.18c6.3,0,14.19-1.04,22.59-3.67c6.87-2.11,14.75-5.26,23.17-8.94
		c12.63-5.78,26.84-13.16,42.62-22.64c4.21-2.1,8.43-4.71,12.63-7.35v33.14c0,11.05,6.3,16.31,19.98,16.31c13.16,0,20-5.26,20-16.31
		v-37.37c3.7,1.58,7.37,3.69,11.58,5.8c13.16,6.32,27.35,14.73,43.67,24.19c2.11,1.06,3.67,2.11,5.78,3.16
		c3.15,1.58,6.31,2.66,9.46,2.66c2.12,0,4.23-0.54,6.86-1.59c0,1.59,0,3.15,0.52,4.71c3.15,11.6,20,17.38,49.99,17.38
		c26.81,0,40.5-13.16,40.5-40.52V107.88c0-17.89-8.93-26.84-27.36-26.84h-63.14h-5.26c3.15-3.16,4.73-6.31,4.73-9.98v-7.39h0.52
		h84.19c13.16,0,19.46-6.81,19.46-20.49C854.76,30.01,848.46,23.19,835.3,23.19z M601.72,163.65c0,4.21-2.12,6.32-6.87,6.32h-16.83
		h-23.17h-46.8v-13.7h46.8h23.17h23.7V163.65z M594.85,114.18c4.75,0,6.87,2.13,6.87,5.82v6.82h-23.7h-23.17h-46.8V120
		c0-3.69,2.09-5.82,6.84-5.82h39.95h23.17H594.85z M724.3,304.13c0-0.54,0.5-1.07,0.5-1.07c1.6-3.68,2.11-6.83,2.11-9.98
		c0,0,0-0.55,0-1.07h1.59h3.67c5.78,0,8.94,3.15,8.94,8.96v7.35c0,5.8-3.16,8.96-8.94,8.96h-3.67h-12.1
		C718.49,314.62,721.13,310.43,724.3,304.13z M578.02,317.29h-3.67c-5.8,0-8.94-3.17-8.94-8.96v-7.35c0-5.81,3.14-8.96,8.94-8.96
		h3.67h0.52c-0.52,0.52-0.52,0.52-0.52,1.07c-0.52,1.04-0.52,2.08-0.52,3.15c0,1.04,0,2.1,0.52,3.15c0.52,1.59,1.05,2.62,1.57,3.68
		c3.7,3.68,7.37,8.41,11.05,14.23h-12.62V317.29z M633.27,317.29h-12.63c0-0.52,0-1.07,0-1.07c0.52-1.04,0.52-1.59,0.52-2.1
		c0-0.53,0-1.05-0.52-2.11c-1.06-4.21-4.73-11.03-12.1-19.99h12.1h12.63V317.29z M686.93,306.21c-1.04,1.05-1.56,1.59-2.11,2.65
		c-1.05,1.57-2.11,3.69-2.11,5.26c0,0.5,0.53,1.56,1.05,3.17h-10.53v-25.27h11.58h12.1C694.29,297.28,690.6,302,686.93,306.21z
		 M800.04,169.97h-48.93h-22.62h-20.01c-4.2,0-6.82-2.11-6.82-6.32v-7.38h26.83h22.62h48.93V169.97z M751.11,114.18h42.11
		c4.74,0,6.82,2.13,6.82,5.82v6.82h-48.93h-22.62h-26.83V120c0-3.69,2.63-5.82,6.82-5.82h20.01H751.11z"/>
	<path class="st1" d="M1296.36,43.18h-174.13v-25.8c0-10.53-6.31-16.31-19.46-17.38c-1.07,0-2.65,0-3.71,0
		c-15.77,0-23.65,5.81-23.65,17.38v25.8H913.89c-11.57,0-17.38,6.83-17.38,21.03c0,16.31,5.81,24.2,17.38,24.2h161.52v31.03H967.53
		c-16.83,0-25.25,8.42-25.25,25.8V261.5c0,18.94,8.42,28.42,25.8,28.42h58.38c-1.04,16.28-6.84,31.02-16.3,44.16
		c-10.01,13.71-43.15,28.44-99.96,45.78c-6.84,2.11-10.55,7.9-10.55,17.38c0,21.05,7.9,31.03,23.69,31.03
		c23.68,0,53.67-11.05,90.49-33.67c36.8-23.15,55.77-57.88,57.88-104.69h31.05h27.36v93.65c0,25.76,13.16,38.4,39.98,38.4h96.29
		c26.3,0,39.45-14.75,39.45-43.68v-54.7c0-10.53-7.88-16.33-22.63-16.33c-15.77,0-23.67,5.8-23.67,16.33v30.51
		c0,16.29-4.75,24.19-14.72,24.19h-52.62c-11.06,0-16.3-6.32-16.3-19.46v-68.91h64.7c16.82,0,25.79-8.41,25.79-25.28V145.24
		c0-17.38-8.42-25.8-25.79-25.8h-118.38V88.41h174.13c11.08,0,16.84-7.37,16.84-23.16C1313.2,50.53,1307.44,43.18,1296.36,43.18z
		 M1210.08,164.17c6.87,0,10.54,3.68,10.54,11.58v56.28c0,8.45-3.15,13.17-10.02,13.17h-107.83H997c-7.9,0-12.09-4.21-12.09-12.63
		v-55.22c0-8.97,4.19-13.17,12.09-13.17h105.77L1210.08,164.17L1210.08,164.17z"/>
	<path class="st1" d="M1674.1,121.55h70.53c12.08,0,17.85-7.89,17.85-23.65c0-15.81-5.77-23.69-17.85-23.69h-77.89V17.38
		c0-11.57-7.89-17.38-23.15-17.38c-15.25,0-23.13,5.81-23.13,17.38v56.83h-51.06c-12.1,0-17.88,7.88-17.88,23.69
		c0,15.76,5.78,23.65,17.88,23.65h45.26c-12.65,52.61-41.04,109.45-85.78,169.94c-7.34,10.51-15.76,21.05-24.18,31.58
		c-2.63,3.15-3.67,6.84-3.67,11.02c0,17.38,9.45,26.32,27.85,26.84c0.55,0,0.55,0,1.07,0c11.05,0,25.25-14.72,43.67-44.16
		c17.88-29.48,33.65-58.94,46.3-88.41v182.56c0,11.58,7.9,17.37,23.67,17.37c14.75,0,22.63-5.79,22.63-17.37V225.21
		c13.69,34.2,26.84,64.72,38.94,91.01c12.63,26.84,23.16,39.97,32.61,39.97c19.47,0,28.92-8.94,28.92-26.82
		c0-4.21-1.04-8.41-3.15-11.57C1715.66,237.83,1685.69,172.06,1674.1,121.55z"/>
	<path class="st1" d="M1528.88,247.82c0.55,0,0.55,0,1.07,0c17.9,0,26.83-7.89,26.83-24.2c0.52-8.94-8.93-25.77-27.9-50.5
		c-11.04-14.23-25.74-31.58-44.17-51.56h44.17h1.07c11.57,0,17.38-7.89,17.38-23.65c0-15.81-5.81-23.69-17.38-23.69h-1.07h-46.29
		V17.38c0-11.57-7.88-17.38-23.15-17.38c-15.24,0-22.62,5.81-22.62,17.38v56.83h-60.51c-11.55,0-17.36,7.88-17.36,23.69
		c0,15.76,5.8,23.65,17.36,23.65h50c-11.58,50.51-35.26,103.1-69.97,158.38c-3.16,4.7-4.2,9.44-4.2,13.67
		c0,16.83,8.95,24.72,27.9,24.72c9.97,0,21.02-12.12,33.11-36.29c12.11-24.21,19.49-42.11,23.16-53.68v182.56
		c0,11.58,7.38,17.37,22.62,17.37c15.27,0,23.15-5.79,23.15-17.37V187.82c8.95,12.1,14.74,20.55,17.37,24.74l0.52,0.53
		c6.31,10.52,11.04,18.93,15.25,25.78C1518.38,244.67,1523.09,247.3,1528.88,247.82z"/>
	<path class="st1" d="M2037.45,87.42h-33.27V72.99h25.53c5.94,0,8.76-3.61,8.76-10.83c0-6.69-2.82-9.79-8.76-9.79H1990
		c2.83-0.77,4.4-2.83,4.4-6.7v-4.89h41.26c5.93,0,9.03-3.62,9.03-11.35c0-6.96-3.11-10.32-9.03-10.32h-41.26v-6.95
		c0-5.66-3.59-8.5-10.84-8.5c-6.7,0-10.31,2.84-10.31,9.03v6.42h-4.59h-24.01h-25.78h-2.83v-6.95c0-5.66-3.63-8.5-10.82-8.5
		c-6.7,0-10.06,2.84-10.06,9.03v6.42h-42.28c-5.9,0-9,3.36-9,10.32c0,7.74,3.09,11.35,9,11.35h42.28v4.63
		c0,3.35,1.53,5.66,4.13,6.96h-39.67c-5.95,0-9.01,3.11-9.01,9.55c0,7.47,3.06,11.08,9.01,11.08h23.93v14.43h-32.74
		c-5.93,0-8.76,3.63-8.76,10.57c0,7.22,2.83,11.09,8.76,11.09h32.74v15.2h-23.7c-5.94,0-9.04,3.35-9.04,9.81
		c0,7.47,3.11,11.34,9.04,11.34h59.02h14.45v11.08h-14.45h-66.25c-6.19,0-9.25,3.61-9.25,10.57c0,7.5,3.06,11.09,9.25,11.09h66.25
		h14.45v26.28c0,6.21,3.33,9.01,9.79,9.01c0.52,0,1.02,0,1.54,0c5.93-0.5,9.03-3.32,9.03-8.74v-26.56h14.98h66.99
		c6.2,0,9.26-3.6,9.26-11.09c0-6.96-3.06-10.57-9.26-10.57h-66.99h-14.98v-11.08h14.98h59.52c5.9,0,9-3.87,9-11.34
		c0-6.46-3.09-9.81-9-9.81h-24v-15.2h33.27c5.91,0,8.78-3.87,8.78-11.09C2046.23,91.04,2043.37,87.42,2037.45,87.42z
		 M1933.32,124.28h-14.45h-14.67v-15.2h14.67h14.45V124.28z M1933.32,87.42h-14.45h-14.67V72.99h14.67h14.45V87.42z M1944.65,52.36
		h-25.78h-6.97c2.84-0.77,4.14-2.83,4.14-6.7v-4.89h2.83h25.78h24.01h4.59v4.63c0,3.35,1.57,5.66,4.1,6.96h-8.69H1944.65z
		 M1983.56,124.28h-14.9h-14.98v-15.2h14.98h14.9V124.28z M1983.56,87.42h-14.9h-14.98V72.99h14.98h14.9V87.42z"/>
	<path class="st1" d="M2057.96,189.51c-6.71,0.76-10.06,3.84-10.06,9.53c0,9.54,3.88,14.43,11.61,14.43
		c11.58,0,27.06-4.37,46.13-13.4c19.09-9.03,33.54-20.33,43.82-34.01c4.94,8.77,18.06,18.8,39.73,30.4
		c21.64,11.34,38.37,17.01,50,17.01c8.24,0.29,12.63-4.89,12.63-14.93c0-5.19-4.63-9.03-13.93-11.34
		c-31.68-8.26-54.89-18.58-68.84-31.2h72.45c5.93,0,9.01-3.63,9.01-10.84c0-7.46-3.08-11.33-9.52-11.33h-81.2c0-2.81,0-4.91,0-6.95
		v-5.7h78.61c5.97,0,9.03-3.87,9.03-11.08c0-7.47-3.06-11.09-9.54-11.09h-78.1V87.66h67.52c6.18,0,9.3-3.58,9.3-10.82
		c0-7.47-3.37-11.32-9.82-11.32h-67V55.19h76.55c5.92,0,9.02-3.59,9.02-10.81c0-7.5-3.1-11.11-9.52-11.11h-40.46
		c6.15-9.52,9.23-15.44,9.23-17.52c0-3.34-1.54-6.16-4.61-8.49c-3.11-2.34-6.45-3.61-9.81-3.61c-3.84,0-6.7,2.05-8.75,5.66
		c-6.22,11.35-11.09,19.34-15.23,23.96h-33.23c-12.64-19.57-21.91-29.38-28.36-29.38c-8.24,0-12.39,4.41-12.39,12.9
		c0,2.05,0.79,3.87,2.06,5.43c4.92,4.64,8.25,8.49,10.32,11.05h-40.98c-6.44,0-9.52,3.62-9.52,11.11c0,7.22,3.08,10.81,9.02,10.81
		h73.72v10.33h-64.18c-6.45,0-9.54,3.86-9.54,11.32c0,7.24,3.09,10.82,9.02,10.82h64.7v11.35h-75.3c-6.41,0-9.51,3.63-9.51,11.09
		c0,7.21,3.09,11.08,9,11.08h75.54c-0.25,2.07-0.25,4.14-0.25,6.2c0,1.79-0.26,3.87-0.79,6.44h-77.09c-6.4,0-9.52,3.87-9.52,11.33
		c0,7.22,3.12,10.84,9.3,10.84h70.11C2110.81,175.08,2087.36,186.15,2057.96,189.51z"/>
	<path class="st1" d="M2032.56,398.02c-19.57-7.49-33-13.14-39.73-16.74c10.88-9.81,19.86-20.38,27.61-32.22
		c7.75-11.88,11.6-21.16,11.6-27.33c0-10.33-5.14-15.75-14.95-15.75h-42.27h-52.59c-4.41,0-7.23,2.09-8.02,6.2
		c-2.31-2.57-5.13-3.89-8.23-3.89c-1.29,0-2.31,0.28-3.6,0.8c-4.4,2.57-7.23,4.37-9.02,5.14V275.3h15.71
		c5.93,0,8.75-3.62,8.75-11.33c0-7.5-2.82-11.35-8.75-11.35h-15.71v-29.9c0-5.69-3.61-8.75-11.09-8.75
		c-7.74,0-11.36,3.06-11.36,8.75v29.9h-18.55c-5.91,0-9,3.86-9,11.35c0,7.71,3.08,11.33,9,11.33h18.55v50
		c-5.9,2.59-13.65,5.69-22.92,9.3c-3.86,1.53-5.67,4.62-5.67,9.03c0,9.01,3.36,13.65,10.55,13.65c3.12,0,9.04-2.05,18.04-6.7v43.31
		c0,3.84-1.01,5.63-3.09,5.63c-1.77,0-5.66-0.75-11.32-2.55c-0.78-0.26-1.28-0.49-2.07-0.49c-5.66,0-8.47,4.35-8.47,13.13
		c0,8.51,9.77,12.86,29.11,12.86c12.1,0,18.3-6.15,18.3-18.29v-63.91c14.96-7.99,22.43-12.64,22.43-14.17
		c1.02,1.79,3.07,2.57,6.44,2.57h52.59h26.55c1.81,0,2.81,0.77,2.81,2.32c0,2.05-3.61,7.47-10.31,15.98
		c-6.18,7.48-12.62,13.92-19.05,19.34c-0.78,0.78-1.82,1.29-2.59,1.81c-10.56-7.47-21.14-17.54-31.7-30.14
		c-4.14-4.93-7.22-7.26-9.79-7.26c-2.57,0-5.18,1.56-8.01,4.41c-2.59,2.85-4.1,5.42-4.1,8.51c0,2.29,1,4.36,2.83,6.43
		c0.25,0,0.52,0.52,1.04,1.29c10.81,12.39,20.6,22.17,29.87,29.65c-14.66,7.73-30.39,13.92-46.89,18.33
		c-4.14,0.98-5.93,3.82-5.93,8.73c0,10.31,3.34,15.48,10.55,15.48c3.88,0,12.63-2.59,26.29-8.27c13.66-5.14,25.79-11.6,36.85-18.79
		c0.54,0.23,1.06,0.49,1.57,0.77c8.01,4.89,19.05,10.55,32.98,16.74c14.96,6.46,23.98,9.55,27.33,9.55c7.21,0,10.82-4.9,10.82-14.17
		c0-1.82-0.24-3.64-1.28-5.19C2043.91,402.64,2039.74,400.59,2032.56,398.02z"/>
	<path class="st1" d="M1988.75,219.88h-13.93h-28.11c-12.87,0-19.32,6.97-19.32,20.62v18.3c0,9.81-5.68,17.27-17.52,22.43
		c-2.58,1.01-3.89,3.62-3.89,7.48c0,3.35,1.3,6.44,3.63,9.79c2.57,3.11,5.12,4.64,8.21,4.64c4.91,0,11.36-3.36,19.89-10.83
		c8.24-7.2,12.62-18.03,12.62-32.45V249c0-3.84,2.04-5.92,6.16-5.92h18.32h4.11c4.42,0,6.71,2.08,6.71,5.92v28.91
		c0,13.4,6.43,20.07,19.09,20.07h19.59c12.85,0,19.04-6.95,19.04-20.59V256c0-5.95-3.63-8.8-10.81-8.8c-7.47,0-11.08,2.85-11.08,8.8
		v13.65c0,5.14-1.8,7.75-4.91,7.75h-2.8c-3.63,0-5.69-1.81-5.69-5.17V240.5C2008.08,226.86,2001.64,219.88,1988.75,219.88z"/>
	<path class="st1" d="M2174.5,223.52h-51.84c-5.63,0-8.49,3.6-8.49,11.05c0,6.7,2.86,10.07,8.76,10.07h51.57h52.54
		c7.24,0,10.84-3.37,10.84-10.31c0-7.21-3.85-10.8-11.06-10.8h-52.32V223.52z"/>
	<path class="st1" d="M2240.99,254.43h-66.49h-66.51c-1.8,0-3.38,0.52-4.68,1.29c-2.54,1.56-3.83,4.89-3.83,10.07
		c0,4.63,1.29,7.71,3.83,9c1.3,0.79,2.88,1.3,4.68,1.3h66.51h66.76c6.93,0,10.55-3.59,10.55-10.57
		C2251.81,258.28,2248.18,254.43,2240.99,254.43z"/>
	<path class="st1" d="M2107.2,223.75c0-3.61-1.3-6.16-3.89-7.73c-2.31-1.56-5.39-2.05-9.77-2.05c-3.88,0-7.22,4.64-10.06,14.14
		c-8.26,24.75-19.06,49.27-33,72.95c-1.79,3.37-2.59,5.94-2.59,7.5c0,3.35,1.3,6.42,4.4,8.75c3.08,2.34,5.94,3.37,8.23,3.37
		c3.61,0,7.23-3.37,11.36-10.57v104.64c0,6.19,3.85,9.03,11.86,9.03c6.72,0,10.05-3.09,10.05-9.27V266.03
		c4.13-10.04,7.21-18.58,9.52-25.28C2105.89,232.78,2107.2,227.12,2107.2,223.75z"/>
	<path class="st1" d="M2230.43,350.58h-55.93h-54.66c-8.25,0-12.35,4.16-12.35,12.64v41.72c0,9.56,4.1,14.23,12.86,14.23h54.16
		h56.21c7.95,0,11.84-4.15,11.84-12.14v-43.82C2242.55,354.74,2238.66,350.58,2230.43,350.58z M2219.59,389.51
		c0,4.39-1.59,6.74-4.89,6.74h-40.2h-39.46c-3.88,0-5.69-2.1-5.69-5.94v-11.38c0-4.12,1.81-6.43,5.69-6.43h39.46h39.95
		c3.34,0,5.14,1.81,5.14,5.42V389.51z"/>
	<path class="st1" d="M2122.93,307.28h51.57h52.54c7.24,0,10.84-3.61,10.84-10.31c0-7.22-3.85-11.08-11.06-11.08h-52.33h-51.84
		c-5.63,0-8.49,3.86-8.49,11.33C2114.16,303.91,2117.02,307.28,2122.93,307.28z"/>
	<path class="st1" d="M2122.93,339.23h51.57h52.54c7.24,0,10.84-3.6,10.84-10.28c0-7.22-3.85-10.83-11.06-10.83h-52.33h-51.84
		c-5.63,0-8.49,3.61-8.49,10.83C2114.16,335.89,2117.02,339.23,2122.93,339.23z"/>
</g>
<g>
	<polygon class="st2" points="1815.47,497.91 1837.95,497.91 1837.95,473.69 1821.3,473.69 1815.47,473.69 1787.36,473.69 
		1443.13,473.69 744.32,473.69 2.37,473.69 2.37,546.12 744.32,546.12 1443.13,546.12 1792.98,546.12 1792.98,522.13 
		1815.24,522.13 1815.24,546.12 1815.47,546.12 1821.3,546.12 1837.95,546.12 1837.95,522.13 1815.47,522.13 	"/>
	<rect x="1837.95" y="497.91" class="st2" width="22.49" height="24.22"/>
	<rect x="1860.45" y="522.13" class="st2" width="22.48" height="23.99"/>
	<rect x="1860.45" y="473.69" class="st2" width="22.48" height="24.21"/>
	<rect x="1882.93" y="497.91" class="st2" width="22.48" height="24.22"/>
	<rect x="1972.88" y="497.91" class="st2" width="22.49" height="24.22"/>
	<rect x="1950.38" y="522.13" class="st2" width="22.49" height="23.99"/>
	<rect x="1950.38" y="473.69" class="st2" width="22.49" height="24.21"/>
	<rect x="1927.9" y="497.91" class="st2" width="22.48" height="24.22"/>
	<rect x="1905.41" y="522.13" class="st2" width="22.49" height="23.99"/>
	<rect x="1905.41" y="473.69" class="st2" width="22.49" height="24.21"/>
	<rect x="2152.55" y="497.91" class="st2" width="22.48" height="24.22"/>
	<rect x="2130.06" y="522.13" class="st2" width="22.48" height="23.99"/>
	<rect x="2130.06" y="473.69" class="st2" width="22.48" height="24.21"/>
	<rect x="2107.58" y="497.91" class="st2" width="22.48" height="24.22"/>
	<rect x="2085.09" y="522.13" class="st2" width="22.49" height="23.99"/>
	<rect x="2085.09" y="473.69" class="st2" width="22.49" height="24.21"/>
	<rect x="1995.37" y="522.13" class="st2" width="22.27" height="23.99"/>
	<rect x="1995.37" y="473.69" class="st2" width="22.27" height="24.21"/>
	<rect x="2017.63" y="497.91" class="st2" width="22.48" height="24.22"/>
	<rect x="2040.11" y="522.13" class="st2" width="22.5" height="23.99"/>
	<rect x="2040.11" y="473.69" class="st2" width="22.5" height="24.21"/>
	<rect x="2062.61" y="497.91" class="st2" width="22.48" height="24.22"/>
	<rect x="2175.03" y="522.13" class="st2" width="22.49" height="23.99"/>
	<rect x="2175.03" y="473.69" class="st2" width="22.49" height="24.21"/>
	<rect x="2197.52" y="497.91" class="st2" width="22.5" height="24.22"/>
	<rect x="2220.02" y="473.69" class="st2" width="22.48" height="24.21"/>
</g>
</svg>
