<?xml version="1.0" encoding="utf-8"?>
<!-- Generator: Adobe Illustrator 23.0.1, SVG Export Plug-In . SVG Version: 6.00 Build 0)  -->
<svg version="1.1" id="Icon_Set" xmlns="http://www.w3.org/2000/svg" xmlns:xlink="http://www.w3.org/1999/xlink" x="0px" y="0px"
	 viewBox="0 0 96.97 76.49" style="enable-background:new 0 0 96.97 76.49;" xml:space="preserve">
<style type="text/css">
	.st0{fill:#093E8D;}
</style>
<g>
	<path class="st0" d="M90.05,22.01H43.86c-3.82,0-6.92,3.11-6.92,6.92v24.74c0,3.82,3.11,6.92,6.92,6.92h46.18
		c3.82,0,6.92-3.11,6.92-6.92V28.94C96.97,25.12,93.86,22.01,90.05,22.01z M43.86,25.01h46.18c2.16,0,3.92,1.76,3.92,3.92v22.05
		H39.94V28.94C39.94,26.77,41.7,25.01,43.86,25.01z M90.05,57.6H43.86c-2.06,0-3.73-1.6-3.89-3.62h53.97
		C93.78,56,92.1,57.6,90.05,57.6z"/>
	<path class="st0" d="M48.75,37.84c2.81,0,5.1-2.29,5.1-5.1s-2.29-5.1-5.1-5.1s-5.1,2.29-5.1,5.1S45.93,37.84,48.75,37.84z
		 M48.75,30.64c1.16,0,2.1,0.94,2.1,2.1s-0.94,2.1-2.1,2.1s-2.1-0.94-2.1-2.1S47.59,30.64,48.75,30.64z"/>
	<path class="st0" d="M57.89,34.84c-0.31,0-0.61-0.07-0.9-0.21c-0.74-0.36-1.64-0.04-2,0.71c-0.36,0.75-0.04,1.64,0.71,2
		c0.69,0.33,1.43,0.5,2.19,0.5c2.81,0,5.1-2.29,5.1-5.1s-2.29-5.1-5.1-5.1c-0.76,0-1.49,0.17-2.19,0.5c-0.75,0.36-1.07,1.25-0.71,2
		c0.35,0.75,1.25,1.07,2,0.71c0.29-0.14,0.59-0.21,0.9-0.21c1.16,0,2.1,0.94,2.1,2.1S59.05,34.84,57.89,34.84z"/>
	<rect x="45.07" y="44.01" class="st0" width="6.56" height="3"/>
	<rect x="57.47" y="44.01" class="st0" width="6.56" height="3"/>
	<rect x="69.88" y="44.01" class="st0" width="6.56" height="3"/>
	<rect x="82.28" y="44.01" class="st0" width="6.56" height="3"/>
	<path class="st0" d="M81.33,37.84h5.15c2.08,0,3.78-1.7,3.78-3.78v-2.65c0-2.08-1.7-3.78-3.78-3.78h-5.15
		c-2.08,0-3.78,1.7-3.78,3.78v2.65C77.55,36.15,79.25,37.84,81.33,37.84z M80.55,31.42c0-0.43,0.35-0.78,0.78-0.78h5.15
		c0.43,0,0.78,0.35,0.78,0.78v2.65c0,0.43-0.35,0.78-0.78,0.78h-5.15c-0.43,0-0.78-0.35-0.78-0.78V31.42z"/>
</g>
<g>
	<path class="st0" d="M48.67,10.26c0-0.85,0.69-1.54,1.54-1.54h25.06c0.85,0,1.54,0.69,1.54,1.54c0,0.85-0.69,1.54-1.54,1.54H50.21
		C49.36,11.8,48.67,11.11,48.67,10.26z"/>
	<path class="st0" d="M47.65,16.83c0-0.85,0.69-1.54,1.54-1.54h13.15c0.85,0,1.54,0.69,1.54,1.54s-0.69,1.54-1.54,1.54H49.19
		C48.34,18.37,47.65,17.68,47.65,16.83z"/>
	<path class="st0" d="M66.95,16.83c0-0.85,0.69-1.54,1.54-1.54h2.26c0.85,0,1.54,0.69,1.54,1.54s-0.69,1.54-1.54,1.54h-2.26
		C67.64,18.37,66.95,17.68,66.95,16.83z"/>
	<path class="st0" d="M75.38,16.83c0-0.85,0.69-1.54,1.54-1.54h0.21c0.85,0,1.54,0.69,1.54,1.54s-0.69,1.54-1.54,1.54h-0.21
		C76.07,18.37,75.38,17.68,75.38,16.83z"/>
	<path class="st0" d="M80.31,10.26c0-0.85,0.69-1.54,1.54-1.54h2.26c0.85,0,1.54,0.69,1.54,1.54c0,0.85-0.69,1.54-1.54,1.54h-2.26
		C80.99,11.8,80.31,11.11,80.31,10.26z"/>
	<path class="st0" d="M88.73,10.26c0-0.85,0.69-1.54,1.54-1.54h0.21c0.85,0,1.54,0.69,1.54,1.54c0,0.85-0.69,1.54-1.54,1.54h-0.21
		C89.42,11.8,88.73,11.11,88.73,10.26z"/>
</g>
<g>
	<path class="st0" d="M44.26,67.18c0-0.01,0-0.03,0-0.04V60.6h-0.62c-0.84,0-1.64-0.16-2.38-0.43v5.53H3V10.79h38.26v11.65
		c0.74-0.27,1.54-0.43,2.38-0.43h0.62V9.35c0-0.01,0-0.03,0-0.04c0-0.01,0-0.01,0-0.02c0-0.02-0.01-0.04-0.01-0.06
		C44.18,4.13,40.02,0,34.91,0H9.35C4.24,0,0.07,4.13,0.01,9.23C0.01,9.25,0,9.27,0,9.29C0,9.3,0,9.3,0,9.31c0,0.01,0,0.03,0,0.04
		v57.78c0,0.01,0,0.03,0,0.04c0,0.01,0,0.01,0,0.02c0,0.02,0.01,0.04,0.01,0.06c0.07,5.1,4.23,9.23,9.35,9.23h25.55
		c5.11,0,9.28-4.13,9.35-9.23c0-0.02,0.01-0.04,0.01-0.06C44.26,67.19,44.26,67.18,44.26,67.18z M9.35,3h25.55
		c2.96,0,5.45,2.04,6.15,4.79H3.2C3.9,5.04,6.39,3,9.35,3z M34.91,73.49H9.35c-2.96,0-5.45-2.04-6.15-4.79h37.85
		C40.36,71.45,37.87,73.49,34.91,73.49z"/>
	<path class="st0" d="M16.72,6.93h10.82c0.83,0,1.5-0.67,1.5-1.5s-0.67-1.5-1.5-1.5H16.72c-0.83,0-1.5,0.67-1.5,1.5
		S15.89,6.93,16.72,6.93z"/>
	<path class="st0" d="M27.54,69.45H16.72c-0.83,0-1.5,0.67-1.5,1.5s0.67,1.5,1.5,1.5h10.82c0.83,0,1.5-0.67,1.5-1.5
		S28.37,69.45,27.54,69.45z"/>
	<path class="st0" d="M18.57,24.71c-5.64,1.58-9.58,6.79-9.58,12.65c0,7.25,5.89,13.14,13.14,13.14c7.25,0,13.14-5.89,13.14-13.14
		c0-4.17-1.91-8-5.25-10.51c-0.67-0.5-1.62-0.37-2.12,0.3c-0.5,0.67-0.37,1.62,0.3,2.12c2.57,1.93,4.04,4.88,4.04,8.09
		c0,5.57-4.53,10.11-10.11,10.11s-10.11-4.53-10.11-10.11c0-4.51,3.03-8.51,7.37-9.73c0.81-0.23,1.28-1.06,1.05-1.87
		C20.21,24.96,19.38,24.49,18.57,24.71z"/>
	<path class="st0" d="M22.21,28.37c-0.84,0-1.52,0.68-1.52,1.52v1.01c-1.84,0.55-3.18,2.05-3.18,3.85c0,2.24,2.1,4.06,4.67,4.06
		c0.94,0,1.64,0.54,1.64,1.03c0,0.49-0.7,1.03-1.64,1.03h-0.11c-0.94,0-1.64-0.54-1.64-1.03c0-0.84-0.68-1.52-1.52-1.52
		s-1.52,0.68-1.52,1.52c0,1.82,1.39,3.34,3.29,3.86v0.95c0,0.84,0.68,1.52,1.52,1.52c0.84,0,1.52-0.68,1.52-1.52v-1
		c1.82-0.56,3.14-2.05,3.14-3.82c0-2.24-2.1-4.06-4.67-4.06c-0.94,0-1.64-0.54-1.64-1.05c0-0.49,0.7-1.03,1.64-1.03h0.11
		c0.94,0,1.64,0.54,1.64,1.03c0,0.84,0.68,1.52,1.52,1.52s1.52-0.68,1.52-1.52c0-1.8-1.37-3.32-3.25-3.85v-0.99
		C23.73,29.05,23.05,28.37,22.21,28.37z"/>
</g>
</svg>
