<?xml version="1.0" encoding="utf-8"?>
<!-- Generator: Adobe Illustrator 23.0.1, SVG Export Plug-In . SVG Version: 6.00 Build 0)  -->
<svg version="1.1" id="Icon_Set" xmlns="http://www.w3.org/2000/svg" xmlns:xlink="http://www.w3.org/1999/xlink" x="0px" y="0px"
	 viewBox="0 0 96.97 76.49" style="enable-background:new 0 0 96.97 76.49;" xml:space="preserve">
<style type="text/css">
	.st0{fill:#093E8D;}
</style>
<g>
	<path class="st0" d="M35.82,70.09h29.94c0.86,0,1.56-0.7,1.56-1.56V44.99c0-0.86-0.7-1.56-1.56-1.56H35.82
		c-0.86,0-1.56,0.7-1.56,1.56v23.54C34.26,69.4,34.96,70.09,35.82,70.09z M37.38,46.55H64.2v20.43H37.38V46.55z"/>
	<path class="st0" d="M61.43,50.36h-1.56v-1.23c0-0.86-0.7-1.56-1.56-1.56s-1.56,0.7-1.56,1.56v1.23H55.2
		c-0.86,0-1.56,0.7-1.56,1.56s0.7,1.56,1.56,1.56h1.56v1.35c0,0.86,0.7,1.56,1.56,1.56s1.56-0.7,1.56-1.56v-1.35h1.56
		c0.86,0,1.56-0.7,1.56-1.56S62.29,50.36,61.43,50.36z"/>
	<path class="st0" d="M77.16,34.15c0-0.04,0-0.07-0.01-0.11c-0.02-0.12-0.05-0.23-0.1-0.34c0,0,0,0,0,0l-6.4-14.92
		c-0.25-0.57-0.81-0.94-1.43-0.94h-7.44V1.56c0-0.86-0.7-1.56-1.56-1.56H17.31c-0.86,0-1.56,0.7-1.56,1.56v16.28H8.13
		c-0.62,0-1.18,0.36-1.43,0.93L0.13,33.68c0,0,0,0.01,0,0.01c-0.05,0.11-0.08,0.22-0.1,0.34c-0.01,0.04-0.01,0.07-0.01,0.11
		C0.01,34.2,0,34.25,0,34.31v4.71c0,0.86,0.7,1.56,1.56,1.56h3.11v34.35c0,0.86,0.7,1.56,1.56,1.56h5.11h19.9h40.23
		c0.86,0,1.56-0.7,1.56-1.56V40.58h2.6c0.86,0,1.56-0.7,1.56-1.56v-4.71C77.18,34.26,77.17,34.2,77.16,34.15z M58.66,3.11v25.11
		h-39.8v-6.13c0.18,0.23,0.43,0.41,0.73,0.51c0.16,0.05,0.32,0.08,0.48,0.08c0.66,0,1.27-0.42,1.48-1.08l3.29-10.14
		c0.27-0.82-0.18-1.7-1-1.96c-0.82-0.26-1.7,0.18-1.96,1l-3.02,9.31V3.11H58.66z M9.15,20.95h6.6v8.83c0,0.86,0.7,1.56,1.56,1.56
		h42.92c0.86,0,1.56-0.7,1.56-1.56v-8.83h6.42l5.07,11.8H3.95L9.15,20.95z M18,64.8h1.73v8.57h-6.84v-19.9h6.84v8.22H18
		c-0.86,0-1.56,0.7-1.56,1.56C16.44,64.1,17.14,64.8,18,64.8z M22.84,73.37V64.8h1.73c0.86,0,1.56-0.7,1.56-1.56
		c0-0.86-0.7-1.56-1.56-1.56h-1.73v-8.22h6.84v19.9H22.84z M69.91,73.37H32.79V51.91c0-0.86-0.7-1.56-1.56-1.56h-19.9
		c-0.86,0-1.56,0.7-1.56,1.56v21.46H7.79V40.58h62.13V73.37z M3.11,37.47v-1.59h70.95v1.59H3.11z"/>
	<path class="st0" d="M35.99,25.44h19.38c0.86,0,1.56-0.7,1.56-1.56V7.52c0-0.03-0.01-0.05-0.01-0.08c0-0.06-0.01-0.11-0.02-0.17
		c-0.01-0.05-0.02-0.09-0.03-0.14c-0.01-0.05-0.03-0.1-0.05-0.15c-0.02-0.05-0.04-0.09-0.06-0.13c-0.02-0.05-0.05-0.09-0.07-0.13
		c-0.03-0.04-0.06-0.09-0.09-0.13c-0.02-0.02-0.03-0.05-0.05-0.07c-0.01-0.02-0.03-0.03-0.05-0.05c-0.04-0.04-0.07-0.07-0.11-0.11
		c-0.04-0.03-0.08-0.07-0.12-0.1c-0.04-0.03-0.08-0.05-0.12-0.08c-0.04-0.03-0.09-0.05-0.14-0.07c-0.05-0.02-0.09-0.04-0.14-0.05
		c-0.05-0.02-0.09-0.03-0.14-0.04C55.7,6,55.65,5.99,55.6,5.98c-0.05-0.01-0.1-0.01-0.16-0.02c-0.02,0-0.04-0.01-0.07-0.01H35.99
		c-0.86,0-1.56,0.7-1.56,1.56v16.37C34.44,24.74,35.13,25.44,35.99,25.44z M37.55,22.32V11.53l7.2,5.41
		c0.28,0.21,0.61,0.31,0.94,0.31c0.36,0,0.72-0.12,1-0.37l7.13-6.02v11.45H37.55z M39.47,9.07h11.65l-5.49,4.63L39.47,9.07z"/>
	<path class="st0" d="M23.92,22.59c0.16,0.05,0.32,0.08,0.48,0.08c0.66,0,1.27-0.42,1.48-1.08l3.29-10.14c0.27-0.82-0.18-1.7-1-1.96
		c-0.82-0.26-1.7,0.18-1.96,1l-3.29,10.14C22.65,21.45,23.1,22.33,23.92,22.59z"/>
	<path class="st0" d="M28.25,22.59c0.16,0.05,0.32,0.08,0.48,0.08c0.66,0,1.27-0.42,1.48-1.08l3.29-10.14c0.27-0.82-0.18-1.7-1-1.96
		c-0.82-0.26-1.7,0.18-1.96,1l-3.29,10.14C26.98,21.45,27.43,22.33,28.25,22.59z"/>
</g>
</svg>
