<?xml version="1.0" encoding="utf-8"?>
<!-- Generator: Adobe Illustrator 28.0.0, SVG Export Plug-In . SVG Version: 6.00 Build 0)  -->
<svg version="1.1" id="圖層_1" xmlns="http://www.w3.org/2000/svg" xmlns:xlink="http://www.w3.org/1999/xlink" x="0px" y="0px"
	 viewBox="0 0 178 45" style="enable-background:new 0 0 178 45;" xml:space="preserve">
<style type="text/css">
	.st0{clip-path:url(#SVGID_00000116943421819010986530000000402717392638281890_);}
	.st1{fill:none;stroke:#FFFFFF;}
	.st2{fill:#00367B;}
	.st3{fill:#50B848;}
	.st4{fill:url(#SVGID_00000091013294572939311830000014938396376758657686_);}
	.st5{fill:url(#SVGID_00000130644372010598053570000004476905535373749906_);}
	.st6{fill:#FFFFFF;}
	.st7{fill:url(#SVGID_00000137106236295819315090000011147359327455099290_);}
</style>
<g>
	<defs>
		<rect id="SVGID_1_" y="0" width="178" height="45"/>
	</defs>
	<clipPath id="SVGID_00000034774360180345814210000013705304521130662542_">
		<use xlink:href="#SVGID_1_"  style="overflow:visible;"/>
	</clipPath>
	<g style="clip-path:url(#SVGID_00000034774360180345814210000013705304521130662542_);">
		<rect x="0.5" y="0.5" class="st1" width="44" height="44"/>
		<path class="st2" d="M1,22.6L22.6,1H1V22.6z"/>
		<path class="st2" d="M22.6,44.2L1,22.6v21.6H22.6z"/>
		<path class="st2" d="M22.6,44.2l21.6-21.6v21.6H22.6z"/>
		<path class="st3" d="M44.2,22.6L22.6,1h21.6V22.6z"/>
		
			<linearGradient id="SVGID_00000133488891182393453780000004951253305725257875_" gradientUnits="userSpaceOnUse" x1="11.8477" y1="33.4368" x2="22.887" y2="22.3884" gradientTransform="matrix(1 0 0 -1 0 45.2758)">
			<stop  offset="0" style="stop-color:#EF4622"/>
			<stop  offset="0.2" style="stop-color:#F15A21"/>
			<stop  offset="0.52" style="stop-color:#F6851E"/>
			<stop  offset="1" style="stop-color:#FFE300"/>
		</linearGradient>
		<path style="fill:url(#SVGID_00000133488891182393453780000004951253305725257875_);" d="M22.6,1L1,22.6h21.6V1z"/>
		
			<linearGradient id="SVGID_00000011749178210666197900000011379723257244817812_" gradientUnits="userSpaceOnUse" x1="11.8502" y1="11.9172" x2="22.8895" y2="22.9555" gradientTransform="matrix(1 0 0 -1 0 45.2758)">
			<stop  offset="0" style="stop-color:#EF4622"/>
			<stop  offset="0.2" style="stop-color:#F15A21"/>
			<stop  offset="0.52" style="stop-color:#F6851E"/>
			<stop  offset="1" style="stop-color:#FFE300"/>
		</linearGradient>
		<path style="fill:url(#SVGID_00000011749178210666197900000011379723257244817812_);" d="M1,22.6l21.6,21.6V22.6H1z"/>
		<path class="st6" d="M44.2,22.6L22.6,44.2V22.6H44.2z"/>
		
			<linearGradient id="SVGID_00000039841039057331867760000003085047063687709842_" gradientUnits="userSpaceOnUse" x1="33.5105" y1="33.5597" x2="22.6216" y2="22.6719" gradientTransform="matrix(1 0 0 -1 0 45.2758)">
			<stop  offset="0" style="stop-color:#073C87"/>
			<stop  offset="0.2" style="stop-color:#00408A"/>
			<stop  offset="0.52" style="stop-color:#0063AC"/>
			<stop  offset="1" style="stop-color:#00AEEF"/>
		</linearGradient>
		<path style="fill:url(#SVGID_00000039841039057331867760000003085047063687709842_);" d="M44.2,22.6L22.6,1v21.6H44.2z"/>
		<path class="st6" d="M178,12.5h-8c-0.8-1.1-1.2-2-1.3-2.4h7.2V8.2h-3.8c0.8-1.5,1.7-3.6,1.8-3.6h-2.5c-0.4,0.9-1,2.5-1.6,3.6h-3.3
			c0.8-2.2,1.1-3.9,1.1-4.6h-2.1c-0.1,1.5-0.6,3.1-1.2,4.6h-1.4c-0.7-1.8-1.4-3.6-1.4-3.6H159c0,0,0.8,2,1.4,3.6h-3.9v1.9h6.8
			c-0.4,0.8-0.9,1.6-1.5,2.4h-7.5v2.1h5.8c-1.7,1.8-3.7,3.3-5.8,4v2c2-0.5,3.6-1.4,5.1-2.4v0.8h4.3c-0.4,2.8-4.4,5.2-6.2,5.6v1.9
			c3.5-1,7.6-3,8.6-7.5h4.1c-0.2,3.7-0.2,4.9-0.6,5.2c-0.1,0.1-0.3,0.2-0.5,0.2c-0.6,0-1.8,0-2.6-0.1l0.3,1.8c0.8,0,2.3,0.1,2.9,0.1
			c0.6,0,1.1-0.1,1.5-0.4c0.7-0.5,0.9-2.3,1.1-6.8c0-0.1,0-0.5,0-0.5c0-0.2,0-0.4-0.1-0.5c1.5,1.1,3.4,2.1,5.7,2.7v-2
			c-2.7-0.9-4.8-2.5-6.3-4h6.3L178,12.5L178,12.5z M165.6,10.1h0.7c0.2,0.4,0.5,1.3,1.1,2.4h-3.1C164.9,11.7,165.3,10.9,165.6,10.1z
			 M171,17h-10.2c0.9-0.8,1.6-1.6,2.2-2.5h5.8c0.6,0.8,1.4,1.7,2.4,2.5C171.2,17,171.1,17,171,17L171,17z"/>
		<path class="st6" d="M71.5,10.8H62v1.8h9.5V10.8z M71.9,22l-2.3,0.4l0.9-2.6h-1.9l-1,2.9L65.8,23c-0.1-1-0.3-2-0.7-3.2h-2
			c0.5,1,0.8,2.4,0.9,3.5c-1.1,0.2-1.9,0.3-2.7,0.4v2.2c2.6-0.5,7.6-1.7,10.6-2.3L71.9,22L71.9,22z M63.4,9.8h8.1V4.3h-2V8h-1.7V3.6
			h-2V8H64V4.3h-2v4.1C62,9.2,62.6,9.8,63.4,9.8L63.4,9.8z M63.4,19.1h8.1V15c0-0.8-0.6-1.4-1.4-1.4H62v4.1
			C62,18.5,62.6,19.1,63.4,19.1z M64.1,15.3h5.3v2.2h-5.3V15.3z M82,24.2c-0.5-0.1-0.7-0.3-0.7-0.8V5.7c0-0.8-0.6-1.4-1.4-1.4h-5.7
			v11.1c0,4-0.3,7.9-2.9,10.7h2.3c2.6-3,2.7-6.3,2.7-10.7V6.1h2.6v17.7c0,1.3,0.4,2.1,1.6,2.3c0.7,0.1,2.4,0.1,3.6,0l0.4-1.9
			C83.6,24.2,82.5,24.2,82,24.2L82,24.2z"/>
		<path class="st6" d="M115.7,15.3h-5.9V7.7h3.8V5.8h-3.8V3.6h-2.2v2.3h-7.4V3.6H98v2.3h-3.8v1.9H98v7.6h-5.9v1.9h5.5
			c-0.8,1.5-3.2,3.2-5.5,3.9v2.1c2.8-0.9,4.6-1.9,5.7-2.9v1.6h4.9v2.4h-8.4v1.9h19.1v-1.9H105v-2.4h4.9v-1.6c1.1,1,2.9,2.1,5.7,2.9
			v-2.1c-2.3-0.7-4.6-2.4-5.5-3.9h5.5V15.3z M100.2,7.7h7.3V9h-7.3V7.7z M100.2,10.9h7.3v1.3h-7.3V10.9z M100.2,14h7.3v1.3h-7.3V14z
			 M105.1,19.9V18h-2.4v1.9h-4.6c1.2-1.1,1.7-2.1,2-2.7h7.5c0.2,0.6,0.8,1.6,2,2.7H105.1L105.1,19.9z"/>
		<path class="st6" d="M124.5,9.8h8V7.9h-8V9.8z M131.5,11.5h-6.1v1.9h6.1V11.5z M125.4,16.9h6.1V15h-6.1V16.9z M131.3,4.4h-5.7v1.9
			h5.7V4.4z M130.6,18.4H125v6.3c0,0.8,0.6,1.4,1.4,1.4h5.6v-6.3C131.9,19,131.3,18.4,130.6,18.4L130.6,18.4z M129.8,24.2h-2.8v-3.9
			h2.8V24.2z M144.3,10.5c1-0.8,1.8-1.4,2.5-2.1l-1.2-1.1c-0.5,0.6-1.1,1.2-2,1.9c-0.3-0.6-0.5-1.1-0.8-1.7c1.1-0.9,2-1.6,2.7-2.3
			L144.3,4c-0.5,0.6-1.1,1.2-2,2c-0.2-0.6-0.3-1-0.4-1.5h-1.8c0.6,2.8,1.4,4.8,2.5,6.6h-5.8c1-1.6,1.8-3.4,2.3-5.5c0,0,0-0.1,0-0.1
			c0-0.2,0.1-0.5-0.2-0.8c0,0-0.2-0.2-0.6-0.2h-4.9v1.7h3.7c-0.3,1-0.6,1.8-1,2.6c-0.6-0.6-1.2-1.2-2-1.7l-1,1.1
			c0.9,0.7,1.6,1.4,2.1,2c-0.4,0.7-1.4,1.9-2.5,2.5v1.9c0.9-0.2,2.5-1.4,3.5-2.6v1h7v-0.9c0.9,1.1,2.5,2.2,3.5,2.6v-1.9
			C145.6,12.1,144.6,11.1,144.3,10.5L144.3,10.5z M143.8,20.8h-2.1c-0.6,1.2-1.1,3.4-1.1,3.4h-2c0,0-0.5-2.2-1.1-3.4h-2.1
			c0.5,1.1,0.9,2.5,1.1,3.4H133v1.8h13.4v-1.8h-3.6C142.9,23.3,143.3,21.9,143.8,20.8L143.8,20.8z M144.8,20.1v-4.4
			c0-0.8-0.6-1.4-1.4-1.4h-8.9v4.4c0,0.8,0.6,1.4,1.4,1.4H144.8L144.8,20.1z M136.5,16.2h6.4v2h-6.4V16.2z"/>
		<path class="st6" d="M72,40.3c-0.3,0.1-0.6,0.2-1,0.2c-1.3,0-2.5-1-2.5-2.7c0-1.7,1.1-2.7,2.6-2.7c0.6,0,1.2,0.2,1.6,0.4l0,0
			l0.5-0.9l0,0c-0.5-0.3-1.3-0.6-2.1-0.6c-2.6,0-4.2,1.8-4.2,3.8c0,2.2,1.6,3.9,4.2,3.9c0.9,0,1.7-0.2,2.5-0.5h0v-3.1H72L72,40.3
			L72,40.3z M74.8,34.1v7.4h1.6v-7.4H74.8z M66.9,34.1h-1.6l-2.5,3.2v-3.2h-1.6v7.4h1.6v-3.7l2.7,3.7h1.9l-3.2-4.1L66.9,34.1
			L66.9,34.1z"/>
		<path class="st6" d="M84.1,37.3c-0.9-0.7-1.4-1.1-1.4-1.5c0-0.4,0.3-0.7,0.9-0.7c0.4,0,0.9,0.2,1.2,0.4l0,0l0,0l0.5-0.8l0,0
			c-0.4-0.3-1-0.7-1.9-0.7c-1.3,0-2.4,0.8-2.4,1.8c0,1,0.6,1.5,1.3,2c0.6,0.5,1.6,1,1.6,1.8c0,0.7-0.5,1-1.1,1
			c-0.7,0-1.1-0.3-1.5-0.6l0,0l-0.6,0.9l0,0c0.6,0.5,1.4,0.7,2.2,0.8c1.7,0,2.6-1.1,2.6-2C85.6,38.6,85.1,38,84.1,37.3z M95.4,35.1
			c0.6,0,1.2,0.2,1.5,0.4l0,0v0l0.5-0.9l0,0c-0.5-0.3-1.2-0.6-2-0.6c-2.6,0-4.2,1.8-4.2,3.8c0,2.2,1.6,3.9,4.2,3.9
			c0.7,0,1.5-0.2,2-0.5l0,0l-0.4-1l0,0c-0.4,0.2-0.9,0.4-1.5,0.4c-1.4,0-2.6-1-2.6-2.7C92.8,36.1,93.9,35.1,95.4,35.1z M102.7,38.4
			c0,1.2-0.4,2.1-1.5,2.1c-1.2,0-1.6-0.8-1.6-2.2v-4.3H98v4.5c0,1,0.3,1.8,0.8,2.3c0.5,0.5,1.3,0.8,2.3,0.8c1.8,0,3-1.1,3-2.9v-4.6
			h-1.4V38.4L102.7,38.4z M111.3,41.5h1.6v-7.4h-1.6V41.5z M119.9,41.5h1.6v-7.4h-1.6V41.5z M131,37.3c-0.9-0.7-1.4-1.1-1.4-1.5
			c0-0.4,0.3-0.7,0.9-0.7c0.4,0,0.8,0.2,1.2,0.4l0,0l0,0l0.5-0.8l0,0c-0.4-0.3-1-0.7-1.9-0.7c-1.3,0-2.4,0.8-2.4,1.8
			c0,1,0.6,1.5,1.3,2c0.6,0.5,1.6,1,1.6,1.8c0,0.7-0.5,1-1.1,1c-0.7,0-1.1-0.3-1.5-0.6l0,0l-0.6,0.9l0,0c0.6,0.5,1.4,0.7,2.2,0.8
			c1.7,0,2.6-1.1,2.6-2C132.5,38.6,132,38,131,37.3L131,37.3z M110.3,36c0-1.3-1-2-2.4-2h-2.6v7.4h1.6v-2.9h0.8l1.4,2.9h1.8
			l-1.9-3.3C109.7,37.8,110.3,37.1,110.3,36L110.3,36z M107.4,37.5h-0.6v-2.4h0.7c0.6,0,1.1,0.3,1.1,1.1
			C108.7,36.7,108.4,37.5,107.4,37.5z M113.4,35.1h2.3v6.4h1.6v-6.4h1.7l0.6-1.1h-6.1L113.4,35.1L113.4,35.1z M90.5,35.1l0.6-1.1
			h-4.6v7.4h4.5v-1.1H88v-2.3h2.4v-1.1H88v-2H90.5z M126.8,35.1l0.6-1.1h-4.6v7.4h4.5v-1.1h-2.9v-2.3h2.4v-1.1h-2.4v-2H126.8z"/>
	</g>
</g>
</svg>
