<svg width="178" height="45" viewBox="0 0 178 45" fill="none" xmlns="http://www.w3.org/2000/svg">
<g clip-path="url(#clip0_2668_36796)">
<rect x="0.5" y="0.5" width="44" height="44" stroke="white"/>
<path d="M1 22.5973L22.6151 1H1V22.5973Z" fill="#00367B"/>
<path d="M22.6151 44.2047L1 22.5974V44.2047H22.6151Z" fill="#00367B"/>
<path d="M22.6152 44.2047L44.2404 22.5974V44.2047H22.6152Z" fill="#00367B"/>
<path d="M44.2404 22.5973L22.6152 1H44.2404V22.5973Z" fill="#50B848"/>
<path d="M22.6151 1L1 22.5973H22.6151V1Z" fill="url(#paint0_linear_2668_36796)"/>
<path d="M1 22.5974L22.6151 44.2047V22.5974H1Z" fill="url(#paint1_linear_2668_36796)"/>
<path d="M44.2404 22.5974L22.6152 44.2047V22.5974H44.2404Z" fill="white"/>
<path d="M44.2404 22.5973L22.6152 1V22.5973H44.2404Z" fill="url(#paint2_linear_2668_36796)"/>
<path d="M177.969 12.4755H169.971C169.219 11.3725 168.797 10.4701 168.677 10.0591H175.832V8.1941H172.058C172.881 6.71016 173.784 4.56446 173.815 4.58451H171.296C170.924 5.4468 170.262 7.05106 169.65 8.1941H166.379C167.131 6.03837 167.442 4.26366 167.503 3.5618H165.375C165.235 5.06579 164.823 6.63997 164.201 8.1941H162.756C162.054 6.38931 161.361 4.60457 161.351 4.58451H158.953C158.953 4.58451 159.736 6.57981 160.368 8.1941H156.514V10.0591H163.348C162.907 10.8913 162.415 11.7034 161.863 12.4755H154.377V14.551H160.177C158.491 16.3658 156.514 17.8096 154.377 18.5817V20.5369C156.334 20.0255 158.02 19.1833 159.455 18.1505V18.9126H163.78C163.338 21.7401 159.384 24.0662 157.548 24.5074V26.4526C161.08 25.4098 165.174 23.4245 166.158 18.9126H170.272C170.112 22.6525 170.041 23.8256 169.72 24.0763C169.6 24.1765 169.439 24.2267 169.229 24.2267C168.616 24.2467 167.392 24.1966 166.599 24.1465L166.86 25.9914C167.703 26.0114 169.138 26.0615 169.77 26.0415C170.403 26.0114 170.894 25.9212 171.246 25.6906C171.918 25.2293 172.159 23.3744 172.38 18.8925C172.38 18.7622 172.41 18.3912 172.41 18.3912C172.41 18.2007 172.369 18.0202 172.299 17.8698C173.815 18.9827 175.671 19.9453 177.949 20.5369V18.5817C175.229 17.6392 173.182 16.0851 171.697 14.551H177.999V12.4755H177.969ZM165.646 10.0591H166.359C166.509 10.4802 166.87 11.3725 167.503 12.4755H164.432C164.904 11.6633 165.305 10.8512 165.646 10.0591ZM171.015 17.0276H160.809C161.662 16.2555 162.405 15.4233 163.057 14.551H168.877C169.52 15.3832 170.302 16.2455 171.246 17.0576C171.165 17.0476 171.095 17.0376 171.015 17.0376V17.0276Z" fill="#00367B"/>
<path d="M71.5386 10.811H62.0255V12.6158H71.5386V10.811ZM71.8798 21.9907L69.5617 22.3818L70.4247 19.8049H68.5482L67.5547 22.7227L65.7886 23.0134C65.6882 22.0509 65.4976 20.9881 65.046 19.7949H63.0591C63.5107 20.8377 63.8318 22.2414 63.9522 23.2842C62.8885 23.4446 62.0757 23.5649 61.293 23.6652V25.881C63.892 25.4098 68.9395 24.1865 71.8898 23.5649V21.9907H71.8798ZM63.3903 9.77829H71.5386V4.3238H69.5115V8.00358H67.7855V3.57181H65.7585V8.00358H64.0325V4.3238H62.0054V8.42469C62.0054 9.17669 62.6176 9.78831 63.3702 9.78831L63.3903 9.77829ZM63.3903 19.093H71.5386V14.9721C71.5386 14.2201 70.9265 13.6085 70.1738 13.6085H62.0255V17.7294C62.0255 18.4814 62.6376 19.093 63.3903 19.093ZM64.1328 15.2528H69.4212V17.4386H64.1328V15.2528ZM82.0451 24.1865C81.5534 24.1364 81.3928 23.9158 81.3928 23.4346V5.6774C81.3928 4.9254 80.7907 4.31378 80.0381 4.31378H74.3684V15.3932C74.3684 19.3637 74.0573 23.2842 71.4984 26.0816H73.7864C76.3955 23.0836 76.4858 19.7448 76.4858 15.3932V6.14865H79.0547V23.8156C79.0647 25.1391 79.4461 25.8911 80.6402 26.0916C81.2925 26.2119 83.0285 26.1919 84.2227 26.1117L84.604 24.1665C83.6005 24.2367 82.4967 24.2166 82.0551 24.1966L82.0451 24.1865Z" fill="#00367B"/>
<path d="M115.682 15.3431H109.792V7.70281H113.625V5.84788H109.792V3.57184H107.574V5.84788H100.188V3.57184H97.9705V5.84788H94.1372V7.70281H97.9705V15.3431H92.0801V17.208H97.539C96.7262 18.682 94.358 20.4065 92.0801 21.0884V23.1839C94.8798 22.3216 96.656 21.2588 97.8 20.2361V21.7902H102.717V24.2367H94.358V26.1017H113.414V24.2367H105.045V21.7902H109.962V20.2361C111.106 21.2588 112.882 22.3216 115.682 23.1839V21.0884C113.404 20.4065 111.036 18.692 110.223 17.208H115.682V15.3431ZM100.218 7.70281H107.554V9.00627H100.218V7.70281ZM100.218 10.8712H107.554V12.1847H100.218V10.8712ZM100.218 14.0396H107.554V15.3431H100.218V14.0396ZM105.065 19.9253V18.0002H102.707V19.9253H98.1311C99.3253 18.7822 99.8772 17.7796 100.108 17.208H107.654C107.885 17.7796 108.437 18.7822 109.631 19.9253H105.055H105.065Z" fill="#00367B"/>
<path d="M124.463 9.83845H132.441V7.90331H124.463V9.83845ZM131.497 11.4628H125.396V13.3979H131.497V11.4628ZM125.396 16.9172H131.497V14.9821H125.396V16.9172ZM131.267 4.41405H125.617V6.28903H131.267V4.41405ZM130.564 18.4313H124.965V24.718C124.965 25.47 125.577 26.0816 126.329 26.0816H131.929V19.7949C131.929 19.0429 131.317 18.4313 130.574 18.4313H130.564ZM129.832 24.2066H127.062V20.2962H129.832V24.2066ZM144.282 10.4501C145.295 9.67803 146.098 9.0263 146.75 8.37457L145.536 7.26161C145.044 7.86321 144.402 8.44475 143.509 9.18672C143.208 8.63526 142.997 8.1239 142.736 7.47217C143.86 6.61991 144.753 5.87794 145.466 5.14599L144.312 4.02301C143.8 4.64466 143.178 5.2262 142.265 6.00828C142.074 5.40668 141.964 5.0357 141.863 4.51431H140.057C140.629 7.36188 141.442 9.35717 142.586 11.162H136.806C137.829 9.60784 138.622 7.77297 139.104 5.70748C139.104 5.69746 139.124 5.6373 139.124 5.59719C139.144 5.41671 139.184 5.05575 138.943 4.76498C138.923 4.74493 138.773 4.52434 138.331 4.52434H133.404V6.21884H137.097C136.796 7.24156 136.545 7.9735 136.073 8.84582C135.511 8.2743 134.829 7.69275 134.036 7.12124L133.073 8.21414C133.946 8.88592 134.648 9.56773 135.21 10.2596C134.829 10.9715 133.785 12.1145 132.661 12.7261V14.6713C133.585 14.4607 135.21 13.2275 136.164 12.0744V13.0269H143.188V12.0844C144.061 13.2074 145.707 14.2602 146.71 14.6512V12.7261C145.606 12.0744 144.643 11.0818 144.302 10.4501H144.282ZM143.82 20.7976H141.753C141.161 22.0208 140.689 24.2467 140.689 24.2467H138.662C138.662 24.2467 138.181 22.0308 137.599 20.7976H135.531C136.023 21.8503 136.424 23.2641 136.605 24.2467H132.972V26.0816H146.389V24.2467H142.756C142.947 23.2741 143.338 21.8503 143.84 20.7976H143.82ZM144.804 20.0857V15.704C144.804 14.952 144.191 14.3404 143.439 14.3404H134.528V18.7321C134.528 19.4841 135.14 20.0857 135.883 20.0857H144.794H144.804ZM136.465 16.1753H142.877V18.2207H136.465V16.1753Z" fill="#00367B"/>
<path d="M71.9712 40.3394C71.6701 40.4698 71.349 40.5099 70.9576 40.5099C69.7033 40.5099 68.469 39.4972 68.469 37.7626C68.469 36.1082 69.5327 35.0654 71.0981 35.0554C71.6601 35.0554 72.2822 35.2359 72.6736 35.4364L72.7037 35.4565L73.2054 34.524L73.1854 34.504C72.6937 34.1831 71.8808 33.9324 71.058 33.9324C68.4389 33.9324 66.8233 35.7071 66.8233 37.7325C66.8233 39.9183 68.4489 41.6128 71.0178 41.6229C71.8708 41.6229 72.7037 41.4324 73.4965 41.1717H73.5165V38.0634H71.9611V40.3394H71.9712ZM74.7508 34.0628V41.4925H76.3062V34.0628H74.7508ZM66.9236 34.0628H65.3381L62.8093 37.2212V34.0628H61.2539V41.4925H62.8093V37.8027L65.5187 41.4925H67.4254L64.1841 37.3916L66.9336 34.0628H66.9236Z" fill="#00367B"/>
<path d="M84.0934 37.2512C83.2304 36.5694 82.7186 36.1985 82.7286 35.7372C82.7286 35.3261 83.0397 34.9953 83.6518 34.9953C84.0733 34.9953 84.5048 35.1858 84.8259 35.4063L84.856 35.4264L84.8761 35.3963L85.418 34.6042L85.3979 34.5842C85.0467 34.2433 84.3643 33.9324 83.5113 33.9324C82.1667 33.9324 81.1431 34.7446 81.1431 35.7573C81.1431 36.7499 81.7552 37.2212 82.4677 37.7927C83.0698 38.2539 84.0432 38.7953 84.0332 39.5774C84.0332 40.2492 83.5214 40.56 82.9193 40.5701C82.267 40.5701 81.8255 40.2693 81.4341 39.9885L81.404 39.9685L80.832 40.8608L80.8521 40.8809C81.404 41.3922 82.267 41.6229 83.0397 41.6329C84.7155 41.6329 85.6187 40.55 85.6187 39.5975C85.6187 38.6449 85.0768 38.0434 84.0934 37.2512ZM95.3625 35.0554C95.9245 35.0554 96.5165 35.276 96.8778 35.4665L96.9079 35.4866V35.4565L97.3996 34.534L97.3695 34.514C96.8577 34.2232 96.1352 33.9425 95.3625 33.9425C92.7535 33.9425 91.1378 35.7172 91.1378 37.7426C91.1378 39.9284 92.7635 41.6229 95.3425 41.6329C96.065 41.6329 96.8577 41.3922 97.3193 41.1215L97.3494 41.1015L96.9079 40.1289L96.8778 40.1489C96.4965 40.3595 95.9747 40.5099 95.4027 40.5099C93.9777 40.5099 92.7836 39.4972 92.7836 37.7626C92.7836 36.1082 93.8673 35.0654 95.3625 35.0554ZM102.668 38.4143C102.668 39.5975 102.226 40.53 101.123 40.53C99.9585 40.53 99.5571 39.7679 99.5571 38.3341V34.0728H98.0017V38.6149C98.0017 39.6276 98.2626 40.3796 98.7844 40.8909C99.3062 41.3922 100.079 41.6429 101.082 41.6429C102.849 41.6429 104.063 40.5701 104.063 38.6951V34.0828H102.668V38.4344V38.4143ZM111.348 41.5025H112.903V34.0728H111.348V41.5025ZM119.928 41.5025H121.483V34.0728H119.928V41.5025ZM130.976 37.2512C130.113 36.5694 129.602 36.1985 129.612 35.7372C129.612 35.3261 129.923 34.9953 130.535 34.9953C130.956 34.9953 131.378 35.1858 131.709 35.4063L131.739 35.4264L131.759 35.3963L132.301 34.6042L132.281 34.5842C131.93 34.2433 131.247 33.9324 130.394 33.9324C129.05 33.9324 128.026 34.7446 128.026 35.7573C128.026 36.7499 128.638 37.2212 129.361 37.7927C129.953 38.2539 130.936 38.7953 130.926 39.5774C130.926 40.2492 130.414 40.56 129.812 40.5701C129.16 40.5701 128.718 40.2693 128.327 39.9885L128.297 39.9685L127.725 40.8608L127.745 40.8809C128.297 41.3922 129.16 41.6229 129.933 41.6329C131.608 41.6329 132.512 40.55 132.512 39.5975C132.512 38.6449 131.97 38.0434 130.986 37.2512H130.976ZM110.274 36.028C110.274 34.7546 109.301 34.0728 107.886 34.0628H105.287V41.4925H106.842V38.5447H107.675L109.11 41.4925H110.897L109.04 38.1637C109.732 37.7526 110.274 37.1109 110.274 36.018V36.028ZM107.404 37.5019H106.842V35.1256H107.575C108.157 35.1256 108.719 35.3963 108.719 36.2085C108.719 36.7399 108.408 37.5019 107.404 37.5019ZM113.365 35.1256H115.643V41.5025H117.198V35.1256H118.904L119.516 34.0728H113.375V35.1256H113.365ZM90.4956 35.1256L91.1077 34.0728H86.4716V41.5025H90.9472V40.4497H88.017V38.1336H90.4454V37.0808H88.017V35.1256H90.4956ZM126.772 35.1256L127.384 34.0728H122.748V41.5025H127.223V40.4497H124.293V38.1336H126.711V37.0808H124.293V35.1256H126.772Z" fill="#00367B"/>
</g>
<defs>
<linearGradient id="paint0_linear_2668_36796" x1="11.8477" y1="11.8388" x2="22.887" y2="22.8872" gradientUnits="userSpaceOnUse">
<stop stop-color="#EF4622"/>
<stop offset="0.2" stop-color="#F15A21"/>
<stop offset="0.52" stop-color="#F6851E"/>
<stop offset="1" stop-color="#FFE300"/>
</linearGradient>
<linearGradient id="paint1_linear_2668_36796" x1="11.8477" y1="33.3559" x2="22.887" y2="22.3176" gradientUnits="userSpaceOnUse">
<stop stop-color="#EF4622"/>
<stop offset="0.2" stop-color="#F15A21"/>
<stop offset="0.52" stop-color="#F6851E"/>
<stop offset="1" stop-color="#FFE300"/>
</linearGradient>
<linearGradient id="paint2_linear_2668_36796" x1="33.5131" y1="11.7185" x2="22.6242" y2="22.6063" gradientUnits="userSpaceOnUse">
<stop stop-color="#073C87"/>
<stop offset="0.2" stop-color="#00408A"/>
<stop offset="0.52" stop-color="#0063AC"/>
<stop offset="1" stop-color="#00AEEF"/>
</linearGradient>
<clipPath id="clip0_2668_36796">
<rect width="178" height="45" fill="white"/>
</clipPath>
</defs>
</svg>
