<svg width="60" height="60" viewBox="0 0 60 60" fill="none" xmlns="http://www.w3.org/2000/svg">
<rect width="60" height="60" rx="30" fill="#F0F4F7"/>
<g clip-path="url(#clip0_2668_37199)">
<path d="M35.7942 25.8214C36.3069 25.7026 48.3147 22.9959 48.3827 16.6512C48.395 15.1947 47.7959 13.8007 46.6346 12.6131C44.8063 10.7378 41.792 9.62509 38.58 9.62509C33.1753 9.62509 28.7773 12.7756 28.7773 16.6449C28.7773 17.7139 29.1418 20.2768 32.4896 21.0644C35.1271 21.6832 35.8745 22.5271 36.0351 23.1209C36.276 24.0211 35.3495 24.9275 35.3372 24.9337C35.1704 25.0963 35.1271 25.3463 35.2322 25.5526C35.368 25.8151 35.6275 25.8589 35.7942 25.8214Z" stroke="#04327A" stroke-width="2" stroke-linejoin="round"/>
<path d="M33.5332 14.7259H43.6262" stroke="#04327A" stroke-width="2" stroke-linejoin="round"/>
<path d="M33.5332 18.1077H43.6262" stroke="#04327A" stroke-width="2" stroke-linejoin="round"/>
<path d="M28.418 39.9423H31.2037" stroke="#04327A" stroke-width="2" stroke-miterlimit="10" stroke-linecap="round"/>
<path d="M24.0332 37.692H35.5716" stroke="#04327A" stroke-width="2" stroke-miterlimit="10"/>
<path d="M18.7211 48.6249C19.4561 47.6435 20.8891 45.737 21.2227 45.2619C21.5624 44.7743 21.9948 43.4616 23.014 40.4424C23.6378 38.5921 25.7627 33.4038 25.7627 33.4038C26.0097 32.5787 25.5712 31.491 24.274 30.9722C23.4031 30.6221 22.211 30.8159 21.618 31.9286L17.9922 37.9983" stroke="#04327A" stroke-width="2" stroke-linejoin="round"/>
<path d="M21.3281 26.2402L12.2667 35.1478C11.4637 36.0042 11.6058 37.1731 11.6552 37.8608L12.0814 46.8247" stroke="#04327A" stroke-width="2" stroke-linejoin="round"/>
<path d="M22.4961 42.0489C23.8797 42.2552 28.6668 42.2552 30.1677 42.2552C32.4717 42.2552 34.7077 42.1927 37.1167 41.9614" stroke="#04327A" stroke-width="2" stroke-miterlimit="10"/>
<path d="M40.8906 48.6249C40.1556 47.6435 38.7225 45.737 38.389 45.2619C38.0493 44.7743 37.6169 43.4616 36.5977 40.4424C35.9738 38.5921 33.849 33.4038 33.849 33.4038C33.6019 32.5787 34.0405 31.491 35.3376 30.9722C36.2086 30.6221 37.4007 30.8159 37.9937 31.9286L41.6195 37.9983" stroke="#04327A" stroke-width="2" stroke-linejoin="round"/>
<path d="M38.2773 26.2402L47.3326 35.1478C48.1356 36.0042 47.9935 37.1731 47.9441 37.8608L47.5179 46.8247" stroke="#04327A" stroke-width="2" stroke-linejoin="round"/>
<path d="M21.3281 17.27H26.9244" stroke="#04327A" stroke-width="2" stroke-miterlimit="10"/>
<path d="M28.4439 12.7318C26.7452 12.7818 24.8736 12.8881 23.1688 13.0506C22.1373 13.1819 21.3281 14.1821 21.3281 15.3135V29.8282" stroke="#04327A" stroke-width="2" stroke-miterlimit="10"/>
<path d="M38.2891 29.8908V25.5526" stroke="#04327A" stroke-width="2" stroke-miterlimit="10"/>
</g>
<defs>
<clipPath id="clip0_2668_37199">
<rect width="38" height="40" fill="white" transform="translate(11 9)"/>
</clipPath>
</defs>
</svg>
