<?xml version="1.0" encoding="utf-8"?>
<!-- Generator: Adobe Illustrator 22.1.0, SVG Export Plug-In . SVG Version: 6.00 Build 0)  -->
<svg version="1.1" id="圖層_1" xmlns="http://www.w3.org/2000/svg" xmlns:xlink="http://www.w3.org/1999/xlink" x="0px" y="0px"
	 viewBox="0 0 950 385.7" style="enable-background:new 0 0 950 385.7;" xml:space="preserve">
<style type="text/css">
	.st0{fill:#382F4D;}
	.st1{fill:#FFFFFF;}
	.st2{fill:#F3FF00;}
	.st3{fill:#FF80F3;}
	.st4{fill:#34B5E8;}
	.st5{fill:#F35C00;}
	.st6{fill:#DF7956;}
	.st7{enable-background:new    ;}
	.st8{fill:none;stroke:#FFFFFF;stroke-miterlimit:10;}
	.st9{fill:none;stroke:#A8A8A8;stroke-miterlimit:10;}
	.st10{opacity:0.12;fill:none;stroke:#FFFFFF;stroke-miterlimit:10;}
	.st11{opacity:0.12;}
	.st12{fill:none;stroke:#FFFFFF;stroke-miterlimit:10;stroke-dasharray:4;}
	.st13{opacity:0.12;fill:none;stroke:#FFFFFF;stroke-miterlimit:10;stroke-dasharray:4;}
	.st14{fill:none;stroke:#F35C00;stroke-miterlimit:10;}
	.st15{fill:none;stroke:#34B5E8;stroke-width:2;stroke-miterlimit:10;}
	.st16{fill:none;stroke:#DF7956;stroke-width:2;stroke-miterlimit:10;}
</style>
<rect x="-38.5" y="-470.6" class="st0" width="1016" height="436.3"/>
<g>
	<g>
		<g>
			<path class="st1" d="M170,444.9v1.4h-13.4v-1.4h5.5v-11.4h1.5v4.5h5.4v1.4h-5.4v5.6H170z"/>
			<path class="st1" d="M178.8,435.5c-0.2,0.6-0.4,1.1-0.5,1.7h5.9v9.9h-1.4v-0.8h-9.1v0.8h-1.4v-9.9h4.6c0.1-0.5,0.2-1.1,0.3-1.7
				h-5.6v-1.3h13.3v1.3H178.8z M173.6,445h1.9v-6.5h-1.9V445z M179.5,438.4h-2.8v1.4h2.8V438.4z M179.5,441h-2.8v1.4h2.8V441z
				 M176.7,445h2.8v-1.5h-2.8V445z M182.8,438.4h-2v6.5h2V438.4z"/>
			<path class="st1" d="M190.5,440.4c-0.2,1.3-0.7,2.7-1.4,3.8c0.3,0.1,0.6,0.4,1,0.6c1,0.6,2.4,0.7,4.2,0.7c1.8,0,4.3-0.1,6-0.3
				c-0.2,0.4-0.4,1.1-0.4,1.5c-1.1,0.1-3.9,0.2-5.7,0.2c-1.9,0-3.2-0.2-4.3-0.8c-0.6-0.3-1.1-0.8-1.5-0.8c-0.3,0-0.9,0.9-1.3,1.8
				l-0.9-1.3c0.4-0.6,0.9-1,1.3-1.4l0,0c0.6-0.8,1.2-1.9,1.5-3h-2.1c0.4-0.9,0.9-2.1,1.3-3.3h-1.7v-1.3h3.5
				c-0.4,1.1-0.9,2.3-1.3,3.3h0.8l0.2,0L190.5,440.4z M188.3,436.2c-0.2-0.6-0.8-1.7-1.1-2.5l1.2-0.4c0.4,0.8,0.9,1.8,1.2,2.4
				L188.3,436.2z M199.9,436.1h-9.4V435h4.2c-0.2-0.4-0.5-1-0.8-1.4l1.3-0.4c0.4,0.5,0.8,1.2,1,1.6l-0.7,0.2h4.4V436.1z
				 M191.4,440.8h7.3v3.6h-7.3V440.8z M198.6,437.9h-7v-1h7V437.9z M191.6,438.9h7v1h-7V438.9z M192.8,443.4h4.6v-1.6h-4.6V443.4z"
				/>
			<path class="st1" d="M206.4,443.3c-1.6,0.7-3.3,1.4-4.6,1.9l-0.4-1.4c0.5-0.2,1.2-0.4,1.9-0.7v-4.9h-1.7v-1.3h1.7v-3.4h1.3v3.4
				h1.5v1.3h-1.5v4.4l1.5-0.6L206.4,443.3z M213.8,445.7c0.4,0,0.4-0.2,0.5-1.1c0.3,0.2,0.7,0.4,1.1,0.5c-0.1,1.4-0.5,1.7-1.5,1.7
				H212c-1.3,0-1.6-0.3-1.6-1.6v-4.3h-0.8c-0.2,2.7-0.8,4.9-3.1,6.1c-0.1-0.3-0.5-0.8-0.8-1c2.1-1,2.5-2.8,2.7-5.1h-1.6v-6.2h1.5
				c0.2-0.5,0.4-1.1,0.5-1.5l1.5,0.2c-0.2,0.5-0.4,0.9-0.6,1.3h5v6.2h-3v4.3c0,0.4,0.1,0.5,0.6,0.5H213.8z M207.8,437.3h2.1v-1.4
				h-2.1V437.3z M207.8,439.8h2.1v-1.4h-2.1V439.8z M213.2,435.9h-2.1v1.4h2.1V435.9z M213.2,438.4h-2.1v1.4h2.1V438.4z
				 M214.4,444.7c0-0.1-0.1-0.3-0.1-0.5c-1.9,0.2-2.2,0.3-2.4,0.4c-0.1-0.2-0.2-0.6-0.3-0.9c0.2,0,0.3-0.2,0.4-0.4
				c0.2-0.2,0.6-1.2,0.8-2.1l0.9,0.3c-0.3,0.8-0.6,1.5-1,2.2l1.3-0.1c-0.2-0.4-0.3-0.8-0.5-1.1l0.7-0.3c0.4,0.7,0.8,1.6,1,2.2
				L214.4,444.7z"/>
			<path class="st1" d="M229.7,435.6c0,0,0,0.5,0,0.7c-0.2,6.8-0.4,9.1-1,9.8c-0.4,0.5-0.7,0.6-1.3,0.7c-0.5,0.1-1.4,0-2.3,0
				c0-0.4-0.2-1-0.5-1.4c1,0.1,1.8,0.1,2.2,0.1c0.3,0,0.5,0,0.6-0.3c0.5-0.5,0.7-2.8,0.9-8.4h-3.5c-0.4,1-0.9,1.8-1.4,2.5
				c-0.2-0.2-0.8-0.6-1.1-0.8v6.9h-4.1v1.1H217v-11h1.7c0.2-0.7,0.4-1.7,0.5-2.4l1.5,0.3c-0.3,0.8-0.5,1.5-0.8,2.2h2.4v2.8
				c1-1.3,1.8-3.3,2.2-5.3l1.3,0.3c-0.2,0.7-0.4,1.4-0.6,2H229.7z M218.3,436.9v2.8h2.8v-2.8H218.3z M221.1,444.3v-3.3h-2.8v3.3
				H221.1z M226.1,443.1c-0.4-0.9-1.4-2.4-2.2-3.5l1.1-0.6c0.8,1,1.8,2.5,2.3,3.3L226.1,443.1z"/>
			<path class="st1" d="M242.7,437.2c-0.8,2.3-1.9,4.1-3.3,5.6c1.6,1.3,3.6,2.3,5.9,2.8c-0.3,0.3-0.7,0.9-0.9,1.3
				c-2.4-0.6-4.4-1.7-6-3.1c-1.7,1.4-3.7,2.5-6.1,3.2c-0.2-0.4-0.6-1-0.9-1.3c2.4-0.6,4.4-1.6,6-2.9c-1.5-1.5-2.6-3.4-3.4-5.6h-2.3
				v-1.4h6.5c-0.2-0.6-0.6-1.6-1-2.3l1.5-0.4c0.4,0.7,0.9,1.7,1.1,2.3l-1.3,0.4h6.7v1.4H242.7z M235.3,437.2c0.7,1.8,1.7,3.3,3,4.6
				c1.2-1.3,2.1-2.8,2.8-4.6H235.3z"/>
			<path class="st1" d="M259.7,442.6H254v2.8c0,0.8-0.2,1.2-0.8,1.4c-0.6,0.2-1.5,0.2-2.7,0.2c-0.1-0.4-0.4-1-0.6-1.4
				c0.9,0,2,0,2.3,0c0.3,0,0.4-0.1,0.4-0.3v-2.8h-5.7v-1.3h5.7v-0.9c0.8-0.4,1.6-1,2.3-1.5h-5.5v-1.3h6.9l0.3-0.1l0.9,0.7
				c-0.9,0.9-2.2,1.9-3.4,2.6v0.4h5.7V442.6z M248.3,438h-1.4v-3.2h5.7c-0.2-0.4-0.4-0.8-0.7-1.2l1.4-0.4c0.4,0.5,0.8,1.1,1,1.6h5.2
				v3.2h-1.4v-1.9h-9.8V438z"/>
			<path class="st1" d="M268.8,441.5c-0.1,0.3-0.2,0.6-0.3,0.9h5.5v3.2c0,0.6-0.1,0.9-0.5,1.1s-1,0.2-1.8,0.2
				c-0.1-0.3-0.2-0.8-0.4-1.2c0.5,0,1,0,1.2,0c0.2,0,0.2-0.1,0.2-0.2v-2.1h-2v3.3h-1.3v-3.3h-2v3.3h-1.3v-3.3h-1.9v3.4h-1.3v-4.5
				h4.3c0.1-0.3,0.2-0.6,0.3-0.9h-5.7v-1.1h13.1v1.1H268.8z M263.2,439.1h-1.3v-3.3h5.7v-0.9h-5v-1h11.4v1h-5.1v0.9h5.8v3.3h-1.4
				v-2.2h-4.4v3.1h-1.4v-3.1h-4.3V439.1z M263.3,439.2c0.9-0.1,2.2-0.3,3.5-0.5l0,0.8c-1.1,0.2-2.2,0.5-3.2,0.7L263.3,439.2z
				 M264.1,437.1c0.9,0.2,2.1,0.5,2.7,0.7l-0.4,0.8c-0.6-0.3-1.8-0.6-2.8-0.8L264.1,437.1z M272.8,440.3c-0.8-0.3-2.3-0.6-3.5-0.8
				l0.3-0.8c1.1,0.1,2.6,0.4,3.5,0.7L272.8,440.3z M272.8,437.7c-0.8,0.3-2,0.6-2.8,0.8l-0.5-0.7c0.8-0.2,2-0.6,2.7-0.9L272.8,437.7
				z"/>
			<path class="st2" d="M286.9,442.9c-0.4,0.8-1,1.4-1.7,1.9c1.7,0.4,3.3,0.8,4.5,1.2l-1.3,1c-1.2-0.4-2.8-0.9-4.6-1.4
				c-1.7,0.8-3.9,1.2-6.8,1.4c-0.1-0.4-0.3-0.9-0.6-1.2c2-0.1,3.7-0.3,5.1-0.7c-1.1-0.2-2.1-0.4-3.3-0.6c0.4-0.5,0.8-1,1.2-1.6h-3
				v-1.2h3.8c0.3-0.5,0.6-1,0.8-1.5l1.4,0.3c-0.2,0.4-0.4,0.8-0.7,1.2h4c0.1-0.3,0.2-0.6,0.3-0.9l1.3,0.4c-0.1,0.1-0.1,0.3-0.2,0.5
				h2.4v1.2H286.9z M280.8,435.1h-4v-1.2h12.9v1.2h-4.1v1.1h3.6v4h-11.6v-4h3.3V435.1z M278.8,439h2v-1.8h-2V439z M281.2,442.9
				c-0.2,0.3-0.4,0.6-0.7,0.9c1,0.2,2,0.4,3,0.6c0.7-0.4,1.3-0.9,1.8-1.5H281.2z M284.2,435.1h-2.1v1.1h2.1V435.1z M282.1,439h2.1
				v-1.8h-2.1V439z M285.5,437.3v1.8h2.2v-1.8H285.5z"/>
			<path class="st1" d="M303.4,442.7h1.8v1.1h-1.8v2c0,0.6-0.1,0.9-0.6,1.1c-0.5,0.2-1.2,0.2-2.2,0.2c-0.1-0.3-0.2-0.8-0.4-1.1
				c0.7,0,1.4,0,1.6,0c0.2,0,0.3-0.1,0.3-0.2v-2h-2.8c0.6,0.5,1.1,1.2,1.4,1.7l-1,0.7c-0.3-0.5-0.8-1.3-1.3-1.8l0.9-0.5h-1.6v0.8
				h-2.4v2.5h-1.2v-2.5h-2.5v-1.2h2.5v-1h-2V437h2v-1h-2.3v-1.2h2.3v-1.5h1.2v1.5h2.2v1.2h-2.2v1h2.1v5.3h-2.1v1h2.4v-0.6h4.6V442
				h1.3V442.7z M292.8,439.1h1.2V438h-1.2V439.1z M292.8,441.2h1.2v-1.1h-1.2V441.2z M296.1,438h-1.2v1.1h1.2V438z M296.1,440.1
				h-1.2v1.1h1.2V440.1z M297.5,440.9c0.9,0,2,0,3.1,0V440h-2.7v-3.9h2.7v-0.7h-3v-1h3v-1.1h1.2v1.1h3.1v1h-3.1v0.7h2.8v3.9h-0.8
				c0.6,0.6,1.1,1.3,1.4,1.8l-1,0.5c-0.1-0.2-0.2-0.4-0.4-0.6c-2.3,0.1-4.6,0.1-6.3,0.2L297.5,440.9z M299.1,437.6h1.6v-0.8h-1.6
				V437.6z M300.6,439.2v-0.8h-1.6v0.8H300.6z M301.8,436.9v0.8h1.6v-0.8H301.8z M303.4,438.4h-1.6v0.8h1.6V438.4z M301.8,440.8
				l1.3,0c-0.2-0.2-0.3-0.4-0.5-0.6l0.5-0.2h-1.3V440.8z"/>
			<path class="st1" d="M312.8,435.4l1,0.3c-0.8,5.9-3,9.5-6.2,11.3c-0.2-0.3-0.8-0.9-1.2-1.2c1.7-0.9,3.2-2.2,4.2-4.1
				c-0.6-0.7-1.4-1.6-2.2-2.3c-0.3,0.5-0.6,0.9-0.9,1.3c-0.3-0.2-0.9-0.7-1.2-0.9c1.3-1.5,2.2-4,2.8-6.6l1.4,0.3
				c-0.1,0.7-0.3,1.3-0.5,2h2.5L312.8,435.4z M309.5,436.8c-0.2,0.5-0.4,1-0.6,1.4c0.7,0.6,1.6,1.5,2.2,2.1c0.4-1,0.7-2.2,0.9-3.6
				H309.5z M316.7,437.7c1.2,1,2.8,2.4,3.5,3.4l-1.2,1c-0.6-0.8-1.8-2-2.8-3v7.9h-1.5v-13.8h1.5v4.9L316.7,437.7z"/>
			<path class="st1" d="M324,435.8h2.7v1.1h-5.3v-1.1H324c-0.3-0.6-0.7-1.4-1-2l1-0.6c0.4,0.6,0.9,1.4,1.1,2L324,435.8z
				 M326.3,446.2h-3.2v0.7h-1.1v-5.1h4.3V446.2z M326.2,438.9H322v-1.1h4.2V438.9z M322,439.7h4.2v1.1H322V439.7z M323.1,442.9v2.1
				h2v-2.1H323.1z M335.1,445.1v1.3h-8v-12.2h7.8v1.3h-6.5v9.7H335.1z M331.1,442.7v-2h-1.8v-1.2h1.8v-1.8h-2v-1.2h5.2v1.2h-2v1.8
				h1.7v1.2h-1.7v2h2.2v1.2h-5.6v-1.2H331.1z"/>
		</g>
	</g>
	<polygon class="st1" points="141,445.8 132.8,445.8 136.9,438.8 141,431.7 145.1,438.8 149.1,445.8 	"/>
	<g>
		<g>
			<path class="st1" d="M520.5,460.8v2.5l0.3-0.3c1.7,0.8,4.1,2.2,5.2,3.1l-1,1.3c-1-0.8-2.8-2-4.5-2.9v7.5H519v-11.2h-5.6v-1.4
				h13.2v1.4H520.5z"/>
			<path class="st1" d="M535.7,460.5c-0.2,0.6-0.4,1.1-0.5,1.7h5.9v9.9h-1.4v-0.8h-9.1v0.8h-1.4v-9.9h4.6c0.1-0.5,0.2-1.1,0.3-1.7
				h-5.6v-1.3h13.3v1.3H535.7z M530.5,470h1.9v-6.5h-1.9V470z M536.4,463.4h-2.8v1.4h2.8V463.4z M536.4,466h-2.8v1.4h2.8V466z
				 M533.6,470h2.8v-1.5h-2.8V470z M539.6,463.4h-2v6.5h2V463.4z"/>
			<path class="st1" d="M547.3,465.4c-0.2,1.3-0.7,2.7-1.4,3.8c0.3,0.1,0.6,0.4,1,0.6c1,0.6,2.4,0.7,4.2,0.7c1.8,0,4.3-0.1,6-0.3
				c-0.2,0.4-0.4,1.1-0.4,1.5c-1.1,0.1-3.9,0.2-5.7,0.2c-1.9,0-3.2-0.2-4.3-0.8c-0.6-0.3-1.1-0.8-1.5-0.8c-0.3,0-0.9,0.9-1.3,1.8
				l-0.9-1.3c0.4-0.6,0.9-1,1.3-1.4l0,0c0.6-0.8,1.2-1.9,1.5-3h-2.1c0.4-0.9,0.9-2.1,1.3-3.3h-1.7v-1.3h3.5
				c-0.4,1.1-0.9,2.3-1.3,3.3h0.8l0.2,0L547.3,465.4z M545.2,461.2c-0.2-0.6-0.8-1.7-1.1-2.5l1.2-0.4c0.4,0.8,0.9,1.8,1.2,2.4
				L545.2,461.2z M556.8,461.1h-9.4V460h4.2c-0.2-0.4-0.5-1-0.8-1.4l1.3-0.4c0.4,0.5,0.8,1.2,1,1.6l-0.7,0.2h4.4V461.1z
				 M548.3,465.8h7.3v3.6h-7.3V465.8z M555.5,462.9h-7v-1h7V462.9z M548.5,463.9h7v1h-7V463.9z M549.6,468.4h4.6v-1.6h-4.6V468.4z"
				/>
			<path class="st1" d="M563.2,468.3c-1.6,0.7-3.3,1.4-4.6,1.9l-0.4-1.4c0.5-0.2,1.2-0.4,1.9-0.7v-4.9h-1.7v-1.3h1.7v-3.4h1.3v3.4
				h1.5v1.3h-1.5v4.4l1.5-0.6L563.2,468.3z M570.7,470.7c0.4,0,0.4-0.2,0.5-1.1c0.3,0.2,0.7,0.4,1.1,0.5c-0.1,1.4-0.5,1.7-1.5,1.7
				h-1.9c-1.3,0-1.6-0.3-1.6-1.6v-4.3h-0.8c-0.2,2.7-0.8,4.9-3.1,6.1c-0.1-0.3-0.5-0.8-0.8-1c2.1-1,2.5-2.8,2.7-5.1h-1.6v-6.2h1.5
				c0.2-0.5,0.4-1.1,0.5-1.5l1.5,0.2c-0.2,0.5-0.4,0.9-0.6,1.3h5v6.2h-3v4.3c0,0.4,0.1,0.5,0.6,0.5H570.7z M564.7,462.3h2.1v-1.4
				h-2.1V462.3z M564.7,464.8h2.1v-1.4h-2.1V464.8z M570.1,460.9H568v1.4h2.1V460.9z M570.1,463.4H568v1.4h2.1V463.4z M571.3,469.7
				c0-0.1-0.1-0.3-0.1-0.5c-1.9,0.2-2.2,0.3-2.4,0.4c-0.1-0.2-0.2-0.6-0.3-0.9c0.2,0,0.3-0.2,0.4-0.4c0.2-0.2,0.6-1.2,0.8-2.1
				l0.9,0.3c-0.3,0.8-0.6,1.5-1,2.2l1.3-0.1c-0.2-0.4-0.3-0.8-0.5-1.1l0.7-0.3c0.4,0.7,0.8,1.6,1,2.2L571.3,469.7z"/>
			<path class="st1" d="M586.5,460.6c0,0,0,0.5,0,0.7c-0.2,6.8-0.4,9.1-1,9.8c-0.4,0.5-0.7,0.6-1.3,0.7c-0.5,0.1-1.4,0-2.3,0
				c0-0.4-0.2-1-0.5-1.4c1,0.1,1.8,0.1,2.2,0.1c0.3,0,0.5,0,0.6-0.3c0.5-0.5,0.7-2.8,0.9-8.4h-3.5c-0.4,1-0.9,1.8-1.4,2.5
				c-0.2-0.2-0.8-0.6-1.1-0.8v6.9h-4.1v1.1h-1.3v-11h1.7c0.2-0.7,0.4-1.7,0.5-2.4l1.5,0.3c-0.3,0.8-0.5,1.5-0.8,2.2h2.4v2.8
				c1-1.3,1.8-3.3,2.2-5.3l1.3,0.3c-0.2,0.7-0.4,1.4-0.6,2H586.5z M575.1,461.9v2.8h2.8v-2.8H575.1z M577.9,469.3v-3.3h-2.8v3.3
				H577.9z M582.9,468.1c-0.4-0.9-1.4-2.4-2.2-3.5l1.1-0.6c0.8,1,1.8,2.5,2.3,3.3L582.9,468.1z"/>
			<path class="st1" d="M599.5,462.2c-0.8,2.3-1.9,4.1-3.3,5.6c1.6,1.3,3.6,2.3,5.9,2.8c-0.3,0.3-0.7,0.9-0.9,1.3
				c-2.4-0.6-4.4-1.7-6-3.1c-1.7,1.4-3.7,2.5-6.1,3.2c-0.2-0.4-0.6-1-0.9-1.3c2.4-0.6,4.4-1.6,6-2.9c-1.5-1.5-2.6-3.4-3.4-5.6h-2.3
				v-1.4h6.5c-0.2-0.6-0.6-1.6-1-2.3l1.5-0.4c0.4,0.7,0.9,1.7,1.1,2.3l-1.3,0.4h6.7v1.4H599.5z M592.1,462.2c0.7,1.8,1.7,3.3,3,4.6
				c1.2-1.3,2.1-2.8,2.8-4.6H592.1z"/>
			<path class="st1" d="M616.5,467.6h-5.7v2.8c0,0.8-0.2,1.2-0.8,1.4c-0.6,0.2-1.5,0.2-2.7,0.2c-0.1-0.4-0.4-1-0.6-1.4
				c0.9,0,2,0,2.3,0c0.3,0,0.4-0.1,0.4-0.3v-2.8h-5.7v-1.3h5.7v-0.9c0.8-0.4,1.6-1,2.3-1.5h-5.5v-1.3h6.9l0.3-0.1l0.9,0.7
				c-0.9,0.9-2.2,1.9-3.4,2.6v0.4h5.7V467.6z M605.1,463h-1.4v-3.2h5.7c-0.2-0.4-0.4-0.8-0.7-1.2l1.4-0.4c0.4,0.5,0.8,1.1,1,1.6h5.2
				v3.2h-1.4v-1.9h-9.8V463z"/>
			<path class="st3" d="M629.3,458c-0.4,0.6-0.8,1.3-1.3,2v12.4h-1.9v-10c-1.8,2-4,3.8-6.5,5.1c-0.3-0.5-0.8-1.2-1.2-1.6
				c3.6-1.8,6.7-4.8,8.5-7.9h-8v-1.8h16.3v1.8H629.3z M629.4,460.9c2.1,1.4,5,3.6,6.4,5l-1.5,1.4c-1.3-1.5-4.1-3.7-6.2-5.3
				L629.4,460.9z"/>
			<path class="st3" d="M650.7,467.1c-0.6,0.9-1.3,1.7-2.1,2.4c2.2,0.5,4.2,1.1,5.6,1.6l-1.6,1.2c-1.5-0.6-3.5-1.2-5.8-1.7
				c-2.1,1-5,1.5-8.6,1.8c-0.1-0.5-0.4-1.2-0.7-1.5c2.6-0.1,4.7-0.4,6.5-0.9c-1.3-0.3-2.7-0.5-4.1-0.8c0.5-0.6,1-1.3,1.6-2.1h-3.9
				v-1.5h4.8c0.4-0.6,0.8-1.3,1-1.9l1.8,0.4c-0.2,0.5-0.5,1-0.8,1.5h5.1c0.2-0.3,0.3-0.7,0.4-1.1l1.7,0.5c-0.1,0.2-0.2,0.4-0.2,0.6
				h3.1v1.5H650.7z M643,457.2h-5.1v-1.5h16.3v1.5H649v1.4h4.5v5h-14.7v-5h4.1V457.2z M640.5,462.2h2.5V460h-2.5V462.2z
				 M643.5,467.1c-0.3,0.4-0.6,0.8-0.8,1.2c1.3,0.2,2.5,0.5,3.8,0.7c0.9-0.5,1.6-1.1,2.2-1.9H643.5z M647.3,457.2h-2.7v1.4h2.7
				V457.2z M644.6,462.2h2.7V460h-2.7V462.2z M649,460v2.2h2.8V460H649z"/>
			<path class="st1" d="M668.2,467.7h1.8v1.1h-1.8v2c0,0.6-0.1,0.9-0.6,1.1c-0.5,0.2-1.2,0.2-2.2,0.2c-0.1-0.3-0.2-0.8-0.4-1.1
				c0.7,0,1.4,0,1.6,0c0.2,0,0.3-0.1,0.3-0.2v-2h-2.8c0.6,0.5,1.1,1.2,1.4,1.7l-1,0.7c-0.3-0.5-0.8-1.3-1.3-1.8l0.9-0.5h-1.6v0.8
				h-2.4v2.5h-1.2v-2.5h-2.5v-1.2h2.5v-1h-2V462h2v-1h-2.3v-1.2h2.3v-1.5h1.2v1.5h2.2v1.2h-2.2v1h2.1v5.3h-2.1v1h2.4v-0.6h4.6V467
				h1.3V467.7z M657.7,464.1h1.2V463h-1.2V464.1z M657.7,466.2h1.2v-1.1h-1.2V466.2z M661,463h-1.2v1.1h1.2V463z M661,465.1h-1.2
				v1.1h1.2V465.1z M662.3,465.9c0.9,0,2,0,3.1,0V465h-2.7v-3.9h2.7v-0.7h-3v-1h3v-1.1h1.2v1.1h3.1v1h-3.1v0.7h2.8v3.9h-0.8
				c0.6,0.6,1.1,1.3,1.4,1.8l-1,0.5c-0.1-0.2-0.2-0.4-0.4-0.6c-2.3,0.1-4.6,0.1-6.3,0.2L662.3,465.9z M663.9,462.6h1.6v-0.8h-1.6
				V462.6z M665.5,464.2v-0.8h-1.6v0.8H665.5z M666.7,461.9v0.8h1.6v-0.8H666.7z M668.3,463.4h-1.6v0.8h1.6V463.4z M666.7,465.8
				l1.3,0c-0.2-0.2-0.3-0.4-0.5-0.6l0.5-0.2h-1.3V465.8z"/>
			<path class="st1" d="M677.6,460.4l1,0.3c-0.8,5.9-3,9.5-6.2,11.3c-0.2-0.3-0.8-0.9-1.2-1.2c1.7-0.9,3.2-2.2,4.2-4.1
				c-0.6-0.7-1.4-1.6-2.2-2.3c-0.3,0.5-0.6,0.9-0.9,1.3c-0.3-0.2-0.9-0.7-1.2-0.9c1.3-1.5,2.2-4,2.8-6.6l1.4,0.3
				c-0.1,0.7-0.3,1.3-0.5,2h2.5L677.6,460.4z M674.4,461.8c-0.2,0.5-0.4,1-0.6,1.4c0.7,0.6,1.6,1.5,2.2,2.1c0.4-1,0.7-2.2,0.9-3.6
				H674.4z M681.6,462.7c1.2,1,2.8,2.4,3.5,3.4l-1.2,1c-0.6-0.8-1.8-2-2.8-3v7.9h-1.5v-13.8h1.5v4.9L681.6,462.7z"/>
			<path class="st1" d="M688.8,460.8h2.7v1.1h-5.3v-1.1H688.8c-0.3-0.6-0.7-1.4-1-2l1-0.6c0.4,0.6,0.9,1.4,1.1,2L688.8,460.8z
				 M691.1,471.2h-3.2v0.7h-1.1v-5.1h4.3V471.2z M691,463.9h-4.2v-1.1h4.2V463.9z M686.8,464.7h4.2v1.1h-4.2V464.7z M687.9,467.9
				v2.1h2v-2.1H687.9z M699.9,470.1v1.3h-8v-12.2h7.8v1.3h-6.5v9.7H699.9z M695.9,467.7v-2h-1.8v-1.2h1.8v-1.8h-2v-1.2h5.2v1.2h-2
				v1.8h1.7v1.2h-1.7v2h2.2v1.2h-5.6v-1.2H695.9z"/>
			<path class="st1" d="M702.7,467.2c1.2-0.4,1.8-1.1,1.9-2c-0.1,0-0.1,0-0.2,0c-0.7,0-1.3-0.4-1.3-1.2c0-0.8,0.6-1.2,1.3-1.2
				c0.9,0,1.4,0.7,1.4,1.9c0,1.7-1,3-2.8,3.5L702.7,467.2z"/>
			<path class="st1" d="M715,467.8c-2,0.9-4.2,1.9-5.9,2.6l-0.5-1.5c0.6-0.2,1.3-0.5,2-0.8l-0.3-9l1.5-0.1l0.3,8.5
				c0.9-0.4,1.8-0.7,2.6-1.1L715,467.8z M721.4,472c-0.6-1-1.9-2.5-3.1-3.8c-1.1,1.7-2.7,2.9-4.9,3.9c-0.2-0.3-0.8-0.9-1.1-1.2
				c5-1.8,6.5-5.5,7.2-11.8l1.5,0.1c-0.3,3.2-0.9,5.7-1.9,7.7c1.3,1.3,2.8,2.9,3.5,4L721.4,472z M715.8,464.4
				c-0.4-1-1.3-2.6-2.3-3.7l1.3-0.6c1,1.1,1.9,2.5,2.4,3.6L715.8,464.4z"/>
			<path class="st1" d="M728.2,461.8c-0.3,0.7-0.8,1.4-1.2,2v8.2h-1.3v-6.6c-0.4,0.4-0.8,0.8-1.2,1.2c-0.1-0.3-0.5-1-0.8-1.3
				c1.2-1,2.5-2.5,3.3-4L728.2,461.8z M727.9,458.7c-0.8,1.3-2.2,2.7-3.4,3.6c-0.2-0.3-0.5-0.8-0.7-1c1.1-0.8,2.2-2,2.8-3.1
				L727.9,458.7z M736.2,466.3c-0.6,1.4-1.5,2.5-2.7,3.4c1.1,0.5,2.4,0.9,3.8,1.2c-0.3,0.3-0.7,0.9-0.8,1.2
				c-1.6-0.3-2.9-0.8-4.2-1.5c-1.3,0.7-2.7,1.2-4.2,1.6c-0.1-0.3-0.4-0.9-0.7-1.2c1.3-0.2,2.6-0.6,3.7-1.2c-0.5-0.4-0.9-0.8-1.4-1.2
				c-0.3,0.3-0.7,0.6-1.1,0.9c-0.2-0.3-0.7-0.8-0.9-1c0.4-0.2,0.8-0.6,1.2-0.9c-0.3-0.4-0.5-0.8-0.8-1.2l1.1-0.4
				c0.1,0.3,0.3,0.5,0.5,0.8c0.5-0.5,0.9-1.1,1.2-1.7c-1.9,0.1-2.3,0.2-2.6,0.3c0-0.3-0.3-0.9-0.4-1.3c0.4-0.1,1-0.3,1.7-0.7
				c0.3-0.2,0.9-0.5,1.7-1c-1.9,0.1-2.3,0.2-2.6,0.3c-0.1-0.3-0.3-1-0.5-1.3c0.3-0.1,0.6-0.3,1-0.5c0.4-0.3,1.7-1.3,2.5-2.3l1.4,0.6
				c-0.8,0.8-1.8,1.6-2.7,2.2l2.4-0.1c0.6-0.5,1.3-1,1.8-1.5l1.3,0.7c-1.6,1.4-3.4,2.5-5.1,3.5l4-0.2c-0.3-0.4-0.6-0.8-0.8-1.1
				l1.1-0.6c0.8,1,1.9,2.4,2.4,3.2l-1.2,0.7c-0.2-0.3-0.4-0.8-0.7-1.2l-3.1,0.2c-0.2,0.4-0.4,0.7-0.6,1.1h3.3l0.2-0.1L736.2,466.3z
				 M731,467.1c-0.1,0.2-0.3,0.4-0.5,0.6c0.5,0.5,1.1,1,1.8,1.4c0.8-0.5,1.5-1.2,2.1-2H731z"/>
			<path class="st1" d="M744.5,462.1c0,0.7-0.1,1.4-0.2,2.1h6.4c0,0,0,0.4-0.1,0.6c-0.3,4.1-0.6,5.8-1.2,6.4
				c-0.4,0.4-0.8,0.5-1.4,0.6c-0.6,0-1.5,0-2.5,0c0-0.4-0.2-1-0.5-1.4c1.1,0.1,2.1,0.1,2.5,0.1c0.3,0,0.5,0,0.7-0.2
				c0.4-0.3,0.7-1.7,0.9-4.8h-5.1c-0.5,2.6-1.6,5-4.3,6.5c-0.2-0.4-0.6-0.9-1-1.1c3.7-1.9,4.1-5.5,4.2-8.8h-3.9v-1.4h6.4
				c-0.2-0.6-0.6-1.5-0.9-2.1l1.4-0.5c0.4,0.7,0.9,1.6,1.1,2.2l-1,0.4h6.2v1.4H744.5z"/>
			<path class="st1" d="M758.1,458.7c-0.4,1.1-0.9,2.2-1.4,3.3v10h-1.3v-7.8c-0.3,0.5-0.7,0.9-1,1.3c-0.1-0.3-0.5-1.1-0.8-1.4
				c1.3-1.4,2.5-3.6,3.2-5.8L758.1,458.7z M763.2,467.2c-0.1,0.9-0.5,1.7-1,2.4c1.5,0.6,3.4,0.9,5.5,1c-0.3,0.3-0.7,0.9-0.8,1.3
				c-2.2-0.2-4.1-0.6-5.6-1.3c-0.8,0.6-1.8,1.1-3.2,1.5c-0.2-0.3-0.6-0.9-0.9-1.1c1.2-0.3,2.1-0.6,2.8-1c-0.8-0.5-1.5-1.2-2-2
				l1.2-0.4c0.4,0.6,1,1.1,1.8,1.5c0.5-0.6,0.8-1.2,0.9-1.9h-3.4v-5.8h3.6v-1.1h-3.9v-1.2h9.1v1.2h-3.9v1.1h3.5v5.8H763.2z
				 M759.7,463.8h2.3v-1.3h-2.3V463.8z M761.9,466.2c0-0.2,0-0.5,0-0.7v-0.6h-2.3v1.4H761.9z M765.4,464.8h-2.1v0.7
				c0,0.2,0,0.5,0,0.7h2.1V464.8z M763.3,462.5v1.3h2.1v-1.3H763.3z"/>
			<path class="st1" d="M770.3,468.1c-0.2,1.3-0.4,2.7-0.7,3.6c-0.2-0.1-0.8-0.3-1-0.4c0.3-0.9,0.5-2.2,0.6-3.4L770.3,468.1z
				 M769,463.9C769,463.9,769,463.9,769,463.9c-0.1-0.2-0.3-0.8-0.4-1.1c0.3-0.1,0.5-0.4,0.8-0.8c0.3-0.5,1.3-2.1,1.8-3.7l1.2,0.5
				c-0.6,1.3-1.3,2.7-2.1,3.8l1.3-0.1c0.4-0.7,0.8-1.4,1.1-2.1l1.1,0.7c-0.9,1.7-2,3.4-3.2,4.8l2.2-0.3c-0.2-0.5-0.3-0.9-0.5-1.4
				l0.9-0.3c0.4,0.9,0.9,2.1,1,2.8l-1,0.4c0-0.2-0.1-0.3-0.1-0.5c-3.2,0.5-3.6,0.6-3.9,0.8c-0.1-0.3-0.3-0.9-0.4-1.2
				c0.3-0.1,0.7-0.5,1.1-1c0.2-0.3,0.7-0.8,1.2-1.6C769.5,463.8,769.2,463.8,769,463.9L769,463.9z M771.7,467.8
				c0.2,1,0.3,2.2,0.4,3.1l-1,0.3c0-0.9-0.2-2.1-0.3-3.1L771.7,467.8z M775.6,464.4c-0.1,2.4-0.3,5.4-1.1,7.5
				c-0.3-0.2-0.8-0.5-1.1-0.6c0.2-0.5,0.3-1,0.5-1.5l-0.8,0.3c-0.1-0.7-0.4-1.7-0.7-2.4l0.9-0.3c0.2,0.6,0.5,1.4,0.6,2
				c0.5-2.2,0.5-4.7,0.5-6.5v-3.7c2.2-0.2,4.8-0.6,6.2-1l1,0.9c-1.6,0.5-3.9,0.8-6,1v0.8h6v3.5H775.6z M781.9,470.8
				c0,0.5-0.1,0.7-0.4,0.9c-0.3,0.2-0.6,0.2-1.2,0.2c0-0.3-0.1-0.7-0.3-1c0.3,0,0.5,0,0.6,0c0.1,0,0.1,0,0.1-0.1V469H780v2.8h-0.8
				V469h-0.9v2.8h-0.8V469h-0.9v3h-1v-6.7h6.3V470.8z M775.7,462.1v0.9v0.4h4.7v-1.3H775.7z M777.5,467.9v-1.5h-0.9v1.5H777.5z
				 M779.2,467.9v-1.5h-0.9v1.5H779.2z M780.8,467.9v-1.5H780v1.5H780.8z"/>
			<path class="st1" d="M796.7,463.9v5.4h0.8v1.2h-0.8v1.6h-1.3v-1.6h-5.5v-0.9h-2.3v2.5h-1.2v-2.5h-2.6v-1.2h2.6v-1.1h-2.1V462h2.1
				v-1h-2.5v-1.2h2.5v-1.5h1.2v1.5h2.4v1.2h-2.4v1h2.2v5.3h-2.2v1.1h2.6v0.9h0.8v-5.4h-0.9v-1.1h7.4v1.1H796.7z M785.2,464.1h1.2
				V463h-1.2V464.1z M785.2,466.2h1.2v-1.1h-1.2V466.2z M788.7,463h-1.2v1.1h1.2V463z M788.7,465.1h-1.2v1.1h1.2V465.1z M796.7,462
				h-5.8v-3.3h5.8V462z M795.3,459.7h-3.1v1.2h3.1V459.7z M795.4,463.9h-3.1v1.1h3.1V463.9z M795.4,466h-3.1v1.1h3.1V466z
				 M795.4,469.2v-1.1h-3.1v1.1H795.4z"/>
		</g>
	</g>
	<polygon class="st1" points="497.8,456.7 506,456.7 501.9,463.8 497.8,470.8 493.8,463.8 489.7,456.7 	"/>
</g>
<g>
	<g>
		<polygon class="st4" points="947.4,613.2 848.3,613.2 841.4,605 848.3,596.8 947.4,596.8 		"/>
		<g>
			
				<text transform="matrix(1 0 0 1 850.1191 609.1783)" class="st0" style="font-family:'SourceHanSansTW-Medium-B5pc-H'; font-size:12px;">102.107 TWX US</text>
		</g>
		<g>
			<g>
				
					<text transform="matrix(1 0 0 1 842.45 559.7037)" class="st1" style="font-family:'SourceHanSansTW-Medium-B5pc-H'; font-size:12px;">104.00</text>
			</g>
			<g>
				
					<text transform="matrix(1 0 0 1 842.45 667.8451)" class="st1" style="font-family:'SourceHanSansTW-Medium-B5pc-H'; font-size:12px;">100.00</text>
			</g>
			<g>
				
					<text transform="matrix(1 0 0 1 842.45 721.5367)" class="st1" style="font-family:'SourceHanSansTW-Medium-B5pc-H'; font-size:12px;">98.00</text>
			</g>
			<g>
				
					<text transform="matrix(1 0 0 1 842.45 774.7039)" class="st1" style="font-family:'SourceHanSansTW-Medium-B5pc-H'; font-size:12px;">96.00</text>
			</g>
			<g>
				
					<text transform="matrix(1 0 0 1 842.45 827.7037)" class="st1" style="font-family:'SourceHanSansTW-Medium-B5pc-H'; font-size:12px;">94.00</text>
			</g>
		</g>
		<g>
			<polygon class="st5" points="834.5,824.3 834.5,822.8 836.3,823.5 838.1,824.3 836.3,825.1 834.5,825.8 			"/>
			<polygon class="st5" points="834.5,771.1 834.5,769.6 836.3,770.4 838.1,771.1 836.3,771.9 834.5,772.7 			"/>
			<polygon class="st5" points="834.5,718 834.5,716.4 836.3,717.2 838.1,718 836.3,718.7 834.5,719.5 			"/>
			<polygon class="st5" points="834.5,664 834.5,662.5 836.3,663.2 838.1,664 836.3,664.7 834.5,665.5 			"/>
			<polygon class="st5" points="834.5,609.2 834.5,607.7 836.3,608.4 838.1,609.2 836.3,609.9 834.5,610.7 			"/>
			<polygon class="st5" points="834.5,556 834.5,554.5 836.3,555.3 838.1,556 836.3,556.8 834.5,557.5 			"/>
		</g>
		<g>
			<g>
				<g>
					<rect x="22.8" y="554.5" class="st4" width="10" height="10"/>
					
						<text transform="matrix(1 0 0 1 39.2859 565.8263)" class="st4" style="font-family:'SourceHanSansTW-Bold-B5pc-H'; font-size:16.8931px;">TWX US Equity    102.107</text>
				</g>
			</g>
			<g>
				<g>
					<rect x="22.8" y="579.5" class="st6" width="10" height="10"/>
					<text transform="matrix(1 0 0 1 39.2859 590.8263)" class="st7"><tspan x="0" y="0" class="st6" style="font-family:'SourceHanSansTW-Bold-B5pc-H'; font-size:16.8931px;">T US Equity             93.634</tspan><tspan x="0" y="20.3" class="st6" style="font-family:'SourceHanSansTW-Bold-B5pc-H'; font-size:16.8931px;">收盤於 06/11 ----    99.3605</tspan></text>
				</g>
			</g>
		</g>
		<g class="st7">
			
				<text transform="matrix(1 0 0 1 561.2194 628.9895)" class="st4" style="font-family:'SourceHanSansTW-Bold-B5pc-H'; font-size:16.8931px;">時代華納(被併購方) +1.8%</text>
		</g>
		<g>
			
				<text transform="matrix(1 0 0 1 605.6158 763.7865)" class="st6" style="font-family:'SourceHanSansTW-Bold-B5pc-H'; font-size:16.8931px;">AT&amp;T(併購方) -6.2%</text>
		</g>
		<g>
			<text transform="matrix(1 0 0 1 773.1166 809.3702)"><tspan x="0" y="0" class="st1" style="font-family:'SourceHanSansTW-Medium-B5pc-H'; font-size:15px;">-5.7265</tspan><tspan x="0" y="18" class="st1" style="font-family:'SourceHanSansTW-Medium-B5pc-H'; font-size:15px;">-5.76%</tspan></text>
		</g>
		<g>
			
				<text transform="matrix(1 0 0 1 542.6267 899.402)" class="st1" style="font-family:'SourceHanSansTW-Bold-B5pc-H'; font-size:12px;">13  6月 2018</text>
		</g>
		<g>
			
				<text transform="matrix(1 0 0 1 159.3767 899.402)" class="st1" style="font-family:'SourceHanSansTW-Bold-B5pc-H'; font-size:12px;">12  6月 2018</text>
		</g>
		<g>
			<g>
				
					<text transform="matrix(1 0 0 1 752.9822 881.402)" class="st1" style="font-family:'SourceHanSansTW-Medium-B5pc-H'; font-size:12px;">04:00</text>
			</g>
			<g>
				
					<text transform="matrix(1 0 0 1 634.9822 881.402)" class="st1" style="font-family:'SourceHanSansTW-Medium-B5pc-H'; font-size:12px;">02:00</text>
			</g>
			<g>
				
					<text transform="matrix(1 0 0 1 516.9822 881.402)" class="st1" style="font-family:'SourceHanSansTW-Medium-B5pc-H'; font-size:12px;">00:00</text>
			</g>
			<g>
				
					<text transform="matrix(1 0 0 1 398.4821 881.402)" class="st1" style="font-family:'SourceHanSansTW-Medium-B5pc-H'; font-size:12px;">22:00</text>
			</g>
			<g>
				
					<text transform="matrix(1 0 0 1 250.9821 881.402)" class="st1" style="font-family:'SourceHanSansTW-Medium-B5pc-H'; font-size:12px;">02:00</text>
			</g>
			<g>
				
					<text transform="matrix(1 0 0 1 132.9821 881.402)" class="st1" style="font-family:'SourceHanSansTW-Medium-B5pc-H'; font-size:12px;">00:00</text>
			</g>
			<g>
				
					<text transform="matrix(1 0 0 1 14.9821 881.402)" class="st1" style="font-family:'SourceHanSansTW-Medium-B5pc-H'; font-size:12px;">22:00</text>
			</g>
		</g>
		<line class="st8" x1="765.6" y1="834.3" x2="833.9" y2="834.3"/>
		<line class="st9" x1="383.1" y1="887.2" x2="383.1" y2="902.2"/>
		<text transform="matrix(1 0 0 1 390.7836 665.5074)" class="st7"><tspan x="0" y="0" class="st1" style="font-family:'FontAwesome5FreeSolid'; font-size:16.8931px;">      </tspan><tspan x="14.8" y="0" class="st1" style="font-family:'SourceHanSansTW-Regular-B5pc-H'; font-size:16.8931px;"> 6/13當日股價表現</tspan></text>
		<g>
			<line class="st8" x1="-0.1" y1="863.2" x2="833.9" y2="863.2"/>
			<g>
				<g>
					<line class="st10" x1="148.4" y1="519.2" x2="148.4" y2="865.2"/>
					<line class="st10" x1="532.4" y1="519.2" x2="532.4" y2="865.2"/>
				</g>
				<g>
					<g class="st11">
						<line class="st12" x1="-0.1" y1="824.3" x2="833.9" y2="824.3"/>
						<line class="st12" x1="-0.1" y1="771.1" x2="833.9" y2="771.1"/>
						<line class="st12" x1="-0.1" y1="718" x2="833.9" y2="718"/>
						<line class="st12" x1="-0.1" y1="664" x2="833.9" y2="664"/>
						<line class="st12" x1="-0.1" y1="609.2" x2="833.9" y2="609.2"/>
						<line class="st12" x1="-0.1" y1="556" x2="833.9" y2="556"/>
					</g>
					<line class="st13" x1="30.4" y1="519.2" x2="30.4" y2="865.2"/>
					<line class="st13" x1="266.4" y1="519.2" x2="266.4" y2="865.2"/>
					<line class="st13" x1="413.9" y1="519.2" x2="413.9" y2="865.2"/>
					<line class="st13" x1="650.4" y1="519.2" x2="650.4" y2="865.2"/>
					<line class="st13" x1="768.4" y1="519.2" x2="768.4" y2="865.2"/>
				</g>
			</g>
			<line class="st14" x1="833.9" y1="519.2" x2="833.9" y2="865.2"/>
			<g>
				<line class="st14" x1="834.5" y1="528.9" x2="836.8" y2="528.9"/>
				<line class="st14" x1="834.5" y1="582.6" x2="836.8" y2="582.6"/>
				<line class="st14" x1="834.5" y1="636.6" x2="836.8" y2="636.6"/>
				<line class="st14" x1="834.5" y1="690" x2="836.8" y2="690"/>
				<line class="st14" x1="834.5" y1="743.9" x2="836.8" y2="743.9"/>
				<line class="st14" x1="834.5" y1="797.8" x2="836.8" y2="797.8"/>
				<line class="st14" x1="834.5" y1="851.6" x2="836.8" y2="851.6"/>
			</g>
			<polyline class="st15" points="-0.1,662.7 3.4,656.6 6.4,657.4 9.4,665.9 14.1,665.9 17.9,670.9 20.9,671.8 24.1,669.6 
				30.4,673.9 33.4,672.7 35.9,669.8 41.6,674.9 44.9,681.7 50.3,675 53.8,675 59.3,668.3 64.8,666.8 68.6,664 74.1,669.2 
				76.6,669.2 80.3,664.9 84.6,664.5 89.1,666.8 94.6,666.8 98.3,663 103.3,664.5 107.6,662.8 112.1,663 115.8,660.4 119.2,661.5 
				124.6,658.8 128.1,661.1 130.4,661.1 133.9,663.3 135.4,662.1 139.4,664 145,662.3 148.4,660.2 151.6,662.1 153.9,660.3 
				157.3,660.6 159.4,659.8 168.4,664 171.1,662.5 174.4,662.6 178.3,664.8 184.6,666.2 189.8,670.7 193.1,670.1 201.3,675.6 
				204.3,675.2 207.1,675.8 209.9,674.6 218.9,679.3 223.1,677.2 228.6,680.3 235.6,679.7 239.8,677.2 242.6,679.1 245.6,678.8 
				249.6,680.9 252.6,680.9 256.3,681.7 260.1,685.5 263.3,683.6 266.4,685.5 275.1,683.9 281.1,675.7 283.3,674.2 286.8,676.8 
				289.3,674.9 292.9,676.5 297.6,675.4 304.9,672 315.8,664.8 320.1,666.2 326.3,665.1 331.1,665.8 333.9,664 337.3,666 
				342.8,665.9 345.9,663 349.4,663.3 351.6,664 354.8,662.8 360.3,662.8 363.6,665.1 367.1,664.5 370.1,666.8 383.3,653.1 
				383.3,544.8 390.4,563.6 396.6,552.6 404.8,552.9 407.8,557.5 413.9,552.9 419.3,556 424.9,562.7 428.1,563.1 434.6,559.3 
				437.6,562.4 439.9,562.1 443.3,563.8 446.6,569.4 449.8,571.4 454.8,568.1 460.8,570.7 466.6,577.3 470.4,578.1 472.6,578 
				477.8,580.6 482.4,580.4 485.4,584 487.9,582.6 491,583.1 496.8,576.3 502.5,574.3 505.4,575.1 508.6,571 510.9,569.9 
				515.1,563.6 517.6,566.6 520.4,565.1 523.4,566.5 525.9,566 529.1,567.9 534.9,561.5 538.3,564.6 541.3,564.1 545.6,565 
				550.1,567.9 552.8,567.3 558.8,570.7 567.6,569.8 570.8,566.8 573.4,567.7 576.8,570.6 587.9,570.5 591.6,568.8 594.4,570.1 
				597.3,569 599.8,570.1 603.1,569.4 606.1,571.4 608.4,569.8 611.6,570.7 616.1,572.8 620.4,573.1 623.6,575 626.9,574.8 
				629.4,576.7 632.9,575.5 635.4,576.5 638.8,575.4 643.9,579.3 646.9,578.1 650.4,581.1 653.3,579.3 656.6,582.2 658.9,582.1 
				662.6,584.1 665.9,582.2 667.8,584.6 671.1,584.2 678.3,587.2 682.9,586.3 688.6,588.3 697.1,588 700.4,590.2 710.1,590.1 
				711.9,590.5 715.6,590.5 718.4,593.4 721.8,591.7 724.6,593.2 733.9,598.7 735.8,598.3 739.1,600 744.9,600 747.8,601.3 
				753.8,601.3 756.4,603.5 759.6,602.9 761.9,603.5 765.6,605.9 			"/>
			<polyline class="st16" points="-0.1,663.5 4.8,658 9.4,665.9 12.4,661.3 17.6,672.8 21.2,669.9 23.9,670.9 27.1,670.1 
				30.4,671.7 32.4,666.4 36.4,664.6 39.3,666.8 42.1,666.8 45.2,672 50.2,668.3 56.6,655.6 60.1,656.7 62.2,655.6 65.6,657.5 
				68.9,660.2 71.4,660.4 75.2,664.2 79.4,665.9 87.1,665.8 94.8,671.3 98.4,668.3 101.9,669.9 105.3,668.4 109.3,664 112.8,668.5 
				119.2,668.6 122.6,670.4 125.1,669.5 129.7,666 136.2,667.7 139.1,671.1 148.4,671.1 151.2,672.3 154.6,671.3 157.6,672.8 
				163.6,672.8 165.3,672 168.4,673.6 171.3,671.3 174.2,672.5 177.4,671.9 180.3,673.6 186.4,673.6 189.6,676.7 193.2,675.9 
				198.1,679.9 201.2,677.2 205.1,678.7 209.8,677.6 212.6,679.4 216.3,684.1 219.9,683.3 222.3,681.1 228.3,682.6 234.2,679.8 
				237.1,682.3 240.1,681.6 242.9,684.1 245.7,684.1 248.6,686.6 252.3,685 258.2,686.6 262.7,682.5 269.7,678.7 273.8,683.3 
				281.1,683.7 286.6,680.3 289.3,679.9 292.9,676.5 296.4,675.7 301.6,678.3 304.6,678.2 308.1,675.5 310.7,677.1 313.1,674.4 
				319.6,673.2 325.4,675.5 328.3,672.4 331.6,675.4 334.4,675.1 337.6,681.1 340.3,680.2 341.3,681.4 345.8,679 349.3,680.1 
				351.9,677.5 355.9,679.6 357.9,677.8 361.2,675.3 363.6,675.9 366.7,672.1 369.9,676.8 372.3,672.9 378.6,670.6 383.3,666.8 
				383.3,762.4 390.8,792 397.2,771.1 399.7,767 404.6,766.1 407.9,776.2 410.9,776.1 413.9,771.5 420.2,780 425.9,790.2 
				429.1,787.8 431.7,788 434.6,785 437.7,790.8 440.2,789.8 443.9,793 446.7,802.4 450.2,801.2 453.3,796.5 458.4,793 460.8,794.6 
				463.7,792.2 466.9,804.6 473.4,806.5 479.1,810.7 481.6,808 485.2,811.6 488.1,812.8 491,810.6 496.7,798.1 499.6,795.2 
				502.5,796.4 505.4,795.6 508.6,786.8 511.6,785.5 514.4,781.6 517.7,785.3 520.8,783.3 523.4,779.7 529.3,783.4 532.4,782.4 
				535.1,779.1 538.4,782.3 540.8,780.6 548.2,786.7 549.7,788.4 552.3,788.3 558.4,795.8 561.8,794.4 564.6,792.3 567.7,794.3 
				573.4,791 576.7,794.6 579.1,793.3 585.3,795.4 590.9,793.5 593.4,794 600.7,794.7 602.9,793.9 606.3,795.8 608.4,793.3 
				611.7,794.9 615.2,797.7 623.7,802.8 626.4,803 630.2,806.5 636.4,804.5 638.1,803.1 643.9,809.1 647.8,807.9 650.4,810.6 
				652.9,808.4 658.8,811.7 665.3,806.6 670.4,812.8 673.2,814 677.2,816.7 680.4,815.6 682.8,813.8 688.8,817.6 692.7,817.6 
				695.2,816.3 700.3,817.6 703.1,815.7 706.9,815.6 712.1,813.1 718.3,818.8 724.4,817.8 726.9,822.6 729.8,825.1 732.2,824.3 
				735.3,826.1 741.7,826.1 744.7,829.9 751.1,831.2 753.9,829 756.6,831.9 759.6,831.2 762.3,828.4 765.6,834.2 			"/>
			<line class="st12" x1="-0.1" y1="679.9" x2="833.9" y2="679.9"/>
		</g>
		<polygon class="st6" points="921.9,843.5 848.3,843.5 841.4,835.4 848.3,827.2 921.9,827.2 		"/>
		<g>
			
				<text transform="matrix(1 0 0 1 850.1191 839.5367)" class="st0" style="font-family:'SourceHanSansTW-Medium-B5pc-H'; font-size:12px;">93.634 T US</text>
		</g>
	</g>
	<rect y="519.2" class="st8" width="950" height="385.7"/>
</g>
<g>
	<g>
		<polygon class="st4" points="947.4,94 848.3,94 841.4,85.8 848.3,77.6 947.4,77.6 		"/>
		<g>
			<g>
				<path class="st0" d="M851.2,88.8h1.9v-6.1h-1.6v-0.9c0.8-0.2,1.4-0.4,1.9-0.7h1v7.7h1.7V90h-5V88.8z"/>
				<path class="st0" d="M857.5,85.5c0-3.1,1.1-4.5,2.9-4.5c1.7,0,2.9,1.5,2.9,4.5c0,3.1-1.1,4.6-2.9,4.6
					C858.6,90.1,857.5,88.6,857.5,85.5z M861.9,85.5c0-2.5-0.6-3.5-1.5-3.5s-1.5,0.9-1.5,3.5c0,2.6,0.6,3.5,1.5,3.5
					S861.9,88.1,861.9,85.5z"/>
				<path class="st0" d="M864.3,89.2c2.6-2.3,3.9-4,3.9-5.5c0-1-0.5-1.6-1.5-1.6c-0.7,0-1.3,0.4-1.7,1l-0.8-0.8
					c0.8-0.8,1.5-1.3,2.7-1.3c1.6,0,2.7,1.1,2.7,2.7c0,1.7-1.4,3.5-3.2,5.3c0.5,0,1-0.1,1.4-0.1h2.2V90h-5.7V89.2z"/>
				<path class="st0" d="M871.5,89.2c0-0.6,0.4-1,0.9-1s0.9,0.4,0.9,1c0,0.6-0.4,1-0.9,1S871.5,89.7,871.5,89.2z"/>
				<path class="st0" d="M875.2,88.8h1.9v-6.1h-1.6v-0.9c0.8-0.2,1.4-0.4,1.9-0.7h1v7.7h1.7V90h-5V88.8z"/>
				<path class="st0" d="M881.6,85.5c0-3.1,1.1-4.5,2.9-4.5c1.7,0,2.9,1.5,2.9,4.5c0,3.1-1.1,4.6-2.9,4.6
					C882.7,90.1,881.6,88.6,881.6,85.5z M886,85.5c0-2.5-0.6-3.5-1.5-3.5s-1.5,0.9-1.5,3.5c0,2.6,0.6,3.5,1.5,3.5S886,88.1,886,85.5
					z"/>
				<path class="st0" d="M892.6,82.3h-4.1v-1.2h5.7V82c-2.1,2.6-2.4,4.5-2.5,8h-1.4C890.4,86.7,890.9,84.7,892.6,82.3z"/>
				<path class="st0" d="M900.4,82.3h-2.6v-1.2h6.6v1.2h-2.6V90h-1.4V82.3z"/>
				<path class="st0" d="M905,81.1h1.4l0.8,4.6l0.5,2.8h0c0.2-0.9,0.4-1.9,0.6-2.8l1.1-4.6h1.2l1.2,4.6c0.2,0.9,0.4,1.9,0.6,2.8h0.1
					c0.1-1,0.3-1.9,0.4-2.8l0.8-4.6h1.3l-1.7,8.8h-1.7l-1.2-4.9c-0.2-0.7-0.3-1.4-0.4-2h-0.1c-0.1,0.7-0.3,1.3-0.4,2l-1.2,4.9h-1.7
					L905,81.1z"/>
				<path class="st0" d="M918.2,85.4l-2.4-4.3h1.5l1.1,2.1c0.2,0.4,0.4,0.8,0.7,1.3h0.1c0.2-0.5,0.4-0.9,0.6-1.3l1-2.1h1.5l-2.4,4.3
					l2.5,4.5h-1.5l-1.2-2.2c-0.2-0.4-0.5-0.9-0.7-1.4h0c-0.3,0.5-0.5,1-0.7,1.4l-1.1,2.2h-1.5L918.2,85.4z"/>
				<path class="st0" d="M926.4,86.2v-5h1.4v5.1c0,2,0.8,2.6,1.9,2.6c1.1,0,1.9-0.6,1.9-2.6v-5.1h1.3v5c0,2.9-1.3,3.9-3.3,3.9
					C927.8,90.1,926.4,89.1,926.4,86.2z"/>
				<path class="st0" d="M934.5,88.8l0.8-1c0.6,0.6,1.5,1,2.4,1c1.1,0,1.7-0.5,1.7-1.2c0-0.8-0.6-1.1-1.4-1.4l-1.2-0.5
					c-0.9-0.4-1.8-1-1.8-2.3c0-1.4,1.2-2.4,2.9-2.4c1,0,2,0.4,2.7,1.1l-0.7,0.9c-0.6-0.5-1.2-0.8-1.9-0.8c-0.9,0-1.5,0.4-1.5,1.1
					c0,0.8,0.7,1,1.4,1.3l1.2,0.5c1,0.4,1.8,1.1,1.8,2.4c0,1.4-1.2,2.6-3.1,2.6C936.5,90.1,935.3,89.7,934.5,88.8z"/>
			</g>
		</g>
		<g>
			<g>
				<g>
					<path class="st1" d="M843.5,39.4h1.9v-6.1h-1.6v-0.9c0.8-0.2,1.4-0.4,1.9-0.7h1v7.7h1.7v1.1h-5V39.4z"/>
					<path class="st1" d="M849.9,36.1c0-3.1,1.1-4.5,2.9-4.5c1.7,0,2.9,1.5,2.9,4.5c0,3.1-1.1,4.6-2.9,4.6
						C851,40.7,849.9,39.1,849.9,36.1z M854.2,36.1c0-2.5-0.6-3.5-1.5-3.5s-1.5,0.9-1.5,3.5c0,2.6,0.6,3.5,1.5,3.5
						S854.2,38.6,854.2,36.1z"/>
					<path class="st1" d="M862.6,38.1h-1.1v2.4h-1.3v-2.4h-3.8v-0.9l3.5-5.5h1.6v5.4h1.1V38.1z M860.2,37.1v-2.3
						c0-0.5,0-1.2,0.1-1.7h0c-0.2,0.4-0.5,0.9-0.7,1.4l-1.7,2.7H860.2z"/>
					<path class="st1" d="M863.8,39.7c0-0.6,0.4-1,0.9-1s0.9,0.4,0.9,1c0,0.6-0.4,1-0.9,1S863.8,40.3,863.8,39.7z"/>
					<path class="st1" d="M867.1,36.1c0-3.1,1.1-4.5,2.9-4.5c1.7,0,2.9,1.5,2.9,4.5c0,3.1-1.1,4.6-2.9,4.6
						C868.2,40.7,867.1,39.1,867.1,36.1z M871.5,36.1c0-2.5-0.6-3.5-1.5-3.5s-1.5,0.9-1.5,3.5c0,2.6,0.6,3.5,1.5,3.5
						S871.5,38.6,871.5,36.1z"/>
					<path class="st1" d="M873.9,36.1c0-3.1,1.1-4.5,2.9-4.5c1.7,0,2.9,1.5,2.9,4.5c0,3.1-1.1,4.6-2.9,4.6
						C875.1,40.7,873.9,39.1,873.9,36.1z M878.3,36.1c0-2.5-0.6-3.5-1.5-3.5s-1.5,0.9-1.5,3.5c0,2.6,0.6,3.5,1.5,3.5
						S878.3,38.6,878.3,36.1z"/>
				</g>
			</g>
			<g>
				<g>
					<path class="st1" d="M843.5,147.5h1.9v-6.1h-1.6v-0.9c0.8-0.2,1.4-0.4,1.9-0.7h1v7.7h1.7v1.1h-5V147.5z"/>
					<path class="st1" d="M849.9,144.2c0-3.1,1.1-4.5,2.9-4.5c1.7,0,2.9,1.5,2.9,4.5c0,3.1-1.1,4.6-2.9,4.6
						C851,148.8,849.9,147.3,849.9,144.2z M854.2,144.2c0-2.5-0.6-3.5-1.5-3.5s-1.5,0.9-1.5,3.5c0,2.6,0.6,3.5,1.5,3.5
						S854.2,146.7,854.2,144.2z"/>
					<path class="st1" d="M856.7,144.2c0-3.1,1.1-4.5,2.9-4.5c1.7,0,2.9,1.5,2.9,4.5c0,3.1-1.1,4.6-2.9,4.6
						C857.8,148.8,856.7,147.3,856.7,144.2z M861.1,144.2c0-2.5-0.6-3.5-1.5-3.5s-1.5,0.9-1.5,3.5c0,2.6,0.6,3.5,1.5,3.5
						S861.1,146.7,861.1,144.2z"/>
					<path class="st1" d="M863.8,147.8c0-0.6,0.4-1,0.9-1s0.9,0.4,0.9,1c0,0.6-0.4,1-0.9,1S863.8,148.4,863.8,147.8z"/>
					<path class="st1" d="M867.1,144.2c0-3.1,1.1-4.5,2.9-4.5c1.7,0,2.9,1.5,2.9,4.5c0,3.1-1.1,4.6-2.9,4.6
						C868.2,148.8,867.1,147.3,867.1,144.2z M871.5,144.2c0-2.5-0.6-3.5-1.5-3.5s-1.5,0.9-1.5,3.5c0,2.6,0.6,3.5,1.5,3.5
						S871.5,146.7,871.5,144.2z"/>
					<path class="st1" d="M873.9,144.2c0-3.1,1.1-4.5,2.9-4.5c1.7,0,2.9,1.5,2.9,4.5c0,3.1-1.1,4.6-2.9,4.6
						C875.1,148.8,873.9,147.3,873.9,144.2z M878.3,144.2c0-2.5-0.6-3.5-1.5-3.5s-1.5,0.9-1.5,3.5c0,2.6,0.6,3.5,1.5,3.5
						S878.3,146.7,878.3,144.2z"/>
				</g>
			</g>
			<g>
				<g>
					<path class="st1" d="M843.9,200.7c0.3,0.4,0.9,0.7,1.5,0.7c1.1,0,2-0.9,2.1-3.4c-0.5,0.6-1.3,1-1.9,1c-1.5,0-2.5-0.9-2.5-2.8
						c0-1.8,1.2-2.9,2.6-2.9c1.7,0,3.1,1.4,3.1,4.3c0,3.5-1.6,4.9-3.3,4.9c-1,0-1.7-0.4-2.3-0.9L843.9,200.7z M847.4,196.9
						c-0.1-1.7-0.8-2.5-1.8-2.5c-0.8,0-1.4,0.7-1.4,1.8c0,1.1,0.5,1.8,1.4,1.8C846.2,198,846.8,197.7,847.4,196.9z"/>
					<path class="st1" d="M849.8,200.1c0-1.2,0.8-1.9,1.6-2.4v-0.1c-0.7-0.5-1.2-1.1-1.2-2.1c0-1.4,1.1-2.3,2.5-2.3
						c1.5,0,2.5,1,2.5,2.3c0,0.9-0.6,1.7-1.2,2.1v0.1c0.8,0.5,1.5,1.1,1.5,2.3c0,1.3-1.2,2.3-2.9,2.3
						C851.1,202.5,849.8,201.5,849.8,200.1z M854.3,200.1c0-1.1-1-1.5-2.2-2c-0.6,0.4-1,1.1-1,1.8c0,0.9,0.7,1.5,1.7,1.5
						C853.6,201.5,854.3,201,854.3,200.1z M854.1,195.8c0-0.8-0.5-1.4-1.4-1.4c-0.7,0-1.3,0.5-1.3,1.3c0,1,0.8,1.4,1.8,1.8
						C853.8,196.9,854.1,196.4,854.1,195.8z"/>
					<path class="st1" d="M857,201.5c0-0.6,0.4-1,0.9-1s0.9,0.4,0.9,1c0,0.6-0.4,1-0.9,1S857,202.1,857,201.5z"/>
					<path class="st1" d="M860.3,197.9c0-3.1,1.1-4.5,2.9-4.5c1.7,0,2.9,1.5,2.9,4.5c0,3.1-1.1,4.6-2.9,4.6
						C861.4,202.5,860.3,201,860.3,197.9z M864.7,197.9c0-2.5-0.6-3.5-1.5-3.5s-1.5,0.9-1.5,3.5c0,2.6,0.6,3.5,1.5,3.5
						S864.7,200.4,864.7,197.9z"/>
					<path class="st1" d="M867.1,197.9c0-3.1,1.1-4.5,2.9-4.5c1.7,0,2.9,1.5,2.9,4.5c0,3.1-1.1,4.6-2.9,4.6
						C868.2,202.5,867.1,201,867.1,197.9z M871.5,197.9c0-2.5-0.6-3.5-1.5-3.5s-1.5,0.9-1.5,3.5c0,2.6,0.6,3.5,1.5,3.5
						S871.5,200.4,871.5,197.9z"/>
				</g>
			</g>
			<g>
				<g>
					<path class="st1" d="M843.9,253.9c0.3,0.4,0.9,0.7,1.5,0.7c1.1,0,2-0.9,2.1-3.4c-0.5,0.6-1.3,1-1.9,1c-1.5,0-2.5-0.9-2.5-2.8
						c0-1.8,1.2-2.9,2.6-2.9c1.7,0,3.1,1.4,3.1,4.3c0,3.5-1.6,4.9-3.3,4.9c-1,0-1.7-0.4-2.3-0.9L843.9,253.9z M847.4,250.1
						c-0.1-1.7-0.8-2.5-1.8-2.5c-0.8,0-1.4,0.7-1.4,1.8c0,1.1,0.5,1.8,1.4,1.8C846.2,251.2,846.8,250.9,847.4,250.1z"/>
					<path class="st1" d="M854.7,248.3c-0.3-0.4-0.9-0.7-1.4-0.7c-1.1,0-2.1,0.9-2.1,3.4c0.5-0.6,1.3-1,1.9-1c1.5,0,2.5,0.9,2.5,2.8
						c0,1.8-1.2,2.9-2.6,2.9c-1.7,0-3-1.4-3-4.4c0-3.4,1.6-4.8,3.3-4.8c1,0,1.7,0.4,2.2,0.9L854.7,248.3z M854.3,252.8
						c0-1.1-0.5-1.8-1.5-1.8c-0.5,0-1.1,0.3-1.6,1c0.1,1.8,0.8,2.6,1.7,2.6C853.7,254.6,854.3,253.9,854.3,252.8z"/>
					<path class="st1" d="M857,254.7c0-0.6,0.4-1,0.9-1s0.9,0.4,0.9,1c0,0.6-0.4,1-0.9,1S857,255.3,857,254.7z"/>
					<path class="st1" d="M860.3,251.1c0-3.1,1.1-4.5,2.9-4.5c1.7,0,2.9,1.5,2.9,4.5c0,3.1-1.1,4.6-2.9,4.6
						C861.4,255.7,860.3,254.1,860.3,251.1z M864.7,251.1c0-2.5-0.6-3.5-1.5-3.5s-1.5,0.9-1.5,3.5c0,2.6,0.6,3.5,1.5,3.5
						S864.7,253.6,864.7,251.1z"/>
					<path class="st1" d="M867.1,251.1c0-3.1,1.1-4.5,2.9-4.5c1.7,0,2.9,1.5,2.9,4.5c0,3.1-1.1,4.6-2.9,4.6
						C868.2,255.7,867.1,254.1,867.1,251.1z M871.5,251.1c0-2.5-0.6-3.5-1.5-3.5s-1.5,0.9-1.5,3.5c0,2.6,0.6,3.5,1.5,3.5
						S871.5,253.6,871.5,251.1z"/>
				</g>
			</g>
			<g>
				<g>
					<path class="st1" d="M843.9,306.9c0.3,0.4,0.9,0.7,1.5,0.7c1.1,0,2-0.9,2.1-3.4c-0.5,0.6-1.3,1-1.9,1c-1.5,0-2.5-0.9-2.5-2.8
						c0-1.8,1.2-2.9,2.6-2.9c1.7,0,3.1,1.4,3.1,4.3c0,3.5-1.6,4.9-3.3,4.9c-1,0-1.7-0.4-2.3-0.9L843.9,306.9z M847.4,303.1
						c-0.1-1.7-0.8-2.5-1.8-2.5c-0.8,0-1.4,0.7-1.4,1.8c0,1.1,0.5,1.8,1.4,1.8C846.2,304.2,846.8,303.9,847.4,303.1z"/>
					<path class="st1" d="M855.8,306.1h-1.1v2.4h-1.3v-2.4h-3.8v-0.9l3.5-5.5h1.6v5.4h1.1V306.1z M853.3,305.1v-2.3
						c0-0.5,0-1.2,0.1-1.7h0c-0.2,0.4-0.5,0.9-0.7,1.4l-1.7,2.7H853.3z"/>
					<path class="st1" d="M857,307.7c0-0.6,0.4-1,0.9-1s0.9,0.4,0.9,1c0,0.6-0.4,1-0.9,1S857,308.3,857,307.7z"/>
					<path class="st1" d="M860.3,304.1c0-3.1,1.1-4.5,2.9-4.5c1.7,0,2.9,1.5,2.9,4.5c0,3.1-1.1,4.6-2.9,4.6
						C861.4,308.7,860.3,307.1,860.3,304.1z M864.7,304.1c0-2.5-0.6-3.5-1.5-3.5s-1.5,0.9-1.5,3.5c0,2.6,0.6,3.5,1.5,3.5
						S864.7,306.6,864.7,304.1z"/>
					<path class="st1" d="M867.1,304.1c0-3.1,1.1-4.5,2.9-4.5c1.7,0,2.9,1.5,2.9,4.5c0,3.1-1.1,4.6-2.9,4.6
						C868.2,308.7,867.1,307.1,867.1,304.1z M871.5,304.1c0-2.5-0.6-3.5-1.5-3.5s-1.5,0.9-1.5,3.5c0,2.6,0.6,3.5,1.5,3.5
						S871.5,306.6,871.5,304.1z"/>
				</g>
			</g>
		</g>
		<g>
			<polygon class="st5" points="834.5,305.1 834.5,303.6 836.3,304.3 838.1,305.1 836.3,305.9 834.5,306.6 			"/>
			<polygon class="st5" points="834.5,251.9 834.5,250.4 836.3,251.2 838.1,251.9 836.3,252.7 834.5,253.5 			"/>
			<polygon class="st5" points="834.5,198.8 834.5,197.2 836.3,198 838.1,198.8 836.3,199.5 834.5,200.3 			"/>
			<polygon class="st5" points="834.5,144.8 834.5,143.3 836.3,144 838.1,144.8 836.3,145.5 834.5,146.3 			"/>
			<polygon class="st5" points="834.5,90 834.5,88.5 836.3,89.2 838.1,90 836.3,90.7 834.5,91.5 			"/>
			<polygon class="st5" points="834.5,36.8 834.5,35.3 836.3,36 838.1,36.8 836.3,37.6 834.5,38.3 			"/>
		</g>
		<g>
			<g>
				<g>
					<rect x="22.8" y="35.3" class="st4" width="10" height="10"/>
					<g class="st7">
						<path class="st4" d="M43.3,36.2h-3.5v-2.1h9.6v2.1h-3.5v10.4h-2.5V36.2z"/>
						<path class="st4" d="M50.1,34.1h2.6l1,6.1c0.2,1.3,0.4,2.7,0.6,4h0.1c0.3-1.3,0.5-2.7,0.8-4l1.5-6.1h2.1l1.5,6.1
							c0.3,1.3,0.5,2.6,0.8,4H61c0.2-1.4,0.4-2.7,0.6-4l1-6.1H65l-2.3,12.5h-3.1l-1.4-6.2c-0.2-1-0.4-1.9-0.5-2.9h-0.1
							c-0.2,0.9-0.3,1.9-0.5,2.9l-1.4,6.2h-3.1L50.1,34.1z"/>
						<path class="st4" d="M69.1,40.2l-3.3-6h2.8l1.2,2.6c0.3,0.6,0.6,1.2,0.9,2h0.1c0.3-0.8,0.6-1.4,0.8-2l1.2-2.6h2.6l-3.3,6.2
							l3.5,6.3h-2.8l-1.4-2.8c-0.3-0.6-0.6-1.3-1-2.1h-0.1c-0.3,0.8-0.6,1.4-0.9,2.1l-1.3,2.8h-2.7L69.1,40.2z"/>
						<path class="st4" d="M81.2,41v-6.9h2.5v7.1c0,2.6,0.9,3.5,2.4,3.5c1.5,0,2.4-0.9,2.4-3.5v-7.1h2.4V41c0,4.2-1.8,5.9-4.8,5.9
							C83,46.9,81.2,45.2,81.2,41z"/>
						<path class="st4" d="M92.9,45l1.4-1.7c0.9,0.8,2.1,1.4,3.2,1.4c1.3,0,2-0.6,2-1.4c0-0.9-0.8-1.2-1.9-1.7l-1.7-0.7
							c-1.3-0.5-2.5-1.5-2.5-3.4c0-2,1.8-3.6,4.3-3.6c1.5,0,2.9,0.6,3.9,1.6l-1.3,1.6c-0.8-0.7-1.6-1-2.7-1c-1.1,0-1.8,0.5-1.8,1.3
							c0,0.9,0.9,1.2,2,1.6l1.6,0.7c1.5,0.6,2.5,1.6,2.5,3.4c0,2-1.7,3.8-4.6,3.8C95.8,46.9,94.1,46.2,92.9,45z"/>
						<path class="st4" d="M108.1,34.1h7.7v2.1h-5.2v2.9h4.4v2.1h-4.4v3.3h5.4v2.1h-7.9V34.1z"/>
						<path class="st4" d="M123.8,47.2l0.1-1.5c-0.6,0.7-1.6,1.1-2.5,1.1c-2.3,0-3.9-1.9-3.9-4.9c0-3.1,1.9-5,4-5
							c1,0,1.8,0.4,2.6,1.2h0.1l0.2-0.9h1.9v13.1h-2.5V47.2z M123.8,43.8v-4.2c-0.6-0.5-1.2-0.7-1.8-0.7c-1.1,0-2,1-2,2.9
							c0,2,0.7,2.9,2,2.9C122.7,44.8,123.2,44.5,123.8,43.8z"/>
						<path class="st4" d="M128.8,43.1v-5.9h2.5v5.6c0,1.5,0.4,2,1.3,2c0.8,0,1.3-0.3,1.9-1.2v-6.4h2.5v9.5h-2l-0.2-1.4h-0.1
							c-0.8,1-1.7,1.6-3,1.6C129.7,46.9,128.8,45.4,128.8,43.1z"/>
						<path class="st4" d="M139.5,34.3c0-0.8,0.6-1.4,1.5-1.4c0.8,0,1.5,0.5,1.5,1.4c0,0.8-0.6,1.4-1.5,1.4
							C140.1,35.6,139.5,35.1,139.5,34.3z M139.7,37.2h2.5v9.5h-2.5V37.2z"/>
						<path class="st4" d="M145.2,43.3v-4.2h-1.3v-1.8l1.5-0.1l0.3-2.5h2.1v2.5h2.3v2h-2.3v4.2c0,1.1,0.4,1.6,1.3,1.6
							c0.3,0,0.7-0.1,0.9-0.2l0.4,1.8c-0.5,0.2-1.2,0.4-2,0.4C146,46.9,145.2,45.4,145.2,43.3z"/>
						<path class="st4" d="M151.5,50.2l0.5-1.9c0.2,0.1,0.4,0.1,0.7,0.1c1,0,1.5-0.6,1.8-1.4l0.2-0.6l-3.7-9.3h2.5l1.5,4.4
							c0.3,0.8,0.5,1.8,0.8,2.7h0.1c0.2-0.9,0.5-1.8,0.7-2.7l1.3-4.4h2.4l-3.4,9.7c-0.8,2.2-1.8,3.5-4,3.5
							C152.2,50.4,151.8,50.4,151.5,50.2z"/>
						<path class="st4" d="M177,44.6h2.7v-7.9h-2.3v-1.5c1.2-0.2,2.1-0.6,2.9-1h1.8v10.5h2.3v2H177V44.6z"/>
						<path class="st4" d="M186.3,40.3c0-4.3,1.7-6.4,4.2-6.4c2.5,0,4.2,2.1,4.2,6.4c0,4.3-1.7,6.5-4.2,6.5
							C188,46.9,186.3,44.6,186.3,40.3z M192.4,40.3c0-3.5-0.8-4.5-1.9-4.5c-1.1,0-1.9,1-1.9,4.5c0,3.5,0.8,4.6,1.9,4.6
							C191.6,44.9,192.4,43.8,192.4,40.3z"/>
						<path class="st4" d="M196.3,45.2c3.4-3,5.4-5.4,5.4-7.3c0-1.3-0.7-2-1.9-2c-0.9,0-1.7,0.6-2.3,1.3l-1.4-1.4
							c1.1-1.2,2.3-1.9,4-1.9c2.4,0,3.9,1.5,3.9,3.9c0,2.3-1.9,4.7-4.2,6.9c0.6-0.1,1.5-0.1,2-0.1h2.7v2.1h-8.4V45.2z"/>
						<path class="st4" d="M206.7,45.2c0-0.9,0.7-1.6,1.5-1.6c0.9,0,1.6,0.7,1.6,1.6s-0.7,1.6-1.6,1.6
							C207.3,46.9,206.7,46.2,206.7,45.2z"/>
						<path class="st4" d="M212.4,44.6h2.7v-7.9h-2.3v-1.5c1.2-0.2,2.1-0.6,2.9-1h1.8v10.5h2.3v2h-7.5V44.6z"/>
						<path class="st4" d="M221.7,40.3c0-4.3,1.7-6.4,4.2-6.4c2.5,0,4.2,2.1,4.2,6.4c0,4.3-1.7,6.5-4.2,6.5
							C223.4,46.9,221.7,44.6,221.7,40.3z M227.8,40.3c0-3.5-0.8-4.5-1.9-4.5c-1.1,0-1.9,1-1.9,4.5c0,3.5,0.8,4.6,1.9,4.6
							C227,44.9,227.8,43.8,227.8,40.3z"/>
						<path class="st4" d="M237.3,36.2h-5.6v-2.1h8.3v1.5c-2.9,3.5-3.3,6.1-3.5,11H234C234.2,42.3,235,39.5,237.3,36.2z"/>
					</g>
				</g>
			</g>
			<g>
				<g>
					<rect x="22.8" y="60.3" class="st6" width="10" height="10"/>
					<g class="st7">
						<path class="st6" d="M43.3,61.2h-3.5v-2.1h9.6v2.1h-3.5v10.4h-2.5V61.2z"/>
						<path class="st6" d="M55.1,66v-6.9h2.5v7.1c0,2.6,0.9,3.5,2.4,3.5c1.5,0,2.4-0.9,2.4-3.5v-7.1h2.4V66c0,4.2-1.8,5.9-4.8,5.9
							C57,71.9,55.1,70.2,55.1,66z"/>
						<path class="st6" d="M66.8,70l1.4-1.7c0.9,0.8,2.1,1.4,3.2,1.4c1.3,0,2-0.6,2-1.4c0-0.9-0.8-1.2-1.9-1.7l-1.7-0.7
							c-1.3-0.5-2.5-1.5-2.5-3.4c0-2,1.8-3.6,4.3-3.6c1.5,0,2.9,0.6,3.9,1.6l-1.3,1.6c-0.8-0.7-1.6-1-2.7-1c-1.1,0-1.8,0.5-1.8,1.3
							c0,0.9,0.9,1.2,2,1.6l1.6,0.7c1.5,0.6,2.5,1.6,2.5,3.4c0,2-1.7,3.8-4.6,3.8C69.7,71.9,68,71.2,66.8,70z"/>
						<path class="st6" d="M82,59.1h7.7v2.1h-5.2v2.9h4.4v2.1h-4.4v3.3h5.4v2.1H82V59.1z"/>
						<path class="st6" d="M97.7,72.2l0.1-1.5c-0.6,0.7-1.6,1.1-2.5,1.1c-2.3,0-3.9-1.9-3.9-4.9c0-3.1,1.9-5,4-5
							c1,0,1.8,0.4,2.6,1.2h0.1l0.2-0.9h1.9v13.1h-2.5V72.2z M97.7,68.8v-4.2C97.2,64.2,96.6,64,96,64c-1.1,0-2,1-2,2.9
							c0,2,0.7,2.9,2,2.9C96.6,69.8,97.2,69.5,97.7,68.8z"/>
						<path class="st6" d="M102.8,68.1v-5.9h2.5v5.6c0,1.5,0.4,2,1.3,2c0.8,0,1.3-0.3,1.9-1.2v-6.4h2.5v9.5h-2l-0.2-1.4h-0.1
							c-0.8,1-1.7,1.6-3,1.6C103.7,71.9,102.8,70.4,102.8,68.1z"/>
						<path class="st6" d="M113.4,59.3c0-0.8,0.6-1.4,1.5-1.4c0.8,0,1.5,0.5,1.5,1.4c0,0.8-0.6,1.4-1.5,1.4
							C114,60.6,113.4,60.1,113.4,59.3z M113.6,62.2h2.5v9.5h-2.5V62.2z"/>
						<path class="st6" d="M119.1,68.3v-4.2h-1.3v-1.8l1.5-0.1l0.3-2.5h2.1v2.5h2.3v2h-2.3v4.2c0,1.1,0.4,1.6,1.3,1.6
							c0.3,0,0.7-0.1,0.9-0.2l0.4,1.8c-0.5,0.2-1.2,0.4-2,0.4C120,71.9,119.1,70.4,119.1,68.3z"/>
						<path class="st6" d="M125.4,75.2l0.5-1.9c0.2,0.1,0.4,0.1,0.7,0.1c1,0,1.5-0.6,1.8-1.4l0.2-0.6l-3.7-9.3h2.5l1.5,4.4
							c0.3,0.8,0.5,1.8,0.8,2.7h0.1c0.2-0.9,0.5-1.8,0.7-2.7l1.3-4.4h2.4l-3.4,9.7c-0.8,2.2-1.8,3.5-4,3.5
							C126.1,75.4,125.8,75.4,125.4,75.2z"/>
						<path class="st6" d="M186.3,69c0.5,0.5,1.2,0.9,2,0.9c1.4,0,2.6-1.1,2.7-4.2c-0.6,0.8-1.7,1.4-2.6,1.4c-2.1,0-3.6-1.3-3.6-3.9
							c0-2.6,1.8-4.2,3.9-4.2c2.4,0,4.5,1.9,4.5,6.2c0,4.7-2.3,6.8-4.8,6.8c-1.6,0-2.7-0.7-3.4-1.4L186.3,69z M190.9,63.9
							c-0.2-2.3-1.1-3.1-2.1-3.1c-0.9,0-1.7,0.8-1.7,2.3c0,1.5,0.7,2.2,1.8,2.2C189.5,65.2,190.3,64.8,190.9,63.9z"/>
						<path class="st6" d="M194.5,70.1l1.2-1.6c0.7,0.7,1.7,1.3,2.8,1.3c1.3,0,2.1-0.6,2.1-1.7c0-1.2-0.7-2-3.4-2v-1.8
							c2.3,0,3-0.8,3-1.9c0-1-0.6-1.6-1.7-1.6c-0.9,0-1.6,0.4-2.4,1.1l-1.3-1.5c1.1-0.9,2.3-1.5,3.8-1.5c2.4,0,4.1,1.2,4.1,3.3
							c0,1.4-0.8,2.3-2.1,2.9v0.1c1.4,0.4,2.5,1.4,2.5,3.1c0,2.3-2,3.6-4.4,3.6C196.7,71.9,195.4,71.1,194.5,70.1z"/>
						<path class="st6" d="M205.2,70.2c0-0.9,0.7-1.6,1.5-1.6c0.9,0,1.6,0.7,1.6,1.6s-0.7,1.6-1.6,1.6
							C205.8,71.9,205.2,71.2,205.2,70.2z"/>
						<path class="st6" d="M217.2,61.8c-0.4-0.5-1.2-0.9-1.9-0.9c-1.4,0-2.6,1.1-2.7,4.2c0.7-0.8,1.8-1.3,2.6-1.3
							c2.1,0,3.6,1.2,3.6,3.9c0,2.6-1.8,4.2-3.9,4.2c-2.4,0-4.5-1.9-4.5-6.3c0-4.7,2.3-6.7,4.8-6.7c1.5,0,2.6,0.6,3.4,1.4
							L217.2,61.8z M216.5,67.7c0-1.5-0.7-2.2-1.8-2.2c-0.7,0-1.4,0.4-2,1.3c0.2,2.3,1.1,3.2,2.1,3.2
							C215.7,70,216.5,69.2,216.5,67.7z"/>
						<path class="st6" d="M219.9,70.1l1.2-1.6c0.7,0.7,1.7,1.3,2.8,1.3c1.3,0,2.1-0.6,2.1-1.7c0-1.2-0.7-2-3.4-2v-1.8
							c2.3,0,3-0.8,3-1.9c0-1-0.6-1.6-1.7-1.6c-0.9,0-1.6,0.4-2.4,1.1l-1.3-1.5c1.1-0.9,2.3-1.5,3.8-1.5c2.4,0,4.1,1.2,4.1,3.3
							c0,1.4-0.8,2.3-2.1,2.9v0.1c1.4,0.4,2.5,1.4,2.5,3.1c0,2.3-2,3.6-4.4,3.6C222.1,71.9,220.7,71.1,219.9,70.1z"/>
						<path class="st6" d="M238.9,68.4h-1.5v3.2h-2.3v-3.2h-5.3v-1.7l4.7-7.6h3v7.4h1.5V68.4z M235.1,66.5v-2.6
							c0-0.7,0.1-1.9,0.1-2.6h-0.1c-0.3,0.7-0.6,1.4-1,2l-1.9,3.1H235.1z"/>
						<path class="st6" d="M54.6,82.6c-0.4,2.5-1.1,4.6-2.1,6.4c0.9,1.1,2,2,3.2,2.7c-0.4,0.4-1.1,1.1-1.4,1.7
							c-1.2-0.7-2.2-1.6-3-2.7c-0.9,1.1-2,2-3.3,2.8c-0.2-0.4-0.9-1.3-1.3-1.6c1.5-0.7,2.6-1.6,3.5-2.8c-0.6-1.1-1.2-2.3-1.6-3.7
							c-0.3,0.4-0.6,0.8-0.9,1.2c-0.2-0.4-0.8-1.1-1.2-1.6v8.5h-2V89c-2.7,0.9-3.2,1.2-3.6,1.6c-0.1-0.5-0.5-1.4-0.8-1.8
							c0.3-0.2,0.6-0.5,0.6-1.2v-8.1h2v8.2l1.8-0.5v-9.3h2v6.7c1.3-1.6,2.1-4.2,2.5-6.9l2,0.3c-0.2,0.9-0.4,1.9-0.6,2.8h5.2v1.9
							H54.6z M49.9,82.6c-0.1,0.2-0.1,0.3-0.2,0.5c0.4,1.5,0.9,2.8,1.6,4.1c0.6-1.3,1-2.8,1.3-4.5H49.9z"/>
						<path class="st6" d="M71.3,82.8c-0.4,1.1-1.1,2-1.9,2.7c0.9,0.3,2.1,0.6,3.3,0.7c-0.4,0.4-0.9,1-1.1,1.5
							c-1.5-0.2-2.8-0.6-3.9-1.2c-1,0.5-2.2,0.8-3.4,1c-0.1-0.2-0.3-0.5-0.4-0.8c-0.1,0.2-0.2,0.4-0.5,0.5c-0.4,0.3-1.1,0.3-2,0.3
							c-0.1-0.4-0.2-1.1-0.4-1.5c0.5,0,1,0,1.2,0c0.2,0,0.2-0.1,0.2-0.2v-2.1l-2.9,0.2c-0.2,1.5-0.6,3.1-1.7,4.2
							c-0.3-0.3-0.9-0.9-1.2-1.1c0.8-0.9,1.2-2,1.4-3l-1.1,0.1l-0.1-1.4l1.4,0c0-0.2,0-0.4,0-0.6v-3.1H60c0.2-0.4,0.3-0.9,0.4-1.2
							l1.7,0.2c-0.2,0.4-0.3,0.7-0.5,1h2.4v2.5c1.3-0.6,1.5-1.3,1.5-2v-1.1h4.7V80c0,0.4,0,0.5,0.3,0.5h0.9c0.3,0,0.7,0,0.9-0.1
							c0,0.4,0.1,1,0.1,1.4c-0.2,0.1-0.6,0.1-1,0.1h-1.1c-1.4,0-1.7-0.6-1.7-1.9v-0.4h-1.6c-0.1,1-0.4,2-1.6,2.8H70l0.3-0.1
							L71.3,82.8z M70.4,91.3h1.9v1.6H56.9v-1.6h1.9v-3.6h11.6V91.3z M62.4,82.3v-2.1h-2.8v1.8c0,0.2,0,0.3,0,0.5L62.4,82.3z
							 M60.9,86c-0.2-0.4-0.7-1-1.1-1.4l0.9-0.7c0.5,0.4,1,0.9,1.2,1.4L60.9,86z M61,80.4c0.4,0.4,0.8,0.9,1,1.3l-1,0.6
							c-0.2-0.4-0.6-0.9-1-1.3L61,80.4z M60.7,91.3H62v-2.1h-1.4V91.3z M63.9,89.2v2.1h1.4v-2.1H63.9z M64.1,85.9
							c0.8-0.1,1.5-0.3,2.2-0.5C65.8,85,65.4,84.5,65,84l1.2-0.3h-1.5v-1.4h0.1c-0.2-0.3-0.5-0.6-0.8-0.8v0.7l0.4,0l0,1.2l-0.3,0
							v2.3V85.9z M66.7,83.7c0.3,0.4,0.7,0.7,1.1,1c0.4-0.3,0.8-0.6,1.1-1H66.7z M67.1,89.2v2.1h1.4v-2.1H67.1z"/>
						<path class="st6" d="M80.6,83.9c0,0,0,0.6,0,0.8c-0.1,5.1-0.2,7-0.7,7.6c-0.3,0.5-0.6,0.6-1.1,0.7c-0.4,0.1-1,0.1-1.7,0.1
							c0-0.6-0.2-1.3-0.5-1.8c0.5,0,0.9,0.1,1.2,0.1c0.2,0,0.3-0.1,0.5-0.3c0.2-0.3,0.3-1.7,0.4-5.3h-1.5c-0.2,3.2-0.7,5.8-2.2,7.6
							c-0.3-0.5-0.9-1.2-1.5-1.5c1.7-2.2,1.8-5.5,1.8-9.8H74v-1.9h3c-0.2-0.6-0.7-1.4-1.1-2l1.8-0.7c0.5,0.7,1.1,1.6,1.3,2.3
							l-1.1,0.4H81v1.9h-3.8c0,0.6,0,1.2,0,1.8H80.6z M86.3,78c-0.1,0.4-0.3,0.8-0.4,1.2c0.8,1.6,2.3,3.3,3.8,4.2
							c-0.5,0.4-1.1,1.1-1.4,1.6c-1.2-0.9-2.4-2.3-3.3-3.8c-0.9,1.6-2,2.9-3.4,3.9c-0.3-0.5-0.9-1.2-1.4-1.6c2-1.2,3.5-3.3,4.2-6
							L86.3,78z M83.1,88.5c1.6,0.8,3.8,2.1,4.9,3l-1.4,1.7c-1-0.9-3.1-2.3-4.7-3.2L83.1,88.5z M85.9,87.8c-0.6-0.7-1.9-1.7-2.9-2.4
							l1.3-1.3c1,0.7,2.3,1.6,3,2.3L85.9,87.8z"/>
						<path class="st6" d="M94.5,85.6c0-4.3,1.7-6.4,4.2-6.4c2.5,0,4.2,2.1,4.2,6.4c0,4.3-1.7,6.5-4.2,6.5
							C96.2,92.1,94.5,89.9,94.5,85.6z M100.7,85.6c0-3.5-0.8-4.5-1.9-4.5c-1.1,0-1.9,1-1.9,4.5c0,3.5,0.8,4.6,1.9,4.6
							C99.8,90.2,100.7,89.1,100.7,85.6z"/>
						<path class="st6" d="M111.5,82.1c-0.4-0.5-1.2-0.9-1.9-0.9c-1.4,0-2.6,1.1-2.7,4.2c0.7-0.8,1.8-1.3,2.6-1.3
							c2.1,0,3.6,1.2,3.6,3.9c0,2.6-1.8,4.2-3.9,4.2c-2.4,0-4.5-1.9-4.5-6.3c0-4.7,2.3-6.7,4.8-6.7c1.5,0,2.6,0.6,3.4,1.4
							L111.5,82.1z M110.7,88c0-1.5-0.7-2.2-1.8-2.2c-0.7,0-1.4,0.4-2,1.3c0.2,2.3,1.1,3.2,2.1,3.2C110,90.3,110.7,89.5,110.7,88z"
							/>
						<path class="st6" d="M118.1,78.3h1.7L115.6,95h-1.7L118.1,78.3z"/>
						<path class="st6" d="M121.6,89.9h2.7V82h-2.3v-1.5c1.2-0.2,2.1-0.6,2.9-1h1.8v10.5h2.3v2h-7.5V89.9z"/>
						<path class="st6" d="M131.6,89.9h2.7V82H132v-1.5c1.2-0.2,2.1-0.6,2.9-1h1.8v10.5h2.3v2h-7.5V89.9z"/>
						<path class="st6" d="M144.8,86.2h4.6v1.8h-4.6V86.2z"/>
						<path class="st6" d="M151.1,86.2h4.6v1.8h-4.6V86.2z"/>
						<path class="st6" d="M157.3,86.2h4.6v1.8h-4.6V86.2z"/>
						<path class="st6" d="M163.6,86.2h4.6v1.8h-4.6V86.2z"/>
						<path class="st6" d="M186.5,89.2c0.5,0.5,1.2,0.9,2,0.9c1.4,0,2.6-1.1,2.7-4.2c-0.6,0.8-1.7,1.4-2.6,1.4
							c-2.1,0-3.6-1.3-3.6-3.9c0-2.6,1.8-4.2,3.9-4.2c2.4,0,4.5,1.9,4.5,6.2c0,4.7-2.3,6.8-4.8,6.8c-1.6,0-2.7-0.7-3.4-1.4
							L186.5,89.2z M191.1,84.2c-0.2-2.3-1.1-3.1-2.1-3.1c-0.9,0-1.7,0.8-1.7,2.3c0,1.5,0.7,2.2,1.8,2.2
							C189.7,85.5,190.5,85.1,191.1,84.2z"/>
						<path class="st6" d="M196.5,89.2c0.5,0.5,1.2,0.9,2,0.9c1.4,0,2.6-1.1,2.7-4.2c-0.6,0.8-1.7,1.4-2.6,1.4
							c-2.1,0-3.6-1.3-3.6-3.9c0-2.6,1.8-4.2,3.9-4.2c2.4,0,4.5,1.9,4.5,6.2c0,4.7-2.3,6.8-4.8,6.8c-1.6,0-2.7-0.7-3.4-1.4
							L196.5,89.2z M201.1,84.2c-0.2-2.3-1.1-3.1-2.1-3.1c-0.9,0-1.7,0.8-1.7,2.3c0,1.5,0.7,2.2,1.8,2.2
							C199.7,85.5,200.5,85.1,201.1,84.2z"/>
						<path class="st6" d="M205.4,90.5c0-0.9,0.7-1.6,1.5-1.6c0.9,0,1.6,0.7,1.6,1.6s-0.7,1.6-1.6,1.6
							C206.1,92.1,205.4,91.4,205.4,90.5z"/>
						<path class="st6" d="M210.2,90.4l1.2-1.6c0.7,0.7,1.7,1.3,2.8,1.3c1.3,0,2.1-0.6,2.1-1.7c0-1.2-0.7-2-3.4-2v-1.8
							c2.3,0,3-0.8,3-1.9c0-1-0.6-1.6-1.7-1.6c-0.9,0-1.6,0.4-2.4,1.1l-1.3-1.5c1.1-0.9,2.3-1.5,3.8-1.5c2.4,0,4.1,1.2,4.1,3.3
							c0,1.4-0.8,2.3-2.1,2.9v0.1c1.4,0.4,2.5,1.4,2.5,3.1c0,2.3-2,3.6-4.4,3.6C212.4,92.1,211,91.4,210.2,90.4z"/>
						<path class="st6" d="M227.4,82.1c-0.4-0.5-1.2-0.9-1.9-0.9c-1.4,0-2.6,1.1-2.7,4.2c0.7-0.8,1.8-1.3,2.6-1.3
							c2.1,0,3.6,1.2,3.6,3.9c0,2.6-1.8,4.2-3.9,4.2c-2.4,0-4.5-1.9-4.5-6.3c0-4.7,2.3-6.7,4.8-6.7c1.5,0,2.6,0.6,3.4,1.4
							L227.4,82.1z M226.6,88c0-1.5-0.7-2.2-1.8-2.2c-0.7,0-1.4,0.4-2,1.3c0.2,2.3,1.1,3.2,2.1,3.2C225.9,90.3,226.6,89.5,226.6,88z
							"/>
						<path class="st6" d="M230.4,85.6c0-4.3,1.7-6.4,4.2-6.4c2.5,0,4.2,2.1,4.2,6.4c0,4.3-1.7,6.5-4.2,6.5
							C232,92.1,230.4,89.9,230.4,85.6z M236.5,85.6c0-3.5-0.8-4.5-1.9-4.5c-1.1,0-1.9,1-1.9,4.5c0,3.5,0.8,4.6,1.9,4.6
							C235.7,90.2,236.5,89.1,236.5,85.6z"/>
						<path class="st6" d="M240,90.4l1.1-1.6c0.7,0.7,1.6,1.3,2.8,1.3c1.3,0,2.2-0.8,2.2-2.3c0-1.5-0.8-2.3-2.1-2.3
							c-0.7,0-1.1,0.2-1.9,0.7l-1.1-0.7l0.3-6.1h6.7v2.1h-4.5l-0.2,2.7c0.5-0.2,0.9-0.4,1.5-0.4c2.1,0,3.9,1.2,3.9,4
							c0,2.8-2.1,4.4-4.4,4.4C242.3,92.1,240.9,91.4,240,90.4z"/>
					</g>
				</g>
			</g>
		</g>
		<g class="st7">
			<g>
				<path class="st4" d="M567.6,108h-3.4v1.5h-1.9v-13h5.3V108z M564.2,98.3v3h1.6v-3H564.2z M565.7,106.2V103h-1.6v3.2H565.7z
					 M573.7,99v1.6h3.3v1.7h-1.2v1.3h1.6v1.7h-1.6v3.7c0,1-0.2,1.5-0.9,1.8c-0.6,0.3-1.6,0.3-2.8,0.3c-0.1-0.6-0.4-1.4-0.6-1.9
					c0.8,0,1.7,0,2,0c0.3,0,0.4-0.1,0.4-0.3v-3.6h-5.9v-1.7h5.9v-1.3h-5.4v-1.7h3.3V99h-3.8v-1.8h3.8v-1.8h2v1.8h3.8V99H573.7z
					 M570.3,105.7c0.7,0.8,1.6,2,2,2.7l-1.8,1c-0.4-0.7-1.2-2-1.9-2.8L570.3,105.7z"/>
				<path class="st4" d="M584.9,96.2c-0.4,1-1,2.1-1.6,3.1v11.9h-2.1v-8.9c-0.6,0.7-1.1,1.4-1.8,1.9c-0.2-0.5-0.8-1.6-1.1-2
					c1.8-1.6,3.6-4,4.6-6.6L584.9,96.2z M589.5,102.4c0.5,3.8,1.4,6.2,2.7,6.4c0.4,0,0.6-0.8,0.7-2.7c0.4,0.4,1.3,0.9,1.6,1.1
					c-0.4,3.3-1.3,4-2.3,4c-2.9-0.3-4.2-3.4-4.8-8.6l-3.3,0.5l-0.3-1.9l3.4-0.5c-0.1-1.5-0.2-3.2-0.3-4.9h2c0,1.7,0.1,3.2,0.2,4.7
					l4.8-0.6l0.3,1.9L589.5,102.4z M592.5,99.4c-0.4-0.8-1.4-2-2.3-2.8l1.5-0.9c0.9,0.8,1.9,1.9,2.4,2.7L592.5,99.4z"/>
				<path class="st4" d="M604.4,106.7v0.8h5.6v1.7h-5.6v2h-2v-2h-5.6v-1.7h5.6v-0.8h-6.6V105h6.6v-3.8h-6.2v-1.6h14.4v1.6h-6.3v3.8
					h6.8v1.7H604.4z M599.5,98.2h-3.6v-1.8h3.6v-0.9h2v0.9h1.7v1.8h-1.7v0.9h-2V98.2z M600.2,101.5v0.7h1.6v1.7h-1.6v0.8h-1.9v-0.8
					h-2.1v-1.7h2.1v-0.7H600.2z M605.3,98.2h-1.6v-1.8h1.6v-0.9h2v0.9h3.7v1.8h-3.7v0.9h-2V98.2z M606.7,104.7v-0.9h-1.6v-1.7h1.6
					v-0.6h1.9v0.6h2v1.7h-2v0.9H606.7z"/>
				<path class="st4" d="M614.4,106.8c-0.1,1.5-0.4,3.1-0.7,4.1c-0.3-0.2-1-0.4-1.4-0.5c0.4-1,0.6-2.5,0.6-3.8L614.4,106.8z
					 M617.7,101.9c0.5,1.1,1,2.5,1.1,3.4l-1.4,0.6c0-0.2-0.1-0.5-0.1-0.7c-3.4,0.6-4,0.7-4.3,0.9c-0.1-0.3-0.4-1.2-0.5-1.7
					c0.4-0.1,0.7-0.5,1.3-1.1c0.2-0.2,0.6-0.7,1-1.4c-1.2,0.2-1.6,0.3-1.8,0.4c-0.1-0.4-0.4-1.2-0.5-1.7c0.3-0.1,0.6-0.4,0.9-0.9
					c0.3-0.5,1.3-2.3,1.9-4.1l1.6,0.7c-0.6,1.4-1.4,2.9-2.2,4.1l1.2-0.1c0.4-0.8,0.9-1.6,1.2-2.4l1.5,1c-0.9,1.8-2.2,3.7-3.4,5.2
					l1.9-0.3c-0.2-0.5-0.3-0.9-0.5-1.3L617.7,101.9z M616.1,106.4c0.2,1.1,0.4,2.6,0.4,3.5l-1.4,0.4c0-1-0.2-2.4-0.4-3.5
					L616.1,106.4z M617.8,106c0.4,1,0.8,2.3,0.9,3.2l-1.3,0.5c-0.2-0.9-0.5-2.2-0.9-3.2L617.8,106z M627.7,109.1
					c0,1-0.2,1.5-0.8,1.8c-0.6,0.3-1.5,0.4-2.7,0.4c-0.1-0.6-0.3-1.4-0.6-1.9c0.8,0,1.6,0,1.8,0c0.3,0,0.3-0.1,0.3-0.3v-2.6
					c-0.3,0.4-0.7,1-0.9,1.3c-0.7-0.8-1.2-1.8-1.6-3c-0.5,1.2-1.1,2.3-1.9,3.1c-0.1-0.3-0.3-0.8-0.6-1.2v4.6H619v-12h3.4
					c0-0.5-0.1-1.1-0.1-1.6h-2.4v-1.7h4c0,1.2,0,2.3,0.1,3.4h3.7V109.1z M620.8,105.8c0.9-1,1.5-2.6,1.8-4.4l-0.1-0.3h-1.8V105.8z
					 M624.2,101.1c0.3,2,0.7,3.6,1.6,4.7v-4.7H624.2z"/>
				<path class="st4" d="M630.2,104.4c0-3.4,0.9-6.1,2.5-8.7l1.6,0.7c-1.4,2.5-2.1,5.3-2.1,8.1c0,2.8,0.6,5.6,2.1,8.1l-1.6,0.7
					C631.2,110.6,630.2,107.8,630.2,104.4z"/>
				<path class="st4" d="M640.8,106.9c-0.3-0.5-0.8-1.2-1.2-1.9v6.2h-1.9v-5.9c-0.5,0.6-1,1-1.5,1.5c-0.1-0.6-0.6-1.6-0.8-2
					c1.4-1,2.8-2.8,3.7-4.7h-3.3v-1.8h2.6c-0.3-0.6-0.8-1.4-1.2-2.1l1.5-0.8c0.5,0.7,1.1,1.6,1.4,2.2l-1.1,0.7h1l0.3-0.1l1,0.8
					c-0.5,1.3-1.1,2.6-1.8,3.7v0.2l0.3,0.3c0.4-0.5,0.9-1.1,1.1-1.6l1.2,1.1c-0.6,0.5-1.1,1-1.5,1.4c0.5,0.5,0.9,1.1,1.1,1.3
					L640.8,106.9z M650.9,102.4c-0.5,2.3-1.3,4.1-2.5,5.5c0.9,0.7,2,1.3,3.3,1.6c-0.4,0.4-1,1.2-1.2,1.7c-1.3-0.5-2.4-1.1-3.4-2
					c-1,0.8-2.1,1.5-3.3,2c-0.2-0.5-0.7-1.2-1.1-1.6c1.2-0.4,2.2-1,3.1-1.7c-0.8-1-1.4-2.1-1.9-3.4c-0.2,2.3-0.8,5-2.3,6.8
					c-0.3-0.4-1-1.1-1.4-1.3c1.9-2.1,2-5.3,2-7.6v-4.5h3.5v-2.3h1.9v2.3h2.2l0.3-0.1l1.4,0.3c-0.3,1.3-0.7,2.8-1.1,3.7l-1.7-0.4
					c0.2-0.4,0.3-1,0.4-1.7h-1.6v2.4h1.8l0.3-0.1L650.9,102.4z M644,99.6v2.4h1.7v-2.4H644z M645.4,103.7c0.4,1,1,2,1.6,2.8
					c0.7-0.8,1.2-1.8,1.6-2.8H645.4z"/>
				<path class="st4" d="M658.3,96.1c-0.4,1.1-1,2.2-1.6,3.3v11.8h-1.9v-8.9c-0.5,0.6-0.9,1.1-1.4,1.6c-0.2-0.5-0.7-1.6-1-2
					c1.6-1.5,3.2-3.9,4.1-6.3L658.3,96.1z M668.5,105.4h-2.4v5.8h-2v-5.8h-2.3c-0.2,2.1-1,4.4-3.1,5.9c-0.3-0.4-0.9-1.1-1.4-1.4
					c1.8-1.1,2.4-2.9,2.6-4.5h-2.4v-1.9h2.5v-2.6h-2.1V99h2.5c-0.3-0.8-0.8-1.9-1.3-2.8l1.7-0.7c0.6,0.9,1.2,2.1,1.5,2.9l-1.4,0.6
					h4.3l-1.2-0.5c0.5-0.8,1.1-2.1,1.4-3l2.1,0.7c-0.6,1-1.3,2.1-1.8,2.8h2.5v1.9h-2.1v2.6h2.4V105.4z M664.1,103.5v-2.6h-2.2v2.6
					H664.1z"/>
				<path class="st4" d="M672.8,107.5c-0.4,1.4-1.2,2.9-2,3.8c-0.3-0.3-1.1-0.8-1.5-1c0.8-0.8,1.4-2,1.7-3.2L672.8,107.5z
					 M675.4,107h-5.1V96.1h5.1V107z M673.7,97.7H672v1.6h1.7V97.7z M673.7,100.7H672v1.6h1.7V100.7z M673.7,103.8H672v1.6h1.7V103.8
					z M674.6,107.1c0.6,0.8,1.2,2,1.5,2.7l-1.6,0.8c-0.2-0.8-0.8-2-1.4-2.9L674.6,107.1z M685.2,108.5h-0.8v0.9
					c0,0.8-0.2,1.3-0.7,1.5c-0.6,0.3-1.4,0.3-2.5,0.3c-0.1-0.5-0.3-1.2-0.5-1.6c0.7,0,1.4,0,1.6,0c0.2,0,0.3-0.1,0.3-0.3v-0.9h-4.3
					v2.7h-1.8v-2.7h-0.9v-1.4h0.9v-4.3h3v-0.6h-3.9v-1.4h2.1v-0.7h-1.4v-1.3h1.4v-0.6H676v-1.4h1.8v-1.3h1.8v1.3h1.7v-1.3h1.8v1.3
					h1.8v1.4h-1.8v0.6h1.6v1.3h-1.6v0.7h2.1v1.4h-3.9v0.6h3.1v4.3h0.8V108.5z M678.3,104.3v0.8h1.3v-0.8H678.3z M678.3,107.1h1.3
					v-0.8h-1.3V107.1z M679.6,98.8h1.7v-0.6h-1.7V98.8z M679.6,100.8h1.7v-0.7h-1.7V100.8z M681.3,104.3v0.8h1.3v-0.8H681.3z
					 M682.6,107.1v-0.8h-1.3v0.8H682.6z"/>
				<path class="st4" d="M693.3,100.2c-0.1,0.7-0.1,1.4-0.2,2h7.2c0,0,0,0.6-0.1,0.9c-0.3,4.6-0.7,6.5-1.4,7.2
					c-0.5,0.6-1,0.7-1.8,0.8c-0.7,0.1-1.8,0.1-2.9,0c0-0.6-0.3-1.4-0.7-2c1.1,0.1,2.3,0.1,2.8,0.1c0.4,0,0.6,0,0.8-0.2
					c0.4-0.4,0.7-1.8,1-4.8h-5.3c-0.6,2.8-1.8,5.5-4.9,7.2c-0.3-0.6-0.9-1.2-1.5-1.7c4.1-2.1,4.4-5.9,4.5-9.5h-4.3v-2h7.1
					c-0.3-0.7-0.7-1.5-1-2.2l2-0.7c0.5,0.8,1,1.8,1.2,2.4l-1.2,0.5h6.9v2H693.3z"/>
				<path class="st4" d="M703.6,112.5c1.4-2.5,2.1-5.3,2.1-8.1c0-2.8-0.6-5.6-2.1-8.1l1.5-0.7c1.6,2.6,2.5,5.4,2.5,8.7
					c0,3.4-0.9,6.1-2.5,8.8L703.6,112.5z"/>
				<path class="st4" d="M717,104.3h-3.4v-1.8h3.4V99h1.8v3.6h3.4v1.8h-3.4v3.6H717V104.3z"/>
				<path class="st4" d="M724.3,107.8h2.7v-7.9h-2.3v-1.5c1.2-0.2,2.1-0.6,2.9-1h1.8v10.5h2.3v2h-7.5V107.8z"/>
				<path class="st4" d="M734.1,108.4c0-0.9,0.7-1.6,1.5-1.6c0.9,0,1.6,0.7,1.6,1.6s-0.7,1.6-1.6,1.6
					C734.7,110,734.1,109.3,734.1,108.4z"/>
				<path class="st4" d="M739.2,106.7c0-1.6,1-2.6,2.1-3.3v-0.1c-1-0.7-1.7-1.6-1.7-3c0-2,1.6-3.3,3.8-3.3c2.2,0,3.6,1.3,3.6,3.3
					c0,1.2-0.8,2.3-1.6,2.9v0.1c1.1,0.6,2.1,1.6,2.1,3.3c0,1.9-1.7,3.3-4.2,3.3C740.9,110,739.2,108.6,739.2,106.7z M745.2,106.6
					c0-1.3-1.1-1.8-2.8-2.5c-0.7,0.5-1.1,1.4-1.1,2.3c0,1.1,0.9,1.9,2.1,1.9C744.4,108.3,745.2,107.7,745.2,106.6z M745,100.5
					c0-1-0.6-1.7-1.7-1.7c-0.8,0-1.5,0.6-1.5,1.6c0,1.2,1,1.8,2.3,2.3C744.7,102,745,101.3,745,100.5z"/>
				<path class="st4" d="M748.8,101c0-2.5,1.2-3.9,3-3.9c1.8,0,3.1,1.4,3.1,3.9c0,2.5-1.3,4-3.1,4C750.1,105,748.8,103.5,748.8,101z
					 M753.2,101c0-1.8-0.6-2.5-1.3-2.5c-0.7,0-1.3,0.7-1.3,2.5c0,1.8,0.6,2.6,1.3,2.6C752.6,103.6,753.2,102.8,753.2,101z M759.1,97
					h1.5l-6.8,13h-1.5L759.1,97z M757.9,106c0-2.5,1.3-4,3-4c1.8,0,3.1,1.4,3.1,4c0,2.5-1.3,4-3.1,4
					C759.2,110,757.9,108.5,757.9,106z M762.3,106c0-1.8-0.6-2.6-1.3-2.6c-0.7,0-1.3,0.7-1.3,2.6s0.6,2.6,1.3,2.6
					C761.7,108.6,762.3,107.9,762.3,106z"/>
			</g>
		</g>
		<g>
			<g>
				<path class="st6" d="M613,241.4H609l-0.9,3.2h-2.5l4-12.5h2.9l4,12.5h-2.6L613,241.4z M612.5,239.4l-0.4-1.4
					c-0.4-1.3-0.7-2.7-1.1-4.1h-0.1c-0.3,1.4-0.7,2.8-1.1,4.1l-0.4,1.4H612.5z"/>
				<path class="st6" d="M619.2,234.2h-3.5v-2.1h9.6v2.1h-3.5v10.4h-2.5V234.2z"/>
				<path class="st6" d="M637.2,244.8c-1-0.2-2.1-0.7-3.1-1.3c-1,0.8-2.3,1.3-3.8,1.3c-2.6,0-4.1-1.6-4.1-3.5c0-1.7,1.1-2.8,2.3-3.5
					c-0.5-0.9-0.8-1.9-0.8-2.7c0-1.7,1.3-3.2,3.3-3.2c1.8,0,2.9,1.1,2.9,2.7c0,1.7-1.4,2.7-2.7,3.6c0.7,0.9,1.7,1.8,2.7,2.6
					c0.7-0.9,1.2-1.9,1.5-3.2h2.2c-0.5,1.5-1.1,3-2.1,4.3c0.8,0.5,1.6,0.8,2.2,0.9L637.2,244.8z M630.6,242.9c0.6,0,1.2-0.2,1.8-0.6
					c-1.1-0.9-2-1.9-2.8-2.9c-0.6,0.5-1,1.1-1,1.8C628.6,242.2,629.4,242.9,630.6,242.9z M630.3,236.7c1-0.6,1.7-1.2,1.7-2.1
					c0-0.6-0.3-1.1-0.9-1.1c-0.7,0-1.2,0.6-1.2,1.5C629.8,235.5,630,236.1,630.3,236.7z"/>
				<path class="st6" d="M642.2,234.2h-3.5v-2.1h9.6v2.1h-3.5v10.4h-2.5V234.2z"/>
				<path class="st6" d="M650.2,239.2c0-3.4,0.9-6.1,2.5-8.7l1.6,0.7c-1.4,2.5-2.1,5.3-2.1,8.1c0,2.8,0.6,5.6,2.1,8.1l-1.6,0.7
					C651.1,245.4,650.2,242.6,650.2,239.2z"/>
				<path class="st6" d="M661.3,230.9c-0.4,1.1-1,2.2-1.6,3.3V246h-1.9v-8.9c-0.5,0.6-0.9,1.1-1.4,1.6c-0.2-0.5-0.7-1.6-1-2
					c1.6-1.5,3.2-3.9,4.1-6.3L661.3,230.9z M671.5,240.2h-2.4v5.8h-2v-5.8h-2.3c-0.2,2.1-1,4.4-3.1,5.9c-0.3-0.4-0.9-1.1-1.4-1.4
					c1.8-1.1,2.4-2.9,2.6-4.5h-2.4v-1.9h2.5v-2.6h-2.1v-1.9h2.5c-0.3-0.8-0.8-1.9-1.3-2.8l1.7-0.7c0.6,0.9,1.2,2.1,1.5,2.9l-1.4,0.6
					h4.3l-1.2-0.5c0.5-0.8,1.1-2.1,1.4-3l2.1,0.7c-0.6,1-1.3,2.1-1.8,2.8h2.5v1.9h-2.1v2.6h2.4V240.2z M667.1,238.3v-2.6h-2.2v2.6
					H667.1z"/>
				<path class="st6" d="M675.9,242.3c-0.4,1.4-1.2,2.9-2,3.8c-0.3-0.3-1.1-0.8-1.5-1c0.8-0.8,1.4-2,1.7-3.2L675.9,242.3z
					 M678.5,241.8h-5.1v-10.9h5.1V241.8z M676.7,232.5H675v1.6h1.7V232.5z M676.7,235.5H675v1.6h1.7V235.5z M676.7,238.6H675v1.6
					h1.7V238.6z M677.6,241.9c0.6,0.8,1.2,2,1.5,2.7l-1.6,0.8c-0.2-0.8-0.8-2-1.4-2.9L677.6,241.9z M688.3,243.3h-0.8v0.9
					c0,0.8-0.2,1.3-0.7,1.5c-0.6,0.3-1.4,0.3-2.5,0.3c-0.1-0.5-0.3-1.2-0.5-1.6c0.7,0,1.4,0,1.6,0c0.2,0,0.3-0.1,0.3-0.3v-0.9h-4.3
					v2.7h-1.8v-2.7h-0.9v-1.4h0.9v-4.3h3V237h-3.9v-1.4h2.1V235h-1.4v-1.3h1.4V233h-1.8v-1.4h1.8v-1.3h1.8v1.3h1.7v-1.3h1.8v1.3h1.8
					v1.4h-1.8v0.6h1.6v1.3h-1.6v0.7h2.1v1.4h-3.9v0.6h3.1v4.3h0.8V243.3z M681.4,239.1v0.8h1.3v-0.8H681.4z M681.4,241.9h1.3v-0.8
					h-1.3V241.9z M682.6,233.6h1.7V233h-1.7V233.6z M682.6,235.6h1.7V235h-1.7V235.6z M684.4,239.1v0.8h1.3v-0.8H684.4z
					 M685.7,241.9v-0.8h-1.3v0.8H685.7z"/>
				<path class="st6" d="M696.3,235c-0.1,0.7-0.1,1.4-0.2,2h7.2c0,0,0,0.6-0.1,0.9c-0.3,4.6-0.7,6.5-1.4,7.2c-0.5,0.6-1,0.7-1.8,0.8
					c-0.7,0.1-1.8,0.1-2.9,0c0-0.6-0.3-1.4-0.7-2c1.1,0.1,2.3,0.1,2.8,0.1c0.4,0,0.6,0,0.8-0.2c0.4-0.4,0.7-1.8,1-4.8h-5.3
					c-0.6,2.8-1.8,5.5-4.9,7.2c-0.3-0.6-0.9-1.2-1.5-1.7c4.1-2.1,4.4-5.9,4.5-9.5h-4.3v-2h7.1c-0.3-0.7-0.7-1.5-1-2.2l2-0.7
					c0.5,0.8,1,1.8,1.2,2.4L698,233h6.9v2H696.3z"/>
				<path class="st6" d="M706.7,247.3c1.4-2.5,2.1-5.3,2.1-8.1c0-2.8-0.6-5.6-2.1-8.1l1.5-0.7c1.6,2.6,2.5,5.4,2.5,8.7
					c0,3.4-0.9,6.1-2.5,8.8L706.7,247.3z"/>
				<path class="st6" d="M716.9,238.9h4.6v1.8h-4.6V238.9z"/>
				<path class="st6" d="M730,234.8c-0.4-0.5-1.2-0.9-1.9-0.9c-1.4,0-2.6,1.1-2.7,4.2c0.7-0.8,1.8-1.3,2.6-1.3
					c2.1,0,3.6,1.2,3.6,3.9c0,2.6-1.8,4.2-3.9,4.2c-2.4,0-4.5-1.9-4.5-6.3c0-4.7,2.3-6.7,4.8-6.7c1.5,0,2.6,0.6,3.4,1.4L730,234.8z
					 M729.3,240.6c0-1.5-0.7-2.2-1.8-2.2c-0.7,0-1.4,0.4-2,1.3c0.2,2.3,1.1,3.2,2.1,3.2C728.5,242.9,729.3,242.2,729.3,240.6z"/>
				<path class="st6" d="M733.4,243.2c0-0.9,0.7-1.6,1.5-1.6c0.9,0,1.6,0.7,1.6,1.6s-0.7,1.6-1.6,1.6
					C734.1,244.8,733.4,244.1,733.4,243.2z"/>
				<path class="st6" d="M738.4,243.1c3.4-3,5.4-5.4,5.4-7.3c0-1.3-0.7-2-1.9-2c-0.9,0-1.7,0.6-2.3,1.3l-1.4-1.4
					c1.1-1.2,2.3-1.9,4-1.9c2.4,0,3.9,1.5,3.9,3.9c0,2.3-1.9,4.7-4.2,6.9c0.6-0.1,1.5-0.1,2-0.1h2.7v2.1h-8.4V243.1z"/>
				<path class="st6" d="M748.2,235.8c0-2.5,1.2-3.9,3-3.9c1.8,0,3.1,1.4,3.1,3.9c0,2.5-1.3,4-3.1,4
					C749.5,239.8,748.2,238.3,748.2,235.8z M752.6,235.8c0-1.8-0.6-2.5-1.3-2.5c-0.7,0-1.3,0.7-1.3,2.5c0,1.8,0.6,2.6,1.3,2.6
					C752,238.4,752.6,237.6,752.6,235.8z M758.5,231.8h1.5l-6.8,13h-1.5L758.5,231.8z M757.3,240.8c0-2.5,1.3-4,3-4
					c1.8,0,3.1,1.4,3.1,4c0,2.5-1.3,4-3.1,4C758.6,244.8,757.3,243.3,757.3,240.8z M761.6,240.8c0-1.8-0.6-2.6-1.3-2.6
					c-0.7,0-1.3,0.7-1.3,2.6s0.6,2.6,1.3,2.6C761.1,243.4,761.6,242.7,761.6,240.8z"/>
			</g>
		</g>
		<g>
			<g>
				<path class="st1" d="M773.8,285.3h4v1.3h-4V285.3z"/>
				<path class="st1" d="M778.9,288.9l0.8-1.1c0.6,0.6,1.4,1.2,2.6,1.2c1.2,0,2.2-0.9,2.2-2.4s-0.8-2.3-2.1-2.3
					c-0.7,0-1.1,0.2-1.8,0.6l-0.8-0.6l0.3-5.2h5.6v1.5h-4.1l-0.3,2.8c0.5-0.2,0.9-0.4,1.5-0.4c1.8,0,3.4,1.1,3.4,3.5
					c0,2.4-1.8,3.8-3.7,3.8C780.8,290.4,779.7,289.7,778.9,288.9z"/>
				<path class="st1" d="M788.1,289.2c0-0.7,0.5-1.2,1.2-1.2c0.6,0,1.2,0.5,1.2,1.2s-0.5,1.2-1.2,1.2
					C788.6,290.4,788.1,289.9,788.1,289.2z"/>
				<path class="st1" d="M797.4,280.6h-5.2v-1.5h7.1v1c-2.6,3.2-3,5.7-3.2,10h-1.8C794.6,286.1,795.3,283.6,797.4,280.6z"/>
				<path class="st1" d="M800.7,289.2c3.3-2.9,4.9-5,4.9-6.8c0-1.2-0.6-2-1.9-2c-0.9,0-1.6,0.6-2.2,1.2l-1-1c0.9-1,1.9-1.7,3.4-1.7
					c2,0,3.3,1.3,3.3,3.3c0,2.1-1.7,4.3-4,6.6c0.6-0.1,1.3-0.1,1.8-0.1h2.8v1.5h-7.1V289.2z"/>
				<path class="st1" d="M815.4,281.2c-0.4-0.5-1.1-0.8-1.7-0.8c-1.4,0-2.6,1.1-2.7,4.2c0.6-0.8,1.6-1.3,2.4-1.3
					c1.9,0,3.1,1.1,3.1,3.5c0,2.2-1.5,3.6-3.3,3.6c-2.1,0-3.8-1.8-3.8-5.5c0-4.2,2-5.9,4.2-5.9c1.2,0,2.1,0.5,2.8,1.2L815.4,281.2z
					 M814.9,286.7c0-1.4-0.6-2.2-1.8-2.2c-0.6,0-1.4,0.3-2.1,1.3c0.2,2.2,1,3.2,2.2,3.2C814.1,289,814.9,288.2,814.9,286.7z"/>
				<path class="st1" d="M817.5,288.9l0.8-1.1c0.6,0.6,1.4,1.2,2.6,1.2c1.2,0,2.2-0.9,2.2-2.4s-0.8-2.3-2.1-2.3
					c-0.7,0-1.1,0.2-1.8,0.6l-0.8-0.6l0.3-5.2h5.6v1.5h-4.1l-0.3,2.8c0.5-0.2,0.9-0.4,1.5-0.4c1.8,0,3.4,1.1,3.4,3.5
					c0,2.4-1.8,3.8-3.7,3.8C819.4,290.4,818.3,289.7,817.5,288.9z"/>
				<path class="st1" d="M773.8,303.3h4v1.3h-4V303.3z"/>
				<path class="st1" d="M778.9,306.9l0.8-1.1c0.6,0.6,1.4,1.2,2.6,1.2c1.2,0,2.2-0.9,2.2-2.4s-0.8-2.3-2.1-2.3
					c-0.7,0-1.1,0.2-1.8,0.6l-0.8-0.6l0.3-5.2h5.6v1.5h-4.1l-0.3,2.8c0.5-0.2,0.9-0.4,1.5-0.4c1.8,0,3.4,1.1,3.4,3.5
					c0,2.4-1.8,3.8-3.7,3.8C780.8,308.4,779.7,307.7,778.9,306.9z"/>
				<path class="st1" d="M788.1,307.2c0-0.7,0.5-1.2,1.2-1.2c0.6,0,1.2,0.5,1.2,1.2s-0.5,1.2-1.2,1.2
					C788.6,308.4,788.1,307.9,788.1,307.2z"/>
				<path class="st1" d="M797.4,298.6h-5.2v-1.5h7.1v1c-2.6,3.2-3,5.7-3.2,10h-1.8C794.6,304.1,795.3,301.6,797.4,298.6z"/>
				<path class="st1" d="M806.8,299.2c-0.4-0.5-1.1-0.8-1.7-0.8c-1.4,0-2.6,1.1-2.7,4.2c0.6-0.8,1.6-1.3,2.4-1.3
					c1.9,0,3.1,1.1,3.1,3.5c0,2.2-1.5,3.6-3.3,3.6c-2.1,0-3.8-1.8-3.8-5.5c0-4.2,2-5.9,4.2-5.9c1.2,0,2.1,0.5,2.8,1.2L806.8,299.2z
					 M806.3,304.7c0-1.4-0.6-2.2-1.8-2.2c-0.6,0-1.4,0.3-2.1,1.3c0.2,2.2,1,3.2,2.2,3.2C805.6,307,806.3,306.2,806.3,304.7z"/>
				<path class="st1" d="M809.1,300.4c0-2.2,1-3.5,2.6-3.5s2.6,1.3,2.6,3.5c0,2.2-1,3.5-2.6,3.5S809.1,302.6,809.1,300.4z
					 M813,300.4c0-1.7-0.6-2.5-1.3-2.5c-0.8,0-1.3,0.8-1.3,2.5c0,1.7,0.6,2.5,1.3,2.5C812.5,302.9,813,302.1,813,300.4z
					 M818.1,296.9h1.1l-6.1,11.4h-1.1L818.1,296.9z M817,304.9c0-2.2,1-3.5,2.6-3.5c1.5,0,2.6,1.3,2.6,3.5s-1,3.5-2.6,3.5
					C818,308.4,817,307.1,817,304.9z M820.9,304.9c0-1.7-0.6-2.5-1.3-2.5c-0.8,0-1.3,0.8-1.3,2.5c0,1.7,0.6,2.5,1.3,2.5
					C820.3,307.4,820.9,306.6,820.9,304.9z"/>
			</g>
		</g>
		<g>
			<g>
				<path class="st1" d="M543.6,378.8h1.9v-5.6h-1.6v-1.1c0.9-0.2,1.5-0.4,2.1-0.7h1.3v7.4h1.7v1.4h-5.3V378.8z"/>
				<path class="st1" d="M550,379.1l0.8-1.1c0.5,0.5,1.2,0.9,2,0.9c0.9,0,1.5-0.4,1.5-1.2c0-0.9-0.5-1.4-2.4-1.4V375
					c1.6,0,2.2-0.6,2.2-1.4c0-0.7-0.4-1.1-1.2-1.1c-0.6,0-1.2,0.3-1.7,0.8l-0.9-1.1c0.8-0.7,1.6-1.1,2.7-1.1c1.7,0,2.9,0.8,2.9,2.4
					c0,1-0.5,1.7-1.5,2v0.1c1,0.3,1.8,1,1.8,2.2c0,1.6-1.4,2.6-3.1,2.6C551.6,380.4,550.6,379.8,550,379.1z"/>
				<path class="st1" d="M567.7,373.2c-0.3-0.4-0.9-0.6-1.4-0.6c-1,0-1.9,0.8-1.9,3c0.5-0.6,1.2-0.9,1.8-0.9c1.5,0,2.5,0.9,2.5,2.8
					c0,1.8-1.3,3-2.8,3c-1.7,0-3.2-1.4-3.2-4.5c0-3.3,1.6-4.7,3.4-4.7c1.1,0,1.9,0.5,2.4,1L567.7,373.2z M567.2,377.4
					c0-1.1-0.5-1.5-1.3-1.5c-0.5,0-1,0.3-1.5,0.9c0.2,1.6,0.8,2.2,1.5,2.2C566.6,379,567.2,378.5,567.2,377.4z"/>
				<path class="st1" d="M579.3,379.4c0,0.9-0.2,1.3-0.8,1.5c-0.6,0.3-1.4,0.3-2.7,0.3c-0.1-0.4-0.4-1.1-0.6-1.5c0.8,0,1.8,0,2.1,0
					c0.3,0,0.4-0.1,0.4-0.3v-1.7h-5.1c-0.3,1.3-0.9,2.7-2,3.6c-0.2-0.3-0.8-0.8-1.1-1c1.8-1.5,2-3.8,2-5.7v-3.9h7.8V379.4z
					 M577.8,376.3v-1.5H573c0,0.5,0,1-0.1,1.5H577.8z M573,372v1.5h4.8V372H573z"/>
				<path class="st1" d="M584.5,379.2c2.4-2.2,3.8-3.8,3.8-5.2c0-0.9-0.5-1.4-1.3-1.4c-0.6,0-1.2,0.4-1.6,0.9l-1-1
					c0.8-0.9,1.6-1.3,2.8-1.3c1.7,0,2.8,1.1,2.8,2.7c0,1.6-1.3,3.3-3,4.9c0.4,0,1-0.1,1.4-0.1h1.9v1.5h-5.9V379.2z"/>
				<path class="st1" d="M591.6,375.7c0-3.1,1.2-4.6,3-4.6c1.8,0,3,1.5,3,4.6c0,3.1-1.2,4.6-3,4.6
					C592.8,380.4,591.6,378.8,591.6,375.7z M595.9,375.7c0-2.5-0.6-3.2-1.3-3.2c-0.8,0-1.3,0.7-1.3,3.2c0,2.5,0.6,3.3,1.3,3.3
					C595.4,379,595.9,378.2,595.9,375.7z"/>
				<path class="st1" d="M599.1,378.8h1.9v-5.6h-1.6v-1.1c0.9-0.2,1.5-0.4,2.1-0.7h1.3v7.4h1.7v1.4h-5.3V378.8z"/>
				<path class="st1" d="M605.8,378c0-1.1,0.7-1.9,1.5-2.3v-0.1c-0.7-0.5-1.2-1.2-1.2-2.1c0-1.4,1.1-2.3,2.7-2.3
					c1.6,0,2.6,0.9,2.6,2.4c0,0.9-0.6,1.6-1.1,2v0.1c0.8,0.4,1.5,1.2,1.5,2.4c0,1.3-1.2,2.4-3,2.4C607,380.4,605.8,379.4,605.8,378z
					 M610.1,377.9c0-0.9-0.8-1.3-2-1.8c-0.5,0.4-0.8,1-0.8,1.6c0,0.8,0.7,1.3,1.5,1.3C609.5,379.1,610.1,378.7,610.1,377.9z
					 M609.9,373.6c0-0.7-0.4-1.2-1.2-1.2c-0.6,0-1.1,0.4-1.1,1.1c0,0.8,0.7,1.2,1.6,1.6C609.7,374.7,609.9,374.2,609.9,373.6z"/>
			</g>
		</g>
		<g>
			<g>
				<path class="st1" d="M160.4,378.8h1.9v-5.6h-1.6v-1.1c0.9-0.2,1.5-0.4,2.1-0.7h1.3v7.4h1.7v1.4h-5.3V378.8z"/>
				<path class="st1" d="M167,379.2c2.4-2.2,3.8-3.8,3.8-5.2c0-0.9-0.5-1.4-1.3-1.4c-0.6,0-1.2,0.4-1.6,0.9l-1-1
					c0.8-0.9,1.6-1.3,2.8-1.3c1.7,0,2.8,1.1,2.8,2.7c0,1.6-1.3,3.3-3,4.9c0.4,0,1-0.1,1.4-0.1h1.9v1.5H167V379.2z"/>
				<path class="st1" d="M184.5,373.2c-0.3-0.4-0.9-0.6-1.4-0.6c-1,0-1.9,0.8-1.9,3c0.5-0.6,1.2-0.9,1.8-0.9c1.5,0,2.5,0.9,2.5,2.8
					c0,1.8-1.3,3-2.8,3c-1.7,0-3.2-1.4-3.2-4.5c0-3.3,1.6-4.7,3.4-4.7c1.1,0,1.9,0.5,2.4,1L184.5,373.2z M183.9,377.4
					c0-1.1-0.5-1.5-1.3-1.5c-0.5,0-1,0.3-1.5,0.9c0.2,1.6,0.8,2.2,1.5,2.2C183.4,379,183.9,378.5,183.9,377.4z"/>
				<path class="st1" d="M196.1,379.4c0,0.9-0.2,1.3-0.8,1.5c-0.6,0.3-1.4,0.3-2.7,0.3c-0.1-0.4-0.4-1.1-0.6-1.5c0.8,0,1.8,0,2.1,0
					c0.3,0,0.4-0.1,0.4-0.3v-1.7h-5.1c-0.3,1.3-0.9,2.7-2,3.6c-0.2-0.3-0.8-0.8-1.1-1c1.8-1.5,2-3.8,2-5.7v-3.9h7.8V379.4z
					 M194.6,376.3v-1.5h-4.8c0,0.5,0,1-0.1,1.5H194.6z M189.8,372v1.5h4.8V372H189.8z"/>
				<path class="st1" d="M201.3,379.2c2.4-2.2,3.8-3.8,3.8-5.2c0-0.9-0.5-1.4-1.3-1.4c-0.6,0-1.2,0.4-1.6,0.9l-1-1
					c0.8-0.9,1.6-1.3,2.8-1.3c1.7,0,2.8,1.1,2.8,2.7c0,1.6-1.3,3.3-3,4.9c0.4,0,1-0.1,1.4-0.1h1.9v1.5h-5.9V379.2z"/>
				<path class="st1" d="M208.3,375.7c0-3.1,1.2-4.6,3-4.6c1.8,0,3,1.5,3,4.6c0,3.1-1.2,4.6-3,4.6
					C209.5,380.4,208.3,378.8,208.3,375.7z M212.7,375.7c0-2.5-0.6-3.2-1.3-3.2c-0.8,0-1.3,0.7-1.3,3.2c0,2.5,0.6,3.3,1.3,3.3
					C212.1,379,212.7,378.2,212.7,375.7z"/>
				<path class="st1" d="M215.9,378.8h1.9v-5.6h-1.6v-1.1c0.9-0.2,1.5-0.4,2.1-0.7h1.3v7.4h1.7v1.4h-5.3V378.8z"/>
				<path class="st1" d="M222.5,378c0-1.1,0.7-1.9,1.5-2.3v-0.1c-0.7-0.5-1.2-1.2-1.2-2.1c0-1.4,1.1-2.3,2.7-2.3
					c1.6,0,2.6,0.9,2.6,2.4c0,0.9-0.6,1.6-1.1,2v0.1c0.8,0.4,1.5,1.2,1.5,2.4c0,1.3-1.2,2.4-3,2.4
					C223.8,380.4,222.5,379.4,222.5,378z M226.8,377.9c0-0.9-0.8-1.3-2-1.8c-0.5,0.4-0.8,1-0.8,1.6c0,0.8,0.7,1.3,1.5,1.3
					C226.3,379.1,226.8,378.7,226.8,377.9z M226.7,373.6c0-0.7-0.4-1.2-1.2-1.2c-0.6,0-1.1,0.4-1.1,1.1c0,0.8,0.7,1.2,1.6,1.6
					C226.5,374.7,226.7,374.2,226.7,373.6z"/>
			</g>
		</g>
		<g>
			<g>
				<g>
					<path class="st1" d="M753.5,357.7c0-3.1,1.1-4.5,2.9-4.5c1.7,0,2.9,1.5,2.9,4.5c0,3.1-1.1,4.6-2.9,4.6
						C754.7,362.4,753.5,360.8,753.5,357.7z M757.9,357.7c0-2.5-0.6-3.5-1.5-3.5s-1.5,0.9-1.5,3.5c0,2.6,0.6,3.5,1.5,3.5
						S757.9,360.3,757.9,357.7z"/>
					<path class="st1" d="M766.3,359.8h-1.1v2.4h-1.3v-2.4h-3.8v-0.9l3.5-5.5h1.6v5.4h1.1V359.8z M763.9,358.8v-2.3
						c0-0.5,0-1.2,0.1-1.7h0c-0.2,0.4-0.5,0.9-0.7,1.4l-1.7,2.7H763.9z"/>
					<path class="st1" d="M767.5,356.7c0-0.6,0.4-1,0.9-1s0.9,0.4,0.9,1c0,0.6-0.4,1-0.9,1S767.5,357.2,767.5,356.7z M767.5,361.4
						c0-0.6,0.4-1,0.9-1s0.9,0.4,0.9,1c0,0.6-0.4,1-0.9,1S767.5,362,767.5,361.4z"/>
					<path class="st1" d="M770.8,357.7c0-3.1,1.1-4.5,2.9-4.5c1.7,0,2.9,1.5,2.9,4.5c0,3.1-1.1,4.6-2.9,4.6
						C771.9,362.4,770.8,360.8,770.8,357.7z M775.2,357.7c0-2.5-0.6-3.5-1.5-3.5s-1.5,0.9-1.5,3.5c0,2.6,0.6,3.5,1.5,3.5
						S775.2,360.3,775.2,357.7z"/>
					<path class="st1" d="M777.6,357.7c0-3.1,1.1-4.5,2.9-4.5c1.7,0,2.9,1.5,2.9,4.5c0,3.1-1.1,4.6-2.9,4.6
						C778.8,362.4,777.6,360.8,777.6,357.7z M782,357.7c0-2.5-0.6-3.5-1.5-3.5s-1.5,0.9-1.5,3.5c0,2.6,0.6,3.5,1.5,3.5
						S782,360.3,782,357.7z"/>
				</g>
			</g>
			<g>
				<g>
					<path class="st1" d="M635.5,357.7c0-3.1,1.1-4.5,2.9-4.5c1.7,0,2.9,1.5,2.9,4.5c0,3.1-1.1,4.6-2.9,4.6
						C636.7,362.4,635.5,360.8,635.5,357.7z M639.9,357.7c0-2.5-0.6-3.5-1.5-3.5s-1.5,0.9-1.5,3.5c0,2.6,0.6,3.5,1.5,3.5
						S639.9,360.3,639.9,357.7z"/>
					<path class="st1" d="M642.3,361.4c2.6-2.3,3.9-4,3.9-5.5c0-1-0.5-1.6-1.5-1.6c-0.7,0-1.3,0.4-1.7,1l-0.8-0.8
						c0.8-0.8,1.5-1.3,2.7-1.3c1.6,0,2.7,1.1,2.7,2.7c0,1.7-1.4,3.5-3.2,5.3c0.5,0,1-0.1,1.4-0.1h2.2v1.2h-5.7V361.4z"/>
					<path class="st1" d="M649.5,356.7c0-0.6,0.4-1,0.9-1s0.9,0.4,0.9,1c0,0.6-0.4,1-0.9,1S649.5,357.2,649.5,356.7z M649.5,361.4
						c0-0.6,0.4-1,0.9-1s0.9,0.4,0.9,1c0,0.6-0.4,1-0.9,1S649.5,362,649.5,361.4z"/>
					<path class="st1" d="M652.8,357.7c0-3.1,1.1-4.5,2.9-4.5c1.7,0,2.9,1.5,2.9,4.5c0,3.1-1.1,4.6-2.9,4.6
						C653.9,362.4,652.8,360.8,652.8,357.7z M657.2,357.7c0-2.5-0.6-3.5-1.5-3.5s-1.5,0.9-1.5,3.5c0,2.6,0.6,3.5,1.5,3.5
						S657.2,360.3,657.2,357.7z"/>
					<path class="st1" d="M659.6,357.7c0-3.1,1.1-4.5,2.9-4.5c1.7,0,2.9,1.5,2.9,4.5c0,3.1-1.1,4.6-2.9,4.6
						C660.8,362.4,659.6,360.8,659.6,357.7z M664,357.7c0-2.5-0.6-3.5-1.5-3.5s-1.5,0.9-1.5,3.5c0,2.6,0.6,3.5,1.5,3.5
						S664,360.3,664,357.7z"/>
				</g>
			</g>
			<g>
				<g>
					<path class="st1" d="M517.5,357.7c0-3.1,1.1-4.5,2.9-4.5c1.7,0,2.9,1.5,2.9,4.5c0,3.1-1.1,4.6-2.9,4.6
						C518.7,362.4,517.5,360.8,517.5,357.7z M521.9,357.7c0-2.5-0.6-3.5-1.5-3.5s-1.5,0.9-1.5,3.5c0,2.6,0.6,3.5,1.5,3.5
						S521.9,360.3,521.9,357.7z"/>
					<path class="st1" d="M524.4,357.7c0-3.1,1.1-4.5,2.9-4.5c1.7,0,2.9,1.5,2.9,4.5c0,3.1-1.1,4.6-2.9,4.6
						C525.5,362.4,524.4,360.8,524.4,357.7z M528.8,357.7c0-2.5-0.6-3.5-1.5-3.5s-1.5,0.9-1.5,3.5c0,2.6,0.6,3.5,1.5,3.5
						S528.8,360.3,528.8,357.7z"/>
					<path class="st1" d="M531.5,356.7c0-0.6,0.4-1,0.9-1s0.9,0.4,0.9,1c0,0.6-0.4,1-0.9,1S531.5,357.2,531.5,356.7z M531.5,361.4
						c0-0.6,0.4-1,0.9-1s0.9,0.4,0.9,1c0,0.6-0.4,1-0.9,1S531.5,362,531.5,361.4z"/>
					<path class="st1" d="M534.8,357.7c0-3.1,1.1-4.5,2.9-4.5c1.7,0,2.9,1.5,2.9,4.5c0,3.1-1.1,4.6-2.9,4.6
						C535.9,362.4,534.8,360.8,534.8,357.7z M539.2,357.7c0-2.5-0.6-3.5-1.5-3.5s-1.5,0.9-1.5,3.5c0,2.6,0.6,3.5,1.5,3.5
						S539.2,360.3,539.2,357.7z"/>
					<path class="st1" d="M541.6,357.7c0-3.1,1.1-4.5,2.9-4.5c1.7,0,2.9,1.5,2.9,4.5c0,3.1-1.1,4.6-2.9,4.6
						C542.8,362.4,541.6,360.8,541.6,357.7z M546,357.7c0-2.5-0.6-3.5-1.5-3.5s-1.5,0.9-1.5,3.5c0,2.6,0.6,3.5,1.5,3.5
						S546,360.3,546,357.7z"/>
				</g>
			</g>
			<g>
				<g>
					<path class="st1" d="M399,361.4c2.6-2.3,3.9-4,3.9-5.5c0-1-0.5-1.6-1.5-1.6c-0.7,0-1.3,0.4-1.7,1l-0.8-0.8
						c0.8-0.8,1.5-1.3,2.7-1.3c1.6,0,2.7,1.1,2.7,2.7c0,1.7-1.4,3.5-3.2,5.3c0.5,0,1-0.1,1.4-0.1h2.2v1.2H399V361.4z"/>
					<path class="st1" d="M405.8,361.4c2.6-2.3,3.9-4,3.9-5.5c0-1-0.5-1.6-1.5-1.6c-0.7,0-1.3,0.4-1.7,1l-0.8-0.8
						c0.8-0.8,1.5-1.3,2.7-1.3c1.6,0,2.7,1.1,2.7,2.7c0,1.7-1.4,3.5-3.2,5.3c0.5,0,1-0.1,1.4-0.1h2.2v1.2h-5.7V361.4z"/>
					<path class="st1" d="M413,356.7c0-0.6,0.4-1,0.9-1s0.9,0.4,0.9,1c0,0.6-0.4,1-0.9,1S413,357.2,413,356.7z M413,361.4
						c0-0.6,0.4-1,0.9-1s0.9,0.4,0.9,1c0,0.6-0.4,1-0.9,1S413,362,413,361.4z"/>
					<path class="st1" d="M416.3,357.7c0-3.1,1.1-4.5,2.9-4.5c1.7,0,2.9,1.5,2.9,4.5c0,3.1-1.1,4.6-2.9,4.6
						C417.4,362.4,416.3,360.8,416.3,357.7z M420.7,357.7c0-2.5-0.6-3.5-1.5-3.5s-1.5,0.9-1.5,3.5c0,2.6,0.6,3.5,1.5,3.5
						S420.7,360.3,420.7,357.7z"/>
					<path class="st1" d="M423.1,357.7c0-3.1,1.1-4.5,2.9-4.5c1.7,0,2.9,1.5,2.9,4.5c0,3.1-1.1,4.6-2.9,4.6
						C424.3,362.4,423.1,360.8,423.1,357.7z M427.5,357.7c0-2.5-0.6-3.5-1.5-3.5s-1.5,0.9-1.5,3.5c0,2.6,0.6,3.5,1.5,3.5
						S427.5,360.3,427.5,357.7z"/>
				</g>
			</g>
			<g>
				<g>
					<path class="st1" d="M251.5,357.7c0-3.1,1.1-4.5,2.9-4.5c1.7,0,2.9,1.5,2.9,4.5c0,3.1-1.1,4.6-2.9,4.6
						C252.7,362.4,251.5,360.8,251.5,357.7z M255.9,357.7c0-2.5-0.6-3.5-1.5-3.5s-1.5,0.9-1.5,3.5c0,2.6,0.6,3.5,1.5,3.5
						S255.9,360.3,255.9,357.7z"/>
					<path class="st1" d="M258.3,361.4c2.6-2.3,3.9-4,3.9-5.5c0-1-0.5-1.6-1.5-1.6c-0.7,0-1.3,0.4-1.7,1l-0.8-0.8
						c0.8-0.8,1.5-1.3,2.7-1.3c1.6,0,2.7,1.1,2.7,2.7c0,1.7-1.4,3.5-3.2,5.3c0.5,0,1-0.1,1.4-0.1h2.2v1.2h-5.7V361.4z"/>
					<path class="st1" d="M265.5,356.7c0-0.6,0.4-1,0.9-1s0.9,0.4,0.9,1c0,0.6-0.4,1-0.9,1S265.5,357.2,265.5,356.7z M265.5,361.4
						c0-0.6,0.4-1,0.9-1s0.9,0.4,0.9,1c0,0.6-0.4,1-0.9,1S265.5,362,265.5,361.4z"/>
					<path class="st1" d="M268.8,357.7c0-3.1,1.1-4.5,2.9-4.5c1.7,0,2.9,1.5,2.9,4.5c0,3.1-1.1,4.6-2.9,4.6
						C269.9,362.4,268.8,360.8,268.8,357.7z M273.2,357.7c0-2.5-0.6-3.5-1.5-3.5s-1.5,0.9-1.5,3.5c0,2.6,0.6,3.5,1.5,3.5
						S273.2,360.3,273.2,357.7z"/>
					<path class="st1" d="M275.6,357.7c0-3.1,1.1-4.5,2.9-4.5c1.7,0,2.9,1.5,2.9,4.5c0,3.1-1.1,4.6-2.9,4.6
						C276.8,362.4,275.6,360.8,275.6,357.7z M280,357.7c0-2.5-0.6-3.5-1.5-3.5s-1.5,0.9-1.5,3.5c0,2.6,0.6,3.5,1.5,3.5
						S280,360.3,280,357.7z"/>
				</g>
			</g>
			<g>
				<g>
					<path class="st1" d="M133.5,357.7c0-3.1,1.1-4.5,2.9-4.5c1.7,0,2.9,1.5,2.9,4.5c0,3.1-1.1,4.6-2.9,4.6
						C134.7,362.4,133.5,360.8,133.5,357.7z M137.9,357.7c0-2.5-0.6-3.5-1.5-3.5s-1.5,0.9-1.5,3.5c0,2.6,0.6,3.5,1.5,3.5
						S137.9,360.3,137.9,357.7z"/>
					<path class="st1" d="M140.4,357.7c0-3.1,1.1-4.5,2.9-4.5c1.7,0,2.9,1.5,2.9,4.5c0,3.1-1.1,4.6-2.9,4.6
						C141.5,362.4,140.4,360.8,140.4,357.7z M144.8,357.7c0-2.5-0.6-3.5-1.5-3.5s-1.5,0.9-1.5,3.5c0,2.6,0.6,3.5,1.5,3.5
						S144.8,360.3,144.8,357.7z"/>
					<path class="st1" d="M147.5,356.7c0-0.6,0.4-1,0.9-1s0.9,0.4,0.9,1c0,0.6-0.4,1-0.9,1S147.5,357.2,147.5,356.7z M147.5,361.4
						c0-0.6,0.4-1,0.9-1s0.9,0.4,0.9,1c0,0.6-0.4,1-0.9,1S147.5,362,147.5,361.4z"/>
					<path class="st1" d="M150.8,357.7c0-3.1,1.1-4.5,2.9-4.5c1.7,0,2.9,1.5,2.9,4.5c0,3.1-1.1,4.6-2.9,4.6
						C151.9,362.4,150.8,360.8,150.8,357.7z M155.2,357.7c0-2.5-0.6-3.5-1.5-3.5s-1.5,0.9-1.5,3.5c0,2.6,0.6,3.5,1.5,3.5
						S155.2,360.3,155.2,357.7z"/>
					<path class="st1" d="M157.6,357.7c0-3.1,1.1-4.5,2.9-4.5c1.7,0,2.9,1.5,2.9,4.5c0,3.1-1.1,4.6-2.9,4.6
						C158.8,362.4,157.6,360.8,157.6,357.7z M162,357.7c0-2.5-0.6-3.5-1.5-3.5s-1.5,0.9-1.5,3.5c0,2.6,0.6,3.5,1.5,3.5
						S162,360.3,162,357.7z"/>
				</g>
			</g>
			<g>
				<g>
					<path class="st1" d="M15.5,361.4c2.6-2.3,3.9-4,3.9-5.5c0-1-0.5-1.6-1.5-1.6c-0.7,0-1.3,0.4-1.7,1l-0.8-0.8
						c0.8-0.8,1.5-1.3,2.7-1.3c1.6,0,2.7,1.1,2.7,2.7c0,1.7-1.4,3.5-3.2,5.3c0.5,0,1-0.1,1.4-0.1h2.2v1.2h-5.7V361.4z"/>
					<path class="st1" d="M22.3,361.4c2.6-2.3,3.9-4,3.9-5.5c0-1-0.5-1.6-1.5-1.6c-0.7,0-1.3,0.4-1.7,1l-0.8-0.8
						c0.8-0.8,1.5-1.3,2.7-1.3c1.6,0,2.7,1.1,2.7,2.7c0,1.7-1.4,3.5-3.2,5.3c0.5,0,1-0.1,1.4-0.1H28v1.2h-5.7V361.4z"/>
					<path class="st1" d="M29.5,356.7c0-0.6,0.4-1,0.9-1s0.9,0.4,0.9,1c0,0.6-0.4,1-0.9,1S29.5,357.2,29.5,356.7z M29.5,361.4
						c0-0.6,0.4-1,0.9-1s0.9,0.4,0.9,1c0,0.6-0.4,1-0.9,1S29.5,362,29.5,361.4z"/>
					<path class="st1" d="M32.8,357.7c0-3.1,1.1-4.5,2.9-4.5c1.7,0,2.9,1.5,2.9,4.5c0,3.1-1.1,4.6-2.9,4.6
						C33.9,362.4,32.8,360.8,32.8,357.7z M37.2,357.7c0-2.5-0.6-3.5-1.5-3.5s-1.5,0.9-1.5,3.5c0,2.6,0.6,3.5,1.5,3.5
						S37.2,360.3,37.2,357.7z"/>
					<path class="st1" d="M39.6,357.7c0-3.1,1.1-4.5,2.9-4.5c1.7,0,2.9,1.5,2.9,4.5c0,3.1-1.1,4.6-2.9,4.6
						C40.8,362.4,39.6,360.8,39.6,357.7z M44,357.7c0-2.5-0.6-3.5-1.5-3.5s-1.5,0.9-1.5,3.5c0,2.6,0.6,3.5,1.5,3.5
						S44,360.3,44,357.7z"/>
				</g>
			</g>
		</g>
		<line class="st8" x1="765.6" y1="315.1" x2="833.9" y2="315.1"/>
		<line class="st9" x1="383.1" y1="368" x2="383.1" y2="383"/>
		<g class="st7">
			<path class="st1" d="M401.1,137.1c0-0.2,0.1-0.4,0.2-0.6c0.2-0.2,0.3-0.2,0.6-0.2s0.4,0.1,0.6,0.2l2.8,2.8
				c0.2,0.2,0.2,0.3,0.2,0.6s-0.1,0.4-0.2,0.6l-2.8,2.8c-0.2,0.2-0.3,0.2-0.6,0.2s-0.4-0.1-0.6-0.2c-0.2-0.2-0.2-0.3-0.2-0.6v-1.5
				h-10c-0.1,0-0.2,0-0.3-0.1c-0.1-0.1-0.1-0.2-0.1-0.3V139c0-0.1,0-0.2,0.1-0.3c0.1-0.1,0.2-0.1,0.3-0.1h10V137.1z"/>
			<path class="st1" d="M416.9,135.9c-0.5-0.6-1.2-0.9-2-0.9c-1.7,0-3.1,1.3-3.2,5.2c0.8-0.9,1.8-1.5,2.8-1.5c2.1,0,3.4,1.3,3.4,3.9
				c0,2.4-1.6,4-3.5,4c-2.4,0-4.1-2-4.1-6.1c0-4.8,2.2-6.7,4.6-6.7c1.3,0,2.2,0.5,2.9,1.3L416.9,135.9z M416.5,142.5
				c0-1.7-0.7-2.7-2.2-2.7c-0.8,0-1.7,0.4-2.5,1.6c0.2,2.6,1.1,4,2.7,4C415.6,145.3,416.5,144.2,416.5,142.5z"/>
			<path class="st1" d="M424,132.9h1.1l-5.1,16.4h-1.1L424,132.9z"/>
			<path class="st1" d="M426.8,145h2.8v-9.2h-2.2v-1c1.1-0.2,1.9-0.5,2.6-0.9h1.2V145h2.5v1.3h-6.8V145z"/>
			<path class="st1" d="M435.2,144.8l0.8-1c0.7,0.8,1.7,1.4,3.1,1.4c1.5,0,2.5-0.9,2.5-2.3c0-1.5-1-2.5-3.9-2.5v-1.2
				c2.6,0,3.4-1,3.4-2.4c0-1.2-0.8-2-2.1-2c-1,0-1.9,0.5-2.6,1.2l-0.8-1c0.9-0.9,2-1.5,3.5-1.5c2.1,0,3.6,1.1,3.6,3.1
				c0,1.5-0.9,2.5-2.2,3v0.1c1.5,0.3,2.6,1.5,2.6,3.1c0,2.2-1.8,3.5-4,3.5C437.2,146.5,436,145.7,435.2,144.8z"/>
			<path class="st1" d="M459.7,134.8v3.5h-1.2v-2.4h-11.7v2.4h-1.2v-3.5h2.7c-0.3-0.6-0.8-1.4-1.3-1.9l1.1-0.5
				c0.6,0.6,1.2,1.5,1.5,2.1l-0.6,0.3h3v-2.6h1.2v2.6h2.8l-0.5-0.2c0.5-0.6,1.1-1.6,1.5-2.2l1.3,0.4c-0.5,0.7-1,1.4-1.5,2H459.7z
				 M446.7,141.6h12v6h-1.2v-0.4h-9.5v0.5h-1.2V141.6z M447.9,142.5v1.4h4.1v-1.4H447.9z M452,146.2v-1.4h-4.1v1.4H452z M457,137.1
				v3.5h-8.8v-3.5H457z M455.8,138h-6.4v1.6h6.4V138z M457.4,142.5h-4.3v1.4h4.3V142.5z M457.4,146.2v-1.4h-4.3v1.4H457.4z"/>
			<path class="st1" d="M475,133.3v14h-1.3v-1h-8.4v1.1H464v-14.1H475z M465.3,134.6v4.6h8.4v-4.6H465.3z M473.7,145.1v-4.7h-8.4
				v4.7H473.7z"/>
			<path class="st1" d="M484.4,146c0,0.7-0.1,1-0.5,1.2c-0.4,0.2-1,0.2-2.1,0.2c-0.1-0.3-0.2-0.8-0.4-1.2c0.7,0,1.4,0,1.6,0
				c0.2,0,0.3-0.1,0.3-0.3v-4.6c-0.7,0.4-1.4,0.8-2,1.2l-0.5-1c-0.1,2.1-0.5,4.3-1.2,6c-0.2-0.2-0.7-0.5-1-0.6
				c1.1-2.4,1.2-5.7,1.2-8.2v-6h4.7V146z M480.9,138.8c0,0.8,0,1.7-0.1,2.6c0.7-0.3,1.6-0.7,2.5-1.1v-1.9l-0.6,0.5
				c-0.4-0.5-1.1-1.4-1.8-2V138.8z M480.9,133.9v2.6l0.6-0.4c0.7,0.6,1.4,1.4,1.8,1.9v-4.1H480.9z M493.4,139.9
				c-0.6,2.1-1.7,3.7-3.1,4.9c1.1,0.8,2.3,1.3,3.7,1.7c-0.3,0.3-0.6,0.8-0.8,1.1c-1.5-0.4-2.8-1.1-3.9-2c-1.2,0.9-2.6,1.5-4,2
				c-0.1-0.3-0.4-0.8-0.7-1.1c1.3-0.4,2.6-0.9,3.8-1.7c-1.1-1.1-1.9-2.4-2.5-3.9l0.2-0.1h-0.9v-1.2h7.1l0.2-0.1L493.4,139.9z
				 M488.1,134.7c0,1.5-0.5,3.3-2.5,4.5c-0.2-0.3-0.6-0.7-0.8-0.9c1.8-1,2.1-2.4,2.1-3.6v-1.9h5.1v3.9c0,0.5,0,0.6,0.3,0.6h0.9
				c0.2,0,0.5,0,0.7-0.1c0,0.3,0.1,0.8,0.1,1c-0.2,0.1-0.5,0.1-0.8,0.1h-1c-1.1,0-1.4-0.5-1.4-1.7V134h-2.8V134.7z M487.1,140.8
				c0.5,1.2,1.3,2.3,2.3,3.3c1-0.9,1.9-2,2.4-3.3H487.1z"/>
			<path class="st1" d="M499.9,132.6c-0.4,1.1-0.8,2.2-1.3,3.3v11.7h-1.2v-9.5c-0.5,0.8-1,1.6-1.6,2.3c-0.1-0.3-0.5-1-0.7-1.3
				c1.5-1.7,2.8-4.3,3.6-6.9L499.9,132.6z M504.4,145.9c-1,0.7-2.7,1.4-4.2,1.7c-0.2-0.2-0.5-0.6-0.7-0.8c1.5-0.3,3.1-1,4-1.5
				L504.4,145.9z M503.3,134H500v-1h10.7v1h-3.5v1h3v3.3h-9.8V135h2.9V134z M500.8,145.1v-6.1h9.3v6.1H500.8z M501.5,137.4h1.8v-1.6
				h-1.8V137.4z M501.9,140.8h6.9v-0.9h-6.9V140.8z M501.9,142.6h6.9v-1h-6.9V142.6z M501.9,144.3h6.9v-1h-6.9V144.3z M506.2,134
				h-1.9v1h1.9V134z M504.4,137.4h1.9v-1.6h-1.9V137.4z M507,145.3c1.5,0.5,3.1,1.1,4.1,1.6l-1.1,0.7c-0.9-0.5-2.3-1.2-3.8-1.7
				L507,145.3z M507.3,135.8v1.6h1.9v-1.6H507.3z"/>
			<path class="st1" d="M526.9,141.2c-1,0.8-2.2,1.7-3.3,2.3c1.2,1.1,2.6,1.9,4.2,2.4c-0.3,0.3-0.6,0.7-0.8,1.1
				c-3.5-1.2-5.8-3.7-7.1-7.2c-0.7,0.8-1.6,1.6-2.6,2.2v3.7l4.1-1.2c0,0.3,0.1,0.8,0.2,1.1c-4.7,1.5-5.3,1.7-5.7,2
				c-0.1-0.3-0.3-0.9-0.5-1.1c0.3-0.1,0.6-0.4,0.6-1.1v-2.5c-1,0.6-2,1-2.9,1.4c-0.2-0.3-0.5-0.8-0.8-1c2.1-0.7,4.5-2,6.1-3.4h-5.6
				v-1.1h6.6v-1.5h-5.1v-1h5.1v-1.4h-6v-1.1h6v-1.5h1.2v1.5h6.1v1.1h-6.1v1.4h5.4v1h-5.4v1.5h6.7v1.1h-6.2c0.5,1.1,1,2.1,1.8,3
				c1-0.7,2.2-1.6,2.9-2.3L526.9,141.2z"/>
			<path class="st1" d="M535.5,143.2c-2.1,0.6-4.4,1.3-6,1.8l-0.3-1.2c0.7-0.2,1.7-0.4,2.7-0.7V139h-2.1v-1.2h2.1v-3.6h-2.3V133h5.8
				v1.1H533v3.6h2.1v1.2H533v3.8l2.3-0.7L535.5,143.2z M543.4,146.4c0.4,0,0.5-0.3,0.5-2c0.2,0.2,0.7,0.4,1,0.5
				c-0.1,2.1-0.4,2.6-1.4,2.6h-1.6c-1.2,0-1.5-0.4-1.5-1.6v-3.8h-1.7c-0.3,2.7-1.2,4.5-4.5,5.5c-0.1-0.3-0.5-0.8-0.7-1
				c3-0.8,3.7-2.3,4-4.5H536v-9.2h7.9v9.2h-2.3v3.8c0,0.4,0.1,0.5,0.5,0.5H543.4z M537.2,135.7h5.5V134h-5.5V135.7z M537.2,138.3
				h5.5v-1.7h-5.5V138.3z M537.2,141.1h5.5v-1.7h-5.5V141.1z"/>
		</g>
		<g>
			<line class="st8" x1="-0.1" y1="344" x2="833.9" y2="344"/>
			<g>
				<g>
					<line class="st10" x1="148.4" y1="0" x2="148.4" y2="346"/>
					<line class="st10" x1="532.4" y1="0" x2="532.4" y2="346"/>
				</g>
				<g>
					<g class="st11">
						<line class="st12" x1="-0.1" y1="305.1" x2="833.9" y2="305.1"/>
						<line class="st12" x1="-0.1" y1="251.9" x2="833.9" y2="251.9"/>
						<line class="st12" x1="-0.1" y1="198.8" x2="833.9" y2="198.8"/>
						<line class="st12" x1="-0.1" y1="144.8" x2="833.9" y2="144.8"/>
						<line class="st12" x1="-0.1" y1="90" x2="833.9" y2="90"/>
						<line class="st12" x1="-0.1" y1="36.8" x2="833.9" y2="36.8"/>
					</g>
					<line class="st13" x1="30.4" y1="0" x2="30.4" y2="346"/>
					<line class="st13" x1="266.4" y1="0" x2="266.4" y2="346"/>
					<line class="st13" x1="413.9" y1="0" x2="413.9" y2="346"/>
					<line class="st13" x1="650.4" y1="0" x2="650.4" y2="346"/>
					<line class="st13" x1="768.4" y1="0" x2="768.4" y2="346"/>
				</g>
			</g>
			<line class="st14" x1="833.9" y1="0" x2="833.9" y2="346"/>
			<g>
				<line class="st14" x1="834.5" y1="9.7" x2="836.8" y2="9.7"/>
				<line class="st14" x1="834.5" y1="63.4" x2="836.8" y2="63.4"/>
				<line class="st14" x1="834.5" y1="117.4" x2="836.8" y2="117.4"/>
				<line class="st14" x1="834.5" y1="170.8" x2="836.8" y2="170.8"/>
				<line class="st14" x1="834.5" y1="224.7" x2="836.8" y2="224.7"/>
				<line class="st14" x1="834.5" y1="278.6" x2="836.8" y2="278.6"/>
				<line class="st14" x1="834.5" y1="332.4" x2="836.8" y2="332.4"/>
			</g>
			<polyline class="st15" points="-0.1,143.5 3.4,137.4 6.4,138.2 9.4,146.7 14.1,146.7 17.9,151.7 20.9,152.6 24.1,150.4 
				30.4,154.7 33.4,153.5 35.9,150.6 41.6,155.7 44.9,162.5 50.3,155.8 53.8,155.8 59.3,149.1 64.8,147.6 68.6,144.8 74.1,150 
				76.6,150 80.3,145.7 84.6,145.3 89.1,147.6 94.6,147.6 98.3,143.8 103.3,145.3 107.6,143.6 112.1,143.8 115.8,141.2 119.2,142.3 
				124.6,139.6 128.1,141.9 130.4,141.9 133.9,144.1 135.4,142.9 139.4,144.8 145,143.1 148.4,141 151.6,142.9 153.9,141.1 
				157.3,141.4 159.4,140.6 168.4,144.8 171.1,143.3 174.4,143.4 178.3,145.6 184.6,147 189.8,151.5 193.1,150.9 201.3,156.4 
				204.3,156 207.1,156.6 209.9,155.4 218.9,160 223.1,158 228.6,161.1 235.6,160.5 239.8,158 242.6,159.9 245.6,159.6 249.6,161.7 
				252.6,161.7 256.3,162.5 260.1,166.3 263.3,164.4 266.4,166.3 275.1,164.7 281.1,156.5 283.3,155 286.8,157.6 289.3,155.7 
				292.9,157.3 297.6,156.2 304.9,152.8 315.8,145.6 320.1,147 326.3,145.9 331.1,146.6 333.9,144.8 337.3,146.8 342.8,146.7 
				345.9,143.8 349.4,144.1 351.6,144.8 354.8,143.6 360.3,143.6 363.6,145.9 367.1,145.3 370.1,147.6 383.3,133.9 383.3,25.6 
				390.4,44.4 396.6,33.4 404.8,33.7 407.8,38.3 413.9,33.7 419.3,36.8 424.9,43.5 428.1,43.9 434.6,40.1 437.6,43.2 439.9,42.9 
				443.3,44.6 446.6,50.2 449.8,52.2 454.8,48.9 460.8,51.5 466.6,58.1 470.4,58.9 472.6,58.8 477.8,61.3 482.4,61.2 485.4,64.8 
				487.9,63.4 491,63.9 496.8,57.1 502.5,55.1 505.4,55.9 508.6,51.8 510.9,50.7 515.1,44.4 517.6,47.4 520.4,45.9 523.4,47.3 
				525.9,46.8 529.1,48.7 534.9,42.3 538.3,45.4 541.3,44.9 545.6,45.8 550.1,48.7 552.8,48.1 558.8,51.5 567.6,50.6 570.8,47.6 
				573.4,48.5 576.8,51.4 587.9,51.3 591.6,49.6 594.4,50.9 597.3,49.8 599.8,50.9 603.1,50.2 606.1,52.2 608.4,50.6 611.6,51.5 
				616.1,53.6 620.4,53.8 623.6,55.8 626.9,55.6 629.4,57.5 632.9,56.3 635.4,57.3 638.8,56.2 643.9,60.1 646.9,58.9 650.4,61.9 
				653.3,60.1 656.6,63 658.9,62.8 662.6,64.9 665.9,63 667.8,65.4 671.1,65 678.3,68 682.9,67.1 688.6,69.1 697.1,68.8 700.4,71 
				710.1,70.9 711.9,71.3 715.6,71.3 718.4,74.2 721.8,72.5 724.6,74 733.9,79.5 735.8,79.1 739.1,80.8 744.9,80.8 747.8,82.1 
				753.8,82.1 756.4,84.3 759.6,83.7 761.9,84.3 765.6,86.7 			"/>
			<polyline class="st16" points="-0.1,144.3 4.8,138.7 9.4,146.7 12.4,142.1 17.6,153.6 21.2,150.7 23.9,151.7 27.1,150.9 
				30.4,152.4 32.4,147.2 36.4,145.4 39.3,147.6 42.1,147.6 45.2,152.8 50.2,149.1 56.6,136.4 60.1,137.5 62.2,136.4 65.6,138.3 
				68.9,141 71.4,141.2 75.2,145 79.4,146.7 87.1,146.6 94.8,152.1 98.4,149.1 101.9,150.7 105.3,149.2 109.3,144.8 112.8,149.3 
				119.2,149.4 122.6,151.2 125.1,150.3 129.7,146.8 136.2,148.5 139.1,151.9 148.4,151.9 151.2,153.1 154.6,152.1 157.6,153.6 
				163.6,153.6 165.3,152.8 168.4,154.4 171.3,152.1 174.2,153.3 177.4,152.7 180.3,154.4 186.4,154.4 189.6,157.5 193.2,156.7 
				198.1,160.7 201.2,158 205.1,159.5 209.8,158.4 212.6,160.2 216.3,164.9 219.9,164.1 222.3,161.9 228.3,163.4 234.2,160.6 
				237.1,163.1 240.1,162.4 242.9,164.9 245.7,164.9 248.6,167.4 252.3,165.8 258.2,167.4 262.7,163.3 269.7,159.5 273.8,164.1 
				281.1,164.5 286.6,161.1 289.3,160.7 292.9,157.3 296.4,156.5 301.6,159.1 304.6,159 308.1,156.3 310.7,157.9 313.1,155.2 
				319.6,154 325.4,156.3 328.3,153.2 331.6,156.2 334.4,155.9 337.6,161.9 340.3,161 341.3,162.2 345.8,159.8 349.3,160.9 
				351.9,158.3 355.9,160.4 357.9,158.6 361.2,156.1 363.6,156.7 366.7,152.9 369.9,157.6 372.3,153.7 378.6,151.4 383.3,147.6 
				383.3,243.2 390.8,272.8 397.2,251.9 399.7,247.8 404.6,246.9 407.9,257 410.9,256.9 413.9,252.3 420.2,260.8 425.9,271 
				429.1,268.6 431.7,268.8 434.6,265.8 437.7,271.6 440.2,270.6 443.9,273.8 446.7,283.2 450.2,282 453.3,277.3 458.4,273.8 
				460.8,275.3 463.7,273 466.9,285.4 473.4,287.3 479.1,291.5 481.6,288.8 485.2,292.4 488.1,293.5 491,291.4 496.7,278.9 
				499.6,276 502.5,277.2 505.4,276.4 508.6,267.6 511.6,266.2 514.4,262.4 517.7,266.1 520.8,264.1 523.4,260.5 529.3,264.2 
				532.4,263.2 535.1,259.9 538.4,263.1 540.8,261.4 548.2,267.5 549.7,269.2 552.3,269.1 558.4,276.6 561.8,275.2 564.6,273.1 
				567.7,275.1 573.4,271.8 576.7,275.3 579.1,274.1 585.3,276.2 590.9,274.3 593.4,274.8 600.7,275.5 602.9,274.7 606.3,276.6 
				608.4,274.1 611.7,275.7 615.2,278.5 623.7,283.6 626.4,283.8 630.2,287.3 636.4,285.3 638.1,283.9 643.9,289.9 647.8,288.7 
				650.4,291.4 652.9,289.2 658.8,292.5 665.3,287.4 670.4,293.5 673.2,294.8 677.2,297.5 680.4,296.4 682.8,294.6 688.8,298.4 
				692.7,298.4 695.2,297.1 700.3,298.4 703.1,296.5 706.9,296.4 712.1,293.9 718.3,299.6 724.4,298.6 726.9,303.4 729.8,305.9 
				732.2,305.1 735.3,306.9 741.7,306.9 744.7,310.7 751.1,312 753.9,309.8 756.6,312.7 759.6,312 762.3,309.2 765.6,315 			"/>
			<line class="st12" x1="-0.1" y1="160.7" x2="833.9" y2="160.7"/>
		</g>
		<polygon class="st6" points="921.9,324.3 848.3,324.3 841.4,316.2 848.3,308 921.9,308 		"/>
		<g>
			<g>
				<path class="st0" d="M851.5,318.7c0.3,0.4,0.9,0.7,1.5,0.7c1.1,0,2-0.9,2.1-3.4c-0.5,0.6-1.3,1-1.9,1c-1.5,0-2.5-0.9-2.5-2.8
					c0-1.8,1.2-2.9,2.6-2.9c1.7,0,3.1,1.4,3.1,4.3c0,3.5-1.6,4.9-3.3,4.9c-1,0-1.7-0.4-2.3-0.9L851.5,318.7z M855,314.9
					c-0.1-1.7-0.8-2.5-1.8-2.5c-0.8,0-1.4,0.7-1.4,1.8c0,1.1,0.5,1.8,1.4,1.8C853.9,316,854.5,315.7,855,314.9z"/>
				<path class="st0" d="M857.3,319.3l0.7-0.9c0.5,0.5,1.2,1,2.1,1c1,0,1.7-0.6,1.7-1.5c0-1-0.6-1.6-2.6-1.6v-1
					c1.7,0,2.3-0.7,2.3-1.5c0-0.8-0.5-1.3-1.4-1.3c-0.7,0-1.3,0.3-1.8,0.8l-0.7-0.9c0.7-0.6,1.5-1.1,2.5-1.1c1.6,0,2.7,0.8,2.7,2.3
					c0,1-0.6,1.7-1.5,2.1v0.1c1,0.3,1.8,1,1.8,2.2c0,1.6-1.3,2.5-2.9,2.5C858.8,320.5,857.9,319.9,857.3,319.3z"/>
				<path class="st0" d="M864.7,319.5c0-0.6,0.4-1,0.9-1s0.9,0.4,0.9,1c0,0.6-0.4,1-0.9,1S864.7,320.1,864.7,319.5z"/>
				<path class="st0" d="M872.8,313.1c-0.3-0.4-0.9-0.7-1.4-0.7c-1.1,0-2.1,0.9-2.1,3.4c0.5-0.6,1.3-1,1.9-1c1.5,0,2.5,0.9,2.5,2.8
					c0,1.8-1.2,2.9-2.6,2.9c-1.7,0-3-1.4-3-4.4c0-3.4,1.6-4.8,3.3-4.8c1,0,1.7,0.4,2.2,0.9L872.8,313.1z M872.4,317.6
					c0-1.1-0.5-1.8-1.5-1.8c-0.5,0-1.1,0.3-1.6,1c0.1,1.8,0.8,2.6,1.7,2.6C871.8,319.4,872.4,318.7,872.4,317.6z"/>
				<path class="st0" d="M874.6,319.3l0.7-0.9c0.5,0.5,1.2,1,2.1,1c1,0,1.7-0.6,1.7-1.5c0-1-0.6-1.6-2.6-1.6v-1
					c1.7,0,2.3-0.7,2.3-1.5c0-0.8-0.5-1.3-1.4-1.3c-0.7,0-1.3,0.3-1.8,0.8l-0.7-0.9c0.7-0.6,1.5-1.1,2.5-1.1c1.6,0,2.7,0.8,2.7,2.3
					c0,1-0.6,1.7-1.5,2.1v0.1c1,0.3,1.8,1,1.8,2.2c0,1.6-1.3,2.5-2.9,2.5C876,320.5,875.1,319.9,874.6,319.3z"/>
				<path class="st0" d="M887.5,318h-1.1v2.4h-1.3V318h-3.8V317l3.5-5.5h1.6v5.4h1.1V318z M885.1,316.9v-2.3c0-0.5,0-1.2,0.1-1.7h0
					c-0.2,0.4-0.5,0.9-0.7,1.4l-1.7,2.7H885.1z"/>
				<path class="st0" d="M893.6,312.7H891v-1.2h6.6v1.2h-2.6v7.7h-1.4V312.7z"/>
				<path class="st0" d="M901.7,316.5v-5h1.4v5.1c0,2,0.8,2.6,1.9,2.6c1.1,0,1.9-0.6,1.9-2.6v-5.1h1.3v5c0,2.9-1.3,3.9-3.3,3.9
					S901.7,319.4,901.7,316.5z"/>
				<path class="st0" d="M909.8,319.2l0.8-1c0.6,0.6,1.5,1,2.4,1c1.1,0,1.7-0.5,1.7-1.2c0-0.8-0.6-1.1-1.4-1.4l-1.2-0.5
					c-0.9-0.4-1.8-1-1.8-2.3c0-1.4,1.2-2.4,2.9-2.4c1,0,2,0.4,2.7,1.1l-0.7,0.9c-0.6-0.5-1.2-0.8-1.9-0.8c-0.9,0-1.5,0.4-1.5,1.1
					c0,0.8,0.7,1,1.4,1.3l1.2,0.5c1,0.4,1.8,1.1,1.8,2.4c0,1.4-1.2,2.6-3.1,2.6C911.7,320.5,910.6,320,909.8,319.2z"/>
			</g>
		</g>
	</g>
</g>
</svg>
