<?xml version="1.0" encoding="utf-8"?>
<!-- Generator: Adobe Illustrator 22.1.0, SVG Export Plug-In . SVG Version: 6.00 Build 0)  -->
<svg version="1.1" id="圖層_1" xmlns="http://www.w3.org/2000/svg" xmlns:xlink="http://www.w3.org/1999/xlink" x="0px" y="0px"
	 viewBox="0 0 950 379" style="enable-background:new 0 0 950 379;" xml:space="preserve">
<style type="text/css">
	.st0{fill:#382F4D;}
	.st1{fill:url(#SVGID_1_);}
	.st2{fill:#34B5E8;}
	.st3{fill:#DF7956;}
	.st4{fill:#FFFFFF;}
	.st5{fill:none;stroke:#F35C00;stroke-miterlimit:10;}
	.st6{fill:#F35C00;}
	.st7{enable-background:new    ;}
	.st8{fill:none;stroke:#FFFFFF;stroke-miterlimit:10;}
	.st9{opacity:0.12;}
	.st10{fill:none;stroke:#FFFFFF;stroke-miterlimit:10;stroke-dasharray:4;}
	.st11{fill:none;stroke:#34B5E8;stroke-width:2;stroke-miterlimit:10;}
	.st12{fill:none;stroke:#DF7956;stroke-width:2;stroke-miterlimit:10;}
	.st13{fill:#F3FF00;}
	.st14{fill:#FF80F3;}
	.st15{fill:url(#SVGID_2_);}
</style>
<rect x="-42.8" y="-470.5" class="st0" width="1016" height="436.3"/>
<g>
	
		<linearGradient id="SVGID_1_" gradientUnits="userSpaceOnUse" x1="441.7499" y1="47.5" x2="441.7499" y2="356.4013" gradientTransform="matrix(1 0 0 -1 0 380)">
		<stop  offset="0.2811" style="stop-color:#FFFFFF;stop-opacity:0"/>
		<stop  offset="0.3543" style="stop-color:#F8FCFE;stop-opacity:0.1018"/>
		<stop  offset="0.4633" style="stop-color:#E3F5FC;stop-opacity:0.2535"/>
		<stop  offset="0.5948" style="stop-color:#C2E9F8;stop-opacity:0.4364"/>
		<stop  offset="0.7437" style="stop-color:#94D8F3;stop-opacity:0.6435"/>
		<stop  offset="0.9053" style="stop-color:#5AC3EC;stop-opacity:0.8682"/>
		<stop  offset="1" style="stop-color:#34B5E8"/>
	</linearGradient>
	<path class="st1" d="M0,187.9l6.8,20.5L21,187.1l7.3,6.5l7.4-2.4l6.6-5.6l6.7-1.3l8.6,4.3l12.1,10.3H77l6.8,7.8l7.6,3.8l6.5-1.4
		l14.3,14.7h6.9l6.8-7l7.7,3.8l6.5-3.2l7.8-0.1l6.5,5.4l14.1-2.8l6.7-19.7l7.9-2.9l7-9.2l6-15.8l7.6-6.6l27.8-42.3l7.2-2.8l6.7,22.8
		l7.4,5.3l21,41.6l6.7-12.5l7.2-3.2l7-0.8l6.5,6.8l7.3-5.1l6.9,6.6l7.9-3.6l6.3-7.9l7.5,0.6l7.2-1.8l6.8-6.2l6.4-2.3l6.8-4.9l7.4,11
		l13.3,2.3l7.9,3.8l13.4-4.8l7.9,4.8l6.7-1.2l6.9,2.1l7.1,12.6l21.5-17.8l8.3-9.3l19-18.8h7.1l28.7-29.2l13.2-0.8l7.1,4.8l7.2-5.4
		l6.9,3.5h7.3l8.6,8.6l6.9,4.9l5.6,5.3l6.5,19.8l7-3.1l7.5,15l5.9-6.1l8.4-3.8l7-7l6-14.3l7.2-10l7.2,4.7l6.6-7.9l8.1-5.3l6.2-1
		l8.3-0.9l6.2-2.5l13.9-1.3l15.3-9.8l5.8-1.1l7.1-7.7l15.1-8.5l5.9-6.4l14.7-3.6l15-15.9l5.3-7.8h12.7l8,8.8l7.8,1.7l6.4-1.2
		l7.2,6.7l9.3-6.6l4.8-1.5l21.1-20.7l8.1-1.5l7.3-3.2l6-5.5l6.3-1.8V332H0C0,332.5,0,187.2,0,187.9z"/>
	<polygon class="st2" points="949.5,31.3 903.3,31.3 896.5,23.1 903.3,14.9 949.5,14.9 	"/>
	<g>
		<g>
			<path class="st0" d="M907.5,26.1h1.9V20h-1.6v-0.9c0.8-0.2,1.4-0.4,1.9-0.7h1v7.7h1.7v1.1h-5L907.5,26.1L907.5,26.1z"/>
			<path class="st0" d="M913.9,22.8c0-3.1,1.1-4.5,2.9-4.5c1.7,0,2.9,1.5,2.9,4.5c0,3.1-1.1,4.6-2.9,4.6S913.9,25.9,913.9,22.8z
				 M918.3,22.8c0-2.5-0.6-3.5-1.5-3.5s-1.5,0.9-1.5,3.5s0.6,3.5,1.5,3.5S918.3,25.4,918.3,22.8z"/>
			<path class="st0" d="M920.7,26.5c2.6-2.3,3.9-4,3.9-5.5c0-1-0.5-1.6-1.5-1.6c-0.7,0-1.3,0.4-1.7,1l-0.8-0.8
				c0.8-0.8,1.5-1.3,2.7-1.3c1.6,0,2.7,1.1,2.7,2.7c0,1.7-1.4,3.5-3.2,5.3c0.5,0,1-0.1,1.4-0.1h2.2v1.2h-5.7L920.7,26.5L920.7,26.5z
				"/>
			<path class="st0" d="M927.9,26.5c0-0.6,0.4-1,0.9-1s0.9,0.4,0.9,1s-0.4,1-0.9,1S927.9,27,927.9,26.5z"/>
			<path class="st0" d="M937.1,24.9H936v2.4h-1.3v-2.4h-3.8V24l3.5-5.5h1.6v5.4h1.1V24.9z M934.7,23.8v-2.3c0-0.5,0-1.2,0.1-1.7l0,0
				c-0.2,0.4-0.5,0.9-0.7,1.4l-1.7,2.7h2.3V23.8z"/>
			<path class="st0" d="M938.8,25.6c0.3,0.4,0.9,0.7,1.5,0.7c1.1,0,2-0.9,2.1-3.4c-0.5,0.6-1.3,1-1.9,1c-1.5,0-2.5-0.9-2.5-2.8
				c0-1.8,1.2-2.9,2.6-2.9c1.7,0,3.1,1.4,3.1,4.3c0,3.5-1.6,4.9-3.3,4.9c-1,0-1.7-0.4-2.3-0.9L938.8,25.6z M942.3,21.9
				c-0.1-1.7-0.8-2.5-1.8-2.5c-0.8,0-1.4,0.7-1.4,1.8c0,1.1,0.5,1.8,1.4,1.8C941.2,22.9,941.8,22.6,942.3,21.9z"/>
		</g>
	</g>
	<polygon class="st3" points="949.5,171.3 903.3,171.3 896.5,163.1 903.3,154.9 949.5,154.9 	"/>
	<g>
		<g>
			<path class="st0" d="M907.5,166.1h1.9V160h-1.6v-0.9c0.8-0.2,1.4-0.4,1.9-0.7h1v7.7h1.7v1.1h-5L907.5,166.1L907.5,166.1z"/>
			<path class="st0" d="M913.9,162.8c0-3.1,1.1-4.5,2.9-4.5c1.7,0,2.9,1.5,2.9,4.5c0,3.1-1.1,4.6-2.9,4.6
				C915,167.4,913.9,165.9,913.9,162.8z M918.3,162.8c0-2.5-0.6-3.5-1.5-3.5s-1.5,0.9-1.5,3.5s0.6,3.5,1.5,3.5
				S918.3,165.4,918.3,162.8z"/>
			<path class="st0" d="M920.7,162.8c0-3.1,1.1-4.5,2.9-4.5c1.7,0,2.9,1.5,2.9,4.5c0,3.1-1.1,4.6-2.9,4.6
				C921.9,167.4,920.7,165.9,920.7,162.8z M925.1,162.8c0-2.5-0.6-3.5-1.5-3.5s-1.5,0.9-1.5,3.5s0.6,3.5,1.5,3.5
				S925.1,165.4,925.1,162.8z"/>
			<path class="st0" d="M927.9,166.5c0-0.6,0.4-1,0.9-1s0.9,0.4,0.9,1s-0.4,1-0.9,1S927.9,167,927.9,166.5z"/>
			<path class="st0" d="M930.9,166.2l0.7-0.9c0.5,0.5,1.2,1,2.1,1c1,0,1.7-0.6,1.7-1.5c0-1-0.6-1.6-2.6-1.6v-1
				c1.7,0,2.3-0.7,2.3-1.5s-0.5-1.3-1.4-1.3c-0.7,0-1.3,0.3-1.8,0.8l-0.7-0.9c0.7-0.6,1.5-1.1,2.5-1.1c1.6,0,2.7,0.8,2.7,2.3
				c0,1-0.6,1.7-1.5,2.1v0.1c1,0.3,1.8,1,1.8,2.2c0,1.6-1.3,2.5-3,2.5C932.4,167.4,931.5,166.9,930.9,166.2z"/>
			<path class="st0" d="M938,165.1c0-1.2,0.8-1.9,1.6-2.4v-0.1c-0.7-0.5-1.2-1.1-1.2-2.1c0-1.4,1.1-2.3,2.5-2.3c1.5,0,2.5,1,2.5,2.3
				c0,0.9-0.6,1.7-1.2,2.1v0.1c0.8,0.5,1.5,1.1,1.5,2.3c0,1.3-1.2,2.3-2.9,2.3C939.2,167.4,938,166.4,938,165.1z M942.4,165.1
				c0-1.1-1-1.5-2.2-2c-0.6,0.4-1,1.1-1,1.8c0,0.9,0.7,1.5,1.7,1.5C941.8,166.4,942.4,165.9,942.4,165.1z M942.2,160.7
				c0-0.8-0.5-1.4-1.4-1.4c-0.7,0-1.3,0.5-1.3,1.3c0,1,0.8,1.4,1.8,1.8C942,161.9,942.2,161.3,942.2,160.7z"/>
		</g>
	</g>
	<g>
		<g>
			<g>
				<path class="st4" d="M902.5,59.1h1.9V53h-1.6v-0.9c0.8-0.2,1.4-0.4,1.9-0.7h1v7.7h1.7v1.1h-5L902.5,59.1L902.5,59.1z"/>
				<path class="st4" d="M908.9,55.8c0-3.1,1.1-4.5,2.9-4.5c1.7,0,2.9,1.5,2.9,4.5c0,3.1-1.1,4.6-2.9,4.6
					C910,60.4,908.9,58.9,908.9,55.8z M913.3,55.8c0-2.5-0.6-3.5-1.5-3.5s-1.5,0.9-1.5,3.5s0.6,3.5,1.5,3.5S913.3,58.4,913.3,55.8z"
					/>
				<path class="st4" d="M915.7,59.5c2.6-2.3,3.9-4,3.9-5.5c0-1-0.5-1.6-1.5-1.6c-0.7,0-1.3,0.4-1.7,1l-0.8-0.8
					c0.8-0.8,1.5-1.3,2.7-1.3c1.6,0,2.7,1.1,2.7,2.7c0,1.7-1.4,3.5-3.2,5.3c0.5,0,1-0.1,1.4-0.1h2.2v1.2h-5.7L915.7,59.5L915.7,59.5
					z"/>
				<path class="st4" d="M922.9,59.5c0-0.6,0.4-1,0.9-1s0.9,0.4,0.9,1s-0.4,1-0.9,1S922.9,60,922.9,59.5z"/>
				<path class="st4" d="M926.2,55.8c0-3.1,1.1-4.5,2.9-4.5c1.7,0,2.9,1.5,2.9,4.5c0,3.1-1.1,4.6-2.9,4.6
					C927.3,60.4,926.2,58.9,926.2,55.8z M930.5,55.8c0-2.5-0.6-3.5-1.5-3.5s-1.5,0.9-1.5,3.5s0.6,3.5,1.5,3.5
					C929.9,59.4,930.5,58.4,930.5,55.8z"/>
				<path class="st4" d="M933,55.8c0-3.1,1.1-4.5,2.9-4.5c1.7,0,2.9,1.5,2.9,4.5c0,3.1-1.1,4.6-2.9,4.6
					C934.1,60.4,933,58.9,933,55.8z M937.4,55.8c0-2.5-0.6-3.5-1.5-3.5s-1.5,0.9-1.5,3.5s0.6,3.5,1.5,3.5
					C936.8,59.4,937.4,58.4,937.4,55.8z"/>
			</g>
		</g>
		<g>
			<g>
				<path class="st4" d="M902.5,124.8h1.9v-6.1h-1.6v-0.9c0.8-0.2,1.4-0.4,1.9-0.7h1v7.7h1.7v1.1h-5L902.5,124.8L902.5,124.8z"/>
				<path class="st4" d="M908.9,121.5c0-3.1,1.1-4.5,2.9-4.5c1.7,0,2.9,1.5,2.9,4.5c0,3.1-1.1,4.6-2.9,4.6S908.9,124.6,908.9,121.5z
					 M913.3,121.5c0-2.5-0.6-3.5-1.5-3.5s-1.5,0.9-1.5,3.5s0.6,3.5,1.5,3.5S913.3,124.1,913.3,121.5z"/>
				<path class="st4" d="M916.2,124.8h1.9v-6.1h-1.6v-0.9c0.8-0.2,1.4-0.4,1.9-0.7h1v7.7h1.7v1.1h-5L916.2,124.8L916.2,124.8z"/>
				<path class="st4" d="M922.9,125.2c0-0.6,0.4-1,0.9-1s0.9,0.4,0.9,1s-0.4,1-0.9,1S922.9,125.7,922.9,125.2z"/>
				<path class="st4" d="M926.2,121.5c0-3.1,1.1-4.5,2.9-4.5c1.7,0,2.9,1.5,2.9,4.5c0,3.1-1.1,4.6-2.9,4.6S926.2,124.6,926.2,121.5z
					 M930.5,121.5c0-2.5-0.6-3.5-1.5-3.5s-1.5,0.9-1.5,3.5s0.6,3.5,1.5,3.5S930.5,124.1,930.5,121.5z"/>
				<path class="st4" d="M933,121.5c0-3.1,1.1-4.5,2.9-4.5c1.7,0,2.9,1.5,2.9,4.5c0,3.1-1.1,4.6-2.9,4.6S933,124.6,933,121.5z
					 M937.4,121.5c0-2.5-0.6-3.5-1.5-3.5s-1.5,0.9-1.5,3.5s0.6,3.5,1.5,3.5C936.8,125,937.4,124.1,937.4,121.5z"/>
			</g>
		</g>
		<g>
			<g>
				<path class="st4" d="M902.5,191.8h1.9v-6.1h-1.6v-0.9c0.8-0.2,1.4-0.4,1.9-0.7h1v7.7h1.7v1.1h-5L902.5,191.8L902.5,191.8z"/>
				<path class="st4" d="M908.9,188.5c0-3.1,1.1-4.5,2.9-4.5c1.7,0,2.9,1.5,2.9,4.5c0,3.1-1.1,4.6-2.9,4.6S908.9,191.6,908.9,188.5z
					 M913.3,188.5c0-2.5-0.6-3.5-1.5-3.5s-1.5,0.9-1.5,3.5s0.6,3.5,1.5,3.5S913.3,191.1,913.3,188.5z"/>
				<path class="st4" d="M915.7,188.5c0-3.1,1.1-4.5,2.9-4.5c1.7,0,2.9,1.5,2.9,4.5c0,3.1-1.1,4.6-2.9,4.6
					C916.9,193.1,915.7,191.6,915.7,188.5z M920.1,188.5c0-2.5-0.6-3.5-1.5-3.5s-1.5,0.9-1.5,3.5s0.6,3.5,1.5,3.5
					S920.1,191.1,920.1,188.5z"/>
				<path class="st4" d="M922.9,192.2c0-0.6,0.4-1,0.9-1s0.9,0.4,0.9,1s-0.4,1-0.9,1S922.9,192.7,922.9,192.2z"/>
				<path class="st4" d="M926.2,188.5c0-3.1,1.1-4.5,2.9-4.5c1.7,0,2.9,1.5,2.9,4.5c0,3.1-1.1,4.6-2.9,4.6S926.2,191.6,926.2,188.5z
					 M930.5,188.5c0-2.5-0.6-3.5-1.5-3.5s-1.5,0.9-1.5,3.5s0.6,3.5,1.5,3.5S930.5,191.1,930.5,188.5z"/>
				<path class="st4" d="M933,188.5c0-3.1,1.1-4.5,2.9-4.5c1.7,0,2.9,1.5,2.9,4.5c0,3.1-1.1,4.6-2.9,4.6S933,191.6,933,188.5z
					 M937.4,188.5c0-2.5-0.6-3.5-1.5-3.5s-1.5,0.9-1.5,3.5s0.6,3.5,1.5,3.5C936.8,192,937.4,191.1,937.4,188.5z"/>
			</g>
		</g>
		<g>
			<g>
				<path class="st4" d="M902.9,257.3c0.3,0.4,0.9,0.7,1.5,0.7c1.1,0,2-0.9,2.1-3.4c-0.5,0.6-1.3,1-1.9,1c-1.5,0-2.5-0.9-2.5-2.8
					c0-1.8,1.2-2.9,2.6-2.9c1.7,0,3.1,1.4,3.1,4.3c0,3.5-1.6,4.9-3.3,4.9c-1,0-1.7-0.4-2.3-0.9L902.9,257.3z M906.4,253.6
					c-0.1-1.7-0.8-2.5-1.8-2.5c-0.8,0-1.4,0.7-1.4,1.8s0.5,1.8,1.4,1.8C905.3,254.6,905.9,254.3,906.4,253.6z"/>
				<path class="st4" d="M909.7,257.3c0.3,0.4,0.9,0.7,1.5,0.7c1.1,0,2-0.9,2.1-3.4c-0.5,0.6-1.3,1-1.9,1c-1.5,0-2.5-0.9-2.5-2.8
					c0-1.8,1.2-2.9,2.6-2.9c1.7,0,3.1,1.4,3.1,4.3c0,3.5-1.6,4.9-3.3,4.9c-1,0-1.7-0.4-2.3-0.9L909.7,257.3z M913.2,253.6
					c-0.1-1.7-0.8-2.5-1.8-2.5c-0.8,0-1.4,0.7-1.4,1.8s0.5,1.8,1.4,1.8C912.1,254.6,912.7,254.3,913.2,253.6z"/>
				<path class="st4" d="M916,258.2c0-0.6,0.4-1,0.9-1s0.9,0.4,0.9,1s-0.4,1-0.9,1S916,258.7,916,258.2z"/>
				<path class="st4" d="M919.3,254.5c0-3.1,1.1-4.5,2.9-4.5c1.7,0,2.9,1.5,2.9,4.5c0,3.1-1.1,4.6-2.9,4.6
					C920.4,259.1,919.3,257.6,919.3,254.5z M923.7,254.5c0-2.5-0.6-3.5-1.5-3.5s-1.5,0.9-1.5,3.5s0.6,3.5,1.5,3.5
					C923.1,258,923.7,257.1,923.7,254.5z"/>
				<path class="st4" d="M926.2,254.5c0-3.1,1.1-4.5,2.9-4.5c1.7,0,2.9,1.5,2.9,4.5c0,3.1-1.1,4.6-2.9,4.6S926.2,257.6,926.2,254.5z
					 M930.5,254.5c0-2.5-0.6-3.5-1.5-3.5s-1.5,0.9-1.5,3.5s0.6,3.5,1.5,3.5S930.5,257.1,930.5,254.5z"/>
			</g>
		</g>
		<g>
			<g>
				<path class="st4" d="M902.9,323.7c0.3,0.4,0.9,0.7,1.5,0.7c1.1,0,2-0.9,2.1-3.4c-0.5,0.6-1.3,1-1.9,1c-1.5,0-2.5-0.9-2.5-2.8
					c0-1.8,1.2-2.9,2.6-2.9c1.7,0,3.1,1.4,3.1,4.3c0,3.5-1.6,4.9-3.3,4.9c-1,0-1.7-0.4-2.3-0.9L902.9,323.7z M906.4,319.9
					c-0.1-1.7-0.8-2.5-1.8-2.5c-0.8,0-1.4,0.7-1.4,1.8c0,1.1,0.5,1.8,1.4,1.8C905.3,321,905.9,320.7,906.4,319.9z"/>
				<path class="st4" d="M908.9,323.1c0-1.2,0.8-1.9,1.6-2.4v-0.1c-0.7-0.5-1.2-1.1-1.2-2.1c0-1.4,1.1-2.3,2.5-2.3
					c1.5,0,2.5,1,2.5,2.3c0,0.9-0.6,1.7-1.2,2.1v0.1c0.8,0.5,1.5,1.1,1.5,2.3c0,1.3-1.2,2.3-2.9,2.3
					C910.1,325.4,908.9,324.5,908.9,323.1z M913.3,323.1c0-1.1-1-1.5-2.2-2c-0.6,0.4-1,1.1-1,1.8c0,0.9,0.7,1.5,1.7,1.5
					C912.7,324.4,913.3,323.9,913.3,323.1z M913.1,318.7c0-0.8-0.5-1.4-1.4-1.4c-0.7,0-1.3,0.5-1.3,1.3c0,1,0.8,1.4,1.8,1.8
					C912.9,319.9,913.1,319.3,913.1,318.7z"/>
				<path class="st4" d="M916,324.5c0-0.6,0.4-1,0.9-1s0.9,0.4,0.9,1s-0.4,1-0.9,1S916,325,916,324.5z"/>
				<path class="st4" d="M919.3,320.8c0-3.1,1.1-4.5,2.9-4.5c1.7,0,2.9,1.5,2.9,4.5c0,3.1-1.1,4.6-2.9,4.6
					C920.4,325.4,919.3,323.9,919.3,320.8z M923.7,320.8c0-2.5-0.6-3.5-1.5-3.5s-1.5,0.9-1.5,3.5s0.6,3.5,1.5,3.5
					C923.1,324.4,923.7,323.4,923.7,320.8z"/>
				<path class="st4" d="M926.2,320.8c0-3.1,1.1-4.5,2.9-4.5c1.7,0,2.9,1.5,2.9,4.5c0,3.1-1.1,4.6-2.9,4.6S926.2,323.9,926.2,320.8z
					 M930.5,320.8c0-2.5-0.6-3.5-1.5-3.5s-1.5,0.9-1.5,3.5s0.6,3.5,1.5,3.5C929.9,324.4,930.5,323.4,930.5,320.8z"/>
			</g>
		</g>
	</g>
	<line class="st5" x1="894.9" y1="0" x2="894.9" y2="332.5"/>
	<g>
		<polygon class="st6" points="895.4,321.5 895.4,320 897.3,320.7 899.1,321.5 897.3,322.3 895.4,323 		"/>
		<polygon class="st6" points="895.4,255.1 895.4,253.6 897.3,254.4 899.1,255.1 897.3,255.9 895.4,256.6 		"/>
		<polygon class="st6" points="895.4,188.6 895.4,187.1 897.3,187.9 899.1,188.6 897.3,189.4 895.4,190.1 		"/>
		<polygon class="st6" points="895.4,122.1 895.4,120.6 897.3,121.3 899.1,122.1 897.3,122.9 895.4,123.6 		"/>
		<polygon class="st6" points="895.4,56.3 895.4,54.7 897.3,55.5 899.1,56.3 897.3,57 895.4,57.8 		"/>
	</g>
	<g>
		<line class="st5" x1="895.4" y1="88.8" x2="897.8" y2="88.8"/>
		<line class="st5" x1="895.4" y1="155.5" x2="897.8" y2="155.5"/>
		<line class="st5" x1="895.4" y1="221.8" x2="897.8" y2="221.8"/>
		<line class="st5" x1="895.4" y1="288.4" x2="897.8" y2="288.4"/>
	</g>
	<g>
		<g>
			<g>
				<rect x="22.3" y="31.3" class="st2" width="10" height="10"/>
				<g class="st7">
					<path class="st2" d="M40.3,30.1h2.5v10.4h5.1v2.1h-7.6V30.1z"/>
					<path class="st2" d="M50,30.1h7.7v2.1h-5.2v3.3H57v2.1h-4.4v5.1H50V30.1z"/>
					<path class="st2" d="M60.6,39.9c0.5,0.5,1.2,0.9,2,0.9c1.4,0,2.6-1.1,2.7-4.2c-0.6,0.8-1.7,1.4-2.6,1.4c-2.1,0-3.6-1.3-3.6-3.9
						s1.8-4.2,3.9-4.2c2.4,0,4.5,1.9,4.5,6.2c0,4.7-2.3,6.8-4.8,6.8c-1.6,0-2.7-0.7-3.4-1.4L60.6,39.9z M65.2,34.8
						c-0.2-2.3-1.1-3.1-2.1-3.1c-0.9,0-1.7,0.8-1.7,2.3s0.7,2.2,1.8,2.2C63.8,36.2,64.6,35.8,65.2,34.8z"/>
					<path class="st2" d="M69.1,39.4c0-1.6,1-2.6,2.1-3.3V36c-1-0.7-1.7-1.6-1.7-3c0-2,1.6-3.3,3.8-3.3c2.2,0,3.6,1.3,3.6,3.3
						c0,1.2-0.8,2.3-1.6,2.9V36c1.1,0.6,2.1,1.6,2.1,3.3c0,1.9-1.7,3.3-4.2,3.3C70.9,42.8,69.1,41.4,69.1,39.4z M75.2,39.4
						c0-1.3-1.1-1.8-2.8-2.5c-0.7,0.5-1.1,1.4-1.1,2.3c0,1.1,0.9,1.9,2.1,1.9C74.4,41,75.2,40.4,75.2,39.4z M75,33.3
						c0-1-0.6-1.7-1.7-1.7c-0.8,0-1.5,0.6-1.5,1.6c0,1.2,1,1.8,2.3,2.3C74.7,34.8,75,34.1,75,33.3z"/>
					<path class="st2" d="M82.3,32.1h-3.5V30h9.6v2.1h-3.5v10.4h-2.5L82.3,32.1L82.3,32.1z"/>
					<path class="st2" d="M97.2,42.6l-2.6-4.7h-1.7v4.7h-2.5V30.1h4.4c2.6,0,4.7,0.9,4.7,3.8c0,1.9-0.9,3-2.4,3.6l2.9,5.1H97.2z
						 M92.9,35.8h1.6c1.6,0,2.5-0.7,2.5-2c0-1.4-0.9-1.8-2.5-1.8h-1.6V35.8z"/>
					<path class="st2" d="M101.8,36.9V30h2.5v7.1c0,2.6,0.9,3.5,2.4,3.5s2.4-0.9,2.4-3.5V30h2.4v6.9c0,4.2-1.8,5.9-4.8,5.9
						C103.7,42.8,101.8,41.1,101.8,36.9z"/>
					<path class="st2" d="M114.5,36.9V30h2.5v7.1c0,2.6,0.9,3.5,2.4,3.5s2.4-0.9,2.4-3.5V30h2.4v6.9c0,4.2-1.8,5.9-4.8,5.9
						C116.3,42.8,114.5,41.1,114.5,36.9z"/>
					<path class="st2" d="M131,30.1h2.5v12.5H131V30.1z"/>
					<path class="st2" d="M136.4,33.1h2l0.2,1.3h0.1c0.8-0.8,1.8-1.5,3.1-1.5c2,0,2.9,1.4,2.9,3.8v5.9h-2.5V37c0-1.5-0.4-2-1.3-2
						c-0.8,0-1.3,0.4-2,1.1v6.5h-2.5V33.1z"/>
					<path class="st2" d="M146.7,37.8c0-3.1,1.9-5,4-5c1.1,0,1.7,0.4,2.4,1l-0.1-1.5V29h2.5v13.5h-2l-0.2-1h-0.1
						c-0.7,0.7-1.6,1.2-2.6,1.2C148.2,42.8,146.7,40.9,146.7,37.8z M152.9,39.8v-4.2c-0.6-0.5-1.2-0.7-1.8-0.7c-1.1,0-2,1-2,2.9
						c0,2,0.7,2.9,2,2.9C151.8,40.7,152.4,40.5,152.9,39.8z"/>
					<path class="st2" d="M157.5,37.8c0-3.1,2.1-5,4.4-5c2.6,0,4,1.9,4,4.5c0,0.5-0.1,0.9-0.1,1.1H160c0.2,1.6,1.2,2.4,2.6,2.4
						c0.8,0,1.5-0.2,2.1-0.7l0.8,1.5c-0.9,0.6-2.1,1-3.3,1C159.5,42.8,157.5,40.9,157.5,37.8z M163.7,36.9c0-1.3-0.6-2.1-1.8-2.1
						c-1,0-1.9,0.7-2.1,2.1H163.7z"/>
					<path class="st2" d="M169.5,37.6l-2.8-4.5h2.7l0.9,1.7c0.3,0.5,0.6,1.1,0.8,1.6h0.1c0.2-0.5,0.5-1.1,0.7-1.6l0.8-1.7h2.6
						l-2.8,4.8l3,4.6h-2.7l-1-1.7c-0.3-0.6-0.6-1.1-0.9-1.7h-0.1c-0.3,0.5-0.5,1.1-0.8,1.7l-0.9,1.7h-2.6L169.5,37.6z"/>
					<path class="st2" d="M188.7,40.5h2.7v-7.9h-2.3v-1.5c1.2-0.2,2.1-0.6,2.9-1h1.8v10.5h2.3v2h-7.5v-2.1H188.7z"/>
					<path class="st2" d="M198,36.3c0-4.3,1.7-6.4,4.2-6.4s4.2,2.1,4.2,6.4s-1.7,6.5-4.2,6.5S198,40.6,198,36.3z M204.1,36.3
						c0-3.5-0.8-4.5-1.9-4.5c-1.1,0-1.9,1-1.9,4.5s0.8,4.6,1.9,4.6C203.3,40.8,204.1,39.8,204.1,36.3z"/>
					<path class="st2" d="M207.9,41.1c3.4-3,5.4-5.4,5.4-7.3c0-1.3-0.7-2-1.9-2c-0.9,0-1.7,0.6-2.3,1.3l-1.4-1.4
						c1.1-1.2,2.3-1.9,4-1.9c2.4,0,3.9,1.5,3.9,3.9c0,2.3-1.9,4.7-4.2,6.9c0.6-0.1,1.5-0.1,2-0.1h2.7v2.1h-8.4v-1.5H207.9z"/>
					<path class="st2" d="M218.3,41.2c0-0.9,0.7-1.6,1.5-1.6c0.9,0,1.6,0.7,1.6,1.6s-0.7,1.6-1.6,1.6
						C219,42.8,218.3,42.1,218.3,41.2z"/>
					<path class="st2" d="M232.1,39.3h-1.5v3.2h-2.3v-3.2H223v-1.7l4.7-7.6h3v7.4h1.5L232.1,39.3L232.1,39.3z M228.3,37.4v-2.6
						c0-0.7,0.1-1.9,0.1-2.6h-0.1c-0.3,0.7-0.6,1.4-1,2l-1.9,3.1L228.3,37.4L228.3,37.4z"/>
					<path class="st2" d="M234.8,39.9c0.5,0.5,1.2,0.9,2,0.9c1.4,0,2.6-1.1,2.7-4.2c-0.6,0.8-1.7,1.4-2.6,1.4
						c-2.1,0-3.6-1.3-3.6-3.9s1.8-4.2,3.9-4.2c2.4,0,4.5,1.9,4.5,6.2c0,4.7-2.3,6.8-4.8,6.8c-1.6,0-2.7-0.7-3.4-1.4L234.8,39.9z
						 M239.4,34.8c-0.2-2.3-1.1-3.1-2.1-3.1c-0.9,0-1.7,0.8-1.7,2.3s0.7,2.2,1.8,2.2C238,36.2,238.8,35.8,239.4,34.8z"/>
				</g>
			</g>
		</g>
		<g>
			<g>
				<rect x="22.3" y="56.3" class="st3" width="10" height="10"/>
				<g class="st7">
					<path class="st3" d="M40.3,55.1h2.5v10.4h5.1v2.1h-7.6V55.1z"/>
					<path class="st3" d="M49.3,61.9V55h2.5v7.1c0,2.6,0.9,3.5,2.4,3.5s2.4-0.9,2.4-3.5V55H59v6.9c0,4.2-1.8,5.9-4.8,5.9
						C51.1,67.8,49.3,66.1,49.3,61.9z"/>
					<path class="st3" d="M67.6,64.3h-4.1l-0.9,3.2h-2.5l4-12.5H67l4,12.5h-2.6L67.6,64.3z M67.1,62.4L66.7,61
						c-0.4-1.3-0.7-2.7-1.1-4.1h-0.1c-0.3,1.4-0.7,2.8-1.1,4.1L64,62.4H67.1z"/>
					<path class="st3" d="M71.8,61.4c0-4.1,2.7-6.5,5.8-6.5c1.6,0,2.9,0.8,3.7,1.6L79.9,58c-0.6-0.6-1.4-1-2.3-1
						c-1.9,0-3.3,1.6-3.3,4.3s1.3,4.4,3.3,4.4c1.1,0,1.9-0.5,2.6-1.2l1.3,1.6c-1,1.2-2.4,1.8-4,1.8C74.3,67.8,71.8,65.5,71.8,61.4z"
						/>
					<path class="st3" d="M85.7,57.1h-3.5V55h9.6v2.1h-3.5v10.4h-2.5L85.7,57.1L85.7,57.1z"/>
					<path class="st3" d="M100.6,67.6L98,62.8h-1.7v4.7h-2.5V55.1h4.4c2.6,0,4.7,0.9,4.7,3.8c0,1.9-0.9,3-2.4,3.6l2.9,5.1H100.6z
						 M96.3,60.8h1.6c1.6,0,2.5-0.7,2.5-2c0-1.4-0.9-1.8-2.5-1.8h-1.6V60.8z"/>
					<path class="st3" d="M105.2,61.9V55h2.5v7.1c0,2.6,0.9,3.5,2.4,3.5s2.4-0.9,2.4-3.5V55h2.4v6.9c0,4.2-1.8,5.9-4.8,5.9
						C107,67.8,105.2,66.1,105.2,61.9z"/>
					<path class="st3" d="M117.9,61.9V55h2.5v7.1c0,2.6,0.9,3.5,2.4,3.5s2.4-0.9,2.4-3.5V55h2.4v6.9c0,4.2-1.8,5.9-4.8,5.9
						C119.7,67.8,117.9,66.1,117.9,61.9z"/>
					<path class="st3" d="M134.4,55.1h2.5v12.5h-2.5V55.1z"/>
					<path class="st3" d="M139.8,58.1h2l0.2,1.3h0.1c0.8-0.8,1.8-1.5,3.1-1.5c2,0,2.9,1.4,2.9,3.8v5.9h-2.5V62c0-1.5-0.4-2-1.3-2
						c-0.8,0-1.3,0.4-2,1.1v6.5h-2.5V58.1z"/>
					<path class="st3" d="M150.1,62.8c0-3.1,1.9-5,4-5c1.1,0,1.7,0.4,2.4,1l-0.1-1.5V54h2.5v13.5h-2l-0.2-1h-0.1
						c-0.7,0.7-1.6,1.2-2.6,1.2C151.6,67.8,150.1,65.9,150.1,62.8z M156.3,64.8v-4.2c-0.6-0.5-1.2-0.7-1.8-0.7c-1.1,0-2,1-2,2.9
						c0,2,0.7,2.9,2,2.9C155.2,65.7,155.8,65.5,156.3,64.8z"/>
					<path class="st3" d="M160.9,62.8c0-3.1,2.1-5,4.4-5c2.6,0,4,1.9,4,4.5c0,0.5-0.1,0.9-0.1,1.1h-5.8c0.2,1.6,1.2,2.4,2.6,2.4
						c0.8,0,1.5-0.2,2.1-0.7l0.8,1.5c-0.9,0.6-2.1,1-3.3,1C162.9,67.8,160.9,66,160.9,62.8z M167.1,61.9c0-1.3-0.6-2.1-1.8-2.1
						c-1,0-1.9,0.7-2.1,2.1H167.1z"/>
					<path class="st3" d="M172.9,62.6l-2.8-4.5h2.7l0.9,1.7c0.3,0.5,0.6,1.1,0.8,1.6h0.1c0.2-0.5,0.5-1.1,0.7-1.6l0.8-1.7h2.6
						l-2.8,4.8l3,4.6h-2.7l-1-1.7c-0.3-0.6-0.6-1.1-0.9-1.7h-0.1c-0.3,0.5-0.5,1.1-0.8,1.7l-0.9,1.7H170L172.9,62.6z"/>
					<path class="st3" d="M192.1,65.5h2.7v-7.9h-2.3v-1.5c1.2-0.2,2.1-0.6,2.9-1h1.8v10.5h2.3v2H192v-2.1H192.1z"/>
					<path class="st3" d="M201.4,61.3c0-4.3,1.7-6.4,4.2-6.4s4.2,2.1,4.2,6.4s-1.7,6.5-4.2,6.5C203.1,67.8,201.4,65.6,201.4,61.3z
						 M207.5,61.3c0-3.5-0.8-4.5-1.9-4.5c-1.1,0-1.9,1-1.9,4.5c0,3.5,0.8,4.6,1.9,4.6C206.7,65.8,207.5,64.8,207.5,61.3z"/>
					<path class="st3" d="M211.3,61.3c0-4.3,1.7-6.4,4.2-6.4s4.2,2.1,4.2,6.4s-1.7,6.5-4.2,6.5S211.3,65.6,211.3,61.3z M217.4,61.3
						c0-3.5-0.8-4.5-1.9-4.5c-1.1,0-1.9,1-1.9,4.5c0,3.5,0.8,4.6,1.9,4.6C216.6,65.8,217.4,64.8,217.4,61.3z"/>
					<path class="st3" d="M221.7,66.2c0-0.9,0.7-1.6,1.5-1.6c0.9,0,1.6,0.7,1.6,1.6s-0.7,1.6-1.6,1.6
						C222.4,67.8,221.7,67.1,221.7,66.2z"/>
					<path class="st3" d="M226.5,66.1l1.2-1.6c0.7,0.7,1.7,1.3,2.8,1.3c1.3,0,2.1-0.6,2.1-1.7c0-1.2-0.7-2-3.4-2v-1.8
						c2.3,0,3-0.8,3-1.9c0-1-0.6-1.6-1.7-1.6c-0.9,0-1.6,0.4-2.4,1.1l-1.3-1.5c1.1-0.9,2.3-1.5,3.7-1.5c2.4,0,4.1,1.2,4.1,3.3
						c0,1.4-0.8,2.3-2.1,2.9v0.1c1.4,0.4,2.5,1.4,2.5,3.1c0,2.3-2,3.6-4.4,3.6C228.7,67.8,227.3,67,226.5,66.1z"/>
					<path class="st3" d="M236.8,64.4c0-1.6,1-2.6,2.1-3.3V61c-1-0.7-1.7-1.6-1.7-3c0-2,1.6-3.3,3.8-3.3s3.6,1.3,3.6,3.3
						c0,1.2-0.8,2.3-1.6,2.9V61c1.1,0.6,2.1,1.6,2.1,3.3c0,1.9-1.7,3.3-4.2,3.3C238.6,67.8,236.8,66.4,236.8,64.4z M242.8,64.4
						c0-1.3-1.1-1.8-2.8-2.5c-0.7,0.5-1.1,1.4-1.1,2.3c0,1.1,0.9,1.9,2.1,1.9C242.1,66,242.8,65.4,242.8,64.4z M242.6,58.3
						c0-1-0.6-1.7-1.7-1.7c-0.8,0-1.5,0.6-1.5,1.6c0,1.2,1,1.8,2.3,2.3C242.3,59.8,242.6,59.1,242.6,58.3z"/>
				</g>
			</g>
		</g>
	</g>
	<g class="st7">
		<path class="st4" d="M31.2,162.2c3.9-3.4,5.7-5.9,5.7-8c0-1.4-0.7-2.5-2.3-2.5c-1,0-1.9,0.6-2.6,1.4l-0.9-0.9
			c1-1.1,2.1-1.8,3.6-1.8c2.2,0,3.6,1.5,3.6,3.7c0,2.5-1.9,5-4.8,7.7c0.6-0.1,1.4-0.1,2-0.1H39v1.3h-7.8V162.2z"/>
		<path class="st4" d="M40.7,156.9c0-4.3,1.5-6.4,3.9-6.4c2.3,0,3.9,2.1,3.9,6.4c0,4.3-1.5,6.5-3.9,6.5
			C42.2,163.3,40.7,161.2,40.7,156.9z M46.9,156.9c0-3.6-0.9-5.1-2.3-5.1c-1.4,0-2.4,1.5-2.4,5.1s0.9,5.2,2.4,5.2
			C46,162.1,46.9,160.5,46.9,156.9z"/>
		<path class="st4" d="M50.7,161.8h2.8v-9.2h-2.2v-1c1.1-0.2,1.9-0.5,2.6-0.9H55v11.1h2.5v1.3h-6.8V161.8z"/>
		<path class="st4" d="M59.4,160c0-1.7,1.1-2.8,2.3-3.4v-0.1c-0.9-0.6-1.7-1.6-1.7-2.9c0-1.9,1.5-3.1,3.4-3.1c2.1,0,3.4,1.4,3.4,3.3
			c0,1.3-0.9,2.4-1.7,3v0.1c1.1,0.6,2.1,1.6,2.1,3.2c0,1.8-1.6,3.2-3.9,3.2C61.1,163.3,59.4,161.9,59.4,160z M65.8,160.1
			c0-1.7-1.5-2.3-3.3-3c-1,0.6-1.7,1.6-1.7,2.8c0,1.3,1.1,2.3,2.6,2.3C64.8,162.2,65.8,161.3,65.8,160.1z M65.5,153.9
			c0-1.2-0.8-2.2-2.1-2.2c-1.1,0-2,0.8-2,2c0,1.5,1.3,2.1,2.8,2.7C65,155.6,65.5,154.8,65.5,153.9z"/>
		<path class="st4" d="M73.3,149.7h1.1l-5.1,16.4h-1.1L73.3,149.7z"/>
		<path class="st4" d="M75.1,161.6l0.8-1c0.7,0.8,1.7,1.4,3.1,1.4c1.5,0,2.5-0.9,2.5-2.3c0-1.5-1-2.5-3.9-2.5V156
			c2.6,0,3.4-1,3.4-2.4c0-1.2-0.8-2-2.1-2c-1,0-1.9,0.5-2.6,1.2l-0.8-1c0.9-0.9,2-1.5,3.5-1.5c2.1,0,3.6,1.1,3.6,3.1
			c0,1.5-0.9,2.5-2.2,3v0.1c1.5,0.3,2.6,1.5,2.6,3.1c0,2.2-1.8,3.5-4,3.5C77.1,163.3,75.9,162.5,75.1,161.6z"/>
		<path class="st4" d="M89.3,149.7h1.1l-5.1,16.4h-1.1L89.3,149.7z"/>
		<path class="st4" d="M92.1,161.8h2.8v-9.2h-2.2v-1c1.1-0.2,1.9-0.5,2.6-0.9h1.2v11.1H99v1.3h-6.8L92.1,161.8L92.1,161.8z"/>
		<path class="st4" d="M100.6,154.3h8.1v1.1h-8.1V154.3z M100.6,158.3h8.1v1.1h-8.1V158.3z"/>
		<path class="st4" d="M110.9,161.8h2.8v-9.2h-2.2v-1c1.1-0.2,1.9-0.5,2.6-0.9h1.2v11.1h2.5v1.3H111L110.9,161.8L110.9,161.8z"/>
		<path class="st4" d="M119.6,156.9c0-4.3,1.5-6.4,3.9-6.4c2.3,0,3.9,2.1,3.9,6.4c0,4.3-1.5,6.5-3.9,6.5
			C121.1,163.3,119.6,161.2,119.6,156.9z M125.8,156.9c0-3.6-0.9-5.1-2.3-5.1s-2.4,1.5-2.4,5.1s0.9,5.2,2.4,5.2
			C124.8,162.1,125.8,160.5,125.8,156.9z"/>
		<path class="st4" d="M129,156.9c0-4.3,1.5-6.4,3.9-6.4c2.3,0,3.9,2.1,3.9,6.4c0,4.3-1.5,6.5-3.9,6.5
			C130.5,163.3,129,161.2,129,156.9z M135.2,156.9c0-3.6-0.9-5.1-2.3-5.1c-1.4,0-2.4,1.5-2.4,5.1s0.9,5.2,2.4,5.2
			C134.2,162.1,135.2,160.5,135.2,156.9z"/>
	</g>
	<line class="st8" x1="0" y1="332.5" x2="894.9" y2="332.5"/>
	<g class="st9">
		<line class="st10" x1="0" y1="56.7" x2="894.9" y2="56.7"/>
		<line class="st10" x1="0" y1="122.1" x2="894.9" y2="122.1"/>
		<line class="st10" x1="0" y1="188.6" x2="894.9" y2="188.6"/>
		<line class="st10" x1="0" y1="255.1" x2="894.9" y2="255.1"/>
		<line class="st10" x1="0" y1="321.5" x2="894.9" y2="321.5"/>
		<line class="st10" x1="820" y1="0" x2="820" y2="335.7"/>
		<line class="st10" x1="743" y1="0" x2="743" y2="335.7"/>
		<line class="st10" x1="665.5" y1="0" x2="665.5" y2="335.7"/>
		<line class="st10" x1="595.5" y1="0" x2="595.5" y2="335.7"/>
		<line class="st10" x1="525.5" y1="0" x2="525.5" y2="335.7"/>
		<line class="st10" x1="448.5" y1="0" x2="448.5" y2="335.7"/>
		<line class="st10" x1="371.5" y1="0" x2="371.5" y2="335.7"/>
		<line class="st10" x1="294" y1="0" x2="294" y2="335.7"/>
		<line class="st10" x1="224" y1="0" x2="224" y2="335.7"/>
		<line class="st10" x1="147" y1="0" x2="147" y2="335.7"/>
		<line class="st10" x1="70.5" y1="0" x2="70.5" y2="335.7"/>
	</g>
	<g>
		<g>
			<g>
				<path class="st4" d="M53.2,346.8l0.7-0.9c0.5,0.5,1.2,1,2.1,1c1,0,1.7-0.6,1.7-1.5c0-1-0.6-1.6-2.6-1.6v-1
					c1.7,0,2.3-0.7,2.3-1.5S56.9,340,56,340c-0.7,0-1.3,0.3-1.8,0.8l-0.7-0.9c0.7-0.6,1.5-1.1,2.5-1.1c1.6,0,2.7,0.8,2.7,2.3
					c0,1-0.6,1.7-1.5,2.1v0.1c1,0.3,1.8,1,1.8,2.2c0,1.6-1.3,2.5-3,2.5C54.7,348,53.8,347.5,53.2,346.8z"/>
				<path class="st4" d="M69.6,347.3c0,0.7-0.2,1.1-0.7,1.2c-0.5,0.2-1.3,0.2-2.6,0.2c-0.1-0.3-0.3-0.9-0.5-1.2c0.9,0,1.9,0,2.2,0
					c0.3,0,0.4-0.1,0.4-0.3v-2.1H63c-0.3,1.3-0.9,2.7-2.1,3.6c-0.2-0.2-0.6-0.6-0.9-0.8c1.9-1.6,2.1-4,2.1-5.8v-3.8h7.5V347.3z
					 M68.4,344.1v-1.8h-5.2c0,0.6,0,1.2-0.1,1.8H68.4z M63.3,339.5v1.8h5.2v-1.8H63.3z"/>
				<path class="st4" d="M75.5,346.7h1.9v-6.1h-1.6v-0.9c0.8-0.2,1.4-0.4,1.9-0.7h1v7.7h1.7v1.1h-5L75.5,346.7L75.5,346.7z"/>
				<path class="st4" d="M81.6,346.8l0.7-0.9c0.5,0.5,1.1,0.9,2.1,0.9s1.8-0.7,1.8-1.9c0-1.2-0.7-1.8-1.7-1.8
					c-0.6,0-0.9,0.2-1.4,0.5l-0.7-0.4l0.3-4.2H87v1.2h-3.3l-0.2,2.3c0.4-0.2,0.7-0.3,1.2-0.3c1.5,0,2.7,0.9,2.7,2.8
					c0,2-1.4,3.1-3,3.1C83.1,348,82.2,347.5,81.6,346.8z"/>
			</g>
		</g>
		<g>
			<g>
				<path class="st4" d="M129.7,346.8l0.7-0.9c0.5,0.5,1.2,1,2.1,1c1,0,1.7-0.6,1.7-1.5c0-1-0.6-1.6-2.6-1.6v-1
					c1.7,0,2.3-0.7,2.3-1.5s-0.5-1.3-1.4-1.3c-0.7,0-1.3,0.3-1.8,0.8l-0.7-0.9c0.7-0.6,1.5-1.1,2.5-1.1c1.6,0,2.7,0.8,2.7,2.3
					c0,1-0.6,1.7-1.5,2.1v0.1c1,0.3,1.8,1,1.8,2.2c0,1.6-1.3,2.5-3,2.5C131.2,348,130.3,347.5,129.7,346.8z"/>
				<path class="st4" d="M146.1,347.3c0,0.7-0.2,1.1-0.7,1.2c-0.5,0.2-1.3,0.2-2.6,0.2c-0.1-0.3-0.3-0.9-0.5-1.2c0.9,0,1.9,0,2.2,0
					s0.4-0.1,0.4-0.3v-2.1h-5.4c-0.3,1.3-0.9,2.7-2.1,3.6c-0.2-0.2-0.6-0.6-0.9-0.8c1.9-1.6,2.1-4,2.1-5.8v-3.8h7.5V347.3z
					 M144.9,344.1v-1.8h-5.2c0,0.6,0,1.2-0.1,1.8H144.9z M139.8,339.5v1.8h5.2v-1.8H139.8z"/>
				<path class="st4" d="M151.3,346.8l0.7-0.9c0.5,0.5,1.2,1,2.1,1c1,0,1.7-0.6,1.7-1.5c0-1-0.6-1.6-2.6-1.6v-1
					c1.7,0,2.3-0.7,2.3-1.5s-0.5-1.3-1.4-1.3c-0.7,0-1.3,0.3-1.8,0.8l-0.7-0.9c0.7-0.6,1.5-1.1,2.5-1.1c1.6,0,2.7,0.8,2.7,2.3
					c0,1-0.6,1.7-1.5,2.1v0.1c1,0.3,1.8,1,1.8,2.2c0,1.6-1.3,2.5-3,2.5C152.8,348,151.9,347.5,151.3,346.8z"/>
				<path class="st4" d="M158.3,343.4c0-3.1,1.1-4.5,2.9-4.5c1.7,0,2.9,1.5,2.9,4.5c0,3.1-1.1,4.6-2.9,4.6
					C159.4,348,158.3,346.5,158.3,343.4z M162.7,343.4c0-2.5-0.6-3.5-1.5-3.5s-1.5,0.9-1.5,3.5s0.6,3.5,1.5,3.5
					S162.7,346,162.7,343.4z"/>
			</g>
		</g>
		<g>
			<g>
				<path class="st4" d="M212.9,345.5h-1.1v2.4h-1.3v-2.4h-3.8v-0.9l3.5-5.5h1.6v5.4h1.1V345.5z M210.4,344.4v-2.3
					c0-0.5,0-1.2,0.1-1.7l0,0c-0.2,0.4-0.5,0.9-0.7,1.4l-1.7,2.7h2.3V344.4z"/>
				<path class="st4" d="M223.1,347.3c0,0.7-0.2,1.1-0.7,1.2c-0.5,0.2-1.3,0.2-2.6,0.2c-0.1-0.3-0.3-0.9-0.5-1.2c0.9,0,1.9,0,2.2,0
					s0.4-0.1,0.4-0.3v-2.1h-5.4c-0.3,1.3-0.9,2.7-2.1,3.6c-0.2-0.2-0.6-0.6-0.9-0.8c1.9-1.6,2.1-4,2.1-5.8v-3.8h7.5V347.3z
					 M221.9,344.1v-1.8h-5.2c0,0.6,0,1.2-0.1,1.8H221.9z M216.8,339.5v1.8h5.2v-1.8H216.8z"/>
				<path class="st4" d="M229,346.7h1.9v-6.1h-1.6v-0.9c0.8-0.2,1.4-0.4,1.9-0.7h1v7.7h1.7v1.1h-5v-1.1H229z"/>
				<path class="st4" d="M240.2,340.7c-0.3-0.4-0.9-0.7-1.4-0.7c-1.1,0-2.1,0.9-2.1,3.4c0.5-0.6,1.3-1,1.9-1c1.5,0,2.5,0.9,2.5,2.8
					c0,1.8-1.2,2.9-2.6,2.9c-1.7,0-3-1.4-3-4.4c0-3.4,1.6-4.8,3.3-4.8c1,0,1.7,0.4,2.2,0.9L240.2,340.7z M239.8,345.1
					c0-1.1-0.5-1.8-1.5-1.8c-0.5,0-1.1,0.3-1.6,1c0.1,1.8,0.8,2.6,1.7,2.6C239.2,347,239.8,346.3,239.8,345.1z"/>
			</g>
		</g>
		<g>
			<g>
				<path class="st4" d="M282.9,345.5h-1.1v2.4h-1.3v-2.4h-3.8v-0.9l3.5-5.5h1.6v5.4h1.1L282.9,345.5L282.9,345.5z M280.4,344.4
					v-2.3c0-0.5,0-1.2,0.1-1.7l0,0c-0.2,0.4-0.5,0.9-0.7,1.4l-1.7,2.7h2.3V344.4z"/>
				<path class="st4" d="M293.1,347.3c0,0.7-0.2,1.1-0.7,1.2c-0.5,0.2-1.3,0.2-2.6,0.2c-0.1-0.3-0.3-0.9-0.5-1.2c0.9,0,1.9,0,2.2,0
					c0.3,0,0.4-0.1,0.4-0.3v-2.1h-5.4c-0.3,1.3-0.9,2.7-2.1,3.6c-0.2-0.2-0.6-0.6-0.9-0.8c1.9-1.6,2.1-4,2.1-5.8v-3.8h7.5V347.3z
					 M291.9,344.1v-1.8h-5.2c0,0.6,0,1.2-0.1,1.8H291.9z M286.8,339.5v1.8h5.2v-1.8H286.8z"/>
				<path class="st4" d="M298.3,346.8l0.7-0.9c0.5,0.5,1.2,1,2.1,1c1,0,1.7-0.6,1.7-1.5c0-1-0.6-1.6-2.6-1.6v-1
					c1.7,0,2.3-0.7,2.3-1.5s-0.5-1.3-1.4-1.3c-0.7,0-1.3,0.3-1.8,0.8l-0.7-0.9c0.7-0.6,1.5-1.1,2.5-1.1c1.6,0,2.7,0.8,2.7,2.3
					c0,1-0.6,1.7-1.5,2.1v0.1c1,0.3,1.8,1,1.8,2.2c0,1.6-1.3,2.5-3,2.5C299.8,348,298.9,347.5,298.3,346.8z"/>
				<path class="st4" d="M305.3,343.4c0-3.1,1.1-4.5,2.9-4.5c1.7,0,2.9,1.5,2.9,4.5c0,3.1-1.1,4.6-2.9,4.6S305.3,346.5,305.3,343.4z
					 M309.7,343.4c0-2.5-0.6-3.5-1.5-3.5s-1.5,0.9-1.5,3.5s0.6,3.5,1.5,3.5S309.7,346,309.7,343.4z"/>
			</g>
		</g>
		<g>
			<g>
				<path class="st4" d="M354.2,346.8l0.7-0.9c0.5,0.5,1.1,0.9,2.1,0.9s1.8-0.7,1.8-1.9c0-1.2-0.7-1.8-1.7-1.8
					c-0.6,0-0.9,0.2-1.4,0.5l-0.7-0.4l0.3-4.2h4.5v1.2h-3.3l-0.2,2.3c0.4-0.2,0.7-0.3,1.2-0.3c1.5,0,2.7,0.9,2.7,2.8
					c0,2-1.4,3.1-3,3.1C355.7,348,354.8,347.5,354.2,346.8z"/>
				<path class="st4" d="M370.6,347.3c0,0.7-0.2,1.1-0.7,1.2c-0.5,0.2-1.3,0.2-2.6,0.2c-0.1-0.3-0.3-0.9-0.5-1.2c0.9,0,1.9,0,2.2,0
					c0.3,0,0.4-0.1,0.4-0.3v-2.1H364c-0.3,1.3-0.9,2.7-2.1,3.6c-0.2-0.2-0.6-0.6-0.9-0.8c1.9-1.6,2.1-4,2.1-5.8v-3.8h7.5V347.3z
					 M369.4,344.1v-1.8h-5.2c0,0.6,0,1.2-0.1,1.8H369.4z M364.3,339.5v1.8h5.2v-1.8H364.3z"/>
				<path class="st4" d="M376.5,346.7h1.9v-6.1h-1.6v-0.9c0.8-0.2,1.4-0.4,1.9-0.7h1v7.7h1.7v1.1h-5v-1.1H376.5z"/>
				<path class="st4" d="M382.6,346.8l0.7-0.9c0.5,0.5,1.1,0.9,2.1,0.9s1.8-0.7,1.8-1.9c0-1.2-0.7-1.8-1.7-1.8
					c-0.6,0-0.9,0.2-1.4,0.5l-0.7-0.4l0.3-4.2h4.5v1.2h-3.3l-0.2,2.3c0.4-0.2,0.7-0.3,1.2-0.3c1.5,0,2.7,0.9,2.7,2.8
					c0,2-1.4,3.1-3,3.1C384.1,348,383.2,347.5,382.6,346.8z"/>
			</g>
		</g>
		<g>
			<g>
				<path class="st4" d="M431.2,346.8l0.7-0.9c0.5,0.5,1.1,0.9,2.1,0.9s1.8-0.7,1.8-1.9c0-1.2-0.7-1.8-1.7-1.8
					c-0.6,0-0.9,0.2-1.4,0.5l-0.7-0.4l0.3-4.2h4.5v1.2h-3.3l-0.2,2.3c0.4-0.2,0.7-0.3,1.2-0.3c1.5,0,2.7,0.9,2.7,2.8
					c0,2-1.4,3.1-3,3.1C432.7,348,431.8,347.5,431.2,346.8z"/>
				<path class="st4" d="M447.6,347.3c0,0.7-0.2,1.1-0.7,1.2c-0.5,0.2-1.3,0.2-2.6,0.2c-0.1-0.3-0.3-0.9-0.5-1.2c0.9,0,1.9,0,2.2,0
					c0.3,0,0.4-0.1,0.4-0.3v-2.1H441c-0.3,1.3-0.9,2.7-2.1,3.6c-0.2-0.2-0.6-0.6-0.9-0.8c1.9-1.6,2.1-4,2.1-5.8v-3.8h7.5V347.3z
					 M446.4,344.1v-1.8h-5.2c0,0.6,0,1.2-0.1,1.8H446.4z M441.3,339.5v1.8h5.2v-1.8H441.3z"/>
				<path class="st4" d="M452.8,346.8l0.7-0.9c0.5,0.5,1.2,1,2.1,1c1,0,1.7-0.6,1.7-1.5c0-1-0.6-1.6-2.6-1.6v-1
					c1.7,0,2.3-0.7,2.3-1.5s-0.5-1.3-1.4-1.3c-0.7,0-1.3,0.3-1.8,0.8l-0.7-0.9c0.7-0.6,1.5-1.1,2.5-1.1c1.6,0,2.7,0.8,2.7,2.3
					c0,1-0.6,1.7-1.5,2.1v0.1c1,0.3,1.8,1,1.8,2.2c0,1.6-1.3,2.5-3,2.5C454.3,348,453.4,347.5,452.8,346.8z"/>
				<path class="st4" d="M460.3,346.7h1.9v-6.1h-1.6v-0.9c0.8-0.2,1.4-0.4,1.9-0.7h1v7.7h1.7v1.1h-5v-1.1H460.3z"/>
			</g>
		</g>
		<g>
			<g>
				<path class="st4" d="M513.3,340.7c-0.3-0.4-0.9-0.7-1.4-0.7c-1.1,0-2.1,0.9-2.1,3.4c0.5-0.6,1.3-1,1.9-1c1.5,0,2.5,0.9,2.5,2.8
					c0,1.8-1.2,2.9-2.6,2.9c-1.7,0-3-1.4-3-4.4c0-3.4,1.6-4.8,3.3-4.8c1,0,1.7,0.4,2.2,0.9L513.3,340.7z M512.9,345.1
					c0-1.1-0.5-1.8-1.5-1.8c-0.5,0-1.1,0.3-1.6,1c0.1,1.8,0.8,2.6,1.7,2.6C512.3,347,512.9,346.3,512.9,345.1z"/>
				<path class="st4" d="M524.6,347.3c0,0.7-0.2,1.1-0.7,1.2c-0.5,0.2-1.3,0.2-2.6,0.2c-0.1-0.3-0.3-0.9-0.5-1.2c0.9,0,1.9,0,2.2,0
					s0.4-0.1,0.4-0.3v-2.1H518c-0.3,1.3-0.9,2.7-2.1,3.6c-0.2-0.2-0.6-0.6-0.9-0.8c1.9-1.6,2.1-4,2.1-5.8v-3.8h7.5V347.3z
					 M523.4,344.1v-1.8h-5.2c0,0.6,0,1.2-0.1,1.8H523.4z M518.3,339.5v1.8h5.2v-1.8H518.3z"/>
				<path class="st4" d="M530.5,346.7h1.9v-6.1h-1.6v-0.9c0.8-0.2,1.4-0.4,1.9-0.7h1v7.7h1.7v1.1h-5L530.5,346.7L530.5,346.7z"/>
				<path class="st4" d="M536.6,346.8l0.7-0.9c0.5,0.5,1.1,0.9,2.1,0.9s1.8-0.7,1.8-1.9c0-1.2-0.7-1.8-1.7-1.8
					c-0.6,0-0.9,0.2-1.4,0.5l-0.7-0.4l0.3-4.2h4.5v1.2h-3.3l-0.2,2.3c0.4-0.2,0.7-0.3,1.2-0.3c1.5,0,2.7,0.9,2.7,2.8
					c0,2-1.4,3.1-3,3.1C538.1,348,537.2,347.5,536.6,346.8z"/>
			</g>
		</g>
		<g>
			<g>
				<path class="st4" d="M583.3,340.7c-0.3-0.4-0.9-0.7-1.4-0.7c-1.1,0-2.1,0.9-2.1,3.4c0.5-0.6,1.3-1,1.9-1c1.5,0,2.5,0.9,2.5,2.8
					c0,1.8-1.2,2.9-2.6,2.9c-1.7,0-3-1.4-3-4.4c0-3.4,1.6-4.8,3.3-4.8c1,0,1.7,0.4,2.2,0.9L583.3,340.7z M582.9,345.1
					c0-1.1-0.5-1.8-1.5-1.8c-0.5,0-1.1,0.3-1.6,1c0.1,1.8,0.8,2.6,1.7,2.6C582.3,347,582.9,346.3,582.9,345.1z"/>
				<path class="st4" d="M594.6,347.3c0,0.7-0.2,1.1-0.7,1.2c-0.5,0.2-1.3,0.2-2.6,0.2c-0.1-0.3-0.3-0.9-0.5-1.2c0.9,0,1.9,0,2.2,0
					s0.4-0.1,0.4-0.3v-2.1H588c-0.3,1.3-0.9,2.7-2.1,3.6c-0.2-0.2-0.6-0.6-0.9-0.8c1.9-1.6,2.1-4,2.1-5.8v-3.8h7.5V347.3z
					 M593.4,344.1v-1.8h-5.2c0,0.6,0,1.2-0.1,1.8H593.4z M588.3,339.5v1.8h5.2v-1.8H588.3z"/>
				<path class="st4" d="M600,347.1c2.6-2.3,3.9-4,3.9-5.5c0-1-0.5-1.6-1.5-1.6c-0.7,0-1.3,0.4-1.7,1l-0.8-0.8
					c0.8-0.8,1.5-1.3,2.7-1.3c1.6,0,2.7,1.1,2.7,2.7c0,1.7-1.4,3.5-3.2,5.3c0.5,0,1-0.1,1.4-0.1h2.2v1.2H600V347.1z"/>
				<path class="st4" d="M607.7,346.2c0.3,0.4,0.9,0.7,1.5,0.7c1.1,0,2-0.9,2.1-3.4c-0.5,0.6-1.3,1-1.9,1c-1.5,0-2.5-0.9-2.5-2.8
					c0-1.8,1.2-2.9,2.6-2.9c1.7,0,3.1,1.4,3.1,4.3c0,3.5-1.6,4.9-3.3,4.9c-1,0-1.7-0.4-2.3-0.9L607.7,346.2z M611.2,342.5
					c-0.1-1.7-0.8-2.5-1.8-2.5c-0.8,0-1.4,0.7-1.4,1.8c0,1.1,0.5,1.8,1.4,1.8C610,343.5,610.6,343.2,611.2,342.5z"/>
			</g>
		</g>
		<g>
			<g>
				<path class="st4" d="M652.6,340.2h-4.1V339h5.7v0.8c-2.1,2.6-2.4,4.5-2.5,8h-1.4C650.4,344.6,650.9,342.6,652.6,340.2z"/>
				<path class="st4" d="M664.6,347.3c0,0.7-0.2,1.1-0.7,1.2c-0.5,0.2-1.3,0.2-2.6,0.2c-0.1-0.3-0.3-0.9-0.5-1.2c0.9,0,1.9,0,2.2,0
					s0.4-0.1,0.4-0.3v-2.1H658c-0.3,1.3-0.9,2.7-2.1,3.6c-0.2-0.2-0.6-0.6-0.9-0.8c1.9-1.6,2.1-4,2.1-5.8v-3.8h7.5V347.3z
					 M663.4,344.1v-1.8h-5.2c0,0.6,0,1.2-0.1,1.8H663.4z M658.3,339.5v1.8h5.2v-1.8H658.3z"/>
				<path class="st4" d="M670.5,346.7h1.9v-6.1h-1.6v-0.9c0.8-0.2,1.4-0.4,1.9-0.7h1v7.7h1.7v1.1h-5L670.5,346.7L670.5,346.7z"/>
				<path class="st4" d="M681.7,340.7c-0.3-0.4-0.9-0.7-1.4-0.7c-1.1,0-2.1,0.9-2.1,3.4c0.5-0.6,1.3-1,1.9-1c1.5,0,2.5,0.9,2.5,2.8
					c0,1.8-1.2,2.9-2.6,2.9c-1.7,0-3-1.4-3-4.4c0-3.4,1.6-4.8,3.3-4.8c1,0,1.7,0.4,2.2,0.9L681.7,340.7z M681.3,345.1
					c0-1.1-0.5-1.8-1.5-1.8c-0.5,0-1.1,0.3-1.6,1c0.1,1.8,0.8,2.6,1.7,2.6C680.7,347,681.3,346.3,681.3,345.1z"/>
			</g>
		</g>
		<g>
			<g>
				<path class="st4" d="M730.1,340.2H726V339h5.7v0.8c-2.1,2.6-2.4,4.5-2.5,8h-1.4C727.9,344.6,728.4,342.6,730.1,340.2z"/>
				<path class="st4" d="M742.1,347.3c0,0.7-0.2,1.1-0.7,1.2c-0.5,0.2-1.3,0.2-2.6,0.2c-0.1-0.3-0.3-0.9-0.5-1.2c0.9,0,1.9,0,2.2,0
					s0.4-0.1,0.4-0.3v-2.1h-5.4c-0.3,1.3-0.9,2.7-2.1,3.6c-0.2-0.2-0.6-0.6-0.9-0.8c1.9-1.6,2.1-4,2.1-5.8v-3.8h7.5V347.3z
					 M740.9,344.1v-1.8h-5.2c0,0.6,0,1.2-0.1,1.8H740.9z M735.8,339.5v1.8h5.2v-1.8H735.8z"/>
				<path class="st4" d="M747.3,346.8l0.7-0.9c0.5,0.5,1.2,1,2.1,1c1,0,1.7-0.6,1.7-1.5c0-1-0.6-1.6-2.6-1.6v-1
					c1.7,0,2.3-0.7,2.3-1.5s-0.5-1.3-1.4-1.3c-0.7,0-1.3,0.3-1.8,0.8l-0.7-0.9c0.7-0.6,1.5-1.1,2.5-1.1c1.6,0,2.7,0.8,2.7,2.3
					c0,1-0.6,1.7-1.5,2.1v0.1c1,0.3,1.8,1,1.8,2.2c0,1.6-1.3,2.5-2.9,2.5C748.8,348,747.9,347.5,747.3,346.8z"/>
				<path class="st4" d="M754.8,346.7h1.9v-6.1h-1.6v-0.9c0.8-0.2,1.4-0.4,1.9-0.7h1v7.7h1.7v1.1h-5L754.8,346.7L754.8,346.7z"/>
			</g>
		</g>
		<g>
			<g>
				<path class="st4" d="M802.9,345.7c0-1.2,0.8-1.9,1.6-2.4v-0.1c-0.7-0.5-1.2-1.1-1.2-2.1c0-1.4,1.1-2.3,2.5-2.3
					c1.5,0,2.5,1,2.5,2.3c0,0.9-0.6,1.7-1.2,2.1v0.1c0.8,0.5,1.5,1.1,1.5,2.3c0,1.3-1.2,2.3-2.9,2.3
					C804.2,348,802.9,347,802.9,345.7z M807.4,345.7c0-1.1-1-1.5-2.2-2c-0.6,0.4-1,1.1-1,1.8c0,0.9,0.7,1.5,1.7,1.5
					C806.7,347,807.4,346.5,807.4,345.7z M807.2,341.3c0-0.8-0.5-1.4-1.4-1.4c-0.7,0-1.3,0.5-1.3,1.3c0,1,0.8,1.4,1.8,1.8
					C806.9,342.5,807.2,341.9,807.2,341.3z"/>
				<path class="st4" d="M819.1,347.3c0,0.7-0.2,1.1-0.7,1.2c-0.5,0.2-1.3,0.2-2.6,0.2c-0.1-0.3-0.3-0.9-0.5-1.2c0.9,0,1.9,0,2.2,0
					s0.4-0.1,0.4-0.3v-2.1h-5.4c-0.3,1.3-0.9,2.7-2.1,3.6c-0.2-0.2-0.6-0.6-0.9-0.8c1.9-1.6,2.1-4,2.1-5.8v-3.8h7.5V347.3z
					 M817.9,344.1v-1.8h-5.2c0,0.6,0,1.2-0.1,1.8H817.9z M812.8,339.5v1.8h5.2v-1.8H812.8z"/>
				<path class="st4" d="M825,346.7h1.9v-6.1h-1.6v-0.9c0.8-0.2,1.4-0.4,1.9-0.7h1v7.7h1.7v1.1h-5L825,346.7L825,346.7z"/>
				<path class="st4" d="M831.1,346.8l0.7-0.9c0.5,0.5,1.1,0.9,2.1,0.9s1.8-0.7,1.8-1.9c0-1.2-0.7-1.8-1.7-1.8
					c-0.6,0-0.9,0.2-1.4,0.5l-0.7-0.4l0.3-4.2h4.5v1.2h-3.3l-0.2,2.3c0.4-0.2,0.7-0.3,1.2-0.3c1.5,0,2.7,0.9,2.7,2.8
					c0,2-1.4,3.1-3,3.1C832.6,348,831.7,347.5,831.1,346.8z"/>
			</g>
		</g>
	</g>
	<g>
		<g>
			<path class="st4" d="M434.9,370.9c2.4-2.2,3.8-3.8,3.8-5.2c0-0.9-0.5-1.4-1.3-1.4c-0.6,0-1.2,0.4-1.6,0.9l-1-1
				c0.8-0.9,1.6-1.3,2.8-1.3c1.7,0,2.8,1.1,2.8,2.7s-1.3,3.3-3,4.9c0.4,0,1-0.1,1.4-0.1h1.9v1.5h-5.9v-1H434.9z"/>
			<path class="st4" d="M442,367.4c0-3.1,1.2-4.6,3-4.6s3,1.5,3,4.6s-1.2,4.6-3,4.6S442,370.5,442,367.4z M446.3,367.4
				c0-2.5-0.6-3.2-1.3-3.2c-0.8,0-1.3,0.7-1.3,3.2s0.6,3.3,1.3,3.3C445.7,370.7,446.3,369.9,446.3,367.4z"/>
			<path class="st4" d="M449.5,370.4h1.9v-5.6h-1.6v-1.1c0.9-0.2,1.5-0.4,2.1-0.7h1.3v7.4h1.7v1.4h-5.3v-1.4H449.5z"/>
			<path class="st4" d="M456.1,369.7c0-1.1,0.7-1.9,1.5-2.3v-0.1c-0.7-0.5-1.2-1.2-1.2-2.1c0-1.4,1.1-2.3,2.7-2.3s2.6,0.9,2.6,2.4
				c0,0.9-0.6,1.6-1.1,2v0.1c0.8,0.4,1.5,1.2,1.5,2.4c0,1.3-1.2,2.4-3,2.4C457.4,372,456.1,371.1,456.1,369.7z M460.4,369.6
				c0-0.9-0.8-1.3-2-1.8c-0.5,0.4-0.8,1-0.8,1.6c0,0.8,0.7,1.3,1.5,1.3C459.9,370.8,460.4,370.4,460.4,369.6z M460.3,365.3
				c0-0.7-0.4-1.2-1.2-1.2c-0.6,0-1.1,0.4-1.1,1.1c0,0.8,0.7,1.2,1.6,1.6C460.1,366.3,460.3,365.8,460.3,365.3z"/>
		</g>
	</g>
	<g class="st7">
		<g>
			<path class="st2" d="M558.2,86.1c2,0.7,4.7,1.7,6.1,2.5l-0.9,1.7c-1.5-0.8-4.6-2.1-6.8-2.9l0.8-1.3h-0.6
				c-0.8,2.1-2.6,3.4-7.1,4.2c-0.1-0.5-0.6-1.4-1-1.8c3.4-0.5,5-1.2,5.8-2.3h-5v-1.7h5.7c0.1-0.3,0.1-0.6,0.1-0.9h-6.2v-1.7h6.5V81
				h-5v-1.7h5v-0.9h-6v-1.8h3.2c-0.3-0.5-0.6-1-0.9-1.5l1.8-0.7c0.5,0.6,1,1.4,1.3,2l-0.5,0.2h3.7c0.4-0.7,0.9-1.5,1.2-2.2l2.2,0.6
				c-0.4,0.6-0.8,1.1-1.1,1.6h3.2v1.8h-6v0.9h5.2V81h-5.2v0.9h6.7v1.7h-6.9c0,0.3-0.1,0.6-0.1,0.9h6.6v1.7L558.2,86.1L558.2,86.1z"
				/>
			<path class="st2" d="M580.6,75.2v15.1h-2v-0.7h-10.5v0.7h-1.9V75.2H580.6z M578.6,87.9V77h-2.1c0.5,0.3,1.1,0.7,1.4,1l-0.7,0.7
				h0.8v1.4h-3c0.1,0.9,0.2,1.8,0.3,2.6c0.3-0.7,0.6-1.4,0.8-2.1l1.5,0.3c-0.4,1.5-1,2.8-1.8,3.9c0.2,0.5,0.5,0.8,0.8,0.9
				c0.2,0.1,0.3-0.6,0.4-1.6c0.3,0.3,0.9,0.8,1.3,0.9c-0.3,2.1-1.1,2.7-2.3,2.2c-0.5-0.2-0.9-0.6-1.3-1.1c-0.5,0.5-1.1,1-1.8,1.4
				c-0.2-0.3-0.8-0.9-1.1-1.2c0.2-0.1,0.4-0.2,0.5-0.3c-1.4,0.2-2.7,0.4-3.8,0.6l-0.2-1.5c1.2-0.1,3-0.3,4.7-0.6v0.8
				c0.3-0.3,0.6-0.5,0.8-0.8c-0.4-1.2-0.6-2.8-0.7-4.4h-4.7v-1.4h4.6c0-0.5-0.1-0.9-0.1-1.4h1.7c0,0.5,0,1,0.1,1.4h1.8
				c-0.4-0.3-0.9-0.7-1.3-0.9L576,77h-8.2v10.8L578.6,87.9L578.6,87.9z M572.9,84.1h-3.8v-3.2h3.8V84.1z M571.5,81.9h-1.1V83h1.1
				V81.9z"/>
			<path class="st2" d="M597.7,76.1v1.7h-14.9v-1.7h6.5c-0.1-0.4-0.3-0.8-0.4-1.2l2.1-0.5c0.2,0.5,0.5,1.1,0.7,1.7H597.7z
				 M597.3,88.5c0,0.9-0.2,1.2-0.9,1.5c-0.6,0.2-1.5,0.2-2.7,0.2c-0.1-0.4-0.4-1-0.6-1.4h-4.8v0.7h-1.9V85h7.3v3.8h-0.2
				c0.6,0,1.2,0,1.4,0s0.3-0.1,0.3-0.3v-4.1h-10.1v5.9h-1.9v-7.6h14.1L597.3,88.5L597.3,88.5z M595.7,82H585v-3.6h10.7V82z
				 M593.6,79.8H587v0.9h6.5L593.6,79.8L593.6,79.8z M592.1,86.4h-3.7v1h3.7V86.4z"/>
			<path class="st2" d="M614,79.6c-0.4,2.5-1.1,4.6-2.1,6.4c0.9,1.1,2,2,3.2,2.7c-0.4,0.4-1.1,1.1-1.4,1.7c-1.2-0.7-2.2-1.6-3-2.7
				c-0.9,1.1-2,2-3.3,2.8c-0.2-0.4-0.9-1.3-1.3-1.6c1.5-0.7,2.6-1.6,3.5-2.8c-0.6-1.1-1.2-2.3-1.6-3.7c-0.3,0.4-0.6,0.8-0.9,1.2
				c-0.2-0.4-0.8-1.1-1.2-1.6v8.5h-2V86c-2.7,0.9-3.2,1.3-3.6,1.6c-0.1-0.5-0.5-1.4-0.8-1.8c0.3-0.2,0.6-0.5,0.6-1.2v-8.1h2v8.2
				l1.8-0.5v-9.3h2v6.7c1.3-1.6,2.1-4.2,2.5-6.9l2,0.3c-0.2,0.9-0.4,1.9-0.6,2.8h5.2v1.9L614,79.6L614,79.6z M609.3,79.6
				c-0.1,0.2-0.1,0.3-0.2,0.5c0.4,1.5,0.9,2.8,1.6,4.1c0.6-1.3,1-2.8,1.3-4.5L609.3,79.6L609.3,79.6z"/>
			<path class="st2" d="M631.8,88v1.8h-15.4V88h1.9v-4.8c-0.2,0.1-0.5,0.2-0.7,0.3c-0.3-0.5-0.7-1.2-1.1-1.7
				c1.6-0.5,3.8-1.5,4.9-2.3l1.4,1c-1.1,0.8-2.8,1.8-4.2,2.5h11.3v5H631.8z M631.5,79.5h-15v-1.8h4c-0.4-0.7-1-1.7-1.5-2.4l1.7-0.7
				c0.7,0.8,1.4,2,1.8,2.7l-0.9,0.5h4.9l-0.9-0.3c0.5-0.8,1.2-2,1.6-2.9l2,0.6c-0.6,0.9-1.2,1.9-1.7,2.6h4.1L631.5,79.5L631.5,79.5z
				 M620.1,88h1.4v-3.2h-1.4V88z M623.3,84.8V88h1.4v-3.2H623.3z M626.4,79.6c1.6,0.6,4,1.5,5.3,2.1l-1.1,1.6
				c-1.2-0.7-3.5-1.7-5.2-2.3L626.4,79.6z M626.6,84.8V88h1.4v-3.2H626.6z"/>
			<path class="st2" d="M638.4,75.1c-0.4,1-0.9,2.1-1.5,3.1v12h-2v-9c-0.4,0.5-0.8,1-1.2,1.4c-0.2-0.5-0.7-1.6-1-2.1
				c1.5-1.5,3-3.8,3.8-6.1L638.4,75.1z M642.9,88.1c-1,0.9-2.6,1.7-3.9,2.3c-0.4-0.4-1.1-1.1-1.6-1.4c1.3-0.4,2.7-1,3.5-1.6
				L642.9,88.1z M642.3,76.6h-3.7v-1.3h3.7v-0.8h2v0.8h3.9v1.3h-3.9v0.6h3.5v1.2h-3.5V79h4.4v1.3h-10.9V79h4.4v-0.6h-3.3v-1.2h3.3
				L642.3,76.6L642.3,76.6z M645.8,87.3c1.1,0.6,2.4,1.5,3,2.1l-1.8,1c-0.6-0.7-2-1.7-3.1-2.3l1.7-0.8H639v-6.5h8.7v6.5
				C647.7,87.3,645.8,87.3,645.8,87.3z M640.9,82.7h4.7V82h-4.7V82.7z M640.9,84.4h4.7v-0.7h-4.7V84.4z M640.9,86.1h4.7v-0.7h-4.7
				V86.1z"/>
			<path class="st2" d="M661.8,81.8c1.1,0.9,2.6,1.6,4.1,1.9c-0.4,0.4-1,1.1-1.3,1.7c-0.7-0.2-1.4-0.5-2-0.8c-0.2,3-0.4,4.3-0.9,4.8
				c-0.4,0.4-0.8,0.6-1.3,0.6c-0.5,0.1-1.3,0.1-2.2,0.1c0-0.6-0.3-1.4-0.6-1.9c0.7,0.1,1.5,0.1,1.8,0.1s0.4,0,0.6-0.2
				c0.2-0.3,0.4-1,0.6-2.9h-3.3c-0.4,2.3-1.6,4-5.2,5c-0.2-0.5-0.7-1.3-1.1-1.7c2.9-0.7,3.8-1.7,4.2-3.3H653v-0.7
				c-0.6,0.4-1.2,0.7-1.9,1c-0.2-0.5-0.8-1.3-1.2-1.7c1.4-0.5,2.5-1.2,3.4-2h-2.9V80h4.7c0.3-0.4,0.5-0.7,0.7-1.1h-4.4v-1.8h2.4
				c-0.3-0.5-0.7-1.2-1.1-1.7l1.6-0.8c0.5,0.6,1.1,1.5,1.4,2.1l-0.8,0.4h1.7c0.3-0.9,0.5-1.8,0.6-2.7l2.1,0.2
				c-0.2,0.9-0.4,1.7-0.6,2.5h1.5c0.5-0.7,1-1.7,1.3-2.3l1.9,0.6c-0.4,0.6-0.8,1.2-1.2,1.8h2.1V79H658c-0.2,0.4-0.4,0.7-0.6,1.1h7.9
				v1.8L661.8,81.8L661.8,81.8z M656.2,81.8c-0.5,0.6-1,1.1-1.6,1.6h6.3c-0.6-0.5-1.1-1-1.5-1.6H656.2z"/>
		</g>
	</g>
	<g>
		<g>
			<path class="st3" d="M720,243.4v4c0,1-0.2,1.5-0.8,1.8s-1.4,0.4-2.6,0.4c-0.1-0.5-0.3-1.3-0.6-1.8c0.7,0,1.4,0,1.6,0
				c0.2,0,0.3-0.1,0.3-0.3V244l-1.7,0.4l-0.5-1.9c0.6-0.1,1.4-0.3,2.2-0.5v-3h-2v-1.9h2v-3.2h2v3.2h1.8v1.9H720v2.5l1.2-0.3l0.3,1.8
				L720,243.4z M730.6,241.7c-0.6,2.1-1.6,3.7-2.9,4.9c1.1,0.6,2.4,1,3.9,1.3c-0.4,0.5-1,1.3-1.3,1.9c-1.7-0.4-3.1-1-4.4-1.8
				c-1.4,0.8-2.9,1.4-4.6,1.8c-0.2-0.6-0.6-1.4-1-1.8c1.4-0.3,2.8-0.7,3.9-1.3c-0.9-0.9-1.7-2-2.3-3.3l0.6-0.2h-1v-1.9h7.3l0.4-0.1
				L730.6,241.7z M722.2,241c-0.2-0.4-1-1.2-1.3-1.4c2-0.9,2.2-2.1,2.2-3.3v-1.8h6v3.7c0,0.5,0,0.7,0.3,0.7h0.9
				c0.3,0,0.7-0.1,0.9-0.1c0,0.5,0.1,1.2,0.2,1.7c-0.3,0.1-0.7,0.1-1.1,0.1h-1.1c-1.7,0-2-0.7-2-2.4v-1.8H725
				C725,238,724.5,239.9,722.2,241z M724,243.1c0.5,0.9,1.2,1.7,2.1,2.4c0.8-0.6,1.5-1.5,2-2.4H724z"/>
			<path class="st3" d="M743.5,236.9c0.9,0.9,2.7,1.3,5,1.4c-0.4,0.4-0.9,1.1-1.1,1.6c-1.9-0.2-3.4-0.8-4.4-1.7
				c-0.6,0.7-2,1.4-4.9,1.7c-0.1-0.3-0.4-0.7-0.7-1.1h-4.5v-1.5h5.1v1c3.2-0.3,3.6-1.1,3.6-1.7v-0.3h-1c-0.4,0.6-0.8,1.1-1.2,1.5
				c-0.3-0.3-1.1-0.8-1.5-1c0.9-0.7,1.6-1.9,2-3l1.8,0.4c-0.1,0.3-0.2,0.5-0.3,0.7h4.8l0.3-0.1l1.4,0.4c-0.4,0.9-1,2-1.6,2.7
				l-1.6-0.6c0.2-0.3,0.4-0.6,0.6-1h-1.9v0.3v0.3H743.5z M743.9,246.8c1.6,0.6,3.2,1.3,4.2,1.7l-1.8,1.1c-1-0.6-2.7-1.4-4.4-2l1-0.8
				h-4.8l1.5,0.7c-1.4,0.9-3.6,1.7-5.3,2.2c-0.3-0.4-1-1.1-1.5-1.5c1.6-0.3,3.4-0.8,4.6-1.4H735V240h11.3v6.9L743.9,246.8
				L743.9,246.8z M737.6,236.2h-4.3v-1.5h4.3V236.2z M737,241.9h7.3v-0.7H737V241.9z M737,243.8h7.3V243H737V243.8z M737,245.7h7.3
				v-0.8H737V245.7z"/>
			<path class="st3" d="M751.9,245.2c-0.1,1.5-0.4,3.1-0.7,4.1c-0.3-0.2-1.1-0.4-1.5-0.5c0.4-1,0.6-2.5,0.7-3.9L751.9,245.2z
				 M749.7,238.8c0.3-0.1,0.6-0.4,1-0.9c0.3-0.5,1.4-2.3,2-4.1l1.8,0.7c-0.6,1.4-1.4,2.8-2.3,4l1.2-0.1c0.4-0.7,0.9-1.5,1.2-2.2
				l1.7,1.1c-1,1.7-2.2,3.5-3.5,4.9l1.8-0.3c-0.2-0.4-0.3-0.8-0.5-1.1l1.4-0.5c0.5,1.1,1.1,2.4,1.2,3.4l-1.5,0.6
				c0-0.2-0.1-0.5-0.2-0.8c-3.6,0.6-4.2,0.8-4.6,1c-0.1-0.4-0.4-1.3-0.6-1.8c0.5-0.1,0.8-0.5,1.4-1.1c0.2-0.2,0.6-0.7,1.1-1.4
				c-1.3,0.2-1.7,0.3-2,0.4C750.2,240.2,749.9,239.3,749.7,238.8z M753.7,244.9c0.2,1.1,0.4,2.5,0.4,3.4l-1.5,0.4
				c0-0.9-0.2-2.3-0.4-3.4L753.7,244.9z M765.1,239.7c-0.4,2.5-1.2,4.7-2.2,6.4c0.7,0.8,1.6,1.4,2.6,1.9c-0.4,0.4-1,1.1-1.3,1.7
				c-0.9-0.5-1.8-1.1-2.4-1.9c-0.7,0.8-1.5,1.5-2.4,2c-0.3-0.5-0.8-1.1-1.3-1.5c0.9-0.5,1.8-1.2,2.5-2.1c-0.5-0.9-0.9-1.9-1.3-2.9
				c-0.3,2.6-0.9,4.7-2.1,6.5c-0.3-0.3-1.2-1-1.7-1.3c0.3-0.4,0.5-0.8,0.7-1.2l-1.2,0.4c-0.1-0.7-0.5-1.9-0.8-2.7l1.3-0.4
				c0.3,0.8,0.6,1.7,0.8,2.4c1.1-2.6,1.4-6.2,1.4-10.3h-1.4v-1.9h5.7l0.3-0.1l1.4,0.2c-0.2,1.5-0.5,3.2-0.8,4.6h0.6l0.3-0.1
				L765.1,239.7z M759.6,236.5c0,1-0.1,1.9-0.1,2.8h1.5c0.2-0.9,0.4-1.9,0.5-2.8H759.6z M760.3,241.1c0.3,1.1,0.7,2.2,1.3,3.2
				c0.5-1,0.9-2,1.3-3.2H760.3z"/>
			<path class="st3" d="M771.9,234.5c-0.4,1-0.9,2.1-1.5,3.1v12h-2v-9c-0.4,0.5-0.8,1-1.2,1.4c-0.2-0.5-0.7-1.6-1-2.1
				c1.5-1.5,3-3.8,3.8-6.1L771.9,234.5z M776.4,247.4c-1,0.9-2.6,1.7-3.9,2.3c-0.4-0.4-1.1-1.1-1.6-1.4c1.3-0.4,2.7-1,3.5-1.6
				L776.4,247.4z M775.7,236H772v-1.3h3.7v-0.8h2v0.8h3.9v1.3h-3.9v0.6h3.5v1.2h-3.5v0.6h4.4v1.3h-10.9v-1.3h4.4v-0.6h-3.3v-1.2h3.3
				L775.7,236L775.7,236z M779.3,246.7c1.1,0.6,2.4,1.5,3,2.1l-1.8,1c-0.6-0.7-2-1.7-3.1-2.3l1.7-0.8h-6.7v-6.5h8.7v6.5H779.3z
				 M774.4,242.1h4.7v-0.7h-4.7V242.1z M774.4,243.7h4.7V243h-4.7V243.7z M774.4,245.4h4.7v-0.7h-4.7V245.4z"/>
			<path class="st3" d="M795.3,241.2c1.1,0.9,2.5,1.6,4.1,1.9c-0.4,0.4-1,1.1-1.3,1.7c-0.7-0.2-1.4-0.5-2-0.8
				c-0.2,3-0.4,4.3-0.9,4.8c-0.4,0.4-0.8,0.6-1.3,0.6c-0.5,0.1-1.3,0.1-2.2,0.1c0-0.6-0.3-1.4-0.6-1.9c0.7,0.1,1.5,0.1,1.8,0.1
				s0.4,0,0.6-0.2c0.2-0.3,0.4-1,0.6-2.9h-3.3c-0.4,2.3-1.6,4-5.2,5c-0.2-0.5-0.7-1.3-1.1-1.7c2.9-0.7,3.8-1.7,4.2-3.3h-2.2v-0.7
				c-0.6,0.4-1.2,0.7-1.9,1c-0.2-0.5-0.8-1.3-1.2-1.7c1.4-0.5,2.5-1.2,3.4-2h-2.9v-1.8h4.7c0.3-0.4,0.5-0.7,0.7-1.1h-4.4v-1.8h2.4
				c-0.3-0.5-0.7-1.2-1.1-1.7l1.6-0.8c0.5,0.6,1.1,1.5,1.4,2.1l-0.8,0.4h1.7c0.3-0.9,0.5-1.8,0.6-2.7l2.1,0.2
				c-0.2,0.9-0.4,1.7-0.6,2.5h1.5c0.5-0.7,1-1.7,1.3-2.3l1.9,0.6c-0.4,0.6-0.8,1.2-1.2,1.8h2.1v1.8h-6.3c-0.2,0.4-0.4,0.7-0.6,1.1
				h7.9v1.8h-3.5V241.2z M789.6,241.2c-0.5,0.6-1,1.1-1.6,1.6h6.3c-0.6-0.5-1.1-1-1.5-1.6H789.6z"/>
		</g>
	</g>
	<polyline class="st11" points="0,187.9 6.8,208.4 21,187.1 28.3,193.6 35.8,191.2 42.3,185.6 49,184.3 57.6,188.6 69.7,198.9 
		76.9,198.9 83.8,206.7 91.3,210.5 97.8,209.1 112.2,223.8 119.1,223.8 125.8,216.8 133.5,220.5 140,217.3 147.8,217.3 154.3,222.7 
		168.4,219.9 175.1,200.3 183,197.3 190,188.2 196,172.3 203.6,165.8 231.4,123.5 238.6,120.8 245.3,143.6 252.7,148.8 273.7,190.4 
		280.3,177.9 287.5,174.8 294.5,173.9 301,180.8 308.3,175.7 315.3,182.3 323.2,178.7 329.4,170.8 336.9,171.3 344.1,169.6 
		350.9,163.4 357.3,161.2 364.1,156.3 371.5,167.3 384.8,169.6 392.7,173.4 406.1,168.7 414,173.4 420.7,172.3 427.6,174.3 
		434.7,186.9 456.2,169.1 464.5,159.8 483.5,141.1 490.6,141.1 519.3,111.9 532.5,111.1 539.6,115.8 546.8,110.4 553.7,113.9 
		560.9,113.9 569.5,122.5 576.4,127.4 582,132.8 588.5,152.5 595.5,149.4 603,164.4 608.9,158.3 617.3,154.6 624.3,147.6 
		630.3,133.3 637.5,123.3 644.7,128.1 651.3,120.2 659.3,114.8 665.5,113.8 673.8,112.9 679.9,110.4 693.8,109.1 709.1,99.3 
		714.9,98.2 722,90.5 737.1,82 743,75.6 757.7,72 772.7,56.1 778,48.3 790.7,48.3 798.7,57.2 806.4,58.8 812.8,57.7 820,64.3 
		829.3,57.8 834.1,56.3 855.2,35.6 863.3,34.1 870.5,30.8 876.5,25.3 882.8,23.6 	"/>
	<polyline class="st12" points="0,189.7 7.1,214.7 14.3,217.9 21,209.4 28.4,216.9 35.2,209.8 42.2,224.5 49.2,218.4 56.5,214.9 
		63.5,204.1 77.2,214.1 84.8,213.6 90.1,230.2 98.8,245.2 105.3,226.4 112.7,231.5 119.8,232 125.5,207.7 133.8,201.8 139.8,181.4 
		147.8,181.4 154.3,176.4 161.4,196.3 168.5,197.6 175,205.3 182.3,179.5 190,176.4 197.2,175.8 203.1,171.3 210.5,184.9 224.9,180 
		230.9,171.3 252.8,243.3 263.2,253.3 273.4,278 287.3,249.8 294.6,242.7 301.6,265.9 310.2,262.9 315.7,259.9 322.3,263.1 
		329.7,263.1 343.6,277.5 350.5,258.3 357.6,250.6 364.3,253.8 371.5,293.1 378.3,296.8 385.3,305.4 392.3,289.7 399.2,287.3 
		406.3,287.3 414,264.3 428.1,236.8 434.7,183.9 441.4,215.4 448.5,207.4 455.3,234.4 462.9,246.2 469.2,241.9 477,265.8 
		483.6,246.2 493.7,253.6 498.1,258.3 504.3,255.1 511.3,261.6 518.4,246.2 525.5,240.8 533.2,247.7 539.7,244 547,262.1 
		560.5,270.4 567.9,264.4 574.8,264.3 581.6,241 589.3,249.9 595.5,246.1 602.5,249.7 609.8,231.9 623.3,214.1 631.3,214.1 
		638.3,211.8 644.3,201.6 652.5,197.2 658.9,184.7 665.5,194.4 679.7,201.2 686.5,189.7 700.9,233.7 706.8,213.3 714.8,203.8 
		721.8,210.2 728.3,197.8 736.3,202.4 743,191.7 749.6,207.6 757.3,201.3 763.6,183.1 770.8,172.9 778.4,185.8 784.4,190.8 
		792.4,184 799.1,165.8 806.3,175.5 813.4,178.1 820,162.8 834.3,160.9 840.9,136.8 848.3,145.9 862.1,141.4 869.2,143.3 
		876.6,149.8 882.8,162.5 	"/>
</g>
<g>
	<g>
		<g>
			<path class="st4" d="M165.7,423.8v1.4h-13.4v-1.4h5.5v-11.4h1.5v4.5h5.4v1.4h-5.4v5.6H165.7z"/>
			<path class="st4" d="M174.5,414.4c-0.2,0.6-0.4,1.1-0.5,1.7h5.9v9.9h-1.4v-0.8h-9.1v0.8H168V416h4.6c0.1-0.5,0.2-1.1,0.3-1.7
				h-5.6v-1.3h13.3v1.3H174.5z M169.3,423.8h1.9v-6.5h-1.9V423.8z M175.2,417.3h-2.8v1.4h2.8V417.3z M175.2,419.8h-2.8v1.4h2.8
				V419.8z M172.4,423.8h2.8v-1.5h-2.8V423.8z M178.5,417.3h-2v6.5h2V417.3z"/>
			<path class="st4" d="M186.2,419.3c-0.2,1.3-0.7,2.7-1.4,3.8c0.3,0.1,0.6,0.4,1,0.6c1,0.6,2.4,0.7,4.2,0.7c1.8,0,4.3-0.1,6-0.3
				c-0.2,0.4-0.4,1.1-0.4,1.5c-1.1,0.1-3.9,0.2-5.7,0.2c-1.9,0-3.2-0.2-4.3-0.8c-0.6-0.3-1.1-0.8-1.5-0.8c-0.3,0-0.9,0.9-1.3,1.8
				l-0.9-1.3c0.4-0.6,0.9-1,1.3-1.4l0,0c0.6-0.8,1.2-1.9,1.5-3h-2.1c0.4-0.9,0.9-2.1,1.3-3.3h-1.7v-1.3h3.5
				c-0.4,1.1-0.9,2.3-1.3,3.3h0.8l0.2,0L186.2,419.3z M184,415.1c-0.2-0.6-0.8-1.7-1.1-2.5l1.2-0.4c0.4,0.8,0.9,1.8,1.2,2.4
				L184,415.1z M195.6,414.9h-9.4v-1.1h4.2c-0.2-0.4-0.5-1-0.8-1.4l1.3-0.4c0.4,0.5,0.8,1.2,1,1.6l-0.7,0.2h4.4V414.9z M187.1,419.7
				h7.3v3.6h-7.3V419.7z M194.3,416.8h-7v-1h7V416.8z M187.3,417.7h7v1h-7V417.7z M188.5,422.3h4.6v-1.6h-4.6V422.3z"/>
			<path class="st4" d="M202.1,422.1c-1.6,0.7-3.3,1.4-4.6,1.9l-0.4-1.4c0.5-0.2,1.2-0.4,1.9-0.7v-4.9h-1.7v-1.3h1.7v-3.4h1.3v3.4
				h1.5v1.3h-1.5v4.4l1.5-0.6L202.1,422.1z M209.5,424.6c0.4,0,0.4-0.2,0.5-1.1c0.3,0.2,0.7,0.4,1.1,0.5c-0.1,1.4-0.5,1.7-1.5,1.7
				h-1.9c-1.3,0-1.6-0.3-1.6-1.6v-4.3h-0.8c-0.2,2.7-0.8,4.9-3.1,6.1c-0.1-0.3-0.5-0.8-0.8-1c2.1-1,2.5-2.8,2.7-5.1h-1.6v-6.2h1.5
				c0.2-0.5,0.4-1.1,0.5-1.5l1.5,0.2c-0.2,0.5-0.4,0.9-0.6,1.3h5v6.2h-3v4.3c0,0.4,0.1,0.5,0.6,0.5H209.5z M203.5,416.2h2.1v-1.4
				h-2.1V416.2z M203.5,418.7h2.1v-1.4h-2.1V418.7z M208.9,414.8h-2.1v1.4h2.1V414.8z M208.9,417.2h-2.1v1.4h2.1V417.2z
				 M210.1,423.6c0-0.1-0.1-0.3-0.1-0.5c-1.9,0.2-2.2,0.3-2.4,0.4c-0.1-0.2-0.2-0.6-0.3-0.9c0.2,0,0.3-0.2,0.4-0.4
				c0.2-0.2,0.6-1.2,0.8-2.1l0.9,0.3c-0.3,0.8-0.6,1.5-1,2.2l1.3-0.1c-0.2-0.4-0.3-0.8-0.5-1.1l0.7-0.3c0.4,0.7,0.8,1.6,1,2.2
				L210.1,423.6z"/>
			<path class="st4" d="M225.4,414.5c0,0,0,0.5,0,0.7c-0.2,6.8-0.4,9.1-1,9.8c-0.4,0.5-0.7,0.6-1.3,0.7c-0.5,0.1-1.4,0-2.3,0
				c0-0.4-0.2-1-0.5-1.4c1,0.1,1.8,0.1,2.2,0.1c0.3,0,0.5,0,0.6-0.3c0.5-0.5,0.7-2.8,0.9-8.4h-3.5c-0.4,1-0.9,1.8-1.4,2.5
				c-0.2-0.2-0.8-0.6-1.1-0.8v6.9H214v1.1h-1.3v-11h1.7c0.2-0.7,0.4-1.7,0.5-2.4l1.5,0.3c-0.3,0.8-0.5,1.5-0.8,2.2h2.4v2.8
				c1-1.3,1.8-3.3,2.2-5.3l1.3,0.3c-0.2,0.7-0.4,1.4-0.6,2H225.4z M214,415.7v2.8h2.8v-2.8H214z M216.8,423.1v-3.3H214v3.3H216.8z
				 M221.8,422c-0.4-0.9-1.4-2.4-2.2-3.5l1.1-0.6c0.8,1,1.8,2.5,2.3,3.3L221.8,422z"/>
			<path class="st4" d="M238.4,416.1c-0.8,2.3-1.9,4.1-3.3,5.6c1.6,1.3,3.6,2.3,5.9,2.8c-0.3,0.3-0.7,0.9-0.9,1.3
				c-2.4-0.6-4.4-1.7-6-3.1c-1.7,1.4-3.7,2.5-6.1,3.2c-0.2-0.4-0.6-1-0.9-1.3c2.4-0.6,4.4-1.6,6-2.9c-1.5-1.5-2.6-3.4-3.4-5.6h-2.3
				v-1.4h6.5c-0.2-0.6-0.6-1.6-1-2.3l1.5-0.4c0.4,0.7,0.9,1.7,1.1,2.3l-1.3,0.4h6.7v1.4H238.4z M231,416.1c0.7,1.8,1.7,3.3,3,4.6
				c1.2-1.3,2.1-2.8,2.8-4.6H231z"/>
			<path class="st4" d="M255.4,421.5h-5.7v2.8c0,0.8-0.2,1.2-0.8,1.4c-0.6,0.2-1.5,0.2-2.7,0.2c-0.1-0.4-0.4-1-0.6-1.4
				c0.9,0,2,0,2.3,0c0.3,0,0.4-0.1,0.4-0.3v-2.8h-5.7v-1.3h5.7v-0.9c0.8-0.4,1.6-1,2.3-1.5H245v-1.3h6.9l0.3-0.1l0.9,0.7
				c-0.9,0.9-2.2,1.9-3.4,2.6v0.4h5.7V421.5z M244,416.8h-1.4v-3.2h5.7c-0.2-0.4-0.4-0.8-0.7-1.2l1.4-0.4c0.4,0.5,0.8,1.1,1,1.6h5.2
				v3.2h-1.4v-1.9H244V416.8z"/>
			<path class="st4" d="M264.5,420.4c-0.1,0.3-0.2,0.6-0.3,0.9h5.5v3.2c0,0.6-0.1,0.9-0.5,1.1s-1,0.2-1.8,0.2
				c-0.1-0.3-0.2-0.8-0.4-1.2c0.5,0,1,0,1.2,0c0.2,0,0.2-0.1,0.2-0.2v-2.1h-2v3.3H265v-3.3h-2v3.3h-1.3v-3.3h-1.9v3.4h-1.3v-4.5h4.3
				c0.1-0.3,0.2-0.6,0.3-0.9h-5.7v-1.1h13.1v1.1H264.5z M258.9,418h-1.3v-3.3h5.7v-0.9h-5v-1h11.4v1h-5.1v0.9h5.8v3.3H269v-2.2h-4.4
				v3.1h-1.4v-3.1h-4.3V418z M259,418.1c0.9-0.1,2.2-0.3,3.5-0.5l0,0.8c-1.1,0.2-2.2,0.5-3.2,0.7L259,418.1z M259.8,415.9
				c0.9,0.2,2.1,0.5,2.7,0.7l-0.4,0.8c-0.6-0.3-1.8-0.6-2.8-0.8L259.8,415.9z M268.5,419.2c-0.8-0.3-2.3-0.6-3.5-0.8l0.3-0.8
				c1.1,0.1,2.6,0.4,3.5,0.7L268.5,419.2z M268.5,416.6c-0.8,0.3-2,0.6-2.8,0.8l-0.5-0.7c0.8-0.2,2-0.6,2.7-0.9L268.5,416.6z"/>
			<path class="st13" d="M282.6,421.8c-0.4,0.8-1,1.4-1.7,1.9c1.7,0.4,3.3,0.8,4.5,1.2l-1.3,1c-1.2-0.4-2.8-0.9-4.6-1.4
				c-1.7,0.8-3.9,1.2-6.8,1.4c-0.1-0.4-0.3-0.9-0.6-1.2c2-0.1,3.7-0.3,5.1-0.7c-1.1-0.2-2.1-0.4-3.3-0.6c0.4-0.5,0.8-1,1.2-1.6h-3
				v-1.2h3.8c0.3-0.5,0.6-1,0.8-1.5l1.4,0.3c-0.2,0.4-0.4,0.8-0.7,1.2h4c0.1-0.3,0.2-0.6,0.3-0.9l1.3,0.4c-0.1,0.1-0.1,0.3-0.2,0.5
				h2.4v1.2H282.6z M276.5,414h-4v-1.2h12.9v1.2h-4.1v1.1h3.6v4h-11.6v-4h3.3V414z M274.5,417.9h2v-1.8h-2V417.9z M276.9,421.8
				c-0.2,0.3-0.4,0.6-0.7,0.9c1,0.2,2,0.4,3,0.6c0.7-0.4,1.3-0.9,1.8-1.5H276.9z M279.9,414h-2.1v1.1h2.1V414z M277.8,417.9h2.1
				v-1.8h-2.1V417.9z M281.2,416.2v1.8h2.2v-1.8H281.2z"/>
			<path class="st4" d="M299.1,421.5h1.8v1.1h-1.8v2c0,0.6-0.1,0.9-0.6,1.1c-0.5,0.2-1.2,0.2-2.2,0.2c-0.1-0.3-0.2-0.8-0.4-1.1
				c0.7,0,1.4,0,1.6,0c0.2,0,0.3-0.1,0.3-0.2v-2H295c0.6,0.5,1.1,1.2,1.4,1.7l-1,0.7c-0.3-0.5-0.8-1.3-1.3-1.8l0.9-0.5h-1.6v0.8
				h-2.4v2.5h-1.2v-2.5H287v-1.2h2.5v-1h-2v-5.3h2v-1h-2.3v-1.2h2.3v-1.5h1.2v1.5h2.2v1.2h-2.2v1h2.1v5.3h-2.1v1h2.4v-0.6h4.6v-0.7
				h1.3V421.5z M288.5,418h1.2v-1.1h-1.2V418z M288.5,420.1h1.2V419h-1.2V420.1z M291.8,416.9h-1.2v1.1h1.2V416.9z M291.8,419h-1.2
				v1.1h1.2V419z M293.2,419.8c0.9,0,2,0,3.1,0v-0.9h-2.7v-3.9h2.7v-0.7h-3v-1h3v-1.1h1.2v1.1h3.1v1h-3.1v0.7h2.8v3.9h-0.8
				c0.6,0.6,1.1,1.3,1.4,1.8l-1,0.5c-0.1-0.2-0.2-0.4-0.4-0.6c-2.3,0.1-4.6,0.1-6.3,0.2L293.2,419.8z M294.8,416.5h1.6v-0.8h-1.6
				V416.5z M296.3,418.1v-0.8h-1.6v0.8H296.3z M297.5,415.7v0.8h1.6v-0.8H297.5z M299.1,417.3h-1.6v0.8h1.6V417.3z M297.5,419.7
				l1.3,0c-0.2-0.2-0.3-0.4-0.5-0.6l0.5-0.2h-1.3V419.7z"/>
			<path class="st4" d="M308.5,414.3l1,0.3c-0.8,5.9-3,9.5-6.2,11.3c-0.2-0.3-0.8-0.9-1.2-1.2c1.7-0.9,3.2-2.2,4.2-4.1
				c-0.6-0.7-1.4-1.6-2.2-2.3c-0.3,0.5-0.6,0.9-0.9,1.3c-0.3-0.2-0.9-0.7-1.2-0.9c1.3-1.5,2.2-4,2.8-6.6l1.4,0.3
				c-0.1,0.7-0.3,1.3-0.5,2h2.5L308.5,414.3z M305.2,415.7c-0.2,0.5-0.4,1-0.6,1.4c0.7,0.6,1.6,1.5,2.2,2.1c0.4-1,0.7-2.2,0.9-3.6
				H305.2z M312.4,416.6c1.2,1,2.8,2.4,3.5,3.4l-1.2,1c-0.6-0.8-1.8-2-2.8-3v7.9h-1.5v-13.8h1.5v4.9L312.4,416.6z"/>
			<path class="st4" d="M319.7,414.6h2.7v1.1h-5.3v-1.1H319.7c-0.3-0.6-0.7-1.4-1-2l1-0.6c0.4,0.6,0.9,1.4,1.1,2L319.7,414.6z
				 M322,425h-3.2v0.7h-1.1v-5.1h4.3V425z M321.9,417.7h-4.2v-1.1h4.2V417.7z M317.7,418.6h4.2v1.1h-4.2V418.6z M318.8,421.8v2.1h2
				v-2.1H318.8z M330.8,424v1.3h-8V413h7.8v1.3h-6.5v9.7H330.8z M326.8,421.5v-2H325v-1.2h1.8v-1.8h-2v-1.2h5.2v1.2h-2v1.8h1.7v1.2
				H328v2h2.2v1.2h-5.6v-1.2H326.8z"/>
		</g>
	</g>
	<polygon class="st4" points="136.7,424.7 128.5,424.7 132.6,417.7 136.7,410.6 140.8,417.7 144.8,424.7 	"/>
	<g>
		<g>
			<path class="st4" d="M516.2,439.6v2.5l0.3-0.3c1.7,0.8,4.1,2.2,5.2,3.1l-1,1.3c-1-0.8-2.8-2-4.5-2.9v7.5h-1.5v-11.2h-5.6v-1.4
				h13.2v1.4H516.2z"/>
			<path class="st4" d="M531.4,439.4c-0.2,0.6-0.4,1.1-0.5,1.7h5.9v9.9h-1.4v-0.8h-9.1v0.8h-1.4V441h4.6c0.1-0.5,0.2-1.1,0.3-1.7
				h-5.6v-1.3h13.3v1.3H531.4z M526.2,448.8h1.9v-6.5h-1.9V448.8z M532.1,442.3h-2.8v1.4h2.8V442.3z M532.1,444.8h-2.8v1.4h2.8
				V444.8z M529.3,448.8h2.8v-1.5h-2.8V448.8z M535.3,442.3h-2v6.5h2V442.3z"/>
			<path class="st4" d="M543,444.3c-0.2,1.3-0.7,2.7-1.4,3.8c0.3,0.1,0.6,0.4,1,0.6c1,0.6,2.4,0.7,4.2,0.7c1.8,0,4.3-0.1,6-0.3
				c-0.2,0.4-0.4,1.1-0.4,1.5c-1.1,0.1-3.9,0.2-5.7,0.2c-1.9,0-3.2-0.2-4.3-0.8c-0.6-0.3-1.1-0.8-1.5-0.8c-0.3,0-0.9,0.9-1.3,1.8
				l-0.9-1.3c0.4-0.6,0.9-1,1.3-1.4l0,0c0.6-0.8,1.2-1.9,1.5-3h-2.1c0.4-0.9,0.9-2.1,1.3-3.3H539v-1.3h3.5c-0.4,1.1-0.9,2.3-1.3,3.3
				h0.8l0.2,0L543,444.3z M540.9,440.1c-0.2-0.6-0.8-1.7-1.1-2.5l1.2-0.4c0.4,0.8,0.9,1.8,1.2,2.4L540.9,440.1z M552.5,439.9H543
				v-1.1h4.2c-0.2-0.4-0.5-1-0.8-1.4l1.3-0.4c0.4,0.5,0.8,1.2,1,1.6l-0.7,0.2h4.4V439.9z M544,444.7h7.3v3.6H544V444.7z
				 M551.2,441.8h-7v-1h7V441.8z M544.2,442.7h7v1h-7V442.7z M545.3,447.3h4.6v-1.6h-4.6V447.3z"/>
			<path class="st4" d="M558.9,447.1c-1.6,0.7-3.3,1.4-4.6,1.9l-0.4-1.4c0.5-0.2,1.2-0.4,1.9-0.7v-4.9h-1.7v-1.3h1.7v-3.4h1.3v3.4
				h1.5v1.3h-1.5v4.4l1.5-0.6L558.9,447.1z M566.4,449.6c0.4,0,0.4-0.2,0.5-1.1c0.3,0.2,0.7,0.4,1.1,0.5c-0.1,1.4-0.5,1.7-1.5,1.7
				h-1.9c-1.3,0-1.6-0.3-1.6-1.6v-4.3h-0.8c-0.2,2.7-0.8,4.9-3.1,6.1c-0.1-0.3-0.5-0.8-0.8-1c2.1-1,2.5-2.8,2.7-5.1h-1.6v-6.2h1.5
				c0.2-0.5,0.4-1.1,0.5-1.5l1.5,0.2c-0.2,0.5-0.4,0.9-0.6,1.3h5v6.2h-3v4.3c0,0.4,0.1,0.5,0.6,0.5H566.4z M560.4,441.2h2.1v-1.4
				h-2.1V441.2z M560.4,443.7h2.1v-1.4h-2.1V443.7z M565.8,439.8h-2.1v1.4h2.1V439.8z M565.8,442.2h-2.1v1.4h2.1V442.2z M567,448.6
				c0-0.1-0.1-0.3-0.1-0.5c-1.9,0.2-2.2,0.3-2.4,0.4c-0.1-0.2-0.2-0.6-0.3-0.9c0.2,0,0.3-0.2,0.4-0.4c0.2-0.2,0.6-1.2,0.8-2.1
				l0.9,0.3c-0.3,0.8-0.6,1.5-1,2.2l1.3-0.1c-0.2-0.4-0.3-0.8-0.5-1.1l0.7-0.3c0.4,0.7,0.8,1.6,1,2.2L567,448.6z"/>
			<path class="st4" d="M582.2,439.5c0,0,0,0.5,0,0.7c-0.2,6.8-0.4,9.1-1,9.8c-0.4,0.5-0.7,0.6-1.3,0.7c-0.5,0.1-1.4,0-2.3,0
				c0-0.4-0.2-1-0.5-1.4c1,0.1,1.8,0.1,2.2,0.1c0.3,0,0.5,0,0.6-0.3c0.5-0.5,0.7-2.8,0.9-8.4h-3.5c-0.4,1-0.9,1.8-1.4,2.5
				c-0.2-0.2-0.8-0.6-1.1-0.8v6.9h-4.1v1.1h-1.3v-11h1.7c0.2-0.7,0.4-1.7,0.5-2.4l1.5,0.3c-0.3,0.8-0.5,1.5-0.8,2.2h2.4v2.8
				c1-1.3,1.8-3.3,2.2-5.3l1.3,0.3c-0.2,0.7-0.4,1.4-0.6,2H582.2z M570.8,440.7v2.8h2.8v-2.8H570.8z M573.6,448.1v-3.3h-2.8v3.3
				H573.6z M578.6,447c-0.4-0.9-1.4-2.4-2.2-3.5l1.1-0.6c0.8,1,1.8,2.5,2.3,3.3L578.6,447z"/>
			<path class="st4" d="M595.2,441.1c-0.8,2.3-1.9,4.1-3.3,5.6c1.6,1.3,3.6,2.3,5.9,2.8c-0.3,0.3-0.7,0.9-0.9,1.3
				c-2.4-0.6-4.4-1.7-6-3.1c-1.7,1.4-3.7,2.5-6.1,3.2c-0.2-0.4-0.6-1-0.9-1.3c2.4-0.6,4.4-1.6,6-2.9c-1.5-1.5-2.6-3.4-3.4-5.6h-2.3
				v-1.4h6.5c-0.2-0.6-0.6-1.6-1-2.3l1.5-0.4c0.4,0.7,0.9,1.7,1.1,2.3l-1.3,0.4h6.7v1.4H595.2z M587.8,441.1c0.7,1.8,1.7,3.3,3,4.6
				c1.2-1.3,2.1-2.8,2.8-4.6H587.8z"/>
			<path class="st4" d="M612.2,446.5h-5.7v2.8c0,0.8-0.2,1.2-0.8,1.4c-0.6,0.2-1.5,0.2-2.7,0.2c-0.1-0.4-0.4-1-0.6-1.4
				c0.9,0,2,0,2.3,0c0.3,0,0.4-0.1,0.4-0.3v-2.8h-5.7v-1.3h5.7v-0.9c0.8-0.4,1.6-1,2.3-1.5h-5.5v-1.3h6.9l0.3-0.1l0.9,0.7
				c-0.9,0.9-2.2,1.9-3.4,2.6v0.4h5.7V446.5z M600.8,441.8h-1.4v-3.2h5.7c-0.2-0.4-0.4-0.8-0.7-1.2l1.4-0.4c0.4,0.5,0.8,1.1,1,1.6
				h5.2v3.2h-1.4v-1.9h-9.8V441.8z"/>
			<path class="st14" d="M625,436.9c-0.4,0.6-0.8,1.3-1.3,2v12.4h-1.9v-10c-1.8,2-4,3.8-6.5,5.1c-0.3-0.5-0.8-1.2-1.2-1.6
				c3.6-1.8,6.7-4.8,8.5-7.9h-8v-1.8h16.3v1.8H625z M625.1,439.8c2.1,1.4,5,3.6,6.4,5l-1.5,1.4c-1.3-1.5-4.1-3.7-6.2-5.3
				L625.1,439.8z"/>
			<path class="st14" d="M646.4,446c-0.6,0.9-1.3,1.7-2.1,2.4c2.2,0.5,4.2,1.1,5.6,1.6l-1.6,1.2c-1.5-0.6-3.5-1.2-5.8-1.7
				c-2.1,1-5,1.5-8.6,1.8c-0.1-0.5-0.4-1.2-0.7-1.5c2.6-0.1,4.7-0.4,6.5-0.9c-1.3-0.3-2.7-0.5-4.1-0.8c0.5-0.6,1-1.3,1.6-2.1h-3.9
				v-1.5h4.8c0.4-0.6,0.8-1.3,1-1.9l1.8,0.4c-0.2,0.5-0.5,1-0.8,1.5h5.1c0.2-0.3,0.3-0.7,0.4-1.1l1.7,0.5c-0.1,0.2-0.2,0.4-0.2,0.6
				h3.1v1.5H646.4z M638.7,436.1h-5.1v-1.5h16.3v1.5h-5.2v1.4h4.5v5h-14.7v-5h4.1V436.1z M636.2,441.1h2.5v-2.2h-2.5V441.1z
				 M639.2,446c-0.3,0.4-0.6,0.8-0.8,1.2c1.3,0.2,2.5,0.5,3.8,0.7c0.9-0.5,1.6-1.1,2.2-1.9H639.2z M643,436.1h-2.7v1.4h2.7V436.1z
				 M640.3,441.1h2.7v-2.2h-2.7V441.1z M644.7,438.9v2.2h2.8v-2.2H644.7z"/>
			<path class="st4" d="M663.9,446.5h1.8v1.1h-1.8v2c0,0.6-0.1,0.9-0.6,1.1c-0.5,0.2-1.2,0.2-2.2,0.2c-0.1-0.3-0.2-0.8-0.4-1.1
				c0.7,0,1.4,0,1.6,0c0.2,0,0.3-0.1,0.3-0.2v-2h-2.8c0.6,0.5,1.1,1.2,1.4,1.7l-1,0.7c-0.3-0.5-0.8-1.3-1.3-1.8l0.9-0.5h-1.6v0.8
				h-2.4v2.5h-1.2v-2.5h-2.5v-1.2h2.5v-1h-2v-5.3h2v-1h-2.3v-1.2h2.3v-1.5h1.2v1.5h2.2v1.2h-2.2v1h2.1v5.3h-2.1v1h2.4v-0.6h4.6v-0.7
				h1.3V446.5z M653.4,443h1.2v-1.1h-1.2V443z M653.4,445.1h1.2V444h-1.2V445.1z M656.7,441.9h-1.2v1.1h1.2V441.9z M656.7,444h-1.2
				v1.1h1.2V444z M658,444.8c0.9,0,2,0,3.1,0v-0.9h-2.7v-3.9h2.7v-0.7h-3v-1h3v-1.1h1.2v1.1h3.1v1h-3.1v0.7h2.8v3.9h-0.8
				c0.6,0.6,1.1,1.3,1.4,1.8l-1,0.5c-0.1-0.2-0.2-0.4-0.4-0.6c-2.3,0.1-4.6,0.1-6.3,0.2L658,444.8z M659.6,441.5h1.6v-0.8h-1.6
				V441.5z M661.2,443.1v-0.8h-1.6v0.8H661.2z M662.4,440.7v0.8h1.6v-0.8H662.4z M664,442.3h-1.6v0.8h1.6V442.3z M662.4,444.7l1.3,0
				c-0.2-0.2-0.3-0.4-0.5-0.6l0.5-0.2h-1.3V444.7z"/>
			<path class="st4" d="M673.3,439.3l1,0.3c-0.8,5.9-3,9.5-6.2,11.3c-0.2-0.3-0.8-0.9-1.2-1.2c1.7-0.9,3.2-2.2,4.2-4.1
				c-0.6-0.7-1.4-1.6-2.2-2.3c-0.3,0.5-0.6,0.9-0.9,1.3c-0.3-0.2-0.9-0.7-1.2-0.9c1.3-1.5,2.2-4,2.8-6.6l1.4,0.3
				c-0.1,0.7-0.3,1.3-0.5,2h2.5L673.3,439.3z M670.1,440.7c-0.2,0.5-0.4,1-0.6,1.4c0.7,0.6,1.6,1.5,2.2,2.1c0.4-1,0.7-2.2,0.9-3.6
				H670.1z M677.3,441.6c1.2,1,2.8,2.4,3.5,3.4l-1.2,1c-0.6-0.8-1.8-2-2.8-3v7.9h-1.5v-13.8h1.5v4.9L677.3,441.6z"/>
			<path class="st4" d="M684.5,439.6h2.7v1.1h-5.3v-1.1H684.5c-0.3-0.6-0.7-1.4-1-2l1-0.6c0.4,0.6,0.9,1.4,1.1,2L684.5,439.6z
				 M686.8,450h-3.2v0.7h-1.1v-5.1h4.3V450z M686.7,442.7h-4.2v-1.1h4.2V442.7z M682.5,443.6h4.2v1.1h-4.2V443.6z M683.6,446.8v2.1
				h2v-2.1H683.6z M695.6,449v1.3h-8V438h7.8v1.3H689v9.7H695.6z M691.6,446.5v-2h-1.8v-1.2h1.8v-1.8h-2v-1.2h5.2v1.2h-2v1.8h1.7
				v1.2h-1.7v2h2.2v1.2h-5.6v-1.2H691.6z"/>
			<path class="st4" d="M698.4,446.1c1.2-0.4,1.8-1.1,1.9-2c-0.1,0-0.1,0-0.2,0c-0.7,0-1.3-0.4-1.3-1.2c0-0.8,0.6-1.2,1.3-1.2
				c0.9,0,1.4,0.7,1.4,1.9c0,1.7-1,3-2.8,3.5L698.4,446.1z"/>
			<path class="st4" d="M710.7,446.7c-2,0.9-4.2,1.9-5.9,2.6l-0.5-1.5c0.6-0.2,1.3-0.5,2-0.8l-0.3-9l1.5-0.1l0.3,8.5
				c0.9-0.4,1.8-0.7,2.6-1.1L710.7,446.7z M717.1,450.9c-0.6-1-1.9-2.5-3.1-3.8c-1.1,1.7-2.7,2.9-4.9,3.9c-0.2-0.3-0.8-0.9-1.1-1.2
				c5-1.8,6.5-5.5,7.2-11.8l1.5,0.1c-0.3,3.2-0.9,5.7-1.9,7.7c1.3,1.3,2.8,2.9,3.5,4L717.1,450.9z M711.5,443.2
				c-0.4-1-1.3-2.6-2.3-3.7l1.3-0.6c1,1.1,1.9,2.5,2.4,3.6L711.5,443.2z"/>
			<path class="st4" d="M723.9,440.7c-0.3,0.7-0.8,1.4-1.2,2v8.2h-1.3v-6.6c-0.4,0.4-0.8,0.8-1.2,1.2c-0.1-0.3-0.5-1-0.8-1.3
				c1.2-1,2.5-2.5,3.3-4L723.9,440.7z M723.6,437.6c-0.8,1.3-2.2,2.7-3.4,3.6c-0.2-0.3-0.5-0.8-0.7-1c1.1-0.8,2.2-2,2.8-3.1
				L723.6,437.6z M731.9,445.1c-0.6,1.4-1.5,2.5-2.7,3.4c1.1,0.5,2.4,0.9,3.8,1.2c-0.3,0.3-0.7,0.9-0.8,1.2
				c-1.6-0.3-2.9-0.8-4.2-1.5c-1.3,0.7-2.7,1.2-4.2,1.6c-0.1-0.3-0.4-0.9-0.7-1.2c1.3-0.2,2.6-0.6,3.7-1.2c-0.5-0.4-0.9-0.8-1.4-1.2
				c-0.3,0.3-0.7,0.6-1.1,0.9c-0.2-0.3-0.7-0.8-0.9-1c0.4-0.2,0.8-0.6,1.2-0.9c-0.3-0.4-0.5-0.8-0.8-1.2l1.1-0.4
				c0.1,0.3,0.3,0.5,0.5,0.8c0.5-0.5,0.9-1.1,1.2-1.7c-1.9,0.1-2.3,0.2-2.6,0.3c0-0.3-0.3-0.9-0.4-1.3c0.4-0.1,1-0.3,1.7-0.7
				c0.3-0.2,0.9-0.5,1.7-1c-1.9,0.1-2.3,0.2-2.6,0.3c-0.1-0.3-0.3-1-0.5-1.3c0.3-0.1,0.6-0.3,1-0.5c0.4-0.3,1.7-1.3,2.5-2.3l1.4,0.6
				c-0.8,0.8-1.8,1.6-2.7,2.2l2.4-0.1c0.6-0.5,1.3-1,1.8-1.5l1.3,0.7c-1.6,1.4-3.4,2.5-5.1,3.5l4-0.2c-0.3-0.4-0.6-0.8-0.8-1.1
				l1.1-0.6c0.8,1,1.9,2.4,2.4,3.2l-1.2,0.7c-0.2-0.3-0.4-0.8-0.7-1.2l-3.1,0.2c-0.2,0.4-0.4,0.7-0.6,1.1h3.3l0.2-0.1L731.9,445.1z
				 M726.7,445.9c-0.1,0.2-0.3,0.4-0.5,0.6c0.5,0.5,1.1,1,1.8,1.4c0.8-0.5,1.5-1.2,2.1-2H726.7z"/>
			<path class="st4" d="M740.2,441c0,0.7-0.1,1.4-0.2,2.1h6.4c0,0,0,0.4-0.1,0.6c-0.3,4.1-0.6,5.8-1.2,6.4c-0.4,0.4-0.8,0.5-1.4,0.6
				c-0.6,0-1.5,0-2.5,0c0-0.4-0.2-1-0.5-1.4c1.1,0.1,2.1,0.1,2.5,0.1c0.3,0,0.5,0,0.7-0.2c0.4-0.3,0.7-1.7,0.9-4.8h-5.1
				c-0.5,2.6-1.6,5-4.3,6.5c-0.2-0.4-0.6-0.9-1-1.1c3.7-1.9,4.1-5.5,4.2-8.8h-3.9v-1.4h6.4c-0.2-0.6-0.6-1.5-0.9-2.1l1.4-0.5
				c0.4,0.7,0.9,1.6,1.1,2.2l-1,0.4h6.2v1.4H740.2z"/>
			<path class="st4" d="M753.8,437.6c-0.4,1.1-0.9,2.2-1.4,3.3v10h-1.3v-7.8c-0.3,0.5-0.7,0.9-1,1.3c-0.1-0.3-0.5-1.1-0.8-1.4
				c1.3-1.4,2.5-3.6,3.2-5.8L753.8,437.6z M758.9,446.1c-0.1,0.9-0.5,1.7-1,2.4c1.5,0.6,3.4,0.9,5.5,1c-0.3,0.3-0.7,0.9-0.8,1.3
				c-2.2-0.2-4.1-0.6-5.6-1.3c-0.8,0.6-1.8,1.1-3.2,1.5c-0.2-0.3-0.6-0.9-0.9-1.1c1.2-0.3,2.1-0.6,2.8-1c-0.8-0.5-1.5-1.2-2-2
				l1.2-0.4c0.4,0.6,1,1.1,1.8,1.5c0.5-0.6,0.8-1.2,0.9-1.9h-3.4v-5.8h3.6v-1.1h-3.9V438h9.1v1.2H759v1.1h3.5v5.8H758.9z
				 M755.4,442.7h2.3v-1.3h-2.3V442.7z M757.6,445c0-0.2,0-0.5,0-0.7v-0.6h-2.3v1.4H757.6z M761.1,443.7H759v0.7c0,0.2,0,0.5,0,0.7
				h2.1V443.7z M759,441.3v1.3h2.1v-1.3H759z"/>
			<path class="st4" d="M766,447c-0.2,1.3-0.4,2.7-0.7,3.6c-0.2-0.1-0.8-0.3-1-0.4c0.3-0.9,0.5-2.2,0.6-3.4L766,447z M764.7,442.8
				C764.7,442.8,764.7,442.8,764.7,442.8c-0.1-0.2-0.3-0.8-0.4-1.1c0.3-0.1,0.5-0.4,0.8-0.8c0.3-0.5,1.3-2.1,1.8-3.7l1.2,0.5
				c-0.6,1.3-1.3,2.7-2.1,3.8l1.3-0.1c0.4-0.7,0.8-1.4,1.1-2.1l1.1,0.7c-0.9,1.7-2,3.4-3.2,4.8l2.2-0.3c-0.2-0.5-0.3-0.9-0.5-1.4
				l0.9-0.3c0.4,0.9,0.9,2.1,1,2.8l-1,0.4c0-0.2-0.1-0.3-0.1-0.5c-3.2,0.5-3.6,0.6-3.9,0.8c-0.1-0.3-0.3-0.9-0.4-1.2
				c0.3-0.1,0.7-0.5,1.1-1c0.2-0.3,0.7-0.8,1.2-1.6C765.2,442.6,764.9,442.7,764.7,442.8L764.7,442.8z M767.4,446.7
				c0.2,1,0.3,2.2,0.4,3.1l-1,0.3c0-0.9-0.2-2.1-0.3-3.1L767.4,446.7z M771.3,443.3c-0.1,2.4-0.3,5.4-1.1,7.5
				c-0.3-0.2-0.8-0.5-1.1-0.6c0.2-0.5,0.3-1,0.5-1.5l-0.8,0.3c-0.1-0.7-0.4-1.7-0.7-2.4l0.9-0.3c0.2,0.6,0.5,1.4,0.6,2
				c0.5-2.2,0.5-4.7,0.5-6.5v-3.7c2.2-0.2,4.8-0.6,6.2-1l1,0.9c-1.6,0.5-3.9,0.8-6,1v0.8h6v3.5H771.3z M777.6,449.7
				c0,0.5-0.1,0.7-0.4,0.9c-0.3,0.2-0.6,0.2-1.2,0.2c0-0.3-0.1-0.7-0.3-1c0.3,0,0.5,0,0.6,0c0.1,0,0.1,0,0.1-0.1v-1.8h-0.9v2.8h-0.8
				v-2.8H774v2.8h-0.8v-2.8h-0.9v3h-1v-6.7h6.3V449.7z M771.4,440.9v0.9v0.4h4.7v-1.3H771.4z M773.2,446.8v-1.5h-0.9v1.5H773.2z
				 M774.9,446.8v-1.5H774v1.5H774.9z M776.5,446.8v-1.5h-0.9v1.5H776.5z"/>
			<path class="st4" d="M792.4,442.7v5.4h0.8v1.2h-0.8v1.6h-1.3v-1.6h-5.5v-0.9h-2.3v2.5H782v-2.5h-2.6v-1.2h2.6v-1.1h-2.1v-5.3h2.1
				v-1h-2.5v-1.2h2.5v-1.5h1.2v1.5h2.4v1.2h-2.4v1h2.2v5.3h-2.2v1.1h2.6v0.9h0.8v-5.4h-0.9v-1.1h7.4v1.1H792.4z M780.9,443h1.2v-1.1
				h-1.2V443z M780.9,445.1h1.2V444h-1.2V445.1z M784.4,441.9h-1.2v1.1h1.2V441.9z M784.4,444h-1.2v1.1h1.2V444z M792.4,440.9h-5.8
				v-3.3h5.8V440.9z M791,438.6h-3.1v1.2h3.1V438.6z M791.1,442.7H788v1.1h3.1V442.7z M791.1,444.9H788v1.1h3.1V444.9z M791.1,448.1
				V447H788v1.1H791.1z"/>
		</g>
	</g>
	<polygon class="st4" points="493.5,435.6 501.7,435.6 497.6,442.7 493.5,449.7 489.5,442.7 485.4,435.6 	"/>
</g>
<g>
	<g>
		<linearGradient id="SVGID_2_" gradientUnits="userSpaceOnUse" x1="441.4666" y1="841.8878" x2="441.4666" y2="532.9711">
			<stop  offset="0.2811" style="stop-color:#FFFFFF;stop-opacity:0"/>
			<stop  offset="0.3543" style="stop-color:#F8FCFE;stop-opacity:0.1018"/>
			<stop  offset="0.4633" style="stop-color:#E3F5FC;stop-opacity:0.2535"/>
			<stop  offset="0.5948" style="stop-color:#C2E9F8;stop-opacity:0.4364"/>
			<stop  offset="0.7437" style="stop-color:#94D8F3;stop-opacity:0.6435"/>
			<stop  offset="0.9053" style="stop-color:#5AC3EC;stop-opacity:0.8682"/>
			<stop  offset="1" style="stop-color:#34B5E8"/>
		</linearGradient>
		<path class="st15" d="M0,697.3l6.8,20.5L21,696.5l7.3,6.5l7.4-2.4l6.6-5.6l6.7-1.2l8.6,4.3l12.1,10.3H77l6.8,7.8l7.6,3.8l6.5-1.4
			l14.3,14.7h6.9l6.8-7l7.7,3.8l6.5-3.2l7.8-0.1l6.5,5.4l14.1-2.8l6.7-19.7l7.9-2.9l7-9.2l6-15.8l7.6-6.6l27.8-42.2l7.2-2.8
			l6.7,22.8l7.4,5.2l21,41.6l6.7-12.5l7.2-3.2l7-0.8l6.5,6.8l7.3-5.1l6.9,6.6l7.9-3.6l6.2-7.9l7.5,0.6l7.2-1.8l6.8-6.2l6.4-2.2
			l6.8-4.9l7.4,11l13.2,2.3l7.9,3.8l13.4-4.8l7.9,4.8l6.7-1.2l6.9,2.1l7.1,12.6l21.5-17.8l8.3-9.2l19-18.8h7.1l28.8-29.2l13.2-0.8
			l7.1,4.8l7.2-5.4l6.9,3.5h7.2l8.6,8.6l6.9,4.9l5.6,5.3l6.5,19.8l7-3.1l7.5,15l5.9-6.1l8.4-3.8l7-7l6-14.2l7.2-10l7.2,4.8l6.6-7.9
			l8.1-5.3l6.2-1l8.2-0.9l6.2-2.5l13.9-1.3l15.2-9.8l5.8-1.1l7.1-7.7l15.1-8.5l5.9-6.4l14.7-3.6l15-15.9l5.3-7.8h12.7l8,8.8l7.8,1.7
			l6.4-1.2l7.2,6.7l9.3-6.6l4.8-1.5l21.1-20.7l8.1-1.5l7.2-3.2l6-5.5l6.3-1.8v308.9H0C0,841.9,0,696.6,0,697.3z"/>
		<polygon class="st2" points="949.5,540.6 903.4,540.6 896.5,532.5 903.4,524.3 949.5,524.3 		"/>
		<g>
			
				<text transform="matrix(1 0 0 1 906.5524 536.6492)" class="st0" style="font-family:'SourceHanSansTW-Medium-B5pc-H'; font-size:12px;">102.49</text>
		</g>
		<polygon class="st3" points="949.5,680.6 903.4,680.6 896.5,672.5 903.4,664.3 949.5,664.3 		"/>
		<g>
			
				<text transform="matrix(1 0 0 1 906.5524 676.649)" class="st0" style="font-family:'SourceHanSansTW-Medium-B5pc-H'; font-size:12px;">100.38</text>
		</g>
		<g>
			<g>
				
					<text transform="matrix(1 0 0 1 901.5499 569.6752)" class="st4" style="font-family:'SourceHanSansTW-Medium-B5pc-H'; font-size:12px;">102.00</text>
			</g>
			<g>
				
					<text transform="matrix(1 0 0 1 901.5499 635.3419)" class="st4" style="font-family:'SourceHanSansTW-Medium-B5pc-H'; font-size:12px;">101.00</text>
			</g>
			<g>
				
					<text transform="matrix(1 0 0 1 901.5499 702.3419)" class="st4" style="font-family:'SourceHanSansTW-Medium-B5pc-H'; font-size:12px;">100.00</text>
			</g>
			<g>
				
					<text transform="matrix(1 0 0 1 901.5499 768.3419)" class="st4" style="font-family:'SourceHanSansTW-Medium-B5pc-H'; font-size:12px;">99.00</text>
			</g>
			<g>
				
					<text transform="matrix(1 0 0 1 901.5499 834.6752)" class="st4" style="font-family:'SourceHanSansTW-Medium-B5pc-H'; font-size:12px;">98.00</text>
			</g>
		</g>
		<line class="st5" x1="895" y1="509.4" x2="895" y2="841.9"/>
		<g>
			<polygon class="st6" points="895.5,830.9 895.5,829.4 897.3,830.1 899.1,830.9 897.3,831.6 895.5,832.4 			"/>
			<polygon class="st6" points="895.5,764.5 895.5,763 897.3,763.8 899.1,764.5 897.3,765.3 895.5,766 			"/>
			<polygon class="st6" points="895.5,698 895.5,696.5 897.3,697.2 899.1,698 897.3,698.8 895.5,699.5 			"/>
			<polygon class="st6" points="895.5,631.5 895.5,630 897.3,630.7 899.1,631.5 897.3,632.2 895.5,633 			"/>
			<polygon class="st6" points="895.5,565.6 895.5,564.1 897.3,564.9 899.1,565.6 897.3,566.4 895.5,567.2 			"/>
		</g>
		<g>
			<line class="st5" x1="895.5" y1="598.2" x2="897.8" y2="598.2"/>
			<line class="st5" x1="895.5" y1="664.9" x2="897.8" y2="664.9"/>
			<line class="st5" x1="895.5" y1="731.1" x2="897.8" y2="731.1"/>
			<line class="st5" x1="895.5" y1="797.8" x2="897.8" y2="797.8"/>
		</g>
		<g>
			<g>
				<g>
					<rect x="22.3" y="540.6" class="st2" width="10" height="10"/>
					
						<text transform="matrix(1 0 0 1 38.8 551.9421)" class="st2" style="font-family:'SourceHanSansTW-Bold-B5pc-H'; font-size:16.8931px;">LF98TRUU Index   102.49</text>
				</g>
			</g>
			<g>
				<g>
					<rect x="22.3" y="565.6" class="st3" width="10" height="10"/>
					
						<text transform="matrix(1 0 0 1 38.8 576.9422)" class="st3" style="font-family:'SourceHanSansTW-Bold-B5pc-H'; font-size:16.8931px;">LUACTRUU Index   100.38</text>
				</g>
			</g>
		</g>
		
			<text transform="matrix(1 0 0 1 30.5501 672.4824)" class="st4" style="font-family:'SourceHanSansTW-Regular-B5pc-H'; font-size:16.8931px;">2018/3/1=100</text>
		<line class="st8" x1="0" y1="841.9" x2="895" y2="841.9"/>
		<g class="st9">
			<line class="st10" x1="0" y1="566.1" x2="895" y2="566.1"/>
			<line class="st10" x1="0" y1="631.5" x2="895" y2="631.5"/>
			<line class="st10" x1="0" y1="698" x2="895" y2="698"/>
			<line class="st10" x1="0" y1="764.5" x2="895" y2="764.5"/>
			<line class="st10" x1="0" y1="830.9" x2="895" y2="830.9"/>
			<line class="st10" x1="820" y1="509.4" x2="820" y2="845.1"/>
			<line class="st10" x1="743" y1="509.4" x2="743" y2="845.1"/>
			<line class="st10" x1="665.5" y1="509.4" x2="665.5" y2="845.1"/>
			<line class="st10" x1="595.5" y1="509.4" x2="595.5" y2="845.1"/>
			<line class="st10" x1="525.5" y1="509.4" x2="525.5" y2="845.1"/>
			<line class="st10" x1="448.5" y1="509.4" x2="448.5" y2="845.1"/>
			<line class="st10" x1="371.5" y1="509.4" x2="371.5" y2="845.1"/>
			<line class="st10" x1="294" y1="509.4" x2="294" y2="845.1"/>
			<line class="st10" x1="224" y1="509.4" x2="224" y2="845.1"/>
			<line class="st10" x1="147" y1="509.4" x2="147" y2="845.1"/>
			<line class="st10" x1="70.5" y1="509.4" x2="70.5" y2="845.1"/>
		</g>
		<g>
			<g>
				
					<text transform="matrix(1 0 0 1 52.9399 857.2513)" class="st4" style="font-family:'SourceHanSansTW-Medium-B5pc-H'; font-size:12px;">3月 15</text>
			</g>
			<g>
				
					<text transform="matrix(1 0 0 1 129.4399 857.2513)" class="st4" style="font-family:'SourceHanSansTW-Medium-B5pc-H'; font-size:12px;">3月 30</text>
			</g>
			<g>
				
					<text transform="matrix(1 0 0 1 206.4399 857.2513)" class="st4" style="font-family:'SourceHanSansTW-Medium-B5pc-H'; font-size:12px;">4月 16</text>
			</g>
			<g>
				
					<text transform="matrix(1 0 0 1 276.4399 857.2513)" class="st4" style="font-family:'SourceHanSansTW-Medium-B5pc-H'; font-size:12px;">4月 30</text>
			</g>
			<g>
				
					<text transform="matrix(1 0 0 1 353.9399 857.2513)" class="st4" style="font-family:'SourceHanSansTW-Medium-B5pc-H'; font-size:12px;">5月 15</text>
			</g>
			<g>
				
					<text transform="matrix(1 0 0 1 430.9399 857.2513)" class="st4" style="font-family:'SourceHanSansTW-Medium-B5pc-H'; font-size:12px;">5月 31</text>
			</g>
			<g>
				
					<text transform="matrix(1 0 0 1 507.9399 857.2513)" class="st4" style="font-family:'SourceHanSansTW-Medium-B5pc-H'; font-size:12px;">6月 15</text>
			</g>
			<g>
				
					<text transform="matrix(1 0 0 1 577.9401 857.2513)" class="st4" style="font-family:'SourceHanSansTW-Medium-B5pc-H'; font-size:12px;">6月 29</text>
			</g>
			<g>
				
					<text transform="matrix(1 0 0 1 647.9401 857.2513)" class="st4" style="font-family:'SourceHanSansTW-Medium-B5pc-H'; font-size:12px;">7月 16</text>
			</g>
			<g>
				
					<text transform="matrix(1 0 0 1 725.4401 857.2513)" class="st4" style="font-family:'SourceHanSansTW-Medium-B5pc-H'; font-size:12px;">7月 31</text>
			</g>
			<g>
				
					<text transform="matrix(1 0 0 1 802.4401 857.2513)" class="st4" style="font-family:'SourceHanSansTW-Medium-B5pc-H'; font-size:12px;">8月 15</text>
			</g>
		</g>
		<g>
			
				<text transform="matrix(1 0 0 1 434.4141 881.2622)" class="st4" style="font-family:'SourceHanSansTW-Bold-B5pc-H'; font-size:12px;">2018</text>
		</g>
		<g class="st7">
			
				<text transform="matrix(1 0 0 1 548.0822 598.2211)" class="st2" style="font-family:'SourceHanSansTW-Bold-B5pc-H'; font-size:16.8931px;">美國高收益債券</text>
		</g>
		<g>
			
				<text transform="matrix(1 0 0 1 715.3417 757.5919)" class="st3" style="font-family:'SourceHanSansTW-Bold-B5pc-H'; font-size:16.8931px;">投資級債券</text>
		</g>
		<polyline class="st11" points="0,697.3 6.9,717.8 21,696.5 28.4,703 35.8,700.6 42.4,695 49,693.7 57.6,698 69.7,708.3 77,708.3 
			83.8,716.1 91.4,719.9 97.9,718.5 112.2,733.1 119.1,733.1 125.9,726.1 133.5,729.9 140,726.7 147.9,726.6 154.4,732.1 
			168.5,729.3 175.1,709.6 183,706.7 190,697.6 196,681.7 203.6,675.1 231.5,632.9 238.6,630.1 245.3,653 252.7,658.2 273.7,699.8 
			280.4,687.3 287.5,684.1 294.5,683.3 301,690.1 308.4,685.1 315.3,691.6 323.2,688.1 329.5,680.1 337,680.7 344.1,679 351,672.8 
			357.4,670.6 364.1,665.6 371.5,676.6 384.8,679 392.7,682.8 406.1,678.1 414,682.8 420.7,681.6 427.6,683.7 434.7,696.3 
			456.2,678.5 464.5,669.2 483.5,650.5 490.6,650.5 519.4,621.3 532.5,620.5 539.6,625.2 546.8,619.8 553.7,623.3 561,623.3 
			569.5,631.9 576.5,636.8 582,642.1 588.5,661.9 595.5,658.8 603,673.8 609,667.7 617.4,664 624.4,657 630.4,642.7 637.5,632.7 
			644.7,637.5 651.3,629.6 659.4,624.2 665.5,623.2 673.8,622.3 680,619.8 693.9,618.5 709.1,608.6 715,607.6 722,599.9 
			737.1,591.4 743,585 757.7,581.4 772.7,565.5 778,557.7 790.7,557.7 798.7,566.6 806.5,568.2 812.9,567.1 820,573.7 829.4,567.2 
			834.1,565.6 855.2,545 863.3,543.5 870.5,540.2 876.5,534.7 882.9,533 		"/>
		<polyline class="st12" points="0,699.1 7.1,724.1 14.3,727.3 21,718.8 28.5,726.3 35.2,719.2 42.2,733.9 49.2,727.8 56.5,724.3 
			63.5,713.5 77.2,723.5 84.8,723 90.1,739.6 98.9,754.6 105.3,735.8 112.7,740.9 119.8,741.4 125.5,717.1 133.9,711.1 139.8,690.8 
			147.8,690.8 154.3,685.8 161.5,705.6 168.5,707 175,714.6 182.4,688.9 190,685.8 197.2,685.1 203.1,680.7 210.5,694.3 225,689.4 
			231,680.7 252.9,752.6 263.2,762.7 273.5,787.4 287.4,759.1 294.6,752.1 301.6,775.3 310.2,772.3 315.7,769.3 322.3,772.5 
			329.7,772.5 343.6,786.9 350.5,767.7 357.6,760 364.3,763.1 371.5,802.5 378.4,806.1 385.3,814.8 392.4,799.1 399.2,796.7 
			406.4,796.7 414,773.7 428.1,746.1 434.7,693.3 441.5,724.8 448.5,716.8 455.4,743.8 463,755.6 469.2,751.3 477,775.1 
			483.6,755.6 493.7,763 498.1,767.7 504.4,764.5 511.4,771 518.5,755.6 525.5,750.2 533.2,757.1 539.7,753.4 547,771.5 
			560.5,779.8 568,773.8 574.9,773.6 581.6,750.4 589.3,759.3 595.5,755.5 602.5,759.1 609.8,741.3 623.3,723.5 631.4,723.5 
			638.3,721.2 644.4,711 652.5,706.6 659,694.1 665.5,703.8 679.7,710.6 686.5,699.1 701,743.1 706.9,722.7 714.8,713.1 
			721.9,719.6 728.3,707.2 736.3,711.8 743,701.1 749.6,717 757.3,710.7 763.6,692.5 770.9,682.3 778.5,695.2 784.5,700.1 
			792.5,693.4 799.1,675.1 806.3,684.9 813.5,687.5 820,672.1 834.3,670.3 841,646.2 848.4,655.3 862.1,650.8 869.2,652.7 
			876.6,659.2 882.9,671.9 		"/>
	</g>
	<rect y="509.3" class="st8" width="950" height="379"/>
</g>
</svg>
