<?xml version="1.0" encoding="utf-8"?>
<!-- Generator: Adobe Illustrator 22.1.0, SVG Export Plug-In . SVG Version: 6.00 Build 0)  -->
<svg version="1.1" id="圖層_1" xmlns="http://www.w3.org/2000/svg" xmlns:xlink="http://www.w3.org/1999/xlink" x="0px" y="0px"
	 viewBox="0 0 950 381" style="enable-background:new 0 0 950 381;" xml:space="preserve">
<style type="text/css">
	.st0{fill:#382F4D;}
	.st1{enable-background:new    ;}
	.st2{fill:#FFFFFF;}
	.st3{opacity:0.12;}
	.st4{fill:none;stroke:#FFFFFF;stroke-miterlimit:10;}
	.st5{opacity:0.12;fill:none;stroke:#FFFFFF;stroke-miterlimit:10;enable-background:new    ;}
	.st6{fill:none;stroke:#BF6A8E;stroke-width:2;stroke-miterlimit:10;}
	.st7{fill:none;stroke:#548B9A;stroke-width:2;stroke-miterlimit:10;}
	.st8{fill:none;stroke:#DF7956;stroke-width:2;stroke-miterlimit:10;}
	.st9{fill:#BF6A8E;}
	.st10{fill:#548B9A;}
	.st11{fill:#DF7956;}
	.st12{fill:#F3FF00;}
	.st13{fill:#FF80F3;}
</style>
<rect x="-26.2" y="-462.2" class="st0" width="1016" height="437.2"/>
<g id="圖層_2_1_">
	<g>
		<g class="st1">
			<path class="st2" d="M7.3,7.6H6.2V10H4.9V7.6H1.1V6.7l3.5-5.5h1.6v5.4h1.1C7.3,6.6,7.3,7.6,7.3,7.6z M4.9,6.6V4.2
				c0-0.5,0-1.2,0.1-1.7l0,0C4.7,3,4.4,3.4,4.2,3.9L2.5,6.6H4.9z"/>
			<path class="st2" d="M8.2,5.6C8.2,2.5,9.3,1,11.1,1C12.8,1,14,2.5,14,5.5c0,3.1-1.1,4.6-2.9,4.6C9.3,10.2,8.2,8.6,8.2,5.6z
				 M12.6,5.6c0-2.5-0.6-3.5-1.5-3.5S9.5,3,9.5,5.6s0.6,3.5,1.5,3.5S12.6,8.1,12.6,5.6z"/>
		</g>
		<g class="st1">
			<path class="st2" d="M1.2,85.9L1.9,85c0.5,0.5,1.2,1,2.1,1c1,0,1.7-0.6,1.7-1.5c0-1-0.6-1.6-2.6-1.6v-1c1.7,0,2.3-0.7,2.3-1.5
				S4.9,79.1,4,79.1c-0.7,0-1.3,0.3-1.8,0.8L1.5,79C2.2,78.4,3,78,4,78c1.6,0,2.7,0.8,2.7,2.3c0,1-0.6,1.7-1.5,2.1v0.1
				c1,0.3,1.8,1,1.8,2.2c0,1.6-1.3,2.5-3,2.5C2.6,87.2,1.7,86.6,1.2,85.9z"/>
			<path class="st2" d="M8.2,82.6c0-3.1,1.1-4.5,2.9-4.5c1.7,0,2.9,1.5,2.9,4.5c0,3.1-1.1,4.6-2.9,4.6S8.2,85.6,8.2,82.6z
				 M12.6,82.6c0-2.5-0.6-3.5-1.5-3.5S9.5,80,9.5,82.6s0.6,3.5,1.5,3.5S12.6,85.1,12.6,82.6z"/>
		</g>
		<g class="st1">
			<path class="st2" d="M1.3,162.2c2.6-2.3,3.9-4,3.9-5.5c0-1-0.5-1.6-1.5-1.6c-0.7,0-1.3,0.4-1.7,1l-0.8-0.8C2,154.5,2.8,154,4,154
				c1.6,0,2.7,1.1,2.7,2.7c0,1.7-1.4,3.5-3.2,5.3c0.5,0,1-0.1,1.4-0.1H7v1.2H1.3V162.2z"/>
			<path class="st2" d="M8.2,158.6c0-3.1,1.1-4.5,2.9-4.5c1.7,0,2.9,1.5,2.9,4.5c0,3.1-1.1,4.6-2.9,4.6
				C9.3,163.2,8.2,161.6,8.2,158.6z M12.6,158.6c0-2.5-0.6-3.5-1.5-3.5s-1.5,0.9-1.5,3.5s0.6,3.5,1.5,3.5S12.6,161.1,12.6,158.6z"/>
		</g>
		<g class="st1">
			<path class="st2" d="M1.9,238.9h1.9v-6.1H2.2v-0.9c0.8-0.2,1.4-0.4,1.9-0.7h1v7.7h1.7v1.1h-5L1.9,238.9L1.9,238.9z"/>
			<path class="st2" d="M8.2,235.6c0-3.1,1.1-4.5,2.9-4.5c1.7,0,2.9,1.5,2.9,4.5c0,3.1-1.1,4.6-2.9,4.6
				C9.3,240.2,8.2,238.6,8.2,235.6z M12.6,235.6c0-2.5-0.6-3.5-1.5-3.5s-1.5,0.9-1.5,3.5s0.6,3.5,1.5,3.5S12.6,238.1,12.6,235.6z"/>
		</g>
		<g class="st1">
			<path class="st2" d="M8.2,311.6c0-3.1,1.1-4.5,2.9-4.5c1.7,0,2.9,1.5,2.9,4.5c0,3.1-1.1,4.6-2.9,4.6S8.2,314.6,8.2,311.6z
				 M12.6,311.6c0-2.5-0.6-3.5-1.5-3.5s-1.5,0.9-1.5,3.5s0.6,3.5,1.5,3.5S12.6,314.1,12.6,311.6z"/>
		</g>
	</g>
	<g>
		<g class="st1">
			<path class="st2" d="M25.3,378.3c-2.3-2.6-4-3.9-5.5-3.9c-1,0-1.6,0.5-1.6,1.5c0,0.7,0.4,1.3,1,1.7l-0.8,0.8
				c-0.8-0.8-1.3-1.5-1.3-2.7c0-1.6,1.1-2.7,2.7-2.7c1.7,0,3.5,1.4,5.3,3.2c0-0.5-0.1-1-0.1-1.4v-2.2h1.2v5.7H25.3z"/>
			<path class="st2" d="M21.6,371.4c-3.1,0-4.5-1.1-4.5-2.9c0-1.7,1.5-2.9,4.5-2.9c3.1,0,4.6,1.1,4.6,2.9S24.7,371.4,21.6,371.4z
				 M21.6,367c-2.5,0-3.5,0.6-3.5,1.5s0.9,1.5,3.5,1.5s3.5-0.6,3.5-1.5S24.2,367,21.6,367z"/>
			<path class="st2" d="M21.6,364.6c-3.1,0-4.5-1.1-4.5-2.9c0-1.7,1.5-2.9,4.5-2.9c3.1,0,4.6,1.1,4.6,2.9S24.7,364.6,21.6,364.6z
				 M21.6,360.2c-2.5,0-3.5,0.6-3.5,1.5s0.9,1.5,3.5,1.5s3.5-0.6,3.5-1.5S24.2,360.2,21.6,360.2z"/>
			<path class="st2" d="M24.9,357.3v-1.9h-6.1v1.6h-0.9c-0.2-0.8-0.4-1.4-0.7-1.9v-1h7.7v-1.7H26v5h-1.1V357.3z"/>
			<path class="st2" d="M16.5,348v-1l11.7,3.3v1L16.5,348z"/>
			<path class="st2" d="M23.9,346.2c-1.2,0-1.9-0.8-2.4-1.6h-0.1c-0.5,0.7-1.1,1.2-2.1,1.2c-1.4,0-2.3-1.1-2.3-2.5
				c0-1.5,1-2.5,2.3-2.5c0.9,0,1.7,0.6,2.1,1.2h0.1c0.5-0.8,1.1-1.5,2.3-1.5c1.3,0,2.3,1.2,2.3,2.9C26.2,345,25.3,346.2,23.9,346.2z
				 M19.5,342c-0.8,0-1.4,0.5-1.4,1.4c0,0.7,0.5,1.3,1.3,1.3c1,0,1.4-0.8,1.8-1.8C20.7,342.2,20.1,342,19.5,342z M23.9,341.8
				c-1.1,0-1.5,1-2,2.2c0.4,0.6,1.1,1,1.8,1c0.9,0,1.5-0.7,1.5-1.7C25.2,342.4,24.7,341.8,23.9,341.8z"/>
			<path class="st2" d="M16.5,336.5v-1l11.7,3.3v1L16.5,336.5z"/>
			<path class="st2" d="M25,334.9l-0.9-0.7c0.5-0.5,1-1.2,1-2.1c0-1-0.6-1.7-1.5-1.7c-1,0-1.6,0.6-1.6,2.6h-1c0-1.7-0.7-2.3-1.5-2.3
				s-1.3,0.5-1.3,1.4c0,0.7,0.3,1.3,0.8,1.8l-0.9,0.7c-0.6-0.7-1.1-1.5-1.1-2.5c0-1.6,0.8-2.7,2.3-2.7c1,0,1.7,0.6,2.1,1.5h0.1
				c0.3-1,1-1.8,2.2-1.8c1.6,0,2.5,1.3,2.5,2.9C26.2,333.4,25.7,334.3,25,334.9z"/>
			<path class="st2" d="M24.9,327.4v-1.9h-6.1v1.6h-0.9c-0.2-0.8-0.4-1.4-0.7-1.9v-1h7.7v-1.7H26v5h-1.1V327.4z"/>
		</g>
		<g class="st1">
			<path class="st2" d="M79.4,378.3c-2.3-2.6-4-3.9-5.5-3.9c-1,0-1.6,0.5-1.6,1.5c0,0.7,0.4,1.3,1,1.7l-0.8,0.8
				c-0.8-0.8-1.3-1.5-1.3-2.7c0-1.6,1.1-2.7,2.7-2.7c1.7,0,3.5,1.4,5.3,3.2c0-0.5-0.1-1-0.1-1.4v-2.2h1.2v5.7H79.4z"/>
			<path class="st2" d="M75.7,371.4c-3.1,0-4.5-1.1-4.5-2.9c0-1.7,1.5-2.9,4.5-2.9c3.1,0,4.6,1.1,4.6,2.9
				C80.4,370.3,78.8,371.4,75.7,371.4z M75.7,367c-2.5,0-3.5,0.6-3.5,1.5s0.9,1.5,3.5,1.5s3.5-0.6,3.5-1.5S78.3,367,75.7,367z"/>
			<path class="st2" d="M75.7,364.6c-3.1,0-4.5-1.1-4.5-2.9c0-1.7,1.5-2.9,4.5-2.9c3.1,0,4.6,1.1,4.6,2.9
				C80.4,363.5,78.8,364.6,75.7,364.6z M75.7,360.2c-2.5,0-3.5,0.6-3.5,1.5s0.9,1.5,3.5,1.5s3.5-0.6,3.5-1.5S78.3,360.2,75.7,360.2z
				"/>
			<path class="st2" d="M79.4,357.8c-2.3-2.6-4-3.9-5.5-3.9c-1,0-1.6,0.5-1.6,1.5c0,0.7,0.4,1.3,1,1.7l-0.8,0.8
				c-0.8-0.8-1.3-1.5-1.3-2.7c0-1.6,1.1-2.7,2.7-2.7c1.7,0,3.5,1.4,5.3,3.2c0-0.5-0.1-1-0.1-1.4v-2.2h1.2v5.7H79.4z"/>
			<path class="st2" d="M70.6,348v-1l11.7,3.3v1L70.6,348z"/>
			<path class="st2" d="M78,346.2c-1.2,0-1.9-0.8-2.4-1.6h-0.1c-0.5,0.7-1.1,1.2-2.1,1.2c-1.4,0-2.3-1.1-2.3-2.5
				c0-1.5,1-2.5,2.3-2.5c0.9,0,1.7,0.6,2.1,1.2h0.1c0.5-0.8,1.1-1.5,2.3-1.5c1.3,0,2.3,1.2,2.3,2.9C80.4,345,79.4,346.2,78,346.2z
				 M73.6,342c-0.8,0-1.4,0.5-1.4,1.4c0,0.7,0.5,1.3,1.3,1.3c1,0,1.4-0.8,1.8-1.8C74.8,342.2,74.2,342,73.6,342z M78,341.8
				c-1.1,0-1.5,1-2,2.2c0.4,0.6,1.1,1,1.8,1c0.9,0,1.5-0.7,1.5-1.7C79.4,342.4,78.8,341.8,78,341.8z"/>
			<path class="st2" d="M70.6,336.5v-1l11.7,3.3v1L70.6,336.5z"/>
			<path class="st2" d="M79.1,334.9l-0.9-0.7c0.5-0.5,1-1.2,1-2.1c0-1-0.6-1.7-1.5-1.7c-1,0-1.6,0.6-1.6,2.6h-1
				c0-1.7-0.7-2.3-1.5-2.3s-1.3,0.5-1.3,1.4c0,0.7,0.3,1.3,0.8,1.8l-0.9,0.7c-0.6-0.7-1.1-1.5-1.1-2.5c0-1.6,0.8-2.7,2.3-2.7
				c1,0,1.7,0.6,2.1,1.5h0.1c0.3-1,1-1.8,2.2-1.8c1.6,0,2.5,1.3,2.5,2.9C80.4,333.4,79.8,334.3,79.1,334.9z"/>
			<path class="st2" d="M79.1,327.4v-1.9H73v1.6h-1c-0.2-0.8-0.4-1.4-0.7-1.9v-1H79v-1.7h1.1v5h-1V327.4z"/>
		</g>
		<g class="st1">
			<path class="st2" d="M133.5,378.3c-2.3-2.6-4-3.9-5.5-3.9c-1,0-1.6,0.5-1.6,1.5c0,0.7,0.4,1.3,1,1.7l-0.8,0.8
				c-0.8-0.8-1.3-1.5-1.3-2.7c0-1.6,1.1-2.7,2.7-2.7c1.7,0,3.5,1.4,5.3,3.2c0-0.5-0.1-1-0.1-1.4v-2.2h1.2v5.7H133.5z"/>
			<path class="st2" d="M129.9,371.4c-3.1,0-4.5-1.1-4.5-2.9c0-1.7,1.5-2.9,4.5-2.9c3.1,0,4.6,1.1,4.6,2.9S132.9,371.4,129.9,371.4z
				 M129.9,367c-2.5,0-3.5,0.6-3.5,1.5s0.9,1.5,3.5,1.5c2.6,0,3.5-0.6,3.5-1.5S132.4,367,129.9,367z"/>
			<path class="st2" d="M129.9,364.6c-3.1,0-4.5-1.1-4.5-2.9c0-1.7,1.5-2.9,4.5-2.9c3.1,0,4.6,1.1,4.6,2.9S132.9,364.6,129.9,364.6z
				 M129.9,360.2c-2.5,0-3.5,0.6-3.5,1.5s0.9,1.5,3.5,1.5c2.6,0,3.5-0.6,3.5-1.5S132.4,360.2,129.9,360.2z"/>
			<path class="st2" d="M133.3,358l-0.9-0.7c0.5-0.5,1-1.2,1-2.1c0-1-0.6-1.7-1.5-1.7c-1,0-1.6,0.6-1.6,2.6h-1
				c0-1.7-0.7-2.3-1.5-2.3s-1.3,0.5-1.3,1.4c0,0.7,0.3,1.3,0.8,1.8l-0.9,0.7c-0.6-0.7-1.1-1.5-1.1-2.5c0-1.6,0.8-2.7,2.3-2.7
				c1,0,1.7,0.6,2.1,1.5h0.1c0.3-1,1-1.8,2.2-1.8c1.6,0,2.5,1.3,2.5,3C134.5,356.5,133.9,357.4,133.3,358z"/>
			<path class="st2" d="M124.7,348v-1l11.7,3.3v1L124.7,348z"/>
			<path class="st2" d="M132.1,346.2c-1.2,0-1.9-0.8-2.4-1.6h-0.1c-0.5,0.7-1.1,1.2-2.1,1.2c-1.4,0-2.3-1.1-2.3-2.5
				c0-1.5,1-2.5,2.3-2.5c0.9,0,1.7,0.6,2.1,1.2h0.1c0.5-0.8,1.1-1.5,2.3-1.5c1.3,0,2.3,1.2,2.3,2.9
				C134.5,345,133.5,346.2,132.1,346.2z M127.8,342c-0.8,0-1.4,0.5-1.4,1.4c0,0.7,0.5,1.3,1.3,1.3c1,0,1.4-0.8,1.8-1.8
				C128.9,342.2,128.4,342,127.8,342z M132.1,341.8c-1.1,0-1.5,1-2,2.2c0.4,0.6,1.1,1,1.8,1c0.9,0,1.5-0.7,1.5-1.7
				C133.5,342.4,132.9,341.8,132.1,341.8z"/>
			<path class="st2" d="M124.7,336.5v-1l11.7,3.3v1L124.7,336.5z"/>
			<path class="st2" d="M133.3,334.9l-0.9-0.7c0.5-0.5,1-1.2,1-2.1c0-1-0.6-1.7-1.5-1.7c-1,0-1.6,0.6-1.6,2.6h-1
				c0-1.7-0.7-2.3-1.5-2.3s-1.3,0.5-1.3,1.4c0,0.7,0.3,1.3,0.8,1.8l-0.9,0.7c-0.6-0.7-1.1-1.5-1.1-2.5c0-1.6,0.8-2.7,2.3-2.7
				c1,0,1.7,0.6,2.1,1.5h0.1c0.3-1,1-1.8,2.2-1.8c1.6,0,2.5,1.3,2.5,2.9C134.5,333.4,133.9,334.3,133.3,334.9z"/>
			<path class="st2" d="M133.2,327.4v-1.9H127v1.6h-0.9c-0.2-0.8-0.4-1.4-0.7-1.9v-1h7.7v-1.7h1.1v5h-1L133.2,327.4L133.2,327.4z"/>
		</g>
		<g class="st1">
			<path class="st2" d="M187.6,378.3c-2.3-2.6-4-3.9-5.5-3.9c-1,0-1.6,0.5-1.6,1.5c0,0.7,0.4,1.3,1,1.7l-0.8,0.8
				c-0.8-0.8-1.3-1.5-1.3-2.7c0-1.6,1.1-2.7,2.7-2.7c1.7,0,3.5,1.4,5.3,3.2c0-0.5-0.1-1-0.1-1.4v-2.2h1.2v5.7H187.6z"/>
			<path class="st2" d="M184,371.4c-3.1,0-4.5-1.1-4.5-2.9c0-1.7,1.5-2.9,4.5-2.9c3.1,0,4.6,1.1,4.6,2.9S187.1,371.4,184,371.4z
				 M184,367c-2.5,0-3.5,0.6-3.5,1.5s0.9,1.5,3.5,1.5s3.5-0.6,3.5-1.5S186.5,367,184,367z"/>
			<path class="st2" d="M184,364.6c-3.1,0-4.5-1.1-4.5-2.9c0-1.7,1.5-2.9,4.5-2.9c3.1,0,4.6,1.1,4.6,2.9S187.1,364.6,184,364.6z
				 M184,360.2c-2.5,0-3.5,0.6-3.5,1.5s0.9,1.5,3.5,1.5s3.5-0.6,3.5-1.5S186.5,360.2,184,360.2z"/>
			<path class="st2" d="M186.1,351.8v1.1h2.4v1.3h-2.4v3.8h-0.9l-5.5-3.5V353h5.4v-1.1h1V351.8z M185,354.2h-2.3
				c-0.5,0-1.2,0-1.7-0.1l0,0c0.4,0.2,0.9,0.5,1.4,0.7l2.7,1.7L185,354.2L185,354.2z"/>
			<path class="st2" d="M178.9,348v-1l11.7,3.3v1L178.9,348z"/>
			<path class="st2" d="M186.2,346.2c-1.2,0-1.9-0.8-2.4-1.6h-0.1c-0.5,0.7-1.1,1.2-2.1,1.2c-1.4,0-2.3-1.1-2.3-2.5
				c0-1.5,1-2.5,2.3-2.5c0.9,0,1.7,0.6,2.1,1.2h0.1c0.5-0.8,1.1-1.5,2.3-1.5c1.3,0,2.3,1.2,2.3,2.9
				C188.6,345,187.6,346.2,186.2,346.2z M181.9,342c-0.8,0-1.4,0.5-1.4,1.4c0,0.7,0.5,1.3,1.3,1.3c1,0,1.4-0.8,1.8-1.8
				C183,342.2,182.5,342,181.9,342z M186.2,341.8c-1.1,0-1.5,1-2,2.2c0.4,0.6,1.1,1,1.8,1c0.9,0,1.5-0.7,1.5-1.7
				C187.6,342.4,187.1,341.8,186.2,341.8z"/>
			<path class="st2" d="M178.9,336.5v-1l11.7,3.3v1L178.9,336.5z"/>
			<path class="st2" d="M187.4,334.9l-0.9-0.7c0.5-0.5,1-1.2,1-2.1c0-1-0.6-1.7-1.5-1.7c-1,0-1.6,0.6-1.6,2.6h-1
				c0-1.7-0.7-2.3-1.5-2.3s-1.3,0.5-1.3,1.4c0,0.7,0.3,1.3,0.8,1.8l-0.9,0.7c-0.6-0.7-1.1-1.5-1.1-2.5c0-1.6,0.8-2.7,2.3-2.7
				c1,0,1.7,0.6,2.1,1.5h0.1c0.3-1,1-1.8,2.2-1.8c1.6,0,2.5,1.3,2.5,2.9C188.6,333.4,188,334.3,187.4,334.9z"/>
			<path class="st2" d="M187.3,327.4v-1.9h-6.1v1.6h-0.9c-0.2-0.8-0.4-1.4-0.7-1.9v-1h7.7v-1.7h1.1v5h-1.1V327.4z"/>
		</g>
		<g class="st1">
			<path class="st2" d="M241.7,378.3c-2.3-2.6-4-3.9-5.5-3.9c-1,0-1.6,0.5-1.6,1.5c0,0.7,0.4,1.3,1,1.7l-0.8,0.8
				c-0.8-0.8-1.3-1.5-1.3-2.7c0-1.6,1.1-2.7,2.7-2.7c1.7,0,3.5,1.4,5.3,3.2c0-0.5-0.1-1-0.1-1.4v-2.2h1.2v5.7H241.7z"/>
			<path class="st2" d="M238.1,371.4c-3.1,0-4.5-1.1-4.5-2.9c0-1.7,1.5-2.9,4.5-2.9c3.1,0,4.6,1.1,4.6,2.9
				C242.7,370.3,241.2,371.4,238.1,371.4z M238.1,367c-2.5,0-3.5,0.6-3.5,1.5s0.9,1.5,3.5,1.5s3.5-0.6,3.5-1.5S240.7,367,238.1,367z
				"/>
			<path class="st2" d="M238.1,364.6c-3.1,0-4.5-1.1-4.5-2.9c0-1.7,1.5-2.9,4.5-2.9c3.1,0,4.6,1.1,4.6,2.9
				C242.7,363.5,241.2,364.6,238.1,364.6z M238.1,360.2c-2.5,0-3.5,0.6-3.5,1.5s0.9,1.5,3.5,1.5s3.5-0.6,3.5-1.5
				S240.7,360.2,238.1,360.2z"/>
			<path class="st2" d="M241.5,358l-0.9-0.7c0.5-0.5,0.9-1.1,0.9-2.1s-0.7-1.8-1.9-1.8s-1.8,0.7-1.8,1.7c0,0.6,0.2,0.9,0.5,1.4
				l-0.4,0.7l-4.2-0.3v-4.5h1.2v3.3l2.3,0.2c-0.2-0.4-0.3-0.7-0.3-1.2c0-1.5,0.9-2.7,2.8-2.7c2,0,3.1,1.4,3.1,3
				C242.7,356.5,242.1,357.4,241.5,358z"/>
			<path class="st2" d="M233,348v-1l11.7,3.3v1L233,348z"/>
			<path class="st2" d="M240.4,346.2c-1.2,0-1.9-0.8-2.4-1.6h-0.1c-0.5,0.7-1.1,1.2-2.1,1.2c-1.4,0-2.3-1.1-2.3-2.5
				c0-1.5,1-2.5,2.3-2.5c0.9,0,1.7,0.6,2.1,1.2h0.1c0.5-0.8,1.1-1.5,2.3-1.5c1.3,0,2.3,1.2,2.3,2.9
				C242.7,345,241.7,346.2,240.4,346.2z M236,342c-0.8,0-1.4,0.5-1.4,1.4c0,0.7,0.5,1.3,1.3,1.3c1,0,1.4-0.8,1.8-1.8
				C237.2,342.2,236.6,342,236,342z M240.4,341.8c-1.1,0-1.5,1-2,2.2c0.4,0.6,1.1,1,1.8,1c0.9,0,1.5-0.7,1.5-1.7
				C241.7,342.4,241.2,341.8,240.4,341.8z"/>
			<path class="st2" d="M233,336.5v-1l11.7,3.3v1L233,336.5z"/>
			<path class="st2" d="M241.5,334.9l-0.9-0.7c0.5-0.5,1-1.2,1-2.1c0-1-0.6-1.7-1.5-1.7c-1,0-1.6,0.6-1.6,2.6h-1
				c0-1.7-0.7-2.3-1.5-2.3s-1.3,0.5-1.3,1.4c0,0.7,0.3,1.3,0.8,1.8l-0.9,0.7c-0.6-0.7-1.1-1.5-1.1-2.5c0-1.6,0.8-2.7,2.3-2.7
				c1,0,1.7,0.6,2.1,1.5h0.1c0.3-1,1-1.8,2.2-1.8c1.6,0,2.5,1.3,2.5,2.9C242.7,333.4,242.2,334.3,241.5,334.9z"/>
			<path class="st2" d="M241.4,327.4v-1.9h-6.1v1.6h-0.9c-0.2-0.8-0.4-1.4-0.7-1.9v-1h7.7v-1.7h1.1v5h-1.1V327.4z"/>
		</g>
		<g class="st1">
			<path class="st2" d="M295.9,378.3c-2.3-2.6-4-3.9-5.5-3.9c-1,0-1.6,0.5-1.6,1.5c0,0.7,0.4,1.3,1,1.7l-0.8,0.8
				c-0.8-0.8-1.3-1.5-1.3-2.7c0-1.6,1.1-2.7,2.7-2.7c1.7,0,3.5,1.4,5.3,3.2c0-0.5-0.1-1-0.1-1.4v-2.2h1.2v5.7H295.9z"/>
			<path class="st2" d="M292.2,371.4c-3.1,0-4.5-1.1-4.5-2.9c0-1.7,1.5-2.9,4.5-2.9c3.1,0,4.6,1.1,4.6,2.9
				C296.8,370.3,295.3,371.4,292.2,371.4z M292.2,367c-2.5,0-3.5,0.6-3.5,1.5s0.9,1.5,3.5,1.5s3.5-0.6,3.5-1.5S294.8,367,292.2,367z
				"/>
			<path class="st2" d="M292.2,364.6c-3.1,0-4.5-1.1-4.5-2.9c0-1.7,1.5-2.9,4.5-2.9c3.1,0,4.6,1.1,4.6,2.9
				C296.8,363.5,295.3,364.6,292.2,364.6z M292.2,360.2c-2.5,0-3.5,0.6-3.5,1.5s0.9,1.5,3.5,1.5s3.5-0.6,3.5-1.5
				S294.8,360.2,292.2,360.2z"/>
			<path class="st2" d="M289.5,352.9c-0.4,0.3-0.7,0.9-0.7,1.4c0,1.1,0.9,2.1,3.4,2.1c-0.6-0.5-1-1.3-1-1.9c0-1.5,0.9-2.5,2.8-2.5
				c1.8,0,2.9,1.2,2.9,2.6c0,1.7-1.4,3-4.4,3c-3.4,0-4.7-1.6-4.7-3.3c0-1,0.4-1.7,0.9-2.2L289.5,352.9z M293.9,353.3
				c-1.1,0-1.8,0.5-1.8,1.5c0,0.5,0.3,1.1,1,1.6c1.8-0.1,2.6-0.8,2.6-1.7C295.8,353.9,295.1,353.3,293.9,353.3z"/>
			<path class="st2" d="M287.1,348v-1l11.7,3.3v1L287.1,348z"/>
			<path class="st2" d="M294.5,346.2c-1.2,0-1.9-0.8-2.4-1.6H292c-0.5,0.7-1.1,1.2-2.1,1.2c-1.4,0-2.3-1.1-2.3-2.5
				c0-1.5,1-2.5,2.3-2.5c0.9,0,1.7,0.6,2.1,1.2h0.1c0.5-0.8,1.1-1.5,2.3-1.5c1.3,0,2.3,1.2,2.3,2.9
				C296.8,345,295.8,346.2,294.5,346.2z M290.1,342c-0.8,0-1.4,0.5-1.4,1.4c0,0.7,0.5,1.3,1.3,1.3c1,0,1.4-0.8,1.8-1.8
				C291.3,342.2,290.7,342,290.1,342z M294.5,341.8c-1.1,0-1.5,1-2,2.2c0.4,0.6,1.1,1,1.8,1c0.9,0,1.5-0.7,1.5-1.7
				C295.8,342.4,295.3,341.8,294.5,341.8z"/>
			<path class="st2" d="M287.1,336.5v-1l11.7,3.3v1L287.1,336.5z"/>
			<path class="st2" d="M295.6,334.9l-0.9-0.7c0.5-0.5,1-1.2,1-2.1c0-1-0.6-1.7-1.5-1.7c-1,0-1.6,0.6-1.6,2.6h-1
				c0-1.7-0.7-2.3-1.5-2.3s-1.3,0.5-1.3,1.4c0,0.7,0.3,1.3,0.8,1.8l-0.9,0.7c-0.6-0.7-1.1-1.5-1.1-2.5c0-1.6,0.8-2.7,2.3-2.7
				c1,0,1.7,0.6,2.1,1.5h0.1c0.3-1,1-1.8,2.2-1.8c1.6,0,2.5,1.3,2.5,2.9C296.8,333.4,296.3,334.3,295.6,334.9z"/>
			<path class="st2" d="M295.5,327.4v-1.9h-6.1v1.6h-0.9c-0.2-0.8-0.4-1.4-0.7-1.9v-1h7.7v-1.7h1.1v5h-1.1V327.4z"/>
		</g>
		<g class="st1">
			<path class="st2" d="M350,378.3c-2.3-2.6-4-3.9-5.5-3.9c-1,0-1.6,0.5-1.6,1.5c0,0.7,0.4,1.3,1,1.7l-0.8,0.8
				c-0.8-0.8-1.3-1.5-1.3-2.7c0-1.6,1.1-2.7,2.7-2.7c1.7,0,3.5,1.4,5.3,3.2c0-0.5-0.1-1-0.1-1.4v-2.2h1.2v5.7H350z"/>
			<path class="st2" d="M346.3,371.4c-3.1,0-4.5-1.1-4.5-2.9c0-1.7,1.5-2.9,4.5-2.9c3.1,0,4.6,1.1,4.6,2.9S349.4,371.4,346.3,371.4z
				 M346.3,367c-2.5,0-3.5,0.6-3.5,1.5s0.9,1.5,3.5,1.5s3.5-0.6,3.5-1.5S348.9,367,346.3,367z"/>
			<path class="st2" d="M346.3,364.6c-3.1,0-4.5-1.1-4.5-2.9c0-1.7,1.5-2.9,4.5-2.9c3.1,0,4.6,1.1,4.6,2.9S349.4,364.6,346.3,364.6z
				 M346.3,360.2c-2.5,0-3.5,0.6-3.5,1.5s0.9,1.5,3.5,1.5s3.5-0.6,3.5-1.5S348.9,360.2,346.3,360.2z"/>
			<path class="st2" d="M343.1,353.6v4.1H342V352h0.8c2.6,2.1,4.5,2.4,8,2.5v1.4C347.6,355.8,345.5,355.3,343.1,353.6z"/>
			<path class="st2" d="M341.2,348v-1l11.7,3.3v1L341.2,348z"/>
			<path class="st2" d="M348.6,346.2c-1.2,0-1.9-0.8-2.4-1.6h-0.1c-0.5,0.7-1.1,1.2-2.1,1.2c-1.4,0-2.3-1.1-2.3-2.5
				c0-1.5,1-2.5,2.3-2.5c0.9,0,1.7,0.6,2.1,1.2h0.1c0.5-0.8,1.1-1.5,2.3-1.5c1.3,0,2.3,1.2,2.3,2.9C350.9,345,350,346.2,348.6,346.2
				z M344.2,342c-0.8,0-1.4,0.5-1.4,1.4c0,0.7,0.5,1.3,1.3,1.3c1,0,1.4-0.8,1.8-1.8C345.4,342.2,344.8,342,344.2,342z M348.6,341.8
				c-1.1,0-1.5,1-2,2.2c0.4,0.6,1.1,1,1.8,1c0.9,0,1.5-0.7,1.5-1.7C349.9,342.4,349.4,341.8,348.6,341.8z"/>
			<path class="st2" d="M341.2,336.5v-1l11.7,3.3v1L341.2,336.5z"/>
			<path class="st2" d="M349.7,334.9l-0.9-0.7c0.5-0.5,1-1.2,1-2.1c0-1-0.6-1.7-1.5-1.7c-1,0-1.6,0.6-1.6,2.6h-1
				c0-1.7-0.7-2.3-1.5-2.3s-1.3,0.5-1.3,1.4c0,0.7,0.3,1.3,0.8,1.8l-0.9,0.7c-0.6-0.7-1.1-1.5-1.1-2.5c0-1.6,0.8-2.7,2.3-2.7
				c1,0,1.7,0.6,2.1,1.5h0.1c0.3-1,1-1.8,2.2-1.8c1.6,0,2.5,1.3,2.5,2.9C350.9,333.4,350.4,334.3,349.7,334.9z"/>
			<path class="st2" d="M349.6,327.4v-1.9h-6.1v1.6h-0.9c-0.2-0.8-0.4-1.4-0.7-1.9v-1h7.7v-1.7h1.1v5h-1.1V327.4z"/>
		</g>
		<g class="st1">
			<path class="st2" d="M404.1,378.3c-2.3-2.6-4-3.9-5.5-3.9c-1,0-1.6,0.5-1.6,1.5c0,0.7,0.4,1.3,1,1.7l-0.8,0.8
				c-0.8-0.8-1.3-1.5-1.3-2.7c0-1.6,1.1-2.7,2.7-2.7c1.7,0,3.5,1.4,5.3,3.2c0-0.5-0.1-1-0.1-1.4v-2.2h1.2v5.7H404.1z"/>
			<path class="st2" d="M400.5,371.4c-3.1,0-4.5-1.1-4.5-2.9c0-1.7,1.5-2.9,4.5-2.9c3.1,0,4.6,1.1,4.6,2.9S403.5,371.4,400.5,371.4z
				 M400.5,367c-2.5,0-3.5,0.6-3.5,1.5s0.9,1.5,3.5,1.5s3.5-0.6,3.5-1.5S403,367,400.5,367z"/>
			<path class="st2" d="M400.5,364.6c-3.1,0-4.5-1.1-4.5-2.9c0-1.7,1.5-2.9,4.5-2.9c3.1,0,4.6,1.1,4.6,2.9S403.5,364.6,400.5,364.6z
				 M400.5,360.2c-2.5,0-3.5,0.6-3.5,1.5s0.9,1.5,3.5,1.5s3.5-0.6,3.5-1.5S403,360.2,400.5,360.2z"/>
			<path class="st2" d="M402.7,357.8c-1.2,0-1.9-0.8-2.4-1.6h-0.1c-0.5,0.7-1.1,1.2-2.1,1.2c-1.4,0-2.3-1.1-2.3-2.5
				c0-1.5,1-2.5,2.3-2.5c0.9,0,1.7,0.6,2.1,1.2h0.1c0.5-0.8,1.1-1.5,2.3-1.5c1.3,0,2.3,1.2,2.3,2.9
				C405.1,356.5,404.1,357.8,402.7,357.8z M398.4,353.5c-0.8,0-1.4,0.5-1.4,1.4c0,0.7,0.5,1.3,1.3,1.3c1,0,1.4-0.8,1.8-1.8
				C399.5,353.8,398.9,353.5,398.4,353.5z M402.7,353.3c-1.1,0-1.5,1-2,2.2c0.4,0.6,1.1,1,1.8,1c0.9,0,1.5-0.7,1.5-1.7
				C404.1,353.9,403.5,353.3,402.7,353.3z"/>
			<path class="st2" d="M395.3,348v-1l11.7,3.3v1L395.3,348z"/>
			<path class="st2" d="M402.7,346.2c-1.2,0-1.9-0.8-2.4-1.6h-0.1c-0.5,0.7-1.1,1.2-2.1,1.2c-1.4,0-2.3-1.1-2.3-2.5
				c0-1.5,1-2.5,2.3-2.5c0.9,0,1.7,0.6,2.1,1.2h0.1c0.5-0.8,1.1-1.5,2.3-1.5c1.3,0,2.3,1.2,2.3,2.9
				C405.1,345,404.1,346.2,402.7,346.2z M398.4,342c-0.8,0-1.4,0.5-1.4,1.4c0,0.7,0.5,1.3,1.3,1.3c1,0,1.4-0.8,1.8-1.8
				C399.5,342.2,398.9,342,398.4,342z M402.7,341.8c-1.1,0-1.5,1-2,2.2c0.4,0.6,1.1,1,1.8,1c0.9,0,1.5-0.7,1.5-1.7
				C404.1,342.4,403.5,341.8,402.7,341.8z"/>
			<path class="st2" d="M395.3,336.5v-1l11.7,3.3v1L395.3,336.5z"/>
			<path class="st2" d="M403.8,334.9l-0.9-0.7c0.5-0.5,1-1.2,1-2.1c0-1-0.6-1.7-1.5-1.7c-1,0-1.6,0.6-1.6,2.6h-1
				c0-1.7-0.7-2.3-1.5-2.3s-1.3,0.5-1.3,1.4c0,0.7,0.3,1.3,0.8,1.8l-0.9,0.7c-0.6-0.7-1.1-1.5-1.1-2.5c0-1.6,0.8-2.7,2.3-2.7
				c1,0,1.7,0.6,2.1,1.5h0.1c0.3-1,1-1.8,2.2-1.8c1.6,0,2.5,1.3,2.5,2.9C405.1,333.4,404.5,334.3,403.8,334.9z"/>
			<path class="st2" d="M403.8,327.4v-1.9h-6.1v1.6h-0.9c-0.2-0.8-0.4-1.4-0.7-1.9v-1h7.7v-1.7h1.1v5h-1.1V327.4z"/>
		</g>
		<g class="st1">
			<path class="st2" d="M458.2,378.3c-2.3-2.6-4-3.9-5.5-3.9c-1,0-1.6,0.5-1.6,1.5c0,0.7,0.4,1.3,1,1.7l-0.8,0.8
				c-0.8-0.8-1.3-1.5-1.3-2.7c0-1.6,1.1-2.7,2.7-2.7c1.7,0,3.5,1.4,5.3,3.2c0-0.5-0.1-1-0.1-1.4v-2.2h1.2v5.7H458.2z"/>
			<path class="st2" d="M454.6,371.4c-3.1,0-4.5-1.1-4.5-2.9c0-1.7,1.5-2.9,4.5-2.9c3.1,0,4.6,1.1,4.6,2.9S457.6,371.4,454.6,371.4z
				 M454.6,367c-2.5,0-3.5,0.6-3.5,1.5s0.9,1.5,3.5,1.5s3.5-0.6,3.5-1.5S457.1,367,454.6,367z"/>
			<path class="st2" d="M454.6,364.6c-3.1,0-4.5-1.1-4.5-2.9c0-1.7,1.5-2.9,4.5-2.9c3.1,0,4.6,1.1,4.6,2.9S457.6,364.6,454.6,364.6z
				 M454.6,360.2c-2.5,0-3.5,0.6-3.5,1.5s0.9,1.5,3.5,1.5s3.5-0.6,3.5-1.5S457.1,360.2,454.6,360.2z"/>
			<path class="st2" d="M457.4,356.9c0.4-0.3,0.7-0.9,0.7-1.5c0-1.1-0.9-2-3.4-2.1c0.6,0.5,1,1.3,1,1.9c0,1.5-0.9,2.5-2.8,2.5
				c-1.8,0-2.9-1.2-2.9-2.6c0-1.7,1.4-3.1,4.3-3.1c3.5,0,4.9,1.6,4.9,3.3c0,1-0.4,1.7-0.9,2.3L457.4,356.9z M453.6,353.4
				c-1.7,0.1-2.5,0.8-2.5,1.8c0,0.8,0.7,1.4,1.8,1.4c1.1,0,1.8-0.5,1.8-1.4C454.7,354.5,454.4,353.9,453.6,353.4z"/>
			<path class="st2" d="M449.4,348v-1l11.7,3.3v1L449.4,348z"/>
			<path class="st2" d="M456.8,346.2c-1.2,0-1.9-0.8-2.4-1.6h-0.1c-0.5,0.7-1.1,1.2-2.1,1.2c-1.4,0-2.3-1.1-2.3-2.5
				c0-1.5,1-2.5,2.3-2.5c0.9,0,1.7,0.6,2.1,1.2h0.1c0.5-0.8,1.1-1.5,2.3-1.5c1.3,0,2.3,1.2,2.3,2.9
				C459.2,345,458.2,346.2,456.8,346.2z M452.5,342c-0.8,0-1.4,0.5-1.4,1.4c0,0.7,0.5,1.3,1.3,1.3c1,0,1.4-0.8,1.8-1.8
				C453.6,342.2,453.1,342,452.5,342z M456.8,341.8c-1.1,0-1.5,1-2,2.2c0.4,0.6,1.1,1,1.8,1c0.9,0,1.5-0.7,1.5-1.7
				C458.2,342.4,457.7,341.8,456.8,341.8z"/>
			<path class="st2" d="M449.4,336.5v-1l11.7,3.3v1L449.4,336.5z"/>
			<path class="st2" d="M458,334.9l-0.9-0.7c0.5-0.5,1-1.2,1-2.1c0-1-0.6-1.7-1.5-1.7c-1,0-1.6,0.6-1.6,2.6h-1
				c0-1.7-0.7-2.3-1.5-2.3s-1.3,0.5-1.3,1.4c0,0.7,0.3,1.3,0.8,1.8l-0.9,0.7c-0.6-0.7-1.1-1.5-1.1-2.5c0-1.6,0.8-2.7,2.3-2.7
				c1,0,1.7,0.6,2.1,1.5h0.1c0.3-1,1-1.8,2.2-1.8c1.6,0,2.5,1.3,2.5,2.9C459.2,333.4,458.6,334.3,458,334.9z"/>
			<path class="st2" d="M457.9,327.4v-1.9h-6.1v1.6h-0.9c-0.2-0.8-0.4-1.4-0.7-1.9v-1h7.7v-1.7h1.1v5h-1.1V327.4z"/>
		</g>
		<g class="st1">
			<path class="st2" d="M512.3,378.3c-2.3-2.6-4-3.9-5.5-3.9c-1,0-1.6,0.5-1.6,1.5c0,0.7,0.4,1.3,1,1.7l-0.8,0.8
				c-0.8-0.8-1.3-1.5-1.3-2.7c0-1.6,1.1-2.7,2.7-2.7c1.7,0,3.5,1.4,5.3,3.2c0-0.5-0.1-1-0.1-1.4v-2.2h1.2v5.7H512.3z"/>
			<path class="st2" d="M508.7,371.4c-3.1,0-4.5-1.1-4.5-2.9c0-1.7,1.5-2.9,4.5-2.9c3.1,0,4.6,1.1,4.6,2.9S511.8,371.4,508.7,371.4z
				 M508.7,367c-2.5,0-3.5,0.6-3.5,1.5s0.9,1.5,3.5,1.5s3.5-0.6,3.5-1.5S511.2,367,508.7,367z"/>
			<path class="st2" d="M512,364.1v-1.9h-6.1v1.6H505c-0.2-0.8-0.4-1.4-0.7-1.9v-1h7.7v-1.7h1.1v5H512V364.1z"/>
			<path class="st2" d="M508.7,357.7c-3.1,0-4.5-1.1-4.5-2.9c0-1.7,1.5-2.9,4.5-2.9c3.1,0,4.6,1.1,4.6,2.9S511.8,357.7,508.7,357.7z
				 M508.7,353.3c-2.5,0-3.5,0.6-3.5,1.5s0.9,1.5,3.5,1.5s3.5-0.6,3.5-1.5S511.2,353.3,508.7,353.3z"/>
			<path class="st2" d="M503.6,348v-1l11.7,3.3v1L503.6,348z"/>
			<path class="st2" d="M510.9,346.2c-1.2,0-1.9-0.8-2.4-1.6h-0.1c-0.5,0.7-1.1,1.2-2.1,1.2c-1.4,0-2.3-1.1-2.3-2.5
				c0-1.5,1-2.5,2.3-2.5c0.9,0,1.7,0.6,2.1,1.2h0.1c0.5-0.8,1.1-1.5,2.3-1.5c1.3,0,2.3,1.2,2.3,2.9
				C513.3,345,512.3,346.2,510.9,346.2z M506.6,342c-0.8,0-1.4,0.5-1.4,1.4c0,0.7,0.5,1.3,1.3,1.3c1,0,1.4-0.8,1.8-1.8
				C507.7,342.2,507.2,342,506.6,342z M510.9,341.8c-1.1,0-1.5,1-2,2.2c0.4,0.6,1.1,1,1.8,1c0.9,0,1.5-0.7,1.5-1.7
				C512.3,342.4,511.8,341.8,510.9,341.8z"/>
			<path class="st2" d="M503.6,336.5v-1l11.7,3.3v1L503.6,336.5z"/>
			<path class="st2" d="M512.1,334.9l-0.9-0.7c0.5-0.5,1-1.2,1-2.1c0-1-0.6-1.7-1.5-1.7c-1,0-1.6,0.6-1.6,2.6h-1
				c0-1.7-0.7-2.3-1.5-2.3s-1.3,0.5-1.3,1.4c0,0.7,0.3,1.3,0.8,1.8l-0.9,0.7c-0.6-0.7-1.1-1.5-1.1-2.5c0-1.6,0.8-2.7,2.3-2.7
				c1,0,1.7,0.6,2.1,1.5h0.1c0.3-1,1-1.8,2.2-1.8c1.6,0,2.5,1.3,2.5,2.9C513.3,333.4,512.7,334.3,512.1,334.9z"/>
			<path class="st2" d="M512,327.4v-1.9h-6.1v1.6H505c-0.2-0.8-0.4-1.4-0.7-1.9v-1h7.7v-1.7h1.1v5H512V327.4z"/>
		</g>
		<g class="st1">
			<path class="st2" d="M566.5,378.3c-2.3-2.6-4-3.9-5.5-3.9c-1,0-1.6,0.5-1.6,1.5c0,0.7,0.4,1.3,1,1.7l-0.8,0.8
				c-0.8-0.8-1.3-1.5-1.3-2.7c0-1.6,1.1-2.7,2.7-2.7c1.7,0,3.5,1.4,5.3,3.2c0-0.5-0.1-1-0.1-1.4v-2.2h1.2v5.7H566.5z"/>
			<path class="st2" d="M562.8,371.4c-3.1,0-4.5-1.1-4.5-2.9c0-1.7,1.5-2.9,4.5-2.9c3.1,0,4.6,1.1,4.6,2.9
				C567.4,370.3,565.9,371.4,562.8,371.4z M562.8,367c-2.5,0-3.5,0.6-3.5,1.5s0.9,1.5,3.5,1.5s3.5-0.6,3.5-1.5S565.4,367,562.8,367z
				"/>
			<path class="st2" d="M566.1,364.1v-1.9H560v1.6h-0.9c-0.2-0.8-0.4-1.4-0.7-1.9v-1h7.7v-1.7h1.1v5h-1.1V364.1z"/>
			<path class="st2" d="M566.1,357.3v-1.9H560v1.6h-0.9c-0.2-0.8-0.4-1.4-0.7-1.9v-1h7.7v-1.7h1.1v5h-1.1V357.3z"/>
			<path class="st2" d="M557.7,348v-1l11.7,3.3v1L557.7,348z"/>
			<path class="st2" d="M565.1,346.2c-1.2,0-1.9-0.8-2.4-1.6h-0.1c-0.5,0.7-1.1,1.2-2.1,1.2c-1.4,0-2.3-1.1-2.3-2.5
				c0-1.5,1-2.5,2.3-2.5c0.9,0,1.7,0.6,2.1,1.2h0.1c0.5-0.8,1.1-1.5,2.3-1.5c1.3,0,2.3,1.2,2.3,2.9
				C567.4,345,566.4,346.2,565.1,346.2z M560.7,342c-0.8,0-1.4,0.5-1.4,1.4c0,0.7,0.5,1.3,1.3,1.3c1,0,1.4-0.8,1.8-1.8
				C561.9,342.2,561.3,342,560.7,342z M565.1,341.8c-1.1,0-1.5,1-2,2.2c0.4,0.6,1.1,1,1.8,1c0.9,0,1.5-0.7,1.5-1.7
				C566.4,342.4,565.9,341.8,565.1,341.8z"/>
			<path class="st2" d="M557.7,336.5v-1l11.7,3.3v1L557.7,336.5z"/>
			<path class="st2" d="M566.2,334.9l-0.9-0.7c0.5-0.5,1-1.2,1-2.1c0-1-0.6-1.7-1.5-1.7c-1,0-1.6,0.6-1.6,2.6h-1
				c0-1.7-0.7-2.3-1.5-2.3s-1.3,0.5-1.3,1.4c0,0.7,0.3,1.3,0.8,1.8l-0.9,0.7c-0.6-0.7-1.1-1.5-1.1-2.5c0-1.6,0.8-2.7,2.3-2.7
				c1,0,1.7,0.6,2.1,1.5h0.1c0.3-1,1-1.8,2.2-1.8c1.6,0,2.5,1.3,2.5,2.9C567.4,333.4,566.9,334.3,566.2,334.9z"/>
			<path class="st2" d="M566.1,327.4v-1.9H560v1.6h-0.9c-0.2-0.8-0.4-1.4-0.7-1.9v-1h7.7v-1.7h1.1v5h-1.1V327.4z"/>
		</g>
		<g class="st1">
			<path class="st2" d="M620.6,378.3c-2.3-2.6-4-3.9-5.5-3.9c-1,0-1.6,0.5-1.6,1.5c0,0.7,0.4,1.3,1,1.7l-0.8,0.8
				c-0.8-0.8-1.3-1.5-1.3-2.7c0-1.6,1.1-2.7,2.7-2.7c1.7,0,3.5,1.4,5.3,3.2c0-0.5-0.1-1-0.1-1.4v-2.2h1.2v5.7H620.6z"/>
			<path class="st2" d="M616.9,371.4c-3.1,0-4.5-1.1-4.5-2.9c0-1.7,1.5-2.9,4.5-2.9c3.1,0,4.6,1.1,4.6,2.9S620,371.4,616.9,371.4z
				 M616.9,367c-2.5,0-3.5,0.6-3.5,1.5s0.9,1.5,3.5,1.5s3.5-0.6,3.5-1.5S619.5,367,616.9,367z"/>
			<path class="st2" d="M620.2,364.1v-1.9h-6.1v1.6h-0.9c-0.2-0.8-0.4-1.4-0.7-1.9v-1h7.7v-1.7h1.1v5h-1.1V364.1z"/>
			<path class="st2" d="M620.6,357.8c-2.3-2.6-4-3.9-5.5-3.9c-1,0-1.6,0.5-1.6,1.5c0,0.7,0.4,1.3,1,1.7l-0.8,0.8
				c-0.8-0.8-1.3-1.5-1.3-2.7c0-1.6,1.1-2.7,2.7-2.7c1.7,0,3.5,1.4,5.3,3.2c0-0.5-0.1-1-0.1-1.4v-2.2h1.2v5.7H620.6z"/>
			<path class="st2" d="M611.8,348v-1l11.7,3.3v1L611.8,348z"/>
			<path class="st2" d="M619.2,346.2c-1.2,0-1.9-0.8-2.4-1.6h-0.1c-0.5,0.7-1.1,1.2-2.1,1.2c-1.4,0-2.3-1.1-2.3-2.5
				c0-1.5,1-2.5,2.3-2.5c0.9,0,1.7,0.6,2.1,1.2h0.1c0.5-0.8,1.1-1.5,2.3-1.5c1.3,0,2.3,1.2,2.3,2.9
				C621.5,345,620.5,346.2,619.2,346.2z M614.8,342c-0.8,0-1.4,0.5-1.4,1.4c0,0.7,0.5,1.3,1.3,1.3c1,0,1.4-0.8,1.8-1.8
				C616,342.2,615.4,342,614.8,342z M619.2,341.8c-1.1,0-1.5,1-2,2.2c0.4,0.6,1.1,1,1.8,1c0.9,0,1.5-0.7,1.5-1.7
				C620.5,342.4,620,341.8,619.2,341.8z"/>
			<path class="st2" d="M611.8,336.5v-1l11.7,3.3v1L611.8,336.5z"/>
			<path class="st2" d="M620.3,334.9l-0.9-0.7c0.5-0.5,1-1.2,1-2.1c0-1-0.6-1.7-1.5-1.7c-1,0-1.6,0.6-1.6,2.6h-1
				c0-1.7-0.7-2.3-1.5-2.3s-1.3,0.5-1.3,1.4c0,0.7,0.3,1.3,0.8,1.8l-0.9,0.7c-0.6-0.7-1.1-1.5-1.1-2.5c0-1.6,0.8-2.7,2.3-2.7
				c1,0,1.7,0.6,2.1,1.5h0.1c0.3-1,1-1.8,2.2-1.8c1.6,0,2.5,1.3,2.5,2.9C621.5,333.4,621,334.3,620.3,334.9z"/>
			<path class="st2" d="M620.2,327.4v-1.9h-6.1v1.6h-0.9c-0.2-0.8-0.4-1.4-0.7-1.9v-1h7.7v-1.7h1.1v5h-1.1V327.4z"/>
		</g>
		<g class="st1">
			<path class="st2" d="M674.7,378.3c-2.3-2.6-4-3.9-5.5-3.9c-1,0-1.6,0.5-1.6,1.5c0,0.7,0.4,1.3,1,1.7l-0.8,0.8
				c-0.8-0.8-1.3-1.5-1.3-2.7c0-1.6,1.1-2.7,2.7-2.7c1.7,0,3.5,1.4,5.3,3.2c0-0.5-0.1-1-0.1-1.4v-2.2h1.2v5.7H674.7z"/>
			<path class="st2" d="M671,371.4c-3.1,0-4.5-1.1-4.5-2.9c0-1.7,1.5-2.9,4.5-2.9c3.1,0,4.6,1.1,4.6,2.9S674.1,371.4,671,371.4z
				 M671,367c-2.5,0-3.5,0.6-3.5,1.5s0.9,1.5,3.5,1.5s3.5-0.6,3.5-1.5S673.6,367,671,367z"/>
			<path class="st2" d="M674.4,364.1v-1.9h-6.1v1.6h-0.9c-0.2-0.8-0.4-1.4-0.7-1.9v-1h7.7v-1.7h1.1v5h-1.1V364.1z"/>
			<path class="st2" d="M674.4,358l-0.9-0.7c0.5-0.5,1-1.2,1-2.1c0-1-0.6-1.7-1.5-1.7c-1,0-1.6,0.6-1.6,2.6h-1
				c0-1.7-0.7-2.3-1.5-2.3s-1.3,0.5-1.3,1.4c0,0.7,0.3,1.3,0.8,1.8l-0.9,0.7c-0.6-0.7-1.1-1.5-1.1-2.5c0-1.6,0.8-2.7,2.3-2.7
				c1,0,1.7,0.6,2.1,1.5h0.1c0.3-1,1-1.8,2.2-1.8c1.6,0,2.5,1.3,2.5,3C675.6,356.5,675.1,357.4,674.4,358z"/>
			<path class="st2" d="M665.9,348v-1l11.7,3.3v1L665.9,348z"/>
			<path class="st2" d="M673.3,346.2c-1.2,0-1.9-0.8-2.4-1.6h-0.1c-0.5,0.7-1.1,1.2-2.1,1.2c-1.4,0-2.3-1.1-2.3-2.5
				c0-1.5,1-2.5,2.3-2.5c0.9,0,1.7,0.6,2.1,1.2h0.1c0.5-0.8,1.1-1.5,2.3-1.5c1.3,0,2.3,1.2,2.3,2.9
				C675.6,345,674.7,346.2,673.3,346.2z M668.9,342c-0.8,0-1.4,0.5-1.4,1.4c0,0.7,0.5,1.3,1.3,1.3c1,0,1.4-0.8,1.8-1.8
				C670.1,342.2,669.5,342,668.9,342z M673.3,341.8c-1.1,0-1.5,1-2,2.2c0.4,0.6,1.1,1,1.8,1c0.9,0,1.5-0.7,1.5-1.7
				C674.7,342.4,674.1,341.8,673.3,341.8z"/>
			<path class="st2" d="M665.9,336.5v-1l11.7,3.3v1L665.9,336.5z"/>
			<path class="st2" d="M674.4,334.9l-0.9-0.7c0.5-0.5,1-1.2,1-2.1c0-1-0.6-1.7-1.5-1.7c-1,0-1.6,0.6-1.6,2.6h-1
				c0-1.7-0.7-2.3-1.5-2.3s-1.3,0.5-1.3,1.4c0,0.7,0.3,1.3,0.8,1.8l-0.9,0.7c-0.6-0.7-1.1-1.5-1.1-2.5c0-1.6,0.8-2.7,2.3-2.7
				c1,0,1.7,0.6,2.1,1.5h0.1c0.3-1,1-1.8,2.2-1.8c1.6,0,2.5,1.3,2.5,2.9C675.6,333.4,675.1,334.3,674.4,334.9z"/>
			<path class="st2" d="M674.4,327.4v-1.9h-6.1v1.6h-0.9c-0.2-0.8-0.4-1.4-0.7-1.9v-1h7.7v-1.7h1.1v5h-1.1V327.4z"/>
		</g>
		<g class="st1">
			<path class="st2" d="M728.8,378.3c-2.3-2.6-4-3.9-5.5-3.9c-1,0-1.6,0.5-1.6,1.5c0,0.7,0.4,1.3,1,1.7l-0.8,0.8
				c-0.8-0.8-1.3-1.5-1.3-2.7c0-1.6,1.1-2.7,2.7-2.7c1.7,0,3.5,1.4,5.3,3.2c0-0.5-0.1-1-0.1-1.4v-2.2h1.2v5.7H728.8z"/>
			<path class="st2" d="M725.2,371.4c-3.1,0-4.5-1.1-4.5-2.9c0-1.7,1.5-2.9,4.5-2.9c3.1,0,4.6,1.1,4.6,2.9S728.2,371.4,725.2,371.4z
				 M725.2,367c-2.5,0-3.5,0.6-3.5,1.5s0.9,1.5,3.5,1.5s3.5-0.6,3.5-1.5S727.7,367,725.2,367z"/>
			<path class="st2" d="M728.5,364.1v-1.9h-6.1v1.6h-0.9c-0.2-0.8-0.4-1.4-0.7-1.9v-1h7.7v-1.7h1.1v5h-1.1V364.1z"/>
			<path class="st2" d="M727.2,351.8v1.1h2.4v1.3h-2.4v3.8h-0.9l-5.5-3.5V353h5.4v-1.1h1V351.8z M726.2,354.2h-2.3
				c-0.5,0-1.2,0-1.7-0.1l0,0c0.4,0.2,0.9,0.5,1.4,0.7l2.7,1.7v-2.3L726.2,354.2L726.2,354.2z"/>
			<path class="st2" d="M720,348v-1l11.7,3.3v1L720,348z"/>
			<path class="st2" d="M727.4,346.2c-1.2,0-1.9-0.8-2.4-1.6l0,0c-0.5,0.7-1.1,1.2-2.1,1.2c-1.4,0-2.3-1.1-2.3-2.5
				c0-1.5,1-2.5,2.3-2.5c0.9,0,1.7,0.6,2.1,1.2h0.1c0.5-0.8,1.1-1.5,2.3-1.5c1.3,0,2.3,1.2,2.3,2.9
				C729.8,345,728.8,346.2,727.4,346.2z M723.1,342c-0.8,0-1.4,0.5-1.4,1.4c0,0.7,0.5,1.3,1.3,1.3c1,0,1.4-0.8,1.8-1.8
				C724.2,342.2,723.6,342,723.1,342z M727.4,341.8c-1.1,0-1.5,1-2,2.2c0.4,0.6,1.1,1,1.8,1c0.9,0,1.5-0.7,1.5-1.7
				C728.8,342.4,728.2,341.8,727.4,341.8z"/>
			<path class="st2" d="M720,336.5v-1l11.7,3.3v1L720,336.5z"/>
			<path class="st2" d="M728.6,334.9l-0.9-0.7c0.5-0.5,1-1.2,1-2.1c0-1-0.6-1.7-1.5-1.7c-1,0-1.6,0.6-1.6,2.6h-1
				c0-1.7-0.7-2.3-1.5-2.3s-1.3,0.5-1.3,1.4c0,0.7,0.3,1.3,0.8,1.8l-0.9,0.7c-0.6-0.7-1.1-1.5-1.1-2.5c0-1.6,0.8-2.7,2.3-2.7
				c1,0,1.7,0.6,2.1,1.5h0.1c0.3-1,1-1.8,2.2-1.8c1.6,0,2.5,1.3,2.5,2.9C729.8,333.4,729.2,334.3,728.6,334.9z"/>
			<path class="st2" d="M728.5,327.4v-1.9h-6.1v1.6h-0.9c-0.2-0.8-0.4-1.4-0.7-1.9v-1h7.7v-1.7h1.1v5h-1.1V327.4z"/>
		</g>
		<g class="st1">
			<path class="st2" d="M782.9,378.3c-2.3-2.6-4-3.9-5.5-3.9c-1,0-1.6,0.5-1.6,1.5c0,0.7,0.4,1.3,1,1.7l-0.8,0.8
				c-0.8-0.8-1.3-1.5-1.3-2.7c0-1.6,1.1-2.7,2.7-2.7c1.7,0,3.5,1.4,5.3,3.2c0-0.5-0.1-1-0.1-1.4v-2.2h1.2v5.7H782.9z"/>
			<path class="st2" d="M779.3,371.4c-3.1,0-4.5-1.1-4.5-2.9c0-1.7,1.5-2.9,4.5-2.9c3.1,0,4.6,1.1,4.6,2.9
				C783.9,370.3,782.3,371.4,779.3,371.4z M779.3,367c-2.5,0-3.5,0.6-3.5,1.5s0.9,1.5,3.5,1.5s3.5-0.6,3.5-1.5S781.8,367,779.3,367z
				"/>
			<path class="st2" d="M782.6,364.1v-1.9h-6.1v1.6h-0.9c-0.2-0.8-0.4-1.4-0.7-1.9v-1h7.7v-1.7h1.1v5h-1.1V364.1z"/>
			<path class="st2" d="M782.7,358l-0.9-0.7c0.5-0.5,0.9-1.1,0.9-2.1s-0.7-1.8-1.9-1.8s-1.8,0.7-1.8,1.7c0,0.6,0.2,0.9,0.5,1.4
				l-0.4,0.7l-4.2-0.3v-4.5h1.2v3.3l2.3,0.2c-0.2-0.4-0.3-0.7-0.3-1.2c0-1.5,0.9-2.7,2.8-2.7c2,0,3.1,1.4,3.1,3
				C783.9,356.5,783.3,357.4,782.7,358z"/>
			<path class="st2" d="M774.2,348v-1l11.7,3.3v1L774.2,348z"/>
			<path class="st2" d="M781.5,346.2c-1.2,0-1.9-0.8-2.4-1.6H779c-0.5,0.7-1.1,1.2-2.1,1.2c-1.4,0-2.3-1.1-2.3-2.5
				c0-1.5,1-2.5,2.3-2.5c0.9,0,1.7,0.6,2.1,1.2h0.1c0.5-0.8,1.1-1.5,2.3-1.5c1.3,0,2.3,1.2,2.3,2.9
				C783.9,345,782.9,346.2,781.5,346.2z M777.2,342c-0.8,0-1.4,0.5-1.4,1.4c0,0.7,0.5,1.3,1.3,1.3c1,0,1.4-0.8,1.8-1.8
				C778.3,342.2,777.8,342,777.2,342z M781.5,341.8c-1.1,0-1.5,1-2,2.2c0.4,0.6,1.1,1,1.8,1c0.9,0,1.5-0.7,1.5-1.7
				C782.9,342.4,782.4,341.8,781.5,341.8z"/>
			<path class="st2" d="M774.2,336.5v-1l11.7,3.3v1L774.2,336.5z"/>
			<path class="st2" d="M782.7,334.9l-0.9-0.7c0.5-0.5,1-1.2,1-2.1c0-1-0.6-1.7-1.5-1.7c-1,0-1.6,0.6-1.6,2.6h-1
				c0-1.7-0.7-2.3-1.5-2.3s-1.3,0.5-1.3,1.4c0,0.7,0.3,1.3,0.8,1.8l-0.9,0.7c-0.6-0.7-1.1-1.5-1.1-2.5c0-1.6,0.8-2.7,2.3-2.7
				c1,0,1.7,0.6,2.1,1.5h0.1c0.3-1,1-1.8,2.2-1.8c1.6,0,2.5,1.3,2.5,2.9C783.9,333.4,783.3,334.3,782.7,334.9z"/>
			<path class="st2" d="M782.6,327.4v-1.9h-6.1v1.6h-0.9c-0.2-0.8-0.4-1.4-0.7-1.9v-1h7.7v-1.7h1.1v5h-1.1V327.4z"/>
		</g>
		<g class="st1">
			<path class="st2" d="M837,378.3c-2.3-2.6-4-3.9-5.5-3.9c-1,0-1.6,0.5-1.6,1.5c0,0.7,0.4,1.3,1,1.7l-0.8,0.8
				c-0.8-0.8-1.3-1.5-1.3-2.7c0-1.6,1.1-2.7,2.7-2.7c1.7,0,3.5,1.4,5.3,3.2c0-0.5-0.1-1-0.1-1.4v-2.2h1.2v5.7H837z"/>
			<path class="st2" d="M833.4,371.4c-3.1,0-4.5-1.1-4.5-2.9c0-1.7,1.5-2.9,4.5-2.9c3.1,0,4.6,1.1,4.6,2.9S836.5,371.4,833.4,371.4z
				 M833.4,367c-2.5,0-3.5,0.6-3.5,1.5s0.9,1.5,3.5,1.5s3.5-0.6,3.5-1.5S835.9,367,833.4,367z"/>
			<path class="st2" d="M836.7,364.1v-1.9h-6.1v1.6h-0.9c-0.2-0.8-0.4-1.4-0.7-1.9v-1h7.7v-1.7h1.1v5h-1.1V364.1z"/>
			<path class="st2" d="M830.6,352.9c-0.4,0.3-0.7,0.9-0.7,1.4c0,1.1,0.9,2.1,3.4,2.1c-0.6-0.5-1-1.3-1-1.9c0-1.5,0.9-2.5,2.8-2.5
				c1.8,0,2.9,1.2,2.9,2.6c0,1.7-1.4,3-4.4,3c-3.4,0-4.7-1.6-4.7-3.3c0-1,0.4-1.7,0.9-2.2L830.6,352.9z M835.1,353.3
				c-1.1,0-1.8,0.5-1.8,1.5c0,0.5,0.3,1.1,1,1.6c1.8-0.1,2.6-0.8,2.6-1.7C836.9,353.9,836.2,353.3,835.1,353.3z"/>
			<path class="st2" d="M828.3,348v-1l11.7,3.3v1L828.3,348z"/>
			<path class="st2" d="M835.6,346.2c-1.2,0-1.9-0.8-2.4-1.6h-0.1c-0.5,0.7-1.1,1.2-2.1,1.2c-1.4,0-2.3-1.1-2.3-2.5
				c0-1.5,1-2.5,2.3-2.5c0.9,0,1.7,0.6,2.1,1.2h0.1c0.5-0.8,1.1-1.5,2.3-1.5c1.3,0,2.3,1.2,2.3,2.9C838,345,837,346.2,835.6,346.2z
				 M831.3,342c-0.8,0-1.4,0.5-1.4,1.4c0,0.7,0.5,1.3,1.3,1.3c1,0,1.4-0.8,1.8-1.8C832.4,342.2,831.9,342,831.3,342z M835.6,341.8
				c-1.1,0-1.5,1-2,2.2c0.4,0.6,1.1,1,1.8,1c0.9,0,1.5-0.7,1.5-1.7C837,342.4,836.5,341.8,835.6,341.8z"/>
			<path class="st2" d="M828.3,336.5v-1l11.7,3.3v1L828.3,336.5z"/>
			<path class="st2" d="M836.8,334.9l-0.9-0.7c0.5-0.5,1-1.2,1-2.1c0-1-0.6-1.7-1.5-1.7c-1,0-1.6,0.6-1.6,2.6h-1
				c0-1.7-0.7-2.3-1.5-2.3s-1.3,0.5-1.3,1.4c0,0.7,0.3,1.3,0.8,1.8l-0.9,0.7c-0.6-0.7-1.1-1.5-1.1-2.5c0-1.6,0.8-2.7,2.3-2.7
				c1,0,1.7,0.6,2.1,1.5h0.1c0.3-1,1-1.8,2.2-1.8c1.6,0,2.5,1.3,2.5,2.9C838,333.4,837.4,334.3,836.8,334.9z"/>
			<path class="st2" d="M836.7,327.4v-1.9h-6.1v1.6h-0.9c-0.2-0.8-0.4-1.4-0.7-1.9v-1h7.7v-1.7h1.1v5h-1.1V327.4z"/>
		</g>
		<g class="st1">
			<path class="st2" d="M891.2,378.3c-2.3-2.6-4-3.9-5.5-3.9c-1,0-1.6,0.5-1.6,1.5c0,0.7,0.4,1.3,1,1.7l-0.8,0.8
				c-0.8-0.8-1.3-1.5-1.3-2.7c0-1.6,1.1-2.7,2.7-2.7c1.7,0,3.5,1.4,5.3,3.2c0-0.5-0.1-1-0.1-1.4v-2.2h1.2v5.7H891.2z"/>
			<path class="st2" d="M887.5,371.4c-3.1,0-4.5-1.1-4.5-2.9c0-1.7,1.5-2.9,4.5-2.9c3.1,0,4.6,1.1,4.6,2.9S890.6,371.4,887.5,371.4z
				 M887.5,367c-2.5,0-3.5,0.6-3.5,1.5s0.9,1.5,3.5,1.5s3.5-0.6,3.5-1.5S890.1,367,887.5,367z"/>
			<path class="st2" d="M890.8,364.1v-1.9h-6.1v1.6h-0.9c-0.2-0.8-0.4-1.4-0.7-1.9v-1h7.7v-1.7h1.1v5h-1.1V364.1z"/>
			<path class="st2" d="M884.3,353.6v4.1h-1.2V352h0.8c2.6,2.1,4.5,2.4,8,2.5v1.4C888.7,355.8,886.7,355.3,884.3,353.6z"/>
			<path class="st2" d="M882.4,348v-1l11.7,3.3v1L882.4,348z"/>
			<path class="st2" d="M889.8,346.2c-1.2,0-1.9-0.8-2.4-1.6h-0.1c-0.5,0.7-1.1,1.2-2.1,1.2c-1.4,0-2.3-1.1-2.3-2.5
				c0-1.5,1-2.5,2.3-2.5c0.9,0,1.7,0.6,2.1,1.2h0.1c0.5-0.8,1.1-1.5,2.3-1.5c1.3,0,2.3,1.2,2.3,2.9
				C892.1,345,891.1,346.2,889.8,346.2z M885.4,342c-0.8,0-1.4,0.5-1.4,1.4c0,0.7,0.5,1.3,1.3,1.3c1,0,1.4-0.8,1.8-1.8
				C886.6,342.2,886,342,885.4,342z M889.8,341.8c-1.1,0-1.5,1-2,2.2c0.4,0.6,1.1,1,1.8,1c0.9,0,1.5-0.7,1.5-1.7
				C891.1,342.4,890.6,341.8,889.8,341.8z"/>
			<path class="st2" d="M882.4,336.5v-1l11.7,3.3v1L882.4,336.5z"/>
			<path class="st2" d="M890.9,334.9l-0.9-0.7c0.5-0.5,1-1.2,1-2.1c0-1-0.6-1.7-1.5-1.7c-1,0-1.6,0.6-1.6,2.6h-1
				c0-1.7-0.7-2.3-1.5-2.3s-1.3,0.5-1.3,1.4c0,0.7,0.3,1.3,0.8,1.8l-0.9,0.7c-0.6-0.7-1.1-1.5-1.1-2.5c0-1.6,0.8-2.7,2.3-2.7
				c1,0,1.7,0.6,2.1,1.5h0.1c0.3-1,1-1.8,2.2-1.8c1.6,0,2.5,1.3,2.5,2.9C892.1,333.4,891.6,334.3,890.9,334.9z"/>
			<path class="st2" d="M890.8,327.4v-1.9h-6.1v1.6h-0.9c-0.2-0.8-0.4-1.4-0.7-1.9v-1h7.7v-1.7h1.1v5h-1.1V327.4z"/>
		</g>
		<g class="st1">
			<path class="st2" d="M945.3,378.3c-2.3-2.6-4-3.9-5.5-3.9c-1,0-1.6,0.5-1.6,1.5c0,0.7,0.4,1.3,1,1.7l-0.8,0.8
				c-0.8-0.8-1.3-1.5-1.3-2.7c0-1.6,1.1-2.7,2.7-2.7c1.7,0,3.5,1.4,5.3,3.2c0-0.5-0.1-1-0.1-1.4v-2.2h1.2v5.7H945.3z"/>
			<path class="st2" d="M941.6,371.4c-3.1,0-4.5-1.1-4.5-2.9c0-1.7,1.5-2.9,4.5-2.9c3.1,0,4.6,1.1,4.6,2.9
				C946.2,370.3,944.7,371.4,941.6,371.4z M941.6,367c-2.5,0-3.5,0.6-3.5,1.5s0.9,1.5,3.5,1.5s3.5-0.6,3.5-1.5S944.2,367,941.6,367z
				"/>
			<path class="st2" d="M944.9,364.1v-1.9h-6.1v1.6h-0.9c-0.2-0.8-0.4-1.4-0.7-1.9v-1h7.7v-1.7h1.1v5h-1.1V364.1z"/>
			<path class="st2" d="M943.9,357.8c-1.2,0-1.9-0.8-2.4-1.6h-0.1c-0.5,0.7-1.1,1.2-2.1,1.2c-1.4,0-2.3-1.1-2.3-2.5
				c0-1.5,1-2.5,2.3-2.5c0.9,0,1.7,0.6,2.1,1.2h0.1c0.5-0.8,1.1-1.5,2.3-1.5c1.3,0,2.3,1.2,2.3,2.9
				C946.2,356.5,945.3,357.8,943.9,357.8z M939.5,353.5c-0.8,0-1.4,0.5-1.4,1.4c0,0.7,0.5,1.3,1.3,1.3c1,0,1.4-0.8,1.8-1.8
				C940.7,353.8,940.1,353.5,939.5,353.5z M943.9,353.3c-1.1,0-1.5,1-2,2.2c0.4,0.6,1.1,1,1.8,1c0.9,0,1.5-0.7,1.5-1.7
				C945.2,353.9,944.7,353.3,943.9,353.3z"/>
			<path class="st2" d="M936.5,348v-1l11.7,3.3v1L936.5,348z"/>
			<path class="st2" d="M943.9,346.2c-1.2,0-1.9-0.8-2.4-1.6h-0.1c-0.5,0.7-1.1,1.2-2.1,1.2c-1.4,0-2.3-1.1-2.3-2.5
				c0-1.5,1-2.5,2.3-2.5c0.9,0,1.7,0.6,2.1,1.2h0.1c0.5-0.8,1.1-1.5,2.3-1.5c1.3,0,2.3,1.2,2.3,2.9
				C946.2,345,945.3,346.2,943.9,346.2z M939.5,342c-0.8,0-1.4,0.5-1.4,1.4c0,0.7,0.5,1.3,1.3,1.3c1,0,1.4-0.8,1.8-1.8
				C940.7,342.2,940.1,342,939.5,342z M943.9,341.8c-1.1,0-1.5,1-2,2.2c0.4,0.6,1.1,1,1.8,1c0.9,0,1.5-0.7,1.5-1.7
				C945.2,342.4,944.7,341.8,943.9,341.8z"/>
			<path class="st2" d="M936.5,336.5v-1l11.7,3.3v1L936.5,336.5z"/>
			<path class="st2" d="M945,334.9l-0.9-0.7c0.5-0.5,1-1.2,1-2.1c0-1-0.6-1.7-1.5-1.7c-1,0-1.6,0.6-1.6,2.6h-1
				c0-1.7-0.7-2.3-1.5-2.3s-1.3,0.5-1.3,1.4c0,0.7,0.3,1.3,0.8,1.8l-0.9,0.7c-0.6-0.7-1.1-1.5-1.1-2.5c0-1.6,0.8-2.7,2.3-2.7
				c1,0,1.7,0.6,2.1,1.5h0.1c0.3-1,1-1.8,2.2-1.8c1.6,0,2.5,1.3,2.5,2.9C946.2,333.4,945.7,334.3,945,334.9z"/>
			<path class="st2" d="M944.9,327.4v-1.9h-6.1v1.6h-0.9c-0.2-0.8-0.4-1.4-0.7-1.9v-1h7.7v-1.7h1.1v5h-1.1V327.4z"/>
		</g>
	</g>
	<g class="st3">
		<line class="st4" x1="76.5" y1="6" x2="76.5" y2="312"/>
		<line class="st4" x1="22.5" y1="6" x2="22.5" y2="312"/>
		<line class="st4" x1="130.5" y1="6" x2="130.5" y2="312"/>
		<line class="st4" x1="184.5" y1="6" x2="184.5" y2="312"/>
		<line class="st4" x1="238.5" y1="6" x2="238.5" y2="312"/>
		<line class="st4" x1="292.5" y1="6" x2="292.5" y2="312"/>
		<line class="st4" x1="346.5" y1="6" x2="346.5" y2="312"/>
		<line class="st4" x1="400.5" y1="6" x2="400.5" y2="312"/>
		<line class="st4" x1="454.5" y1="6" x2="454.5" y2="312"/>
		<line class="st4" x1="508.5" y1="6" x2="508.5" y2="312"/>
		<line class="st4" x1="562.5" y1="6" x2="562.5" y2="312"/>
		<line class="st4" x1="616.5" y1="6" x2="616.5" y2="312"/>
		<line class="st4" x1="670.5" y1="6" x2="670.5" y2="312"/>
		<line class="st4" x1="724.5" y1="6" x2="724.5" y2="312"/>
		<line class="st4" x1="778.5" y1="6" x2="778.5" y2="312"/>
		<line class="st4" x1="832.5" y1="6" x2="832.5" y2="312"/>
		<line class="st4" x1="886.5" y1="6" x2="886.5" y2="312"/>
		<line class="st4" x1="940.5" y1="6" x2="940.5" y2="312"/>
		<line class="st4" x1="19" y1="21.8" x2="22" y2="21.8"/>
		<line class="st4" x1="19" y1="37.1" x2="22" y2="37.1"/>
		<line class="st4" x1="19" y1="52.4" x2="22" y2="52.4"/>
		<line class="st4" x1="19" y1="67.7" x2="22" y2="67.7"/>
		<line class="st4" x1="19" y1="98.3" x2="22" y2="98.3"/>
		<line class="st4" x1="19" y1="113.6" x2="22" y2="113.6"/>
		<line class="st4" x1="19" y1="128.9" x2="22" y2="128.9"/>
		<line class="st4" x1="19" y1="144.2" x2="22" y2="144.2"/>
		<line class="st4" x1="19" y1="174.8" x2="22" y2="174.8"/>
		<line class="st4" x1="19" y1="190.1" x2="22" y2="190.1"/>
		<line class="st4" x1="19" y1="205.4" x2="22" y2="205.4"/>
		<line class="st4" x1="19" y1="220.7" x2="22" y2="220.7"/>
		<line class="st4" x1="19" y1="251.3" x2="22" y2="251.3"/>
		<line class="st4" x1="19" y1="266.6" x2="22" y2="266.6"/>
		<line class="st4" x1="19" y1="281.9" x2="22" y2="281.9"/>
		<line class="st4" x1="19" y1="297.2" x2="22" y2="297.2"/>
	</g>
	<g>
		<line class="st5" x1="19" y1="236" x2="940.5" y2="236"/>
		<line class="st4" x1="19" y1="312.5" x2="940.5" y2="312.5"/>
		<line class="st5" x1="19" y1="159.5" x2="940.5" y2="159.5"/>
		<line class="st5" x1="19" y1="83" x2="940.5" y2="83"/>
		<line class="st4" x1="19" y1="6.5" x2="22" y2="6.5"/>
		<line class="st4" x1="22" y1="312" x2="22" y2="6"/>
	</g>
	<g class="st1">
		<path class="st2" d="M55.8,28.8H50v3.6h-2v-3.6h-7.6v-1.9h2.7v-4.4H48v-2h-3.6c-0.7,1.2-1.5,2.3-2.3,3.1c-0.4-0.3-1.2-1-1.7-1.3
			c1.5-1.3,2.8-3.4,3.5-5.6l2,0.5c-0.2,0.5-0.3,0.9-0.6,1.4h9.5v1.9H50v2h4.5v1.9H50V27h5.8V28.8z M48,26.9v-2.6h-2.9v2.6H48z"/>
		<path class="st2" d="M63.2,17.3c-0.5,1.1-1,2.2-1.6,3.2v11.9h-1.9v-9.1c-0.5,0.7-1.1,1.3-1.6,1.8c-0.2-0.5-0.7-1.6-1.1-2.1
			c1.7-1.5,3.4-3.9,4.4-6.3L63.2,17.3z M69.8,30.3c0.9,0,1-0.7,1.1-3.5c0.5,0.4,1.2,0.7,1.8,0.8C72.5,30.9,72,32,70,32h-2.8
			c-2.1,0-2.7-0.7-2.7-3V17h1.9v4.3h5.9v1.9h-5.9v5.9c0,1,0.1,1.2,0.9,1.2H69.8z"/>
		<path class="st2" d="M76.9,24.6c-0.6-0.5-2-1.3-3-1.8l1.1-1.5c0.9,0.4,2.3,1.1,3.1,1.6L76.9,24.6z M78.6,26.9
			c-0.7,1.8-1.7,3.7-2.5,5.4L74.2,31c0.8-1.3,1.9-3.4,2.8-5.4L78.6,26.9z M77.8,20c-0.6-0.5-2-1.3-2.9-1.8l1.1-1.5
			c0.9,0.5,2.3,1.2,3,1.7L77.8,20z M88.7,23.5c-0.5,2.2-1.4,3.9-2.5,5.4c1,0.8,2.2,1.4,3.6,1.8c-0.4,0.4-1,1.2-1.3,1.7
			c-1.4-0.5-2.6-1.2-3.7-2.1c-1,0.9-2.2,1.6-3.5,2.1C81,32,80.4,31.2,80,30.8c-0.2,0.6-0.5,1.1-0.9,1.6c-0.4-0.3-1.2-0.8-1.7-1
			c1.7-2.4,1.9-5.8,1.9-8.2v-4.3h3.9v-2.2h2v2.2H88l0.3-0.1l1.5,0.4c-0.4,1.3-0.9,2.7-1.4,3.6l-1.7-0.5c0.2-0.4,0.4-0.9,0.6-1.5h-2
			v2.3h1.9l0.4-0.1L88.7,23.5z M83.4,29c-0.9-1.1-1.6-2.3-2.2-3.8c-0.1,1.8-0.4,3.8-1.1,5.6C81.3,30.3,82.4,29.7,83.4,29z
			 M81.3,20.7V23h1.9v-2.3H81.3z M83,24.8c0.5,1,1,1.9,1.8,2.8c0.7-0.8,1.2-1.7,1.6-2.8H83z"/>
		<path class="st2" d="M106.2,20.5c0,0,0,0.7,0,0.9c-0.2,6.9-0.3,9.3-0.8,10.1c-0.4,0.6-0.8,0.7-1.3,0.8s-1.3,0.1-2.1,0.1
			c0-0.6-0.3-1.4-0.6-1.9c0.7,0.1,1.4,0.1,1.7,0.1c0.3,0,0.4-0.1,0.6-0.3c0.4-0.5,0.5-2.5,0.6-8h-1.5c-0.2,4.5-1,8-3.8,10.2
			c-0.3-0.4-0.7-1-1.2-1.3c-2.4,0.3-4.9,0.5-6.7,0.7l-0.2-1.7c0.9-0.1,2.1-0.2,3.4-0.2v-1h-3v-1.4h3v-0.7h-2.9v-5.2h2.9V21H91v-1.5
			h3.3v-0.7c-1,0.1-1.9,0.1-2.9,0.1c-0.1-0.4-0.3-1-0.4-1.4c2.5-0.1,5.4-0.4,7.3-0.8l0.9,1.5c-0.9,0.2-1.9,0.3-3,0.5v0.8h3.2v0.9
			h1.6c0-1.1,0-2.3,0-3.5h1.9c0,1.2,0,2.4,0,3.5h3.3C106.2,20.4,106.2,20.5,106.2,20.5z M92.9,23.6h1.3v-0.7h-1.3V23.6z M94.3,25.6
			v-0.8H93v0.8H94.3z M96.1,29.8c1-0.1,2-0.2,2.9-0.2c1.3-1.8,1.7-4.2,1.8-7.3h-1.5V21h-3.2v0.7h3v5.2h-3v0.7h3.1V29h-3.1
			C96.1,29,96.1,29.8,96.1,29.8z M97.4,23.6v-0.7h-1.3v0.7H97.4z M96.1,24.8v0.8h1.3v-0.8H96.1z"/>
		<path class="st2" d="M111.1,22.6c0,2.8-0.2,7.1-1.6,9.8c-0.4-0.3-1.3-0.7-1.8-0.9c1.4-2.6,1.5-6.4,1.5-8.9v-4.5h6.3
			c-0.1-0.4-0.3-0.8-0.4-1.1l2-0.5c0.2,0.5,0.5,1,0.6,1.6h5.6V20h-12.2V22.6z M122.2,26.9c-0.7,1.3-1.7,2.3-3,3.1
			c1.3,0.3,2.7,0.5,4.2,0.6c-0.4,0.4-0.9,1.2-1.1,1.7c-2.1-0.2-3.9-0.6-5.5-1.2c-1.6,0.6-3.4,0.9-5.3,1.1c-0.2-0.5-0.5-1.2-0.8-1.7
			c1.4-0.1,2.8-0.3,4-0.6c-0.8-0.5-1.5-1.1-2-1.8l0.7-0.3h-1.8v-1.6h9.1l0.4-0.1L122.2,26.9z M113.7,25.7v-2.6h-2.3v-1.6h2.3v-1.1
			h1.9v1.1h3.1v-1.1h2v1.1h2.4v1.6h-2.4v2.6H113.7z M114.7,27.9c0.6,0.5,1.4,1,2.2,1.4c0.9-0.4,1.6-0.8,2.2-1.4H114.7z M115.6,23.1
			v1.1h3.1v-1.1H115.6z"/>
		<path class="st2" d="M125.5,25.6c0-3.4,0.9-6.1,2.5-8.7l1.6,0.7c-1.4,2.5-2.1,5.3-2.1,8.1s0.6,5.6,2.1,8.1l-1.6,0.7
			C126.4,31.7,125.5,29,125.5,25.6z"/>
		<path class="st2" d="M130.9,22.2c0-2.5,1.2-3.9,3-3.9s3.1,1.4,3.1,3.9s-1.3,4-3.1,4C132.2,26.1,130.9,24.7,130.9,22.2z
			 M135.3,22.2c0-1.8-0.6-2.5-1.3-2.5s-1.3,0.7-1.3,2.5s0.6,2.6,1.3,2.6S135.3,24,135.3,22.2z M141.2,18.2h1.5l-6.8,13h-1.5
			L141.2,18.2z M140,27.2c0-2.5,1.3-3.9,3-3.9s3.1,1.4,3.1,3.9s-1.3,4-3.1,4S140,29.7,140,27.2z M144.4,27.2c0-1.8-0.6-2.5-1.3-2.5
			s-1.3,0.7-1.3,2.5s0.6,2.6,1.3,2.6S144.4,29,144.4,27.2z"/>
		<path class="st2" d="M147.5,33.7c1.4-2.5,2.1-5.3,2.1-8.1s-0.6-5.6-2.1-8.1l1.5-0.7c1.6,2.6,2.5,5.4,2.5,8.7
			c0,3.4-0.9,6.1-2.5,8.7L147.5,33.7z"/>
	</g>
	<polyline class="st6" points="22.5,128.5 26.9,115.5 31.2,119.5 39.8,114.5 48.5,114.5 58.2,128.5 62.5,128.5 66.8,133.5 
		71.2,129.5 76.1,129.5 85.2,121.5 90.6,125.5 94.9,133.5 109,134.5 119.8,128.5 125.2,128.5 130.1,125.7 134.9,130.5 140.3,130.5 
		143.6,134.5 147.9,133.5 153.3,142.5 157.6,146.5 161.9,153.5 167.3,148.5 176,148.5 180.3,152.5 184.2,152.5 188.9,171.5 
		201.9,175.5 207.3,175.5 218.1,167.5 225.7,167.5 234.3,178.5 238.2,178.5 244.1,188.5 249.5,183.5 252.7,182.5 257,184.5 
		261.3,180.5 275.4,185.5 279.7,173.5 292.3,175.5 298.1,175.5 303.5,178.5 307.8,175.5 311,177.5 326.2,176.5 331.6,185.5 
		343.5,187.5 360.7,171.5 366.2,171.5 370.5,156.5 379.1,158.5 388.8,158.5 393.2,148.5 397.5,148.5 400.4,142.8 406.1,128.5 
		410.5,90.5 416.9,90.5 421.3,89.5 426.7,93.5 442.9,65.5 448.3,65.5 452.6,60.5 459.1,60.5 461.2,58.5 468.8,60.5 475.3,60.5 
		485,58.5 488.3,56.5 493.7,58.5 496.9,54.5 502.3,56.5 505.5,53.5 515.3,53.5 523.9,60.5 529.3,58.5 536.9,67.5 544.4,67.5 
		545.5,69.5 552,69.5 558.5,74.5 566.1,74.5 570.4,78.5 574.7,109.5 584.4,112.5 587.7,110.5 594.1,115.5 602.8,131.5 606,135.5 
		611.4,136.5 616.6,142.8 620.1,142.8 623.3,144.5 629.8,144.5 632,145.5 637.4,145.5 641.7,147.5 647.1,147.5 650.3,150.5 
		656.8,150.5 660.1,156.5 664.4,152.5 670.7,156.3 674.1,156.5 678.4,161.5 681.7,160.5 687.1,160.5 692.5,164.5 700,160.5 
		706.5,162.5 724.8,163 728.1,167.5 737.9,192.5 741.1,197.5 746.5,195.5 750.8,206.5 759.5,210.5 763.8,204.5 768.1,216.5 
		773.5,216.5 783.2,203.5 786.5,206.5 795.1,200.5 800.5,202.5 804.9,199.5 810.3,199.5 814.6,183.5 823.2,183.5 827.5,186.5 
		832.9,183 837.3,183 845.9,188.5 849.2,186.5 855.6,186.5 858.9,188.5 883.7,188.5 886.9,186.2 892.4,186.2 896.7,191.5 
		905.3,191.5 908.6,193.5 918.3,185.5 923.7,185.5 928,189.5 933.4,189.5 935.6,188.5 941,193.5 	"/>
	<polyline class="st7" points="22.5,190.5 26.9,182.5 31.2,188.5 36.6,188.5 38.7,190.5 55,190.5 59.3,192.5 66.8,192.5 71.2,187.5 
		76.1,187.5 80.9,179.5 89.5,175.5 98.2,182.5 103.6,182.5 107.9,187.5 112.2,179.5 116.5,176.5 130.1,177.1 134.9,179.5 
		139.2,175.5 143.6,178.5 149,175.5 153.3,175.5 167.3,187.5 180.3,187.5 184.2,189.6 188.9,196.5 225.7,197.5 235.4,210.5 
		239.7,210.5 244.1,226.5 252.7,230.5 260.1,236 264.6,237.5 270,237.5 275.4,245.5 279.7,242.5 299.2,242.5 303.5,245.5 
		307.8,245.5 311,248.5 339.1,248.5 346.4,251.3 353.2,247.5 358.6,247.5 360.7,244.5 366.2,244.5 370.5,233.5 379.7,236 
		382.4,234.5 388.8,234.5 393.2,223.5 401.8,223.5 411.5,173.5 423.4,171.5 434.4,159.5 442.9,144.5 447.2,144.5 451.5,138.5 
		458,138.5 461.2,137.5 464.5,138.5 483.9,136.5 488.3,134.5 492.6,136.5 496.9,131.5 502.3,131.5 506.6,127.5 510.9,127.5 
		516.3,123.5 521.8,123.5 523.9,125.5 529.3,121.5 533.6,125.5 542.3,124.5 545.5,125.5 552,125.5 556.3,129.5 561.7,129.5 
		565,126.5 570.4,130.5 574.7,149.5 577.9,151.5 583.3,151.5 589.3,159.5 592,165.5 596.3,166.5 601.7,175.5 610.4,172.5 
		616.6,177.5 647.1,179.5 650.3,182.5 656.8,182.5 660.1,190.5 665.5,190.5 670.7,194.5 674.1,194.5 679.5,199.5 687.1,199.5 
		692.5,203.5 701.1,200.5 706.5,200.5 724.8,203.1 738.9,230.5 742.2,231.5 745.4,229.5 749.7,232.5 759.5,230.5 764.9,230.5 
		769.2,245.5 778.8,245.1 783.1,236 785.9,236 791.9,228.5 801.6,228.5 804.9,224.5 810.3,224.5 813.5,219.5 824.3,219.5 
		828.6,221.5 836.2,221.5 844.8,226.5 855.6,226.5 864.3,229.5 892.4,229.5 896.7,230.5 906.4,230.5 909.7,231.5 914,228.5 
		922.6,227.5 936.7,230.5 941,229.8 	"/>
	<polyline class="st8" points="22,248.5 37.7,248.5 49.6,255.5 53.9,255.5 60.4,258.5 70.1,258.5 73.3,257.5 85.2,257.5 94.9,266.5 
		99.3,267.5 103.6,273.5 109,273.5 113.3,279.5 117.6,277.5 126.3,278.5 130.6,281.5 143.6,282.5 150,289.5 163,290.5 178.1,287.5 
		190,287.5 193.3,288.5 210.6,286.5 214.9,287.5 221.4,284.5 230,284.5 234.3,286.5 244.1,286.5 248.4,283.5 258.1,283.5 
		261.3,281.5 272.1,281.5 278.6,283.5 289.4,283.5 306.7,281.5 329.4,281.5 333.7,280.5 341.3,281.5 347.8,277.5 354.3,277.5 
		361.8,274.5 369.4,274.5 379.1,271.5 383.4,272.5 393.2,272.5 397.5,269.5 402.9,269.5 412.6,244.5 422.3,244.5 424.5,245.5 
		438.5,245.5 442.9,243.5 458,243.5 462.3,241.5 464.5,243.5 485,244.5 488.3,243.5 491.5,244.5 517.4,245.5 525,247.5 529.3,245.5 
		533.6,246.5 554.2,247.5 560.6,249.5 566.1,246.5 570.4,253.5 573.6,269.5 580.1,273.5 601.7,273.5 606,274.5 621.2,275.5 
		624.4,276.5 633,277.5 639.5,277.5 642.8,275.5 655.7,275.5 660.1,278.5 689.2,279.5 693.6,280.5 699,280.5 700,279.5 711.9,279.5 
		716.2,281.5 724.8,280.9 731.4,288.5 738.9,287.5 748.7,287.5 751.9,289.5 754.1,287.5 763.8,287.5 767,289.5 772.4,289.5 
		774.6,288.5 780,288.5 787.6,284.5 805.9,282.5 815.7,281.5 832.9,282.5 854.6,283.5 856.7,282.5 899.9,284.5 910.7,284.5 
		918.3,281.5 932.4,281.5 941,282.1 	"/>
	<g>
		<g>
			<rect x="725" y="6" class="st9" width="10" height="10"/>
			<g class="st1">
				<path class="st9" d="M743,4.8h2.8l2.1,5.8c0.3,0.8,0.5,1.6,0.8,2.4h0.1c0.3-0.8,0.5-1.6,0.8-2.4l2.1-5.8h2.8v12.5h-2.3v-5.2
					c0-1.2,0.2-2.9,0.3-4.1h-0.1l-1,2.9l-1.9,5.3H748l-1.9-5.3L745,8l0,0c0.1,1.2,0.3,2.9,0.3,4.1v5.2H743V4.8z"/>
				<path class="st9" d="M756.6,15.7L758,14c0.9,0.8,2.1,1.4,3.2,1.4c1.3,0,2-0.6,2-1.4c0-0.9-0.8-1.2-1.9-1.7l-1.7-0.7
					c-1.3-0.5-2.5-1.5-2.5-3.4c0-2,1.8-3.6,4.3-3.6c1.5,0,2.9,0.6,3.9,1.6L764,7.8c-0.8-0.7-1.6-1-2.7-1c-1.1,0-1.8,0.5-1.8,1.3
					c0,0.9,0.9,1.2,2,1.6l1.6,0.7c1.5,0.6,2.5,1.6,2.5,3.4c0,2-1.7,3.8-4.6,3.8C759.5,17.5,757.9,16.9,756.6,15.7z"/>
				<path class="st9" d="M767.4,11.1c0-4.1,2.7-6.5,5.8-6.5c1.6,0,2.9,0.8,3.7,1.6l-1.3,1.6c-0.6-0.6-1.4-1-2.3-1
					c-1.9,0-3.3,1.6-3.3,4.3s1.3,4.4,3.3,4.4c1.1,0,1.9-0.5,2.6-1.2l1.3,1.6c-1,1.2-2.4,1.8-4,1.8C769.9,17.5,767.4,15.3,767.4,11.1
					z"/>
				<path class="st9" d="M779.1,4.8h2.5v12.5h-2.5V4.8z"/>
				<path class="st9" d="M786.7,14c-0.4,1.2-1.1,2.6-1.7,3.5c-0.3-0.3-0.9-0.7-1.3-0.9c0.6-0.8,1.1-1.9,1.5-3L786.7,14z M789,13v5.6
					h-1.9V13H784v-1.7h3.1V10h-3.2V8.4h1.6c-0.1-0.5-0.3-1.2-0.5-1.8l1.4-0.3h-2.3V4.7h2.9c-0.2-0.5-0.3-0.9-0.5-1.3l2-0.5
					c0.3,0.6,0.6,1.3,0.8,1.8h2.4v1.6h-2.1l1.4,0.3c-0.3,0.6-0.5,1.3-0.8,1.8h1.8V10h-3v1.3h2.6V13H789z M786.6,6.3
					c0.3,0.6,0.5,1.3,0.6,1.8L786,8.4h2.4c0.3-0.6,0.6-1.5,0.7-2.1C789.1,6.3,786.6,6.3,786.6,6.3z M799.4,10.4h-1.6v8.3h-2v-8.3
					h-1.6v0.2c0,2.5-0.2,6-1.7,8.1c-0.3-0.4-1.1-1-1.6-1.2c0.3-0.5,0.6-1,0.8-1.6l-1.2,0.7c-0.3-0.7-0.8-1.8-1.3-2.5l1.3-0.7
					c0.5,0.7,1,1.6,1.3,2.2c0.5-1.6,0.5-3.4,0.5-5v-6c1.8-0.3,3.9-0.9,5.1-1.4l1.5,1.5c-1.4,0.6-3.1,1-4.8,1.3v2.7h5.1v1.7H799.4z"
					/>
				<path class="st9" d="M816.1,14.8h-4.7c1.6,0.8,3.3,1.7,4.4,2.3l-1.3,1.5c-1.1-0.7-2.9-1.8-4.6-2.6l0.9-1.2h-5.2l1.5,1.2
					c-1.5,1-3.6,2-5.2,2.7c-0.3-0.4-0.8-1.1-1.1-1.5c1.5-0.6,3.5-1.6,4.6-2.4h-4.6V13h1.2l-0.2-8.9c0.9-0.3,2-0.7,2.8-1.1l0.8,1.6
					V3.8h6.1V13h1.7c0-0.5,0.1-1,0.1-1.5h-1.4V9.9h1.5c0-0.5,0-1,0-1.5H812V6.9h1.4c0-0.5,0-1,0-1.6H812V3.7h3.3
					c0,3-0.2,6.7-0.3,9.3h1.2v1.8H816.1z M803.7,13h1.7V4.8c-0.6,0.2-1.3,0.4-1.9,0.5l0.1,1.5h1.5v1.6h-1.4v1.4h1.4v1.6h-1.4
					L803.7,13z M806.8,5.3V13h3.3V5.3H806.8z M809.7,7.4h-2.5V6.1h2.5V7.4z M807.3,8.2h2.4V12h-2.4V8.2z M808.1,10.9h0.8V9.4h-0.8
					V10.9z"/>
				<path class="st9" d="M826.4,7.2v1.9h5.4v5.7c0,1-0.2,1.6-0.9,1.9s-1.7,0.3-3,0.3c-0.1-0.6-0.4-1.4-0.7-2c0.8,0.1,1.8,0.1,2.1,0
					c0.3,0,0.4-0.1,0.4-0.3V11h-3.3v7.6h-2.1V11h-3.1v6h-2V9.1h5.2V7.2h-6.6v-2h6.8c-0.3-0.6-0.6-1.3-0.9-1.9l2-0.6
					c0.4,0.8,1,1.8,1.3,2.5h6.2v2H826.4z"/>
				<path class="st9" d="M843.4,11.4c-0.1,0.3-0.3,0.5-0.5,0.8h6.9c0,0,0,0.5,0,0.7c-0.2,3.3-0.5,4.6-1,5.1
					c-0.3,0.4-0.7,0.5-1.1,0.6c-0.4,0.1-1,0.1-1.7,0c0-0.5-0.2-1.1-0.5-1.6c0.5,0.1,1,0.1,1.2,0.1s0.4,0,0.5-0.2
					c0.2-0.3,0.4-1.1,0.6-3.2h-0.7c-0.7,1.9-2,3.9-3.4,5c-0.3-0.4-0.9-0.8-1.4-1.1c1.3-0.8,2.4-2.3,3.1-3.9h-1
					c-0.9,1.6-2.5,3.3-4,4.2c-0.3-0.4-0.8-0.9-1.3-1.2c1.3-0.6,2.6-1.8,3.4-3.1h-1c-0.6,0.6-1.3,1.2-2,1.7c-0.3-0.3-0.9-0.9-1.3-1.2
					c-1.2,0.6-2.4,1.2-3.5,1.7l-0.7-2c0.6-0.2,1.3-0.5,2.1-0.8V8.4h-1.7V6.5h1.7V3.2h1.9v3.3h1.6v1.9H838v4l1.4-0.6l0.4,1.4
					c0.6-0.5,1.1-1.1,1.6-1.8h-1.9V9.8h10.6v1.7h-6.7L843.4,11.4L843.4,11.4z M849,9.1h-8V3.4h8V9.1z M847.1,4.8h-4.4v0.8h4.4V4.8z
					 M847.1,6.9h-4.4v0.8h4.4V6.9z"/>
				<path class="st9" d="M857.4,12l-1.9,0.5v4c0,1-0.2,1.5-0.8,1.8s-1.4,0.4-2.5,0.4c-0.1-0.5-0.3-1.3-0.6-1.9c0.7,0,1.4,0,1.6,0
					c0.2,0,0.3-0.1,0.3-0.3V13c-0.7,0.2-1.3,0.3-1.9,0.5l-0.5-2c0.7-0.2,1.5-0.3,2.4-0.6V8.1h-2.1V6.2h2.1V3h2v3.2h1.7v1.9h-1.7v2.4
					c0.6-0.2,1.1-0.3,1.7-0.4L857.4,12z M860.8,10c-2.2,0-2.9-0.7-2.9-2.7V3h2v1.8h6.5v1.7h-6.5v0.9c0,0.6,0.2,0.9,0.9,0.9h3.8
					c0.7,0,1.7,0,2.2-0.1c0.1,0.5,0.1,1.3,0.2,1.7c-0.4,0.1-1.4,0.2-2.3,0.2L860.8,10L860.8,10z M858,11.1h8.2v7.6h-2V18h-4.3v0.7
					H858V11.1z M859.9,12.7v1h4.3v-1H859.9z M864.2,16.4v-1.1h-4.3v1.1H864.2z"/>
				<path class="st9" d="M882.8,7.8c-0.3,2.5-0.7,4.6-1.5,6.4c0.7,1.3,1.5,2.3,2.7,3c-0.4,0.3-0.9,0.9-1.1,1.4
					c-1-0.7-1.8-1.6-2.4-2.7c-0.8,1.2-1.8,2.2-3,3c-0.1-0.3-0.5-0.8-0.8-1.2l-1.1,0.9c-0.6-0.4-1.3-0.8-2.2-1.2
					c-1.1,0.5-2.6,0.9-4.7,1.3c-0.1-0.4-0.5-1-0.7-1.3c1.5-0.2,2.7-0.5,3.6-0.8c-0.8-0.3-1.5-0.6-2.2-0.8c0.2-0.3,0.5-0.6,0.7-1
					l-1.5,0.1l-0.2-1.3c0.7,0,1.6-0.1,2.6-0.1c0.2-0.3,0.4-0.7,0.6-1H869V9.4h3V8.9h-2.6V7.1h-1.3V5.7h1.3V4h2.6V3h1.5v1h2.7v1.7
					h1.1v1.4h-1.1v1.8h-2.7v0.5h3.1v1.2c1.1-1.8,1.7-4.7,2-7.6l1.7,0.2c-0.1,0.9-0.3,1.9-0.4,2.8h4v1.8
					C883.9,7.8,882.8,7.8,882.8,7.8z M870.7,11.2h1.4v-0.6h-1.4V11.2z M871.2,5.3v0.5h0.9V5.3H871.2z M872.1,7.6V7h-0.9v0.6H872.1z
					 M871.6,15.2c0.6,0.2,1.1,0.4,1.7,0.6c0.6-0.4,1-0.8,1.2-1.2l-2.6,0.1L871.6,15.2z M876.2,14.5c-0.2,0.7-0.5,1.4-1.3,2
					c0.6,0.3,1.1,0.5,1.6,0.8c1.4-0.8,2.3-1.9,3-3.2c-0.4-1-0.7-2.1-1-3.4c-0.2,0.4-0.4,0.9-0.6,1.2c-0.3-0.3-0.9-0.9-1.2-1.2v1.7
					h-3.4c-0.2,0.3-0.4,0.6-0.5,1l2-0.1v-0.6h1.6v0.5h0.5v1.3L876.2,14.5z M873.6,5.3v0.5h1V5.3H873.6z M874.6,7.6V7h-1v0.6H874.6z
					 M873.6,10.6v0.6h1.4v-0.6H873.6z M879.5,7.8c0.2,1.4,0.5,2.8,0.9,4.1c0.4-1.2,0.6-2.6,0.7-4.1C881.1,7.8,879.5,7.8,879.5,7.8z"
					/>
			</g>
		</g>
		<g>
			<rect x="725" y="31" class="st10" width="10" height="10"/>
			<g class="st1">
				<path class="st10" d="M743,29.8h2.8l2.1,5.8c0.3,0.8,0.5,1.6,0.8,2.4h0.1c0.3-0.8,0.5-1.6,0.8-2.4l2.1-5.8h2.8v12.5h-2.3v-5.2
					c0-1.2,0.2-2.9,0.3-4.1h-0.1l-1,2.9l-1.9,5.3H748l-1.9-5.3l-1-2.9H745c0.1,1.2,0.3,2.9,0.3,4.1v5.2H743V29.8z"/>
				<path class="st10" d="M756.6,40.7L758,39c0.9,0.8,2.1,1.4,3.2,1.4c1.3,0,2-0.6,2-1.4c0-0.9-0.8-1.2-1.9-1.7l-1.7-0.7
					c-1.3-0.5-2.5-1.5-2.5-3.4c0-2,1.8-3.6,4.3-3.6c1.5,0,2.9,0.6,3.9,1.6l-1.3,1.6c-0.8-0.7-1.6-1-2.7-1c-1.1,0-1.8,0.5-1.8,1.3
					c0,0.9,0.9,1.2,2,1.6l1.6,0.7c1.5,0.6,2.5,1.6,2.5,3.4c0,2-1.7,3.8-4.6,3.8C759.5,42.5,757.9,41.9,756.6,40.7z"/>
				<path class="st10" d="M767.4,36.1c0-4.1,2.7-6.5,5.8-6.5c1.6,0,2.9,0.8,3.7,1.6l-1.3,1.6c-0.6-0.6-1.4-1-2.3-1
					c-1.9,0-3.3,1.6-3.3,4.3s1.3,4.4,3.3,4.4c1.1,0,1.9-0.5,2.6-1.2l1.3,1.6c-1,1.2-2.4,1.8-4,1.8C769.9,42.5,767.4,40.3,767.4,36.1
					z"/>
				<path class="st10" d="M779.1,29.8h2.5v12.5h-2.5V29.8z"/>
				<path class="st10" d="M790.6,39v-5h-2.3v6.9h10.5v1.9h-12.6V34h-2.3v-2h2.3v-3.6h2.1V32h2.3v-3.9h2V32h2.3v-3.8h2.1V32h2.2v2
					H797v5H790.6z M792.6,34v3.2h2.3V34H792.6z"/>
				<path class="st10" d="M811.8,35.7c1.2,1,2.9,1.8,4.6,2.3c-0.4,0.4-1,1.2-1.3,1.7c-1-0.3-2-0.8-2.9-1.4v5.3h-2.1v-5.9h1.3
					c-0.8-0.6-1.4-1.3-2-2h-1.7c-0.6,0.7-1.3,1.4-2,2h1.4v1.2c0,1.6-0.5,3.7-3.9,5c-0.3-0.5-0.9-1.3-1.4-1.6
					c2.8-0.9,3.2-2.3,3.2-3.4v-0.6c-1,0.7-2,1.2-3.1,1.6c-0.3-0.5-0.9-1.2-1.3-1.7c1.7-0.5,3.4-1.4,4.6-2.4h-2.7v-7.2h12v7.2
					L811.8,35.7L811.8,35.7z M804.5,31.4h3v-1.2h-3V31.4z M804.5,34.1h3v-1.2h-3V34.1z M812.4,30.2h-3v1.2h3V30.2z M812.4,32.9h-3
					v1.2h3V32.9z"/>
				<path class="st10" d="M823.6,37l-1.9,0.5v4c0,1-0.2,1.5-0.8,1.8s-1.4,0.4-2.6,0.4c-0.1-0.5-0.3-1.3-0.6-1.9c0.7,0,1.4,0,1.6,0
					c0.2,0,0.3-0.1,0.3-0.3V38c-0.7,0.2-1.3,0.3-1.9,0.5l-0.5-2c0.7-0.2,1.5-0.3,2.4-0.6V33h-2.1v-1.9h2.1V28h2v3.2h1.7v1.9h-1.7
					v2.4c0.6-0.2,1.1-0.3,1.7-0.4L823.6,37z M827,35c-2.2,0-2.9-0.7-2.9-2.7V28h2v1.8h6.5v1.7h-6.5v0.9c0,0.6,0.2,0.9,0.9,0.9h3.8
					c0.7,0,1.7,0,2.2-0.1c0.1,0.5,0.1,1.3,0.2,1.7c-0.4,0.1-1.4,0.2-2.3,0.2H827V35z M824.2,36.1h8.2v7.6h-2V43h-4.3v0.7h-1.9V36.1z
					 M826.1,37.7v1h4.3v-1H826.1z M830.4,41.4v-1.1h-4.3v1.1H830.4z"/>
				<path class="st10" d="M849,32.8c-0.3,2.5-0.7,4.6-1.5,6.4c0.7,1.3,1.5,2.3,2.7,3c-0.4,0.3-0.9,0.9-1.1,1.4
					c-1-0.7-1.8-1.6-2.4-2.7c-0.8,1.2-1.8,2.2-3,3c-0.1-0.3-0.5-0.8-0.8-1.2l-1.1,0.9c-0.6-0.4-1.3-0.8-2.2-1.2
					c-1.1,0.5-2.6,0.9-4.7,1.3c-0.1-0.4-0.5-1-0.7-1.3c1.5-0.2,2.7-0.5,3.6-0.8c-0.8-0.3-1.5-0.6-2.2-0.8c0.2-0.3,0.5-0.6,0.7-1
					l-1.5,0.1l-0.2-1.3c0.7,0,1.6-0.1,2.6-0.1c0.2-0.3,0.4-0.7,0.6-1h-2.5v-3.1h3v-0.5h-2.6v-1.8h-1.3v-1.4h1.3V29h2.6v-1h1.5v1h2.7
					v1.7h1.1v1.4h-1.1v1.8h-2.7v0.5h3.1v1.2c1.1-1.8,1.7-4.7,2-7.6l1.7,0.2c-0.1,0.9-0.3,1.9-0.4,2.8h4v1.8
					C850.2,32.8,849,32.8,849,32.8z M836.9,36.2h1.4v-0.6h-1.4V36.2z M837.4,30.3v0.5h0.9v-0.5H837.4z M838.3,32.6V32h-0.9v0.6
					H838.3z M837.8,40.2c0.6,0.2,1.1,0.4,1.7,0.6c0.6-0.4,1-0.8,1.2-1.2l-2.6,0.1L837.8,40.2z M842.4,39.5c-0.2,0.7-0.5,1.4-1.3,2
					c0.6,0.3,1.1,0.5,1.6,0.8c1.4-0.8,2.3-1.9,3-3.2c-0.4-1-0.7-2.1-1-3.4c-0.2,0.4-0.4,0.9-0.6,1.2c-0.3-0.3-0.9-0.9-1.2-1.2v1.7
					h-3.4c-0.2,0.3-0.4,0.6-0.5,1l2-0.1v-0.6h1.6v0.5h0.5v1.3H842.4z M839.8,30.3v0.5h1v-0.5H839.8z M840.8,32.6V32h-1v0.6H840.8z
					 M839.8,35.6v0.6h1.4v-0.6H839.8z M845.7,32.8c0.2,1.4,0.5,2.8,0.9,4.1c0.4-1.2,0.6-2.6,0.7-4.1H845.7z"/>
			</g>
		</g>
		<g>
			<rect x="725" y="56" class="st11" width="10" height="10"/>
			<g class="st1">
				<path class="st11" d="M743,54.8h2.5v4.9h4.7v-4.9h2.5v12.5h-2.5v-5.4h-4.7v5.4H743V54.8z"/>
				<path class="st11" d="M755.8,54.8h7.7v2.1h-5.2v3.3h4.4v2.1h-4.4v5.1h-2.5V54.8z"/>
				<path class="st11" d="M772.5,67.3l-2.6-4.7h-1.7v4.7h-2.5V54.8h4.4c2.6,0,4.7,0.9,4.7,3.8c0,1.9-0.9,3-2.4,3.6l2.9,5.1
					C775.3,67.3,772.5,67.3,772.5,67.3z M768.2,60.6h1.6c1.6,0,2.5-0.7,2.5-2c0-1.4-0.9-1.8-2.5-1.8h-1.6V60.6z"/>
				<path class="st11" d="M779.3,60.8l-3.3-6h2.8l1.3,2.6c0.3,0.6,0.6,1.2,0.9,2h0.1c0.3-0.8,0.6-1.4,0.8-2l1.2-2.6h2.6l-3.3,6.2
					l3.5,6.3h-2.8l-1.4-2.8c-0.3-0.6-0.6-1.3-1-2.1h-0.1c-0.3,0.8-0.6,1.4-0.9,2.1l-1.3,2.8h-2.7L779.3,60.8z"/>
				<path class="st11" d="M792.1,65.8c1.1-0.1,2.2-0.2,3.2-0.4v1.7c-2.9,0.4-6,0.7-8.3,0.9l-0.3-1.8c0.9-0.1,2.1-0.2,3.4-0.3v-1.3
					h-2.5V63h2.5v-1.1h-2.9v-1.6h1.8c-0.3-0.5-0.7-1.1-1.1-1.6l0.9-0.5h-2.1v-1.7h2.3v-0.8l-0.9,0.6c-0.2-0.6-0.8-1.4-1.4-2l1.2-0.8
					c0.3,0.4,0.7,0.8,1,1.2V53h1.6v3.6h0.8V53h1.6v2c0.4-0.5,0.7-0.9,0.9-1.3l1.6,0.9c-0.7,0.7-1.4,1.5-1.9,1.9l-0.6-0.4v0.5h2.2
					v1.7h-2.2l1.1,0.4c-0.3,0.6-0.6,1.1-0.9,1.7h1.5V62h-2.8v1.1h2.5v1.6h-2.5v1.1C791.8,65.8,792.1,65.8,792.1,65.8z M789.8,58.2
					c0.4,0.5,0.8,1.1,1,1.5l-1,0.6h1.8c0.3-0.6,0.7-1.4,0.9-2.1H789.8z M802.2,59.1H801v7.4c0,1-0.2,1.5-0.8,1.9
					c-0.6,0.3-1.5,0.4-2.8,0.4c-0.1-0.5-0.4-1.4-0.7-1.9c0.9,0,1.7,0,2,0s0.4-0.1,0.4-0.4v-7.4h-3.6v-1.9h3.6V53h1.9v4.2h1.3v1.9
					C802.3,59.1,802.2,59.1,802.2,59.1z M796.8,64.4c-0.1-1-0.6-2.6-1.2-3.8l1.7-0.6c0.6,1.2,1.2,2.7,1.3,3.8L796.8,64.4z"/>
				<path class="st11" d="M806.8,60.9c-0.7-0.6-2.1-1.3-3.2-1.8l1-1.5c1.1,0.4,2.5,1.1,3.3,1.6L806.8,60.9z M804.2,67.2
					c0.9-1.3,2.1-3.4,3.1-5.3l1.5,1.3c-0.9,1.8-1.9,3.7-2.9,5.3L804.2,67.2z M805.7,53c1.1,0.4,2.5,1.1,3.2,1.7l-1.2,1.6
					c-0.6-0.6-2-1.4-3.1-1.9L805.7,53z M819.1,56.2v7.9h-2v-0.8h-2.2v5.4h-2v-5.4h-2.1v1H809v-8.1h4V53h2v3.2H819.1z M812.9,61.4
					v-3.2h-2.1v3.2H812.9z M817.1,61.4v-3.2h-2.2v3.2H817.1z"/>
				<path class="st11" d="M833.1,62.6c0.9,0.8,2.1,1.5,3.3,2c-0.4,0.4-1,1.1-1.3,1.6c-0.9-0.4-1.8-1-2.7-1.8v1.3h-3.1v1.1h5.5v1.7
					H822v-1.7h5.3v-1.1h-3v-1c-0.8,0.7-1.7,1.3-2.7,1.7c-0.3-0.5-0.9-1.2-1.3-1.5c1.2-0.5,2.5-1.2,3.4-2.1h-3.3v-1.6h3.2v-5h-2.3
					v-1.6h2.3V53h2v1.3h5.3V53h2.1v1.3h2.3v1.6H833v5h3.1v1.6h-3V62.6z M832.1,64c-0.5-0.4-0.9-0.9-1.2-1.4h-4.8
					c-0.3,0.5-0.8,1-1.2,1.4h2.4v-1h2v1H832.1z M825.8,55.9v0.7h5.3v-0.7H825.8z M825.8,58.8h5.3V58h-5.3V58.8z M825.8,60.9h5.3
					v-0.8h-5.3V60.9z"/>
				<path class="st11" d="M846.3,59.7v1.8h5.4v1.8H849l1.7,0.6c-0.6,0.9-1.3,2-1.8,2.7h3.6v1.8H838v-1.8h3.3
					c-0.3-0.8-0.8-1.9-1.4-2.7l1.3-0.6h-2.5v-1.8h5.4v-1.8h-3.4v-0.8c-0.7,0.3-1.4,0.6-2.2,0.9c-0.3-0.6-0.8-1.4-1.3-1.9
					c3.2-0.9,6.2-2.6,7.8-5.1l1.9,0.9c-0.2,0.2-0.3,0.4-0.5,0.7c1.7,1.5,4.4,2.9,6.9,3.6c-0.5,0.4-1.1,1.2-1.4,1.8
					c-0.8-0.3-1.5-0.6-2.3-1v1h-3.3V59.7z M841.6,63.3c0.6,0.8,1.2,1.9,1.5,2.7l-1.4,0.6h2.5v-3.3H841.6z M848.2,57.9
					c-1.1-0.7-2.1-1.4-2.9-2.2c-0.8,0.8-1.7,1.6-2.7,2.2H848.2z M846.3,63.3v3.3h2.1l-1.1-0.5c0.5-0.8,1.1-1.9,1.5-2.8H846.3z"/>
				<path class="st11" d="M856.2,64.3c-0.1,1.5-0.4,3.1-0.7,4.2c-0.3-0.2-1-0.4-1.4-0.5c0.4-1,0.6-2.5,0.7-3.9L856.2,64.3z
					 M858.8,63.5c0-0.3-0.1-0.6-0.2-0.9c-2.9,0.6-3.4,0.8-3.8,1c-0.1-0.3-0.4-1.2-0.6-1.6c0.4-0.1,0.8-0.5,1.2-1.1
					c0.2-0.3,0.6-0.8,1.1-1.6c-1.3,0.2-1.6,0.3-1.9,0.4c-0.1-0.4-0.4-1.2-0.6-1.7c0.3-0.1,0.6-0.4,0.9-0.9c0.3-0.5,1.2-2.4,1.7-4.2
					l1.8,0.7c-0.5,1.4-1.2,2.9-2,4.1l1.1-0.1c0.4-0.7,0.7-1.4,1-2.1l1.6,0.8c-0.9,1.8-2,3.6-3.2,5l1.4-0.2c-0.1-0.4-0.2-0.8-0.3-1.1
					l1.4-0.4c0.4,1.1,0.8,2.6,0.9,3.4L858.8,63.5z M857.9,64c0.2,1.2,0.4,2.6,0.5,3.6L857,68c0-1-0.2-2.5-0.4-3.6L857.9,64z
					 M859.5,63.5c0.3,0.8,0.7,2,0.9,2.7l-1.3,0.5c-0.2-0.8-0.5-1.9-0.8-2.8L859.5,63.5z M863.8,64.2c-0.6,1.3-1.5,2.8-2.2,3.7
					c-0.4-0.3-1.1-0.8-1.6-1.1c0.7-0.8,1.5-2.1,2-3.2L863.8,64.2z M866.1,62.8v5.9h-2v-5.9h-3.8v-1.7h9.4v1.7
					C869.7,62.8,866.1,62.8,866.1,62.8z M862,58.2h-1.3V55h3.6c-0.2-0.5-0.4-1.1-0.6-1.6l1.9-0.4c0.3,0.7,0.6,1.4,0.8,2.1h3.3v3.2
					h-1.4v1.6H862V58.2z M862.4,56.6v1.5h5.4v-1.5H862.4z M868.1,63.6c0.7,1,1.5,2.5,1.9,3.4l-1.7,0.7c-0.3-0.9-1.1-2.4-1.7-3.5
					L868.1,63.6z"/>
				<path class="st11" d="M881,53.8c-0.2,0.3-0.4,0.5-0.6,0.7c2.2,2,4.4,3.2,6.7,4c-0.5,0.5-1.1,1.2-1.4,1.8
					c-0.8-0.4-1.6-0.8-2.4-1.3v1.1h-8.4v-0.8c-0.7,0.5-1.5,0.9-2.3,1.2c-0.3-0.6-0.9-1.3-1.5-1.8c3.1-1.2,6.3-3.3,8.1-5.9L881,53.8z
					 M873.8,61.7h10.9v7h-2.1V68h-6.7v0.7h-2.1L873.8,61.7L873.8,61.7z M875.8,63.5v2.7h6.7v-2.7C882.5,63.5,875.8,63.5,875.8,63.5z
					 M882.2,58.4c-1-0.7-1.9-1.4-2.9-2.4c-0.9,0.9-1.8,1.7-2.8,2.4H882.2z"/>
				<path class="st11" d="M894.2,62l-1.9,0.5v4c0,1-0.2,1.5-0.8,1.8s-1.4,0.4-2.5,0.4c-0.1-0.5-0.3-1.3-0.6-1.9c0.7,0,1.4,0,1.6,0
					c0.2,0,0.3-0.1,0.3-0.3V63c-0.7,0.2-1.3,0.3-1.9,0.5l-0.5-2c0.7-0.2,1.5-0.3,2.4-0.6V58h-2.1v-1.9h2.1V53h2v3.2h1.7v1.9h-1.7
					v2.4c0.6-0.2,1.1-0.3,1.7-0.4L894.2,62z M897.6,60c-2.2,0-2.9-0.7-2.9-2.7V53h2v1.8h6.5v1.7h-6.5v0.9c0,0.6,0.2,0.9,0.9,0.9h3.8
					c0.7,0,1.7,0,2.2-0.1c0.1,0.5,0.1,1.3,0.2,1.7c-0.4,0.1-1.4,0.2-2.3,0.2h-3.9V60z M894.8,61.1h8.2v7.6h-2V68h-4.3v0.7h-1.9V61.1
					z M896.7,62.7v1h4.3v-1H896.7z M901,66.4v-1.1h-4.3v1.1H901z"/>
				<path class="st11" d="M919.6,57.8c-0.3,2.5-0.7,4.6-1.5,6.4c0.7,1.3,1.5,2.3,2.7,3c-0.4,0.3-0.9,0.9-1.1,1.4
					c-1-0.7-1.8-1.6-2.4-2.7c-0.8,1.2-1.8,2.2-3,3c-0.1-0.3-0.5-0.8-0.8-1.2l-1.1,0.9c-0.6-0.4-1.3-0.8-2.2-1.2
					c-1.1,0.5-2.6,0.9-4.7,1.3c-0.1-0.4-0.5-1-0.7-1.3c1.5-0.2,2.7-0.5,3.6-0.8c-0.8-0.3-1.5-0.6-2.2-0.8c0.2-0.3,0.5-0.6,0.7-1
					l-1.5,0.1l-0.2-1.3c0.7,0,1.6-0.1,2.6-0.1c0.2-0.3,0.4-0.7,0.6-1h-2.5v-3.1h3v-0.5h-2.6v-1.8H905v-1.4h1.3V54h2.6v-1h1.5v1h2.7
					v1.7h1.1v1.4h-1.1v1.8h-2.7v0.5h3.1v1.2c1.1-1.8,1.7-4.7,2-7.6l1.7,0.2c-0.1,0.9-0.3,1.9-0.4,2.8h4v1.8
					C920.8,57.8,919.6,57.8,919.6,57.8z M907.5,61.2h1.4v-0.6h-1.4V61.2z M907.9,55.3v0.5h0.9v-0.5H907.9z M908.9,57.6V57H908v0.6
					H908.9z M908.4,65.2c0.6,0.2,1.1,0.4,1.7,0.6c0.6-0.4,1-0.8,1.2-1.2l-2.6,0.1L908.4,65.2z M913,64.5c-0.2,0.7-0.5,1.4-1.3,2
					c0.6,0.3,1.1,0.5,1.6,0.8c1.4-0.8,2.3-1.9,3-3.2c-0.4-1-0.7-2.1-1-3.4c-0.2,0.4-0.4,0.9-0.6,1.2c-0.3-0.3-0.9-0.9-1.2-1.2v1.7
					h-3.4c-0.2,0.3-0.4,0.6-0.5,1l2-0.1v-0.6h1.6v0.5h0.5v1.3L913,64.5z M910.4,55.3v0.5h1v-0.5H910.4z M911.4,57.6V57h-1v0.6H911.4
					z M910.4,60.6v0.6h1.4v-0.6H910.4z M916.3,57.8c0.2,1.4,0.5,2.8,0.9,4.1c0.4-1.2,0.6-2.6,0.7-4.1H916.3z"/>
			</g>
		</g>
	</g>
</g>
<g id="圖層_2_2_">
	<g>
		
			<text transform="matrix(1 0 0 1 0.771 568.4)" class="st2" style="font-family:'SourceHanSansTW-Medium-B5pc-H'; font-size:12px;">40</text>
		
			<text transform="matrix(1 0 0 1 0.771 645.4)" class="st2" style="font-family:'SourceHanSansTW-Medium-B5pc-H'; font-size:12px;">30</text>
		
			<text transform="matrix(1 0 0 1 0.771 721.4)" class="st2" style="font-family:'SourceHanSansTW-Medium-B5pc-H'; font-size:12px;">20</text>
		
			<text transform="matrix(1 0 0 1 0.771 798.4)" class="st2" style="font-family:'SourceHanSansTW-Medium-B5pc-H'; font-size:12px;">10</text>
		
			<text transform="matrix(1 0 0 1 7.611 874.4)" class="st2" style="font-family:'SourceHanSansTW-Medium-B5pc-H'; font-size:12px;">0</text>
	</g>
	<g>
		
			<text transform="matrix(0 -1 1 0 26.0288 937.2227)" class="st2" style="font-family:'SourceHanSansTW-Medium-B5pc-H'; font-size:12px;">2001/8/31</text>
		
			<text transform="matrix(0 -1 1 0 80.1462 937.2227)" class="st2" style="font-family:'SourceHanSansTW-Medium-B5pc-H'; font-size:12px;">2002/8/31</text>
		
			<text transform="matrix(0 -1 1 0 134.264 937.2227)" class="st2" style="font-family:'SourceHanSansTW-Medium-B5pc-H'; font-size:12px;">2003/8/31</text>
		
			<text transform="matrix(0 -1 1 0 188.3818 937.2227)" class="st2" style="font-family:'SourceHanSansTW-Medium-B5pc-H'; font-size:12px;">2004/8/31</text>
		
			<text transform="matrix(0 -1 1 0 242.4993 937.2227)" class="st2" style="font-family:'SourceHanSansTW-Medium-B5pc-H'; font-size:12px;">2005/8/31</text>
		
			<text transform="matrix(0 -1 1 0 296.6172 937.2227)" class="st2" style="font-family:'SourceHanSansTW-Medium-B5pc-H'; font-size:12px;">2006/8/31</text>
		
			<text transform="matrix(0 -1 1 0 350.7346 937.2227)" class="st2" style="font-family:'SourceHanSansTW-Medium-B5pc-H'; font-size:12px;">2007/8/31</text>
		
			<text transform="matrix(0 -1 1 0 404.8525 937.2227)" class="st2" style="font-family:'SourceHanSansTW-Medium-B5pc-H'; font-size:12px;">2008/8/31</text>
		
			<text transform="matrix(0 -1 1 0 458.9697 937.2227)" class="st2" style="font-family:'SourceHanSansTW-Medium-B5pc-H'; font-size:12px;">2009/8/31</text>
		
			<text transform="matrix(0 -1 1 0 513.0879 937.2227)" class="st2" style="font-family:'SourceHanSansTW-Medium-B5pc-H'; font-size:12px;">2010/8/31</text>
		
			<text transform="matrix(0 -1 1 0 567.2052 937.2227)" class="st2" style="font-family:'SourceHanSansTW-Medium-B5pc-H'; font-size:12px;">2011/8/31</text>
		
			<text transform="matrix(0 -1 1 0 621.323 937.2227)" class="st2" style="font-family:'SourceHanSansTW-Medium-B5pc-H'; font-size:12px;">2012/8/31</text>
		
			<text transform="matrix(0 -1 1 0 675.4409 937.2227)" class="st2" style="font-family:'SourceHanSansTW-Medium-B5pc-H'; font-size:12px;">2013/8/31</text>
		
			<text transform="matrix(0 -1 1 0 729.5579 937.2227)" class="st2" style="font-family:'SourceHanSansTW-Medium-B5pc-H'; font-size:12px;">2014/8/31</text>
		
			<text transform="matrix(0 -1 1 0 783.6758 937.2227)" class="st2" style="font-family:'SourceHanSansTW-Medium-B5pc-H'; font-size:12px;">2015/8/31</text>
		
			<text transform="matrix(0 -1 1 0 837.7936 937.2227)" class="st2" style="font-family:'SourceHanSansTW-Medium-B5pc-H'; font-size:12px;">2016/8/31</text>
		
			<text transform="matrix(0 -1 1 0 891.9114 937.2227)" class="st2" style="font-family:'SourceHanSansTW-Medium-B5pc-H'; font-size:12px;">2017/8/31</text>
		
			<text transform="matrix(0 -1 1 0 946.0289 937.2227)" class="st2" style="font-family:'SourceHanSansTW-Medium-B5pc-H'; font-size:12px;">2018/8/31</text>
	</g>
	<g class="st3">
		<line class="st4" x1="76.5" y1="564.4" x2="76.5" y2="870.4"/>
		<line class="st4" x1="22.5" y1="564.4" x2="22.5" y2="870.4"/>
		<line class="st4" x1="130.5" y1="564.4" x2="130.5" y2="870.4"/>
		<line class="st4" x1="184.5" y1="564.4" x2="184.5" y2="870.4"/>
		<line class="st4" x1="238.5" y1="564.4" x2="238.5" y2="870.4"/>
		<line class="st4" x1="292.5" y1="564.4" x2="292.5" y2="870.4"/>
		<line class="st4" x1="346.5" y1="564.4" x2="346.5" y2="870.4"/>
		<line class="st4" x1="400.5" y1="564.4" x2="400.5" y2="870.4"/>
		<line class="st4" x1="454.5" y1="564.4" x2="454.5" y2="870.4"/>
		<line class="st4" x1="508.5" y1="564.4" x2="508.5" y2="870.4"/>
		<line class="st4" x1="562.5" y1="564.4" x2="562.5" y2="870.4"/>
		<line class="st4" x1="616.5" y1="564.4" x2="616.5" y2="870.4"/>
		<line class="st4" x1="670.5" y1="564.4" x2="670.5" y2="870.4"/>
		<line class="st4" x1="724.5" y1="564.4" x2="724.5" y2="870.4"/>
		<line class="st4" x1="778.5" y1="564.4" x2="778.5" y2="870.4"/>
		<line class="st4" x1="832.5" y1="564.4" x2="832.5" y2="870.4"/>
		<line class="st4" x1="886.5" y1="564.4" x2="886.5" y2="870.4"/>
		<line class="st4" x1="940.5" y1="564.4" x2="940.5" y2="870.4"/>
		<line class="st4" x1="19" y1="580.2" x2="22" y2="580.2"/>
		<line class="st4" x1="19" y1="595.5" x2="22" y2="595.5"/>
		<line class="st4" x1="19" y1="610.8" x2="22" y2="610.8"/>
		<line class="st4" x1="19" y1="626.1" x2="22" y2="626.1"/>
		<line class="st4" x1="19" y1="656.7" x2="22" y2="656.7"/>
		<line class="st4" x1="19" y1="672" x2="22" y2="672"/>
		<line class="st4" x1="19" y1="687.3" x2="22" y2="687.3"/>
		<line class="st4" x1="19" y1="702.6" x2="22" y2="702.6"/>
		<line class="st4" x1="19" y1="733.2" x2="22" y2="733.2"/>
		<line class="st4" x1="19" y1="748.5" x2="22" y2="748.5"/>
		<line class="st4" x1="19" y1="763.8" x2="22" y2="763.8"/>
		<line class="st4" x1="19" y1="779.1" x2="22" y2="779.1"/>
		<line class="st4" x1="19" y1="809.7" x2="22" y2="809.7"/>
		<line class="st4" x1="19" y1="825" x2="22" y2="825"/>
		<line class="st4" x1="19" y1="840.3" x2="22" y2="840.3"/>
		<line class="st4" x1="19" y1="855.6" x2="22" y2="855.6"/>
	</g>
	<g>
		<line class="st5" x1="19" y1="794.4" x2="940.5" y2="794.4"/>
		<line class="st4" x1="19" y1="870.9" x2="940.5" y2="870.9"/>
		<line class="st5" x1="19" y1="717.9" x2="940.5" y2="717.9"/>
		<line class="st5" x1="19" y1="641.4" x2="940.5" y2="641.4"/>
		<line class="st4" x1="19" y1="564.9" x2="22" y2="564.9"/>
		<line class="st4" x1="22" y1="870.4" x2="22" y2="564.4"/>
	</g>
	
		<text transform="matrix(1 0 0 1 39.6167 589.3517)" class="st2" style="font-family:'SourceHanSansTW-Bold-B5pc-H'; font-size:16.8702px;">年化波動度(%)</text>
	<polyline class="st6" points="22.5,686.9 26.9,673.9 31.2,677.9 39.8,672.9 48.5,672.9 58.2,686.9 62.5,686.9 66.8,691.9 
		71.2,687.9 76.1,687.9 85.2,679.9 90.6,683.9 94.9,691.9 109,692.9 119.8,686.9 125.2,686.9 130.1,684.1 134.9,688.9 140.3,688.9 
		143.6,692.9 147.9,691.9 153.3,700.9 157.6,704.9 161.9,711.9 167.3,706.9 176,706.9 180.3,710.9 184.2,710.9 188.9,729.9 
		201.9,733.9 207.3,733.9 218.1,725.9 225.7,725.9 234.3,736.9 238.2,736.9 244.1,746.9 249.5,741.9 252.7,740.9 257,742.9 
		261.3,738.9 275.4,743.9 279.7,731.9 292.3,733.9 298.1,733.9 303.5,736.9 307.8,733.9 311,735.9 326.2,734.9 331.6,743.9 
		343.5,745.9 360.7,729.9 366.2,729.9 370.5,714.9 379.1,716.9 388.8,716.9 393.2,706.9 397.5,706.9 400.4,701.2 406.1,686.9 
		410.5,648.9 416.9,648.9 421.3,647.9 426.7,651.9 442.9,623.9 448.3,623.9 452.6,618.9 459.1,618.9 461.2,616.9 468.8,618.9 
		475.3,618.9 485,616.9 488.3,614.9 493.7,616.9 496.9,612.9 502.3,614.9 505.5,611.9 515.3,611.9 523.9,618.9 529.3,616.9 
		536.9,625.9 544.4,625.9 545.5,627.9 552,627.9 558.5,632.9 566.1,632.9 570.4,636.9 574.7,667.9 584.4,670.9 587.7,668.9 
		594.1,673.9 602.8,689.9 606,693.9 611.4,694.9 616.6,701.2 620.1,701.2 623.3,702.9 629.8,702.9 632,703.9 637.4,703.9 
		641.7,705.9 647.1,705.9 650.3,708.9 656.8,708.9 660.1,714.9 664.4,710.9 670.7,714.7 674.1,714.9 678.4,719.9 681.7,718.9 
		687.1,718.9 692.5,722.9 700,718.9 706.5,720.9 724.8,721.4 728.1,725.9 737.9,750.9 741.1,755.9 746.5,753.9 750.8,764.9 
		759.5,768.9 763.8,762.9 768.1,774.9 773.5,774.9 783.2,761.9 786.5,764.9 795.1,758.9 800.5,760.9 804.9,757.9 810.3,757.9 
		814.6,741.9 823.2,741.9 827.5,744.9 832.9,741.4 837.3,741.4 845.9,746.9 849.2,744.9 855.6,744.9 858.9,746.9 883.7,746.9 
		886.9,744.6 892.4,744.6 896.7,749.9 905.3,749.9 908.6,751.9 918.3,743.9 923.7,743.9 928,747.9 933.4,747.9 935.6,746.9 
		941,751.9 	"/>
	<polyline class="st7" points="22.5,748.9 26.9,740.9 31.2,746.9 36.6,746.9 38.7,748.9 55,748.9 59.3,750.9 66.8,750.9 71.2,745.9 
		76.1,745.9 80.9,737.9 89.5,733.9 98.2,740.9 103.6,740.9 107.9,745.9 112.2,737.9 116.5,734.9 130.1,735.5 134.9,737.9 
		139.2,733.9 143.6,736.9 149,733.9 153.3,733.9 167.3,745.9 180.3,745.9 184.2,748 188.9,754.9 225.7,755.9 235.4,768.9 
		239.7,768.9 244.1,784.9 252.7,788.9 260.1,794.4 264.6,795.9 270,795.9 275.4,803.9 279.7,800.9 299.2,800.9 303.5,803.9 
		307.8,803.9 311,806.9 339.1,806.9 346.4,809.7 353.2,805.9 358.6,805.9 360.7,802.9 366.2,802.9 370.5,791.9 379.7,794.4 
		382.4,792.9 388.8,792.9 393.2,781.9 401.8,781.9 411.5,731.9 423.4,729.9 434.4,717.9 442.9,702.9 447.2,702.9 451.5,696.9 
		458,696.9 461.2,695.9 464.5,696.9 483.9,694.9 488.3,692.9 492.6,694.9 496.9,689.9 502.3,689.9 506.6,685.9 510.9,685.9 
		516.3,681.9 521.8,681.9 523.9,683.9 529.3,679.9 533.6,683.9 542.3,682.9 545.5,683.9 552,683.9 556.3,687.9 561.7,687.9 
		565,684.9 570.4,688.9 574.7,707.9 577.9,709.9 583.3,709.9 589.3,717.9 592,723.9 596.3,724.9 601.7,733.9 610.4,730.9 
		616.6,735.9 647.1,737.9 650.3,740.9 656.8,740.9 660.1,748.9 665.5,748.9 670.7,752.9 674.1,752.9 679.5,757.9 687.1,757.9 
		692.5,761.9 701.1,758.9 706.5,758.9 724.8,761.5 738.9,788.9 742.2,789.9 745.4,787.9 749.7,790.9 759.5,788.9 764.9,788.9 
		769.2,803.9 778.8,803.5 783.1,794.4 785.9,794.4 791.9,786.9 801.6,786.9 804.9,782.9 810.3,782.9 813.5,777.9 824.3,777.9 
		828.6,779.9 836.2,779.9 844.8,784.9 855.6,784.9 864.3,787.9 892.4,787.9 896.7,788.9 906.4,788.9 909.7,789.9 914,786.9 
		922.6,785.9 936.7,788.9 941,788.2 	"/>
	<polyline class="st8" points="22,806.9 37.7,806.9 49.6,813.9 53.9,813.9 60.4,816.9 70.1,816.9 73.3,815.9 85.2,815.9 94.9,824.9 
		99.3,825.9 103.6,831.9 109,831.9 113.3,837.9 117.6,835.9 126.3,836.9 130.6,839.9 143.6,840.9 150,847.9 163,848.9 178.1,845.9 
		190,845.9 193.3,846.9 210.6,844.9 214.9,845.9 221.4,842.9 230,842.9 234.3,844.9 244.1,844.9 248.4,841.9 258.1,841.9 
		261.3,839.9 272.1,839.9 278.6,841.9 289.4,841.9 306.7,839.9 329.4,839.9 333.7,838.9 341.3,839.9 347.8,835.9 354.3,835.9 
		361.8,832.9 369.4,832.9 379.1,829.9 383.4,830.9 393.2,830.9 397.5,827.9 402.9,827.9 412.6,802.9 422.3,802.9 424.5,803.9 
		438.5,803.9 442.9,801.9 458,801.9 462.3,799.9 464.5,801.9 485,802.9 488.3,801.9 491.5,802.9 517.4,803.9 525,805.9 529.3,803.9 
		533.6,804.9 554.2,805.9 560.6,807.9 566.1,804.9 570.4,811.9 573.6,827.9 580.1,831.9 601.7,831.9 606,832.9 621.2,833.9 
		624.4,834.9 633,835.9 639.5,835.9 642.8,833.9 655.7,833.9 660.1,836.9 689.2,837.9 693.6,838.9 699,838.9 700,837.9 711.9,837.9 
		716.2,839.9 724.8,839.3 731.4,846.9 738.9,845.9 748.7,845.9 751.9,847.9 754.1,845.9 763.8,845.9 767,847.9 772.4,847.9 
		774.6,846.9 780,846.9 787.6,842.9 805.9,840.9 815.7,839.9 832.9,840.9 854.6,841.9 856.7,840.9 899.9,842.9 910.7,842.9 
		918.3,839.9 932.4,839.9 941,840.5 	"/>
	<g>
		<g>
			<rect x="725" y="564.4" class="st9" width="10" height="10"/>
			
				<text transform="matrix(1 0 0 1 741.4507 575.693)" class="st9" style="font-family:'SourceHanSansTW-Bold-B5pc-H'; font-size:16.8931px;">MSCI新興市場指數</text>
		</g>
		<g>
			<rect x="725" y="589.4" class="st10" width="10" height="10"/>
			
				<text transform="matrix(1 0 0 1 741.4507 600.693)" class="st10" style="font-family:'SourceHanSansTW-Bold-B5pc-H'; font-size:16.8931px;">MSCI世界指數</text>
		</g>
		<g>
			<rect x="725" y="614.4" class="st11" width="10" height="10"/>
			
				<text transform="matrix(1 0 0 1 741.4507 625.693)" class="st11" style="font-family:'SourceHanSansTW-Bold-B5pc-H'; font-size:16.8931px;">HFRX對沖基金綜合指數</text>
		</g>
	</g>
</g>
<rect y="558.4" class="st4" width="950" height="381"/>
<g>
	<g>
		<path class="st2" d="M165.9,468.1v1.4h-13.4v-1.4h5.5v-11.4h1.5v4.5h5.4v1.4h-5.4v5.6H165.9z"/>
		<path class="st2" d="M174.8,458.7c-0.2,0.6-0.4,1.1-0.5,1.7h5.9v9.9h-1.4v-0.8h-9.1v0.8h-1.4v-9.9h4.6c0.1-0.5,0.2-1.1,0.3-1.7
			h-5.6v-1.3h13.3v1.3H174.8z M169.6,468.2h1.9v-6.5h-1.9V468.2z M175.5,461.6h-2.8v1.4h2.8V461.6z M175.5,464.2h-2.8v1.4h2.8V464.2
			z M172.7,468.2h2.8v-1.5h-2.8V468.2z M178.7,461.6h-2v6.5h2V461.6z"/>
		<path class="st2" d="M186.4,463.7c-0.2,1.3-0.7,2.7-1.4,3.8c0.3,0.1,0.6,0.4,1,0.6c1,0.6,2.4,0.7,4.2,0.7c1.8,0,4.3-0.1,6-0.3
			c-0.2,0.4-0.4,1.1-0.4,1.5c-1.1,0.1-3.9,0.2-5.7,0.2c-1.9,0-3.2-0.2-4.3-0.8c-0.6-0.3-1.1-0.8-1.5-0.8c-0.3,0-0.9,0.9-1.3,1.8
			l-0.9-1.3c0.4-0.6,0.9-1,1.3-1.4l0,0c0.6-0.8,1.2-1.9,1.5-3h-2.1c0.4-0.9,0.9-2.1,1.3-3.3h-1.7V460h3.5c-0.4,1.1-0.9,2.3-1.3,3.3
			h0.8l0.2,0L186.4,463.7z M184.3,459.4c-0.2-0.6-0.8-1.7-1.1-2.5l1.2-0.4c0.4,0.8,0.9,1.8,1.2,2.4L184.3,459.4z M195.8,459.3h-9.4
			v-1.1h4.2c-0.2-0.4-0.5-1-0.8-1.4l1.3-0.4c0.4,0.5,0.8,1.2,1,1.6l-0.7,0.2h4.4V459.3z M187.4,464h7.3v3.6h-7.3V464z M194.6,461.2
			h-7v-1h7V461.2z M187.6,462.1h7v1h-7V462.1z M188.7,466.6h4.6v-1.6h-4.6V466.6z"/>
		<path class="st2" d="M202.3,466.5c-1.6,0.7-3.3,1.4-4.6,1.9l-0.4-1.4c0.5-0.2,1.2-0.4,1.9-0.7v-4.9h-1.7v-1.3h1.7v-3.4h1.3v3.4
			h1.5v1.3h-1.5v4.4l1.5-0.6L202.3,466.5z M209.8,468.9c0.4,0,0.4-0.2,0.5-1.1c0.3,0.2,0.7,0.4,1.1,0.5c-0.1,1.4-0.5,1.7-1.5,1.7
			h-1.9c-1.3,0-1.6-0.3-1.6-1.6v-4.3h-0.8c-0.2,2.7-0.8,4.9-3.1,6.1c-0.1-0.3-0.5-0.8-0.8-1c2.1-1,2.5-2.8,2.7-5.1h-1.6V458h1.5
			c0.2-0.5,0.4-1.1,0.5-1.5l1.5,0.2c-0.2,0.5-0.4,0.9-0.6,1.3h5v6.2h-3v4.3c0,0.4,0.1,0.5,0.6,0.5H209.8z M203.8,460.5h2.1v-1.4
			h-2.1V460.5z M203.8,463h2.1v-1.4h-2.1V463z M209.1,459.1h-2.1v1.4h2.1V459.1z M209.1,461.6h-2.1v1.4h2.1V461.6z M210.4,467.9
			c0-0.1-0.1-0.3-0.1-0.5c-1.9,0.2-2.2,0.3-2.4,0.4c-0.1-0.2-0.2-0.6-0.3-0.9c0.2,0,0.3-0.2,0.4-0.4c0.2-0.2,0.6-1.2,0.8-2.1
			l0.9,0.3c-0.3,0.8-0.6,1.5-1,2.2l1.3-0.1c-0.2-0.4-0.3-0.8-0.5-1.1l0.7-0.3c0.4,0.7,0.8,1.6,1,2.2L210.4,467.9z"/>
		<path class="st2" d="M225.6,458.8c0,0,0,0.5,0,0.7c-0.2,6.8-0.4,9.1-1,9.8c-0.4,0.5-0.7,0.6-1.3,0.7c-0.5,0.1-1.4,0-2.3,0
			c0-0.4-0.2-1-0.5-1.4c1,0.1,1.8,0.1,2.2,0.1c0.3,0,0.5,0,0.6-0.3c0.5-0.5,0.7-2.8,0.9-8.4h-3.5c-0.4,1-0.9,1.8-1.4,2.5
			c-0.2-0.2-0.8-0.6-1.1-0.8v6.9h-4.1v1.1H213v-11h1.7c0.2-0.7,0.4-1.7,0.5-2.4l1.5,0.3c-0.3,0.8-0.5,1.5-0.8,2.2h2.4v2.8
			c1-1.3,1.8-3.3,2.2-5.3l1.3,0.3c-0.2,0.7-0.4,1.4-0.6,2H225.6z M214.2,460.1v2.8h2.8v-2.8H214.2z M217,467.5v-3.3h-2.8v3.3H217z
			 M222,466.3c-0.4-0.9-1.4-2.4-2.2-3.5l1.1-0.6c0.8,1,1.8,2.5,2.3,3.3L222,466.3z"/>
		<path class="st2" d="M238.6,460.4c-0.8,2.3-1.9,4.1-3.3,5.6c1.6,1.3,3.6,2.3,5.9,2.8c-0.3,0.3-0.7,0.9-0.9,1.3
			c-2.4-0.6-4.4-1.7-6-3.1c-1.7,1.4-3.7,2.5-6.1,3.2c-0.2-0.4-0.6-1-0.9-1.3c2.4-0.6,4.4-1.6,6-2.9c-1.5-1.5-2.6-3.4-3.4-5.6h-2.3
			v-1.4h6.5c-0.2-0.6-0.6-1.6-1-2.3l1.5-0.4c0.4,0.7,0.9,1.7,1.1,2.3l-1.3,0.4h6.7v1.4H238.6z M231.2,460.4c0.7,1.8,1.7,3.3,3,4.6
			c1.2-1.3,2.1-2.8,2.8-4.6H231.2z"/>
		<path class="st2" d="M255.6,465.8h-5.7v2.8c0,0.8-0.2,1.2-0.8,1.4c-0.6,0.2-1.5,0.2-2.7,0.2c-0.1-0.4-0.4-1-0.6-1.4
			c0.9,0,2,0,2.3,0c0.3,0,0.4-0.1,0.4-0.3v-2.8h-5.7v-1.3h5.7v-0.9c0.8-0.4,1.6-1,2.3-1.5h-5.5v-1.3h6.9l0.3-0.1l0.9,0.7
			c-0.9,0.9-2.2,1.9-3.4,2.6v0.4h5.7V465.8z M244.2,461.2h-1.4V458h5.7c-0.2-0.4-0.4-0.8-0.7-1.2l1.4-0.4c0.4,0.5,0.8,1.1,1,1.6h5.2
			v3.2H254v-1.9h-9.8V461.2z"/>
		<path class="st2" d="M264.8,464.8c-0.1,0.3-0.2,0.6-0.3,0.9h5.5v3.2c0,0.6-0.1,0.9-0.5,1.1s-1,0.2-1.8,0.2
			c-0.1-0.3-0.2-0.8-0.4-1.2c0.5,0,1,0,1.2,0c0.2,0,0.2-0.1,0.2-0.2v-2.1h-2v3.3h-1.3v-3.3h-2v3.3H262v-3.3h-1.9v3.4h-1.3v-4.5h4.3
			c0.1-0.3,0.2-0.6,0.3-0.9h-5.7v-1.1h13.1v1.1H264.8z M259.1,462.3h-1.3v-3.3h5.7v-0.9h-5v-1h11.4v1h-5.1v0.9h5.8v3.3h-1.4v-2.2
			h-4.4v3.1h-1.4v-3.1h-4.3V462.3z M259.2,462.5c0.9-0.1,2.2-0.3,3.5-0.5l0,0.8c-1.1,0.2-2.2,0.5-3.2,0.7L259.2,462.5z M260,460.3
			c0.9,0.2,2.1,0.5,2.7,0.7l-0.4,0.8c-0.6-0.3-1.8-0.6-2.8-0.8L260,460.3z M268.7,463.5c-0.8-0.3-2.3-0.6-3.5-0.8l0.3-0.8
			c1.1,0.1,2.6,0.4,3.5,0.7L268.7,463.5z M268.7,460.9c-0.8,0.3-2,0.6-2.8,0.8l-0.5-0.7c0.8-0.2,2-0.6,2.7-0.9L268.7,460.9z"/>
		<path class="st12" d="M282.8,466.1c-0.4,0.8-1,1.4-1.7,1.9c1.7,0.4,3.3,0.8,4.5,1.2l-1.3,1c-1.2-0.4-2.8-0.9-4.6-1.4
			c-1.7,0.8-3.9,1.2-6.8,1.4c-0.1-0.4-0.3-0.9-0.6-1.2c2-0.1,3.7-0.3,5.1-0.7c-1.1-0.2-2.1-0.4-3.3-0.6c0.4-0.5,0.8-1,1.2-1.6h-3
			v-1.2h3.8c0.3-0.5,0.6-1,0.8-1.5l1.4,0.3c-0.2,0.4-0.4,0.8-0.7,1.2h4c0.1-0.3,0.2-0.6,0.3-0.9l1.3,0.4c-0.1,0.1-0.1,0.3-0.2,0.5
			h2.4v1.2H282.8z M276.7,458.3h-4v-1.2h12.9v1.2h-4.1v1.1h3.6v4h-11.6v-4h3.3V458.3z M274.7,462.2h2v-1.8h-2V462.2z M277.1,466.1
			c-0.2,0.3-0.4,0.6-0.7,0.9c1,0.2,2,0.4,3,0.6c0.7-0.4,1.3-0.9,1.8-1.5H277.1z M280.1,458.3H278v1.1h2.1V458.3z M278,462.2h2.1
			v-1.8H278V462.2z M281.5,460.5v1.8h2.2v-1.8H281.5z"/>
		<path class="st2" d="M299.3,465.9h1.8v1.1h-1.8v2c0,0.6-0.1,0.9-0.6,1.1c-0.5,0.2-1.2,0.2-2.2,0.2c-0.1-0.3-0.2-0.8-0.4-1.1
			c0.7,0,1.4,0,1.6,0c0.2,0,0.3-0.1,0.3-0.2v-2h-2.8c0.6,0.5,1.1,1.2,1.4,1.7l-1,0.7c-0.3-0.5-0.8-1.3-1.3-1.8l0.9-0.5h-1.6v0.8H291
			v2.5h-1.2v-2.5h-2.5v-1.2h2.5v-1h-2v-5.3h2v-1h-2.3V458h2.3v-1.5h1.2v1.5h2.2v1.2H291v1h2.1v5.3H291v1h2.4v-0.6h4.6v-0.7h1.3
			V465.9z M288.8,462.3h1.2v-1.1h-1.2V462.3z M288.8,464.4h1.2v-1.1h-1.2V464.4z M292.1,461.2h-1.2v1.1h1.2V461.2z M292.1,463.3
			h-1.2v1.1h1.2V463.3z M293.4,464.1c0.9,0,2,0,3.1,0v-0.9h-2.7v-3.9h2.7v-0.7h-3v-1h3v-1.1h1.2v1.1h3.1v1h-3.1v0.7h2.8v3.9h-0.8
			c0.6,0.6,1.1,1.3,1.4,1.8l-1,0.5c-0.1-0.2-0.2-0.4-0.4-0.6c-2.3,0.1-4.6,0.1-6.3,0.2L293.4,464.1z M295,460.8h1.6v-0.8H295V460.8z
			 M296.6,462.4v-0.8H295v0.8H296.6z M297.8,460.1v0.8h1.6v-0.8H297.8z M299.4,461.6h-1.6v0.8h1.6V461.6z M297.8,464l1.3,0
			c-0.2-0.2-0.3-0.4-0.5-0.6l0.5-0.2h-1.3V464z"/>
		<path class="st2" d="M308.7,458.6l1,0.3c-0.8,5.9-3,9.5-6.2,11.3c-0.2-0.3-0.8-0.9-1.2-1.2c1.7-0.9,3.2-2.2,4.2-4.1
			c-0.6-0.7-1.4-1.6-2.2-2.3c-0.3,0.5-0.6,0.9-0.9,1.3c-0.3-0.2-0.9-0.7-1.2-0.9c1.3-1.5,2.2-4,2.8-6.6l1.4,0.3
			c-0.1,0.7-0.3,1.3-0.5,2h2.5L308.7,458.6z M305.5,460c-0.2,0.5-0.4,1-0.6,1.4c0.7,0.6,1.6,1.5,2.2,2.1c0.4-1,0.7-2.2,0.9-3.6
			H305.5z M312.6,461c1.2,1,2.8,2.4,3.5,3.4l-1.2,1c-0.6-0.8-1.8-2-2.8-3v7.9h-1.5v-13.8h1.5v4.9L312.6,461z"/>
		<path class="st2" d="M319.9,459h2.7v1.1h-5.3V459H319.9c-0.3-0.6-0.7-1.4-1-2l1-0.6c0.4,0.6,0.9,1.4,1.1,2L319.9,459z
			 M322.2,469.4H319v0.7h-1.1V465h4.3V469.4z M322.1,462.1h-4.2V461h4.2V462.1z M317.9,463h4.2v1.1h-4.2V463z M319,466.1v2.1h2v-2.1
			H319z M331,468.3v1.3h-8v-12.2h7.8v1.3h-6.5v9.7H331z M327,465.9v-2h-1.8v-1.2h1.8v-1.8h-2v-1.2h5.2v1.2h-2v1.8h1.7v1.2h-1.7v2
			h2.2v1.2h-5.6v-1.2H327z"/>
	</g>
</g>
<polygon class="st2" points="136.9,469.1 128.8,469.1 132.8,462 136.9,454.9 141,462 145.1,469.1 "/>
<g>
	<g>
		<path class="st2" d="M516.4,484v2.5l0.3-0.3c1.7,0.8,4.1,2.2,5.2,3.1l-1,1.3c-1-0.8-2.8-2-4.5-2.9v7.5H515V484h-5.6v-1.4h13.2v1.4
			H516.4z"/>
		<path class="st2" d="M531.6,483.7c-0.2,0.6-0.4,1.1-0.5,1.7h5.9v9.9h-1.4v-0.8h-9.1v0.8h-1.4v-9.9h4.6c0.1-0.5,0.2-1.1,0.3-1.7
			h-5.6v-1.3h13.3v1.3H531.6z M526.4,493.2h1.9v-6.5h-1.9V493.2z M532.3,486.6h-2.8v1.4h2.8V486.6z M532.3,489.2h-2.8v1.4h2.8V489.2
			z M529.5,493.2h2.8v-1.5h-2.8V493.2z M535.5,486.6h-2v6.5h2V486.6z"/>
		<path class="st2" d="M543.3,488.7c-0.2,1.3-0.7,2.7-1.4,3.8c0.3,0.1,0.6,0.4,1,0.6c1,0.6,2.4,0.7,4.2,0.7c1.8,0,4.3-0.1,6-0.3
			c-0.2,0.4-0.4,1.1-0.4,1.5c-1.1,0.1-3.9,0.2-5.7,0.2c-1.9,0-3.2-0.2-4.3-0.8c-0.6-0.3-1.1-0.8-1.5-0.8c-0.3,0-0.9,0.9-1.3,1.8
			L539,494c0.4-0.6,0.9-1,1.3-1.4l0,0c0.6-0.8,1.2-1.9,1.5-3h-2.1c0.4-0.9,0.9-2.1,1.3-3.3h-1.7V485h3.5c-0.4,1.1-0.9,2.3-1.3,3.3
			h0.8l0.2,0L543.3,488.7z M541.1,484.4c-0.2-0.6-0.8-1.7-1.1-2.5l1.2-0.4c0.4,0.8,0.9,1.8,1.2,2.4L541.1,484.4z M552.7,484.3h-9.4
			v-1.1h4.2c-0.2-0.4-0.5-1-0.8-1.4l1.3-0.4c0.4,0.5,0.8,1.2,1,1.6l-0.7,0.2h4.4V484.3z M544.2,489h7.3v3.6h-7.3V489z M551.4,486.2
			h-7v-1h7V486.2z M544.4,487.1h7v1h-7V487.1z M545.5,491.6h4.6v-1.6h-4.6V491.6z"/>
		<path class="st2" d="M559.1,491.5c-1.6,0.7-3.3,1.4-4.6,1.9l-0.4-1.4c0.5-0.2,1.2-0.4,1.9-0.7v-4.9h-1.7v-1.3h1.7v-3.4h1.3v3.4
			h1.5v1.3h-1.5v4.4l1.5-0.6L559.1,491.5z M566.6,493.9c0.4,0,0.4-0.2,0.5-1.1c0.3,0.2,0.7,0.4,1.1,0.5c-0.1,1.4-0.5,1.7-1.5,1.7
			h-1.9c-1.3,0-1.6-0.3-1.6-1.6v-4.3h-0.8c-0.2,2.7-0.8,4.9-3.1,6.1c-0.1-0.3-0.5-0.8-0.8-1c2.1-1,2.5-2.8,2.7-5.1h-1.6V483h1.5
			c0.2-0.5,0.4-1.1,0.5-1.5l1.5,0.2c-0.2,0.5-0.4,0.9-0.6,1.3h5v6.2h-3v4.3c0,0.4,0.1,0.5,0.6,0.5H566.6z M560.6,485.5h2.1v-1.4
			h-2.1V485.5z M560.6,488h2.1v-1.4h-2.1V488z M566,484.1h-2.1v1.4h2.1V484.1z M566,486.6h-2.1v1.4h2.1V486.6z M567.2,492.9
			c0-0.1-0.1-0.3-0.1-0.5c-1.9,0.2-2.2,0.3-2.4,0.4c-0.1-0.2-0.2-0.6-0.3-0.9c0.2,0,0.3-0.2,0.4-0.4c0.2-0.2,0.6-1.2,0.8-2.1
			l0.9,0.3c-0.3,0.8-0.6,1.5-1,2.2l1.3-0.1c-0.2-0.4-0.3-0.8-0.5-1.1l0.7-0.3c0.4,0.7,0.8,1.6,1,2.2L567.2,492.9z"/>
		<path class="st2" d="M582.5,483.8c0,0,0,0.5,0,0.7c-0.2,6.8-0.4,9.1-1,9.8c-0.4,0.5-0.7,0.6-1.3,0.7c-0.5,0.1-1.4,0-2.3,0
			c0-0.4-0.2-1-0.5-1.4c1,0.1,1.8,0.1,2.2,0.1c0.3,0,0.5,0,0.6-0.3c0.5-0.5,0.7-2.8,0.9-8.4h-3.5c-0.4,1-0.9,1.8-1.4,2.5
			c-0.2-0.2-0.8-0.6-1.1-0.8v6.9h-4.1v1.1h-1.3v-11h1.7c0.2-0.7,0.4-1.7,0.5-2.4l1.5,0.3c-0.3,0.8-0.5,1.5-0.8,2.2h2.4v2.8
			c1-1.3,1.8-3.3,2.2-5.3l1.3,0.3c-0.2,0.7-0.4,1.4-0.6,2H582.5z M571.1,485.1v2.8h2.8v-2.8H571.1z M573.9,492.5v-3.3h-2.8v3.3
			H573.9z M578.9,491.3c-0.4-0.9-1.4-2.4-2.2-3.5l1.1-0.6c0.8,1,1.8,2.5,2.3,3.3L578.9,491.3z"/>
		<path class="st2" d="M595.5,485.4c-0.8,2.3-1.9,4.1-3.3,5.6c1.6,1.3,3.6,2.3,5.9,2.8c-0.3,0.3-0.7,0.9-0.9,1.3
			c-2.4-0.6-4.4-1.7-6-3.1c-1.7,1.4-3.7,2.5-6.1,3.2c-0.2-0.4-0.6-1-0.9-1.3c2.4-0.6,4.4-1.6,6-2.9c-1.5-1.5-2.6-3.4-3.4-5.6h-2.3
			v-1.4h6.5c-0.2-0.6-0.6-1.6-1-2.3l1.5-0.4c0.4,0.7,0.9,1.7,1.1,2.3l-1.3,0.4h6.7v1.4H595.5z M588.1,485.4c0.7,1.8,1.7,3.3,3,4.6
			c1.2-1.3,2.1-2.8,2.8-4.6H588.1z"/>
		<path class="st2" d="M612.4,490.8h-5.7v2.8c0,0.8-0.2,1.2-0.8,1.4c-0.6,0.2-1.5,0.2-2.7,0.2c-0.1-0.4-0.4-1-0.6-1.4
			c0.9,0,2,0,2.3,0c0.3,0,0.4-0.1,0.4-0.3v-2.8h-5.7v-1.3h5.7v-0.9c0.8-0.4,1.6-1,2.3-1.5h-5.5v-1.3h6.9l0.3-0.1l0.9,0.7
			c-0.9,0.9-2.2,1.9-3.4,2.6v0.4h5.7V490.8z M601.1,486.2h-1.4V483h5.7c-0.2-0.4-0.4-0.8-0.7-1.2l1.4-0.4c0.4,0.5,0.8,1.1,1,1.6h5.2
			v3.2h-1.4v-1.9h-9.8V486.2z"/>
		<path class="st13" d="M625.2,481.2c-0.4,0.6-0.8,1.3-1.3,2v12.4H622v-10c-1.8,2-4,3.8-6.5,5.1c-0.3-0.5-0.8-1.2-1.2-1.6
			c3.6-1.8,6.7-4.8,8.5-7.9h-8v-1.8h16.3v1.8H625.2z M625.4,484.1c2.1,1.4,5,3.6,6.4,5l-1.5,1.4c-1.3-1.5-4.1-3.7-6.2-5.3
			L625.4,484.1z"/>
		<path class="st13" d="M646.7,490.3c-0.6,0.9-1.3,1.7-2.1,2.4c2.2,0.5,4.2,1.1,5.6,1.6l-1.6,1.2c-1.5-0.6-3.5-1.2-5.8-1.7
			c-2.1,1-5,1.5-8.6,1.8c-0.1-0.5-0.4-1.2-0.7-1.5c2.6-0.1,4.7-0.4,6.5-0.9c-1.3-0.3-2.7-0.5-4.1-0.8c0.5-0.6,1-1.3,1.6-2.1h-3.9
			v-1.5h4.8c0.4-0.6,0.8-1.3,1-1.9l1.8,0.4c-0.2,0.5-0.5,1-0.8,1.5h5.1c0.2-0.3,0.3-0.7,0.4-1.1l1.7,0.5c-0.1,0.2-0.2,0.4-0.2,0.6
			h3.1v1.5H646.7z M638.9,480.4h-5.1v-1.5h16.3v1.5h-5.2v1.4h4.5v5h-14.7v-5h4.1V480.4z M636.4,485.4h2.5v-2.2h-2.5V485.4z
			 M639.4,490.3c-0.3,0.4-0.6,0.8-0.8,1.2c1.3,0.2,2.5,0.5,3.8,0.7c0.9-0.5,1.6-1.1,2.2-1.9H639.4z M643.2,480.4h-2.7v1.4h2.7V480.4
			z M640.6,485.4h2.7v-2.2h-2.7V485.4z M644.9,483.2v2.2h2.8v-2.2H644.9z"/>
		<path class="st2" d="M664.1,490.9h1.8v1.1h-1.8v2c0,0.6-0.1,0.9-0.6,1.1c-0.5,0.2-1.2,0.2-2.2,0.2c-0.1-0.3-0.2-0.8-0.4-1.1
			c0.7,0,1.4,0,1.6,0c0.2,0,0.3-0.1,0.3-0.2v-2h-2.8c0.6,0.5,1.1,1.2,1.4,1.7l-1,0.7c-0.3-0.5-0.8-1.3-1.3-1.8l0.9-0.5h-1.6v0.8
			h-2.4v2.5h-1.2v-2.5h-2.5v-1.2h2.5v-1h-2v-5.3h2v-1h-2.3V483h2.3v-1.5h1.2v1.5h2.2v1.2h-2.2v1h2.1v5.3h-2.1v1h2.4v-0.6h4.6v-0.7
			h1.3V490.9z M653.6,487.3h1.2v-1.1h-1.2V487.3z M653.6,489.4h1.2v-1.1h-1.2V489.4z M656.9,486.2h-1.2v1.1h1.2V486.2z M656.9,488.3
			h-1.2v1.1h1.2V488.3z M658.3,489.1c0.9,0,2,0,3.1,0v-0.9h-2.7v-3.9h2.7v-0.7h-3v-1h3v-1.1h1.2v1.1h3.1v1h-3.1v0.7h2.8v3.9h-0.8
			c0.6,0.6,1.1,1.3,1.4,1.8l-1,0.5c-0.1-0.2-0.2-0.4-0.4-0.6c-2.3,0.1-4.6,0.1-6.3,0.2L658.3,489.1z M659.8,485.8h1.6v-0.8h-1.6
			V485.8z M661.4,487.4v-0.8h-1.6v0.8H661.4z M662.6,485.1v0.8h1.6v-0.8H662.6z M664.2,486.6h-1.6v0.8h1.6V486.6z M662.6,489l1.3,0
			c-0.2-0.2-0.3-0.4-0.5-0.6l0.5-0.2h-1.3V489z"/>
		<path class="st2" d="M673.5,483.6l1,0.3c-0.8,5.9-3,9.5-6.2,11.3c-0.2-0.3-0.8-0.9-1.2-1.2c1.7-0.9,3.2-2.2,4.2-4.1
			c-0.6-0.7-1.4-1.6-2.2-2.3c-0.3,0.5-0.6,0.9-0.9,1.3c-0.3-0.2-0.9-0.7-1.2-0.9c1.3-1.5,2.2-4,2.8-6.6l1.4,0.3
			c-0.1,0.7-0.3,1.3-0.5,2h2.5L673.5,483.6z M670.3,485c-0.2,0.5-0.4,1-0.6,1.4c0.7,0.6,1.6,1.5,2.2,2.1c0.4-1,0.7-2.2,0.9-3.6
			H670.3z M677.5,486c1.2,1,2.8,2.4,3.5,3.4l-1.2,1c-0.6-0.8-1.8-2-2.8-3v7.9h-1.5v-13.8h1.5v4.9L677.5,486z"/>
		<path class="st2" d="M684.8,484h2.7v1.1h-5.3V484H684.8c-0.3-0.6-0.7-1.4-1-2l1-0.6c0.4,0.6,0.9,1.4,1.1,2L684.8,484z M687,494.4
			h-3.2v0.7h-1.1V490h4.3V494.4z M687,487.1h-4.2V486h4.2V487.1z M682.7,488h4.2v1.1h-4.2V488z M683.9,491.1v2.1h2v-2.1H683.9z
			 M695.9,493.3v1.3h-8v-12.2h7.8v1.3h-6.5v9.7H695.9z M691.9,490.9v-2H690v-1.2h1.8v-1.8h-2v-1.2h5.2v1.2h-2v1.8h1.7v1.2h-1.7v2
			h2.2v1.2h-5.6v-1.2H691.9z"/>
		<path class="st2" d="M698.6,490.4c1.2-0.4,1.8-1.1,1.9-2c-0.1,0-0.1,0-0.2,0c-0.7,0-1.3-0.4-1.3-1.2c0-0.8,0.6-1.2,1.3-1.2
			c0.9,0,1.4,0.7,1.4,1.9c0,1.7-1,3-2.8,3.5L698.6,490.4z"/>
		<path class="st2" d="M711,491c-2,0.9-4.2,1.9-5.9,2.6l-0.5-1.5c0.6-0.2,1.3-0.5,2-0.8l-0.3-9l1.5-0.1l0.3,8.5
			c0.9-0.4,1.8-0.7,2.6-1.1L711,491z M717.4,495.2c-0.6-1-1.9-2.5-3.1-3.8c-1.1,1.7-2.7,2.9-4.9,3.9c-0.2-0.3-0.8-0.9-1.1-1.2
			c5-1.8,6.5-5.5,7.2-11.8l1.5,0.1c-0.3,3.2-0.9,5.7-1.9,7.7c1.3,1.3,2.8,2.9,3.5,4L717.4,495.2z M711.7,487.6
			c-0.4-1-1.3-2.6-2.3-3.7l1.3-0.6c1,1.1,1.9,2.5,2.4,3.6L711.7,487.6z"/>
		<path class="st2" d="M724.1,485c-0.3,0.7-0.8,1.4-1.2,2v8.2h-1.3v-6.6c-0.4,0.4-0.8,0.8-1.2,1.2c-0.1-0.3-0.5-1-0.8-1.3
			c1.2-1,2.5-2.5,3.3-4L724.1,485z M723.8,481.9c-0.8,1.3-2.2,2.7-3.4,3.6c-0.2-0.3-0.5-0.8-0.7-1c1.1-0.8,2.2-2,2.8-3.1
			L723.8,481.9z M732.1,489.5c-0.6,1.4-1.5,2.5-2.7,3.4c1.1,0.5,2.4,0.9,3.8,1.2c-0.3,0.3-0.7,0.9-0.8,1.2c-1.6-0.3-2.9-0.8-4.2-1.5
			c-1.3,0.7-2.7,1.2-4.2,1.6c-0.1-0.3-0.4-0.9-0.7-1.2c1.3-0.2,2.6-0.6,3.7-1.2c-0.5-0.4-0.9-0.8-1.4-1.2c-0.3,0.3-0.7,0.6-1.1,0.9
			c-0.2-0.3-0.7-0.8-0.9-1c0.4-0.2,0.8-0.6,1.2-0.9c-0.3-0.4-0.5-0.8-0.8-1.2l1.1-0.4c0.1,0.3,0.3,0.5,0.5,0.8
			c0.5-0.5,0.9-1.1,1.2-1.7c-1.9,0.1-2.3,0.2-2.6,0.3c0-0.3-0.3-0.9-0.4-1.3c0.4-0.1,1-0.3,1.7-0.7c0.3-0.2,0.9-0.5,1.7-1
			c-1.9,0.1-2.3,0.2-2.6,0.3c-0.1-0.3-0.3-1-0.5-1.3c0.3-0.1,0.6-0.3,1-0.5c0.4-0.3,1.7-1.3,2.5-2.3l1.4,0.6
			c-0.8,0.8-1.8,1.6-2.7,2.2l2.4-0.1c0.6-0.5,1.3-1,1.8-1.5l1.3,0.7c-1.6,1.4-3.4,2.5-5.1,3.5l4-0.2c-0.3-0.4-0.6-0.8-0.8-1.1
			l1.1-0.6c0.8,1,1.9,2.4,2.4,3.2l-1.2,0.7c-0.2-0.3-0.4-0.8-0.7-1.2l-3.1,0.2c-0.2,0.4-0.4,0.7-0.6,1.1h3.3l0.2-0.1L732.1,489.5z
			 M726.9,490.3c-0.1,0.2-0.3,0.4-0.5,0.6c0.5,0.5,1.1,1,1.8,1.4c0.8-0.5,1.5-1.2,2.1-2H726.9z"/>
		<path class="st2" d="M740.5,485.3c0,0.7-0.1,1.4-0.2,2.1h6.4c0,0,0,0.4-0.1,0.6c-0.3,4.1-0.6,5.8-1.2,6.4
			c-0.4,0.4-0.8,0.5-1.4,0.6c-0.6,0-1.5,0-2.5,0c0-0.4-0.2-1-0.5-1.4c1.1,0.1,2.1,0.1,2.5,0.1c0.3,0,0.5,0,0.7-0.2
			c0.4-0.3,0.7-1.7,0.9-4.8h-5.1c-0.5,2.6-1.6,5-4.3,6.5c-0.2-0.4-0.6-0.9-1-1.1c3.7-1.9,4.1-5.5,4.2-8.8H735V484h6.4
			c-0.2-0.6-0.6-1.5-0.9-2.1l1.4-0.5c0.4,0.7,0.9,1.6,1.1,2.2l-1,0.4h6.2v1.4H740.5z"/>
		<path class="st2" d="M754.1,481.9c-0.4,1.1-0.9,2.2-1.4,3.3v10h-1.3v-7.8c-0.3,0.5-0.7,0.9-1,1.3c-0.1-0.3-0.5-1.1-0.8-1.4
			c1.3-1.4,2.5-3.6,3.2-5.8L754.1,481.9z M759.1,490.4c-0.1,0.9-0.5,1.7-1,2.4c1.5,0.6,3.4,0.9,5.5,1c-0.3,0.3-0.7,0.9-0.8,1.3
			c-2.2-0.2-4.1-0.6-5.6-1.3c-0.8,0.6-1.8,1.1-3.2,1.5c-0.2-0.3-0.6-0.9-0.9-1.1c1.2-0.3,2.1-0.6,2.8-1c-0.8-0.5-1.5-1.2-2-2
			l1.2-0.4c0.4,0.6,1,1.1,1.8,1.5c0.5-0.6,0.8-1.2,0.9-1.9h-3.4v-5.8h3.6v-1.1H754v-1.2h9.1v1.2h-3.9v1.1h3.5v5.8H759.1z M755.6,487
			h2.3v-1.3h-2.3V487z M757.9,489.4c0-0.2,0-0.5,0-0.7V488h-2.3v1.4H757.9z M761.4,488h-2.1v0.7c0,0.2,0,0.5,0,0.7h2.1V488z
			 M759.3,485.7v1.3h2.1v-1.3H759.3z"/>
		<path class="st2" d="M766.2,491.3c-0.2,1.3-0.4,2.7-0.7,3.6c-0.2-0.1-0.8-0.3-1-0.4c0.3-0.9,0.5-2.2,0.6-3.4L766.2,491.3z
			 M764.9,487.1C764.9,487.1,764.9,487.2,764.9,487.1c-0.1-0.2-0.3-0.8-0.4-1.1c0.3-0.1,0.5-0.4,0.8-0.8c0.3-0.5,1.3-2.1,1.8-3.7
			l1.2,0.5c-0.6,1.3-1.3,2.7-2.1,3.8l1.3-0.1c0.4-0.7,0.8-1.4,1.1-2.1l1.1,0.7c-0.9,1.7-2,3.4-3.2,4.8l2.2-0.3
			c-0.2-0.5-0.3-0.9-0.5-1.4l0.9-0.3c0.4,0.9,0.9,2.1,1,2.8l-1,0.4c0-0.2-0.1-0.3-0.1-0.5c-3.2,0.5-3.6,0.6-3.9,0.8
			c-0.1-0.3-0.3-0.9-0.4-1.2c0.3-0.1,0.7-0.5,1.1-1c0.2-0.3,0.7-0.8,1.2-1.6C765.5,487,765.1,487,764.9,487.1L764.9,487.1z
			 M767.7,491c0.2,1,0.3,2.2,0.4,3.1l-1,0.3c0-0.9-0.2-2.1-0.3-3.1L767.7,491z M771.6,487.7c-0.1,2.4-0.3,5.4-1.1,7.5
			c-0.3-0.2-0.8-0.5-1.1-0.6c0.2-0.5,0.3-1,0.5-1.5l-0.8,0.3c-0.1-0.7-0.4-1.7-0.7-2.4l0.9-0.3c0.2,0.6,0.5,1.4,0.6,2
			c0.5-2.2,0.5-4.7,0.5-6.5v-3.7c2.2-0.2,4.8-0.6,6.2-1l1,0.9c-1.6,0.5-3.9,0.8-6,1v0.8h6v3.5H771.6z M777.9,494.1
			c0,0.5-0.1,0.7-0.4,0.9c-0.3,0.2-0.6,0.2-1.2,0.2c0-0.3-0.1-0.7-0.3-1c0.3,0,0.5,0,0.6,0c0.1,0,0.1,0,0.1-0.1v-1.8h-0.9v2.8h-0.8
			v-2.8h-0.9v2.8h-0.8v-2.8h-0.9v3h-1v-6.7h6.3V494.1z M771.6,485.3v0.9v0.4h4.7v-1.3H771.6z M773.4,491.1v-1.5h-0.9v1.5H773.4z
			 M775.1,491.1v-1.5h-0.9v1.5H775.1z M776.8,491.1v-1.5h-0.9v1.5H776.8z"/>
		<path class="st2" d="M792.6,487.1v5.4h0.8v1.2h-0.8v1.6h-1.3v-1.6h-5.5v-0.9h-2.3v2.5h-1.2v-2.5h-2.6v-1.2h2.6v-1.1h-2.1v-5.3h2.1
			v-1h-2.5V483h2.5v-1.5h1.2v1.5h2.4v1.2h-2.4v1h2.2v5.3h-2.2v1.1h2.6v0.9h0.8v-5.4H786V486h7.4v1.1H792.6z M781.2,487.3h1.2v-1.1
			h-1.2V487.3z M781.2,489.4h1.2v-1.1h-1.2V489.4z M784.6,486.2h-1.2v1.1h1.2V486.2z M784.6,488.3h-1.2v1.1h1.2V488.3z M792.6,485.2
			h-5.8v-3.3h5.8V485.2z M791.3,483h-3.1v1.2h3.1V483z M791.3,487.1h-3.1v1.1h3.1V487.1z M791.3,489.2h-3.1v1.1h3.1V489.2z
			 M791.3,492.5v-1.1h-3.1v1.1H791.3z"/>
	</g>
</g>
<polygon class="st2" points="493.8,479.9 501.9,479.9 497.8,487 493.8,494.1 489.7,487 485.6,479.9 "/>
</svg>
