<?xml version="1.0" encoding="utf-8"?>
<!-- Generator: Adobe Illustrator 22.1.0, SVG Export Plug-In . SVG Version: 6.00 Build 0)  -->
<svg version="1.1" id="圖層_1" xmlns="http://www.w3.org/2000/svg" xmlns:xlink="http://www.w3.org/1999/xlink" x="0px" y="0px"
	 viewBox="0 0 950 407.5" style="enable-background:new 0 0 950 407.5;" xml:space="preserve">
<style type="text/css">
	.st0{fill:#382F4D;}
	.st1{fill:url(#SVGID_1_);}
	.st2{fill:#34B5E8;}
	.st3{fill:#DF7956;}
	.st4{fill:none;stroke:#FFFFFF;stroke-miterlimit:10;}
	.st5{opacity:0.12;}
	.st6{fill:none;stroke:#FFFFFF;stroke-miterlimit:10;stroke-dasharray:4.016,4.016;}
	.st7{fill:none;stroke:#F35C00;stroke-miterlimit:10;}
	.st8{fill:#F35C00;}
	.st9{fill:none;stroke:#FFFFFF;stroke-miterlimit:10;stroke-dasharray:4;}
	.st10{fill:none;stroke:#A8A8A8;stroke-miterlimit:10;}
	.st11{fill:none;stroke:#34B5E8;stroke-width:2;stroke-miterlimit:10;}
	.st12{fill:none;stroke:#DF7956;stroke-width:2;stroke-miterlimit:10;}
	.st13{enable-background:new    ;}
	.st14{fill:url(#SVGID_2_);}
	.st15{fill:#FFFFFF;}
	.st16{fill:#F3FF00;}
	.st17{fill:#FF80F3;}
</style>
<rect x="-45.4" y="-501.5" class="st0" width="1016" height="460.2"/>
<g>
	
		<linearGradient id="SVGID_1_" gradientUnits="userSpaceOnUse" x1="434.55" y1="-2082.7" x2="434.55" y2="-1761.3" gradientTransform="matrix(1 0 0 -1 0 -1180)">
		<stop  offset="0.2841" style="stop-color:#FFFFFF;stop-opacity:0"/>
		<stop  offset="1" style="stop-color:#34B5E8"/>
	</linearGradient>
	<polygon class="st1" points="0.8,894.3 4.6,897.5 8.7,894.3 12.5,882.8 15.5,882.8 19.8,879.7 25,879.7 28.1,878.3 30.5,873.3 
		37.5,868.8 45.6,868.8 50.6,866.2 54.8,857.8 61.5,857.8 66.3,859.7 69.8,857.8 72.8,815.2 76.8,814.2 80.7,820.7 85.3,820.7 
		89,812.7 92.8,812.7 96.1,809.2 100,811.1 103.8,809.2 111.3,814.6 115.8,814.6 119.6,812.7 123,822.8 126.6,820.7 130.5,826.6 
		134.5,826.6 138.6,815.7 142.5,821.1 146.3,819.6 153.6,806.5 157.5,818.8 161.1,811.7 165.5,811.2 168.8,838.2 173,833.3 
		176.3,823.7 180.3,826.6 187.3,803.8 192.3,800 196.3,802.5 199.5,806.7 203.5,789 215.3,800.7 226.6,800.7 230.1,798.8 
		234.3,798.8 237.5,800.2 244.5,793.8 249.8,784.8 253.1,777.2 257.1,776.5 260.3,777.3 264.3,779.8 269,777.7 272,765.5 
		276.5,775.8 279.8,759.8 287.1,761.2 291,747.3 295.5,744.8 299,746.2 303.5,740.2 306.3,726.3 310,727.8 314.1,737.8 317.9,719 
		322.5,726.3 329.5,779.8 333.1,750 337.3,765.5 340.6,804.8 344.8,777.3 357,754.2 359.8,738.5 364,743.7 367.6,737.8 371.5,748.7 
		375.5,746.5 378.5,728.2 383.3,715.2 386.1,725 390.3,729.3 394.8,737.2 398.8,734.8 402.3,729.7 406.3,732.5 413.8,722.7 
		417.1,705.3 420.8,703.2 425,723.8 429,728 436.5,721.8 440.3,736.2 443.6,734.2 448.1,740 455.5,785.5 459.3,729.2 463,765.5 
		466,767.2 470.7,751 474.5,773.5 480.1,757.3 482.1,741.2 486,741.3 489.6,759.3 494.1,755 497.5,736.7 501.5,745.2 505.5,729.8 
		509.3,734.7 513.6,723 516,709 520.1,706.3 524.5,709.7 528.1,718 532.1,715.5 535.6,734.7 540.3,741.7 542.5,726.7 547.1,711.8 
		551.1,731.7 555,719.3 558.8,730.3 563.1,726.3 570,707.7 573.6,711.3 578,701.2 581.8,693.5 585.3,695 589.1,692.5 593.2,698.3 
		596.3,699.5 600.6,708.2 604.6,705.3 608.3,696.2 612.1,696.8 616.6,686.8 620.5,690.3 623,689.5 627.1,692.5 631.3,684.3 
		635.5,684.3 639.8,666.7 644.5,657.8 650.3,653.3 654.3,667.2 658.1,661.2 661.6,666.2 665.6,663.8 669.1,667.5 673.8,662.7 
		677.1,674.3 680.6,668.3 684.6,668.3 688.6,659.5 697.1,673.3 700.5,688.3 704,683.7 707.6,696.8 711.6,687 715.9,686.8 
		719.1,675.2 723.3,682.8 727.8,675.2 731.1,663.5 738,656.5 742,657.2 745.1,640.8 749.8,628.7 753.5,632.3 757.6,624.3 765,636.8 
		773,605.8 776.5,608.7 779.8,581.3 791.8,629.3 795.3,623.2 800.1,620.3 802.6,611 807,605.7 810.5,604.5 818,592.7 821.8,591.7 
		830.3,604.5 833.6,592.7 837.5,608.2 845.1,610 853,623.3 857.1,614.2 862.5,606 868.3,592.7 868.3,902.7 0.8,902.7 	"/>
	<g>
		<g>
			
				<text transform="matrix(1 0 0 1 887.9692 575.4999)" class="st15" style="font-family:'SourceHanSansTW-Medium-B5pc-H'; font-size:12px;">150</text>
		</g>
		<g>
			
				<text transform="matrix(1 0 0 1 887.9692 640)" class="st15" style="font-family:'SourceHanSansTW-Medium-B5pc-H'; font-size:12px;">140</text>
		</g>
		<g>
			
				<text transform="matrix(1 0 0 1 887.9692 704.4998)" class="st15" style="font-family:'SourceHanSansTW-Medium-B5pc-H'; font-size:12px;">130</text>
		</g>
		<g>
			
				<text transform="matrix(1 0 0 1 887.9692 768.9998)" class="st15" style="font-family:'SourceHanSansTW-Medium-B5pc-H'; font-size:12px;">120</text>
		</g>
		<g>
			
				<text transform="matrix(1 0 0 1 887.9692 833.4995)" class="st15" style="font-family:'SourceHanSansTW-Medium-B5pc-H'; font-size:12px;">110</text>
		</g>
		<g>
			
				<text transform="matrix(1 0 0 1 887.9692 897.9999)" class="st15" style="font-family:'SourceHanSansTW-Medium-B5pc-H'; font-size:12px;">100</text>
		</g>
	</g>
	<polygon class="st2" points="950.3,600 893.6,600 886.8,591.8 893.6,583.7 950.3,583.7 	"/>
	<g>
		
			<text transform="matrix(1 0 0 1 895.4692 595.9999)" class="st0" style="font-family:'SourceHanSansTW-Medium-B5pc-H'; font-size:12px;">146.8972</text>
	</g>
	<polygon class="st3" points="950.3,783 893.6,783 886.8,774.8 893.6,766.7 950.3,766.7 	"/>
	<g>
		
			<text transform="matrix(1 0 0 1 895.4692 778.9998)" class="st0" style="font-family:'SourceHanSansTW-Medium-B5pc-H'; font-size:12px;">118.5537</text>
	</g>
	<g>
		<g>
			
				<text transform="matrix(1 0 0 1 829.5493 940.6665)" class="st15" style="font-family:'SourceHanSansTW-Medium-B5pc-H'; font-size:12px;">8月</text>
		</g>
		<g>
			
				<text transform="matrix(1 0 0 1 746.6157 940.6665)" class="st15" style="font-family:'SourceHanSansTW-Medium-B5pc-H'; font-size:12px;">7月</text>
		</g>
		<g>
			
				<text transform="matrix(1 0 0 1 665.6826 940.6665)" class="st15" style="font-family:'SourceHanSansTW-Medium-B5pc-H'; font-size:12px;">6月</text>
		</g>
		<g>
			
				<text transform="matrix(1 0 0 1 583.749 940.6665)" class="st15" style="font-family:'SourceHanSansTW-Medium-B5pc-H'; font-size:12px;">5月</text>
		</g>
		<g>
			
				<text transform="matrix(1 0 0 1 501.8162 940.6665)" class="st15" style="font-family:'SourceHanSansTW-Medium-B5pc-H'; font-size:12px;">4月</text>
		</g>
		<g>
			
				<text transform="matrix(1 0 0 1 421.8827 940.6665)" class="st15" style="font-family:'SourceHanSansTW-Medium-B5pc-H'; font-size:12px;">3月</text>
		</g>
		<g>
			
				<text transform="matrix(1 0 0 1 344.9491 940.6665)" class="st15" style="font-family:'SourceHanSansTW-Medium-B5pc-H'; font-size:12px;">2月</text>
		</g>
		<g>
			
				<text transform="matrix(1 0 0 1 269.0159 940.6665)" class="st15" style="font-family:'SourceHanSansTW-Medium-B5pc-H'; font-size:12px;">1月</text>
		</g>
		<g>
			
				<text transform="matrix(1 0 0 1 186.6625 940.6665)" class="st15" style="font-family:'SourceHanSansTW-Medium-B5pc-H'; font-size:12px;">12月</text>
		</g>
		<g>
			
				<text transform="matrix(1 0 0 1 106.7294 940.6665)" class="st15" style="font-family:'SourceHanSansTW-Medium-B5pc-H'; font-size:12px;">11月</text>
		</g>
		<g>
			
				<text transform="matrix(1 0 0 1 26.7961 940.6665)" class="st15" style="font-family:'SourceHanSansTW-Medium-B5pc-H'; font-size:12px;">10月</text>
		</g>
	</g>
	<line class="st4" x1="0.3" y1="928" x2="883.8" y2="928"/>
	<g class="st5">
		<g>
			<g>
				<line class="st4" x1="0.3" y1="893.5" x2="2.3" y2="893.5"/>
				<line class="st6" x1="6.3" y1="893.5" x2="879.8" y2="893.5"/>
				<line class="st4" x1="881.8" y1="893.5" x2="883.8" y2="893.5"/>
			</g>
		</g>
		<g>
			<g>
				<line class="st4" x1="0.3" y1="829.1" x2="2.3" y2="829.1"/>
				<line class="st6" x1="6.3" y1="829.1" x2="879.8" y2="829.1"/>
				<line class="st4" x1="881.8" y1="829.1" x2="883.8" y2="829.1"/>
			</g>
		</g>
		<g>
			<g>
				<line class="st4" x1="0.3" y1="764.7" x2="2.3" y2="764.7"/>
				<line class="st6" x1="6.3" y1="764.7" x2="879.8" y2="764.7"/>
				<line class="st4" x1="881.8" y1="764.7" x2="883.8" y2="764.7"/>
			</g>
		</g>
		<g>
			<g>
				<line class="st4" x1="0.3" y1="700.3" x2="2.3" y2="700.3"/>
				<line class="st6" x1="6.3" y1="700.3" x2="879.8" y2="700.3"/>
				<line class="st4" x1="881.8" y1="700.3" x2="883.8" y2="700.3"/>
			</g>
		</g>
		<g>
			<g>
				<line class="st4" x1="0.3" y1="635.9" x2="2.3" y2="635.9"/>
				<line class="st6" x1="6.3" y1="635.9" x2="879.8" y2="635.9"/>
				<line class="st4" x1="881.8" y1="635.9" x2="883.8" y2="635.9"/>
			</g>
		</g>
		<g>
			<g>
				<line class="st4" x1="0.3" y1="571.5" x2="2.3" y2="571.5"/>
				<line class="st6" x1="6.3" y1="571.5" x2="879.8" y2="571.5"/>
				<line class="st4" x1="881.8" y1="571.5" x2="883.8" y2="571.5"/>
			</g>
		</g>
	</g>
	<line class="st7" x1="883.8" y1="552.5" x2="883.8" y2="928"/>
	<g>
		<polygon class="st8" points="884.3,893.6 884.3,892.1 886.1,892.8 888,893.6 886.1,894.3 884.3,895.1 		"/>
		<polygon class="st8" points="884.3,829.2 884.3,827.6 886.1,828.4 888,829.2 886.1,829.9 884.3,830.7 		"/>
		<polygon class="st8" points="884.3,764.8 884.3,763.2 886.1,764 888,764.8 886.1,765.5 884.3,766.3 		"/>
		<polygon class="st8" points="884.3,700.3 884.3,698.8 886.1,699.6 888,700.3 886.1,701.1 884.3,701.9 		"/>
		<polygon class="st8" points="884.3,635.9 884.3,634.4 886.1,635.2 888,635.9 886.1,636.7 884.3,637.4 		"/>
		<polygon class="st8" points="884.3,571.5 884.3,570 886.1,570.7 888,571.5 886.1,572.3 884.3,573 		"/>
	</g>
	<line class="st7" x1="884.3" y1="603.7" x2="886.7" y2="603.7"/>
	<line class="st7" x1="884.3" y1="667.8" x2="886.7" y2="667.8"/>
	<line class="st7" x1="884.3" y1="732.9" x2="886.7" y2="732.9"/>
	<line class="st7" x1="884.3" y1="797.2" x2="886.7" y2="797.2"/>
	<line class="st7" x1="884.3" y1="861.5" x2="886.7" y2="861.5"/>
	<line class="st7" x1="884.3" y1="926.1" x2="886.7" y2="926.1"/>
	<g class="st5">
		<line class="st9" x1="0.8" y1="552.5" x2="0.8" y2="931.5"/>
		<line class="st9" x1="80.7" y1="552.5" x2="80.7" y2="931.5"/>
		<line class="st9" x1="161.1" y1="552.5" x2="161.1" y2="931.5"/>
		<line class="st9" x1="237.5" y1="552.5" x2="237.5" y2="931.5"/>
		<line class="st9" x1="317.9" y1="552.5" x2="317.9" y2="931.5"/>
		<line class="st9" x1="390.3" y1="552.5" x2="390.3" y2="931.5"/>
		<line class="st9" x1="470.7" y1="552.5" x2="470.7" y2="931.5"/>
		<line class="st9" x1="551.1" y1="552.5" x2="551.1" y2="931.5"/>
		<line class="st9" x1="635.5" y1="552.5" x2="635.5" y2="931.5"/>
		<line class="st9" x1="715.9" y1="552.5" x2="715.9" y2="931.5"/>
		<line class="st9" x1="795.3" y1="552.5" x2="795.3" y2="931.5"/>
	</g>
	<g>
		<g>
			
				<text transform="matrix(1 0 0 1 105.4337 956.5005)" class="st15" style="font-family:'SourceHanSansTW-Bold-B5pc-H'; font-size:12px;">2017</text>
		</g>
		<g>
			
				<text transform="matrix(1 0 0 1 547.4337 956.5005)" class="st15" style="font-family:'SourceHanSansTW-Bold-B5pc-H'; font-size:12px;">2018</text>
		</g>
	</g>
	<line class="st10" x1="237.5" y1="945" x2="237.5" y2="960"/>
	<polyline class="st11" points="0.8,893.5 4.6,896.6 8.7,893.5 12.5,881.9 15.5,881.9 19.8,878.8 25,878.8 28.1,877.5 30.5,872.5 
		37.5,868 45.6,868 50.6,865.3 54.8,857 61.5,857 66.3,858.8 69.8,857 72.8,814.3 76.8,813.3 80.7,819.8 85.3,819.8 89,811.8 
		92.8,811.8 96.1,808.3 100,810.2 103.8,808.3 111.3,813.7 115.8,813.7 119.6,811.8 123,822 126.6,819.8 130.5,825.7 134.5,825.7 
		138.6,814.8 142.5,820.2 146.3,818.7 153.6,805.7 157.5,818 161.1,810.8 165.5,810.3 168.8,837.3 173,832.5 176.3,822.8 
		180.3,825.7 187.3,803 192.3,799.2 196.3,801.7 199.5,805.8 203.5,788.2 215.3,799.8 226.6,799.8 230.1,798 234.3,798 237.5,799.3 
		244.5,793 249.8,784 253.1,776.3 257.1,775.7 260.3,776.5 264.3,779 269,776.8 272,764.7 276.5,775 279.8,759 287.1,760.3 
		291,746.5 295.5,744 299,745.3 303.5,739.3 306.3,725.5 310,727 314.1,737 317.9,718.2 322.5,725.5 329.5,779 333.1,749.2 
		337.3,764.7 340.6,804 344.8,776.5 357,753.3 359.8,737.7 364,742.8 367.6,737 371.5,747.8 375.5,745.7 378.5,727.3 383.3,714.3 
		386.1,724.2 390.3,728.5 394.8,736.3 398.8,734 402.3,728.8 406.3,731.7 413.8,721.8 417.1,704.5 420.8,702.3 425,723 429,727.2 
		436.5,721 440.3,735.3 443.6,733.3 448.1,739.2 455.5,784.7 459.3,728.3 463,764.7 466,766.3 470.7,750.2 474.5,772.7 480.1,756.5 
		482.1,740.3 486,740.5 489.6,758.5 494.1,754.2 497.5,735.8 501.5,744.3 505.5,729 509.3,733.8 513.6,722.2 516,708.2 520.1,705.5 
		524.5,708.8 528.1,717.2 532.1,714.7 535.6,733.8 540.3,740.8 542.5,725.8 547.1,711 551.1,730.8 555,718.5 558.8,729.5 
		563.1,725.5 570,706.8 573.6,710.5 578,700.3 581.8,692.7 585.3,694.2 589.1,691.7 593.2,697.5 596.3,698.7 600.6,707.3 
		604.6,704.5 608.3,695.3 612.1,696 616.6,686 620.5,689.5 623,688.7 627.1,691.7 631.3,683.5 635.5,683.5 639.8,665.8 644.5,657 
		650.3,652.5 654.3,666.3 658.1,660.3 661.6,665.3 665.6,663 669.1,666.7 673.8,661.8 677.1,673.5 680.6,667.5 684.6,667.5 
		688.6,658.7 697.1,672.5 700.5,687.5 704,682.8 707.6,696 711.6,686.2 715.9,686 719.1,674.3 723.3,682 727.8,674.3 731.1,662.7 
		738,655.7 742,656.3 745.1,640 749.8,627.8 753.5,631.5 757.6,623.5 765,635.9 773,605 776.5,607.8 779.8,580.5 791.8,628.5 
		795.3,622.3 800.1,619.5 802.6,610.2 807,604.8 810.5,603.7 818,591.8 821.8,590.8 830.3,603.7 833.6,591.8 837.5,607.3 
		845.1,609.2 853,622.5 857.1,613.3 862.5,605.2 868.3,591.8 	"/>
	<polyline class="st12" points="0.7,893 10,889.7 12.3,889.7 27.7,873.9 31.5,875.4 39.5,868 42.8,868.8 45.9,866.1 50.2,867.8 
		62.5,857 66.3,864.8 69.3,861.3 72.7,847.5 77.1,845.9 80.5,840.7 84.9,842.6 88.2,840 95.6,817.4 100.7,818.3 104.3,815.9 
		108.2,829.8 111.4,825.7 116.1,823.3 119.9,825.5 122.5,830.3 126.4,818.5 130.5,823.1 138.5,806.1 142.5,810.8 146.4,804 
		150.7,814.2 154.6,814.9 157.7,845.1 161.2,841.7 166.3,851.4 169.5,866.7 175,865.2 180.8,856.7 184,860.6 188.3,856.7 192.3,864 
		199.1,864 205.2,846.7 206.4,839.3 211.1,839.8 215.1,835.5 218.8,843.2 222.9,844.1 226.2,849.3 234.2,845.1 237.4,852.4 
		239.6,842.2 244.9,822.7 256.7,807.6 264.9,823.3 270.9,816.2 275.5,813.4 278.8,792.1 283.3,788.5 286.9,788.5 294.8,776.6 
		299.6,795 302.5,804.4 305.6,783 310.4,784.4 314.2,798.7 317.8,793.6 323.1,798.3 326.3,818.6 329.2,847.5 332.8,824.8 
		337.4,842.2 340.9,869.3 347.9,838.8 351.9,839 359.3,814.5 363.3,816.5 367.6,804 372,813.5 375,814.8 382.7,782.7 390.8,793 
		394.4,803.4 398,792.1 402,785.8 405.4,774.3 409.6,772.3 412.9,772.3 416.4,755.4 421.3,747.5 425.3,759.5 437.2,760.9 
		440.4,774.3 443.3,770.1 447.7,767.9 455.5,811 459.1,780.5 464,814.1 466.5,825.3 470.8,810.4 475.4,838 478.3,825.5 482.6,816.4 
		487.3,825.4 490.2,845 493.7,841.6 497,819.4 501.1,819.2 505.1,805.7 509.6,810.9 513.2,808.7 516.1,794.9 521,804.3 525,835.9 
		528.9,844.3 532.4,852.9 536.4,858.8 539.6,858.7 543.1,843.7 551,856.3 554.4,845.6 558.3,849.3 563,844.6 566.4,827.7 
		573.7,816.9 578.3,804.8 581.2,793.1 585.5,798.5 589.7,789.4 593.2,798.5 597,787.7 600.9,792.6 604.8,801.9 608.3,794.3 
		620.2,783.4 623.6,777.6 627,782.4 631.4,777.5 635.2,783.5 637.8,770.4 641.4,761 646.9,757.2 650.1,751.5 657.8,765.9 
		661.7,767.6 665.7,762.7 669.6,764.6 673.8,759.2 677.5,760.8 685,776.5 688.5,773.1 692.6,783.2 696.5,789.1 700.3,811.6 
		704.5,808.5 708,826 711.1,820.7 715.6,819.1 719.2,815.2 723.2,826.5 727,808.4 730.2,798.9 734.7,794.7 738.5,787 742.4,806.2 
		745.7,802.2 750.6,805.7 753.4,805.8 756.7,795.5 761.2,789.3 768.6,794.8 773.1,793.9 776.4,801.3 780.3,797.3 781.2,791.3 
		784,784.1 788.5,789 791.7,794 795.1,790.3 799.4,791.6 802.9,784 808,781.6 814.2,773.1 818.5,770.5 823.3,780.3 826.4,797.4 
		830.7,796.1 834.4,798.2 838.2,808.7 841.4,808.9 846.2,815.3 848.8,815.3 852.9,800.9 859.8,796.3 867.8,774 	"/>
	<g>
		<g>
			<rect x="9.9" y="603.7" class="st2" width="10" height="10"/>
			
				<text transform="matrix(1 0 0 1 26.4051 614.9597)" class="st2" style="font-family:'SourceHanSansTW-Bold-B5pc-H'; font-size:16.8931px;">MSFT US Equity  146.8972</text>
		</g>
	</g>
	<g>
		<g>
			<rect x="9.9" y="628.7" class="st3" width="10" height="10"/>
			
				<text transform="matrix(1 0 0 1 26.4051 639.9597)" class="st3" style="font-family:'SourceHanSansTW-Bold-B5pc-H'; font-size:16.8931px;">SOX Index              118.5537</text>
		</g>
	</g>
	<g class="st13">
		
			<text transform="matrix(1 0 0 1 475.2997 683.3331)" class="st2" style="font-family:'SourceHanSansTW-Bold-B5pc-H'; font-size:16.8931px;">微軟 +46.9%</text>
	</g>
	
		<text transform="matrix(1 0 0 1 19.9048 763.2278)" class="st15" style="font-family:'SourceHanSansTW-Regular-B5pc-H'; font-size:16.8931px;">2017/10=100</text>
	<g>
		
			<text transform="matrix(1 0 0 1 618.9496 857.0015)" class="st3" style="font-family:'SourceHanSansTW-Bold-B5pc-H'; font-size:16.8931px;">費城半導體指數 +18.6%</text>
	</g>
	<rect y="552.5" class="st4" width="950" height="407.5"/>
</g>
<g>
	
		<linearGradient id="SVGID_2_" gradientUnits="userSpaceOnUse" x1="434.55" y1="-1530.2001" x2="434.55" y2="-1208.8" gradientTransform="matrix(1 0 0 -1 0 -1180)">
		<stop  offset="0.2841" style="stop-color:#FFFFFF;stop-opacity:0"/>
		<stop  offset="1" style="stop-color:#34B5E8"/>
	</linearGradient>
	<polygon class="st14" points="0.8,341.8 4.6,345 8.7,341.8 12.5,330.3 15.5,330.3 19.8,327.2 25,327.2 28.1,325.8 30.5,320.8 
		37.5,316.3 45.6,316.3 50.6,313.7 54.8,305.3 61.5,305.3 66.3,307.2 69.8,305.3 72.8,262.7 76.8,261.7 80.7,268.2 85.3,268.2 
		89,260.2 92.8,260.2 96.1,256.7 100,258.6 103.8,256.7 111.3,262.1 115.8,262.1 119.6,260.2 123,270.3 126.6,268.2 130.5,274.1 
		134.5,274.1 138.6,263.2 142.5,268.6 146.3,267.1 153.6,254 157.5,266.3 161.1,259.2 165.5,258.7 168.8,285.7 173,280.8 
		176.3,271.2 180.3,274.1 187.3,251.3 192.3,247.5 196.3,250 199.5,254.2 203.5,236.5 215.3,248.2 226.6,248.2 230.1,246.3 
		234.3,246.3 237.5,247.7 244.5,241.3 249.8,232.3 253.1,224.7 257.1,224 260.3,224.8 264.3,227.3 269,225.2 272,213 276.5,223.3 
		279.8,207.3 287.1,208.7 291,194.8 295.5,192.3 299,193.7 303.5,187.7 306.3,173.8 310,175.3 314.1,185.3 317.9,166.5 322.5,173.8 
		329.5,227.3 333.1,197.5 337.3,213 340.6,252.3 344.8,224.8 357,201.7 359.8,186 364,191.2 367.6,185.3 371.5,196.2 375.5,194 
		378.5,175.7 383.3,162.7 386.1,172.5 390.3,176.8 394.8,184.7 398.8,182.3 402.3,177.2 406.3,180 413.8,170.2 417.1,152.8 
		420.8,150.7 425,171.3 429,175.5 436.5,169.3 440.3,183.7 443.6,181.7 448.1,187.5 455.5,233 459.3,176.7 463,213 466,214.7 
		470.7,198.5 474.5,221 480.1,204.8 482.1,188.7 486,188.8 489.6,206.8 494.1,202.5 497.5,184.2 501.5,192.7 505.5,177.3 
		509.3,182.2 513.6,170.5 516,156.5 520.1,153.8 524.5,157.2 528.1,165.5 532.1,163 535.6,182.2 540.3,189.2 542.5,174.2 
		547.1,159.3 551.1,179.2 555,166.8 558.8,177.8 563.1,173.8 570,155.2 573.6,158.8 578,148.7 581.8,141 585.3,142.5 589.1,140 
		593.2,145.8 596.3,147 600.6,155.7 604.6,152.8 608.3,143.7 612.1,144.3 616.6,134.3 620.5,137.8 623,137 627.1,140 631.3,131.8 
		635.5,131.8 639.8,114.2 644.5,105.3 650.3,100.8 654.3,114.7 658.1,108.7 661.6,113.7 665.6,111.3 669.1,115 673.8,110.2 
		677.1,121.8 680.6,115.8 684.6,115.8 688.6,107 697.1,120.8 700.5,135.8 704,131.2 707.6,144.3 711.6,134.5 715.9,134.3 
		719.1,122.7 723.3,130.3 727.8,122.7 731.1,111 738,104 742,104.7 745.1,88.3 749.8,76.2 753.5,79.8 757.6,71.8 765,84.3 773,53.3 
		776.5,56.2 779.8,28.8 791.8,76.8 795.3,70.7 800.1,67.8 802.6,58.5 807,53.2 810.5,52 818,40.2 821.8,39.2 830.3,52 833.6,40.2 
		837.5,55.7 845.1,57.5 853,70.8 857.1,61.7 862.5,53.5 868.3,40.2 868.3,350.2 0.8,350.2 	"/>
	<g>
		<g>
			<g class="st13">
				<path class="st15" d="M889,21.9h1.9v-6.1h-1.6v-0.9c0.8-0.2,1.4-0.4,1.9-0.7h1v7.7h1.7V23h-5V21.9z"/>
				<path class="st15" d="M895.1,22l0.7-0.9c0.5,0.5,1.1,0.9,2.1,0.9c1,0,1.8-0.7,1.8-1.9c0-1.2-0.7-1.8-1.7-1.8
					c-0.6,0-0.9,0.2-1.4,0.5l-0.7-0.4l0.3-4.2h4.5v1.2h-3.3l-0.2,2.3c0.4-0.2,0.7-0.3,1.2-0.3c1.5,0,2.7,0.9,2.7,2.8
					c0,2-1.4,3.1-3,3.1C896.6,23.2,895.8,22.6,895.1,22z"/>
				<path class="st15" d="M902.2,18.6c0-3.1,1.1-4.5,2.9-4.5c1.7,0,2.9,1.5,2.9,4.5c0,3.1-1.1,4.6-2.9,4.6
					C903.3,23.2,902.2,21.6,902.2,18.6z M906.6,18.6c0-2.5-0.6-3.5-1.5-3.5c-0.9,0-1.5,0.9-1.5,3.5c0,2.6,0.6,3.5,1.5,3.5
					C906,22.1,906.6,21.1,906.6,18.6z"/>
			</g>
		</g>
		<g>
			<g class="st13">
				<path class="st15" d="M889,86.4h1.9v-6.1h-1.6v-0.9c0.8-0.2,1.4-0.4,1.9-0.7h1v7.7h1.7v1.1h-5V86.4z"/>
				<path class="st15" d="M901.3,85.1h-1.1v2.4h-1.3v-2.4H895v-0.9l3.5-5.5h1.6v5.4h1.1V85.1z M898.9,84.1v-2.3c0-0.5,0-1.2,0.1-1.7
					h0c-0.2,0.4-0.5,0.9-0.7,1.4l-1.7,2.7H898.9z"/>
				<path class="st15" d="M902.2,83.1c0-3.1,1.1-4.5,2.9-4.5c1.7,0,2.9,1.5,2.9,4.5c0,3.1-1.1,4.6-2.9,4.6
					C903.3,87.7,902.2,86.1,902.2,83.1z M906.6,83.1c0-2.5-0.6-3.5-1.5-3.5c-0.9,0-1.5,0.9-1.5,3.5c0,2.6,0.6,3.5,1.5,3.5
					C906,86.6,906.6,85.6,906.6,83.1z"/>
			</g>
		</g>
		<g>
			<g class="st13">
				<path class="st15" d="M889,150.9h1.9v-6.1h-1.6v-0.9c0.8-0.2,1.4-0.4,1.9-0.7h1v7.7h1.7v1.1h-5V150.9z"/>
				<path class="st15" d="M895.1,150.9l0.7-0.9c0.5,0.5,1.2,1,2.1,1c1,0,1.7-0.6,1.7-1.5c0-1-0.6-1.6-2.6-1.6v-1
					c1.7,0,2.3-0.7,2.3-1.5c0-0.8-0.5-1.3-1.4-1.3c-0.7,0-1.3,0.3-1.8,0.8l-0.7-0.9c0.7-0.6,1.5-1.1,2.5-1.1c1.6,0,2.7,0.8,2.7,2.3
					c0,1-0.6,1.7-1.5,2.1v0.1c1,0.3,1.8,1,1.8,2.2c0,1.6-1.3,2.5-3,2.5C896.6,152.2,895.7,151.6,895.1,150.9z"/>
				<path class="st15" d="M902.2,147.6c0-3.1,1.1-4.5,2.9-4.5c1.7,0,2.9,1.5,2.9,4.5c0,3.1-1.1,4.6-2.9,4.6
					C903.3,152.2,902.2,150.6,902.2,147.6z M906.6,147.6c0-2.5-0.6-3.5-1.5-3.5c-0.9,0-1.5,0.9-1.5,3.5c0,2.6,0.6,3.5,1.5,3.5
					C906,151.1,906.6,150.1,906.6,147.6z"/>
			</g>
		</g>
		<g>
			<g class="st13">
				<path class="st15" d="M889,215.4h1.9v-6.1h-1.6v-0.9c0.8-0.2,1.4-0.4,1.9-0.7h1v7.7h1.7v1.1h-5V215.4z"/>
				<path class="st15" d="M895.3,215.7c2.6-2.3,3.9-4,3.9-5.5c0-1-0.5-1.6-1.5-1.6c-0.7,0-1.3,0.4-1.7,1l-0.8-0.8
					c0.8-0.8,1.5-1.3,2.7-1.3c1.6,0,2.7,1.1,2.7,2.7c0,1.7-1.4,3.5-3.2,5.3c0.5,0,1-0.1,1.4-0.1h2.2v1.2h-5.7V215.7z"/>
				<path class="st15" d="M902.2,212.1c0-3.1,1.1-4.5,2.9-4.5c1.7,0,2.9,1.5,2.9,4.5c0,3.1-1.1,4.6-2.9,4.6
					C903.3,216.7,902.2,215.1,902.2,212.1z M906.6,212.1c0-2.5-0.6-3.5-1.5-3.5c-0.9,0-1.5,0.9-1.5,3.5c0,2.6,0.6,3.5,1.5,3.5
					C906,215.6,906.6,214.6,906.6,212.1z"/>
			</g>
		</g>
		<g>
			<g class="st13">
				<path class="st15" d="M889,279.9h1.9v-6.1h-1.6v-0.9c0.8-0.2,1.4-0.4,1.9-0.7h1v7.7h1.7v1.1h-5V279.9z"/>
				<path class="st15" d="M895.8,279.9h1.9v-6.1h-1.6v-0.9c0.8-0.2,1.4-0.4,1.9-0.7h1v7.7h1.7v1.1h-5V279.9z"/>
				<path class="st15" d="M902.2,276.6c0-3.1,1.1-4.5,2.9-4.5c1.7,0,2.9,1.5,2.9,4.5c0,3.1-1.1,4.6-2.9,4.6
					C903.3,281.2,902.2,279.6,902.2,276.6z M906.6,276.6c0-2.5-0.6-3.5-1.5-3.5c-0.9,0-1.5,0.9-1.5,3.5c0,2.6,0.6,3.5,1.5,3.5
					C906,280.1,906.6,279.1,906.6,276.6z"/>
			</g>
		</g>
		<g>
			<g class="st13">
				<path class="st15" d="M889,344.4h1.9v-6.1h-1.6v-0.9c0.8-0.2,1.4-0.4,1.9-0.7h1v7.7h1.7v1.1h-5V344.4z"/>
				<path class="st15" d="M895.4,341.1c0-3.1,1.1-4.5,2.9-4.5c1.7,0,2.9,1.5,2.9,4.5c0,3.1-1.1,4.6-2.9,4.6
					C896.5,345.7,895.4,344.1,895.4,341.1z M899.8,341.1c0-2.5-0.6-3.5-1.5-3.5c-0.9,0-1.5,0.9-1.5,3.5c0,2.6,0.6,3.5,1.5,3.5
					C899.1,344.6,899.8,343.6,899.8,341.1z"/>
				<path class="st15" d="M902.2,341.1c0-3.1,1.1-4.5,2.9-4.5c1.7,0,2.9,1.5,2.9,4.5c0,3.1-1.1,4.6-2.9,4.6
					C903.3,345.7,902.2,344.1,902.2,341.1z M906.6,341.1c0-2.5-0.6-3.5-1.5-3.5c-0.9,0-1.5,0.9-1.5,3.5c0,2.6,0.6,3.5,1.5,3.5
					C906,344.6,906.6,343.6,906.6,341.1z"/>
			</g>
		</g>
	</g>
	<polygon class="st2" points="950.3,47.5 893.6,47.5 886.8,39.3 893.6,31.2 950.3,31.2 	"/>
	<g>
		<g class="st13">
			<path class="st0" d="M896.5,42.4h1.9v-6.1h-1.6v-0.9c0.8-0.2,1.4-0.4,1.9-0.7h1v7.7h1.7v1.1h-5V42.4z"/>
			<path class="st0" d="M908.8,41.1h-1.1v2.4h-1.3v-2.4h-3.8v-0.9l3.5-5.5h1.6v5.4h1.1V41.1z M906.4,40.1v-2.3c0-0.5,0-1.2,0.1-1.7
				h0c-0.2,0.4-0.5,0.9-0.7,1.4l-1.7,2.7H906.4z"/>
			<path class="st0" d="M914.6,36.3c-0.3-0.4-0.9-0.7-1.4-0.7c-1.1,0-2.1,0.9-2.1,3.4c0.5-0.6,1.3-1,1.9-1c1.5,0,2.5,0.9,2.5,2.8
				c0,1.8-1.2,2.9-2.6,2.9c-1.7,0-3-1.4-3-4.4c0-3.4,1.6-4.7,3.3-4.7c1,0,1.7,0.4,2.2,0.9L914.6,36.3z M914.2,40.8
				c0-1.1-0.5-1.8-1.5-1.8c-0.5,0-1.1,0.3-1.6,1c0.1,1.8,0.8,2.6,1.7,2.6C913.6,42.6,914.2,41.9,914.2,40.8z"/>
			<path class="st0" d="M916.9,42.7c0-0.6,0.4-1,0.9-1s0.9,0.4,0.9,1s-0.4,1-0.9,1S916.9,43.3,916.9,42.7z"/>
			<path class="st0" d="M920.1,41.3c0-1.2,0.8-1.9,1.6-2.4v-0.1c-0.7-0.5-1.2-1.1-1.2-2.1c0-1.4,1.1-2.3,2.5-2.3
				c1.5,0,2.5,1,2.5,2.3c0,0.9-0.6,1.7-1.2,2.1V39c0.8,0.5,1.5,1.1,1.5,2.3c0,1.3-1.2,2.3-2.9,2.3C921.3,43.7,920.1,42.7,920.1,41.3
				z M924.5,41.3c0-1.1-1-1.5-2.2-2c-0.6,0.4-1,1.1-1,1.8c0,0.9,0.7,1.5,1.7,1.5C923.9,42.7,924.5,42.1,924.5,41.3z M924.4,37
				c0-0.8-0.5-1.4-1.4-1.4c-0.7,0-1.3,0.5-1.3,1.3c0,1,0.8,1.4,1.8,1.8C924.1,38.1,924.4,37.5,924.4,37z"/>
			<path class="st0" d="M927.8,41.9c0.3,0.4,0.9,0.7,1.5,0.7c1.1,0,2-0.9,2.1-3.4c-0.5,0.6-1.3,1-1.9,1c-1.5,0-2.5-0.9-2.5-2.8
				c0-1.8,1.2-2.9,2.6-2.9c1.7,0,3.1,1.4,3.1,4.3c0,3.5-1.6,4.9-3.3,4.9c-1,0-1.7-0.4-2.3-0.9L927.8,41.9z M931.3,38.1
				c-0.1-1.7-0.8-2.5-1.8-2.5c-0.8,0-1.4,0.7-1.4,1.8c0,1.1,0.5,1.8,1.4,1.8C930.2,39.2,930.8,38.9,931.3,38.1z"/>
			<path class="st0" d="M938,35.8h-4.2v-1.2h5.7v0.8c-2.1,2.6-2.4,4.5-2.5,8h-1.4C935.7,40.3,936.3,38.2,938,35.8z"/>
			<path class="st0" d="M940.6,42.7c2.6-2.3,3.9-4,3.9-5.5c0-1-0.5-1.6-1.5-1.6c-0.7,0-1.3,0.4-1.7,1l-0.8-0.8
				c0.8-0.8,1.5-1.3,2.7-1.3c1.6,0,2.7,1.1,2.7,2.7c0,1.7-1.4,3.5-3.2,5.3c0.5,0,1-0.1,1.4-0.1h2.2v1.2h-5.7V42.7z"/>
		</g>
	</g>
	<polygon class="st3" points="950.3,230.5 893.6,230.5 886.8,222.3 893.6,214.2 950.3,214.2 	"/>
	<g>
		<g class="st13">
			<path class="st0" d="M896.5,225.4h1.9v-6.1h-1.6v-0.9c0.8-0.2,1.4-0.4,1.9-0.7h1v7.7h1.7v1.1h-5V225.4z"/>
			<path class="st0" d="M903.3,225.4h1.9v-6.1h-1.6v-0.9c0.8-0.2,1.4-0.4,1.9-0.7h1v7.7h1.7v1.1h-5V225.4z"/>
			<path class="st0" d="M909.7,224.3c0-1.2,0.8-1.9,1.6-2.4v-0.1c-0.7-0.5-1.2-1.1-1.2-2.1c0-1.4,1.1-2.3,2.5-2.3
				c1.5,0,2.5,1,2.5,2.3c0,0.9-0.6,1.7-1.2,2.1v0.1c0.8,0.5,1.5,1.1,1.5,2.3c0,1.3-1.2,2.3-2.9,2.3
				C910.9,226.7,909.7,225.7,909.7,224.3z M914.1,224.3c0-1.1-1-1.5-2.2-2c-0.6,0.4-1,1.1-1,1.8c0,0.9,0.7,1.5,1.7,1.5
				C913.5,225.7,914.1,225.1,914.1,224.3z M913.9,220c0-0.8-0.5-1.4-1.4-1.4c-0.7,0-1.3,0.5-1.3,1.3c0,1,0.8,1.4,1.8,1.8
				C913.7,221.1,913.9,220.5,913.9,220z"/>
			<path class="st0" d="M916.9,225.7c0-0.6,0.4-1,0.9-1s0.9,0.4,0.9,1s-0.4,1-0.9,1S916.9,226.3,916.9,225.7z"/>
			<path class="st0" d="M919.9,225.5l0.7-0.9c0.5,0.5,1.1,0.9,2.1,0.9c1,0,1.8-0.7,1.8-1.9c0-1.2-0.7-1.8-1.7-1.8
				c-0.6,0-0.9,0.2-1.4,0.5l-0.7-0.4l0.3-4.2h4.5v1.2h-3.3l-0.2,2.3c0.4-0.2,0.7-0.3,1.2-0.3c1.5,0,2.7,0.9,2.7,2.8
				c0,2-1.4,3.1-3,3.1C921.4,226.7,920.5,226.1,919.9,225.5z"/>
			<path class="st0" d="M926.7,225.5l0.7-0.9c0.5,0.5,1.1,0.9,2.1,0.9c1,0,1.8-0.7,1.8-1.9c0-1.2-0.7-1.8-1.7-1.8
				c-0.6,0-0.9,0.2-1.4,0.5l-0.7-0.4l0.3-4.2h4.5v1.2h-3.3l-0.2,2.3c0.4-0.2,0.7-0.3,1.2-0.3c1.5,0,2.7,0.9,2.7,2.8
				c0,2-1.4,3.1-3,3.1C928.2,226.7,927.4,226.1,926.7,225.5z"/>
			<path class="st0" d="M933.6,225.4l0.7-0.9c0.5,0.5,1.2,1,2.1,1c1,0,1.7-0.6,1.7-1.5c0-1-0.6-1.6-2.6-1.6v-1
				c1.7,0,2.3-0.7,2.3-1.5c0-0.8-0.5-1.3-1.4-1.3c-0.7,0-1.3,0.3-1.8,0.8l-0.7-0.9c0.7-0.6,1.5-1.1,2.5-1.1c1.6,0,2.7,0.8,2.7,2.3
				c0,1-0.6,1.7-1.5,2.1v0.1c1,0.3,1.8,1,1.8,2.2c0,1.6-1.3,2.5-3,2.5C935.1,226.7,934.2,226.1,933.6,225.4z"/>
			<path class="st0" d="M944.8,218.8h-4.2v-1.2h5.7v0.8c-2.1,2.6-2.4,4.5-2.5,8h-1.4C942.6,223.3,943.1,221.2,944.8,218.8z"/>
		</g>
	</g>
	<g>
		<g>
			<g class="st13">
				<path class="st15" d="M830.1,386c0-1.2,0.8-1.9,1.6-2.4v-0.1c-0.7-0.5-1.2-1.1-1.2-2.1c0-1.4,1.1-2.3,2.5-2.3
					c1.5,0,2.5,1,2.5,2.3c0,0.9-0.6,1.7-1.2,2.1v0.1c0.8,0.5,1.5,1.1,1.5,2.3c0,1.3-1.2,2.3-2.9,2.3
					C831.3,388.3,830.1,387.3,830.1,386z M834.5,386c0-1.1-1-1.5-2.2-2c-0.6,0.4-1,1.1-1,1.8c0,0.9,0.7,1.5,1.7,1.5
					C833.9,387.3,834.5,386.8,834.5,386z M834.3,381.6c0-0.8-0.5-1.4-1.4-1.4c-0.7,0-1.3,0.5-1.3,1.3c0,1,0.8,1.4,1.8,1.8
					C834.1,382.8,834.3,382.2,834.3,381.6z"/>
				<path class="st15" d="M846.3,387.6c0,0.7-0.2,1.1-0.7,1.2c-0.5,0.2-1.3,0.2-2.6,0.2c-0.1-0.3-0.3-0.9-0.5-1.2c0.9,0,1.9,0,2.2,0
					c0.3,0,0.4-0.1,0.4-0.3v-2.1h-5.4c-0.3,1.3-0.9,2.7-2.1,3.6c-0.2-0.2-0.6-0.6-0.9-0.8c1.9-1.6,2.1-4,2.1-5.8v-3.8h7.5V387.6z
					 M845.1,384.4v-1.8H840c0,0.6,0,1.2-0.1,1.8H845.1z M840,379.8v1.8h5.2v-1.8H840z"/>
			</g>
		</g>
		<g>
			<g class="st13">
				<path class="st15" d="M751.4,380.5h-4.2v-1.2h5.7v0.8c-2.1,2.6-2.4,4.5-2.5,8h-1.4C749.1,384.9,749.7,382.9,751.4,380.5z"/>
				<path class="st15" d="M763.3,387.6c0,0.7-0.2,1.1-0.7,1.2c-0.5,0.2-1.3,0.2-2.6,0.2c-0.1-0.3-0.3-0.9-0.5-1.2c0.9,0,1.9,0,2.2,0
					c0.3,0,0.4-0.1,0.4-0.3v-2.1h-5.4c-0.3,1.3-0.9,2.7-2.1,3.6c-0.2-0.2-0.6-0.6-0.9-0.8c1.9-1.6,2.1-4,2.1-5.8v-3.8h7.5V387.6z
					 M762.2,384.4v-1.8H757c0,0.6,0,1.2-0.1,1.8H762.2z M757,379.8v1.8h5.2v-1.8H757z"/>
			</g>
		</g>
		<g>
			<g class="st13">
				<path class="st15" d="M671.1,381c-0.3-0.4-0.9-0.7-1.4-0.7c-1.1,0-2.1,0.9-2.1,3.4c0.5-0.6,1.3-1,1.9-1c1.5,0,2.5,0.9,2.5,2.8
					c0,1.8-1.2,2.9-2.6,2.9c-1.7,0-3-1.4-3-4.4c0-3.4,1.6-4.7,3.3-4.7c1,0,1.7,0.4,2.2,0.9L671.1,381z M670.7,385.4
					c0-1.1-0.5-1.8-1.5-1.8c-0.5,0-1.1,0.3-1.6,1c0.1,1.8,0.8,2.6,1.7,2.6C670.1,387.3,670.7,386.6,670.7,385.4z"/>
				<path class="st15" d="M682.4,387.6c0,0.7-0.2,1.1-0.7,1.2c-0.5,0.2-1.3,0.2-2.6,0.2c-0.1-0.3-0.3-0.9-0.5-1.2c0.9,0,1.9,0,2.2,0
					c0.3,0,0.4-0.1,0.4-0.3v-2.1h-5.4c-0.3,1.3-0.9,2.7-2.1,3.6c-0.2-0.2-0.6-0.6-0.9-0.8c1.9-1.6,2.1-4,2.1-5.8v-3.8h7.5V387.6z
					 M681.2,384.4v-1.8h-5.2c0,0.6,0,1.2-0.1,1.8H681.2z M676.1,379.8v1.8h5.2v-1.8H676.1z"/>
			</g>
		</g>
		<g>
			<g class="st13">
				<path class="st15" d="M584.1,387.1l0.7-0.9c0.5,0.5,1.1,0.9,2.1,0.9c1,0,1.8-0.7,1.8-1.9s-0.7-1.8-1.7-1.8
					c-0.6,0-0.9,0.2-1.4,0.5l-0.7-0.4l0.3-4.2h4.5v1.2h-3.3l-0.2,2.3c0.4-0.2,0.7-0.3,1.2-0.3c1.5,0,2.7,0.9,2.7,2.8
					c0,2-1.4,3.1-3,3.1C585.6,388.3,584.7,387.8,584.1,387.1z"/>
				<path class="st15" d="M600.5,387.6c0,0.7-0.2,1.1-0.7,1.2c-0.5,0.2-1.3,0.2-2.6,0.2c-0.1-0.3-0.3-0.9-0.5-1.2c0.9,0,1.9,0,2.2,0
					c0.3,0,0.4-0.1,0.4-0.3v-2.1h-5.4c-0.3,1.3-0.9,2.7-2.1,3.6c-0.2-0.2-0.6-0.6-0.9-0.8c1.9-1.6,2.1-4,2.1-5.8v-3.8h7.5V387.6z
					 M599.3,384.4v-1.8h-5.2c0,0.6,0,1.2-0.1,1.8H599.3z M594.2,379.8v1.8h5.2v-1.8H594.2z"/>
			</g>
		</g>
		<g>
			<g class="st13">
				<path class="st15" d="M508.3,385.8h-1.1v2.4h-1.3v-2.4h-3.8v-0.9l3.5-5.5h1.6v5.4h1.1V385.8z M505.9,384.7v-2.3
					c0-0.5,0-1.2,0.1-1.7h0c-0.2,0.4-0.5,0.9-0.7,1.4l-1.7,2.7H505.9z"/>
				<path class="st15" d="M518.6,387.6c0,0.7-0.2,1.1-0.7,1.2c-0.5,0.2-1.3,0.2-2.6,0.2c-0.1-0.3-0.3-0.9-0.5-1.2c0.9,0,1.9,0,2.2,0
					c0.3,0,0.4-0.1,0.4-0.3v-2.1h-5.4c-0.3,1.3-0.9,2.7-2.1,3.6c-0.2-0.2-0.6-0.6-0.9-0.8c1.9-1.6,2.1-4,2.1-5.8v-3.8h7.5V387.6z
					 M517.4,384.4v-1.8h-5.2c0,0.6,0,1.2-0.1,1.8H517.4z M512.2,379.8v1.8h5.2v-1.8H512.2z"/>
			</g>
		</g>
		<g>
			<g class="st13">
				<path class="st15" d="M422.2,387.1l0.7-0.9c0.5,0.5,1.2,1,2.1,1c1,0,1.7-0.6,1.7-1.5c0-1-0.6-1.6-2.6-1.6v-1
					c1.7,0,2.3-0.7,2.3-1.5c0-0.8-0.5-1.3-1.4-1.3c-0.7,0-1.3,0.3-1.8,0.8l-0.7-0.9c0.7-0.6,1.5-1.1,2.5-1.1c1.6,0,2.7,0.8,2.7,2.3
					c0,1-0.6,1.7-1.5,2.1v0.1c1,0.2,1.8,1,1.8,2.2c0,1.6-1.3,2.5-3,2.5C423.7,388.3,422.8,387.8,422.2,387.1z"/>
				<path class="st15" d="M438.6,387.6c0,0.7-0.2,1.1-0.7,1.2c-0.5,0.2-1.3,0.2-2.6,0.2c-0.1-0.3-0.3-0.9-0.5-1.2c0.9,0,1.9,0,2.2,0
					c0.3,0,0.4-0.1,0.4-0.3v-2.1H432c-0.3,1.3-0.9,2.7-2.1,3.6c-0.2-0.2-0.6-0.6-0.9-0.8c1.9-1.6,2.1-4,2.1-5.8v-3.8h7.5V387.6z
					 M437.4,384.4v-1.8h-5.2c0,0.6,0,1.2-0.1,1.8H437.4z M432.3,379.8v1.8h5.2v-1.8H432.3z"/>
			</g>
		</g>
		<g>
			<g class="st13">
				<path class="st15" d="M345.5,387.4c2.6-2.3,3.9-4,3.9-5.5c0-1-0.5-1.6-1.5-1.6c-0.7,0-1.3,0.4-1.7,1l-0.8-0.8
					c0.8-0.8,1.5-1.3,2.7-1.3c1.6,0,2.7,1.1,2.7,2.7c0,1.7-1.4,3.5-3.2,5.3c0.5,0,1-0.1,1.4-0.1h2.2v1.2h-5.7V387.4z"/>
				<path class="st15" d="M361.7,387.6c0,0.7-0.2,1.1-0.7,1.2c-0.5,0.2-1.3,0.2-2.6,0.2c-0.1-0.3-0.3-0.9-0.5-1.2c0.9,0,1.9,0,2.2,0
					c0.3,0,0.4-0.1,0.4-0.3v-2.1h-5.4c-0.3,1.3-0.9,2.7-2.1,3.6c-0.2-0.2-0.6-0.6-0.9-0.8c1.9-1.6,2.1-4,2.1-5.8v-3.8h7.5V387.6z
					 M360.5,384.4v-1.8h-5.2c0,0.6,0,1.2-0.1,1.8H360.5z M355.4,379.8v1.8h5.2v-1.8H355.4z"/>
			</g>
		</g>
		<g>
			<g class="st13">
				<path class="st15" d="M270,387h1.9v-6.1h-1.6V380c0.8-0.2,1.4-0.4,1.9-0.7h1v7.7h1.7v1.1h-5V387z"/>
				<path class="st15" d="M285.8,387.6c0,0.7-0.2,1.1-0.7,1.2c-0.5,0.2-1.3,0.2-2.6,0.2c-0.1-0.3-0.3-0.9-0.5-1.2c0.9,0,1.9,0,2.2,0
					c0.3,0,0.4-0.1,0.4-0.3v-2.1h-5.4c-0.3,1.3-0.9,2.7-2.1,3.6c-0.2-0.2-0.6-0.6-0.9-0.8c1.9-1.6,2.1-4,2.1-5.8v-3.8h7.5V387.6z
					 M284.6,384.4v-1.8h-5.2c0,0.6,0,1.2-0.1,1.8H284.6z M279.4,379.8v1.8h5.2v-1.8H279.4z"/>
			</g>
		</g>
		<g>
			<g class="st13">
				<path class="st15" d="M187.7,387h1.9v-6.1H188V380c0.8-0.2,1.4-0.4,1.9-0.7h1v7.7h1.7v1.1h-5V387z"/>
				<path class="st15" d="M194,387.4c2.6-2.3,3.9-4,3.9-5.5c0-1-0.5-1.6-1.5-1.6c-0.7,0-1.3,0.4-1.7,1l-0.8-0.8
					c0.8-0.8,1.5-1.3,2.7-1.3c1.6,0,2.7,1.1,2.7,2.7c0,1.7-1.4,3.5-3.2,5.3c0.5,0,1-0.1,1.4-0.1h2.2v1.2H194V387.4z"/>
				<path class="st15" d="M210.2,387.6c0,0.7-0.2,1.1-0.7,1.2c-0.5,0.2-1.3,0.2-2.6,0.2c-0.1-0.3-0.3-0.9-0.5-1.2c0.9,0,1.9,0,2.2,0
					c0.3,0,0.4-0.1,0.4-0.3v-2.1h-5.4c-0.3,1.3-0.9,2.7-2.1,3.6c-0.2-0.2-0.6-0.6-0.9-0.8c1.9-1.6,2.1-4,2.1-5.8v-3.8h7.5V387.6z
					 M209.1,384.4v-1.8h-5.2c0,0.6,0,1.2-0.1,1.8H209.1z M203.9,379.8v1.8h5.2v-1.8H203.9z"/>
			</g>
		</g>
		<g>
			<g class="st13">
				<path class="st15" d="M107.8,387h1.9v-6.1h-1.6V380c0.8-0.2,1.4-0.4,1.9-0.7h1v7.7h1.7v1.1h-5V387z"/>
				<path class="st15" d="M114.6,387h1.9v-6.1h-1.6V380c0.8-0.2,1.4-0.4,1.9-0.7h1v7.7h1.7v1.1h-5V387z"/>
				<path class="st15" d="M130.3,387.6c0,0.7-0.2,1.1-0.7,1.2c-0.5,0.2-1.3,0.2-2.6,0.2c-0.1-0.3-0.3-0.9-0.5-1.2c0.9,0,1.9,0,2.2,0
					c0.3,0,0.4-0.1,0.4-0.3v-2.1h-5.4c-0.3,1.3-0.9,2.7-2.1,3.6c-0.2-0.2-0.6-0.6-0.9-0.8c1.9-1.6,2.1-4,2.1-5.8v-3.8h7.5V387.6z
					 M129.1,384.4v-1.8H124c0,0.6,0,1.2-0.1,1.8H129.1z M124,379.8v1.8h5.2v-1.8H124z"/>
			</g>
		</g>
		<g>
			<g class="st13">
				<path class="st15" d="M27.8,387h1.9v-6.1h-1.6V380c0.8-0.2,1.4-0.4,1.9-0.7h1v7.7h1.7v1.1h-5V387z"/>
				<path class="st15" d="M34.2,383.7c0-3.1,1.1-4.5,2.9-4.5c1.7,0,2.9,1.5,2.9,4.5c0,3.1-1.1,4.6-2.9,4.6
					C35.3,388.3,34.2,386.8,34.2,383.7z M38.6,383.7c0-2.5-0.6-3.5-1.5-3.5s-1.5,0.9-1.5,3.5c0,2.6,0.6,3.5,1.5,3.5
					S38.6,386.3,38.6,383.7z"/>
				<path class="st15" d="M50.4,387.6c0,0.7-0.2,1.1-0.7,1.2c-0.5,0.2-1.3,0.2-2.6,0.2c-0.1-0.3-0.3-0.9-0.5-1.2c0.9,0,1.9,0,2.2,0
					c0.3,0,0.4-0.1,0.4-0.3v-2.1h-5.4c-0.3,1.3-0.9,2.7-2.1,3.6c-0.2-0.2-0.6-0.6-0.9-0.8c1.9-1.6,2.1-4,2.1-5.8v-3.8h7.5V387.6z
					 M49.2,384.4v-1.8H44c0,0.6,0,1.2-0.1,1.8H49.2z M44,379.8v1.8h5.2v-1.8H44z"/>
			</g>
		</g>
	</g>
	<line class="st4" x1="0.3" y1="375.5" x2="883.8" y2="375.5"/>
	<g class="st5">
		<g>
			<g>
				<line class="st4" x1="0.3" y1="341" x2="2.3" y2="341"/>
				<line class="st6" x1="6.3" y1="341" x2="879.8" y2="341"/>
				<line class="st4" x1="881.8" y1="341" x2="883.8" y2="341"/>
			</g>
		</g>
		<g>
			<g>
				<line class="st4" x1="0.3" y1="276.6" x2="2.3" y2="276.6"/>
				<line class="st6" x1="6.3" y1="276.6" x2="879.8" y2="276.6"/>
				<line class="st4" x1="881.8" y1="276.6" x2="883.8" y2="276.6"/>
			</g>
		</g>
		<g>
			<g>
				<line class="st4" x1="0.3" y1="212.2" x2="2.3" y2="212.2"/>
				<line class="st6" x1="6.3" y1="212.2" x2="879.8" y2="212.2"/>
				<line class="st4" x1="881.8" y1="212.2" x2="883.8" y2="212.2"/>
			</g>
		</g>
		<g>
			<g>
				<line class="st4" x1="0.3" y1="147.8" x2="2.3" y2="147.8"/>
				<line class="st6" x1="6.3" y1="147.8" x2="879.8" y2="147.8"/>
				<line class="st4" x1="881.8" y1="147.8" x2="883.8" y2="147.8"/>
			</g>
		</g>
		<g>
			<g>
				<line class="st4" x1="0.3" y1="83.4" x2="2.3" y2="83.4"/>
				<line class="st6" x1="6.3" y1="83.4" x2="879.8" y2="83.4"/>
				<line class="st4" x1="881.8" y1="83.4" x2="883.8" y2="83.4"/>
			</g>
		</g>
		<g>
			<g>
				<line class="st4" x1="0.3" y1="19" x2="2.3" y2="19"/>
				<line class="st6" x1="6.3" y1="19" x2="879.8" y2="19"/>
				<line class="st4" x1="881.8" y1="19" x2="883.8" y2="19"/>
			</g>
		</g>
	</g>
	<line class="st7" x1="883.8" y1="0" x2="883.8" y2="375.5"/>
	<g>
		<polygon class="st8" points="884.3,341.1 884.3,339.6 886.1,340.3 888,341.1 886.1,341.8 884.3,342.6 		"/>
		<polygon class="st8" points="884.3,276.7 884.3,275.1 886.1,275.9 888,276.7 886.1,277.4 884.3,278.2 		"/>
		<polygon class="st8" points="884.3,212.3 884.3,210.7 886.1,211.5 888,212.3 886.1,213 884.3,213.8 		"/>
		<polygon class="st8" points="884.3,147.8 884.3,146.3 886.1,147.1 888,147.8 886.1,148.6 884.3,149.4 		"/>
		<polygon class="st8" points="884.3,83.4 884.3,81.9 886.1,82.7 888,83.4 886.1,84.2 884.3,84.9 		"/>
		<polygon class="st8" points="884.3,19 884.3,17.5 886.1,18.2 888,19 886.1,19.8 884.3,20.5 		"/>
	</g>
	<line class="st7" x1="884.3" y1="51.2" x2="886.7" y2="51.2"/>
	<line class="st7" x1="884.3" y1="115.3" x2="886.7" y2="115.3"/>
	<line class="st7" x1="884.3" y1="180.4" x2="886.7" y2="180.4"/>
	<line class="st7" x1="884.3" y1="244.7" x2="886.7" y2="244.7"/>
	<line class="st7" x1="884.3" y1="309" x2="886.7" y2="309"/>
	<line class="st7" x1="884.3" y1="373.6" x2="886.7" y2="373.6"/>
	<g class="st5">
		<line class="st9" x1="0.8" y1="0" x2="0.8" y2="379"/>
		<line class="st9" x1="80.7" y1="0" x2="80.7" y2="379"/>
		<line class="st9" x1="161.1" y1="0" x2="161.1" y2="379"/>
		<line class="st9" x1="237.5" y1="0" x2="237.5" y2="379"/>
		<line class="st9" x1="317.9" y1="0" x2="317.9" y2="379"/>
		<line class="st9" x1="390.3" y1="0" x2="390.3" y2="379"/>
		<line class="st9" x1="470.7" y1="0" x2="470.7" y2="379"/>
		<line class="st9" x1="551.1" y1="0" x2="551.1" y2="379"/>
		<line class="st9" x1="635.5" y1="0" x2="635.5" y2="379"/>
		<line class="st9" x1="715.9" y1="0" x2="715.9" y2="379"/>
		<line class="st9" x1="795.3" y1="0" x2="795.3" y2="379"/>
	</g>
	<g>
		<g>
			<g class="st13">
				<path class="st15" d="M105.9,403c2.4-2.2,3.8-3.8,3.8-5.2c0-0.9-0.5-1.4-1.3-1.4c-0.6,0-1.2,0.4-1.6,0.9l-1-1
					c0.8-0.9,1.6-1.3,2.8-1.3c1.7,0,2.8,1.1,2.8,2.7c0,1.6-1.3,3.3-3,4.9c0.4,0,1-0.1,1.4-0.1h1.9v1.5h-5.9V403z"/>
				<path class="st15" d="M113,399.5c0-3.1,1.2-4.6,3-4.6c1.8,0,3,1.5,3,4.6s-1.2,4.6-3,4.6C114.2,404.2,113,402.6,113,399.5z
					 M117.4,399.5c0-2.5-0.6-3.2-1.3-3.2c-0.8,0-1.3,0.7-1.3,3.2c0,2.5,0.6,3.3,1.3,3.3C116.8,402.8,117.4,402,117.4,399.5z"/>
				<path class="st15" d="M120.6,402.6h1.9V397h-1.6v-1.1c0.9-0.2,1.5-0.4,2.1-0.7h1.3v7.4h1.7v1.4h-5.3V402.6z"/>
				<path class="st15" d="M131.2,396.6h-4v-1.5h5.9v1.1c-2.1,2.5-2.3,4.3-2.5,7.8h-1.8C129,400.9,129.5,399,131.2,396.6z"/>
			</g>
		</g>
		<g>
			<g class="st13">
				<path class="st15" d="M547.9,403c2.4-2.2,3.8-3.8,3.8-5.2c0-0.9-0.5-1.4-1.3-1.4c-0.6,0-1.2,0.4-1.6,0.9l-1-1
					c0.8-0.9,1.6-1.3,2.8-1.3c1.7,0,2.8,1.1,2.8,2.7c0,1.6-1.3,3.3-3,4.9c0.4,0,1-0.1,1.4-0.1h1.9v1.5h-5.9V403z"/>
				<path class="st15" d="M555,399.5c0-3.1,1.2-4.6,3-4.6c1.8,0,3,1.5,3,4.6s-1.2,4.6-3,4.6C556.2,404.2,555,402.6,555,399.5z
					 M559.4,399.5c0-2.5-0.6-3.2-1.3-3.2c-0.8,0-1.3,0.7-1.3,3.2c0,2.5,0.6,3.3,1.3,3.3C558.8,402.8,559.4,402,559.4,399.5z"/>
				<path class="st15" d="M562.6,402.6h1.9V397h-1.6v-1.1c0.9-0.2,1.5-0.4,2.1-0.7h1.3v7.4h1.7v1.4h-5.3V402.6z"/>
				<path class="st15" d="M569.2,401.8c0-1.1,0.7-1.9,1.5-2.3v-0.1c-0.7-0.5-1.2-1.2-1.2-2.1c0-1.4,1.1-2.3,2.7-2.3
					c1.6,0,2.6,0.9,2.6,2.4c0,0.9-0.6,1.6-1.1,2v0.1c0.8,0.4,1.5,1.2,1.5,2.4c0,1.3-1.2,2.4-3,2.4
					C570.5,404.2,569.2,403.2,569.2,401.8z M573.5,401.7c0-0.9-0.8-1.3-2-1.8c-0.5,0.4-0.8,1-0.8,1.6c0,0.8,0.7,1.3,1.5,1.3
					C573,402.9,573.5,402.5,573.5,401.7z M573.4,397.4c0-0.7-0.4-1.2-1.2-1.2c-0.6,0-1.1,0.4-1.1,1.1c0,0.8,0.7,1.2,1.6,1.6
					C573.2,398.5,573.4,398,573.4,397.4z"/>
			</g>
		</g>
	</g>
	<line class="st10" x1="237.5" y1="392.5" x2="237.5" y2="407.5"/>
	<polyline class="st11" points="0.8,341 4.6,344.1 8.7,341 12.5,329.4 15.5,329.4 19.8,326.3 25,326.3 28.1,325 30.5,320 
		37.5,315.5 45.6,315.5 50.6,312.8 54.8,304.5 61.5,304.5 66.3,306.3 69.8,304.5 72.8,261.8 76.8,260.8 80.7,267.3 85.3,267.3 
		89,259.3 92.8,259.3 96.1,255.8 100,257.7 103.8,255.8 111.3,261.2 115.8,261.2 119.6,259.3 123,269.5 126.6,267.3 130.5,273.2 
		134.5,273.2 138.6,262.3 142.5,267.7 146.3,266.2 153.6,253.2 157.5,265.5 161.1,258.3 165.5,257.8 168.8,284.8 173,280 
		176.3,270.3 180.3,273.2 187.3,250.5 192.3,246.7 196.3,249.2 199.5,253.3 203.5,235.7 215.3,247.3 226.6,247.3 230.1,245.5 
		234.3,245.5 237.5,246.8 244.5,240.5 249.8,231.5 253.1,223.8 257.1,223.2 260.3,224 264.3,226.5 269,224.3 272,212.2 276.5,222.5 
		279.8,206.5 287.1,207.8 291,194 295.5,191.5 299,192.8 303.5,186.8 306.3,173 310,174.5 314.1,184.5 317.9,165.7 322.5,173 
		329.5,226.5 333.1,196.7 337.3,212.2 340.6,251.5 344.8,224 357,200.8 359.8,185.2 364,190.3 367.6,184.5 371.5,195.3 375.5,193.2 
		378.5,174.8 383.3,161.8 386.1,171.7 390.3,176 394.8,183.8 398.8,181.5 402.3,176.3 406.3,179.2 413.8,169.3 417.1,152 
		420.8,149.8 425,170.5 429,174.7 436.5,168.5 440.3,182.8 443.6,180.8 448.1,186.7 455.5,232.2 459.3,175.8 463,212.2 466,213.8 
		470.7,197.7 474.5,220.2 480.1,204 482.1,187.8 486,188 489.6,206 494.1,201.7 497.5,183.3 501.5,191.8 505.5,176.5 509.3,181.3 
		513.6,169.7 516,155.7 520.1,153 524.5,156.3 528.1,164.7 532.1,162.2 535.6,181.3 540.3,188.3 542.5,173.3 547.1,158.5 
		551.1,178.3 555,166 558.8,177 563.1,173 570,154.3 573.6,158 578,147.8 581.8,140.2 585.3,141.7 589.1,139.2 593.2,145 
		596.3,146.2 600.6,154.8 604.6,152 608.3,142.8 612.1,143.5 616.6,133.5 620.5,137 623,136.2 627.1,139.2 631.3,131 635.5,131 
		639.8,113.3 644.5,104.5 650.3,100 654.3,113.8 658.1,107.8 661.6,112.8 665.6,110.5 669.1,114.2 673.8,109.3 677.1,121 680.6,115 
		684.6,115 688.6,106.2 697.1,120 700.5,135 704,130.3 707.6,143.5 711.6,133.7 715.9,133.5 719.1,121.8 723.3,129.5 727.8,121.8 
		731.1,110.2 738,103.2 742,103.8 745.1,87.5 749.8,75.3 753.5,79 757.6,71 765,83.4 773,52.5 776.5,55.3 779.8,28 791.8,76 
		795.3,69.8 800.1,67 802.6,57.7 807,52.3 810.5,51.2 818,39.3 821.8,38.3 830.3,51.2 833.6,39.3 837.5,54.8 845.1,56.7 853,70 
		857.1,60.8 862.5,52.7 868.3,39.3 	"/>
	<polyline class="st12" points="0.7,340.5 10,337.2 12.3,337.2 27.7,321.4 31.5,322.9 39.5,315.5 42.8,316.3 45.9,313.6 50.2,315.3 
		62.5,304.5 66.3,312.3 69.3,308.8 72.7,295 77.1,293.4 80.5,288.2 84.9,290.1 88.2,287.5 95.6,264.9 100.7,265.8 104.3,263.4 
		108.2,277.3 111.4,273.2 116.1,270.8 119.9,273 122.5,277.8 126.4,266 130.5,270.6 138.5,253.6 142.5,258.3 146.4,251.5 
		150.7,261.7 154.6,262.4 157.7,292.6 161.2,289.2 166.3,298.9 169.5,314.2 175,312.7 180.8,304.2 184,308.1 188.3,304.2 
		192.3,311.5 199.1,311.5 205.2,294.2 206.4,286.8 211.1,287.3 215.1,283 218.8,290.7 222.9,291.6 226.2,296.8 234.2,292.6 
		237.4,299.9 239.6,289.7 244.9,270.2 256.7,255.1 264.9,270.8 270.9,263.7 275.5,260.9 278.8,239.6 283.3,236 286.9,236 
		294.8,224.1 299.6,242.5 302.5,251.9 305.6,230.5 310.4,231.9 314.2,246.2 317.8,241.1 323.1,245.8 326.3,266.1 329.2,295 
		332.8,272.3 337.4,289.7 340.9,316.8 347.9,286.3 351.9,286.5 359.3,262 363.3,264 367.6,251.5 372,261 375,262.3 382.7,230.2 
		390.8,240.5 394.4,250.9 398,239.6 402,233.3 405.4,221.8 409.6,219.8 412.9,219.8 416.4,202.9 421.3,195 425.3,207 437.2,208.4 
		440.4,221.8 443.3,217.6 447.7,215.4 455.5,258.5 459.1,228 464,261.6 466.5,272.8 470.8,257.9 475.4,285.5 478.3,273 482.6,263.9 
		487.3,272.9 490.2,292.5 493.7,289.1 497,266.9 501.1,266.7 505.1,253.2 509.6,258.4 513.2,256.2 516.1,242.4 521,251.8 525,283.4 
		528.9,291.8 532.4,300.4 536.4,306.3 539.6,306.2 543.1,291.2 551,303.8 554.4,293.1 558.3,296.8 563,292.1 566.4,275.2 
		573.7,264.4 578.3,252.3 581.2,240.6 585.5,246 589.7,236.9 593.2,246 597,235.2 600.9,240.1 604.8,249.4 608.3,241.8 620.2,230.9 
		623.6,225.1 627,229.9 631.4,225 635.2,231 637.8,217.9 641.4,208.5 646.9,204.7 650.1,199 657.8,213.4 661.7,215.1 665.7,210.2 
		669.6,212.1 673.8,206.7 677.5,208.3 685,224 688.5,220.6 692.6,230.7 696.5,236.6 700.3,259.1 704.5,256 708,273.5 711.1,268.2 
		715.6,266.6 719.2,262.7 723.2,274 727,255.9 730.2,246.4 734.7,242.2 738.5,234.5 742.4,253.7 745.7,249.7 750.6,253.2 
		753.4,253.3 756.7,243 761.2,236.8 768.6,242.3 773.1,241.4 776.4,248.8 780.3,244.8 781.2,238.8 784,231.6 788.5,236.5 
		791.7,241.5 795.1,237.8 799.4,239.1 802.9,231.5 808,229.1 814.2,220.6 818.5,218 823.3,227.8 826.4,244.9 830.7,243.6 
		834.4,245.7 838.2,256.2 841.4,256.4 846.2,262.8 848.8,262.8 852.9,248.4 859.8,243.8 867.8,221.5 	"/>
	<g>
		<g>
			<rect x="9.9" y="51.2" class="st2" width="10" height="10"/>
			<g class="st13">
				<path class="st2" d="M27.9,50h2.8l2.1,5.8c0.3,0.8,0.5,1.6,0.8,2.4h0.1c0.3-0.8,0.5-1.6,0.8-2.4l2.1-5.8h2.8v12.5H37v-5.2
					c0-1.2,0.2-2.9,0.3-4.1h-0.1l-1,2.9l-1.9,5.3h-1.4l-1.9-5.3l-1-2.9h-0.1c0.1,1.2,0.3,2.9,0.3,4.1v5.2h-2.2V50z"/>
				<path class="st2" d="M41.5,60.9l1.4-1.7c0.9,0.8,2.1,1.4,3.2,1.4c1.3,0,2-0.6,2-1.4c0-0.9-0.8-1.2-1.9-1.7l-1.7-0.7
					c-1.3-0.5-2.5-1.5-2.5-3.4c0-2,1.8-3.6,4.3-3.6c1.5,0,2.9,0.6,3.9,1.6L49,52.9c-0.8-0.7-1.6-1-2.7-1c-1.1,0-1.8,0.5-1.8,1.3
					c0,0.9,0.9,1.2,2,1.6l1.6,0.7c1.5,0.6,2.5,1.6,2.5,3.4c0,2-1.7,3.8-4.6,3.8C44.4,62.7,42.8,62,41.5,60.9z"/>
				<path class="st2" d="M52.9,50h7.7V52h-5.2v3.3h4.4v2.1h-4.4v5.1h-2.5V50z"/>
				<path class="st2" d="M65.3,52h-3.5V50h9.6V52h-3.5v10.4h-2.5V52z"/>
				<path class="st2" d="M77.1,56.8V50h2.5v7.1c0,2.6,0.9,3.5,2.4,3.5c1.5,0,2.4-0.9,2.4-3.5V50h2.4v6.9c0,4.2-1.8,5.9-4.8,5.9
					C78.9,62.7,77.1,61,77.1,56.8z"/>
				<path class="st2" d="M88.8,60.9l1.4-1.7c0.9,0.8,2.1,1.4,3.2,1.4c1.3,0,2-0.6,2-1.4c0-0.9-0.8-1.2-1.9-1.7l-1.7-0.7
					c-1.3-0.5-2.5-1.5-2.5-3.4c0-2,1.8-3.6,4.3-3.6c1.5,0,2.9,0.6,3.9,1.6l-1.3,1.6c-0.8-0.7-1.6-1-2.7-1c-1.1,0-1.8,0.5-1.8,1.3
					c0,0.9,0.9,1.2,2,1.6l1.6,0.7c1.5,0.6,2.5,1.6,2.5,3.4c0,2-1.7,3.8-4.6,3.8C91.7,62.7,90,62,88.8,60.9z"/>
				<path class="st2" d="M104,50h7.7V52h-5.2v2.9h4.4V57h-4.4v3.3h5.4v2.1H104V50z"/>
				<path class="st2" d="M119.7,63.1l0.1-1.5c-0.6,0.7-1.6,1.1-2.5,1.1c-2.3,0-3.9-1.9-3.9-4.9c0-3.1,1.9-5,4-5c1,0,1.8,0.4,2.6,1.2
					h0.1l0.2-0.9h1.9v13.1h-2.5V63.1z M119.7,59.7v-4.2c-0.6-0.5-1.2-0.7-1.8-0.7c-1.1,0-2,1-2,2.9c0,2,0.7,2.9,2,2.9
					C118.6,60.7,119.2,60.4,119.7,59.7z"/>
				<path class="st2" d="M124.8,58.9V53h2.5v5.6c0,1.5,0.4,2,1.3,2c0.8,0,1.3-0.3,1.9-1.2V53h2.5v9.5h-2l-0.2-1.4h-0.1
					c-0.8,1-1.7,1.6-3,1.6C125.6,62.7,124.8,61.3,124.8,58.9z"/>
				<path class="st2" d="M135.4,50.1c0-0.8,0.6-1.4,1.5-1.4c0.8,0,1.5,0.5,1.5,1.4c0,0.8-0.6,1.4-1.5,1.4
					C136,51.5,135.4,50.9,135.4,50.1z M135.6,53h2.5v9.5h-2.5V53z"/>
				<path class="st2" d="M141.1,59.1V55h-1.3v-1.8l1.5-0.1l0.3-2.5h2.1V53h2.3v2h-2.3v4.2c0,1.1,0.4,1.6,1.3,1.6
					c0.3,0,0.7-0.1,0.9-0.2l0.4,1.8c-0.5,0.2-1.2,0.4-2,0.4C142,62.7,141.1,61.3,141.1,59.1z"/>
				<path class="st2" d="M147.4,66.1l0.5-1.9c0.2,0.1,0.4,0.1,0.7,0.1c1,0,1.5-0.6,1.8-1.4l0.2-0.6l-3.7-9.3h2.5l1.5,4.4
					c0.3,0.8,0.5,1.8,0.8,2.7h0.1c0.2-0.9,0.5-1.8,0.7-2.7l1.3-4.4h2.4l-3.4,9.7c-0.8,2.2-1.8,3.5-4,3.5
					C148.1,66.3,147.7,66.2,147.4,66.1z"/>
				<path class="st2" d="M165.3,60.5h2.7v-7.9h-2.3V51c1.2-0.2,2.1-0.6,2.9-1h1.8v10.5h2.3v2h-7.5V60.5z"/>
				<path class="st2" d="M183.3,59.2h-1.5v3.2h-2.3v-3.2h-5.3v-1.7l4.7-7.6h3v7.4h1.5V59.2z M179.5,57.3v-2.6c0-0.7,0.1-1.9,0.1-2.6
					h-0.1c-0.3,0.7-0.6,1.4-1,2l-1.9,3.1H179.5z"/>
				<path class="st2" d="M191.5,52.6c-0.4-0.5-1.2-0.9-1.9-0.9c-1.4,0-2.6,1.1-2.7,4.2c0.7-0.8,1.8-1.3,2.6-1.3
					c2.1,0,3.6,1.2,3.6,3.9c0,2.6-1.8,4.2-3.9,4.2c-2.4,0-4.5-1.9-4.5-6.3c0-4.7,2.3-6.7,4.8-6.7c1.5,0,2.6,0.6,3.4,1.4L191.5,52.6z
					 M190.8,58.5c0-1.5-0.7-2.2-1.8-2.2c-0.7,0-1.4,0.4-2,1.3c0.2,2.3,1.1,3.2,2.1,3.2C190,60.8,190.8,60,190.8,58.5z"/>
				<path class="st2" d="M194.9,61.1c0-0.9,0.7-1.6,1.5-1.6c0.9,0,1.6,0.7,1.6,1.6s-0.7,1.6-1.6,1.6C195.6,62.7,194.9,62,194.9,61.1
					z"/>
				<path class="st2" d="M200,59.4c0-1.6,1-2.6,2.1-3.3V56c-1-0.7-1.7-1.6-1.7-3c0-2,1.6-3.3,3.8-3.3c2.2,0,3.6,1.3,3.6,3.3
					c0,1.2-0.8,2.3-1.6,2.9V56c1.1,0.6,2.1,1.6,2.1,3.3c0,1.9-1.7,3.3-4.2,3.3C201.8,62.7,200,61.3,200,59.4z M206.1,59.3
					c0-1.3-1.1-1.8-2.8-2.5c-0.7,0.5-1.1,1.4-1.1,2.3c0,1.1,0.9,1.9,2.1,1.9C205.3,60.9,206.1,60.3,206.1,59.3z M205.9,53.2
					c0-1-0.6-1.7-1.7-1.7c-0.8,0-1.5,0.6-1.5,1.6c0,1.2,1,1.8,2.3,2.3C205.6,54.7,205.9,54,205.9,53.2z"/>
				<path class="st2" d="M211.3,59.8c0.5,0.5,1.2,0.9,2,0.9c1.4,0,2.6-1.1,2.7-4.2c-0.6,0.8-1.7,1.4-2.6,1.4c-2.1,0-3.6-1.3-3.6-3.9
					c0-2.6,1.8-4.2,3.9-4.2c2.4,0,4.5,1.9,4.5,6.2c0,4.7-2.3,6.8-4.8,6.8c-1.6,0-2.7-0.7-3.4-1.4L211.3,59.8z M216,54.7
					c-0.2-2.3-1.1-3.1-2.1-3.1c-0.9,0-1.7,0.8-1.7,2.3c0,1.5,0.7,2.2,1.8,2.2C214.6,56.1,215.4,55.7,216,54.7z"/>
				<path class="st2" d="M225.6,52H220V50h8.3v1.5c-2.9,3.5-3.3,6.1-3.5,11h-2.5C222.5,58.1,223.2,55.3,225.6,52z"/>
				<path class="st2" d="M229.8,61c3.4-3,5.4-5.4,5.4-7.3c0-1.3-0.7-2-1.9-2c-0.9,0-1.7,0.6-2.3,1.3l-1.4-1.4c1.1-1.2,2.3-1.9,4-1.9
					c2.4,0,3.9,1.5,3.9,3.9c0,2.3-1.9,4.7-4.2,6.9c0.6-0.1,1.5-0.1,2-0.1h2.7v2.1h-8.4V61z"/>
			</g>
		</g>
	</g>
	<g>
		<g>
			<rect x="9.9" y="76.2" class="st3" width="10" height="10"/>
			<g class="st13">
				<path class="st3" d="M27.1,85.9l1.4-1.7c0.9,0.8,2.1,1.4,3.2,1.4c1.3,0,2-0.6,2-1.4c0-0.9-0.8-1.2-1.9-1.7l-1.7-0.7
					c-1.3-0.5-2.5-1.5-2.5-3.4c0-2,1.8-3.6,4.3-3.6c1.5,0,2.9,0.6,3.9,1.6l-1.3,1.6c-0.8-0.7-1.6-1-2.7-1c-1.1,0-1.8,0.5-1.8,1.3
					c0,0.9,0.9,1.2,2,1.6l1.6,0.7c1.5,0.6,2.5,1.6,2.5,3.4c0,2-1.7,3.8-4.6,3.8C30,87.7,28.3,87,27.1,85.9z"/>
				<path class="st3" d="M37.9,81.2c0-4.1,2.3-6.4,5.6-6.4c3.3,0,5.6,2.4,5.6,6.4c0,4.1-2.3,6.5-5.6,6.5
					C40.1,87.7,37.9,85.2,37.9,81.2z M46.5,81.2c0-2.7-1.2-4.3-3-4.3c-1.9,0-3,1.6-3,4.3c0,2.7,1.2,4.4,3,4.4
					C45.3,85.5,46.5,83.8,46.5,81.2z"/>
				<path class="st3" d="M53.2,81l-3.3-6h2.8l1.2,2.6c0.3,0.6,0.6,1.2,0.9,2H55c0.3-0.8,0.6-1.4,0.8-2L57,75h2.6l-3.3,6.2l3.5,6.3
					h-2.8l-1.4-2.8c-0.3-0.6-0.6-1.3-1-2.1h-0.1c-0.3,0.8-0.6,1.4-0.9,2.1l-1.3,2.8h-2.7L53.2,81z"/>
				<path class="st3" d="M65.4,75h2.5v12.5h-2.5V75z"/>
				<path class="st3" d="M70.8,78h2l0.2,1.2h0.1c0.8-0.8,1.8-1.5,3.1-1.5c2,0,2.9,1.4,2.9,3.8v5.9h-2.5v-5.6c0-1.5-0.4-2-1.3-2
					c-0.8,0-1.3,0.4-2,1.1v6.5h-2.5V78z"/>
				<path class="st3" d="M81.1,82.7c0-3.1,1.9-5,4-5c1.1,0,1.7,0.4,2.4,1l-0.1-1.5V74h2.5v13.5h-2l-0.2-1h-0.1
					c-0.7,0.7-1.6,1.2-2.6,1.2C82.6,87.7,81.1,85.8,81.1,82.7z M87.4,84.7v-4.2c-0.6-0.5-1.2-0.7-1.8-0.7c-1.1,0-2,1-2,2.9
					c0,2,0.7,2.9,2,2.9C86.3,85.7,86.8,85.4,87.4,84.7z"/>
				<path class="st3" d="M91.9,82.7c0-3.1,2.1-5,4.4-5c2.6,0,4,1.9,4,4.5c0,0.5-0.1,0.9-0.1,1.1h-5.8c0.2,1.6,1.2,2.4,2.6,2.4
					c0.8,0,1.5-0.2,2.1-0.7l0.8,1.5c-0.9,0.6-2.1,1-3.3,1C94,87.7,91.9,85.9,91.9,82.7z M98.2,81.8c0-1.3-0.6-2.1-1.8-2.1
					c-1,0-1.9,0.7-2.1,2.1H98.2z"/>
				<path class="st3" d="M104,82.5l-2.8-4.5h2.7l0.9,1.7c0.3,0.5,0.6,1.1,0.8,1.6h0.1c0.2-0.5,0.5-1.1,0.7-1.6l0.8-1.7h2.6l-2.8,4.8
					l3,4.6h-2.7l-1-1.7c-0.3-0.6-0.6-1.1-0.9-1.7h-0.1c-0.3,0.5-0.5,1.1-0.8,1.7l-0.9,1.7H101L104,82.5z"/>
				<path class="st3" d="M165.3,85.5h2.7v-7.9h-2.3V76c1.2-0.2,2.1-0.6,2.9-1h1.8v10.5h2.3v2h-7.5V85.5z"/>
				<path class="st3" d="M175.2,85.5h2.7v-7.9h-2.3V76c1.2-0.2,2.1-0.6,2.9-1h1.8v10.5h2.3v2h-7.5V85.5z"/>
				<path class="st3" d="M184.6,84.4c0-1.6,1-2.6,2.1-3.3V81c-1-0.7-1.7-1.6-1.7-3c0-2,1.6-3.3,3.8-3.3c2.2,0,3.6,1.3,3.6,3.3
					c0,1.2-0.8,2.3-1.6,2.9V81c1.1,0.6,2.1,1.6,2.1,3.3c0,1.9-1.7,3.3-4.2,3.3C186.4,87.7,184.6,86.3,184.6,84.4z M190.7,84.3
					c0-1.3-1.1-1.8-2.8-2.5c-0.7,0.5-1.1,1.4-1.1,2.3c0,1.1,0.9,1.9,2.1,1.9C189.9,85.9,190.7,85.3,190.7,84.3z M190.5,78.2
					c0-1-0.6-1.7-1.7-1.7c-0.8,0-1.5,0.6-1.5,1.6c0,1.2,1,1.8,2.3,2.3C190.2,79.7,190.5,79,190.5,78.2z"/>
				<path class="st3" d="M195,86.1c0-0.9,0.7-1.6,1.5-1.6c0.9,0,1.6,0.7,1.6,1.6s-0.7,1.6-1.6,1.6C195.6,87.7,195,87,195,86.1z"/>
				<path class="st3" d="M199.7,86l1.1-1.6c0.7,0.7,1.6,1.3,2.8,1.3c1.3,0,2.2-0.8,2.2-2.3c0-1.5-0.8-2.3-2.1-2.3
					c-0.7,0-1.1,0.2-1.9,0.7l-1.1-0.7L201,75h6.7V77h-4.5l-0.2,2.7c0.5-0.2,0.9-0.4,1.5-0.4c2.1,0,3.9,1.2,3.9,4
					c0,2.8-2.1,4.4-4.4,4.4C201.9,87.7,200.6,86.9,199.7,86z"/>
				<path class="st3" d="M209.6,86l1.1-1.6c0.7,0.7,1.6,1.3,2.8,1.3c1.3,0,2.2-0.8,2.2-2.3c0-1.5-0.8-2.3-2.1-2.3
					c-0.7,0-1.1,0.2-1.9,0.7l-1.1-0.7L211,75h6.7V77h-4.5l-0.2,2.7c0.5-0.2,0.9-0.4,1.5-0.4c2.1,0,3.9,1.2,3.9,4
					c0,2.8-2.1,4.4-4.4,4.4C211.9,87.7,210.6,86.9,209.6,86z"/>
				<path class="st3" d="M219.6,86l1.2-1.6c0.7,0.7,1.7,1.3,2.8,1.3c1.3,0,2.1-0.6,2.1-1.7c0-1.2-0.7-2-3.4-2v-1.8
					c2.3,0,3-0.8,3-1.9c0-1-0.6-1.6-1.7-1.6c-0.9,0-1.6,0.4-2.4,1.1l-1.3-1.5c1.1-0.9,2.3-1.5,3.7-1.5c2.4,0,4.1,1.2,4.1,3.3
					c0,1.4-0.8,2.3-2.1,2.9V81c1.4,0.4,2.5,1.4,2.5,3.1c0,2.3-2,3.6-4.4,3.6C221.8,87.7,220.5,87,219.6,86z"/>
				<path class="st3" d="M235.6,77h-5.6V75h8.3v1.5c-2.9,3.5-3.3,6.1-3.5,11h-2.5C232.5,83.1,233.2,80.3,235.6,77z"/>
			</g>
		</g>
	</g>
	<g class="st13">
		<g class="st13">
			<path class="st2" d="M479.9,120.7c-0.3,0.6-0.5,1.2-0.9,1.9v9.7h-1.8v-6.9c-0.3,0.3-0.5,0.7-0.8,1c-0.2-0.4-0.6-1.4-0.9-1.8
				c1-1.1,2.1-2.8,2.8-4.5L479.9,120.7V118h1.4v3h0.7v-4.5h1.5v4.5h0.7v-3h1.4v4.4h-5.8V120.7z M479.8,117.2c-0.8,1.5-2,3.1-3.2,4.1
				c-0.2-0.4-0.6-1.2-0.9-1.6c0.9-0.8,1.9-2.2,2.4-3.2L479.8,117.2z M482.2,125.4c-0.1,3.2-0.3,5.5-1.9,6.9
				c-0.2-0.5-0.7-1.2-1.1-1.5c1.2-1.1,1.3-2.8,1.3-5.4H482.2z M479.8,124.9v-1.6h5.8v1.6H479.8z M486,127.4c0.1,0.4,0.3,1.1,0.4,1.4
				c-2.3,1.4-2.7,1.8-3,2.1c-0.1-0.4-0.4-1.3-0.7-1.7c0.3-0.2,0.6-0.5,0.6-1.2v-2.7h1.7v2.6L486,127.4z M491,121.3
				c-0.2,2.6-0.6,4.8-1.4,6.7c0.6,1.1,1.3,2.1,2.3,2.7c-0.4,0.3-0.9,1-1.2,1.5c-0.8-0.6-1.5-1.5-2-2.4c-0.6,1-1.3,1.8-2.3,2.6
				c-0.2-0.3-0.9-1-1.2-1.3c1.2-0.8,2-1.9,2.6-3.2c-0.4-1.2-0.7-2.5-0.9-4c-0.2,0.2-0.3,0.5-0.5,0.7c-0.2-0.4-0.7-1.2-1.1-1.6
				c1.1-1.5,1.7-3.9,2-6.4l1.7,0.3c-0.2,0.9-0.3,1.9-0.6,2.8h3.1v1.7H491z M488.1,121.3c0,0.1-0.1,0.2-0.1,0.3
				c0.2,1.4,0.4,2.7,0.7,3.9c0.3-1.3,0.5-2.7,0.7-4.2H488.1z"/>
			<path class="st2" d="M497.4,129.6v2.7h-1.7v-2.7h-2.9v-1.8h2.9v-1h-2.4v-6.1h2.4v-0.9H493v-1.8h2.8v-1.6h1.7v1.6h2.8v1.8h-2.8
				v0.9h2.5v6.1h-2.5v1h2.9v1.8H497.4z M494.7,123.2h1.2v-1h-1.2V123.2z M494.7,125.5h1.2v-1h-1.2V125.5z M498.4,122.2h-1.2v1h1.2
				V122.2z M498.4,124.5h-1.2v1h1.2V124.5z M508.8,130.6c-0.4,0.4-1.1,1.2-1.3,1.7c-1.5-0.9-2.5-2.3-3.2-4.2
				c-0.6,1.5-1.6,2.9-3.4,4.1c-0.3-0.4-1-1.1-1.5-1.5c3.4-2.3,3.8-5.5,3.8-7.5v-0.8h2v0.8c0,0.4,0,0.8,0,1.2
				C505.6,127.2,506.7,129.5,508.8,130.6z M503,121.4c-0.4,1.2-0.8,2.2-1.3,3c-0.3-0.3-1.2-0.9-1.6-1.1c1.1-1.6,1.7-4.1,2-6.7
				l1.9,0.3c-0.1,0.9-0.3,1.9-0.5,2.8h3.3l0.3-0.1l1.3,0.3c-0.3,1.7-0.7,3.6-1,4.8l-1.6-0.4c0.2-0.7,0.4-1.8,0.5-2.9H503z"/>
			<path class="st2" d="M517,125.4h-3.4v-1.8h3.4V120h1.8v3.6h3.4v1.8h-3.4v3.6H517V125.4z"/>
			<path class="st2" d="M532.3,127.6h-1.5v3.2h-2.3v-3.2h-5.3v-1.7l4.7-7.6h3v7.4h1.5V127.6z M528.5,125.7v-2.6
				c0-0.7,0.1-1.9,0.1-2.6h-0.1c-0.3,0.7-0.6,1.4-1,2l-1.9,3.1H528.5z"/>
			<path class="st2" d="M540.6,121c-0.4-0.5-1.2-0.9-1.9-0.9c-1.4,0-2.6,1.1-2.7,4.2c0.7-0.8,1.8-1.3,2.6-1.3c2.1,0,3.6,1.2,3.6,3.9
				c0,2.6-1.8,4.2-3.9,4.2c-2.4,0-4.5-1.9-4.5-6.3c0-4.7,2.3-6.7,4.8-6.7c1.5,0,2.6,0.6,3.4,1.4L540.6,121z M539.8,126.9
				c0-1.5-0.7-2.2-1.8-2.2c-0.7,0-1.4,0.4-2,1.3c0.2,2.3,1.1,3.2,2.1,3.2C539,129.2,539.8,128.4,539.8,126.9z"/>
			<path class="st2" d="M544,129.4c0-0.9,0.7-1.6,1.5-1.6c0.9,0,1.6,0.7,1.6,1.6s-0.7,1.6-1.6,1.6C544.6,131.1,544,130.4,544,129.4z
				"/>
			<path class="st2" d="M550.4,128.2c0.5,0.5,1.2,0.9,2,0.9c1.4,0,2.6-1.1,2.7-4.2c-0.6,0.8-1.7,1.4-2.6,1.4c-2.1,0-3.6-1.3-3.6-3.9
				c0-2.6,1.8-4.2,3.9-4.2c2.4,0,4.5,1.9,4.5,6.2c0,4.7-2.3,6.8-4.8,6.8c-1.6,0-2.7-0.7-3.4-1.4L550.4,128.2z M555.1,123.1
				c-0.2-2.3-1.1-3.1-2.1-3.1c-0.9,0-1.7,0.8-1.7,2.3c0,1.5,0.7,2.2,1.8,2.2C553.7,124.4,554.4,124.1,555.1,123.1z"/>
			<path class="st2" d="M558.8,122c0-2.5,1.2-3.9,3-3.9c1.8,0,3.1,1.4,3.1,3.9c0,2.5-1.3,4-3.1,4C560,126,558.8,124.5,558.8,122z
				 M563.1,122c0-1.8-0.6-2.5-1.3-2.5c-0.7,0-1.3,0.7-1.3,2.5c0,1.8,0.6,2.6,1.3,2.6C562.5,124.6,563.1,123.9,563.1,122z M569,118.1
				h1.5l-6.8,13h-1.5L569,118.1z M567.8,127.1c0-2.5,1.3-4,3-4c1.8,0,3.1,1.4,3.1,4c0,2.5-1.3,4-3.1,4
				C569.1,131.1,567.8,129.6,567.8,127.1z M572.2,127.1c0-1.8-0.6-2.6-1.3-2.6c-0.7,0-1.3,0.7-1.3,2.6s0.6,2.6,1.3,2.6
				C571.6,129.7,572.2,128.9,572.2,127.1z"/>
		</g>
	</g>
	<g class="st13">
		<path class="st15" d="M20.6,209.8c3.9-3.4,5.7-5.9,5.7-8c0-1.4-0.7-2.5-2.3-2.5c-1,0-1.9,0.6-2.6,1.4l-0.9-0.9
			c1-1.1,2.1-1.8,3.6-1.8c2.2,0,3.6,1.5,3.6,3.7c0,2.5-1.9,5-4.8,7.7c0.6-0.1,1.4-0.1,2-0.1h3.4v1.3h-7.8V209.8z"/>
		<path class="st15" d="M30.1,204.5c0-4.3,1.5-6.4,3.9-6.4c2.3,0,3.9,2.1,3.9,6.4c0,4.3-1.5,6.5-3.9,6.5
			C31.6,210.9,30.1,208.8,30.1,204.5z M36.3,204.5c0-3.6-0.9-5.1-2.3-5.1c-1.4,0-2.4,1.5-2.4,5.1c0,3.6,0.9,5.2,2.4,5.2
			C35.4,209.7,36.3,208.1,36.3,204.5z"/>
		<path class="st15" d="M40.1,209.4h2.8v-9.2h-2.2v-1c1.1-0.2,1.9-0.5,2.6-0.9h1.2v11.1h2.5v1.3h-6.8V209.4z"/>
		<path class="st15" d="M54.9,199.7h-6v-1.3h7.8v0.9c-2.9,3.7-3.4,6.6-3.6,11.5h-1.6C51.6,206,52.4,203,54.9,199.7z"/>
		<path class="st15" d="M62.7,197.3h1.1l-5.1,16.4h-1.1L62.7,197.3z"/>
		<path class="st15" d="M65.5,209.4h2.8v-9.2h-2.2v-1c1.1-0.2,1.9-0.5,2.6-0.9h1.2v11.1h2.5v1.3h-6.8V209.4z"/>
		<path class="st15" d="M74.2,204.5c0-4.3,1.5-6.4,3.9-6.4c2.3,0,3.9,2.1,3.9,6.4c0,4.3-1.5,6.5-3.9,6.5
			C75.7,210.9,74.2,208.8,74.2,204.5z M80.4,204.5c0-3.6-0.9-5.1-2.3-5.1c-1.4,0-2.4,1.5-2.4,5.1c0,3.6,0.9,5.2,2.4,5.2
			C79.5,209.7,80.4,208.1,80.4,204.5z"/>
		<path class="st15" d="M83.4,201.9h8.1v1.1h-8.1V201.9z M83.4,205.9h8.1v1.1h-8.1V205.9z"/>
		<path class="st15" d="M93.6,209.4h2.8v-9.2h-2.2v-1c1.1-0.2,1.9-0.5,2.6-0.9h1.2v11.1h2.5v1.3h-6.8V209.4z"/>
		<path class="st15" d="M102.4,204.5c0-4.3,1.5-6.4,3.9-6.4c2.3,0,3.9,2.1,3.9,6.4c0,4.3-1.5,6.5-3.9,6.5
			C103.9,210.9,102.4,208.8,102.4,204.5z M108.6,204.5c0-3.6-0.9-5.1-2.3-5.1c-1.4,0-2.4,1.5-2.4,5.1c0,3.6,0.9,5.2,2.4,5.2
			C107.6,209.7,108.6,208.1,108.6,204.5z"/>
		<path class="st15" d="M111.7,204.5c0-4.3,1.5-6.4,3.9-6.4c2.3,0,3.9,2.1,3.9,6.4c0,4.3-1.5,6.5-3.9,6.5
			C113.2,210.9,111.7,208.8,111.7,204.5z M118,204.5c0-3.6-0.9-5.1-2.3-5.1c-1.4,0-2.4,1.5-2.4,5.1c0,3.6,0.9,5.2,2.4,5.2
			C117,209.7,118,208.1,118,204.5z"/>
	</g>
	<g>
		<g class="st13">
			<path class="st3" d="M631.3,303.4c1.4,0.5,2.8,1,3.6,1.4l-1.5,1.2c-1.1-0.5-3-1.4-4.8-1.9l0.6-0.6h-4.1l1.2,0.6
				c-1.4,0.8-3.6,1.6-5.3,2c-0.3-0.4-1-1.1-1.5-1.5c1.5-0.3,3.2-0.6,4.4-1.1h-2.2v-5c-0.4,0.1-0.8,0.2-1.2,0.2
				c-0.2-0.4-0.6-1.2-1-1.6c2-0.3,3.2-0.7,3.9-1.2h-2.7c0.2-0.8,0.4-2.1,0.5-3.1h3.2v-0.7h-3.8v-1.2h3.8v-0.7h1.8v0.7h1.9v-0.7h1.9
				v0.7h3.6v3h-3.6v0.7h4.7c0,0,0,0.3,0,0.5c-0.1,1-0.2,1.6-0.5,1.9c-0.2,0.3-0.6,0.4-1,0.4c-0.1,0-0.2,0-0.3,0v5.8H631.3z
				 M622.9,294.7h1.6c0.1-0.2,0.1-0.5,0.1-0.7H623L622.9,294.7z M623.8,298.1v0.7h7.3v-0.7H623.8z M623.8,299.8v0.7h7.3v-0.7H623.8z
				 M623.8,302.3h7.3v-0.7h-7.3V302.3z M626,295.9c-0.2,0.4-0.5,0.7-0.8,1.1h3.1v-1.1H626z M628.3,294h-1.9c0,0.3,0,0.5-0.1,0.7h1.9
				V294z M626.4,292.8h1.9v-0.7h-1.9V292.8z M630.2,292.1v0.7h1.8v-0.7H630.2z M630.2,295.9v1.1h1.5c-0.1-0.2-0.1-0.4-0.2-0.6
				c0.4,0.1,0.8,0.1,0.9,0.1c0.2,0,0.3,0,0.4-0.1c0.1-0.1,0.1-0.2,0.1-0.5H630.2z"/>
			<path class="st3" d="M652,296.4c-0.5,2.2-1.3,4.2-2.3,5.8c0.3,1.1,0.6,1.8,0.9,1.8c0.3,0,0.4-0.8,0.4-2.5c0.4,0.4,0.9,0.9,1.4,1
				c-0.3,2.6-0.8,3.3-2.1,3.3c-0.8,0-1.5-0.7-2-1.9c-0.7,0.8-1.5,1.5-2.4,2.1c-0.3-0.3-1-1-1.4-1.3c1.2-0.7,2.3-1.7,3.1-2.9
				c-0.4-2-0.7-4.7-0.8-7.4h-3.3v1.8h3c0,0,0,0.5,0,0.7c-0.1,3.8-0.1,5.3-0.5,5.7c-0.3,0.4-0.5,0.5-0.9,0.6
				c-0.3,0.1-0.9,0.1-1.5,0.1c-0.1-0.5-0.2-1.2-0.4-1.6c-0.3,1.6-0.8,3.2-1.9,4.4c-0.3-0.3-1-1-1.5-1.2c0.7-0.8,1.1-1.7,1.4-2.6
				c-1.5,0.6-3.1,1.3-4.4,1.8l-0.6-2c0.5-0.1,1.1-0.3,1.8-0.6v-5.3h-1.5v-1.9h1.5v-3.8h1.9v3.8h1.3v1.9H640v4.7l1.3-0.5l0.2,1.2
				c0.2-1.1,0.3-2.3,0.3-3.4v-5.6h5.1c0-0.8,0-1.6,0-2.3h1.9c0,0.8,0,1.6,0,2.3h1.3c-0.3-0.5-0.8-1.1-1.3-1.6l1.4-0.8
				c0.6,0.6,1.3,1.4,1.6,2l-0.7,0.4h0.9v1.8h-3.2c0.1,1.8,0.2,3.4,0.4,4.9c0.4-1,0.7-2.1,1-3.2L652,296.4z M643.6,297.8v0.3
				c0,1-0.1,2.3-0.3,3.5c0.4,0.1,0.7,0.1,0.9,0.1c0.2,0,0.3-0.1,0.4-0.2c0.2-0.3,0.2-1.1,0.2-3.6H643.6z"/>
			<path class="st3" d="M668.8,301.5h-6.6v4.4h-2.1v-4.4h-6.5v-2h6.5v-2h-5.5v-2h5.5v-5.3h2.1v5.3h5.8v2h-5.8v2h6.6V301.5z
				 M656.7,295c-0.2-1-1-2.6-1.7-3.7l1.8-0.7c0.7,1.1,1.5,2.6,1.8,3.7L656.7,295z M667.6,291.1c-0.7,1.4-1.4,2.8-2.1,3.7l-1.8-0.6
				c0.6-1,1.3-2.6,1.7-3.8L667.6,291.1z"/>
			<path class="st3" d="M682.2,301.2h3.4v1.5h-3.4v1.6c0,0.9-0.2,1.4-0.9,1.6c-0.7,0.3-1.6,0.3-2.8,0.3c-0.1-0.5-0.4-1.2-0.6-1.7
				c0.8,0.1,1.8,0.1,2,0c0.3,0,0.4-0.1,0.4-0.3v-1.5h-5.1c0.7,0.5,1.4,1,1.8,1.5l-1.5,1.2c-0.4-0.6-1.4-1.4-2.2-2l0.9-0.7h-3.7v-1.5
				h9.8v-0.6h-0.9c-2,0-3.4-0.1-4.5-0.7c-0.6-0.3-1.1-0.7-1.5-0.7c-0.5,0-1.3,0.8-2,1.7l-1-1.6c0.4-0.4,0.9-0.7,1.4-1
				c0.5-0.5,0.9-1.2,1.3-2h-2.3c0.4-0.7,0.8-1.5,1.2-2.4h-1.6v-1.4h1.5c-0.2-0.5-0.4-1.2-0.6-1.7l1.7-0.5c0.2,0.6,0.5,1.3,0.7,1.8
				l-1.4,0.5h2.2c-0.4,0.8-0.8,1.6-1.2,2.4h0.7l0.3-0.1l0.9,0.4c-0.3,0.9-0.7,1.9-1.2,2.7c0.3,0.1,0.7,0.4,1.2,0.6
				c1,0.5,2.6,0.6,4.3,0.6c1.8,0,4.8-0.1,6.6-0.4c-0.2,0.5-0.5,1.3-0.5,1.8c-0.8,0.1-2.1,0.1-3.3,0.1V301.2z M678.9,293.5
				c0.1-0.2,0.1-0.4,0.1-0.5h-4.1v-1.4h2.4c-0.2-0.4-0.4-0.8-0.5-1.1l1.6-0.4c0.3,0.5,0.6,1,0.8,1.5h2.1c0.3-0.5,0.5-1,0.7-1.4
				l1.9,0.3c-0.3,0.4-0.5,0.8-0.7,1.1h2.4v1.4h-4.7c-0.1,0.2-0.2,0.4-0.3,0.5h3.7v5.1h-8.2v-5.1H678.9z M682.4,294.4h-4.5v0.5h4.5
				V294.4z M682.4,295.7h-4.5v0.5h4.5V295.7z M682.4,297.1h-4.5v0.5h4.5V297.1z"/>
			<path class="st3" d="M693.3,298.1v6.1c0,0.7-0.1,1.1-0.6,1.4c-0.4,0.3-1.1,0.3-2,0.3c-0.1-0.4-0.3-1.1-0.5-1.5c0.5,0,1,0,1.1,0
				c0.2,0,0.2-0.1,0.2-0.2v-1.5c-0.6,0.4-1.1,0.7-1.6,1l-0.4-0.9c-0.1,1.1-0.4,2.4-1,3.2c-0.3-0.3-1-0.8-1.4-1
				c0.8-1.3,0.9-3,0.9-4.3v-2.6h-0.8v-2.6h0.7v-4.8h5.5v4.8h0.7v2.6H693.3z M692.6,296.9h-3.9v0.7h3.9V296.9z M689.4,295.5h0.7v-2.7
				h1.6v-0.7h-2.3V295.5z M689.7,300.8c0,0.5,0,1-0.1,1.6c0.6-0.2,1.3-0.6,2-0.9v-0.7l-0.7,0.7c-0.3-0.3-0.8-0.7-1.3-1.1V300.8z
				 M689.7,299.8l0.6-0.6c0.5,0.3,1,0.7,1.4,1v-1.4h-2V299.8z M691.7,295.5V294h-0.6v1.6H691.7z M702.9,304.2v1.5H694v-1.5h2
				c-0.1-0.4-0.3-0.9-0.5-1.2l1.1-0.3h-1.8v-3.3h7.3v3.3h-1.9l1.3,0.4c-0.3,0.4-0.5,0.8-0.7,1.2H702.9z M702.7,298.8h-8.6v-1.4h8.6
				V298.8z M702.4,296.8h-8v-5.4h2v-1.2h1.6v1.2h0.7v-1.2h1.6v1.2h2.2V296.8z M695.9,293.5h0.9v-0.8h-0.9V293.5z M695.9,295.5h0.9
				v-0.8h-0.9V295.5z M696.5,301.5h3.7v-0.9h-3.7V301.5z M697.1,302.7c0.2,0.5,0.4,1.1,0.6,1.6h1.4c0.2-0.5,0.4-1.1,0.6-1.6H697.1z
				 M698.8,293.5v-0.8h-0.8v0.8H698.8z M697.9,294.7v0.8h0.8v-0.8H697.9z M700.9,292.7H700v0.8h0.9V292.7z M700.9,294.7H700v0.8h0.9
				V294.7z"/>
			<path class="st3" d="M710.1,299.2l-1.9,0.5v4c0,1-0.2,1.5-0.8,1.8c-0.6,0.3-1.4,0.4-2.5,0.4c-0.1-0.5-0.3-1.3-0.6-1.9
				c0.7,0,1.4,0,1.6,0c0.2,0,0.3-0.1,0.3-0.3v-3.5c-0.7,0.2-1.3,0.3-1.9,0.5l-0.5-2c0.7-0.2,1.5-0.3,2.4-0.6v-2.9h-2.1v-1.9h2.1
				v-3.2h2v3.2h1.7v1.9h-1.7v2.4c0.6-0.2,1.1-0.3,1.7-0.4L710.1,299.2z M713.5,297.2c-2.2,0-2.9-0.7-2.9-2.7v-4.4h2v1.8h6.5v1.7
				h-6.5v0.9c0,0.6,0.2,0.9,0.9,0.9h3.8c0.7,0,1.7,0,2.2-0.1c0.1,0.5,0.1,1.2,0.2,1.7c-0.4,0.1-1.4,0.2-2.3,0.2H713.5z M710.7,298.3
				h8.2v7.6h-2v-0.7h-4.3v0.7h-1.9V298.3z M712.6,299.9v1h4.3v-1H712.6z M716.9,303.6v-1.1h-4.3v1.1H716.9z"/>
			<path class="st3" d="M735.5,295c-0.3,2.5-0.7,4.6-1.5,6.4c0.7,1.3,1.5,2.3,2.7,3c-0.4,0.3-0.9,0.9-1.1,1.4
				c-1-0.7-1.8-1.6-2.4-2.7c-0.8,1.2-1.8,2.2-3,3c-0.1-0.3-0.5-0.8-0.8-1.2l-1.1,0.9c-0.6-0.4-1.3-0.8-2.2-1.2
				c-1.1,0.5-2.6,0.9-4.7,1.2c-0.1-0.4-0.5-1-0.7-1.3c1.5-0.2,2.7-0.5,3.6-0.8c-0.8-0.3-1.5-0.6-2.2-0.8c0.2-0.3,0.5-0.6,0.7-1
				l-1.5,0.1l-0.2-1.3c0.7,0,1.6-0.1,2.6-0.1c0.2-0.3,0.4-0.7,0.6-1h-2.5v-3.1h3v-0.5h-2.6v-1.8h-1.3v-1.4h1.3v-1.7h2.6v-1h1.5v1
				h2.7v1.7h1.1v1.4H729v1.8h-2.7v0.5h3.1v1.2c1.1-1.8,1.7-4.7,2-7.6l1.7,0.2c-0.1,0.9-0.3,1.9-0.4,2.8h4v1.8H735.5z M723.4,298.4
				h1.4v-0.6h-1.4V298.4z M723.9,292.5v0.5h0.9v-0.5H723.9z M724.8,294.9v-0.6h-0.9v0.6H724.8z M724.3,302.4
				c0.6,0.2,1.1,0.4,1.7,0.6c0.6-0.4,1-0.8,1.2-1.2l-2.6,0.1L724.3,302.4z M728.9,301.7c-0.2,0.7-0.5,1.4-1.3,2
				c0.6,0.3,1.1,0.5,1.6,0.8c1.4-0.8,2.3-1.9,3-3.2c-0.4-1-0.7-2.1-1-3.4c-0.2,0.4-0.4,0.9-0.6,1.2c-0.3-0.3-0.9-0.9-1.2-1.2v1.7
				H726c-0.2,0.3-0.4,0.6-0.5,1l2-0.1v-0.6h1.6v0.5l0.5,0l0,1.3L728.9,301.7z M726.3,292.5v0.5h1v-0.5H726.3z M727.3,294.9v-0.6h-1
				v0.6H727.3z M726.3,297.8v0.6h1.4v-0.6H726.3z M732.2,295c0.2,1.4,0.5,2.8,0.9,4.1c0.4-1.2,0.6-2.6,0.7-4.1H732.2z"/>
			<path class="st3" d="M745.1,299.1h-3.4v-1.8h3.4v-3.6h1.8v3.6h3.4v1.8h-3.4v3.6h-1.8V299.1z"/>
			<path class="st3" d="M752.4,302.5h2.7v-7.9h-2.3V293c1.2-0.2,2.1-0.6,2.9-1h1.8v10.5h2.3v2h-7.5V302.5z"/>
			<path class="st3" d="M761.7,301.4c0-1.6,1-2.6,2.1-3.3V298c-1-0.7-1.7-1.6-1.7-3c0-2,1.6-3.3,3.8-3.3c2.2,0,3.6,1.3,3.6,3.3
				c0,1.2-0.8,2.3-1.6,2.9v0.1c1.1,0.6,2.1,1.6,2.1,3.3c0,1.9-1.7,3.3-4.2,3.3C763.5,304.7,761.7,303.4,761.7,301.4z M767.8,301.3
				c0-1.3-1.1-1.8-2.8-2.5c-0.7,0.5-1.1,1.4-1.1,2.3c0,1.1,0.9,1.9,2.1,1.9C767,303,767.8,302.4,767.8,301.3z M767.6,295.3
				c0-1-0.6-1.7-1.7-1.7c-0.8,0-1.5,0.6-1.5,1.6c0,1.2,1,1.8,2.3,2.3C767.3,296.7,767.6,296,767.6,295.3z"/>
			<path class="st3" d="M772.1,303.1c0-0.9,0.7-1.6,1.5-1.6c0.9,0,1.6,0.7,1.6,1.6s-0.7,1.6-1.6,1.6
				C772.7,304.7,772.1,304,772.1,303.1z"/>
			<path class="st3" d="M784.1,294.7c-0.4-0.5-1.2-0.9-1.9-0.9c-1.4,0-2.6,1.1-2.7,4.2c0.7-0.8,1.8-1.3,2.6-1.3
				c2.1,0,3.6,1.2,3.6,3.9c0,2.6-1.8,4.2-3.9,4.2c-2.4,0-4.5-1.9-4.5-6.3c0-4.7,2.3-6.7,4.8-6.7c1.5,0,2.6,0.6,3.4,1.4L784.1,294.7z
				 M783.4,300.6c0-1.5-0.7-2.2-1.8-2.2c-0.7,0-1.4,0.4-2,1.3c0.2,2.3,1.1,3.2,2.1,3.2C782.6,302.9,783.4,302.1,783.4,300.6z"/>
			<path class="st3" d="M786.9,295.7c0-2.5,1.2-3.9,3-3.9c1.8,0,3.1,1.4,3.1,3.9c0,2.5-1.3,4-3.1,4
				C788.1,299.7,786.9,298.2,786.9,295.7z M791.2,295.7c0-1.8-0.6-2.5-1.3-2.5s-1.3,0.7-1.3,2.5s0.6,2.6,1.3,2.6
				S791.2,297.5,791.2,295.7z M797.1,291.8h1.5l-6.8,13h-1.5L797.1,291.8z M796,300.8c0-2.5,1.3-4,3-4s3.1,1.4,3.1,4
				c0,2.5-1.3,4-3.1,4S796,303.3,796,300.8z M800.3,300.8c0-1.8-0.6-2.6-1.3-2.6s-1.3,0.7-1.3,2.6c0,1.8,0.6,2.6,1.3,2.6
				S800.3,302.6,800.3,300.8z"/>
		</g>
	</g>
</g>
<g>
	<g>
		<g>
			<path class="st15" d="M157,483.2v1.4h-13.4v-1.4h5.5v-11.4h1.5v4.5h5.4v1.4h-5.4v5.6h6.4V483.2z"/>
			<path class="st15" d="M165.8,473.8c-0.2,0.6-0.4,1.1-0.5,1.7h5.9v9.9h-1.4v-0.8h-9.1v0.8h-1.4v-9.9h4.6c0.1-0.5,0.2-1.1,0.3-1.7
				h-5.6v-1.3h13.3v1.3H165.8z M160.6,483.3h1.9v-6.5h-1.9V483.3z M166.5,476.7h-2.8v1.4h2.8V476.7z M166.5,479.3h-2.8v1.4h2.8
				V479.3z M163.7,483.3h2.8v-1.5h-2.8V483.3z M169.8,476.7h-2v6.5h2V476.7z"/>
			<path class="st15" d="M177.5,478.8c-0.2,1.3-0.7,2.7-1.4,3.8c0.3,0.1,0.6,0.4,1,0.6c1,0.6,2.4,0.7,4.2,0.7s4.3-0.1,6-0.3
				c-0.2,0.4-0.4,1.1-0.4,1.5c-1.1,0.1-3.9,0.2-5.7,0.2c-1.9,0-3.2-0.2-4.3-0.8c-0.6-0.3-1.1-0.8-1.5-0.8c-0.3,0-0.9,0.9-1.3,1.8
				l-0.9-1.3c0.4-0.6,0.9-1,1.3-1.4l0,0c0.6-0.8,1.2-1.9,1.5-3h-2.1c0.4-0.9,0.9-2.1,1.3-3.3h-1.7v-1.3h3.5
				c-0.4,1.1-0.9,2.3-1.3,3.3h0.8h0.2L177.5,478.8z M175.3,474.5c-0.2-0.6-0.8-1.7-1.1-2.5l1.2-0.4c0.4,0.8,0.9,1.8,1.2,2.4
				L175.3,474.5z M186.9,474.4h-9.4v-1.1h4.2c-0.2-0.4-0.5-1-0.8-1.4l1.3-0.4c0.4,0.5,0.8,1.2,1,1.6l-0.7,0.2h4.4V474.4z
				 M178.4,479.1h7.3v3.6h-7.3V479.1z M185.6,476.3h-7v-1h7V476.3z M178.6,477.2h7v1h-7V477.2z M179.8,481.7h4.6v-1.6h-4.6V481.7z"
				/>
			<path class="st15" d="M193.4,481.6c-1.6,0.7-3.3,1.4-4.6,1.9l-0.4-1.4c0.5-0.2,1.2-0.4,1.9-0.7v-4.9h-1.7v-1.3h1.7v-3.4h1.3v3.4
				h1.5v1.3h-1.5v4.4l1.5-0.6L193.4,481.6z M200.8,484c0.4,0,0.4-0.2,0.5-1.1c0.3,0.2,0.7,0.4,1.1,0.5c-0.1,1.4-0.5,1.7-1.5,1.7H199
				c-1.3,0-1.6-0.3-1.6-1.6v-4.3h-0.8c-0.2,2.7-0.8,4.9-3.1,6.1c-0.1-0.3-0.5-0.8-0.8-1c2.1-1,2.5-2.8,2.7-5.1h-1.6V473h1.5
				c0.2-0.5,0.4-1.1,0.5-1.5l1.5,0.2c-0.2,0.5-0.4,0.9-0.6,1.3h5v6.2h-3v4.3c0,0.4,0.1,0.5,0.6,0.5H200.8z M194.8,475.6h2.1v-1.4
				h-2.1V475.6z M194.8,478.1h2.1v-1.4h-2.1V478.1z M200.2,474.2h-2.1v1.4h2.1V474.2z M200.2,476.7h-2.1v1.4h2.1V476.7z M201.4,483
				c0-0.1-0.1-0.3-0.1-0.5c-1.9,0.2-2.2,0.3-2.4,0.4c-0.1-0.2-0.2-0.6-0.3-0.9c0.2,0,0.3-0.2,0.4-0.4c0.2-0.2,0.6-1.2,0.8-2.1
				l0.9,0.3c-0.3,0.8-0.6,1.5-1,2.2l1.3-0.1c-0.2-0.4-0.3-0.8-0.5-1.1l0.7-0.3c0.4,0.7,0.8,1.6,1,2.2L201.4,483z"/>
			<path class="st15" d="M216.7,473.9c0,0,0,0.5,0,0.7c-0.2,6.8-0.4,9.1-1,9.8c-0.4,0.5-0.7,0.6-1.3,0.7c-0.5,0.1-1.4,0-2.3,0
				c0-0.4-0.2-1-0.5-1.4c1,0.1,1.8,0.1,2.2,0.1c0.3,0,0.5,0,0.6-0.3c0.5-0.5,0.7-2.8,0.9-8.4h-3.5c-0.4,1-0.9,1.8-1.4,2.5
				c-0.2-0.2-0.8-0.6-1.1-0.8v6.9h-4.1v1.1H204v-11h1.7c0.2-0.7,0.4-1.7,0.5-2.4l1.5,0.3c-0.3,0.8-0.5,1.5-0.8,2.2h2.4v2.8
				c1-1.3,1.8-3.3,2.2-5.3l1.3,0.3c-0.2,0.7-0.4,1.4-0.6,2h4.5V473.9z M205.3,475.2v2.8h2.8v-2.8H205.3z M208.1,482.6v-3.3h-2.8v3.3
				H208.1z M213.1,481.4c-0.4-0.9-1.4-2.4-2.2-3.5l1.1-0.6c0.8,1,1.8,2.5,2.3,3.3L213.1,481.4z"/>
			<path class="st15" d="M229.7,475.5c-0.8,2.3-1.9,4.1-3.3,5.6c1.6,1.3,3.6,2.3,5.9,2.8c-0.3,0.3-0.7,0.9-0.9,1.3
				c-2.4-0.6-4.4-1.7-6-3.1c-1.7,1.4-3.7,2.5-6.1,3.2c-0.2-0.4-0.6-1-0.9-1.3c2.4-0.6,4.4-1.6,6-2.9c-1.5-1.5-2.6-3.4-3.4-5.6h-2.3
				v-1.4h6.5c-0.2-0.6-0.6-1.6-1-2.3l1.5-0.4c0.4,0.7,0.9,1.7,1.1,2.3l-1.3,0.4h6.7v1.4H229.7z M222.3,475.5c0.7,1.8,1.7,3.3,3,4.6
				c1.2-1.3,2.1-2.8,2.8-4.6H222.3z"/>
			<path class="st15" d="M246.7,480.9H241v2.8c0,0.8-0.2,1.2-0.8,1.4c-0.6,0.2-1.5,0.2-2.7,0.2c-0.1-0.4-0.4-1-0.6-1.4
				c0.9,0,2,0,2.3,0s0.4-0.1,0.4-0.3v-2.8h-5.7v-1.3h5.7v-0.9c0.8-0.4,1.6-1,2.3-1.5h-5.5v-1.3h6.9l0.3-0.1l0.9,0.7
				c-0.9,0.9-2.2,1.9-3.4,2.6v0.4h5.7L246.7,480.9L246.7,480.9z M235.3,476.3h-1.4v-3.2h5.7c-0.2-0.4-0.4-0.8-0.7-1.2l1.4-0.4
				c0.4,0.5,0.8,1.1,1,1.6h5.2v3.2h-1.4v-1.9h-9.8V476.3z"/>
			<path class="st15" d="M255.8,479.9c-0.1,0.3-0.2,0.6-0.3,0.9h5.5v3.2c0,0.6-0.1,0.9-0.5,1.1s-1,0.2-1.8,0.2
				c-0.1-0.3-0.2-0.8-0.4-1.2c0.5,0,1,0,1.2,0s0.2-0.1,0.2-0.2v-2.1h-2v3.3h-1.3v-3.3h-2v3.3h-1.3v-3.3h-1.9v3.4h-1.3v-4.5h4.3
				c0.1-0.3,0.2-0.6,0.3-0.9h-5.7v-1.1h13.1v1.1h-6.1V479.9z M250.2,477.4h-1.3v-3.3h5.7v-0.9h-5v-1H261v1h-5.1v0.9h5.8v3.3h-1.4
				v-2.2h-4.4v3.1h-1.4v-3.1h-4.3V477.4z M250.3,477.6c0.9-0.1,2.2-0.3,3.5-0.5v0.8c-1.1,0.2-2.2,0.5-3.2,0.7L250.3,477.6z
				 M251.1,475.4c0.9,0.2,2.1,0.5,2.7,0.7l-0.4,0.8c-0.6-0.3-1.8-0.6-2.8-0.8L251.1,475.4z M259.8,478.6c-0.8-0.3-2.3-0.6-3.5-0.8
				l0.3-0.8c1.1,0.1,2.6,0.4,3.5,0.7L259.8,478.6z M259.8,476c-0.8,0.3-2,0.6-2.8,0.8l-0.5-0.7c0.8-0.2,2-0.6,2.7-0.9L259.8,476z"/>
			<path class="st16" d="M273.9,481.2c-0.4,0.8-1,1.4-1.7,1.9c1.7,0.4,3.3,0.8,4.5,1.2l-1.3,1c-1.2-0.4-2.8-0.9-4.6-1.4
				c-1.7,0.8-3.9,1.2-6.8,1.4c-0.1-0.4-0.3-0.9-0.6-1.2c2-0.1,3.7-0.3,5.1-0.7c-1.1-0.2-2.1-0.4-3.3-0.6c0.4-0.5,0.8-1,1.2-1.6h-3
				V480h3.8c0.3-0.5,0.6-1,0.8-1.5l1.4,0.3c-0.2,0.4-0.4,0.8-0.7,1.2h4c0.1-0.3,0.2-0.6,0.3-0.9l1.3,0.4c-0.1,0.1-0.1,0.3-0.2,0.5
				h2.4v1.2H273.9z M267.8,473.4h-4v-1.2h12.9v1.2h-4.1v1.1h3.6v4h-11.6v-4h3.3L267.8,473.4L267.8,473.4z M265.8,477.3h2v-1.8h-2
				V477.3z M268.2,481.2c-0.2,0.3-0.4,0.6-0.7,0.9c1,0.2,2,0.4,3,0.6c0.7-0.4,1.3-0.9,1.8-1.5H268.2z M271.2,473.4h-2.1v1.1h2.1
				V473.4z M269.1,477.3h2.1v-1.8h-2.1V477.3z M272.5,475.6v1.8h2.2v-1.8H272.5z"/>
			<path class="st15" d="M290.4,481h1.8v1.1h-1.8v2c0,0.6-0.1,0.9-0.6,1.1s-1.2,0.2-2.2,0.2c-0.1-0.3-0.2-0.8-0.4-1.1
				c0.7,0,1.4,0,1.6,0s0.3-0.1,0.3-0.2v-2h-2.8c0.6,0.5,1.1,1.2,1.4,1.7l-1,0.7c-0.3-0.5-0.8-1.3-1.3-1.8l0.9-0.5h-1.6v0.8h-2.4v2.5
				h-1.2V483h-2.5v-1.2h2.5v-1h-2v-5.3h2v-1h-2.3v-1.2h2.3v-1.5h1.2v1.5h2.2v1.2h-2.2v1h2.1v5.3h-2.1v1h2.4V481h4.6v-0.7h1.3v0.7
				H290.4z M279.8,477.4h1.2v-1.1h-1.2V477.4z M279.8,479.5h1.2v-1.1h-1.2V479.5z M283.1,476.3h-1.2v1.1h1.2V476.3z M283.1,478.4
				h-1.2v1.1h1.2V478.4z M284.5,479.2c0.9,0,2,0,3.1,0v-0.9h-2.7v-3.9h2.7v-0.7h-3v-1h3v-1.1h1.2v1.1h3.1v1h-3.1v0.7h2.8v3.9h-0.8
				c0.6,0.6,1.1,1.3,1.4,1.8l-1,0.5c-0.1-0.2-0.2-0.4-0.4-0.6c-2.3,0.1-4.6,0.1-6.3,0.2L284.5,479.2z M286.1,475.9h1.6v-0.8h-1.6
				V475.9z M287.6,477.5v-0.8H286v0.8H287.6z M288.8,475.2v0.8h1.6v-0.8H288.8z M290.4,476.7h-1.6v0.8h1.6V476.7z M288.8,479.1h1.3
				c-0.2-0.2-0.3-0.4-0.5-0.6l0.5-0.2h-1.3V479.1z"/>
			<path class="st15" d="M299.8,473.7l1,0.3c-0.8,5.9-3,9.5-6.2,11.3c-0.2-0.3-0.8-0.9-1.2-1.2c1.7-0.9,3.2-2.2,4.2-4.1
				c-0.6-0.7-1.4-1.6-2.2-2.3c-0.3,0.5-0.6,0.9-0.9,1.3c-0.3-0.2-0.9-0.7-1.2-0.9c1.3-1.5,2.2-4,2.8-6.6l1.4,0.3
				c-0.1,0.7-0.3,1.3-0.5,2h2.5L299.8,473.7z M296.5,475.1c-0.2,0.5-0.4,1-0.6,1.4c0.7,0.6,1.6,1.5,2.2,2.1c0.4-1,0.7-2.2,0.9-3.6
				h-2.5V475.1z M303.7,476.1c1.2,1,2.8,2.4,3.5,3.4l-1.2,1c-0.6-0.8-1.8-2-2.8-3v7.9h-1.5v-13.8h1.5v4.9L303.7,476.1z"/>
			<path class="st15" d="M311,474.1h2.7v1.1h-5.3v-1.1H311c-0.3-0.6-0.7-1.4-1-2l1-0.6c0.4,0.6,0.9,1.4,1.1,2L311,474.1z
				 M313.3,484.5h-3.2v0.7H309v-5.1h4.3L313.3,484.5L313.3,484.5z M313.2,477.2H309v-1.1h4.2V477.2z M309,478.1h4.2v1.1H309V478.1z
				 M310.1,481.2v2.1h2v-2.1H310.1z M322.1,483.4v1.3h-8v-12.2h7.8v1.3h-6.5v9.7L322.1,483.4L322.1,483.4z M318.1,481v-2h-1.8v-1.2
				h1.8V476h-2v-1.2h5.2v1.2h-2v1.8h1.7v1.2h-1.7v2h2.2v1.2h-5.6V481H318.1z"/>
		</g>
	</g>
	<polygon class="st15" points="128,484.2 119.8,484.2 123.9,477.1 128,470 132.1,477.1 136.1,484.2 	"/>
	<g>
		<g>
			<path class="st15" d="M507.5,499.1v2.5l0.3-0.3c1.7,0.8,4.1,2.2,5.2,3.1l-1,1.3c-1-0.8-2.8-2-4.5-2.9v7.5H506v-11.2h-5.6v-1.4
				h13.2v1.4H507.5z"/>
			<path class="st15" d="M522.7,498.8c-0.2,0.6-0.4,1.1-0.5,1.7h5.9v9.9h-1.4v-0.8h-9.1v0.8h-1.4v-9.9h4.6c0.1-0.5,0.2-1.1,0.3-1.7
				h-5.6v-1.3h13.3v1.3H522.7z M517.5,508.3h1.9v-6.5h-1.9V508.3z M523.4,501.7h-2.8v1.4h2.8V501.7z M523.4,504.3h-2.8v1.4h2.8
				V504.3z M520.6,508.3h2.8v-1.5h-2.8V508.3z M526.6,501.7h-2v6.5h2V501.7z"/>
			<path class="st15" d="M534.3,503.8c-0.2,1.3-0.7,2.7-1.4,3.8c0.3,0.1,0.6,0.4,1,0.6c1,0.6,2.4,0.7,4.2,0.7s4.3-0.1,6-0.3
				c-0.2,0.4-0.4,1.1-0.4,1.5c-1.1,0.1-3.9,0.2-5.7,0.2c-1.9,0-3.2-0.2-4.3-0.8c-0.6-0.3-1.1-0.8-1.5-0.8c-0.3,0-0.9,0.9-1.3,1.8
				l-0.9-1.3c0.4-0.6,0.9-1,1.3-1.4l0,0c0.6-0.8,1.2-1.9,1.5-3h-2.1c0.4-0.9,0.9-2.1,1.3-3.3h-1.7v-1.3h3.5
				c-0.4,1.1-0.9,2.3-1.3,3.3h0.8h0.2L534.3,503.8z M532.2,499.5c-0.2-0.6-0.8-1.7-1.1-2.5l1.2-0.4c0.4,0.8,0.9,1.8,1.2,2.4
				L532.2,499.5z M543.8,499.4h-9.4v-1.1h4.2c-0.2-0.4-0.5-1-0.8-1.4l1.3-0.4c0.4,0.5,0.8,1.2,1,1.6l-0.7,0.2h4.4V499.4z
				 M535.3,504.1h7.3v3.6h-7.3V504.1z M542.5,501.3h-7v-1h7V501.3z M535.5,502.2h7v1h-7V502.2z M536.6,506.7h4.6v-1.6h-4.6V506.7z"
				/>
			<path class="st15" d="M550.2,506.6c-1.6,0.7-3.3,1.4-4.6,1.9l-0.4-1.4c0.5-0.2,1.2-0.4,1.9-0.7v-4.9h-1.7v-1.3h1.7v-3.4h1.3v3.4
				h1.5v1.3h-1.5v4.4l1.5-0.6L550.2,506.6z M557.7,509c0.4,0,0.4-0.2,0.5-1.1c0.3,0.2,0.7,0.4,1.1,0.5c-0.1,1.4-0.5,1.7-1.5,1.7
				h-1.9c-1.3,0-1.6-0.3-1.6-1.6v-4.3h-0.8c-0.2,2.7-0.8,4.9-3.1,6.1c-0.1-0.3-0.5-0.8-0.8-1c2.1-1,2.5-2.8,2.7-5.1h-1.6V498h1.5
				c0.2-0.5,0.4-1.1,0.5-1.5l1.5,0.2c-0.2,0.5-0.4,0.9-0.6,1.3h5v6.2h-3v4.3c0,0.4,0.1,0.5,0.6,0.5H557.7z M551.7,500.6h2.1v-1.4
				h-2.1V500.6z M551.7,503.1h2.1v-1.4h-2.1V503.1z M557.1,499.2H555v1.4h2.1V499.2z M557.1,501.7H555v1.4h2.1V501.7z M558.3,508
				c0-0.1-0.1-0.3-0.1-0.5c-1.9,0.2-2.2,0.3-2.4,0.4c-0.1-0.2-0.2-0.6-0.3-0.9c0.2,0,0.3-0.2,0.4-0.4c0.2-0.2,0.6-1.2,0.8-2.1
				l0.9,0.3c-0.3,0.8-0.6,1.5-1,2.2l1.3-0.1c-0.2-0.4-0.3-0.8-0.5-1.1l0.7-0.3c0.4,0.7,0.8,1.6,1,2.2L558.3,508z"/>
			<path class="st15" d="M573.5,498.9c0,0,0,0.5,0,0.7c-0.2,6.8-0.4,9.1-1,9.8c-0.4,0.5-0.7,0.6-1.3,0.7c-0.5,0.1-1.4,0-2.3,0
				c0-0.4-0.2-1-0.5-1.4c1,0.1,1.8,0.1,2.2,0.1c0.3,0,0.5,0,0.6-0.3c0.5-0.5,0.7-2.8,0.9-8.4h-3.5c-0.4,1-0.9,1.8-1.4,2.5
				c-0.2-0.2-0.8-0.6-1.1-0.8v6.9H562v1.1h-1.3v-11h1.7c0.2-0.7,0.4-1.7,0.5-2.4l1.5,0.3c-0.3,0.8-0.5,1.5-0.8,2.2h2.4v2.8
				c1-1.3,1.8-3.3,2.2-5.3l1.3,0.3c-0.2,0.7-0.4,1.4-0.6,2h4.6V498.9z M562.1,500.2v2.8h2.8v-2.8H562.1z M564.9,507.6v-3.3h-2.8v3.3
				H564.9z M569.9,506.4c-0.4-0.9-1.4-2.4-2.2-3.5l1.1-0.6c0.8,1,1.8,2.5,2.3,3.3L569.9,506.4z"/>
			<path class="st15" d="M586.5,500.5c-0.8,2.3-1.9,4.1-3.3,5.6c1.6,1.3,3.6,2.3,5.9,2.8c-0.3,0.3-0.7,0.9-0.9,1.3
				c-2.4-0.6-4.4-1.7-6-3.1c-1.7,1.4-3.7,2.5-6.1,3.2c-0.2-0.4-0.6-1-0.9-1.3c2.4-0.6,4.4-1.6,6-2.9c-1.5-1.5-2.6-3.4-3.4-5.6h-2.3
				v-1.4h6.5c-0.2-0.6-0.6-1.6-1-2.3l1.5-0.4c0.4,0.7,0.9,1.7,1.1,2.3l-1.3,0.4h6.7v1.4H586.5z M579.1,500.5c0.7,1.8,1.7,3.3,3,4.6
				c1.2-1.3,2.1-2.8,2.8-4.6H579.1z"/>
			<path class="st15" d="M603.5,505.9h-5.7v2.8c0,0.8-0.2,1.2-0.8,1.4c-0.6,0.2-1.5,0.2-2.7,0.2c-0.1-0.4-0.4-1-0.6-1.4
				c0.9,0,2,0,2.3,0s0.4-0.1,0.4-0.3v-2.8h-5.7v-1.3h5.7v-0.9c0.8-0.4,1.6-1,2.3-1.5h-5.5v-1.3h6.9l0.3-0.1l0.9,0.7
				c-0.9,0.9-2.2,1.9-3.4,2.6v0.4h5.7v1.5H603.5z M592.1,501.3h-1.4v-3.2h5.7c-0.2-0.4-0.4-0.8-0.7-1.2l1.4-0.4
				c0.4,0.5,0.8,1.1,1,1.6h5.2v3.2h-1.4v-1.9h-9.8V501.3z"/>
			<path class="st17" d="M616.3,496.3c-0.4,0.6-0.8,1.3-1.3,2v12.4h-1.9v-10c-1.8,2-4,3.8-6.5,5.1c-0.3-0.5-0.8-1.2-1.2-1.6
				c3.6-1.8,6.7-4.8,8.5-7.9h-8v-1.8h16.3v1.8H616.3z M616.4,499.2c2.1,1.4,5,3.6,6.4,5l-1.5,1.4c-1.3-1.5-4.1-3.7-6.2-5.3
				L616.4,499.2z"/>
			<path class="st17" d="M637.7,505.4c-0.6,0.9-1.3,1.7-2.1,2.4c2.2,0.5,4.2,1.1,5.6,1.6l-1.6,1.2c-1.5-0.6-3.5-1.2-5.8-1.7
				c-2.1,1-5,1.5-8.6,1.8c-0.1-0.5-0.4-1.2-0.7-1.5c2.6-0.1,4.7-0.4,6.5-0.9c-1.3-0.3-2.7-0.5-4.1-0.8c0.5-0.6,1-1.3,1.6-2.1h-3.9
				v-1.5h4.8c0.4-0.6,0.8-1.3,1-1.9l1.8,0.4c-0.2,0.5-0.5,1-0.8,1.5h5.1c0.2-0.3,0.3-0.7,0.4-1.1l1.7,0.5c-0.1,0.2-0.2,0.4-0.2,0.6
				h3.1v1.5H637.7z M630,495.5h-5.1V494h16.3v1.5H636v1.4h4.5v5h-14.7v-5h4.1v-1.4H630z M627.5,500.5h2.5v-2.2h-2.5V500.5z
				 M630.5,505.4c-0.3,0.4-0.6,0.8-0.8,1.2c1.3,0.2,2.5,0.5,3.8,0.7c0.9-0.5,1.6-1.1,2.2-1.9L630.5,505.4L630.5,505.4z M634.3,495.5
				h-2.7v1.4h2.7V495.5z M631.6,500.5h2.7v-2.2h-2.7V500.5z M636,498.3v2.2h2.8v-2.2H636z"/>
			<path class="st15" d="M655.2,506h1.8v1.1h-1.8v2c0,0.6-0.1,0.9-0.6,1.1s-1.2,0.2-2.2,0.2c-0.1-0.3-0.2-0.8-0.4-1.1
				c0.7,0,1.4,0,1.6,0c0.2,0,0.3-0.1,0.3-0.2v-2h-2.8c0.6,0.5,1.1,1.2,1.4,1.7l-1,0.7c-0.3-0.5-0.8-1.3-1.3-1.8l0.9-0.5h-1.6v0.8
				h-2.4v2.5h-1.2V508h-2.5v-1.2h2.5v-1h-2v-5.3h2v-1h-2.3v-1.2h2.3v-1.5h1.2v1.5h2.2v1.2h-2.2v1h2.1v5.3h-2.1v1h2.4V506h4.6v-0.7
				h1.3v0.7H655.2z M644.7,502.4h1.2v-1.1h-1.2V502.4z M644.7,504.5h1.2v-1.1h-1.2V504.5z M648,501.3h-1.2v1.1h1.2V501.3z
				 M648,503.4h-1.2v1.1h1.2V503.4z M649.3,504.2c0.9,0,2,0,3.1,0v-0.9h-2.7v-3.9h2.7v-0.7h-3v-1h3v-1.1h1.2v1.1h3.1v1h-3.1v0.7h2.8
				v3.9h-0.8c0.6,0.6,1.1,1.3,1.4,1.8l-1,0.5c-0.1-0.2-0.2-0.4-0.4-0.6c-2.3,0.1-4.6,0.1-6.3,0.2V504.2z M650.9,500.9h1.6v-0.8h-1.6
				V500.9z M652.5,502.5v-0.8h-1.6v0.8H652.5z M653.7,500.2v0.8h1.6v-0.8H653.7z M655.3,501.7h-1.6v0.8h1.6V501.7z M653.7,504.1h1.3
				c-0.2-0.2-0.3-0.4-0.5-0.6l0.5-0.2h-1.3V504.1z"/>
			<path class="st15" d="M664.6,498.7l1,0.3c-0.8,5.9-3,9.5-6.2,11.3c-0.2-0.3-0.8-0.9-1.2-1.2c1.7-0.9,3.2-2.2,4.2-4.1
				c-0.6-0.7-1.4-1.6-2.2-2.3c-0.3,0.5-0.6,0.9-0.9,1.3c-0.3-0.2-0.9-0.7-1.2-0.9c1.3-1.5,2.2-4,2.8-6.6l1.4,0.3
				c-0.1,0.7-0.3,1.3-0.5,2h2.5L664.6,498.7z M661.4,500.1c-0.2,0.5-0.4,1-0.6,1.4c0.7,0.6,1.6,1.5,2.2,2.1c0.4-1,0.7-2.2,0.9-3.6
				h-2.5V500.1z M668.6,501.1c1.2,1,2.8,2.4,3.5,3.4l-1.2,1c-0.6-0.8-1.8-2-2.8-3v7.9h-1.5v-13.8h1.5v4.9L668.6,501.1z"/>
			<path class="st15" d="M675.8,499.1h2.7v1.1h-5.3v-1.1H675.8c-0.3-0.6-0.7-1.4-1-2l1-0.6c0.4,0.6,0.9,1.4,1.1,2L675.8,499.1z
				 M678.1,509.5h-3.2v0.7h-1.1v-5.1h4.3V509.5z M678,502.2h-4.2v-1.1h4.2V502.2z M673.8,503.1h4.2v1.1h-4.2V503.1z M674.9,506.2
				v2.1h2v-2.1H674.9z M686.9,508.4v1.3h-8v-12.2h7.8v1.3h-6.5v9.7L686.9,508.4L686.9,508.4z M682.9,506v-2h-1.8v-1.2h1.8V501h-2
				v-1.2h5.2v1.2h-2v1.8h1.7v1.2h-1.7v2h2.2v1.2h-5.6V506H682.9z"/>
			<path class="st15" d="M689.7,505.5c1.2-0.4,1.8-1.1,1.9-2c-0.1,0-0.1,0-0.2,0c-0.7,0-1.3-0.4-1.3-1.2c0-0.8,0.6-1.2,1.3-1.2
				c0.9,0,1.4,0.7,1.4,1.9c0,1.7-1,3-2.8,3.5L689.7,505.5z"/>
			<path class="st15" d="M702,506.1c-2,0.9-4.2,1.9-5.9,2.6l-0.5-1.5c0.6-0.2,1.3-0.5,2-0.8l-0.3-9l1.5-0.1l0.3,8.5
				c0.9-0.4,1.8-0.7,2.6-1.1L702,506.1z M708.4,510.3c-0.6-1-1.9-2.5-3.1-3.8c-1.1,1.7-2.7,2.9-4.9,3.9c-0.2-0.3-0.8-0.9-1.1-1.2
				c5-1.8,6.5-5.5,7.2-11.8l1.5,0.1c-0.3,3.2-0.9,5.7-1.9,7.7c1.3,1.3,2.8,2.9,3.5,4L708.4,510.3z M702.8,502.7
				c-0.4-1-1.3-2.6-2.3-3.7l1.3-0.6c1,1.1,1.9,2.5,2.4,3.6L702.8,502.7z"/>
			<path class="st15" d="M715.2,500.1c-0.3,0.7-0.8,1.4-1.2,2v8.2h-1.3v-6.6c-0.4,0.4-0.8,0.8-1.2,1.2c-0.1-0.3-0.5-1-0.8-1.3
				c1.2-1,2.5-2.5,3.3-4L715.2,500.1z M714.9,497c-0.8,1.3-2.2,2.7-3.4,3.6c-0.2-0.3-0.5-0.8-0.7-1c1.1-0.8,2.2-2,2.8-3.1L714.9,497
				z M723.2,504.6c-0.6,1.4-1.5,2.5-2.7,3.4c1.1,0.5,2.4,0.9,3.8,1.2c-0.3,0.3-0.7,0.9-0.8,1.2c-1.6-0.3-2.9-0.8-4.2-1.5
				c-1.3,0.7-2.7,1.2-4.2,1.6c-0.1-0.3-0.4-0.9-0.7-1.2c1.3-0.2,2.6-0.6,3.7-1.2c-0.5-0.4-0.9-0.8-1.4-1.2c-0.3,0.3-0.7,0.6-1.1,0.9
				c-0.2-0.3-0.7-0.8-0.9-1c0.4-0.2,0.8-0.6,1.2-0.9c-0.3-0.4-0.5-0.8-0.8-1.2l1.1-0.4c0.1,0.3,0.3,0.5,0.5,0.8
				c0.5-0.5,0.9-1.1,1.2-1.7c-1.9,0.1-2.3,0.2-2.6,0.3c0-0.3-0.3-0.9-0.4-1.3c0.4-0.1,1-0.3,1.7-0.7c0.3-0.2,0.9-0.5,1.7-1
				c-1.9,0.1-2.3,0.2-2.6,0.3c-0.1-0.3-0.3-1-0.5-1.3c0.3-0.1,0.6-0.3,1-0.5c0.4-0.3,1.7-1.3,2.5-2.3l1.4,0.6
				c-0.8,0.8-1.8,1.6-2.7,2.2l2.4-0.1c0.6-0.5,1.3-1,1.8-1.5l1.3,0.7c-1.6,1.4-3.4,2.5-5.1,3.5l4-0.2c-0.3-0.4-0.6-0.8-0.8-1.1
				l1.1-0.6c0.8,1,1.9,2.4,2.4,3.2l-1.2,0.7c-0.2-0.3-0.4-0.8-0.7-1.2l-3.1,0.2c-0.2,0.4-0.4,0.7-0.6,1.1h3.3l0.2-0.1L723.2,504.6z
				 M718,505.4c-0.1,0.2-0.3,0.4-0.5,0.6c0.5,0.5,1.1,1,1.8,1.4c0.8-0.5,1.5-1.2,2.1-2H718z"/>
			<path class="st15" d="M731.5,500.4c0,0.7-0.1,1.4-0.2,2.1h6.4c0,0,0,0.4-0.1,0.6c-0.3,4.1-0.6,5.8-1.2,6.4
				c-0.4,0.4-0.8,0.5-1.4,0.6c-0.6,0-1.5,0-2.5,0c0-0.4-0.2-1-0.5-1.4c1.1,0.1,2.1,0.1,2.5,0.1c0.3,0,0.5,0,0.7-0.2
				c0.4-0.3,0.7-1.7,0.9-4.8H731c-0.5,2.6-1.6,5-4.3,6.5c-0.2-0.4-0.6-0.9-1-1.1c3.7-1.9,4.1-5.5,4.2-8.8H726V499h6.4
				c-0.2-0.6-0.6-1.5-0.9-2.1l1.4-0.5c0.4,0.7,0.9,1.6,1.1,2.2l-1,0.4h6.2v1.4L731.5,500.4L731.5,500.4z"/>
			<path class="st15" d="M745.1,497c-0.4,1.1-0.9,2.2-1.4,3.3v10h-1.3v-7.8c-0.3,0.5-0.7,0.9-1,1.3c-0.1-0.3-0.5-1.1-0.8-1.4
				c1.3-1.4,2.5-3.6,3.2-5.8L745.1,497z M750.2,505.5c-0.1,0.9-0.5,1.7-1,2.4c1.5,0.6,3.4,0.9,5.5,1c-0.3,0.3-0.7,0.9-0.8,1.3
				c-2.2-0.2-4.1-0.6-5.6-1.3c-0.8,0.6-1.8,1.1-3.2,1.5c-0.2-0.3-0.6-0.9-0.9-1.1c1.2-0.3,2.1-0.6,2.8-1c-0.8-0.5-1.5-1.2-2-2
				l1.2-0.4c0.4,0.6,1,1.1,1.8,1.5c0.5-0.6,0.8-1.2,0.9-1.9h-3.4v-5.8h3.6v-1.1h-3.9v-1.2h9.1v1.2h-3.9v1.1h3.5v5.8H750.2z
				 M746.7,502.1h2.3v-1.3h-2.3V502.1z M748.9,504.5c0-0.2,0-0.5,0-0.7v-0.6h-2.3v1.4L748.9,504.5L748.9,504.5z M752.4,503.1h-2.1
				v0.7c0,0.2,0,0.5,0,0.7h2.1V503.1z M750.3,500.8v1.3h2.1v-1.3H750.3z"/>
			<path class="st15" d="M757.3,506.4c-0.2,1.3-0.4,2.7-0.7,3.6c-0.2-0.1-0.8-0.3-1-0.4c0.3-0.9,0.5-2.2,0.6-3.4L757.3,506.4z
				 M756,502.2C756,502.2,756,502.3,756,502.2c-0.1-0.2-0.3-0.8-0.4-1.1c0.3-0.1,0.5-0.4,0.8-0.8c0.3-0.5,1.3-2.1,1.8-3.7l1.2,0.5
				c-0.6,1.3-1.3,2.7-2.1,3.8l1.3-0.1c0.4-0.7,0.8-1.4,1.1-2.1l1.1,0.7c-0.9,1.7-2,3.4-3.2,4.8l2.2-0.3c-0.2-0.5-0.3-0.9-0.5-1.4
				l0.9-0.3c0.4,0.9,0.9,2.1,1,2.8l-1,0.4c0-0.2-0.1-0.3-0.1-0.5c-3.2,0.5-3.6,0.6-3.9,0.8c-0.1-0.3-0.3-0.9-0.4-1.2
				c0.3-0.1,0.7-0.5,1.1-1c0.2-0.3,0.7-0.8,1.2-1.6C756.5,502.1,756.2,502.1,756,502.2L756,502.2z M758.7,506.1
				c0.2,1,0.3,2.2,0.4,3.1l-1,0.3c0-0.9-0.2-2.1-0.3-3.1L758.7,506.1z M762.6,502.8c-0.1,2.4-0.3,5.4-1.1,7.5
				c-0.3-0.2-0.8-0.5-1.1-0.6c0.2-0.5,0.3-1,0.5-1.5l-0.8,0.3c-0.1-0.7-0.4-1.7-0.7-2.4l0.9-0.3c0.2,0.6,0.5,1.4,0.6,2
				c0.5-2.2,0.5-4.7,0.5-6.5v-3.7c2.2-0.2,4.8-0.6,6.2-1l1,0.9c-1.6,0.5-3.9,0.8-6,1v0.8h6v3.5L762.6,502.8L762.6,502.8z
				 M768.9,509.2c0,0.5-0.1,0.7-0.4,0.9c-0.3,0.2-0.6,0.2-1.2,0.2c0-0.3-0.1-0.7-0.3-1c0.3,0,0.5,0,0.6,0s0.1,0,0.1-0.1v-1.8H767
				v2.8h-0.8v-2.8h-0.9v2.8h-0.8v-2.8h-0.9v3h-1v-6.7h6.3L768.9,509.2L768.9,509.2z M762.7,500.4v0.9v0.4h4.7v-1.3H762.7z
				 M764.5,506.2v-1.5h-0.9v1.5H764.5z M766.2,506.2v-1.5h-0.9v1.5H766.2z M767.8,506.2v-1.5H767v1.5H767.8z"/>
			<path class="st15" d="M783.7,502.2v5.4h0.8v1.2h-0.8v1.6h-1.3v-1.6h-5.5v-0.9h-2.3v2.5h-1.2v-2.5h-2.6v-1.2h2.6v-1.1h-2.1v-5.3
				h2.1v-1h-2.5v-1.2h2.5v-1.5h1.2v1.5h2.4v1.2h-2.4v1h2.2v5.3h-2.2v1.1h2.6v0.9h0.8v-5.4h-0.9v-1.1h7.4v1.1H783.7z M772.2,502.4
				h1.2v-1.1h-1.2V502.4z M772.2,504.5h1.2v-1.1h-1.2V504.5z M775.7,501.3h-1.2v1.1h1.2V501.3z M775.7,503.4h-1.2v1.1h1.2V503.4z
				 M783.7,500.3h-5.8V497h5.8V500.3z M782.3,498.1h-3.1v1.2h3.1V498.1z M782.4,502.2h-3.1v1.1h3.1V502.2z M782.4,504.3h-3.1v1.1
				h3.1V504.3z M782.4,507.6v-1.1h-3.1v1.1H782.4z"/>
		</g>
	</g>
	<polygon class="st15" points="484.8,495 493,495 488.9,502.1 484.8,509.2 480.8,502.1 476.7,495 	"/>
</g>
</svg>
