<?xml version="1.0" encoding="utf-8"?>
<!-- Generator: Adobe Illustrator 22.1.0, SVG Export Plug-In . SVG Version: 6.00 Build 0)  -->
<svg version="1.1" id="圖層_1" xmlns="http://www.w3.org/2000/svg" xmlns:xlink="http://www.w3.org/1999/xlink" x="0px" y="0px"
	 viewBox="0 0 950 301.7" style="enable-background:new 0 0 950 301.7;" xml:space="preserve">
<style type="text/css">
	.st0{fill:#382F4D;}
	.st1{opacity:0.12;}
	.st2{fill:none;stroke:#FFFFFF;stroke-miterlimit:10;}
	.st3{fill:#BF6A8E;}
	.st4{fill:#34B5E8;}
	.st5{fill:none;stroke:#BF6A8E;stroke-width:2;stroke-miterlimit:10;}
	.st6{enable-background:new    ;}
	.st7{fill:#FFFFFF;}
	.st8{fill:#F3FF00;}
	.st9{fill:#FF80F3;}
</style>
<rect x="-11" y="-353" class="st0" width="1016" height="320"/>
<g>
	<g class="st1">
		<line class="st2" x1="55.2" y1="395.9" x2="950" y2="395.9"/>
		<line class="st2" x1="55.2" y1="425.2" x2="950" y2="425.2"/>
		<line class="st2" x1="55.2" y1="454.6" x2="950" y2="454.6"/>
		<line class="st2" x1="55.2" y1="483.9" x2="950" y2="483.9"/>
		<line class="st2" x1="55.2" y1="513.2" x2="950" y2="513.2"/>
		<line class="st2" x1="55.2" y1="542.6" x2="950" y2="542.6"/>
		<line class="st2" x1="55.2" y1="571.9" x2="950" y2="571.9"/>
		<line class="st2" x1="55.2" y1="601.2" x2="950" y2="601.2"/>
		<line class="st2" x1="55.2" y1="630.6" x2="950" y2="630.6"/>
		<line class="st2" x1="55.2" y1="659.9" x2="950" y2="659.9"/>
	</g>
	<g>
		<g>
			
				<text transform="matrix(1 0 0 1 0.481 400.4)" class="st7" style="font-family:'SourceHanSansTW-Medium-B5pc-H'; font-size:12px;">16.00%</text>
		</g>
		<g>
			
				<text transform="matrix(1 0 0 1 0.481 429.678)" class="st7" style="font-family:'SourceHanSansTW-Medium-B5pc-H'; font-size:12px;">14.00%</text>
		</g>
		<g>
			
				<text transform="matrix(1 0 0 1 0.481 458.9556)" class="st7" style="font-family:'SourceHanSansTW-Medium-B5pc-H'; font-size:12px;">12.00%</text>
		</g>
		<g>
			
				<text transform="matrix(1 0 0 1 0.481 488.2334)" class="st7" style="font-family:'SourceHanSansTW-Medium-B5pc-H'; font-size:12px;">10.00%</text>
		</g>
		<g>
			
				<text transform="matrix(1 0 0 1 7.3214 517.5111)" class="st7" style="font-family:'SourceHanSansTW-Medium-B5pc-H'; font-size:12px;">8.00%</text>
		</g>
		<g>
			
				<text transform="matrix(1 0 0 1 7.3214 546.7888)" class="st7" style="font-family:'SourceHanSansTW-Medium-B5pc-H'; font-size:12px;">6.00%</text>
		</g>
		<g>
			
				<text transform="matrix(1 0 0 1 7.3214 576.0667)" class="st7" style="font-family:'SourceHanSansTW-Medium-B5pc-H'; font-size:12px;">4.00%</text>
		</g>
		<g>
			
				<text transform="matrix(1 0 0 1 7.3214 605.3445)" class="st7" style="font-family:'SourceHanSansTW-Medium-B5pc-H'; font-size:12px;">2.00%</text>
		</g>
		<g>
			
				<text transform="matrix(1 0 0 1 7.3214 634.6223)" class="st7" style="font-family:'SourceHanSansTW-Medium-B5pc-H'; font-size:12px;">0.00%</text>
		</g>
		<g>
			
				<text transform="matrix(1 0 0 1 3.0372 663.9001)" class="st7" style="font-family:'SourceHanSansTW-Medium-B5pc-H'; font-size:12px;">-2.00%</text>
		</g>
	</g>
	<g>
		<g>
			
				<text transform="matrix(1 0 0 1 285.2466 567.7332)" class="st3" style="font-family:'SourceHanSansTW-Medium-B5pc-H'; font-size:15px;">3.30%</text>
		</g>
		<g>
			
				<text transform="matrix(1 0 0 1 464.4349 531.6501)" class="st3" style="font-family:'SourceHanSansTW-Medium-B5pc-H'; font-size:15px;">6.12%</text>
		</g>
		<g>
			
				<text transform="matrix(1 0 0 1 655.2905 408.5665)" class="st3" style="font-family:'SourceHanSansTW-Medium-B5pc-H'; font-size:15px;">14.11%</text>
		</g>
		<g>
			
				<text transform="matrix(1 0 0 1 833.5536 406.9)" class="st3" style="font-family:'SourceHanSansTW-Medium-B5pc-H'; font-size:15px;">14.29%</text>
		</g>
		<g>
			
				<text transform="matrix(1 0 0 1 112.1548 653.2334)" class="st3" style="font-family:'SourceHanSansTW-Medium-B5pc-H'; font-size:15px;">-0.15%</text>
		</g>
	</g>
	<g>
		<g>
			
				<text transform="matrix(1 0 0 1 79.7779 683.9849)" class="st7" style="font-family:'SourceHanSansTW-Medium-B5pc-H'; font-size:15px;">(殖利率)最低五等分</text>
		</g>
	</g>
	<g>
		<g>
			
				<text transform="matrix(1 0 0 1 270.8657 683.9849)" class="st7" style="font-family:'SourceHanSansTW-Medium-B5pc-H'; font-size:15px;">第二高的五等分</text>
		</g>
	</g>
	<g>
		<g>
			
				<text transform="matrix(1 0 0 1 450.1 683.9849)" class="st7" style="font-family:'SourceHanSansTW-Medium-B5pc-H'; font-size:15px;">第三高的五等分</text>
		</g>
	</g>
	<g>
		<g>
			
				<text transform="matrix(1 0 0 1 629.1677 683.9849)" class="st7" style="font-family:'SourceHanSansTW-Medium-B5pc-H'; font-size:15px;">第四高的五等分</text>
		</g>
	</g>
	<g>
		<g>
			
				<text transform="matrix(1 0 0 1 814.9304 683.9849)" class="st7" style="font-family:'SourceHanSansTW-Medium-B5pc-H'; font-size:15px;">最高的五等分</text>
		</g>
	</g>
	<g>
		<g>
			
				<text transform="matrix(1 0 0 1 150.0194 451.0623)" class="st3" style="font-family:'SourceHanSansTW-Bold-B5pc-H'; font-size:17px;">對沖策略指數未來12個月的</text>
			
				<text transform="matrix(1 0 0 1 150.0194 471.4623)" class="st3" style="font-family:'SourceHanSansTW-Bold-B5pc-H'; font-size:17px;">年化的超額報酬</text>
		</g>
		<g>
			<circle class="st3" cx="128.6" cy="444.1" r="3.8"/>
			<rect x="117.2" y="442.6" class="st3" width="22.8" height="2.8"/>
		</g>
	</g>
	<g>
		<rect x="117.2" y="494.2" class="st4" width="22.8" height="6.8"/>
		<g>
			
				<text transform="matrix(1 0 0 1 150.0194 503.0667)" class="st4" style="font-family:'SourceHanSansTW-Bold-B5pc-H'; font-size:17px;">平均值利率</text>
		</g>
	</g>
	<g>
		<rect x="86" y="611.9" class="st4" width="118.3" height="17.7"/>
		<rect x="264.2" y="596.7" class="st4" width="118.3" height="32.8"/>
		<rect x="443.5" y="569.7" class="st4" width="118.3" height="59.8"/>
		<rect x="622.5" y="551.7" class="st4" width="118.3" height="77.8"/>
		<rect x="800.8" y="532.1" class="st4" width="118.3" height="97.5"/>
	</g>
	<g>
		<circle class="st3" cx="145.1" cy="631.6" r="4.9"/>
		<circle class="st3" cx="323.4" cy="582" r="4.9"/>
		<circle class="st3" cx="502.6" cy="539.9" r="4.9"/>
		<circle class="st3" cx="681.7" cy="422.9" r="4.9"/>
		<circle class="st3" cx="859.9" cy="419.9" r="4.9"/>
	</g>
	<polyline class="st5" points="143.8,631.6 323.4,582 502.6,539.9 680.8,422.9 859.9,419.9 	"/>
	<g>
		<g>
			<text transform="matrix(1 0 0 1 98.7736 626.4)" style="font-family:'SourceHanSansTW-Medium-B5pc-H'; font-size:15px;">1.19%</text>
		</g>
		<g>
			<text transform="matrix(1 0 0 1 304.2634 618.1499)" style="font-family:'SourceHanSansTW-Medium-B5pc-H'; font-size:15px;">2.34%</text>
		</g>
		<g>
			<text transform="matrix(1 0 0 1 484.2073 605.3447)" style="font-family:'SourceHanSansTW-Medium-B5pc-H'; font-size:15px;">4.06%</text>
		</g>
		<g>
			<text transform="matrix(1 0 0 1 664.1777 593.6504)" style="font-family:'SourceHanSansTW-Medium-B5pc-H'; font-size:15px;">5.3%</text>
		</g>
		<g>
			<text transform="matrix(1 0 0 1 842.745 581.9834)" style="font-family:'SourceHanSansTW-Medium-B5pc-H'; font-size:15px;">6.70%</text>
		</g>
	</g>
	<rect y="389.6" class="st2" width="950" height="301.7"/>
</g>
<g>
	<g class="st1">
		<line class="st2" x1="55.2" y1="6.3" x2="950" y2="6.3"/>
		<line class="st2" x1="55.2" y1="35.6" x2="950" y2="35.6"/>
		<line class="st2" x1="55.2" y1="65" x2="950" y2="65"/>
		<line class="st2" x1="55.2" y1="94.3" x2="950" y2="94.3"/>
		<line class="st2" x1="55.2" y1="123.6" x2="950" y2="123.6"/>
		<line class="st2" x1="55.2" y1="153" x2="950" y2="153"/>
		<line class="st2" x1="55.2" y1="182.3" x2="950" y2="182.3"/>
		<line class="st2" x1="55.2" y1="211.6" x2="950" y2="211.6"/>
		<line class="st2" x1="55.2" y1="241" x2="950" y2="241"/>
		<line class="st2" x1="55.2" y1="270.3" x2="950" y2="270.3"/>
	</g>
	<g>
		<g>
			<g class="st6">
				<path class="st7" d="M1.5,9.7h1.9V3.5H1.9V2.6C2.7,2.5,3.3,2.3,3.8,2h1v7.7h1.7v1.1h-5V9.7z"/>
				<path class="st7" d="M12.7,3.6c-0.3-0.4-0.9-0.7-1.4-0.7c-1.1,0-2.1,0.9-2.1,3.4c0.5-0.6,1.3-1,1.9-1c1.5,0,2.5,0.9,2.5,2.8
					c0,1.8-1.2,2.9-2.6,2.9c-1.7,0-3-1.4-3-4.4c0-3.4,1.6-4.7,3.3-4.7c1,0,1.7,0.4,2.2,0.9L12.7,3.6z M12.4,8.1
					c0-1.1-0.5-1.8-1.5-1.8c-0.5,0-1.1,0.3-1.6,1C9.4,9.1,10,9.9,11,9.9C11.8,9.9,12.4,9.2,12.4,8.1z"/>
				<path class="st7" d="M15,10c0-0.6,0.4-1,0.9-1s0.9,0.4,0.9,1s-0.4,1-0.9,1S15,10.6,15,10z"/>
				<path class="st7" d="M18.3,6.4c0-3.1,1.1-4.5,2.9-4.5c1.7,0,2.9,1.5,2.9,4.5c0,3.1-1.1,4.6-2.9,4.6C19.4,11,18.3,9.4,18.3,6.4z
					 M22.7,6.4c0-2.5-0.6-3.5-1.5-3.5s-1.5,0.9-1.5,3.5c0,2.6,0.6,3.5,1.5,3.5S22.7,8.9,22.7,6.4z"/>
				<path class="st7" d="M25.1,6.4c0-3.1,1.1-4.5,2.9-4.5c1.7,0,2.9,1.5,2.9,4.5c0,3.1-1.1,4.6-2.9,4.6C26.3,11,25.1,9.4,25.1,6.4z
					 M29.5,6.4c0-2.5-0.6-3.5-1.5-3.5s-1.5,0.9-1.5,3.5c0,2.6,0.6,3.5,1.5,3.5S29.5,8.9,29.5,6.4z"/>
				<path class="st7" d="M31.8,4.6c0-1.8,0.8-2.8,2.1-2.8s2.1,1,2.1,2.8c0,1.8-0.8,2.8-2.1,2.8S31.8,6.4,31.8,4.6z M35,4.6
					c0-1.4-0.4-2-1.1-2c-0.6,0-1.1,0.6-1.1,2c0,1.4,0.4,2,1.1,2C34.5,6.6,35,5.9,35,4.6z M39,1.8h0.9L35.1,11h-0.9L39,1.8z
					 M38.1,8.2c0-1.8,0.8-2.8,2.1-2.8c1.2,0,2.1,1,2.1,2.8S41.4,11,40.2,11C38.9,11,38.1,9.9,38.1,8.2z M41.2,8.2c0-1.4-0.4-2-1.1-2
					c-0.6,0-1.1,0.6-1.1,2c0,1.4,0.4,2,1.1,2C40.8,10.2,41.2,9.5,41.2,8.2z"/>
			</g>
		</g>
		<g>
			<g class="st6">
				<path class="st7" d="M1.5,38.9h1.9v-6.1H1.9v-0.9c0.8-0.2,1.4-0.4,1.9-0.7h1v7.7h1.7v1.1h-5V38.9z"/>
				<path class="st7" d="M13.8,37.7h-1.1v2.4h-1.3v-2.4H7.6v-0.9l3.5-5.5h1.6v5.4h1.1V37.7z M11.4,36.6v-2.3c0-0.5,0-1.2,0.1-1.7h0
					c-0.2,0.4-0.5,0.9-0.7,1.4L9,36.6H11.4z"/>
				<path class="st7" d="M15,39.3c0-0.6,0.4-1,0.9-1s0.9,0.4,0.9,1s-0.4,1-0.9,1S15,39.8,15,39.3z"/>
				<path class="st7" d="M18.3,35.6c0-3.1,1.1-4.5,2.9-4.5c1.7,0,2.9,1.5,2.9,4.5c0,3.1-1.1,4.6-2.9,4.6
					C19.4,40.2,18.3,38.7,18.3,35.6z M22.7,35.6c0-2.5-0.6-3.5-1.5-3.5s-1.5,0.9-1.5,3.5c0,2.6,0.6,3.5,1.5,3.5S22.7,38.2,22.7,35.6
					z"/>
				<path class="st7" d="M25.1,35.6c0-3.1,1.1-4.5,2.9-4.5c1.7,0,2.9,1.5,2.9,4.5c0,3.1-1.1,4.6-2.9,4.6
					C26.3,40.2,25.1,38.7,25.1,35.6z M29.5,35.6c0-2.5-0.6-3.5-1.5-3.5s-1.5,0.9-1.5,3.5c0,2.6,0.6,3.5,1.5,3.5S29.5,38.2,29.5,35.6
					z"/>
				<path class="st7" d="M31.8,33.9c0-1.8,0.8-2.8,2.1-2.8s2.1,1,2.1,2.8c0,1.8-0.8,2.8-2.1,2.8S31.8,35.6,31.8,33.9z M35,33.9
					c0-1.4-0.4-2-1.1-2c-0.6,0-1.1,0.6-1.1,2c0,1.4,0.4,2,1.1,2C34.5,35.9,35,35.2,35,33.9z M39,31.1h0.9l-4.8,9.2h-0.9L39,31.1z
					 M38.1,37.4c0-1.8,0.8-2.8,2.1-2.8c1.2,0,2.1,1,2.1,2.8s-0.8,2.8-2.1,2.8C38.9,40.2,38.1,39.2,38.1,37.4z M41.2,37.4
					c0-1.4-0.4-2-1.1-2c-0.6,0-1.1,0.6-1.1,2c0,1.4,0.4,2,1.1,2C40.8,39.4,41.2,38.8,41.2,37.4z"/>
			</g>
		</g>
		<g>
			<g class="st6">
				<path class="st7" d="M1.5,68.2h1.9v-6.1H1.9v-0.9c0.8-0.2,1.4-0.4,1.9-0.7h1v7.7h1.7v1.1h-5V68.2z"/>
				<path class="st7" d="M7.8,68.6c2.6-2.3,3.9-4,3.9-5.5c0-1-0.5-1.6-1.5-1.6c-0.7,0-1.3,0.4-1.7,1l-0.8-0.8
					c0.8-0.8,1.5-1.3,2.7-1.3c1.6,0,2.7,1.1,2.7,2.7c0,1.7-1.4,3.5-3.2,5.3c0.5,0,1-0.1,1.4-0.1h2.2v1.2H7.8V68.6z"/>
				<path class="st7" d="M15,68.6c0-0.6,0.4-1,0.9-1s0.9,0.4,0.9,1s-0.4,1-0.9,1S15,69.1,15,68.6z"/>
				<path class="st7" d="M18.3,64.9c0-3.1,1.1-4.5,2.9-4.5c1.7,0,2.9,1.5,2.9,4.5c0,3.1-1.1,4.6-2.9,4.6
					C19.4,69.5,18.3,68,18.3,64.9z M22.7,64.9c0-2.5-0.6-3.5-1.5-3.5s-1.5,0.9-1.5,3.5c0,2.6,0.6,3.5,1.5,3.5S22.7,67.5,22.7,64.9z"
					/>
				<path class="st7" d="M25.1,64.9c0-3.1,1.1-4.5,2.9-4.5c1.7,0,2.9,1.5,2.9,4.5c0,3.1-1.1,4.6-2.9,4.6
					C26.3,69.5,25.1,68,25.1,64.9z M29.5,64.9c0-2.5-0.6-3.5-1.5-3.5s-1.5,0.9-1.5,3.5c0,2.6,0.6,3.5,1.5,3.5S29.5,67.5,29.5,64.9z"
					/>
				<path class="st7" d="M31.8,63.1c0-1.8,0.8-2.8,2.1-2.8s2.1,1,2.1,2.8c0,1.8-0.8,2.8-2.1,2.8S31.8,64.9,31.8,63.1z M35,63.1
					c0-1.4-0.4-2-1.1-2c-0.6,0-1.1,0.6-1.1,2c0,1.4,0.4,2,1.1,2C34.5,65.1,35,64.5,35,63.1z M39,60.4h0.9l-4.8,9.2h-0.9L39,60.4z
					 M38.1,66.7c0-1.8,0.8-2.8,2.1-2.8c1.2,0,2.1,1,2.1,2.8s-0.8,2.8-2.1,2.8C38.9,69.5,38.1,68.5,38.1,66.7z M41.2,66.7
					c0-1.4-0.4-2-1.1-2c-0.6,0-1.1,0.6-1.1,2c0,1.4,0.4,2,1.1,2C40.8,68.7,41.2,68.1,41.2,66.7z"/>
			</g>
		</g>
		<g>
			<g class="st6">
				<path class="st7" d="M1.5,97.5h1.9v-6.1H1.9v-0.9c0.8-0.2,1.4-0.4,1.9-0.7h1v7.7h1.7v1.1h-5V97.5z"/>
				<path class="st7" d="M7.9,94.2c0-3.1,1.1-4.5,2.9-4.5c1.7,0,2.9,1.5,2.9,4.5c0,3.1-1.1,4.6-2.9,4.6C9,98.8,7.9,97.3,7.9,94.2z
					 M12.3,94.2c0-2.5-0.6-3.5-1.5-3.5s-1.5,0.9-1.5,3.5c0,2.6,0.6,3.5,1.5,3.5S12.3,96.7,12.3,94.2z"/>
				<path class="st7" d="M15,97.8c0-0.6,0.4-1,0.9-1s0.9,0.4,0.9,1s-0.4,1-0.9,1S15,98.4,15,97.8z"/>
				<path class="st7" d="M18.3,94.2c0-3.1,1.1-4.5,2.9-4.5c1.7,0,2.9,1.5,2.9,4.5c0,3.1-1.1,4.6-2.9,4.6
					C19.4,98.8,18.3,97.3,18.3,94.2z M22.7,94.2c0-2.5-0.6-3.5-1.5-3.5s-1.5,0.9-1.5,3.5c0,2.6,0.6,3.5,1.5,3.5S22.7,96.7,22.7,94.2
					z"/>
				<path class="st7" d="M25.1,94.2c0-3.1,1.1-4.5,2.9-4.5c1.7,0,2.9,1.5,2.9,4.5c0,3.1-1.1,4.6-2.9,4.6
					C26.3,98.8,25.1,97.3,25.1,94.2z M29.5,94.2c0-2.5-0.6-3.5-1.5-3.5s-1.5,0.9-1.5,3.5c0,2.6,0.6,3.5,1.5,3.5S29.5,96.7,29.5,94.2
					z"/>
				<path class="st7" d="M31.8,92.4c0-1.8,0.8-2.8,2.1-2.8s2.1,1,2.1,2.8c0,1.8-0.8,2.8-2.1,2.8S31.8,94.2,31.8,92.4z M35,92.4
					c0-1.4-0.4-2-1.1-2c-0.6,0-1.1,0.6-1.1,2c0,1.4,0.4,2,1.1,2C34.5,94.4,35,93.8,35,92.4z M39,89.6h0.9l-4.8,9.2h-0.9L39,89.6z
					 M38.1,96c0-1.8,0.8-2.8,2.1-2.8c1.2,0,2.1,1,2.1,2.8s-0.8,2.8-2.1,2.8C38.9,98.8,38.1,97.8,38.1,96z M41.2,96
					c0-1.4-0.4-2-1.1-2c-0.6,0-1.1,0.6-1.1,2c0,1.4,0.4,2,1.1,2C40.8,98,41.2,97.4,41.2,96z"/>
			</g>
		</g>
		<g>
			<g class="st6">
				<path class="st7" d="M7.9,125.7c0-1.2,0.8-1.9,1.6-2.4v-0.1c-0.7-0.5-1.2-1.1-1.2-2.1c0-1.4,1.1-2.3,2.5-2.3
					c1.5,0,2.5,1,2.5,2.3c0,0.9-0.6,1.7-1.2,2.1v0.1c0.8,0.5,1.5,1.1,1.5,2.3c0,1.3-1.2,2.3-2.9,2.3C9.1,128.1,7.9,127.1,7.9,125.7z
					 M12.3,125.7c0-1.1-1-1.5-2.2-2c-0.6,0.4-1,1.1-1,1.8c0,0.9,0.7,1.5,1.7,1.5C11.7,127.1,12.3,126.5,12.3,125.7z M12.1,121.4
					c0-0.8-0.5-1.4-1.4-1.4c-0.7,0-1.3,0.5-1.3,1.3c0,1,0.8,1.4,1.8,1.8C11.9,122.5,12.1,122,12.1,121.4z"/>
				<path class="st7" d="M15,127.1c0-0.6,0.4-1,0.9-1s0.9,0.4,0.9,1s-0.4,1-0.9,1S15,127.7,15,127.1z"/>
				<path class="st7" d="M18.3,123.5c0-3.1,1.1-4.5,2.9-4.5c1.7,0,2.9,1.5,2.9,4.5c0,3.1-1.1,4.6-2.9,4.6
					C19.4,128.1,18.3,126.5,18.3,123.5z M22.7,123.5c0-2.5-0.6-3.5-1.5-3.5s-1.5,0.9-1.5,3.5c0,2.6,0.6,3.5,1.5,3.5
					S22.7,126,22.7,123.5z"/>
				<path class="st7" d="M25.1,123.5c0-3.1,1.1-4.5,2.9-4.5c1.7,0,2.9,1.5,2.9,4.5c0,3.1-1.1,4.6-2.9,4.6
					C26.3,128.1,25.1,126.5,25.1,123.5z M29.5,123.5c0-2.5-0.6-3.5-1.5-3.5s-1.5,0.9-1.5,3.5c0,2.6,0.6,3.5,1.5,3.5
					S29.5,126,29.5,123.5z"/>
				<path class="st7" d="M31.8,121.7c0-1.8,0.8-2.8,2.1-2.8s2.1,1,2.1,2.8c0,1.8-0.8,2.8-2.1,2.8S31.8,123.5,31.8,121.7z M35,121.7
					c0-1.4-0.4-2-1.1-2c-0.6,0-1.1,0.6-1.1,2c0,1.4,0.4,2,1.1,2C34.5,123.7,35,123.1,35,121.7z M39,118.9h0.9l-4.8,9.2h-0.9
					L39,118.9z M38.1,125.3c0-1.8,0.8-2.8,2.1-2.8c1.2,0,2.1,1,2.1,2.8s-0.8,2.8-2.1,2.8C38.9,128.1,38.1,127,38.1,125.3z
					 M41.2,125.3c0-1.4-0.4-2-1.1-2c-0.6,0-1.1,0.6-1.1,2c0,1.4,0.4,2,1.1,2C40.8,127.3,41.2,126.6,41.2,125.3z"/>
			</g>
		</g>
		<g>
			<g class="st6">
				<path class="st7" d="M12.7,150c-0.3-0.4-0.9-0.7-1.4-0.7c-1.1,0-2.1,0.9-2.1,3.4c0.5-0.6,1.3-1,1.9-1c1.5,0,2.5,0.9,2.5,2.8
					c0,1.8-1.2,2.9-2.6,2.9c-1.7,0-3-1.4-3-4.4c0-3.4,1.6-4.7,3.3-4.7c1,0,1.7,0.4,2.2,0.9L12.7,150z M12.4,154.5
					c0-1.1-0.5-1.8-1.5-1.8c-0.5,0-1.1,0.3-1.6,1c0.1,1.8,0.8,2.6,1.7,2.6C11.8,156.3,12.4,155.6,12.4,154.5z"/>
				<path class="st7" d="M15,156.4c0-0.6,0.4-1,0.9-1s0.9,0.4,0.9,1s-0.4,1-0.9,1S15,156.9,15,156.4z"/>
				<path class="st7" d="M18.3,152.7c0-3.1,1.1-4.5,2.9-4.5c1.7,0,2.9,1.5,2.9,4.5c0,3.1-1.1,4.6-2.9,4.6
					C19.4,157.3,18.3,155.8,18.3,152.7z M22.7,152.7c0-2.5-0.6-3.5-1.5-3.5s-1.5,0.9-1.5,3.5c0,2.6,0.6,3.5,1.5,3.5
					S22.7,155.3,22.7,152.7z"/>
				<path class="st7" d="M25.1,152.7c0-3.1,1.1-4.5,2.9-4.5c1.7,0,2.9,1.5,2.9,4.5c0,3.1-1.1,4.6-2.9,4.6
					C26.3,157.3,25.1,155.8,25.1,152.7z M29.5,152.7c0-2.5-0.6-3.5-1.5-3.5s-1.5,0.9-1.5,3.5c0,2.6,0.6,3.5,1.5,3.5
					S29.5,155.3,29.5,152.7z"/>
				<path class="st7" d="M31.8,151c0-1.8,0.8-2.8,2.1-2.8s2.1,1,2.1,2.8c0,1.8-0.8,2.8-2.1,2.8S31.8,152.8,31.8,151z M35,151
					c0-1.4-0.4-2-1.1-2c-0.6,0-1.1,0.6-1.1,2c0,1.4,0.4,2,1.1,2C34.5,153,35,152.3,35,151z M39,148.2h0.9l-4.8,9.2h-0.9L39,148.2z
					 M38.1,154.5c0-1.8,0.8-2.8,2.1-2.8c1.2,0,2.1,1,2.1,2.8s-0.8,2.8-2.1,2.8C38.9,157.3,38.1,156.3,38.1,154.5z M41.2,154.5
					c0-1.4-0.4-2-1.1-2c-0.6,0-1.1,0.6-1.1,2c0,1.4,0.4,2,1.1,2C40.8,156.5,41.2,155.9,41.2,154.5z"/>
			</g>
		</g>
		<g>
			<g class="st6">
				<path class="st7" d="M13.8,184.1h-1.1v2.4h-1.3v-2.4H7.6v-0.9l3.5-5.5h1.6v5.4h1.1V184.1z M11.4,183v-2.3c0-0.5,0-1.2,0.1-1.7h0
					c-0.2,0.4-0.5,0.9-0.7,1.4L9,183H11.4z"/>
				<path class="st7" d="M15,185.7c0-0.6,0.4-1,0.9-1s0.9,0.4,0.9,1s-0.4,1-0.9,1S15,186.2,15,185.7z"/>
				<path class="st7" d="M18.3,182c0-3.1,1.1-4.5,2.9-4.5c1.7,0,2.9,1.5,2.9,4.5c0,3.1-1.1,4.6-2.9,4.6
					C19.4,186.6,18.3,185.1,18.3,182z M22.7,182c0-2.5-0.6-3.5-1.5-3.5s-1.5,0.9-1.5,3.5c0,2.6,0.6,3.5,1.5,3.5S22.7,184.6,22.7,182
					z"/>
				<path class="st7" d="M25.1,182c0-3.1,1.1-4.5,2.9-4.5c1.7,0,2.9,1.5,2.9,4.5c0,3.1-1.1,4.6-2.9,4.6
					C26.3,186.6,25.1,185.1,25.1,182z M29.5,182c0-2.5-0.6-3.5-1.5-3.5s-1.5,0.9-1.5,3.5c0,2.6,0.6,3.5,1.5,3.5S29.5,184.6,29.5,182
					z"/>
				<path class="st7" d="M31.8,180.3c0-1.8,0.8-2.8,2.1-2.8s2.1,1,2.1,2.8c0,1.8-0.8,2.8-2.1,2.8S31.8,182,31.8,180.3z M35,180.3
					c0-1.4-0.4-2-1.1-2c-0.6,0-1.1,0.6-1.1,2c0,1.4,0.4,2,1.1,2C34.5,182.2,35,181.6,35,180.3z M39,177.5h0.9l-4.8,9.2h-0.9
					L39,177.5z M38.1,183.8c0-1.8,0.8-2.8,2.1-2.8c1.2,0,2.1,1,2.1,2.8s-0.8,2.8-2.1,2.8C38.9,186.6,38.1,185.6,38.1,183.8z
					 M41.2,183.8c0-1.4-0.4-2-1.1-2c-0.6,0-1.1,0.6-1.1,2c0,1.4,0.4,2,1.1,2C40.8,185.8,41.2,185.2,41.2,183.8z"/>
			</g>
		</g>
		<g>
			<g class="st6">
				<path class="st7" d="M7.8,214.9c2.6-2.3,3.9-4,3.9-5.5c0-1-0.5-1.6-1.5-1.6c-0.7,0-1.3,0.4-1.7,1l-0.8-0.8
					c0.8-0.8,1.5-1.3,2.7-1.3c1.6,0,2.7,1.1,2.7,2.7c0,1.7-1.4,3.5-3.2,5.3c0.5,0,1-0.1,1.4-0.1h2.2v1.2H7.8V214.9z"/>
				<path class="st7" d="M15,214.9c0-0.6,0.4-1,0.9-1s0.9,0.4,0.9,1s-0.4,1-0.9,1S15,215.5,15,214.9z"/>
				<path class="st7" d="M18.3,211.3c0-3.1,1.1-4.5,2.9-4.5c1.7,0,2.9,1.5,2.9,4.5c0,3.1-1.1,4.6-2.9,4.6
					C19.4,215.9,18.3,214.4,18.3,211.3z M22.7,211.3c0-2.5-0.6-3.5-1.5-3.5s-1.5,0.9-1.5,3.5c0,2.6,0.6,3.5,1.5,3.5
					S22.7,213.8,22.7,211.3z"/>
				<path class="st7" d="M25.1,211.3c0-3.1,1.1-4.5,2.9-4.5c1.7,0,2.9,1.5,2.9,4.5c0,3.1-1.1,4.6-2.9,4.6
					C26.3,215.9,25.1,214.4,25.1,211.3z M29.5,211.3c0-2.5-0.6-3.5-1.5-3.5s-1.5,0.9-1.5,3.5c0,2.6,0.6,3.5,1.5,3.5
					S29.5,213.8,29.5,211.3z"/>
				<path class="st7" d="M31.8,209.5c0-1.8,0.8-2.8,2.1-2.8s2.1,1,2.1,2.8c0,1.8-0.8,2.8-2.1,2.8S31.8,211.3,31.8,209.5z M35,209.5
					c0-1.4-0.4-2-1.1-2c-0.6,0-1.1,0.6-1.1,2c0,1.4,0.4,2,1.1,2C34.5,211.5,35,210.9,35,209.5z M39,206.7h0.9l-4.8,9.2h-0.9
					L39,206.7z M38.1,213.1c0-1.8,0.8-2.8,2.1-2.8c1.2,0,2.1,1,2.1,2.8s-0.8,2.8-2.1,2.8C38.9,215.9,38.1,214.9,38.1,213.1z
					 M41.2,213.1c0-1.4-0.4-2-1.1-2c-0.6,0-1.1,0.6-1.1,2c0,1.4,0.4,2,1.1,2C40.8,215.1,41.2,214.5,41.2,213.1z"/>
			</g>
		</g>
		<g>
			<g class="st6">
				<path class="st7" d="M7.9,240.6c0-3.1,1.1-4.5,2.9-4.5c1.7,0,2.9,1.5,2.9,4.5c0,3.1-1.1,4.6-2.9,4.6
					C9,245.2,7.9,243.6,7.9,240.6z M12.3,240.6c0-2.5-0.6-3.5-1.5-3.5s-1.5,0.9-1.5,3.5c0,2.6,0.6,3.5,1.5,3.5
					S12.3,243.1,12.3,240.6z"/>
				<path class="st7" d="M15,244.2c0-0.6,0.4-1,0.9-1s0.9,0.4,0.9,1s-0.4,1-0.9,1S15,244.8,15,244.2z"/>
				<path class="st7" d="M18.3,240.6c0-3.1,1.1-4.5,2.9-4.5c1.7,0,2.9,1.5,2.9,4.5c0,3.1-1.1,4.6-2.9,4.6
					C19.4,245.2,18.3,243.6,18.3,240.6z M22.7,240.6c0-2.5-0.6-3.5-1.5-3.5s-1.5,0.9-1.5,3.5c0,2.6,0.6,3.5,1.5,3.5
					S22.7,243.1,22.7,240.6z"/>
				<path class="st7" d="M25.1,240.6c0-3.1,1.1-4.5,2.9-4.5c1.7,0,2.9,1.5,2.9,4.5c0,3.1-1.1,4.6-2.9,4.6
					C26.3,245.2,25.1,243.6,25.1,240.6z M29.5,240.6c0-2.5-0.6-3.5-1.5-3.5s-1.5,0.9-1.5,3.5c0,2.6,0.6,3.5,1.5,3.5
					S29.5,243.1,29.5,240.6z"/>
				<path class="st7" d="M31.8,238.8c0-1.8,0.8-2.8,2.1-2.8s2.1,1,2.1,2.8c0,1.8-0.8,2.8-2.1,2.8S31.8,240.6,31.8,238.8z M35,238.8
					c0-1.4-0.4-2-1.1-2c-0.6,0-1.1,0.6-1.1,2c0,1.4,0.4,2,1.1,2C34.5,240.8,35,240.2,35,238.8z M39,236h0.9l-4.8,9.2h-0.9L39,236z
					 M38.1,242.4c0-1.8,0.8-2.8,2.1-2.8c1.2,0,2.1,1,2.1,2.8s-0.8,2.8-2.1,2.8C38.9,245.2,38.1,244.2,38.1,242.4z M41.2,242.4
					c0-1.4-0.4-2-1.1-2c-0.6,0-1.1,0.6-1.1,2c0,1.4,0.4,2,1.1,2C40.8,244.4,41.2,243.7,41.2,242.4z"/>
			</g>
		</g>
		<g>
			<g class="st6">
				<path class="st7" d="M3.6,270.4h3.2v1H3.6V270.4z"/>
				<path class="st7" d="M7.8,273.5c2.6-2.3,3.9-4,3.9-5.5c0-1-0.5-1.6-1.5-1.6c-0.7,0-1.3,0.4-1.7,1l-0.8-0.8
					c0.8-0.8,1.5-1.3,2.7-1.3c1.6,0,2.7,1.1,2.7,2.7c0,1.7-1.4,3.5-3.2,5.3c0.5,0,1-0.1,1.4-0.1h2.2v1.2H7.8V273.5z"/>
				<path class="st7" d="M15,273.5c0-0.6,0.4-1,0.9-1s0.9,0.4,0.9,1s-0.4,1-0.9,1S15,274.1,15,273.5z"/>
				<path class="st7" d="M18.3,269.9c0-3.1,1.1-4.5,2.9-4.5c1.7,0,2.9,1.5,2.9,4.5c0,3.1-1.1,4.6-2.9,4.6
					C19.4,274.5,18.3,272.9,18.3,269.9z M22.7,269.9c0-2.5-0.6-3.5-1.5-3.5c-0.9,0-1.5,0.9-1.5,3.5c0,2.6,0.6,3.5,1.5,3.5
					C22.1,273.4,22.7,272.4,22.7,269.9z"/>
				<path class="st7" d="M25.1,269.9c0-3.1,1.1-4.5,2.9-4.5c1.7,0,2.9,1.5,2.9,4.5c0,3.1-1.1,4.6-2.9,4.6
					C26.3,274.5,25.1,272.9,25.1,269.9z M29.5,269.9c0-2.5-0.6-3.5-1.5-3.5c-0.9,0-1.5,0.9-1.5,3.5c0,2.6,0.6,3.5,1.5,3.5
					C28.9,273.4,29.5,272.4,29.5,269.9z"/>
				<path class="st7" d="M31.8,268.1c0-1.8,0.8-2.8,2.1-2.8s2.1,1,2.1,2.8c0,1.8-0.8,2.8-2.1,2.8S31.8,269.9,31.8,268.1z M35,268.1
					c0-1.4-0.4-2-1.1-2c-0.6,0-1.1,0.6-1.1,2c0,1.4,0.4,2,1.1,2C34.5,270.1,35,269.4,35,268.1z M39,265.3h0.9l-4.8,9.2h-0.9
					L39,265.3z M38.1,271.7c0-1.8,0.8-2.8,2.1-2.8c1.2,0,2.1,1,2.1,2.8s-0.8,2.8-2.1,2.8C38.9,274.5,38.1,273.4,38.1,271.7z
					 M41.2,271.7c0-1.4-0.4-2-1.1-2c-0.6,0-1.1,0.6-1.1,2c0,1.4,0.4,2,1.1,2C40.8,273.7,41.2,273,41.2,271.7z"/>
			</g>
		</g>
	</g>
	<g>
		<g>
			<g class="st6">
				<path class="st3" d="M285.7,176.8l0.8-1.1c0.6,0.7,1.5,1.2,2.6,1.2c1.2,0,2.1-0.7,2.1-1.8c0-1.2-0.8-2-3.3-2v-1.3
					c2.2,0,2.9-0.8,2.9-1.9c0-1-0.6-1.6-1.7-1.6c-0.9,0-1.6,0.4-2.2,1l-0.9-1.1c0.9-0.8,1.9-1.3,3.2-1.3c2,0,3.4,1,3.4,2.9
					c0,1.3-0.7,2.2-1.9,2.6v0.1c1.3,0.3,2.3,1.3,2.3,2.8c0,2-1.7,3.2-3.7,3.2C287.5,178.3,286.4,177.6,285.7,176.8z"/>
				<path class="st3" d="M294.9,177.1c0-0.7,0.5-1.2,1.2-1.2s1.2,0.5,1.2,1.2s-0.5,1.2-1.2,1.2S294.9,177.8,294.9,177.1z"/>
				<path class="st3" d="M298.7,176.8l0.8-1.1c0.6,0.7,1.5,1.2,2.6,1.2c1.2,0,2.1-0.7,2.1-1.8c0-1.2-0.8-2-3.3-2v-1.3
					c2.2,0,2.9-0.8,2.9-1.9c0-1-0.6-1.6-1.7-1.6c-0.9,0-1.6,0.4-2.2,1l-0.9-1.1c0.9-0.8,1.9-1.3,3.2-1.3c2,0,3.4,1,3.4,2.9
					c0,1.3-0.7,2.2-1.9,2.6v0.1c1.3,0.3,2.3,1.3,2.3,2.8c0,2-1.7,3.2-3.7,3.2C300.5,178.3,299.4,177.6,298.7,176.8z"/>
				<path class="st3" d="M307.5,172.6c0-3.8,1.4-5.7,3.6-5.7c2.2,0,3.6,1.9,3.6,5.7c0,3.8-1.4,5.8-3.6,5.8
					C308.9,178.3,307.5,176.4,307.5,172.6z M313,172.6c0-3.2-0.8-4.3-1.9-4.3s-1.9,1.2-1.9,4.3c0,3.2,0.8,4.4,1.9,4.4
					S313,175.8,313,172.6z"/>
				<path class="st3" d="M315.9,170.4c0-2.2,1-3.5,2.6-3.5c1.5,0,2.6,1.3,2.6,3.5s-1,3.5-2.6,3.5
					C316.9,173.9,315.9,172.6,315.9,170.4z M319.8,170.4c0-1.7-0.6-2.5-1.3-2.5c-0.8,0-1.3,0.8-1.3,2.5c0,1.7,0.6,2.5,1.3,2.5
					C319.3,172.9,319.8,172.1,319.8,170.4z M324.9,166.9h1.1l-6.1,11.4h-1.1L324.9,166.9z M323.7,174.8c0-2.2,1-3.5,2.6-3.5
					c1.5,0,2.6,1.3,2.6,3.5s-1,3.5-2.6,3.5C324.8,178.3,323.7,177.1,323.7,174.8z M327.7,174.8c0-1.7-0.6-2.5-1.3-2.5
					c-0.8,0-1.3,0.8-1.3,2.5c0,1.7,0.6,2.5,1.3,2.5C327.1,177.3,327.7,176.5,327.7,174.8z"/>
			</g>
		</g>
		<g>
			<g class="st6">
				<path class="st3" d="M471.2,133c-0.4-0.5-1.1-0.8-1.7-0.8c-1.4,0-2.6,1.1-2.7,4.2c0.6-0.8,1.6-1.3,2.4-1.3
					c1.9,0,3.1,1.1,3.1,3.5c0,2.2-1.5,3.6-3.3,3.6c-2.1,0-3.8-1.8-3.8-5.5c0-4.2,2-5.9,4.2-5.9c1.2,0,2.1,0.5,2.8,1.2L471.2,133z
					 M470.7,138.6c0-1.4-0.6-2.2-1.8-2.2c-0.6,0-1.4,0.3-2.1,1.3c0.2,2.2,1,3.2,2.2,3.2C470,140.9,470.7,140.1,470.7,138.6z"/>
				<path class="st3" d="M474.1,141c0-0.7,0.5-1.2,1.2-1.2s1.2,0.5,1.2,1.2s-0.5,1.2-1.2,1.2S474.1,141.8,474.1,141z"/>
				<path class="st3" d="M478.7,140.6h2.4v-7.7h-2v-1.1c1-0.2,1.8-0.5,2.4-0.8h1.3v9.6h2.2v1.4h-6.3V140.6z"/>
				<path class="st3" d="M486.7,141c3.3-2.9,4.9-5,4.9-6.8c0-1.2-0.6-2-1.9-2c-0.9,0-1.6,0.6-2.2,1.2l-1-1c0.9-1,1.9-1.7,3.4-1.7
					c2,0,3.3,1.3,3.3,3.3c0,2.1-1.7,4.3-4,6.6c0.6-0.1,1.3-0.1,1.8-0.1h2.8v1.5h-7.1V141z"/>
				<path class="st3" d="M495.1,134.3c0-2.2,1-3.5,2.6-3.5c1.5,0,2.6,1.3,2.6,3.5s-1,3.5-2.6,3.5
					C496.1,137.8,495.1,136.5,495.1,134.3z M499,134.3c0-1.7-0.6-2.5-1.3-2.5c-0.8,0-1.3,0.8-1.3,2.5c0,1.7,0.6,2.5,1.3,2.5
					C498.5,136.8,499,136,499,134.3z M504.1,130.8h1.1l-6.1,11.4H498L504.1,130.8z M502.9,138.8c0-2.2,1-3.5,2.6-3.5
					c1.5,0,2.6,1.3,2.6,3.5s-1,3.5-2.6,3.5C504,142.2,502.9,141,502.9,138.8z M506.8,138.8c0-1.7-0.6-2.5-1.3-2.5
					c-0.8,0-1.3,0.8-1.3,2.5c0,1.7,0.6,2.5,1.3,2.5C506.3,141.2,506.8,140.4,506.8,138.8z"/>
			</g>
		</g>
		<g>
			<g class="st6">
				<path class="st3" d="M656.6,17.5h2.4V9.9h-2V8.8c1-0.2,1.8-0.5,2.4-0.8h1.3v9.6h2.2V19h-6.3V17.5z"/>
				<path class="st3" d="M671.9,16h-1.4v3h-1.6v-3h-4.8v-1.2l4.4-6.9h2v6.7h1.4V16z M668.9,14.7v-2.9c0-0.6,0.1-1.5,0.1-2.1h-0.1
					c-0.3,0.6-0.6,1.1-0.9,1.7l-2.2,3.3H668.9z"/>
				<path class="st3" d="M673.5,18c0-0.7,0.5-1.2,1.2-1.2s1.2,0.5,1.2,1.2s-0.5,1.2-1.2,1.2S673.5,18.7,673.5,18z"/>
				<path class="st3" d="M678.2,17.5h2.4V9.9h-2V8.8c1-0.2,1.8-0.5,2.4-0.8h1.3v9.6h2.2V19h-6.3V17.5z"/>
				<path class="st3" d="M686.7,17.5h2.4V9.9h-2V8.8c1-0.2,1.8-0.5,2.4-0.8h1.3v9.6h2.2V19h-6.3V17.5z"/>
				<path class="st3" d="M694.5,11.2c0-2.2,1-3.5,2.6-3.5s2.6,1.3,2.6,3.5s-1,3.5-2.6,3.5S694.5,13.4,694.5,11.2z M698.4,11.2
					c0-1.7-0.6-2.5-1.3-2.5c-0.8,0-1.3,0.8-1.3,2.5c0,1.7,0.6,2.5,1.3,2.5C697.9,13.7,698.4,12.9,698.4,11.2z M703.5,7.7h1.1
					l-6.1,11.4h-1.1L703.5,7.7z M702.3,15.7c0-2.2,1-3.5,2.6-3.5c1.5,0,2.6,1.3,2.6,3.5s-1,3.5-2.6,3.5
					C703.4,19.2,702.3,17.9,702.3,15.7z M706.2,15.7c0-1.7-0.6-2.5-1.3-2.5c-0.8,0-1.3,0.8-1.3,2.5c0,1.7,0.6,2.5,1.3,2.5
					C705.7,18.2,706.2,17.4,706.2,15.7z"/>
			</g>
		</g>
		<g>
			<g class="st6">
				<path class="st3" d="M834.8,15.9h2.4V8.2h-2V7.1c1-0.2,1.8-0.5,2.4-0.8h1.3v9.6h2.2v1.4h-6.3V15.9z"/>
				<path class="st3" d="M850.2,14.3h-1.4v3h-1.6v-3h-4.8v-1.2l4.4-6.9h2V13h1.4V14.3z M847.2,13v-2.9c0-0.6,0.1-1.5,0.1-2.1h-0.1
					c-0.3,0.6-0.6,1.1-0.9,1.7l-2.2,3.3H847.2z"/>
				<path class="st3" d="M851.7,16.3c0-0.7,0.5-1.2,1.2-1.2c0.6,0,1.2,0.5,1.2,1.2s-0.5,1.2-1.2,1.2C852.2,17.5,851.7,17,851.7,16.3
					z"/>
				<path class="st3" d="M855.8,16.3c3.3-2.9,4.9-5,4.9-6.8c0-1.2-0.6-2-1.9-2c-0.9,0-1.6,0.6-2.2,1.2l-1-1c0.9-1,1.9-1.7,3.4-1.7
					c2,0,3.3,1.3,3.3,3.3c0,2.1-1.7,4.3-4,6.6c0.6-0.1,1.3-0.1,1.8-0.1h2.8v1.5h-7.1V16.3z"/>
				<path class="st3" d="M865.4,15.3c0.4,0.5,1.1,0.8,1.8,0.8c1.3,0,2.5-1.1,2.6-4.2c-0.6,0.8-1.6,1.3-2.4,1.3
					c-1.8,0-3.1-1.2-3.1-3.5c0-2.2,1.5-3.6,3.3-3.6c2.1,0,3.8,1.7,3.8,5.4c0,4.3-2,6.1-4.1,6.1c-1.3,0-2.2-0.5-2.8-1.2L865.4,15.3z
					 M869.8,10.5c-0.2-2.2-1-3.2-2.2-3.2c-0.9,0-1.7,0.9-1.7,2.3c0,1.4,0.6,2.2,1.8,2.2C868.4,11.9,869.1,11.5,869.8,10.5z"/>
				<path class="st3" d="M872.8,9.5c0-2.2,1-3.5,2.6-3.5s2.6,1.3,2.6,3.5s-1,3.5-2.6,3.5S872.8,11.8,872.8,9.5z M876.7,9.5
					c0-1.7-0.6-2.5-1.3-2.5c-0.8,0-1.3,0.8-1.3,2.5c0,1.7,0.6,2.5,1.3,2.5C876.1,12,876.7,11.2,876.7,9.5z M881.7,6h1.1l-6.1,11.4
					h-1.1L881.7,6z M880.6,14c0-2.2,1-3.5,2.6-3.5c1.5,0,2.6,1.3,2.6,3.5s-1,3.5-2.6,3.5C881.6,17.5,880.6,16.2,880.6,14z M884.5,14
					c0-1.7-0.6-2.5-1.3-2.5c-0.8,0-1.3,0.8-1.3,2.5c0,1.7,0.6,2.5,1.3,2.5C884,16.5,884.5,15.7,884.5,14z"/>
			</g>
		</g>
		<g>
			<g class="st6">
				<path class="st3" d="M112.9,258.8h4v1.3h-4V258.8z"/>
				<path class="st3" d="M118.2,258.1c0-3.8,1.4-5.7,3.6-5.7c2.2,0,3.6,1.9,3.6,5.7c0,3.8-1.4,5.8-3.6,5.8
					C119.6,263.8,118.2,261.9,118.2,258.1z M123.7,258.1c0-3.2-0.8-4.3-1.9-4.3s-1.9,1.2-1.9,4.3c0,3.2,0.8,4.4,1.9,4.4
					S123.7,261.3,123.7,258.1z"/>
				<path class="st3" d="M127.1,262.6c0-0.7,0.5-1.2,1.2-1.2s1.2,0.5,1.2,1.2s-0.5,1.2-1.2,1.2S127.1,263.3,127.1,262.6z"/>
				<path class="st3" d="M131.8,262.2h2.4v-7.7h-2v-1.1c1-0.2,1.8-0.5,2.4-0.8h1.3v9.6h2.2v1.4h-6.3V262.2z"/>
				<path class="st3" d="M139.5,262.4l0.8-1.1c0.6,0.6,1.4,1.2,2.6,1.2c1.2,0,2.2-0.9,2.2-2.4c0-1.5-0.8-2.3-2.1-2.3
					c-0.7,0-1.1,0.2-1.8,0.6l-0.8-0.6l0.3-5.2h5.6v1.5h-4.1l-0.3,2.8c0.5-0.2,0.9-0.4,1.5-0.4c1.8,0,3.4,1.1,3.4,3.5
					c0,2.4-1.8,3.8-3.7,3.8C141.4,263.8,140.3,263.1,139.5,262.4z"/>
				<path class="st3" d="M148.2,255.9c0-2.2,1-3.5,2.6-3.5c1.5,0,2.6,1.3,2.6,3.5s-1,3.5-2.6,3.5
					C149.2,259.4,148.2,258.1,148.2,255.9z M152.1,255.9c0-1.7-0.6-2.5-1.3-2.5c-0.8,0-1.3,0.8-1.3,2.5c0,1.7,0.6,2.5,1.3,2.5
					C151.5,258.4,152.1,257.6,152.1,255.9z M157.1,252.4h1.1l-6.1,11.4h-1.1L157.1,252.4z M156,260.3c0-2.2,1-3.5,2.6-3.5
					c1.5,0,2.6,1.3,2.6,3.5s-1,3.5-2.6,3.5C157,263.8,156,262.6,156,260.3z M159.9,260.3c0-1.7-0.6-2.5-1.3-2.5
					c-0.8,0-1.3,0.8-1.3,2.5c0,1.7,0.6,2.5,1.3,2.5C159.4,262.8,159.9,262,159.9,260.3z"/>
			</g>
		</g>
	</g>
	<g>
		<g>
			<g class="st6">
				<path class="st7" d="M81.1,289.7c0-3,0.8-5.4,2.2-7.7l1.1,0.5c-1.3,2.2-1.9,4.7-1.9,7.2c0,2.5,0.6,5.1,1.9,7.2l-1.1,0.5
					C81.9,295.1,81.1,292.7,81.1,289.7z"/>
				<path class="st7" d="M91.1,285.7c-0.5,4.9-2,8.2-4.2,9.8c-0.2-0.3-0.7-0.8-1-1c1.1-0.8,2-2,2.7-3.5c-0.4-0.5-0.9-1-1.5-1.6
					c-0.2,0.4-0.4,0.7-0.6,1.1c-0.2-0.3-0.6-0.8-0.9-1.1c1-1.4,1.6-3.4,2-5.6h-1.6v-1.3h5.1v1.3h-2.3c-0.1,0.6-0.2,1.2-0.4,1.7h1.5
					l0.2,0L91.1,285.7z M88.2,286.8c-0.2,0.5-0.3,1.1-0.5,1.5c0.5,0.4,1,0.9,1.4,1.4c0.3-0.9,0.5-1.8,0.6-2.9H88.2z M99.4,294v1.2
					h-9.1V294h1.4v-8.4h2c0.1-0.3,0.1-0.7,0.2-1.1h-2.8v-1.2h3c0.1-0.6,0.1-1.1,0.2-1.6l1.5,0.1c-0.1,0.5-0.2,1-0.3,1.5h3.5v1.2
					h-3.7c-0.1,0.4-0.2,0.8-0.3,1.1h3.3v8.4H99.4z M93.1,286.7v1.1H97v-1.1H93.1z M97,288.8h-3.9v1.1H97V288.8z M93.1,290.8v1.1H97
					v-1.1H93.1z M93.1,294H97v-1.1h-3.9V294z"/>
				<path class="st7" d="M105.3,286.2h2.9v1.3h-2.9v0.5c0.7,0.6,2.3,2.2,2.8,2.6l-0.8,1.2c-0.4-0.5-1.2-1.5-2-2.2v6h-1.4v-5.9
					c-0.7,1.6-1.6,3-2.6,4c-0.1-0.4-0.5-1-0.7-1.4c1.1-1.1,2.4-3,3-4.7h-2.7v-1.3h3V284c-0.9,0.2-1.8,0.3-2.7,0.4
					c-0.1-0.3-0.3-0.8-0.4-1.1c2.2-0.3,4.7-0.9,6.1-1.5l1,1.1c-0.7,0.3-1.6,0.6-2.6,0.8V286.2z M110.6,291.8h-1.4v-8.2h1.4V291.8z
					 M113.8,282v11.7c0,0.9-0.2,1.3-0.7,1.5c-0.5,0.2-1.4,0.3-2.8,0.3c-0.1-0.4-0.3-1-0.5-1.4c1,0,2,0,2.2,0c0.3,0,0.4-0.1,0.4-0.4
					V282H113.8z"/>
				<path class="st7" d="M129.3,292.6h-6v3h-1.5v-3h-6v-1.3h6v-1.1h1.5v1.1h6V292.6z M119.9,288.6c-1.1,0.6-2.3,1.2-3.3,1.7
					l-0.7-1.1c0.9-0.4,2.4-1,3.7-1.6L119.9,288.6z M124.9,290.4c-0.1-0.2-0.2-0.5-0.4-0.8c-3.8,0.4-4.3,0.4-4.6,0.6
					c0-0.2-0.2-0.8-0.4-1.2c0.4,0,0.7-0.3,1.2-0.8c0.3-0.2,0.8-0.7,1.5-1.3c-1.5,0.1-1.8,0.2-2,0.3c-0.1-0.3-0.3-0.8-0.4-1.1
					c0.2,0,0.4-0.2,0.7-0.5c0.2-0.2,0.6-0.7,1-1.3h-5.3v-1.3h5.9c-0.2-0.4-0.4-0.7-0.6-1l1.4-0.3c0.3,0.4,0.6,1,0.9,1.4h5.4v1.3
					h-6.2c-0.4,0.6-0.8,1.1-1.2,1.6l1.7-0.1c0.3-0.4,0.7-0.8,1-1.2l1.1,0.6c-1.1,1.3-2.4,2.5-3.6,3.5l2.1-0.2
					c-0.2-0.3-0.4-0.6-0.6-0.9l1-0.4c0.7,0.8,1.4,1.8,1.7,2.6L124.9,290.4z M118.6,287.3c-0.5-0.5-1.4-1.2-2.2-1.7l0.9-0.8
					c0.8,0.5,1.8,1.2,2.3,1.7L118.6,287.3z M128.1,290.5c-0.6-0.6-1.9-1.5-2.9-2.1l1-0.8c1,0.6,2.3,1.4,3,2L128.1,290.5z
					 M128.6,285.5c-0.7,0.7-1.5,1.4-2.2,1.9l-1-0.7c0.6-0.5,1.5-1.3,2-1.9L128.6,285.5z"/>
				<path class="st7" d="M130.8,296.9c1.3-2.1,1.9-4.7,1.9-7.2c0-2.5-0.6-5-1.9-7.2l1.1-0.5c1.4,2.3,2.2,4.7,2.2,7.7
					c0,3-0.8,5.4-2.2,7.7L130.8,296.9z"/>
				<path class="st7" d="M149.1,289.7c-0.4,1.4-1.1,2.5-2,3.5c0.8,0.6,1.7,1,2.8,1.2c-0.3,0.3-0.6,0.8-0.8,1.1
					c-1.1-0.3-2.1-0.8-2.9-1.5c-0.9,0.7-1.8,1.2-2.8,1.5c-0.1-0.3-0.4-0.8-0.7-1.1v1.1h-1.3v-1.4c-1.8,0.2-3.6,0.4-4.9,0.6l-0.1-1.2
					c0.4,0,0.9-0.1,1.4-0.1v-4.8h-1.2v-1.1h13.1v1.1h-6.9v5.8c0.9-0.3,1.8-0.7,2.6-1.3c-0.7-0.7-1.2-1.6-1.6-2.5l0.4-0.1h-0.9v-1.1
					h4.9l0.2,0L149.1,289.7z M139.4,286.9h-1.3v-4.6h9.7v4.6h-1.4v-3.6h-6.9V286.9z M138.8,288.6v0.8h2.5v-0.8H138.8z M138.8,291.3
					h2.5v-0.8h-2.5V291.3z M138.8,293.3c0.8-0.1,1.6-0.2,2.5-0.3v-0.7h-2.5V293.3z M145.7,284v0.9H140V284H145.7z M140,285.6h5.7
					v0.9H140V285.6z M144.8,290.5c0.3,0.7,0.8,1.3,1.3,1.8c0.5-0.5,1-1.2,1.3-1.8H144.8z"/>
				<path class="st7" d="M155.6,282.3c-0.4,1.1-0.9,2.2-1.5,3.2v10.1h-1.3v-8c-0.4,0.6-0.8,1.1-1.3,1.5c-0.1-0.3-0.5-1.1-0.8-1.4
					c1.4-1.4,2.7-3.6,3.6-5.8L155.6,282.3z M161.9,288.7c0.3,3,0.9,5.1,1.6,5.2c0.2,0,0.4-0.7,0.5-2c0.2,0.3,0.7,0.6,0.9,0.7
					c-0.3,2.3-0.9,2.9-1.5,2.9c-1.6,0-2.4-2.7-2.9-6.7h-3.2v3.7l2.6-0.6c0,0.4,0,0.9,0,1.2c-3.3,0.9-3.8,1.1-4.1,1.3
					c-0.1-0.3-0.3-0.9-0.5-1.1c0.3-0.1,0.7-0.4,0.7-1v-8.8h0l0,0c2.5-0.4,5.3-1,7-1.6l1.1,1c-0.7,0.3-1.6,0.5-2.6,0.7
					c0,1.4,0.1,2.7,0.2,3.9h2.8v1.3H161.9z M160.5,287.4c-0.1-1.1-0.2-2.4-0.2-3.6c-1,0.2-1.9,0.4-2.9,0.5v3.1H160.5z M157.4,294.1
					h4v1.1h-4V294.1z"/>
				<path class="st7" d="M179.6,293.4v1.4h-13.2v-1.4h3.6c0.3-1.3,0.6-2.9,0.8-4.5h-2.7v-1.4h2.9c0.1-1,0.3-2,0.4-2.9h-4.1v-1.4
					h11.3v1.4h-5.6c-0.1,0.9-0.3,1.9-0.4,2.9h3.3l0.3-0.1l1.1,0.1c-0.1,1.7-0.3,3.9-0.5,5.9H179.6z M172.2,288.9
					c-0.3,1.7-0.6,3.2-0.8,4.5h3.7c0.2-1.5,0.3-3.2,0.4-4.5H172.2z"/>
				<path class="st7" d="M183.4,284c-0.4,0.7-0.9,1.3-1.4,1.7c-0.2-0.2-0.7-0.7-1-1c0.9-0.8,1.8-1.9,2.3-3.1l1.2,0.4
					c-0.1,0.3-0.2,0.5-0.4,0.8h3.6v1.2h-2.5c0.5,0.4,0.9,0.8,1.2,1.2l-0.9,0.8c-0.3-0.4-1-1.1-1.5-1.5l0.5-0.5H183.4z M191.6,290.8
					h2.9v1.1h-2.9v2.2c0,0.7-0.2,1-0.7,1.2c-0.6,0.2-1.4,0.2-2.7,0.2c-0.1-0.4-0.2-0.8-0.4-1.1c0.9,0,1.8,0,2,0
					c0.3,0,0.3-0.1,0.3-0.3V292h-5.4c0.8,0.6,1.9,1.5,2.4,2.1l-1,0.8c-0.5-0.6-1.6-1.6-2.4-2.3l0.9-0.7h-3.4v-1.1h8.8v-0.9h1.4
					V290.8z M194.8,282.8v1.2h-3c0.4,0.4,0.9,0.9,1.2,1.3l-1,0.8c-0.3-0.4-0.9-1.1-1.4-1.6l0.6-0.5h-1.3c-0.4,0.7-0.8,1.3-1.2,1.8
					l0,0v0.4h5.4v1.2h-5.4v1.1h4.5v1.1h-10.5v-1.1h4.6v-1.1h-5.3v-1.2h5.3v-0.8h0.9c-0.2-0.2-0.4-0.3-0.5-0.4c0.8-0.8,1.5-2,1.9-3.3
					l1.3,0.3c-0.1,0.3-0.2,0.6-0.3,0.8H194.8z"/>
				<path class="st7" d="M205.7,282.1c0.7,2.3,2.3,4.4,4.3,5.5c-0.3,0.3-0.8,0.9-1,1.3c-0.5-0.3-0.9-0.7-1.4-1.1c0,0.1,0,0.2,0,0.3
					c-0.2,4.6-0.4,6.3-0.9,6.9c-0.3,0.4-0.7,0.5-1.2,0.6c-0.5,0.1-1.4,0-2.3,0c0-0.4-0.2-1-0.4-1.4c0.9,0.1,1.8,0.1,2.1,0.1
					c0.3,0,0.5,0,0.6-0.2c0.3-0.4,0.5-1.8,0.7-5.3h-3.4c-0.4,2.9-1.4,5.5-5.2,7c-0.2-0.4-0.6-1-0.9-1.2c3.5-1.2,4.3-3.3,4.6-5.7
					h-2.8v-1c-0.4,0.4-0.8,0.8-1.2,1.2c-0.3-0.3-0.8-0.8-1.2-1c1.7-1.2,3.1-3.2,3.8-5.5l1.5,0.3c-0.6,1.8-1.5,3.4-2.6,4.7h8.6
					c-1.1-1.2-2-2.5-2.5-4h-2.5v-1.3H205.7z"/>
			</g>
		</g>
	</g>
	<g>
		<g>
			<g class="st6">
				<path class="st7" d="M274,283.9c-0.5,0.8-1,1.4-1.5,1.9c-0.2-0.2-0.7-0.7-0.9-0.9c0.9-0.8,1.7-2,2.2-3.2l1.2,0.4
					c-0.1,0.3-0.2,0.5-0.3,0.8h3.6v1.1h-2.5c0.5,0.4,0.9,0.9,1.2,1.2l-0.9,0.8c-0.3-0.4-0.9-1-1.4-1.5l0.6-0.5H274z M284.4,290.6
					c0,0,0,0.3,0,0.5c-0.2,2-0.4,2.9-0.8,3.3c-0.3,0.3-0.6,0.4-1,0.4c-0.4,0-1.1,0-1.9,0c0-0.4-0.2-0.9-0.4-1.3
					c0.7,0.1,1.4,0.1,1.6,0.1c0.3,0,0.4,0,0.5-0.1c0.2-0.2,0.3-0.7,0.5-1.8h-4v3.8h-1.4v-3.2c-1.3,1.4-3.1,2.5-4.8,3.2
					c-0.2-0.3-0.6-0.8-0.9-1.1c1.7-0.5,3.4-1.5,4.6-2.6h-3.6c0.2-0.9,0.4-2.4,0.5-3.5h4.2v-1.2h-4.7V286h10.9v3.5h-4.9v1.2H284.4z
					 M274.6,289.5c0,0.4-0.1,0.8-0.2,1.2h3.1v-1.2H274.6z M285.2,282.8v1.1h-3c0.5,0.4,1,0.8,1.3,1.2l-0.9,0.8c-0.3-0.4-1-1-1.5-1.4
					l0.7-0.5h-1.5c-0.3,0.5-0.8,1-1.1,1.4c-0.2-0.2-0.7-0.6-1-0.8c0.8-0.7,1.5-1.7,1.9-2.8l1.3,0.3c-0.1,0.3-0.2,0.5-0.3,0.8H285.2z
					 M278.9,288.3h3.5v-1.2h-3.5V288.3z"/>
				<path class="st7" d="M300,292.6v1.6h-13.2v-1.6H300z M298.7,283.9v1.5H288v-1.5H298.7z"/>
				<path class="st7" d="M314.9,283.3v1.2h-13.1v-1.2h6c-0.1-0.4-0.3-0.9-0.4-1.2l1.4-0.3c0.2,0.5,0.4,1.1,0.6,1.6H314.9z
					 M314.5,294.2c0,0.7-0.2,0.9-0.6,1.1c-0.5,0.2-1.2,0.2-2.2,0.2c-0.1-0.3-0.3-0.7-0.4-1c0.6,0,1.4,0,1.5,0c0.2,0,0.3-0.1,0.3-0.2
					v-4h-9.4v5.4h-1.4V289h12.2V294.2z M312.9,285.2v3.1h-9v-3.1H312.9z M306.4,294.1v0.7h-1.3v-3.9h6.4v3.2H306.4z M311.5,286.2
					h-6.1v1.1h6.1V286.2z M306.4,291.9v1.2h3.8v-1.2H306.4z"/>
				<path class="st7" d="M329.8,284.1c0,0,0,0.5,0,0.7c-0.2,6.8-0.4,9.1-1,9.8c-0.4,0.5-0.7,0.6-1.3,0.7c-0.5,0.1-1.4,0-2.3,0
					c0-0.4-0.2-1-0.4-1.4c1,0.1,1.8,0.1,2.2,0.1c0.3,0,0.5,0,0.6-0.3c0.5-0.5,0.7-2.8,0.9-8.4H325c-0.4,1-0.9,1.8-1.4,2.5
					c-0.2-0.2-0.8-0.6-1.1-0.8v6.9h-4.1v1.1h-1.3v-11h1.7c0.2-0.7,0.4-1.7,0.5-2.4l1.5,0.3c-0.3,0.8-0.5,1.5-0.8,2.2h2.4v2.8
					c1-1.3,1.8-3.3,2.2-5.3l1.3,0.3c-0.2,0.7-0.4,1.4-0.6,2H329.8z M318.4,285.4v2.8h2.8v-2.8H318.4z M321.2,292.8v-3.3h-2.8v3.3
					H321.2z M326.2,291.6c-0.4-0.9-1.4-2.4-2.2-3.5l1.1-0.6c0.8,1,1.8,2.5,2.3,3.3L326.2,291.6z"/>
				<path class="st7" d="M345,293.4v1.4h-13.2v-1.4h3.6c0.3-1.3,0.6-2.9,0.8-4.5h-2.7v-1.4h2.9c0.1-1,0.3-2,0.4-2.9h-4.1v-1.4H344
					v1.4h-5.6c-0.1,0.9-0.3,1.9-0.4,2.9h3.3l0.3-0.1l1.1,0.1c-0.1,1.7-0.3,3.9-0.5,5.9H345z M337.7,288.9c-0.3,1.7-0.6,3.2-0.8,4.5
					h3.7c0.2-1.5,0.3-3.2,0.4-4.5H337.7z"/>
				<path class="st7" d="M348.9,284c-0.4,0.7-0.9,1.3-1.4,1.7c-0.2-0.2-0.7-0.7-1-1c0.9-0.8,1.8-1.9,2.3-3.1l1.2,0.4
					c-0.1,0.3-0.2,0.5-0.4,0.8h3.6v1.2h-2.5c0.5,0.4,0.9,0.8,1.2,1.2l-0.9,0.8c-0.3-0.4-1-1.1-1.5-1.5l0.5-0.5H348.9z M357.1,290.8
					h2.9v1.1h-2.9v2.2c0,0.7-0.2,1-0.7,1.2c-0.6,0.2-1.4,0.2-2.7,0.2c-0.1-0.4-0.2-0.8-0.4-1.1c0.9,0,1.8,0,2,0
					c0.3,0,0.3-0.1,0.3-0.3V292h-5.4c0.8,0.6,1.9,1.5,2.4,2.1l-1,0.8c-0.5-0.6-1.6-1.6-2.4-2.3l0.9-0.7h-3.4v-1.1h8.8v-0.9h1.4
					V290.8z M360.2,282.8v1.2h-3c0.4,0.4,0.9,0.9,1.2,1.3l-1,0.8c-0.3-0.4-0.9-1.1-1.4-1.6l0.6-0.5h-1.3c-0.4,0.7-0.8,1.3-1.2,1.8
					l0,0v0.4h5.4v1.2h-5.4v1.1h4.5v1.1h-10.5v-1.1h4.6v-1.1h-5.3v-1.2h5.3v-0.8h0.9c-0.2-0.2-0.4-0.3-0.5-0.4c0.8-0.8,1.5-2,1.9-3.3
					l1.3,0.3c-0.1,0.3-0.2,0.6-0.3,0.8H360.2z"/>
				<path class="st7" d="M371.2,282.1c0.7,2.3,2.3,4.4,4.3,5.5c-0.3,0.3-0.8,0.9-1,1.3c-0.5-0.3-0.9-0.7-1.4-1.1c0,0.1,0,0.2,0,0.3
					c-0.2,4.6-0.4,6.3-0.9,6.9c-0.3,0.4-0.7,0.5-1.2,0.6c-0.5,0.1-1.4,0-2.3,0c0-0.4-0.2-1-0.4-1.4c0.9,0.1,1.8,0.1,2.1,0.1
					c0.3,0,0.5,0,0.6-0.2c0.3-0.4,0.5-1.8,0.7-5.3h-3.4c-0.4,2.9-1.4,5.5-5.2,7c-0.2-0.4-0.6-1-0.9-1.2c3.5-1.2,4.3-3.3,4.6-5.7
					h-2.8v-1c-0.4,0.4-0.8,0.8-1.2,1.2c-0.3-0.3-0.8-0.8-1.2-1c1.7-1.2,3.1-3.2,3.8-5.5l1.5,0.3c-0.6,1.8-1.5,3.4-2.6,4.7h8.6
					c-1.1-1.2-2-2.5-2.5-4h-2.5v-1.3H371.2z"/>
			</g>
		</g>
	</g>
	<g>
		<g>
			<g class="st6">
				<path class="st7" d="M453.3,283.9c-0.5,0.8-1,1.4-1.5,1.9c-0.2-0.2-0.7-0.7-0.9-0.9c0.9-0.8,1.7-2,2.2-3.2l1.2,0.4
					c-0.1,0.3-0.2,0.5-0.3,0.8h3.6v1.1h-2.5c0.5,0.4,0.9,0.9,1.2,1.2l-0.9,0.8c-0.3-0.4-0.9-1-1.4-1.5l0.6-0.5H453.3z M463.7,290.6
					c0,0,0,0.3,0,0.5c-0.2,2-0.4,2.9-0.8,3.3c-0.3,0.3-0.6,0.4-1,0.4c-0.4,0-1.1,0-1.9,0c0-0.4-0.2-0.9-0.4-1.3
					c0.7,0.1,1.4,0.1,1.6,0.1c0.3,0,0.4,0,0.5-0.1c0.2-0.2,0.3-0.7,0.5-1.8h-4v3.8h-1.4v-3.2c-1.3,1.4-3.1,2.5-4.8,3.2
					c-0.2-0.3-0.6-0.8-0.9-1.1c1.7-0.5,3.4-1.5,4.6-2.6h-3.6c0.2-0.9,0.4-2.4,0.5-3.5h4.2v-1.2h-4.7V286h10.9v3.5h-4.9v1.2H463.7z
					 M453.8,289.5c0,0.4-0.1,0.8-0.2,1.2h3.1v-1.2H453.8z M464.4,282.8v1.1h-3c0.5,0.4,1,0.8,1.3,1.2l-0.9,0.8c-0.3-0.4-1-1-1.5-1.4
					l0.7-0.5h-1.5c-0.3,0.5-0.8,1-1.1,1.4c-0.2-0.2-0.7-0.6-1-0.8c0.8-0.7,1.5-1.7,1.9-2.8l1.3,0.3c-0.1,0.3-0.2,0.5-0.3,0.8H464.4z
					 M458.2,288.3h3.5v-1.2h-3.5V288.3z"/>
				<path class="st7" d="M479,293.2v1.4h-12.9v-1.4H479z M478.2,283.2v1.4H467v-1.4H478.2z M477.1,288v1.4H468V288H477.1z"/>
				<path class="st7" d="M494.1,283.3v1.2H481v-1.2h6c-0.1-0.4-0.3-0.9-0.4-1.2l1.4-0.3c0.2,0.5,0.4,1.1,0.6,1.6H494.1z
					 M493.7,294.2c0,0.7-0.2,0.9-0.6,1.1c-0.5,0.2-1.2,0.2-2.2,0.2c-0.1-0.3-0.3-0.7-0.4-1c0.6,0,1.4,0,1.5,0c0.2,0,0.3-0.1,0.3-0.2
					v-4h-9.4v5.4h-1.4V289h12.2V294.2z M492.2,285.2v3.1h-9v-3.1H492.2z M485.6,294.1v0.7h-1.3v-3.9h6.4v3.2H485.6z M490.7,286.2
					h-6.1v1.1h6.1V286.2z M485.6,291.9v1.2h3.8v-1.2H485.6z"/>
				<path class="st7" d="M509,284.1c0,0,0,0.5,0,0.7c-0.2,6.8-0.4,9.1-1,9.8c-0.4,0.5-0.7,0.6-1.3,0.7c-0.5,0.1-1.4,0-2.3,0
					c0-0.4-0.2-1-0.5-1.4c1,0.1,1.8,0.1,2.2,0.1c0.3,0,0.5,0,0.6-0.3c0.5-0.5,0.7-2.8,0.9-8.4h-3.5c-0.4,1-0.9,1.8-1.4,2.5
					c-0.2-0.2-0.8-0.6-1.1-0.8v6.9h-4.1v1.1h-1.3v-11h1.7c0.2-0.7,0.4-1.7,0.5-2.4l1.5,0.3c-0.3,0.8-0.5,1.5-0.8,2.2h2.4v2.8
					c1-1.3,1.8-3.3,2.2-5.3l1.3,0.3c-0.2,0.7-0.4,1.4-0.6,2H509z M497.7,285.4v2.8h2.8v-2.8H497.7z M500.5,292.8v-3.3h-2.8v3.3
					H500.5z M505.4,291.6c-0.4-0.9-1.4-2.4-2.2-3.5l1.1-0.6c0.8,1,1.8,2.5,2.3,3.3L505.4,291.6z"/>
				<path class="st7" d="M524.2,293.4v1.4H511v-1.4h3.6c0.3-1.3,0.6-2.9,0.8-4.5h-2.7v-1.4h2.9c0.1-1,0.3-2,0.4-2.9h-4.1v-1.4h11.3
					v1.4h-5.6c-0.1,0.9-0.3,1.9-0.4,2.9h3.3l0.3-0.1l1.1,0.1c-0.1,1.7-0.3,3.9-0.5,5.9H524.2z M516.9,288.9
					c-0.3,1.7-0.6,3.2-0.8,4.5h3.7c0.2-1.5,0.3-3.2,0.4-4.5H516.9z"/>
				<path class="st7" d="M528.1,284c-0.4,0.7-0.9,1.3-1.4,1.7c-0.2-0.2-0.7-0.7-1-1c0.9-0.8,1.8-1.9,2.3-3.1l1.2,0.4
					c-0.1,0.3-0.2,0.5-0.4,0.8h3.6v1.2H530c0.5,0.4,0.9,0.8,1.2,1.2l-0.9,0.8c-0.3-0.4-1-1.1-1.5-1.5l0.5-0.5H528.1z M536.3,290.8
					h2.9v1.1h-2.9v2.2c0,0.7-0.2,1-0.7,1.2c-0.6,0.2-1.4,0.2-2.7,0.2c-0.1-0.4-0.2-0.8-0.4-1.1c0.9,0,1.8,0,2,0
					c0.3,0,0.3-0.1,0.3-0.3V292h-5.4c0.8,0.6,1.9,1.5,2.4,2.1l-1,0.8c-0.5-0.6-1.6-1.6-2.4-2.3l0.9-0.7H526v-1.1h8.8v-0.9h1.4V290.8
					z M539.5,282.8v1.2h-3c0.4,0.4,0.9,0.9,1.2,1.3l-1,0.8c-0.3-0.4-0.9-1.1-1.4-1.6l0.6-0.5h-1.3c-0.4,0.7-0.8,1.3-1.2,1.8l0,0v0.4
					h5.4v1.2h-5.4v1.1h4.5v1.1h-10.5v-1.1h4.6v-1.1h-5.3v-1.2h5.3v-0.8h0.9c-0.2-0.2-0.4-0.3-0.5-0.4c0.8-0.8,1.5-2,1.9-3.3l1.3,0.3
					c-0.1,0.3-0.2,0.6-0.3,0.8H539.5z"/>
				<path class="st7" d="M550.4,282.1c0.7,2.3,2.3,4.4,4.3,5.5c-0.3,0.3-0.8,0.9-1,1.3c-0.5-0.3-0.9-0.7-1.4-1.1c0,0.1,0,0.2,0,0.3
					c-0.2,4.6-0.4,6.3-0.9,6.9c-0.3,0.4-0.7,0.5-1.2,0.6c-0.5,0.1-1.4,0-2.3,0c0-0.4-0.2-1-0.5-1.4c0.9,0.1,1.8,0.1,2.1,0.1
					c0.3,0,0.5,0,0.6-0.2c0.3-0.4,0.5-1.8,0.7-5.3h-3.4c-0.4,2.9-1.4,5.5-5.2,7c-0.2-0.4-0.6-1-0.9-1.2c3.5-1.2,4.3-3.3,4.6-5.7H543
					v-1c-0.4,0.4-0.8,0.8-1.2,1.2c-0.3-0.3-0.8-0.8-1.2-1c1.7-1.2,3.1-3.2,3.8-5.5l1.5,0.3c-0.6,1.8-1.5,3.4-2.6,4.7h8.6
					c-1.1-1.2-2-2.5-2.5-4h-2.5v-1.3H550.4z"/>
			</g>
		</g>
	</g>
	<g>
		<g>
			<g class="st6">
				<path class="st7" d="M632.3,283.9c-0.5,0.8-1,1.4-1.5,1.9c-0.2-0.2-0.7-0.7-0.9-0.9c0.9-0.8,1.7-2,2.2-3.2l1.2,0.4
					c-0.1,0.3-0.2,0.5-0.3,0.8h3.6v1.1H634c0.5,0.4,0.9,0.9,1.2,1.2l-0.9,0.8c-0.3-0.4-0.9-1-1.4-1.5l0.6-0.5H632.3z M642.7,290.6
					c0,0,0,0.3,0,0.5c-0.2,2-0.4,2.9-0.8,3.3c-0.3,0.3-0.6,0.4-1,0.4c-0.4,0-1.1,0-1.9,0c0-0.4-0.2-0.9-0.4-1.3
					c0.7,0.1,1.4,0.1,1.6,0.1c0.3,0,0.4,0,0.5-0.1c0.2-0.2,0.3-0.7,0.5-1.8h-4v3.8h-1.4v-3.2c-1.3,1.4-3.1,2.5-4.8,3.2
					c-0.2-0.3-0.6-0.8-0.9-1.1c1.7-0.5,3.4-1.5,4.6-2.6h-3.6c0.2-0.9,0.4-2.4,0.5-3.5h4.2v-1.2h-4.7V286h10.9v3.5h-4.9v1.2H642.7z
					 M632.9,289.5c0,0.4-0.1,0.8-0.2,1.2h3.1v-1.2H632.9z M643.5,282.8v1.1h-3c0.5,0.4,1,0.8,1.3,1.2l-0.9,0.8c-0.3-0.4-1-1-1.5-1.4
					l0.7-0.5h-1.5c-0.3,0.5-0.8,1-1.1,1.4c-0.2-0.2-0.7-0.6-1-0.8c0.8-0.7,1.5-1.7,1.9-2.8l1.3,0.3c-0.1,0.3-0.2,0.5-0.3,0.8H643.5z
					 M637.2,288.3h3.5v-1.2h-3.5V288.3z"/>
				<path class="st7" d="M657.8,283.1V295h-1.5v-1h-9.5v1.1h-1.4v-12H657.8z M656.4,292.7v-2.1c-0.2,0.1-0.6,0.1-0.9,0.1H654
					c-1.2,0-1.5-0.6-1.5-1.9v-4.3h-1.8c-0.1,3.8-0.4,6-2.9,7.3c-0.2-0.3-0.5-0.8-0.8-1.1c2.1-1,2.3-2.8,2.4-6.2h-2.4v8.2H656.4z
					 M656.4,284.4h-2.5v4.4c0,0.5,0,0.7,0.4,0.7h1.2c0.2,0,0.7,0,0.9-0.1c0,0.2,0,0.5,0.1,0.8V284.4z"/>
				<path class="st7" d="M673.2,283.3v1.2h-13.1v-1.2h6c-0.1-0.4-0.3-0.9-0.4-1.2l1.4-0.3c0.2,0.5,0.4,1.1,0.6,1.6H673.2z
					 M672.8,294.2c0,0.7-0.2,0.9-0.6,1.1c-0.5,0.2-1.2,0.2-2.2,0.2c-0.1-0.3-0.3-0.7-0.4-1c0.6,0,1.4,0,1.5,0c0.2,0,0.3-0.1,0.3-0.2
					v-4h-9.4v5.4h-1.4V289h12.2V294.2z M671.2,285.2v3.1h-9v-3.1H671.2z M664.7,294.1v0.7h-1.3v-3.9h6.4v3.2H664.7z M669.8,286.2
					h-6.2v1.1h6.2V286.2z M664.7,291.9v1.2h3.8v-1.2H664.7z"/>
				<path class="st7" d="M688.1,284.1c0,0,0,0.5,0,0.7c-0.2,6.8-0.4,9.1-1,9.8c-0.4,0.5-0.7,0.6-1.3,0.7c-0.5,0.1-1.4,0-2.3,0
					c0-0.4-0.2-1-0.4-1.4c1,0.1,1.8,0.1,2.2,0.1c0.3,0,0.5,0,0.6-0.3c0.5-0.5,0.7-2.8,0.9-8.4h-3.5c-0.4,1-0.9,1.8-1.4,2.5
					c-0.2-0.2-0.8-0.6-1.1-0.8v6.9h-4.1v1.1h-1.3v-11h1.7c0.2-0.7,0.4-1.7,0.5-2.4l1.5,0.3c-0.3,0.8-0.5,1.5-0.8,2.2h2.4v2.8
					c1-1.3,1.8-3.3,2.2-5.3l1.3,0.3c-0.2,0.7-0.4,1.4-0.6,2H688.1z M676.7,285.4v2.8h2.8v-2.8H676.7z M679.5,292.8v-3.3h-2.8v3.3
					H679.5z M684.5,291.6c-0.4-0.9-1.4-2.4-2.2-3.5l1.1-0.6c0.8,1,1.8,2.5,2.3,3.3L684.5,291.6z"/>
				<path class="st7" d="M703.3,293.4v1.4h-13.2v-1.4h3.6c0.3-1.3,0.6-2.9,0.8-4.5h-2.7v-1.4h2.9c0.2-1,0.3-2,0.4-2.9H691v-1.4h11.3
					v1.4h-5.6c-0.1,0.9-0.3,1.9-0.4,2.9h3.3l0.3-0.1l1.1,0.1c-0.1,1.7-0.3,3.9-0.5,5.9H703.3z M696,288.9c-0.3,1.7-0.6,3.2-0.8,4.5
					h3.7c0.2-1.5,0.3-3.2,0.4-4.5H696z"/>
				<path class="st7" d="M707.2,284c-0.4,0.7-0.9,1.3-1.4,1.7c-0.2-0.2-0.7-0.7-1-1c0.9-0.8,1.8-1.9,2.3-3.1l1.2,0.4
					c-0.1,0.3-0.2,0.5-0.4,0.8h3.6v1.2h-2.5c0.5,0.4,0.9,0.8,1.2,1.2l-0.9,0.8c-0.3-0.4-1-1.1-1.5-1.5l0.5-0.5H707.2z M715.4,290.8
					h2.9v1.1h-2.9v2.2c0,0.7-0.2,1-0.7,1.2c-0.6,0.2-1.4,0.2-2.7,0.2c-0.1-0.4-0.2-0.8-0.4-1.1c0.9,0,1.8,0,2,0
					c0.3,0,0.3-0.1,0.3-0.3V292h-5.4c0.8,0.6,1.9,1.5,2.4,2.1l-1,0.8c-0.5-0.6-1.6-1.6-2.4-2.3l0.9-0.7h-3.4v-1.1h8.8v-0.9h1.4
					V290.8z M718.5,282.8v1.2h-3c0.5,0.4,0.9,0.9,1.2,1.3l-1,0.8c-0.3-0.4-0.9-1.1-1.4-1.6l0.6-0.5h-1.3c-0.4,0.7-0.8,1.3-1.2,1.8
					l0,0v0.4h5.4v1.2h-5.4v1.1h4.5v1.1h-10.5v-1.1h4.6v-1.1h-5.3v-1.2h5.3v-0.8h0.9c-0.2-0.2-0.4-0.3-0.5-0.4c0.8-0.8,1.5-2,1.9-3.3
					l1.3,0.3c-0.1,0.3-0.2,0.6-0.3,0.8H718.5z"/>
				<path class="st7" d="M729.5,282.1c0.7,2.3,2.3,4.4,4.3,5.5c-0.3,0.3-0.8,0.9-1,1.3c-0.5-0.3-0.9-0.7-1.4-1.1c0,0.1,0,0.2,0,0.3
					c-0.2,4.6-0.4,6.3-0.9,6.9c-0.3,0.4-0.7,0.5-1.2,0.6c-0.5,0.1-1.4,0-2.3,0c0-0.4-0.2-1-0.4-1.4c0.9,0.1,1.8,0.1,2.1,0.1
					c0.3,0,0.5,0,0.6-0.2c0.3-0.4,0.5-1.8,0.7-5.3h-3.5c-0.4,2.9-1.4,5.5-5.2,7c-0.2-0.4-0.6-1-0.9-1.2c3.5-1.2,4.3-3.3,4.6-5.7
					h-2.8v-1c-0.4,0.4-0.8,0.8-1.2,1.2c-0.3-0.3-0.8-0.8-1.2-1c1.7-1.2,3.1-3.2,3.8-5.5l1.5,0.3c-0.6,1.8-1.5,3.4-2.6,4.7h8.6
					c-1.1-1.2-2-2.5-2.5-4h-2.5v-1.3H729.5z"/>
			</g>
		</g>
	</g>
	<g>
		<g>
			<g class="st6">
				<path class="st7" d="M828.6,289.7c-0.4,1.4-1.1,2.5-2,3.5c0.8,0.6,1.7,1,2.8,1.2c-0.3,0.3-0.6,0.8-0.8,1.1
					c-1.1-0.3-2.1-0.8-2.9-1.5c-0.9,0.7-1.8,1.2-2.8,1.5c-0.2-0.3-0.5-0.8-0.7-1.1v1.1h-1.3v-1.4c-1.8,0.2-3.6,0.4-5,0.6l-0.1-1.2
					c0.4,0,0.9-0.1,1.4-0.1v-4.8h-1.2v-1.1H829v1.1h-6.9v5.8c0.9-0.3,1.8-0.7,2.6-1.3c-0.7-0.7-1.2-1.6-1.6-2.5l0.4-0.1h-0.9v-1.1h5
					l0.2,0L828.6,289.7z M819,286.9h-1.3v-4.6h9.7v4.6h-1.4v-3.6H819V286.9z M818.3,288.6v0.8h2.5v-0.8H818.3z M818.3,291.3h2.5
					v-0.8h-2.5V291.3z M818.3,293.3c0.8-0.1,1.6-0.2,2.5-0.3v-0.7h-2.5V293.3z M825.2,284v0.9h-5.7V284H825.2z M819.5,285.6h5.7v0.9
					h-5.7V285.6z M824.3,290.5c0.3,0.7,0.8,1.3,1.3,1.8c0.5-0.5,1-1.2,1.3-1.8H824.3z"/>
				<path class="st7" d="M843.9,283.3v1.2h-13.1v-1.2h6c-0.1-0.4-0.3-0.9-0.4-1.2l1.4-0.3c0.2,0.5,0.4,1.1,0.6,1.6H843.9z
					 M843.5,294.2c0,0.7-0.2,0.9-0.6,1.1c-0.5,0.2-1.2,0.2-2.2,0.2c-0.1-0.3-0.3-0.7-0.4-1c0.6,0,1.4,0,1.5,0c0.2,0,0.3-0.1,0.3-0.2
					v-4h-9.4v5.4h-1.4V289h12.2V294.2z M842,285.2v3.1h-9v-3.1H842z M835.5,294.1v0.7h-1.3v-3.9h6.4v3.2H835.5z M840.5,286.2h-6.2
					v1.1h6.2V286.2z M835.5,291.9v1.2h3.8v-1.2H835.5z"/>
				<path class="st7" d="M858.9,284.1c0,0,0,0.5,0,0.7c-0.2,6.8-0.4,9.1-1,9.8c-0.4,0.5-0.7,0.6-1.3,0.7c-0.5,0.1-1.4,0-2.3,0
					c0-0.4-0.2-1-0.4-1.4c1,0.1,1.8,0.1,2.2,0.1c0.3,0,0.5,0,0.6-0.3c0.5-0.5,0.7-2.8,0.9-8.4H854c-0.4,1-0.9,1.8-1.4,2.5
					c-0.2-0.2-0.8-0.6-1.1-0.8v6.9h-4.1v1.1h-1.3v-11h1.7c0.2-0.7,0.4-1.7,0.5-2.4l1.5,0.3c-0.3,0.8-0.5,1.5-0.8,2.2h2.4v2.8
					c1-1.3,1.8-3.3,2.2-5.3l1.3,0.3c-0.2,0.7-0.4,1.4-0.6,2H858.9z M847.5,285.4v2.8h2.8v-2.8H847.5z M850.3,292.8v-3.3h-2.8v3.3
					H850.3z M855.3,291.6c-0.4-0.9-1.4-2.4-2.2-3.5l1.1-0.6c0.8,1,1.8,2.5,2.3,3.3L855.3,291.6z"/>
				<path class="st7" d="M874.1,293.4v1.4h-13.2v-1.4h3.6c0.3-1.3,0.6-2.9,0.8-4.5h-2.7v-1.4h2.9c0.2-1,0.3-2,0.4-2.9h-4.1v-1.4
					h11.3v1.4h-5.6c-0.1,0.9-0.3,1.9-0.4,2.9h3.3l0.3-0.1l1.1,0.1c-0.1,1.7-0.3,3.9-0.5,5.9H874.1z M866.7,288.9
					c-0.3,1.7-0.6,3.2-0.8,4.5h3.7c0.2-1.5,0.3-3.2,0.4-4.5H866.7z"/>
				<path class="st7" d="M877.9,284c-0.4,0.7-0.9,1.3-1.4,1.7c-0.2-0.2-0.7-0.7-1-1c0.9-0.8,1.8-1.9,2.3-3.1l1.2,0.4
					c-0.1,0.3-0.2,0.5-0.4,0.8h3.6v1.2h-2.5c0.5,0.4,0.9,0.8,1.2,1.2l-0.9,0.8c-0.3-0.4-1-1.1-1.5-1.5l0.5-0.5H877.9z M886.1,290.8
					h2.9v1.1h-2.9v2.2c0,0.7-0.2,1-0.7,1.2c-0.6,0.2-1.4,0.2-2.7,0.2c-0.1-0.4-0.2-0.8-0.4-1.1c0.9,0,1.8,0,2,0
					c0.3,0,0.3-0.1,0.3-0.3V292h-5.4c0.8,0.6,1.9,1.5,2.4,2.1l-1,0.8c-0.5-0.6-1.6-1.6-2.4-2.3l0.9-0.7h-3.4v-1.1h8.8v-0.9h1.4
					V290.8z M889.3,282.8v1.2h-3c0.5,0.4,0.9,0.9,1.2,1.3l-1,0.8c-0.3-0.4-0.9-1.1-1.4-1.6l0.6-0.5h-1.3c-0.4,0.7-0.8,1.3-1.2,1.8
					l0,0v0.4h5.4v1.2h-5.4v1.1h4.5v1.1h-10.5v-1.1h4.6v-1.1h-5.3v-1.2h5.3v-0.8h0.9c-0.2-0.2-0.4-0.3-0.5-0.4c0.8-0.8,1.5-2,1.9-3.3
					l1.3,0.3c-0.1,0.3-0.2,0.6-0.3,0.8H889.3z"/>
				<path class="st7" d="M900.2,282.1c0.7,2.3,2.3,4.4,4.3,5.5c-0.3,0.3-0.8,0.9-1,1.3c-0.5-0.3-0.9-0.7-1.4-1.1c0,0.1,0,0.2,0,0.3
					c-0.2,4.6-0.4,6.3-0.9,6.9c-0.3,0.4-0.7,0.5-1.2,0.6c-0.5,0.1-1.4,0-2.3,0c0-0.4-0.2-1-0.4-1.4c0.9,0.1,1.8,0.1,2.1,0.1
					c0.3,0,0.5,0,0.6-0.2c0.3-0.4,0.5-1.8,0.7-5.3h-3.5c-0.4,2.9-1.4,5.5-5.2,7c-0.2-0.4-0.6-1-0.9-1.2c3.5-1.2,4.3-3.3,4.6-5.7
					h-2.8v-1c-0.4,0.4-0.8,0.8-1.2,1.2c-0.3-0.3-0.8-0.8-1.2-1c1.7-1.2,3.1-3.2,3.8-5.5l1.5,0.3c-0.6,1.8-1.5,3.4-2.6,4.7h8.6
					c-1.1-1.2-2-2.5-2.5-4h-2.5v-1.3H900.2z"/>
			</g>
		</g>
	</g>
	<g>
		<g>
			<g class="st6">
				<path class="st3" d="M156,59.9c1.1-0.1,2.2-0.2,3.3-0.4l0,1.8c-2.9,0.4-6.1,0.7-8.3,1l-0.3-1.8c1-0.1,2.1-0.2,3.4-0.3v-1.3h-2.5
					v-1.6h2.5v-1.1h-2.9v-1.6h1.8c-0.3-0.5-0.7-1.1-1.1-1.6l0.9-0.5h-2.1v-1.7h2.3v-0.8l-0.9,0.6c-0.2-0.6-0.9-1.4-1.4-2l1.2-0.8
					c0.3,0.4,0.7,0.8,1,1.2v-1.8h1.6v3.6h0.8v-3.6h1.6v2c0.4-0.5,0.7-0.9,0.9-1.3l1.6,0.9c-0.7,0.7-1.4,1.5-1.9,2l-0.6-0.4v0.5h2.2
					v1.7H157l1.2,0.4c-0.3,0.6-0.6,1.2-0.9,1.7h1.5v1.6H156v1.1h2.5v1.6H156V59.9z M153.7,52.4c0.4,0.5,0.8,1.1,1,1.5l-1,0.6h1.8
					c0.3-0.6,0.7-1.4,0.9-2.1H153.7z M166.2,53.2h-1.3v7.4c0,1-0.2,1.5-0.8,1.9c-0.6,0.3-1.5,0.4-2.8,0.4c-0.1-0.5-0.4-1.4-0.7-1.9
					c0.9,0,1.7,0,2,0c0.3,0,0.4-0.1,0.4-0.4v-7.4h-3.7v-1.9h3.7v-4.2h2v4.2h1.3V53.2z M160.7,58.6c-0.1-1-0.6-2.6-1.2-3.8l1.7-0.6
					c0.6,1.2,1.2,2.7,1.3,3.8L160.7,58.6z"/>
				<path class="st3" d="M170.8,55c-0.7-0.6-2.1-1.3-3.2-1.8l1.1-1.5c1.1,0.4,2.5,1.1,3.3,1.6L170.8,55z M168.1,61.4
					c0.9-1.3,2.1-3.4,3.1-5.3l1.5,1.3c-0.9,1.8-1.9,3.7-2.9,5.3L168.1,61.4z M169.7,47.1c1.1,0.4,2.5,1.1,3.2,1.7l-1.2,1.6
					c-0.6-0.6-2.1-1.4-3.1-1.9L169.7,47.1z M183.1,50.3v8h-2v-0.8H179v5.4h-2v-5.4h-2.1v1H173v-8.1h4v-3.2h2v3.2H183.1z M177,55.5
					v-3.2h-2.1v3.2H177z M181.2,55.5v-3.2H179v3.2H181.2z"/>
				<path class="st3" d="M199.1,57.3c0,0.8-0.2,1.3-0.8,1.5c-0.6,0.2-1.3,0.3-2.3,0.3c1.3,0.7,2.9,1.2,4.6,1.5
					c-0.4,0.4-1,1.3-1.3,1.8c-2.2-0.5-4.1-1.6-5.5-2.8V63h-2.2v-3.4c-1.5,1.3-3.5,2.3-5.6,2.9c-0.3-0.5-0.8-1.3-1.3-1.7
					c2.8-0.6,5.5-1.8,6.9-3.5v-1.2h-3.2v3h-2.1v-4.7h5.4v-0.8h-6.5v-1.7h4.6c-0.4-0.5-1.1-1.2-1.6-1.7l0.6-0.6h-1
					c-0.5,0.9-1.1,1.6-1.8,2.2c-0.3-0.3-1-1.1-1.3-1.4c1-0.9,1.9-2.2,2.5-3.6l1.8,0.5c-0.1,0.2-0.2,0.4-0.3,0.7h3.7v1.5h-2.4
					c0.4,0.4,0.9,0.8,1.1,1.1l-1.2,1.1h1.8v-0.9h1.5c-0.4-0.3-0.8-0.6-1.1-0.8c0.9-0.8,1.7-2,2.1-3.2l1.8,0.5
					c-0.1,0.2-0.2,0.5-0.3,0.7h4.7v1.5h-2.9c0.5,0.4,0.9,0.8,1.2,1.1l-1.3,1.2c-0.4-0.5-1.1-1.1-1.7-1.6l0.7-0.6h-1.4
					c-0.3,0.5-0.7,1-1,1.3v0.9h6.1v1.7h-6.1v0.8h5.3V57.3z M193.8,57.6c0.6,0.5,1.3,1,2.1,1.4c-0.1-0.5-0.4-1.1-0.7-1.5
					c0.6,0.1,1.3,0,1.4,0c0.2,0,0.3-0.1,0.3-0.2v-1.2h-3.2V57.6z"/>
				<path class="st3" d="M217.4,49.5c-0.7,1.6-1.7,3-2.9,4.2c1,0.6,2,1,3.2,1.3c-0.2,0.5-0.4,1.4-0.4,2c-0.2-0.1-0.5-0.1-0.7-0.2
					v6.1h-1.8v-0.8h-3.5v0.9h-1.8v-6.1c-0.3,0.1-0.6,0.2-0.9,0.3c-0.1-0.4-0.3-1-0.5-1.5V60h-4.4v1.1h-1.5V48.3h5.9v3.3
					c1.3-1.1,2.5-2.8,3.2-4.6l1.7,0.5c-0.2,0.4-0.4,0.9-0.6,1.3h3.5l0.4-0.1L217.4,49.5z M203.7,50v3.2h0.9V50H203.7z M203.7,58.2
					h0.9v-3.5h-0.9V58.2z M206.6,50h-0.9v3.2h0.9V50z M206.6,58.2v-3.5h-0.9v3.5H206.6z M208.1,55c1.2-0.3,2.4-0.8,3.5-1.5
					c-0.5-0.5-0.9-1.1-1.2-1.6c-0.4,0.5-0.8,0.9-1.3,1.3c-0.2-0.3-0.7-1-1-1.4V55z M215.7,56.4c-1-0.4-1.9-0.9-2.7-1.5
					c-0.9,0.6-1.8,1.1-2.7,1.5H215.7z M214.7,60.2v-2h-3.5v2H214.7z M211.5,50.6c0.4,0.7,0.9,1.3,1.5,1.9c0.7-0.6,1.2-1.2,1.7-1.9
					H211.5z"/>
				<path class="st3" d="M224.8,56.1l-1.9,0.5v4.1c0,1-0.2,1.5-0.8,1.8c-0.6,0.3-1.4,0.4-2.6,0.4c-0.1-0.5-0.3-1.3-0.6-1.9
					c0.7,0,1.4,0,1.6,0c0.2,0,0.3-0.1,0.3-0.3v-3.5c-0.7,0.2-1.3,0.3-1.9,0.5l-0.5-2c0.7-0.2,1.5-0.3,2.4-0.6v-2.9h-2.1v-1.9h2.1
					v-3.2h2v3.2h1.7v1.9h-1.7v2.5c0.6-0.2,1.2-0.3,1.7-0.4L224.8,56.1z M228.1,54.1c-2.2,0-2.9-0.7-2.9-2.7v-4.4h2v1.8h6.6v1.7h-6.6
					v0.9c0,0.6,0.2,0.9,0.9,0.9h3.8c0.7,0,1.7,0,2.2-0.1c0.1,0.5,0.1,1.3,0.2,1.7c-0.4,0.1-1.4,0.2-2.3,0.2H228.1z M225.4,55.2h8.3
					v7.7h-2v-0.7h-4.3v0.7h-1.9V55.2z M227.3,56.9v1h4.3v-1H227.3z M231.6,60.6v-1.1h-4.3v1.1H231.6z"/>
				<path class="st3" d="M250.3,51.9c-0.3,2.5-0.7,4.6-1.5,6.4c0.7,1.3,1.5,2.3,2.7,3c-0.4,0.3-0.9,0.9-1.1,1.4
					c-1-0.7-1.8-1.6-2.5-2.7c-0.8,1.2-1.8,2.2-3,3c-0.1-0.3-0.5-0.8-0.8-1.2l-1.1,0.9c-0.6-0.4-1.3-0.8-2.2-1.2
					c-1.1,0.5-2.7,1-4.8,1.3c-0.1-0.4-0.5-1-0.7-1.3c1.5-0.2,2.7-0.5,3.6-0.8c-0.8-0.3-1.5-0.6-2.3-0.8c0.2-0.3,0.5-0.6,0.7-1
					l-1.5,0.1l-0.2-1.3c0.7,0,1.6-0.1,2.6-0.1c0.2-0.3,0.4-0.7,0.6-1.1h-2.5v-3.1h3V53h-2.6v-1.8h-1.3v-1.4h1.3v-1.7h2.6v-1h1.5v1
					h2.7v1.7h1.2v1.4h-1.2V53H241v0.5h3.1v1.2c1.1-1.8,1.7-4.7,2-7.6l1.7,0.2c-0.1,1-0.3,1.9-0.4,2.8h4v1.8H250.3z M238.1,55.4h1.4
					v-0.6h-1.4V55.4z M238.6,49.4v0.5h0.9v-0.5H238.6z M239.5,51.8v-0.6h-0.9v0.6H239.5z M239,59.4c0.6,0.2,1.1,0.4,1.7,0.6
					c0.6-0.4,1-0.8,1.2-1.2l-2.6,0.1L239,59.4z M243.7,58.7c-0.2,0.7-0.5,1.4-1.3,2c0.6,0.3,1.2,0.5,1.6,0.8c1.4-0.8,2.3-1.9,3-3.2
					c-0.4-1-0.7-2.2-1-3.4c-0.2,0.4-0.4,0.9-0.6,1.2c-0.3-0.3-0.9-1-1.2-1.2v1.8h-3.4c-0.2,0.3-0.4,0.6-0.5,1l2-0.1v-0.6h1.6v0.5
					l0.5,0l0,1.3L243.7,58.7z M241,49.4v0.5h1v-0.5H241z M242,51.8v-0.6h-1v0.6H242z M241,54.7v0.6h1.4v-0.6H241z M247,51.9
					c0.2,1.4,0.5,2.8,0.9,4.1c0.4-1.2,0.6-2.6,0.7-4.1H247z"/>
				<path class="st3" d="M262.5,55.8c1.5,1.9,3.8,3.7,6.1,4.7c-0.5,0.4-1.1,1.2-1.5,1.8c-2-1-4-2.7-5.5-4.7V63h-2.2v-5.3
					c-1.5,1.9-3.5,3.5-5.5,4.6c-0.3-0.5-1-1.3-1.5-1.8c2.3-1,4.6-2.8,6.1-4.7H253v-2h6.4v-2.2h-5.2v-2h5.2v-2.5h2.2v2.5h5.3v2h-5.3
					v2.2h6.5v2H262.5z"/>
				<path class="st3" d="M283.7,57.1c-0.5-0.5-1.3-1.3-2.2-2c-0.3,0.6-0.7,1.1-1.1,1.5c-0.3-0.2-0.9-0.6-1.3-0.9
					c1.5,2,3.9,3.8,6.5,4.7c-0.5,0.4-1.2,1.3-1.5,1.9c-2.1-1-4-2.5-5.5-4.3v4.9h-2.1v-4.8c-1.5,1.8-3.4,3.3-5.5,4.2
					c-0.3-0.5-1-1.3-1.4-1.7c2.8-1.1,5.4-3.2,6.9-5.5v-3.9h-6.2v-2h6.2v-2.1h2.1v2.1h6.4v2h-6.4V55c0.1,0.1,0.2,0.3,0.3,0.4
					c1.1-1,1.8-2.5,2.1-4.1l2,0.4c-0.2,0.6-0.3,1.2-0.6,1.8c1,0.7,2.1,1.6,2.8,2.2L283.7,57.1z M274.9,51.6
					c-0.2,0.6-0.4,1.2-0.6,1.8c0.6,0.5,1.3,1.1,1.6,1.5l-1.4,1.4c-0.3-0.3-0.7-0.7-1.1-1.2c-0.6,0.9-1.2,1.7-2,2.3
					c-0.3-0.4-1.1-1-1.6-1.3c1.5-1.1,2.5-2.9,3-4.9L274.9,51.6z"/>
				<path class="st3" d="M287.4,59.4h2.7v-8h-2.3v-1.5c1.3-0.2,2.1-0.6,2.9-1.1h1.9v10.6h2.4v2h-7.6V59.4z"/>
				<path class="st3" d="M296.8,60c3.4-3.1,5.4-5.4,5.4-7.4c0-1.3-0.7-2-1.9-2c-0.9,0-1.7,0.6-2.3,1.3l-1.4-1.4
					c1.2-1.2,2.3-1.9,4-1.9c2.4,0,4,1.5,4,3.9c0,2.3-1.9,4.7-4.2,7c0.6-0.1,1.5-0.1,2-0.1h2.7v2.1h-8.4V60z"/>
				<path class="st3" d="M311.6,47.7c-0.4,1.1-0.8,2.2-1.3,3.2V63h-1.9v-8.7c-0.4,0.5-0.7,1-1.1,1.5c-0.2-0.5-0.6-1.7-1-2.2
					c1.4-1.5,2.7-4,3.5-6.4L311.6,47.7z M322,47.9v14.8h-1.9v-0.8h-6.4v1h-1.8v-15H322z M320.1,60.2V49.7h-6.4v10.5H320.1z
					 M317.6,53.2v1.5h1.6v4.6h-4.7v-4.6h1.5v-1.5h-2v-1.5h2V50h1.6v1.7h2.1v1.5H317.6z M317.7,56.1H316v1.8h1.7V56.1z"/>
				<path class="st3" d="M337.3,60.4c0,1.2-0.3,1.8-1.1,2.1c-0.8,0.4-2,0.4-3.8,0.4c-0.1-0.6-0.5-1.6-0.9-2.1c1.2,0.1,2.6,0.1,3,0.1
					c0.4,0,0.5-0.1,0.5-0.5v-2.5h-7.3c-0.4,1.9-1.3,3.8-2.9,5.1c-0.3-0.4-1.1-1.2-1.6-1.5c2.6-2.2,2.8-5.4,2.8-8v-5.6h11V60.4z
					 M335.2,55.9v-2.1h-6.8c0,0.6-0.1,1.4-0.1,2.1H335.2z M328.3,49.8v2.1h6.8v-2.1H328.3z"/>
				<path class="st3" d="M356.1,49.7c0,0,0,0.7,0,0.9c-0.2,7.6-0.4,10.3-1.1,11.2c-0.5,0.6-1,0.8-1.6,0.9c-0.6,0.1-1.7,0.1-2.7,0
					c0-0.6-0.3-1.4-0.7-2c1.1,0.1,2.1,0.1,2.5,0.1c0.3,0,0.5-0.1,0.7-0.3c0.5-0.5,0.7-3.1,0.9-9.1h-3.6c-0.4,1-1,2-1.5,2.7
					c-0.3-0.3-0.9-0.6-1.3-1v7.9h-4.5v1.2h-1.8V49.8h1.9c0.2-0.8,0.4-1.9,0.5-2.7l2.2,0.3c-0.3,0.9-0.6,1.7-0.9,2.4h2.6v2.8
					c1-1.4,1.8-3.5,2.3-5.5l1.9,0.4c-0.2,0.7-0.4,1.4-0.7,2.2H356.1z M345.9,51.6h-2.7v2.8h2.7V51.6z M345.9,59.4v-3.3h-2.7v3.3
					H345.9z M351.5,58.5c-0.5-1-1.5-2.7-2.4-3.9l1.6-0.9c0.9,1.2,2,2.8,2.5,3.8L351.5,58.5z"/>
			</g>
			<g class="st6">
				<path class="st3" d="M166.3,79.7h-5.8v3.6h-2.1v-3.6h-7.6v-1.9h2.7v-4.5h5v-2h-3.6c-0.7,1.2-1.5,2.3-2.3,3.1
					c-0.4-0.3-1.3-1-1.8-1.3c1.5-1.3,2.8-3.5,3.6-5.7l2.1,0.5c-0.2,0.5-0.3,0.9-0.6,1.4h9.6v2h-4.9v2h4.5v1.9h-4.5v2.6h5.8V79.7z
					 M158.4,77.8v-2.6h-2.9v2.6H158.4z"/>
				<path class="st3" d="M173.7,68.2c-0.5,1.1-1,2.2-1.6,3.2v11.9h-1.9v-9.2c-0.5,0.7-1.1,1.3-1.6,1.8c-0.2-0.5-0.7-1.6-1.1-2.1
					c1.7-1.5,3.4-3.9,4.4-6.3L173.7,68.2z M180.4,81.2c0.9,0,1-0.7,1.2-3.5c0.5,0.4,1.3,0.7,1.8,0.9c-0.2,3.3-0.7,4.5-2.8,4.5h-2.8
					c-2.1,0-2.7-0.7-2.7-3V67.8h2v4.3h5.9V74H177V80c0,1,0.1,1.2,0.9,1.2H180.4z"/>
				<path class="st3" d="M200,70.1c0,0,0,0.7,0,0.9c-0.2,7.6-0.4,10.3-1.1,11.2c-0.5,0.6-1,0.8-1.6,0.9c-0.6,0.1-1.7,0.1-2.7,0
					c0-0.6-0.3-1.4-0.7-2c1.1,0.1,2.1,0.1,2.5,0.1c0.3,0,0.5-0.1,0.7-0.3c0.5-0.5,0.7-3.1,0.9-9.1h-3.6c-0.4,1-1,2-1.5,2.7
					c-0.3-0.3-0.9-0.6-1.3-1v7.9h-4.5v1.2h-1.8V70.2h1.9c0.2-0.8,0.4-1.9,0.5-2.7l2.2,0.3c-0.3,0.9-0.6,1.7-0.9,2.4h2.6V73
					c1-1.4,1.8-3.5,2.3-5.5l1.9,0.4c-0.2,0.7-0.4,1.4-0.7,2.2H200z M189.9,72h-2.7v2.8h2.7V72z M189.9,79.8v-3.3h-2.7v3.3H189.9z
					 M195.5,78.9c-0.5-1-1.5-2.7-2.4-3.9l1.6-0.9c0.9,1.2,2,2.8,2.5,3.8L195.5,78.9z"/>
				<path class="st3" d="M206.8,80.6c0.9,0.3,2.1,0.4,3.5,0.4c1.3,0,5.8,0,7.4-0.1c-0.3,0.5-0.6,1.4-0.8,2h-6.6
					c-3.2,0-5.2-0.4-6.5-2.3c-0.2,1.1-0.4,2-0.8,2.8c-0.3-0.2-1.2-0.7-1.6-0.9c0.9-1.7,1-4.4,1-7.3l1.8,0.1c0,0.8,0,1.6-0.1,2.3
					c0.3,0.8,0.6,1.4,1,1.8v-5.1h-3.2v-1.8h2.9v-1.6h-2.5v-1.8h2.5v-1.7h1.9v1.7h2.4v1.8h-2.4v1.6h2.7v0.4c1.1-0.7,1.7-1.8,2-3.2
					h-1.8v-1.7h7.5c0,0,0,0.5,0,0.7c-0.1,2.8-0.3,4.1-0.7,4.5c-0.3,0.4-0.7,0.5-1.1,0.6c-0.4,0.1-1.1,0.1-1.9,0
					c0-0.5-0.2-1.2-0.5-1.7c0.6,0.1,1.1,0.1,1.4,0.1c0.2,0,0.4,0,0.5-0.2c0.2-0.2,0.3-0.9,0.4-2.4h-1.8c-0.4,2.1-1.3,3.6-2.9,4.6
					c-0.2-0.2-0.7-0.6-1.1-0.9v0.8h-2.4v1.9h2.2v1.8h-2.2V80.6z M209.9,74.6h6.6v5.4h-6.6V74.6z M211.8,78.3h2.8v-2.1h-2.8V78.3z"/>
				<path class="st3" d="M225.6,78.1L225.6,78.1l0.1,5.2h-1.8v-0.4h-2.2v0.4H220v-4.9c-0.2,0.1-0.4,0.2-0.6,0.2
					c-0.2-0.5-0.6-1.2-1-1.6c1-0.3,2.1-0.7,2.9-1.3c-0.3-0.2-0.6-0.4-0.9-0.5l1.1-1.2l1.1,0.6c0.4-0.3,0.7-0.7,1-1.1h-2.1
					c-0.5,0.7-1.1,1.3-1.9,1.9c-0.2-0.4-0.7-1.1-1-1.3c1.3-0.8,2.1-2,2.4-3.1l1.5,0.3c-0.1,0.3-0.2,0.5-0.3,0.8h2.1l0.3-0.1l0,0
					v-1.3h-4.6v1.5h-1.5v-3.1h3c-0.1-0.4-0.3-0.8-0.4-1.1l1.6-0.6c0.2,0.5,0.4,1.1,0.6,1.6h2.7v3.1h-1.3l0.7,0.5
					c-0.4,1.1-1,2-1.7,2.8c0.9,0.5,1.8,1.1,2.4,1.5L225.6,78.1z M225,78.1c-0.6-0.4-1.3-0.9-2.1-1.4c-0.7,0.5-1.4,1-2.2,1.4H225z
					 M223.9,81.3v-1.7h-2.2v1.7H223.9z M231.8,80c0.9,0.5,2.1,1.4,2.8,2l-1.2,1.4c-0.6-0.6-1.9-1.6-2.8-2.2l1-1.1h-2.5l1.2,1.3
					c-1,0.8-2.5,1.6-3.7,2.2c-0.2-0.4-0.5-1.1-0.8-1.5c1-0.5,2.4-1.3,3.2-2h-1.8v-9h2.2c0.1-0.4,0.1-0.8,0.2-1.2h-2.8v-1.7h7.6v1.7
					h-3c-0.1,0.4-0.2,0.8-0.4,1.2h2.9v9H231.8z M229,73.5h3v-1h-3V73.5z M229,76h3v-1h-3V76z M229,78.4h3v-1h-3V78.4z"/>
				<path class="st3" d="M240.5,71.8h2.7v1.7h-1.7l1,0.3c-0.3,0.6-0.6,1.2-0.9,1.7h1.2v1.7h-2.4v1.4h2.7v1.7h-2.7v3h-1.9v-3h-2.9
					v-1.7h2.9v-1.4h-2.5v-1.7h1.2c-0.1-0.5-0.4-1.2-0.6-1.7l1-0.3h-2v-1.7h2.9v-1.2h-2.5V69h2.5v-1.5h1.9V69h2.3v1.7h-2.3V71.8z
					 M240,75.5c0.3-0.6,0.6-1.4,0.8-2h-2.6c0.3,0.6,0.6,1.3,0.7,1.7l-0.8,0.3H240z M251.1,74.4c-0.3,2-0.9,3.9-1.8,5.4
					c0.7,0.8,1.5,1.4,2.3,1.8c-0.4,0.4-1,1.1-1.3,1.6c-0.8-0.5-1.5-1.1-2.1-1.8c-0.6,0.7-1.2,1.4-1.9,1.9c-0.2-0.3-0.5-0.6-0.8-0.9
					v0.9h-1.8V68.2h7v3.2c0,0.9-0.2,1.4-0.9,1.6c-0.6,0.3-1.6,0.3-2.8,0.3c-0.1-0.5-0.3-1.2-0.6-1.7c0.8,0,1.8,0,2,0
					c0.3,0,0.3-0.1,0.3-0.3v-1.4h-3.3V74h4l0.3-0.1L251.1,74.4z M245.5,81.6c0.6-0.5,1.1-1.1,1.6-1.7c-0.6-1-1.2-2.2-1.6-3.5V81.6z
					 M246.9,75.6c0.3,0.9,0.7,1.8,1.2,2.5c0.4-0.8,0.7-1.6,0.9-2.5H246.9z"/>
				<path class="st3" d="M267.9,67.9v15.5h-1.7v-6.8l-0.5,0.3c-0.1-0.6-0.4-1.3-0.6-2.1v8.1h-1.5v-6.3l-0.6,0.3
					c-0.1-0.6-0.3-1.4-0.5-2.2c0,3.2-0.2,6.3-1.6,8.8c-0.3-0.3-1-0.8-1.5-1c1-1.7,1.3-3.7,1.4-5.8l-0.8,0.4
					c-0.1-0.9-0.5-2.4-0.8-3.5V83h-1.4v-0.8h-3.4v1h-1.4V71.4h1.5v-1.6h-1.8v-1.6h6.6v1.6h-1.8v1.6h1.6v1.9l1.1-0.5
					c0.2,0.6,0.4,1.3,0.6,2v-0.1v-6.7h1.6V73l0.6-0.3c0.2,0.5,0.4,1.1,0.6,1.7v-6.2h1.5v4.6l0.4-0.2c0.3,0.5,0.5,1.1,0.7,1.7v-6.4
					L267.9,67.9z M257.7,80.6v-4h-0.5c-0.7,0-1-0.2-1-1.2V73h-0.5v1.5c0,0.9-0.2,2.2-0.9,3c-0.1-0.1-0.3-0.3-0.5-0.5v3.7H257.7z
					 M254.3,73v3.6c0.5-0.7,0.5-1.5,0.5-2.2V73H254.3z M254.8,78h2.3v1.4h-2.3V78z M255.7,71.4h0.5v-1.6h-0.5V71.4z M257.7,73h-0.5
					v2.4c0,0.2,0,0.3,0.2,0.3h0.3h0.1V73z"/>
			</g>
		</g>
		<g>
			<circle class="st3" cx="128.6" cy="54.5" r="3.8"/>
			<rect x="117.2" y="53" class="st3" width="22.8" height="2.8"/>
		</g>
	</g>
	<g>
		<rect x="117.2" y="104.6" class="st4" width="22.8" height="6.8"/>
		<g>
			<g class="st6">
				<path class="st4" d="M166.3,109.3h-6.7v5.6h-2.1v-5.6h-6.6v-2.1h6.6v-5.2h-5.7v-2h13.5v2h-5.7v5.2h6.7V109.3z M154.6,102.7
					c0.6,1.1,1.2,2.5,1.4,3.5l-2,0.6c-0.2-0.9-0.7-2.4-1.2-3.5L154.6,102.7z M160.9,106.2c0.5-1,1.2-2.5,1.5-3.6l2.2,0.5
					c-0.6,1.3-1.3,2.7-1.9,3.6L160.9,106.2z"/>
				<path class="st4" d="M173,108l0.5,1.8c-1.8,0.9-3.7,1.8-5.2,2.5l-0.8-2c0.6-0.2,1.3-0.5,2.1-0.8v-4.5h-1.8V103h1.8v-3.7h1.9v3.7
					h1.6v1.9h-1.6v3.7L173,108z M183.2,102.6c-0.2,7.7-0.4,10.4-1.1,11.3c-0.5,0.7-1,0.9-1.7,1c-0.7,0.1-1.8,0.1-2.8,0
					c0-0.5-0.3-1.4-0.7-2c1.2,0.1,2.3,0.1,2.8,0.1c0.3,0,0.5-0.1,0.7-0.3c0.5-0.5,0.7-3.3,0.9-9.3h-4.9c-0.5,1-1,1.9-1.5,2.6
					c-0.4-0.3-1.2-0.8-1.7-1.1c1.2-1.4,2.2-3.7,2.9-5.9l1.9,0.5c-0.2,0.7-0.4,1.4-0.7,2.1h6.1V102.6z M175,108.9h5.2v1.7H175V108.9z
					 M179.8,105.6v1.7h-4v-1.7H179.8z"/>
				<path class="st4" d="M189.9,99.7c-0.4,1.2-1,2.5-1.6,3.7v11.5h-1.9v-8.5c-0.3,0.4-0.6,0.8-0.9,1.1c-0.2-0.5-0.7-1.6-1.1-2.1
					c1.5-1.5,2.9-3.9,3.7-6.4L189.9,99.7z M200.4,112.9v1.7H189v-1.7h1.5v-9.4h2.9c0.1-0.4,0.1-0.7,0.2-1.2h-3.9v-1.7h4.1
					c0.1-0.5,0.1-1,0.1-1.5l2.1,0.1c-0.1,0.5-0.2,1-0.3,1.4h4.2v1.7h-4.5c-0.1,0.4-0.2,0.8-0.3,1.2h3.9v9.4H200.4z M192.2,105v0.9h5
					V105H192.2z M197.3,107.3h-5v0.9h5V107.3z M192.2,109.6v1h5v-1H192.2z M192.2,112.9h5v-1h-5V112.9z"/>
				<path class="st4" d="M207.1,104.1h3.1v1.9h-3.1v0.6c0.9,0.7,2.5,2.2,3,2.6l-1.2,1.7c-0.4-0.5-1.1-1.3-1.8-2.1v6.1h-2v-6
					c-0.7,1.5-1.6,2.9-2.5,3.9c-0.2-0.6-0.7-1.5-1-2c1.2-1.2,2.5-3.1,3.2-4.9h-2.9v-1.9h3.2V102c-1,0.2-1.9,0.3-2.8,0.5
					c-0.1-0.5-0.4-1.2-0.6-1.6c2.5-0.4,5.2-1,6.8-1.8l1.4,1.5c-0.8,0.3-1.8,0.6-2.8,0.9V104.1z M213.1,110.6h-2v-9.5h2V110.6z
					 M216.7,99.4v13.1c0,1.2-0.2,1.7-0.9,2.1s-1.8,0.4-3.4,0.4c-0.1-0.6-0.4-1.5-0.7-2.1c1.1,0.1,2.2,0.1,2.5,0.1
					c0.3,0,0.5-0.1,0.5-0.4V99.4H216.7z"/>
				<path class="st4" d="M229,109.1c-0.1-0.2-0.2-0.5-0.3-0.8c-4.1,0.4-4.7,0.5-5.1,0.7c-0.1-0.3-0.3-1.2-0.5-1.6
					c-1.1,0.6-2.3,1.2-3.3,1.7l-1-1.6c1.1-0.4,2.7-1.1,4.2-1.7l0.4,1.5l-0.3,0.2c0.4-0.1,0.9-0.4,1.4-0.9c0.3-0.2,0.7-0.6,1.3-1.2
					c-1.3,0.1-1.7,0.2-1.9,0.3c-0.1-0.4-0.4-1.1-0.5-1.6c0.3-0.1,0.5-0.3,0.8-0.6c0.2-0.2,0.5-0.6,0.9-1.2h-5.8v-1.8h6.3
					c-0.2-0.3-0.4-0.7-0.6-1L227,99c0.3,0.4,0.7,1,0.9,1.4h6.1v1.8h-7c-0.4,0.5-0.7,1-1.2,1.5l1.5-0.1c0.4-0.4,0.8-0.9,1.1-1.4
					l1.5,0.9c-1.2,1.4-2.5,2.7-3.9,3.8l1.8-0.1c-0.2-0.3-0.4-0.6-0.6-0.9l1.5-0.5c0.3,0.3,0.5,0.7,0.8,1.1l1.1-0.9
					c1.1,0.6,2.6,1.5,3.4,2.2l-1.5,1.2c-0.6-0.6-1.7-1.3-2.7-2c0.3,0.5,0.5,1,0.7,1.4L229,109.1z M234.3,111.8h-6.7v3.1h-2.2v-3.1
					h-6.6v-1.9h6.6v-1.1h2.2v1.1h6.7V111.8z M221.7,105.6c-0.5-0.6-1.6-1.4-2.5-1.9l1.3-1.1c0.9,0.5,2,1.3,2.6,1.8L221.7,105.6z
					 M229.7,104.7c0.7-0.5,1.6-1.4,2.2-2.1l1.7,1c-0.7,0.8-1.7,1.5-2.4,2.1L229.7,104.7z"/>
			</g>
		</g>
	</g>
	<g>
		<rect x="86" y="222.3" class="st4" width="118.3" height="17.7"/>
		<rect x="264.2" y="207.1" class="st4" width="118.3" height="32.8"/>
		<rect x="443.5" y="180.1" class="st4" width="118.3" height="59.8"/>
		<rect x="622.5" y="162.1" class="st4" width="118.3" height="77.8"/>
		<rect x="800.8" y="142.5" class="st4" width="118.3" height="97.5"/>
	</g>
	<g>
		<circle class="st3" cx="145.1" cy="242" r="4.9"/>
		<circle class="st3" cx="323.4" cy="192.4" r="4.9"/>
		<circle class="st3" cx="502.6" cy="150.3" r="4.9"/>
		<circle class="st3" cx="681.7" cy="33.3" r="4.9"/>
		<circle class="st3" cx="859.9" cy="30.3" r="4.9"/>
	</g>
	<polyline class="st5" points="143.8,242 323.4,192.4 502.6,150.3 680.8,33.3 859.9,30.3 	"/>
	<g>
		<g>
			<g class="st6">
				<path d="M100.1,235.4h2.4v-7.7h-2v-1.1c1-0.2,1.8-0.5,2.4-0.8h1.3v9.6h2.2v1.4h-6.3V235.4z"/>
				<path d="M108.4,235.8c0-0.7,0.5-1.2,1.2-1.2s1.2,0.5,1.2,1.2s-0.5,1.2-1.2,1.2S108.4,236.5,108.4,235.8z"/>
				<path d="M113.1,235.4h2.4v-7.7h-2v-1.1c1-0.2,1.8-0.5,2.4-0.8h1.3v9.6h2.2v1.4h-6.3V235.4z"/>
				<path d="M122.1,234.8c0.4,0.5,1.1,0.8,1.8,0.8c1.3,0,2.5-1.1,2.6-4.2c-0.6,0.8-1.6,1.3-2.4,1.3c-1.8,0-3.1-1.2-3.1-3.5
					c0-2.2,1.5-3.6,3.3-3.6c2.1,0,3.8,1.7,3.8,5.4c0,4.3-2,6.1-4.1,6.1c-1.3,0-2.2-0.5-2.8-1.2L122.1,234.8z M126.5,230
					c-0.2-2.2-1-3.2-2.2-3.2c-0.9,0-1.7,0.9-1.7,2.3c0,1.4,0.6,2.2,1.8,2.2C125.1,231.4,125.8,231,126.5,230z"/>
				<path d="M129.4,229c0-2.2,1-3.5,2.6-3.5c1.5,0,2.6,1.3,2.6,3.5s-1,3.5-2.6,3.5C130.5,232.5,129.4,231.2,129.4,229z M133.3,229
					c0-1.7-0.6-2.5-1.3-2.5c-0.8,0-1.3,0.8-1.3,2.5c0,1.7,0.6,2.5,1.3,2.5C132.8,231.5,133.3,230.7,133.3,229z M138.4,225.5h1.1
					l-6.1,11.4h-1.1L138.4,225.5z M137.3,233.5c0-2.2,1-3.5,2.6-3.5c1.5,0,2.6,1.3,2.6,3.5s-1,3.5-2.6,3.5
					C138.3,237,137.3,235.7,137.3,233.5z M141.2,233.5c0-1.7-0.6-2.5-1.3-2.5c-0.8,0-1.3,0.8-1.3,2.5c0,1.7,0.6,2.5,1.3,2.5
					C140.6,236,141.2,235.2,141.2,233.5z"/>
			</g>
		</g>
		<g>
			<g class="st6">
				<path d="M304.9,227.5c3.3-2.9,4.9-5,4.9-6.8c0-1.2-0.6-2-1.9-2c-0.9,0-1.6,0.6-2.2,1.2l-1-1c0.9-1,1.9-1.7,3.4-1.7
					c2,0,3.3,1.3,3.3,3.3c0,2.1-1.7,4.3-4,6.6c0.6-0.1,1.3-0.1,1.8-0.1h2.8v1.5h-7.1V227.5z"/>
				<path d="M313.9,227.5c0-0.7,0.5-1.2,1.2-1.2c0.6,0,1.2,0.5,1.2,1.2s-0.5,1.2-1.2,1.2C314.4,228.7,313.9,228.2,313.9,227.5z"/>
				<path d="M317.7,227.2l0.8-1.1c0.6,0.7,1.5,1.2,2.6,1.2c1.2,0,2.1-0.7,2.1-1.8c0-1.2-0.8-2-3.3-2v-1.3c2.2,0,2.9-0.8,2.9-1.9
					c0-1-0.6-1.6-1.7-1.6c-0.9,0-1.6,0.4-2.2,1l-0.9-1.1c0.9-0.8,1.9-1.3,3.2-1.3c2,0,3.4,1,3.4,2.9c0,1.3-0.7,2.2-1.9,2.6v0.1
					c1.3,0.3,2.3,1.3,2.3,2.8c0,2-1.7,3.2-3.7,3.2C319.6,228.7,318.4,228.1,317.7,227.2z"/>
				<path d="M333.9,225.6h-1.4v3h-1.6v-3h-4.8v-1.2l4.4-6.9h2v6.7h1.4V225.6z M330.9,224.2v-2.9c0-0.6,0.1-1.5,0.1-2.1h-0.1
					c-0.3,0.6-0.6,1.1-0.9,1.7l-2.2,3.3H330.9z"/>
				<path d="M334.9,220.8c0-2.2,1-3.5,2.6-3.5s2.6,1.3,2.6,3.5s-1,3.5-2.6,3.5S334.9,223,334.9,220.8z M338.8,220.8
					c0-1.7-0.6-2.5-1.3-2.5c-0.8,0-1.3,0.8-1.3,2.5c0,1.7,0.6,2.5,1.3,2.5C338.3,223.3,338.8,222.5,338.8,220.8z M343.9,217.3h1.1
					l-6.1,11.4h-1.1L343.9,217.3z M342.8,225.2c0-2.2,1-3.5,2.6-3.5c1.5,0,2.6,1.3,2.6,3.5s-1,3.5-2.6,3.5
					C343.8,228.7,342.8,227.5,342.8,225.2z M346.7,225.2c0-1.7-0.6-2.5-1.3-2.5c-0.8,0-1.3,0.8-1.3,2.5c0,1.7,0.6,2.5,1.3,2.5
					C346.1,227.7,346.7,226.9,346.7,225.2z"/>
			</g>
		</g>
		<g>
			<g class="st6">
				<path d="M492.3,212.8h-1.4v3h-1.6v-3h-4.8v-1.2l4.4-6.9h2v6.7h1.4V212.8z M489.3,211.4v-2.9c0-0.6,0.1-1.5,0.1-2.1h-0.1
					c-0.3,0.6-0.6,1.1-0.9,1.7l-2.2,3.3H489.3z"/>
				<path d="M493.8,214.7c0-0.7,0.5-1.2,1.2-1.2c0.6,0,1.2,0.5,1.2,1.2s-0.5,1.2-1.2,1.2C494.3,215.9,493.8,215.4,493.8,214.7z"/>
				<path d="M497.9,210.2c0-3.8,1.4-5.7,3.6-5.7c2.2,0,3.6,1.9,3.6,5.7c0,3.8-1.4,5.8-3.6,5.8C499.3,215.9,497.9,214,497.9,210.2z
					 M503.4,210.2c0-3.2-0.8-4.3-1.9-4.3s-1.9,1.2-1.9,4.3c0,3.2,0.8,4.4,1.9,4.4S503.4,213.4,503.4,210.2z"/>
				<path d="M512.6,206.7c-0.4-0.5-1.1-0.8-1.7-0.8c-1.4,0-2.6,1.1-2.7,4.2c0.6-0.8,1.6-1.3,2.4-1.3c1.9,0,3.1,1.1,3.1,3.5
					c0,2.2-1.5,3.6-3.3,3.6c-2.1,0-3.8-1.8-3.8-5.5c0-4.2,2-5.9,4.2-5.9c1.2,0,2.1,0.5,2.8,1.2L512.6,206.7z M512.1,212.3
					c0-1.4-0.6-2.2-1.8-2.2c-0.6,0-1.4,0.3-2.1,1.3c0.2,2.2,1,3.2,2.2,3.2C511.3,214.6,512.1,213.8,512.1,212.3z"/>
				<path d="M514.9,208c0-2.2,1-3.5,2.6-3.5c1.5,0,2.6,1.3,2.6,3.5s-1,3.5-2.6,3.5C515.9,211.5,514.9,210.2,514.9,208z M518.8,208
					c0-1.7-0.6-2.5-1.3-2.5c-0.8,0-1.3,0.8-1.3,2.5c0,1.7,0.6,2.5,1.3,2.5C518.2,210.5,518.8,209.7,518.8,208z M523.8,204.5h1.1
					l-6.1,11.4h-1.1L523.8,204.5z M522.7,212.4c0-2.2,1-3.5,2.6-3.5c1.5,0,2.6,1.3,2.6,3.5s-1,3.5-2.6,3.5
					C523.7,215.9,522.7,214.7,522.7,212.4z M526.6,212.4c0-1.7-0.6-2.5-1.3-2.5c-0.8,0-1.3,0.8-1.3,2.5c0,1.7,0.6,2.5,1.3,2.5
					C526.1,214.9,526.6,214.1,526.6,212.4z"/>
			</g>
		</g>
		<g>
			<g class="st6">
				<path d="M664.6,202.8l0.8-1.1c0.6,0.6,1.4,1.2,2.6,1.2c1.2,0,2.2-0.9,2.2-2.4c0-1.5-0.8-2.3-2.1-2.3c-0.7,0-1.1,0.2-1.8,0.6
					l-0.8-0.6l0.3-5.2h5.6v1.5h-4.1l-0.3,2.8c0.5-0.2,0.9-0.4,1.5-0.4c1.8,0,3.4,1.1,3.4,3.5c0,2.4-1.8,3.8-3.7,3.8
					C666.5,204.2,665.4,203.5,664.6,202.8z"/>
				<path d="M673.8,203c0-0.7,0.5-1.2,1.2-1.2c0.6,0,1.2,0.5,1.2,1.2s-0.5,1.2-1.2,1.2C674.3,204.2,673.8,203.8,673.8,203z"/>
				<path d="M677.6,202.7l0.8-1.1c0.6,0.7,1.5,1.2,2.6,1.2c1.2,0,2.1-0.7,2.1-1.8c0-1.2-0.8-2-3.3-2v-1.3c2.2,0,2.9-0.8,2.9-1.9
					c0-1-0.6-1.6-1.7-1.6c-0.9,0-1.6,0.4-2.2,1l-0.9-1.1c0.9-0.8,1.9-1.3,3.2-1.3c2,0,3.4,1,3.4,2.9c0,1.3-0.7,2.2-1.9,2.6v0.1
					c1.3,0.3,2.3,1.3,2.3,2.8c0,2-1.7,3.2-3.7,3.2C679.5,204.2,678.4,203.6,677.6,202.7z"/>
				<path d="M686.3,196.3c0-2.2,1-3.5,2.6-3.5s2.6,1.3,2.6,3.5s-1.1,3.5-2.6,3.5S686.3,198.5,686.3,196.3z M690.2,196.3
					c0-1.7-0.6-2.5-1.3-2.5c-0.8,0-1.3,0.8-1.3,2.5c0,1.7,0.6,2.5,1.3,2.5C689.6,198.8,690.2,198,690.2,196.3z M695.3,192.8h1.1
					l-6.1,11.4h-1.1L695.3,192.8z M694.1,200.8c0-2.2,1-3.5,2.6-3.5c1.5,0,2.6,1.3,2.6,3.5s-1,3.5-2.6,3.5
					C695.2,204.2,694.1,203,694.1,200.8z M698,200.8c0-1.7-0.6-2.5-1.3-2.5c-0.8,0-1.3,0.8-1.3,2.5c0,1.7,0.6,2.5,1.3,2.5
					C697.5,203.2,698,202.4,698,200.8z"/>
			</g>
		</g>
		<g>
			<g class="st6">
				<path d="M849.5,183.4c-0.4-0.5-1.1-0.8-1.7-0.8c-1.4,0-2.6,1.1-2.7,4.2c0.6-0.8,1.6-1.3,2.4-1.3c1.9,0,3.1,1.1,3.1,3.5
					c0,2.2-1.5,3.6-3.3,3.6c-2.1,0-3.8-1.8-3.8-5.5c0-4.2,2-5.9,4.2-5.9c1.2,0,2.1,0.5,2.8,1.2L849.5,183.4z M849,189
					c0-1.4-0.6-2.2-1.8-2.2c-0.6,0-1.4,0.3-2.1,1.3c0.2,2.2,1,3.2,2.2,3.2C848.3,191.3,849,190.4,849,189z"/>
				<path d="M852.4,191.4c0-0.7,0.5-1.2,1.2-1.2c0.6,0,1.2,0.5,1.2,1.2s-0.5,1.2-1.2,1.2C852.9,192.6,852.4,192.1,852.4,191.4z"/>
				<path d="M861.7,182.8h-5.2v-1.5h7.1v1c-2.6,3.2-3,5.7-3.2,10h-1.8C858.9,188.3,859.6,185.8,861.7,182.8z"/>
				<path d="M865,186.8c0-3.8,1.4-5.7,3.6-5.7c2.2,0,3.6,1.9,3.6,5.7c0,3.8-1.4,5.8-3.6,5.8C866.4,192.6,865,190.7,865,186.8z
					 M870.5,186.8c0-3.2-0.8-4.3-1.9-4.3s-1.9,1.2-1.9,4.3c0,3.2,0.8,4.4,1.9,4.4S870.5,190,870.5,186.8z"/>
				<path d="M873.4,184.6c0-2.2,1-3.5,2.6-3.5s2.6,1.3,2.6,3.5s-1,3.5-2.6,3.5S873.4,186.8,873.4,184.6z M877.3,184.6
					c0-1.7-0.6-2.5-1.3-2.5c-0.8,0-1.3,0.8-1.3,2.5c0,1.7,0.6,2.5,1.3,2.5C876.8,187.1,877.3,186.3,877.3,184.6z M882.4,181.1h1.1
					l-6.1,11.4h-1.1L882.4,181.1z M881.2,189.1c0-2.2,1-3.5,2.6-3.5c1.5,0,2.6,1.3,2.6,3.5s-1,3.5-2.6,3.5
					C882.3,192.6,881.2,191.3,881.2,189.1z M885.1,189.1c0-1.7-0.6-2.5-1.3-2.5c-0.8,0-1.3,0.8-1.3,2.5c0,1.7,0.6,2.5,1.3,2.5
					C884.6,191.6,885.1,190.8,885.1,189.1z"/>
			</g>
		</g>
	</g>
</g>
<g>
	<g>
		<path class="st7" d="M185,341.1v1.4h-13.4v-1.4h5.5v-11.4h1.5v4.5h5.4v1.4h-5.4v5.6h6.4V341.1z"/>
		<path class="st7" d="M193.8,331.7c-0.2,0.6-0.4,1.1-0.5,1.7h5.9v9.9h-1.4v-0.8h-9.1v0.8h-1.4v-9.9h4.6c0.1-0.5,0.2-1.1,0.3-1.7
			h-5.6v-1.3h13.3v1.3H193.8z M188.6,341.1h1.9v-6.5h-1.9V341.1z M194.5,334.6h-2.8v1.4h2.8V334.6z M194.5,337.1h-2.8v1.4h2.8V337.1
			z M191.7,341.1h2.8v-1.5h-2.8V341.1z M197.8,334.6h-2v6.5h2V334.6z"/>
		<path class="st7" d="M205.5,336.6c-0.2,1.3-0.7,2.7-1.4,3.8c0.3,0.1,0.6,0.4,1,0.6c1,0.6,2.4,0.7,4.2,0.7s4.3-0.1,6-0.3
			c-0.2,0.4-0.4,1.1-0.4,1.5c-1.1,0.1-3.9,0.2-5.7,0.2c-1.9,0-3.2-0.2-4.3-0.8c-0.6-0.3-1.1-0.8-1.5-0.8c-0.3,0-0.9,0.9-1.3,1.8
			l-0.9-1.3c0.4-0.6,0.9-1,1.3-1.4l0,0c0.6-0.8,1.2-1.9,1.5-3h-2.1c0.4-0.9,0.9-2.1,1.3-3.3h-1.7V333h3.5c-0.4,1.1-0.9,2.3-1.3,3.3
			h0.8h0.2L205.5,336.6z M203.3,332.3c-0.2-0.6-0.8-1.7-1.1-2.5l1.2-0.4c0.4,0.8,0.9,1.8,1.2,2.4L203.3,332.3z M214.9,332.2h-9.4
			v-1.1h4.2c-0.2-0.4-0.5-1-0.8-1.4l1.3-0.4c0.4,0.5,0.8,1.2,1,1.6l-0.7,0.2h4.4V332.2z M206.4,337h7.3v3.6h-7.3V337z M213.6,334.1
			h-7v-1h7V334.1z M206.6,335h7v1h-7V335z M207.8,339.6h4.6V338h-4.6V339.6z"/>
		<path class="st7" d="M221.4,339.4c-1.6,0.7-3.3,1.4-4.6,1.9l-0.4-1.4c0.5-0.2,1.2-0.4,1.9-0.7v-4.9h-1.7V333h1.7v-3.4h1.3v3.4h1.5
			v1.3h-1.5v4.4l1.5-0.6L221.4,339.4z M228.8,341.9c0.4,0,0.4-0.2,0.5-1.1c0.3,0.2,0.7,0.4,1.1,0.5c-0.1,1.4-0.5,1.7-1.5,1.7H227
			c-1.3,0-1.6-0.3-1.6-1.6v-4.3h-0.8c-0.2,2.7-0.8,4.9-3.1,6.1c-0.1-0.3-0.5-0.8-0.8-1c2.1-1,2.5-2.8,2.7-5.1h-1.6v-6.2h1.5
			c0.2-0.5,0.4-1.1,0.5-1.5l1.5,0.2c-0.2,0.5-0.4,0.9-0.6,1.3h5v6.2h-3v4.3c0,0.4,0.1,0.5,0.6,0.5H228.8z M222.8,333.5h2.1V332h-2.1
			V333.5z M222.8,336h2.1v-1.4h-2.1V336z M228.2,332h-2.1v1.4h2.1V332z M228.2,334.5h-2.1v1.4h2.1V334.5z M229.4,340.9
			c0-0.1-0.1-0.3-0.1-0.5c-1.9,0.2-2.2,0.3-2.4,0.4c-0.1-0.2-0.2-0.6-0.3-0.9c0.2,0,0.3-0.2,0.4-0.4c0.2-0.2,0.6-1.2,0.8-2.1
			l0.9,0.3c-0.3,0.8-0.6,1.5-1,2.2l1.3-0.1c-0.2-0.4-0.3-0.8-0.5-1.1l0.7-0.3c0.4,0.7,0.8,1.6,1,2.2L229.4,340.9z"/>
		<path class="st7" d="M244.7,331.7c0,0,0,0.5,0,0.7c-0.2,6.8-0.4,9.1-1,9.8c-0.4,0.5-0.7,0.6-1.3,0.7c-0.5,0.1-1.4,0-2.3,0
			c0-0.4-0.2-1-0.5-1.4c1,0.1,1.8,0.1,2.2,0.1c0.3,0,0.5,0,0.6-0.3c0.5-0.5,0.7-2.8,0.9-8.4h-3.5c-0.4,1-0.9,1.8-1.4,2.5
			c-0.2-0.2-0.8-0.6-1.1-0.8v6.9h-4.1v1.1H232v-11h1.7c0.2-0.7,0.4-1.7,0.5-2.4l1.5,0.3c-0.3,0.8-0.5,1.5-0.8,2.2h2.4v2.8
			c1-1.3,1.8-3.3,2.2-5.3l1.3,0.3c-0.2,0.7-0.4,1.4-0.6,2h4.5L244.7,331.7L244.7,331.7z M233.3,333v2.8h2.8V333H233.3z M236.1,340.4
			v-3.3h-2.8v3.3H236.1z M241.1,339.2c-0.4-0.9-1.4-2.4-2.2-3.5l1.1-0.6c0.8,1,1.8,2.5,2.3,3.3L241.1,339.2z"/>
		<path class="st7" d="M257.7,333.3c-0.8,2.3-1.9,4.1-3.3,5.6c1.6,1.3,3.6,2.3,5.9,2.8c-0.3,0.3-0.7,0.9-0.9,1.3
			c-2.4-0.6-4.4-1.7-6-3.1c-1.7,1.4-3.7,2.5-6.1,3.2c-0.2-0.4-0.6-1-0.9-1.3c2.4-0.6,4.4-1.6,6-2.9c-1.5-1.5-2.6-3.4-3.4-5.6h-2.3
			V332h6.5c-0.2-0.6-0.6-1.6-1-2.3l1.5-0.4c0.4,0.7,0.9,1.7,1.1,2.3l-1.3,0.4h6.7v1.4h-2.5L257.7,333.3L257.7,333.3z M250.3,333.3
			c0.7,1.8,1.7,3.3,3,4.6c1.2-1.3,2.1-2.8,2.8-4.6H250.3z"/>
		<path class="st7" d="M274.7,338.7H269v2.8c0,0.8-0.2,1.2-0.8,1.4c-0.6,0.2-1.5,0.2-2.7,0.2c-0.1-0.4-0.4-1-0.6-1.4
			c0.9,0,2,0,2.3,0s0.4-0.1,0.4-0.3v-2.8h-5.7v-1.3h5.7v-0.9c0.8-0.4,1.6-1,2.3-1.5h-5.5v-1.3h6.9l0.3-0.1l0.9,0.7
			c-0.9,0.9-2.2,1.9-3.4,2.6v0.4h5.7L274.7,338.7L274.7,338.7z M263.3,334.1h-1.4v-3.2h5.7c-0.2-0.4-0.4-0.8-0.7-1.2l1.4-0.4
			c0.4,0.5,0.8,1.1,1,1.6h5.2v3.2h-1.4v-1.9h-9.8L263.3,334.1L263.3,334.1z"/>
		<path class="st7" d="M283.8,337.7c-0.1,0.3-0.2,0.6-0.3,0.9h5.5v3.2c0,0.6-0.1,0.9-0.5,1.1s-1,0.2-1.8,0.2
			c-0.1-0.3-0.2-0.8-0.4-1.2c0.5,0,1,0,1.2,0s0.2-0.1,0.2-0.2v-2.1h-2v3.3h-1.3v-3.3h-2v3.3h-1.3v-3.3h-1.9v3.4h-1.3v-4.5h4.3
			c0.1-0.3,0.2-0.6,0.3-0.9h-5.7v-1.1h13.1v1.1h-6.1L283.8,337.7L283.8,337.7z M278.2,335.3h-1.3V332h5.7v-0.9h-5v-1H289v1h-5.1v0.9
			h5.8v3.3h-1.4v-2.2h-4.4v3.1h-1.4v-3.1h-4.3V335.3L278.2,335.3z M278.3,335.4c0.9-0.1,2.2-0.3,3.5-0.5v0.8
			c-1.1,0.2-2.2,0.5-3.2,0.7L278.3,335.4z M279.1,333.2c0.9,0.2,2.1,0.5,2.7,0.7l-0.4,0.8c-0.6-0.3-1.8-0.6-2.8-0.8L279.1,333.2z
			 M287.8,336.4c-0.8-0.3-2.3-0.6-3.5-0.8l0.3-0.8c1.1,0.1,2.6,0.4,3.5,0.7L287.8,336.4z M287.8,333.9c-0.8,0.3-2,0.6-2.8,0.8
			l-0.5-0.7c0.8-0.2,2-0.6,2.7-0.9L287.8,333.9z"/>
		<path class="st8" d="M301.9,339c-0.4,0.8-1,1.4-1.7,1.9c1.7,0.4,3.3,0.8,4.5,1.2l-1.3,1c-1.2-0.4-2.8-0.9-4.6-1.4
			c-1.7,0.8-3.9,1.2-6.8,1.4c-0.1-0.4-0.3-0.9-0.6-1.2c2-0.1,3.7-0.3,5.1-0.7c-1.1-0.2-2.1-0.4-3.3-0.6c0.4-0.5,0.8-1,1.2-1.6h-3
			v-1.2h3.8c0.3-0.5,0.6-1,0.8-1.5l1.4,0.3c-0.2,0.4-0.4,0.8-0.7,1.2h4c0.1-0.3,0.2-0.6,0.3-0.9l1.3,0.4c-0.1,0.1-0.1,0.3-0.2,0.5
			h2.4v1.2L301.9,339L301.9,339z M295.8,331.2h-4V330h12.9v1.2h-4.1v1.1h3.6v4h-11.6v-4h3.3L295.8,331.2L295.8,331.2z M293.8,335.2
			h2v-1.8h-2V335.2z M296.2,339c-0.2,0.3-0.4,0.6-0.7,0.9c1,0.2,2,0.4,3,0.6c0.7-0.4,1.3-0.9,1.8-1.5H296.2z M299.2,331.2h-2.1v1.1
			h2.1V331.2z M297.1,335.2h2.1v-1.8h-2.1V335.2z M300.5,333.4v1.8h2.2v-1.8H300.5z"/>
		<path class="st7" d="M318.4,338.8h1.8v1.1h-1.8v2c0,0.6-0.1,0.9-0.6,1.1s-1.2,0.2-2.2,0.2c-0.1-0.3-0.2-0.8-0.4-1.1
			c0.7,0,1.4,0,1.6,0s0.3-0.1,0.3-0.2v-2h-2.8c0.6,0.5,1.1,1.2,1.4,1.7l-1,0.7c-0.3-0.5-0.8-1.3-1.3-1.8l0.9-0.5h-1.6v0.8h-2.4v2.5
			h-1.2v-2.5h-2.5v-1.2h2.5v-1h-2v-5.3h2v-1h-2.3v-1.2h2.3v-1.5h1.2v1.5h2.2v1.2h-2.2v1h2.1v5.3h-2.1v1h2.4V339h4.6v-0.7h1.3v0.5
			H318.4z M307.8,335.3h1.2v-1.1h-1.2V335.3z M307.8,337.4h1.2v-1.1h-1.2V337.4z M311.1,334.1h-1.2v1.1h1.2V334.1z M311.1,336.2
			h-1.2v1.1h1.2V336.2z M312.5,337c0.9,0,2,0,3.1,0v-0.9h-2.7v-3.9h2.7v-0.7h-3v-1h3v-1.1h1.2v1.1h3.1v1h-3.1v0.7h2.8v3.9h-0.8
			c0.6,0.6,1.1,1.3,1.4,1.8l-1,0.5c-0.1-0.2-0.2-0.4-0.4-0.6c-2.3,0.1-4.6,0.1-6.3,0.2L312.5,337z M314.1,333.8h1.6V333h-1.6V333.8z
			 M315.6,335.3v-0.8H314v0.8H315.6z M316.8,333v0.8h1.6V333H316.8z M318.4,334.6h-1.6v0.8h1.6V334.6z M316.8,337h1.3
			c-0.2-0.2-0.3-0.4-0.5-0.6l0.5-0.2h-1.3V337z"/>
		<path class="st7" d="M327.8,331.6l1,0.3c-0.8,5.9-3,9.5-6.2,11.3c-0.2-0.3-0.8-0.9-1.2-1.2c1.7-0.9,3.2-2.2,4.2-4.1
			c-0.6-0.7-1.4-1.6-2.2-2.3c-0.3,0.5-0.6,0.9-0.9,1.3c-0.3-0.2-0.9-0.7-1.2-0.9c1.3-1.5,2.2-4,2.8-6.6l1.4,0.3
			c-0.1,0.7-0.3,1.3-0.5,2h2.5L327.8,331.6z M324.5,333c-0.2,0.5-0.4,1-0.6,1.4c0.7,0.6,1.6,1.5,2.2,2.1c0.4-1,0.7-2.2,0.9-3.6h-2.5
			V333z M331.7,333.9c1.2,1,2.8,2.4,3.5,3.4l-1.2,1c-0.6-0.8-1.8-2-2.8-3v7.9h-1.5v-13.8h1.5v4.9L331.7,333.9z"/>
		<path class="st7" d="M339,331.9h2.7v1.1h-5.3v-1.1H339c-0.3-0.6-0.7-1.4-1-2l1-0.6c0.4,0.6,0.9,1.4,1.1,2L339,331.9z M341.3,342.3
			h-3.2v0.7H337v-5.1h4.3V342.3L341.3,342.3z M341.2,335H337v-1.1h4.2V335z M337,335.9h4.2v1.1H337V335.9z M338.1,339v2.1h2V339
			H338.1z M350.1,341.3v1.3h-8v-12.2h7.8v1.3h-6.5v9.7L350.1,341.3L350.1,341.3z M346.1,338.8v-2h-1.8v-1.2h1.8v-1.8h-2v-1.2h5.2
			v1.2h-2v1.8h1.7v1.2h-1.7v2h2.2v1.2h-5.6v-1.2H346.1z"/>
	</g>
</g>
<polygon class="st7" points="156,342 147.8,342 151.9,334.9 156,327.9 160.1,334.9 164.1,342 "/>
<g>
	<g>
		<path class="st7" d="M535.5,356.9v2.5l0.3-0.3c1.7,0.8,4.1,2.2,5.2,3.1l-1,1.3c-1-0.8-2.8-2-4.5-2.9v7.5H534v-11.2h-5.6v-1.4h13.2
			v1.4H535.5z"/>
		<path class="st7" d="M550.7,356.7c-0.2,0.6-0.4,1.1-0.5,1.7h5.9v9.9h-1.4v-0.8h-9.1v0.8h-1.4v-9.9h4.6c0.1-0.5,0.2-1.1,0.3-1.7
			h-5.6v-1.3h13.3v1.3H550.7z M545.5,366.1h1.9v-6.5h-1.9V366.1z M551.4,359.6h-2.8v1.4h2.8V359.6z M551.4,362.1h-2.8v1.4h2.8V362.1
			z M548.6,366.1h2.8v-1.5h-2.8V366.1z M554.6,359.6h-2v6.5h2V359.6z"/>
		<path class="st7" d="M562.3,361.6c-0.2,1.3-0.7,2.7-1.4,3.8c0.3,0.1,0.6,0.4,1,0.6c1,0.6,2.4,0.7,4.2,0.7s4.3-0.1,6-0.3
			c-0.2,0.4-0.4,1.1-0.4,1.5c-1.1,0.1-3.9,0.2-5.7,0.2c-1.9,0-3.2-0.2-4.3-0.8c-0.6-0.3-1.1-0.8-1.5-0.8c-0.3,0-0.9,0.9-1.3,1.8
			L558,367c0.4-0.6,0.9-1,1.3-1.4l0,0c0.6-0.8,1.2-1.9,1.5-3h-2.1c0.4-0.9,0.9-2.1,1.3-3.3h-1.7V358h3.5c-0.4,1.1-0.9,2.3-1.3,3.3
			h0.8h0.2L562.3,361.6z M560.2,357.3c-0.2-0.6-0.8-1.7-1.1-2.5l1.2-0.4c0.4,0.8,0.9,1.8,1.2,2.4L560.2,357.3z M571.8,357.2h-9.4
			v-1.1h4.2c-0.2-0.4-0.5-1-0.8-1.4l1.3-0.4c0.4,0.5,0.8,1.2,1,1.6l-0.7,0.2h4.4V357.2z M563.3,362h7.3v3.6h-7.3V362z M570.5,359.1
			h-7v-1h7V359.1z M563.5,360h7v1h-7V360z M564.6,364.6h4.6V363h-4.6V364.6z"/>
		<path class="st7" d="M578.2,364.4c-1.6,0.7-3.3,1.4-4.6,1.9l-0.4-1.4c0.5-0.2,1.2-0.4,1.9-0.7v-4.9h-1.7V358h1.7v-3.4h1.3v3.4h1.5
			v1.3h-1.5v4.4l1.5-0.6L578.2,364.4z M585.7,366.9c0.4,0,0.4-0.2,0.5-1.1c0.3,0.2,0.7,0.4,1.1,0.5c-0.1,1.4-0.5,1.7-1.5,1.7h-1.9
			c-1.3,0-1.6-0.3-1.6-1.6v-4.3h-0.8c-0.2,2.7-0.8,4.9-3.1,6.1c-0.1-0.3-0.5-0.8-0.8-1c2.1-1,2.5-2.8,2.7-5.1h-1.6v-6.2h1.5
			c0.2-0.5,0.4-1.1,0.5-1.5l1.5,0.2c-0.2,0.5-0.4,0.9-0.6,1.3h5v6.2h-3v4.3c0,0.4,0.1,0.5,0.6,0.5H585.7z M579.7,358.5h2.1V357h-2.1
			V358.5z M579.7,361h2.1v-1.4h-2.1V361z M585.1,357H583v1.4h2.1V357z M585.1,359.5H583v1.4h2.1V359.5z M586.3,365.9
			c0-0.1-0.1-0.3-0.1-0.5c-1.9,0.2-2.2,0.3-2.4,0.4c-0.1-0.2-0.2-0.6-0.3-0.9c0.2,0,0.3-0.2,0.4-0.4c0.2-0.2,0.6-1.2,0.8-2.1
			l0.9,0.3c-0.3,0.8-0.6,1.5-1,2.2l1.3-0.1c-0.2-0.4-0.3-0.8-0.5-1.1l0.7-0.3c0.4,0.7,0.8,1.6,1,2.2L586.3,365.9z"/>
		<path class="st7" d="M601.5,356.7c0,0,0,0.5,0,0.7c-0.2,6.8-0.4,9.1-1,9.8c-0.4,0.5-0.7,0.6-1.3,0.7c-0.5,0.1-1.4,0-2.3,0
			c0-0.4-0.2-1-0.5-1.4c1,0.1,1.8,0.1,2.2,0.1c0.3,0,0.5,0,0.6-0.3c0.5-0.5,0.7-2.8,0.9-8.4h-3.5c-0.4,1-0.9,1.8-1.4,2.5
			c-0.2-0.2-0.8-0.6-1.1-0.8v6.9H590v1.1h-1.3v-11h1.7c0.2-0.7,0.4-1.7,0.5-2.4l1.5,0.3c-0.3,0.8-0.5,1.5-0.8,2.2h2.4v2.8
			c1-1.3,1.8-3.3,2.2-5.3l1.3,0.3c-0.2,0.7-0.4,1.4-0.6,2h4.6L601.5,356.7L601.5,356.7z M590.1,358v2.8h2.8V358H590.1z M592.9,365.4
			v-3.3h-2.8v3.3H592.9z M597.9,364.2c-0.4-0.9-1.4-2.4-2.2-3.5l1.1-0.6c0.8,1,1.8,2.5,2.3,3.3L597.9,364.2z"/>
		<path class="st7" d="M614.5,358.3c-0.8,2.3-1.9,4.1-3.3,5.6c1.6,1.3,3.6,2.3,5.9,2.8c-0.3,0.3-0.7,0.9-0.9,1.3
			c-2.4-0.6-4.4-1.7-6-3.1c-1.7,1.4-3.7,2.5-6.1,3.2c-0.2-0.4-0.6-1-0.9-1.3c2.4-0.6,4.4-1.6,6-2.9c-1.5-1.5-2.6-3.4-3.4-5.6h-2.3
			V357h6.5c-0.2-0.6-0.6-1.6-1-2.3l1.5-0.4c0.4,0.7,0.9,1.7,1.1,2.3l-1.3,0.4h6.7v1.4h-2.5V358.3z M607.1,358.3
			c0.7,1.8,1.7,3.3,3,4.6c1.2-1.3,2.1-2.8,2.8-4.6H607.1z"/>
		<path class="st7" d="M631.5,363.7h-5.7v2.8c0,0.8-0.2,1.2-0.8,1.4c-0.6,0.2-1.5,0.2-2.7,0.2c-0.1-0.4-0.4-1-0.6-1.4
			c0.9,0,2,0,2.3,0s0.4-0.1,0.4-0.3v-2.8h-5.7v-1.3h5.7v-0.9c0.8-0.4,1.6-1,2.3-1.5h-5.5v-1.3h6.9l0.3-0.1l0.9,0.7
			c-0.9,0.9-2.2,1.9-3.4,2.6v0.4h5.7v1.5L631.5,363.7L631.5,363.7z M620.1,359.1h-1.4v-3.2h5.7c-0.2-0.4-0.4-0.8-0.7-1.2l1.4-0.4
			c0.4,0.5,0.8,1.1,1,1.6h5.2v3.2h-1.4v-1.9h-9.8V359.1z"/>
		<path class="st9" d="M644.3,354.2c-0.4,0.6-0.8,1.3-1.3,2v12.4h-1.9v-10c-1.8,2-4,3.8-6.5,5.1c-0.3-0.5-0.8-1.2-1.2-1.6
			c3.6-1.8,6.7-4.8,8.5-7.9h-8v-1.8h16.3v1.8H644.3z M644.4,357c2.1,1.4,5,3.6,6.4,5l-1.5,1.4c-1.3-1.5-4.1-3.7-6.2-5.3L644.4,357z"
			/>
		<path class="st9" d="M665.7,363.3c-0.6,0.9-1.3,1.7-2.1,2.4c2.2,0.5,4.2,1.1,5.6,1.6l-1.6,1.2c-1.5-0.6-3.5-1.2-5.8-1.7
			c-2.1,1-5,1.5-8.6,1.8c-0.1-0.5-0.4-1.2-0.7-1.5c2.6-0.1,4.7-0.4,6.5-0.9c-1.3-0.3-2.7-0.5-4.1-0.8c0.5-0.6,1-1.3,1.6-2.1h-3.9
			v-1.5h4.8c0.4-0.6,0.8-1.3,1-1.9l1.8,0.4c-0.2,0.5-0.5,1-0.8,1.5h5.1c0.2-0.3,0.3-0.7,0.4-1.1l1.7,0.5c-0.1,0.2-0.2,0.4-0.2,0.6
			h3.1v1.5H665.7z M658,353.4h-5.1v-1.5h16.3v1.5H664v1.4h4.5v5h-14.7v-5h4.1v-1.4H658z M655.5,358.4h2.5v-2.2h-2.5V358.4z
			 M658.5,363.3c-0.3,0.4-0.6,0.8-0.8,1.2c1.3,0.2,2.5,0.5,3.8,0.7c0.9-0.5,1.6-1.1,2.2-1.9L658.5,363.3L658.5,363.3z M662.3,353.4
			h-2.7v1.4h2.7V353.4z M659.6,358.4h2.7v-2.2h-2.7V358.4z M664,356.2v2.2h2.8v-2.2H664z"/>
		<path class="st7" d="M683.2,363.8h1.8v1.1h-1.8v2c0,0.6-0.1,0.9-0.6,1.1s-1.2,0.2-2.2,0.2c-0.1-0.3-0.2-0.8-0.4-1.1
			c0.7,0,1.4,0,1.6,0c0.2,0,0.3-0.1,0.3-0.2v-2h-2.8c0.6,0.5,1.1,1.2,1.4,1.7l-1,0.7c-0.3-0.5-0.8-1.3-1.3-1.8l0.9-0.5h-1.6v0.8
			h-2.4v2.5h-1.2v-2.5h-2.5v-1.2h2.5v-1h-2v-5.3h2v-1h-2.3v-1.2h2.3v-1.5h1.2v1.5h2.2v1.2h-2.2v1h2.1v5.3h-2.1v1h2.4V364h4.6v-0.7
			h1.3v0.5H683.2z M672.7,360.3h1.2v-1.1h-1.2V360.3z M672.7,362.4h1.2v-1.1h-1.2V362.4z M676,359.1h-1.2v1.1h1.2V359.1z M676,361.2
			h-1.2v1.1h1.2V361.2z M677.3,362c0.9,0,2,0,3.1,0v-0.9h-2.7v-3.9h2.7v-0.7h-3v-1h3v-1.1h1.2v1.1h3.1v1h-3.1v0.7h2.8v3.9h-0.8
			c0.6,0.6,1.1,1.3,1.4,1.8l-1,0.5c-0.1-0.2-0.2-0.4-0.4-0.6c-2.3,0.1-4.6,0.1-6.3,0.2V362z M678.9,358.8h1.6V358h-1.6V358.8z
			 M680.5,360.3v-0.8h-1.6v0.8H680.5z M681.7,358v0.8h1.6V358H681.7z M683.3,359.6h-1.6v0.8h1.6V359.6z M681.7,362h1.3
			c-0.2-0.2-0.3-0.4-0.5-0.6l0.5-0.2h-1.3V362z"/>
		<path class="st7" d="M692.6,356.6l1,0.3c-0.8,5.9-3,9.5-6.2,11.3c-0.2-0.3-0.8-0.9-1.2-1.2c1.7-0.9,3.2-2.2,4.2-4.1
			c-0.6-0.7-1.4-1.6-2.2-2.3c-0.3,0.5-0.6,0.9-0.9,1.3c-0.3-0.2-0.9-0.7-1.2-0.9c1.3-1.5,2.2-4,2.8-6.6l1.4,0.3
			c-0.1,0.7-0.3,1.3-0.5,2h2.5L692.6,356.6z M689.4,358c-0.2,0.5-0.4,1-0.6,1.4c0.7,0.6,1.6,1.5,2.2,2.1c0.4-1,0.7-2.2,0.9-3.6h-2.5
			L689.4,358L689.4,358z M696.6,358.9c1.2,1,2.8,2.4,3.5,3.4l-1.2,1c-0.6-0.8-1.8-2-2.8-3v7.9h-1.5v-13.8h1.5v4.9L696.6,358.9z"/>
		<path class="st7" d="M703.8,356.9h2.7v1.1h-5.3v-1.1H703.8c-0.3-0.6-0.7-1.4-1-2l1-0.6c0.4,0.6,0.9,1.4,1.1,2L703.8,356.9z
			 M706.1,367.3h-3.2v0.7h-1.1v-5.1h4.3V367.3z M706,360h-4.2v-1.1h4.2V360z M701.8,360.9h4.2v1.1h-4.2V360.9z M702.9,364v2.1h2V364
			H702.9z M714.9,366.3v1.3h-8v-12.2h7.8v1.3h-6.5v9.7L714.9,366.3L714.9,366.3z M710.9,363.8v-2h-1.8v-1.2h1.8v-1.8h-2v-1.2h5.2
			v1.2h-2v1.8h1.7v1.2h-1.7v2h2.2v1.2h-5.6v-1.2H710.9z"/>
		<path class="st7" d="M717.7,363.4c1.2-0.4,1.8-1.1,1.9-2c-0.1,0-0.1,0-0.2,0c-0.7,0-1.3-0.4-1.3-1.2c0-0.8,0.6-1.2,1.3-1.2
			c0.9,0,1.4,0.7,1.4,1.9c0,1.7-1,3-2.8,3.5L717.7,363.4z"/>
		<path class="st7" d="M730,363.9c-2,0.9-4.2,1.9-5.9,2.6l-0.5-1.5c0.6-0.2,1.3-0.5,2-0.8l-0.3-9l1.5-0.1l0.3,8.5
			c0.9-0.4,1.8-0.7,2.6-1.1L730,363.9z M736.4,368.2c-0.6-1-1.9-2.5-3.1-3.8c-1.1,1.7-2.7,2.9-4.9,3.9c-0.2-0.3-0.8-0.9-1.1-1.2
			c5-1.8,6.5-5.5,7.2-11.8l1.5,0.1c-0.3,3.2-0.9,5.7-1.9,7.7c1.3,1.3,2.8,2.9,3.5,4L736.4,368.2z M730.8,360.5
			c-0.4-1-1.3-2.6-2.3-3.7l1.3-0.6c1,1.1,1.9,2.5,2.4,3.6L730.8,360.5z"/>
		<path class="st7" d="M743.2,357.9c-0.3,0.7-0.8,1.4-1.2,2v8.2h-1.3v-6.6c-0.4,0.4-0.8,0.8-1.2,1.2c-0.1-0.3-0.5-1-0.8-1.3
			c1.2-1,2.5-2.5,3.3-4L743.2,357.9z M742.9,354.9c-0.8,1.3-2.2,2.7-3.4,3.6c-0.2-0.3-0.5-0.8-0.7-1c1.1-0.8,2.2-2,2.8-3.1
			L742.9,354.9z M751.2,362.4c-0.6,1.4-1.5,2.5-2.7,3.4c1.1,0.5,2.4,0.9,3.8,1.2c-0.3,0.3-0.7,0.9-0.8,1.2c-1.6-0.3-2.9-0.8-4.2-1.5
			c-1.3,0.7-2.7,1.2-4.2,1.6c-0.1-0.3-0.4-0.9-0.7-1.2c1.3-0.2,2.6-0.6,3.7-1.2c-0.5-0.4-0.9-0.8-1.4-1.2c-0.3,0.3-0.7,0.6-1.1,0.9
			c-0.2-0.3-0.7-0.8-0.9-1c0.4-0.2,0.8-0.6,1.2-0.9c-0.3-0.4-0.5-0.8-0.8-1.2l1.1-0.4c0.1,0.3,0.3,0.5,0.5,0.8
			c0.5-0.5,0.9-1.1,1.2-1.7c-1.9,0.1-2.3,0.2-2.6,0.3c0-0.3-0.3-0.9-0.4-1.3c0.4-0.1,1-0.3,1.7-0.7c0.3-0.2,0.9-0.5,1.7-1
			c-1.9,0.1-2.3,0.2-2.6,0.3c-0.1-0.3-0.3-1-0.5-1.3c0.3-0.1,0.6-0.3,1-0.5c0.4-0.3,1.7-1.3,2.5-2.3l1.4,0.6
			c-0.8,0.8-1.8,1.6-2.7,2.2l2.4-0.1c0.6-0.5,1.3-1,1.8-1.5l1.3,0.7c-1.6,1.4-3.4,2.5-5.1,3.5l4-0.2c-0.3-0.4-0.6-0.8-0.8-1.1
			l1.1-0.6c0.8,1,1.9,2.4,2.4,3.2l-1.2,0.7c-0.2-0.3-0.4-0.8-0.7-1.2l-3.1,0.2c-0.2,0.4-0.4,0.7-0.6,1.1h3.3l0.2-0.1L751.2,362.4z
			 M746,363.2c-0.1,0.2-0.3,0.4-0.5,0.6c0.5,0.5,1.1,1,1.8,1.4c0.8-0.5,1.5-1.2,2.1-2H746z"/>
		<path class="st7" d="M759.5,358.3c0,0.7-0.1,1.4-0.2,2.1h6.4c0,0,0,0.4-0.1,0.6c-0.3,4.1-0.6,5.8-1.2,6.4
			c-0.4,0.4-0.8,0.5-1.4,0.6c-0.6,0-1.5,0-2.5,0c0-0.4-0.2-1-0.5-1.4c1.1,0.1,2.1,0.1,2.5,0.1c0.3,0,0.5,0,0.7-0.2
			c0.4-0.3,0.7-1.7,0.9-4.8H759c-0.5,2.6-1.6,5-4.3,6.5c-0.2-0.4-0.6-0.9-1-1.1c3.7-1.9,4.1-5.5,4.2-8.8H754v-1.4h6.4
			c-0.2-0.6-0.6-1.5-0.9-2.1l1.4-0.5c0.4,0.7,0.9,1.6,1.1,2.2l-1,0.4h6.2v1.4L759.5,358.3L759.5,358.3z"/>
		<path class="st7" d="M773.1,354.9c-0.4,1.1-0.9,2.2-1.4,3.3v10h-1.3v-7.8c-0.3,0.5-0.7,0.9-1,1.3c-0.1-0.3-0.5-1.1-0.8-1.4
			c1.3-1.4,2.5-3.6,3.2-5.8L773.1,354.9z M778.2,363.4c-0.1,0.9-0.5,1.7-1,2.4c1.5,0.6,3.4,0.9,5.5,1c-0.3,0.3-0.7,0.9-0.8,1.3
			c-2.2-0.2-4.1-0.6-5.6-1.3c-0.8,0.6-1.8,1.1-3.2,1.5c-0.2-0.3-0.6-0.9-0.9-1.1c1.2-0.3,2.1-0.6,2.8-1c-0.8-0.5-1.5-1.2-2-2
			l1.2-0.4c0.4,0.6,1,1.1,1.8,1.5c0.5-0.6,0.8-1.2,0.9-1.9h-3.4v-5.8h3.6v-1.1h-3.9v-1.2h9.1v1.2h-3.9v1.1h3.5v5.8H778.2z
			 M774.7,360h2.3v-1.3h-2.3V360z M776.9,362.3c0-0.2,0-0.5,0-0.7V361h-2.3v1.4h2.3V362.3z M780.4,361h-2.1v0.7c0,0.2,0,0.5,0,0.7
			h2.1V361z M778.3,358.6v1.3h2.1v-1.3H778.3z"/>
		<path class="st7" d="M785.3,364.3c-0.2,1.3-0.4,2.7-0.7,3.6c-0.2-0.1-0.8-0.3-1-0.4c0.3-0.9,0.5-2.2,0.6-3.4L785.3,364.3z
			 M784,360.1L784,360.1c-0.1-0.2-0.3-0.8-0.4-1.1c0.3-0.1,0.5-0.4,0.8-0.8c0.3-0.5,1.3-2.1,1.8-3.7l1.2,0.5
			c-0.6,1.3-1.3,2.7-2.1,3.8l1.3-0.1c0.4-0.7,0.8-1.4,1.1-2.1l1.1,0.7c-0.9,1.7-2,3.4-3.2,4.8l2.2-0.3c-0.2-0.5-0.3-0.9-0.5-1.4
			l0.9-0.3c0.4,0.9,0.9,2.1,1,2.8l-1,0.4c0-0.2-0.1-0.3-0.1-0.5c-3.2,0.5-3.6,0.6-3.9,0.8c-0.1-0.3-0.3-0.9-0.4-1.2
			c0.3-0.1,0.7-0.5,1.1-1c0.2-0.3,0.7-0.8,1.2-1.6C784.5,359.9,784.2,360,784,360.1L784,360.1z M786.7,364c0.2,1,0.3,2.2,0.4,3.1
			l-1,0.3c0-0.9-0.2-2.1-0.3-3.1L786.7,364z M790.6,360.6c-0.1,2.4-0.3,5.4-1.1,7.5c-0.3-0.2-0.8-0.5-1.1-0.6c0.2-0.5,0.3-1,0.5-1.5
			l-0.8,0.3c-0.1-0.7-0.4-1.7-0.7-2.4l0.9-0.3c0.2,0.6,0.5,1.4,0.6,2c0.5-2.2,0.5-4.7,0.5-6.5v-3.7c2.2-0.2,4.8-0.6,6.2-1l1,0.9
			c-1.6,0.5-3.9,0.8-6,1v0.8h6v3.5L790.6,360.6L790.6,360.6z M796.9,367c0,0.5-0.1,0.7-0.4,0.9c-0.3,0.2-0.6,0.2-1.2,0.2
			c0-0.3-0.1-0.7-0.3-1c0.3,0,0.5,0,0.6,0s0.1,0,0.1-0.1v-1.8H795v2.8h-0.8v-2.8h-0.9v2.8h-0.8v-2.8h-0.9v3h-1v-6.7h6.3L796.9,367
			L796.9,367z M790.7,358.2v0.9v0.4h4.7v-1.3H790.7z M792.5,364.1v-1.5h-0.9v1.5H792.5z M794.2,364.1v-1.5h-0.9v1.5H794.2z
			 M795.8,364.1v-1.5H795v1.5H795.8z"/>
		<path class="st7" d="M811.7,360v5.4h0.8v1.2h-0.8v1.6h-1.3v-1.6h-5.5v-0.9h-2.3v2.5h-1.2v-2.5h-2.6v-1.2h2.6v-1.1h-2.1v-5.3h2.1
			v-1h-2.5v-1.2h2.5v-1.5h1.2v1.5h2.4v1.2h-2.4v1h2.2v5.3h-2.2v1.1h2.6v0.9h0.8V360h-0.9v-1.1h7.4v1.1H811.7z M800.2,360.3h1.2v-1.1
			h-1.2V360.3z M800.2,362.4h1.2v-1.1h-1.2V362.4z M803.7,359.1h-1.2v1.1h1.2V359.1z M803.7,361.2h-1.2v1.1h1.2V361.2z M811.7,358.2
			h-5.8v-3.3h5.8V358.2z M810.3,355.9h-3.1v1.2h3.1V355.9z M810.4,360h-3.1v1.1h3.1V360z M810.4,362.1h-3.1v1.1h3.1V362.1z
			 M810.4,365.4v-1.1h-3.1v1.1H810.4z"/>
	</g>
</g>
<polygon class="st7" points="512.8,352.9 521,352.9 516.9,359.9 512.8,367 508.8,359.9 504.7,352.9 "/>
</svg>
