<?xml version="1.0" encoding="utf-8"?>
<!-- Generator: Adobe Illustrator 22.1.0, SVG Export Plug-In . SVG Version: 6.00 Build 0)  -->
<svg version="1.1" id="圖層_1" xmlns="http://www.w3.org/2000/svg" xmlns:xlink="http://www.w3.org/1999/xlink" x="0px" y="0px"
	 viewBox="0 0 950 379" style="enable-background:new 0 0 950 379;" xml:space="preserve">
<style type="text/css">
	.st0{fill:#382F4D;}
	.st1{fill:#FFFFFF;}
	.st2{fill:none;stroke:#F35C00;stroke-miterlimit:10;}
	.st3{fill:#F35C00;}
	.st4{fill:#DF7956;}
	.st5{fill:#548B9A;}
	.st6{fill:#BF6A8E;}
	.st7{fill:#C89F70;}
	.st8{fill:none;stroke:#FFFFFF;stroke-miterlimit:10;}
	.st9{opacity:0.12;}
	.st10{fill:none;stroke:#FFFFFF;stroke-miterlimit:10;stroke-dasharray:4;}
	.st11{enable-background:new    ;}
	.st12{fill:none;stroke:#548B9A;stroke-width:2;stroke-miterlimit:10;}
	.st13{fill:none;stroke:#BF6A8E;stroke-width:2;stroke-miterlimit:10;}
	.st14{fill:none;stroke:#DF7956;stroke-width:2;stroke-miterlimit:10;}
	.st15{fill:none;stroke:#C89F70;stroke-width:2;stroke-miterlimit:10;}
	.st16{fill:#F3FF00;}
	.st17{fill:#FF80F3;}
</style>
<rect x="-16.8" y="-533.8" class="st0" width="1016" height="436.3"/>
<g>
	<g>
		<g>
			<g>
				<path class="st1" d="M879.3,37.9h1.9v-6.1h-1.6v-0.9c0.8-0.2,1.4-0.4,1.9-0.7h1v7.7h1.7V39h-5L879.3,37.9L879.3,37.9z"/>
				<path class="st1" d="M885.7,34.6c0-3.1,1.1-4.5,2.9-4.5c1.7,0,2.9,1.5,2.9,4.5c0,3.1-1.1,4.6-2.9,4.6
					C886.8,39.2,885.7,37.7,885.7,34.6z M890.1,34.6c0-2.5-0.6-3.5-1.5-3.5s-1.5,0.9-1.5,3.5s0.6,3.5,1.5,3.5S890.1,37.1,890.1,34.6
					z"/>
				<path class="st1" d="M892.3,38l0.7-0.9c0.5,0.5,1.1,0.9,2.1,0.9s1.8-0.7,1.8-1.9s-0.7-1.8-1.7-1.8c-0.6,0-0.9,0.2-1.4,0.5
					l-0.7-0.4l0.3-4.2h4.5v1.2h-3.3l-0.2,2.3c0.4-0.2,0.7-0.3,1.2-0.3c1.5,0,2.7,0.9,2.7,2.8c0,2-1.4,3.1-3,3.1
					C893.8,39.2,892.9,38.6,892.3,38z"/>
			</g>
		</g>
		<g>
			<g>
				<path class="st1" d="M879.3,107.6h1.9v-6.1h-1.6v-0.9c0.8-0.2,1.4-0.4,1.9-0.7h1v7.7h1.7v1.1h-5L879.3,107.6L879.3,107.6z"/>
				<path class="st1" d="M885.7,104.3c0-3.1,1.1-4.5,2.9-4.5c1.7,0,2.9,1.5,2.9,4.5c0,3.1-1.1,4.6-2.9,4.6S885.7,107.3,885.7,104.3z
					 M890.1,104.3c0-2.5-0.6-3.5-1.5-3.5s-1.5,0.9-1.5,3.5s0.6,3.5,1.5,3.5S890.1,106.8,890.1,104.3z"/>
				<path class="st1" d="M892.5,104.3c0-3.1,1.1-4.5,2.9-4.5c1.7,0,2.9,1.5,2.9,4.5c0,3.1-1.1,4.6-2.9,4.6
					C893.7,108.9,892.5,107.3,892.5,104.3z M896.9,104.3c0-2.5-0.6-3.5-1.5-3.5s-1.5,0.9-1.5,3.5s0.6,3.5,1.5,3.5
					S896.9,106.8,896.9,104.3z"/>
			</g>
		</g>
		<g>
			<g>
				<path class="st1" d="M879.7,243.8c0.3,0.4,0.9,0.7,1.5,0.7c1.1,0,2-0.9,2.1-3.4c-0.5,0.6-1.3,1-1.9,1c-1.5,0-2.5-0.9-2.5-2.8
					c0-1.8,1.2-2.9,2.6-2.9c1.7,0,3.1,1.4,3.1,4.3c0,3.5-1.6,4.9-3.3,4.9c-1,0-1.7-0.4-2.3-0.9L879.7,243.8z M883.2,240.1
					c-0.1-1.7-0.8-2.5-1.8-2.5c-0.8,0-1.4,0.7-1.4,1.8s0.5,1.8,1.4,1.8C882.1,241.1,882.7,240.8,883.2,240.1z"/>
				<path class="st1" d="M885.7,241c0-3.1,1.1-4.5,2.9-4.5c1.7,0,2.9,1.5,2.9,4.5c0,3.1-1.1,4.6-2.9,4.6S885.7,244.1,885.7,241z
					 M890.1,241c0-2.5-0.6-3.5-1.5-3.5s-1.5,0.9-1.5,3.5s0.6,3.5,1.5,3.5S890.1,243.6,890.1,241z"/>
			</g>
		</g>
	</g>
	<line class="st2" x1="871.7" y1="0" x2="871.7" y2="338"/>
	<g>
		<polygon class="st3" points="872.2,241.2 872.2,239.7 874,240.5 875.9,241.2 874,242 872.2,242.8 		"/>
		<polygon class="st3" points="872.2,172.8 872.2,171.2 874,172 875.9,172.8 874,173.5 872.2,174.3 		"/>
		<polygon class="st3" points="872.2,310.2 872.2,308.7 874,309.4 875.9,310.2 874,311 872.2,311.7 		"/>
		<polygon class="st3" points="872.2,104.5 872.2,103 874,103.7 875.9,104.5 874,105.3 872.2,106 		"/>
		<polygon class="st3" points="872.2,35.8 872.2,34.2 874,35 875.9,35.8 874,36.5 872.2,37.3 		"/>
	</g>
	<g>
		<line class="st2" x1="872.2" y1="70.3" x2="874.6" y2="70.3"/>
		<line class="st2" x1="872.2" y1="138.3" x2="874.6" y2="138.3"/>
		<line class="st2" x1="872.2" y1="207.5" x2="874.6" y2="207.5"/>
		<line class="st2" x1="872.2" y1="275.8" x2="874.6" y2="275.8"/>
	</g>
	<polygon class="st4" points="950,146.1 883.8,146.1 877,148.9 883.8,129.7 950,129.7 	"/>
	<g>
		<g>
			<path class="st0" d="M888.4,140.4c0.3,0.4,0.9,0.7,1.5,0.7c1.1,0,2-0.9,2.1-3.4c-0.5,0.6-1.3,1-1.9,1c-1.5,0-2.5-0.9-2.5-2.8
				c0-1.8,1.2-2.9,2.6-2.9c1.7,0,3.1,1.4,3.1,4.3c0,3.5-1.6,4.9-3.3,4.9c-1,0-1.7-0.4-2.3-0.9L888.4,140.4z M891.9,136.7
				c-0.1-1.7-0.8-2.5-1.8-2.5c-0.8,0-1.4,0.7-1.4,1.8s0.5,1.8,1.4,1.8C890.8,137.7,891.4,137.4,891.9,136.7z"/>
			<path class="st0" d="M899.3,134.8c-0.3-0.4-0.9-0.7-1.4-0.7c-1.1,0-2.1,0.9-2.1,3.4c0.5-0.6,1.3-1,1.9-1c1.5,0,2.5,0.9,2.5,2.8
				c0,1.8-1.2,2.9-2.6,2.9c-1.7,0-3-1.4-3-4.4c0-3.4,1.6-4.7,3.3-4.7c1,0,1.7,0.4,2.2,0.9L899.3,134.8z M898.9,139.3
				c0-1.1-0.5-1.8-1.5-1.8c-0.5,0-1.1,0.3-1.6,1c0.1,1.8,0.8,2.6,1.7,2.6C898.3,141.2,898.9,140.5,898.9,139.3z"/>
			<path class="st0" d="M901.5,141.2c0-0.6,0.4-1,0.9-1s0.9,0.4,0.9,1s-0.4,1-0.9,1S901.5,141.8,901.5,141.2z"/>
			<path class="st0" d="M909,134.4h-4.1v-1.2h5.7v0.8c-2.1,2.6-2.4,4.5-2.5,8h-1.4C906.7,138.8,907.3,136.8,909,134.4z"/>
			<path class="st0" d="M917.6,139.7h-1.1v2.4h-1.3v-2.4h-3.8v-0.9l3.5-5.5h1.6v5.4h1.1V139.7z M915.2,138.6v-2.3
				c0-0.5,0-1.2,0.1-1.7l0,0c-0.2,0.4-0.5,0.9-0.7,1.4l-1.7,2.7L915.2,138.6L915.2,138.6z"/>
			<path class="st0" d="M923.4,134.8c-0.3-0.4-0.9-0.7-1.4-0.7c-1.1,0-2.1,0.9-2.1,3.4c0.5-0.6,1.3-1,1.9-1c1.5,0,2.5,0.9,2.5,2.8
				c0,1.8-1.2,2.9-2.6,2.9c-1.7,0-3-1.4-3-4.4c0-3.4,1.6-4.7,3.3-4.7c1,0,1.7,0.4,2.2,0.9L923.4,134.8z M923,139.3
				c0-1.1-0.5-1.8-1.5-1.8c-0.5,0-1.1,0.3-1.6,1c0.1,1.8,0.8,2.6,1.7,2.6C922.4,141.2,923,140.5,923,139.3z"/>
			<path class="st0" d="M930.2,134.8c-0.3-0.4-0.9-0.7-1.4-0.7c-1.1,0-2.1,0.9-2.1,3.4c0.5-0.6,1.3-1,1.9-1c1.5,0,2.5,0.9,2.5,2.8
				c0,1.8-1.2,2.9-2.6,2.9c-1.7,0-3-1.4-3-4.4c0-3.4,1.6-4.7,3.3-4.7c1,0,1.7,0.4,2.2,0.9L930.2,134.8z M929.8,139.3
				c0-1.1-0.5-1.8-1.5-1.8c-0.5,0-1.1,0.3-1.6,1c0.1,1.8,0.8,2.6,1.7,2.6C929.2,141.2,929.8,140.5,929.8,139.3z"/>
			<path class="st0" d="M932.2,139.9c0-1.2,0.8-1.9,1.6-2.4v-0.1c-0.7-0.5-1.2-1.1-1.2-2.1c0-1.4,1.1-2.3,2.5-2.3
				c1.5,0,2.5,1,2.5,2.3c0,0.9-0.6,1.7-1.2,2.1v0.1c0.8,0.5,1.5,1.1,1.5,2.3c0,1.3-1.2,2.3-2.9,2.3
				C933.4,142.2,932.2,141.2,932.2,139.9z M936.6,139.9c0-1.1-1-1.5-2.2-2c-0.6,0.4-1,1.1-1,1.8c0,0.9,0.7,1.5,1.7,1.5
				C936,141.2,936.6,140.7,936.6,139.9z M936.4,135.5c0-0.8-0.5-1.4-1.4-1.4c-0.7,0-1.3,0.5-1.3,1.3c0,1,0.8,1.4,1.8,1.8
				C936.2,136.7,936.4,136.1,936.4,135.5z"/>
			<path class="st0" d="M939.9,140.4c0.3,0.4,0.9,0.7,1.5,0.7c1.1,0,2-0.9,2.1-3.4c-0.5,0.6-1.3,1-1.9,1c-1.5,0-2.5-0.9-2.5-2.8
				c0-1.8,1.2-2.9,2.6-2.9c1.7,0,3.1,1.4,3.1,4.3c0,3.5-1.6,4.9-3.3,4.9c-1,0-1.7-0.4-2.3-0.9L939.9,140.4z M943.4,136.7
				c-0.1-1.7-0.8-2.5-1.8-2.5c-0.8,0-1.4,0.7-1.4,1.8s0.5,1.8,1.4,1.8C942.2,137.7,942.8,137.4,943.4,136.7z"/>
		</g>
	</g>
	<polygon class="st5" points="950,165.3 883.8,165.3 877,157.1 883.8,148.9 950,148.9 	"/>
	<g>
		<g>
			<path class="st0" d="M888.4,159.6c0.3,0.4,0.9,0.7,1.5,0.7c1.1,0,2-0.9,2.1-3.4c-0.5,0.6-1.3,1-1.9,1c-1.5,0-2.5-0.9-2.5-2.8
				c0-1.8,1.2-2.9,2.6-2.9c1.7,0,3.1,1.4,3.1,4.3c0,3.5-1.6,4.9-3.3,4.9c-1,0-1.7-0.4-2.3-0.9L888.4,159.6z M891.9,155.9
				c-0.1-1.7-0.8-2.5-1.8-2.5c-0.8,0-1.4,0.7-1.4,1.8s0.5,1.8,1.4,1.8C890.8,156.9,891.4,156.6,891.9,155.9z"/>
			<path class="st0" d="M899.3,154c-0.3-0.4-0.9-0.7-1.4-0.7c-1.1,0-2.1,0.9-2.1,3.4c0.5-0.6,1.3-1,1.9-1c1.5,0,2.5,0.9,2.5,2.8
				c0,1.8-1.2,2.9-2.6,2.9c-1.7,0-3-1.4-3-4.4c0-3.4,1.6-4.7,3.3-4.7c1,0,1.7,0.4,2.2,0.9L899.3,154z M898.9,158.5
				c0-1.1-0.5-1.8-1.5-1.8c-0.5,0-1.1,0.3-1.6,1c0.1,1.8,0.8,2.6,1.7,2.6C898.3,160.4,898.9,159.7,898.9,158.5z"/>
			<path class="st0" d="M901.5,160.4c0-0.6,0.4-1,0.9-1s0.9,0.4,0.9,1s-0.4,1-0.9,1S901.5,161,901.5,160.4z"/>
			<path class="st0" d="M905.3,160.1h1.9V154h-1.6v-0.9c0.8-0.2,1.4-0.4,1.9-0.7h1v7.7h1.7v1.1h-5L905.3,160.1L905.3,160.1z"/>
			<path class="st0" d="M915.8,153.6h-4.1v-1.2h5.7v0.8c-2.1,2.6-2.4,4.5-2.5,8h-1.4C913.6,158,914.1,156,915.8,153.6z"/>
			<path class="st0" d="M924.4,158.9h-1.1v2.4H922v-2.4h-3.8V158l3.5-5.5h1.6v5.4h1.1L924.4,158.9L924.4,158.9z M922,157.8v-2.3
				c0-0.5,0-1.2,0.1-1.7l0,0c-0.2,0.4-0.5,0.9-0.7,1.4l-1.7,2.7L922,157.8L922,157.8z"/>
			<path class="st0" d="M925.3,159.1c0-1.2,0.8-1.9,1.6-2.4v-0.1c-0.7-0.5-1.2-1.1-1.2-2.1c0-1.4,1.1-2.3,2.5-2.3
				c1.5,0,2.5,1,2.5,2.3c0,0.9-0.6,1.7-1.2,2.1v0.1c0.8,0.5,1.5,1.1,1.5,2.3c0,1.3-1.2,2.3-2.9,2.3
				C926.6,161.4,925.3,160.4,925.3,159.1z M929.8,159.1c0-1.1-1-1.5-2.2-2c-0.6,0.4-1,1.1-1,1.8c0,0.9,0.7,1.5,1.7,1.5
				C929.1,160.4,929.8,159.9,929.8,159.1z M929.6,154.7c0-0.8-0.5-1.4-1.4-1.4c-0.7,0-1.3,0.5-1.3,1.3c0,1,0.8,1.4,1.8,1.8
				C929.3,155.9,929.6,155.3,929.6,154.7z"/>
			<path class="st0" d="M938.1,158.9H937v2.4h-1.3v-2.4h-3.8V158l3.5-5.5h1.6v5.4h1.1V158.9z M935.7,157.8v-2.3c0-0.5,0-1.2,0.1-1.7
				l0,0c-0.2,0.4-0.5,0.9-0.7,1.4l-1.7,2.7L935.7,157.8L935.7,157.8z"/>
			<path class="st0" d="M938.8,160.2l0.7-0.9c0.5,0.5,1.2,1,2.1,1c1,0,1.7-0.6,1.7-1.5c0-1-0.6-1.6-2.6-1.6v-1
				c1.7,0,2.3-0.7,2.3-1.5s-0.5-1.3-1.4-1.3c-0.7,0-1.3,0.3-1.8,0.8l-0.7-0.9c0.7-0.6,1.5-1.1,2.5-1.1c1.6,0,2.7,0.8,2.7,2.3
				c0,1-0.6,1.7-1.5,2.1v0.1c1,0.3,1.8,1,1.8,2.2c0,1.6-1.3,2.5-3,2.5C940.3,161.4,939.4,160.9,938.8,160.2z"/>
		</g>
	</g>
	<polygon class="st6" points="950,185.3 883.8,185.3 877,167.3 883.8,168.9 950,168.9 	"/>
	<g>
		<g>
			<path class="st0" d="M888.4,179.6c0.3,0.4,0.9,0.7,1.5,0.7c1.1,0,2-0.9,2.1-3.4c-0.5,0.6-1.3,1-1.9,1c-1.5,0-2.5-0.9-2.5-2.8
				c0-1.8,1.2-2.9,2.6-2.9c1.7,0,3.1,1.4,3.1,4.3c0,3.5-1.6,4.9-3.3,4.9c-1,0-1.7-0.4-2.3-0.9L888.4,179.6z M891.9,175.9
				c-0.1-1.7-0.8-2.5-1.8-2.5c-0.8,0-1.4,0.7-1.4,1.8s0.5,1.8,1.4,1.8C890.8,177,891.4,176.7,891.9,175.9z"/>
			<path class="st0" d="M894.2,180.3l0.7-0.9c0.5,0.5,1.1,0.9,2.1,0.9s1.8-0.7,1.8-1.9s-0.7-1.8-1.7-1.8c-0.6,0-0.9,0.2-1.4,0.5
				l-0.7-0.4l0.3-4.2h4.5v1.2h-3.3l-0.2,2.3c0.4-0.2,0.7-0.3,1.2-0.3c1.5,0,2.7,0.9,2.7,2.8c0,2-1.4,3.1-3,3.1
				C895.7,181.4,894.8,180.9,894.2,180.3z"/>
			<path class="st0" d="M901.5,180.5c0-0.6,0.4-1,0.9-1s0.9,0.4,0.9,1s-0.4,1-0.9,1S901.5,181,901.5,180.5z"/>
			<path class="st0" d="M910.7,178.9h-1.1v2.4h-1.3v-2.4h-3.8V178l3.5-5.5h1.6v5.4h1.1V178.9z M908.3,177.8v-2.3
				c0-0.5,0-1.2,0.1-1.7l0,0c-0.2,0.4-0.5,0.9-0.7,1.4l-1.7,2.7L908.3,177.8L908.3,177.8z"/>
			<path class="st0" d="M915.8,173.6h-4.1v-1.2h5.7v0.8c-2.1,2.6-2.4,4.5-2.5,8h-1.4C913.6,178.1,914.1,176,915.8,173.6z"/>
			<path class="st0" d="M919,180.1h1.9V174h-1.6v-0.9c0.8-0.2,1.4-0.4,1.9-0.7h1v7.7h1.7v1.1h-5L919,180.1L919,180.1z"/>
			<path class="st0" d="M931.3,178.9h-1.1v2.4h-1.3v-2.4H925V178l3.5-5.5h1.6v5.4h1.1v1H931.3z M928.8,177.8v-2.3
				c0-0.5,0-1.2,0.1-1.7l0,0c-0.2,0.4-0.5,0.9-0.7,1.4l-1.7,2.7L928.8,177.8L928.8,177.8z"/>
			<path class="st0" d="M932.2,176.8c0-3.1,1.1-4.5,2.9-4.5c1.7,0,2.9,1.5,2.9,4.5c0,3.1-1.1,4.6-2.9,4.6
				C933.3,181.4,932.2,179.9,932.2,176.8z M936.6,176.8c0-2.5-0.6-3.5-1.5-3.5s-1.5,0.9-1.5,3.5s0.6,3.5,1.5,3.5
				C935.9,180.3,936.6,179.4,936.6,176.8z"/>
			<path class="st0" d="M938.8,180.3l0.7-0.9c0.5,0.5,1.1,0.9,2.1,0.9s1.8-0.7,1.8-1.9s-0.7-1.8-1.7-1.8c-0.6,0-0.9,0.2-1.4,0.5
				l-0.7-0.4l0.3-4.2h4.5v1.2H941l-0.2,2.3c0.4-0.2,0.7-0.3,1.2-0.3c1.5,0,2.7,0.9,2.7,2.8c0,2-1.4,3.1-3,3.1
				C940.3,181.4,939.4,180.9,938.8,180.3z"/>
		</g>
	</g>
	<polygon class="st7" points="950,312.7 883.8,312.7 877,304.5 883.8,296.3 950,296.3 	"/>
	<g>
		<g>
			<path class="st0" d="M887.6,306.5c0-1.2,0.8-1.9,1.6-2.4V304c-0.7-0.5-1.2-1.1-1.2-2.1c0-1.4,1.1-2.3,2.5-2.3
				c1.5,0,2.5,1,2.5,2.3c0,0.9-0.6,1.7-1.2,2.1v0.1c0.8,0.5,1.5,1.1,1.5,2.3c0,1.3-1.2,2.3-2.9,2.3
				C888.8,308.8,887.6,307.8,887.6,306.5z M892,306.5c0-1.1-1-1.5-2.2-2c-0.6,0.4-1,1.1-1,1.8c0,0.9,0.7,1.5,1.7,1.5
				C891.4,307.8,892,307.3,892,306.5z M891.8,302.1c0-0.8-0.5-1.4-1.4-1.4c-0.7,0-1.3,0.5-1.3,1.3c0,1,0.8,1.4,1.8,1.8
				C891.5,303.3,891.8,302.7,891.8,302.1z"/>
			<path class="st0" d="M894.2,307.6l0.7-0.9c0.5,0.5,1.1,0.9,2.1,0.9s1.8-0.7,1.8-1.9c0-1.2-0.7-1.8-1.7-1.8
				c-0.6,0-0.9,0.2-1.4,0.5L895,304l0.3-4.2h4.5v1.2h-3.3l-0.2,2.3c0.4-0.2,0.7-0.3,1.2-0.3c1.5,0,2.7,0.9,2.7,2.8
				c0,2-1.4,3.1-3,3.1C895.7,308.8,894.8,308.3,894.2,307.6z"/>
			<path class="st0" d="M901.5,307.9c0-0.6,0.4-1,0.9-1s0.9,0.4,0.9,1s-0.4,1-0.9,1S901.5,308.4,901.5,307.9z"/>
			<path class="st0" d="M910.7,306.3h-1.1v2.4h-1.3v-2.4h-3.8v-0.9l3.5-5.5h1.6v5.4h1.1V306.3z M908.3,305.2v-2.3
				c0-0.5,0-1.2,0.1-1.7l0,0c-0.2,0.4-0.5,0.9-0.7,1.4l-1.7,2.7h2.3V305.2z"/>
			<path class="st0" d="M917.6,306.3h-1.1v2.4h-1.3v-2.4h-3.8v-0.9l3.5-5.5h1.6v5.4h1.1V306.3z M915.2,305.2v-2.3
				c0-0.5,0-1.2,0.1-1.7l0,0c-0.2,0.4-0.5,0.9-0.7,1.4l-1.7,2.7h2.3V305.2z"/>
			<path class="st0" d="M918.3,307.6l0.7-0.9c0.5,0.5,1.2,1,2.1,1c1,0,1.7-0.6,1.7-1.5c0-1-0.6-1.6-2.6-1.6v-1
				c1.7,0,2.3-0.7,2.3-1.5s-0.5-1.3-1.4-1.3c-0.7,0-1.3,0.3-1.8,0.8l-0.7-0.9c0.7-0.6,1.5-1.1,2.5-1.1c1.6,0,2.7,0.8,2.7,2.3
				c0,1-0.6,1.7-1.5,2.1v0.1c1,0.3,1.8,1,1.8,2.2c0,1.6-1.3,2.5-3,2.5C919.8,308.8,918.9,308.3,918.3,307.6z"/>
			<path class="st0" d="M929.5,301h-4.1v-1.2h5.7v0.8c-2.1,2.6-2.4,4.5-2.5,8h-1.4C927.2,305.4,927.8,303.4,929.5,301z"/>
			<path class="st0" d="M931.9,307.6l0.7-0.9c0.5,0.5,1.1,0.9,2.1,0.9s1.8-0.7,1.8-1.9c0-1.2-0.7-1.8-1.7-1.8
				c-0.6,0-0.9,0.2-1.4,0.5l-0.7-0.4l0.3-4.2h4.5v1.2h-3.3l-0.2,2.3c0.4-0.2,0.7-0.3,1.2-0.3c1.5,0,2.7,0.9,2.7,2.8
				c0,2-1.4,3.1-3,3.1C933.4,308.8,932.6,308.3,931.9,307.6z"/>
			<path class="st0" d="M943.9,301.5c-0.3-0.4-0.9-0.7-1.4-0.7c-1.1,0-2.1,0.9-2.1,3.4c0.5-0.6,1.3-1,1.9-1c1.5,0,2.5,0.9,2.5,2.8
				c0,1.8-1.2,2.9-2.6,2.9c-1.7,0-3-1.4-3-4.4c0-3.4,1.6-4.8,3.3-4.8c1,0,1.7,0.4,2.2,0.9L943.9,301.5z M943.5,305.9
				c0-1.1-0.5-1.8-1.5-1.8c-0.5,0-1.1,0.3-1.6,1c0.1,1.8,0.8,2.6,1.7,2.6C942.9,307.8,943.5,307.1,943.5,305.9z"/>
		</g>
	</g>
	<g>
		<g>
			<g>
				<path class="st1" d="M48.1,351.8H50v-6.1h-1.6v-0.9c0.8-0.2,1.4-0.4,1.9-0.7h1v7.7H53v1.1h-5L48.1,351.8L48.1,351.8z"/>
				<path class="st1" d="M63.8,352.4c0,0.7-0.2,1.1-0.7,1.2c-0.5,0.2-1.3,0.2-2.6,0.2c-0.1-0.3-0.3-0.9-0.5-1.2c0.9,0,1.9,0,2.2,0
					s0.4-0.1,0.4-0.3v-2.1h-5.4c-0.3,1.3-0.9,2.7-2.1,3.6c-0.2-0.2-0.6-0.6-0.9-0.8c1.9-1.6,2.1-4,2.1-5.8v-3.8h7.5V352.4z
					 M62.6,349.2v-1.8h-5.2c0,0.6,0,1.2-0.1,1.8H62.6z M57.5,344.6v1.8h5.2v-1.8H57.5z"/>
			</g>
		</g>
		<g>
			<g>
				<path class="st1" d="M152.1,352.2c2.6-2.3,3.9-4,3.9-5.5c0-1-0.5-1.6-1.5-1.6c-0.7,0-1.3,0.4-1.7,1l-0.8-0.8
					c0.8-0.8,1.5-1.3,2.7-1.3c1.6,0,2.7,1.1,2.7,2.7c0,1.7-1.4,3.5-3.2,5.3c0.5,0,1-0.1,1.4-0.1h2.2v1.2h-5.7L152.1,352.2
					L152.1,352.2z"/>
				<path class="st1" d="M168.3,352.4c0,0.7-0.2,1.1-0.7,1.2c-0.5,0.2-1.3,0.2-2.6,0.2c-0.1-0.3-0.3-0.9-0.5-1.2c0.9,0,1.9,0,2.2,0
					s0.4-0.1,0.4-0.3v-2.1h-5.4c-0.3,1.3-0.9,2.7-2.1,3.6c-0.2-0.2-0.6-0.6-0.9-0.8c1.9-1.6,2.1-4,2.1-5.8v-3.8h7.5V352.4z
					 M167.1,349.2v-1.8H162c0,0.6,0,1.2-0.1,1.8H167.1z M162,344.6v1.8h5.2v-1.8H162z"/>
			</g>
		</g>
		<g>
			<g>
				<path class="st1" d="M256.9,351.9l0.7-0.9c0.5,0.5,1.2,1,2.1,1c1,0,1.7-0.6,1.7-1.5c0-1-0.6-1.6-2.6-1.6v-1
					c1.7,0,2.3-0.7,2.3-1.5s-0.5-1.3-1.4-1.3c-0.7,0-1.3,0.3-1.8,0.8l-0.7-0.9c0.7-0.6,1.5-1.1,2.5-1.1c1.6,0,2.7,0.8,2.7,2.3
					c0,1-0.6,1.7-1.5,2.1v0.1c1,0.3,1.8,1,1.8,2.2c0,1.6-1.3,2.5-3,2.5C258.4,353.1,257.5,352.6,256.9,351.9z"/>
				<path class="st1" d="M273.3,352.4c0,0.7-0.2,1.1-0.7,1.2c-0.5,0.2-1.3,0.2-2.6,0.2c-0.1-0.3-0.3-0.9-0.5-1.2c0.9,0,1.9,0,2.2,0
					c0.3,0,0.4-0.1,0.4-0.3v-2.1h-5.4c-0.3,1.3-0.9,2.7-2.1,3.6c-0.2-0.2-0.6-0.6-0.9-0.8c1.9-1.6,2.1-4,2.1-5.8v-3.8h7.5V352.4z
					 M272.1,349.2v-1.8H267c0,0.6,0,1.2-0.1,1.8H272.1z M267,344.6v1.8h5.2v-1.8H267z"/>
			</g>
		</g>
		<g>
			<g>
				<path class="st1" d="M370.6,350.6h-1.1v2.4h-1.3v-2.4h-3.8v-0.9l3.5-5.5h1.6v5.4h1.1L370.6,350.6L370.6,350.6z M368.1,349.5
					v-2.3c0-0.5,0-1.2,0.1-1.7l0,0c-0.2,0.4-0.5,0.9-0.7,1.4l-1.7,2.7h2.3V349.5z"/>
				<path class="st1" d="M380.8,352.4c0,0.7-0.2,1.1-0.7,1.2c-0.5,0.2-1.3,0.2-2.6,0.2c-0.1-0.3-0.3-0.9-0.5-1.2c0.9,0,1.9,0,2.2,0
					c0.3,0,0.4-0.1,0.4-0.3v-2.1h-5.4c-0.3,1.3-0.9,2.7-2.1,3.6c-0.2-0.2-0.6-0.6-0.9-0.8c1.9-1.6,2.1-4,2.1-5.8v-3.8h7.5V352.4z
					 M379.6,349.2v-1.8h-5.2c0,0.6,0,1.2-0.1,1.8H379.6z M374.5,344.6v1.8h5.2v-1.8H374.5z"/>
			</g>
		</g>
		<g>
			<g>
				<path class="st1" d="M473.4,352l0.7-0.9c0.5,0.5,1.1,0.9,2.1,0.9s1.8-0.7,1.8-1.9c0-1.2-0.7-1.8-1.7-1.8c-0.6,0-0.9,0.2-1.4,0.5
					l-0.7-0.4l0.3-4.2h4.5v1.2h-3.3l-0.2,2.3c0.4-0.2,0.7-0.3,1.2-0.3c1.5,0,2.7,0.9,2.7,2.8c0,2-1.4,3.1-3,3.1
					C474.9,353.1,474,352.6,473.4,352z"/>
				<path class="st1" d="M489.8,352.4c0,0.7-0.2,1.1-0.7,1.2c-0.5,0.2-1.3,0.2-2.6,0.2c-0.1-0.3-0.3-0.9-0.5-1.2c0.9,0,1.9,0,2.2,0
					c0.3,0,0.4-0.1,0.4-0.3v-2.1h-5.4c-0.3,1.3-0.9,2.7-2.1,3.6c-0.2-0.2-0.6-0.6-0.9-0.8c1.9-1.6,2.1-4,2.1-5.8v-3.8h7.5V352.4z
					 M488.6,349.2v-1.8h-5.2c0,0.6,0,1.2-0.1,1.8H488.6z M483.5,344.6v1.8h5.2v-1.8H483.5z"/>
			</g>
		</g>
		<g>
			<g>
				<path class="st1" d="M589.5,345.8c-0.3-0.4-0.9-0.7-1.4-0.7c-1.1,0-2.1,0.9-2.1,3.4c0.5-0.6,1.3-1,1.9-1c1.5,0,2.5,0.9,2.5,2.8
					c0,1.8-1.2,2.9-2.6,2.9c-1.7,0-3-1.4-3-4.4c0-3.4,1.6-4.7,3.3-4.7c1,0,1.7,0.4,2.2,0.9L589.5,345.8z M589.1,350.3
					c0-1.1-0.5-1.8-1.5-1.8c-0.5,0-1.1,0.3-1.6,1c0.1,1.8,0.8,2.6,1.7,2.6C588.5,352.1,589.1,351.4,589.1,350.3z"/>
				<path class="st1" d="M600.8,352.4c0,0.7-0.2,1.1-0.7,1.2c-0.5,0.2-1.3,0.2-2.6,0.2c-0.1-0.3-0.3-0.9-0.5-1.2c0.9,0,1.9,0,2.2,0
					s0.4-0.1,0.4-0.3v-2.1h-5.4c-0.3,1.3-0.9,2.7-2.1,3.6c-0.2-0.2-0.6-0.6-0.9-0.8c1.9-1.6,2.1-4,2.1-5.8v-3.8h7.5V352.4z
					 M599.6,349.2v-1.8h-5.2c0,0.6,0,1.2-0.1,1.8H599.6z M594.5,344.6v1.8h5.2v-1.8H594.5z"/>
			</g>
		</g>
		<g>
			<g>
				<path class="st1" d="M695.3,345.3h-4.1v-1.2h5.7v0.8c-2.1,2.6-2.4,4.5-2.5,8H693C693.1,349.8,693.6,347.7,695.3,345.3z"/>
				<path class="st1" d="M707.3,352.4c0,0.7-0.2,1.1-0.7,1.2c-0.5,0.2-1.3,0.2-2.6,0.2c-0.1-0.3-0.3-0.9-0.5-1.2c0.9,0,1.9,0,2.2,0
					s0.4-0.1,0.4-0.3v-2.1h-5.4c-0.3,1.3-0.9,2.7-2.1,3.6c-0.2-0.2-0.6-0.6-0.9-0.8c1.9-1.6,2.1-4,2.1-5.8v-3.8h7.5V352.4z
					 M706.1,349.2v-1.8H701c0,0.6,0,1.2-0.1,1.8H706.1z M701,344.6v1.8h5.2v-1.8H701z"/>
			</g>
		</g>
		<g>
			<g>
				<path class="st1" d="M804.1,350.8c0-1.2,0.8-1.9,1.6-2.4v-0.1c-0.7-0.5-1.2-1.1-1.2-2.1c0-1.4,1.1-2.3,2.5-2.3
					c1.5,0,2.5,1,2.5,2.3c0,0.9-0.6,1.7-1.2,2.1v0.1c0.8,0.5,1.5,1.1,1.5,2.3c0,1.3-1.2,2.3-2.9,2.3
					C805.4,353.1,804.1,352.2,804.1,350.8z M808.6,350.8c0-1.1-1-1.5-2.2-2c-0.6,0.4-1,1.1-1,1.8c0,0.9,0.7,1.5,1.7,1.5
					C807.9,352.1,808.6,351.6,808.6,350.8z M808.4,346.4c0-0.8-0.5-1.4-1.4-1.4c-0.7,0-1.3,0.5-1.3,1.3c0,1,0.8,1.4,1.8,1.8
					C808.1,347.6,808.4,347,808.4,346.4z"/>
				<path class="st1" d="M820.3,352.4c0,0.7-0.2,1.1-0.7,1.2c-0.5,0.2-1.3,0.2-2.6,0.2c-0.1-0.3-0.3-0.9-0.5-1.2c0.9,0,1.9,0,2.2,0
					s0.4-0.1,0.4-0.3v-2.1h-5.4c-0.3,1.3-0.9,2.7-2.1,3.6c-0.2-0.2-0.6-0.6-0.9-0.8c1.9-1.6,2.1-4,2.1-5.8v-3.8h7.5V352.4z
					 M819.1,349.2v-1.8H814c0,0.6,0,1.2-0.1,1.8H819.1z M814,344.6v1.8h5.2v-1.8H814z"/>
			</g>
		</g>
	</g>
	<g>
		<g>
			<path class="st1" d="M434.9,376c2.4-2.2,3.8-3.8,3.8-5.2c0-0.9-0.5-1.4-1.3-1.4c-0.6,0-1.2,0.4-1.6,0.9l-1-1
				c0.8-0.9,1.6-1.3,2.8-1.3c1.7,0,2.8,1.1,2.8,2.7s-1.3,3.3-3,4.9c0.4,0,1-0.1,1.4-0.1h1.9v1.5h-5.9v-1H434.9z"/>
			<path class="st1" d="M442,372.5c0-3.1,1.2-4.6,3-4.6s3,1.5,3,4.6s-1.2,4.6-3,4.6C443.2,377.2,442,375.6,442,372.5z M446.3,372.5
				c0-2.5-0.6-3.2-1.3-3.2c-0.8,0-1.3,0.7-1.3,3.2s0.6,3.3,1.3,3.3C445.7,375.8,446.3,375,446.3,372.5z"/>
			<path class="st1" d="M449.5,375.6h1.9V370h-1.6v-1.1c0.9-0.2,1.5-0.4,2.1-0.7h1.3v7.4h1.7v1.4h-5.3v-1.4H449.5z"/>
			<path class="st1" d="M456.1,374.8c0-1.1,0.7-1.9,1.5-2.3v-0.1c-0.7-0.5-1.2-1.2-1.2-2.1c0-1.4,1.1-2.3,2.7-2.3s2.6,0.9,2.6,2.4
				c0,0.9-0.6,1.6-1.1,2v0.1c0.8,0.4,1.5,1.2,1.5,2.4c0,1.3-1.2,2.4-3,2.4C457.4,377.2,456.1,376.2,456.1,374.8z M460.4,374.7
				c0-0.9-0.8-1.3-2-1.8c-0.5,0.4-0.8,1-0.8,1.6c0,0.8,0.7,1.3,1.5,1.3C459.9,375.9,460.4,375.5,460.4,374.7z M460.3,370.4
				c0-0.7-0.4-1.2-1.2-1.2c-0.6,0-1.1,0.4-1.1,1.1c0,0.8,0.7,1.2,1.6,1.6C460.1,371.5,460.3,371,460.3,370.4z"/>
		</g>
	</g>
	<line class="st8" x1="0" y1="338" x2="871.7" y2="338"/>
	<g class="st9">
		<line class="st10" x1="0" y1="35.8" x2="872.2" y2="35.8"/>
		<line class="st10" x1="0" y1="104.5" x2="872.2" y2="104.5"/>
		<line class="st10" x1="0" y1="173.2" x2="872.2" y2="173.2"/>
		<line class="st10" x1="0" y1="241.2" x2="872.2" y2="241.2"/>
		<line class="st10" x1="0" y1="310.2" x2="872.2" y2="310.2"/>
		<line class="st10" x1="111.3" y1="0" x2="111.3" y2="338"/>
		<line class="st10" x1="211.3" y1="0" x2="211.3" y2="338"/>
		<line class="st10" x1="322" y1="0" x2="322" y2="338"/>
		<line class="st10" x1="426.3" y1="0" x2="426.3" y2="338"/>
		<line class="st10" x1="541.5" y1="0" x2="541.5" y2="338"/>
		<line class="st10" x1="645.3" y1="0" x2="645.3" y2="338"/>
		<line class="st10" x1="756" y1="0" x2="756" y2="338"/>
	</g>
	<g class="st11">
		<path class="st1" d="M39.5,164.3c3.9-3.4,5.7-5.9,5.7-8c0-1.4-0.7-2.5-2.3-2.5c-1,0-1.9,0.6-2.6,1.4l-0.9-0.9
			c1-1.1,2.1-1.8,3.6-1.8c2.2,0,3.6,1.5,3.6,3.7c0,2.5-1.9,5-4.8,7.7c0.6-0.1,1.4-0.1,2-0.1h3.4v1.3h-7.8L39.5,164.3L39.5,164.3z"/>
		<path class="st1" d="M49,159c0-4.3,1.5-6.4,3.9-6.4c2.3,0,3.9,2.1,3.9,6.4c0,4.3-1.5,6.5-3.9,6.5S49,163.3,49,159z M55.2,159
			c0-3.6-0.9-5.1-2.3-5.1c-1.4,0-2.4,1.5-2.4,5.1s0.9,5.2,2.4,5.2C54.2,164.2,55.2,162.7,55.2,159z"/>
		<path class="st1" d="M59,164h2.8v-9.2h-2.2v-1c1.1-0.2,1.9-0.5,2.6-0.9h1.2V164h2.5v1.3H59V164z"/>
		<path class="st1" d="M67.6,162.2c0-1.7,1.1-2.8,2.3-3.4v-0.1c-0.9-0.6-1.7-1.6-1.7-2.9c0-1.9,1.5-3.1,3.4-3.1
			c2.1,0,3.4,1.4,3.4,3.3c0,1.3-0.9,2.4-1.7,3v0.1c1.1,0.6,2.1,1.6,2.1,3.2c0,1.8-1.6,3.2-3.9,3.2C69.3,165.5,67.6,164.1,67.6,162.2
			z M74,162.2c0-1.7-1.5-2.3-3.3-3c-1,0.6-1.7,1.6-1.7,2.8c0,1.3,1.1,2.3,2.6,2.3C73,164.3,74,163.5,74,162.2z M73.7,156
			c0-1.2-0.8-2.2-2.1-2.2c-1.1,0-2,0.8-2,2c0,1.5,1.3,2.1,2.8,2.7C73.3,157.8,73.7,156.9,73.7,156z"/>
		<path class="st1" d="M81.5,151.9h1.1l-5.1,16.4h-1.1L81.5,151.9z"/>
		<path class="st1" d="M84.4,164h2.8v-9.2H85v-1c1.1-0.2,1.9-0.5,2.6-0.9h1.2V164h2.5v1.3h-6.8L84.4,164L84.4,164z"/>
		<path class="st1" d="M92.9,156.4h8.1v1.1h-8.1V156.4z M92.9,160.5h8.1v1.1h-8.1V160.5z"/>
		<path class="st1" d="M103.1,164h2.8v-9.2h-2.2v-1c1.1-0.2,1.9-0.5,2.6-0.9h1.2V164h2.5v1.3h-6.8L103.1,164L103.1,164z"/>
		<path class="st1" d="M111.8,159c0-4.3,1.5-6.4,3.9-6.4c2.3,0,3.9,2.1,3.9,6.4c0,4.3-1.5,6.5-3.9,6.5S111.8,163.3,111.8,159z
			 M118,159c0-3.6-0.9-5.1-2.3-5.1s-2.4,1.5-2.4,5.1s0.9,5.2,2.4,5.2C117.1,164.2,118,162.7,118,159z"/>
		<path class="st1" d="M121.2,159c0-4.3,1.5-6.4,3.9-6.4c2.3,0,3.9,2.1,3.9,6.4c0,4.3-1.5,6.5-3.9,6.5S121.2,163.3,121.2,159z
			 M127.4,159c0-3.6-0.9-5.1-2.3-5.1s-2.4,1.5-2.4,5.1s0.9,5.2,2.4,5.2C126.5,164.2,127.4,162.7,127.4,159z"/>
	</g>
	<g>
		<g class="st11">
			<path class="st5" d="M699.3,33.1h2.5v1.8h-2.5v2.7h-1.9v-2.7h-2.6v-1.8h2.6v-0.9h-2.1v-6h2.1v-1H695v-1.8h2.4v-1.6h1.9v1.6h2.5
				v1.8h-2.5v1h2.2v6h-2.2V33.1z M697,28.4h2.7v-0.7H697V28.4z M697,30.6h2.7v-0.8H697V30.6z M710.5,25.5V27h-8.7v-1.5h2.3
				c0-0.3,0.1-0.6,0.1-0.9h-1.6v-1.5h1.8c0.1-0.4,0.1-0.8,0.1-1.3l1.9,0.1c0,0.3-0.1,0.7-0.1,1.1h3.1v2.4L710.5,25.5L710.5,25.5z
				 M707.9,34.4h2.6V36h-2.6v1.7H706V36h-3.5c0.2-0.7,0.5-1.7,0.7-2.6h-0.9v-1.6h3.7v-0.6h-3.2v-3.7h6.8v3.7h-1.8v0.6h2.3v1.6h-2.3
				v1H707.9z M704.7,30h3v-1.1h-3V30z M706,34.4v-1.1h-1c-0.1,0.4-0.2,0.7-0.2,1.1H706z M706.1,24.6c-0.1,0.3-0.1,0.6-0.1,0.9h1.7
				v-0.9H706.1z"/>
			<path class="st5" d="M724.8,35.5c0.6,0,0.7-0.4,0.7-2.9c0.4,0.4,1.3,0.7,1.9,0.8c-0.2,3-0.7,3.9-2.4,3.9h-2
				c-1.9,0-2.4-0.6-2.4-2.6v-5.2H718c-0.3,3.5-1.1,6.4-5.1,8c-0.2-0.5-0.8-1.3-1.3-1.6c3.5-1.3,4-3.6,4.2-6.4H712v-2h15v2h-4.5v5.2
				c0,0.6,0.1,0.7,0.7,0.7L724.8,35.5L724.8,35.5z M725.5,25h-12v-2h12V25z"/>
			<path class="st5" d="M730.5,25.9c0-0.9,0.7-1.6,1.6-1.6c0.9,0,1.6,0.7,1.6,1.6s-0.7,1.6-1.6,1.6
				C731.3,27.5,730.5,26.8,730.5,25.9z M730.5,33.9c0-0.9,0.7-1.6,1.6-1.6c0.9,0,1.6,0.7,1.6,1.6c0,0.9-0.7,1.6-1.6,1.6
				C731.3,35.5,730.5,34.8,730.5,33.9z"/>
			<path class="st5" d="M798.6,30.4h4.6v1.8h-4.6V30.4z"/>
			<path class="st5" d="M804.4,34.7l1.2-1.6c0.7,0.7,1.7,1.3,2.8,1.3c1.3,0,2.1-0.6,2.1-1.7c0-1.2-0.7-2-3.4-2v-1.8
				c2.3,0,3-0.8,3-1.9c0-1-0.6-1.6-1.7-1.6c-0.9,0-1.6,0.4-2.4,1.1l-1.3-1.5c1.1-0.9,2.3-1.5,3.8-1.5c2.4,0,4.1,1.2,4.1,3.3
				c0,1.4-0.8,2.3-2.1,2.9v0.1c1.4,0.4,2.5,1.4,2.5,3.1c0,2.3-2,3.6-4.4,3.6C806.6,36.4,805.3,35.7,804.4,34.7z"/>
			<path class="st5" d="M815.1,34.8c0-0.9,0.7-1.6,1.5-1.6c0.9,0,1.6,0.7,1.6,1.6s-0.7,1.6-1.6,1.6
				C815.8,36.4,815.1,35.7,815.1,34.8z"/>
			<path class="st5" d="M820.2,33.1c0-1.6,1-2.6,2.1-3.3v-0.1c-1-0.7-1.7-1.6-1.7-3c0-2,1.6-3.3,3.8-3.3s3.6,1.3,3.6,3.3
				c0,1.2-0.8,2.3-1.6,2.9v0.1c1.1,0.6,2.1,1.6,2.1,3.3c0,1.9-1.7,3.3-4.2,3.3C822,36.4,820.2,35,820.2,33.1z M826.3,33
				c0-1.3-1.1-1.8-2.8-2.5c-0.7,0.5-1.1,1.4-1.1,2.3c0,1.1,0.9,1.9,2.1,1.9C825.5,34.6,826.3,34.1,826.3,33z M826.1,26.9
				c0-1-0.6-1.7-1.7-1.7c-0.8,0-1.5,0.6-1.5,1.6c0,1.2,1,1.8,2.3,2.3C825.8,28.4,826.1,27.7,826.1,26.9z"/>
			<path class="st5" d="M829.9,27.4c0-2.5,1.3-3.9,3-3.9c1.8,0,3.1,1.4,3.1,3.9s-1.3,4-3.1,4C831.2,31.4,829.9,29.9,829.9,27.4z
				 M834.3,27.4c0-1.8-0.6-2.5-1.3-2.5s-1.3,0.7-1.3,2.5s0.6,2.6,1.3,2.6S834.3,29.2,834.3,27.4z M840.2,23.4h1.5l-6.8,13h-1.5
				L840.2,23.4z M839,32.4c0-2.5,1.3-4,3-4c1.8,0,3.1,1.4,3.1,4c0,2.5-1.3,4-3.1,4C840.3,36.4,839,34.9,839,32.4z M843.3,32.4
				c0-1.8-0.6-2.6-1.3-2.6s-1.3,0.7-1.3,2.6c0,1.9,0.6,2.6,1.3,2.6C842.8,35,843.3,34.3,843.3,32.4z"/>
		</g>
		<g class="st11">
			<path class="st6" d="M703.6,44.6c0,0.7-0.1,1.6-0.1,2.6c0.2,2.3,1.3,8.6,7.2,11.3c-0.6,0.5-1.2,1.2-1.5,1.7
				c-3.8-1.8-5.6-5.1-6.6-8c-0.9,3-2.7,6-6.2,8.1c-0.4-0.5-1-1.2-1.7-1.6c6.9-3.7,6.5-11.2,6.6-14.1H703.6z"/>
			<path class="st6" d="M722.1,54.6c0.7,2.1,1.8,3.5,2.8,3.5c0.4,0,0.6-0.7,0.7-2.4c0.5,0.4,1.2,0.8,1.7,0.9c-0.3,2.8-1,3.4-2.5,3.4
				c-2.1,0-3.9-2.3-4.8-5.5h-4.4v3.2l4-0.8c0,0.6,0.1,1.5,0.2,1.9c-5,1.1-5.8,1.3-6.3,1.6c-0.1-0.5-0.6-1.4-0.9-1.8
				c0.4-0.2,0.9-0.7,0.9-1.5V45.3h12.3v5.5h-4.4c0.1,0.7,0.2,1.3,0.3,1.9h5.3v1.9C727,54.6,722.1,54.6,722.1,54.6z M715.5,47.2V49
				h8.1v-1.8H715.5z M719.5,52.7c-0.1-0.6-0.2-1.3-0.3-1.9h-3.7v1.9H719.5z"/>
			<path class="st6" d="M743.2,47.7c-0.4,1.1-0.9,2.1-1.6,2.9c0.8,0.6,1.7,1.1,2.7,1.5c-0.4,0.3-0.8,1-1.1,1.4c-1.1-0.4-2-1-2.8-1.7
				c-0.8,0.6-1.7,1.1-2.8,1.5c-0.2-0.4-0.6-1.1-0.9-1.5c1-0.3,1.8-0.7,2.6-1.3c-0.4-0.5-0.7-1.1-1-1.7c-0.2,0.3-0.5,0.5-0.7,0.7
				c-0.2-0.2-0.5-0.6-0.8-0.9V53h-1.4v-4.5h-1.7v4.8h-1.2v-4.8h-1.6v2.8c0.3-0.7,0.4-1.5,0.5-2.3l1,0.2c-0.1,1-0.4,2.1-0.7,2.9
				c-0.2-0.1-0.5-0.3-0.7-0.4v1.8h-1.4v-6.1h0.8c-0.2-0.5-0.5-1.2-0.9-1.7l1.4-0.6c0.4,0.6,0.9,1.3,1,1.8l-1.1,0.5h1.5v-2.6h1.7v2.6
				h1.4l-0.9-0.4c0.3-0.5,0.7-1.4,0.9-2l1.6,0.6c-0.5,0.7-0.9,1.3-1.3,1.8h1v0.7c0.9-0.8,1.6-2,2-3.3l1.7,0.4
				c-0.1,0.4-0.3,0.8-0.5,1.3h4.1V48h-0.8V47.7z M742.6,57.7c0,0.9-0.2,1.4-0.9,1.6c-0.7,0.3-1.6,0.3-2.8,0.3
				c-0.1-0.5-0.4-1.2-0.7-1.7c0.8,0,1.8,0,2,0c0.3,0,0.4-0.1,0.4-0.3v-1.9h-3.3v4.6h-2v-4.6h-3v3.8h-1.9V54h4.9v-0.9h2V54h5.3V57.7z
				 M734.6,48.8c0.3,0.9,0.6,2,0.6,2.8l-0.9,0.3c-0.1-0.8-0.3-1.9-0.6-2.8L734.6,48.8z M739.4,47.7c0.3,0.6,0.6,1.2,1,1.7
				c0.4-0.5,0.7-1.1,0.9-1.7H739.4z"/>
			<path class="st6" d="M747.4,48.6c0-0.9,0.7-1.6,1.6-1.6s1.6,0.7,1.6,1.6c0,0.9-0.7,1.6-1.6,1.6S747.4,49.5,747.4,48.6z
				 M747.4,56.7c0-0.9,0.7-1.6,1.6-1.6s1.6,0.7,1.6,1.6c0,0.9-0.7,1.6-1.6,1.6S747.4,57.6,747.4,56.7z"/>
			<path class="st6" d="M800.1,53.2h4.6V55h-4.6V53.2z"/>
			<path class="st6" d="M815,55.6h-1.5v3.2h-2.3v-3.2h-5.3V54l4.7-7.6h3v7.4h1.5v1.8H815z M811.2,53.8v-2.6c0-0.7,0.1-1.9,0.1-2.6
				h-0.1c-0.3,0.7-0.6,1.4-1,2l-1.9,3.1L811.2,53.8L811.2,53.8z"/>
			<path class="st6" d="M816.7,57.5c0-0.9,0.7-1.6,1.5-1.6c0.9,0,1.6,0.7,1.6,1.6s-0.7,1.6-1.6,1.6
				C817.3,59.1,816.7,58.4,816.7,57.5z"/>
			<path class="st6" d="M821.4,57.4l1.1-1.6c0.7,0.7,1.6,1.3,2.8,1.3c1.3,0,2.2-0.8,2.2-2.3s-0.8-2.3-2.1-2.3
				c-0.7,0-1.1,0.2-1.9,0.7l-1.1-0.7l0.3-6.1h6.7v2.1h-4.5l-0.2,2.7c0.5-0.2,0.9-0.4,1.5-0.4c2.1,0,3.9,1.3,3.9,4
				c0,2.8-2.1,4.4-4.4,4.4C823.7,59.1,822.3,58.3,821.4,57.4z"/>
			<path class="st6" d="M831.5,50.1c0-2.5,1.3-3.9,3-3.9c1.8,0,3.1,1.4,3.1,3.9s-1.3,4-3.1,4S831.5,52.6,831.5,50.1z M835.8,50.1
				c0-1.8-0.6-2.5-1.3-2.5s-1.3,0.7-1.3,2.5s0.6,2.6,1.3,2.6S835.8,51.9,835.8,50.1z M841.7,46.2h1.5l-6.8,13h-1.5L841.7,46.2z
				 M840.6,55.1c0-2.5,1.3-4,3-4s3.1,1.4,3.1,4c0,2.5-1.3,4-3.1,4S840.6,57.6,840.6,55.1z M844.9,55.1c0-1.8-0.6-2.6-1.3-2.6
				s-1.3,0.7-1.3,2.6s0.6,2.6,1.3,2.6S844.9,57,844.9,55.1z"/>
		</g>
		<g class="st11">
			<path class="st7" d="M710.2,97.9c-0.6,1.5-1.4,3-2.3,4.2c0.3,1.2,0.6,1.9,0.9,1.9c0.2,0,0.4-0.7,0.4-2.4c0.4,0.4,1,0.9,1.4,1.1
				c-0.3,2.6-0.8,3.3-2.1,3.3c-0.9,0-1.6-0.8-2.1-2.1c-0.6,0.6-1.3,1.1-1.9,1.6c-0.3-0.4-0.9-1.1-1.3-1.4c1-0.6,1.9-1.4,2.7-2.2
				c-0.3-1.4-0.5-3-0.6-4.8h-2.2V99l1.8-0.4l0.2,1.8c-0.6,0.2-1.3,0.3-2,0.5v3c0,1-0.2,1.5-0.8,1.8s-1.4,0.4-2.7,0.4
				c-0.1-0.5-0.3-1.3-0.6-1.8c0.8,0,1.5,0,1.8,0s0.3-0.1,0.3-0.3v-2.5c-0.8,0.2-1.5,0.4-2.1,0.5l-0.5-1.9c0.7-0.2,1.6-0.3,2.6-0.6
				v-2.3h-2.6v-1.7h2.6v-1.9c-0.7,0.2-1.4,0.3-2,0.4c-0.1-0.3-0.2-0.7-0.4-1c-0.2,0.5-0.4,0.9-0.6,1.4v11.9h-1.9v-8.4
				c-0.3,0.5-0.7,0.9-1,1.4c-0.2-0.5-0.7-1.6-1-2.2c1.4-1.6,2.6-4,3.3-6.5l1.9,0.6c-0.2,0.4-0.3,0.9-0.5,1.3c1.7-0.4,3.5-1,4.6-1.5
				l1.4,1.5c0-0.5,0-1.1,0-1.6h1.9c0,1.6,0,3.3,0,4.8h3v1.7h-2.9c0.1,0.9,0.1,1.8,0.2,2.6c0.4-0.6,0.7-1.4,0.9-2.1L710.2,97.9z
				 M705.2,95.1c0-1-0.1-2.1-0.1-3.1c-0.6,0.3-1.3,0.5-2,0.7v2.4H705.2z M708.8,94.4c-0.2-0.8-0.8-2.1-1.3-3.1l1.5-0.6
				c0.6,0.9,1.2,2.2,1.4,3L708.8,94.4z"/>
			<path class="st7" d="M714.2,102.4c-0.2,1.1-0.5,2.3-0.8,3c-0.4-0.1-1.1-0.3-1.5-0.4c0.4-0.7,0.7-1.8,0.8-2.9L714.2,102.4z
				 M727.3,105.3h-5.9v0.6h-1.8v-6.5l-0.2,0.2c-0.3-0.3-1.1-0.9-1.5-1.1c1.1-0.9,2-2.3,2.6-3.7h-4.8l0.9,0.4
				c-0.5,0.8-1.2,1.6-1.9,2.4l1.2-0.1c0.4-0.5,0.8-1,1.1-1.5l1.5,0.9c-0.9,1.2-2.1,2.4-3.3,3.4l1.9-0.2c-0.1-0.3-0.3-0.6-0.4-0.8
				l1.3-0.5c0.5,0.9,1,2,1.1,2.8l-1.4,0.6c0-0.2-0.1-0.5-0.2-0.8c-3.8,0.4-4.4,0.5-4.9,0.7c-0.1-0.3-0.4-0.9-0.6-1.3
				c0.4-0.1,0.8-0.4,1.4-0.8c0.2-0.2,0.6-0.6,1.1-1.1c-1.4,0.1-1.8,0.2-2.1,0.3c-0.1-0.3-0.4-0.9-0.6-1.3c0.3-0.1,0.6-0.3,1-0.6
				c0.3-0.3,1.2-1.4,1.8-2.5h-2v-4h13.7v4h-5.7l1.5,0.4c-0.2,0.5-0.4,1-0.7,1.5h1.6c-0.2-0.4-0.4-0.9-0.6-1.3l1.5-0.5
				c0.3,0.5,0.6,1.2,0.8,1.7h2.1v1.6h-2.2v0.9h1.8v1.4h-1.8v0.9h1.8v1.4h-1.8v0.9h2.4v1.6H727.3z M716,102.2c0.3,0.9,0.5,2,0.5,2.8
				l-1.5,0.3c0-0.7-0.2-1.9-0.4-2.8L716,102.2z M716.6,92h-2v1.1h2V92z M718,101.9c0.4,0.8,0.9,1.8,1,2.5l-1.5,0.4
				c-0.2-0.7-0.6-1.8-1-2.6L718,101.9z M718.4,93.2h2V92h-2V93.2z M723.1,98.1h-1.7V99h1.7V98.1z M723.1,100.4h-1.7v0.9h1.7V100.4z
				 M721.3,103.7h1.7v-0.9h-1.7V103.7z M722.3,93.2h2.1V92h-2.1V93.2z"/>
			<path class="st7" d="M737,101.8h-8.5V100h1.5v-6.3h-1.3V92h1.3v-1.8h1.8V92h2.3v-1.8h1.8V92h1v1.8h-1v6.3h1.1L737,101.8
				L737,101.8z M732.5,102.5c-0.6,1.2-1.5,2.5-2.4,3.3c-0.4-0.3-1.1-0.9-1.6-1.2c0.8-0.6,1.7-1.7,2.1-2.6L732.5,102.5z M731.8,93.8
				v1h2.3v-1H731.8z M731.8,97.4h2.3v-1h-2.3V97.4z M731.8,100h2.3v-1.1h-2.3V100z M744.3,97.4h-1.5v8.4h-1.9v-8.4h-1.6V98
				c0,3.1-0.4,5.9-2.5,8.2c-0.3-0.4-0.9-1-1.4-1.3c0.2-0.2,0.4-0.5,0.6-0.7l-1.6,0.8c-0.3-0.6-0.9-1.6-1.4-2.3l1.6-0.7
				c0.5,0.7,1.2,1.5,1.5,2.1c1.2-1.8,1.4-4,1.4-6.1v-6.1c1.9-0.5,3.9-1.2,5.1-1.9l1.6,1.4c-1.4,0.7-3.2,1.3-4.9,1.7v2.5h4.9v1.8
				H744.3z"/>
			<path class="st7" d="M761,104.2v1.4h-13.3v-1.3c-0.2,0.5-0.4,1-0.7,1.4c-0.4-0.3-1.2-0.8-1.7-1c1.4-2.2,1.5-5.4,1.5-7.7v-4.2h4.8
				V90h2v0.8h6.1v1.3h-6.1v0.6h5.4l0.3-0.1l1.5,0.4c-0.3,0.9-0.7,1.9-1,2.6l-1.7-0.6c0.1-0.3,0.2-0.6,0.3-1h-4.5v0.5l3.8-0.1v1
				l-3.8,0.2c0,0.3,0.2,0.4,0.7,0.4h2.9c0.6,0,1.7,0,2-0.2c0.1,0.5,0.1,0.8,0.2,1.2c-0.4,0.1-1.3,0.1-2,0.1h-3.6
				c-1.4,0-1.9-0.5-2-1.3l-2.9,0.2l-0.1-1.3l2.9-0.1V94h-3.4v3c0,2.1-0.2,4.9-1,7.2h1.3V102h10.7v2.2H761z M749.7,97.6h9.5v3.9h-9.5
				V97.6z M750.9,104.2h1.2v-1.1h-1.2V104.2z M751.5,99.1h2v-0.6h-2V99.1z M751.5,100.5h2V100h-2V100.5z M753.8,103.1v1.1h1.2v-1.1
				H753.8z M757.3,98.5h-2v0.6h2V98.5z M757.3,100h-2v0.5h2V100z M756.7,103.1v1.1h1.2v-1.1H756.7z"/>
			<path class="st7" d="M768.7,94.4c-0.4,0.9-0.8,1.7-1.4,2.5h2.7V95h2v1.9h4.8v5.2c0,0.9-0.2,1.4-0.9,1.7c-0.6,0.3-1.6,0.3-2.8,0.3
				c-0.1-0.6-0.4-1.3-0.6-1.8c0.8,0,1.7,0,1.9,0c0.3,0,0.4-0.1,0.4-0.3v-3.3H772v7h-2v-7h-2.7v5.5h-2v-4.9c-0.7,0.7-1.4,1.3-2.1,1.9
				c-0.3-0.5-0.8-1.3-1.1-1.8c1.9-1.2,3.3-3.1,4.4-5.2h-3.8v-1.9h4.6c0.3-0.8,0.6-1.6,0.8-2.4l2.1,0.5c-0.2,0.7-0.4,1.3-0.7,2h8.2
				v1.9h-9V94.4z"/>
			<path class="st7" d="M781.2,94c0-0.9,0.7-1.6,1.6-1.6s1.6,0.7,1.6,1.6s-0.7,1.6-1.6,1.6S781.2,94.9,781.2,94z M781.2,102.1
				c0-0.9,0.7-1.6,1.6-1.6s1.6,0.7,1.6,1.6s-0.7,1.6-1.6,1.6S781.2,103,781.2,102.1z"/>
			<path class="st7" d="M791.7,98.6h4.6v1.8h-4.6V98.6z"/>
			<path class="st7" d="M798.5,102.3h2.7v-7.9h-2.3v-1.5c1.2-0.2,2.1-0.6,2.9-1h1.8v10.5h2.3v2h-7.5L798.5,102.3L798.5,102.3z"/>
			<path class="st7" d="M816.6,101.1h-1.5v3.2h-2.3v-3.2h-5.3v-1.7l4.7-7.6h3v7.4h1.5v1.9H816.6z M812.8,99.2v-2.6
				c0-0.7,0.1-1.9,0.1-2.6h-0.1c-0.3,0.7-0.6,1.4-1,2l-1.9,3.1L812.8,99.2L812.8,99.2z"/>
			<path class="st7" d="M818.2,102.9c0-0.9,0.7-1.6,1.5-1.6c0.9,0,1.6,0.7,1.6,1.6s-0.7,1.6-1.6,1.6
				C818.9,104.6,818.2,103.9,818.2,102.9z"/>
			<path class="st7" d="M830.3,94.5c-0.4-0.5-1.2-0.9-1.9-0.9c-1.4,0-2.6,1.1-2.7,4.2c0.7-0.8,1.8-1.3,2.6-1.3
				c2.1,0,3.6,1.3,3.6,3.9s-1.8,4.2-3.9,4.2c-2.4,0-4.5-1.9-4.5-6.3c0-4.7,2.3-6.7,4.8-6.7c1.5,0,2.6,0.6,3.4,1.4L830.3,94.5z
				 M829.5,100.4c0-1.5-0.7-2.2-1.8-2.2c-0.7,0-1.4,0.4-2,1.3c0.2,2.3,1.1,3.2,2.1,3.2C828.7,102.7,829.5,101.9,829.5,100.4z"/>
			<path class="st7" d="M833,95.5c0-2.5,1.3-3.9,3-3.9c1.8,0,3.1,1.4,3.1,3.9s-1.3,4-3.1,4C834.3,99.5,833,98.1,833,95.5z
				 M837.4,95.5c0-1.8-0.6-2.5-1.3-2.5s-1.3,0.7-1.3,2.5s0.6,2.6,1.3,2.6S837.4,97.4,837.4,95.5z M843.3,91.6h1.5l-6.8,13h-1.5
				L843.3,91.6z M842.1,100.6c0-2.5,1.3-4,3-4s3.1,1.4,3.1,4c0,2.5-1.3,4-3.1,4S842.1,103.1,842.1,100.6z M846.5,100.6
				c0-1.8-0.6-2.6-1.3-2.6s-1.3,0.7-1.3,2.6s0.6,2.6,1.3,2.6S846.5,102.4,846.5,100.6z"/>
		</g>
		<g class="st11">
			<path class="st4" d="M700,76.2c-0.5,0.2-1.1,0.3-1.6,0.5V81c0,0.9-0.2,1.4-0.7,1.8c-0.5,0.3-1.2,0.4-2.3,0.4
				c-0.1-0.5-0.3-1.3-0.5-1.9c0.6,0,1.2,0,1.4,0s0.3-0.1,0.3-0.3v-3.7c-0.6,0.2-1.1,0.3-1.6,0.5l-0.4-1.9c0.6-0.1,1.3-0.3,2-0.5
				v-2.9h-1.8v-1.8h1.8v-3.2h1.8v3.2h1.5v1.8h-1.5v2.4l1.4-0.4L700,76.2z M705.9,81.1c0.5,0.1,0.9,0.1,1.4,0.1s2.5,0,3.2,0
				c-0.3,0.4-0.5,1.2-0.6,1.7h-2.8c-2.3,0-4.2-0.4-5.4-2c-0.4,0.9-0.9,1.7-1.5,2.2c-0.3-0.3-1.1-0.8-1.5-1.1
				c1.2-1.1,1.8-2.8,2.1-4.8l1.8,0.2c-0.1,0.5-0.2,1.1-0.3,1.6c0.4,0.8,1,1.3,1.7,1.6V77h-3.2v-1.5h3.2v-0.9h-4.1V73h4.1v-0.8h-3.2
				v-1.5h3.2V70h-3.9v-1.6h3.9v-1.3h1.9v1.3h4.2V70h-4.2v0.7h3.6V73h1v1.6h-1V77h-3.6v1h3.7v1.6h-3.7L705.9,81.1L705.9,81.1z
				 M705.9,73.1h1.7v-0.8h-1.7V73.1z M705.9,75.5h1.7v-0.9h-1.7V75.5z"/>
			<path class="st4" d="M724.7,81c0.6,0,0.7-0.3,0.7-2.3c0.4,0.3,1.3,0.6,1.9,0.8c-0.2,2.7-0.7,3.4-2.4,3.4h-2.2
				c-2,0-2.5-0.6-2.5-2.5v-3.1h-1.9c-0.4,2.8-1.3,4.8-5.7,5.8c-0.2-0.6-0.7-1.4-1.2-1.9c3.8-0.7,4.4-2,4.7-4h-2.3v-5.4h4.5v-1.4
				h-6.2v-1.8h6.2v-1.4h2v1.4h6.4v1.8h-6.4v1.4h4.7v5.4h-2.8v3.1c0,0.6,0.1,0.6,0.7,0.6L724.7,81L724.7,81z M715.9,75.5h7.2v-1.8
				h-7.2V75.5z"/>
			<path class="st4" d="M741.6,81c0.6,0,0.7-0.3,0.7-2.3c0.4,0.3,1.3,0.6,1.9,0.8c-0.2,2.7-0.7,3.4-2.4,3.4h-2.2
				c-2,0-2.5-0.6-2.5-2.5v-3.1h-1.9c-0.4,2.8-1.3,4.8-5.7,5.8c-0.2-0.6-0.7-1.4-1.2-1.9c3.8-0.7,4.4-2,4.7-4h-2.3v-5.4h4.5v-1.4H729
				v-1.8h6.2v-1.4h2v1.4h6.4v1.8h-6.4v1.4h4.7v5.4h-2.8v3.1c0,0.6,0.1,0.6,0.7,0.6L741.6,81L741.6,81z M732.8,75.5h7.2v-1.8h-7.2
				V75.5z"/>
			<path class="st4" d="M760.5,80.6c0,1-0.2,1.6-0.8,1.9s-1.5,0.4-2.7,0.4c-0.1-0.6-0.3-1.5-0.6-2c0.7,0,1.6,0,1.8,0
				c0.3,0,0.3-0.1,0.3-0.4v-2.9h-2.7c-0.3,1.9-0.7,3.9-1.8,5.3c-0.4-0.3-1.2-0.9-1.7-1.1c0.2-0.3,0.4-0.6,0.6-1l-1.6,0.7
				c-0.1-0.3-0.2-0.7-0.4-1.1c-3.6,1.6-4.2,1.9-4.7,2.3c-0.2-0.4-0.7-1.2-1-1.5c0.4-0.3,0.8-0.9,0.8-1.8V69.1h2.7
				c-0.2-0.4-0.4-0.9-0.6-1.3l2-0.4c0.3,0.5,0.6,1.2,0.8,1.7h2.1v7.4h-5.1v3.3l2.1-0.9c-0.3-0.5-0.5-1.1-0.8-1.6l1.7-0.7
				c0.7,1.2,1.6,2.8,2,3.9c0.9-2.1,1-4.7,1-6.7V68h6.4v12.6H760.5z M748.1,70.9v1h3.1v-1H748.1z M751.2,74.7v-1.1h-3.1v1.1H751.2z
				 M758.5,75.9v-2.2H756v0.2c0,0.6,0,1.3-0.1,2.1L758.5,75.9L758.5,75.9z M756.1,69.9v2h2.5v-2H756.1z"/>
			<path class="st4" d="M764.3,71.3c0-0.9,0.7-1.6,1.6-1.6c0.9,0,1.6,0.7,1.6,1.6s-0.7,1.6-1.6,1.6S764.3,72.2,764.3,71.3z
				 M764.3,79.4c0-0.9,0.7-1.6,1.6-1.6c0.9,0,1.6,0.7,1.6,1.6s-0.7,1.6-1.6,1.6S764.3,80.3,764.3,79.4z"/>
			<path class="st4" d="M801.7,75.9h4.6v1.8h-4.6V75.9z"/>
			<path class="st4" d="M807.5,80.1l1.2-1.6c0.7,0.7,1.7,1.3,2.8,1.3c1.3,0,2.1-0.6,2.1-1.7c0-1.2-0.7-2-3.4-2v-1.8
				c2.3,0,3-0.8,3-1.9c0-1-0.6-1.6-1.7-1.6c-0.9,0-1.6,0.4-2.4,1.1l-1.3-1.5c1.1-0.9,2.3-1.5,3.8-1.5c2.4,0,4.1,1.2,4.1,3.3
				c0,1.4-0.8,2.3-2.1,2.9v0.1c1.4,0.4,2.5,1.4,2.5,3.1c0,2.3-2,3.6-4.4,3.6C809.7,81.8,808.4,81.1,807.5,80.1z"/>
			<path class="st4" d="M818.2,80.2c0-0.9,0.7-1.6,1.5-1.6c0.9,0,1.6,0.7,1.6,1.6s-0.7,1.6-1.6,1.6
				C818.9,81.8,818.2,81.1,818.2,80.2z"/>
			<path class="st4" d="M823,80.1l1.2-1.6c0.7,0.7,1.7,1.3,2.8,1.3c1.3,0,2.1-0.6,2.1-1.7c0-1.2-0.7-2-3.4-2v-1.8c2.3,0,3-0.8,3-1.9
				c0-1-0.6-1.6-1.7-1.6c-0.9,0-1.6,0.4-2.4,1.1l-1.3-1.5c1.1-0.9,2.3-1.5,3.7-1.5c2.4,0,4.1,1.2,4.1,3.3c0,1.4-0.8,2.3-2.1,2.9v0.1
				c1.4,0.4,2.5,1.4,2.5,3.1c0,2.3-2,3.6-4.4,3.6C825.2,81.8,823.8,81.1,823,80.1z"/>
			<path class="st4" d="M833,72.8c0-2.5,1.3-3.9,3-3.9c1.8,0,3.1,1.4,3.1,3.9s-1.3,4-3.1,4C834.3,76.8,833,75.3,833,72.8z
				 M837.4,72.8c0-1.8-0.6-2.5-1.3-2.5s-1.3,0.7-1.3,2.5s0.6,2.6,1.3,2.6C836.8,75.4,837.4,74.7,837.4,72.8z M843.3,68.9h1.5
				l-6.8,13h-1.5L843.3,68.9z M842.1,77.9c0-2.5,1.3-4,3-4c1.8,0,3.1,1.4,3.1,4c0,2.5-1.3,4-3.1,4C843.4,81.8,842.1,80.4,842.1,77.9
				z M846.4,77.9c0-1.8-0.6-2.6-1.3-2.6s-1.3,0.7-1.3,2.6s0.6,2.6,1.3,2.6C845.9,80.4,846.4,79.7,846.4,77.9z"/>
		</g>
	</g>
	<g>
		<g>
			<rect x="22.3" y="203.3" class="st5" width="10" height="10"/>
			<g class="st11">
				<path class="st5" d="M40.3,202.1h2.5v5.4h0.1l4.1-5.4h2.8L46,207l4.5,7.6h-2.8l-3.2-5.6l-1.6,2.1v3.5h-2.5L40.3,202.1
					L40.3,202.1z"/>
				<path class="st5" d="M58.3,214.6l-2.6-4.7H54v4.7h-2.5v-12.5h4.4c2.6,0,4.7,0.9,4.7,3.8c0,1.9-0.9,3-2.4,3.6l2.9,5.1L58.3,214.6
					L58.3,214.6z M54,207.9h1.6c1.6,0,2.5-0.7,2.5-2c0-1.4-0.9-1.8-2.5-1.8H54V207.9z"/>
				<path class="st5" d="M61.4,202.1H64l1,6.1c0.2,1.3,0.4,2.7,0.6,4h0.1c0.3-1.3,0.5-2.7,0.8-4l1.5-6.1h2l1.5,6.1
					c0.3,1.3,0.5,2.6,0.8,4h0.1c0.2-1.4,0.4-2.7,0.6-4l1-6.1h2.4l-2.3,12.5H71l-1.4-6.2c-0.2-1-0.4-1.9-0.5-2.9H69
					c-0.2,0.9-0.3,1.9-0.5,2.9l-1.4,6.2H64L61.4,202.1z"/>
				<path class="st5" d="M77.6,209v-6.9h2.5v7.1c0,2.6,0.9,3.5,2.4,3.5s2.4-0.9,2.4-3.5v-7.1h2.4v6.9c0,4.2-1.8,5.9-4.8,5.9
					C79.4,214.8,77.6,213.1,77.6,209z"/>
				<path class="st5" d="M88.9,213l1.4-1.7c0.9,0.8,2.1,1.4,3.2,1.4c1.3,0,2-0.6,2-1.4c0-0.9-0.8-1.2-1.9-1.7l-1.7-0.7
					c-1.3-0.5-2.5-1.5-2.5-3.4c0-2,1.8-3.6,4.3-3.6c1.5,0,2.9,0.6,3.9,1.6l-1.3,1.6c-0.8-0.7-1.6-1-2.7-1s-1.8,0.5-1.8,1.3
					c0,0.9,0.9,1.2,2,1.6l1.6,0.7c1.5,0.6,2.5,1.6,2.5,3.4c0,2-1.7,3.8-4.6,3.8C91.8,214.8,90.1,214.2,88.9,213z"/>
				<path class="st5" d="M99.9,202.1h3.4c3.8,0,6.2,2,6.2,6.2s-2.4,6.3-6,6.3h-3.6V202.1z M103.1,212.6c2.3,0,3.8-1.3,3.8-4.3
					c0-3.1-1.5-4.2-3.8-4.2h-0.8v8.5H103.1z"/>
				<path class="st5" d="M114.3,208.4c0-4.1,2.7-6.5,5.8-6.5c1.6,0,2.9,0.8,3.7,1.6l-1.3,1.6c-0.6-0.6-1.4-1-2.3-1
					c-1.9,0-3.3,1.6-3.3,4.3s1.3,4.4,3.3,4.4c1.1,0,1.9-0.5,2.6-1.2l1.3,1.6c-1,1.2-2.4,1.8-4,1.8
					C116.9,214.8,114.3,212.6,114.3,208.4z"/>
				<path class="st5" d="M125.1,211.1v-5.9h2.5v5.6c0,1.5,0.4,2,1.3,2c0.8,0,1.3-0.3,1.9-1.2v-6.4h2.5v9.5h-2l-0.2-1.4H131
					c-0.8,1-1.7,1.6-3,1.6C126,214.8,125.1,213.4,125.1,211.1z"/>
				<path class="st5" d="M135.6,205.1h2l0.2,1.7h0.1c0.7-1.2,1.7-1.9,2.7-1.9c0.5,0,0.8,0.1,1.1,0.2l-0.4,2.1
					c-0.3-0.1-0.6-0.2-1-0.2c-0.7,0-1.6,0.5-2.2,1.9v5.6h-2.5L135.6,205.1L135.6,205.1z"/>
				<path class="st5" d="M142.5,205.1h2l0.2,1.3h0.1c0.8-0.8,1.8-1.5,3.1-1.5c2,0,2.9,1.4,2.9,3.8v5.9h-2.5V209c0-1.5-0.4-2-1.3-2
					c-0.8,0-1.3,0.4-2,1.1v6.5h-2.5V205.1z"/>
				<path class="st5" d="M152.4,209.9c0-3.2,2.3-5,4.8-5c1.2,0,2.1,0.5,2.8,1l-1.2,1.6c-0.5-0.4-0.9-0.6-1.5-0.6
					c-1.4,0-2.4,1.2-2.4,3s1,2.9,2.3,2.9c0.7,0,1.3-0.3,1.8-0.8l1,1.6c-0.9,0.8-2,1.1-3.1,1.1C154.4,214.8,152.4,213,152.4,209.9z"
					/>
				<path class="st5" d="M161,218.2l0.5-1.9c0.2,0.1,0.4,0.1,0.7,0.1c1,0,1.5-0.6,1.8-1.4l0.2-0.6l-3.7-9.3h2.5l1.5,4.4
					c0.3,0.8,0.5,1.8,0.8,2.7h0.1c0.2-0.9,0.5-1.8,0.7-2.7l1.3-4.4h2.4l-3.4,9.7c-0.8,2.2-1.8,3.5-4,3.5
					C161.8,218.4,161.4,218.3,161,218.2z"/>
				<path class="st5" d="M179.3,211.9c0.5,0.5,1.2,0.9,2,0.9c1.4,0,2.6-1.1,2.7-4.2c-0.6,0.8-1.7,1.4-2.6,1.4
					c-2.1,0-3.6-1.3-3.6-3.9c0-2.6,1.8-4.2,3.9-4.2c2.4,0,4.5,1.9,4.5,6.2c0,4.7-2.3,6.8-4.8,6.8c-1.6,0-2.7-0.7-3.4-1.4
					L179.3,211.9z M183.9,206.9c-0.2-2.3-1.1-3.1-2.1-3.1c-0.9,0-1.7,0.8-1.7,2.3s0.7,2.2,1.8,2.2
					C182.5,208.2,183.3,207.8,183.9,206.9z"/>
				<path class="st5" d="M194.8,204.8c-0.4-0.5-1.2-0.9-1.9-0.9c-1.4,0-2.6,1.1-2.7,4.2c0.7-0.8,1.8-1.3,2.6-1.3
					c2.1,0,3.6,1.3,3.6,3.9c0,2.6-1.8,4.2-3.9,4.2c-2.4,0-4.5-1.9-4.5-6.3c0-4.7,2.3-6.7,4.8-6.7c1.5,0,2.6,0.6,3.4,1.4L194.8,204.8
					z M194.1,210.7c0-1.5-0.7-2.2-1.8-2.2c-0.7,0-1.4,0.4-2,1.3c0.2,2.3,1.1,3.2,2.1,3.2C193.3,213,194.1,212.2,194.1,210.7z"/>
				<path class="st5" d="M198.2,213.2c0-0.9,0.7-1.6,1.5-1.6c0.9,0,1.6,0.7,1.6,1.6s-0.7,1.6-1.6,1.6
					C198.9,214.8,198.2,214.1,198.2,213.2z"/>
				<path class="st5" d="M203.9,212.6h2.7v-7.9h-2.3v-1.5c1.2-0.2,2.1-0.6,2.9-1h1.8v10.5h2.3v2h-7.5v-2.1H203.9z"/>
				<path class="st5" d="M218.9,204.2h-5.6v-2.1h8.3v1.5c-2.9,3.5-3.3,6.1-3.5,11h-2.5C215.8,210.3,216.6,207.5,218.9,204.2z"/>
				<path class="st5" d="M231.9,211.4h-1.5v3.2h-2.3v-3.2h-5.3v-1.7l4.7-7.6h3v7.4h1.5L231.9,211.4L231.9,211.4z M228.1,209.5v-2.6
					c0-0.7,0.1-1.9,0.1-2.6h-0.1c-0.3,0.7-0.6,1.4-1,2l-1.9,3.1h2.9V209.5z"/>
				<path class="st5" d="M233.2,211.5c0-1.6,1-2.6,2.1-3.3v-0.1c-1-0.7-1.7-1.6-1.7-3c0-2,1.6-3.3,3.8-3.3s3.6,1.3,3.6,3.3
					c0,1.2-0.8,2.3-1.6,2.9v0.1c1.1,0.6,2.1,1.6,2.1,3.3c0,1.9-1.7,3.3-4.2,3.3C235,214.8,233.2,213.5,233.2,211.5z M239.2,211.4
					c0-1.3-1.1-1.8-2.8-2.5c-0.7,0.5-1.1,1.4-1.1,2.3c0,1.1,0.9,1.9,2.1,1.9C238.5,213.1,239.2,212.5,239.2,211.4z M239,205.4
					c0-1-0.6-1.7-1.7-1.7c-0.8,0-1.5,0.6-1.5,1.6c0,1.2,1,1.8,2.3,2.3C238.7,206.8,239,206.1,239,205.4z"/>
				<path class="st5" d="M251.8,211.4h-1.5v3.2H248v-3.2h-5.3v-1.7l4.7-7.6h3v7.4h1.5L251.8,211.4L251.8,211.4z M248,209.5v-2.6
					c0-0.7,0.1-1.9,0.1-2.6H248c-0.3,0.7-0.6,1.4-1,2l-1.9,3.1h2.9V209.5z"/>
				<path class="st5" d="M252.7,213.1l1.2-1.6c0.7,0.7,1.7,1.3,2.8,1.3c1.3,0,2.1-0.6,2.1-1.7c0-1.2-0.7-2-3.4-2v-1.8
					c2.3,0,3-0.8,3-1.9c0-1-0.6-1.6-1.7-1.6c-0.9,0-1.6,0.4-2.4,1.1l-1.3-1.5c1.1-0.9,2.3-1.5,3.7-1.5c2.4,0,4.1,1.2,4.1,3.3
					c0,1.4-0.8,2.3-2.1,2.9v0.1c1.4,0.4,2.5,1.4,2.5,3.1c0,2.3-2,3.6-4.4,3.6C254.9,214.8,253.6,214.1,252.7,213.1z"/>
			</g>
		</g>
		<g>
			<rect x="22.3" y="227.6" class="st6" width="10" height="10"/>
			<g class="st11">
				<path class="st6" d="M39.7,232.7c0-4.1,2.7-6.5,5.8-6.5c1.6,0,2.9,0.8,3.7,1.6l-1.3,1.6c-0.6-0.6-1.4-1-2.3-1
					c-1.9,0-3.3,1.6-3.3,4.3s1.3,4.4,3.3,4.4c1.1,0,1.9-0.5,2.6-1.2l1.3,1.6c-1,1.2-2.4,1.8-4,1.8C42.2,239.2,39.7,236.9,39.7,232.7
					z"/>
				<path class="st6" d="M51.4,226.4H54l3.6,6.7l1.3,2.7H59c-0.1-1.3-0.3-3-0.3-4.4v-5h2.4v12.5h-2.5l-3.6-6.7l-1.3-2.7h-0.1
					c0.1,1.4,0.3,2.9,0.3,4.4v5h-2.4L51.4,226.4L51.4,226.4z"/>
				<path class="st6" d="M66.1,234.4l-3.8-7.9H65l1.3,3c0.4,0.9,0.7,1.8,1.1,2.8h0.1c0.4-1,0.8-1.8,1.1-2.8l1.3-3h2.6l-3.8,7.9v4.6
					h-2.5L66.1,234.4L66.1,234.4z"/>
				<path class="st6" d="M73.6,233.3v-6.9h2.5v7.1c0,2.6,0.9,3.5,2.4,3.5s2.4-0.9,2.4-3.5v-7.1h2.4v6.9c0,4.2-1.8,5.9-4.8,5.9
					C75.4,239.2,73.6,237.5,73.6,233.3z"/>
				<path class="st6" d="M85.3,237.3l1.4-1.7c0.9,0.8,2.1,1.4,3.2,1.4c1.3,0,2-0.6,2-1.4c0-0.9-0.8-1.2-1.9-1.7l-1.7-0.7
					c-1.3-0.5-2.5-1.5-2.5-3.4c0-2,1.8-3.6,4.3-3.6c1.5,0,2.9,0.6,3.9,1.6l-1.3,1.6c-0.8-0.7-1.6-1-2.7-1s-1.8,0.5-1.8,1.3
					c0,0.9,0.9,1.2,2,1.6l1.6,0.7c1.5,0.6,2.5,1.6,2.5,3.4c0,2-1.7,3.8-4.6,3.8C88.1,239.2,86.5,238.5,85.3,237.3z"/>
				<path class="st6" d="M96.6,226.4h3.4c3.8,0,6.2,2,6.2,6.2s-2.4,6.3-6,6.3h-3.6V226.4z M99.9,236.9c2.3,0,3.8-1.3,3.8-4.3
					c0-3.1-1.5-4.2-3.8-4.2h-0.8v8.5H99.9z"/>
				<path class="st6" d="M111.9,232.7c0-4.1,2.7-6.5,5.8-6.5c1.6,0,2.9,0.8,3.7,1.6l-1.3,1.6c-0.6-0.6-1.4-1-2.3-1
					c-1.9,0-3.3,1.6-3.3,4.3s1.3,4.4,3.3,4.4c1.1,0,1.9-0.5,2.6-1.2l1.3,1.6c-1,1.2-2.4,1.8-4,1.8
					C114.5,239.2,111.9,236.9,111.9,232.7z"/>
				<path class="st6" d="M123.1,235.4v-5.9h2.5v5.6c0,1.5,0.4,2,1.3,2c0.8,0,1.3-0.3,1.9-1.2v-6.4h2.5v9.5h-2l-0.2-1.4H129
					c-0.8,1-1.7,1.6-3,1.6C124,239.2,123.1,237.8,123.1,235.4z"/>
				<path class="st6" d="M134,229.5h2l0.2,1.7h0.1c0.7-1.2,1.7-1.9,2.7-1.9c0.5,0,0.8,0.1,1.1,0.2l-0.4,2.1c-0.3-0.1-0.6-0.2-1-0.2
					c-0.7,0-1.6,0.5-2.2,1.9v5.6H134V229.5z"/>
				<path class="st6" d="M141.3,229.5h2l0.2,1.3h0.1c0.8-0.8,1.8-1.5,3.1-1.5c2,0,2.9,1.4,2.9,3.8v5.9h-2.5v-5.6c0-1.5-0.4-2-1.3-2
					c-0.8,0-1.3,0.4-2,1.1v6.5h-2.5V229.5z"/>
				<path class="st6" d="M151.6,234.2c0-3.2,2.3-5,4.8-5c1.2,0,2.1,0.5,2.8,1l-1.2,1.6c-0.5-0.4-0.9-0.6-1.5-0.6
					c-1.4,0-2.4,1.2-2.4,3s1,2.9,2.3,2.9c0.7,0,1.3-0.3,1.8-0.8l1,1.6c-0.9,0.8-2,1.1-3.1,1.1C153.6,239.2,151.6,237.3,151.6,234.2z
					"/>
				<path class="st6" d="M160.6,242.5l0.5-1.9c0.2,0.1,0.4,0.1,0.7,0.1c1,0,1.5-0.6,1.8-1.4l0.2-0.6l-3.7-9.3h2.5l1.5,4.4
					c0.3,0.8,0.5,1.8,0.8,2.7h0.1c0.2-0.9,0.5-1.8,0.7-2.7l1.3-4.4h2.4l-3.4,9.7c-0.8,2.2-1.8,3.5-4,3.5
					C161.4,242.7,161,242.7,160.6,242.5z"/>
				<path class="st6" d="M179.3,236.3c0.5,0.5,1.2,0.9,2,0.9c1.4,0,2.6-1.1,2.7-4.2c-0.6,0.8-1.7,1.4-2.6,1.4
					c-2.1,0-3.6-1.3-3.6-3.9c0-2.6,1.8-4.2,3.9-4.2c2.4,0,4.5,1.9,4.5,6.2c0,4.7-2.3,6.8-4.8,6.8c-1.6,0-2.7-0.7-3.4-1.4
					L179.3,236.3z M183.9,231.2c-0.2-2.3-1.1-3.1-2.1-3.1c-0.9,0-1.7,0.8-1.7,2.3s0.7,2.2,1.8,2.2
					C182.6,232.5,183.3,232.2,183.9,231.2z"/>
				<path class="st6" d="M187.5,237.5l1.1-1.6c0.7,0.7,1.6,1.3,2.8,1.3c1.3,0,2.2-0.8,2.2-2.3s-0.8-2.3-2.1-2.3
					c-0.7,0-1.1,0.2-1.9,0.7l-1.1-0.7l0.3-6.1h6.7v2.1H191l-0.2,2.7c0.5-0.2,0.9-0.4,1.5-0.4c2.1,0,3.9,1.3,3.9,4
					c0,2.8-2.1,4.4-4.4,4.4C189.8,239.2,188.5,238.4,187.5,237.5z"/>
				<path class="st6" d="M198.3,237.5c0-0.9,0.7-1.6,1.5-1.6c0.9,0,1.6,0.7,1.6,1.6s-0.7,1.6-1.6,1.6
					C198.9,239.2,198.3,238.5,198.3,237.5z"/>
				<path class="st6" d="M212,235.7h-1.5v3.2h-2.3v-3.2h-5.3V234l4.7-7.6h3v7.4h1.5L212,235.7L212,235.7z M208.2,233.8v-2.6
					c0-0.7,0.1-1.9,0.1-2.6h-0.1c-0.3,0.7-0.6,1.4-1,2l-1.9,3.1h2.9V233.8z"/>
				<path class="st6" d="M219,228.5h-5.6v-2.1h8.3v1.5c-2.9,3.5-3.3,6.1-3.5,11h-2.5C215.9,234.6,216.6,231.8,219,228.5z"/>
				<path class="st6" d="M223.8,236.9h2.7V229h-2.3v-1.5c1.2-0.2,2.1-0.6,2.9-1h1.8V237h2.3v2h-7.5v-2.1H223.8z"/>
				<path class="st6" d="M241.9,235.7h-1.5v3.2h-2.3v-3.2h-5.3V234l4.7-7.6h3v7.4h1.5L241.9,235.7L241.9,235.7z M238.1,233.8v-2.6
					c0-0.7,0.1-1.9,0.1-2.6h-0.1c-0.3,0.7-0.6,1.4-1,2l-1.9,3.1h2.9V233.8z"/>
				<path class="st6" d="M243.1,232.6c0-4.3,1.7-6.4,4.2-6.4s4.2,2.1,4.2,6.4c0,4.3-1.7,6.5-4.2,6.5
					C244.8,239.2,243.1,236.9,243.1,232.6z M249.2,232.6c0-3.5-0.8-4.5-1.9-4.5c-1.1,0-1.9,1-1.9,4.5s0.8,4.6,1.9,4.6
					C248.4,237.2,249.2,236.1,249.2,232.6z"/>
				<path class="st6" d="M252.7,237.5l1.1-1.6c0.7,0.7,1.6,1.3,2.8,1.3c1.3,0,2.2-0.8,2.2-2.3s-0.8-2.3-2.1-2.3
					c-0.7,0-1.1,0.2-1.9,0.7l-1.1-0.7l0.3-6.1h6.7v2.1h-4.5l-0.2,2.7c0.5-0.2,0.9-0.4,1.5-0.4c2.1,0,3.9,1.3,3.9,4
					c0,2.8-2.1,4.4-4.4,4.4C255,239.2,253.7,238.4,252.7,237.5z"/>
			</g>
		</g>
		<g>
			<g>
				<rect x="22.3" y="252" class="st4" width="10" height="10"/>
				<g class="st11">
					<path class="st4" d="M39.7,257.1c0-4.1,2.7-6.5,5.8-6.5c1.6,0,2.9,0.8,3.7,1.6l-1.3,1.6c-0.6-0.6-1.4-1-2.3-1
						c-1.9,0-3.3,1.6-3.3,4.3c0,2.7,1.3,4.4,3.3,4.4c1.1,0,1.9-0.5,2.6-1.2l1.3,1.6c-1,1.2-2.4,1.8-4,1.8
						C42.2,263.5,39.7,261.2,39.7,257.1z"/>
					<path class="st4" d="M50.4,261.8l5.8-8.9h-5.3v-2.1h8.3v1.5l-5.8,8.9h5.9v2.1h-9L50.4,261.8L50.4,261.8z"/>
					<path class="st4" d="M61.5,250.8H64v5.4h0.1l4.1-5.4H71l-3.8,4.9l4.5,7.6h-2.8l-3.2-5.6l-1.6,2.1v3.5h-2.5L61.5,250.8
						L61.5,250.8z"/>
					<path class="st4" d="M72.7,257.6v-6.9h2.5v7.1c0,2.6,0.9,3.5,2.4,3.5s2.4-0.9,2.4-3.5v-7.1h2.4v6.9c0,4.2-1.8,5.9-4.8,5.9
						S72.7,261.8,72.7,257.6z"/>
					<path class="st4" d="M84.4,261.7l1.4-1.7c0.9,0.8,2.1,1.4,3.2,1.4c1.3,0,2-0.6,2-1.4c0-0.9-0.8-1.2-1.9-1.7l-1.7-0.7
						c-1.3-0.5-2.5-1.5-2.5-3.4c0-2,1.8-3.6,4.3-3.6c1.5,0,2.9,0.6,3.9,1.6l-1.3,1.6c-0.8-0.7-1.6-1-2.7-1s-1.8,0.5-1.8,1.3
						c0,0.9,0.9,1.2,2,1.6l1.6,0.7c1.5,0.6,2.5,1.6,2.5,3.4c0,2-1.7,3.8-4.6,3.8C87.3,263.5,85.6,262.8,84.4,261.7z"/>
					<path class="st4" d="M95.8,250.8h3.4c3.8,0,6.2,2,6.2,6.2c0,4.2-2.4,6.3-6,6.3h-3.6V250.8z M99.1,261.3c2.3,0,3.8-1.3,3.8-4.3
						c0-3.1-1.5-4.2-3.8-4.2h-0.8v8.5H99.1z"/>
					<path class="st4" d="M111.1,257.1c0-4.1,2.7-6.5,5.8-6.5c1.6,0,2.9,0.8,3.7,1.6l-1.3,1.6c-0.6-0.6-1.4-1-2.3-1
						c-1.9,0-3.3,1.6-3.3,4.3c0,2.7,1.3,4.4,3.3,4.4c1.1,0,1.9-0.5,2.6-1.2l1.3,1.6c-1,1.2-2.4,1.8-4,1.8
						C113.6,263.5,111.1,261.2,111.1,257.1z"/>
					<path class="st4" d="M122.3,259.7v-5.9h2.5v5.6c0,1.5,0.4,2,1.3,2c0.8,0,1.3-0.3,1.9-1.2v-6.4h2.5v9.5h-2l-0.2-1.4h-0.1
						c-0.8,1-1.7,1.6-3,1.6C123.1,263.5,122.3,262.1,122.3,259.7z"/>
					<path class="st4" d="M133.1,253.8h2l0.2,1.7h0.1c0.7-1.2,1.7-1.9,2.7-1.9c0.5,0,0.8,0.1,1.1,0.2l-0.4,2.1
						c-0.3-0.1-0.6-0.2-1-0.2c-0.7,0-1.6,0.5-2.2,1.9v5.6h-2.5L133.1,253.8L133.1,253.8z"/>
					<path class="st4" d="M140.5,253.8h2l0.2,1.3h0.1c0.8-0.8,1.8-1.5,3.1-1.5c2,0,2.9,1.4,2.9,3.8v5.9h-2.5v-5.6c0-1.5-0.4-2-1.3-2
						c-0.8,0-1.3,0.4-2,1.1v6.5h-2.5V253.8z"/>
					<path class="st4" d="M150.7,258.6c0-3.2,2.3-5,4.8-5c1.2,0,2.1,0.5,2.8,1l-1.2,1.6c-0.5-0.4-0.9-0.6-1.5-0.6
						c-1.4,0-2.4,1.2-2.4,3s1,2.9,2.3,2.9c0.7,0,1.3-0.3,1.8-0.8l1,1.6c-0.9,0.8-2,1.1-3.1,1.1C152.7,263.5,150.7,261.7,150.7,258.6
						z"/>
					<path class="st4" d="M159.8,266.9l0.5-1.9c0.2,0.1,0.4,0.1,0.7,0.1c1,0,1.5-0.6,1.8-1.4l0.2-0.6l-3.7-9.3h2.5l1.5,4.4
						c0.3,0.8,0.5,1.8,0.8,2.7h0.1c0.2-0.9,0.5-1.8,0.7-2.7l1.3-4.4h2.4l-3.4,9.7c-0.8,2.2-1.8,3.5-4,3.5
						C160.5,267.1,160.2,267,159.8,266.9z"/>
					<path class="st4" d="M178.5,260.6c0.5,0.5,1.2,0.9,2,0.9c1.4,0,2.6-1.1,2.7-4.2c-0.6,0.8-1.7,1.4-2.6,1.4
						c-2.1,0-3.6-1.3-3.6-3.9s1.8-4.2,3.9-4.2c2.4,0,4.5,1.9,4.5,6.2c0,4.7-2.3,6.8-4.8,6.8c-1.6,0-2.7-0.7-3.4-1.4L178.5,260.6z
						 M183.1,255.5c-0.2-2.3-1.1-3.1-2.1-3.1c-0.9,0-1.7,0.8-1.7,2.3c0,1.5,0.7,2.2,1.8,2.2C181.7,256.9,182.5,256.5,183.1,255.5z"
						/>
					<path class="st4" d="M194,253.4c-0.4-0.5-1.2-0.9-1.9-0.9c-1.4,0-2.6,1.1-2.7,4.2c0.7-0.8,1.8-1.3,2.6-1.3
						c2.1,0,3.6,1.3,3.6,3.9s-1.8,4.2-3.9,4.2c-2.4,0-4.5-1.9-4.5-6.3c0-4.7,2.3-6.7,4.8-6.7c1.5,0,2.6,0.6,3.4,1.4L194,253.4z
						 M193.2,259.3c0-1.5-0.7-2.2-1.8-2.2c-0.7,0-1.4,0.4-2,1.3c0.2,2.3,1.1,3.2,2.1,3.2C192.5,261.6,193.2,260.9,193.2,259.3z"/>
					<path class="st4" d="M197.4,261.9c0-0.9,0.7-1.6,1.5-1.6c0.9,0,1.6,0.7,1.6,1.6s-0.7,1.6-1.6,1.6
						C198.1,263.5,197.4,262.8,197.4,261.9z"/>
					<path class="st4" d="M208.2,252.8h-5.6v-2.1h8.3v1.5c-2.9,3.5-3.3,6.1-3.5,11h-2.5C205.1,258.9,205.8,256.2,208.2,252.8z"/>
					<path class="st4" d="M221.1,260h-1.5v3.2h-2.3V260H212v-1.7l4.7-7.6h3v7.4h1.5L221.1,260L221.1,260z M217.3,258.1v-2.6
						c0-0.7,0.1-1.9,0.1-2.6h-0.1c-0.3,0.7-0.6,1.4-1,2l-1.9,3.1h2.9V258.1z"/>
					<path class="st4" d="M229.4,253.4c-0.4-0.5-1.2-0.9-1.9-0.9c-1.4,0-2.6,1.1-2.7,4.2c0.7-0.8,1.8-1.3,2.6-1.3
						c2.1,0,3.6,1.3,3.6,3.9s-1.8,4.2-3.9,4.2c-2.4,0-4.5-1.9-4.5-6.3c0-4.7,2.3-6.7,4.8-6.7c1.5,0,2.6,0.6,3.4,1.4L229.4,253.4z
						 M228.6,259.3c0-1.5-0.7-2.2-1.8-2.2c-0.7,0-1.4,0.4-2,1.3c0.2,2.3,1.1,3.2,2.1,3.2C227.8,261.6,228.6,260.9,228.6,259.3z"/>
					<path class="st4" d="M239.3,253.4c-0.4-0.5-1.2-0.9-1.9-0.9c-1.4,0-2.6,1.1-2.7,4.2c0.7-0.8,1.8-1.3,2.6-1.3
						c2.1,0,3.6,1.3,3.6,3.9s-1.8,4.2-3.9,4.2c-2.4,0-4.5-1.9-4.5-6.3c0-4.7,2.3-6.7,4.8-6.7c1.5,0,2.6,0.6,3.4,1.4L239.3,253.4z
						 M238.5,259.3c0-1.5-0.7-2.2-1.8-2.2c-0.7,0-1.4,0.4-2,1.3c0.2,2.3,1.1,3.2,2.1,3.2C237.8,261.6,238.5,260.9,238.5,259.3z"/>
					<path class="st4" d="M242.3,260.2c0-1.6,1-2.6,2.1-3.3v-0.1c-1-0.7-1.7-1.6-1.7-3c0-2,1.6-3.3,3.8-3.3s3.6,1.3,3.6,3.3
						c0,1.2-0.8,2.3-1.6,2.9v0.1c1.1,0.6,2.1,1.6,2.1,3.3c0,1.9-1.7,3.3-4.2,3.3C244.1,263.5,242.3,262.1,242.3,260.2z M248.4,260.1
						c0-1.3-1.1-1.8-2.8-2.5c-0.7,0.5-1.1,1.4-1.1,2.3c0,1.1,0.9,1.9,2.1,1.9C247.6,261.7,248.4,261.2,248.4,260.1z M248.2,254
						c0-1-0.6-1.7-1.7-1.7c-0.8,0-1.5,0.6-1.5,1.6c0,1.2,1,1.8,2.3,2.3C247.9,255.5,248.2,254.8,248.2,254z"/>
					<path class="st4" d="M253.6,260.6c0.5,0.5,1.2,0.9,2,0.9c1.4,0,2.6-1.1,2.7-4.2c-0.6,0.8-1.7,1.4-2.6,1.4
						c-2.1,0-3.6-1.3-3.6-3.9s1.8-4.2,3.9-4.2c2.4,0,4.5,1.9,4.5,6.2c0,4.7-2.3,6.8-4.8,6.8c-1.6,0-2.7-0.7-3.4-1.4L253.6,260.6z
						 M258.2,255.5c-0.2-2.3-1.1-3.1-2.1-3.1c-0.9,0-1.7,0.8-1.7,2.3c0,1.5,0.7,2.2,1.8,2.2C256.9,256.9,257.6,256.5,258.2,255.5z"
						/>
				</g>
			</g>
		</g>
		<g>
			<rect x="22.3" y="276.3" class="st7" width="10" height="10"/>
			<g class="st11">
				<path class="st7" d="M47.1,287.6l-2.6-4.7h-1.7v4.7h-2.5v-12.5h4.4c2.6,0,4.7,0.9,4.7,3.8c0,1.9-0.9,3-2.4,3.6l2.9,5.1H47.1z
					 M42.8,280.9h1.6c1.6,0,2.5-0.7,2.5-2c0-1.4-0.9-1.8-2.5-1.8h-1.6V280.9z"/>
				<path class="st7" d="M51.7,282v-6.9h2.5v7.1c0,2.6,0.9,3.5,2.4,3.5s2.4-0.9,2.4-3.5v-7.1h2.4v6.9c0,4.2-1.8,5.9-4.8,5.9
					C53.6,287.8,51.7,286.1,51.7,282z"/>
				<path class="st7" d="M64.4,275.1h4.1c2.6,0,4.5,0.7,4.5,3.1c0,1.1-0.6,2.3-1.7,2.7v0.1c1.4,0.3,2.3,1.3,2.3,3
					c0,2.5-2.1,3.7-4.8,3.7h-4.5L64.4,275.1L64.4,275.1z M68.4,280.2c1.6,0,2.3-0.6,2.3-1.6c0-1.1-0.7-1.5-2.2-1.5H67v3.2h1.4V280.2
					z M68.7,285.7c1.7,0,2.6-0.6,2.6-1.9c0-1.2-0.9-1.7-2.6-1.7H67v3.6H68.7z"/>
				<path class="st7" d="M75.9,282v-6.9h2.5v7.1c0,2.6,0.9,3.5,2.4,3.5s2.4-0.9,2.4-3.5v-7.1h2.4v6.9c0,4.2-1.8,5.9-4.8,5.9
					C77.7,287.8,75.9,286.1,75.9,282z"/>
				<path class="st7" d="M87.6,286l1.4-1.7c0.9,0.8,2.1,1.4,3.2,1.4c1.3,0,2-0.6,2-1.4c0-0.9-0.8-1.2-1.9-1.7l-1.7-0.7
					c-1.3-0.5-2.5-1.5-2.5-3.4c0-2,1.8-3.6,4.3-3.6c1.5,0,2.9,0.6,3.9,1.6l-1.3,1.6c-0.8-0.7-1.6-1-2.7-1s-1.8,0.5-1.8,1.3
					c0,0.9,0.9,1.2,2,1.6l1.6,0.7c1.5,0.6,2.5,1.6,2.5,3.4c0,2-1.7,3.8-4.6,3.8C90.4,287.8,88.8,287.2,87.6,286z"/>
				<path class="st7" d="M98.9,275.1h3.4c3.8,0,6.2,2,6.2,6.2s-2.4,6.3-6,6.3h-3.6V275.1z M102.2,285.6c2.3,0,3.8-1.3,3.8-4.3
					c0-3.1-1.5-4.2-3.8-4.2h-0.8v8.5H102.2z"/>
				<path class="st7" d="M114.2,281.4c0-4.1,2.7-6.5,5.8-6.5c1.6,0,2.9,0.8,3.7,1.6l-1.3,1.6c-0.6-0.6-1.4-1-2.3-1
					c-1.9,0-3.3,1.6-3.3,4.3c0,2.7,1.3,4.4,3.3,4.4c1.1,0,1.9-0.5,2.6-1.2l1.3,1.6c-1,1.2-2.4,1.8-4,1.8
					C116.8,287.8,114.2,285.6,114.2,281.4z"/>
				<path class="st7" d="M125.4,284.1v-5.9h2.5v5.6c0,1.5,0.4,2,1.3,2c0.8,0,1.3-0.3,1.9-1.2v-6.4h2.5v9.5h-2l-0.2-1.4h-0.1
					c-0.8,1-1.7,1.6-3,1.6C126.3,287.8,125.4,286.4,125.4,284.1z"/>
				<path class="st7" d="M136.3,278.1h2l0.2,1.7h0.1c0.7-1.2,1.7-1.9,2.7-1.9c0.5,0,0.8,0.1,1.1,0.2l-0.4,2.1
					c-0.3-0.1-0.6-0.2-1-0.2c-0.7,0-1.6,0.5-2.2,1.9v5.6h-2.5L136.3,278.1L136.3,278.1z"/>
				<path class="st7" d="M143.6,278.1h2l0.2,1.3h0.1c0.8-0.8,1.8-1.5,3.1-1.5c2,0,2.9,1.4,2.9,3.8v5.9h-2.5V282c0-1.5-0.4-2-1.3-2
					c-0.8,0-1.3,0.4-2,1.1v6.5h-2.5V278.1z"/>
				<path class="st7" d="M153.9,282.9c0-3.2,2.3-5,4.8-5c1.2,0,2.1,0.5,2.8,1l-1.2,1.6c-0.5-0.4-0.9-0.6-1.5-0.6
					c-1.4,0-2.4,1.2-2.4,3s1,2.9,2.3,2.9c0.7,0,1.3-0.3,1.8-0.8l1,1.6c-0.9,0.8-2,1.1-3.1,1.1C155.9,287.8,153.9,286,153.9,282.9z"
					/>
				<path class="st7" d="M162.9,291.2l0.5-1.9c0.2,0.1,0.4,0.1,0.7,0.1c1,0,1.5-0.6,1.8-1.4l0.2-0.6l-3.7-9.3h2.5l1.5,4.4
					c0.3,0.8,0.5,1.8,0.8,2.7h0.1c0.2-0.9,0.5-1.8,0.7-2.7l1.3-4.4h2.4l-3.4,9.7c-0.8,2.2-1.8,3.5-4,3.5
					C163.7,291.4,163.3,291.3,162.9,291.2z"/>
				<path class="st7" d="M180.2,284.5c0-1.6,1-2.6,2.1-3.3v-0.1c-1-0.7-1.7-1.6-1.7-3c0-2,1.6-3.3,3.8-3.3s3.6,1.3,3.6,3.3
					c0,1.2-0.8,2.3-1.6,2.9v0.1c1.1,0.6,2.1,1.6,2.1,3.3c0,1.9-1.7,3.3-4.2,3.3C182,287.8,180.2,286.5,180.2,284.5z M186.3,284.4
					c0-1.3-1.1-1.8-2.8-2.5c-0.7,0.5-1.1,1.4-1.1,2.3c0,1.1,0.9,1.9,2.1,1.9C185.5,286.1,186.3,285.5,186.3,284.4z M186.1,278.4
					c0-1-0.6-1.7-1.7-1.7c-0.8,0-1.5,0.6-1.5,1.6c0,1.2,1,1.8,2.3,2.3C185.8,279.8,186.1,279.1,186.1,278.4z"/>
				<path class="st7" d="M189.8,286.1l1.1-1.6c0.7,0.7,1.6,1.3,2.8,1.3c1.3,0,2.2-0.8,2.2-2.3s-0.8-2.3-2.1-2.3
					c-0.7,0-1.1,0.2-1.9,0.7l-1.1-0.7l0.3-6.1h6.7v2.1h-4.5l-0.2,2.7c0.5-0.2,0.9-0.4,1.5-0.4c2.1,0,3.9,1.3,3.9,4
					c0,2.8-2.1,4.4-4.4,4.4C192.1,287.8,190.8,287.1,189.8,286.1z"/>
				<path class="st7" d="M200.5,286.2c0-0.9,0.7-1.6,1.5-1.6c0.9,0,1.6,0.7,1.6,1.6s-0.7,1.6-1.6,1.6
					C201.2,287.8,200.5,287.1,200.5,286.2z"/>
				<path class="st7" d="M214.3,284.4h-1.5v3.2h-2.3v-3.2h-5.3v-1.7l4.7-7.6h3v7.4h1.5L214.3,284.4L214.3,284.4z M210.5,282.5v-2.6
					c0-0.7,0.1-1.9,0.1-2.6h-0.1c-0.3,0.7-0.6,1.4-1,2l-1.9,3.1h2.9V282.5z"/>
				<path class="st7" d="M224.3,284.4h-1.5v3.2h-2.3v-3.2h-5.3v-1.7l4.7-7.6h3v7.4h1.5L224.3,284.4L224.3,284.4z M220.5,282.5v-2.6
					c0-0.7,0.1-1.9,0.1-2.6h-0.1c-0.3,0.7-0.6,1.4-1,2l-1.9,3.1h2.9V282.5z"/>
				<path class="st7" d="M225.2,286.1l1.2-1.6c0.7,0.7,1.7,1.3,2.8,1.3c1.3,0,2.1-0.6,2.1-1.7c0-1.2-0.7-2-3.4-2v-1.8
					c2.3,0,3-0.8,3-1.9c0-1-0.6-1.6-1.7-1.6c-0.9,0-1.6,0.4-2.4,1.1l-1.3-1.5c1.1-0.9,2.3-1.5,3.7-1.5c2.4,0,4.1,1.2,4.1,3.3
					c0,1.4-0.8,2.3-2.1,2.9v0.1c1.4,0.4,2.5,1.4,2.5,3.1c0,2.3-2,3.6-4.4,3.6C227.4,287.8,226.1,287.1,225.2,286.1z"/>
				<path class="st7" d="M241.2,277.2h-5.6v-2.1h8.3v1.5c-2.9,3.5-3.3,6.1-3.5,11h-2.5C238,283.3,238.8,280.5,241.2,277.2z"/>
				<path class="st7" d="M245.1,286.1l1.1-1.6c0.7,0.7,1.6,1.3,2.8,1.3c1.3,0,2.2-0.8,2.2-2.3s-0.8-2.3-2.1-2.3
					c-0.7,0-1.1,0.2-1.9,0.7l-1.1-0.7l0.3-6.1h6.7v2.1h-4.5l-0.2,2.7c0.5-0.2,0.9-0.4,1.5-0.4c2.1,0,3.9,1.3,3.9,4
					c0,2.8-2.1,4.4-4.4,4.4C247.3,287.8,246,287.1,245.1,286.1z"/>
				<path class="st7" d="M262.3,277.8c-0.4-0.5-1.2-0.9-1.9-0.9c-1.4,0-2.6,1.1-2.7,4.2c0.7-0.8,1.8-1.3,2.6-1.3
					c2.1,0,3.6,1.3,3.6,3.9s-1.8,4.2-3.9,4.2c-2.4,0-4.5-1.9-4.5-6.3c0-4.7,2.3-6.7,4.8-6.7c1.5,0,2.6,0.6,3.4,1.4L262.3,277.8z
					 M261.6,283.7c0-1.5-0.7-2.2-1.8-2.2c-0.7,0-1.4,0.4-2,1.3c0.2,2.3,1.1,3.2,2.1,3.2C260.8,286,261.6,285.2,261.6,283.7z"/>
			</g>
		</g>
	</g>
	<polyline class="st12" points="1.7,103.5 6.8,99.8 12.3,101.7 17.2,98.8 21.7,98.8 27,107.8 31.7,110.8 38.1,108.7 40,103.7 
		42.8,102.7 46.7,95.7 52,100.5 57.8,101.5 66.8,109.8 71.3,105.8 76.8,107.8 81.2,113.8 87.3,101.5 92,104.5 97.3,101.7 
		101.2,109.8 107.2,112.3 112.2,108.7 117.3,109.8 121.2,134.3 127,140 132.2,121.2 141.8,143 147,127.2 151.7,124.5 157,128.2 
		161,109.8 166.7,101.2 172.2,105.2 177,106.2 181.7,115.7 187.2,116.8 192,122.5 202.2,109.8 207,122.5 211.3,127 226,119.3 
		231.5,101.5 237.2,104.5 241.5,113.5 246.2,102.3 252.3,102 255.2,104.5 261.3,101.5 266.5,108.7 271.7,109.8 276.7,113.5 
		282,111.3 286.7,102.2 291.5,122.8 295.8,125.8 301.5,116.2 306.3,115 311.5,101 322,96.5 325.9,91.3 331.5,89.3 341.4,99 
		345.8,108.7 347.1,109.8 351.8,107.8 356.2,101.8 363,104.5 365.2,108.7 371.5,111.5 378.7,107.5 386.7,102 396.7,109.8 
		400.5,123.2 406.5,118.2 411.5,123.7 416.8,117.8 421.2,106.3 431.8,113.3 436.1,120.8 440.8,115.3 446.2,114.3 451,121.8 
		456.5,119.3 461.3,120.7 465.8,102.8 475.8,109.8 480.3,123.1 486.2,118.3 491,124.3 497.3,122.8 500.8,118.3 506.3,117.2 
		511.3,118.5 516,123.3 525.5,115.3 530.5,126.2 536.2,117.7 541.5,122.5 545.7,112.3 551.2,109.8 555.7,111 561,104.5 566.3,112.7 
		575.7,118 581.5,125.3 590.7,132.7 595.5,150.5 601.2,150.5 606.3,161.2 610.8,158 616,158.7 622.7,161.2 626.2,165.3 632.3,169 
		635.5,173.2 640.2,171.3 646.2,162.8 651.7,169 656,164.2 660.8,165.7 666.2,169 671,164.2 675.7,162.2 681.3,163 685.8,179.3 
		690.5,174.7 695.5,181.3 705,178 715.3,187.3 720.3,179.3 725.7,186 735.5,167.3 740.5,175 745.5,164.5 750.3,167.3 756,161.2 
		764.8,178.5 770.7,173.2 775.3,177 780.7,167.3 785.8,166.3 800.5,189.5 805.2,179.3 810.5,185.3 820,169 830,166 835.7,168.2 
		840.8,175 845,163.8 851,157.1 855.7,155.7 860,157.1 	"/>
	<polyline class="st13" points="1.7,103.5 6.5,101.5 13.1,103.8 18.8,100.8 23.6,100.8 28.4,104.5 31.7,110.8 36.8,104.5 40,103.7 
		46.6,92.8 52.4,90 56.5,91.5 72,82.6 82.1,82.6 91.9,64.9 97.6,62.5 101.9,67.4 107.3,63.6 112.1,56.5 118.2,60.4 122.8,60.1 
		127.4,55.9 132.6,55.9 136.5,52.1 142,66.1 147,56.5 151.8,67.1 162.3,70.6 171.6,69.6 176.9,70 182,68.6 188.7,71.4 197.1,67 
		202.8,62.1 211.3,65.2 215.3,73.1 220.9,70.1 226.6,70.4 231.9,61.5 241.6,68.3 258.5,63.9 262.9,63.1 272.1,67.1 283.3,66.8 
		286.6,65 291.4,67.8 301.3,56 306.4,56.1 311.5,58.9 322,56.9 326.4,53.8 336.4,60.5 351.5,60.4 356.3,54.9 361.9,53 366.3,57.5 
		371.5,53.8 376.3,57.5 387,53.4 393.9,56.5 401,62.9 406.1,60.9 412.6,67.3 416.1,72.5 420.8,67 432,67.1 436.1,72.9 441.1,71 
		447.6,73.4 456,74.4 462.8,72.4 471.3,66.9 476,67.6 481.5,74.9 487.6,74.9 491.8,74.3 496.6,77.4 501.8,77.3 506,74.5 511.3,79.1 
		516.3,77 526.3,81.5 530.8,85.9 536.5,85.9 541.5,83.5 546,86.3 551.5,83.8 556.1,82.8 560.8,79.1 565.9,79.9 570.9,82.8 
		575.5,79.6 582,82.8 585.9,80.5 590.3,81.5 596.3,90.4 601,90.1 606.1,99.4 611.3,97.1 614.5,100.4 621.3,104.5 630.6,119.4 
		640.8,129 645.3,128.1 651.1,137.1 654.4,133.4 660.8,130.5 670.9,132.1 675.6,127.4 681.1,130.6 685.9,139.4 690.5,136.6 
		695.9,142.1 701.4,142.6 711.8,149.3 715.3,158.6 720.9,157.8 726.1,163 730.6,162.1 735.6,158.1 746.5,166.8 757.3,165.9 
		764.9,171.8 770.4,169 775.4,173.2 780.5,170.1 786.8,170.1 792,166.7 800.6,180.4 804.9,179.8 810.8,189.5 815.3,179.3 
		835.4,171.2 840.5,177.9 845,165.3 850.2,167.3 856.1,163.8 860,166 	"/>
	<polyline class="st14" points="1.7,103.5 6.5,96.8 12.3,101.7 17.2,95.7 26.7,110 31.8,113.3 37,111.5 43.3,95 46.5,80.7 
		56.5,69.1 62,76.2 67,69.1 73.4,72.5 81.7,64.3 87,50.7 91.8,49.8 97.3,42.8 102.3,48.5 112.7,42.8 116.7,28.2 126.8,44.8 
		132,44.7 137,60.5 142,67.7 147,67.7 157.5,55.3 161,45.7 166.3,37.3 171.8,47.7 176.5,46.2 186.8,62.7 191.7,57.5 195.8,62.3 
		202.2,60.3 206.8,73.3 211.3,76.3 216.5,69.2 221.2,59.8 226.5,60.2 231.3,51 236.8,52.3 241.2,63.3 246.8,66.7 256.2,58 
		260.7,58.2 271.8,65.5 276.7,61.2 281.5,70.8 286.7,59.3 291.7,63.8 297.7,56.7 301.3,49.8 308,58 311.5,65.8 322,57.8 326.8,62.3 
		331.3,62.8 336,61.8 341.2,66.5 347,63.7 355.7,51.7 361.8,51.7 366.8,55.2 371.5,53.8 376.3,46.5 381.8,49.8 386.2,49.7 
		391.5,54.7 396.3,62.8 400.7,75.3 406.3,73.8 416.5,90 421,86.7 431.8,113.3 436.1,114.7 441.5,104.5 446.8,107 450.5,112.5 
		455.7,123 461.5,124.5 466,111.7 471.2,108.7 476.2,111.5 481.2,125.5 486.8,126.8 495.8,137.3 506.2,138.2 511.2,151.2 
		515.7,151.2 526.2,159.5 531,177.2 536.3,159.3 541.5,154.5 546.7,158.5 550.7,148.5 560.8,138 571.2,142.1 575.7,135.8 
		580.8,142.8 586,137 590.8,165.7 596.2,161.2 601,161.2 605.2,167.2 610.7,169 616.5,167 620.8,157.7 625.7,158 630.8,165.5 
		635.7,177.2 641.3,174.8 645.3,165 651.2,175.3 656.2,174.3 662.2,168.2 670.7,153.7 675.5,149.7 681.2,149.5 685.8,163.7 
		690.3,162.3 697.8,157.8 700,154.7 704.3,159 705.5,161.2 710,162.3 716.2,165.7 720.8,154 725.8,155.5 735.7,142.1 740.7,152.2 
		746.5,148.9 750,142.1 756,143.5 761.3,147.7 765.3,158.8 770.7,158 775.5,162.5 781.2,154 785.7,153 790.8,162.8 795.8,179.3 
		802.2,186.2 810.2,191.5 816.2,185.3 820,178.2 826.2,175 830.3,165.3 835.2,161.2 840.5,168.3 850.2,151.2 860,148.9 	"/>
	<polyline class="st15" points="1.7,103.5 11,86 16.3,80.3 21.2,78.2 27.2,84 31.7,78.2 36.8,81.7 42,67.8 46.8,73.3 51,65.5 
		57.7,69.8 61.5,76.8 66.5,69.7 72.3,73.8 76.5,68.3 82.7,64.8 91.7,54.8 97,64.2 102.3,63.7 106.8,65.5 113.3,60.2 116.7,55.7 
		127.2,87.3 131.7,77.5 137,104.5 141.8,114 147,114 151.3,100 157.5,96 161.7,74.7 166.2,66.2 171.8,66.2 182.3,69.8 186.7,75 
		201.7,48.5 206.8,63.8 211.3,65.2 216.7,76 221.5,76 226.5,66.3 231.2,72.7 237.8,79.2 241,83.8 247,72.7 251.3,79.8 261.8,84.2 
		266.5,92 271.8,94.3 276.5,99.3 281.5,94.5 286.3,77.7 291.3,87.5 296.3,88.5 301.3,85.3 306.5,89.7 311.2,98.8 322,73.8 325.3,88 
		326.2,92.5 331.5,95.3 336.3,92 345.3,104.5 347,108.7 356.2,215.7 366,191.7 371.5,194.5 376.7,175.2 381.3,183.3 386.3,169 
		392.7,173.2 401,190.7 406,185.2 411,201.5 416.2,209 421,197 426.3,213.5 436.1,234.2 440.5,213 446.3,202.5 455.8,217.8 
		461.3,216.2 466.2,187.7 470.8,194.8 476,191 481.2,199 485.5,187.8 491,196.8 496.3,198.7 500.7,184.7 506.3,178 511.5,179.2 
		516.7,186.2 520.8,197.8 526.2,200.7 530.8,211 536.2,195 540.8,200.2 551.7,195 555.8,196.5 560.5,189.5 566,201.2 571.2,198.8 
		575.3,211 581.2,215.7 585.5,205.8 591,204.5 596.5,218.2 601.5,222.3 606.3,230.7 611.2,226.2 615.7,226.8 621.2,208.5 
		626.2,213.7 630.3,216 636.3,215.8 640.7,209.8 646.5,207.3 650.5,222 655.8,216.2 660.3,219.3 670.8,213.2 680.5,189.5 685.7,202 
		690.3,198 695.7,205 701,200.3 711,213.7 715.3,225.3 720.7,223.7 725.5,215.2 730.5,220.2 736,210 741.3,213.5 745.3,203.7 
		750.3,198.3 760.8,211.8 770.5,231.3 776.7,228.5 780.5,223.7 785,263.2 795.7,302.8 800.8,295.5 805.5,277.8 811,294.3 
		815.5,286.3 820,290.7 825.7,289.8 830.8,293.5 835.3,306.8 840.2,310.2 845.7,291.9 851.8,298 855.2,304.5 860,304.5 	"/>
</g>
<g>
	<g>
		<g>
			<path class="st1" d="M191.7,433.4v1.4h-13.4v-1.4h5.5V422h1.5v4.5h5.4v1.4h-5.4v5.6H191.7z"/>
			<path class="st1" d="M200.5,424c-0.2,0.6-0.4,1.1-0.5,1.7h5.9v9.9h-1.4v-0.8h-9.1v0.8H194v-9.9h4.6c0.1-0.5,0.2-1.1,0.3-1.7h-5.6
				v-1.3h13.3v1.3H200.5z M195.3,433.5h1.9v-6.5h-1.9V433.5z M201.2,426.9h-2.8v1.4h2.8V426.9z M201.2,429.5h-2.8v1.4h2.8V429.5z
				 M198.4,433.5h2.8V432h-2.8V433.5z M204.5,426.9h-2v6.5h2V426.9z"/>
			<path class="st1" d="M212.2,429c-0.2,1.3-0.7,2.7-1.4,3.8c0.3,0.1,0.6,0.4,1,0.6c1,0.6,2.4,0.7,4.2,0.7c1.8,0,4.3-0.1,6-0.3
				c-0.2,0.4-0.4,1.1-0.4,1.5c-1.1,0.1-3.9,0.2-5.7,0.2c-1.9,0-3.2-0.2-4.3-0.8c-0.6-0.3-1.1-0.8-1.5-0.8c-0.3,0-0.9,0.9-1.3,1.8
				l-0.9-1.3c0.4-0.6,0.9-1,1.3-1.4l0,0c0.6-0.8,1.2-1.9,1.5-3h-2.1c0.4-0.9,0.9-2.1,1.3-3.3h-1.7v-1.3h3.5
				c-0.4,1.1-0.9,2.3-1.3,3.3h0.8l0.2,0L212.2,429z M210,424.7c-0.2-0.6-0.8-1.7-1.1-2.5l1.2-0.4c0.4,0.8,0.9,1.8,1.2,2.4L210,424.7
				z M221.6,424.6h-9.4v-1.1h4.2c-0.2-0.4-0.5-1-0.8-1.4l1.3-0.4c0.4,0.5,0.8,1.2,1,1.6l-0.7,0.2h4.4V424.6z M213.1,429.3h7.3v3.6
				h-7.3V429.3z M220.3,426.5h-7v-1h7V426.5z M213.3,427.4h7v1h-7V427.4z M214.5,431.9h4.6v-1.6h-4.6V431.9z"/>
			<path class="st1" d="M228.1,431.8c-1.6,0.7-3.3,1.4-4.6,1.9l-0.4-1.4c0.5-0.2,1.2-0.4,1.9-0.7v-4.9h-1.7v-1.3h1.7V422h1.3v3.4
				h1.5v1.3h-1.5v4.4l1.5-0.6L228.1,431.8z M235.5,434.2c0.4,0,0.4-0.2,0.5-1.1c0.3,0.2,0.7,0.4,1.1,0.5c-0.1,1.4-0.5,1.7-1.5,1.7
				h-1.9c-1.3,0-1.6-0.3-1.6-1.6v-4.3h-0.8c-0.2,2.7-0.8,4.9-3.1,6.1c-0.1-0.3-0.5-0.8-0.8-1c2.1-1,2.5-2.8,2.7-5.1h-1.6v-6.2h1.5
				c0.2-0.5,0.4-1.1,0.5-1.5l1.5,0.2c-0.2,0.5-0.4,0.9-0.6,1.3h5v6.2h-3v4.3c0,0.4,0.1,0.5,0.6,0.5H235.5z M229.5,425.8h2.1v-1.4
				h-2.1V425.8z M229.5,428.3h2.1v-1.4h-2.1V428.3z M234.9,424.4h-2.1v1.4h2.1V424.4z M234.9,426.9h-2.1v1.4h2.1V426.9z
				 M236.1,433.2c0-0.1-0.1-0.3-0.1-0.5c-1.9,0.2-2.2,0.3-2.4,0.4c-0.1-0.2-0.2-0.6-0.3-0.9c0.2,0,0.3-0.2,0.4-0.4
				c0.2-0.2,0.6-1.2,0.8-2.1l0.9,0.3c-0.3,0.8-0.6,1.5-1,2.2l1.3-0.1c-0.2-0.4-0.3-0.8-0.5-1.1l0.7-0.3c0.4,0.7,0.8,1.6,1,2.2
				L236.1,433.2z"/>
			<path class="st1" d="M251.4,424.1c0,0,0,0.5,0,0.7c-0.2,6.8-0.4,9.1-1,9.8c-0.4,0.5-0.7,0.6-1.3,0.7c-0.5,0.1-1.4,0-2.3,0
				c0-0.4-0.2-1-0.5-1.4c1,0.1,1.8,0.1,2.2,0.1c0.3,0,0.5,0,0.6-0.3c0.5-0.5,0.7-2.8,0.9-8.4h-3.5c-0.4,1-0.9,1.8-1.4,2.5
				c-0.2-0.2-0.8-0.6-1.1-0.8v6.9H240v1.1h-1.3v-11h1.7c0.2-0.7,0.4-1.7,0.5-2.4l1.5,0.3c-0.3,0.8-0.5,1.5-0.8,2.2h2.4v2.8
				c1-1.3,1.8-3.3,2.2-5.3l1.3,0.3c-0.2,0.7-0.4,1.4-0.6,2H251.4z M240,425.4v2.8h2.8v-2.8H240z M242.8,432.8v-3.3H240v3.3H242.8z
				 M247.8,431.6c-0.4-0.9-1.4-2.4-2.2-3.5l1.1-0.6c0.8,1,1.8,2.5,2.3,3.3L247.8,431.6z"/>
			<path class="st1" d="M264.4,425.7c-0.8,2.3-1.9,4.1-3.3,5.6c1.6,1.3,3.6,2.3,5.9,2.8c-0.3,0.3-0.7,0.9-0.9,1.3
				c-2.4-0.6-4.4-1.7-6-3.1c-1.7,1.4-3.7,2.5-6.1,3.2c-0.2-0.4-0.6-1-0.9-1.3c2.4-0.6,4.4-1.6,6-2.9c-1.5-1.5-2.6-3.4-3.4-5.6h-2.3
				v-1.4h6.5c-0.2-0.6-0.6-1.6-1-2.3l1.5-0.4c0.4,0.7,0.9,1.7,1.1,2.3l-1.3,0.4h6.7v1.4H264.4z M257,425.7c0.7,1.8,1.7,3.3,3,4.6
				c1.2-1.3,2.1-2.8,2.8-4.6H257z"/>
			<path class="st1" d="M281.4,431.1h-5.7v2.8c0,0.8-0.2,1.2-0.8,1.4c-0.6,0.2-1.5,0.2-2.7,0.2c-0.1-0.4-0.4-1-0.6-1.4
				c0.9,0,2,0,2.3,0c0.3,0,0.4-0.1,0.4-0.3v-2.8h-5.7v-1.3h5.7v-0.9c0.8-0.4,1.6-1,2.3-1.5H271v-1.3h6.9l0.3-0.1l0.9,0.7
				c-0.9,0.9-2.2,1.9-3.4,2.6v0.4h5.7V431.1z M270,426.5h-1.4v-3.2h5.7c-0.2-0.4-0.4-0.8-0.7-1.2l1.4-0.4c0.4,0.5,0.8,1.1,1,1.6h5.2
				v3.2h-1.4v-1.9H270V426.5z"/>
			<path class="st1" d="M290.5,430c-0.1,0.3-0.2,0.6-0.3,0.9h5.5v3.2c0,0.6-0.1,0.9-0.5,1.1s-1,0.2-1.8,0.2
				c-0.1-0.3-0.2-0.8-0.4-1.2c0.5,0,1,0,1.2,0c0.2,0,0.2-0.1,0.2-0.2v-2.1h-2v3.3H291v-3.3h-2v3.3h-1.3v-3.3h-1.9v3.4h-1.3V431h4.3
				c0.1-0.3,0.2-0.6,0.3-0.9h-5.7V429h13.1v1.1H290.5z M284.9,427.6h-1.3v-3.3h5.7v-0.9h-5v-1h11.4v1h-5.1v0.9h5.8v3.3H295v-2.2
				h-4.4v3.1h-1.4v-3.1h-4.3V427.6z M285,427.8c0.9-0.1,2.2-0.3,3.5-0.5l0,0.8c-1.1,0.2-2.2,0.5-3.2,0.7L285,427.8z M285.8,425.6
				c0.9,0.2,2.1,0.5,2.7,0.7l-0.4,0.8c-0.6-0.3-1.8-0.6-2.8-0.8L285.8,425.6z M294.5,428.8c-0.8-0.3-2.3-0.6-3.5-0.8l0.3-0.8
				c1.1,0.1,2.6,0.4,3.5,0.7L294.5,428.8z M294.5,426.2c-0.8,0.3-2,0.6-2.8,0.8l-0.5-0.7c0.8-0.2,2-0.6,2.7-0.9L294.5,426.2z"/>
			<path class="st16" d="M308.6,431.4c-0.4,0.8-1,1.4-1.7,1.9c1.7,0.4,3.3,0.8,4.5,1.2l-1.3,1c-1.2-0.4-2.8-0.9-4.6-1.4
				c-1.7,0.8-3.9,1.2-6.8,1.4c-0.1-0.4-0.3-0.9-0.6-1.2c2-0.1,3.7-0.3,5.1-0.7c-1.1-0.2-2.1-0.4-3.3-0.6c0.4-0.5,0.8-1,1.2-1.6h-3
				v-1.2h3.8c0.3-0.5,0.6-1,0.8-1.5l1.4,0.3c-0.2,0.4-0.4,0.8-0.7,1.2h4c0.1-0.3,0.2-0.6,0.3-0.9l1.3,0.4c-0.1,0.1-0.1,0.3-0.2,0.5
				h2.4v1.2H308.6z M302.5,423.6h-4v-1.2h12.9v1.2h-4.1v1.1h3.6v4h-11.6v-4h3.3V423.6z M300.5,427.5h2v-1.8h-2V427.5z M302.9,431.4
				c-0.2,0.3-0.4,0.6-0.7,0.9c1,0.2,2,0.4,3,0.6c0.7-0.4,1.3-0.9,1.8-1.5H302.9z M305.9,423.6h-2.1v1.1h2.1V423.6z M303.8,427.5h2.1
				v-1.8h-2.1V427.5z M307.2,425.8v1.8h2.2v-1.8H307.2z"/>
			<path class="st1" d="M325.1,431.2h1.8v1.1h-1.8v2c0,0.6-0.1,0.9-0.6,1.1c-0.5,0.2-1.2,0.2-2.2,0.2c-0.1-0.3-0.2-0.8-0.4-1.1
				c0.7,0,1.4,0,1.6,0c0.2,0,0.3-0.1,0.3-0.2v-2H321c0.6,0.5,1.1,1.2,1.4,1.7l-1,0.7c-0.3-0.5-0.8-1.3-1.3-1.8l0.9-0.5h-1.6v0.8
				h-2.4v2.5h-1.2V433H313v-1.2h2.5v-1h-2v-5.3h2v-1h-2.3v-1.2h2.3v-1.5h1.2v1.5h2.2v1.2h-2.2v1h2.1v5.3h-2.1v1h2.4v-0.6h4.6v-0.7
				h1.3V431.2z M314.5,427.6h1.2v-1.1h-1.2V427.6z M314.5,429.7h1.2v-1.1h-1.2V429.7z M317.8,426.5h-1.2v1.1h1.2V426.5z
				 M317.8,428.6h-1.2v1.1h1.2V428.6z M319.2,429.4c0.9,0,2,0,3.1,0v-0.9h-2.7v-3.9h2.7v-0.7h-3v-1h3v-1.1h1.2v1.1h3.1v1h-3.1v0.7
				h2.8v3.9h-0.8c0.6,0.6,1.1,1.3,1.4,1.8l-1,0.5c-0.1-0.2-0.2-0.4-0.4-0.6c-2.3,0.1-4.6,0.1-6.3,0.2L319.2,429.4z M320.8,426.1h1.6
				v-0.8h-1.6V426.1z M322.3,427.7v-0.8h-1.6v0.8H322.3z M323.5,425.4v0.8h1.6v-0.8H323.5z M325.1,426.9h-1.6v0.8h1.6V426.9z
				 M323.5,429.3l1.3,0c-0.2-0.2-0.3-0.4-0.5-0.6l0.5-0.2h-1.3V429.3z"/>
			<path class="st1" d="M334.5,423.9l1,0.3c-0.8,5.9-3,9.5-6.2,11.3c-0.2-0.3-0.8-0.9-1.2-1.2c1.7-0.9,3.2-2.2,4.2-4.1
				c-0.6-0.7-1.4-1.6-2.2-2.3c-0.3,0.5-0.6,0.9-0.9,1.3c-0.3-0.2-0.9-0.7-1.2-0.9c1.3-1.5,2.2-4,2.8-6.6l1.4,0.3
				c-0.1,0.7-0.3,1.3-0.5,2h2.5L334.5,423.9z M331.2,425.3c-0.2,0.5-0.4,1-0.6,1.4c0.7,0.6,1.6,1.5,2.2,2.1c0.4-1,0.7-2.2,0.9-3.6
				H331.2z M338.4,426.3c1.2,1,2.8,2.4,3.5,3.4l-1.2,1c-0.6-0.8-1.8-2-2.8-3v7.9h-1.5v-13.8h1.5v4.9L338.4,426.3z"/>
			<path class="st1" d="M345.7,424.3h2.7v1.1h-5.3v-1.1H345.7c-0.3-0.6-0.7-1.4-1-2l1-0.6c0.4,0.6,0.9,1.4,1.1,2L345.7,424.3z
				 M348,434.7h-3.2v0.7h-1.1v-5.1h4.3V434.7z M347.9,427.4h-4.2v-1.1h4.2V427.4z M343.7,428.2h4.2v1.1h-4.2V428.2z M344.8,431.4
				v2.1h2v-2.1H344.8z M356.8,433.6v1.3h-8v-12.2h7.8v1.3h-6.5v9.7H356.8z M352.8,431.2v-2H351V428h1.8v-1.8h-2V425h5.2v1.2h-2v1.8
				h1.7v1.2H354v2h2.2v1.2h-5.6v-1.2H352.8z"/>
		</g>
	</g>
	<polygon class="st1" points="162.7,434.4 154.5,434.4 158.6,427.3 162.7,420.2 166.8,427.3 170.8,434.4 	"/>
	<g>
		<g>
			<path class="st1" d="M542.2,449.3v2.5l0.3-0.3c1.7,0.8,4.1,2.2,5.2,3.1l-1,1.3c-1-0.8-2.8-2-4.5-2.9v7.5h-1.5v-11.2h-5.6v-1.4
				h13.2v1.4H542.2z"/>
			<path class="st1" d="M557.4,449c-0.2,0.6-0.4,1.1-0.5,1.7h5.9v9.9h-1.4v-0.8h-9.1v0.8h-1.4v-9.9h4.6c0.1-0.5,0.2-1.1,0.3-1.7
				h-5.6v-1.3h13.3v1.3H557.4z M552.2,458.5h1.9v-6.5h-1.9V458.5z M558.1,451.9h-2.8v1.4h2.8V451.9z M558.1,454.5h-2.8v1.4h2.8
				V454.5z M555.3,458.5h2.8V457h-2.8V458.5z M561.3,451.9h-2v6.5h2V451.9z"/>
			<path class="st1" d="M569,454c-0.2,1.3-0.7,2.7-1.4,3.8c0.3,0.1,0.6,0.4,1,0.6c1,0.6,2.4,0.7,4.2,0.7c1.8,0,4.3-0.1,6-0.3
				c-0.2,0.4-0.4,1.1-0.4,1.5c-1.1,0.1-3.9,0.2-5.7,0.2c-1.9,0-3.2-0.2-4.3-0.8c-0.6-0.3-1.1-0.8-1.5-0.8c-0.3,0-0.9,0.9-1.3,1.8
				l-0.9-1.3c0.4-0.6,0.9-1,1.3-1.4l0,0c0.6-0.8,1.2-1.9,1.5-3h-2.1c0.4-0.9,0.9-2.1,1.3-3.3H565v-1.3h3.5c-0.4,1.1-0.9,2.3-1.3,3.3
				h0.8l0.2,0L569,454z M566.9,449.7c-0.2-0.6-0.8-1.7-1.1-2.5l1.2-0.4c0.4,0.8,0.9,1.8,1.2,2.4L566.9,449.7z M578.5,449.6H569v-1.1
				h4.2c-0.2-0.4-0.5-1-0.8-1.4l1.3-0.4c0.4,0.5,0.8,1.2,1,1.6l-0.7,0.2h4.4V449.6z M570,454.3h7.3v3.6H570V454.3z M577.2,451.5h-7
				v-1h7V451.5z M570.2,452.4h7v1h-7V452.4z M571.3,456.9h4.6v-1.6h-4.6V456.9z"/>
			<path class="st1" d="M584.9,456.8c-1.6,0.7-3.3,1.4-4.6,1.9l-0.4-1.4c0.5-0.2,1.2-0.4,1.9-0.7v-4.9h-1.7v-1.3h1.7V447h1.3v3.4
				h1.5v1.3h-1.5v4.4l1.5-0.6L584.9,456.8z M592.4,459.2c0.4,0,0.4-0.2,0.5-1.1c0.3,0.2,0.7,0.4,1.1,0.5c-0.1,1.4-0.5,1.7-1.5,1.7
				h-1.9c-1.3,0-1.6-0.3-1.6-1.6v-4.3h-0.8c-0.2,2.7-0.8,4.9-3.1,6.1c-0.1-0.3-0.5-0.8-0.8-1c2.1-1,2.5-2.8,2.7-5.1h-1.6v-6.2h1.5
				c0.2-0.5,0.4-1.1,0.5-1.5l1.5,0.2c-0.2,0.5-0.4,0.9-0.6,1.3h5v6.2h-3v4.3c0,0.4,0.1,0.5,0.6,0.5H592.4z M586.4,450.8h2.1v-1.4
				h-2.1V450.8z M586.4,453.3h2.1v-1.4h-2.1V453.3z M591.8,449.4h-2.1v1.4h2.1V449.4z M591.8,451.9h-2.1v1.4h2.1V451.9z M593,458.2
				c0-0.1-0.1-0.3-0.1-0.5c-1.9,0.2-2.2,0.3-2.4,0.4c-0.1-0.2-0.2-0.6-0.3-0.9c0.2,0,0.3-0.2,0.4-0.4c0.2-0.2,0.6-1.2,0.8-2.1
				l0.9,0.3c-0.3,0.8-0.6,1.5-1,2.2l1.3-0.1c-0.2-0.4-0.3-0.8-0.5-1.1l0.7-0.3c0.4,0.7,0.8,1.6,1,2.2L593,458.2z"/>
			<path class="st1" d="M608.2,449.1c0,0,0,0.5,0,0.7c-0.2,6.8-0.4,9.1-1,9.8c-0.4,0.5-0.7,0.6-1.3,0.7c-0.5,0.1-1.4,0-2.3,0
				c0-0.4-0.2-1-0.5-1.4c1,0.1,1.8,0.1,2.2,0.1c0.3,0,0.5,0,0.6-0.3c0.5-0.5,0.7-2.8,0.9-8.4h-3.5c-0.4,1-0.9,1.8-1.4,2.5
				c-0.2-0.2-0.8-0.6-1.1-0.8v6.9h-4.1v1.1h-1.3v-11h1.7c0.2-0.7,0.4-1.7,0.5-2.4l1.5,0.3c-0.3,0.8-0.5,1.5-0.8,2.2h2.4v2.8
				c1-1.3,1.8-3.3,2.2-5.3l1.3,0.3c-0.2,0.7-0.4,1.4-0.6,2H608.2z M596.8,450.4v2.8h2.8v-2.8H596.8z M599.6,457.8v-3.3h-2.8v3.3
				H599.6z M604.6,456.6c-0.4-0.9-1.4-2.4-2.2-3.5l1.1-0.6c0.8,1,1.8,2.5,2.3,3.3L604.6,456.6z"/>
			<path class="st1" d="M621.2,450.7c-0.8,2.3-1.9,4.1-3.3,5.6c1.6,1.3,3.6,2.3,5.9,2.8c-0.3,0.3-0.7,0.9-0.9,1.3
				c-2.4-0.6-4.4-1.7-6-3.1c-1.7,1.4-3.7,2.5-6.1,3.2c-0.2-0.4-0.6-1-0.9-1.3c2.4-0.6,4.4-1.6,6-2.9c-1.5-1.5-2.6-3.4-3.4-5.6h-2.3
				v-1.4h6.5c-0.2-0.6-0.6-1.6-1-2.3l1.5-0.4c0.4,0.7,0.9,1.7,1.1,2.3l-1.3,0.4h6.7v1.4H621.2z M613.8,450.7c0.7,1.8,1.7,3.3,3,4.6
				c1.2-1.3,2.1-2.8,2.8-4.6H613.8z"/>
			<path class="st1" d="M638.2,456.1h-5.7v2.8c0,0.8-0.2,1.2-0.8,1.4c-0.6,0.2-1.5,0.2-2.7,0.2c-0.1-0.4-0.4-1-0.6-1.4
				c0.9,0,2,0,2.3,0c0.3,0,0.4-0.1,0.4-0.3v-2.8h-5.7v-1.3h5.7v-0.9c0.8-0.4,1.6-1,2.3-1.5h-5.5v-1.3h6.9l0.3-0.1l0.9,0.7
				c-0.9,0.9-2.2,1.9-3.4,2.6v0.4h5.7V456.1z M626.8,451.5h-1.4v-3.2h5.7c-0.2-0.4-0.4-0.8-0.7-1.2l1.4-0.4c0.4,0.5,0.8,1.1,1,1.6
				h5.2v3.2h-1.4v-1.9h-9.8V451.5z"/>
			<path class="st17" d="M651,446.5c-0.4,0.6-0.8,1.3-1.3,2v12.4h-1.9v-10c-1.8,2-4,3.8-6.5,5.1c-0.3-0.5-0.8-1.2-1.2-1.6
				c3.6-1.8,6.7-4.8,8.5-7.9h-8v-1.8h16.3v1.8H651z M651.1,449.4c2.1,1.4,5,3.6,6.4,5l-1.5,1.4c-1.3-1.5-4.1-3.7-6.2-5.3
				L651.1,449.4z"/>
			<path class="st17" d="M672.4,455.6c-0.6,0.9-1.3,1.7-2.1,2.4c2.2,0.5,4.2,1.1,5.6,1.6l-1.6,1.2c-1.5-0.6-3.5-1.2-5.8-1.7
				c-2.1,1-5,1.5-8.6,1.8c-0.1-0.5-0.4-1.2-0.7-1.5c2.6-0.1,4.7-0.4,6.5-0.9c-1.3-0.3-2.7-0.5-4.1-0.8c0.5-0.6,1-1.3,1.6-2.1h-3.9
				v-1.5h4.8c0.4-0.6,0.8-1.3,1-1.9l1.8,0.4c-0.2,0.5-0.5,1-0.8,1.5h5.1c0.2-0.3,0.3-0.7,0.4-1.1l1.7,0.5c-0.1,0.2-0.2,0.4-0.2,0.6
				h3.1v1.5H672.4z M664.7,445.7h-5.1v-1.5h16.3v1.5h-5.2v1.4h4.5v5h-14.7v-5h4.1V445.7z M662.2,450.7h2.5v-2.2h-2.5V450.7z
				 M665.2,455.6c-0.3,0.4-0.6,0.8-0.8,1.2c1.3,0.2,2.5,0.5,3.8,0.7c0.9-0.5,1.6-1.1,2.2-1.9H665.2z M669,445.7h-2.7v1.4h2.7V445.7z
				 M666.3,450.7h2.7v-2.2h-2.7V450.7z M670.7,448.5v2.2h2.8v-2.2H670.7z"/>
			<path class="st1" d="M689.9,456.2h1.8v1.1h-1.8v2c0,0.6-0.1,0.9-0.6,1.1c-0.5,0.2-1.2,0.2-2.2,0.2c-0.1-0.3-0.2-0.8-0.4-1.1
				c0.7,0,1.4,0,1.6,0c0.2,0,0.3-0.1,0.3-0.2v-2h-2.8c0.6,0.5,1.1,1.2,1.4,1.7l-1,0.7c-0.3-0.5-0.8-1.3-1.3-1.8l0.9-0.5h-1.6v0.8
				h-2.4v2.5h-1.2V458h-2.5v-1.2h2.5v-1h-2v-5.3h2v-1h-2.3v-1.2h2.3v-1.5h1.2v1.5h2.2v1.2h-2.2v1h2.1v5.3h-2.1v1h2.4v-0.6h4.6v-0.7
				h1.3V456.2z M679.4,452.6h1.2v-1.1h-1.2V452.6z M679.4,454.7h1.2v-1.1h-1.2V454.7z M682.7,451.5h-1.2v1.1h1.2V451.5z
				 M682.7,453.6h-1.2v1.1h1.2V453.6z M684,454.4c0.9,0,2,0,3.1,0v-0.9h-2.7v-3.9h2.7v-0.7h-3v-1h3v-1.1h1.2v1.1h3.1v1h-3.1v0.7h2.8
				v3.9h-0.8c0.6,0.6,1.1,1.3,1.4,1.8l-1,0.5c-0.1-0.2-0.2-0.4-0.4-0.6c-2.3,0.1-4.6,0.1-6.3,0.2L684,454.4z M685.6,451.1h1.6v-0.8
				h-1.6V451.1z M687.2,452.7v-0.8h-1.6v0.8H687.2z M688.4,450.4v0.8h1.6v-0.8H688.4z M690,451.9h-1.6v0.8h1.6V451.9z M688.4,454.3
				l1.3,0c-0.2-0.2-0.3-0.4-0.5-0.6l0.5-0.2h-1.3V454.3z"/>
			<path class="st1" d="M699.3,448.9l1,0.3c-0.8,5.9-3,9.5-6.2,11.3c-0.2-0.3-0.8-0.9-1.2-1.2c1.7-0.9,3.2-2.2,4.2-4.1
				c-0.6-0.7-1.4-1.6-2.2-2.3c-0.3,0.5-0.6,0.9-0.9,1.3c-0.3-0.2-0.9-0.7-1.2-0.9c1.3-1.5,2.2-4,2.8-6.6l1.4,0.3
				c-0.1,0.7-0.3,1.3-0.5,2h2.5L699.3,448.9z M696.1,450.3c-0.2,0.5-0.4,1-0.6,1.4c0.7,0.6,1.6,1.5,2.2,2.1c0.4-1,0.7-2.2,0.9-3.6
				H696.1z M703.3,451.3c1.2,1,2.8,2.4,3.5,3.4l-1.2,1c-0.6-0.8-1.8-2-2.8-3v7.9h-1.5v-13.8h1.5v4.9L703.3,451.3z"/>
			<path class="st1" d="M710.5,449.3h2.7v1.1h-5.3v-1.1H710.5c-0.3-0.6-0.7-1.4-1-2l1-0.6c0.4,0.6,0.9,1.4,1.1,2L710.5,449.3z
				 M712.8,459.7h-3.2v0.7h-1.1v-5.1h4.3V459.7z M712.7,452.4h-4.2v-1.1h4.2V452.4z M708.5,453.2h4.2v1.1h-4.2V453.2z M709.6,456.4
				v2.1h2v-2.1H709.6z M721.6,458.6v1.3h-8v-12.2h7.8v1.3H715v9.7H721.6z M717.6,456.2v-2h-1.8V453h1.8v-1.8h-2V450h5.2v1.2h-2v1.8
				h1.7v1.2h-1.7v2h2.2v1.2h-5.6v-1.2H717.6z"/>
			<path class="st1" d="M724.4,455.7c1.2-0.4,1.8-1.1,1.9-2c-0.1,0-0.1,0-0.2,0c-0.7,0-1.3-0.4-1.3-1.2c0-0.8,0.6-1.2,1.3-1.2
				c0.9,0,1.4,0.7,1.4,1.9c0,1.7-1,3-2.8,3.5L724.4,455.7z"/>
			<path class="st1" d="M736.7,456.3c-2,0.9-4.2,1.9-5.9,2.6l-0.5-1.5c0.6-0.2,1.3-0.5,2-0.8l-0.3-9l1.5-0.1l0.3,8.5
				c0.9-0.4,1.8-0.7,2.6-1.1L736.7,456.3z M743.1,460.5c-0.6-1-1.9-2.5-3.1-3.8c-1.1,1.7-2.7,2.9-4.9,3.9c-0.2-0.3-0.8-0.9-1.1-1.2
				c5-1.8,6.5-5.5,7.2-11.8l1.5,0.1c-0.3,3.2-0.9,5.7-1.9,7.7c1.3,1.3,2.8,2.9,3.5,4L743.1,460.5z M737.5,452.9
				c-0.4-1-1.3-2.6-2.3-3.7l1.3-0.6c1,1.1,1.9,2.5,2.4,3.6L737.5,452.9z"/>
			<path class="st1" d="M749.9,450.3c-0.3,0.7-0.8,1.4-1.2,2v8.2h-1.3V454c-0.4,0.4-0.8,0.8-1.2,1.2c-0.1-0.3-0.5-1-0.8-1.3
				c1.2-1,2.5-2.5,3.3-4L749.9,450.3z M749.6,447.2c-0.8,1.3-2.2,2.7-3.4,3.6c-0.2-0.3-0.5-0.8-0.7-1c1.1-0.8,2.2-2,2.8-3.1
				L749.6,447.2z M757.9,454.8c-0.6,1.4-1.5,2.5-2.7,3.4c1.1,0.5,2.4,0.9,3.8,1.2c-0.3,0.3-0.7,0.9-0.8,1.2
				c-1.6-0.3-2.9-0.8-4.2-1.5c-1.3,0.7-2.7,1.2-4.2,1.6c-0.1-0.3-0.4-0.9-0.7-1.2c1.3-0.2,2.6-0.6,3.7-1.2c-0.5-0.4-0.9-0.8-1.4-1.2
				c-0.3,0.3-0.7,0.6-1.1,0.9c-0.2-0.3-0.7-0.8-0.9-1c0.4-0.2,0.8-0.6,1.2-0.9c-0.3-0.4-0.5-0.8-0.8-1.2l1.1-0.4
				c0.1,0.3,0.3,0.5,0.5,0.8c0.5-0.5,0.9-1.1,1.2-1.7c-1.9,0.1-2.3,0.2-2.6,0.3c0-0.3-0.3-0.9-0.4-1.3c0.4-0.1,1-0.3,1.7-0.7
				c0.3-0.2,0.9-0.5,1.7-1c-1.9,0.1-2.3,0.2-2.6,0.3c-0.1-0.3-0.3-1-0.5-1.3c0.3-0.1,0.6-0.3,1-0.5c0.4-0.3,1.7-1.3,2.5-2.3l1.4,0.6
				c-0.8,0.8-1.8,1.6-2.7,2.2l2.4-0.1c0.6-0.5,1.3-1,1.8-1.5l1.3,0.7c-1.6,1.4-3.4,2.5-5.1,3.5l4-0.2c-0.3-0.4-0.6-0.8-0.8-1.1
				l1.1-0.6c0.8,1,1.9,2.4,2.4,3.2l-1.2,0.7c-0.2-0.3-0.4-0.8-0.7-1.2l-3.1,0.2c-0.2,0.4-0.4,0.7-0.6,1.1h3.3l0.2-0.1L757.9,454.8z
				 M752.7,455.6c-0.1,0.2-0.3,0.4-0.5,0.6c0.5,0.5,1.1,1,1.8,1.4c0.8-0.5,1.5-1.2,2.1-2H752.7z"/>
			<path class="st1" d="M766.2,450.6c0,0.7-0.1,1.4-0.2,2.1h6.4c0,0,0,0.4-0.1,0.6c-0.3,4.1-0.6,5.8-1.2,6.4
				c-0.4,0.4-0.8,0.5-1.4,0.6c-0.6,0-1.5,0-2.5,0c0-0.4-0.2-1-0.5-1.4c1.1,0.1,2.1,0.1,2.5,0.1c0.3,0,0.5,0,0.7-0.2
				c0.4-0.3,0.7-1.7,0.9-4.8h-5.1c-0.5,2.6-1.6,5-4.3,6.5c-0.2-0.4-0.6-0.9-1-1.1c3.7-1.9,4.1-5.5,4.2-8.8h-3.9v-1.4h6.4
				c-0.2-0.6-0.6-1.5-0.9-2.1l1.4-0.5c0.4,0.7,0.9,1.6,1.1,2.2l-1,0.4h6.2v1.4H766.2z"/>
			<path class="st1" d="M779.8,447.2c-0.4,1.1-0.9,2.2-1.4,3.3v10h-1.3v-7.8c-0.3,0.5-0.7,0.9-1,1.3c-0.1-0.3-0.5-1.1-0.8-1.4
				c1.3-1.4,2.5-3.6,3.2-5.8L779.8,447.2z M784.9,455.7c-0.1,0.9-0.5,1.7-1,2.4c1.5,0.6,3.4,0.9,5.5,1c-0.3,0.3-0.7,0.9-0.8,1.3
				c-2.2-0.2-4.1-0.6-5.6-1.3c-0.8,0.6-1.8,1.1-3.2,1.5c-0.2-0.3-0.6-0.9-0.9-1.1c1.2-0.3,2.1-0.6,2.8-1c-0.8-0.5-1.5-1.2-2-2
				l1.2-0.4c0.4,0.6,1,1.1,1.8,1.5c0.5-0.6,0.8-1.2,0.9-1.9h-3.4v-5.8h3.6v-1.1h-3.9v-1.2h9.1v1.2H785v1.1h3.5v5.8H784.9z
				 M781.4,452.3h2.3V451h-2.3V452.3z M783.6,454.7c0-0.2,0-0.5,0-0.7v-0.6h-2.3v1.4H783.6z M787.1,453.3H785v0.7c0,0.2,0,0.5,0,0.7
				h2.1V453.3z M785,451v1.3h2.1V451H785z"/>
			<path class="st1" d="M792,456.6c-0.2,1.3-0.4,2.7-0.7,3.6c-0.2-0.1-0.8-0.3-1-0.4c0.3-0.9,0.5-2.2,0.6-3.4L792,456.6z
				 M790.7,452.4C790.7,452.4,790.7,452.5,790.7,452.4c-0.1-0.2-0.3-0.8-0.4-1.1c0.3-0.1,0.5-0.4,0.8-0.8c0.3-0.5,1.3-2.1,1.8-3.7
				l1.2,0.5c-0.6,1.3-1.3,2.7-2.1,3.8l1.3-0.1c0.4-0.7,0.8-1.4,1.1-2.1l1.1,0.7c-0.9,1.7-2,3.4-3.2,4.8l2.2-0.3
				c-0.2-0.5-0.3-0.9-0.5-1.4l0.9-0.3c0.4,0.9,0.9,2.1,1,2.8l-1,0.4c0-0.2-0.1-0.3-0.1-0.5c-3.2,0.5-3.6,0.6-3.9,0.8
				c-0.1-0.3-0.3-0.9-0.4-1.2c0.3-0.1,0.7-0.5,1.1-1c0.2-0.3,0.7-0.8,1.2-1.6C791.2,452.3,790.9,452.3,790.7,452.4L790.7,452.4z
				 M793.4,456.3c0.2,1,0.3,2.2,0.4,3.1l-1,0.3c0-0.9-0.2-2.1-0.3-3.1L793.4,456.3z M797.3,453c-0.1,2.4-0.3,5.4-1.1,7.5
				c-0.3-0.2-0.8-0.5-1.1-0.6c0.2-0.5,0.3-1,0.5-1.5l-0.8,0.3c-0.1-0.7-0.4-1.7-0.7-2.4l0.9-0.3c0.2,0.6,0.5,1.4,0.6,2
				c0.5-2.2,0.5-4.7,0.5-6.5v-3.7c2.2-0.2,4.8-0.6,6.2-1l1,0.9c-1.6,0.5-3.9,0.8-6,1v0.8h6v3.5H797.3z M803.6,459.4
				c0,0.5-0.1,0.7-0.4,0.9c-0.3,0.2-0.6,0.2-1.2,0.2c0-0.3-0.1-0.7-0.3-1c0.3,0,0.5,0,0.6,0c0.1,0,0.1,0,0.1-0.1v-1.8h-0.9v2.8h-0.8
				v-2.8H800v2.8h-0.8v-2.8h-0.9v3h-1v-6.7h6.3V459.4z M797.4,450.6v0.9v0.4h4.7v-1.3H797.4z M799.2,456.4V455h-0.9v1.5H799.2z
				 M800.9,456.4V455H800v1.5H800.9z M802.5,456.4V455h-0.9v1.5H802.5z"/>
			<path class="st1" d="M818.4,452.4v5.4h0.8v1.2h-0.8v1.6h-1.3V459h-5.5V458h-2.3v2.5H808V458h-2.6v-1.2h2.6v-1.1h-2.1v-5.3h2.1v-1
				h-2.5v-1.2h2.5v-1.5h1.2v1.5h2.4v1.2h-2.4v1h2.2v5.3h-2.2v1.1h2.6v0.9h0.8v-5.4h-0.9v-1.1h7.4v1.1H818.4z M806.9,452.6h1.2v-1.1
				h-1.2V452.6z M806.9,454.7h1.2v-1.1h-1.2V454.7z M810.4,451.5h-1.2v1.1h1.2V451.5z M810.4,453.6h-1.2v1.1h1.2V453.6z
				 M818.4,450.5h-5.8v-3.3h5.8V450.5z M817,448.3h-3.1v1.2h3.1V448.3z M817.1,452.4H814v1.1h3.1V452.4z M817.1,454.5H814v1.1h3.1
				V454.5z M817.1,457.7v-1.1H814v1.1H817.1z"/>
		</g>
	</g>
	<polygon class="st1" points="519.5,445.2 527.7,445.2 523.6,452.3 519.5,459.4 515.5,452.3 511.4,445.2 	"/>
</g>
<g>
	<g>
		<g>
			<g>
				
					<text transform="matrix(1 0 0 1 878.3416 541.2766)" class="st1" style="font-family:'SourceHanSansTW-Medium-B5pc-H'; font-size:12px;">105</text>
			</g>
			<g>
				
					<text transform="matrix(1 0 0 1 878.3416 610.9434)" class="st1" style="font-family:'SourceHanSansTW-Medium-B5pc-H'; font-size:12px;">100</text>
			</g>
			<g>
				
					<text transform="matrix(1 0 0 1 878.3416 747.6934)" class="st1" style="font-family:'SourceHanSansTW-Medium-B5pc-H'; font-size:12px;">90</text>
			</g>
		</g>
		<line class="st2" x1="871.8" y1="502.2" x2="871.8" y2="840.2"/>
		<g>
			<polygon class="st3" points="872.3,743.5 872.3,742 874.1,742.7 875.9,743.5 874.1,744.2 872.3,745 			"/>
			<polygon class="st3" points="872.3,675 872.3,673.5 874.1,674.2 875.9,675 874.1,675.8 872.3,676.5 			"/>
			<polygon class="st3" points="872.3,812.4 872.3,810.9 874.1,811.7 875.9,812.4 874.1,813.2 872.3,814 			"/>
			<polygon class="st3" points="872.3,606.7 872.3,605.2 874.1,606 875.9,606.7 874.1,607.5 872.3,608.3 			"/>
			<polygon class="st3" points="872.3,538 872.3,536.5 874.1,537.2 875.9,538 874.1,538.8 872.3,539.5 			"/>
		</g>
		<g>
			<line class="st2" x1="872.3" y1="572.5" x2="874.6" y2="572.5"/>
			<line class="st2" x1="872.3" y1="640.6" x2="874.6" y2="640.6"/>
			<line class="st2" x1="872.3" y1="709.7" x2="874.6" y2="709.7"/>
			<line class="st2" x1="872.3" y1="778" x2="874.6" y2="778"/>
		</g>
		<polygon class="st4" points="950,648.3 883.9,648.3 877,651.2 883.9,632 950,632 		"/>
		<g>
			
				<text transform="matrix(1 0 0 1 887.0524 644.2925)" class="st0" style="font-family:'SourceHanSansTW-Medium-B5pc-H'; font-size:12px;">96.746689</text>
		</g>
		<polygon class="st5" points="950,667.5 883.9,667.5 877,659.3 883.9,651.2 950,651.2 		"/>
		<g>
			
				<text transform="matrix(1 0 0 1 887.0524 663.4893)" class="st0" style="font-family:'SourceHanSansTW-Medium-B5pc-H'; font-size:12px;">96.174843</text>
		</g>
		<polygon class="st6" points="950,687.5 883.9,687.5 877,669.5 883.9,671.2 950,671.2 		"/>
		<g>
			
				<text transform="matrix(1 0 0 1 887.0524 683.5193)" class="st0" style="font-family:'SourceHanSansTW-Medium-B5pc-H'; font-size:12px;">95.471405</text>
		</g>
		<polygon class="st7" points="950,814.9 883.9,814.9 877,806.7 883.9,798.6 950,798.6 		"/>
		<g>
			
				<text transform="matrix(1 0 0 1 887.0524 810.9073)" class="st0" style="font-family:'SourceHanSansTW-Medium-B5pc-H'; font-size:12px;">85.443756</text>
		</g>
		<g>
			<g>
				
					<text transform="matrix(1 0 0 1 47.1298 855.2283)" class="st1" style="font-family:'SourceHanSansTW-Medium-B5pc-H'; font-size:12px;">1月</text>
			</g>
			<g>
				
					<text transform="matrix(1 0 0 1 151.6298 855.2283)" class="st1" style="font-family:'SourceHanSansTW-Medium-B5pc-H'; font-size:12px;">2月</text>
			</g>
			<g>
				
					<text transform="matrix(1 0 0 1 256.6298 855.2283)" class="st1" style="font-family:'SourceHanSansTW-Medium-B5pc-H'; font-size:12px;">3月</text>
			</g>
			<g>
				
					<text transform="matrix(1 0 0 1 364.1298 855.2283)" class="st1" style="font-family:'SourceHanSansTW-Medium-B5pc-H'; font-size:12px;">4月</text>
			</g>
			<g>
				
					<text transform="matrix(1 0 0 1 473.1298 855.2283)" class="st1" style="font-family:'SourceHanSansTW-Medium-B5pc-H'; font-size:12px;">5月</text>
			</g>
			<g>
				
					<text transform="matrix(1 0 0 1 584.1299 855.2283)" class="st1" style="font-family:'SourceHanSansTW-Medium-B5pc-H'; font-size:12px;">6月</text>
			</g>
			<g>
				
					<text transform="matrix(1 0 0 1 690.63 855.2283)" class="st1" style="font-family:'SourceHanSansTW-Medium-B5pc-H'; font-size:12px;">7月</text>
			</g>
			<g>
				
					<text transform="matrix(1 0 0 1 803.63 855.2283)" class="st1" style="font-family:'SourceHanSansTW-Medium-B5pc-H'; font-size:12px;">8月</text>
			</g>
		</g>
		<g>
			
				<text transform="matrix(1 0 0 1 434.4141 879.239)" class="st1" style="font-family:'SourceHanSansTW-Bold-B5pc-H'; font-size:12px;">2018</text>
		</g>
		<line class="st8" x1="0" y1="840.2" x2="871.8" y2="840.2"/>
		<g class="st9">
			<line class="st10" x1="0" y1="538" x2="872.3" y2="538"/>
			<line class="st10" x1="0" y1="606.7" x2="872.3" y2="606.7"/>
			<line class="st10" x1="0" y1="675.5" x2="872.3" y2="675.5"/>
			<line class="st10" x1="0" y1="743.5" x2="872.3" y2="743.5"/>
			<line class="st10" x1="0" y1="812.4" x2="872.3" y2="812.4"/>
			<line class="st10" x1="111.4" y1="502.2" x2="111.4" y2="840.2"/>
			<line class="st10" x1="211.4" y1="502.2" x2="211.4" y2="840.2"/>
			<line class="st10" x1="322" y1="502.2" x2="322" y2="840.2"/>
			<line class="st10" x1="426.4" y1="502.2" x2="426.4" y2="840.2"/>
			<line class="st10" x1="541.6" y1="502.2" x2="541.6" y2="840.2"/>
			<line class="st10" x1="645.4" y1="502.2" x2="645.4" y2="840.2"/>
			<line class="st10" x1="756" y1="502.2" x2="756" y2="840.2"/>
		</g>
		
			<text transform="matrix(1 0 0 1 38.7998 667.489)" class="st1" style="font-family:'SourceHanSansTW-Regular-B5pc-H'; font-size:16.8931px;">2018/1=100</text>
		<g>
			
				<text transform="matrix(1 0 0 1 694.1942 538.4058)" class="st5" style="font-family:'SourceHanSansTW-Bold-B5pc-H'; font-size:16.8931px;">韓元：                -3.8%</text>
			
				<text transform="matrix(1 0 0 1 694.1942 561.1285)" class="st6" style="font-family:'SourceHanSansTW-Bold-B5pc-H'; font-size:16.8931px;">人民幣：            -4.5%</text>
			
				<text transform="matrix(1 0 0 1 694.1942 606.573)" class="st7" style="font-family:'SourceHanSansTW-Bold-B5pc-H'; font-size:16.8931px;">俄羅斯盧布： -14.6%</text>
			
				<text transform="matrix(1 0 0 1 694.1942 583.8505)" class="st4" style="font-family:'SourceHanSansTW-Bold-B5pc-H'; font-size:16.8931px;">捷克克朗：        -3.3%</text>
		</g>
		<g>
			<g>
				<rect x="22.3" y="705.5" class="st5" width="10" height="10"/>
				<text transform="matrix(1 0 0 1 38.7998 716.8398)" class="st11"><tspan x="0" y="0" class="st5" style="font-family:'SourceHanSansTW-Bold-B5pc-H'; font-size:16.8931px;">KRWUSD Curncy</tspan><tspan x="131" y="0" class="st5" style="font-family:'SourceHanSansTW-Bold-B5pc-H'; font-size:16.8931px;">  96.174843</tspan></text>
			</g>
			<g>
				<rect x="22.3" y="729.9" class="st6" width="10" height="10"/>
				
					<text transform="matrix(1 0 0 1 38.7998 741.1732)" class="st6" style="font-family:'SourceHanSansTW-Bold-B5pc-H'; font-size:16.8931px;">CNYUSD Curncy  95.471405</text>
			</g>
			<g>
				<g>
					<rect x="22.3" y="754.2" class="st4" width="10" height="10"/>
					
						<text transform="matrix(1 0 0 1 38.7998 765.5064)" class="st4" style="font-family:'SourceHanSansTW-Bold-B5pc-H'; font-size:16.8931px;">CZKUSD Curncy  96.746689</text>
				</g>
			</g>
			<g>
				<rect x="22.3" y="778.5" class="st7" width="10" height="10"/>
				
					<text transform="matrix(1 0 0 1 38.7998 789.8398)" class="st7" style="font-family:'SourceHanSansTW-Bold-B5pc-H'; font-size:16.8931px;">RUBUSD Curncy  85.443756</text>
			</g>
		</g>
		<polyline class="st12" points="1.7,605.7 6.9,602.1 12.4,603.9 17.2,601.1 21.7,601.1 27,610.1 31.7,613.1 38.1,610.9 40,605.9 
			42.9,604.9 46.7,597.9 52,602.7 57.9,603.7 66.9,612.1 71.4,608.1 76.9,610.1 81.2,616.1 87.4,603.7 92,606.7 97.4,603.9 
			101.2,612.1 107.2,614.6 112.2,610.9 117.4,612.1 121.2,636.6 127,642.2 132.2,623.4 141.9,645.2 147,629.4 151.7,626.7 
			157,630.4 161,612.1 166.7,603.4 172.2,607.4 177,608.4 181.7,617.9 187.2,619.1 192,624.7 202.2,612.1 207,624.7 211.4,629.2 
			226,621.6 231.5,603.7 237.2,606.7 241.5,615.7 246.2,604.6 252.4,604.2 255.2,606.7 261.4,603.7 266.5,610.9 271.7,612.1 
			276.7,615.7 282,613.6 286.7,604.4 291.5,625.1 295.9,628.1 301.5,618.4 306.4,617.2 311.5,603.2 322,598.7 326,593.5 
			331.5,591.6 341.4,601.2 345.9,610.9 347.1,612.1 351.9,610.1 356.2,604.1 363,606.7 365.2,610.9 371.5,613.7 378.7,609.7 
			386.7,604.2 396.7,612.1 400.5,625.4 406.5,620.4 411.5,625.9 416.9,620.1 421.2,608.6 431.9,615.6 436.2,623.1 440.9,617.6 
			446.2,616.6 451,624.1 456.5,621.6 461.4,622.9 465.9,605.1 475.9,612.1 480.3,625.3 486.2,620.6 491.1,626.6 497.4,625.1 
			500.9,620.6 506.4,619.4 511.4,620.7 516,625.6 525.5,617.6 530.5,628.4 536.2,619.9 541.6,624.7 545.7,614.6 551.2,612.1 
			555.7,613.2 561,606.7 566.4,614.9 575.7,620.2 581.5,627.6 590.7,634.9 595.5,652.7 601.2,652.7 606.4,663.5 610.9,660.2 
			616,660.9 622.7,663.5 626.2,667.6 632.3,671.2 635.5,675.5 640.2,673.6 646.2,665.1 651.7,671.2 656,666.4 660.9,667.9 
			666.2,671.2 671,666.4 675.7,664.4 681.4,665.2 685.9,681.6 690.5,676.9 695.5,683.5 705,680.2 715.3,689.6 720.4,681.6 
			725.7,688.2 735.5,669.6 740.5,677.2 745.5,666.7 750.4,669.5 756,663.5 764.9,680.7 770.7,675.5 775.4,679.2 780.7,669.5 
			785.9,668.6 800.5,691.7 805.2,681.6 810.5,687.5 820,671.2 830.1,668.2 835.7,670.4 840.9,677.2 845,666.1 851,659.3 
			855.7,657.9 860,659.3 		"/>
		<polyline class="st13" points="1.7,605.7 6.5,603.7 13.1,606 18.8,603.1 23.7,603.1 28.4,606.7 31.7,613.1 36.8,606.7 40,605.9 
			46.7,595 52.4,592.2 56.5,593.7 72,584.9 82.2,584.9 91.9,567.1 97.7,564.7 101.9,569.6 107.3,565.9 112.2,558.7 118.3,562.6 
			122.8,562.4 127.4,558.1 132.7,558.1 136.5,554.4 142,568.4 147,558.7 151.8,569.4 162.3,572.9 171.7,571.9 176.9,572.2 
			182,570.9 188.7,573.7 197.2,569.2 202.9,564.4 211.4,567.4 215.3,575.4 220.9,572.4 226.7,572.6 231.9,563.7 241.7,570.5 
			258.5,566.1 262.9,565.4 272.2,569.4 283.3,569.1 286.7,567.2 291.4,570 301.3,558.2 306.5,558.3 311.5,561.1 322,559.1 
			326.4,556 336.4,562.7 351.5,562.6 356.3,557.1 361.9,555.2 366.3,559.7 371.5,556.1 376.3,559.7 387,555.6 393.9,558.7 
			401,565.1 406.2,563.1 412.7,569.5 416.2,574.7 420.8,569.2 432,569.4 436.2,575.1 441.2,573.2 447.7,575.6 456,576.6 
			462.8,574.6 471.3,569.1 476,569.9 481.5,577.1 487.7,577.1 491.8,576.5 496.7,579.6 501.8,579.5 506,576.7 511.3,581.4 
			516.3,579.2 526.3,583.7 530.8,588.1 536.5,588.1 541.6,585.7 546,588.5 551.5,586 556.2,585 560.8,581.4 565.9,582.1 570.9,585 
			575.5,581.9 582,585 585.9,582.7 590.3,583.7 596.3,592.6 601,592.4 606.2,601.6 611.3,599.4 614.5,602.6 621.3,606.7 
			630.7,621.6 640.8,631.2 645.4,630.4 651.2,639.4 654.4,635.6 660.8,632.7 670.9,634.4 675.7,629.6 681.2,632.9 685.9,641.7 
			690.5,638.9 695.9,644.3 701.4,644.9 711.8,651.5 715.3,660.9 720.9,660 726.2,665.2 730.7,664.4 735.7,660.4 746.5,669 
			757.3,668.1 764.9,674 770.4,671.2 775.4,675.5 780.5,672.4 786.8,672.4 792,668.9 800.7,682.6 805,682.1 810.8,691.7 
			815.3,681.6 835.4,673.5 840.5,680.1 845,667.5 850.2,669.5 856.2,666 860,668.2 		"/>
		<polyline class="st14" points="1.7,605.7 6.5,599.1 12.4,603.9 17.2,597.9 26.7,612.2 31.9,615.6 37,613.7 43.4,597.2 46.5,582.9 
			56.5,571.3 62,578.4 67,571.3 73.4,574.7 81.7,566.6 87,552.9 91.9,552.1 97.4,545.1 102.4,550.7 112.7,545.1 116.7,530.4 
			126.9,547.1 132,546.9 137,562.7 142,569.9 147,569.9 157.5,557.6 161,547.9 166.4,539.6 171.9,549.9 176.5,548.4 186.9,564.9 
			191.7,559.7 195.9,564.6 202.2,562.6 206.9,575.6 211.4,578.6 216.5,571.4 221.2,562.1 226.5,562.4 231.4,553.2 236.9,554.6 
			241.2,565.6 246.9,568.9 256.2,560.2 260.7,560.4 271.9,567.7 276.7,563.4 281.5,573 286.7,561.6 291.7,566.1 297.7,558.9 
			301.4,552.1 308,560.2 311.5,568.1 322,560.1 326.9,564.6 331.4,565.1 336,564.1 341.2,568.7 347,565.9 355.7,553.9 361.9,553.9 
			366.9,557.4 371.5,556.1 376.4,548.7 381.9,552.1 386.2,551.9 391.5,556.9 396.4,565.1 400.7,577.6 406.4,576.1 416.5,592.2 
			421,588.9 431.9,615.6 436.2,616.9 441.5,606.7 446.9,609.2 450.5,614.7 455.7,625.2 461.5,626.7 466,613.9 471.2,610.9 
			476.2,613.7 481.2,627.7 486.9,629.1 495.9,639.6 506.2,640.4 511.2,653.4 515.7,653.4 526.2,661.7 531,679.4 536.4,661.6 
			541.6,656.7 546.7,660.7 550.7,650.7 560.9,640.2 571.2,644.3 575.7,638.1 580.9,645.1 586,639.2 590.9,667.9 596.2,663.5 
			601,663.5 605.2,669.4 610.7,671.2 616.5,669.2 620.9,659.9 625.7,660.2 630.9,667.7 635.7,679.4 641.4,677.1 645.4,667.2 
			651.2,677.6 656.2,676.6 662.2,670.4 670.7,655.9 675.5,651.9 681.2,651.7 685.9,665.9 690.4,664.6 697.9,660.1 700,656.9 
			704.4,661.2 705.5,663.5 710,664.6 716.2,667.9 720.9,656.2 725.9,657.7 735.7,644.3 740.7,654.4 746.5,651.2 750,644.3 
			756,645.7 761.4,649.9 765.4,661.1 770.7,660.2 775.5,664.7 781.2,656.2 785.7,655.2 790.9,665.1 795.9,681.6 802.2,688.4 
			810.2,693.7 816.2,687.5 820,680.4 826.2,677.2 830.4,667.5 835.2,663.5 840.5,670.6 850.2,653.4 860,651.2 		"/>
		<polyline class="st15" points="1.7,605.7 11,588.2 16.4,582.6 21.2,580.4 27.2,586.2 31.7,580.4 36.9,583.9 42,570.1 46.9,575.6 
			51,567.7 57.7,572.1 61.5,579.1 66.5,571.9 72.4,576.1 76.5,570.6 82.7,567.1 91.7,557.1 97,566.4 102.4,565.9 106.9,567.7 
			113.4,562.4 116.7,557.9 127.2,589.6 131.7,579.7 137,606.7 141.9,616.2 147,616.2 151.4,602.2 157.5,598.2 161.7,576.9 
			166.2,568.4 171.9,568.4 182.4,572.1 186.7,577.2 201.7,550.7 206.9,566.1 211.4,567.4 216.7,578.2 221.5,578.2 226.5,568.6 
			231.2,574.9 237.9,581.4 241,586.1 247,574.9 251.4,582.1 261.9,586.4 266.5,594.2 271.9,596.6 276.5,601.6 281.5,596.7 
			286.4,579.9 291.4,589.7 296.4,590.7 301.4,587.6 306.5,591.9 311.2,601.1 322,576.1 325.4,590.2 326.2,594.7 331.5,597.6 
			336.4,594.2 345.4,606.7 347,610.9 356.2,717.9 366,693.9 371.5,696.7 376.7,677.4 381.4,685.6 386.4,671.2 392.7,675.5 
			401,692.9 406,687.4 411,703.7 416.2,711.2 421,699.2 426.4,715.7 436.2,736.4 440.5,715.2 446.4,704.7 455.9,720.1 461.4,718.4 
			466.2,689.9 470.9,697.1 476,693.2 481.2,701.2 485.5,690.1 491.1,699.1 496.4,700.9 500.7,686.9 506.4,680.2 511.5,681.4 
			516.7,688.4 520.9,700.1 526.2,702.9 530.9,713.2 536.2,697.2 540.9,702.4 551.7,697.2 555.9,698.7 560.5,691.7 566,703.4 
			571.2,701.1 575.4,713.2 581.2,717.9 585.5,708.1 591,706.7 596.5,720.4 601.5,724.6 606.4,732.9 611.2,728.4 615.7,729.1 
			621.2,710.7 626.2,715.9 630.4,718.2 636.4,718.1 640.7,712.1 646.5,709.6 650.5,724.2 655.9,718.4 660.4,721.6 670.9,715.4 
			680.5,691.7 685.7,704.2 690.4,700.2 695.7,707.2 701,702.6 711,715.9 715.3,727.6 720.7,726 725.5,717.4 730.5,722.4 736,712.2 
			741.4,715.7 745.4,705.9 750.4,700.6 760.9,714.1 770.5,733.6 776.7,730.7 780.5,726 785,765.4 795.7,805.1 800.9,797.7 
			805.5,780.1 811,796.6 815.5,788.6 820,792.9 825.7,792.1 830.9,795.7 835.4,809.1 840.2,812.4 845.7,794.2 851.9,800.2 
			855.2,806.7 860,806.7 		"/>
	</g>
	<rect y="502.2" class="st8" width="950" height="379"/>
</g>
</svg>
