<?xml version="1.0" encoding="utf-8"?>
<!-- Generator: Adobe Illustrator 22.1.0, SVG Export Plug-In . SVG Version: 6.00 Build 0)  -->
<svg version="1.1" id="圖層_2" xmlns="http://www.w3.org/2000/svg" xmlns:xlink="http://www.w3.org/1999/xlink" x="0px" y="0px"
	 viewBox="0 0 490 492" style="enable-background:new 0 0 490 492;" xml:space="preserve">
<style type="text/css">
	.st0{fill:none;stroke:#000000;stroke-width:5;stroke-miterlimit:10;}
	.st1{fill:none;stroke:#000000;stroke-width:4;stroke-miterlimit:10;}
	.st2{fill:none;stroke:#000000;stroke-miterlimit:10;}
	.st3{fill:none;stroke:#000000;stroke-linejoin:round;stroke-miterlimit:10;}
	.st4{fill:none;stroke:#000000;stroke-width:4;stroke-linecap:round;stroke-linejoin:round;stroke-miterlimit:10;}
</style>
<rect x="73.5" y="74.5" class="st0" width="343" height="343"/>
<rect x="73.5" y="74.5" transform="matrix(0.7071 0.7071 -0.7071 0.7071 245.7071 -101.1894)" class="st0" width="343" height="343"/>
<circle class="st0" cx="245" cy="246" r="202"/>
<circle class="st1" cx="26" cy="141" r="23"/>
<circle class="st1" cx="26" cy="352" r="23"/>
<circle class="st1" cx="141" cy="25" r="23"/>
<circle class="st1" cx="340" cy="25" r="23"/>
<circle class="st1" cx="466" cy="141" r="23"/>
<circle class="st1" cx="466" cy="352" r="23"/>
<circle class="st1" cx="340" cy="466" r="23"/>
<circle class="st1" cx="141" cy="466" r="23"/>
<g>
	<g>
		<circle class="st2" cx="145.1" cy="18.6" r="6.2"/>
		<g>
			<path class="st3" d="M143.3,20c0,0.3,0.1,0.7,0.4,0.9c0.3,0.3,0.6,0.4,0.9,0.4h0.9c0.3,0,0.7-0.1,0.9-0.4
				c0.3-0.3,0.4-0.6,0.4-0.9c0-0.3-0.1-0.7-0.4-0.9c-0.3-0.3-0.6-0.4-0.9-0.4h-0.9c-0.3,0-0.7-0.1-0.9-0.4c-0.3-0.3-0.4-0.6-0.4-0.9
				c0-0.3,0.1-0.7,0.4-0.9c0.3-0.3,0.6-0.4,0.9-0.4h0.9c0.3,0,0.7,0.1,0.9,0.4c0.3,0.3,0.4,0.6,0.4,0.9"/>
			<line class="st3" x1="145.1" y1="16" x2="145.1" y2="14.9"/>
			<line class="st3" x1="145.1" y1="22.4" x2="145.1" y2="21.3"/>
		</g>
	</g>
	<g>
		<g>
			<rect x="122" y="22.7" class="st2" width="7.9" height="16"/>
			<line class="st2" x1="127" y1="36" x2="128" y2="36"/>
		</g>
		<g>
			<path class="st2" d="M150.8,32.2l6.9-4.3c0.4-0.2,0.8-0.3,1.2-0.2c0.4,0.1,0.8,0.3,1.1,0.7l0,0c0.3,0.4,0.4,0.8,0.3,1.3
				c-0.1,0.5-0.3,0.9-0.7,1.2l-12.9,8.5c-0.5,0.3-1.2,0.6-1.9,0.6c-0.7,0.1-1.3,0-1.9-0.2l-10.3-4.1h-2.7"/>
			<path class="st2" d="M138.9,34.4c0-0.9,0.8-1.7,1.7-1.7h9c0.9,0,1.7-0.8,1.7-1.7c0-0.9-0.8-1.7-1.7-1.7h-9l-3.1-2
				c-0.7-0.5-1.5-0.8-2.3-1.1c-0.8-0.2-1.7-0.4-2.5-0.4h-2.7"/>
		</g>
	</g>
	<g>
		<line class="st3" x1="140" y1="12.4" x2="140" y2="10.3"/>
		<line class="st3" x1="148.4" y1="11" x2="148.4" y2="7.8"/>
		<line class="st3" x1="145.1" y1="10" x2="145.1" y2="5.5"/>
	</g>
</g>
<g>
	<path class="st2" d="M39,162.7l-1.8-11.2l3.1-10.2c0.5-1.4,0.7-2.9,0.7-4.5c0-7.7-6.2-13.9-13.9-13.9c-7.7,0-13.9,6.2-13.9,13.9
		l0,1.7l-3.1,9h3.6l0.7,8.8l7-0.6l0.9,7"/>
	<path class="st3" d="M34.9,133.6c0.7-1.3,0.5-3-0.6-4c-1.1-1.1-2.8-1.3-4-0.6c-0.4-1.4-1.7-2.5-3.3-2.5c-1.6,0-2.9,1-3.3,2.5
		c-1.3-0.7-2.9-0.5-4,0.6c-1.1,1.1-1.3,2.8-0.6,4c-1.4,0.4-2.5,1.7-2.5,3.3c0,1.9,1.5,3.4,3.4,3.4h7.1c1.9,0,3.4,1.5,3.4,3.4
		c0-1.9,1.5-3.4,3.4-3.4c0.9,0,1.8-0.4,2.4-1c0.6-0.6,1-1.5,1-2.4C37.4,135.3,36.3,134,34.9,133.6z"/>
	<line class="st2" x1="30.6" y1="143.6" x2="30.6" y2="162.7"/>
	<line class="st3" x1="26.3" y1="135.5" x2="27.7" y2="135.5"/>
	<line class="st3" x1="28.9" y1="135.5" x2="30.4" y2="135.5"/>
	<line class="st3" x1="23.6" y1="135.5" x2="25.1" y2="135.5"/>
</g>
<g>
	<g>
		<path class="st2" d="M28.9,345.2V336H23v9.2c-5.6,1.3-9.7,6.4-9.7,12.3c0,7,5.7,12.7,12.7,12.7c7,0,12.7-5.7,12.7-12.7
			C38.6,351.6,34.5,346.6,28.9,345.2z"/>
		<path class="st2" d="M31.1,334.5c0,0.8-0.7,1.5-1.5,1.5h-7.4c-0.8,0-1.5-0.7-1.5-1.5c0-0.8,0.7-1.5,1.5-1.5h7.4
			C30.5,333,31.1,333.7,31.1,334.5z"/>
		<g>
			<line class="st2" x1="24.8" y1="342.9" x2="23" y2="342.9"/>
			<line class="st2" x1="24.8" y1="340.6" x2="23" y2="340.6"/>
			<line class="st2" x1="24.8" y1="338.3" x2="23" y2="338.3"/>
		</g>
	</g>
	<g>
		<g>
			<path class="st2" d="M24.1,349.6v7.1l-5.1,5.1c-0.8-1.3-1.2-2.8-1.2-4.3C17.8,353.7,20.5,350.5,24.1,349.6 M25.3,348.2
				c-4.8,0.3-8.7,4.4-8.7,9.3c0,2.3,0.9,4.5,2.3,6.1l6.4-6.4V348.2L25.3,348.2z"/>
		</g>
		<g>
			<path class="st2" d="M33.9,359.4c-0.8,3.6-4.1,6.3-7.9,6.3c-1.5,0-3-0.4-4.3-1.2l5.1-5.1H33.9 M35.3,358.2h-9l-6.4,6.4
				c1.6,1.4,3.8,2.3,6.1,2.3C30.9,366.9,34.9,363,35.3,358.2L35.3,358.2z"/>
		</g>
		<g>
			<path class="st2" d="M32.1,350.5l-5.5,5.5v0.8h0.8l5.5-5.5C32.7,351.1,32.4,350.8,32.1,350.5z"/>
			<path class="st2" d="M30,349.1c-0.4-0.2-0.8-0.3-1.2-0.5l-2.2,2.2v1.7L30,349.1z"/>
			<path class="st2" d="M34.8,354.7c-0.1-0.4-0.3-0.8-0.5-1.2l-3.4,3.4h1.7L34.8,354.7z"/>
		</g>
	</g>
</g>
<g>
	<line class="st2" x1="141.6" y1="453.4" x2="141.6" y2="449"/>
	<line class="st2" x1="141.6" y1="476.9" x2="141.6" y2="459"/>
	<rect x="136.6" y="476.9" class="st2" width="10.2" height="2.5"/>
	<rect x="134" y="479.5" class="st2" width="15.2" height="2.5"/>
	<circle class="st2" cx="141.6" cy="456.2" r="2.8"/>
	<circle class="st2" cx="141.6" cy="456.2" r="0.6"/>
	<line class="st2" x1="152.6" y1="459.1" x2="144.3" y2="456.9"/>
	<line class="st2" x1="138.9" y1="455.4" x2="130.7" y2="453.2"/>
	<g>
		<g>
			<line class="st2" x1="133.7" y1="464.2" x2="130.7" y2="453.2"/>
			<line class="st2" x1="130.7" y1="453.2" x2="127.6" y2="464.2"/>
		</g>
		<path class="st2" d="M125.3,464.2c0,2.9,2.4,5.3,5.3,5.3c2.9,0,5.3-2.4,5.3-5.3H125.3z"/>
		<line class="st2" x1="130.7" y1="451.2" x2="130.7" y2="453.2"/>
	</g>
	<g>
		<g>
			<line class="st2" x1="155.6" y1="470.1" x2="152.6" y2="459.1"/>
			<line class="st2" x1="152.6" y1="459.1" x2="149.5" y2="470.1"/>
		</g>
		<path class="st2" d="M147.3,470.1c0,2.9,2.4,5.3,5.3,5.3c2.9,0,5.3-2.4,5.3-5.3H147.3z"/>
		<line class="st2" x1="152.6" y1="457.1" x2="152.6" y2="459.1"/>
	</g>
	<line class="st2" x1="139.1" y1="449" x2="144.2" y2="449"/>
</g>
<g>
	<g>
		<path class="st2" d="M327.9,461.6c0-7,5.7-12.6,12.6-12.6c7,0,12.6,5.6,12.6,12.6"/>
		<path class="st2" d="M334.2,461.6c0-7,2.8-12.6,6.3-12.6"/>
		<path class="st2" d="M346.9,461.6c0-7-2.8-12.6-6.3-12.6"/>
		<line class="st2" x1="340.6" y1="449" x2="340.6" y2="461.6"/>
		<path class="st2" d="M330.7,453.7c3.1,1,6.4,1.6,9.8,1.6c3.4,0,6.8-0.6,9.8-1.6"/>
	</g>
	<g>
		<path class="st2" d="M325.6,461.6v16.8h29.9v-16.8H325.6z M340.6,474.6c-2.5,0-4.5-2-4.5-4.5c0-2.5,2-4.5,4.5-4.5
			c2.5,0,4.5,2,4.5,4.5C345.1,472.5,343.1,474.6,340.6,474.6z"/>
		<path class="st2" d="M350.2,463.9h-19.3c0,1.6-1.3,3-3,3v6.2c1.6,0,3,1.3,3,3h19.3c0-1.6,1.3-3,3-3v-6.2
			C351.5,466.9,350.2,465.6,350.2,463.9z"/>
		<g>
			<path class="st2" d="M339.1,471.1c0,0.3,0.1,0.6,0.3,0.8c0.2,0.2,0.5,0.3,0.8,0.3h0.7c0.3,0,0.6-0.1,0.8-0.3
				c0.2-0.2,0.3-0.5,0.3-0.8c0-0.3-0.1-0.6-0.3-0.8c-0.2-0.2-0.5-0.3-0.8-0.3h-0.7c-0.3,0-0.6-0.1-0.8-0.3c-0.2-0.2-0.3-0.5-0.3-0.8
				c0-0.3,0.1-0.6,0.3-0.8c0.2-0.2,0.5-0.3,0.8-0.3h0.7c0.3,0,0.6,0.1,0.8,0.3c0.2,0.2,0.3,0.5,0.3,0.8"/>
			<line class="st2" x1="340.6" y1="467.8" x2="340.6" y2="466.7"/>
			<line class="st2" x1="340.6" y1="473.4" x2="340.6" y2="472.2"/>
		</g>
		<g>
			<line class="st2" x1="347.2" y1="470" x2="350.6" y2="470"/>
			<line class="st2" x1="330.5" y1="470" x2="333.9" y2="470"/>
		</g>
	</g>
</g>
<g>
	<path class="st2" d="M473.1,335h-14.8c0,4.5-3.6,8.1-8.1,8.1c0,11.5,6.2,21.5,15.5,26.8c9.3-5.4,15.5-15.4,15.5-26.8
		C476.8,343.1,473.1,339.5,473.1,335z"/>
	<path class="st2" d="M470.9,337.5h-10.4c-0.9,3.8-3.9,6.8-7.7,7.7c0.7,8.8,5.5,16.9,12.9,21.7c7.4-4.8,12.2-12.9,12.9-21.7
		C474.8,344.3,471.9,341.3,470.9,337.5z"/>
	<g>
		<path class="st2" d="M464.1,352.1c0,0.3,0.1,0.6,0.4,0.9c0.2,0.2,0.6,0.4,0.9,0.4h0.8c0.3,0,0.6-0.1,0.9-0.4
			c0.2-0.2,0.4-0.6,0.4-0.9c0-0.3-0.1-0.6-0.4-0.9c-0.2-0.2-0.6-0.4-0.9-0.4h-0.8c-0.3,0-0.6-0.1-0.9-0.4c-0.2-0.2-0.4-0.6-0.4-0.9
			c0-0.3,0.1-0.6,0.4-0.9c0.2-0.2,0.6-0.4,0.9-0.4h0.8c0.3,0,0.6,0.1,0.9,0.4c0.2,0.2,0.4,0.6,0.4,0.9"/>
		<line class="st2" x1="465.7" y1="348.3" x2="465.7" y2="347.1"/>
		<line class="st2" x1="465.7" y1="354.6" x2="465.7" y2="353.3"/>
	</g>
	<path class="st2" d="M472,350.8c0,3.5-2.8,6.3-6.3,6.3c-3.5,0-6.3-2.8-6.3-6.3s2.8-6.3,6.3-6.3C469.2,344.6,472,347.4,472,350.8z"
		/>
</g>
<g>
	<g>
		<rect x="450" y="151.5" class="st2" width="4.8" height="2.4"/>
		<rect x="450" y="149.1" class="st2" width="4.8" height="2.4"/>
		<rect x="450" y="146.7" class="st2" width="4.8" height="2.4"/>
	</g>
	<g>
		<rect x="472.1" y="151.5" class="st2" width="4.8" height="2.4"/>
		<rect x="472.1" y="149.1" class="st2" width="4.8" height="2.4"/>
		<rect x="476.9" y="151.5" class="st2" width="4.8" height="2.4"/>
		<rect x="476.9" y="149.1" class="st2" width="4.8" height="2.4"/>
		<rect x="472.1" y="146.7" class="st2" width="4.8" height="2.4"/>
		<rect x="472.1" y="144.3" class="st2" width="4.8" height="2.4"/>
	</g>
	<g>
		<rect x="461" y="129.2" class="st2" width="7.1" height="3"/>
		<path class="st2" d="M470,123c-1,0-1.8,0.8-1.8,1.8c0-1-0.8-1.8-1.8-1.8c-1,0-1.8,0.8-1.8,1.8c0-1-0.8-1.8-1.8-1.8
			c-1,0-1.8,0.8-1.8,1.8c0-1-0.8-1.8-1.8-1.8c-1,0-1.8,0.8-1.8,1.8c0,0.5,0.2,1,0.5,1.3l3.2,3.2h7.1l3.1-3.1
			c0.4-0.3,0.6-0.8,0.6-1.3C471.8,123.8,471,123,470,123z"/>
		<g>
			<path class="st2" d="M469.8,143.9c0,2.9-2.3,5.2-5.2,5.2c-2.9,0-5.2-2.3-5.2-5.2c0-2.9,2.3-5.2,5.2-5.2
				C467.4,138.8,469.8,141.1,469.8,143.9z"/>
			<g>
				<path class="st2" d="M463,145.1c0,0.3,0.1,0.6,0.3,0.8c0.2,0.2,0.5,0.3,0.8,0.3h0.8c0.3,0,0.6-0.1,0.8-0.3
					c0.2-0.2,0.3-0.5,0.3-0.8c0-0.3-0.1-0.6-0.3-0.8c-0.2-0.2-0.5-0.3-0.8-0.3h-0.8c-0.3,0-0.6-0.1-0.8-0.3
					c-0.2-0.2-0.3-0.5-0.3-0.8c0-0.3,0.1-0.6,0.3-0.8c0.2-0.2,0.5-0.3,0.8-0.3h0.8c0.3,0,0.6,0.1,0.8,0.3c0.2,0.2,0.3,0.5,0.3,0.8"
					/>
				<line class="st2" x1="464.6" y1="141.6" x2="464.6" y2="140.7"/>
				<line class="st2" x1="464.6" y1="147.2" x2="464.6" y2="146.2"/>
			</g>
		</g>
		<path class="st2" d="M475.1,144.3C475.1,144.3,475.1,144.3,475.1,144.3l-7-12.1H461l-7,12c-0.4,0.8-0.7,1.6-0.8,2.4"/>
		<path class="st2" d="M454.8,151.5v0.1c1.2,1.5,3,2.3,4.9,2.3h9.9c0.9,0,1.8-0.2,2.6-0.5"/>
	</g>
</g>
<g>
	<path class="st2" d="M325.5,17.5c4.1-2.8,9.1-4.3,14.2-4.3c8.5,0,16.5,4.2,21.3,11.4"/>
	<path class="st2" d="M323.5,19c-1.9,1.6-3.6,3.4-5,5.5"/>
	<path class="st2" d="M349.2,26.9c0,5.2-4.3,9.5-9.5,9.5s-9.5-4.3-9.5-9.5c0-5.2,4.3-9.5,9.5-9.5S349.2,21.6,349.2,26.9z"/>
	<g>
		<path class="st2" d="M338,28.2c0,0.3,0.1,0.7,0.4,0.9c0.3,0.3,0.6,0.4,0.9,0.4h0.9c0.3,0,0.7-0.1,0.9-0.4c0.3-0.3,0.4-0.6,0.4-0.9
			c0-0.3-0.1-0.7-0.4-0.9c-0.3-0.3-0.6-0.4-0.9-0.4h-0.9c-0.3,0-0.7-0.1-0.9-0.4c-0.3-0.3-0.4-0.6-0.4-0.9c0-0.3,0.1-0.7,0.4-0.9
			c0.3-0.3,0.6-0.4,0.9-0.4h0.9c0.3,0,0.7,0.1,0.9,0.4c0.3,0.3,0.4,0.6,0.4,0.9"/>
		<line class="st2" x1="339.7" y1="24.3" x2="339.7" y2="22.9"/>
		<line class="st2" x1="339.7" y1="30.8" x2="339.7" y2="29.5"/>
	</g>
	<g>
		<circle class="st2" cx="339.7" cy="26.9" r="6.2"/>
	</g>
	<path class="st2" d="M339.7,17.3c-7.4,0-14,3.8-17.8,9.5c3.8,5.7,10.4,9.5,17.8,9.5c7.4,0,14-3.8,17.8-9.5
		C353.7,21.1,347.2,17.3,339.7,17.3z"/>
</g>
<g>
	<g>
		<path class="st4" d="M301.9,411.8c0.1-0.1,0.1-0.1,0.1-0.2C302,411.6,302,411.7,301.9,411.8z"/>
		<path class="st4" d="M397.2,167.2c-0.3,0.1-0.5,0.2-0.8,0.3C396.7,167.4,397,167.3,397.2,167.2z"/>
		<path class="st4" d="M245.7,204.3v10.4c10.9,0.3,19.3,1.6,28.9,6.8C265.5,211.8,248.9,213.8,245.7,204.3z"/>
		<path class="st4" d="M258.2,271.5l9.1-1.4c7.9-2.2,16.1-11.2,15.7-23.4c-0.2-7-0.8-13.6-6.2-18c-7.2-5.9-13.3-8.6-31.2-9.6V278
			C248.5,274.9,253.7,272.4,258.2,271.5z M253.2,261.9c0-0.1-10.3-16.7,4.1-24.2c-9.8,5.2-7.9,20.7,1.9,23.3
			c5.2,1.4,12,1.1,18.5-3.6c-16.3,18.2-16.4,2.1-30.8,17C249.1,269.9,255,269.2,253.2,261.9z"/>
		<path class="st4" d="M284.9,300.4c-6.8-11-16-18.9-39.2-16.9v9.8c8.2,0.2,19-1,24.4-3.7c-5.9,5.6-14.1,8-24.4,7.9v3.8
			C259,302.2,273.3,294.6,284.9,300.4z"/>
		<path class="st4" d="M391.9,250.3c0.8-19.9-7.6-40.8-10-47.2c-5.8-1.5-7,23.9-13.1,41.6c-3.5,10.1-10.7,28.9-10.5,28
			c12.2-48,1.7-76.6-17-120.3c4.3,5.2,8.7,10.1,12.9,13.9c7.5,6.7,11.1,9.9,14.1,13.9c-5.5-9.1-12.2-17.8-20-26.3
			c9,8.1,22.8,22.5,32.1,42.6c18.3-12.9,41.1-36.2,39.5-60.8c-0.3-4.1-1.9-9.1-5-14.4c-11.1-19-32.3-17.3-49.1-6.5
			c-8.4,5.5-19.6,6.4-28.8,13.9c-3.2-4.6-17-14.1-17-14.1s-31.4-18.4-70-4.4c-0.1,0-0.2,0.1-0.2,0.1c0,0,0,0,0,0l0,0
			c-2.1,0.7-3.6,1.7-4.3,2.8v39c1.5,20.1,3.9,38.1,7,38.9c4.9,0.3,9.2,4.6,13.4,6c0.5,0.4,1-2.7,1.4-2.3c8.3-5.9,28-9.2,32.6-7.7
			c0,0-10.2,4.1-17.7,8.9c-4.9,3.1-7.4,7.3-7.6,10.1c5.9,7.1,10.1,10.9,13.5,17.5c18.9,37.1,6.7,65.4,2.5,76.5
			c-1.3-2.4-3.3-5.6-3.3-5.6c0,0.6,1.5,16.6-6.1,23.3c-5.1,4.5-13.4,27.1-13,25.7c2.3-8.8-3.7-11.9-3.7-11.3
			c0.1,5.9,0.7,7.3-8.7,13.8c-0.1,0.1,0.3-3.8-0.9-6.6c-1.5-3.5-3.6-5.4-3.7-5.2c-0.6,6.7-2.9,4.4-5.6,8.8v24.9
			c9.4,7.8,5.1,89.4,19.4,92.6c-2.9-14.4,5.7-19.5,8.7-14.3c5.6,10,20,10.4,19.7,9.4c-10.1-25.4,7-42.1,8.5-43.9
			c0.1-0.2,0.1-0.2,0.1-0.2c0,0,0,0.1-0.1,0.2c-0.9,2.2-7.2,24.3,10.7,37.7c0,0-2.7-14.8,9.9-32.5c5.7-8,12.3-13.6,20-19.5
			c0,0,1.8,4.9,5.5,7.1c5.2,3,10.4,2.5,13.8,1.8c-0.1-4.6-0.5-9.7,0-14.3c4.7-45.8,55.8-82.1,35.5-167
			C394.8,237.1,397.7,231.9,391.9,250.3z M380.3,117.2c12.4-3.5,23.7-3.2,27.4,8.1c8.7,26.6-2.1,38.4-10.5,41.9
			c13.8-6,16-46.3-8.9-45.9c-19.9,0.3-32.5,8.2-45.9,22.6C344.6,138.2,359.3,123.2,380.3,117.2z M328.2,137.6
			c-12.5-11.3-29.7-16.9-46.3-18.3c15.7-0.1,28.1,1.8,42.4,12.1C325.7,133.3,327,135.4,328.2,137.6z M276.6,132.2
			c17.8-2.2,39,3,51.4,16.6c3.7,10.8,14.7,25.5,16,41.9c-1.5-13.1-13.2-32.2-25-43.9C310.6,138.4,297.7,136.6,276.6,132.2z
			 M297.5,193.7c0.7,0.7,1.2,1.7,1.2,2.7c0,2-1.6,3.7-3.6,3.7c-1.5,0-2.7-0.9-3.3-2.1C294.7,197.4,297,195.8,297.5,193.7z
			 M287.2,207.3c-2.7-1-5.2-2-7.3-3.1c4.6-1.3,4.2-0.4,8.5,0.6c19.2,4.6,21.4-9,24.6-8.3C305.4,208.8,300.7,211.4,287.2,207.3z
			 M317.8,377.2c0,0,0-24.7-4.4-28.6c-3.5,20.7-26,52.4-42.5,53c0,0-0.1-14,0-16.6c0.3-6.6-0.1-15.8-2.7-22.4
			c-0.5,1.7-3.1,7.6-11.8,10.3c-0.6,0.2-1.7,0.5-1.7,0.5c-0.3-0.1,1.6-9.2-5.7-25.3c6.5,10.7,6.4,16.1,8.8,18.9
			c1.7,1.9,7.6-2,8.9-12.2c0.1-0.5,10.5,26.5,8.3,38.5c29.4-11.3,38.4-46.6,38.5-46.5c4.7,3.4,9.2,11.1,10.1,18.6
			c25.8-21.8,36-38.4,41.6-71.4C362.9,321.5,343.6,366.2,317.8,377.2z M349.9,308.6c4.6-11.3,7.6-22.3,9.3-29.6l10.2-20.1
			C368.1,275.2,355.7,299,349.9,308.6z"/>
	</g>
	<g>
		<path class="st4" d="M64,81.5c1.7,44.1,63.2,80,98.3,65.9c29.9-12,17.3-39.3,17.3-39.3C89.9,122.7,64,81.5,64,81.5z"/>
		<path class="st4" d="M63.1,102.4c-7.9-18.7-5-29.7,7.4-43.1C85,43.4,92.1,23.9,78.7,4c0,0,3.5,28.7-21.4,40.2
			c-33.8,15.5-34.4,67.4,32.3,92.1C89.5,136.3,71.1,121.2,63.1,102.4z"/>
		<path class="st4" d="M161.8,159.1c-10.5,3.9-23,6.4-53.5-5.3c-26.6-10.2-26.6,14,3.3,35.8c26.7,19.5,40.3,3.9,41.6-11.6
			C154.2,165.4,161.8,159.1,161.8,159.1z"/>
		<path class="st4" d="M193.7,259.2c5.7-18.1,4.7-27.7-11.5-41.8c-16.2-14-21.6-20.2-22.7-40c0,0-13.6,31.5,6.8,68.6
			c20.4,37.1,23.7,52.3,23.7,52.3S187.9,277.3,193.7,259.2z"/>
		<path class="st4" d="M245.6,272.9c-23.6-11.6-40,6.7-40,16c0,9.3,10.5,14.3,15.2,20.4c4.4,5.8,4.4,16.7-9.1,13.4
			c-15.9-3.8-10.7-32.4-10.7-32.4c-12,11.4-13.9,32.7-9.4,42.6c4.4,9.9,16.4,11.7,31,7.3c7.3-2.2,15.2-3.3,23.1-3.3L245.6,272.9
			C245.6,272.9,245.6,272.9,245.6,272.9z"/>
		<path class="st4" d="M221.2,345.9c-15.1,4.7-24.4-2.2-24.4-2.2c8.4,13.9,28.6,24.4,48.9,24.4c0,0,0,0,0,0v-25.7
			C237.2,342.4,228.8,343.6,221.2,345.9z"/>
		<path class="st4" d="M181.2,193.5c-14.1-8.2-15.3-22.6-15.3-22.6c0,22.8,11.7,37.2,24.4,43c12.8,5.8,13.3,16.9,13.3,16.9
			C207,208.6,195.2,201.6,181.2,193.5z M182.5,197.1c0,0,6.5,6.5,9.3,5.7S183.9,211.5,182.5,197.1z"/>
		<path class="st4" d="M245.7,214.7v-10.4l-6.5-14.4l6.5-37.1v-39.7l0.2-0.3c-0.1,0.1-0.2,0.1-0.3,0.2c-34.5-22.8-59.2-7.8-59.2-7.8
			c15.1,33.9-17.7,52.3-17.7,52.3c2.2,15.5,15.6,27.1,28.4,34.4c12.8,7.3,20.5,27.6,9.2,51.9c-11.3,24.2-9.1,42.6-9.1,42.6
			c8-16.2,28.2-24.4,48.5-24.4v-43.1c-10,0-19.4,3.8-19.4,3.8C237.2,215.2,244.3,214.7,245.7,214.7z"/>
	</g>
</g>
</svg>
