<?xml version="1.0" encoding="utf-8"?>
<!-- Generator: Adobe Illustrator 23.0.1, SVG Export Plug-In . SVG Version: 6.00 Build 0)  -->
<svg version="1.1" id="圖層_1" xmlns="http://www.w3.org/2000/svg" xmlns:xlink="http://www.w3.org/1999/xlink" x="0px" y="0px"
	 viewBox="0 0 372 122" style="enable-background:new 0 0 372 122;" xml:space="preserve">
<style type="text/css">
	.st0{fill:#382F4E;}
	.st1{fill:#FFFFFF;}
	.st2{fill:#327FAE;}
</style>
<g>
	<g>
		<path class="st0" d="M146.86,0H68.3c-2.75,0-5,2.25-5,5v18.68v5.34v11.95l8.72-6.95h74.84c2.75,0,5-2.25,5-5V5
			C151.86,2.25,149.61,0,146.86,0z"/>
		<g>
			<path class="st1" d="M76.93,17.08c-0.24,1.54-0.64,3.15-1.13,4.47c0.38,0.17,0.78,0.5,1.45,0.88c1.19,0.71,2.86,0.83,4.9,0.83
				c2.06,0,5.14-0.19,7.08-0.45c-0.23,0.52-0.55,1.49-0.59,2.03c-1.4,0.07-4.54,0.19-6.58,0.19c-2.32,0-3.81-0.17-5.09-0.88
				c-0.75-0.43-1.37-0.99-1.73-0.99c-0.35,0-0.9,1.16-1.26,2.15l-1.3-1.87c0.4-0.54,0.81-0.99,1.21-1.3
				c0.42-0.97,0.78-2.27,1.02-3.5h-1.73c0.35-1.02,0.76-2.41,1.09-3.76h-1.3v-1.84h3.52c-0.31,1.21-0.69,2.6-1.04,3.81h0.4
				l0.26-0.05L76.93,17.08z M74.63,12.54c-0.19-0.78-0.59-2.04-0.83-2.98l1.58-0.47c0.29,0.94,0.66,2.11,0.9,2.89L74.63,12.54z
				 M78.34,19.83c-0.17,0.4-0.36,0.78-0.57,1.13c-0.24-0.33-0.95-0.99-1.28-1.19c1.21-2.13,1.33-5.09,1.33-7.15V9.67h4.64v5.13
				h-3.07c-0.03,0.45-0.07,0.9-0.14,1.37h3.34v5.32h-2.67v0.68h-1.59V19.83z M79.48,11.23v1.4v0.61h1.39v-2.01H79.48z M79.93,17.72
				v2.2h1.09v-2.2H79.93z M84.95,16.77H82.8v-1.65h3.13c0.31-0.74,0.66-1.73,0.85-2.46l1.66,0.36c-0.31,0.71-0.64,1.45-0.94,2.1
				h1.39v1.65h-2.1v1.25h1.96v1.63H86.8v2.55h-1.85v-2.55h-1.97v-1.63h1.97V16.77z M88.78,12.63h-5.84v-1.61h2.04
				c-0.16-0.52-0.36-1.06-0.57-1.52l1.66-0.48c0.31,0.62,0.62,1.39,0.8,2.01h1.91V12.63z M84,15.11c-0.03-0.59-0.24-1.44-0.5-2.1
				l1.4-0.33c0.28,0.62,0.52,1.46,0.59,2.01L84,15.11z"/>
			<path class="st1" d="M105.18,21.9c-0.55,0.38-1.18,0.71-1.73,0.99c0.88,0.23,1.89,0.35,3.03,0.4c-0.38,0.38-0.81,1.07-1.02,1.56
				c-2.56-0.26-4.45-0.9-5.77-2.06c-0.1,0.43-0.17,1.09-0.17,1.42c-4.12,0.68-4.78,0.8-5.16,1c-0.1-0.45-0.45-1.25-0.73-1.61
				c0.38-0.17,0.85-0.54,0.85-1.28v-0.95h-1.06c-0.28,1.42-0.83,2.88-1.96,3.95c-0.29-0.36-1.07-1.07-1.51-1.32
				c1.61-1.52,1.78-3.65,1.78-5.26v-2.3h13.73v1.4H93.66v0.47h10.89v1.23H93.64c-0.02,0.16-0.02,0.33-0.03,0.5h12.52v1.33h-2.04
				L105.18,21.9z M92.59,14.59h-1.9v-3.05h6.51v-0.57h-5.37V9.49h12.8v1.47h-5.4v0.57h6.58v3.05h-1.99v-1.85h-0.95l0.64,0.9
				c-0.92,0.35-2.18,0.55-3.08,0.68l-0.64-0.97c0.66-0.1,1.59-0.38,2.32-0.61h-2.87v3.39h-2.03v-3.39h-3.41
				c0.97,0.16,2.17,0.42,2.84,0.66l-0.48,1.07l0.47-0.07l0.07,1.18c-1.32,0.31-2.58,0.61-3.69,0.83l-0.52-1.42
				c0.95-0.1,2.18-0.29,3.52-0.48c-0.73-0.26-1.99-0.59-2.94-0.75l0.48-1.02h-0.94V14.59z M99.6,22.69c-0.43-0.4-0.8-0.83-1.13-1.33
				h-2.01v1.77L99.6,22.69z M99.91,14.26c1.28,0.14,3.05,0.52,3.98,0.85l-0.38,1.26c-0.92-0.31-2.7-0.74-4-0.95L99.91,14.26z
				 M100.38,21.36c0.4,0.4,0.88,0.74,1.47,0.99c0.52-0.28,1.11-0.66,1.52-0.99H100.38z"/>
			<path class="st1" d="M123.45,21.51h-3.86v1.68c0,0.95-0.17,1.44-0.88,1.71c-0.69,0.26-1.66,0.28-2.98,0.28
				c-0.09-0.55-0.35-1.28-0.59-1.8c0.83,0.03,1.82,0.03,2.1,0.03c0.28-0.02,0.36-0.07,0.36-0.29v-1.61h-4.88
				c0.73,0.52,1.45,1.13,1.85,1.59l-1.52,1.32c-0.5-0.68-1.66-1.66-2.6-2.3l0.73-0.61h-3.46v-1.63h9.89v-0.64
				c-3.41,0.07-6.69,0.12-9.11,0.14l-0.05-1.47c1.63,0.02,3.76,0,6.1,0v-0.62h-4.99V12.3h4.99v-0.62h-6.36v-1.56h6.36V9.03h2.01
				v1.09h6.32v1.56h-6.32v0.62h5.23v4.99h-1.16c0.87,0.45,1.68,0.97,2.23,1.39l-1.26,1.06c-0.21-0.17-0.45-0.38-0.73-0.57
				l-1.26,0.03v0.69h3.86V21.51z M111.46,14.19h3.07v-0.64h-3.07V14.19z M114.53,16.02v-0.66h-3.07v0.66H114.53z M116.54,13.55v0.64
				h3.22v-0.64H116.54z M119.76,16.02v-0.66h-3.22v0.66H119.76z M116.54,17.89l2.18-0.02c-0.24-0.1-0.48-0.23-0.71-0.31l0.35-0.28
				h-1.82V17.89z"/>
			<path class="st1" d="M139.32,16.58c-0.69,0.54-1.47,1.09-2.23,1.61c0.68,2.04,2.06,3.76,4.05,4.56
				c-0.47,0.38-1.07,1.18-1.37,1.68c-2.08-0.99-3.45-2.84-4.29-5.2c-0.17,0.12-0.36,0.23-0.54,0.33c0.48,2.08,0.07,4.07-0.81,4.8
				c-0.61,0.62-1.16,0.8-2.06,0.81c-0.38,0.02-0.9,0-1.4-0.02c-0.03-0.57-0.21-1.39-0.55-1.96c0.61,0.07,1.16,0.09,1.56,0.09
				c0.42,0,0.69-0.05,0.94-0.42c0.29-0.28,0.5-0.92,0.5-1.75c-1.97,1.35-4.69,2.63-7,3.33c-0.23-0.5-0.68-1.25-1.07-1.71
				c2.74-0.59,6.06-2.08,7.78-3.53c-0.07-0.21-0.16-0.43-0.26-0.66c-1.73,1.09-4.26,2.22-6.23,2.82c-0.23-0.47-0.66-1.16-1.02-1.59
				c2.13-0.45,4.97-1.54,6.48-2.55c-0.16-0.19-0.31-0.38-0.48-0.57c-1.51,0.8-3.19,1.39-4.81,1.82c-0.19-0.4-0.71-1.21-1.06-1.61
				c1.96-0.4,4.02-1.06,5.58-1.9h-2.98V13.2h9.68v1.75h-3.84c-0.31,0.28-0.66,0.55-1.04,0.8c0.68,0.62,1.18,1.35,1.52,2.1
				c1.19-0.8,2.44-1.78,3.27-2.62L139.32,16.58z M127.48,14.29h-2.03v-3.91h6.27c-0.12-0.33-0.28-0.66-0.42-0.92l2.18-0.62
				c0.28,0.47,0.57,1.04,0.74,1.54h6.17v3.91h-2.11v-2.04h-10.81V14.29z"/>
		</g>
	</g>
	<g>
		<path class="st2" d="M1.45,53.18c0-11.52,4.5-17.14,11.29-17.14c6.75,0,11.25,5.67,11.25,17.14s-4.5,17.41-11.25,17.41
			C5.95,70.59,1.45,64.65,1.45,53.18z M17.73,53.18c0-9.31-2.16-12.01-4.99-12.01c-2.88,0-5.04,2.7-5.04,12.01
			c0,9.36,2.16,12.24,5.04,12.24C15.57,65.42,17.73,62.54,17.73,53.18z"/>
		<path class="st2" d="M26.91,66.27c0-2.43,1.75-4.32,4.09-4.32c2.39,0,4.14,1.89,4.14,4.32c0,2.43-1.75,4.32-4.14,4.32
			C28.67,70.59,26.91,68.7,26.91,66.27z"/>
		<path class="st2" d="M37.26,65.96l3.1-4.18c1.98,1.93,4.41,3.42,7.42,3.42c3.37,0,5.67-1.66,5.67-4.63c0-3.28-1.93-5.31-9.18-5.31
			v-4.77c6.12,0,8.1-2.11,8.1-5.08c0-2.61-1.62-4.14-4.46-4.19c-2.38,0.04-4.32,1.17-6.3,2.97l-3.37-4.05
			c2.88-2.52,6.07-4.09,9.99-4.09c6.44,0,10.8,3.15,10.8,8.86c0,3.6-2.02,6.21-5.58,7.6v0.23c3.78,1.04,6.66,3.82,6.66,8.19
			c0,6.12-5.35,9.67-11.7,9.67C43.16,70.59,39.6,68.61,37.26,65.96z"/>
		<path class="st2" d="M61.17,56.54c0-3.81,1.91-6,4.64-6s4.66,2.19,4.66,6c0,3.84-1.93,6.08-4.66,6.08S61.17,60.38,61.17,56.54z
			 M67.79,56.54c0-2.81-0.88-3.86-1.98-3.86s-1.96,1.06-1.96,3.86c0,2.81,0.85,3.94,1.96,3.94S67.79,59.35,67.79,56.54z
			 M76.81,50.54h2.24L68.67,70.32h-2.21L76.81,50.54z M75.03,64.24c0-3.84,1.93-6.03,4.64-6.03c2.7,0,4.66,2.19,4.66,6.03
			c0,3.81-1.96,6.08-4.66,6.08C76.96,70.32,75.03,68.05,75.03,64.24z M81.65,64.24c0-2.81-0.88-3.89-1.98-3.89
			c-1.11,0-1.98,1.08-1.98,3.89c0,2.81,0.88,3.92,1.98,3.92C80.77,68.16,81.65,67.05,81.65,64.24z"/>
		<path class="st2" d="M108.05,52.06c-0.54,1.13-1.29,2.14-2.16,2.96c1.26,0.59,2.76,1.06,4.28,1.37c-0.59,0.54-1.31,1.57-1.67,2.24
			c-1.75-0.44-3.37-1.11-4.79-2.01c-1.29,0.75-2.73,1.31-4.3,1.78c-0.28-0.54-1.03-1.62-1.52-2.11c-0.13,0.64-0.28,1.06-0.49,1.31
			c-0.39,0.44-0.85,0.59-1.37,0.64c-0.44,0.08-1.26,0.1-2.09,0.05c0-0.28-0.08-0.62-0.15-0.95h-3.61v0.7h-2.03v-2.65
			c-0.23,0.21-0.46,0.39-0.7,0.57c-0.36-0.52-1.08-1.24-1.6-1.55c1.39-0.93,2.32-2.11,2.86-3.19l2.27,0.39l-0.18,0.39h7.5v0.03
			c1.29-1.06,2.42-2.42,3.07-3.86l2.58,0.67c-0.18,0.39-0.36,0.75-0.57,1.11h6.16v2.14H108.05z M89.68,50.69h-3.19v-1.75h3.19v-0.77
			h2.4v3.14h-2.4V50.69z M86.51,70.86c0.88-0.82,1.78-2.11,2.29-3.14l2.47,1.21c-0.57,1.11-1.37,2.45-2.24,3.37L86.51,70.86z
			 M94.63,56.41c0.26,0,0.44-0.03,0.57-0.23c0.18-0.23,0.33-0.95,0.44-2.63h-5.82c-0.15,0.23-0.31,0.44-0.49,0.64h5v2.22H94.63z
			 M109.03,65.97c0,0-0.05,0.67-0.1,0.98c-0.31,2.7-0.64,4.02-1.21,4.58c-0.44,0.46-0.95,0.62-1.57,0.7
			c-0.54,0.05-1.49,0.08-2.55,0.03c-0.03-0.49-0.15-1.11-0.36-1.65l-1,0.41c-0.28-0.67-0.9-1.65-1.47-2.34l2.04-0.77
			c0.62,0.7,1.26,1.57,1.57,2.21h-0.03c0.13,0,0.21,0,0.28,0c0.31,0,0.49-0.03,0.67-0.21c0.23-0.26,0.46-0.88,0.64-2.14H89.42V58.7
			h17.98v1.78h-7.24v0.85h6.23v1.47h-6.23v0.85h6.26v1.47h-6.26v0.85H109.03z M92.23,55.38h-2.06v0.77h2.06V55.38z M92.36,60.48
			v0.85h4.87v-0.85H92.36z M97.23,62.8h-4.87v0.85h4.87V62.8z M92.36,65.97h4.87v-0.85h-4.87V65.97z M94.81,68.39
			c0.36,1,0.64,2.32,0.75,3.19l-2.58,0.49c-0.05-0.9-0.33-2.27-0.62-3.3L94.81,68.39z M95.84,51.57h-2.4v-3.4h2.4v0.77h3.12v1.78
			h-3.12V51.57z M98.96,68.29c0.46,0.88,0.93,2.03,1.13,2.81l-2.4,0.67c-0.15-0.8-0.62-2.01-1.03-2.94L98.96,68.29z M101.63,55.05
			c-0.46-0.41-0.88-0.85-1.26-1.31c-0.33,0.31-0.67,0.57-0.98,0.82c-0.26-0.31-0.72-0.85-1.18-1.34c-0.1,1.39-0.18,2.37-0.33,3.07
			C99.26,55.97,100.5,55.56,101.63,55.05z M101.92,52.06c0.49,0.62,1.11,1.16,1.78,1.67c0.62-0.49,1.13-1.03,1.52-1.67H101.92z"/>
		<path class="st2" d="M135.5,62.57v2.32h-23.52v-2.32h5.9c-0.15-0.46-0.39-0.95-0.59-1.34l1.08-0.26h-2.63v-5.1h16.28v5.1h-1.44
			c-0.33,0.59-0.7,1.13-1.03,1.6H135.5z M122.11,51.85h-9.25v-2.19h9.25v-1.55h3.12v1.55h9.48v2.19h-9.48v1.06h7.93v2.11h-18.52
			v-2.11h7.47V51.85z M115.23,65.84h17.33v6.34h-3.17v-0.67h-11.15v0.7h-3.01V65.84z M118.24,67.87v1.57h11.15v-1.57H118.24z
			 M118.66,59.09h10.28V57.8h-10.28V59.09z M120.36,60.97c0.31,0.52,0.57,1.11,0.72,1.6h5.31c0.26-0.52,0.49-1.08,0.67-1.6H120.36z"
			/>
		<path class="st2" d="M144.87,49.02c-0.49,1.55-1.06,3.14-1.75,4.69v18.47h-2.91V59.22c-0.54,0.8-1.08,1.55-1.62,2.19
			c-0.23-0.72-1-2.47-1.47-3.3c2.01-2.42,3.86-6.16,4.95-9.94L144.87,49.02z M161.51,62.31h-2.34c0.46,0.49,0.85,0.98,1.11,1.34
			l-1.65,1.03c-0.31-0.49-0.85-1.18-1.42-1.8c-0.26,1.08-0.88,1.42-2.24,1.42h-2.24c-0.23,0.26-0.44,0.52-0.67,0.77h5.23l0.52-0.1
			l1.83,1.03c-0.82,1.24-2.03,2.32-3.63,3.19c1.7,0.36,3.53,0.59,5.49,0.75c-0.54,0.57-1.13,1.57-1.47,2.24
			c-2.7-0.28-5.15-0.77-7.31-1.52c-2.16,0.72-4.66,1.26-7.5,1.65c-0.28-0.67-0.93-1.6-1.47-2.21c2.11-0.21,4.07-0.52,5.74-0.9
			c-0.52-0.31-1-0.62-1.47-0.95c-0.67,0.39-1.39,0.77-2.19,1.13c-0.33-0.57-1.11-1.37-1.65-1.73c0.77-0.28,1.44-0.62,2.11-0.95
			c-0.33-0.36-0.64-0.7-0.9-1.08l2.21-0.77c0.18,0.23,0.39,0.46,0.59,0.7c0.7-0.52,1.29-1.03,1.75-1.55
			c-0.49-0.26-0.72-0.7-0.77-1.42c-0.57,0.77-1.24,1.52-2.01,2.06l-1.67-1.31c0.41-0.26,0.82-0.62,1.21-1h-2.42v-3.66h2.34v-6.39
			h4.25c0.08-0.28,0.13-0.59,0.18-0.9h-6v-2.19H161v2.19h-6.77l-0.39,0.9h5.51v6.39h2.16V62.31z M157.6,60.74
			c0.39,0.36,0.8,0.72,1.18,1.16v-1.52h-4.95c0.54,0.44,1.08,0.9,1.39,1.26l-1.7,1c-0.44-0.52-1.26-1.34-1.96-1.85l0.77-0.41h-5.46
			v1.75c0.41-0.44,0.77-0.88,1.06-1.31l1.21,0.62v-0.52h2.4v1.16c0,0.52,0.15,0.59,0.85,0.59h2.27c0.52,0,0.64-0.13,0.72-0.88
			c0.28,0.15,0.75,0.31,1.21,0.44c-0.18-0.21-0.39-0.39-0.57-0.57L157.6,60.74z M149.35,53.76v0.77h7.13v-0.77H149.35z
			 M156.49,55.77h-7.13v0.82h7.13V55.77z M149.35,58.65h7.13v-0.82h-7.13V58.65z M152.7,68.21c1.03-0.36,1.91-0.82,2.6-1.31
			L150,66.92C150.77,67.44,151.7,67.87,152.7,68.21z"/>
		<path class="st2" d="M163.34,69.96c1-1.18,1.88-3.01,2.37-4.58l2.65,1.08c-0.57,1.65-1.37,3.66-2.37,5L163.34,69.96z
			 M173.46,51.78h-9.35v-2.4h9.35v-1.24h3.17v1.24h9.61v2.4h-9.61v1.13h7.86v7.62h-2.55c1.73,0.95,3.5,2.24,4.51,3.19l-2.14,1.65
			c-0.33-0.36-0.75-0.72-1.21-1.13c-2.45,0.05-4.97,0.1-7.39,0.15c1.18,0.77,2.42,1.73,3.09,2.5l-2.09,1.75
			c-0.77-0.93-2.45-2.27-3.84-3.17l1.34-1.06c-3.73,0.05-7.19,0.1-9.86,0.13l-0.13-2.58c2.47,0.03,5.72,0.03,9.25,0v-1.44h-7.8
			v-7.62h7.8V51.78z M168.54,55.87h4.92v-1.19h-4.92V55.87z M173.46,58.73v-1.19h-4.92v1.19H173.46z M178.25,69.32
			c1.13,0,1.37-0.31,1.49-2.21c0.64,0.39,1.83,0.8,2.65,0.95c-0.36,2.99-1.21,3.73-3.89,3.73h-5.02c-3.58,0-4.51-0.75-4.51-3.25
			v-2.94h3.04v2.91c0,0.7,0.26,0.8,1.75,0.8H178.25z M176.63,54.69v1.19h4.82v-1.19H176.63z M176.63,58.73h4.82v-1.19h-4.82V58.73z
			 M179.85,61.95c-0.41-0.23-0.8-0.44-1.19-0.64l1.16-0.77h-3.19v1.44L179.85,61.95z M184.15,65.5c1.18,1.55,2.32,3.55,2.68,5.02
			l-2.83,0.9c-0.31-1.34-1.37-3.48-2.5-5.07L184.15,65.5z"/>
	</g>
	<g>
		<path class="st0" d="M17.22,110.12c-0.81-2.16-2.92-6.93-3.96-8.77v18.54H9.62v-18.94c-0.99,4.81-2.79,10.66-5.13,13.68
			c-0.4-1.21-1.21-3.1-1.84-4.23c1.8-2.43,3.64-7.02,4.36-10.8l2.61,0.9v-3.06H3.36v-3.91h6.25V78.62h3.65v14.89h5.26v3.91h-5.26
			v3.78l2.16-1.53c0.85,1.12,3.92,6.17,4.59,7.38L17.22,110.12z M5.61,91.76c-0.36-2.56-1.26-6.52-2.16-9.54l2.97-0.68
			c0.99,2.97,1.94,6.88,2.34,9.4L5.61,91.76z M44.45,92.93v3.15H19.34v-3.15H29.6v-2.52H21v-2.97h8.59v-2.29h-9.67v-2.29
			c-1.26,3.1-2.56,6.84-3.69,9.13l-2.65-0.94c0.99-2.52,2.25-6.66,2.83-9.49l3.51,1.17v-0.63h9.67v-3.46h4.05v3.46h10.3v3.06h-10.3
			v2.29h9.45v2.97h-9.45v2.52H44.45z M42.06,115.83c0,1.85-0.41,2.83-1.71,3.38c-1.26,0.58-3.29,0.63-6.07,0.58
			c-0.18-0.99-0.68-2.43-1.17-3.38c1.89,0.09,3.73,0.09,4.27,0.04c0.58,0,0.77-0.18,0.77-0.67v-2.97H24.96
			c-0.45,2.74-1.44,5.44-3.24,7.51c-0.58-0.77-2.11-2.25-2.92-2.7c2.65-3.24,2.92-7.65,2.92-11.16v-8.1h20.34V115.83z M38.15,109.98
			v-2.79H25.5c0,0.85-0.04,1.85-0.13,2.79H38.15z M25.5,101.57v2.74h12.64v-2.74H25.5z"/>
		<path class="st0" d="M59.48,100.13c-0.72,3.87-1.89,7.83-3.51,11.11c0.9,0.5,1.84,1.26,3.51,2.25c3.06,1.89,7.2,2.16,12.46,2.16
			c5.49,0,13.09-0.41,18.04-1.04c-0.5,1.12-1.17,3.19-1.22,4.32c-3.46,0.23-11.74,0.5-17.01,0.5c-5.94,0-9.76-0.5-13-2.39
			c-1.84-1.03-3.46-2.61-4.45-2.61c-0.99,0-2.56,2.93-3.73,5.67l-2.88-3.87c1.21-1.58,2.38-2.92,3.51-3.92l-0.04-0.04
			c1.75-2.48,3.15-6.03,3.96-9.45h-5.67c1.12-2.65,2.43-6.3,3.55-9.81h-4.5v-3.78h9.72c-0.99,3.19-2.25,6.88-3.37,9.99h1.57
			l0.63-0.14L59.48,100.13z M53.67,87.48c-0.63-2.02-1.85-5.26-2.7-7.65l3.78-1.03c0.9,2.38,2.16,5.49,2.79,7.42L53.67,87.48z
			 M72.53,108.45c-2.34,2.2-5.98,4.36-9,5.8c-0.72-0.77-2.16-1.98-3.1-2.56c3.1-1.12,6.3-2.75,8.32-4.41H59.7v-3.19h7.47v-3.56
			h-5.76v-3.15h5.76v-2.83H71v2.83h6.25v-2.83h3.87v2.83h5.89v3.15h-5.89v3.56h7.74v3.19h-9.67c3.15,1.48,6.57,3.46,8.55,4.99
			l-3.65,1.8c-1.84-1.53-5.04-3.6-8.01-5.13l2.34-1.66h-9.31L72.53,108.45z M72.93,89.78c-0.32,0.94-0.59,2.29-0.72,3.01
			C63.39,94.28,62,94.59,61.23,95c-0.23-0.85-0.9-2.43-1.4-3.15c0.58-0.31,1.26-1.04,1.26-2.7v-8.95h12.24v8.01h-8.91v2.83
			L72.93,89.78z M64.43,82.89v2.56h5.4v-2.56H64.43z M71,104.09h6.25v-3.56H71V104.09z M79.55,93.83c-3.46,0-4.32-1.31-4.32-4.63
			v-8.95h12.42v8.01H78.6v0.99c0,1.21,0.14,1.67,1.17,1.67h5.22c0.85,0,2.25-0.09,2.93-0.27c0.09,0.9,0.18,2.16,0.31,2.92
			c-0.63,0.23-1.89,0.27-3.1,0.27H79.55z M78.6,82.94v2.56h5.44v-2.56H78.6z"/>
		<path class="st0" d="M125.27,103.32c2.52,2.61,6.07,4.9,9.54,6.12c-0.9,0.77-2.11,2.25-2.74,3.24c-4.32-1.89-8.59-5.44-11.34-9.36
			h-13.41c-1.08,1.57-2.48,3.15-3.96,4.54h8.23v-3.38h4.23v3.38h8.91v3.33h-8.91v4h15.12v3.46H97.05v-3.46h14.53v-4h-8.59v-2.97
			c-2.25,2.02-4.86,3.73-7.42,4.95c-0.58-0.99-1.8-2.48-2.7-3.19c3.56-1.35,7.15-3.87,9.72-6.66h-9.27v-3.46h8.73v-13.9h-6.52v-3.42
			h6.52v-3.92h4.19v3.92h15.3v-3.87h4.27v3.87h6.43v3.42h-6.43v13.9h8.46v3.46H125.27z M106.23,85.95v2.52h15.3v-2.52H106.23z
			 M106.23,94.1h15.3v-2.56h-15.3V94.1z M106.23,99.86h15.3v-2.7h-15.3V99.86z"/>
		<path class="st0" d="M160.91,95.63v5.44h15.07v3.78h-15.07v10.03h17.23v3.82h-38.61v-3.82h16.92v-10.03H141.6v-3.78h14.85v-5.44
			h-9.4v-2.34c-2.11,1.12-4.27,2.07-6.52,2.88c-0.58-1.21-1.75-2.83-2.79-3.87c8.37-2.56,16.51-7.52,20.79-14.13l3.92,1.75
			c-0.41,0.58-0.77,1.17-1.17,1.71c4.41,4.41,11.97,8.68,18.72,10.71c-0.95,0.85-2.25,2.52-2.88,3.64c-2.21-0.81-4.46-1.84-6.71-3.1
			v2.74H160.91z M148.44,105.3c1.71,2.38,3.51,5.67,4.23,7.78l-3.65,1.57c-0.63-2.11-2.38-5.49-4-8.01L148.44,105.3z M168.38,91.76
			c-3.51-2.12-6.84-4.59-9.54-7.29c-2.61,2.83-5.67,5.27-9.04,7.29H168.38z M164.33,113.36c1.53-2.16,3.42-5.58,4.37-8.05l4.05,1.48
			c-1.71,2.83-3.69,5.89-5.22,7.92L164.33,113.36z"/>
	</g>
	<g>
		<path class="st0" d="M201.29,79.64c-1.14,4.1-2.58,8.97-3.82,12.59c2.58,3.67,3.05,7.01,3.05,9.73c0,3.39-0.67,5.49-2.29,6.73
			c-0.81,0.62-1.76,0.95-2.86,1.15c-0.81,0.14-1.91,0.14-3.05,0.14c0-1.67-0.52-4.25-1.43-5.92c0.67,0.05,1.19,0.1,1.67,0.05
			c0.43,0,0.86-0.1,1.19-0.33c0.48-0.38,0.72-1.29,0.72-2.62c0-2.1-0.43-5.1-2.77-8.2c0.72-2.67,1.57-6.39,2.19-9.44h-3.43v37.16
			h-6.01V77.35h11.35l0.95-0.24L201.29,79.64z M226.96,104.69c-1.96,1.48-4.05,3.05-5.87,4.34c1.81,2.43,4.1,4.44,6.92,5.77
			c-1.53,1.34-3.62,4.1-4.63,5.96c-3.86-2.29-6.68-5.58-8.78-9.73c-0.05,1.96,0.05,4.72,0.29,6.25c-9.11,2.19-11.11,2.96-12.35,3.77
			c-0.48-1.53-1.91-4.2-2.91-5.34c1.15-0.72,2.48-2.24,2.48-4.58V77.35h22.08v22.56h-1.57L226.96,104.69z M208.88,83.27v2.53h8.59
			v-2.53H208.88z M208.88,94h8.59v-2.67h-8.59V94z M214.55,110.98c-1.62-3.24-2.86-6.96-3.82-11.07h-1.86v12.21L214.55,110.98z
			 M216.7,99.92c0.43,1.38,0.91,2.77,1.48,4.05c1.48-1.29,3.05-2.81,4.15-4.05H216.7z"/>
		<path class="st0" d="M247.32,111.7h-9.35v4.44h-6.39V78.36h15.74V111.7z M237.97,84.51v7.2h2.91v-7.2H237.97z M240.88,105.55
			v-7.82h-2.91v7.82H240.88z M265.11,86.32v3.58h8.97v5.96h-3.1v2.86h4.05v6.01h-4.05v9.06c0,3.15-0.57,4.87-2.67,5.87
			c-2.1,1-4.77,1.15-8.2,1.15c-0.24-1.91-1.24-4.67-2.15-6.49c2,0.1,4.58,0.1,5.29,0.1c0.72,0,0.95-0.14,0.95-0.76v-8.92h-16.03
			v-6.01h16.03v-2.86h-14.83V89.9h8.92v-3.58h-10.11v-6.06h10.11v-4.77h6.82v4.77h10.16v6.06H265.11z M255.29,104.78
			c1.72,2.24,4.25,5.44,5.49,7.44l-6.11,3.53c-1.05-2-3.43-5.39-5.15-7.87L255.29,104.78z"/>
		<path class="st0" d="M321.25,76.97v43.88h-7.58v-2.58h-26.76v2.58h-7.2V76.97H321.25z M313.67,111.84V84.08h-26.76v27.76H313.67z
			 M310.33,88.66v18.75H290.2V88.66H310.33z M303.37,94.67h-6.63v6.77h6.63V94.67z"/>
		<path class="st0" d="M332.46,86.13c-1.53,1.48-3.2,2.77-4.82,3.82c-0.33-1.34-1.72-4.77-2.53-6.25c3.58-2.05,7.35-5.39,9.4-8.97
			l5.34,1.96c-0.19,0.38-0.43,0.76-0.67,1.19c2.15,0.81,4.63,1.76,6.06,2.48l-2.72,5.39c-0.38-0.24-0.91-0.48-1.43-0.76v4.01h-8.63
			V86.13z M340.52,107.88c1.48,2.91,3.43,6.87,4.34,9.25l-4.96,2.38c-0.29-0.86-0.67-1.96-1.14-3.1c-7.97,2.72-9.59,3.53-10.64,4.29
			c-0.29-1.57-1.19-4.29-2.1-5.63c1-0.43,1.96-1.19,1.96-3V90.04h15.36v17.79h-9.49v4.58l2.81-0.86l-0.76-1.67L340.52,107.88z
			 M333.84,94.91v1.72h3.48v-1.72H333.84z M337.33,102.97v-1.67h-3.48v1.67H337.33z M340.24,84.56c-1.38-0.67-2.96-1.38-4.39-2
			c-0.57,0.72-1.19,1.34-1.76,2H340.24z M354.54,87.04h-8.44v-9.06h8.44v-2.43h6.25v2.43h8.3v9.06h-8.3v1.1h9.97v4.82h-26.23v-4.82
			h10.02V87.04z M364.66,112.56c2.53,1.72,5.06,3.53,6.58,4.87l-5.2,3.39c-1.76-1.72-5.06-4.44-7.77-6.34l2.34-1.91h-8.11l4.72,1.48
			c-1.86,2.72-5.06,5.34-8.01,6.87c-1-1.19-3.24-3.48-4.58-4.53c2.34-0.95,4.67-2.34,6.11-3.82h-4.44V94h22.28v18.56H364.66z
			 M354.54,83.22v-1.48h-2.81v1.48H354.54z M352.45,99.06h9.68v-1.29h-9.68V99.06z M352.45,103.92h9.68v-1.34h-9.68V103.92z
			 M352.45,108.84h9.68v-1.38h-9.68V108.84z M360.79,81.74v1.48h2.39v-1.48H360.79z"/>
	</g>
</g>
<g>
	<g>
		<path class="st0" d="M146.86,148.66H68.3c-2.75,0-5,2.25-5,5v18.68v5.34v11.95l8.72-6.95h74.84c2.75,0,5-2.25,5-5v-24.02
			C151.86,150.91,149.61,148.66,146.86,148.66z"/>
		
			<text transform="matrix(1 0 0 1 72.2746 172.3422)" class="st1" style="font-family:'SourceHanSansTW-Bold-B5pc-H'; font-size:17.3159px;">避震專家</text>
	</g>
	<text transform="matrix(1 0 0 1 -0.5347 218.6235)"><tspan x="0" y="0" class="st2" style="font-family:'SourceHanSansTW-Bold-B5pc-H'; font-size:45px; letter-spacing:-2;">0.3</tspan><tspan x="60.88" y="0" class="st2" style="font-family:'SourceHanSansTW-Bold-B5pc-H'; font-size:25.7533px;">%驚喜優惠</tspan></text>
	
		<text transform="matrix(1 0 0 1 1.2937 264.9889)" class="st0" style="font-family:'SourceHanSansTW-Medium-B5pc-H'; font-size:45px;">精選基金</text>
	
		<text transform="matrix(1 0 0 1 181.2119 264.9889)" class="st0" style="font-family:'SourceHanSansTW-Heavy-B5pc-H'; font-size:47.6971px;">限時回饋</text>
</g>
</svg>
